0
SECTION
2
HEADER
9
$ACADVER
1
AC1009
9
$INSUNITS
70
4
0
ENDSEC
0
SECTION
2
ENTITIES
0
LINE
8
frame
10
1750
20
72500
30
0
11
103250
21
72500
31
0
0
LINE
8
frame
10
103250
20
72500
30
0
11
103250
21
1750
31
0
0
LINE
8
frame
10
103250
20
1750
30
0
11
1750
21
1750
31
0
0
LINE
8
frame
10
1750
20
1750
30
0
11
1750
21
72500
31
0
0
TEXT
8
annotation
10
3500
20
69750
30
0
40
1050.0
1
PHOENIX SCIENCE PARK
50
0
0
TEXT
8
annotation
10
3500
20
67750
30
0
40
1250.0
1
DINING_E / Floor plan
50
0
0
TEXT
8
annotation
10
96700.0
20
69750
30
0
40
800.0
1
A3  |  1:250
50
0
0
TEXT
8
annotation
10
92500.0
20
67750
30
0
40
750.0
1
CAD-DINING_E-PLAN  /  R1
50
0
0
LINE
8
frame
10
3500
20
66500
30
0
11
101500
21
66500
31
0
0
LINE
8
cut
10
21825.0
20
25424.999999999996
30
0
11
21825.0
21
24575.000000000004
31
0
0
LINE
8
cut
10
21825.0
20
25424.999999999996
30
0
11
22675.0
21
25424.999999999996
31
0
0
LINE
8
cut
10
21825.0
20
24575.000000000004
30
0
11
22675.0
21
24575.000000000004
31
0
0
LINE
8
cut
10
22675.0
20
25424.999999999996
30
0
11
22675.0
21
24575.000000000004
31
0
0
LINE
8
cut
10
33425.0
20
25424.999999999996
30
0
11
33425.0
21
24575.000000000004
31
0
0
LINE
8
cut
10
33425.0
20
25424.999999999996
30
0
11
34275.0
21
25424.999999999996
31
0
0
LINE
8
cut
10
33425.0
20
24575.000000000004
30
0
11
34275.0
21
24575.000000000004
31
0
0
LINE
8
cut
10
34275.0
20
25424.999999999996
30
0
11
34275.0
21
24575.000000000004
31
0
0
LINE
8
cut
10
45025.0
20
25424.999999999996
30
0
11
45025.0
21
24575.000000000004
31
0
0
LINE
8
cut
10
45025.0
20
25424.999999999996
30
0
11
45875.0
21
25424.999999999996
31
0
0
LINE
8
cut
10
45025.0
20
24575.000000000004
30
0
11
45875.0
21
24575.000000000004
31
0
0
LINE
8
cut
10
45875.0
20
25424.999999999996
30
0
11
45875.0
21
24575.000000000004
31
0
0
LINE
8
cut
10
56625.0
20
25424.999999999996
30
0
11
56625.0
21
24575.000000000004
31
0
0
LINE
8
cut
10
56625.0
20
25424.999999999996
30
0
11
57475.0
21
25424.999999999996
31
0
0
LINE
8
cut
10
56625.0
20
24575.000000000004
30
0
11
57475.0
21
24575.000000000004
31
0
0
LINE
8
cut
10
57475.0
20
25424.999999999996
30
0
11
57475.0
21
24575.000000000004
31
0
0
LINE
8
cut
10
68225.0
20
25424.999999999996
30
0
11
68225.0
21
24575.000000000004
31
0
0
LINE
8
cut
10
68225.0
20
25424.999999999996
30
0
11
69075.0
21
25424.999999999996
31
0
0
LINE
8
cut
10
68225.0
20
24575.000000000004
30
0
11
69075.0
21
24575.000000000004
31
0
0
LINE
8
cut
10
69075.0
20
25424.999999999996
30
0
11
69075.0
21
24575.000000000004
31
0
0
LINE
8
cut
10
79825.0
20
25424.999999999996
30
0
11
79825.0
21
24575.000000000004
31
0
0
LINE
8
cut
10
79825.0
20
25424.999999999996
30
0
11
80675.0
21
25424.999999999996
31
0
0
LINE
8
cut
10
79825.0
20
24575.000000000004
30
0
11
80675.0
21
24575.000000000004
31
0
0
LINE
8
cut
10
80675.0
20
25424.999999999996
30
0
11
80675.0
21
24575.000000000004
31
0
0
LINE
8
cut
10
21825.0
20
40925.0
30
0
11
21825.0
21
40075.0
31
0
0
LINE
8
cut
10
21825.0
20
40925.0
30
0
11
22675.0
21
40925.0
31
0
0
LINE
8
cut
10
21825.0
20
40075.0
30
0
11
22675.0
21
40075.0
31
0
0
LINE
8
cut
10
22675.0
20
40925.0
30
0
11
22675.0
21
40075.0
31
0
0
LINE
8
cut
10
33425.0
20
40925.0
30
0
11
33425.0
21
40075.0
31
0
0
LINE
8
cut
10
33425.0
20
40925.0
30
0
11
34275.0
21
40925.0
31
0
0
LINE
8
cut
10
33425.0
20
40075.0
30
0
11
34275.0
21
40075.0
31
0
0
LINE
8
cut
10
34275.0
20
40925.0
30
0
11
34275.0
21
40075.0
31
0
0
LINE
8
cut
10
45025.0
20
40925.0
30
0
11
45025.0
21
40075.0
31
0
0
LINE
8
cut
10
45025.0
20
40925.0
30
0
11
45875.0
21
40925.0
31
0
0
LINE
8
cut
10
45025.0
20
40075.0
30
0
11
45875.0
21
40075.0
31
0
0
LINE
8
cut
10
45875.0
20
40925.0
30
0
11
45875.0
21
40075.0
31
0
0
LINE
8
cut
10
56625.0
20
40925.0
30
0
11
56625.0
21
40075.0
31
0
0
LINE
8
cut
10
56625.0
20
40925.0
30
0
11
57475.0
21
40925.0
31
0
0
LINE
8
cut
10
56625.0
20
40075.0
30
0
11
57475.0
21
40075.0
31
0
0
LINE
8
cut
10
57475.0
20
40925.0
30
0
11
57475.0
21
40075.0
31
0
0
LINE
8
cut
10
68225.0
20
40925.0
30
0
11
68225.0
21
40075.0
31
0
0
LINE
8
cut
10
68225.0
20
40925.0
30
0
11
69075.0
21
40925.0
31
0
0
LINE
8
cut
10
68225.0
20
40075.0
30
0
11
69075.0
21
40075.0
31
0
0
LINE
8
cut
10
69075.0
20
40925.0
30
0
11
69075.0
21
40075.0
31
0
0
LINE
8
cut
10
79825.0
20
40925.0
30
0
11
79825.0
21
40075.0
31
0
0
LINE
8
cut
10
79825.0
20
40925.0
30
0
11
80675.0
21
40925.0
31
0
0
LINE
8
cut
10
79825.0
20
40075.0
30
0
11
80675.0
21
40075.0
31
0
0
LINE
8
cut
10
80675.0
20
40925.0
30
0
11
80675.0
21
40075.0
31
0
0
LINE
8
cut
10
21825.0
20
56425.0
30
0
11
21825.0
21
55575.0
31
0
0
LINE
8
cut
10
21825.0
20
56425.0
30
0
11
22675.0
21
56425.0
31
0
0
LINE
8
cut
10
21825.0
20
55575.0
30
0
11
22675.0
21
55575.0
31
0
0
LINE
8
cut
10
22675.0
20
56425.0
30
0
11
22675.0
21
55575.0
31
0
0
LINE
8
cut
10
33425.0
20
56425.0
30
0
11
33425.0
21
55575.0
31
0
0
LINE
8
cut
10
33425.0
20
56425.0
30
0
11
34275.0
21
56425.0
31
0
0
LINE
8
cut
10
33425.0
20
55575.0
30
0
11
34275.0
21
55575.0
31
0
0
LINE
8
cut
10
34275.0
20
56425.0
30
0
11
34275.0
21
55575.0
31
0
0
LINE
8
cut
10
45025.0
20
56425.0
30
0
11
45025.0
21
55575.0
31
0
0
LINE
8
cut
10
45025.0
20
56425.0
30
0
11
45875.0
21
56425.0
31
0
0
LINE
8
cut
10
45025.0
20
55575.0
30
0
11
45875.0
21
55575.0
31
0
0
LINE
8
cut
10
45875.0
20
56425.0
30
0
11
45875.0
21
55575.0
31
0
0
LINE
8
cut
10
56625.0
20
56425.0
30
0
11
56625.0
21
55575.0
31
0
0
LINE
8
cut
10
56625.0
20
56425.0
30
0
11
57475.0
21
56425.0
31
0
0
LINE
8
cut
10
56625.0
20
55575.0
30
0
11
57475.0
21
55575.0
31
0
0
LINE
8
cut
10
57475.0
20
56425.0
30
0
11
57475.0
21
55575.0
31
0
0
LINE
8
cut
10
68225.0
20
56425.0
30
0
11
68225.0
21
55575.0
31
0
0
LINE
8
cut
10
68225.0
20
56425.0
30
0
11
69075.0
21
56425.0
31
0
0
LINE
8
cut
10
68225.0
20
55575.0
30
0
11
69075.0
21
55575.0
31
0
0
LINE
8
cut
10
69075.0
20
56425.0
30
0
11
69075.0
21
55575.0
31
0
0
LINE
8
cut
10
79825.0
20
56425.0
30
0
11
79825.0
21
55575.0
31
0
0
LINE
8
cut
10
79825.0
20
56425.0
30
0
11
80675.0
21
56425.0
31
0
0
LINE
8
cut
10
79825.0
20
55575.0
30
0
11
80675.0
21
55575.0
31
0
0
LINE
8
cut
10
80675.0
20
56425.0
30
0
11
80675.0
21
55575.0
31
0
0
LINE
8
cut
10
20830.0
20
23560.000000000004
30
0
11
20830.0
21
23439.999999999996
31
0
0
LINE
8
cut
10
20830.0
20
23560.000000000004
30
0
11
24058.89
21
23560.000000000004
31
0
0
LINE
8
cut
10
20830.0
20
23439.999999999996
30
0
11
24058.89
21
23439.999999999996
31
0
0
LINE
8
cut
10
24058.89
20
23560.000000000004
30
0
11
24058.89
21
23439.999999999996
31
0
0
LINE
8
cut
10
24218.89
20
23560.000000000004
30
0
11
24218.89
21
23439.999999999996
31
0
0
LINE
8
cut
10
24218.89
20
23560.000000000004
30
0
11
27447.78
21
23560.000000000004
31
0
0
LINE
8
cut
10
24218.89
20
23439.999999999996
30
0
11
27447.78
21
23439.999999999996
31
0
0
LINE
8
cut
10
27447.78
20
23560.000000000004
30
0
11
27447.78
21
23439.999999999996
31
0
0
LINE
8
cut
10
27607.78
20
23560.000000000004
30
0
11
27607.78
21
23439.999999999996
31
0
0
LINE
8
cut
10
27607.78
20
23560.000000000004
30
0
11
30836.67
21
23560.000000000004
31
0
0
LINE
8
cut
10
27607.78
20
23439.999999999996
30
0
11
30836.67
21
23439.999999999996
31
0
0
LINE
8
cut
10
30836.67
20
23560.000000000004
30
0
11
30836.67
21
23439.999999999996
31
0
0
LINE
8
cut
10
30996.67
20
23560.000000000004
30
0
11
30996.67
21
23439.999999999996
31
0
0
LINE
8
cut
10
30996.67
20
23560.000000000004
30
0
11
34225.560000000005
21
23560.000000000004
31
0
0
LINE
8
cut
10
30996.67
20
23439.999999999996
30
0
11
34225.560000000005
21
23439.999999999996
31
0
0
LINE
8
cut
10
34225.560000000005
20
23560.000000000004
30
0
11
34225.560000000005
21
23439.999999999996
31
0
0
LINE
8
cut
10
34385.56
20
23560.000000000004
30
0
11
34385.56
21
23439.999999999996
31
0
0
LINE
8
cut
10
34385.56
20
23560.000000000004
30
0
11
37614.44
21
23560.000000000004
31
0
0
LINE
8
cut
10
34385.56
20
23439.999999999996
30
0
11
37614.44
21
23439.999999999996
31
0
0
LINE
8
cut
10
37614.44
20
23560.000000000004
30
0
11
37614.44
21
23439.999999999996
31
0
0
LINE
8
cut
10
37774.439999999995
20
23560.000000000004
30
0
11
37774.439999999995
21
23439.999999999996
31
0
0
LINE
8
cut
10
37774.439999999995
20
23560.000000000004
30
0
11
41003.33
21
23560.000000000004
31
0
0
LINE
8
cut
10
37774.439999999995
20
23439.999999999996
30
0
11
41003.33
21
23439.999999999996
31
0
0
LINE
8
cut
10
41003.33
20
23560.000000000004
30
0
11
41003.33
21
23439.999999999996
31
0
0
LINE
8
cut
10
41163.33
20
23560.000000000004
30
0
11
41163.33
21
23439.999999999996
31
0
0
LINE
8
cut
10
41163.33
20
23560.000000000004
30
0
11
44392.22
21
23560.000000000004
31
0
0
LINE
8
cut
10
41163.33
20
23439.999999999996
30
0
11
44392.22
21
23439.999999999996
31
0
0
LINE
8
cut
10
44392.22
20
23560.000000000004
30
0
11
44392.22
21
23439.999999999996
31
0
0
LINE
8
cut
10
44552.22
20
23560.000000000004
30
0
11
44552.22
21
23439.999999999996
31
0
0
LINE
8
cut
10
44552.22
20
23560.000000000004
30
0
11
47781.11
21
23560.000000000004
31
0
0
LINE
8
cut
10
44552.22
20
23439.999999999996
30
0
11
47781.11
21
23439.999999999996
31
0
0
LINE
8
cut
10
47781.11
20
23560.000000000004
30
0
11
47781.11
21
23439.999999999996
31
0
0
LINE
8
cut
10
47941.11
20
23560.000000000004
30
0
11
47941.11
21
23439.999999999996
31
0
0
LINE
8
cut
10
47941.11
20
23560.000000000004
30
0
11
51170.0
21
23560.000000000004
31
0
0
LINE
8
cut
10
47941.11
20
23439.999999999996
30
0
11
51170.0
21
23439.999999999996
31
0
0
LINE
8
cut
10
51170.0
20
23560.000000000004
30
0
11
51170.0
21
23439.999999999996
31
0
0
LINE
8
cut
10
51330.0
20
23560.000000000004
30
0
11
51330.0
21
23439.999999999996
31
0
0
LINE
8
cut
10
51330.0
20
23560.000000000004
30
0
11
54558.89
21
23560.000000000004
31
0
0
LINE
8
cut
10
51330.0
20
23439.999999999996
30
0
11
54558.89
21
23439.999999999996
31
0
0
LINE
8
cut
10
54558.89
20
23560.000000000004
30
0
11
54558.89
21
23439.999999999996
31
0
0
LINE
8
cut
10
54718.89
20
23560.000000000004
30
0
11
54718.89
21
23439.999999999996
31
0
0
LINE
8
cut
10
54718.89
20
23560.000000000004
30
0
11
57947.78
21
23560.000000000004
31
0
0
LINE
8
cut
10
54718.89
20
23439.999999999996
30
0
11
57947.78
21
23439.999999999996
31
0
0
LINE
8
cut
10
57947.78
20
23560.000000000004
30
0
11
57947.78
21
23439.999999999996
31
0
0
LINE
8
cut
10
58107.78
20
23560.000000000004
30
0
11
58107.78
21
23439.999999999996
31
0
0
LINE
8
cut
10
58107.78
20
23560.000000000004
30
0
11
61336.67
21
23560.000000000004
31
0
0
LINE
8
cut
10
58107.78
20
23439.999999999996
30
0
11
61336.67
21
23439.999999999996
31
0
0
LINE
8
cut
10
61336.67
20
23560.000000000004
30
0
11
61336.67
21
23439.999999999996
31
0
0
LINE
8
cut
10
61496.67
20
23560.000000000004
30
0
11
61496.67
21
23439.999999999996
31
0
0
LINE
8
cut
10
61496.67
20
23560.000000000004
30
0
11
64725.560000000005
21
23560.000000000004
31
0
0
LINE
8
cut
10
61496.67
20
23439.999999999996
30
0
11
64725.560000000005
21
23439.999999999996
31
0
0
LINE
8
cut
10
64725.560000000005
20
23560.000000000004
30
0
11
64725.560000000005
21
23439.999999999996
31
0
0
LINE
8
cut
10
64885.56
20
23560.000000000004
30
0
11
64885.56
21
23439.999999999996
31
0
0
LINE
8
cut
10
64885.56
20
23560.000000000004
30
0
11
68114.44
21
23560.000000000004
31
0
0
LINE
8
cut
10
64885.56
20
23439.999999999996
30
0
11
68114.44
21
23439.999999999996
31
0
0
LINE
8
cut
10
68114.44
20
23560.000000000004
30
0
11
68114.44
21
23439.999999999996
31
0
0
LINE
8
cut
10
68274.44
20
23560.000000000004
30
0
11
68274.44
21
23439.999999999996
31
0
0
LINE
8
cut
10
68274.44
20
23560.000000000004
30
0
11
71503.33
21
23560.000000000004
31
0
0
LINE
8
cut
10
68274.44
20
23439.999999999996
30
0
11
71503.33
21
23439.999999999996
31
0
0
LINE
8
cut
10
71503.33
20
23560.000000000004
30
0
11
71503.33
21
23439.999999999996
31
0
0
LINE
8
cut
10
71663.33
20
23560.000000000004
30
0
11
71663.33
21
23439.999999999996
31
0
0
LINE
8
cut
10
71663.33
20
23560.000000000004
30
0
11
74892.22000000002
21
23560.000000000004
31
0
0
LINE
8
cut
10
71663.33
20
23439.999999999996
30
0
11
74892.22000000002
21
23439.999999999996
31
0
0
LINE
8
cut
10
74892.22000000002
20
23560.000000000004
30
0
11
74892.22000000002
21
23439.999999999996
31
0
0
LINE
8
cut
10
75052.22
20
23560.000000000004
30
0
11
75052.22
21
23439.999999999996
31
0
0
LINE
8
cut
10
75052.22
20
23560.000000000004
30
0
11
78281.11
21
23560.000000000004
31
0
0
LINE
8
cut
10
75052.22
20
23439.999999999996
30
0
11
78281.11
21
23439.999999999996
31
0
0
LINE
8
cut
10
78281.11
20
23560.000000000004
30
0
11
78281.11
21
23439.999999999996
31
0
0
LINE
8
cut
10
78441.11000000002
20
23560.000000000004
30
0
11
78441.11000000002
21
23439.999999999996
31
0
0
LINE
8
cut
10
78441.11000000002
20
23560.000000000004
30
0
11
81670.0
21
23560.000000000004
31
0
0
LINE
8
cut
10
78441.11000000002
20
23439.999999999996
30
0
11
81670.0
21
23439.999999999996
31
0
0
LINE
8
cut
10
81670.0
20
23560.000000000004
30
0
11
81670.0
21
23439.999999999996
31
0
0
LINE
8
cut
10
20690.0
20
23480.000000000004
30
0
11
20690.0
21
23159.999999999996
31
0
0
LINE
8
cut
10
20690.0
20
23480.000000000004
30
0
11
20810.0
21
23480.000000000004
31
0
0
LINE
8
cut
10
20690.0
20
23159.999999999996
30
0
11
20810.0
21
23159.999999999996
31
0
0
LINE
8
cut
10
20810.0
20
23480.000000000004
30
0
11
20810.0
21
23159.999999999996
31
0
0
LINE
8
cut
10
24078.89
20
23480.000000000004
30
0
11
24078.89
21
23159.999999999996
31
0
0
LINE
8
cut
10
24078.89
20
23480.000000000004
30
0
11
24198.89
21
23480.000000000004
31
0
0
LINE
8
cut
10
24078.89
20
23159.999999999996
30
0
11
24198.89
21
23159.999999999996
31
0
0
LINE
8
cut
10
24198.89
20
23480.000000000004
30
0
11
24198.89
21
23159.999999999996
31
0
0
LINE
8
cut
10
27467.78
20
23480.000000000004
30
0
11
27467.78
21
23159.999999999996
31
0
0
LINE
8
cut
10
27467.78
20
23480.000000000004
30
0
11
27587.78
21
23480.000000000004
31
0
0
LINE
8
cut
10
27467.78
20
23159.999999999996
30
0
11
27587.78
21
23159.999999999996
31
0
0
LINE
8
cut
10
27587.78
20
23480.000000000004
30
0
11
27587.78
21
23159.999999999996
31
0
0
LINE
8
cut
10
30856.67
20
23480.000000000004
30
0
11
30856.67
21
23159.999999999996
31
0
0
LINE
8
cut
10
30856.67
20
23480.000000000004
30
0
11
30976.67
21
23480.000000000004
31
0
0
LINE
8
cut
10
30856.67
20
23159.999999999996
30
0
11
30976.67
21
23159.999999999996
31
0
0
LINE
8
cut
10
30976.67
20
23480.000000000004
30
0
11
30976.67
21
23159.999999999996
31
0
0
LINE
8
cut
10
34245.56
20
23480.000000000004
30
0
11
34245.56
21
23159.999999999996
31
0
0
LINE
8
cut
10
34245.56
20
23480.000000000004
30
0
11
34365.560000000005
21
23480.000000000004
31
0
0
LINE
8
cut
10
34245.56
20
23159.999999999996
30
0
11
34365.560000000005
21
23159.999999999996
31
0
0
LINE
8
cut
10
34365.560000000005
20
23480.000000000004
30
0
11
34365.560000000005
21
23159.999999999996
31
0
0
LINE
8
cut
10
37634.439999999995
20
23480.000000000004
30
0
11
37634.439999999995
21
23159.999999999996
31
0
0
LINE
8
cut
10
37634.439999999995
20
23480.000000000004
30
0
11
37754.44
21
23480.000000000004
31
0
0
LINE
8
cut
10
37634.439999999995
20
23159.999999999996
30
0
11
37754.44
21
23159.999999999996
31
0
0
LINE
8
cut
10
37754.44
20
23480.000000000004
30
0
11
37754.44
21
23159.999999999996
31
0
0
LINE
8
cut
10
41023.33
20
23480.000000000004
30
0
11
41023.33
21
23159.999999999996
31
0
0
LINE
8
cut
10
41023.33
20
23480.000000000004
30
0
11
41143.33
21
23480.000000000004
31
0
0
LINE
8
cut
10
41023.33
20
23159.999999999996
30
0
11
41143.33
21
23159.999999999996
31
0
0
LINE
8
cut
10
41143.33
20
23480.000000000004
30
0
11
41143.33
21
23159.999999999996
31
0
0
LINE
8
cut
10
44412.22
20
23480.000000000004
30
0
11
44412.22
21
23159.999999999996
31
0
0
LINE
8
cut
10
44412.22
20
23480.000000000004
30
0
11
44532.22
21
23480.000000000004
31
0
0
LINE
8
cut
10
44412.22
20
23159.999999999996
30
0
11
44532.22
21
23159.999999999996
31
0
0
LINE
8
cut
10
44532.22
20
23480.000000000004
30
0
11
44532.22
21
23159.999999999996
31
0
0
LINE
8
cut
10
47801.11
20
23480.000000000004
30
0
11
47801.11
21
23159.999999999996
31
0
0
LINE
8
cut
10
47801.11
20
23480.000000000004
30
0
11
47921.11
21
23480.000000000004
31
0
0
LINE
8
cut
10
47801.11
20
23159.999999999996
30
0
11
47921.11
21
23159.999999999996
31
0
0
LINE
8
cut
10
47921.11
20
23480.000000000004
30
0
11
47921.11
21
23159.999999999996
31
0
0
LINE
8
cut
10
51190.0
20
23480.000000000004
30
0
11
51190.0
21
23159.999999999996
31
0
0
LINE
8
cut
10
51190.0
20
23480.000000000004
30
0
11
51310.0
21
23480.000000000004
31
0
0
LINE
8
cut
10
51190.0
20
23159.999999999996
30
0
11
51310.0
21
23159.999999999996
31
0
0
LINE
8
cut
10
51310.0
20
23480.000000000004
30
0
11
51310.0
21
23159.999999999996
31
0
0
LINE
8
cut
10
54578.89
20
23480.000000000004
30
0
11
54578.89
21
23159.999999999996
31
0
0
LINE
8
cut
10
54578.89
20
23480.000000000004
30
0
11
54698.89
21
23480.000000000004
31
0
0
LINE
8
cut
10
54578.89
20
23159.999999999996
30
0
11
54698.89
21
23159.999999999996
31
0
0
LINE
8
cut
10
54698.89
20
23480.000000000004
30
0
11
54698.89
21
23159.999999999996
31
0
0
LINE
8
cut
10
57967.78
20
23480.000000000004
30
0
11
57967.78
21
23159.999999999996
31
0
0
LINE
8
cut
10
57967.78
20
23480.000000000004
30
0
11
58087.78
21
23480.000000000004
31
0
0
LINE
8
cut
10
57967.78
20
23159.999999999996
30
0
11
58087.78
21
23159.999999999996
31
0
0
LINE
8
cut
10
58087.78
20
23480.000000000004
30
0
11
58087.78
21
23159.999999999996
31
0
0
LINE
8
cut
10
61356.67
20
23480.000000000004
30
0
11
61356.67
21
23159.999999999996
31
0
0
LINE
8
cut
10
61356.67
20
23480.000000000004
30
0
11
61476.67
21
23480.000000000004
31
0
0
LINE
8
cut
10
61356.67
20
23159.999999999996
30
0
11
61476.67
21
23159.999999999996
31
0
0
LINE
8
cut
10
61476.67
20
23480.000000000004
30
0
11
61476.67
21
23159.999999999996
31
0
0
LINE
8
cut
10
64745.56
20
23480.000000000004
30
0
11
64745.56
21
23159.999999999996
31
0
0
LINE
8
cut
10
64745.56
20
23480.000000000004
30
0
11
64865.560000000005
21
23480.000000000004
31
0
0
LINE
8
cut
10
64745.56
20
23159.999999999996
30
0
11
64865.560000000005
21
23159.999999999996
31
0
0
LINE
8
cut
10
64865.560000000005
20
23480.000000000004
30
0
11
64865.560000000005
21
23159.999999999996
31
0
0
LINE
8
cut
10
68134.44
20
23480.000000000004
30
0
11
68134.44
21
23159.999999999996
31
0
0
LINE
8
cut
10
68134.44
20
23480.000000000004
30
0
11
68254.44
21
23480.000000000004
31
0
0
LINE
8
cut
10
68134.44
20
23159.999999999996
30
0
11
68254.44
21
23159.999999999996
31
0
0
LINE
8
cut
10
68254.44
20
23480.000000000004
30
0
11
68254.44
21
23159.999999999996
31
0
0
LINE
8
cut
10
71523.33
20
23480.000000000004
30
0
11
71523.33
21
23159.999999999996
31
0
0
LINE
8
cut
10
71523.33
20
23480.000000000004
30
0
11
71643.33
21
23480.000000000004
31
0
0
LINE
8
cut
10
71523.33
20
23159.999999999996
30
0
11
71643.33
21
23159.999999999996
31
0
0
LINE
8
cut
10
71643.33
20
23480.000000000004
30
0
11
71643.33
21
23159.999999999996
31
0
0
LINE
8
cut
10
74912.22
20
23480.000000000004
30
0
11
74912.22
21
23159.999999999996
31
0
0
LINE
8
cut
10
74912.22
20
23480.000000000004
30
0
11
75032.22
21
23480.000000000004
31
0
0
LINE
8
cut
10
74912.22
20
23159.999999999996
30
0
11
75032.22
21
23159.999999999996
31
0
0
LINE
8
cut
10
75032.22
20
23480.000000000004
30
0
11
75032.22
21
23159.999999999996
31
0
0
LINE
8
cut
10
78301.11
20
23480.000000000004
30
0
11
78301.11
21
23159.999999999996
31
0
0
LINE
8
cut
10
78301.11
20
23480.000000000004
30
0
11
78421.11
21
23480.000000000004
31
0
0
LINE
8
cut
10
78301.11
20
23159.999999999996
30
0
11
78421.11
21
23159.999999999996
31
0
0
LINE
8
cut
10
78421.11
20
23480.000000000004
30
0
11
78421.11
21
23159.999999999996
31
0
0
LINE
8
cut
10
81690.0
20
23480.000000000004
30
0
11
81690.0
21
23159.999999999996
31
0
0
LINE
8
cut
10
81690.0
20
23480.000000000004
30
0
11
81810.0
21
23480.000000000004
31
0
0
LINE
8
cut
10
81690.0
20
23159.999999999996
30
0
11
81810.0
21
23159.999999999996
31
0
0
LINE
8
cut
10
81810.0
20
23480.000000000004
30
0
11
81810.0
21
23159.999999999996
31
0
0
LINE
8
cut
10
20600.0
20
57500.0
30
0
11
20600.0
21
23500.0
31
0
0
LINE
8
cut
10
20600.0
20
57500.0
30
0
11
20900.0
21
57500.0
31
0
0
LINE
8
cut
10
20600.0
20
23500.0
30
0
11
20900.0
21
23500.0
31
0
0
LINE
8
cut
10
20900.0
20
57500.0
30
0
11
20900.0
21
23500.0
31
0
0
LINE
8
cut
10
20830.0
20
57560.0
30
0
11
20830.0
21
57440.0
31
0
0
LINE
8
cut
10
20830.0
20
57560.0
30
0
11
24058.89
21
57560.0
31
0
0
LINE
8
cut
10
20830.0
20
57440.0
30
0
11
24058.89
21
57440.0
31
0
0
LINE
8
cut
10
24058.89
20
57560.0
30
0
11
24058.89
21
57440.0
31
0
0
LINE
8
cut
10
24218.89
20
57560.0
30
0
11
24218.89
21
57440.0
31
0
0
LINE
8
cut
10
24218.89
20
57560.0
30
0
11
27447.78
21
57560.0
31
0
0
LINE
8
cut
10
24218.89
20
57440.0
30
0
11
27447.78
21
57440.0
31
0
0
LINE
8
cut
10
27447.78
20
57560.0
30
0
11
27447.78
21
57440.0
31
0
0
LINE
8
cut
10
27607.78
20
57560.0
30
0
11
27607.78
21
57440.0
31
0
0
LINE
8
cut
10
27607.78
20
57560.0
30
0
11
30836.67
21
57560.0
31
0
0
LINE
8
cut
10
27607.78
20
57440.0
30
0
11
30836.67
21
57440.0
31
0
0
LINE
8
cut
10
30836.67
20
57560.0
30
0
11
30836.67
21
57440.0
31
0
0
LINE
8
cut
10
30996.67
20
57560.0
30
0
11
30996.67
21
57440.0
31
0
0
LINE
8
cut
10
30996.67
20
57560.0
30
0
11
34225.560000000005
21
57560.0
31
0
0
LINE
8
cut
10
30996.67
20
57440.0
30
0
11
34225.560000000005
21
57440.0
31
0
0
LINE
8
cut
10
34225.560000000005
20
57560.0
30
0
11
34225.560000000005
21
57440.0
31
0
0
LINE
8
cut
10
34385.56
20
57560.0
30
0
11
34385.56
21
57440.0
31
0
0
LINE
8
cut
10
34385.56
20
57560.0
30
0
11
37614.44
21
57560.0
31
0
0
LINE
8
cut
10
34385.56
20
57440.0
30
0
11
37614.44
21
57440.0
31
0
0
LINE
8
cut
10
37614.44
20
57560.0
30
0
11
37614.44
21
57440.0
31
0
0
LINE
8
cut
10
37774.439999999995
20
57560.0
30
0
11
37774.439999999995
21
57440.0
31
0
0
LINE
8
cut
10
37774.439999999995
20
57560.0
30
0
11
41003.33
21
57560.0
31
0
0
LINE
8
cut
10
37774.439999999995
20
57440.0
30
0
11
41003.33
21
57440.0
31
0
0
LINE
8
cut
10
41003.33
20
57560.0
30
0
11
41003.33
21
57440.0
31
0
0
LINE
8
cut
10
41163.33
20
57560.0
30
0
11
41163.33
21
57440.0
31
0
0
LINE
8
cut
10
41163.33
20
57560.0
30
0
11
44392.22
21
57560.0
31
0
0
LINE
8
cut
10
41163.33
20
57440.0
30
0
11
44392.22
21
57440.0
31
0
0
LINE
8
cut
10
44392.22
20
57560.0
30
0
11
44392.22
21
57440.0
31
0
0
LINE
8
cut
10
44552.22
20
57560.0
30
0
11
44552.22
21
57440.0
31
0
0
LINE
8
cut
10
44552.22
20
57560.0
30
0
11
47781.11
21
57560.0
31
0
0
LINE
8
cut
10
44552.22
20
57440.0
30
0
11
47781.11
21
57440.0
31
0
0
LINE
8
cut
10
47781.11
20
57560.0
30
0
11
47781.11
21
57440.0
31
0
0
LINE
8
cut
10
47941.11
20
57560.0
30
0
11
47941.11
21
57440.0
31
0
0
LINE
8
cut
10
47941.11
20
57560.0
30
0
11
51170.0
21
57560.0
31
0
0
LINE
8
cut
10
47941.11
20
57440.0
30
0
11
51170.0
21
57440.0
31
0
0
LINE
8
cut
10
51170.0
20
57560.0
30
0
11
51170.0
21
57440.0
31
0
0
LINE
8
cut
10
51330.0
20
57560.0
30
0
11
51330.0
21
57440.0
31
0
0
LINE
8
cut
10
51330.0
20
57560.0
30
0
11
54558.89
21
57560.0
31
0
0
LINE
8
cut
10
51330.0
20
57440.0
30
0
11
54558.89
21
57440.0
31
0
0
LINE
8
cut
10
54558.89
20
57560.0
30
0
11
54558.89
21
57440.0
31
0
0
LINE
8
cut
10
54718.89
20
57560.0
30
0
11
54718.89
21
57440.0
31
0
0
LINE
8
cut
10
54718.89
20
57560.0
30
0
11
57947.78
21
57560.0
31
0
0
LINE
8
cut
10
54718.89
20
57440.0
30
0
11
57947.78
21
57440.0
31
0
0
LINE
8
cut
10
57947.78
20
57560.0
30
0
11
57947.78
21
57440.0
31
0
0
LINE
8
cut
10
58107.78
20
57560.0
30
0
11
58107.78
21
57440.0
31
0
0
LINE
8
cut
10
58107.78
20
57560.0
30
0
11
61336.67
21
57560.0
31
0
0
LINE
8
cut
10
58107.78
20
57440.0
30
0
11
61336.67
21
57440.0
31
0
0
LINE
8
cut
10
61336.67
20
57560.0
30
0
11
61336.67
21
57440.0
31
0
0
LINE
8
cut
10
61496.67
20
57560.0
30
0
11
61496.67
21
57440.0
31
0
0
LINE
8
cut
10
61496.67
20
57560.0
30
0
11
64725.560000000005
21
57560.0
31
0
0
LINE
8
cut
10
61496.67
20
57440.0
30
0
11
64725.560000000005
21
57440.0
31
0
0
LINE
8
cut
10
64725.560000000005
20
57560.0
30
0
11
64725.560000000005
21
57440.0
31
0
0
LINE
8
cut
10
64885.56
20
57560.0
30
0
11
64885.56
21
57440.0
31
0
0
LINE
8
cut
10
64885.56
20
57560.0
30
0
11
68114.44
21
57560.0
31
0
0
LINE
8
cut
10
64885.56
20
57440.0
30
0
11
68114.44
21
57440.0
31
0
0
LINE
8
cut
10
68114.44
20
57560.0
30
0
11
68114.44
21
57440.0
31
0
0
LINE
8
cut
10
68274.44
20
57560.0
30
0
11
68274.44
21
57440.0
31
0
0
LINE
8
cut
10
68274.44
20
57560.0
30
0
11
71503.33
21
57560.0
31
0
0
LINE
8
cut
10
68274.44
20
57440.0
30
0
11
71503.33
21
57440.0
31
0
0
LINE
8
cut
10
71503.33
20
57560.0
30
0
11
71503.33
21
57440.0
31
0
0
LINE
8
cut
10
71663.33
20
57560.0
30
0
11
71663.33
21
57440.0
31
0
0
LINE
8
cut
10
71663.33
20
57560.0
30
0
11
74892.22000000002
21
57560.0
31
0
0
LINE
8
cut
10
71663.33
20
57440.0
30
0
11
74892.22000000002
21
57440.0
31
0
0
LINE
8
cut
10
74892.22000000002
20
57560.0
30
0
11
74892.22000000002
21
57440.0
31
0
0
LINE
8
cut
10
75052.22
20
57560.0
30
0
11
75052.22
21
57440.0
31
0
0
LINE
8
cut
10
75052.22
20
57560.0
30
0
11
78281.11
21
57560.0
31
0
0
LINE
8
cut
10
75052.22
20
57440.0
30
0
11
78281.11
21
57440.0
31
0
0
LINE
8
cut
10
78281.11
20
57560.0
30
0
11
78281.11
21
57440.0
31
0
0
LINE
8
cut
10
78441.11000000002
20
57560.0
30
0
11
78441.11000000002
21
57440.0
31
0
0
LINE
8
cut
10
78441.11000000002
20
57560.0
30
0
11
81670.0
21
57560.0
31
0
0
LINE
8
cut
10
78441.11000000002
20
57440.0
30
0
11
81670.0
21
57440.0
31
0
0
LINE
8
cut
10
81670.0
20
57560.0
30
0
11
81670.0
21
57440.0
31
0
0
LINE
8
cut
10
20690.0
20
57840.0
30
0
11
20690.0
21
57519.99999999999
31
0
0
LINE
8
cut
10
20690.0
20
57840.0
30
0
11
20810.0
21
57840.0
31
0
0
LINE
8
cut
10
20690.0
20
57519.99999999999
30
0
11
20810.0
21
57519.99999999999
31
0
0
LINE
8
cut
10
20810.0
20
57840.0
30
0
11
20810.0
21
57519.99999999999
31
0
0
LINE
8
cut
10
24078.89
20
57840.0
30
0
11
24078.89
21
57519.99999999999
31
0
0
LINE
8
cut
10
24078.89
20
57840.0
30
0
11
24198.89
21
57840.0
31
0
0
LINE
8
cut
10
24078.89
20
57519.99999999999
30
0
11
24198.89
21
57519.99999999999
31
0
0
LINE
8
cut
10
24198.89
20
57840.0
30
0
11
24198.89
21
57519.99999999999
31
0
0
LINE
8
cut
10
27467.78
20
57840.0
30
0
11
27467.78
21
57519.99999999999
31
0
0
LINE
8
cut
10
27467.78
20
57840.0
30
0
11
27587.78
21
57840.0
31
0
0
LINE
8
cut
10
27467.78
20
57519.99999999999
30
0
11
27587.78
21
57519.99999999999
31
0
0
LINE
8
cut
10
27587.78
20
57840.0
30
0
11
27587.78
21
57519.99999999999
31
0
0
LINE
8
cut
10
30856.67
20
57840.0
30
0
11
30856.67
21
57519.99999999999
31
0
0
LINE
8
cut
10
30856.67
20
57840.0
30
0
11
30976.67
21
57840.0
31
0
0
LINE
8
cut
10
30856.67
20
57519.99999999999
30
0
11
30976.67
21
57519.99999999999
31
0
0
LINE
8
cut
10
30976.67
20
57840.0
30
0
11
30976.67
21
57519.99999999999
31
0
0
LINE
8
cut
10
34245.56
20
57840.0
30
0
11
34245.56
21
57519.99999999999
31
0
0
LINE
8
cut
10
34245.56
20
57840.0
30
0
11
34365.560000000005
21
57840.0
31
0
0
LINE
8
cut
10
34245.56
20
57519.99999999999
30
0
11
34365.560000000005
21
57519.99999999999
31
0
0
LINE
8
cut
10
34365.560000000005
20
57840.0
30
0
11
34365.560000000005
21
57519.99999999999
31
0
0
LINE
8
cut
10
37634.439999999995
20
57840.0
30
0
11
37634.439999999995
21
57519.99999999999
31
0
0
LINE
8
cut
10
37634.439999999995
20
57840.0
30
0
11
37754.44
21
57840.0
31
0
0
LINE
8
cut
10
37634.439999999995
20
57519.99999999999
30
0
11
37754.44
21
57519.99999999999
31
0
0
LINE
8
cut
10
37754.44
20
57840.0
30
0
11
37754.44
21
57519.99999999999
31
0
0
LINE
8
cut
10
41023.33
20
57840.0
30
0
11
41023.33
21
57519.99999999999
31
0
0
LINE
8
cut
10
41023.33
20
57840.0
30
0
11
41143.33
21
57840.0
31
0
0
LINE
8
cut
10
41023.33
20
57519.99999999999
30
0
11
41143.33
21
57519.99999999999
31
0
0
LINE
8
cut
10
41143.33
20
57840.0
30
0
11
41143.33
21
57519.99999999999
31
0
0
LINE
8
cut
10
44412.22
20
57840.0
30
0
11
44412.22
21
57519.99999999999
31
0
0
LINE
8
cut
10
44412.22
20
57840.0
30
0
11
44532.22
21
57840.0
31
0
0
LINE
8
cut
10
44412.22
20
57519.99999999999
30
0
11
44532.22
21
57519.99999999999
31
0
0
LINE
8
cut
10
44532.22
20
57840.0
30
0
11
44532.22
21
57519.99999999999
31
0
0
LINE
8
cut
10
47801.11
20
57840.0
30
0
11
47801.11
21
57519.99999999999
31
0
0
LINE
8
cut
10
47801.11
20
57840.0
30
0
11
47921.11
21
57840.0
31
0
0
LINE
8
cut
10
47801.11
20
57519.99999999999
30
0
11
47921.11
21
57519.99999999999
31
0
0
LINE
8
cut
10
47921.11
20
57840.0
30
0
11
47921.11
21
57519.99999999999
31
0
0
LINE
8
cut
10
51190.0
20
57840.0
30
0
11
51190.0
21
57519.99999999999
31
0
0
LINE
8
cut
10
51190.0
20
57840.0
30
0
11
51310.0
21
57840.0
31
0
0
LINE
8
cut
10
51190.0
20
57519.99999999999
30
0
11
51310.0
21
57519.99999999999
31
0
0
LINE
8
cut
10
51310.0
20
57840.0
30
0
11
51310.0
21
57519.99999999999
31
0
0
LINE
8
cut
10
54578.89
20
57840.0
30
0
11
54578.89
21
57519.99999999999
31
0
0
LINE
8
cut
10
54578.89
20
57840.0
30
0
11
54698.89
21
57840.0
31
0
0
LINE
8
cut
10
54578.89
20
57519.99999999999
30
0
11
54698.89
21
57519.99999999999
31
0
0
LINE
8
cut
10
54698.89
20
57840.0
30
0
11
54698.89
21
57519.99999999999
31
0
0
LINE
8
cut
10
57967.78
20
57840.0
30
0
11
57967.78
21
57519.99999999999
31
0
0
LINE
8
cut
10
57967.78
20
57840.0
30
0
11
58087.78
21
57840.0
31
0
0
LINE
8
cut
10
57967.78
20
57519.99999999999
30
0
11
58087.78
21
57519.99999999999
31
0
0
LINE
8
cut
10
58087.78
20
57840.0
30
0
11
58087.78
21
57519.99999999999
31
0
0
LINE
8
cut
10
61356.67
20
57840.0
30
0
11
61356.67
21
57519.99999999999
31
0
0
LINE
8
cut
10
61356.67
20
57840.0
30
0
11
61476.67
21
57840.0
31
0
0
LINE
8
cut
10
61356.67
20
57519.99999999999
30
0
11
61476.67
21
57519.99999999999
31
0
0
LINE
8
cut
10
61476.67
20
57840.0
30
0
11
61476.67
21
57519.99999999999
31
0
0
LINE
8
cut
10
64745.56
20
57840.0
30
0
11
64745.56
21
57519.99999999999
31
0
0
LINE
8
cut
10
64745.56
20
57840.0
30
0
11
64865.560000000005
21
57840.0
31
0
0
LINE
8
cut
10
64745.56
20
57519.99999999999
30
0
11
64865.560000000005
21
57519.99999999999
31
0
0
LINE
8
cut
10
64865.560000000005
20
57840.0
30
0
11
64865.560000000005
21
57519.99999999999
31
0
0
LINE
8
cut
10
68134.44
20
57840.0
30
0
11
68134.44
21
57519.99999999999
31
0
0
LINE
8
cut
10
68134.44
20
57840.0
30
0
11
68254.44
21
57840.0
31
0
0
LINE
8
cut
10
68134.44
20
57519.99999999999
30
0
11
68254.44
21
57519.99999999999
31
0
0
LINE
8
cut
10
68254.44
20
57840.0
30
0
11
68254.44
21
57519.99999999999
31
0
0
LINE
8
cut
10
71523.33
20
57840.0
30
0
11
71523.33
21
57519.99999999999
31
0
0
LINE
8
cut
10
71523.33
20
57840.0
30
0
11
71643.33
21
57840.0
31
0
0
LINE
8
cut
10
71523.33
20
57519.99999999999
30
0
11
71643.33
21
57519.99999999999
31
0
0
LINE
8
cut
10
71643.33
20
57840.0
30
0
11
71643.33
21
57519.99999999999
31
0
0
LINE
8
cut
10
74912.22
20
57840.0
30
0
11
74912.22
21
57519.99999999999
31
0
0
LINE
8
cut
10
74912.22
20
57840.0
30
0
11
75032.22
21
57840.0
31
0
0
LINE
8
cut
10
74912.22
20
57519.99999999999
30
0
11
75032.22
21
57519.99999999999
31
0
0
LINE
8
cut
10
75032.22
20
57840.0
30
0
11
75032.22
21
57519.99999999999
31
0
0
LINE
8
cut
10
78301.11
20
57840.0
30
0
11
78301.11
21
57519.99999999999
31
0
0
LINE
8
cut
10
78301.11
20
57840.0
30
0
11
78421.11
21
57840.0
31
0
0
LINE
8
cut
10
78301.11
20
57519.99999999999
30
0
11
78421.11
21
57519.99999999999
31
0
0
LINE
8
cut
10
78421.11
20
57840.0
30
0
11
78421.11
21
57519.99999999999
31
0
0
LINE
8
cut
10
81690.0
20
57840.0
30
0
11
81690.0
21
57519.99999999999
31
0
0
LINE
8
cut
10
81690.0
20
57840.0
30
0
11
81810.0
21
57840.0
31
0
0
LINE
8
cut
10
81690.0
20
57519.99999999999
30
0
11
81810.0
21
57519.99999999999
31
0
0
LINE
8
cut
10
81810.0
20
57840.0
30
0
11
81810.0
21
57519.99999999999
31
0
0
LINE
8
cut
10
81600.0
20
57500.0
30
0
11
81600.0
21
23500.0
31
0
0
LINE
8
cut
10
81600.0
20
57500.0
30
0
11
81900.0
21
57500.0
31
0
0
LINE
8
cut
10
81600.0
20
23500.0
30
0
11
81900.0
21
23500.0
31
0
0
LINE
8
cut
10
81900.0
20
57500.0
30
0
11
81900.0
21
23500.0
31
0
0
LINE
8
interiors
10
68240.0
20
25000.0
30
0
11
68240.0
21
56000.0
31
0
0
LINE
8
interiors
10
68420.0
20
25000.0
30
0
11
68420.0
21
56000.0
31
0
0
LINE
8
interiors
10
68240.0
20
25000.0
30
0
11
68420.0
21
25000.0
31
0
0
LINE
8
interiors
10
68240.0
20
56000.0
30
0
11
68420.0
21
56000.0
31
0
0
LINE
8
interiors
10
66805.0
20
47210.0
30
0
11
66805.0
21
47390.0
31
0
0
LINE
8
interiors
10
80835.00000000001
20
47210.0
30
0
11
80835.00000000001
21
47390.0
31
0
0
LINE
8
interiors
10
66805.0
20
47210.0
30
0
11
80835.00000000001
21
47210.0
31
0
0
LINE
8
interiors
10
66805.0
20
47390.0
30
0
11
80835.00000000001
21
47390.0
31
0
0
LINE
8
interiors
10
27940.0
20
32500.0
30
0
11
27940.0
21
34500.0
31
0
0
LINE
8
interiors
10
30640.0
20
32500.0
30
0
11
30640.0
21
34500.0
31
0
0
LINE
8
interiors
10
27940.0
20
32500.0
30
0
11
30640.0
21
32500.0
31
0
0
LINE
8
interiors
10
27940.0
20
34500.0
30
0
11
30640.0
21
34500.0
31
0
0
LINE
8
interiors
10
34940.0
20
32500.0
30
0
11
34940.0
21
34500.0
31
0
0
LINE
8
interiors
10
37640.0
20
32500.0
30
0
11
37640.0
21
34500.0
31
0
0
LINE
8
interiors
10
34940.0
20
32500.0
30
0
11
37640.0
21
32500.0
31
0
0
LINE
8
interiors
10
34940.0
20
34500.0
30
0
11
37640.0
21
34500.0
31
0
0
LINE
8
interiors
10
41940.0
20
32500.0
30
0
11
41940.0
21
34500.0
31
0
0
LINE
8
interiors
10
44640.0
20
32500.0
30
0
11
44640.0
21
34500.0
31
0
0
LINE
8
interiors
10
41940.0
20
32500.0
30
0
11
44640.0
21
32500.0
31
0
0
LINE
8
interiors
10
41940.0
20
34500.0
30
0
11
44640.0
21
34500.0
31
0
0
LINE
8
interiors
10
48940.0
20
32500.0
30
0
11
48940.0
21
34500.0
31
0
0
LINE
8
interiors
10
51640.0
20
32500.0
30
0
11
51640.0
21
34500.0
31
0
0
LINE
8
interiors
10
48940.0
20
32500.0
30
0
11
51640.0
21
32500.0
31
0
0
LINE
8
interiors
10
48940.0
20
34500.0
30
0
11
51640.0
21
34500.0
31
0
0
LINE
8
interiors
10
55940.0
20
32500.0
30
0
11
55940.0
21
34500.0
31
0
0
LINE
8
interiors
10
58640.0
20
32500.0
30
0
11
58640.0
21
34500.0
31
0
0
LINE
8
interiors
10
55940.0
20
32500.0
30
0
11
58640.0
21
32500.0
31
0
0
LINE
8
interiors
10
55940.0
20
34500.0
30
0
11
58640.0
21
34500.0
31
0
0
LINE
8
interiors
10
62940.0
20
32500.0
30
0
11
62940.0
21
34500.0
31
0
0
LINE
8
interiors
10
65640.0
20
32500.0
30
0
11
65640.0
21
34500.0
31
0
0
LINE
8
interiors
10
62940.0
20
32500.0
30
0
11
65640.0
21
32500.0
31
0
0
LINE
8
interiors
10
62940.0
20
34500.0
30
0
11
65640.0
21
34500.0
31
0
0
LINE
8
interiors
10
27940.0
20
46500.0
30
0
11
27940.0
21
48500.0
31
0
0
LINE
8
interiors
10
30640.0
20
46500.0
30
0
11
30640.0
21
48500.0
31
0
0
LINE
8
interiors
10
27940.0
20
46500.0
30
0
11
30640.0
21
46500.0
31
0
0
LINE
8
interiors
10
27940.0
20
48500.0
30
0
11
30640.0
21
48500.0
31
0
0
LINE
8
interiors
10
34940.0
20
46500.0
30
0
11
34940.0
21
48500.0
31
0
0
LINE
8
interiors
10
37640.0
20
46500.0
30
0
11
37640.0
21
48500.0
31
0
0
LINE
8
interiors
10
34940.0
20
46500.0
30
0
11
37640.0
21
46500.0
31
0
0
LINE
8
interiors
10
34940.0
20
48500.0
30
0
11
37640.0
21
48500.0
31
0
0
LINE
8
interiors
10
41940.0
20
46500.0
30
0
11
41940.0
21
48500.0
31
0
0
LINE
8
interiors
10
44640.0
20
46500.0
30
0
11
44640.0
21
48500.0
31
0
0
LINE
8
interiors
10
41940.0
20
46500.0
30
0
11
44640.0
21
46500.0
31
0
0
LINE
8
interiors
10
41940.0
20
48500.0
30
0
11
44640.0
21
48500.0
31
0
0
LINE
8
interiors
10
48940.0
20
46500.0
30
0
11
48940.0
21
48500.0
31
0
0
LINE
8
interiors
10
51640.0
20
46500.0
30
0
11
51640.0
21
48500.0
31
0
0
LINE
8
interiors
10
48940.0
20
46500.0
30
0
11
51640.0
21
46500.0
31
0
0
LINE
8
interiors
10
48940.0
20
48500.0
30
0
11
51640.0
21
48500.0
31
0
0
LINE
8
interiors
10
55940.0
20
46500.0
30
0
11
55940.0
21
48500.0
31
0
0
LINE
8
interiors
10
58640.0
20
46500.0
30
0
11
58640.0
21
48500.0
31
0
0
LINE
8
interiors
10
55940.0
20
46500.0
30
0
11
58640.0
21
46500.0
31
0
0
LINE
8
interiors
10
55940.0
20
48500.0
30
0
11
58640.0
21
48500.0
31
0
0
LINE
8
interiors
10
62940.0
20
46500.0
30
0
11
62940.0
21
48500.0
31
0
0
LINE
8
interiors
10
65640.0
20
46500.0
30
0
11
65640.0
21
48500.0
31
0
0
LINE
8
interiors
10
62940.0
20
46500.0
30
0
11
65640.0
21
46500.0
31
0
0
LINE
8
interiors
10
62940.0
20
48500.0
30
0
11
65640.0
21
48500.0
31
0
0
LINE
8
datum
10
20750.0
20
23500.0
30
0
11
81750.0
21
23500.0
31
0
0
LINE
8
datum
10
81750.0
20
23500.0
30
0
11
81750.0
21
57500.0
31
0
0
LINE
8
datum
10
81750.0
20
57500.0
30
0
11
20750.0
21
57500.0
31
0
0
LINE
8
datum
10
20750.0
20
57500.0
30
0
11
20750.0
21
23500.0
31
0
0
LINE
8
grid
10
22250.0
20
21000.0
30
0
11
22250.0
21
62000.0
31
0
0
TEXT
8
annotation
10
22093.75
20
62500.0
30
0
40
625.0
1
1
50
0
0
LINE
8
grid
10
33850.0
20
21000.0
30
0
11
33850.0
21
62000.0
31
0
0
TEXT
8
annotation
10
33693.75
20
62500.0
30
0
40
625.0
1
2
50
0
0
LINE
8
grid
10
45450.0
20
21000.0
30
0
11
45450.0
21
62000.0
31
0
0
TEXT
8
annotation
10
45293.75
20
62500.0
30
0
40
625.0
1
3
50
0
0
LINE
8
grid
10
57050.0
20
21000.0
30
0
11
57050.0
21
62000.0
31
0
0
TEXT
8
annotation
10
56893.75
20
62500.0
30
0
40
625.0
1
4
50
0
0
LINE
8
grid
10
68650.0
20
21000.0
30
0
11
68650.0
21
62000.0
31
0
0
TEXT
8
annotation
10
68493.75
20
62500.0
30
0
40
625.0
1
5
50
0
0
LINE
8
grid
10
80250.0
20
21000.0
30
0
11
80250.0
21
62000.0
31
0
0
TEXT
8
annotation
10
80093.75
20
62500.0
30
0
40
625.0
1
6
50
0
0
LINE
8
grid
10
16750.0
20
25000.0
30
0
11
85750.0
21
25000.0
31
0
0
TEXT
8
annotation
10
15937.5
20
24750.0
30
0
40
625.0
1
A
50
0
0
LINE
8
grid
10
16750.0
20
40500.0
30
0
11
85750.0
21
40500.0
31
0
0
TEXT
8
annotation
10
15937.5
20
40250.0
30
0
40
625.0
1
B
50
0
0
LINE
8
grid
10
16750.0
20
56000.0
30
0
11
85750.0
21
56000.0
31
0
0
TEXT
8
annotation
10
15937.5
20
55750.0
30
0
40
625.0
1
C
50
0
0
LINE
8
dimension
10
20750.0
20
20500.0
30
0
11
81750.0
21
20500.0
31
0
0
LINE
8
dimension
10
20500.0
20
20250.0
30
0
11
21000.0
21
20750.0
31
0
0
LINE
8
dimension
10
81500.0
20
20250.0
30
0
11
82000.0
21
20750.0
31
0
0
TEXT
8
annotation
10
48062.5
20
20875.0
30
0
40
750.0
1
61,000 mm overall
50
0
0
LINE
8
dimension
10
84500.0
20
57500.0
30
0
11
84500.0
21
23500.0
31
0
0
TEXT
8
annotation
10
85250.0
20
40500.0
30
0
40
750.0
1
34,000
50
0
0
TEXT
8
annotation
10
95250.0
20
63000
30
0
40
1000.0
1
N
50
0
0
LINE
8
annotation
10
95500
20
62250
30
0
11
94750
21
60000
31
0
0
LINE
8
annotation
10
94750
20
60000
30
0
11
95500
21
60750
31
0
0
LINE
8
annotation
10
95500
20
60750
30
0
11
96250
21
60000
31
0
0
LINE
8
annotation
10
96250
20
60000
30
0
11
95500
21
62250
31
0
0
LINE
8
section-line
10
17750.0
20
40500.0
30
0
11
84750.0
21
40500.0
31
0
0
TEXT
8
annotation
10
16875.0
20
41000.0
30
0
40
750.0
1
A
50
0
0
TEXT
8
annotation
10
85250.0
20
41000.0
30
0
40
750.0
1
A
50
0
0
TEXT
8
annotation
10
38237.5
20
40500.0
30
0
40
675.0
1
DINING
50
0
0
TEXT
8
annotation
10
72068.75
20
40500.0
30
0
40
675.0
1
KITCHEN
50
0
0
TEXT
8
annotation
10
3500
20
16000
30
0
40
675.0
1
Primary X grid: 11,600 mm typical; terminal offsets close to overall envelope.
50
0
0
LINE
8
frame
10
3500
20
14750
30
0
11
101500
21
14750
31
0
0
TEXT
8
annotation
10
3500
20
12750
30
0
40
875.0
1
CONCEPT DESIGN | IMAGE-INFERRED | NOT FOR CONSTRUCTION
50
0
0
TEXT
8
annotation
10
3500
20
9500.0
30
0
40
662.5
1
Source: two campus AI images + fab1.jpg; official analogues documented in analysis/cad/.
50
0
0
TEXT
8
annotation
10
3500
20
8400.000000000005
30
0
40
662.5
1
CAD model in mm; site coordinates X east, Y north, Z up. Internal layouts and member sizes are design estimates.
50
0
0
TEXT
8
annotation
10
3500
20
7299.999999999997
30
0
40
662.5
1
Plans/sections are extracted from actual FreeCAD BRep. Elevations project component outlines; hidden edges omitted per component.
50
0
0
TEXT
8
annotation
10
3500
20
6200.000000000003
30
0
40
662.5
1
Civic wing roofs and skylight may differ from the nominal building height; inspect actual geometry and parameter aliases.
50
0
0
TEXT
8
annotation
10
3500
20
5099.9999999999945
30
0
40
662.5
1
No process certification, structural verification, measured survey, or construction approval is implied.
50
0
0
TEXT
8
annotation
10
89250.0
20
2750
30
0
40
700.0
1
2026-09-30  |  FreeCAD 1.1.4  |  mm
50
0
0
ENDSEC
0
EOF
