0
SECTION
2
HEADER
9
$ACADVER
1
AC1009
9
$INSUNITS
70
4
0
ENDSEC
0
SECTION
2
ENTITIES
0
LINE
8
frame
10
1400
20
58000
30
0
11
82600
21
58000
31
0
0
LINE
8
frame
10
82600
20
58000
30
0
11
82600
21
1400
31
0
0
LINE
8
frame
10
82600
20
1400
30
0
11
1400
21
1400
31
0
0
LINE
8
frame
10
1400
20
1400
30
0
11
1400
21
58000
31
0
0
TEXT
8
annotation
10
2800
20
55800
30
0
40
840.0
1
PHOENIX SCIENCE PARK
50
0
0
TEXT
8
annotation
10
2800
20
54200
30
0
40
1000.0
1
DINING_W / Section A-A
50
0
0
TEXT
8
annotation
10
77360.0
20
55800
30
0
40
640.0
1
A3  |  1:200
50
0
0
TEXT
8
annotation
10
73100.0
20
54200
30
0
40
600.0
1
CAD-DINING_W-SECTION  /  R1
50
0
0
LINE
8
frame
10
2800
20
53200
30
0
11
81200
21
53200
31
0
0
LINE
8
cut
10
8000.0
20
23250.0
30
0
11
8000.0
21
22050.0
31
0
0
LINE
8
cut
10
8000.0
20
23250.0
30
0
11
74000.0
21
23250.0
31
0
0
LINE
8
cut
10
8000.0
20
22050.0
30
0
11
74000.0
21
22050.0
31
0
0
LINE
8
cut
10
74000.0
20
23250.0
30
0
11
74000.0
21
22050.0
31
0
0
LINE
8
cut
10
11575.0
20
38250.0
30
0
11
11575.0
21
23250.0
31
0
0
LINE
8
cut
10
11575.0
20
38250.0
30
0
11
12425.0
21
38250.0
31
0
0
LINE
8
cut
10
11575.0
20
23250.0
30
0
11
12425.0
21
23250.0
31
0
0
LINE
8
cut
10
12425.0
20
38250.0
30
0
11
12425.0
21
23250.0
31
0
0
LINE
8
cut
10
23175.0
20
38250.0
30
0
11
23175.0
21
23250.0
31
0
0
LINE
8
cut
10
23175.0
20
38250.0
30
0
11
24025.0
21
38250.0
31
0
0
LINE
8
cut
10
23175.0
20
23250.0
30
0
11
24025.0
21
23250.0
31
0
0
LINE
8
cut
10
24025.0
20
38250.0
30
0
11
24025.0
21
23250.0
31
0
0
LINE
8
cut
10
34775.0
20
38250.0
30
0
11
34775.0
21
23250.0
31
0
0
LINE
8
cut
10
34775.0
20
38250.0
30
0
11
35625.0
21
38250.0
31
0
0
LINE
8
cut
10
34775.0
20
23250.0
30
0
11
35625.0
21
23250.0
31
0
0
LINE
8
cut
10
35625.0
20
38250.0
30
0
11
35625.0
21
23250.0
31
0
0
LINE
8
cut
10
46375.0
20
38250.0
30
0
11
46375.0
21
23250.0
31
0
0
LINE
8
cut
10
46375.0
20
38250.0
30
0
11
47225.0
21
38250.0
31
0
0
LINE
8
cut
10
46375.0
20
23250.0
30
0
11
47225.0
21
23250.0
31
0
0
LINE
8
cut
10
47225.0
20
38250.0
30
0
11
47225.0
21
23250.0
31
0
0
LINE
8
cut
10
57975.0
20
38250.0
30
0
11
57975.0
21
23250.0
31
0
0
LINE
8
cut
10
57975.0
20
38250.0
30
0
11
58825.0
21
38250.0
31
0
0
LINE
8
cut
10
57975.0
20
23250.0
30
0
11
58825.0
21
23250.0
31
0
0
LINE
8
cut
10
58825.0
20
38250.0
30
0
11
58825.0
21
23250.0
31
0
0
LINE
8
cut
10
69575.0
20
38250.0
30
0
11
69575.0
21
23250.0
31
0
0
LINE
8
cut
10
69575.0
20
38250.0
30
0
11
70425.0
21
38250.0
31
0
0
LINE
8
cut
10
69575.0
20
23250.0
30
0
11
70425.0
21
23250.0
31
0
0
LINE
8
cut
10
70425.0
20
38250.0
30
0
11
70425.0
21
23250.0
31
0
0
LINE
8
cut
10
10500.0
20
23650.0
30
0
11
10500.0
21
23250.0
31
0
0
LINE
8
cut
10
10500.0
20
23650.0
30
0
11
71500.0
21
23650.0
31
0
0
LINE
8
cut
10
10500.0
20
23250.0
30
0
11
71500.0
21
23250.0
31
0
0
LINE
8
cut
10
71500.0
20
23650.0
30
0
11
71500.0
21
23250.0
31
0
0
LINE
8
cut
10
10500.0
20
31150.0
30
0
11
10500.0
21
30750.0
31
0
0
LINE
8
cut
10
10500.0
20
31150.0
30
0
11
71500.0
21
31150.0
31
0
0
LINE
8
cut
10
10500.0
20
30750.0
30
0
11
71500.0
21
30750.0
31
0
0
LINE
8
cut
10
71500.0
20
31150.0
30
0
11
71500.0
21
30750.0
31
0
0
LINE
8
cut
10
10500.0
20
38650.0
30
0
11
10500.0
21
38250.0
31
0
0
LINE
8
cut
10
10500.0
20
38650.0
30
0
11
71500.0
21
38650.0
31
0
0
LINE
8
cut
10
10500.0
20
38250.0
30
0
11
71500.0
21
38250.0
31
0
0
LINE
8
cut
10
71500.0
20
38650.0
30
0
11
71500.0
21
38250.0
31
0
0
LINE
8
cut
10
10350.0
20
38250.0
30
0
11
10350.0
21
23650.0
31
0
0
LINE
8
cut
10
10350.0
20
38250.0
30
0
11
10650.0
21
38250.0
31
0
0
LINE
8
cut
10
10350.0
20
23650.0
30
0
11
10650.0
21
23650.0
31
0
0
LINE
8
cut
10
10650.0
20
38250.0
30
0
11
10650.0
21
23650.0
31
0
0
LINE
8
cut
10
71350.0
20
38250.0
30
0
11
71350.0
21
23650.0
31
0
0
LINE
8
cut
10
71350.0
20
38250.0
30
0
11
71650.0
21
38250.0
31
0
0
LINE
8
cut
10
71350.0
20
23650.0
30
0
11
71650.0
21
23650.0
31
0
0
LINE
8
cut
10
71650.0
20
38250.0
30
0
11
71650.0
21
23650.0
31
0
0
LINE
8
interiors
10
24010.0
20
23650.0
30
0
11
24010.0
21
26850.0
31
0
0
LINE
8
interiors
10
24010.0
20
26850.0
30
0
11
23830.0
21
26850.0
31
0
0
LINE
8
interiors
10
24010.0
20
23650.0
30
0
11
23830.0
21
23650.0
31
0
0
LINE
8
interiors
10
23830.0
20
23650.0
30
0
11
23830.0
21
26850.0
31
0
0
LINE
8
interiors
10
25445.0
20
23650.0
30
0
11
25445.0
21
26850.0
31
0
0
LINE
8
interiors
10
11414.999999999998
20
23650.0
30
0
11
11414.999999999998
21
26850.0
31
0
0
LINE
8
interiors
10
25445.0
20
23650.0
30
0
11
24010.0
21
23650.0
31
0
0
LINE
8
interiors
10
23830.0
20
23650.0
30
0
11
11414.999999999998
21
23650.0
31
0
0
LINE
8
interiors
10
25445.0
20
26850.0
30
0
11
24010.0
21
26850.0
31
0
0
LINE
8
interiors
10
23830.0
20
26850.0
30
0
11
11414.999999999998
21
26850.0
31
0
0
LINE
8
interiors
10
64310.0
20
24350.0
30
0
11
64310.0
21
24480.0
31
0
0
LINE
8
interiors
10
61610.0
20
24350.0
30
0
11
61610.0
21
24480.0
31
0
0
LINE
8
interiors
10
64310.0
20
24350.0
30
0
11
61610.0
21
24350.0
31
0
0
LINE
8
interiors
10
64310.0
20
24480.0
30
0
11
61610.0
21
24480.0
31
0
0
LINE
8
interiors
10
57310.0
20
24350.0
30
0
11
57310.0
21
24480.0
31
0
0
LINE
8
interiors
10
54610.0
20
24350.0
30
0
11
54610.0
21
24480.0
31
0
0
LINE
8
interiors
10
57310.0
20
24350.0
30
0
11
54610.0
21
24350.0
31
0
0
LINE
8
interiors
10
57310.0
20
24480.0
30
0
11
54610.0
21
24480.0
31
0
0
LINE
8
interiors
10
50310.0
20
24350.0
30
0
11
50310.0
21
24480.0
31
0
0
LINE
8
interiors
10
47610.0
20
24350.0
30
0
11
47610.0
21
24480.0
31
0
0
LINE
8
interiors
10
50310.0
20
24350.0
30
0
11
47610.0
21
24350.0
31
0
0
LINE
8
interiors
10
50310.0
20
24480.0
30
0
11
47610.0
21
24480.0
31
0
0
LINE
8
interiors
10
43310.0
20
24350.0
30
0
11
43310.0
21
24480.0
31
0
0
LINE
8
interiors
10
40610.0
20
24350.0
30
0
11
40610.0
21
24480.0
31
0
0
LINE
8
interiors
10
43310.0
20
24350.0
30
0
11
40610.0
21
24350.0
31
0
0
LINE
8
interiors
10
43310.0
20
24480.0
30
0
11
40610.0
21
24480.0
31
0
0
LINE
8
interiors
10
36310.0
20
24350.0
30
0
11
36310.0
21
24480.0
31
0
0
LINE
8
interiors
10
33610.0
20
24350.0
30
0
11
33610.0
21
24480.0
31
0
0
LINE
8
interiors
10
36310.0
20
24350.0
30
0
11
33610.0
21
24350.0
31
0
0
LINE
8
interiors
10
36310.0
20
24480.0
30
0
11
33610.0
21
24480.0
31
0
0
LINE
8
interiors
10
29310.000000000004
20
24350.0
30
0
11
29310.000000000004
21
24480.0
31
0
0
LINE
8
interiors
10
26610.000000000004
20
24350.0
30
0
11
26610.000000000004
21
24480.0
31
0
0
LINE
8
interiors
10
29310.000000000004
20
24350.0
30
0
11
26610.000000000004
21
24350.0
31
0
0
LINE
8
interiors
10
29310.000000000004
20
24480.0
30
0
11
26610.000000000004
21
24480.0
31
0
0
LINE
8
interiors
10
24010.0
20
31150.0
30
0
11
24010.0
21
34350.0
31
0
0
LINE
8
interiors
10
24010.0
20
34350.0
30
0
11
23830.0
21
34350.0
31
0
0
LINE
8
interiors
10
24010.0
20
31150.0
30
0
11
23830.0
21
31150.0
31
0
0
LINE
8
interiors
10
23830.0
20
31150.0
30
0
11
23830.0
21
34350.0
31
0
0
LINE
8
interiors
10
25445.0
20
31150.0
30
0
11
25445.0
21
34350.0
31
0
0
LINE
8
interiors
10
11414.999999999998
20
31150.0
30
0
11
11414.999999999998
21
34350.0
31
0
0
LINE
8
interiors
10
25445.0
20
31150.0
30
0
11
24010.0
21
31150.0
31
0
0
LINE
8
interiors
10
23830.0
20
31150.0
30
0
11
11414.999999999998
21
31150.0
31
0
0
LINE
8
interiors
10
25445.0
20
34350.0
30
0
11
24010.0
21
34350.0
31
0
0
LINE
8
interiors
10
23830.0
20
34350.0
30
0
11
11414.999999999998
21
34350.0
31
0
0
LINE
8
interiors
10
64310.0
20
31850.0
30
0
11
64310.0
21
31980.0
31
0
0
LINE
8
interiors
10
61610.0
20
31850.0
30
0
11
61610.0
21
31980.0
31
0
0
LINE
8
interiors
10
64310.0
20
31850.0
30
0
11
61610.0
21
31850.0
31
0
0
LINE
8
interiors
10
64310.0
20
31980.0
30
0
11
61610.0
21
31980.0
31
0
0
LINE
8
interiors
10
57310.0
20
31850.0
30
0
11
57310.0
21
31980.0
31
0
0
LINE
8
interiors
10
54610.0
20
31850.0
30
0
11
54610.0
21
31980.0
31
0
0
LINE
8
interiors
10
57310.0
20
31850.0
30
0
11
54610.0
21
31850.0
31
0
0
LINE
8
interiors
10
57310.0
20
31980.0
30
0
11
54610.0
21
31980.0
31
0
0
LINE
8
interiors
10
50310.0
20
31850.0
30
0
11
50310.0
21
31980.0
31
0
0
LINE
8
interiors
10
47610.0
20
31850.0
30
0
11
47610.0
21
31980.0
31
0
0
LINE
8
interiors
10
50310.0
20
31850.0
30
0
11
47610.0
21
31850.0
31
0
0
LINE
8
interiors
10
50310.0
20
31980.0
30
0
11
47610.0
21
31980.0
31
0
0
LINE
8
interiors
10
43310.0
20
31850.0
30
0
11
43310.0
21
31980.0
31
0
0
LINE
8
interiors
10
40610.0
20
31850.0
30
0
11
40610.0
21
31980.0
31
0
0
LINE
8
interiors
10
43310.0
20
31850.0
30
0
11
40610.0
21
31850.0
31
0
0
LINE
8
interiors
10
43310.0
20
31980.0
30
0
11
40610.0
21
31980.0
31
0
0
LINE
8
interiors
10
36310.0
20
31850.0
30
0
11
36310.0
21
31980.0
31
0
0
LINE
8
interiors
10
33610.0
20
31850.0
30
0
11
33610.0
21
31980.0
31
0
0
LINE
8
interiors
10
36310.0
20
31850.0
30
0
11
33610.0
21
31850.0
31
0
0
LINE
8
interiors
10
36310.0
20
31980.0
30
0
11
33610.0
21
31980.0
31
0
0
LINE
8
interiors
10
29310.000000000004
20
31850.0
30
0
11
29310.000000000004
21
31980.0
31
0
0
LINE
8
interiors
10
26610.000000000004
20
31850.0
30
0
11
26610.000000000004
21
31980.0
31
0
0
LINE
8
interiors
10
29310.000000000004
20
31850.0
30
0
11
26610.000000000004
21
31850.0
31
0
0
LINE
8
interiors
10
29310.000000000004
20
31980.0
30
0
11
26610.000000000004
21
31980.0
31
0
0
LINE
8
equipment
10
26900.0
20
38650.0
30
0
11
26900.0
21
39150.0
31
0
0
LINE
8
equipment
10
19100.0
20
38650.0
30
0
11
19100.0
21
39150.0
31
0
0
LINE
8
equipment
10
26900.0
20
38650.0
30
0
11
19100.0
21
38650.0
31
0
0
LINE
8
equipment
10
26900.0
20
39150.0
30
0
11
19100.0
21
39150.0
31
0
0
LINE
8
equipment
10
26100.0
20
39550.0
30
0
11
26100.0
21
41850.0
31
0
0
LINE
8
equipment
10
24300.0
20
39550.0
30
0
11
24300.0
21
41850.0
31
0
0
LINE
8
equipment
10
26100.0
20
39550.0
30
0
11
24300.0
21
39550.0
31
0
0
LINE
8
equipment
10
26100.0
20
41850.0
30
0
11
24300.0
21
41850.0
31
0
0
LINE
8
equipment
10
23540.0
20
42750.0
30
0
11
23565.07
21
42750.0
31
0
0
LINE
8
equipment
10
23565.07
20
42750.0
30
0
11
23639.03
21
42750.0
31
0
0
LINE
8
equipment
10
23639.03
20
42750.0
30
0
11
23758.17
21
42750.0
31
0
0
LINE
8
equipment
10
23758.17
20
42750.0
30
0
11
23916.51
21
42750.0
31
0
0
LINE
8
equipment
10
23916.51
20
42750.0
30
0
11
24106.12
21
42750.0
31
0
0
LINE
8
equipment
10
24106.12
20
42750.0
30
0
11
24317.48
21
42750.0
31
0
0
LINE
8
equipment
10
24317.48
20
42750.0
30
0
11
24540.0
21
42750.0
31
0
0
LINE
8
equipment
10
24540.0
20
42750.0
30
0
11
24762.52
21
42750.0
31
0
0
LINE
8
equipment
10
24762.52
20
42750.0
30
0
11
24973.88
21
42750.0
31
0
0
LINE
8
equipment
10
24973.88
20
42750.0
30
0
11
25163.489999999998
21
42750.0
31
0
0
LINE
8
equipment
10
25163.489999999998
20
42750.0
30
0
11
25321.83
21
42750.0
31
0
0
LINE
8
equipment
10
25321.83
20
42750.0
30
0
11
25440.969999999998
21
42750.0
31
0
0
LINE
8
equipment
10
25440.969999999998
20
42750.0
30
0
11
25514.93
21
42750.0
31
0
0
LINE
8
equipment
10
25514.93
20
42750.0
30
0
11
25540.0
21
42750.0
31
0
0
LINE
8
equipment
10
23540.0
20
42450.0
30
0
11
23565.07
21
42450.0
31
0
0
LINE
8
equipment
10
23565.07
20
42450.0
30
0
11
23639.03
21
42450.0
31
0
0
LINE
8
equipment
10
23639.03
20
42450.0
30
0
11
23758.17
21
42450.0
31
0
0
LINE
8
equipment
10
23758.17
20
42450.0
30
0
11
23916.51
21
42450.0
31
0
0
LINE
8
equipment
10
23916.51
20
42450.0
30
0
11
24106.12
21
42450.0
31
0
0
LINE
8
equipment
10
24106.12
20
42450.0
30
0
11
24317.48
21
42450.0
31
0
0
LINE
8
equipment
10
24317.48
20
42450.0
30
0
11
24540.0
21
42450.0
31
0
0
LINE
8
equipment
10
24540.0
20
42450.0
30
0
11
24762.52
21
42450.0
31
0
0
LINE
8
equipment
10
24762.52
20
42450.0
30
0
11
24973.88
21
42450.0
31
0
0
LINE
8
equipment
10
24973.88
20
42450.0
30
0
11
25163.489999999998
21
42450.0
31
0
0
LINE
8
equipment
10
25163.489999999998
20
42450.0
30
0
11
25321.83
21
42450.0
31
0
0
LINE
8
equipment
10
25321.83
20
42450.0
30
0
11
25440.969999999998
21
42450.0
31
0
0
LINE
8
equipment
10
25440.969999999998
20
42450.0
30
0
11
25514.93
21
42450.0
31
0
0
LINE
8
equipment
10
25514.93
20
42450.0
30
0
11
25540.0
21
42450.0
31
0
0
LINE
8
equipment
10
23900.0
20
39550.0
30
0
11
23900.0
21
41850.0
31
0
0
LINE
8
equipment
10
22100.0
20
39550.0
30
0
11
22100.0
21
41850.0
31
0
0
LINE
8
equipment
10
23900.0
20
39550.0
30
0
11
22100.0
21
39550.0
31
0
0
LINE
8
equipment
10
23900.0
20
41850.0
30
0
11
22100.0
21
41850.0
31
0
0
LINE
8
equipment
10
22000.0
20
42750.0
30
0
11
22025.07
21
42750.0
31
0
0
LINE
8
equipment
10
22025.07
20
42750.0
30
0
11
22099.03
21
42750.0
31
0
0
LINE
8
equipment
10
22099.03
20
42750.0
30
0
11
22218.17
21
42750.0
31
0
0
LINE
8
equipment
10
22218.17
20
42750.0
30
0
11
22376.51
21
42750.0
31
0
0
LINE
8
equipment
10
22376.51
20
42750.0
30
0
11
22566.12
21
42750.0
31
0
0
LINE
8
equipment
10
22566.12
20
42750.0
30
0
11
22777.48
21
42750.0
31
0
0
LINE
8
equipment
10
22777.48
20
42750.0
30
0
11
23000.0
21
42750.0
31
0
0
LINE
8
equipment
10
23000.0
20
42750.0
30
0
11
23222.52
21
42750.0
31
0
0
LINE
8
equipment
10
23222.52
20
42750.0
30
0
11
23433.88
21
42750.0
31
0
0
LINE
8
equipment
10
23433.88
20
42750.0
30
0
11
23623.49
21
42750.0
31
0
0
LINE
8
equipment
10
23623.49
20
42750.0
30
0
11
23781.83
21
42750.0
31
0
0
LINE
8
equipment
10
23781.83
20
42750.0
30
0
11
23900.97
21
42750.0
31
0
0
LINE
8
equipment
10
23900.97
20
42750.0
30
0
11
23974.93
21
42750.0
31
0
0
LINE
8
equipment
10
23974.93
20
42750.0
30
0
11
24000.0
21
42750.0
31
0
0
LINE
8
equipment
10
22000.0
20
42450.0
30
0
11
22025.07
21
42450.0
31
0
0
LINE
8
equipment
10
22025.07
20
42450.0
30
0
11
22099.03
21
42450.0
31
0
0
LINE
8
equipment
10
22099.03
20
42450.0
30
0
11
22218.17
21
42450.0
31
0
0
LINE
8
equipment
10
22218.17
20
42450.0
30
0
11
22376.51
21
42450.0
31
0
0
LINE
8
equipment
10
22376.51
20
42450.0
30
0
11
22566.12
21
42450.0
31
0
0
LINE
8
equipment
10
22566.12
20
42450.0
30
0
11
22777.48
21
42450.0
31
0
0
LINE
8
equipment
10
22777.48
20
42450.0
30
0
11
23000.0
21
42450.0
31
0
0
LINE
8
equipment
10
23000.0
20
42450.0
30
0
11
23222.52
21
42450.0
31
0
0
LINE
8
equipment
10
23222.52
20
42450.0
30
0
11
23433.88
21
42450.0
31
0
0
LINE
8
equipment
10
23433.88
20
42450.0
30
0
11
23623.49
21
42450.0
31
0
0
LINE
8
equipment
10
23623.49
20
42450.0
30
0
11
23781.83
21
42450.0
31
0
0
LINE
8
equipment
10
23781.83
20
42450.0
30
0
11
23900.97
21
42450.0
31
0
0
LINE
8
equipment
10
23900.97
20
42450.0
30
0
11
23974.93
21
42450.0
31
0
0
LINE
8
equipment
10
23974.93
20
42450.0
30
0
11
24000.0
21
42450.0
31
0
0
LINE
8
equipment
10
21700.0
20
39550.0
30
0
11
21700.0
21
41850.0
31
0
0
LINE
8
equipment
10
19900.0
20
39550.0
30
0
11
19900.0
21
41850.0
31
0
0
LINE
8
equipment
10
21700.0
20
39550.0
30
0
11
19900.0
21
39550.0
31
0
0
LINE
8
equipment
10
21700.0
20
41850.0
30
0
11
19900.0
21
41850.0
31
0
0
LINE
8
equipment
10
20460.0
20
42750.0
30
0
11
20485.07
21
42750.0
31
0
0
LINE
8
equipment
10
20485.07
20
42750.0
30
0
11
20559.03
21
42750.0
31
0
0
LINE
8
equipment
10
20559.03
20
42750.0
30
0
11
20678.17
21
42750.0
31
0
0
LINE
8
equipment
10
20678.17
20
42750.0
30
0
11
20836.51
21
42750.0
31
0
0
LINE
8
equipment
10
20836.51
20
42750.0
30
0
11
21026.12
21
42750.0
31
0
0
LINE
8
equipment
10
21026.12
20
42750.0
30
0
11
21237.48
21
42750.0
31
0
0
LINE
8
equipment
10
21237.48
20
42750.0
30
0
11
21460.0
21
42750.0
31
0
0
LINE
8
equipment
10
21460.0
20
42750.0
30
0
11
21682.52
21
42750.0
31
0
0
LINE
8
equipment
10
21682.52
20
42750.0
30
0
11
21893.88
21
42750.0
31
0
0
LINE
8
equipment
10
21893.88
20
42750.0
30
0
11
22083.49
21
42750.0
31
0
0
LINE
8
equipment
10
22083.49
20
42750.0
30
0
11
22241.83
21
42750.0
31
0
0
LINE
8
equipment
10
22241.83
20
42750.0
30
0
11
22360.97
21
42750.0
31
0
0
LINE
8
equipment
10
22360.97
20
42750.0
30
0
11
22434.93
21
42750.0
31
0
0
LINE
8
equipment
10
22434.93
20
42750.0
30
0
11
22460.0
21
42750.0
31
0
0
LINE
8
equipment
10
20460.0
20
42450.0
30
0
11
20460.0
21
42750.0
31
0
0
LINE
8
equipment
10
20460.0
20
42450.0
30
0
11
20485.07
21
42450.0
31
0
0
LINE
8
equipment
10
20485.07
20
42450.0
30
0
11
20559.03
21
42450.0
31
0
0
LINE
8
equipment
10
20559.03
20
42450.0
30
0
11
20678.17
21
42450.0
31
0
0
LINE
8
equipment
10
20678.17
20
42450.0
30
0
11
20836.51
21
42450.0
31
0
0
LINE
8
equipment
10
20836.51
20
42450.0
30
0
11
21026.12
21
42450.0
31
0
0
LINE
8
equipment
10
21026.12
20
42450.0
30
0
11
21237.48
21
42450.0
31
0
0
LINE
8
equipment
10
21237.48
20
42450.0
30
0
11
21460.0
21
42450.0
31
0
0
LINE
8
equipment
10
21460.0
20
42450.0
30
0
11
21682.52
21
42450.0
31
0
0
LINE
8
equipment
10
21682.52
20
42450.0
30
0
11
21893.88
21
42450.0
31
0
0
LINE
8
equipment
10
21893.88
20
42450.0
30
0
11
22083.49
21
42450.0
31
0
0
LINE
8
equipment
10
22083.49
20
42450.0
30
0
11
22241.83
21
42450.0
31
0
0
LINE
8
equipment
10
22241.83
20
42450.0
30
0
11
22360.97
21
42450.0
31
0
0
LINE
8
equipment
10
22360.97
20
42450.0
30
0
11
22434.93
21
42450.0
31
0
0
LINE
8
equipment
10
22434.93
20
42450.0
30
0
11
22460.0
21
42450.0
31
0
0
LINE
8
equipment
10
26300.0
20
39450.0
30
0
11
26300.0
21
39530.0
31
0
0
LINE
8
equipment
10
19700.0
20
39450.0
30
0
11
19700.0
21
39530.0
31
0
0
LINE
8
equipment
10
26300.0
20
39450.0
30
0
11
19700.0
21
39450.0
31
0
0
LINE
8
equipment
10
26300.0
20
39530.0
30
0
11
19700.0
21
39530.0
31
0
0
LINE
8
equipment
10
26300.0
20
39700.0
30
0
11
26300.0
21
39780.0
31
0
0
LINE
8
equipment
10
19700.0
20
39700.0
30
0
11
19700.0
21
39780.0
31
0
0
LINE
8
equipment
10
26300.0
20
39700.0
30
0
11
26100.0
21
39700.0
31
0
0
LINE
8
equipment
10
24300.0
20
39700.0
30
0
11
23900.0
21
39700.0
31
0
0
LINE
8
equipment
10
22100.0
20
39700.0
30
0
11
21700.0
21
39700.0
31
0
0
LINE
8
equipment
10
19900.0
20
39700.0
30
0
11
19700.0
21
39700.0
31
0
0
LINE
8
equipment
10
26300.0
20
39780.0
30
0
11
26100.0
21
39780.0
31
0
0
LINE
8
equipment
10
24300.0
20
39780.0
30
0
11
23900.0
21
39780.0
31
0
0
LINE
8
equipment
10
22100.0
20
39780.0
30
0
11
21700.0
21
39780.0
31
0
0
LINE
8
equipment
10
19900.0
20
39780.0
30
0
11
19700.0
21
39780.0
31
0
0
LINE
8
equipment
10
26300.0
20
39950.0
30
0
11
26300.0
21
40030.0
31
0
0
LINE
8
equipment
10
19700.0
20
39950.0
30
0
11
19700.0
21
40030.0
31
0
0
LINE
8
equipment
10
26300.0
20
39950.0
30
0
11
26100.0
21
39950.0
31
0
0
LINE
8
equipment
10
24300.0
20
39950.0
30
0
11
23900.0
21
39950.0
31
0
0
LINE
8
equipment
10
22100.0
20
39950.0
30
0
11
21700.0
21
39950.0
31
0
0
LINE
8
equipment
10
19900.0
20
39950.0
30
0
11
19700.0
21
39950.0
31
0
0
LINE
8
equipment
10
26300.0
20
40030.0
30
0
11
26100.0
21
40030.0
31
0
0
LINE
8
equipment
10
24300.0
20
40030.0
30
0
11
23900.0
21
40030.0
31
0
0
LINE
8
equipment
10
22100.0
20
40030.0
30
0
11
21700.0
21
40030.0
31
0
0
LINE
8
equipment
10
19900.0
20
40030.0
30
0
11
19700.0
21
40030.0
31
0
0
LINE
8
equipment
10
26300.0
20
40200.0
30
0
11
26300.0
21
40280.0
31
0
0
LINE
8
equipment
10
19700.0
20
40200.0
30
0
11
19700.0
21
40280.0
31
0
0
LINE
8
equipment
10
26300.0
20
40200.0
30
0
11
26100.0
21
40200.0
31
0
0
LINE
8
equipment
10
24300.0
20
40200.0
30
0
11
23900.0
21
40200.0
31
0
0
LINE
8
equipment
10
22100.0
20
40200.0
30
0
11
21700.0
21
40200.0
31
0
0
LINE
8
equipment
10
19900.0
20
40200.0
30
0
11
19700.0
21
40200.0
31
0
0
LINE
8
equipment
10
26300.0
20
40280.0
30
0
11
26100.0
21
40280.0
31
0
0
LINE
8
equipment
10
24300.0
20
40280.0
30
0
11
23900.0
21
40280.0
31
0
0
LINE
8
equipment
10
22100.0
20
40280.0
30
0
11
21700.0
21
40280.0
31
0
0
LINE
8
equipment
10
19900.0
20
40280.0
30
0
11
19700.0
21
40280.0
31
0
0
LINE
8
equipment
10
26300.0
20
40450.0
30
0
11
26300.0
21
40530.0
31
0
0
LINE
8
equipment
10
19700.0
20
40450.0
30
0
11
19700.0
21
40530.0
31
0
0
LINE
8
equipment
10
26300.0
20
40450.0
30
0
11
26100.0
21
40450.0
31
0
0
LINE
8
equipment
10
24300.0
20
40450.0
30
0
11
23900.0
21
40450.0
31
0
0
LINE
8
equipment
10
22100.0
20
40450.0
30
0
11
21700.0
21
40450.0
31
0
0
LINE
8
equipment
10
19900.0
20
40450.0
30
0
11
19700.0
21
40450.0
31
0
0
LINE
8
equipment
10
26300.0
20
40530.0
30
0
11
26100.0
21
40530.0
31
0
0
LINE
8
equipment
10
24300.0
20
40530.0
30
0
11
23900.0
21
40530.0
31
0
0
LINE
8
equipment
10
22100.0
20
40530.0
30
0
11
21700.0
21
40530.0
31
0
0
LINE
8
equipment
10
19900.0
20
40530.0
30
0
11
19700.0
21
40530.0
31
0
0
LINE
8
equipment
10
26300.0
20
40700.0
30
0
11
26300.0
21
40780.0
31
0
0
LINE
8
equipment
10
19700.0
20
40700.0
30
0
11
19700.0
21
40780.0
31
0
0
LINE
8
equipment
10
26300.0
20
40700.0
30
0
11
26100.0
21
40700.0
31
0
0
LINE
8
equipment
10
24300.0
20
40700.0
30
0
11
23900.0
21
40700.0
31
0
0
LINE
8
equipment
10
22100.0
20
40700.0
30
0
11
21700.0
21
40700.0
31
0
0
LINE
8
equipment
10
19900.0
20
40700.0
30
0
11
19700.0
21
40700.0
31
0
0
LINE
8
equipment
10
26300.0
20
40780.0
30
0
11
26100.0
21
40780.0
31
0
0
LINE
8
equipment
10
24300.0
20
40780.0
30
0
11
23900.0
21
40780.0
31
0
0
LINE
8
equipment
10
22100.0
20
40780.0
30
0
11
21700.0
21
40780.0
31
0
0
LINE
8
equipment
10
19900.0
20
40780.0
30
0
11
19700.0
21
40780.0
31
0
0
LINE
8
equipment
10
26300.0
20
40950.0
30
0
11
26300.0
21
41030.0
31
0
0
LINE
8
equipment
10
19700.0
20
40950.0
30
0
11
19700.0
21
41030.0
31
0
0
LINE
8
equipment
10
26300.0
20
40950.0
30
0
11
26100.0
21
40950.0
31
0
0
LINE
8
equipment
10
24300.0
20
40950.0
30
0
11
23900.0
21
40950.0
31
0
0
LINE
8
equipment
10
22100.0
20
40950.0
30
0
11
21700.0
21
40950.0
31
0
0
LINE
8
equipment
10
19900.0
20
40950.0
30
0
11
19700.0
21
40950.0
31
0
0
LINE
8
equipment
10
26300.0
20
41030.0
30
0
11
26100.0
21
41030.0
31
0
0
LINE
8
equipment
10
24300.0
20
41030.0
30
0
11
23900.0
21
41030.0
31
0
0
LINE
8
equipment
10
22100.0
20
41030.0
30
0
11
21700.0
21
41030.0
31
0
0
LINE
8
equipment
10
19900.0
20
41030.0
30
0
11
19700.0
21
41030.0
31
0
0
LINE
8
equipment
10
26300.0
20
41200.0
30
0
11
26300.0
21
41280.0
31
0
0
LINE
8
equipment
10
19700.0
20
41200.0
30
0
11
19700.0
21
41280.0
31
0
0
LINE
8
equipment
10
26300.0
20
41200.0
30
0
11
26100.0
21
41200.0
31
0
0
LINE
8
equipment
10
24300.0
20
41200.0
30
0
11
23900.0
21
41200.0
31
0
0
LINE
8
equipment
10
22100.0
20
41200.0
30
0
11
21700.0
21
41200.0
31
0
0
LINE
8
equipment
10
19900.0
20
41200.0
30
0
11
19700.0
21
41200.0
31
0
0
LINE
8
equipment
10
26300.0
20
41280.0
30
0
11
26100.0
21
41280.0
31
0
0
LINE
8
equipment
10
24300.0
20
41280.0
30
0
11
23900.0
21
41280.0
31
0
0
LINE
8
equipment
10
22100.0
20
41280.0
30
0
11
21700.0
21
41280.0
31
0
0
LINE
8
equipment
10
19900.0
20
41280.0
30
0
11
19700.0
21
41280.0
31
0
0
LINE
8
equipment
10
26300.0
20
41450.0
30
0
11
26300.0
21
41530.0
31
0
0
LINE
8
equipment
10
19700.0
20
41450.0
30
0
11
19700.0
21
41530.0
31
0
0
LINE
8
equipment
10
26300.0
20
41450.0
30
0
11
26100.0
21
41450.0
31
0
0
LINE
8
equipment
10
24300.0
20
41450.0
30
0
11
23900.0
21
41450.0
31
0
0
LINE
8
equipment
10
22100.0
20
41450.0
30
0
11
21700.0
21
41450.0
31
0
0
LINE
8
equipment
10
19900.0
20
41450.0
30
0
11
19700.0
21
41450.0
31
0
0
LINE
8
equipment
10
26300.0
20
41530.0
30
0
11
26100.0
21
41530.0
31
0
0
LINE
8
equipment
10
24300.0
20
41530.0
30
0
11
23900.0
21
41530.0
31
0
0
LINE
8
equipment
10
22100.0
20
41530.0
30
0
11
21700.0
21
41530.0
31
0
0
LINE
8
equipment
10
19900.0
20
41530.0
30
0
11
19700.0
21
41530.0
31
0
0
LINE
8
equipment
10
26300.0
20
41700.0
30
0
11
26300.0
21
41780.0
31
0
0
LINE
8
equipment
10
19700.0
20
41700.0
30
0
11
19700.0
21
41780.0
31
0
0
LINE
8
equipment
10
26300.0
20
41700.0
30
0
11
26100.0
21
41700.0
31
0
0
LINE
8
equipment
10
24300.0
20
41700.0
30
0
11
23900.0
21
41700.0
31
0
0
LINE
8
equipment
10
22100.0
20
41700.0
30
0
11
21700.0
21
41700.0
31
0
0
LINE
8
equipment
10
19900.0
20
41700.0
30
0
11
19700.0
21
41700.0
31
0
0
LINE
8
equipment
10
26300.0
20
41780.0
30
0
11
26100.0
21
41780.0
31
0
0
LINE
8
equipment
10
24300.0
20
41780.0
30
0
11
23900.0
21
41780.0
31
0
0
LINE
8
equipment
10
22100.0
20
41780.0
30
0
11
21700.0
21
41780.0
31
0
0
LINE
8
equipment
10
19900.0
20
41780.0
30
0
11
19700.0
21
41780.0
31
0
0
LINE
8
cut
10
11500.0
20
39235.0
30
0
11
11530.310000000003
21
39182.5
31
0
0
LINE
8
cut
10
11530.310000000003
20
39182.5
30
0
11
11469.689999999997
21
39182.5
31
0
0
LINE
8
cut
10
11469.689999999997
20
39182.5
30
0
11
11500.0
21
39235.0
31
0
0
LINE
8
cut
10
11500.0
20
39785.0
30
0
11
11530.310000000003
21
39732.5
31
0
0
LINE
8
cut
10
11530.310000000003
20
39732.5
30
0
11
11469.689999999997
21
39732.5
31
0
0
LINE
8
cut
10
11469.689999999997
20
39732.5
30
0
11
11500.0
21
39785.0
31
0
0
LINE
8
cut
10
11455.000000000002
20
38650.0
30
0
11
11455.000000000002
21
39800.0
31
0
0
LINE
8
cut
10
11455.000000000002
20
38650.0
30
0
11
11544.999999999998
21
38650.0
31
0
0
LINE
8
cut
10
11455.000000000002
20
39800.0
30
0
11
11544.999999999998
21
39800.0
31
0
0
LINE
8
cut
10
11544.999999999998
20
38650.0
30
0
11
11544.999999999998
21
39800.0
31
0
0
LINE
8
cut
10
70500.0
20
39235.0
30
0
11
70530.31000000001
21
39182.5
31
0
0
LINE
8
cut
10
70530.31000000001
20
39182.5
30
0
11
70469.68999999999
21
39182.5
31
0
0
LINE
8
cut
10
70469.68999999999
20
39182.5
30
0
11
70500.0
21
39235.0
31
0
0
LINE
8
cut
10
70500.0
20
39785.0
30
0
11
70530.31000000001
21
39732.5
31
0
0
LINE
8
cut
10
70530.31000000001
20
39732.5
30
0
11
70469.68999999999
21
39732.5
31
0
0
LINE
8
cut
10
70469.68999999999
20
39732.5
30
0
11
70500.0
21
39785.0
31
0
0
LINE
8
cut
10
70455.0
20
38650.0
30
0
11
70455.0
21
39800.0
31
0
0
LINE
8
cut
10
70455.0
20
38650.0
30
0
11
70545.0
21
38650.0
31
0
0
LINE
8
cut
10
70455.0
20
39800.0
30
0
11
70545.0
21
39800.0
31
0
0
LINE
8
cut
10
70545.0
20
38650.0
30
0
11
70545.0
21
39800.0
31
0
0
LINE
8
grid
10
74400.0
20
23250.0
30
0
11
77600.0
21
23250.0
31
0
0
TEXT
8
annotation
10
75750.0
20
23489.999999999996
30
0
40
500.0
1
F0 +0.00m
50
0
0
LINE
8
grid
10
74400.0
20
30750.0
30
0
11
77600.0
21
30750.0
31
0
0
TEXT
8
annotation
10
75750.0
20
30989.999999999996
30
0
40
500.0
1
F1 +7.50m
50
0
0
LINE
8
grid
10
74400.0
20
38250.0
30
0
11
77600.0
21
38250.0
31
0
0
TEXT
8
annotation
10
75500.0
20
38490.0
30
0
40
500.0
1
RF +15.00m
50
0
0
LINE
8
dimension
10
8000.0
20
19850.0
30
0
11
74000.0
21
19850.0
31
0
0
LINE
8
dimension
10
7800.0
20
19650.0
30
0
11
8200.0
21
20050.0
31
0
0
LINE
8
dimension
10
73800.0
20
19650.0
30
0
11
74200.0
21
20050.0
31
0
0
TEXT
8
annotation
10
37700.0
20
20150.0
30
0
40
600.0
1
66,000 mm shown extent
50
0
0
LINE
8
frame
10
2800
20
11800
30
0
11
81200
21
11800
31
0
0
TEXT
8
annotation
10
2800
20
10200
30
0
40
700.0
1
CONCEPT DESIGN | IMAGE-INFERRED | NOT FOR CONSTRUCTION
50
0
0
TEXT
8
annotation
10
2800
20
7600.0
30
0
40
530.0
1
Source: two campus AI images + fab1.jpg; official analogues documented in analysis/cad/.
50
0
0
TEXT
8
annotation
10
2800
20
6720.000000000005
30
0
40
530.0
1
CAD model in mm; site coordinates X east, Y north, Z up. Internal layouts and member sizes are design estimates.
50
0
0
TEXT
8
annotation
10
2800
20
5839.999999999998
30
0
40
530.0
1
Plans/sections are extracted from actual FreeCAD BRep. Elevations project component outlines; hidden edges omitted per component.
50
0
0
TEXT
8
annotation
10
2800
20
4960.000000000002
30
0
40
530.0
1
Civic wing roofs and skylight may differ from the nominal building height; inspect actual geometry and parameter aliases.
50
0
0
TEXT
8
annotation
10
2800
20
4079.9999999999955
30
0
40
530.0
1
No process certification, structural verification, measured survey, or construction approval is implied.
50
0
0
TEXT
8
annotation
10
71400.0
20
2200
30
0
40
560.0
1
2026-09-30  |  FreeCAD 1.1.4  |  mm
50
0
0
ENDSEC
0
EOF
