0
SECTION
2
HEADER
9
$ACADVER
1
AC1009
9
$INSUNITS
70
4
0
ENDSEC
0
SECTION
2
ENTITIES
0
LINE
8
frame
10
1400
20
58000
30
0
11
82600
21
58000
31
0
0
LINE
8
frame
10
82600
20
58000
30
0
11
82600
21
1400
31
0
0
LINE
8
frame
10
82600
20
1400
30
0
11
1400
21
1400
31
0
0
LINE
8
frame
10
1400
20
1400
30
0
11
1400
21
58000
31
0
0
TEXT
8
annotation
10
2800
20
55800
30
0
40
840.0
1
PHOENIX SCIENCE PARK
50
0
0
TEXT
8
annotation
10
2800
20
54200
30
0
40
1000.0
1
DINING_W / North elevation
50
0
0
TEXT
8
annotation
10
77360.0
20
55800
30
0
40
640.0
1
A3  |  1:200
50
0
0
TEXT
8
annotation
10
73700.0
20
54200
30
0
40
600.0
1
CAD-DINING_W-NORTH  /  R1
50
0
0
LINE
8
frame
10
2800
20
53200
30
0
11
81200
21
53200
31
0
0
LINE
8
roof
10
71500.0
20
37450.0
30
0
11
71500.0
21
37850.0
31
0
0
LINE
8
roof
10
10500.0
20
37450.0
30
0
11
10500.0
21
37850.0
31
0
0
LINE
8
roof
10
71500.0
20
37450.0
30
0
11
10500.0
21
37450.0
31
0
0
LINE
8
roof
10
71500.0
20
37850.0
30
0
11
10500.0
21
37850.0
31
0
0
LINE
8
glazing
10
71420.0
20
22850.0
30
0
11
71420.0
21
37250.0
31
0
0
LINE
8
glazing
10
68191.11
20
22850.0
30
0
11
68191.11
21
37250.0
31
0
0
LINE
8
glazing
10
71420.0
20
22850.0
30
0
11
68191.11
21
22850.0
31
0
0
LINE
8
glazing
10
71420.0
20
37250.0
30
0
11
68191.11
21
37250.0
31
0
0
LINE
8
glazing
10
68031.11
20
22850.0
30
0
11
68031.11
21
37250.0
31
0
0
LINE
8
glazing
10
64802.22
20
22850.0
30
0
11
64802.22
21
37250.0
31
0
0
LINE
8
glazing
10
68031.11
20
22850.0
30
0
11
64802.22
21
22850.0
31
0
0
LINE
8
glazing
10
68031.11
20
37250.0
30
0
11
64802.22
21
37250.0
31
0
0
LINE
8
glazing
10
64642.22
20
22850.0
30
0
11
64642.22
21
37250.0
31
0
0
LINE
8
glazing
10
61413.329999999994
20
22850.0
30
0
11
61413.329999999994
21
37250.0
31
0
0
LINE
8
glazing
10
64642.22
20
22850.0
30
0
11
61413.329999999994
21
22850.0
31
0
0
LINE
8
glazing
10
64642.22
20
37250.0
30
0
11
61413.329999999994
21
37250.0
31
0
0
LINE
8
glazing
10
61253.33
20
22850.0
30
0
11
61253.33
21
37250.0
31
0
0
LINE
8
glazing
10
58024.44
20
22850.0
30
0
11
58024.44
21
37250.0
31
0
0
LINE
8
glazing
10
61253.33
20
22850.0
30
0
11
58024.44
21
22850.0
31
0
0
LINE
8
glazing
10
61253.33
20
37250.0
30
0
11
58024.44
21
37250.0
31
0
0
LINE
8
glazing
10
57864.44
20
22850.0
30
0
11
57864.44
21
37250.0
31
0
0
LINE
8
glazing
10
54635.56
20
22850.0
30
0
11
54635.56
21
37250.0
31
0
0
LINE
8
glazing
10
57864.44
20
22850.0
30
0
11
54635.56
21
22850.0
31
0
0
LINE
8
glazing
10
57864.44
20
37250.0
30
0
11
54635.56
21
37250.0
31
0
0
LINE
8
glazing
10
54475.56
20
22850.0
30
0
11
54475.56
21
37250.0
31
0
0
LINE
8
glazing
10
51246.67
20
22850.0
30
0
11
51246.67
21
37250.0
31
0
0
LINE
8
glazing
10
54475.56
20
22850.0
30
0
11
51246.67
21
22850.0
31
0
0
LINE
8
glazing
10
54475.56
20
37250.0
30
0
11
51246.67
21
37250.0
31
0
0
LINE
8
glazing
10
51086.67
20
22850.0
30
0
11
51086.67
21
37250.0
31
0
0
LINE
8
glazing
10
47857.78
20
22850.0
30
0
11
47857.78
21
37250.0
31
0
0
LINE
8
glazing
10
51086.67
20
22850.0
30
0
11
47857.78
21
22850.0
31
0
0
LINE
8
glazing
10
51086.67
20
37250.0
30
0
11
47857.78
21
37250.0
31
0
0
LINE
8
glazing
10
47697.78
20
22850.0
30
0
11
47697.78
21
37250.0
31
0
0
LINE
8
glazing
10
44468.89
20
22850.0
30
0
11
44468.89
21
37250.0
31
0
0
LINE
8
glazing
10
47697.78
20
22850.0
30
0
11
44468.89
21
22850.0
31
0
0
LINE
8
glazing
10
47697.78
20
37250.0
30
0
11
44468.89
21
37250.0
31
0
0
LINE
8
glazing
10
44308.89
20
22850.0
30
0
11
44308.89
21
37250.0
31
0
0
LINE
8
glazing
10
41080.0
20
22850.0
30
0
11
41080.0
21
37250.0
31
0
0
LINE
8
glazing
10
44308.89
20
22850.0
30
0
11
41080.0
21
22850.0
31
0
0
LINE
8
glazing
10
44308.89
20
37250.0
30
0
11
41080.0
21
37250.0
31
0
0
LINE
8
glazing
10
40920.0
20
22850.0
30
0
11
40920.0
21
37250.0
31
0
0
LINE
8
glazing
10
37691.11
20
22850.0
30
0
11
37691.11
21
37250.0
31
0
0
LINE
8
glazing
10
40920.0
20
22850.0
30
0
11
37691.11
21
22850.0
31
0
0
LINE
8
glazing
10
40920.0
20
37250.0
30
0
11
37691.11
21
37250.0
31
0
0
LINE
8
glazing
10
37531.11
20
22850.0
30
0
11
37531.11
21
37250.0
31
0
0
LINE
8
glazing
10
34302.22
20
22850.0
30
0
11
34302.22
21
37250.0
31
0
0
LINE
8
glazing
10
37531.11
20
22850.0
30
0
11
34302.22
21
22850.0
31
0
0
LINE
8
glazing
10
37531.11
20
37250.0
30
0
11
34302.22
21
37250.0
31
0
0
LINE
8
glazing
10
34142.22
20
22850.0
30
0
11
34142.22
21
37250.0
31
0
0
LINE
8
glazing
10
30913.33
20
22850.0
30
0
11
30913.33
21
37250.0
31
0
0
LINE
8
glazing
10
34142.22
20
22850.0
30
0
11
30913.33
21
22850.0
31
0
0
LINE
8
glazing
10
34142.22
20
37250.0
30
0
11
30913.33
21
37250.0
31
0
0
LINE
8
glazing
10
30753.329999999998
20
22850.0
30
0
11
30753.329999999998
21
37250.0
31
0
0
LINE
8
glazing
10
27524.440000000002
20
22850.0
30
0
11
27524.440000000002
21
37250.0
31
0
0
LINE
8
glazing
10
30753.329999999998
20
22850.0
30
0
11
27524.440000000002
21
22850.0
31
0
0
LINE
8
glazing
10
30753.329999999998
20
37250.0
30
0
11
27524.440000000002
21
37250.0
31
0
0
LINE
8
glazing
10
27364.440000000002
20
22850.0
30
0
11
27364.440000000002
21
37250.0
31
0
0
LINE
8
glazing
10
24135.56
20
22850.0
30
0
11
24135.56
21
37250.0
31
0
0
LINE
8
glazing
10
27364.440000000002
20
22850.0
30
0
11
24135.56
21
22850.0
31
0
0
LINE
8
glazing
10
27364.440000000002
20
37250.0
30
0
11
24135.56
21
37250.0
31
0
0
LINE
8
glazing
10
23975.56
20
22850.0
30
0
11
23975.56
21
37250.0
31
0
0
LINE
8
glazing
10
20746.67
20
22850.0
30
0
11
20746.67
21
37250.0
31
0
0
LINE
8
glazing
10
23975.56
20
22850.0
30
0
11
20746.67
21
22850.0
31
0
0
LINE
8
glazing
10
23975.56
20
37250.0
30
0
11
20746.67
21
37250.0
31
0
0
LINE
8
glazing
10
20586.67
20
22850.0
30
0
11
20586.67
21
37250.0
31
0
0
LINE
8
glazing
10
17357.78
20
22850.0
30
0
11
17357.78
21
37250.0
31
0
0
LINE
8
glazing
10
20586.67
20
22850.0
30
0
11
17357.78
21
22850.0
31
0
0
LINE
8
glazing
10
20586.67
20
37250.0
30
0
11
17357.78
21
37250.0
31
0
0
LINE
8
glazing
10
17197.78
20
22850.0
30
0
11
17197.78
21
37250.0
31
0
0
LINE
8
glazing
10
13968.89
20
22850.0
30
0
11
13968.89
21
37250.0
31
0
0
LINE
8
glazing
10
17197.78
20
22850.0
30
0
11
13968.89
21
22850.0
31
0
0
LINE
8
glazing
10
17197.78
20
37250.0
30
0
11
13968.89
21
37250.0
31
0
0
LINE
8
glazing
10
13808.889999999996
20
22850.0
30
0
11
13808.889999999996
21
37250.0
31
0
0
LINE
8
glazing
10
10580.000000000002
20
22850.0
30
0
11
10580.000000000002
21
37250.0
31
0
0
LINE
8
glazing
10
13808.889999999996
20
22850.0
30
0
11
10580.000000000002
21
22850.0
31
0
0
LINE
8
glazing
10
13808.889999999996
20
37250.0
30
0
11
10580.000000000002
21
37250.0
31
0
0
LINE
8
envelope
10
71560.0
20
22850.0
30
0
11
71560.0
21
37450.0
31
0
0
LINE
8
envelope
10
71440.0
20
22850.0
30
0
11
71440.0
21
37450.0
31
0
0
LINE
8
envelope
10
71560.0
20
22850.0
30
0
11
71440.0
21
22850.0
31
0
0
LINE
8
envelope
10
71560.0
20
37450.0
30
0
11
71440.0
21
37450.0
31
0
0
LINE
8
envelope
10
68171.11
20
22850.0
30
0
11
68171.11
21
37450.0
31
0
0
LINE
8
envelope
10
68051.11
20
22850.0
30
0
11
68051.11
21
37450.0
31
0
0
LINE
8
envelope
10
68171.11
20
22850.0
30
0
11
68051.11
21
22850.0
31
0
0
LINE
8
envelope
10
68171.11
20
37450.0
30
0
11
68051.11
21
37450.0
31
0
0
LINE
8
envelope
10
64782.22000000001
20
22850.0
30
0
11
64782.22000000001
21
37450.0
31
0
0
LINE
8
envelope
10
64662.22
20
22850.0
30
0
11
64662.22
21
37450.0
31
0
0
LINE
8
envelope
10
64782.22000000001
20
22850.0
30
0
11
64662.22
21
22850.0
31
0
0
LINE
8
envelope
10
64782.22000000001
20
37450.0
30
0
11
64662.22
21
37450.0
31
0
0
LINE
8
envelope
10
61393.33
20
22850.0
30
0
11
61393.33
21
37450.0
31
0
0
LINE
8
envelope
10
61273.33
20
22850.0
30
0
11
61273.33
21
37450.0
31
0
0
LINE
8
envelope
10
61393.33
20
22850.0
30
0
11
61273.33
21
22850.0
31
0
0
LINE
8
envelope
10
61393.33
20
37450.0
30
0
11
61273.33
21
37450.0
31
0
0
LINE
8
envelope
10
58004.44
20
22850.0
30
0
11
58004.44
21
37450.0
31
0
0
LINE
8
envelope
10
57884.439999999995
20
22850.0
30
0
11
57884.439999999995
21
37450.0
31
0
0
LINE
8
envelope
10
58004.44
20
22850.0
30
0
11
57884.439999999995
21
22850.0
31
0
0
LINE
8
envelope
10
58004.44
20
37450.0
30
0
11
57884.439999999995
21
37450.0
31
0
0
LINE
8
envelope
10
54615.560000000005
20
22850.0
30
0
11
54615.560000000005
21
37450.0
31
0
0
LINE
8
envelope
10
54495.56
20
22850.0
30
0
11
54495.56
21
37450.0
31
0
0
LINE
8
envelope
10
54615.560000000005
20
22850.0
30
0
11
54495.56
21
22850.0
31
0
0
LINE
8
envelope
10
54615.560000000005
20
37450.0
30
0
11
54495.56
21
37450.0
31
0
0
LINE
8
envelope
10
51226.67
20
22850.0
30
0
11
51226.67
21
37450.0
31
0
0
LINE
8
envelope
10
51106.67
20
22850.0
30
0
11
51106.67
21
37450.0
31
0
0
LINE
8
envelope
10
51226.67
20
22850.0
30
0
11
51106.67
21
22850.0
31
0
0
LINE
8
envelope
10
51226.67
20
37450.0
30
0
11
51106.67
21
37450.0
31
0
0
LINE
8
envelope
10
47837.78
20
22850.0
30
0
11
47837.78
21
37450.0
31
0
0
LINE
8
envelope
10
47717.78
20
22850.0
30
0
11
47717.78
21
37450.0
31
0
0
LINE
8
envelope
10
47837.78
20
22850.0
30
0
11
47717.78
21
22850.0
31
0
0
LINE
8
envelope
10
47837.78
20
37450.0
30
0
11
47717.78
21
37450.0
31
0
0
LINE
8
envelope
10
44448.89
20
22850.0
30
0
11
44448.89
21
37450.0
31
0
0
LINE
8
envelope
10
44328.89
20
22850.0
30
0
11
44328.89
21
37450.0
31
0
0
LINE
8
envelope
10
44448.89
20
22850.0
30
0
11
44328.89
21
22850.0
31
0
0
LINE
8
envelope
10
44448.89
20
37450.0
30
0
11
44328.89
21
37450.0
31
0
0
LINE
8
envelope
10
41060.0
20
22850.0
30
0
11
41060.0
21
37450.0
31
0
0
LINE
8
envelope
10
40940.0
20
22850.0
30
0
11
40940.0
21
37450.0
31
0
0
LINE
8
envelope
10
41060.0
20
22850.0
30
0
11
40940.0
21
22850.0
31
0
0
LINE
8
envelope
10
41060.0
20
37450.0
30
0
11
40940.0
21
37450.0
31
0
0
LINE
8
envelope
10
37671.11
20
22850.0
30
0
11
37671.11
21
37450.0
31
0
0
LINE
8
envelope
10
37551.11
20
22850.0
30
0
11
37551.11
21
37450.0
31
0
0
LINE
8
envelope
10
37671.11
20
22850.0
30
0
11
37551.11
21
22850.0
31
0
0
LINE
8
envelope
10
37671.11
20
37450.0
30
0
11
37551.11
21
37450.0
31
0
0
LINE
8
envelope
10
34282.22
20
22850.0
30
0
11
34282.22
21
37450.0
31
0
0
LINE
8
envelope
10
34162.22
20
22850.0
30
0
11
34162.22
21
37450.0
31
0
0
LINE
8
envelope
10
34282.22
20
22850.0
30
0
11
34162.22
21
22850.0
31
0
0
LINE
8
envelope
10
34282.22
20
37450.0
30
0
11
34162.22
21
37450.0
31
0
0
LINE
8
envelope
10
30893.33
20
22850.0
30
0
11
30893.33
21
37450.0
31
0
0
LINE
8
envelope
10
30773.329999999998
20
22850.0
30
0
11
30773.329999999998
21
37450.0
31
0
0
LINE
8
envelope
10
30893.33
20
22850.0
30
0
11
30773.329999999998
21
22850.0
31
0
0
LINE
8
envelope
10
30893.33
20
37450.0
30
0
11
30773.329999999998
21
37450.0
31
0
0
LINE
8
envelope
10
27504.44
20
22850.0
30
0
11
27504.44
21
37450.0
31
0
0
LINE
8
envelope
10
27384.440000000002
20
22850.0
30
0
11
27384.440000000002
21
37450.0
31
0
0
LINE
8
envelope
10
27504.44
20
22850.0
30
0
11
27384.440000000002
21
22850.0
31
0
0
LINE
8
envelope
10
27504.44
20
37450.0
30
0
11
27384.440000000002
21
37450.0
31
0
0
LINE
8
envelope
10
24115.56
20
22850.0
30
0
11
24115.56
21
37450.0
31
0
0
LINE
8
envelope
10
23995.56
20
22850.0
30
0
11
23995.56
21
37450.0
31
0
0
LINE
8
envelope
10
24115.56
20
22850.0
30
0
11
23995.56
21
22850.0
31
0
0
LINE
8
envelope
10
24115.56
20
37450.0
30
0
11
23995.56
21
37450.0
31
0
0
LINE
8
envelope
10
20726.67
20
22850.0
30
0
11
20726.67
21
37450.0
31
0
0
LINE
8
envelope
10
20606.67
20
22850.0
30
0
11
20606.67
21
37450.0
31
0
0
LINE
8
envelope
10
20726.67
20
22850.0
30
0
11
20606.67
21
22850.0
31
0
0
LINE
8
envelope
10
20726.67
20
37450.0
30
0
11
20606.67
21
37450.0
31
0
0
LINE
8
envelope
10
17337.78
20
22850.0
30
0
11
17337.78
21
37450.0
31
0
0
LINE
8
envelope
10
17217.78
20
22850.0
30
0
11
17217.78
21
37450.0
31
0
0
LINE
8
envelope
10
17337.78
20
22850.0
30
0
11
17217.78
21
22850.0
31
0
0
LINE
8
envelope
10
17337.78
20
37450.0
30
0
11
17217.78
21
37450.0
31
0
0
LINE
8
envelope
10
13948.89
20
22850.0
30
0
11
13948.89
21
37450.0
31
0
0
LINE
8
envelope
10
13828.890000000001
20
22850.0
30
0
11
13828.890000000001
21
37450.0
31
0
0
LINE
8
envelope
10
13948.89
20
22850.0
30
0
11
13828.890000000001
21
22850.0
31
0
0
LINE
8
envelope
10
13948.89
20
37450.0
30
0
11
13828.890000000001
21
37450.0
31
0
0
LINE
8
envelope
10
10560.000000000002
20
22850.0
30
0
11
10560.000000000002
21
37450.0
31
0
0
LINE
8
envelope
10
10439.999999999998
20
22850.0
30
0
11
10439.999999999998
21
37450.0
31
0
0
LINE
8
envelope
10
10560.000000000002
20
22850.0
30
0
11
10439.999999999998
21
22850.0
31
0
0
LINE
8
envelope
10
10560.000000000002
20
37450.0
30
0
11
10439.999999999998
21
37450.0
31
0
0
LINE
8
envelope
10
71500.0
20
22850.0
30
0
11
71500.0
21
22989.999999999996
31
0
0
LINE
8
envelope
10
10500.0
20
22850.0
30
0
11
10500.0
21
22989.999999999996
31
0
0
LINE
8
envelope
10
71500.0
20
22850.0
30
0
11
10500.0
21
22850.0
31
0
0
LINE
8
envelope
10
71500.0
20
22989.999999999996
30
0
11
10500.0
21
22989.999999999996
31
0
0
LINE
8
envelope
10
71500.0
20
26500.0
30
0
11
71500.0
21
26639.999999999996
31
0
0
LINE
8
envelope
10
10500.0
20
26500.0
30
0
11
10500.0
21
26639.999999999996
31
0
0
LINE
8
envelope
10
71500.0
20
26500.0
30
0
11
10500.0
21
26500.0
31
0
0
LINE
8
envelope
10
71500.0
20
26639.999999999996
30
0
11
10500.0
21
26639.999999999996
31
0
0
LINE
8
envelope
10
71500.0
20
30150.0
30
0
11
71500.0
21
30289.999999999996
31
0
0
LINE
8
envelope
10
10500.0
20
30150.0
30
0
11
10500.0
21
30289.999999999996
31
0
0
LINE
8
envelope
10
71500.0
20
30150.0
30
0
11
10500.0
21
30150.0
31
0
0
LINE
8
envelope
10
71500.0
20
30289.999999999996
30
0
11
10500.0
21
30289.999999999996
31
0
0
LINE
8
envelope
10
71500.0
20
33800.0
30
0
11
71500.0
21
33940.0
31
0
0
LINE
8
envelope
10
10500.0
20
33800.0
30
0
11
10500.0
21
33940.0
31
0
0
LINE
8
envelope
10
71500.0
20
33800.0
30
0
11
10500.0
21
33800.0
31
0
0
LINE
8
envelope
10
71500.0
20
33940.0
30
0
11
10500.0
21
33940.0
31
0
0
LINE
8
envelope
10
71500.0
20
37450.0
30
0
11
71500.0
21
37590.0
31
0
0
LINE
8
envelope
10
10500.0
20
37450.0
30
0
11
10500.0
21
37590.0
31
0
0
LINE
8
envelope
10
71500.0
20
37590.0
30
0
11
10500.0
21
37590.0
31
0
0
LINE
8
envelope
10
71650.0
20
22850.0
30
0
11
71650.0
21
37450.0
31
0
0
LINE
8
envelope
10
71350.0
20
22850.0
30
0
11
71350.0
21
37450.0
31
0
0
LINE
8
envelope
10
71650.0
20
22850.0
30
0
11
71350.0
21
22850.0
31
0
0
LINE
8
envelope
10
71650.0
20
37450.0
30
0
11
71350.0
21
37450.0
31
0
0
LINE
8
envelope
10
10650.0
20
22850.0
30
0
11
10650.0
21
37450.0
31
0
0
LINE
8
envelope
10
10350.0
20
22850.0
30
0
11
10350.0
21
37450.0
31
0
0
LINE
8
envelope
10
10650.0
20
22850.0
30
0
11
10350.0
21
22850.0
31
0
0
LINE
8
envelope
10
10650.0
20
37450.0
30
0
11
10350.0
21
37450.0
31
0
0
LINE
8
equipment
10
26900.0
20
37850.0
30
0
11
26900.0
21
38350.0
31
0
0
LINE
8
equipment
10
19100.0
20
37850.0
30
0
11
19100.0
21
38350.0
31
0
0
LINE
8
equipment
10
26900.0
20
37850.0
30
0
11
19100.0
21
37850.0
31
0
0
LINE
8
equipment
10
26900.0
20
38350.0
30
0
11
19100.0
21
38350.0
31
0
0
LINE
8
equipment
10
26500.0
20
38350.0
30
0
11
26500.0
21
41650.0
31
0
0
LINE
8
equipment
10
19500.0
20
38350.0
30
0
11
19500.0
21
41650.0
31
0
0
LINE
8
equipment
10
26500.0
20
41650.0
30
0
11
19500.0
21
41650.0
31
0
0
LINE
8
equipment
10
26100.0
20
38750.0
30
0
11
26100.0
21
41050.0
31
0
0
LINE
8
equipment
10
24300.0
20
38750.0
30
0
11
24300.0
21
41050.0
31
0
0
LINE
8
equipment
10
26100.0
20
38750.0
30
0
11
24300.0
21
38750.0
31
0
0
LINE
8
equipment
10
26100.0
20
41050.0
30
0
11
24300.0
21
41050.0
31
0
0
LINE
8
equipment
10
23540.0
20
41950.0
30
0
11
23565.07
21
41950.0
31
0
0
LINE
8
equipment
10
23565.07
20
41950.0
30
0
11
23639.03
21
41950.0
31
0
0
LINE
8
equipment
10
23639.03
20
41950.0
30
0
11
23758.17
21
41950.0
31
0
0
LINE
8
equipment
10
23758.17
20
41950.0
30
0
11
23916.51
21
41950.0
31
0
0
LINE
8
equipment
10
23916.51
20
41950.0
30
0
11
24106.12
21
41950.0
31
0
0
LINE
8
equipment
10
24106.12
20
41950.0
30
0
11
24317.48
21
41950.0
31
0
0
LINE
8
equipment
10
24317.48
20
41950.0
30
0
11
24540.0
21
41950.0
31
0
0
LINE
8
equipment
10
24540.0
20
41950.0
30
0
11
24762.52
21
41950.0
31
0
0
LINE
8
equipment
10
24762.52
20
41950.0
30
0
11
24973.88
21
41950.0
31
0
0
LINE
8
equipment
10
24973.88
20
41950.0
30
0
11
25163.489999999998
21
41950.0
31
0
0
LINE
8
equipment
10
25163.489999999998
20
41950.0
30
0
11
25321.83
21
41950.0
31
0
0
LINE
8
equipment
10
25321.83
20
41950.0
30
0
11
25440.969999999998
21
41950.0
31
0
0
LINE
8
equipment
10
25440.969999999998
20
41950.0
30
0
11
25514.93
21
41950.0
31
0
0
LINE
8
equipment
10
25514.93
20
41950.0
30
0
11
25540.0
21
41950.0
31
0
0
LINE
8
equipment
10
23900.0
20
38750.0
30
0
11
23900.0
21
41050.0
31
0
0
LINE
8
equipment
10
22100.0
20
38750.0
30
0
11
22100.0
21
41050.0
31
0
0
LINE
8
equipment
10
23900.0
20
38750.0
30
0
11
22100.0
21
38750.0
31
0
0
LINE
8
equipment
10
23900.0
20
41050.0
30
0
11
22100.0
21
41050.0
31
0
0
LINE
8
equipment
10
22000.0
20
41950.0
30
0
11
22025.07
21
41950.0
31
0
0
LINE
8
equipment
10
22025.07
20
41950.0
30
0
11
22099.03
21
41950.0
31
0
0
LINE
8
equipment
10
22099.03
20
41950.0
30
0
11
22218.17
21
41950.0
31
0
0
LINE
8
equipment
10
22218.17
20
41950.0
30
0
11
22376.51
21
41950.0
31
0
0
LINE
8
equipment
10
22376.51
20
41950.0
30
0
11
22566.12
21
41950.0
31
0
0
LINE
8
equipment
10
22566.12
20
41950.0
30
0
11
22777.48
21
41950.0
31
0
0
LINE
8
equipment
10
22777.48
20
41950.0
30
0
11
23000.0
21
41950.0
31
0
0
LINE
8
equipment
10
23000.0
20
41950.0
30
0
11
23222.52
21
41950.0
31
0
0
LINE
8
equipment
10
23222.52
20
41950.0
30
0
11
23433.88
21
41950.0
31
0
0
LINE
8
equipment
10
23433.88
20
41950.0
30
0
11
23623.49
21
41950.0
31
0
0
LINE
8
equipment
10
23623.49
20
41950.0
30
0
11
23781.83
21
41950.0
31
0
0
LINE
8
equipment
10
23781.83
20
41950.0
30
0
11
23900.97
21
41950.0
31
0
0
LINE
8
equipment
10
23900.97
20
41950.0
30
0
11
23974.93
21
41950.0
31
0
0
LINE
8
equipment
10
23974.93
20
41950.0
30
0
11
24000.0
21
41950.0
31
0
0
LINE
8
equipment
10
21700.0
20
38750.0
30
0
11
21700.0
21
41050.0
31
0
0
LINE
8
equipment
10
19900.0
20
38750.0
30
0
11
19900.0
21
41050.0
31
0
0
LINE
8
equipment
10
21700.0
20
38750.0
30
0
11
19900.0
21
38750.0
31
0
0
LINE
8
equipment
10
21700.0
20
41050.0
30
0
11
19900.0
21
41050.0
31
0
0
LINE
8
equipment
10
20460.0
20
41950.0
30
0
11
20485.07
21
41950.0
31
0
0
LINE
8
equipment
10
20485.07
20
41950.0
30
0
11
20559.03
21
41950.0
31
0
0
LINE
8
equipment
10
20559.03
20
41950.0
30
0
11
20678.17
21
41950.0
31
0
0
LINE
8
equipment
10
20678.17
20
41950.0
30
0
11
20836.51
21
41950.0
31
0
0
LINE
8
equipment
10
20836.51
20
41950.0
30
0
11
21026.12
21
41950.0
31
0
0
LINE
8
equipment
10
21026.12
20
41950.0
30
0
11
21237.48
21
41950.0
31
0
0
LINE
8
equipment
10
21237.48
20
41950.0
30
0
11
21460.0
21
41950.0
31
0
0
LINE
8
equipment
10
21460.0
20
41950.0
30
0
11
21682.52
21
41950.0
31
0
0
LINE
8
equipment
10
21682.52
20
41950.0
30
0
11
21893.88
21
41950.0
31
0
0
LINE
8
equipment
10
21893.88
20
41950.0
30
0
11
22083.49
21
41950.0
31
0
0
LINE
8
equipment
10
22083.49
20
41950.0
30
0
11
22241.83
21
41950.0
31
0
0
LINE
8
equipment
10
22241.83
20
41950.0
30
0
11
22360.97
21
41950.0
31
0
0
LINE
8
equipment
10
22360.97
20
41950.0
30
0
11
22434.93
21
41950.0
31
0
0
LINE
8
equipment
10
22434.93
20
41950.0
30
0
11
22460.0
21
41950.0
31
0
0
LINE
8
equipment
10
20460.0
20
41650.0
30
0
11
20460.0
21
41950.0
31
0
0
LINE
8
equipment
10
26300.0
20
38650.0
30
0
11
26300.0
21
38730.0
31
0
0
LINE
8
equipment
10
19700.0
20
38650.0
30
0
11
19700.0
21
38730.0
31
0
0
LINE
8
equipment
10
26300.0
20
38650.0
30
0
11
19700.0
21
38650.0
31
0
0
LINE
8
equipment
10
26300.0
20
38730.0
30
0
11
19700.0
21
38730.0
31
0
0
LINE
8
equipment
10
26300.0
20
38900.0
30
0
11
26300.0
21
38980.0
31
0
0
LINE
8
equipment
10
19700.0
20
38900.0
30
0
11
19700.0
21
38980.0
31
0
0
LINE
8
equipment
10
26300.0
20
38900.0
30
0
11
26100.0
21
38900.0
31
0
0
LINE
8
equipment
10
24300.0
20
38900.0
30
0
11
23900.0
21
38900.0
31
0
0
LINE
8
equipment
10
22100.0
20
38900.0
30
0
11
21700.0
21
38900.0
31
0
0
LINE
8
equipment
10
19900.0
20
38900.0
30
0
11
19700.0
21
38900.0
31
0
0
LINE
8
equipment
10
26300.0
20
38980.0
30
0
11
26100.0
21
38980.0
31
0
0
LINE
8
equipment
10
24300.0
20
38980.0
30
0
11
23900.0
21
38980.0
31
0
0
LINE
8
equipment
10
22100.0
20
38980.0
30
0
11
21700.0
21
38980.0
31
0
0
LINE
8
equipment
10
19900.0
20
38980.0
30
0
11
19700.0
21
38980.0
31
0
0
LINE
8
equipment
10
26300.0
20
39150.0
30
0
11
26300.0
21
39230.0
31
0
0
LINE
8
equipment
10
19700.0
20
39150.0
30
0
11
19700.0
21
39230.0
31
0
0
LINE
8
equipment
10
26300.0
20
39150.0
30
0
11
26100.0
21
39150.0
31
0
0
LINE
8
equipment
10
24300.0
20
39150.0
30
0
11
23900.0
21
39150.0
31
0
0
LINE
8
equipment
10
22100.0
20
39150.0
30
0
11
21700.0
21
39150.0
31
0
0
LINE
8
equipment
10
19900.0
20
39150.0
30
0
11
19700.0
21
39150.0
31
0
0
LINE
8
equipment
10
26300.0
20
39230.0
30
0
11
26100.0
21
39230.0
31
0
0
LINE
8
equipment
10
24300.0
20
39230.0
30
0
11
23900.0
21
39230.0
31
0
0
LINE
8
equipment
10
22100.0
20
39230.0
30
0
11
21700.0
21
39230.0
31
0
0
LINE
8
equipment
10
19900.0
20
39230.0
30
0
11
19700.0
21
39230.0
31
0
0
LINE
8
equipment
10
26300.0
20
39400.0
30
0
11
26300.0
21
39480.0
31
0
0
LINE
8
equipment
10
19700.0
20
39400.0
30
0
11
19700.0
21
39480.0
31
0
0
LINE
8
equipment
10
26300.0
20
39400.0
30
0
11
26100.0
21
39400.0
31
0
0
LINE
8
equipment
10
24300.0
20
39400.0
30
0
11
23900.0
21
39400.0
31
0
0
LINE
8
equipment
10
22100.0
20
39400.0
30
0
11
21700.0
21
39400.0
31
0
0
LINE
8
equipment
10
19900.0
20
39400.0
30
0
11
19700.0
21
39400.0
31
0
0
LINE
8
equipment
10
26300.0
20
39480.0
30
0
11
26100.0
21
39480.0
31
0
0
LINE
8
equipment
10
24300.0
20
39480.0
30
0
11
23900.0
21
39480.0
31
0
0
LINE
8
equipment
10
22100.0
20
39480.0
30
0
11
21700.0
21
39480.0
31
0
0
LINE
8
equipment
10
19900.0
20
39480.0
30
0
11
19700.0
21
39480.0
31
0
0
LINE
8
equipment
10
26300.0
20
39650.0
30
0
11
26300.0
21
39730.0
31
0
0
LINE
8
equipment
10
19700.0
20
39650.0
30
0
11
19700.0
21
39730.0
31
0
0
LINE
8
equipment
10
26300.0
20
39650.0
30
0
11
26100.0
21
39650.0
31
0
0
LINE
8
equipment
10
24300.0
20
39650.0
30
0
11
23900.0
21
39650.0
31
0
0
LINE
8
equipment
10
22100.0
20
39650.0
30
0
11
21700.0
21
39650.0
31
0
0
LINE
8
equipment
10
19900.0
20
39650.0
30
0
11
19700.0
21
39650.0
31
0
0
LINE
8
equipment
10
26300.0
20
39730.0
30
0
11
26100.0
21
39730.0
31
0
0
LINE
8
equipment
10
24300.0
20
39730.0
30
0
11
23900.0
21
39730.0
31
0
0
LINE
8
equipment
10
22100.0
20
39730.0
30
0
11
21700.0
21
39730.0
31
0
0
LINE
8
equipment
10
19900.0
20
39730.0
30
0
11
19700.0
21
39730.0
31
0
0
LINE
8
equipment
10
26300.0
20
39900.0
30
0
11
26300.0
21
39980.0
31
0
0
LINE
8
equipment
10
19700.0
20
39900.0
30
0
11
19700.0
21
39980.0
31
0
0
LINE
8
equipment
10
26300.0
20
39900.0
30
0
11
26100.0
21
39900.0
31
0
0
LINE
8
equipment
10
24300.0
20
39900.0
30
0
11
23900.0
21
39900.0
31
0
0
LINE
8
equipment
10
22100.0
20
39900.0
30
0
11
21700.0
21
39900.0
31
0
0
LINE
8
equipment
10
19900.0
20
39900.0
30
0
11
19700.0
21
39900.0
31
0
0
LINE
8
equipment
10
26300.0
20
39980.0
30
0
11
26100.0
21
39980.0
31
0
0
LINE
8
equipment
10
24300.0
20
39980.0
30
0
11
23900.0
21
39980.0
31
0
0
LINE
8
equipment
10
22100.0
20
39980.0
30
0
11
21700.0
21
39980.0
31
0
0
LINE
8
equipment
10
19900.0
20
39980.0
30
0
11
19700.0
21
39980.0
31
0
0
LINE
8
equipment
10
26300.0
20
40150.0
30
0
11
26300.0
21
40230.0
31
0
0
LINE
8
equipment
10
19700.0
20
40150.0
30
0
11
19700.0
21
40230.0
31
0
0
LINE
8
equipment
10
26300.0
20
40150.0
30
0
11
26100.0
21
40150.0
31
0
0
LINE
8
equipment
10
24300.0
20
40150.0
30
0
11
23900.0
21
40150.0
31
0
0
LINE
8
equipment
10
22100.0
20
40150.0
30
0
11
21700.0
21
40150.0
31
0
0
LINE
8
equipment
10
19900.0
20
40150.0
30
0
11
19700.0
21
40150.0
31
0
0
LINE
8
equipment
10
26300.0
20
40230.0
30
0
11
26100.0
21
40230.0
31
0
0
LINE
8
equipment
10
24300.0
20
40230.0
30
0
11
23900.0
21
40230.0
31
0
0
LINE
8
equipment
10
22100.0
20
40230.0
30
0
11
21700.0
21
40230.0
31
0
0
LINE
8
equipment
10
19900.0
20
40230.0
30
0
11
19700.0
21
40230.0
31
0
0
LINE
8
equipment
10
26300.0
20
40400.0
30
0
11
26300.0
21
40480.0
31
0
0
LINE
8
equipment
10
19700.0
20
40400.0
30
0
11
19700.0
21
40480.0
31
0
0
LINE
8
equipment
10
26300.0
20
40400.0
30
0
11
26100.0
21
40400.0
31
0
0
LINE
8
equipment
10
24300.0
20
40400.0
30
0
11
23900.0
21
40400.0
31
0
0
LINE
8
equipment
10
22100.0
20
40400.0
30
0
11
21700.0
21
40400.0
31
0
0
LINE
8
equipment
10
19900.0
20
40400.0
30
0
11
19700.0
21
40400.0
31
0
0
LINE
8
equipment
10
26300.0
20
40480.0
30
0
11
26100.0
21
40480.0
31
0
0
LINE
8
equipment
10
24300.0
20
40480.0
30
0
11
23900.0
21
40480.0
31
0
0
LINE
8
equipment
10
22100.0
20
40480.0
30
0
11
21700.0
21
40480.0
31
0
0
LINE
8
equipment
10
19900.0
20
40480.0
30
0
11
19700.0
21
40480.0
31
0
0
LINE
8
equipment
10
26300.0
20
40650.0
30
0
11
26300.0
21
40730.0
31
0
0
LINE
8
equipment
10
19700.0
20
40650.0
30
0
11
19700.0
21
40730.0
31
0
0
LINE
8
equipment
10
26300.0
20
40650.0
30
0
11
26100.0
21
40650.0
31
0
0
LINE
8
equipment
10
24300.0
20
40650.0
30
0
11
23900.0
21
40650.0
31
0
0
LINE
8
equipment
10
22100.0
20
40650.0
30
0
11
21700.0
21
40650.0
31
0
0
LINE
8
equipment
10
19900.0
20
40650.0
30
0
11
19700.0
21
40650.0
31
0
0
LINE
8
equipment
10
26300.0
20
40730.0
30
0
11
26100.0
21
40730.0
31
0
0
LINE
8
equipment
10
24300.0
20
40730.0
30
0
11
23900.0
21
40730.0
31
0
0
LINE
8
equipment
10
22100.0
20
40730.0
30
0
11
21700.0
21
40730.0
31
0
0
LINE
8
equipment
10
19900.0
20
40730.0
30
0
11
19700.0
21
40730.0
31
0
0
LINE
8
equipment
10
26300.0
20
40900.0
30
0
11
26300.0
21
40980.0
31
0
0
LINE
8
equipment
10
19700.0
20
40900.0
30
0
11
19700.0
21
40980.0
31
0
0
LINE
8
equipment
10
26300.0
20
40900.0
30
0
11
26100.0
21
40900.0
31
0
0
LINE
8
equipment
10
24300.0
20
40900.0
30
0
11
23900.0
21
40900.0
31
0
0
LINE
8
equipment
10
22100.0
20
40900.0
30
0
11
21700.0
21
40900.0
31
0
0
LINE
8
equipment
10
19900.0
20
40900.0
30
0
11
19700.0
21
40900.0
31
0
0
LINE
8
equipment
10
26300.0
20
40980.0
30
0
11
26100.0
21
40980.0
31
0
0
LINE
8
equipment
10
24300.0
20
40980.0
30
0
11
23900.0
21
40980.0
31
0
0
LINE
8
equipment
10
22100.0
20
40980.0
30
0
11
21700.0
21
40980.0
31
0
0
LINE
8
equipment
10
19900.0
20
40980.0
30
0
11
19700.0
21
40980.0
31
0
0
LINE
8
grid
10
72050.0
20
22450.0
30
0
11
75250.0
21
22450.0
31
0
0
TEXT
8
annotation
10
73400.0
20
22689.999999999996
30
0
40
500.0
1
F0 +0.00m
50
0
0
LINE
8
grid
10
72050.0
20
29950.0
30
0
11
75250.0
21
29950.0
31
0
0
TEXT
8
annotation
10
73400.0
20
30189.999999999996
30
0
40
500.0
1
F1 +7.50m
50
0
0
LINE
8
grid
10
72050.0
20
37450.0
30
0
11
75250.0
21
37450.0
31
0
0
TEXT
8
annotation
10
73150.0
20
37690.0
30
0
40
500.0
1
RF +15.00m
50
0
0
LINE
8
dimension
10
10350.0
20
20650.0
30
0
11
71650.0
21
20650.0
31
0
0
LINE
8
dimension
10
10150.0
20
20450.0
30
0
11
10550.0
21
20850.0
31
0
0
LINE
8
dimension
10
71450.0
20
20450.0
30
0
11
71850.0
21
20850.0
31
0
0
TEXT
8
annotation
10
37700.0
20
20950.0
30
0
40
600.0
1
61,300 mm shown extent
50
0
0
LINE
8
frame
10
2800
20
11800
30
0
11
81200
21
11800
31
0
0
TEXT
8
annotation
10
2800
20
10200
30
0
40
700.0
1
CONCEPT DESIGN | IMAGE-INFERRED | NOT FOR CONSTRUCTION
50
0
0
TEXT
8
annotation
10
2800
20
7600.0
30
0
40
530.0
1
Source: two campus AI images + fab1.jpg; official analogues documented in analysis/cad/.
50
0
0
TEXT
8
annotation
10
2800
20
6720.000000000005
30
0
40
530.0
1
CAD model in mm; site coordinates X east, Y north, Z up. Internal layouts and member sizes are design estimates.
50
0
0
TEXT
8
annotation
10
2800
20
5839.999999999998
30
0
40
530.0
1
Plans/sections are extracted from actual FreeCAD BRep. Elevations project component outlines; hidden edges omitted per component.
50
0
0
TEXT
8
annotation
10
2800
20
4960.000000000002
30
0
40
530.0
1
Civic wing roofs and skylight may differ from the nominal building height; inspect actual geometry and parameter aliases.
50
0
0
TEXT
8
annotation
10
2800
20
4079.9999999999955
30
0
40
530.0
1
No process certification, structural verification, measured survey, or construction approval is implied.
50
0
0
TEXT
8
annotation
10
71400.0
20
2200
30
0
40
560.0
1
2026-09-30  |  FreeCAD 1.1.4  |  mm
50
0
0
ENDSEC
0
EOF
