0
SECTION
2
HEADER
9
$ACADVER
1
AC1009
9
$INSUNITS
70
4
0
ENDSEC
0
SECTION
2
ENTITIES
0
LINE
8
frame
10
1400
20
58000
30
0
11
82600
21
58000
31
0
0
LINE
8
frame
10
82600
20
58000
30
0
11
82600
21
1400
31
0
0
LINE
8
frame
10
82600
20
1400
30
0
11
1400
21
1400
31
0
0
LINE
8
frame
10
1400
20
1400
30
0
11
1400
21
58000
31
0
0
TEXT
8
annotation
10
2800
20
55800
30
0
40
840.0
1
PHOENIX SCIENCE PARK
50
0
0
TEXT
8
annotation
10
2800
20
54200
30
0
40
1000.0
1
DINING_W / Roof equipment plan
50
0
0
TEXT
8
annotation
10
77360.0
20
55800
30
0
40
640.0
1
A3  |  1:200
50
0
0
TEXT
8
annotation
10
74000.0
20
54200
30
0
40
600.0
1
CAD-DINING_W-ROOF  /  R1
50
0
0
LINE
8
frame
10
2800
20
53200
30
0
11
81200
21
53200
31
0
0
LINE
8
roof
10
10500.0
20
15400.0
30
0
11
10500.0
21
49400.0
31
0
0
LINE
8
roof
10
71500.0
20
15400.0
30
0
11
71500.0
21
49400.0
31
0
0
LINE
8
roof
10
10500.0
20
15400.0
30
0
11
71500.0
21
15400.0
31
0
0
LINE
8
roof
10
10500.0
20
49400.0
30
0
11
71500.0
21
49400.0
31
0
0
LINE
8
equipment
10
55100.0
20
37000.0
30
0
11
55100.0
21
41800.0
31
0
0
LINE
8
equipment
10
62900.0
20
37000.0
30
0
11
62900.0
21
41800.0
31
0
0
LINE
8
equipment
10
55100.0
20
37000.0
30
0
11
62900.0
21
37000.0
31
0
0
LINE
8
equipment
10
55100.0
20
41800.0
30
0
11
62900.0
21
41800.0
31
0
0
LINE
8
equipment
10
55500.0
20
37400.0
30
0
11
55500.0
21
41400.0
31
0
0
LINE
8
equipment
10
62500.0
20
37400.0
30
0
11
62500.0
21
41400.0
31
0
0
LINE
8
equipment
10
55500.0
20
37400.0
30
0
11
62500.0
21
37400.0
31
0
0
LINE
8
equipment
10
55500.0
20
41400.0
30
0
11
62500.0
21
41400.0
31
0
0
LINE
8
equipment
10
55900.0
20
41400.0
30
0
11
55900.0
21
41520.0
31
0
0
LINE
8
equipment
10
57700.0
20
41400.0
30
0
11
57700.0
21
41520.0
31
0
0
LINE
8
equipment
10
55900.0
20
41520.0
30
0
11
57700.0
21
41520.0
31
0
0
LINE
8
equipment
10
58460.0
20
39400.0
30
0
11
58083.490000000005
21
40181.83
31
0
0
LINE
8
equipment
10
58083.490000000005
20
40181.83
30
0
11
57237.48
21
40374.93
31
0
0
LINE
8
equipment
10
57237.48
20
40374.93
30
0
11
56559.030000000006
21
39833.88
31
0
0
LINE
8
equipment
10
56559.030000000006
20
39833.88
30
0
11
56559.030000000006
21
38966.12
31
0
0
LINE
8
equipment
10
56559.030000000006
20
38966.12
30
0
11
57237.48
21
38425.07
31
0
0
LINE
8
equipment
10
57237.48
20
38425.07
30
0
11
58083.490000000005
21
38618.17
31
0
0
LINE
8
equipment
10
58083.490000000005
20
38618.17
30
0
11
58460.0
21
39400.0
31
0
0
LINE
8
equipment
10
58100.0
20
41400.0
30
0
11
58100.0
21
41520.0
31
0
0
LINE
8
equipment
10
59900.0
20
41400.0
30
0
11
59900.0
21
41520.0
31
0
0
LINE
8
equipment
10
58100.0
20
41520.0
30
0
11
59900.0
21
41520.0
31
0
0
LINE
8
equipment
10
60000.0
20
39400.0
30
0
11
59623.490000000005
21
40181.83
31
0
0
LINE
8
equipment
10
59623.490000000005
20
40181.83
30
0
11
58777.48
21
40374.93
31
0
0
LINE
8
equipment
10
58777.48
20
40374.93
30
0
11
58099.02999999999
21
39833.88
31
0
0
LINE
8
equipment
10
58099.02999999999
20
39833.88
30
0
11
58099.02999999999
21
38966.12
31
0
0
LINE
8
equipment
10
58099.02999999999
20
38966.12
30
0
11
58777.48
21
38425.07
31
0
0
LINE
8
equipment
10
58777.48
20
38425.07
30
0
11
59623.490000000005
21
38618.17
31
0
0
LINE
8
equipment
10
59623.490000000005
20
38618.17
30
0
11
60000.0
21
39400.0
31
0
0
LINE
8
equipment
10
60300.0
20
41400.0
30
0
11
60300.0
21
41520.0
31
0
0
LINE
8
equipment
10
62100.0
20
41400.0
30
0
11
62100.0
21
41520.0
31
0
0
LINE
8
equipment
10
60300.0
20
41520.0
30
0
11
62100.0
21
41520.0
31
0
0
LINE
8
equipment
10
61540.0
20
39400.0
30
0
11
61163.490000000005
21
40181.83
31
0
0
LINE
8
equipment
10
61163.490000000005
20
40181.83
30
0
11
60317.48
21
40374.93
31
0
0
LINE
8
equipment
10
60317.48
20
40374.93
30
0
11
59639.03
21
39833.88
31
0
0
LINE
8
equipment
10
59639.03
20
39833.88
30
0
11
59639.03
21
38966.12
31
0
0
LINE
8
equipment
10
59639.03
20
38966.12
30
0
11
60317.48
21
38425.07
31
0
0
LINE
8
equipment
10
60317.48
20
38425.07
30
0
11
61163.490000000005
21
38618.17
31
0
0
LINE
8
equipment
10
61163.490000000005
20
38618.17
30
0
11
61540.0
21
39400.0
31
0
0
LINE
8
equipment
10
55700.0
20
37335.0
30
0
11
55700.0
21
37400.0
31
0
0
LINE
8
equipment
10
62300.0
20
37335.0
30
0
11
62300.0
21
37400.0
31
0
0
LINE
8
equipment
10
55700.0
20
37335.0
30
0
11
62300.0
21
37335.0
31
0
0
LINE
8
equipment
10
55700.0
20
41400.0
30
0
11
55700.0
21
41465.0
31
0
0
LINE
8
equipment
10
62300.0
20
41400.0
30
0
11
62300.0
21
41465.0
31
0
0
LINE
8
equipment
10
55700.0
20
41465.0
30
0
11
55900.0
21
41465.0
31
0
0
LINE
8
equipment
10
57700.0
20
41465.0
30
0
11
58100.0
21
41465.0
31
0
0
LINE
8
equipment
10
59900.0
20
41465.0
30
0
11
60300.0
21
41465.0
31
0
0
LINE
8
equipment
10
62100.0
20
41465.0
30
0
11
62300.0
21
41465.0
31
0
0
LINE
8
circulation
10
11544.999999999998
20
16400.0
30
0
11
11477.499999999998
21
16438.97
31
0
0
LINE
8
circulation
10
11477.499999999998
20
16438.97
30
0
11
11477.499999999998
21
16361.029999999999
31
0
0
LINE
8
circulation
10
11477.499999999998
20
16361.029999999999
30
0
11
11544.999999999998
21
16400.0
31
0
0
LINE
8
circulation
10
16908.64
20
16400.0
30
0
11
16841.14
21
16438.97
31
0
0
LINE
8
circulation
10
16841.14
20
16438.97
30
0
11
16841.14
21
16361.029999999999
31
0
0
LINE
8
circulation
10
16841.14
20
16361.029999999999
30
0
11
16908.64
21
16400.0
31
0
0
LINE
8
circulation
10
22272.27
20
16400.0
30
0
11
22204.77
21
16438.97
31
0
0
LINE
8
circulation
10
22204.77
20
16438.97
30
0
11
22204.77
21
16361.029999999999
31
0
0
LINE
8
circulation
10
22204.77
20
16361.029999999999
30
0
11
22272.27
21
16400.0
31
0
0
LINE
8
circulation
10
27635.91
20
16400.0
30
0
11
27568.41
21
16438.97
31
0
0
LINE
8
circulation
10
27568.41
20
16438.97
30
0
11
27568.41
21
16361.029999999999
31
0
0
LINE
8
circulation
10
27568.41
20
16361.029999999999
30
0
11
27635.91
21
16400.0
31
0
0
LINE
8
circulation
10
32999.55
20
16400.0
30
0
11
32932.049999999996
21
16438.97
31
0
0
LINE
8
circulation
10
32932.049999999996
20
16438.97
30
0
11
32932.049999999996
21
16361.029999999999
31
0
0
LINE
8
circulation
10
32932.049999999996
20
16361.029999999999
30
0
11
32999.55
21
16400.0
31
0
0
LINE
8
circulation
10
38363.18
20
16400.0
30
0
11
38295.68
21
16438.97
31
0
0
LINE
8
circulation
10
38295.68
20
16438.97
30
0
11
38295.68
21
16361.029999999999
31
0
0
LINE
8
circulation
10
38295.68
20
16361.029999999999
30
0
11
38363.18
21
16400.0
31
0
0
LINE
8
circulation
10
43726.82
20
16400.0
30
0
11
43659.32
21
16438.97
31
0
0
LINE
8
circulation
10
43659.32
20
16438.97
30
0
11
43659.32
21
16361.029999999999
31
0
0
LINE
8
circulation
10
43659.32
20
16361.029999999999
30
0
11
43726.82
21
16400.0
31
0
0
LINE
8
circulation
10
49090.45
20
16400.0
30
0
11
49022.950000000004
21
16438.97
31
0
0
LINE
8
circulation
10
49022.950000000004
20
16438.97
30
0
11
49022.950000000004
21
16361.029999999999
31
0
0
LINE
8
circulation
10
49022.950000000004
20
16361.029999999999
30
0
11
49090.45
21
16400.0
31
0
0
LINE
8
circulation
10
54454.09
20
16400.0
30
0
11
54386.590000000004
21
16438.97
31
0
0
LINE
8
circulation
10
54386.590000000004
20
16438.97
30
0
11
54386.590000000004
21
16361.029999999999
31
0
0
LINE
8
circulation
10
54386.590000000004
20
16361.029999999999
30
0
11
54454.09
21
16400.0
31
0
0
LINE
8
circulation
10
59817.73
20
16400.0
30
0
11
59750.229999999996
21
16438.97
31
0
0
LINE
8
circulation
10
59750.229999999996
20
16438.97
30
0
11
59750.229999999996
21
16361.029999999999
31
0
0
LINE
8
circulation
10
59750.229999999996
20
16361.029999999999
30
0
11
59817.73
21
16400.0
31
0
0
LINE
8
circulation
10
65181.35999999999
20
16400.0
30
0
11
65113.86
21
16438.97
31
0
0
LINE
8
circulation
10
65113.86
20
16438.97
30
0
11
65113.86
21
16361.029999999999
31
0
0
LINE
8
circulation
10
65113.86
20
16361.029999999999
30
0
11
65181.35999999999
21
16400.0
31
0
0
LINE
8
circulation
10
70545.0
20
16400.0
30
0
11
70477.5
21
16438.97
31
0
0
LINE
8
circulation
10
70477.5
20
16438.97
30
0
11
70477.5
21
16361.029999999999
31
0
0
LINE
8
circulation
10
70477.5
20
16361.029999999999
30
0
11
70545.0
21
16400.0
31
0
0
LINE
8
circulation
10
11544.999999999998
20
21733.33
30
0
11
11477.499999999998
21
21772.300000000003
31
0
0
LINE
8
circulation
10
11477.499999999998
20
21772.300000000003
30
0
11
11477.499999999998
21
21694.36
31
0
0
LINE
8
circulation
10
11477.499999999998
20
21694.36
30
0
11
11544.999999999998
21
21733.33
31
0
0
LINE
8
circulation
10
11544.999999999998
20
27066.67
30
0
11
11477.499999999998
21
27105.64
31
0
0
LINE
8
circulation
10
11477.499999999998
20
27105.64
30
0
11
11477.499999999998
21
27027.699999999997
31
0
0
LINE
8
circulation
10
11477.499999999998
20
27027.699999999997
30
0
11
11544.999999999998
21
27066.67
31
0
0
LINE
8
circulation
10
11544.999999999998
20
32400.0
30
0
11
11477.499999999998
21
32438.97
31
0
0
LINE
8
circulation
10
11477.499999999998
20
32438.97
30
0
11
11477.499999999998
21
32361.03
31
0
0
LINE
8
circulation
10
11477.499999999998
20
32361.03
30
0
11
11544.999999999998
21
32400.0
31
0
0
LINE
8
circulation
10
11544.999999999998
20
37733.33
30
0
11
11477.499999999998
21
37772.3
31
0
0
LINE
8
circulation
10
11477.499999999998
20
37772.3
30
0
11
11477.499999999998
21
37694.36
31
0
0
LINE
8
circulation
10
11477.499999999998
20
37694.36
30
0
11
11544.999999999998
21
37733.33
31
0
0
LINE
8
circulation
10
11544.999999999998
20
43066.67
30
0
11
11477.499999999998
21
43105.64
31
0
0
LINE
8
circulation
10
11477.499999999998
20
43105.64
30
0
11
11477.499999999998
21
43027.7
31
0
0
LINE
8
circulation
10
11477.499999999998
20
43027.7
30
0
11
11544.999999999998
21
43066.67
31
0
0
LINE
8
circulation
10
11544.999999999998
20
48400.0
30
0
11
11477.499999999998
21
48438.97
31
0
0
LINE
8
circulation
10
11477.499999999998
20
48438.97
30
0
11
11477.499999999998
21
48361.03
31
0
0
LINE
8
circulation
10
11477.499999999998
20
48361.03
30
0
11
11544.999999999998
21
48400.0
31
0
0
LINE
8
circulation
10
16908.64
20
48400.0
30
0
11
16841.14
21
48438.97
31
0
0
LINE
8
circulation
10
16841.14
20
48438.97
30
0
11
16841.14
21
48361.03
31
0
0
LINE
8
circulation
10
16841.14
20
48361.03
30
0
11
16908.64
21
48400.0
31
0
0
LINE
8
circulation
10
22272.27
20
48400.0
30
0
11
22204.77
21
48438.97
31
0
0
LINE
8
circulation
10
22204.77
20
48438.97
30
0
11
22204.77
21
48361.03
31
0
0
LINE
8
circulation
10
22204.77
20
48361.03
30
0
11
22272.27
21
48400.0
31
0
0
LINE
8
circulation
10
27635.91
20
48400.0
30
0
11
27568.41
21
48438.97
31
0
0
LINE
8
circulation
10
27568.41
20
48438.97
30
0
11
27568.41
21
48361.03
31
0
0
LINE
8
circulation
10
27568.41
20
48361.03
30
0
11
27635.91
21
48400.0
31
0
0
LINE
8
circulation
10
32999.55
20
48400.0
30
0
11
32932.049999999996
21
48438.97
31
0
0
LINE
8
circulation
10
32932.049999999996
20
48438.97
30
0
11
32932.049999999996
21
48361.03
31
0
0
LINE
8
circulation
10
32932.049999999996
20
48361.03
30
0
11
32999.55
21
48400.0
31
0
0
LINE
8
circulation
10
38363.18
20
48400.0
30
0
11
38295.68
21
48438.97
31
0
0
LINE
8
circulation
10
38295.68
20
48438.97
30
0
11
38295.68
21
48361.03
31
0
0
LINE
8
circulation
10
38295.68
20
48361.03
30
0
11
38363.18
21
48400.0
31
0
0
LINE
8
circulation
10
43726.82
20
48400.0
30
0
11
43659.32
21
48438.97
31
0
0
LINE
8
circulation
10
43659.32
20
48438.97
30
0
11
43659.32
21
48361.03
31
0
0
LINE
8
circulation
10
43659.32
20
48361.03
30
0
11
43726.82
21
48400.0
31
0
0
LINE
8
circulation
10
49090.45
20
48400.0
30
0
11
49022.950000000004
21
48438.97
31
0
0
LINE
8
circulation
10
49022.950000000004
20
48438.97
30
0
11
49022.950000000004
21
48361.03
31
0
0
LINE
8
circulation
10
49022.950000000004
20
48361.03
30
0
11
49090.45
21
48400.0
31
0
0
LINE
8
circulation
10
54454.09
20
48400.0
30
0
11
54386.590000000004
21
48438.97
31
0
0
LINE
8
circulation
10
54386.590000000004
20
48438.97
30
0
11
54386.590000000004
21
48361.03
31
0
0
LINE
8
circulation
10
54386.590000000004
20
48361.03
30
0
11
54454.09
21
48400.0
31
0
0
LINE
8
circulation
10
59817.73
20
48400.0
30
0
11
59750.229999999996
21
48438.97
31
0
0
LINE
8
circulation
10
59750.229999999996
20
48438.97
30
0
11
59750.229999999996
21
48361.03
31
0
0
LINE
8
circulation
10
59750.229999999996
20
48361.03
30
0
11
59817.73
21
48400.0
31
0
0
LINE
8
circulation
10
65181.35999999999
20
48400.0
30
0
11
65113.86
21
48438.97
31
0
0
LINE
8
circulation
10
65113.86
20
48438.97
30
0
11
65113.86
21
48361.03
31
0
0
LINE
8
circulation
10
65113.86
20
48361.03
30
0
11
65181.35999999999
21
48400.0
31
0
0
LINE
8
circulation
10
70545.0
20
48400.0
30
0
11
70477.5
21
48438.97
31
0
0
LINE
8
circulation
10
70477.5
20
48438.97
30
0
11
70477.5
21
48361.03
31
0
0
LINE
8
circulation
10
70477.5
20
48361.03
30
0
11
70545.0
21
48400.0
31
0
0
LINE
8
circulation
10
70545.0
20
21733.33
30
0
11
70477.5
21
21772.300000000003
31
0
0
LINE
8
circulation
10
70477.5
20
21772.300000000003
30
0
11
70477.5
21
21694.36
31
0
0
LINE
8
circulation
10
70477.5
20
21694.36
30
0
11
70545.0
21
21733.33
31
0
0
LINE
8
circulation
10
70545.0
20
27066.67
30
0
11
70477.5
21
27105.64
31
0
0
LINE
8
circulation
10
70477.5
20
27105.64
30
0
11
70477.5
21
27027.699999999997
31
0
0
LINE
8
circulation
10
70477.5
20
27027.699999999997
30
0
11
70545.0
21
27066.67
31
0
0
LINE
8
circulation
10
70545.0
20
32400.0
30
0
11
70477.5
21
32438.97
31
0
0
LINE
8
circulation
10
70477.5
20
32438.97
30
0
11
70477.5
21
32361.03
31
0
0
LINE
8
circulation
10
70477.5
20
32361.03
30
0
11
70545.0
21
32400.0
31
0
0
LINE
8
circulation
10
70545.0
20
37733.33
30
0
11
70477.5
21
37772.3
31
0
0
LINE
8
circulation
10
70477.5
20
37772.3
30
0
11
70477.5
21
37694.36
31
0
0
LINE
8
circulation
10
70477.5
20
37694.36
30
0
11
70545.0
21
37733.33
31
0
0
LINE
8
circulation
10
70545.0
20
43066.67
30
0
11
70477.5
21
43105.64
31
0
0
LINE
8
circulation
10
70477.5
20
43105.64
30
0
11
70477.5
21
43027.7
31
0
0
LINE
8
circulation
10
70477.5
20
43027.7
30
0
11
70545.0
21
43066.67
31
0
0
LINE
8
datum
10
10500.0
20
15400.0
30
0
11
71500.0
21
15400.0
31
0
0
LINE
8
datum
10
71500.0
20
15400.0
30
0
11
71500.0
21
49400.0
31
0
0
LINE
8
datum
10
71500.0
20
49400.0
30
0
11
10500.0
21
49400.0
31
0
0
LINE
8
datum
10
10500.0
20
49400.0
30
0
11
10500.0
21
15400.0
31
0
0
LINE
8
grid
10
12000.0
20
12900.0
30
0
11
12000.0
21
53900.0
31
0
0
TEXT
8
annotation
10
11875.0
20
54300.0
30
0
40
500.0
1
1
50
0
0
LINE
8
grid
10
23600.0
20
12900.0
30
0
11
23600.0
21
53900.0
31
0
0
TEXT
8
annotation
10
23475.0
20
54300.0
30
0
40
500.0
1
2
50
0
0
LINE
8
grid
10
35200.0
20
12900.0
30
0
11
35200.0
21
53900.0
31
0
0
TEXT
8
annotation
10
35075.0
20
54300.0
30
0
40
500.0
1
3
50
0
0
LINE
8
grid
10
46800.0
20
12900.0
30
0
11
46800.0
21
53900.0
31
0
0
TEXT
8
annotation
10
46675.0
20
54300.0
30
0
40
500.0
1
4
50
0
0
LINE
8
grid
10
58400.0
20
12900.0
30
0
11
58400.0
21
53900.0
31
0
0
TEXT
8
annotation
10
58275.0
20
54300.0
30
0
40
500.0
1
5
50
0
0
LINE
8
grid
10
70000.0
20
12900.0
30
0
11
70000.0
21
53900.0
31
0
0
TEXT
8
annotation
10
69875.0
20
54300.0
30
0
40
500.0
1
6
50
0
0
LINE
8
grid
10
6500.0
20
16900.0
30
0
11
75500.0
21
16900.0
31
0
0
TEXT
8
annotation
10
5850.0
20
16700.0
30
0
40
500.0
1
A
50
0
0
LINE
8
grid
10
6500.0
20
32400.0
30
0
11
75500.0
21
32400.0
31
0
0
TEXT
8
annotation
10
5850.0
20
32200.0
30
0
40
500.0
1
B
50
0
0
LINE
8
grid
10
6500.0
20
47900.0
30
0
11
75500.0
21
47900.0
31
0
0
TEXT
8
annotation
10
5850.0
20
47700.0
30
0
40
500.0
1
C
50
0
0
LINE
8
dimension
10
10500.0
20
13000.0
30
0
11
71500.0
21
13000.0
31
0
0
LINE
8
dimension
10
10300.0
20
12800.0
30
0
11
10700.0
21
13200.0
31
0
0
LINE
8
dimension
10
71300.0
20
12800.0
30
0
11
71700.0
21
13200.0
31
0
0
TEXT
8
annotation
10
38450.0
20
13300.0
30
0
40
600.0
1
61,000 mm overall
50
0
0
LINE
8
dimension
10
73700.0
20
49400.0
30
0
11
73700.0
21
15400.0
31
0
0
TEXT
8
annotation
10
74300.0
20
32400.0
30
0
40
600.0
1
34,000
50
0
0
TEXT
8
annotation
10
76200.0
20
50400
30
0
40
800.0
1
N
50
0
0
LINE
8
annotation
10
76400
20
49800
30
0
11
75800
21
48000
31
0
0
LINE
8
annotation
10
75800
20
48000
30
0
11
76400
21
48600
31
0
0
LINE
8
annotation
10
76400
20
48600
30
0
11
77000
21
48000
31
0
0
LINE
8
annotation
10
77000
20
48000
30
0
11
76400
21
49800
31
0
0
LINE
8
frame
10
2800
20
11800
30
0
11
81200
21
11800
31
0
0
TEXT
8
annotation
10
2800
20
10200
30
0
40
700.0
1
CONCEPT DESIGN | IMAGE-INFERRED | NOT FOR CONSTRUCTION
50
0
0
TEXT
8
annotation
10
2800
20
7600.0
30
0
40
530.0
1
Source: two campus AI images + fab1.jpg; official analogues documented in analysis/cad/.
50
0
0
TEXT
8
annotation
10
2800
20
6720.000000000005
30
0
40
530.0
1
CAD model in mm; site coordinates X east, Y north, Z up. Internal layouts and member sizes are design estimates.
50
0
0
TEXT
8
annotation
10
2800
20
5839.999999999998
30
0
40
530.0
1
Plans/sections are extracted from actual FreeCAD BRep. Elevations project component outlines; hidden edges omitted per component.
50
0
0
TEXT
8
annotation
10
2800
20
4960.000000000002
30
0
40
530.0
1
Civic wing roofs and skylight may differ from the nominal building height; inspect actual geometry and parameter aliases.
50
0
0
TEXT
8
annotation
10
2800
20
4079.9999999999955
30
0
40
530.0
1
No process certification, structural verification, measured survey, or construction approval is implied.
50
0
0
TEXT
8
annotation
10
71400.0
20
2200
30
0
40
560.0
1
2026-09-30  |  FreeCAD 1.1.4  |  mm
50
0
0
ENDSEC
0
EOF
