<svg xmlns="http://www.w3.org/2000/svg" width="420mm" height="297mm" viewBox="0 0 420 297"><rect width="420" height="297" fill="white"/>
<polyline fill="none" stroke="#263b43" stroke-width="0.35" points="7.000,7.000 413.000,7.000 413.000,290.000 7.000,290.000 7.000,7.000"/>
<text x="14.000" y="18.000" font-size="4.2" font-family="Arial,Microsoft YaHei,sans-serif" text-anchor="start" fill="#183b47">PHOENIX SCIENCE PARK</text>
<text x="14.000" y="26.000" font-size="5" font-family="Arial,Microsoft YaHei,sans-serif" text-anchor="start" fill="#243943">DINING_E / Roof equipment plan</text>
<text x="406.000" y="18.000" font-size="3.2" font-family="Arial,Microsoft YaHei,sans-serif" text-anchor="end" fill="#243943">A3  |  1:300</text>
<text x="406.000" y="26.000" font-size="3" font-family="Arial,Microsoft YaHei,sans-serif" text-anchor="end" fill="#243943">CAD-DINING_E-ROOF  /  R1</text>
<polyline fill="none" stroke="#263b43" stroke-width="0.2" points="14.000,31.000 406.000,31.000"/>
<polyline fill="none" stroke="#263b43" stroke-width="0.16" points="103.333,191.667 103.333,78.333"/>
<polyline fill="none" stroke="#263b43" stroke-width="0.16" points="306.667,191.667 306.667,78.333"/>
<polyline fill="none" stroke="#263b43" stroke-width="0.16" points="103.333,191.667 306.667,191.667"/>
<polyline fill="none" stroke="#263b43" stroke-width="0.16" points="103.333,78.333 306.667,78.333"/>
<polyline fill="none" stroke="#263b43" stroke-width="0.16" points="88.333,208.333 321.667,208.333"/>
<polyline fill="none" stroke="#263b43" stroke-width="0.16" points="321.667,208.333 275.000,135.000"/>
<polyline fill="none" stroke="#263b43" stroke-width="0.16" points="275.000,135.000 135.000,135.000"/>
<polyline fill="none" stroke="#263b43" stroke-width="0.16" points="135.000,135.000 88.333,208.333"/>
<polyline fill="none" stroke="#263b43" stroke-width="0.16" points="321.667,208.333 321.667,61.667"/>
<polyline fill="none" stroke="#263b43" stroke-width="0.16" points="321.667,61.667 275.000,135.000"/>
<polyline fill="none" stroke="#263b43" stroke-width="0.16" points="321.667,61.667 88.333,61.667"/>
<polyline fill="none" stroke="#263b43" stroke-width="0.16" points="88.333,61.667 135.000,135.000"/>
<polyline fill="none" stroke="#263b43" stroke-width="0.16" points="88.333,61.667 88.333,208.333"/>
<polyline fill="none" stroke="#263b43" stroke-width="0.16" points="106.817,188.333 106.592,188.203 106.592,188.463 106.817,188.333"/>
<polyline fill="none" stroke="#263b43" stroke-width="0.16" points="124.695,188.333 124.470,188.203 124.470,188.463 124.695,188.333"/>
<polyline fill="none" stroke="#263b43" stroke-width="0.16" points="142.574,188.333 142.349,188.203 142.349,188.463 142.574,188.333"/>
<polyline fill="none" stroke="#263b43" stroke-width="0.16" points="160.453,188.333 160.228,188.203 160.228,188.463 160.453,188.333"/>
<polyline fill="none" stroke="#263b43" stroke-width="0.16" points="178.332,188.333 178.107,188.203 178.107,188.463 178.332,188.333"/>
<polyline fill="none" stroke="#263b43" stroke-width="0.16" points="196.211,188.333 195.986,188.203 195.986,188.463 196.211,188.333"/>
<polyline fill="none" stroke="#263b43" stroke-width="0.16" points="214.089,188.333 213.864,188.203 213.864,188.463 214.089,188.333"/>
<polyline fill="none" stroke="#263b43" stroke-width="0.16" points="231.968,188.333 231.743,188.203 231.743,188.463 231.968,188.333"/>
<polyline fill="none" stroke="#263b43" stroke-width="0.16" points="249.847,188.333 249.622,188.203 249.622,188.463 249.847,188.333"/>
<polyline fill="none" stroke="#263b43" stroke-width="0.16" points="267.726,188.333 267.501,188.203 267.501,188.463 267.726,188.333"/>
<polyline fill="none" stroke="#263b43" stroke-width="0.16" points="285.605,188.333 285.380,188.203 285.380,188.463 285.605,188.333"/>
<polyline fill="none" stroke="#263b43" stroke-width="0.16" points="303.483,188.333 303.258,188.203 303.258,188.463 303.483,188.333"/>
<polyline fill="none" stroke="#263b43" stroke-width="0.16" points="106.817,170.556 106.592,170.426 106.592,170.685 106.817,170.556"/>
<polyline fill="none" stroke="#263b43" stroke-width="0.16" points="106.817,152.778 106.592,152.648 106.592,152.908 106.817,152.778"/>
<polyline fill="none" stroke="#263b43" stroke-width="0.16" points="106.817,135.000 106.592,134.870 106.592,135.130 106.817,135.000"/>
<polyline fill="none" stroke="#263b43" stroke-width="0.16" points="106.817,117.222 106.592,117.092 106.592,117.352 106.817,117.222"/>
<polyline fill="none" stroke="#263b43" stroke-width="0.16" points="106.817,99.444 106.592,99.315 106.592,99.574 106.817,99.444"/>
<polyline fill="none" stroke="#263b43" stroke-width="0.16" points="106.817,81.667 106.592,81.537 106.592,81.797 106.817,81.667"/>
<polyline fill="none" stroke="#263b43" stroke-width="0.16" points="124.695,81.667 124.470,81.537 124.470,81.797 124.695,81.667"/>
<polyline fill="none" stroke="#263b43" stroke-width="0.16" points="142.574,81.667 142.349,81.537 142.349,81.797 142.574,81.667"/>
<polyline fill="none" stroke="#263b43" stroke-width="0.16" points="160.453,81.667 160.228,81.537 160.228,81.797 160.453,81.667"/>
<polyline fill="none" stroke="#263b43" stroke-width="0.16" points="178.332,81.667 178.107,81.537 178.107,81.797 178.332,81.667"/>
<polyline fill="none" stroke="#263b43" stroke-width="0.16" points="196.211,81.667 195.986,81.537 195.986,81.797 196.211,81.667"/>
<polyline fill="none" stroke="#263b43" stroke-width="0.16" points="214.089,81.667 213.864,81.537 213.864,81.797 214.089,81.667"/>
<polyline fill="none" stroke="#263b43" stroke-width="0.16" points="231.968,81.667 231.743,81.537 231.743,81.797 231.968,81.667"/>
<polyline fill="none" stroke="#263b43" stroke-width="0.16" points="249.847,81.667 249.622,81.537 249.622,81.797 249.847,81.667"/>
<polyline fill="none" stroke="#263b43" stroke-width="0.16" points="267.726,81.667 267.501,81.537 267.501,81.797 267.726,81.667"/>
<polyline fill="none" stroke="#263b43" stroke-width="0.16" points="285.605,81.667 285.380,81.537 285.380,81.797 285.605,81.667"/>
<polyline fill="none" stroke="#263b43" stroke-width="0.16" points="303.483,81.667 303.258,81.537 303.258,81.797 303.483,81.667"/>
<polyline fill="none" stroke="#263b43" stroke-width="0.16" points="303.483,170.556 303.258,170.426 303.258,170.685 303.483,170.556"/>
<polyline fill="none" stroke="#263b43" stroke-width="0.16" points="303.483,152.778 303.258,152.648 303.258,152.908 303.483,152.778"/>
<polyline fill="none" stroke="#263b43" stroke-width="0.16" points="303.483,135.000 303.258,134.870 303.258,135.130 303.483,135.000"/>
<polyline fill="none" stroke="#263b43" stroke-width="0.16" points="303.483,117.222 303.258,117.092 303.258,117.352 303.483,117.222"/>
<polyline fill="none" stroke="#263b43" stroke-width="0.16" points="303.483,99.444 303.258,99.315 303.258,99.574 303.483,99.444"/>
<polyline fill="none" stroke="#263b43" stroke-width="0.16" points="103.333,191.667 306.667,191.667 306.667,78.333 103.333,78.333 103.333,191.667"/>
<polyline fill="none" stroke="#87959a" stroke-width="0.1" stroke-dasharray="2 1" points="108.333,200.000 108.333,63.333"/>
<text x="108.333" y="61.333" font-size="2.5" font-family="Arial,Microsoft YaHei,sans-serif" text-anchor="middle" fill="#243943">1</text>
<polyline fill="none" stroke="#87959a" stroke-width="0.1" stroke-dasharray="2 1" points="147.000,200.000 147.000,63.333"/>
<text x="147.000" y="61.333" font-size="2.5" font-family="Arial,Microsoft YaHei,sans-serif" text-anchor="middle" fill="#243943">2</text>
<polyline fill="none" stroke="#87959a" stroke-width="0.1" stroke-dasharray="2 1" points="185.667,200.000 185.667,63.333"/>
<text x="185.667" y="61.333" font-size="2.5" font-family="Arial,Microsoft YaHei,sans-serif" text-anchor="middle" fill="#243943">3</text>
<polyline fill="none" stroke="#87959a" stroke-width="0.1" stroke-dasharray="2 1" points="224.333,200.000 224.333,63.333"/>
<text x="224.333" y="61.333" font-size="2.5" font-family="Arial,Microsoft YaHei,sans-serif" text-anchor="middle" fill="#243943">4</text>
<polyline fill="none" stroke="#87959a" stroke-width="0.1" stroke-dasharray="2 1" points="263.000,200.000 263.000,63.333"/>
<text x="263.000" y="61.333" font-size="2.5" font-family="Arial,Microsoft YaHei,sans-serif" text-anchor="middle" fill="#243943">5</text>
<polyline fill="none" stroke="#87959a" stroke-width="0.1" stroke-dasharray="2 1" points="301.667,200.000 301.667,63.333"/>
<text x="301.667" y="61.333" font-size="2.5" font-family="Arial,Microsoft YaHei,sans-serif" text-anchor="middle" fill="#243943">6</text>
<polyline fill="none" stroke="#87959a" stroke-width="0.1" stroke-dasharray="2 1" points="90.000,186.667 320.000,186.667"/>
<text x="88.000" y="187.667" font-size="2.5" font-family="Arial,Microsoft YaHei,sans-serif" text-anchor="end" fill="#243943">A</text>
<polyline fill="none" stroke="#87959a" stroke-width="0.1" stroke-dasharray="2 1" points="90.000,135.000 320.000,135.000"/>
<text x="88.000" y="136.000" font-size="2.5" font-family="Arial,Microsoft YaHei,sans-serif" text-anchor="end" fill="#243943">B</text>
<polyline fill="none" stroke="#87959a" stroke-width="0.1" stroke-dasharray="2 1" points="90.000,83.333 320.000,83.333"/>
<text x="88.000" y="84.333" font-size="2.5" font-family="Arial,Microsoft YaHei,sans-serif" text-anchor="end" fill="#243943">C</text>
<polyline fill="none" stroke="#263b43" stroke-width="0.2" points="103.333,203.667 306.667,203.667"/>
<polyline fill="none" stroke="#263b43" stroke-width="0.3" points="102.333,204.667 104.333,202.667"/>
<polyline fill="none" stroke="#263b43" stroke-width="0.3" points="305.667,204.667 307.667,202.667"/>
<text x="205.000" y="202.167" font-size="3" font-family="Arial,Microsoft YaHei,sans-serif" text-anchor="middle" fill="#243943">61,000 mm overall</text>
<polyline fill="none" stroke="#263b43" stroke-width="0.2" points="317.667,78.333 317.667,191.667"/>
<text x="320.667" y="135.000" font-size="3" font-family="Arial,Microsoft YaHei,sans-serif" text-anchor="start" fill="#243943">34,000</text>
<text x="382.000" y="45.000" font-size="4" font-family="Arial,Microsoft YaHei,sans-serif" text-anchor="middle" fill="#243943">N</text>
<polyline fill="none" stroke="#263b43" stroke-width="0.3" points="382.000,48.000 379.000,57.000 382.000,54.000 385.000,57.000 382.000,48.000"/>
<polyline fill="none" stroke="#263b43" stroke-width="0.3" points="14.000,238.000 406.000,238.000"/>
<text x="14.000" y="246.000" font-size="3.5" font-family="Arial,Microsoft YaHei,sans-serif" text-anchor="start" fill="#8a4230">CONCEPT DESIGN | IMAGE-INFERRED | NOT FOR CONSTRUCTION</text>
<text x="14.000" y="253.000" font-size="3.1" font-family="Arial,Microsoft YaHei,sans-serif" text-anchor="start" fill="#8a4230">概念方案｜图像反推｜尺寸、结构、机电待核验</text>
<text x="14.000" y="259.000" font-size="2.65" font-family="Arial,Microsoft YaHei,sans-serif" text-anchor="start" fill="#243943">Source: two campus AI images + fab1.jpg; official analogues documented in analysis/cad/.</text>
<text x="14.000" y="263.400" font-size="2.65" font-family="Arial,Microsoft YaHei,sans-serif" text-anchor="start" fill="#243943">CAD model in mm; site coordinates X east, Y north, Z up. Internal layouts and member sizes are design estimates.</text>
<text x="14.000" y="267.800" font-size="2.65" font-family="Arial,Microsoft YaHei,sans-serif" text-anchor="start" fill="#243943">Plans/sections are extracted from actual FreeCAD BRep. Elevations project component outlines; hidden edges omitted per component.</text>
<text x="14.000" y="272.200" font-size="2.65" font-family="Arial,Microsoft YaHei,sans-serif" text-anchor="start" fill="#243943">Civic wing roofs and skylight may differ from the nominal building height; inspect actual geometry and parameter aliases.</text>
<text x="14.000" y="276.600" font-size="2.65" font-family="Arial,Microsoft YaHei,sans-serif" text-anchor="start" fill="#243943">No process certification, structural verification, measured survey, or construction approval is implied.</text>
<text x="406.000" y="286.000" font-size="2.8" font-family="Arial,Microsoft YaHei,sans-serif" text-anchor="end" fill="#243943">2026-09-30  |  FreeCAD 1.1.4  |  mm</text>
</svg>