0
SECTION
2
HEADER
9
$ACADVER
1
AC1009
9
$INSUNITS
70
4
0
ENDSEC
0
SECTION
2
ENTITIES
0
LINE
8
frame
10
1050
20
43500
30
0
11
61950
21
43500
31
0
0
LINE
8
frame
10
61950
20
43500
30
0
11
61950
21
1050
31
0
0
LINE
8
frame
10
61950
20
1050
30
0
11
1050
21
1050
31
0
0
LINE
8
frame
10
1050
20
1050
30
0
11
1050
21
43500
31
0
0
TEXT
8
annotation
10
2100
20
41850
30
0
40
630.0
1
PHOENIX SCIENCE PARK
50
0
0
TEXT
8
annotation
10
2100
20
40650
30
0
40
750.0
1
DINING_W / East elevation
50
0
0
TEXT
8
annotation
10
58020.0
20
41850
30
0
40
480.0
1
A3  |  1:150
50
0
0
TEXT
8
annotation
10
55500.0
20
40650
30
0
40
450.0
1
CAD-DINING_W-EAST  /  R1
50
0
0
LINE
8
frame
10
2100
20
39900
30
0
11
60900
21
39900
31
0
0
LINE
8
roof
10
47750.0
20
29350.0
30
0
11
47750.0
21
29750.0
31
0
0
LINE
8
roof
10
47750.0
20
29750.0
30
0
11
13750.0
21
29750.0
31
0
0
LINE
8
roof
10
13750.0
20
29350.0
30
0
11
13750.0
21
29750.0
31
0
0
LINE
8
roof
10
47750.0
20
29350.0
30
0
11
13750.0
21
29350.0
31
0
0
LINE
8
glazing
10
47810.0
20
14750.000000000002
30
0
11
47810.0
21
29150.0
31
0
0
LINE
8
glazing
10
47810.0
20
29150.0
30
0
11
47690.0
21
29150.0
31
0
0
LINE
8
glazing
10
47690.0
20
14750.000000000002
30
0
11
47690.0
21
29150.0
31
0
0
LINE
8
glazing
10
47810.0
20
14750.000000000002
30
0
11
47690.0
21
14750.000000000002
31
0
0
LINE
8
envelope
10
48090.0
20
14750.000000000002
30
0
11
48090.0
21
29350.0
31
0
0
LINE
8
envelope
10
48090.0
20
29350.0
30
0
11
47770.00000000001
21
29350.0
31
0
0
LINE
8
envelope
10
47770.00000000001
20
14750.000000000002
30
0
11
47770.00000000001
21
29350.0
31
0
0
LINE
8
envelope
10
48090.0
20
14750.000000000002
30
0
11
47770.00000000001
21
14750.000000000002
31
0
0
LINE
8
envelope
10
48090.0
20
29350.0
30
0
11
48090.0
21
29490.0
31
0
0
LINE
8
envelope
10
48090.0
20
29490.0
30
0
11
47770.00000000001
21
29490.0
31
0
0
LINE
8
envelope
10
47770.00000000001
20
29350.0
30
0
11
47770.00000000001
21
29490.0
31
0
0
LINE
8
envelope
10
47750.0
20
14750.000000000002
30
0
11
47750.0
21
29350.0
31
0
0
LINE
8
envelope
10
13750.0
20
14750.000000000002
30
0
11
13750.0
21
29350.0
31
0
0
LINE
8
envelope
10
47750.0
20
14750.000000000002
30
0
11
13750.0
21
14750.000000000002
31
0
0
LINE
8
glazing
10
13810.0
20
14750.000000000002
30
0
11
13810.0
21
29150.0
31
0
0
LINE
8
glazing
10
13810.0
20
29150.0
30
0
11
13690.0
21
29150.0
31
0
0
LINE
8
glazing
10
13690.0
20
14750.000000000002
30
0
11
13690.0
21
29150.0
31
0
0
LINE
8
glazing
10
13810.0
20
14750.000000000002
30
0
11
13690.0
21
14750.000000000002
31
0
0
LINE
8
envelope
10
13730.0
20
14750.000000000002
30
0
11
13730.0
21
29350.0
31
0
0
LINE
8
envelope
10
13730.0
20
29350.0
30
0
11
13410.0
21
29350.0
31
0
0
LINE
8
envelope
10
13410.0
20
14750.000000000002
30
0
11
13410.0
21
29350.0
31
0
0
LINE
8
envelope
10
13730.0
20
14750.000000000002
30
0
11
13410.0
21
14750.000000000002
31
0
0
LINE
8
envelope
10
13730.0
20
29350.0
30
0
11
13730.0
21
29490.0
31
0
0
LINE
8
envelope
10
13730.0
20
29490.0
30
0
11
13410.0
21
29490.0
31
0
0
LINE
8
envelope
10
13410.0
20
29350.0
30
0
11
13410.0
21
29490.0
31
0
0
LINE
8
equipment
10
26150.0
20
29750.0
30
0
11
26150.0
21
30250.0
31
0
0
LINE
8
equipment
10
26150.0
20
30250.0
30
0
11
21350.0
21
30250.0
31
0
0
LINE
8
equipment
10
21350.0
20
29750.0
30
0
11
21350.0
21
30250.0
31
0
0
LINE
8
equipment
10
26150.0
20
29750.0
30
0
11
21350.0
21
29750.0
31
0
0
LINE
8
equipment
10
25750.0
20
30250.0
30
0
11
25750.0
21
33550.0
31
0
0
LINE
8
equipment
10
25750.0
20
33550.0
30
0
11
21750.0
21
33550.0
31
0
0
LINE
8
equipment
10
21750.0
20
30250.0
30
0
11
21750.0
21
33550.0
31
0
0
LINE
8
equipment
10
21750.0
20
32950.0
30
0
11
21630.0
21
32950.0
31
0
0
LINE
8
equipment
10
21630.0
20
30650.0
30
0
11
21630.0
21
32950.0
31
0
0
LINE
8
equipment
10
21750.0
20
30650.0
30
0
11
21630.0
21
30650.0
31
0
0
LINE
8
equipment
10
23750.0
20
33850.0
30
0
11
23638.039999999997
21
33850.0
31
0
0
LINE
8
equipment
10
23638.039999999997
20
33850.0
30
0
11
23527.48
21
33850.0
31
0
0
LINE
8
equipment
10
23527.48
20
33850.0
30
0
11
23419.719999999998
21
33850.0
31
0
0
LINE
8
equipment
10
23419.719999999998
20
33850.0
30
0
11
23316.12
21
33850.0
31
0
0
LINE
8
equipment
10
23316.12
20
33850.0
30
0
11
23217.97
21
33850.0
31
0
0
LINE
8
equipment
10
23217.97
20
33850.0
30
0
11
23126.510000000002
21
33850.0
31
0
0
LINE
8
equipment
10
23126.510000000002
20
33850.0
30
0
11
23042.890000000003
21
33850.0
31
0
0
LINE
8
equipment
10
23042.890000000003
20
33850.0
30
0
11
22968.17
21
33850.0
31
0
0
LINE
8
equipment
10
22968.17
20
33850.0
30
0
11
22903.280000000002
21
33850.0
31
0
0
LINE
8
equipment
10
22903.280000000002
20
33850.0
30
0
11
22849.03
21
33850.0
31
0
0
LINE
8
equipment
10
22849.03
20
33850.0
30
0
11
22806.12
21
33850.0
31
0
0
LINE
8
equipment
10
22806.12
20
33850.0
30
0
11
22775.07
21
33850.0
31
0
0
LINE
8
equipment
10
22775.07
20
33850.0
30
0
11
22756.289999999997
21
33850.0
31
0
0
LINE
8
equipment
10
22756.289999999997
20
33850.0
30
0
11
22750.0
21
33850.0
31
0
0
LINE
8
equipment
10
24750.0
20
33850.0
30
0
11
24743.71
21
33850.0
31
0
0
LINE
8
equipment
10
24743.71
20
33850.0
30
0
11
24724.93
21
33850.0
31
0
0
LINE
8
equipment
10
24724.93
20
33850.0
30
0
11
24693.88
21
33850.0
31
0
0
LINE
8
equipment
10
24693.88
20
33850.0
30
0
11
24650.97
21
33850.0
31
0
0
LINE
8
equipment
10
24650.97
20
33850.0
30
0
11
24596.72
21
33850.0
31
0
0
LINE
8
equipment
10
24596.72
20
33850.0
30
0
11
24531.83
21
33850.0
31
0
0
LINE
8
equipment
10
24531.83
20
33850.0
30
0
11
24457.109999999997
21
33850.0
31
0
0
LINE
8
equipment
10
24457.109999999997
20
33850.0
30
0
11
24373.49
21
33850.0
31
0
0
LINE
8
equipment
10
24373.49
20
33850.0
30
0
11
24282.03
21
33850.0
31
0
0
LINE
8
equipment
10
24282.03
20
33850.0
30
0
11
24183.879999999997
21
33850.0
31
0
0
LINE
8
equipment
10
24183.879999999997
20
33850.0
30
0
11
24080.28
21
33850.0
31
0
0
LINE
8
equipment
10
24080.28
20
33850.0
30
0
11
23972.52
21
33850.0
31
0
0
LINE
8
equipment
10
23972.52
20
33850.0
30
0
11
23861.96
21
33850.0
31
0
0
LINE
8
equipment
10
23861.96
20
33850.0
30
0
11
23750.0
21
33850.0
31
0
0
LINE
8
equipment
10
25815.0
20
30550.0
30
0
11
25815.0
21
30630.0
31
0
0
LINE
8
equipment
10
25815.0
20
30630.0
30
0
11
25750.0
21
30630.0
31
0
0
LINE
8
equipment
10
25815.0
20
30550.0
30
0
11
25750.0
21
30550.0
31
0
0
LINE
8
equipment
10
25815.0
20
30800.0
30
0
11
25815.0
21
30880.0
31
0
0
LINE
8
equipment
10
25815.0
20
30880.0
30
0
11
25750.0
21
30880.0
31
0
0
LINE
8
equipment
10
25815.0
20
30800.0
30
0
11
25750.0
21
30800.0
31
0
0
LINE
8
equipment
10
25815.0
20
31050.0
30
0
11
25815.0
21
31130.0
31
0
0
LINE
8
equipment
10
25815.0
20
31130.0
30
0
11
25750.0
21
31130.0
31
0
0
LINE
8
equipment
10
25815.0
20
31050.0
30
0
11
25750.0
21
31050.0
31
0
0
LINE
8
equipment
10
25815.0
20
31300.0
30
0
11
25815.0
21
31380.0
31
0
0
LINE
8
equipment
10
25815.0
20
31380.0
30
0
11
25750.0
21
31380.0
31
0
0
LINE
8
equipment
10
25815.0
20
31300.0
30
0
11
25750.0
21
31300.0
31
0
0
LINE
8
equipment
10
25815.0
20
31550.0
30
0
11
25815.0
21
31630.0
31
0
0
LINE
8
equipment
10
25815.0
20
31630.0
30
0
11
25750.0
21
31630.0
31
0
0
LINE
8
equipment
10
25815.0
20
31550.0
30
0
11
25750.0
21
31550.0
31
0
0
LINE
8
equipment
10
25815.0
20
31800.0
30
0
11
25815.0
21
31880.0
31
0
0
LINE
8
equipment
10
25815.0
20
31880.0
30
0
11
25750.0
21
31880.0
31
0
0
LINE
8
equipment
10
25815.0
20
31800.0
30
0
11
25750.0
21
31800.0
31
0
0
LINE
8
equipment
10
25815.0
20
32050.0
30
0
11
25815.0
21
32130.0
31
0
0
LINE
8
equipment
10
25815.0
20
32130.0
30
0
11
25750.0
21
32130.0
31
0
0
LINE
8
equipment
10
25815.0
20
32050.0
30
0
11
25750.0
21
32050.0
31
0
0
LINE
8
equipment
10
25815.0
20
32300.0
30
0
11
25815.0
21
32380.0
31
0
0
LINE
8
equipment
10
25815.0
20
32380.0
30
0
11
25750.0
21
32380.0
31
0
0
LINE
8
equipment
10
25815.0
20
32300.0
30
0
11
25750.0
21
32300.0
31
0
0
LINE
8
equipment
10
25815.0
20
32550.0
30
0
11
25815.0
21
32630.0
31
0
0
LINE
8
equipment
10
25815.0
20
32630.0
30
0
11
25750.0
21
32630.0
31
0
0
LINE
8
equipment
10
25815.0
20
32550.0
30
0
11
25750.0
21
32550.0
31
0
0
LINE
8
equipment
10
25815.0
20
32800.0
30
0
11
25815.0
21
32880.0
31
0
0
LINE
8
equipment
10
25815.0
20
32880.0
30
0
11
25750.0
21
32880.0
31
0
0
LINE
8
equipment
10
25815.0
20
32800.0
30
0
11
25750.0
21
32800.0
31
0
0
LINE
8
equipment
10
21750.0
20
30630.0
30
0
11
21685.0
21
30630.0
31
0
0
LINE
8
equipment
10
21685.0
20
30550.0
30
0
11
21685.0
21
30630.0
31
0
0
LINE
8
equipment
10
21750.0
20
30550.0
30
0
11
21685.0
21
30550.0
31
0
0
LINE
8
equipment
10
21750.0
20
30880.0
30
0
11
21685.0
21
30880.0
31
0
0
LINE
8
equipment
10
21685.0
20
30800.0
30
0
11
21685.0
21
30880.0
31
0
0
LINE
8
equipment
10
21750.0
20
30800.0
30
0
11
21685.0
21
30800.0
31
0
0
LINE
8
equipment
10
21750.0
20
31130.0
30
0
11
21685.0
21
31130.0
31
0
0
LINE
8
equipment
10
21685.0
20
31050.0
30
0
11
21685.0
21
31130.0
31
0
0
LINE
8
equipment
10
21750.0
20
31050.0
30
0
11
21685.0
21
31050.0
31
0
0
LINE
8
equipment
10
21750.0
20
31380.0
30
0
11
21685.0
21
31380.0
31
0
0
LINE
8
equipment
10
21685.0
20
31300.0
30
0
11
21685.0
21
31380.0
31
0
0
LINE
8
equipment
10
21750.0
20
31300.0
30
0
11
21685.0
21
31300.0
31
0
0
LINE
8
equipment
10
21750.0
20
31630.0
30
0
11
21685.0
21
31630.0
31
0
0
LINE
8
equipment
10
21685.0
20
31550.0
30
0
11
21685.0
21
31630.0
31
0
0
LINE
8
equipment
10
21750.0
20
31550.0
30
0
11
21685.0
21
31550.0
31
0
0
LINE
8
equipment
10
21750.0
20
31880.0
30
0
11
21685.0
21
31880.0
31
0
0
LINE
8
equipment
10
21685.0
20
31800.0
30
0
11
21685.0
21
31880.0
31
0
0
LINE
8
equipment
10
21750.0
20
31800.0
30
0
11
21685.0
21
31800.0
31
0
0
LINE
8
equipment
10
21750.0
20
32130.0
30
0
11
21685.0
21
32130.0
31
0
0
LINE
8
equipment
10
21685.0
20
32050.0
30
0
11
21685.0
21
32130.0
31
0
0
LINE
8
equipment
10
21750.0
20
32050.0
30
0
11
21685.0
21
32050.0
31
0
0
LINE
8
equipment
10
21750.0
20
32380.0
30
0
11
21685.0
21
32380.0
31
0
0
LINE
8
equipment
10
21685.0
20
32300.0
30
0
11
21685.0
21
32380.0
31
0
0
LINE
8
equipment
10
21750.0
20
32300.0
30
0
11
21685.0
21
32300.0
31
0
0
LINE
8
equipment
10
21750.0
20
32630.0
30
0
11
21685.0
21
32630.0
31
0
0
LINE
8
equipment
10
21685.0
20
32550.0
30
0
11
21685.0
21
32630.0
31
0
0
LINE
8
equipment
10
21750.0
20
32550.0
30
0
11
21685.0
21
32550.0
31
0
0
LINE
8
equipment
10
21750.0
20
32880.0
30
0
11
21685.0
21
32880.0
31
0
0
LINE
8
equipment
10
21685.0
20
32800.0
30
0
11
21685.0
21
32880.0
31
0
0
LINE
8
equipment
10
21750.0
20
32800.0
30
0
11
21685.0
21
32800.0
31
0
0
LINE
8
grid
10
48390.0
20
14350.000000000004
30
0
11
50790.0
21
14350.000000000004
31
0
0
TEXT
8
annotation
10
49402.5
20
14530.000000000002
30
0
40
375.0
1
F0 +0.00m
50
0
0
LINE
8
grid
10
48390.0
20
21850.0
30
0
11
50790.0
21
21850.0
31
0
0
TEXT
8
annotation
10
49402.5
20
22029.999999999996
30
0
40
375.0
1
F1 +7.50m
50
0
0
LINE
8
grid
10
48390.0
20
29350.0
30
0
11
50790.0
21
29350.0
31
0
0
TEXT
8
annotation
10
49215.0
20
29530.0
30
0
40
375.0
1
RF +15.00m
50
0
0
LINE
8
dimension
10
13410.0
20
13100.000000000002
30
0
11
48090.0
21
13100.000000000002
31
0
0
LINE
8
dimension
10
13260.0
20
12950.000000000002
30
0
11
13560.0
21
13250.000000000002
31
0
0
LINE
8
dimension
10
47940.0
20
12950.000000000002
30
0
11
48240.0
21
13250.000000000002
31
0
0
TEXT
8
annotation
10
28275.0
20
13325.000000000002
30
0
40
450.0
1
34,680 mm shown extent
50
0
0
LINE
8
frame
10
2100
20
8850
30
0
11
60900
21
8850
31
0
0
TEXT
8
annotation
10
2100
20
7650
30
0
40
525.0
1
CONCEPT DESIGN | IMAGE-INFERRED | NOT FOR CONSTRUCTION
50
0
0
TEXT
8
annotation
10
2100
20
5700.0
30
0
40
397.5
1
Source: two campus AI images + fab1.jpg; official analogues documented in analysis/cad/.
50
0
0
TEXT
8
annotation
10
2100
20
5040.000000000004
30
0
40
397.5
1
CAD model in mm; site coordinates X east, Y north, Z up. Internal layouts and member sizes are design estimates.
50
0
0
TEXT
8
annotation
10
2100
20
4379.999999999998
30
0
40
397.5
1
Plans/sections are extracted from actual FreeCAD BRep. Elevations project component outlines; hidden edges omitted per component.
50
0
0
TEXT
8
annotation
10
2100
20
3720.000000000002
30
0
40
397.5
1
Civic wing roofs and skylight may differ from the nominal building height; inspect actual geometry and parameter aliases.
50
0
0
TEXT
8
annotation
10
2100
20
3059.9999999999964
30
0
40
397.5
1
No process certification, structural verification, measured survey, or construction approval is implied.
50
0
0
TEXT
8
annotation
10
53550.0
20
1650
30
0
40
420.0
1
2026-09-30  |  FreeCAD 1.1.4  |  mm
50
0
0
ENDSEC
0
EOF
