0
SECTION
2
HEADER
9
$ACADVER
1
AC1009
9
$INSUNITS
70
4
0
ENDSEC
0
SECTION
2
ENTITIES
0
LINE
8
frame
10
2100
20
87000
30
0
11
123900
21
87000
31
0
0
LINE
8
frame
10
123900
20
87000
30
0
11
123900
21
2100
31
0
0
LINE
8
frame
10
123900
20
2100
30
0
11
2100
21
2100
31
0
0
LINE
8
frame
10
2100
20
2100
30
0
11
2100
21
87000
31
0
0
TEXT
8
annotation
10
4200
20
83700
30
0
40
1260.0
1
PHOENIX SCIENCE PARK
50
0
0
TEXT
8
annotation
10
4200
20
81300
30
0
40
1500.0
1
DINING_E / Roof equipment plan
50
0
0
TEXT
8
annotation
10
116040.0
20
83700
30
0
40
960.0
1
A3  |  1:300
50
0
0
TEXT
8
annotation
10
111000.0
20
81300
30
0
40
900.0
1
CAD-DINING_E-ROOF  /  R1
50
0
0
LINE
8
frame
10
4200
20
79800
30
0
11
121800
21
79800
31
0
0
LINE
8
roof
10
31000.0
20
31600.000000000004
30
0
11
31000.0
21
65600.0
31
0
0
LINE
8
roof
10
92000.0
20
31600.000000000004
30
0
11
92000.0
21
65600.0
31
0
0
LINE
8
roof
10
31000.0
20
31600.000000000004
30
0
11
92000.0
21
31600.000000000004
31
0
0
LINE
8
roof
10
31000.0
20
65600.0
30
0
11
92000.0
21
65600.0
31
0
0
LINE
8
roof
10
26500.0
20
26600.000000000007
30
0
11
96500.0
21
26600.000000000007
31
0
0
LINE
8
roof
10
96500.0
20
26600.000000000007
30
0
11
82500.0
21
48600.0
31
0
0
LINE
8
roof
10
82500.0
20
48600.0
30
0
11
40500.0
21
48600.0
31
0
0
LINE
8
roof
10
40500.0
20
48600.0
30
0
11
26500.0
21
26600.000000000007
31
0
0
LINE
8
roof
10
96500.0
20
26600.000000000007
30
0
11
96500.0
21
70600.0
31
0
0
LINE
8
roof
10
96500.0
20
70600.0
30
0
11
82500.0
21
48600.0
31
0
0
LINE
8
roof
10
96500.0
20
70600.0
30
0
11
26500.0
21
70600.0
31
0
0
LINE
8
roof
10
26500.0
20
70600.0
30
0
11
40500.0
21
48600.0
31
0
0
LINE
8
roof
10
26500.0
20
70600.0
30
0
11
26500.0
21
26600.000000000007
31
0
0
LINE
8
circulation
10
32045.0
20
32599.999999999996
30
0
11
31977.5
21
32638.969999999994
31
0
0
LINE
8
circulation
10
31977.5
20
32638.969999999994
30
0
11
31977.5
21
32561.03
31
0
0
LINE
8
circulation
10
31977.5
20
32561.03
30
0
11
32045.0
21
32599.999999999996
31
0
0
LINE
8
circulation
10
37408.64
20
32599.999999999996
30
0
11
37341.14
21
32638.969999999994
31
0
0
LINE
8
circulation
10
37341.14
20
32638.969999999994
30
0
11
37341.14
21
32561.03
31
0
0
LINE
8
circulation
10
37341.14
20
32561.03
30
0
11
37408.64
21
32599.999999999996
31
0
0
LINE
8
circulation
10
42772.27
20
32599.999999999996
30
0
11
42704.77
21
32638.969999999994
31
0
0
LINE
8
circulation
10
42704.77
20
32638.969999999994
30
0
11
42704.77
21
32561.03
31
0
0
LINE
8
circulation
10
42704.77
20
32561.03
30
0
11
42772.27
21
32599.999999999996
31
0
0
LINE
8
circulation
10
48135.91
20
32599.999999999996
30
0
11
48068.41
21
32638.969999999994
31
0
0
LINE
8
circulation
10
48068.41
20
32638.969999999994
30
0
11
48068.41
21
32561.03
31
0
0
LINE
8
circulation
10
48068.41
20
32561.03
30
0
11
48135.91
21
32599.999999999996
31
0
0
LINE
8
circulation
10
53499.55
20
32599.999999999996
30
0
11
53432.049999999996
21
32638.969999999994
31
0
0
LINE
8
circulation
10
53432.049999999996
20
32638.969999999994
30
0
11
53432.049999999996
21
32561.03
31
0
0
LINE
8
circulation
10
53432.049999999996
20
32561.03
30
0
11
53499.55
21
32599.999999999996
31
0
0
LINE
8
circulation
10
58863.18
20
32599.999999999996
30
0
11
58795.68
21
32638.969999999994
31
0
0
LINE
8
circulation
10
58795.68
20
32638.969999999994
30
0
11
58795.68
21
32561.03
31
0
0
LINE
8
circulation
10
58795.68
20
32561.03
30
0
11
58863.18
21
32599.999999999996
31
0
0
LINE
8
circulation
10
64226.82000000001
20
32599.999999999996
30
0
11
64159.32
21
32638.969999999994
31
0
0
LINE
8
circulation
10
64159.32
20
32638.969999999994
30
0
11
64159.32
21
32561.03
31
0
0
LINE
8
circulation
10
64159.32
20
32561.03
30
0
11
64226.82000000001
21
32599.999999999996
31
0
0
LINE
8
circulation
10
69590.45
20
32599.999999999996
30
0
11
69522.95
21
32638.969999999994
31
0
0
LINE
8
circulation
10
69522.95
20
32638.969999999994
30
0
11
69522.95
21
32561.03
31
0
0
LINE
8
circulation
10
69522.95
20
32561.03
30
0
11
69590.45
21
32599.999999999996
31
0
0
LINE
8
circulation
10
74954.09
20
32599.999999999996
30
0
11
74886.59
21
32638.969999999994
31
0
0
LINE
8
circulation
10
74886.59
20
32638.969999999994
30
0
11
74886.59
21
32561.03
31
0
0
LINE
8
circulation
10
74886.59
20
32561.03
30
0
11
74954.09
21
32599.999999999996
31
0
0
LINE
8
circulation
10
80317.73000000001
20
32599.999999999996
30
0
11
80250.23
21
32638.969999999994
31
0
0
LINE
8
circulation
10
80250.23
20
32638.969999999994
30
0
11
80250.23
21
32561.03
31
0
0
LINE
8
circulation
10
80250.23
20
32561.03
30
0
11
80317.73000000001
21
32599.999999999996
31
0
0
LINE
8
circulation
10
85681.36
20
32599.999999999996
30
0
11
85613.86000000002
21
32638.969999999994
31
0
0
LINE
8
circulation
10
85613.86000000002
20
32638.969999999994
30
0
11
85613.86000000002
21
32561.03
31
0
0
LINE
8
circulation
10
85613.86000000002
20
32561.03
30
0
11
85681.36
21
32599.999999999996
31
0
0
LINE
8
circulation
10
91045.0
20
32599.999999999996
30
0
11
90977.5
21
32638.969999999994
31
0
0
LINE
8
circulation
10
90977.5
20
32638.969999999994
30
0
11
90977.5
21
32561.03
31
0
0
LINE
8
circulation
10
90977.5
20
32561.03
30
0
11
91045.0
21
32599.999999999996
31
0
0
LINE
8
circulation
10
32045.0
20
37933.33
30
0
11
31977.5
21
37972.299999999996
31
0
0
LINE
8
circulation
10
31977.5
20
37972.299999999996
30
0
11
31977.5
21
37894.36
31
0
0
LINE
8
circulation
10
31977.5
20
37894.36
30
0
11
32045.0
21
37933.33
31
0
0
LINE
8
circulation
10
32045.0
20
43266.670000000006
30
0
11
31977.5
21
43305.64
31
0
0
LINE
8
circulation
10
31977.5
20
43305.64
30
0
11
31977.5
21
43227.7
31
0
0
LINE
8
circulation
10
31977.5
20
43227.7
30
0
11
32045.0
21
43266.670000000006
31
0
0
LINE
8
circulation
10
32045.0
20
48600.0
30
0
11
31977.5
21
48638.97
31
0
0
LINE
8
circulation
10
31977.5
20
48638.97
30
0
11
31977.5
21
48561.03
31
0
0
LINE
8
circulation
10
31977.5
20
48561.03
30
0
11
32045.0
21
48600.0
31
0
0
LINE
8
circulation
10
32045.0
20
53933.329999999994
30
0
11
31977.5
21
53972.3
31
0
0
LINE
8
circulation
10
31977.5
20
53972.3
30
0
11
31977.5
21
53894.36
31
0
0
LINE
8
circulation
10
31977.5
20
53894.36
30
0
11
32045.0
21
53933.329999999994
31
0
0
LINE
8
circulation
10
32045.0
20
59266.67
30
0
11
31977.5
21
59305.64
31
0
0
LINE
8
circulation
10
31977.5
20
59305.64
30
0
11
31977.5
21
59227.700000000004
31
0
0
LINE
8
circulation
10
31977.5
20
59227.700000000004
30
0
11
32045.0
21
59266.67
31
0
0
LINE
8
circulation
10
32045.0
20
64600.0
30
0
11
31977.5
21
64638.97
31
0
0
LINE
8
circulation
10
31977.5
20
64638.97
30
0
11
31977.5
21
64561.030000000006
31
0
0
LINE
8
circulation
10
31977.5
20
64561.030000000006
30
0
11
32045.0
21
64600.0
31
0
0
LINE
8
circulation
10
37408.64
20
64600.0
30
0
11
37341.14
21
64638.97
31
0
0
LINE
8
circulation
10
37341.14
20
64638.97
30
0
11
37341.14
21
64561.030000000006
31
0
0
LINE
8
circulation
10
37341.14
20
64561.030000000006
30
0
11
37408.64
21
64600.0
31
0
0
LINE
8
circulation
10
42772.27
20
64600.0
30
0
11
42704.77
21
64638.97
31
0
0
LINE
8
circulation
10
42704.77
20
64638.97
30
0
11
42704.77
21
64561.030000000006
31
0
0
LINE
8
circulation
10
42704.77
20
64561.030000000006
30
0
11
42772.27
21
64600.0
31
0
0
LINE
8
circulation
10
48135.91
20
64600.0
30
0
11
48068.41
21
64638.97
31
0
0
LINE
8
circulation
10
48068.41
20
64638.97
30
0
11
48068.41
21
64561.030000000006
31
0
0
LINE
8
circulation
10
48068.41
20
64561.030000000006
30
0
11
48135.91
21
64600.0
31
0
0
LINE
8
circulation
10
53499.55
20
64600.0
30
0
11
53432.049999999996
21
64638.97
31
0
0
LINE
8
circulation
10
53432.049999999996
20
64638.97
30
0
11
53432.049999999996
21
64561.030000000006
31
0
0
LINE
8
circulation
10
53432.049999999996
20
64561.030000000006
30
0
11
53499.55
21
64600.0
31
0
0
LINE
8
circulation
10
58863.18
20
64600.0
30
0
11
58795.68
21
64638.97
31
0
0
LINE
8
circulation
10
58795.68
20
64638.97
30
0
11
58795.68
21
64561.030000000006
31
0
0
LINE
8
circulation
10
58795.68
20
64561.030000000006
30
0
11
58863.18
21
64600.0
31
0
0
LINE
8
circulation
10
64226.82000000001
20
64600.0
30
0
11
64159.32
21
64638.97
31
0
0
LINE
8
circulation
10
64159.32
20
64638.97
30
0
11
64159.32
21
64561.030000000006
31
0
0
LINE
8
circulation
10
64159.32
20
64561.030000000006
30
0
11
64226.82000000001
21
64600.0
31
0
0
LINE
8
circulation
10
69590.45
20
64600.0
30
0
11
69522.95
21
64638.97
31
0
0
LINE
8
circulation
10
69522.95
20
64638.97
30
0
11
69522.95
21
64561.030000000006
31
0
0
LINE
8
circulation
10
69522.95
20
64561.030000000006
30
0
11
69590.45
21
64600.0
31
0
0
LINE
8
circulation
10
74954.09
20
64600.0
30
0
11
74886.59
21
64638.97
31
0
0
LINE
8
circulation
10
74886.59
20
64638.97
30
0
11
74886.59
21
64561.030000000006
31
0
0
LINE
8
circulation
10
74886.59
20
64561.030000000006
30
0
11
74954.09
21
64600.0
31
0
0
LINE
8
circulation
10
80317.73000000001
20
64600.0
30
0
11
80250.23
21
64638.97
31
0
0
LINE
8
circulation
10
80250.23
20
64638.97
30
0
11
80250.23
21
64561.030000000006
31
0
0
LINE
8
circulation
10
80250.23
20
64561.030000000006
30
0
11
80317.73000000001
21
64600.0
31
0
0
LINE
8
circulation
10
85681.36
20
64600.0
30
0
11
85613.86000000002
21
64638.97
31
0
0
LINE
8
circulation
10
85613.86000000002
20
64638.97
30
0
11
85613.86000000002
21
64561.030000000006
31
0
0
LINE
8
circulation
10
85613.86000000002
20
64561.030000000006
30
0
11
85681.36
21
64600.0
31
0
0
LINE
8
circulation
10
91045.0
20
64600.0
30
0
11
90977.5
21
64638.97
31
0
0
LINE
8
circulation
10
90977.5
20
64638.97
30
0
11
90977.5
21
64561.030000000006
31
0
0
LINE
8
circulation
10
90977.5
20
64561.030000000006
30
0
11
91045.0
21
64600.0
31
0
0
LINE
8
circulation
10
91045.0
20
37933.33
30
0
11
90977.5
21
37972.299999999996
31
0
0
LINE
8
circulation
10
90977.5
20
37972.299999999996
30
0
11
90977.5
21
37894.36
31
0
0
LINE
8
circulation
10
90977.5
20
37894.36
30
0
11
91045.0
21
37933.33
31
0
0
LINE
8
circulation
10
91045.0
20
43266.670000000006
30
0
11
90977.5
21
43305.64
31
0
0
LINE
8
circulation
10
90977.5
20
43305.64
30
0
11
90977.5
21
43227.7
31
0
0
LINE
8
circulation
10
90977.5
20
43227.7
30
0
11
91045.0
21
43266.670000000006
31
0
0
LINE
8
circulation
10
91045.0
20
48600.0
30
0
11
90977.5
21
48638.97
31
0
0
LINE
8
circulation
10
90977.5
20
48638.97
30
0
11
90977.5
21
48561.03
31
0
0
LINE
8
circulation
10
90977.5
20
48561.03
30
0
11
91045.0
21
48600.0
31
0
0
LINE
8
circulation
10
91045.0
20
53933.329999999994
30
0
11
90977.5
21
53972.3
31
0
0
LINE
8
circulation
10
90977.5
20
53972.3
30
0
11
90977.5
21
53894.36
31
0
0
LINE
8
circulation
10
90977.5
20
53894.36
30
0
11
91045.0
21
53933.329999999994
31
0
0
LINE
8
circulation
10
91045.0
20
59266.67
30
0
11
90977.5
21
59305.64
31
0
0
LINE
8
circulation
10
90977.5
20
59305.64
30
0
11
90977.5
21
59227.700000000004
31
0
0
LINE
8
circulation
10
90977.5
20
59227.700000000004
30
0
11
91045.0
21
59266.67
31
0
0
LINE
8
datum
10
31000.0
20
31600.000000000004
30
0
11
92000.0
21
31600.000000000004
31
0
0
LINE
8
datum
10
92000.0
20
31600.000000000004
30
0
11
92000.0
21
65600.0
31
0
0
LINE
8
datum
10
92000.0
20
65600.0
30
0
11
31000.0
21
65600.0
31
0
0
LINE
8
datum
10
31000.0
20
65600.0
30
0
11
31000.0
21
31600.000000000004
31
0
0
LINE
8
grid
10
32500.0
20
29100.0
30
0
11
32500.0
21
70100.0
31
0
0
TEXT
8
annotation
10
32312.5
20
70700.0
30
0
40
750.0
1
1
50
0
0
LINE
8
grid
10
44100.0
20
29100.0
30
0
11
44100.0
21
70100.0
31
0
0
TEXT
8
annotation
10
43912.5
20
70700.0
30
0
40
750.0
1
2
50
0
0
LINE
8
grid
10
55700.0
20
29100.0
30
0
11
55700.0
21
70100.0
31
0
0
TEXT
8
annotation
10
55512.5
20
70700.0
30
0
40
750.0
1
3
50
0
0
LINE
8
grid
10
67300.0
20
29100.0
30
0
11
67300.0
21
70100.0
31
0
0
TEXT
8
annotation
10
67112.5
20
70700.0
30
0
40
750.0
1
4
50
0
0
LINE
8
grid
10
78900.0
20
29100.0
30
0
11
78900.0
21
70100.0
31
0
0
TEXT
8
annotation
10
78712.5
20
70700.0
30
0
40
750.0
1
5
50
0
0
LINE
8
grid
10
90500.0
20
29100.0
30
0
11
90500.0
21
70100.0
31
0
0
TEXT
8
annotation
10
90312.5
20
70700.0
30
0
40
750.0
1
6
50
0
0
LINE
8
grid
10
27000.0
20
33100.0
30
0
11
96000.0
21
33100.0
31
0
0
TEXT
8
annotation
10
26025.0
20
32800.0
30
0
40
750.0
1
A
50
0
0
LINE
8
grid
10
27000.0
20
48600.0
30
0
11
96000.0
21
48600.0
31
0
0
TEXT
8
annotation
10
26025.0
20
48300.0
30
0
40
750.0
1
B
50
0
0
LINE
8
grid
10
27000.0
20
64100.0
30
0
11
96000.0
21
64100.0
31
0
0
TEXT
8
annotation
10
26025.0
20
63800.0
30
0
40
750.0
1
C
50
0
0
LINE
8
dimension
10
31000.0
20
28000.000000000004
30
0
11
92000.0
21
28000.000000000004
31
0
0
LINE
8
dimension
10
30700.0
20
27700.000000000004
30
0
11
31300.0
21
28300.000000000004
31
0
0
LINE
8
dimension
10
91700.0
20
27700.000000000004
30
0
11
92300.0
21
28300.000000000004
31
0
0
TEXT
8
annotation
10
57675.0
20
28450.000000000004
30
0
40
900.0
1
61,000 mm overall
50
0
0
LINE
8
dimension
10
95300.0
20
65600.0
30
0
11
95300.0
21
31600.000000000004
31
0
0
TEXT
8
annotation
10
96200.0
20
48600.0
30
0
40
900.0
1
34,000
50
0
0
TEXT
8
annotation
10
114300.0
20
75600
30
0
40
1200.0
1
N
50
0
0
LINE
8
annotation
10
114600
20
74700
30
0
11
113700
21
72000
31
0
0
LINE
8
annotation
10
113700
20
72000
30
0
11
114600
21
72900
31
0
0
LINE
8
annotation
10
114600
20
72900
30
0
11
115500
21
72000
31
0
0
LINE
8
annotation
10
115500
20
72000
30
0
11
114600
21
74700
31
0
0
LINE
8
frame
10
4200
20
17700
30
0
11
121800
21
17700
31
0
0
TEXT
8
annotation
10
4200
20
15300
30
0
40
1050.0
1
CONCEPT DESIGN | IMAGE-INFERRED | NOT FOR CONSTRUCTION
50
0
0
TEXT
8
annotation
10
4200
20
11400.0
30
0
40
795.0
1
Source: two campus AI images + fab1.jpg; official analogues documented in analysis/cad/.
50
0
0
TEXT
8
annotation
10
4200
20
10080.000000000007
30
0
40
795.0
1
CAD model in mm; site coordinates X east, Y north, Z up. Internal layouts and member sizes are design estimates.
50
0
0
TEXT
8
annotation
10
4200
20
8759.999999999996
30
0
40
795.0
1
Plans/sections are extracted from actual FreeCAD BRep. Elevations project component outlines; hidden edges omitted per component.
50
0
0
TEXT
8
annotation
10
4200
20
7440.000000000004
30
0
40
795.0
1
Civic wing roofs and skylight may differ from the nominal building height; inspect actual geometry and parameter aliases.
50
0
0
TEXT
8
annotation
10
4200
20
6119.999999999993
30
0
40
795.0
1
No process certification, structural verification, measured survey, or construction approval is implied.
50
0
0
TEXT
8
annotation
10
107100.0
20
3300
30
0
40
840.0
1
2026-09-30  |  FreeCAD 1.1.4  |  mm
50
0
0
ENDSEC
0
EOF
