0
SECTION
2
HEADER
9
$ACADVER
1
AC1009
9
$INSUNITS
70
4
0
ENDSEC
0
SECTION
2
ENTITIES
0
LINE
8
frame
10
1050
20
43500
30
0
11
61950
21
43500
31
0
0
LINE
8
frame
10
61950
20
43500
30
0
11
61950
21
1050
31
0
0
LINE
8
frame
10
61950
20
1050
30
0
11
1050
21
1050
31
0
0
LINE
8
frame
10
1050
20
1050
30
0
11
1050
21
43500
31
0
0
TEXT
8
annotation
10
2100
20
41850
30
0
40
630.0
1
PHOENIX SCIENCE PARK
50
0
0
TEXT
8
annotation
10
2100
20
40650
30
0
40
750.0
1
DINING_E / East elevation
50
0
0
TEXT
8
annotation
10
58020.0
20
41850
30
0
40
480.0
1
A3  |  1:150
50
0
0
TEXT
8
annotation
10
55500.0
20
40650
30
0
40
450.0
1
CAD-DINING_E-EAST  /  R1
50
0
0
LINE
8
frame
10
2100
20
39900
30
0
11
60900
21
39900
31
0
0
LINE
8
roof
10
47750.0
20
26599.999999999996
30
0
11
47750.0
21
27000.0
31
0
0
LINE
8
roof
10
47750.0
20
27000.0
30
0
11
13750.0
21
27000.0
31
0
0
LINE
8
roof
10
13750.0
20
26599.999999999996
30
0
11
13750.0
21
27000.0
31
0
0
LINE
8
roof
10
47750.0
20
26599.999999999996
30
0
11
13750.0
21
26599.999999999996
31
0
0
LINE
8
glazing
10
47810.0
20
13999.999999999996
30
0
11
47810.0
21
26400.0
31
0
0
LINE
8
glazing
10
47810.0
20
26400.0
30
0
11
47690.0
21
26400.0
31
0
0
LINE
8
glazing
10
47690.0
20
13999.999999999996
30
0
11
47690.0
21
26400.0
31
0
0
LINE
8
glazing
10
47810.0
20
13999.999999999996
30
0
11
47690.0
21
13999.999999999996
31
0
0
LINE
8
envelope
10
48090.0
20
13999.999999999996
30
0
11
48090.0
21
26599.999999999996
31
0
0
LINE
8
envelope
10
48090.0
20
26599.999999999996
30
0
11
47770.00000000001
21
26599.999999999996
31
0
0
LINE
8
envelope
10
47770.00000000001
20
13999.999999999996
30
0
11
47770.00000000001
21
26599.999999999996
31
0
0
LINE
8
envelope
10
48090.0
20
13999.999999999996
30
0
11
47770.00000000001
21
13999.999999999996
31
0
0
LINE
8
envelope
10
48090.0
20
26599.999999999996
30
0
11
48090.0
21
26739.999999999996
31
0
0
LINE
8
envelope
10
48090.0
20
26739.999999999996
30
0
11
47770.00000000001
21
26739.999999999996
31
0
0
LINE
8
envelope
10
47770.00000000001
20
26599.999999999996
30
0
11
47770.00000000001
21
26739.999999999996
31
0
0
LINE
8
envelope
10
47750.0
20
13999.999999999996
30
0
11
47750.0
21
26599.999999999996
31
0
0
LINE
8
envelope
10
13750.0
20
13999.999999999996
30
0
11
13750.0
21
26599.999999999996
31
0
0
LINE
8
envelope
10
47750.0
20
13999.999999999996
30
0
11
13750.0
21
13999.999999999996
31
0
0
LINE
8
glazing
10
13810.0
20
13999.999999999996
30
0
11
13810.0
21
26400.0
31
0
0
LINE
8
glazing
10
13810.0
20
26400.0
30
0
11
13690.0
21
26400.0
31
0
0
LINE
8
glazing
10
13690.0
20
13999.999999999996
30
0
11
13690.0
21
26400.0
31
0
0
LINE
8
glazing
10
13810.0
20
13999.999999999996
30
0
11
13690.0
21
13999.999999999996
31
0
0
LINE
8
envelope
10
13730.0
20
13999.999999999996
30
0
11
13730.0
21
26599.999999999996
31
0
0
LINE
8
envelope
10
13730.0
20
26599.999999999996
30
0
11
13410.0
21
26599.999999999996
31
0
0
LINE
8
envelope
10
13410.0
20
13999.999999999996
30
0
11
13410.0
21
26599.999999999996
31
0
0
LINE
8
envelope
10
13730.0
20
13999.999999999996
30
0
11
13410.0
21
13999.999999999996
31
0
0
LINE
8
envelope
10
13730.0
20
26599.999999999996
30
0
11
13730.0
21
26739.999999999996
31
0
0
LINE
8
envelope
10
13730.0
20
26739.999999999996
30
0
11
13410.0
21
26739.999999999996
31
0
0
LINE
8
envelope
10
13410.0
20
26599.999999999996
30
0
11
13410.0
21
26739.999999999996
31
0
0
LINE
8
roof
10
52749.99999999999
20
26599.999999999996
30
0
11
52749.99999999999
21
26420.0
31
0
0
LINE
8
roof
10
52749.99999999999
20
26599.999999999996
30
0
11
30750.0
21
34600.0
31
0
0
LINE
8
roof
10
8750.000000000002
20
26599.999999999996
30
0
11
8750.000000000002
21
26420.0
31
0
0
LINE
8
roof
10
52749.99999999999
20
26599.999999999996
30
0
11
8750.000000000002
21
26599.999999999996
31
0
0
LINE
8
roof
10
52749.99999999999
20
26420.0
30
0
11
8750.000000000002
21
26420.0
31
0
0
LINE
8
roof
10
8750.000000000002
20
26599.999999999996
30
0
11
30750.0
21
34600.0
31
0
0
LINE
8
grid
10
53049.99999999999
20
13600.000000000004
30
0
11
55449.99999999999
21
13600.000000000004
31
0
0
TEXT
8
annotation
10
54062.49999999999
20
13780.000000000002
30
0
40
375.0
1
F0 +0.00m
50
0
0
LINE
8
grid
10
53049.99999999999
20
20100.0
30
0
11
55449.99999999999
21
20100.0
31
0
0
TEXT
8
annotation
10
54062.49999999999
20
20280.0
30
0
40
375.0
1
F1 +6.50m
50
0
0
LINE
8
grid
10
53049.99999999999
20
26599.999999999996
30
0
11
55449.99999999999
21
26599.999999999996
31
0
0
TEXT
8
annotation
10
53499.99999999999
20
26780.0
30
0
40
375.0
1
EAVE +13.00m
50
0
0
LINE
8
grid
10
53049.99999999999
20
34600.0
30
0
11
55449.99999999999
21
34600.0
31
0
0
TEXT
8
annotation
10
53312.49999999999
20
34780.0
30
0
40
375.0
1
RIDGE +21.00m
50
0
0
LINE
8
dimension
10
8750.000000000002
20
12349.999999999996
30
0
11
52749.99999999999
21
12349.999999999996
31
0
0
LINE
8
dimension
10
8600.000000000002
20
12199.999999999996
30
0
11
8900.000000000002
21
12499.999999999996
31
0
0
LINE
8
dimension
10
52599.99999999999
20
12199.999999999996
30
0
11
52899.99999999999
21
12499.999999999996
31
0
0
TEXT
8
annotation
10
28275.0
20
12574.999999999996
30
0
40
450.0
1
44,000 mm shown extent
50
0
0
LINE
8
frame
10
2100
20
8850
30
0
11
60900
21
8850
31
0
0
TEXT
8
annotation
10
2100
20
7650
30
0
40
525.0
1
CONCEPT DESIGN | IMAGE-INFERRED | NOT FOR CONSTRUCTION
50
0
0
TEXT
8
annotation
10
2100
20
5700.0
30
0
40
397.5
1
Source: two campus AI images + fab1.jpg; official analogues documented in analysis/cad/.
50
0
0
TEXT
8
annotation
10
2100
20
5040.000000000004
30
0
40
397.5
1
CAD model in mm; site coordinates X east, Y north, Z up. Internal layouts and member sizes are design estimates.
50
0
0
TEXT
8
annotation
10
2100
20
4379.999999999998
30
0
40
397.5
1
Plans/sections are extracted from actual FreeCAD BRep. Elevations project component outlines; hidden edges omitted per component.
50
0
0
TEXT
8
annotation
10
2100
20
3720.000000000002
30
0
40
397.5
1
Civic wing roofs and skylight may differ from the nominal building height; inspect actual geometry and parameter aliases.
50
0
0
TEXT
8
annotation
10
2100
20
3059.9999999999964
30
0
40
397.5
1
No process certification, structural verification, measured survey, or construction approval is implied.
50
0
0
TEXT
8
annotation
10
53550.0
20
1650
30
0
40
420.0
1
2026-09-30  |  FreeCAD 1.1.4  |  mm
50
0
0
ENDSEC
0
EOF
