0
SECTION
2
HEADER
9
$ACADVER
1
AC1009
9
$INSUNITS
70
4
0
ENDSEC
0
SECTION
2
ENTITIES
0
LINE
8
frame
10
1750
20
72500
30
0
11
103250
21
72500
31
0
0
LINE
8
frame
10
103250
20
72500
30
0
11
103250
21
1750
31
0
0
LINE
8
frame
10
103250
20
1750
30
0
11
1750
21
1750
31
0
0
LINE
8
frame
10
1750
20
1750
30
0
11
1750
21
72500
31
0
0
TEXT
8
annotation
10
3500
20
69750
30
0
40
1050.0
1
PHOENIX SCIENCE PARK
50
0
0
TEXT
8
annotation
10
3500
20
67750
30
0
40
1250.0
1
DINING_E / North elevation
50
0
0
TEXT
8
annotation
10
96700.0
20
69750
30
0
40
800.0
1
A3  |  1:250
50
0
0
TEXT
8
annotation
10
92125.0
20
67750
30
0
40
750.0
1
CAD-DINING_E-NORTH  /  R1
50
0
0
LINE
8
frame
10
3500
20
66500
30
0
11
101500
21
66500
31
0
0
LINE
8
roof
10
81750.0
20
42800.0
30
0
11
81750.0
21
43200.0
31
0
0
LINE
8
roof
10
20750.0
20
42800.0
30
0
11
20750.0
21
43200.0
31
0
0
LINE
8
roof
10
81750.0
20
42800.0
30
0
11
20750.0
21
42800.0
31
0
0
LINE
8
roof
10
81750.0
20
43200.0
30
0
11
20750.0
21
43200.0
31
0
0
LINE
8
glazing
10
81670.0
20
30200.000000000004
30
0
11
81670.0
21
42600.0
31
0
0
LINE
8
glazing
10
78441.11000000002
20
30200.000000000004
30
0
11
78441.11000000002
21
42600.0
31
0
0
LINE
8
glazing
10
81670.0
20
30200.000000000004
30
0
11
78441.11000000002
21
30200.000000000004
31
0
0
LINE
8
glazing
10
81670.0
20
42600.0
30
0
11
78441.11000000002
21
42600.0
31
0
0
LINE
8
glazing
10
78281.11
20
30200.000000000004
30
0
11
78281.11
21
42600.0
31
0
0
LINE
8
glazing
10
75052.22
20
30200.000000000004
30
0
11
75052.22
21
42600.0
31
0
0
LINE
8
glazing
10
78281.11
20
30200.000000000004
30
0
11
75052.22
21
30200.000000000004
31
0
0
LINE
8
glazing
10
78281.11
20
42600.0
30
0
11
75052.22
21
42600.0
31
0
0
LINE
8
glazing
10
74892.22000000002
20
30200.000000000004
30
0
11
74892.22000000002
21
42600.0
31
0
0
LINE
8
glazing
10
71663.33
20
30200.000000000004
30
0
11
71663.33
21
42600.0
31
0
0
LINE
8
glazing
10
74892.22000000002
20
30200.000000000004
30
0
11
71663.33
21
30200.000000000004
31
0
0
LINE
8
glazing
10
74892.22000000002
20
42600.0
30
0
11
71663.33
21
42600.0
31
0
0
LINE
8
glazing
10
71503.33
20
30200.000000000004
30
0
11
71503.33
21
42600.0
31
0
0
LINE
8
glazing
10
68274.44
20
30200.000000000004
30
0
11
68274.44
21
42600.0
31
0
0
LINE
8
glazing
10
71503.33
20
30200.000000000004
30
0
11
68274.44
21
30200.000000000004
31
0
0
LINE
8
glazing
10
71503.33
20
42600.0
30
0
11
68274.44
21
42600.0
31
0
0
LINE
8
glazing
10
68114.44
20
30200.000000000004
30
0
11
68114.44
21
42600.0
31
0
0
LINE
8
glazing
10
64885.56
20
30200.000000000004
30
0
11
64885.56
21
42600.0
31
0
0
LINE
8
glazing
10
68114.44
20
30200.000000000004
30
0
11
64885.56
21
30200.000000000004
31
0
0
LINE
8
glazing
10
68114.44
20
42600.0
30
0
11
64885.56
21
42600.0
31
0
0
LINE
8
glazing
10
64725.560000000005
20
30200.000000000004
30
0
11
64725.560000000005
21
42600.0
31
0
0
LINE
8
glazing
10
61496.67
20
30200.000000000004
30
0
11
61496.67
21
42600.0
31
0
0
LINE
8
glazing
10
64725.560000000005
20
30200.000000000004
30
0
11
61496.67
21
30200.000000000004
31
0
0
LINE
8
glazing
10
64725.560000000005
20
42600.0
30
0
11
61496.67
21
42600.0
31
0
0
LINE
8
glazing
10
61336.67
20
30200.000000000004
30
0
11
61336.67
21
42600.0
31
0
0
LINE
8
glazing
10
58107.78
20
30200.000000000004
30
0
11
58107.78
21
42600.0
31
0
0
LINE
8
glazing
10
61336.67
20
30200.000000000004
30
0
11
58107.78
21
30200.000000000004
31
0
0
LINE
8
glazing
10
61336.67
20
42600.0
30
0
11
58107.78
21
42600.0
31
0
0
LINE
8
glazing
10
57947.78
20
30200.000000000004
30
0
11
57947.78
21
42600.0
31
0
0
LINE
8
glazing
10
54718.89
20
30200.000000000004
30
0
11
54718.89
21
42600.0
31
0
0
LINE
8
glazing
10
57947.78
20
30200.000000000004
30
0
11
54718.89
21
30200.000000000004
31
0
0
LINE
8
glazing
10
57947.78
20
42600.0
30
0
11
54718.89
21
42600.0
31
0
0
LINE
8
glazing
10
54558.89
20
30200.000000000004
30
0
11
54558.89
21
42600.0
31
0
0
LINE
8
glazing
10
51330.0
20
30200.000000000004
30
0
11
51330.0
21
42600.0
31
0
0
LINE
8
glazing
10
54558.89
20
30200.000000000004
30
0
11
51330.0
21
30200.000000000004
31
0
0
LINE
8
glazing
10
54558.89
20
42600.0
30
0
11
51330.0
21
42600.0
31
0
0
LINE
8
glazing
10
51170.0
20
30200.000000000004
30
0
11
51170.0
21
42600.0
31
0
0
LINE
8
glazing
10
47941.11
20
30200.000000000004
30
0
11
47941.11
21
42600.0
31
0
0
LINE
8
glazing
10
51170.0
20
30200.000000000004
30
0
11
47941.11
21
30200.000000000004
31
0
0
LINE
8
glazing
10
51170.0
20
42600.0
30
0
11
47941.11
21
42600.0
31
0
0
LINE
8
glazing
10
47781.11
20
30200.000000000004
30
0
11
47781.11
21
42600.0
31
0
0
LINE
8
glazing
10
44552.22
20
30200.000000000004
30
0
11
44552.22
21
42600.0
31
0
0
LINE
8
glazing
10
47781.11
20
30200.000000000004
30
0
11
44552.22
21
30200.000000000004
31
0
0
LINE
8
glazing
10
47781.11
20
42600.0
30
0
11
44552.22
21
42600.0
31
0
0
LINE
8
glazing
10
44392.22
20
30200.000000000004
30
0
11
44392.22
21
42600.0
31
0
0
LINE
8
glazing
10
41163.33
20
30200.000000000004
30
0
11
41163.33
21
42600.0
31
0
0
LINE
8
glazing
10
44392.22
20
30200.000000000004
30
0
11
41163.33
21
30200.000000000004
31
0
0
LINE
8
glazing
10
44392.22
20
42600.0
30
0
11
41163.33
21
42600.0
31
0
0
LINE
8
glazing
10
41003.33
20
30200.000000000004
30
0
11
41003.33
21
42600.0
31
0
0
LINE
8
glazing
10
37774.439999999995
20
30200.000000000004
30
0
11
37774.439999999995
21
42600.0
31
0
0
LINE
8
glazing
10
41003.33
20
30200.000000000004
30
0
11
37774.439999999995
21
30200.000000000004
31
0
0
LINE
8
glazing
10
41003.33
20
42600.0
30
0
11
37774.439999999995
21
42600.0
31
0
0
LINE
8
glazing
10
37614.44
20
30200.000000000004
30
0
11
37614.44
21
42600.0
31
0
0
LINE
8
glazing
10
34385.56
20
30200.000000000004
30
0
11
34385.56
21
42600.0
31
0
0
LINE
8
glazing
10
37614.44
20
30200.000000000004
30
0
11
34385.56
21
30200.000000000004
31
0
0
LINE
8
glazing
10
37614.44
20
42600.0
30
0
11
34385.56
21
42600.0
31
0
0
LINE
8
glazing
10
34225.560000000005
20
30200.000000000004
30
0
11
34225.560000000005
21
42600.0
31
0
0
LINE
8
glazing
10
30996.67
20
30200.000000000004
30
0
11
30996.67
21
42600.0
31
0
0
LINE
8
glazing
10
34225.560000000005
20
30200.000000000004
30
0
11
30996.67
21
30200.000000000004
31
0
0
LINE
8
glazing
10
34225.560000000005
20
42600.0
30
0
11
30996.67
21
42600.0
31
0
0
LINE
8
glazing
10
30836.67
20
30200.000000000004
30
0
11
30836.67
21
42600.0
31
0
0
LINE
8
glazing
10
27607.78
20
30200.000000000004
30
0
11
27607.78
21
42600.0
31
0
0
LINE
8
glazing
10
30836.67
20
30200.000000000004
30
0
11
27607.78
21
30200.000000000004
31
0
0
LINE
8
glazing
10
30836.67
20
42600.0
30
0
11
27607.78
21
42600.0
31
0
0
LINE
8
glazing
10
27447.78
20
30200.000000000004
30
0
11
27447.78
21
42600.0
31
0
0
LINE
8
glazing
10
24218.89
20
30200.000000000004
30
0
11
24218.89
21
42600.0
31
0
0
LINE
8
glazing
10
27447.78
20
30200.000000000004
30
0
11
24218.89
21
30200.000000000004
31
0
0
LINE
8
glazing
10
27447.78
20
42600.0
30
0
11
24218.89
21
42600.0
31
0
0
LINE
8
glazing
10
24058.89
20
30200.000000000004
30
0
11
24058.89
21
42600.0
31
0
0
LINE
8
glazing
10
20830.0
20
30200.000000000004
30
0
11
20830.0
21
42600.0
31
0
0
LINE
8
glazing
10
24058.89
20
30200.000000000004
30
0
11
20830.0
21
30200.000000000004
31
0
0
LINE
8
glazing
10
24058.89
20
42600.0
30
0
11
20830.0
21
42600.0
31
0
0
LINE
8
envelope
10
81810.0
20
30200.000000000004
30
0
11
81810.0
21
42800.0
31
0
0
LINE
8
envelope
10
81690.0
20
30200.000000000004
30
0
11
81690.0
21
42800.0
31
0
0
LINE
8
envelope
10
81810.0
20
30200.000000000004
30
0
11
81690.0
21
30200.000000000004
31
0
0
LINE
8
envelope
10
81810.0
20
42800.0
30
0
11
81690.0
21
42800.0
31
0
0
LINE
8
envelope
10
78421.11
20
30200.000000000004
30
0
11
78421.11
21
42800.0
31
0
0
LINE
8
envelope
10
78301.11
20
30200.000000000004
30
0
11
78301.11
21
42800.0
31
0
0
LINE
8
envelope
10
78421.11
20
30200.000000000004
30
0
11
78301.11
21
30200.000000000004
31
0
0
LINE
8
envelope
10
78421.11
20
42800.0
30
0
11
78301.11
21
42800.0
31
0
0
LINE
8
envelope
10
75032.22
20
30200.000000000004
30
0
11
75032.22
21
42800.0
31
0
0
LINE
8
envelope
10
74912.22
20
30200.000000000004
30
0
11
74912.22
21
42800.0
31
0
0
LINE
8
envelope
10
75032.22
20
30200.000000000004
30
0
11
74912.22
21
30200.000000000004
31
0
0
LINE
8
envelope
10
75032.22
20
42800.0
30
0
11
74912.22
21
42800.0
31
0
0
LINE
8
envelope
10
71643.33
20
30200.000000000004
30
0
11
71643.33
21
42800.0
31
0
0
LINE
8
envelope
10
71523.33
20
30200.000000000004
30
0
11
71523.33
21
42800.0
31
0
0
LINE
8
envelope
10
71643.33
20
30200.000000000004
30
0
11
71523.33
21
30200.000000000004
31
0
0
LINE
8
envelope
10
71643.33
20
42800.0
30
0
11
71523.33
21
42800.0
31
0
0
LINE
8
envelope
10
68254.44
20
30200.000000000004
30
0
11
68254.44
21
42800.0
31
0
0
LINE
8
envelope
10
68134.44
20
30200.000000000004
30
0
11
68134.44
21
42800.0
31
0
0
LINE
8
envelope
10
68254.44
20
30200.000000000004
30
0
11
68134.44
21
30200.000000000004
31
0
0
LINE
8
envelope
10
68254.44
20
42800.0
30
0
11
68134.44
21
42800.0
31
0
0
LINE
8
envelope
10
64865.560000000005
20
30200.000000000004
30
0
11
64865.560000000005
21
42800.0
31
0
0
LINE
8
envelope
10
64745.56
20
30200.000000000004
30
0
11
64745.56
21
42800.0
31
0
0
LINE
8
envelope
10
64865.560000000005
20
30200.000000000004
30
0
11
64745.56
21
30200.000000000004
31
0
0
LINE
8
envelope
10
64865.560000000005
20
42800.0
30
0
11
64745.56
21
42800.0
31
0
0
LINE
8
envelope
10
61476.67
20
30200.000000000004
30
0
11
61476.67
21
42800.0
31
0
0
LINE
8
envelope
10
61356.67
20
30200.000000000004
30
0
11
61356.67
21
42800.0
31
0
0
LINE
8
envelope
10
61476.67
20
30200.000000000004
30
0
11
61356.67
21
30200.000000000004
31
0
0
LINE
8
envelope
10
61476.67
20
42800.0
30
0
11
61356.67
21
42800.0
31
0
0
LINE
8
envelope
10
58087.78
20
30200.000000000004
30
0
11
58087.78
21
42800.0
31
0
0
LINE
8
envelope
10
57967.78
20
30200.000000000004
30
0
11
57967.78
21
42800.0
31
0
0
LINE
8
envelope
10
58087.78
20
30200.000000000004
30
0
11
57967.78
21
30200.000000000004
31
0
0
LINE
8
envelope
10
58087.78
20
42800.0
30
0
11
57967.78
21
42800.0
31
0
0
LINE
8
envelope
10
54698.89
20
30200.000000000004
30
0
11
54698.89
21
42800.0
31
0
0
LINE
8
envelope
10
54578.89
20
30200.000000000004
30
0
11
54578.89
21
42800.0
31
0
0
LINE
8
envelope
10
54698.89
20
30200.000000000004
30
0
11
54578.89
21
30200.000000000004
31
0
0
LINE
8
envelope
10
54698.89
20
42800.0
30
0
11
54578.89
21
42800.0
31
0
0
LINE
8
envelope
10
51310.0
20
30200.000000000004
30
0
11
51310.0
21
42800.0
31
0
0
LINE
8
envelope
10
51190.0
20
30200.000000000004
30
0
11
51190.0
21
42800.0
31
0
0
LINE
8
envelope
10
51310.0
20
30200.000000000004
30
0
11
51190.0
21
30200.000000000004
31
0
0
LINE
8
envelope
10
51310.0
20
42800.0
30
0
11
51190.0
21
42800.0
31
0
0
LINE
8
envelope
10
47921.11
20
30200.000000000004
30
0
11
47921.11
21
42800.0
31
0
0
LINE
8
envelope
10
47801.11
20
30200.000000000004
30
0
11
47801.11
21
42800.0
31
0
0
LINE
8
envelope
10
47921.11
20
30200.000000000004
30
0
11
47801.11
21
30200.000000000004
31
0
0
LINE
8
envelope
10
47921.11
20
42800.0
30
0
11
47801.11
21
42800.0
31
0
0
LINE
8
envelope
10
44532.22
20
30200.000000000004
30
0
11
44532.22
21
42800.0
31
0
0
LINE
8
envelope
10
44412.22
20
30200.000000000004
30
0
11
44412.22
21
42800.0
31
0
0
LINE
8
envelope
10
44532.22
20
30200.000000000004
30
0
11
44412.22
21
30200.000000000004
31
0
0
LINE
8
envelope
10
44532.22
20
42800.0
30
0
11
44412.22
21
42800.0
31
0
0
LINE
8
envelope
10
41143.33
20
30200.000000000004
30
0
11
41143.33
21
42800.0
31
0
0
LINE
8
envelope
10
41023.33
20
30200.000000000004
30
0
11
41023.33
21
42800.0
31
0
0
LINE
8
envelope
10
41143.33
20
30200.000000000004
30
0
11
41023.33
21
30200.000000000004
31
0
0
LINE
8
envelope
10
41143.33
20
42800.0
30
0
11
41023.33
21
42800.0
31
0
0
LINE
8
envelope
10
37754.44
20
30200.000000000004
30
0
11
37754.44
21
42800.0
31
0
0
LINE
8
envelope
10
37634.439999999995
20
30200.000000000004
30
0
11
37634.439999999995
21
42800.0
31
0
0
LINE
8
envelope
10
37754.44
20
30200.000000000004
30
0
11
37634.439999999995
21
30200.000000000004
31
0
0
LINE
8
envelope
10
37754.44
20
42800.0
30
0
11
37634.439999999995
21
42800.0
31
0
0
LINE
8
envelope
10
34365.560000000005
20
30200.000000000004
30
0
11
34365.560000000005
21
42800.0
31
0
0
LINE
8
envelope
10
34245.56
20
30200.000000000004
30
0
11
34245.56
21
42800.0
31
0
0
LINE
8
envelope
10
34365.560000000005
20
30200.000000000004
30
0
11
34245.56
21
30200.000000000004
31
0
0
LINE
8
envelope
10
34365.560000000005
20
42800.0
30
0
11
34245.56
21
42800.0
31
0
0
LINE
8
envelope
10
30976.67
20
30200.000000000004
30
0
11
30976.67
21
42800.0
31
0
0
LINE
8
envelope
10
30856.67
20
30200.000000000004
30
0
11
30856.67
21
42800.0
31
0
0
LINE
8
envelope
10
30976.67
20
30200.000000000004
30
0
11
30856.67
21
30200.000000000004
31
0
0
LINE
8
envelope
10
30976.67
20
42800.0
30
0
11
30856.67
21
42800.0
31
0
0
LINE
8
envelope
10
27587.78
20
30200.000000000004
30
0
11
27587.78
21
42800.0
31
0
0
LINE
8
envelope
10
27467.78
20
30200.000000000004
30
0
11
27467.78
21
42800.0
31
0
0
LINE
8
envelope
10
27587.78
20
30200.000000000004
30
0
11
27467.78
21
30200.000000000004
31
0
0
LINE
8
envelope
10
27587.78
20
42800.0
30
0
11
27467.78
21
42800.0
31
0
0
LINE
8
envelope
10
24198.89
20
30200.000000000004
30
0
11
24198.89
21
42800.0
31
0
0
LINE
8
envelope
10
24078.89
20
30200.000000000004
30
0
11
24078.89
21
42800.0
31
0
0
LINE
8
envelope
10
24198.89
20
30200.000000000004
30
0
11
24078.89
21
30200.000000000004
31
0
0
LINE
8
envelope
10
24198.89
20
42800.0
30
0
11
24078.89
21
42800.0
31
0
0
LINE
8
envelope
10
20810.0
20
30200.000000000004
30
0
11
20810.0
21
42800.0
31
0
0
LINE
8
envelope
10
20690.0
20
30200.000000000004
30
0
11
20690.0
21
42800.0
31
0
0
LINE
8
envelope
10
20810.0
20
30200.000000000004
30
0
11
20690.0
21
30200.000000000004
31
0
0
LINE
8
envelope
10
20810.0
20
42800.0
30
0
11
20690.0
21
42800.0
31
0
0
LINE
8
envelope
10
81750.0
20
30200.000000000004
30
0
11
81750.0
21
30340.000000000004
31
0
0
LINE
8
envelope
10
20750.0
20
30200.000000000004
30
0
11
20750.0
21
30340.000000000004
31
0
0
LINE
8
envelope
10
81750.0
20
30200.000000000004
30
0
11
20750.0
21
30200.000000000004
31
0
0
LINE
8
envelope
10
81750.0
20
30340.000000000004
30
0
11
20750.0
21
30340.000000000004
31
0
0
LINE
8
envelope
10
81750.0
20
33350.0
30
0
11
81750.0
21
33490.0
31
0
0
LINE
8
envelope
10
20750.0
20
33350.0
30
0
11
20750.0
21
33490.0
31
0
0
LINE
8
envelope
10
81750.0
20
33350.0
30
0
11
20750.0
21
33350.0
31
0
0
LINE
8
envelope
10
81750.0
20
33490.0
30
0
11
20750.0
21
33490.0
31
0
0
LINE
8
envelope
10
81750.0
20
36500.0
30
0
11
81750.0
21
36640.0
31
0
0
LINE
8
envelope
10
20750.0
20
36500.0
30
0
11
20750.0
21
36640.0
31
0
0
LINE
8
envelope
10
81750.0
20
36500.0
30
0
11
20750.0
21
36500.0
31
0
0
LINE
8
envelope
10
81750.0
20
36640.0
30
0
11
20750.0
21
36640.0
31
0
0
LINE
8
envelope
10
81750.0
20
39650.0
30
0
11
81750.0
21
39790.0
31
0
0
LINE
8
envelope
10
20750.0
20
39650.0
30
0
11
20750.0
21
39790.0
31
0
0
LINE
8
envelope
10
81750.0
20
39650.0
30
0
11
20750.0
21
39650.0
31
0
0
LINE
8
envelope
10
81750.0
20
39790.0
30
0
11
20750.0
21
39790.0
31
0
0
LINE
8
envelope
10
81750.0
20
42800.0
30
0
11
81750.0
21
42940.0
31
0
0
LINE
8
envelope
10
20750.0
20
42800.0
30
0
11
20750.0
21
42940.0
31
0
0
LINE
8
envelope
10
81750.0
20
42940.0
30
0
11
20750.0
21
42940.0
31
0
0
LINE
8
envelope
10
81900.0
20
30200.000000000004
30
0
11
81900.0
21
42800.0
31
0
0
LINE
8
envelope
10
81600.0
20
30200.000000000004
30
0
11
81600.0
21
42800.0
31
0
0
LINE
8
envelope
10
81900.0
20
30200.000000000004
30
0
11
81600.0
21
30200.000000000004
31
0
0
LINE
8
envelope
10
81900.0
20
42800.0
30
0
11
81600.0
21
42800.0
31
0
0
LINE
8
envelope
10
20900.0
20
30200.000000000004
30
0
11
20900.0
21
42800.0
31
0
0
LINE
8
envelope
10
20600.0
20
30200.000000000004
30
0
11
20600.0
21
42800.0
31
0
0
LINE
8
envelope
10
20900.0
20
30200.000000000004
30
0
11
20600.0
21
30200.000000000004
31
0
0
LINE
8
envelope
10
20900.0
20
42800.0
30
0
11
20600.0
21
42800.0
31
0
0
LINE
8
roof
10
30250.0
20
50800.0
30
0
11
72250.0
21
50800.0
31
0
0
LINE
8
roof
10
16250.0
20
42800.0
30
0
11
16250.0
21
42620.00000000001
31
0
0
LINE
8
roof
10
16250.0
20
42800.0
30
0
11
30250.0
21
50800.0
31
0
0
LINE
8
roof
10
86250.0
20
42800.0
30
0
11
86250.0
21
42620.00000000001
31
0
0
LINE
8
roof
10
16250.0
20
42800.0
30
0
11
86250.0
21
42800.0
31
0
0
LINE
8
roof
10
16250.0
20
42620.00000000001
30
0
11
86250.0
21
42620.00000000001
31
0
0
LINE
8
roof
10
86250.0
20
42800.0
30
0
11
72250.0
21
50800.0
31
0
0
LINE
8
grid
10
86750.0
20
29799.999999999996
30
0
11
90750.0
21
29799.999999999996
31
0
0
TEXT
8
annotation
10
88437.5
20
30099.999999999993
30
0
40
625.0
1
F0 +0.00m
50
0
0
LINE
8
grid
10
86750.0
20
36300.0
30
0
11
90750.0
21
36300.0
31
0
0
TEXT
8
annotation
10
88437.5
20
36599.99999999999
30
0
40
625.0
1
F1 +6.50m
50
0
0
LINE
8
grid
10
86750.0
20
42800.0
30
0
11
90750.0
21
42800.0
31
0
0
TEXT
8
annotation
10
87500.0
20
43100.0
30
0
40
625.0
1
EAVE +13.00m
50
0
0
LINE
8
grid
10
86750.0
20
50800.0
30
0
11
90750.0
21
50800.0
31
0
0
TEXT
8
annotation
10
87187.5
20
51100.0
30
0
40
625.0
1
RIDGE +21.00m
50
0
0
LINE
8
dimension
10
16250.0
20
27450.000000000004
30
0
11
86250.0
21
27450.000000000004
31
0
0
LINE
8
dimension
10
16000.0
20
27200.000000000004
30
0
11
16500.0
21
27700.000000000004
31
0
0
LINE
8
dimension
10
86000.0
20
27200.000000000004
30
0
11
86500.0
21
27700.000000000004
31
0
0
TEXT
8
annotation
10
47125.0
20
27825.000000000004
30
0
40
750.0
1
70,000 mm shown extent
50
0
0
LINE
8
frame
10
3500
20
14750
30
0
11
101500
21
14750
31
0
0
TEXT
8
annotation
10
3500
20
12750
30
0
40
875.0
1
CONCEPT DESIGN | IMAGE-INFERRED | NOT FOR CONSTRUCTION
50
0
0
TEXT
8
annotation
10
3500
20
9500.0
30
0
40
662.5
1
Source: two campus AI images + fab1.jpg; official analogues documented in analysis/cad/.
50
0
0
TEXT
8
annotation
10
3500
20
8400.000000000005
30
0
40
662.5
1
CAD model in mm; site coordinates X east, Y north, Z up. Internal layouts and member sizes are design estimates.
50
0
0
TEXT
8
annotation
10
3500
20
7299.999999999997
30
0
40
662.5
1
Plans/sections are extracted from actual FreeCAD BRep. Elevations project component outlines; hidden edges omitted per component.
50
0
0
TEXT
8
annotation
10
3500
20
6200.000000000003
30
0
40
662.5
1
Civic wing roofs and skylight may differ from the nominal building height; inspect actual geometry and parameter aliases.
50
0
0
TEXT
8
annotation
10
3500
20
5099.9999999999945
30
0
40
662.5
1
No process certification, structural verification, measured survey, or construction approval is implied.
50
0
0
TEXT
8
annotation
10
89250.0
20
2750
30
0
40
700.0
1
2026-09-30  |  FreeCAD 1.1.4  |  mm
50
0
0
ENDSEC
0
EOF
