0
SECTION
2
HEADER
9
$ACADVER
1
AC1009
9
$INSUNITS
70
4
0
ENDSEC
0
SECTION
2
ENTITIES
0
LINE
8
frame
10
1750
20
72500
30
0
11
103250
21
72500
31
0
0
LINE
8
frame
10
103250
20
72500
30
0
11
103250
21
1750
31
0
0
LINE
8
frame
10
103250
20
1750
30
0
11
1750
21
1750
31
0
0
LINE
8
frame
10
1750
20
1750
30
0
11
1750
21
72500
31
0
0
TEXT
8
annotation
10
3500
20
69750
30
0
40
1050.0
1
PHOENIX SCIENCE PARK
50
0
0
TEXT
8
annotation
10
3500
20
67750
30
0
40
1250.0
1
DINING_E / Section A-A
50
0
0
TEXT
8
annotation
10
96700.0
20
69750
30
0
40
800.0
1
A3  |  1:250
50
0
0
TEXT
8
annotation
10
91375.0
20
67750
30
0
40
750.0
1
CAD-DINING_E-SECTION  /  R1
50
0
0
LINE
8
frame
10
3500
20
66500
30
0
11
101500
21
66500
31
0
0
LINE
8
cut
10
18250.0
20
30600.0
30
0
11
18250.0
21
29400.0
31
0
0
LINE
8
cut
10
18250.0
20
30600.0
30
0
11
84250.0
21
30600.0
31
0
0
LINE
8
cut
10
18250.0
20
29400.0
30
0
11
84250.0
21
29400.0
31
0
0
LINE
8
cut
10
84250.0
20
30600.0
30
0
11
84250.0
21
29400.0
31
0
0
LINE
8
cut
10
21825.0
20
43600.0
30
0
11
21825.0
21
30600.0
31
0
0
LINE
8
cut
10
21825.0
20
43600.0
30
0
11
22675.0
21
43600.0
31
0
0
LINE
8
cut
10
21825.0
20
30600.0
30
0
11
22675.0
21
30600.0
31
0
0
LINE
8
cut
10
22675.0
20
43600.0
30
0
11
22675.0
21
30600.0
31
0
0
LINE
8
cut
10
33425.0
20
43600.0
30
0
11
33425.0
21
30600.0
31
0
0
LINE
8
cut
10
33425.0
20
43600.0
30
0
11
34275.0
21
43600.0
31
0
0
LINE
8
cut
10
33425.0
20
30600.0
30
0
11
34275.0
21
30600.0
31
0
0
LINE
8
cut
10
34275.0
20
43600.0
30
0
11
34275.0
21
30600.0
31
0
0
LINE
8
cut
10
45025.0
20
43600.0
30
0
11
45025.0
21
30600.0
31
0
0
LINE
8
cut
10
45025.0
20
43600.0
30
0
11
45875.0
21
43600.0
31
0
0
LINE
8
cut
10
45025.0
20
30600.0
30
0
11
45875.0
21
30600.0
31
0
0
LINE
8
cut
10
45875.0
20
43600.0
30
0
11
45875.0
21
30600.0
31
0
0
LINE
8
cut
10
56625.0
20
43600.0
30
0
11
56625.0
21
30600.0
31
0
0
LINE
8
cut
10
56625.0
20
43600.0
30
0
11
57475.0
21
43600.0
31
0
0
LINE
8
cut
10
56625.0
20
30600.0
30
0
11
57475.0
21
30600.0
31
0
0
LINE
8
cut
10
57475.0
20
43600.0
30
0
11
57475.0
21
30600.0
31
0
0
LINE
8
cut
10
68225.0
20
43600.0
30
0
11
68225.0
21
30600.0
31
0
0
LINE
8
cut
10
68225.0
20
43600.0
30
0
11
69075.0
21
43600.0
31
0
0
LINE
8
cut
10
68225.0
20
30600.0
30
0
11
69075.0
21
30600.0
31
0
0
LINE
8
cut
10
69075.0
20
43600.0
30
0
11
69075.0
21
30600.0
31
0
0
LINE
8
cut
10
79825.0
20
43600.0
30
0
11
79825.0
21
30600.0
31
0
0
LINE
8
cut
10
79825.0
20
43600.0
30
0
11
80675.0
21
43600.0
31
0
0
LINE
8
cut
10
79825.0
20
30600.0
30
0
11
80675.0
21
30600.0
31
0
0
LINE
8
cut
10
80675.0
20
43600.0
30
0
11
80675.0
21
30600.0
31
0
0
LINE
8
cut
10
20750.0
20
31000.0
30
0
11
20750.0
21
30600.0
31
0
0
LINE
8
cut
10
20750.0
20
31000.0
30
0
11
81750.0
21
31000.0
31
0
0
LINE
8
cut
10
20750.0
20
30600.0
30
0
11
81750.0
21
30600.0
31
0
0
LINE
8
cut
10
81750.0
20
31000.0
30
0
11
81750.0
21
30600.0
31
0
0
LINE
8
cut
10
20750.0
20
37500.0
30
0
11
20750.0
21
37100.0
31
0
0
LINE
8
cut
10
20750.0
20
37500.0
30
0
11
81750.0
21
37500.0
31
0
0
LINE
8
cut
10
20750.0
20
37100.0
30
0
11
81750.0
21
37100.0
31
0
0
LINE
8
cut
10
81750.0
20
37500.0
30
0
11
81750.0
21
37100.0
31
0
0
LINE
8
cut
10
20750.0
20
44000.0
30
0
11
20750.0
21
43600.0
31
0
0
LINE
8
cut
10
20750.0
20
44000.0
30
0
11
81750.0
21
44000.0
31
0
0
LINE
8
cut
10
20750.0
20
43600.0
30
0
11
81750.0
21
43600.0
31
0
0
LINE
8
cut
10
81750.0
20
44000.0
30
0
11
81750.0
21
43600.0
31
0
0
LINE
8
cut
10
20600.0
20
43600.0
30
0
11
20600.0
21
31000.0
31
0
0
LINE
8
cut
10
20600.0
20
43600.0
30
0
11
20900.0
21
43600.0
31
0
0
LINE
8
cut
10
20600.0
20
31000.0
30
0
11
20900.0
21
31000.0
31
0
0
LINE
8
cut
10
20900.0
20
43600.0
30
0
11
20900.0
21
31000.0
31
0
0
LINE
8
cut
10
81600.0
20
43600.0
30
0
11
81600.0
21
31000.0
31
0
0
LINE
8
cut
10
81600.0
20
43600.0
30
0
11
81900.0
21
43600.0
31
0
0
LINE
8
cut
10
81600.0
20
31000.0
30
0
11
81900.0
21
31000.0
31
0
0
LINE
8
cut
10
81900.0
20
43600.0
30
0
11
81900.0
21
31000.0
31
0
0
LINE
8
interiors
10
34260.00000000001
20
31000.0
30
0
11
34260.00000000001
21
34200.0
31
0
0
LINE
8
interiors
10
34260.00000000001
20
34200.0
30
0
11
34080.0
21
34200.0
31
0
0
LINE
8
interiors
10
34260.00000000001
20
31000.0
30
0
11
34080.0
21
31000.0
31
0
0
LINE
8
interiors
10
34080.0
20
31000.0
30
0
11
34080.0
21
34200.0
31
0
0
LINE
8
interiors
10
35695.0
20
31000.0
30
0
11
35695.0
21
34200.0
31
0
0
LINE
8
interiors
10
21665.0
20
31000.0
30
0
11
21665.0
21
34200.0
31
0
0
LINE
8
interiors
10
35695.0
20
31000.0
30
0
11
34260.00000000001
21
31000.0
31
0
0
LINE
8
interiors
10
34080.0
20
31000.0
30
0
11
21665.0
21
31000.0
31
0
0
LINE
8
interiors
10
35695.0
20
34200.0
30
0
11
34260.00000000001
21
34200.0
31
0
0
LINE
8
interiors
10
34080.0
20
34200.0
30
0
11
21665.0
21
34200.0
31
0
0
LINE
8
interiors
10
74560.0
20
31700.000000000004
30
0
11
74560.0
21
31830.0
31
0
0
LINE
8
interiors
10
71860.0
20
31700.000000000004
30
0
11
71860.0
21
31830.0
31
0
0
LINE
8
interiors
10
74560.0
20
31700.000000000004
30
0
11
71860.0
21
31700.000000000004
31
0
0
LINE
8
interiors
10
74560.0
20
31830.0
30
0
11
71860.0
21
31830.0
31
0
0
LINE
8
interiors
10
67560.0
20
31700.000000000004
30
0
11
67560.0
21
31830.0
31
0
0
LINE
8
interiors
10
64860.0
20
31700.000000000004
30
0
11
64860.0
21
31830.0
31
0
0
LINE
8
interiors
10
67560.0
20
31700.000000000004
30
0
11
64860.0
21
31700.000000000004
31
0
0
LINE
8
interiors
10
67560.0
20
31830.0
30
0
11
64860.0
21
31830.0
31
0
0
LINE
8
interiors
10
60560.0
20
31700.000000000004
30
0
11
60560.0
21
31830.0
31
0
0
LINE
8
interiors
10
57860.0
20
31700.000000000004
30
0
11
57860.0
21
31830.0
31
0
0
LINE
8
interiors
10
60560.0
20
31700.000000000004
30
0
11
57860.0
21
31700.000000000004
31
0
0
LINE
8
interiors
10
60560.0
20
31830.0
30
0
11
57860.0
21
31830.0
31
0
0
LINE
8
interiors
10
53560.0
20
31700.000000000004
30
0
11
53560.0
21
31830.0
31
0
0
LINE
8
interiors
10
50860.0
20
31700.000000000004
30
0
11
50860.0
21
31830.0
31
0
0
LINE
8
interiors
10
53560.0
20
31700.000000000004
30
0
11
50860.0
21
31700.000000000004
31
0
0
LINE
8
interiors
10
53560.0
20
31830.0
30
0
11
50860.0
21
31830.0
31
0
0
LINE
8
interiors
10
46560.0
20
31700.000000000004
30
0
11
46560.0
21
31830.0
31
0
0
LINE
8
interiors
10
43860.0
20
31700.000000000004
30
0
11
43860.0
21
31830.0
31
0
0
LINE
8
interiors
10
46560.0
20
31700.000000000004
30
0
11
43860.0
21
31700.000000000004
31
0
0
LINE
8
interiors
10
46560.0
20
31830.0
30
0
11
43860.0
21
31830.0
31
0
0
LINE
8
interiors
10
39560.0
20
31700.000000000004
30
0
11
39560.0
21
31830.0
31
0
0
LINE
8
interiors
10
36860.0
20
31700.000000000004
30
0
11
36860.0
21
31830.0
31
0
0
LINE
8
interiors
10
39560.0
20
31700.000000000004
30
0
11
36860.0
21
31700.000000000004
31
0
0
LINE
8
interiors
10
39560.0
20
31830.0
30
0
11
36860.0
21
31830.0
31
0
0
LINE
8
interiors
10
34260.00000000001
20
37500.0
30
0
11
34260.00000000001
21
40700.0
31
0
0
LINE
8
interiors
10
34260.00000000001
20
40700.0
30
0
11
34080.0
21
40700.0
31
0
0
LINE
8
interiors
10
34260.00000000001
20
37500.0
30
0
11
34080.0
21
37500.0
31
0
0
LINE
8
interiors
10
34080.0
20
37500.0
30
0
11
34080.0
21
40700.0
31
0
0
LINE
8
interiors
10
35695.0
20
37500.0
30
0
11
35695.0
21
40700.0
31
0
0
LINE
8
interiors
10
21665.0
20
37500.0
30
0
11
21665.0
21
40700.0
31
0
0
LINE
8
interiors
10
35695.0
20
37500.0
30
0
11
34260.00000000001
21
37500.0
31
0
0
LINE
8
interiors
10
34080.0
20
37500.0
30
0
11
21665.0
21
37500.0
31
0
0
LINE
8
interiors
10
35695.0
20
40700.0
30
0
11
34260.00000000001
21
40700.0
31
0
0
LINE
8
interiors
10
34080.0
20
40700.0
30
0
11
21665.0
21
40700.0
31
0
0
LINE
8
interiors
10
74560.0
20
38200.0
30
0
11
74560.0
21
38330.0
31
0
0
LINE
8
interiors
10
71860.0
20
38200.0
30
0
11
71860.0
21
38330.0
31
0
0
LINE
8
interiors
10
74560.0
20
38200.0
30
0
11
71860.0
21
38200.0
31
0
0
LINE
8
interiors
10
74560.0
20
38330.0
30
0
11
71860.0
21
38330.0
31
0
0
LINE
8
interiors
10
67560.0
20
38200.0
30
0
11
67560.0
21
38330.0
31
0
0
LINE
8
interiors
10
64860.0
20
38200.0
30
0
11
64860.0
21
38330.0
31
0
0
LINE
8
interiors
10
67560.0
20
38200.0
30
0
11
64860.0
21
38200.0
31
0
0
LINE
8
interiors
10
67560.0
20
38330.0
30
0
11
64860.0
21
38330.0
31
0
0
LINE
8
interiors
10
60560.0
20
38200.0
30
0
11
60560.0
21
38330.0
31
0
0
LINE
8
interiors
10
57860.0
20
38200.0
30
0
11
57860.0
21
38330.0
31
0
0
LINE
8
interiors
10
60560.0
20
38200.0
30
0
11
57860.0
21
38200.0
31
0
0
LINE
8
interiors
10
60560.0
20
38330.0
30
0
11
57860.0
21
38330.0
31
0
0
LINE
8
interiors
10
53560.0
20
38200.0
30
0
11
53560.0
21
38330.0
31
0
0
LINE
8
interiors
10
50860.0
20
38200.0
30
0
11
50860.0
21
38330.0
31
0
0
LINE
8
interiors
10
53560.0
20
38200.0
30
0
11
50860.0
21
38200.0
31
0
0
LINE
8
interiors
10
53560.0
20
38330.0
30
0
11
50860.0
21
38330.0
31
0
0
LINE
8
interiors
10
46560.0
20
38200.0
30
0
11
46560.0
21
38330.0
31
0
0
LINE
8
interiors
10
43860.0
20
38200.0
30
0
11
43860.0
21
38330.0
31
0
0
LINE
8
interiors
10
46560.0
20
38200.0
30
0
11
43860.0
21
38200.0
31
0
0
LINE
8
interiors
10
46560.0
20
38330.0
30
0
11
43860.0
21
38330.0
31
0
0
LINE
8
interiors
10
39560.0
20
38200.0
30
0
11
39560.0
21
38330.0
31
0
0
LINE
8
interiors
10
36860.0
20
38200.0
30
0
11
36860.0
21
38330.0
31
0
0
LINE
8
interiors
10
39560.0
20
38200.0
30
0
11
36860.0
21
38200.0
31
0
0
LINE
8
interiors
10
39560.0
20
38330.0
30
0
11
36860.0
21
38330.0
31
0
0
LINE
8
cut
10
86250.0
20
43600.0
30
0
11
86250.0
21
43420.0
31
0
0
LINE
8
cut
10
72250.0
20
51600.0
30
0
11
86250.0
21
43600.0
31
0
0
LINE
8
cut
10
72250.0
20
51420.0
30
0
11
86250.0
21
43420.0
31
0
0
LINE
8
cut
10
72250.0
20
51600.0
30
0
11
72250.0
21
51420.0
31
0
0
LINE
8
cut
10
72250.0
20
51600.0
30
0
11
30250.0
21
51600.0
31
0
0
LINE
8
cut
10
30250.0
20
51600.0
30
0
11
72250.0
21
51600.0
31
0
0
LINE
8
cut
10
72250.0
20
51420.0
30
0
11
30250.0
21
51420.0
31
0
0
LINE
8
cut
10
30250.0
20
51420.0
30
0
11
72250.0
21
51420.0
31
0
0
LINE
8
cut
10
16250.0
20
43420.0
30
0
11
16250.0
21
43600.0
31
0
0
LINE
8
cut
10
16250.0
20
43420.0
30
0
11
30250.0
21
51420.0
31
0
0
LINE
8
cut
10
16250.0
20
43600.0
30
0
11
30250.0
21
51600.0
31
0
0
LINE
8
cut
10
30250.0
20
51600.0
30
0
11
30250.0
21
51420.0
31
0
0
LINE
8
cut
10
21750.0
20
44585.0
30
0
11
21780.31
21
44532.5
31
0
0
LINE
8
cut
10
21780.31
20
44532.5
30
0
11
21719.69
21
44532.5
31
0
0
LINE
8
cut
10
21719.69
20
44532.5
30
0
11
21750.0
21
44585.0
31
0
0
LINE
8
cut
10
21750.0
20
45135.0
30
0
11
21780.31
21
45082.49999999999
31
0
0
LINE
8
cut
10
21780.31
20
45082.49999999999
30
0
11
21719.69
21
45082.49999999999
31
0
0
LINE
8
cut
10
21719.69
20
45082.49999999999
30
0
11
21750.0
21
45135.0
31
0
0
LINE
8
cut
10
21705.0
20
44000.0
30
0
11
21705.0
21
45150.0
31
0
0
LINE
8
cut
10
21705.0
20
44000.0
30
0
11
21795.0
21
44000.0
31
0
0
LINE
8
cut
10
21705.0
20
45150.0
30
0
11
21795.0
21
45150.0
31
0
0
LINE
8
cut
10
21795.0
20
44000.0
30
0
11
21795.0
21
45150.0
31
0
0
LINE
8
cut
10
80750.0
20
44585.0
30
0
11
80780.31
21
44532.5
31
0
0
LINE
8
cut
10
80780.31
20
44532.5
30
0
11
80719.69
21
44532.5
31
0
0
LINE
8
cut
10
80719.69
20
44532.5
30
0
11
80750.0
21
44585.0
31
0
0
LINE
8
cut
10
80750.0
20
45135.0
30
0
11
80780.31
21
45082.49999999999
31
0
0
LINE
8
cut
10
80780.31
20
45082.49999999999
30
0
11
80719.69
21
45082.49999999999
31
0
0
LINE
8
cut
10
80719.69
20
45082.49999999999
30
0
11
80750.0
21
45135.0
31
0
0
LINE
8
cut
10
80705.0
20
44000.0
30
0
11
80705.0
21
45150.0
31
0
0
LINE
8
cut
10
80705.0
20
44000.0
30
0
11
80795.0
21
44000.0
31
0
0
LINE
8
cut
10
80705.0
20
45150.0
30
0
11
80795.0
21
45150.0
31
0
0
LINE
8
cut
10
80795.0
20
44000.0
30
0
11
80795.0
21
45150.0
31
0
0
LINE
8
grid
10
86750.0
20
30600.0
30
0
11
90750.0
21
30600.0
31
0
0
TEXT
8
annotation
10
88437.5
20
30900.0
30
0
40
625.0
1
F0 +0.00m
50
0
0
LINE
8
grid
10
86750.0
20
37100.0
30
0
11
90750.0
21
37100.0
31
0
0
TEXT
8
annotation
10
88437.5
20
37400.0
30
0
40
625.0
1
F1 +6.50m
50
0
0
LINE
8
grid
10
86750.0
20
43600.0
30
0
11
90750.0
21
43600.0
31
0
0
TEXT
8
annotation
10
87500.0
20
43900.00000000001
30
0
40
625.0
1
EAVE +13.00m
50
0
0
LINE
8
grid
10
86750.0
20
51600.0
30
0
11
90750.0
21
51600.0
31
0
0
TEXT
8
annotation
10
87187.5
20
51900.00000000001
30
0
40
625.0
1
RIDGE +21.00m
50
0
0
LINE
8
dimension
10
16250.0
20
26650.0
30
0
11
86250.0
21
26650.0
31
0
0
LINE
8
dimension
10
16000.0
20
26400.0
30
0
11
16500.0
21
26900.0
31
0
0
LINE
8
dimension
10
86000.0
20
26400.0
30
0
11
86500.0
21
26900.0
31
0
0
TEXT
8
annotation
10
47125.0
20
27025.0
30
0
40
750.0
1
70,000 mm shown extent
50
0
0
LINE
8
frame
10
3500
20
14750
30
0
11
101500
21
14750
31
0
0
TEXT
8
annotation
10
3500
20
12750
30
0
40
875.0
1
CONCEPT DESIGN | IMAGE-INFERRED | NOT FOR CONSTRUCTION
50
0
0
TEXT
8
annotation
10
3500
20
9500.0
30
0
40
662.5
1
Source: two campus AI images + fab1.jpg; official analogues documented in analysis/cad/.
50
0
0
TEXT
8
annotation
10
3500
20
8400.000000000005
30
0
40
662.5
1
CAD model in mm; site coordinates X east, Y north, Z up. Internal layouts and member sizes are design estimates.
50
0
0
TEXT
8
annotation
10
3500
20
7299.999999999997
30
0
40
662.5
1
Plans/sections are extracted from actual FreeCAD BRep. Elevations project component outlines; hidden edges omitted per component.
50
0
0
TEXT
8
annotation
10
3500
20
6200.000000000003
30
0
40
662.5
1
Civic wing roofs and skylight may differ from the nominal building height; inspect actual geometry and parameter aliases.
50
0
0
TEXT
8
annotation
10
3500
20
5099.9999999999945
30
0
40
662.5
1
No process certification, structural verification, measured survey, or construction approval is implied.
50
0
0
TEXT
8
annotation
10
89250.0
20
2750
30
0
40
700.0
1
2026-09-30  |  FreeCAD 1.1.4  |  mm
50
0
0
ENDSEC
0
EOF
