0
SECTION
2
HEADER
9
$ACADVER
1
AC1009
9
$INSUNITS
70
4
0
ENDSEC
0
SECTION
2
ENTITIES
0
LINE
8
frame
10
2800
20
116000
30
0
11
165200
21
116000
31
0
0
LINE
8
frame
10
165200
20
116000
30
0
11
165200
21
2800
31
0
0
LINE
8
frame
10
165200
20
2800
30
0
11
2800
21
2800
31
0
0
LINE
8
frame
10
2800
20
2800
30
0
11
2800
21
116000
31
0
0
TEXT
8
annotation
10
5600
20
111600
30
0
40
1680.0
1
PHOENIX SCIENCE PARK
50
0
0
TEXT
8
annotation
10
5600
20
108400
30
0
40
2000.0
1
EXHIBITION / Floor plan
50
0
0
TEXT
8
annotation
10
154720.0
20
111600
30
0
40
1280.0
1
A3  |  1:400
50
0
0
TEXT
8
annotation
10
146800.0
20
108400
30
0
40
1200.0
1
CAD-EXHIBITION-PLAN  /  R1
50
0
0
LINE
8
frame
10
5600
20
106400
30
0
11
162400
21
106400
31
0
0
LINE
8
cut
10
54575.0
20
47225.0
30
0
11
54575.0
21
46375.0
31
0
0
LINE
8
cut
10
54575.0
20
47225.0
30
0
11
55425.0
21
47225.0
31
0
0
LINE
8
cut
10
54575.0
20
46375.0
30
0
11
55425.0
21
46375.0
31
0
0
LINE
8
cut
10
55425.0
20
47225.0
30
0
11
55425.0
21
46375.0
31
0
0
LINE
8
cut
10
65375.0
20
47225.0
30
0
11
65375.0
21
46375.0
31
0
0
LINE
8
cut
10
65375.0
20
47225.0
30
0
11
66225.0
21
47225.0
31
0
0
LINE
8
cut
10
65375.0
20
46375.0
30
0
11
66225.0
21
46375.0
31
0
0
LINE
8
cut
10
66225.0
20
47225.0
30
0
11
66225.0
21
46375.0
31
0
0
LINE
8
cut
10
76175.0
20
47225.0
30
0
11
76175.0
21
46375.0
31
0
0
LINE
8
cut
10
76175.0
20
47225.0
30
0
11
77025.0
21
47225.0
31
0
0
LINE
8
cut
10
76175.0
20
46375.0
30
0
11
77025.0
21
46375.0
31
0
0
LINE
8
cut
10
77025.0
20
47225.0
30
0
11
77025.0
21
46375.0
31
0
0
LINE
8
cut
10
86975.0
20
47225.0
30
0
11
86975.0
21
46375.0
31
0
0
LINE
8
cut
10
86975.0
20
47225.0
30
0
11
87825.0
21
47225.0
31
0
0
LINE
8
cut
10
86975.0
20
46375.0
30
0
11
87825.0
21
46375.0
31
0
0
LINE
8
cut
10
87825.0
20
47225.0
30
0
11
87825.0
21
46375.0
31
0
0
LINE
8
cut
10
97775.0
20
47225.0
30
0
11
97775.0
21
46375.0
31
0
0
LINE
8
cut
10
97775.0
20
47225.0
30
0
11
98625.0
21
47225.0
31
0
0
LINE
8
cut
10
97775.0
20
46375.0
30
0
11
98625.0
21
46375.0
31
0
0
LINE
8
cut
10
98625.0
20
47225.0
30
0
11
98625.0
21
46375.0
31
0
0
LINE
8
cut
10
108575.0
20
47225.0
30
0
11
108575.0
21
46375.0
31
0
0
LINE
8
cut
10
108575.0
20
47225.0
30
0
11
109425.0
21
47225.0
31
0
0
LINE
8
cut
10
108575.0
20
46375.0
30
0
11
109425.0
21
46375.0
31
0
0
LINE
8
cut
10
109425.0
20
47225.0
30
0
11
109425.0
21
46375.0
31
0
0
LINE
8
cut
10
54575.0
20
65225.0
30
0
11
54575.0
21
64375.0
31
0
0
LINE
8
cut
10
54575.0
20
65225.0
30
0
11
55425.0
21
65225.0
31
0
0
LINE
8
cut
10
54575.0
20
64375.0
30
0
11
55425.0
21
64375.0
31
0
0
LINE
8
cut
10
55425.0
20
65225.0
30
0
11
55425.0
21
64375.0
31
0
0
LINE
8
cut
10
65375.0
20
65225.0
30
0
11
65375.0
21
64375.0
31
0
0
LINE
8
cut
10
65375.0
20
65225.0
30
0
11
66225.0
21
65225.0
31
0
0
LINE
8
cut
10
65375.0
20
64375.0
30
0
11
66225.0
21
64375.0
31
0
0
LINE
8
cut
10
66225.0
20
65225.0
30
0
11
66225.0
21
64375.0
31
0
0
LINE
8
cut
10
76175.0
20
65225.0
30
0
11
76175.0
21
64375.0
31
0
0
LINE
8
cut
10
76175.0
20
65225.0
30
0
11
77025.0
21
65225.0
31
0
0
LINE
8
cut
10
76175.0
20
64375.0
30
0
11
77025.0
21
64375.0
31
0
0
LINE
8
cut
10
77025.0
20
65225.0
30
0
11
77025.0
21
64375.0
31
0
0
LINE
8
cut
10
86975.0
20
65225.0
30
0
11
86975.0
21
64375.0
31
0
0
LINE
8
cut
10
86975.0
20
65225.0
30
0
11
87825.0
21
65225.0
31
0
0
LINE
8
cut
10
86975.0
20
64375.0
30
0
11
87825.0
21
64375.0
31
0
0
LINE
8
cut
10
87825.0
20
65225.0
30
0
11
87825.0
21
64375.0
31
0
0
LINE
8
cut
10
97775.0
20
65225.0
30
0
11
97775.0
21
64375.0
31
0
0
LINE
8
cut
10
97775.0
20
65225.0
30
0
11
98625.0
21
65225.0
31
0
0
LINE
8
cut
10
97775.0
20
64375.0
30
0
11
98625.0
21
64375.0
31
0
0
LINE
8
cut
10
98625.0
20
65225.0
30
0
11
98625.0
21
64375.0
31
0
0
LINE
8
cut
10
108575.0
20
65225.0
30
0
11
108575.0
21
64375.0
31
0
0
LINE
8
cut
10
108575.0
20
65225.0
30
0
11
109425.0
21
65225.0
31
0
0
LINE
8
cut
10
108575.0
20
64375.0
30
0
11
109425.0
21
64375.0
31
0
0
LINE
8
cut
10
109425.0
20
65225.0
30
0
11
109425.0
21
64375.0
31
0
0
LINE
8
cut
10
54575.0
20
83225.0
30
0
11
54575.0
21
82375.0
31
0
0
LINE
8
cut
10
54575.0
20
83225.0
30
0
11
55425.0
21
83225.0
31
0
0
LINE
8
cut
10
54575.0
20
82375.0
30
0
11
55425.0
21
82375.0
31
0
0
LINE
8
cut
10
55425.0
20
83225.0
30
0
11
55425.0
21
82375.0
31
0
0
LINE
8
cut
10
65375.0
20
83225.0
30
0
11
65375.0
21
82375.0
31
0
0
LINE
8
cut
10
65375.0
20
83225.0
30
0
11
66225.0
21
83225.0
31
0
0
LINE
8
cut
10
65375.0
20
82375.0
30
0
11
66225.0
21
82375.0
31
0
0
LINE
8
cut
10
66225.0
20
83225.0
30
0
11
66225.0
21
82375.0
31
0
0
LINE
8
cut
10
76175.0
20
83225.0
30
0
11
76175.0
21
82375.0
31
0
0
LINE
8
cut
10
76175.0
20
83225.0
30
0
11
77025.0
21
83225.0
31
0
0
LINE
8
cut
10
76175.0
20
82375.0
30
0
11
77025.0
21
82375.0
31
0
0
LINE
8
cut
10
77025.0
20
83225.0
30
0
11
77025.0
21
82375.0
31
0
0
LINE
8
cut
10
86975.0
20
83225.0
30
0
11
86975.0
21
82375.0
31
0
0
LINE
8
cut
10
86975.0
20
83225.0
30
0
11
87825.0
21
83225.0
31
0
0
LINE
8
cut
10
86975.0
20
82375.0
30
0
11
87825.0
21
82375.0
31
0
0
LINE
8
cut
10
87825.0
20
83225.0
30
0
11
87825.0
21
82375.0
31
0
0
LINE
8
cut
10
97775.0
20
83225.0
30
0
11
97775.0
21
82375.0
31
0
0
LINE
8
cut
10
97775.0
20
83225.0
30
0
11
98625.0
21
83225.0
31
0
0
LINE
8
cut
10
97775.0
20
82375.0
30
0
11
98625.0
21
82375.0
31
0
0
LINE
8
cut
10
98625.0
20
83225.0
30
0
11
98625.0
21
82375.0
31
0
0
LINE
8
cut
10
108575.0
20
83225.0
30
0
11
108575.0
21
82375.0
31
0
0
LINE
8
cut
10
108575.0
20
83225.0
30
0
11
109425.0
21
83225.0
31
0
0
LINE
8
cut
10
108575.0
20
82375.0
30
0
11
109425.0
21
82375.0
31
0
0
LINE
8
cut
10
109425.0
20
83225.0
30
0
11
109425.0
21
82375.0
31
0
0
LINE
8
cut
10
53579.99999999999
20
45360.0
30
0
11
53579.99999999999
21
45240.0
31
0
0
LINE
8
cut
10
53579.99999999999
20
45360.0
30
0
11
56982.50000000001
21
45360.0
31
0
0
LINE
8
cut
10
53579.99999999999
20
45240.0
30
0
11
56982.50000000001
21
45240.0
31
0
0
LINE
8
cut
10
56982.50000000001
20
45360.0
30
0
11
56982.50000000001
21
45240.0
31
0
0
LINE
8
cut
10
57142.49999999999
20
45360.0
30
0
11
57142.49999999999
21
45240.0
31
0
0
LINE
8
cut
10
57142.49999999999
20
45360.0
30
0
11
60545.00000000001
21
45360.0
31
0
0
LINE
8
cut
10
57142.49999999999
20
45240.0
30
0
11
60545.00000000001
21
45240.0
31
0
0
LINE
8
cut
10
60545.00000000001
20
45360.0
30
0
11
60545.00000000001
21
45240.0
31
0
0
LINE
8
cut
10
60704.99999999999
20
45360.0
30
0
11
60704.99999999999
21
45240.0
31
0
0
LINE
8
cut
10
60704.99999999999
20
45360.0
30
0
11
64107.50000000001
21
45360.0
31
0
0
LINE
8
cut
10
60704.99999999999
20
45240.0
30
0
11
64107.50000000001
21
45240.0
31
0
0
LINE
8
cut
10
64107.50000000001
20
45360.0
30
0
11
64107.50000000001
21
45240.0
31
0
0
LINE
8
cut
10
64267.49999999999
20
45360.0
30
0
11
64267.49999999999
21
45240.0
31
0
0
LINE
8
cut
10
64267.49999999999
20
45360.0
30
0
11
67670.0
21
45360.0
31
0
0
LINE
8
cut
10
64267.49999999999
20
45240.0
30
0
11
67670.0
21
45240.0
31
0
0
LINE
8
cut
10
67670.0
20
45360.0
30
0
11
67670.0
21
45240.0
31
0
0
LINE
8
cut
10
67830.0
20
45360.0
30
0
11
67830.0
21
45240.0
31
0
0
LINE
8
cut
10
67830.0
20
45360.0
30
0
11
71232.5
21
45360.0
31
0
0
LINE
8
cut
10
67830.0
20
45240.0
30
0
11
71232.5
21
45240.0
31
0
0
LINE
8
cut
10
71232.5
20
45360.0
30
0
11
71232.5
21
45240.0
31
0
0
LINE
8
cut
10
71392.5
20
45360.0
30
0
11
71392.5
21
45240.0
31
0
0
LINE
8
cut
10
71392.5
20
45360.0
30
0
11
74795.0
21
45360.0
31
0
0
LINE
8
cut
10
71392.5
20
45240.0
30
0
11
74795.0
21
45240.0
31
0
0
LINE
8
cut
10
74795.0
20
45360.0
30
0
11
74795.0
21
45240.0
31
0
0
LINE
8
cut
10
74955.0
20
45360.0
30
0
11
74955.0
21
45240.0
31
0
0
LINE
8
cut
10
74955.0
20
45360.0
30
0
11
78357.5
21
45360.0
31
0
0
LINE
8
cut
10
74955.0
20
45240.0
30
0
11
78357.5
21
45240.0
31
0
0
LINE
8
cut
10
78357.5
20
45360.0
30
0
11
78357.5
21
45240.0
31
0
0
LINE
8
cut
10
78517.5
20
45360.0
30
0
11
78517.5
21
45240.0
31
0
0
LINE
8
cut
10
78517.5
20
45360.0
30
0
11
81920.0
21
45360.0
31
0
0
LINE
8
cut
10
78517.5
20
45240.0
30
0
11
81920.0
21
45240.0
31
0
0
LINE
8
cut
10
81920.0
20
45360.0
30
0
11
81920.0
21
45240.0
31
0
0
LINE
8
cut
10
82080.0
20
45360.0
30
0
11
82080.0
21
45240.0
31
0
0
LINE
8
cut
10
82080.0
20
45360.0
30
0
11
85482.5
21
45360.0
31
0
0
LINE
8
cut
10
82080.0
20
45240.0
30
0
11
85482.5
21
45240.0
31
0
0
LINE
8
cut
10
85482.5
20
45360.0
30
0
11
85482.5
21
45240.0
31
0
0
LINE
8
cut
10
85642.5
20
45360.0
30
0
11
85642.5
21
45240.0
31
0
0
LINE
8
cut
10
85642.5
20
45360.0
30
0
11
89045.0
21
45360.0
31
0
0
LINE
8
cut
10
85642.5
20
45240.0
30
0
11
89045.0
21
45240.0
31
0
0
LINE
8
cut
10
89045.0
20
45360.0
30
0
11
89045.0
21
45240.0
31
0
0
LINE
8
cut
10
89205.0
20
45360.0
30
0
11
89205.0
21
45240.0
31
0
0
LINE
8
cut
10
89205.0
20
45360.0
30
0
11
92607.5
21
45360.0
31
0
0
LINE
8
cut
10
89205.0
20
45240.0
30
0
11
92607.5
21
45240.0
31
0
0
LINE
8
cut
10
92607.5
20
45360.0
30
0
11
92607.5
21
45240.0
31
0
0
LINE
8
cut
10
92767.5
20
45360.0
30
0
11
92767.5
21
45240.0
31
0
0
LINE
8
cut
10
92767.5
20
45360.0
30
0
11
96170.0
21
45360.0
31
0
0
LINE
8
cut
10
92767.5
20
45240.0
30
0
11
96170.0
21
45240.0
31
0
0
LINE
8
cut
10
96170.0
20
45360.0
30
0
11
96170.0
21
45240.0
31
0
0
LINE
8
cut
10
96330.0
20
45360.0
30
0
11
96330.0
21
45240.0
31
0
0
LINE
8
cut
10
96330.0
20
45360.0
30
0
11
99732.5
21
45360.0
31
0
0
LINE
8
cut
10
96330.0
20
45240.0
30
0
11
99732.5
21
45240.0
31
0
0
LINE
8
cut
10
99732.5
20
45360.0
30
0
11
99732.5
21
45240.0
31
0
0
LINE
8
cut
10
99892.5
20
45360.0
30
0
11
99892.5
21
45240.0
31
0
0
LINE
8
cut
10
99892.5
20
45360.0
30
0
11
103295.0
21
45360.0
31
0
0
LINE
8
cut
10
99892.5
20
45240.0
30
0
11
103295.0
21
45240.0
31
0
0
LINE
8
cut
10
103295.0
20
45360.0
30
0
11
103295.0
21
45240.0
31
0
0
LINE
8
cut
10
103455.0
20
45360.0
30
0
11
103455.0
21
45240.0
31
0
0
LINE
8
cut
10
103455.0
20
45360.0
30
0
11
106857.5
21
45360.0
31
0
0
LINE
8
cut
10
103455.0
20
45240.0
30
0
11
106857.5
21
45240.0
31
0
0
LINE
8
cut
10
106857.5
20
45360.0
30
0
11
106857.5
21
45240.0
31
0
0
LINE
8
cut
10
107017.5
20
45360.0
30
0
11
107017.5
21
45240.0
31
0
0
LINE
8
cut
10
107017.5
20
45360.0
30
0
11
110420.0
21
45360.0
31
0
0
LINE
8
cut
10
107017.5
20
45240.0
30
0
11
110420.0
21
45240.0
31
0
0
LINE
8
cut
10
110420.0
20
45360.0
30
0
11
110420.0
21
45240.0
31
0
0
LINE
8
cut
10
53440.0
20
45279.99999999999
30
0
11
53440.0
21
44960.0
31
0
0
LINE
8
cut
10
53440.0
20
45279.99999999999
30
0
11
53560.0
21
45279.99999999999
31
0
0
LINE
8
cut
10
53440.0
20
44960.0
30
0
11
53560.0
21
44960.0
31
0
0
LINE
8
cut
10
53560.0
20
45279.99999999999
30
0
11
53560.0
21
44960.0
31
0
0
LINE
8
cut
10
57002.5
20
45279.99999999999
30
0
11
57002.5
21
44960.0
31
0
0
LINE
8
cut
10
57002.5
20
45279.99999999999
30
0
11
57122.5
21
45279.99999999999
31
0
0
LINE
8
cut
10
57002.5
20
44960.0
30
0
11
57122.5
21
44960.0
31
0
0
LINE
8
cut
10
57122.5
20
45279.99999999999
30
0
11
57122.5
21
44960.0
31
0
0
LINE
8
cut
10
60565.0
20
45279.99999999999
30
0
11
60565.0
21
44960.0
31
0
0
LINE
8
cut
10
60565.0
20
45279.99999999999
30
0
11
60685.0
21
45279.99999999999
31
0
0
LINE
8
cut
10
60565.0
20
44960.0
30
0
11
60685.0
21
44960.0
31
0
0
LINE
8
cut
10
60685.0
20
45279.99999999999
30
0
11
60685.0
21
44960.0
31
0
0
LINE
8
cut
10
64127.5
20
45279.99999999999
30
0
11
64127.5
21
44960.0
31
0
0
LINE
8
cut
10
64127.5
20
45279.99999999999
30
0
11
64247.5
21
45279.99999999999
31
0
0
LINE
8
cut
10
64127.5
20
44960.0
30
0
11
64247.5
21
44960.0
31
0
0
LINE
8
cut
10
64247.5
20
45279.99999999999
30
0
11
64247.5
21
44960.0
31
0
0
LINE
8
cut
10
67690.0
20
45279.99999999999
30
0
11
67690.0
21
44960.0
31
0
0
LINE
8
cut
10
67690.0
20
45279.99999999999
30
0
11
67810.0
21
45279.99999999999
31
0
0
LINE
8
cut
10
67690.0
20
44960.0
30
0
11
67810.0
21
44960.0
31
0
0
LINE
8
cut
10
67810.0
20
45279.99999999999
30
0
11
67810.0
21
44960.0
31
0
0
LINE
8
cut
10
71252.5
20
45279.99999999999
30
0
11
71252.5
21
44960.0
31
0
0
LINE
8
cut
10
71252.5
20
45279.99999999999
30
0
11
71372.5
21
45279.99999999999
31
0
0
LINE
8
cut
10
71252.5
20
44960.0
30
0
11
71372.5
21
44960.0
31
0
0
LINE
8
cut
10
71372.5
20
45279.99999999999
30
0
11
71372.5
21
44960.0
31
0
0
LINE
8
cut
10
74815.0
20
45279.99999999999
30
0
11
74815.0
21
44960.0
31
0
0
LINE
8
cut
10
74815.0
20
45279.99999999999
30
0
11
74935.0
21
45279.99999999999
31
0
0
LINE
8
cut
10
74815.0
20
44960.0
30
0
11
74935.0
21
44960.0
31
0
0
LINE
8
cut
10
74935.0
20
45279.99999999999
30
0
11
74935.0
21
44960.0
31
0
0
LINE
8
cut
10
78377.5
20
45279.99999999999
30
0
11
78377.5
21
44960.0
31
0
0
LINE
8
cut
10
78377.5
20
45279.99999999999
30
0
11
78497.5
21
45279.99999999999
31
0
0
LINE
8
cut
10
78377.5
20
44960.0
30
0
11
78497.5
21
44960.0
31
0
0
LINE
8
cut
10
78497.5
20
45279.99999999999
30
0
11
78497.5
21
44960.0
31
0
0
LINE
8
cut
10
81940.0
20
45279.99999999999
30
0
11
81940.0
21
44960.0
31
0
0
LINE
8
cut
10
81940.0
20
45279.99999999999
30
0
11
82060.0
21
45279.99999999999
31
0
0
LINE
8
cut
10
81940.0
20
44960.0
30
0
11
82060.0
21
44960.0
31
0
0
LINE
8
cut
10
82060.0
20
45279.99999999999
30
0
11
82060.0
21
44960.0
31
0
0
LINE
8
cut
10
85502.5
20
45279.99999999999
30
0
11
85502.5
21
44960.0
31
0
0
LINE
8
cut
10
85502.5
20
45279.99999999999
30
0
11
85622.5
21
45279.99999999999
31
0
0
LINE
8
cut
10
85502.5
20
44960.0
30
0
11
85622.5
21
44960.0
31
0
0
LINE
8
cut
10
85622.5
20
45279.99999999999
30
0
11
85622.5
21
44960.0
31
0
0
LINE
8
cut
10
89065.0
20
45279.99999999999
30
0
11
89065.0
21
44960.0
31
0
0
LINE
8
cut
10
89065.0
20
45279.99999999999
30
0
11
89185.0
21
45279.99999999999
31
0
0
LINE
8
cut
10
89065.0
20
44960.0
30
0
11
89185.0
21
44960.0
31
0
0
LINE
8
cut
10
89185.0
20
45279.99999999999
30
0
11
89185.0
21
44960.0
31
0
0
LINE
8
cut
10
92627.5
20
45279.99999999999
30
0
11
92627.5
21
44960.0
31
0
0
LINE
8
cut
10
92627.5
20
45279.99999999999
30
0
11
92747.5
21
45279.99999999999
31
0
0
LINE
8
cut
10
92627.5
20
44960.0
30
0
11
92747.5
21
44960.0
31
0
0
LINE
8
cut
10
92747.5
20
45279.99999999999
30
0
11
92747.5
21
44960.0
31
0
0
LINE
8
cut
10
96190.0
20
45279.99999999999
30
0
11
96190.0
21
44960.0
31
0
0
LINE
8
cut
10
96190.0
20
45279.99999999999
30
0
11
96310.0
21
45279.99999999999
31
0
0
LINE
8
cut
10
96190.0
20
44960.0
30
0
11
96310.0
21
44960.0
31
0
0
LINE
8
cut
10
96310.0
20
45279.99999999999
30
0
11
96310.0
21
44960.0
31
0
0
LINE
8
cut
10
99752.5
20
45279.99999999999
30
0
11
99752.5
21
44960.0
31
0
0
LINE
8
cut
10
99752.5
20
45279.99999999999
30
0
11
99872.5
21
45279.99999999999
31
0
0
LINE
8
cut
10
99752.5
20
44960.0
30
0
11
99872.5
21
44960.0
31
0
0
LINE
8
cut
10
99872.5
20
45279.99999999999
30
0
11
99872.5
21
44960.0
31
0
0
LINE
8
cut
10
103315.00000000001
20
45279.99999999999
30
0
11
103315.00000000001
21
44960.0
31
0
0
LINE
8
cut
10
103315.00000000001
20
45279.99999999999
30
0
11
103434.99999999999
21
45279.99999999999
31
0
0
LINE
8
cut
10
103315.00000000001
20
44960.0
30
0
11
103434.99999999999
21
44960.0
31
0
0
LINE
8
cut
10
103434.99999999999
20
45279.99999999999
30
0
11
103434.99999999999
21
44960.0
31
0
0
LINE
8
cut
10
106877.50000000001
20
45279.99999999999
30
0
11
106877.50000000001
21
44960.0
31
0
0
LINE
8
cut
10
106877.50000000001
20
45279.99999999999
30
0
11
106997.49999999999
21
45279.99999999999
31
0
0
LINE
8
cut
10
106877.50000000001
20
44960.0
30
0
11
106997.49999999999
21
44960.0
31
0
0
LINE
8
cut
10
106997.49999999999
20
45279.99999999999
30
0
11
106997.49999999999
21
44960.0
31
0
0
LINE
8
cut
10
110440.00000000001
20
45279.99999999999
30
0
11
110440.00000000001
21
44960.0
31
0
0
LINE
8
cut
10
110440.00000000001
20
45279.99999999999
30
0
11
110559.99999999999
21
45279.99999999999
31
0
0
LINE
8
cut
10
110440.00000000001
20
44960.0
30
0
11
110559.99999999999
21
44960.0
31
0
0
LINE
8
cut
10
110559.99999999999
20
45279.99999999999
30
0
11
110559.99999999999
21
44960.0
31
0
0
LINE
8
cut
10
53350.0
20
84300.0
30
0
11
53350.0
21
45300.0
31
0
0
LINE
8
cut
10
53350.0
20
84300.0
30
0
11
53650.0
21
84300.0
31
0
0
LINE
8
cut
10
53350.0
20
45300.0
30
0
11
53650.0
21
45300.0
31
0
0
LINE
8
cut
10
53650.0
20
84300.0
30
0
11
53650.0
21
45300.0
31
0
0
LINE
8
cut
10
53579.99999999999
20
84360.0
30
0
11
53579.99999999999
21
84240.0
31
0
0
LINE
8
cut
10
53579.99999999999
20
84360.0
30
0
11
56982.50000000001
21
84360.0
31
0
0
LINE
8
cut
10
53579.99999999999
20
84240.0
30
0
11
56982.50000000001
21
84240.0
31
0
0
LINE
8
cut
10
56982.50000000001
20
84360.0
30
0
11
56982.50000000001
21
84240.0
31
0
0
LINE
8
cut
10
57142.49999999999
20
84360.0
30
0
11
57142.49999999999
21
84240.0
31
0
0
LINE
8
cut
10
57142.49999999999
20
84360.0
30
0
11
60545.00000000001
21
84360.0
31
0
0
LINE
8
cut
10
57142.49999999999
20
84240.0
30
0
11
60545.00000000001
21
84240.0
31
0
0
LINE
8
cut
10
60545.00000000001
20
84360.0
30
0
11
60545.00000000001
21
84240.0
31
0
0
LINE
8
cut
10
60704.99999999999
20
84360.0
30
0
11
60704.99999999999
21
84240.0
31
0
0
LINE
8
cut
10
60704.99999999999
20
84360.0
30
0
11
64107.50000000001
21
84360.0
31
0
0
LINE
8
cut
10
60704.99999999999
20
84240.0
30
0
11
64107.50000000001
21
84240.0
31
0
0
LINE
8
cut
10
64107.50000000001
20
84360.0
30
0
11
64107.50000000001
21
84240.0
31
0
0
LINE
8
cut
10
64267.49999999999
20
84360.0
30
0
11
64267.49999999999
21
84240.0
31
0
0
LINE
8
cut
10
64267.49999999999
20
84360.0
30
0
11
67670.0
21
84360.0
31
0
0
LINE
8
cut
10
64267.49999999999
20
84240.0
30
0
11
67670.0
21
84240.0
31
0
0
LINE
8
cut
10
67670.0
20
84360.0
30
0
11
67670.0
21
84240.0
31
0
0
LINE
8
cut
10
67830.0
20
84360.0
30
0
11
67830.0
21
84240.0
31
0
0
LINE
8
cut
10
67830.0
20
84360.0
30
0
11
71232.5
21
84360.0
31
0
0
LINE
8
cut
10
67830.0
20
84240.0
30
0
11
71232.5
21
84240.0
31
0
0
LINE
8
cut
10
71232.5
20
84360.0
30
0
11
71232.5
21
84240.0
31
0
0
LINE
8
cut
10
71392.5
20
84360.0
30
0
11
71392.5
21
84240.0
31
0
0
LINE
8
cut
10
71392.5
20
84360.0
30
0
11
74795.0
21
84360.0
31
0
0
LINE
8
cut
10
71392.5
20
84240.0
30
0
11
74795.0
21
84240.0
31
0
0
LINE
8
cut
10
74795.0
20
84360.0
30
0
11
74795.0
21
84240.0
31
0
0
LINE
8
cut
10
74955.0
20
84360.0
30
0
11
74955.0
21
84240.0
31
0
0
LINE
8
cut
10
74955.0
20
84360.0
30
0
11
78357.5
21
84360.0
31
0
0
LINE
8
cut
10
74955.0
20
84240.0
30
0
11
78357.5
21
84240.0
31
0
0
LINE
8
cut
10
78357.5
20
84360.0
30
0
11
78357.5
21
84240.0
31
0
0
LINE
8
cut
10
78517.5
20
84360.0
30
0
11
78517.5
21
84240.0
31
0
0
LINE
8
cut
10
78517.5
20
84360.0
30
0
11
81920.0
21
84360.0
31
0
0
LINE
8
cut
10
78517.5
20
84240.0
30
0
11
81920.0
21
84240.0
31
0
0
LINE
8
cut
10
81920.0
20
84360.0
30
0
11
81920.0
21
84240.0
31
0
0
LINE
8
cut
10
82080.0
20
84360.0
30
0
11
82080.0
21
84240.0
31
0
0
LINE
8
cut
10
82080.0
20
84360.0
30
0
11
85482.5
21
84360.0
31
0
0
LINE
8
cut
10
82080.0
20
84240.0
30
0
11
85482.5
21
84240.0
31
0
0
LINE
8
cut
10
85482.5
20
84360.0
30
0
11
85482.5
21
84240.0
31
0
0
LINE
8
cut
10
85642.5
20
84360.0
30
0
11
85642.5
21
84240.0
31
0
0
LINE
8
cut
10
85642.5
20
84360.0
30
0
11
89045.0
21
84360.0
31
0
0
LINE
8
cut
10
85642.5
20
84240.0
30
0
11
89045.0
21
84240.0
31
0
0
LINE
8
cut
10
89045.0
20
84360.0
30
0
11
89045.0
21
84240.0
31
0
0
LINE
8
cut
10
89205.0
20
84360.0
30
0
11
89205.0
21
84240.0
31
0
0
LINE
8
cut
10
89205.0
20
84360.0
30
0
11
92607.5
21
84360.0
31
0
0
LINE
8
cut
10
89205.0
20
84240.0
30
0
11
92607.5
21
84240.0
31
0
0
LINE
8
cut
10
92607.5
20
84360.0
30
0
11
92607.5
21
84240.0
31
0
0
LINE
8
cut
10
92767.5
20
84360.0
30
0
11
92767.5
21
84240.0
31
0
0
LINE
8
cut
10
92767.5
20
84360.0
30
0
11
96170.0
21
84360.0
31
0
0
LINE
8
cut
10
92767.5
20
84240.0
30
0
11
96170.0
21
84240.0
31
0
0
LINE
8
cut
10
96170.0
20
84360.0
30
0
11
96170.0
21
84240.0
31
0
0
LINE
8
cut
10
96330.0
20
84360.0
30
0
11
96330.0
21
84240.0
31
0
0
LINE
8
cut
10
96330.0
20
84360.0
30
0
11
99732.5
21
84360.0
31
0
0
LINE
8
cut
10
96330.0
20
84240.0
30
0
11
99732.5
21
84240.0
31
0
0
LINE
8
cut
10
99732.5
20
84360.0
30
0
11
99732.5
21
84240.0
31
0
0
LINE
8
cut
10
99892.5
20
84360.0
30
0
11
99892.5
21
84240.0
31
0
0
LINE
8
cut
10
99892.5
20
84360.0
30
0
11
103295.0
21
84360.0
31
0
0
LINE
8
cut
10
99892.5
20
84240.0
30
0
11
103295.0
21
84240.0
31
0
0
LINE
8
cut
10
103295.0
20
84360.0
30
0
11
103295.0
21
84240.0
31
0
0
LINE
8
cut
10
103455.0
20
84360.0
30
0
11
103455.0
21
84240.0
31
0
0
LINE
8
cut
10
103455.0
20
84360.0
30
0
11
106857.5
21
84360.0
31
0
0
LINE
8
cut
10
103455.0
20
84240.0
30
0
11
106857.5
21
84240.0
31
0
0
LINE
8
cut
10
106857.5
20
84360.0
30
0
11
106857.5
21
84240.0
31
0
0
LINE
8
cut
10
107017.5
20
84360.0
30
0
11
107017.5
21
84240.0
31
0
0
LINE
8
cut
10
107017.5
20
84360.0
30
0
11
110420.0
21
84360.0
31
0
0
LINE
8
cut
10
107017.5
20
84240.0
30
0
11
110420.0
21
84240.0
31
0
0
LINE
8
cut
10
110420.0
20
84360.0
30
0
11
110420.0
21
84240.0
31
0
0
LINE
8
cut
10
53440.0
20
84640.0
30
0
11
53440.0
21
84320.0
31
0
0
LINE
8
cut
10
53440.0
20
84640.0
30
0
11
53560.0
21
84640.0
31
0
0
LINE
8
cut
10
53440.0
20
84320.0
30
0
11
53560.0
21
84320.0
31
0
0
LINE
8
cut
10
53560.0
20
84640.0
30
0
11
53560.0
21
84320.0
31
0
0
LINE
8
cut
10
57002.5
20
84640.0
30
0
11
57002.5
21
84320.0
31
0
0
LINE
8
cut
10
57002.5
20
84640.0
30
0
11
57122.5
21
84640.0
31
0
0
LINE
8
cut
10
57002.5
20
84320.0
30
0
11
57122.5
21
84320.0
31
0
0
LINE
8
cut
10
57122.5
20
84640.0
30
0
11
57122.5
21
84320.0
31
0
0
LINE
8
cut
10
60565.0
20
84640.0
30
0
11
60565.0
21
84320.0
31
0
0
LINE
8
cut
10
60565.0
20
84640.0
30
0
11
60685.0
21
84640.0
31
0
0
LINE
8
cut
10
60565.0
20
84320.0
30
0
11
60685.0
21
84320.0
31
0
0
LINE
8
cut
10
60685.0
20
84640.0
30
0
11
60685.0
21
84320.0
31
0
0
LINE
8
cut
10
64127.5
20
84640.0
30
0
11
64127.5
21
84320.0
31
0
0
LINE
8
cut
10
64127.5
20
84640.0
30
0
11
64247.5
21
84640.0
31
0
0
LINE
8
cut
10
64127.5
20
84320.0
30
0
11
64247.5
21
84320.0
31
0
0
LINE
8
cut
10
64247.5
20
84640.0
30
0
11
64247.5
21
84320.0
31
0
0
LINE
8
cut
10
67690.0
20
84640.0
30
0
11
67690.0
21
84320.0
31
0
0
LINE
8
cut
10
67690.0
20
84640.0
30
0
11
67810.0
21
84640.0
31
0
0
LINE
8
cut
10
67690.0
20
84320.0
30
0
11
67810.0
21
84320.0
31
0
0
LINE
8
cut
10
67810.0
20
84640.0
30
0
11
67810.0
21
84320.0
31
0
0
LINE
8
cut
10
71252.5
20
84640.0
30
0
11
71252.5
21
84320.0
31
0
0
LINE
8
cut
10
71252.5
20
84640.0
30
0
11
71372.5
21
84640.0
31
0
0
LINE
8
cut
10
71252.5
20
84320.0
30
0
11
71372.5
21
84320.0
31
0
0
LINE
8
cut
10
71372.5
20
84640.0
30
0
11
71372.5
21
84320.0
31
0
0
LINE
8
cut
10
74815.0
20
84640.0
30
0
11
74815.0
21
84320.0
31
0
0
LINE
8
cut
10
74815.0
20
84640.0
30
0
11
74935.0
21
84640.0
31
0
0
LINE
8
cut
10
74815.0
20
84320.0
30
0
11
74935.0
21
84320.0
31
0
0
LINE
8
cut
10
74935.0
20
84640.0
30
0
11
74935.0
21
84320.0
31
0
0
LINE
8
cut
10
78377.5
20
84640.0
30
0
11
78377.5
21
84320.0
31
0
0
LINE
8
cut
10
78377.5
20
84640.0
30
0
11
78497.5
21
84640.0
31
0
0
LINE
8
cut
10
78377.5
20
84320.0
30
0
11
78497.5
21
84320.0
31
0
0
LINE
8
cut
10
78497.5
20
84640.0
30
0
11
78497.5
21
84320.0
31
0
0
LINE
8
cut
10
81940.0
20
84640.0
30
0
11
81940.0
21
84320.0
31
0
0
LINE
8
cut
10
81940.0
20
84640.0
30
0
11
82060.0
21
84640.0
31
0
0
LINE
8
cut
10
81940.0
20
84320.0
30
0
11
82060.0
21
84320.0
31
0
0
LINE
8
cut
10
82060.0
20
84640.0
30
0
11
82060.0
21
84320.0
31
0
0
LINE
8
cut
10
85502.5
20
84640.0
30
0
11
85502.5
21
84320.0
31
0
0
LINE
8
cut
10
85502.5
20
84640.0
30
0
11
85622.5
21
84640.0
31
0
0
LINE
8
cut
10
85502.5
20
84320.0
30
0
11
85622.5
21
84320.0
31
0
0
LINE
8
cut
10
85622.5
20
84640.0
30
0
11
85622.5
21
84320.0
31
0
0
LINE
8
cut
10
89065.0
20
84640.0
30
0
11
89065.0
21
84320.0
31
0
0
LINE
8
cut
10
89065.0
20
84640.0
30
0
11
89185.0
21
84640.0
31
0
0
LINE
8
cut
10
89065.0
20
84320.0
30
0
11
89185.0
21
84320.0
31
0
0
LINE
8
cut
10
89185.0
20
84640.0
30
0
11
89185.0
21
84320.0
31
0
0
LINE
8
cut
10
92627.5
20
84640.0
30
0
11
92627.5
21
84320.0
31
0
0
LINE
8
cut
10
92627.5
20
84640.0
30
0
11
92747.5
21
84640.0
31
0
0
LINE
8
cut
10
92627.5
20
84320.0
30
0
11
92747.5
21
84320.0
31
0
0
LINE
8
cut
10
92747.5
20
84640.0
30
0
11
92747.5
21
84320.0
31
0
0
LINE
8
cut
10
96190.0
20
84640.0
30
0
11
96190.0
21
84320.0
31
0
0
LINE
8
cut
10
96190.0
20
84640.0
30
0
11
96310.0
21
84640.0
31
0
0
LINE
8
cut
10
96190.0
20
84320.0
30
0
11
96310.0
21
84320.0
31
0
0
LINE
8
cut
10
96310.0
20
84640.0
30
0
11
96310.0
21
84320.0
31
0
0
LINE
8
cut
10
99752.5
20
84640.0
30
0
11
99752.5
21
84320.0
31
0
0
LINE
8
cut
10
99752.5
20
84640.0
30
0
11
99872.5
21
84640.0
31
0
0
LINE
8
cut
10
99752.5
20
84320.0
30
0
11
99872.5
21
84320.0
31
0
0
LINE
8
cut
10
99872.5
20
84640.0
30
0
11
99872.5
21
84320.0
31
0
0
LINE
8
cut
10
103315.00000000001
20
84640.0
30
0
11
103315.00000000001
21
84320.0
31
0
0
LINE
8
cut
10
103315.00000000001
20
84640.0
30
0
11
103434.99999999999
21
84640.0
31
0
0
LINE
8
cut
10
103315.00000000001
20
84320.0
30
0
11
103434.99999999999
21
84320.0
31
0
0
LINE
8
cut
10
103434.99999999999
20
84640.0
30
0
11
103434.99999999999
21
84320.0
31
0
0
LINE
8
cut
10
106877.50000000001
20
84640.0
30
0
11
106877.50000000001
21
84320.0
31
0
0
LINE
8
cut
10
106877.50000000001
20
84640.0
30
0
11
106997.49999999999
21
84640.0
31
0
0
LINE
8
cut
10
106877.50000000001
20
84320.0
30
0
11
106997.49999999999
21
84320.0
31
0
0
LINE
8
cut
10
106997.49999999999
20
84640.0
30
0
11
106997.49999999999
21
84320.0
31
0
0
LINE
8
cut
10
110440.00000000001
20
84640.0
30
0
11
110440.00000000001
21
84320.0
31
0
0
LINE
8
cut
10
110440.00000000001
20
84640.0
30
0
11
110559.99999999999
21
84640.0
31
0
0
LINE
8
cut
10
110440.00000000001
20
84320.0
30
0
11
110559.99999999999
21
84320.0
31
0
0
LINE
8
cut
10
110559.99999999999
20
84640.0
30
0
11
110559.99999999999
21
84320.0
31
0
0
LINE
8
cut
10
110350.0
20
84300.0
30
0
11
110350.0
21
45300.0
31
0
0
LINE
8
cut
10
110350.0
20
84300.0
30
0
11
110650.0
21
84300.0
31
0
0
LINE
8
cut
10
110350.0
20
45300.0
30
0
11
110650.0
21
45300.0
31
0
0
LINE
8
cut
10
110650.0
20
84300.0
30
0
11
110650.0
21
45300.0
31
0
0
LINE
8
interiors
10
70520.0
20
47300.0
30
0
11
70520.0
21
82300.0
31
0
0
LINE
8
interiors
10
70680.0
20
47300.0
30
0
11
70680.0
21
82300.0
31
0
0
LINE
8
interiors
10
70520.0
20
47300.0
30
0
11
70680.0
21
47300.0
31
0
0
LINE
8
interiors
10
70520.0
20
82300.0
30
0
11
70680.0
21
82300.0
31
0
0
LINE
8
interiors
10
93320.0
20
47300.0
30
0
11
93320.0
21
82300.0
31
0
0
LINE
8
interiors
10
93480.0
20
47300.0
30
0
11
93480.0
21
82300.0
31
0
0
LINE
8
interiors
10
93320.0
20
47300.0
30
0
11
93480.0
21
47300.0
31
0
0
LINE
8
interiors
10
93320.0
20
82300.0
30
0
11
93480.0
21
82300.0
31
0
0
LINE
8
cut
10
24075.0
20
49725.0
30
0
11
24075.0
21
48875.0
31
0
0
LINE
8
cut
10
24075.0
20
49725.0
30
0
11
24925.0
21
49725.0
31
0
0
LINE
8
cut
10
24075.0
20
48875.0
30
0
11
24925.0
21
48875.0
31
0
0
LINE
8
cut
10
24925.0
20
49725.0
30
0
11
24925.0
21
48875.0
31
0
0
LINE
8
cut
10
33075.0
20
49725.0
30
0
11
33075.0
21
48875.0
31
0
0
LINE
8
cut
10
33075.0
20
49725.0
30
0
11
33925.0
21
49725.0
31
0
0
LINE
8
cut
10
33075.0
20
48875.0
30
0
11
33925.0
21
48875.0
31
0
0
LINE
8
cut
10
33925.0
20
49725.0
30
0
11
33925.0
21
48875.0
31
0
0
LINE
8
cut
10
42075.0
20
49725.0
30
0
11
42075.0
21
48875.0
31
0
0
LINE
8
cut
10
42075.0
20
49725.0
30
0
11
42925.0
21
49725.0
31
0
0
LINE
8
cut
10
42075.0
20
48875.0
30
0
11
42925.0
21
48875.0
31
0
0
LINE
8
cut
10
42925.0
20
49725.0
30
0
11
42925.0
21
48875.0
31
0
0
LINE
8
cut
10
51075.0
20
49725.0
30
0
11
51075.0
21
48875.0
31
0
0
LINE
8
cut
10
51075.0
20
49725.0
30
0
11
51925.0
21
49725.0
31
0
0
LINE
8
cut
10
51075.0
20
48875.0
30
0
11
51925.0
21
48875.0
31
0
0
LINE
8
cut
10
51925.0
20
49725.0
30
0
11
51925.0
21
48875.0
31
0
0
LINE
8
cut
10
24075.0
20
65225.0
30
0
11
24075.0
21
64375.0
31
0
0
LINE
8
cut
10
24075.0
20
65225.0
30
0
11
24925.0
21
65225.0
31
0
0
LINE
8
cut
10
24075.0
20
64375.0
30
0
11
24925.0
21
64375.0
31
0
0
LINE
8
cut
10
24925.0
20
65225.0
30
0
11
24925.0
21
64375.0
31
0
0
LINE
8
cut
10
33075.0
20
65225.0
30
0
11
33075.0
21
64375.0
31
0
0
LINE
8
cut
10
33075.0
20
65225.0
30
0
11
33925.0
21
65225.0
31
0
0
LINE
8
cut
10
33075.0
20
64375.0
30
0
11
33925.0
21
64375.0
31
0
0
LINE
8
cut
10
33925.0
20
65225.0
30
0
11
33925.0
21
64375.0
31
0
0
LINE
8
cut
10
42075.0
20
65225.0
30
0
11
42075.0
21
64375.0
31
0
0
LINE
8
cut
10
42075.0
20
65225.0
30
0
11
42925.0
21
65225.0
31
0
0
LINE
8
cut
10
42075.0
20
64375.0
30
0
11
42925.0
21
64375.0
31
0
0
LINE
8
cut
10
42925.0
20
65225.0
30
0
11
42925.0
21
64375.0
31
0
0
LINE
8
cut
10
51075.0
20
65225.0
30
0
11
51075.0
21
64375.0
31
0
0
LINE
8
cut
10
51075.0
20
65225.0
30
0
11
51925.0
21
65225.0
31
0
0
LINE
8
cut
10
51075.0
20
64375.0
30
0
11
51925.0
21
64375.0
31
0
0
LINE
8
cut
10
51925.0
20
65225.0
30
0
11
51925.0
21
64375.0
31
0
0
LINE
8
cut
10
24075.0
20
80725.0
30
0
11
24075.0
21
79875.0
31
0
0
LINE
8
cut
10
24075.0
20
80725.0
30
0
11
24925.0
21
80725.0
31
0
0
LINE
8
cut
10
24075.0
20
79875.0
30
0
11
24925.0
21
79875.0
31
0
0
LINE
8
cut
10
24925.0
20
80725.0
30
0
11
24925.0
21
79875.0
31
0
0
LINE
8
cut
10
33075.0
20
80725.0
30
0
11
33075.0
21
79875.0
31
0
0
LINE
8
cut
10
33075.0
20
80725.0
30
0
11
33925.0
21
80725.0
31
0
0
LINE
8
cut
10
33075.0
20
79875.0
30
0
11
33925.0
21
79875.0
31
0
0
LINE
8
cut
10
33925.0
20
80725.0
30
0
11
33925.0
21
79875.0
31
0
0
LINE
8
cut
10
42075.0
20
80725.0
30
0
11
42075.0
21
79875.0
31
0
0
LINE
8
cut
10
42075.0
20
80725.0
30
0
11
42925.0
21
80725.0
31
0
0
LINE
8
cut
10
42075.0
20
79875.0
30
0
11
42925.0
21
79875.0
31
0
0
LINE
8
cut
10
42925.0
20
80725.0
30
0
11
42925.0
21
79875.0
31
0
0
LINE
8
cut
10
51075.0
20
80725.0
30
0
11
51075.0
21
79875.0
31
0
0
LINE
8
cut
10
51075.0
20
80725.0
30
0
11
51925.0
21
80725.0
31
0
0
LINE
8
cut
10
51075.0
20
79875.0
30
0
11
51925.0
21
79875.0
31
0
0
LINE
8
cut
10
51925.0
20
80725.0
30
0
11
51925.0
21
79875.0
31
0
0
LINE
8
cut
10
23079.999999999996
20
47860.0
30
0
11
23079.999999999996
21
47740.0
31
0
0
LINE
8
cut
10
23079.999999999996
20
47860.0
30
0
11
26253.330000000005
21
47860.0
31
0
0
LINE
8
cut
10
23079.999999999996
20
47740.0
30
0
11
26253.330000000005
21
47740.0
31
0
0
LINE
8
cut
10
26253.330000000005
20
47860.0
30
0
11
26253.330000000005
21
47740.0
31
0
0
LINE
8
cut
10
26413.329999999994
20
47860.0
30
0
11
26413.329999999994
21
47740.0
31
0
0
LINE
8
cut
10
26413.329999999994
20
47860.0
30
0
11
29586.670000000006
21
47860.0
31
0
0
LINE
8
cut
10
26413.329999999994
20
47740.0
30
0
11
29586.670000000006
21
47740.0
31
0
0
LINE
8
cut
10
29586.670000000006
20
47860.0
30
0
11
29586.670000000006
21
47740.0
31
0
0
LINE
8
cut
10
29746.669999999995
20
47860.0
30
0
11
29746.669999999995
21
47740.0
31
0
0
LINE
8
cut
10
29746.669999999995
20
47860.0
30
0
11
32920.0
21
47860.0
31
0
0
LINE
8
cut
10
29746.669999999995
20
47740.0
30
0
11
32920.0
21
47740.0
31
0
0
LINE
8
cut
10
32920.0
20
47860.0
30
0
11
32920.0
21
47740.0
31
0
0
LINE
8
cut
10
33080.0
20
47860.0
30
0
11
33080.0
21
47740.0
31
0
0
LINE
8
cut
10
33080.0
20
47860.0
30
0
11
36253.33
21
47860.0
31
0
0
LINE
8
cut
10
33080.0
20
47740.0
30
0
11
36253.33
21
47740.0
31
0
0
LINE
8
cut
10
36253.33
20
47860.0
30
0
11
36253.33
21
47740.0
31
0
0
LINE
8
cut
10
36413.33
20
47860.0
30
0
11
36413.33
21
47740.0
31
0
0
LINE
8
cut
10
36413.33
20
47860.0
30
0
11
39586.67
21
47860.0
31
0
0
LINE
8
cut
10
36413.33
20
47740.0
30
0
11
39586.67
21
47740.0
31
0
0
LINE
8
cut
10
39586.67
20
47860.0
30
0
11
39586.67
21
47740.0
31
0
0
LINE
8
cut
10
39746.67
20
47860.0
30
0
11
39746.67
21
47740.0
31
0
0
LINE
8
cut
10
39746.67
20
47860.0
30
0
11
42920.0
21
47860.0
31
0
0
LINE
8
cut
10
39746.67
20
47740.0
30
0
11
42920.0
21
47740.0
31
0
0
LINE
8
cut
10
42920.0
20
47860.0
30
0
11
42920.0
21
47740.0
31
0
0
LINE
8
cut
10
43080.0
20
47860.0
30
0
11
43080.0
21
47740.0
31
0
0
LINE
8
cut
10
43080.0
20
47860.0
30
0
11
46253.33
21
47860.0
31
0
0
LINE
8
cut
10
43080.0
20
47740.0
30
0
11
46253.33
21
47740.0
31
0
0
LINE
8
cut
10
46253.33
20
47860.0
30
0
11
46253.33
21
47740.0
31
0
0
LINE
8
cut
10
46413.33
20
47860.0
30
0
11
46413.33
21
47740.0
31
0
0
LINE
8
cut
10
46413.33
20
47860.0
30
0
11
49586.67
21
47860.0
31
0
0
LINE
8
cut
10
46413.33
20
47740.0
30
0
11
49586.67
21
47740.0
31
0
0
LINE
8
cut
10
49586.67
20
47860.0
30
0
11
49586.67
21
47740.0
31
0
0
LINE
8
cut
10
49746.67
20
47860.0
30
0
11
49746.67
21
47740.0
31
0
0
LINE
8
cut
10
49746.67
20
47860.0
30
0
11
52920.00000000001
21
47860.0
31
0
0
LINE
8
cut
10
49746.67
20
47740.0
30
0
11
52920.00000000001
21
47740.0
31
0
0
LINE
8
cut
10
52920.00000000001
20
47860.0
30
0
11
52920.00000000001
21
47740.0
31
0
0
LINE
8
cut
10
22939.999999999996
20
47779.99999999999
30
0
11
22939.999999999996
21
47460.0
31
0
0
LINE
8
cut
10
22939.999999999996
20
47779.99999999999
30
0
11
23060.000000000004
21
47779.99999999999
31
0
0
LINE
8
cut
10
22939.999999999996
20
47460.0
30
0
11
23060.000000000004
21
47460.0
31
0
0
LINE
8
cut
10
23060.000000000004
20
47779.99999999999
30
0
11
23060.000000000004
21
47460.0
31
0
0
LINE
8
cut
10
26273.329999999998
20
47779.99999999999
30
0
11
26273.329999999998
21
47460.0
31
0
0
LINE
8
cut
10
26273.329999999998
20
47779.99999999999
30
0
11
26393.33
21
47779.99999999999
31
0
0
LINE
8
cut
10
26273.329999999998
20
47460.0
30
0
11
26393.33
21
47460.0
31
0
0
LINE
8
cut
10
26393.33
20
47779.99999999999
30
0
11
26393.33
21
47460.0
31
0
0
LINE
8
cut
10
29606.67
20
47779.99999999999
30
0
11
29606.67
21
47460.0
31
0
0
LINE
8
cut
10
29606.67
20
47779.99999999999
30
0
11
29726.670000000002
21
47779.99999999999
31
0
0
LINE
8
cut
10
29606.67
20
47460.0
30
0
11
29726.670000000002
21
47460.0
31
0
0
LINE
8
cut
10
29726.670000000002
20
47779.99999999999
30
0
11
29726.670000000002
21
47460.0
31
0
0
LINE
8
cut
10
32940.0
20
47779.99999999999
30
0
11
32940.0
21
47460.0
31
0
0
LINE
8
cut
10
32940.0
20
47779.99999999999
30
0
11
33060.0
21
47779.99999999999
31
0
0
LINE
8
cut
10
32940.0
20
47460.0
30
0
11
33060.0
21
47460.0
31
0
0
LINE
8
cut
10
33060.0
20
47779.99999999999
30
0
11
33060.0
21
47460.0
31
0
0
LINE
8
cut
10
36273.33
20
47779.99999999999
30
0
11
36273.33
21
47460.0
31
0
0
LINE
8
cut
10
36273.33
20
47779.99999999999
30
0
11
36393.33
21
47779.99999999999
31
0
0
LINE
8
cut
10
36273.33
20
47460.0
30
0
11
36393.33
21
47460.0
31
0
0
LINE
8
cut
10
36393.33
20
47779.99999999999
30
0
11
36393.33
21
47460.0
31
0
0
LINE
8
cut
10
39606.67
20
47779.99999999999
30
0
11
39606.67
21
47460.0
31
0
0
LINE
8
cut
10
39606.67
20
47779.99999999999
30
0
11
39726.67
21
47779.99999999999
31
0
0
LINE
8
cut
10
39606.67
20
47460.0
30
0
11
39726.67
21
47460.0
31
0
0
LINE
8
cut
10
39726.67
20
47779.99999999999
30
0
11
39726.67
21
47460.0
31
0
0
LINE
8
cut
10
42940.0
20
47779.99999999999
30
0
11
42940.0
21
47460.0
31
0
0
LINE
8
cut
10
42940.0
20
47779.99999999999
30
0
11
43060.0
21
47779.99999999999
31
0
0
LINE
8
cut
10
42940.0
20
47460.0
30
0
11
43060.0
21
47460.0
31
0
0
LINE
8
cut
10
43060.0
20
47779.99999999999
30
0
11
43060.0
21
47460.0
31
0
0
LINE
8
cut
10
46273.33
20
47779.99999999999
30
0
11
46273.33
21
47460.0
31
0
0
LINE
8
cut
10
46273.33
20
47779.99999999999
30
0
11
46393.33
21
47779.99999999999
31
0
0
LINE
8
cut
10
46273.33
20
47460.0
30
0
11
46393.33
21
47460.0
31
0
0
LINE
8
cut
10
46393.33
20
47779.99999999999
30
0
11
46393.33
21
47460.0
31
0
0
LINE
8
cut
10
49606.67
20
47779.99999999999
30
0
11
49606.67
21
47460.0
31
0
0
LINE
8
cut
10
49606.67
20
47779.99999999999
30
0
11
49726.67
21
47779.99999999999
31
0
0
LINE
8
cut
10
49606.67
20
47460.0
30
0
11
49726.67
21
47460.0
31
0
0
LINE
8
cut
10
49726.67
20
47779.99999999999
30
0
11
49726.67
21
47460.0
31
0
0
LINE
8
cut
10
52940.0
20
47779.99999999999
30
0
11
52940.0
21
47460.0
31
0
0
LINE
8
cut
10
52940.0
20
47779.99999999999
30
0
11
53060.0
21
47779.99999999999
31
0
0
LINE
8
cut
10
52940.0
20
47460.0
30
0
11
53060.0
21
47460.0
31
0
0
LINE
8
cut
10
53060.0
20
47779.99999999999
30
0
11
53060.0
21
47460.0
31
0
0
LINE
8
cut
10
22850.0
20
81800.0
30
0
11
22850.0
21
47800.0
31
0
0
LINE
8
cut
10
22850.0
20
81800.0
30
0
11
23150.0
21
81800.0
31
0
0
LINE
8
cut
10
22850.0
20
47800.0
30
0
11
23150.0
21
47800.0
31
0
0
LINE
8
cut
10
23150.0
20
81800.0
30
0
11
23150.0
21
47800.0
31
0
0
LINE
8
cut
10
23079.999999999996
20
81860.0
30
0
11
23079.999999999996
21
81740.0
31
0
0
LINE
8
cut
10
23079.999999999996
20
81860.0
30
0
11
26253.330000000005
21
81860.0
31
0
0
LINE
8
cut
10
23079.999999999996
20
81740.0
30
0
11
26253.330000000005
21
81740.0
31
0
0
LINE
8
cut
10
26253.330000000005
20
81860.0
30
0
11
26253.330000000005
21
81740.0
31
0
0
LINE
8
cut
10
26413.329999999994
20
81860.0
30
0
11
26413.329999999994
21
81740.0
31
0
0
LINE
8
cut
10
26413.329999999994
20
81860.0
30
0
11
29586.670000000006
21
81860.0
31
0
0
LINE
8
cut
10
26413.329999999994
20
81740.0
30
0
11
29586.670000000006
21
81740.0
31
0
0
LINE
8
cut
10
29586.670000000006
20
81860.0
30
0
11
29586.670000000006
21
81740.0
31
0
0
LINE
8
cut
10
29746.669999999995
20
81860.0
30
0
11
29746.669999999995
21
81740.0
31
0
0
LINE
8
cut
10
29746.669999999995
20
81860.0
30
0
11
32920.0
21
81860.0
31
0
0
LINE
8
cut
10
29746.669999999995
20
81740.0
30
0
11
32920.0
21
81740.0
31
0
0
LINE
8
cut
10
32920.0
20
81860.0
30
0
11
32920.0
21
81740.0
31
0
0
LINE
8
cut
10
33080.0
20
81860.0
30
0
11
33080.0
21
81740.0
31
0
0
LINE
8
cut
10
33080.0
20
81860.0
30
0
11
36253.33
21
81860.0
31
0
0
LINE
8
cut
10
33080.0
20
81740.0
30
0
11
36253.33
21
81740.0
31
0
0
LINE
8
cut
10
36253.33
20
81860.0
30
0
11
36253.33
21
81740.0
31
0
0
LINE
8
cut
10
36413.33
20
81860.0
30
0
11
36413.33
21
81740.0
31
0
0
LINE
8
cut
10
36413.33
20
81860.0
30
0
11
39586.67
21
81860.0
31
0
0
LINE
8
cut
10
36413.33
20
81740.0
30
0
11
39586.67
21
81740.0
31
0
0
LINE
8
cut
10
39586.67
20
81860.0
30
0
11
39586.67
21
81740.0
31
0
0
LINE
8
cut
10
39746.67
20
81860.0
30
0
11
39746.67
21
81740.0
31
0
0
LINE
8
cut
10
39746.67
20
81860.0
30
0
11
42920.0
21
81860.0
31
0
0
LINE
8
cut
10
39746.67
20
81740.0
30
0
11
42920.0
21
81740.0
31
0
0
LINE
8
cut
10
42920.0
20
81860.0
30
0
11
42920.0
21
81740.0
31
0
0
LINE
8
cut
10
43080.0
20
81860.0
30
0
11
43080.0
21
81740.0
31
0
0
LINE
8
cut
10
43080.0
20
81860.0
30
0
11
46253.33
21
81860.0
31
0
0
LINE
8
cut
10
43080.0
20
81740.0
30
0
11
46253.33
21
81740.0
31
0
0
LINE
8
cut
10
46253.33
20
81860.0
30
0
11
46253.33
21
81740.0
31
0
0
LINE
8
cut
10
46413.33
20
81860.0
30
0
11
46413.33
21
81740.0
31
0
0
LINE
8
cut
10
46413.33
20
81860.0
30
0
11
49586.67
21
81860.0
31
0
0
LINE
8
cut
10
46413.33
20
81740.0
30
0
11
49586.67
21
81740.0
31
0
0
LINE
8
cut
10
49586.67
20
81860.0
30
0
11
49586.67
21
81740.0
31
0
0
LINE
8
cut
10
49746.67
20
81860.0
30
0
11
49746.67
21
81740.0
31
0
0
LINE
8
cut
10
49746.67
20
81860.0
30
0
11
52920.00000000001
21
81860.0
31
0
0
LINE
8
cut
10
49746.67
20
81740.0
30
0
11
52920.00000000001
21
81740.0
31
0
0
LINE
8
cut
10
52920.00000000001
20
81860.0
30
0
11
52920.00000000001
21
81740.0
31
0
0
LINE
8
cut
10
22939.999999999996
20
82140.0
30
0
11
22939.999999999996
21
81820.0
31
0
0
LINE
8
cut
10
22939.999999999996
20
82140.0
30
0
11
23060.000000000004
21
82140.0
31
0
0
LINE
8
cut
10
22939.999999999996
20
81820.0
30
0
11
23060.000000000004
21
81820.0
31
0
0
LINE
8
cut
10
23060.000000000004
20
82140.0
30
0
11
23060.000000000004
21
81820.0
31
0
0
LINE
8
cut
10
26273.329999999998
20
82140.0
30
0
11
26273.329999999998
21
81820.0
31
0
0
LINE
8
cut
10
26273.329999999998
20
82140.0
30
0
11
26393.33
21
82140.0
31
0
0
LINE
8
cut
10
26273.329999999998
20
81820.0
30
0
11
26393.33
21
81820.0
31
0
0
LINE
8
cut
10
26393.33
20
82140.0
30
0
11
26393.33
21
81820.0
31
0
0
LINE
8
cut
10
29606.67
20
82140.0
30
0
11
29606.67
21
81820.0
31
0
0
LINE
8
cut
10
29606.67
20
82140.0
30
0
11
29726.670000000002
21
82140.0
31
0
0
LINE
8
cut
10
29606.67
20
81820.0
30
0
11
29726.670000000002
21
81820.0
31
0
0
LINE
8
cut
10
29726.670000000002
20
82140.0
30
0
11
29726.670000000002
21
81820.0
31
0
0
LINE
8
cut
10
32940.0
20
82140.0
30
0
11
32940.0
21
81820.0
31
0
0
LINE
8
cut
10
32940.0
20
82140.0
30
0
11
33060.0
21
82140.0
31
0
0
LINE
8
cut
10
32940.0
20
81820.0
30
0
11
33060.0
21
81820.0
31
0
0
LINE
8
cut
10
33060.0
20
82140.0
30
0
11
33060.0
21
81820.0
31
0
0
LINE
8
cut
10
36273.33
20
82140.0
30
0
11
36273.33
21
81820.0
31
0
0
LINE
8
cut
10
36273.33
20
82140.0
30
0
11
36393.33
21
82140.0
31
0
0
LINE
8
cut
10
36273.33
20
81820.0
30
0
11
36393.33
21
81820.0
31
0
0
LINE
8
cut
10
36393.33
20
82140.0
30
0
11
36393.33
21
81820.0
31
0
0
LINE
8
cut
10
39606.67
20
82140.0
30
0
11
39606.67
21
81820.0
31
0
0
LINE
8
cut
10
39606.67
20
82140.0
30
0
11
39726.67
21
82140.0
31
0
0
LINE
8
cut
10
39606.67
20
81820.0
30
0
11
39726.67
21
81820.0
31
0
0
LINE
8
cut
10
39726.67
20
82140.0
30
0
11
39726.67
21
81820.0
31
0
0
LINE
8
cut
10
42940.0
20
82140.0
30
0
11
42940.0
21
81820.0
31
0
0
LINE
8
cut
10
42940.0
20
82140.0
30
0
11
43060.0
21
82140.0
31
0
0
LINE
8
cut
10
42940.0
20
81820.0
30
0
11
43060.0
21
81820.0
31
0
0
LINE
8
cut
10
43060.0
20
82140.0
30
0
11
43060.0
21
81820.0
31
0
0
LINE
8
cut
10
46273.33
20
82140.0
30
0
11
46273.33
21
81820.0
31
0
0
LINE
8
cut
10
46273.33
20
82140.0
30
0
11
46393.33
21
82140.0
31
0
0
LINE
8
cut
10
46273.33
20
81820.0
30
0
11
46393.33
21
81820.0
31
0
0
LINE
8
cut
10
46393.33
20
82140.0
30
0
11
46393.33
21
81820.0
31
0
0
LINE
8
cut
10
49606.67
20
82140.0
30
0
11
49606.67
21
81820.0
31
0
0
LINE
8
cut
10
49606.67
20
82140.0
30
0
11
49726.67
21
82140.0
31
0
0
LINE
8
cut
10
49606.67
20
81820.0
30
0
11
49726.67
21
81820.0
31
0
0
LINE
8
cut
10
49726.67
20
82140.0
30
0
11
49726.67
21
81820.0
31
0
0
LINE
8
cut
10
52940.0
20
82140.0
30
0
11
52940.0
21
81820.0
31
0
0
LINE
8
cut
10
52940.0
20
82140.0
30
0
11
53060.0
21
82140.0
31
0
0
LINE
8
cut
10
52940.0
20
81820.0
30
0
11
53060.0
21
81820.0
31
0
0
LINE
8
cut
10
53060.0
20
82140.0
30
0
11
53060.0
21
81820.0
31
0
0
LINE
8
cut
10
52850.0
20
81800.0
30
0
11
52850.0
21
47800.0
31
0
0
LINE
8
cut
10
52850.0
20
81800.0
30
0
11
53150.0
21
81800.0
31
0
0
LINE
8
cut
10
52850.0
20
47800.0
30
0
11
53150.0
21
47800.0
31
0
0
LINE
8
cut
10
53150.0
20
81800.0
30
0
11
53150.0
21
47800.0
31
0
0
LINE
8
interiors
10
31920.0
20
49800.0
30
0
11
31920.0
21
79800.0
31
0
0
LINE
8
interiors
10
32080.0
20
49800.0
30
0
11
32080.0
21
79800.0
31
0
0
LINE
8
interiors
10
31920.0
20
49800.0
30
0
11
32080.0
21
49800.0
31
0
0
LINE
8
interiors
10
31920.0
20
79800.0
30
0
11
32080.0
21
79800.0
31
0
0
LINE
8
interiors
10
43920.0
20
49800.0
30
0
11
43920.0
21
79800.0
31
0
0
LINE
8
interiors
10
44080.0
20
49800.0
30
0
11
44080.0
21
79800.0
31
0
0
LINE
8
interiors
10
43920.0
20
49800.0
30
0
11
44080.0
21
49800.0
31
0
0
LINE
8
interiors
10
43920.0
20
79800.0
30
0
11
44080.0
21
79800.0
31
0
0
LINE
8
cut
10
112075.0
20
49725.0
30
0
11
112075.0
21
48875.0
31
0
0
LINE
8
cut
10
112075.0
20
49725.0
30
0
11
112925.0
21
49725.0
31
0
0
LINE
8
cut
10
112075.0
20
48875.0
30
0
11
112925.0
21
48875.0
31
0
0
LINE
8
cut
10
112925.0
20
49725.0
30
0
11
112925.0
21
48875.0
31
0
0
LINE
8
cut
10
121075.0
20
49725.0
30
0
11
121075.0
21
48875.0
31
0
0
LINE
8
cut
10
121075.0
20
49725.0
30
0
11
121925.0
21
49725.0
31
0
0
LINE
8
cut
10
121075.0
20
48875.0
30
0
11
121925.0
21
48875.0
31
0
0
LINE
8
cut
10
121925.0
20
49725.0
30
0
11
121925.0
21
48875.0
31
0
0
LINE
8
cut
10
130075.0
20
49725.0
30
0
11
130075.0
21
48875.0
31
0
0
LINE
8
cut
10
130075.0
20
49725.0
30
0
11
130925.0
21
49725.0
31
0
0
LINE
8
cut
10
130075.0
20
48875.0
30
0
11
130925.0
21
48875.0
31
0
0
LINE
8
cut
10
130925.0
20
49725.0
30
0
11
130925.0
21
48875.0
31
0
0
LINE
8
cut
10
139075.0
20
49725.0
30
0
11
139075.0
21
48875.0
31
0
0
LINE
8
cut
10
139075.0
20
49725.0
30
0
11
139925.0
21
49725.0
31
0
0
LINE
8
cut
10
139075.0
20
48875.0
30
0
11
139925.0
21
48875.0
31
0
0
LINE
8
cut
10
139925.0
20
49725.0
30
0
11
139925.0
21
48875.0
31
0
0
LINE
8
cut
10
112075.0
20
65225.0
30
0
11
112075.0
21
64375.0
31
0
0
LINE
8
cut
10
112075.0
20
65225.0
30
0
11
112925.0
21
65225.0
31
0
0
LINE
8
cut
10
112075.0
20
64375.0
30
0
11
112925.0
21
64375.0
31
0
0
LINE
8
cut
10
112925.0
20
65225.0
30
0
11
112925.0
21
64375.0
31
0
0
LINE
8
cut
10
121075.0
20
65225.0
30
0
11
121075.0
21
64375.0
31
0
0
LINE
8
cut
10
121075.0
20
65225.0
30
0
11
121925.0
21
65225.0
31
0
0
LINE
8
cut
10
121075.0
20
64375.0
30
0
11
121925.0
21
64375.0
31
0
0
LINE
8
cut
10
121925.0
20
65225.0
30
0
11
121925.0
21
64375.0
31
0
0
LINE
8
cut
10
130075.0
20
65225.0
30
0
11
130075.0
21
64375.0
31
0
0
LINE
8
cut
10
130075.0
20
65225.0
30
0
11
130925.0
21
65225.0
31
0
0
LINE
8
cut
10
130075.0
20
64375.0
30
0
11
130925.0
21
64375.0
31
0
0
LINE
8
cut
10
130925.0
20
65225.0
30
0
11
130925.0
21
64375.0
31
0
0
LINE
8
cut
10
139075.0
20
65225.0
30
0
11
139075.0
21
64375.0
31
0
0
LINE
8
cut
10
139075.0
20
65225.0
30
0
11
139925.0
21
65225.0
31
0
0
LINE
8
cut
10
139075.0
20
64375.0
30
0
11
139925.0
21
64375.0
31
0
0
LINE
8
cut
10
139925.0
20
65225.0
30
0
11
139925.0
21
64375.0
31
0
0
LINE
8
cut
10
112075.0
20
80725.0
30
0
11
112075.0
21
79875.0
31
0
0
LINE
8
cut
10
112075.0
20
80725.0
30
0
11
112925.0
21
80725.0
31
0
0
LINE
8
cut
10
112075.0
20
79875.0
30
0
11
112925.0
21
79875.0
31
0
0
LINE
8
cut
10
112925.0
20
80725.0
30
0
11
112925.0
21
79875.0
31
0
0
LINE
8
cut
10
121075.0
20
80725.0
30
0
11
121075.0
21
79875.0
31
0
0
LINE
8
cut
10
121075.0
20
80725.0
30
0
11
121925.0
21
80725.0
31
0
0
LINE
8
cut
10
121075.0
20
79875.0
30
0
11
121925.0
21
79875.0
31
0
0
LINE
8
cut
10
121925.0
20
80725.0
30
0
11
121925.0
21
79875.0
31
0
0
LINE
8
cut
10
130075.0
20
80725.0
30
0
11
130075.0
21
79875.0
31
0
0
LINE
8
cut
10
130075.0
20
80725.0
30
0
11
130925.0
21
80725.0
31
0
0
LINE
8
cut
10
130075.0
20
79875.0
30
0
11
130925.0
21
79875.0
31
0
0
LINE
8
cut
10
130925.0
20
80725.0
30
0
11
130925.0
21
79875.0
31
0
0
LINE
8
cut
10
139075.0
20
80725.0
30
0
11
139075.0
21
79875.0
31
0
0
LINE
8
cut
10
139075.0
20
80725.0
30
0
11
139925.0
21
80725.0
31
0
0
LINE
8
cut
10
139075.0
20
79875.0
30
0
11
139925.0
21
79875.0
31
0
0
LINE
8
cut
10
139925.0
20
80725.0
30
0
11
139925.0
21
79875.0
31
0
0
LINE
8
cut
10
111080.0
20
47860.0
30
0
11
111080.0
21
47740.0
31
0
0
LINE
8
cut
10
111080.0
20
47860.0
30
0
11
114253.33
21
47860.0
31
0
0
LINE
8
cut
10
111080.0
20
47740.0
30
0
11
114253.33
21
47740.0
31
0
0
LINE
8
cut
10
114253.33
20
47860.0
30
0
11
114253.33
21
47740.0
31
0
0
LINE
8
cut
10
114413.33
20
47860.0
30
0
11
114413.33
21
47740.0
31
0
0
LINE
8
cut
10
114413.33
20
47860.0
30
0
11
117586.67
21
47860.0
31
0
0
LINE
8
cut
10
114413.33
20
47740.0
30
0
11
117586.67
21
47740.0
31
0
0
LINE
8
cut
10
117586.67
20
47860.0
30
0
11
117586.67
21
47740.0
31
0
0
LINE
8
cut
10
117746.67
20
47860.0
30
0
11
117746.67
21
47740.0
31
0
0
LINE
8
cut
10
117746.67
20
47860.0
30
0
11
120920.0
21
47860.0
31
0
0
LINE
8
cut
10
117746.67
20
47740.0
30
0
11
120920.0
21
47740.0
31
0
0
LINE
8
cut
10
120920.0
20
47860.0
30
0
11
120920.0
21
47740.0
31
0
0
LINE
8
cut
10
121080.0
20
47860.0
30
0
11
121080.0
21
47740.0
31
0
0
LINE
8
cut
10
121080.0
20
47860.0
30
0
11
124253.33
21
47860.0
31
0
0
LINE
8
cut
10
121080.0
20
47740.0
30
0
11
124253.33
21
47740.0
31
0
0
LINE
8
cut
10
124253.33
20
47860.0
30
0
11
124253.33
21
47740.0
31
0
0
LINE
8
cut
10
124413.33
20
47860.0
30
0
11
124413.33
21
47740.0
31
0
0
LINE
8
cut
10
124413.33
20
47860.0
30
0
11
127586.67
21
47860.0
31
0
0
LINE
8
cut
10
124413.33
20
47740.0
30
0
11
127586.67
21
47740.0
31
0
0
LINE
8
cut
10
127586.67
20
47860.0
30
0
11
127586.67
21
47740.0
31
0
0
LINE
8
cut
10
127746.67
20
47860.0
30
0
11
127746.67
21
47740.0
31
0
0
LINE
8
cut
10
127746.67
20
47860.0
30
0
11
130920.0
21
47860.0
31
0
0
LINE
8
cut
10
127746.67
20
47740.0
30
0
11
130920.0
21
47740.0
31
0
0
LINE
8
cut
10
130920.0
20
47860.0
30
0
11
130920.0
21
47740.0
31
0
0
LINE
8
cut
10
131080.0
20
47860.0
30
0
11
131080.0
21
47740.0
31
0
0
LINE
8
cut
10
131080.0
20
47860.0
30
0
11
134253.33000000002
21
47860.0
31
0
0
LINE
8
cut
10
131080.0
20
47740.0
30
0
11
134253.33000000002
21
47740.0
31
0
0
LINE
8
cut
10
134253.33000000002
20
47860.0
30
0
11
134253.33000000002
21
47740.0
31
0
0
LINE
8
cut
10
134413.33
20
47860.0
30
0
11
134413.33
21
47740.0
31
0
0
LINE
8
cut
10
134413.33
20
47860.0
30
0
11
137586.67
21
47860.0
31
0
0
LINE
8
cut
10
134413.33
20
47740.0
30
0
11
137586.67
21
47740.0
31
0
0
LINE
8
cut
10
137586.67
20
47860.0
30
0
11
137586.67
21
47740.0
31
0
0
LINE
8
cut
10
137746.66999999998
20
47860.0
30
0
11
137746.66999999998
21
47740.0
31
0
0
LINE
8
cut
10
137746.66999999998
20
47860.0
30
0
11
140920.0
21
47860.0
31
0
0
LINE
8
cut
10
137746.66999999998
20
47740.0
30
0
11
140920.0
21
47740.0
31
0
0
LINE
8
cut
10
140920.0
20
47860.0
30
0
11
140920.0
21
47740.0
31
0
0
LINE
8
cut
10
110940.00000000001
20
47779.99999999999
30
0
11
110940.00000000001
21
47460.0
31
0
0
LINE
8
cut
10
110940.00000000001
20
47779.99999999999
30
0
11
111059.99999999999
21
47779.99999999999
31
0
0
LINE
8
cut
10
110940.00000000001
20
47460.0
30
0
11
111059.99999999999
21
47460.0
31
0
0
LINE
8
cut
10
111059.99999999999
20
47779.99999999999
30
0
11
111059.99999999999
21
47460.0
31
0
0
LINE
8
cut
10
114273.33000000002
20
47779.99999999999
30
0
11
114273.33000000002
21
47460.0
31
0
0
LINE
8
cut
10
114273.33000000002
20
47779.99999999999
30
0
11
114393.33000000002
21
47779.99999999999
31
0
0
LINE
8
cut
10
114273.33000000002
20
47460.0
30
0
11
114393.33000000002
21
47460.0
31
0
0
LINE
8
cut
10
114393.33000000002
20
47779.99999999999
30
0
11
114393.33000000002
21
47460.0
31
0
0
LINE
8
cut
10
117606.66999999998
20
47779.99999999999
30
0
11
117606.66999999998
21
47460.0
31
0
0
LINE
8
cut
10
117606.66999999998
20
47779.99999999999
30
0
11
117726.66999999998
21
47779.99999999999
31
0
0
LINE
8
cut
10
117606.66999999998
20
47460.0
30
0
11
117726.66999999998
21
47460.0
31
0
0
LINE
8
cut
10
117726.66999999998
20
47779.99999999999
30
0
11
117726.66999999998
21
47460.0
31
0
0
LINE
8
cut
10
120940.00000000001
20
47779.99999999999
30
0
11
120940.00000000001
21
47460.0
31
0
0
LINE
8
cut
10
120940.00000000001
20
47779.99999999999
30
0
11
121059.99999999999
21
47779.99999999999
31
0
0
LINE
8
cut
10
120940.00000000001
20
47460.0
30
0
11
121059.99999999999
21
47460.0
31
0
0
LINE
8
cut
10
121059.99999999999
20
47779.99999999999
30
0
11
121059.99999999999
21
47460.0
31
0
0
LINE
8
cut
10
124273.33000000002
20
47779.99999999999
30
0
11
124273.33000000002
21
47460.0
31
0
0
LINE
8
cut
10
124273.33000000002
20
47779.99999999999
30
0
11
124393.33000000002
21
47779.99999999999
31
0
0
LINE
8
cut
10
124273.33000000002
20
47460.0
30
0
11
124393.33000000002
21
47460.0
31
0
0
LINE
8
cut
10
124393.33000000002
20
47779.99999999999
30
0
11
124393.33000000002
21
47460.0
31
0
0
LINE
8
cut
10
127606.66999999998
20
47779.99999999999
30
0
11
127606.66999999998
21
47460.0
31
0
0
LINE
8
cut
10
127606.66999999998
20
47779.99999999999
30
0
11
127726.66999999998
21
47779.99999999999
31
0
0
LINE
8
cut
10
127606.66999999998
20
47460.0
30
0
11
127726.66999999998
21
47460.0
31
0
0
LINE
8
cut
10
127726.66999999998
20
47779.99999999999
30
0
11
127726.66999999998
21
47460.0
31
0
0
LINE
8
cut
10
130940.00000000001
20
47779.99999999999
30
0
11
130940.00000000001
21
47460.0
31
0
0
LINE
8
cut
10
130940.00000000001
20
47779.99999999999
30
0
11
131059.99999999999
21
47779.99999999999
31
0
0
LINE
8
cut
10
130940.00000000001
20
47460.0
30
0
11
131059.99999999999
21
47460.0
31
0
0
LINE
8
cut
10
131059.99999999999
20
47779.99999999999
30
0
11
131059.99999999999
21
47460.0
31
0
0
LINE
8
cut
10
134273.33
20
47779.99999999999
30
0
11
134273.33
21
47460.0
31
0
0
LINE
8
cut
10
134273.33
20
47779.99999999999
30
0
11
134393.33000000002
21
47779.99999999999
31
0
0
LINE
8
cut
10
134273.33
20
47460.0
30
0
11
134393.33000000002
21
47460.0
31
0
0
LINE
8
cut
10
134393.33000000002
20
47779.99999999999
30
0
11
134393.33000000002
21
47460.0
31
0
0
LINE
8
cut
10
137606.66999999998
20
47779.99999999999
30
0
11
137606.66999999998
21
47460.0
31
0
0
LINE
8
cut
10
137606.66999999998
20
47779.99999999999
30
0
11
137726.67
21
47779.99999999999
31
0
0
LINE
8
cut
10
137606.66999999998
20
47460.0
30
0
11
137726.67
21
47460.0
31
0
0
LINE
8
cut
10
137726.67
20
47779.99999999999
30
0
11
137726.67
21
47460.0
31
0
0
LINE
8
cut
10
140940.0
20
47779.99999999999
30
0
11
140940.0
21
47460.0
31
0
0
LINE
8
cut
10
140940.0
20
47779.99999999999
30
0
11
141060.0
21
47779.99999999999
31
0
0
LINE
8
cut
10
140940.0
20
47460.0
30
0
11
141060.0
21
47460.0
31
0
0
LINE
8
cut
10
141060.0
20
47779.99999999999
30
0
11
141060.0
21
47460.0
31
0
0
LINE
8
cut
10
110850.0
20
81800.0
30
0
11
110850.0
21
47800.0
31
0
0
LINE
8
cut
10
110850.0
20
81800.0
30
0
11
111150.0
21
81800.0
31
0
0
LINE
8
cut
10
110850.0
20
47800.0
30
0
11
111150.0
21
47800.0
31
0
0
LINE
8
cut
10
111150.0
20
81800.0
30
0
11
111150.0
21
47800.0
31
0
0
LINE
8
cut
10
111080.0
20
81860.0
30
0
11
111080.0
21
81740.0
31
0
0
LINE
8
cut
10
111080.0
20
81860.0
30
0
11
114253.33
21
81860.0
31
0
0
LINE
8
cut
10
111080.0
20
81740.0
30
0
11
114253.33
21
81740.0
31
0
0
LINE
8
cut
10
114253.33
20
81860.0
30
0
11
114253.33
21
81740.0
31
0
0
LINE
8
cut
10
114413.33
20
81860.0
30
0
11
114413.33
21
81740.0
31
0
0
LINE
8
cut
10
114413.33
20
81860.0
30
0
11
117586.67
21
81860.0
31
0
0
LINE
8
cut
10
114413.33
20
81740.0
30
0
11
117586.67
21
81740.0
31
0
0
LINE
8
cut
10
117586.67
20
81860.0
30
0
11
117586.67
21
81740.0
31
0
0
LINE
8
cut
10
117746.67
20
81860.0
30
0
11
117746.67
21
81740.0
31
0
0
LINE
8
cut
10
117746.67
20
81860.0
30
0
11
120920.0
21
81860.0
31
0
0
LINE
8
cut
10
117746.67
20
81740.0
30
0
11
120920.0
21
81740.0
31
0
0
LINE
8
cut
10
120920.0
20
81860.0
30
0
11
120920.0
21
81740.0
31
0
0
LINE
8
cut
10
121080.0
20
81860.0
30
0
11
121080.0
21
81740.0
31
0
0
LINE
8
cut
10
121080.0
20
81860.0
30
0
11
124253.33
21
81860.0
31
0
0
LINE
8
cut
10
121080.0
20
81740.0
30
0
11
124253.33
21
81740.0
31
0
0
LINE
8
cut
10
124253.33
20
81860.0
30
0
11
124253.33
21
81740.0
31
0
0
LINE
8
cut
10
124413.33
20
81860.0
30
0
11
124413.33
21
81740.0
31
0
0
LINE
8
cut
10
124413.33
20
81860.0
30
0
11
127586.67
21
81860.0
31
0
0
LINE
8
cut
10
124413.33
20
81740.0
30
0
11
127586.67
21
81740.0
31
0
0
LINE
8
cut
10
127586.67
20
81860.0
30
0
11
127586.67
21
81740.0
31
0
0
LINE
8
cut
10
127746.67
20
81860.0
30
0
11
127746.67
21
81740.0
31
0
0
LINE
8
cut
10
127746.67
20
81860.0
30
0
11
130920.0
21
81860.0
31
0
0
LINE
8
cut
10
127746.67
20
81740.0
30
0
11
130920.0
21
81740.0
31
0
0
LINE
8
cut
10
130920.0
20
81860.0
30
0
11
130920.0
21
81740.0
31
0
0
LINE
8
cut
10
131080.0
20
81860.0
30
0
11
131080.0
21
81740.0
31
0
0
LINE
8
cut
10
131080.0
20
81860.0
30
0
11
134253.33000000002
21
81860.0
31
0
0
LINE
8
cut
10
131080.0
20
81740.0
30
0
11
134253.33000000002
21
81740.0
31
0
0
LINE
8
cut
10
134253.33000000002
20
81860.0
30
0
11
134253.33000000002
21
81740.0
31
0
0
LINE
8
cut
10
134413.33
20
81860.0
30
0
11
134413.33
21
81740.0
31
0
0
LINE
8
cut
10
134413.33
20
81860.0
30
0
11
137586.67
21
81860.0
31
0
0
LINE
8
cut
10
134413.33
20
81740.0
30
0
11
137586.67
21
81740.0
31
0
0
LINE
8
cut
10
137586.67
20
81860.0
30
0
11
137586.67
21
81740.0
31
0
0
LINE
8
cut
10
137746.66999999998
20
81860.0
30
0
11
137746.66999999998
21
81740.0
31
0
0
LINE
8
cut
10
137746.66999999998
20
81860.0
30
0
11
140920.0
21
81860.0
31
0
0
LINE
8
cut
10
137746.66999999998
20
81740.0
30
0
11
140920.0
21
81740.0
31
0
0
LINE
8
cut
10
140920.0
20
81860.0
30
0
11
140920.0
21
81740.0
31
0
0
LINE
8
cut
10
110940.00000000001
20
82140.0
30
0
11
110940.00000000001
21
81820.0
31
0
0
LINE
8
cut
10
110940.00000000001
20
82140.0
30
0
11
111059.99999999999
21
82140.0
31
0
0
LINE
8
cut
10
110940.00000000001
20
81820.0
30
0
11
111059.99999999999
21
81820.0
31
0
0
LINE
8
cut
10
111059.99999999999
20
82140.0
30
0
11
111059.99999999999
21
81820.0
31
0
0
LINE
8
cut
10
114273.33000000002
20
82140.0
30
0
11
114273.33000000002
21
81820.0
31
0
0
LINE
8
cut
10
114273.33000000002
20
82140.0
30
0
11
114393.33000000002
21
82140.0
31
0
0
LINE
8
cut
10
114273.33000000002
20
81820.0
30
0
11
114393.33000000002
21
81820.0
31
0
0
LINE
8
cut
10
114393.33000000002
20
82140.0
30
0
11
114393.33000000002
21
81820.0
31
0
0
LINE
8
cut
10
117606.66999999998
20
82140.0
30
0
11
117606.66999999998
21
81820.0
31
0
0
LINE
8
cut
10
117606.66999999998
20
82140.0
30
0
11
117726.66999999998
21
82140.0
31
0
0
LINE
8
cut
10
117606.66999999998
20
81820.0
30
0
11
117726.66999999998
21
81820.0
31
0
0
LINE
8
cut
10
117726.66999999998
20
82140.0
30
0
11
117726.66999999998
21
81820.0
31
0
0
LINE
8
cut
10
120940.00000000001
20
82140.0
30
0
11
120940.00000000001
21
81820.0
31
0
0
LINE
8
cut
10
120940.00000000001
20
82140.0
30
0
11
121059.99999999999
21
82140.0
31
0
0
LINE
8
cut
10
120940.00000000001
20
81820.0
30
0
11
121059.99999999999
21
81820.0
31
0
0
LINE
8
cut
10
121059.99999999999
20
82140.0
30
0
11
121059.99999999999
21
81820.0
31
0
0
LINE
8
cut
10
124273.33000000002
20
82140.0
30
0
11
124273.33000000002
21
81820.0
31
0
0
LINE
8
cut
10
124273.33000000002
20
82140.0
30
0
11
124393.33000000002
21
82140.0
31
0
0
LINE
8
cut
10
124273.33000000002
20
81820.0
30
0
11
124393.33000000002
21
81820.0
31
0
0
LINE
8
cut
10
124393.33000000002
20
82140.0
30
0
11
124393.33000000002
21
81820.0
31
0
0
LINE
8
cut
10
127606.66999999998
20
82140.0
30
0
11
127606.66999999998
21
81820.0
31
0
0
LINE
8
cut
10
127606.66999999998
20
82140.0
30
0
11
127726.66999999998
21
82140.0
31
0
0
LINE
8
cut
10
127606.66999999998
20
81820.0
30
0
11
127726.66999999998
21
81820.0
31
0
0
LINE
8
cut
10
127726.66999999998
20
82140.0
30
0
11
127726.66999999998
21
81820.0
31
0
0
LINE
8
cut
10
130940.00000000001
20
82140.0
30
0
11
130940.00000000001
21
81820.0
31
0
0
LINE
8
cut
10
130940.00000000001
20
82140.0
30
0
11
131059.99999999999
21
82140.0
31
0
0
LINE
8
cut
10
130940.00000000001
20
81820.0
30
0
11
131059.99999999999
21
81820.0
31
0
0
LINE
8
cut
10
131059.99999999999
20
82140.0
30
0
11
131059.99999999999
21
81820.0
31
0
0
LINE
8
cut
10
134273.33
20
82140.0
30
0
11
134273.33
21
81820.0
31
0
0
LINE
8
cut
10
134273.33
20
82140.0
30
0
11
134393.33000000002
21
82140.0
31
0
0
LINE
8
cut
10
134273.33
20
81820.0
30
0
11
134393.33000000002
21
81820.0
31
0
0
LINE
8
cut
10
134393.33000000002
20
82140.0
30
0
11
134393.33000000002
21
81820.0
31
0
0
LINE
8
cut
10
137606.66999999998
20
82140.0
30
0
11
137606.66999999998
21
81820.0
31
0
0
LINE
8
cut
10
137606.66999999998
20
82140.0
30
0
11
137726.67
21
82140.0
31
0
0
LINE
8
cut
10
137606.66999999998
20
81820.0
30
0
11
137726.67
21
81820.0
31
0
0
LINE
8
cut
10
137726.67
20
82140.0
30
0
11
137726.67
21
81820.0
31
0
0
LINE
8
cut
10
140940.0
20
82140.0
30
0
11
140940.0
21
81820.0
31
0
0
LINE
8
cut
10
140940.0
20
82140.0
30
0
11
141060.0
21
82140.0
31
0
0
LINE
8
cut
10
140940.0
20
81820.0
30
0
11
141060.0
21
81820.0
31
0
0
LINE
8
cut
10
141060.0
20
82140.0
30
0
11
141060.0
21
81820.0
31
0
0
LINE
8
cut
10
140850.0
20
81800.0
30
0
11
140850.0
21
47800.0
31
0
0
LINE
8
cut
10
140850.0
20
81800.0
30
0
11
141150.0
21
81800.0
31
0
0
LINE
8
cut
10
140850.0
20
47800.0
30
0
11
141150.0
21
47800.0
31
0
0
LINE
8
cut
10
141150.0
20
81800.0
30
0
11
141150.0
21
47800.0
31
0
0
LINE
8
interiors
10
119920.0
20
49800.0
30
0
11
119920.0
21
79800.0
31
0
0
LINE
8
interiors
10
120080.0
20
49800.0
30
0
11
120080.0
21
79800.0
31
0
0
LINE
8
interiors
10
119920.0
20
49800.0
30
0
11
120080.0
21
49800.0
31
0
0
LINE
8
interiors
10
119920.0
20
79800.0
30
0
11
120080.0
21
79800.0
31
0
0
LINE
8
interiors
10
131920.0
20
49800.0
30
0
11
131920.0
21
79800.0
31
0
0
LINE
8
interiors
10
132080.0
20
49800.0
30
0
11
132080.0
21
79800.0
31
0
0
LINE
8
interiors
10
131920.0
20
49800.0
30
0
11
132080.0
21
49800.0
31
0
0
LINE
8
interiors
10
131920.0
20
79800.0
30
0
11
132080.0
21
79800.0
31
0
0
LINE
8
cut
10
65600.0
20
38200.0
30
0
11
65600.0
21
37400.0
31
0
0
LINE
8
cut
10
65600.0
20
38200.0
30
0
11
66400.0
21
38200.0
31
0
0
LINE
8
cut
10
65600.0
20
37400.0
30
0
11
66400.0
21
37400.0
31
0
0
LINE
8
cut
10
66400.0
20
38200.0
30
0
11
66400.0
21
37400.0
31
0
0
LINE
8
cut
10
76200.0
20
38200.0
30
0
11
76200.0
21
37400.0
31
0
0
LINE
8
cut
10
76200.0
20
38200.0
30
0
11
77000.0
21
38200.0
31
0
0
LINE
8
cut
10
76200.0
20
37400.0
30
0
11
77000.0
21
37400.0
31
0
0
LINE
8
cut
10
77000.0
20
38200.0
30
0
11
77000.0
21
37400.0
31
0
0
LINE
8
cut
10
87000.0
20
38200.0
30
0
11
87000.0
21
37400.0
31
0
0
LINE
8
cut
10
87000.0
20
38200.0
30
0
11
87800.0
21
38200.0
31
0
0
LINE
8
cut
10
87000.0
20
37400.0
30
0
11
87800.0
21
37400.0
31
0
0
LINE
8
cut
10
87800.0
20
38200.0
30
0
11
87800.0
21
37400.0
31
0
0
LINE
8
cut
10
97600.0
20
38200.0
30
0
11
97600.0
21
37400.0
31
0
0
LINE
8
cut
10
97600.0
20
38200.0
30
0
11
98400.0
21
38200.0
31
0
0
LINE
8
cut
10
97600.0
20
37400.0
30
0
11
98400.0
21
37400.0
31
0
0
LINE
8
cut
10
98400.0
20
38200.0
30
0
11
98400.0
21
37400.0
31
0
0
LINE
8
circulation
10
57000.0
20
35500.0
30
0
11
57000.0
21
36100.0
31
0
0
LINE
8
circulation
10
107000.0
20
35500.0
30
0
11
107000.0
21
36100.0
31
0
0
LINE
8
circulation
10
57000.0
20
35500.0
30
0
11
107000.0
21
35500.0
31
0
0
LINE
8
circulation
10
57000.0
20
36100.0
30
0
11
107000.0
21
36100.0
31
0
0
LINE
8
circulation
10
57000.0
20
34900.0
30
0
11
57000.0
21
35500.0
31
0
0
LINE
8
circulation
10
107000.0
20
34900.0
30
0
11
107000.0
21
35500.0
31
0
0
LINE
8
circulation
10
57000.0
20
34900.0
30
0
11
107000.0
21
34900.0
31
0
0
LINE
8
circulation
10
57000.0
20
34300.0
30
0
11
57000.0
21
34900.0
31
0
0
LINE
8
circulation
10
107000.0
20
34300.0
30
0
11
107000.0
21
34900.0
31
0
0
LINE
8
circulation
10
57000.0
20
34300.0
30
0
11
107000.0
21
34300.0
31
0
0
LINE
8
circulation
10
57000.0
20
33700.0
30
0
11
57000.0
21
34300.0
31
0
0
LINE
8
circulation
10
107000.0
20
33700.0
30
0
11
107000.0
21
34300.0
31
0
0
LINE
8
circulation
10
57000.0
20
33700.0
30
0
11
107000.0
21
33700.0
31
0
0
LINE
8
circulation
10
57000.0
20
33100.0
30
0
11
57000.0
21
33700.0
31
0
0
LINE
8
circulation
10
107000.0
20
33100.0
30
0
11
107000.0
21
33700.0
31
0
0
LINE
8
circulation
10
57000.0
20
33100.0
30
0
11
107000.0
21
33100.0
31
0
0
LINE
8
circulation
10
57000.0
20
32500.0
30
0
11
57000.0
21
33100.0
31
0
0
LINE
8
circulation
10
107000.0
20
32500.0
30
0
11
107000.0
21
33100.0
31
0
0
LINE
8
circulation
10
57000.0
20
32500.0
30
0
11
107000.0
21
32500.0
31
0
0
LINE
8
circulation
10
57000.0
20
31900.0
30
0
11
57000.0
21
32500.0
31
0
0
LINE
8
circulation
10
107000.0
20
31900.0
30
0
11
107000.0
21
32500.0
31
0
0
LINE
8
circulation
10
57000.0
20
31900.0
30
0
11
107000.0
21
31900.0
31
0
0
LINE
8
circulation
10
57000.0
20
31300.0
30
0
11
57000.0
21
31900.0
31
0
0
LINE
8
circulation
10
107000.0
20
31300.0
30
0
11
107000.0
21
31900.0
31
0
0
LINE
8
circulation
10
57000.0
20
31300.0
30
0
11
107000.0
21
31300.0
31
0
0
LINE
8
cut
10
78000.0
20
43870.00000000001
30
0
11
78000.0
21
43729.99999999999
31
0
0
LINE
8
cut
10
78000.0
20
43870.00000000001
30
0
11
80000.0
21
43870.00000000001
31
0
0
LINE
8
cut
10
78000.0
20
43729.99999999999
30
0
11
80000.0
21
43729.99999999999
31
0
0
LINE
8
cut
10
80000.0
20
43870.00000000001
30
0
11
80000.0
21
43729.99999999999
31
0
0
LINE
8
cut
10
80000.0
20
43870.00000000001
30
0
11
82000.0
21
43870.00000000001
31
0
0
LINE
8
cut
10
80000.0
20
43729.99999999999
30
0
11
82000.0
21
43729.99999999999
31
0
0
LINE
8
cut
10
82000.0
20
43870.00000000001
30
0
11
82000.0
21
43729.99999999999
31
0
0
LINE
8
cut
10
82000.0
20
43870.00000000001
30
0
11
84000.0
21
43870.00000000001
31
0
0
LINE
8
cut
10
82000.0
20
43729.99999999999
30
0
11
84000.0
21
43729.99999999999
31
0
0
LINE
8
cut
10
84000.0
20
43870.00000000001
30
0
11
84000.0
21
43729.99999999999
31
0
0
LINE
8
cut
10
84000.0
20
43870.00000000001
30
0
11
86000.0
21
43870.00000000001
31
0
0
LINE
8
cut
10
84000.0
20
43729.99999999999
30
0
11
86000.0
21
43729.99999999999
31
0
0
LINE
8
cut
10
86000.0
20
43870.00000000001
30
0
11
86000.0
21
43729.99999999999
31
0
0
LINE
8
cut
10
65600.0
20
92200.0
30
0
11
65600.0
21
91400.0
31
0
0
LINE
8
cut
10
65600.0
20
92200.0
30
0
11
66400.0
21
92200.0
31
0
0
LINE
8
cut
10
65600.0
20
91400.0
30
0
11
66400.0
21
91400.0
31
0
0
LINE
8
cut
10
66400.0
20
92200.0
30
0
11
66400.0
21
91400.0
31
0
0
LINE
8
cut
10
76200.0
20
92200.0
30
0
11
76200.0
21
91400.0
31
0
0
LINE
8
cut
10
76200.0
20
92200.0
30
0
11
77000.0
21
92200.0
31
0
0
LINE
8
cut
10
76200.0
20
91400.0
30
0
11
77000.0
21
91400.0
31
0
0
LINE
8
cut
10
77000.0
20
92200.0
30
0
11
77000.0
21
91400.0
31
0
0
LINE
8
cut
10
87000.0
20
92200.0
30
0
11
87000.0
21
91400.0
31
0
0
LINE
8
cut
10
87000.0
20
92200.0
30
0
11
87800.0
21
92200.0
31
0
0
LINE
8
cut
10
87000.0
20
91400.0
30
0
11
87800.0
21
91400.0
31
0
0
LINE
8
cut
10
87800.0
20
92200.0
30
0
11
87800.0
21
91400.0
31
0
0
LINE
8
cut
10
97600.0
20
92200.0
30
0
11
97600.0
21
91400.0
31
0
0
LINE
8
cut
10
97600.0
20
92200.0
30
0
11
98400.0
21
92200.0
31
0
0
LINE
8
cut
10
97600.0
20
91400.0
30
0
11
98400.0
21
91400.0
31
0
0
LINE
8
cut
10
98400.0
20
92200.0
30
0
11
98400.0
21
91400.0
31
0
0
LINE
8
circulation
10
57000.0
20
93500.0
30
0
11
57000.0
21
94100.0
31
0
0
LINE
8
circulation
10
107000.0
20
93500.0
30
0
11
107000.0
21
94100.0
31
0
0
LINE
8
circulation
10
57000.0
20
93500.0
30
0
11
107000.0
21
93500.0
31
0
0
LINE
8
circulation
10
57000.0
20
94100.0
30
0
11
107000.0
21
94100.0
31
0
0
LINE
8
circulation
10
57000.0
20
94100.0
30
0
11
57000.0
21
94700.0
31
0
0
LINE
8
circulation
10
107000.0
20
94100.0
30
0
11
107000.0
21
94700.0
31
0
0
LINE
8
circulation
10
57000.0
20
94700.0
30
0
11
107000.0
21
94700.0
31
0
0
LINE
8
circulation
10
57000.0
20
94700.0
30
0
11
57000.0
21
95300.0
31
0
0
LINE
8
circulation
10
107000.0
20
94700.0
30
0
11
107000.0
21
95300.0
31
0
0
LINE
8
circulation
10
57000.0
20
95300.0
30
0
11
107000.0
21
95300.0
31
0
0
LINE
8
circulation
10
57000.0
20
95300.0
30
0
11
57000.0
21
95900.0
31
0
0
LINE
8
circulation
10
107000.0
20
95300.0
30
0
11
107000.0
21
95900.0
31
0
0
LINE
8
circulation
10
57000.0
20
95900.0
30
0
11
107000.0
21
95900.0
31
0
0
LINE
8
circulation
10
57000.0
20
95900.0
30
0
11
57000.0
21
96500.0
31
0
0
LINE
8
circulation
10
107000.0
20
95900.0
30
0
11
107000.0
21
96500.0
31
0
0
LINE
8
circulation
10
57000.0
20
96500.0
30
0
11
107000.0
21
96500.0
31
0
0
LINE
8
circulation
10
57000.0
20
96500.0
30
0
11
57000.0
21
97100.0
31
0
0
LINE
8
circulation
10
107000.0
20
96500.0
30
0
11
107000.0
21
97100.0
31
0
0
LINE
8
circulation
10
57000.0
20
97100.0
30
0
11
107000.0
21
97100.0
31
0
0
LINE
8
circulation
10
57000.0
20
97100.0
30
0
11
57000.0
21
97700.0
31
0
0
LINE
8
circulation
10
107000.0
20
97100.0
30
0
11
107000.0
21
97700.0
31
0
0
LINE
8
circulation
10
57000.0
20
97700.0
30
0
11
107000.0
21
97700.0
31
0
0
LINE
8
circulation
10
57000.0
20
97700.0
30
0
11
57000.0
21
98300.0
31
0
0
LINE
8
circulation
10
107000.0
20
97700.0
30
0
11
107000.0
21
98300.0
31
0
0
LINE
8
circulation
10
57000.0
20
98300.0
30
0
11
107000.0
21
98300.0
31
0
0
LINE
8
cut
10
78000.0
20
85870.0
30
0
11
78000.0
21
85730.0
31
0
0
LINE
8
cut
10
78000.0
20
85870.0
30
0
11
80000.0
21
85870.0
31
0
0
LINE
8
cut
10
78000.0
20
85730.0
30
0
11
80000.0
21
85730.0
31
0
0
LINE
8
cut
10
80000.0
20
85870.0
30
0
11
80000.0
21
85730.0
31
0
0
LINE
8
cut
10
80000.0
20
85870.0
30
0
11
82000.0
21
85870.0
31
0
0
LINE
8
cut
10
80000.0
20
85730.0
30
0
11
82000.0
21
85730.0
31
0
0
LINE
8
cut
10
82000.0
20
85870.0
30
0
11
82000.0
21
85730.0
31
0
0
LINE
8
cut
10
82000.0
20
85870.0
30
0
11
84000.0
21
85870.0
31
0
0
LINE
8
cut
10
82000.0
20
85730.0
30
0
11
84000.0
21
85730.0
31
0
0
LINE
8
cut
10
84000.0
20
85870.0
30
0
11
84000.0
21
85730.0
31
0
0
LINE
8
cut
10
84000.0
20
85870.0
30
0
11
86000.0
21
85870.0
31
0
0
LINE
8
cut
10
84000.0
20
85730.0
30
0
11
86000.0
21
85730.0
31
0
0
LINE
8
cut
10
86000.0
20
85870.0
30
0
11
86000.0
21
85730.0
31
0
0
LINE
8
datum
10
23000.0
20
44800.0
30
0
11
141000.0
21
44800.0
31
0
0
LINE
8
datum
10
141000.0
20
44800.0
30
0
11
141000.0
21
84800.0
31
0
0
LINE
8
datum
10
141000.0
20
84800.0
30
0
11
23000.0
21
84800.0
31
0
0
LINE
8
datum
10
23000.0
20
84800.0
30
0
11
23000.0
21
44800.0
31
0
0
LINE
8
grid
10
23000.0
20
42300.0
30
0
11
23000.0
21
89300.0
31
0
0
TEXT
8
annotation
10
22750.0
20
90100.0
30
0
40
1000.0
1
1
50
0
0
LINE
8
grid
10
32833.333333333336
20
42300.0
30
0
11
32833.333333333336
21
89300.0
31
0
0
TEXT
8
annotation
10
32583.333333333336
20
90100.0
30
0
40
1000.0
1
2
50
0
0
LINE
8
grid
10
42666.66666666667
20
42300.0
30
0
11
42666.66666666667
21
89300.0
31
0
0
TEXT
8
annotation
10
42416.66666666667
20
90100.0
30
0
40
1000.0
1
3
50
0
0
LINE
8
grid
10
52500.0
20
42300.0
30
0
11
52500.0
21
89300.0
31
0
0
TEXT
8
annotation
10
52250.0
20
90100.0
30
0
40
1000.0
1
4
50
0
0
LINE
8
grid
10
62333.333333333336
20
42300.0
30
0
11
62333.333333333336
21
89300.0
31
0
0
TEXT
8
annotation
10
62083.333333333336
20
90100.0
30
0
40
1000.0
1
5
50
0
0
LINE
8
grid
10
72166.66666666666
20
42300.0
30
0
11
72166.66666666666
21
89300.0
31
0
0
TEXT
8
annotation
10
71916.66666666666
20
90100.0
30
0
40
1000.0
1
6
50
0
0
LINE
8
grid
10
82000.0
20
42300.0
30
0
11
82000.0
21
89300.0
31
0
0
TEXT
8
annotation
10
81750.0
20
90100.0
30
0
40
1000.0
1
7
50
0
0
LINE
8
grid
10
91833.33333333333
20
42300.0
30
0
11
91833.33333333333
21
89300.0
31
0
0
TEXT
8
annotation
10
91583.33333333333
20
90100.0
30
0
40
1000.0
1
8
50
0
0
LINE
8
grid
10
101666.66666666667
20
42300.0
30
0
11
101666.66666666667
21
89300.0
31
0
0
TEXT
8
annotation
10
101416.66666666667
20
90100.0
30
0
40
1000.0
1
9
50
0
0
LINE
8
grid
10
111500.0
20
42300.0
30
0
11
111500.0
21
89300.0
31
0
0
TEXT
8
annotation
10
111000.0
20
90100.0
30
0
40
1000.0
1
10
50
0
0
LINE
8
grid
10
121333.33333333333
20
42300.0
30
0
11
121333.33333333333
21
89300.0
31
0
0
TEXT
8
annotation
10
120833.33333333333
20
90100.0
30
0
40
1000.0
1
11
50
0
0
LINE
8
grid
10
131166.6666666667
20
42300.0
30
0
11
131166.6666666667
21
89300.0
31
0
0
TEXT
8
annotation
10
130666.66666666667
20
90100.0
30
0
40
1000.0
1
12
50
0
0
LINE
8
grid
10
141000.0
20
42300.0
30
0
11
141000.0
21
89300.0
31
0
0
TEXT
8
annotation
10
140500.0
20
90100.0
30
0
40
1000.0
1
13
50
0
0
LINE
8
grid
10
19000.0
20
44800.0
30
0
11
145000.0
21
44800.0
31
0
0
TEXT
8
annotation
10
17700.0
20
44400.0
30
0
40
1000.0
1
A
50
0
0
LINE
8
grid
10
19000.0
20
64800.0
30
0
11
145000.0
21
64800.0
31
0
0
TEXT
8
annotation
10
17700.0
20
64400.0
30
0
40
1000.0
1
B
50
0
0
LINE
8
grid
10
19000.0
20
84800.0
30
0
11
145000.0
21
84800.0
31
0
0
TEXT
8
annotation
10
17700.0
20
84400.0
30
0
40
1000.0
1
C
50
0
0
LINE
8
dimension
10
23000.0
20
40000.0
30
0
11
141000.0
21
40000.0
31
0
0
LINE
8
dimension
10
22600.0
20
39600.0
30
0
11
23400.0
21
40400.0
31
0
0
LINE
8
dimension
10
140600.0
20
39600.0
30
0
11
141400.0
21
40400.0
31
0
0
TEXT
8
annotation
10
76600.0
20
40600.0
30
0
40
1200.0
1
118,000 mm overall
50
0
0
LINE
8
dimension
10
145400.0
20
84800.0
30
0
11
145400.0
21
44800.0
31
0
0
TEXT
8
annotation
10
146600.0
20
64800.0
30
0
40
1200.0
1
40,000
50
0
0
TEXT
8
annotation
10
152400.0
20
100800
30
0
40
1600.0
1
N
50
0
0
LINE
8
annotation
10
152800
20
99600
30
0
11
151600
21
96000
31
0
0
LINE
8
annotation
10
151600
20
96000
30
0
11
152800
21
97200
31
0
0
LINE
8
annotation
10
152800
20
97200
30
0
11
154000
21
96000
31
0
0
LINE
8
annotation
10
154000
20
96000
30
0
11
152800
21
99600
31
0
0
LINE
8
section-line
10
20000.0
20
64800.0
30
0
11
144000.0
21
64800.0
31
0
0
TEXT
8
annotation
10
18600.0
20
65600.0
30
0
40
1200.0
1
A
50
0
0
TEXT
8
annotation
10
144800.0
20
65600.0
30
0
40
1200.0
1
A
50
0
0
TEXT
8
annotation
10
37570.0
20
64800.0
30
0
40
1080.0
1
RECEPTION
50
0
0
TEXT
8
annotation
10
79300.0
20
64800.0
30
0
40
1080.0
1
EXHIBITION
50
0
0
TEXT
8
annotation
10
121300.0
20
64800.0
30
0
40
1080.0
1
EXHIBITION
50
0
0
TEXT
8
annotation
10
5600
20
25600
30
0
40
1080.0
1
Reference grid only; not structural column setting-out. Civic wings have independent framing.
50
0
0
LINE
8
frame
10
5600
20
23600
30
0
11
162400
21
23600
31
0
0
TEXT
8
annotation
10
5600
20
20400
30
0
40
1400.0
1
CONCEPT DESIGN | IMAGE-INFERRED | NOT FOR CONSTRUCTION
50
0
0
TEXT
8
annotation
10
5600
20
15200.0
30
0
40
1060.0
1
Source: two campus AI images + fab1.jpg; official analogues documented in analysis/cad/.
50
0
0
TEXT
8
annotation
10
5600
20
13440.00000000001
30
0
40
1060.0
1
CAD model in mm; site coordinates X east, Y north, Z up. Internal layouts and member sizes are design estimates.
50
0
0
TEXT
8
annotation
10
5600
20
11679.999999999996
30
0
40
1060.0
1
Plans/sections are extracted from actual FreeCAD BRep. Elevations project component outlines; hidden edges omitted per component.
50
0
0
TEXT
8
annotation
10
5600
20
9920.000000000004
30
0
40
1060.0
1
Civic wing roofs and skylight may differ from the nominal building height; inspect actual geometry and parameter aliases.
50
0
0
TEXT
8
annotation
10
5600
20
8159.999999999991
30
0
40
1060.0
1
No process certification, structural verification, measured survey, or construction approval is implied.
50
0
0
TEXT
8
annotation
10
142800.0
20
4400
30
0
40
1120.0
1
2026-09-30  |  FreeCAD 1.1.4  |  mm
50
0
0
ENDSEC
0
EOF
