0
SECTION
2
HEADER
9
$ACADVER
1
AC1009
9
$INSUNITS
70
4
0
ENDSEC
0
SECTION
2
ENTITIES
0
LINE
8
frame
10
1400
20
58000
30
0
11
82600
21
58000
31
0
0
LINE
8
frame
10
82600
20
58000
30
0
11
82600
21
1400
31
0
0
LINE
8
frame
10
82600
20
1400
30
0
11
1400
21
1400
31
0
0
LINE
8
frame
10
1400
20
1400
30
0
11
1400
21
58000
31
0
0
TEXT
8
annotation
10
2800
20
55800
30
0
40
840.0
1
PHOENIX SCIENCE PARK
50
0
0
TEXT
8
annotation
10
2800
20
54200
30
0
40
1000.0
1
EXHIBITION / East elevation
50
0
0
TEXT
8
annotation
10
77360.0
20
55800
30
0
40
640.0
1
A3  |  1:200
50
0
0
TEXT
8
annotation
10
73400.0
20
54200
30
0
40
600.0
1
CAD-EXHIBITION-EAST  /  R1
50
0
0
LINE
8
frame
10
2800
20
53200
30
0
11
81200
21
53200
31
0
0
LINE
8
glazing
10
60560.0
20
24450.0
30
0
11
60560.0
21
39550.0
31
0
0
LINE
8
glazing
10
60560.0
20
39550.0
30
0
11
60440.0
21
39550.0
31
0
0
LINE
8
glazing
10
60440.0
20
24450.0
30
0
11
60440.0
21
39550.0
31
0
0
LINE
8
glazing
10
60560.0
20
24450.0
30
0
11
60440.0
21
24450.0
31
0
0
LINE
8
envelope
10
60840.0
20
24450.0
30
0
11
60840.0
21
39750.0
31
0
0
LINE
8
envelope
10
60840.0
20
39750.0
30
0
11
60520.00000000001
21
39750.0
31
0
0
LINE
8
envelope
10
60520.00000000001
20
24450.0
30
0
11
60520.00000000001
21
39750.0
31
0
0
LINE
8
envelope
10
60840.0
20
24450.0
30
0
11
60520.00000000001
21
24450.0
31
0
0
LINE
8
envelope
10
60840.0
20
39750.0
30
0
11
60840.0
21
39890.0
31
0
0
LINE
8
envelope
10
60840.0
20
39890.0
30
0
11
60520.00000000001
21
39890.0
31
0
0
LINE
8
envelope
10
60520.00000000001
20
39750.0
30
0
11
60520.00000000001
21
39890.0
31
0
0
LINE
8
envelope
10
60500.0
20
24450.0
30
0
11
60500.0
21
39750.0
31
0
0
LINE
8
envelope
10
60500.0
20
39750.0
30
0
11
21500.0
21
39750.0
31
0
0
LINE
8
envelope
10
21500.0
20
24450.0
30
0
11
21500.0
21
39750.0
31
0
0
LINE
8
envelope
10
60500.0
20
24450.0
30
0
11
21500.0
21
24450.0
31
0
0
LINE
8
glazing
10
21560.0
20
24450.0
30
0
11
21560.0
21
39550.0
31
0
0
LINE
8
glazing
10
21560.0
20
39550.0
30
0
11
21440.0
21
39550.0
31
0
0
LINE
8
glazing
10
21440.0
20
24450.0
30
0
11
21440.0
21
39550.0
31
0
0
LINE
8
glazing
10
21560.0
20
24450.0
30
0
11
21440.0
21
24450.0
31
0
0
LINE
8
envelope
10
21480.0
20
24450.0
30
0
11
21480.0
21
39750.0
31
0
0
LINE
8
envelope
10
21480.0
20
39750.0
30
0
11
21160.0
21
39750.0
31
0
0
LINE
8
envelope
10
21160.0
20
24450.0
30
0
11
21160.0
21
39750.0
31
0
0
LINE
8
envelope
10
21480.0
20
24450.0
30
0
11
21160.0
21
24450.0
31
0
0
LINE
8
envelope
10
21480.0
20
39750.0
30
0
11
21480.0
21
39890.0
31
0
0
LINE
8
envelope
10
21480.0
20
39890.0
30
0
11
21160.0
21
39890.0
31
0
0
LINE
8
envelope
10
21160.0
20
39750.0
30
0
11
21160.0
21
39890.0
31
0
0
LINE
8
roof
10
61000.0
20
39750.0
30
0
11
61000.0
21
40350.0
31
0
0
LINE
8
roof
10
61000.0
20
40350.0
30
0
11
21000.0
21
40350.0
31
0
0
LINE
8
roof
10
21000.0
20
39750.0
30
0
11
21000.0
21
40350.0
31
0
0
LINE
8
roof
10
61000.0
20
39750.0
30
0
11
21000.0
21
39750.0
31
0
0
LINE
8
glazing
10
58060.0
20
24450.0
30
0
11
58060.0
21
34550.0
31
0
0
LINE
8
glazing
10
58060.0
20
34550.0
30
0
11
57940.0
21
34550.0
31
0
0
LINE
8
glazing
10
57940.0
20
24450.0
30
0
11
57940.0
21
34550.0
31
0
0
LINE
8
glazing
10
58060.0
20
24450.0
30
0
11
57940.0
21
24450.0
31
0
0
LINE
8
envelope
10
58340.0
20
24450.0
30
0
11
58340.0
21
34750.0
31
0
0
LINE
8
envelope
10
58340.0
20
34750.0
30
0
11
58020.00000000001
21
34750.0
31
0
0
LINE
8
envelope
10
58020.00000000001
20
24450.0
30
0
11
58020.00000000001
21
34750.0
31
0
0
LINE
8
envelope
10
58340.0
20
24450.0
30
0
11
58020.00000000001
21
24450.0
31
0
0
LINE
8
envelope
10
58340.0
20
34750.0
30
0
11
58340.0
21
34890.0
31
0
0
LINE
8
envelope
10
58340.0
20
34890.0
30
0
11
58020.00000000001
21
34890.0
31
0
0
LINE
8
envelope
10
58020.00000000001
20
34750.0
30
0
11
58020.00000000001
21
34890.0
31
0
0
LINE
8
envelope
10
58000.0
20
24450.0
30
0
11
58000.0
21
34750.0
31
0
0
LINE
8
envelope
10
58000.0
20
34750.0
30
0
11
24000.0
21
34750.0
31
0
0
LINE
8
envelope
10
24000.0
20
24450.0
30
0
11
24000.0
21
34750.0
31
0
0
LINE
8
envelope
10
58000.0
20
24450.0
30
0
11
24000.0
21
24450.0
31
0
0
LINE
8
glazing
10
24060.0
20
24450.0
30
0
11
24060.0
21
34550.0
31
0
0
LINE
8
glazing
10
24060.0
20
34550.0
30
0
11
23940.0
21
34550.0
31
0
0
LINE
8
glazing
10
23940.0
20
24450.0
30
0
11
23940.0
21
34550.0
31
0
0
LINE
8
glazing
10
24060.0
20
24450.0
30
0
11
23940.0
21
24450.0
31
0
0
LINE
8
envelope
10
23980.0
20
24450.0
30
0
11
23980.0
21
34750.0
31
0
0
LINE
8
envelope
10
23980.0
20
34750.0
30
0
11
23660.0
21
34750.0
31
0
0
LINE
8
envelope
10
23660.0
20
24450.0
30
0
11
23660.0
21
34750.0
31
0
0
LINE
8
envelope
10
23980.0
20
24450.0
30
0
11
23660.0
21
24450.0
31
0
0
LINE
8
envelope
10
23980.0
20
34750.0
30
0
11
23980.0
21
34890.0
31
0
0
LINE
8
envelope
10
23980.0
20
34890.0
30
0
11
23660.0
21
34890.0
31
0
0
LINE
8
envelope
10
23660.0
20
34750.0
30
0
11
23660.0
21
34890.0
31
0
0
LINE
8
roof
10
58500.0
20
34750.0
30
0
11
58500.0
21
35350.0
31
0
0
LINE
8
roof
10
58500.0
20
35350.0
30
0
11
23500.0
21
35350.0
31
0
0
LINE
8
roof
10
23500.0
20
34750.0
30
0
11
23500.0
21
35350.0
31
0
0
LINE
8
roof
10
58500.0
20
34750.0
30
0
11
23500.0
21
34750.0
31
0
0
LINE
8
roof
10
70000.0
20
30450.0
30
0
11
70000.0
21
31050.0
31
0
0
LINE
8
roof
10
70000.0
20
31050.0
30
0
11
60000.0
21
31050.0
31
0
0
LINE
8
roof
10
60000.0
20
30450.0
30
0
11
60000.0
21
31050.0
31
0
0
LINE
8
roof
10
70000.0
20
30450.0
30
0
11
60000.0
21
30450.0
31
0
0
LINE
8
glazing
10
62070.00000000001
20
24450.0
30
0
11
62070.00000000001
21
28450.0
31
0
0
LINE
8
glazing
10
62070.00000000001
20
28450.0
30
0
11
61929.99999999999
21
28450.0
31
0
0
LINE
8
glazing
10
61929.99999999999
20
24450.0
30
0
11
61929.99999999999
21
28450.0
31
0
0
LINE
8
glazing
10
62070.00000000001
20
24450.0
30
0
11
61929.99999999999
21
24450.0
31
0
0
LINE
8
roof
10
22000.0
20
30450.0
30
0
11
22000.0
21
31050.0
31
0
0
LINE
8
roof
10
22000.0
20
31050.0
30
0
11
12000.0
21
31050.0
31
0
0
LINE
8
roof
10
12000.0
20
30450.0
30
0
11
12000.0
21
31050.0
31
0
0
LINE
8
roof
10
22000.0
20
30450.0
30
0
11
12000.0
21
30450.0
31
0
0
LINE
8
glazing
10
20070.0
20
24450.0
30
0
11
20070.0
21
28450.0
31
0
0
LINE
8
glazing
10
20070.0
20
28450.0
30
0
11
19930.0
21
28450.0
31
0
0
LINE
8
glazing
10
19930.0
20
24450.0
30
0
11
19930.0
21
28450.0
31
0
0
LINE
8
glazing
10
20070.0
20
24450.0
30
0
11
19930.0
21
24450.0
31
0
0
LINE
8
grid
10
70400.0
20
24450.0
30
0
11
73600.0
21
24450.0
31
0
0
TEXT
8
annotation
10
70750.0
20
24689.999999999996
30
0
40
500.0
1
PODIUM +1.20m
50
0
0
LINE
8
grid
10
70400.0
20
34750.0
30
0
11
73600.0
21
34750.0
31
0
0
TEXT
8
annotation
10
70250.0
20
34990.0
30
0
40
500.0
1
WING RF +11.50m
50
0
0
LINE
8
grid
10
70400.0
20
39750.0
30
0
11
73600.0
21
39750.0
31
0
0
TEXT
8
annotation
10
70250.0
20
39990.0
30
0
40
500.0
1
HALL RF +16.50m
50
0
0
LINE
8
dimension
10
12000.0
20
22250.0
30
0
11
70000.0
21
22250.0
31
0
0
LINE
8
dimension
10
11800.0
20
22050.0
30
0
11
12200.0
21
22450.0
31
0
0
LINE
8
dimension
10
69800.0
20
22050.0
30
0
11
70200.0
21
22450.0
31
0
0
TEXT
8
annotation
10
37700.0
20
22550.0
30
0
40
600.0
1
58,000 mm shown extent
50
0
0
LINE
8
frame
10
2800
20
11800
30
0
11
81200
21
11800
31
0
0
TEXT
8
annotation
10
2800
20
10200
30
0
40
700.0
1
CONCEPT DESIGN | IMAGE-INFERRED | NOT FOR CONSTRUCTION
50
0
0
TEXT
8
annotation
10
2800
20
7600.0
30
0
40
530.0
1
Source: two campus AI images + fab1.jpg; official analogues documented in analysis/cad/.
50
0
0
TEXT
8
annotation
10
2800
20
6720.000000000005
30
0
40
530.0
1
CAD model in mm; site coordinates X east, Y north, Z up. Internal layouts and member sizes are design estimates.
50
0
0
TEXT
8
annotation
10
2800
20
5839.999999999998
30
0
40
530.0
1
Plans/sections are extracted from actual FreeCAD BRep. Elevations project component outlines; hidden edges omitted per component.
50
0
0
TEXT
8
annotation
10
2800
20
4960.000000000002
30
0
40
530.0
1
Civic wing roofs and skylight may differ from the nominal building height; inspect actual geometry and parameter aliases.
50
0
0
TEXT
8
annotation
10
2800
20
4079.9999999999955
30
0
40
530.0
1
No process certification, structural verification, measured survey, or construction approval is implied.
50
0
0
TEXT
8
annotation
10
71400.0
20
2200
30
0
40
560.0
1
2026-09-30  |  FreeCAD 1.1.4  |  mm
50
0
0
ENDSEC
0
EOF
