0
SECTION
2
HEADER
9
$ACADVER
1
AC1009
9
$INSUNITS
70
4
0
ENDSEC
0
SECTION
2
ENTITIES
0
LINE
8
frame
10
2800
20
116000
30
0
11
165200
21
116000
31
0
0
LINE
8
frame
10
165200
20
116000
30
0
11
165200
21
2800
31
0
0
LINE
8
frame
10
165200
20
2800
30
0
11
2800
21
2800
31
0
0
LINE
8
frame
10
2800
20
2800
30
0
11
2800
21
116000
31
0
0
TEXT
8
annotation
10
5600
20
111600
30
0
40
1680.0
1
PHOENIX SCIENCE PARK
50
0
0
TEXT
8
annotation
10
5600
20
108400
30
0
40
2000.0
1
EXHIBITION / Section A-A
50
0
0
TEXT
8
annotation
10
154720.0
20
111600
30
0
40
1280.0
1
A3  |  1:400
50
0
0
TEXT
8
annotation
10
145000.0
20
108400
30
0
40
1200.0
1
CAD-EXHIBITION-SECTION  /  R1
50
0
0
LINE
8
frame
10
5600
20
106400
30
0
11
162400
21
106400
31
0
0
LINE
8
cut
10
19500.0
20
57450.0
30
0
11
19500.0
21
56250.0
31
0
0
LINE
8
cut
10
19500.0
20
57450.0
30
0
11
144500.0
21
57450.0
31
0
0
LINE
8
cut
10
19500.0
20
56250.0
30
0
11
144500.0
21
56250.0
31
0
0
LINE
8
cut
10
144500.0
20
57450.0
30
0
11
144500.0
21
56250.0
31
0
0
LINE
8
cut
10
54575.0
20
72750.0
30
0
11
54575.0
21
57450.0
31
0
0
LINE
8
cut
10
54575.0
20
72750.0
30
0
11
55425.0
21
72750.0
31
0
0
LINE
8
cut
10
54575.0
20
57450.0
30
0
11
55425.0
21
57450.0
31
0
0
LINE
8
cut
10
55425.0
20
72750.0
30
0
11
55425.0
21
57450.0
31
0
0
LINE
8
cut
10
65375.0
20
72750.0
30
0
11
65375.0
21
57450.0
31
0
0
LINE
8
cut
10
65375.0
20
72750.0
30
0
11
66225.0
21
72750.0
31
0
0
LINE
8
cut
10
65375.0
20
57450.0
30
0
11
66225.0
21
57450.0
31
0
0
LINE
8
cut
10
66225.0
20
72750.0
30
0
11
66225.0
21
57450.0
31
0
0
LINE
8
cut
10
76175.0
20
72750.0
30
0
11
76175.0
21
57450.0
31
0
0
LINE
8
cut
10
76175.0
20
72750.0
30
0
11
77025.0
21
72750.0
31
0
0
LINE
8
cut
10
76175.0
20
57450.0
30
0
11
77025.0
21
57450.0
31
0
0
LINE
8
cut
10
77025.0
20
72750.0
30
0
11
77025.0
21
57450.0
31
0
0
LINE
8
cut
10
86975.0
20
72750.0
30
0
11
86975.0
21
57450.0
31
0
0
LINE
8
cut
10
86975.0
20
72750.0
30
0
11
87825.0
21
72750.0
31
0
0
LINE
8
cut
10
86975.0
20
57450.0
30
0
11
87825.0
21
57450.0
31
0
0
LINE
8
cut
10
87825.0
20
72750.0
30
0
11
87825.0
21
57450.0
31
0
0
LINE
8
cut
10
97775.0
20
72750.0
30
0
11
97775.0
21
57450.0
31
0
0
LINE
8
cut
10
97775.0
20
72750.0
30
0
11
98625.0
21
72750.0
31
0
0
LINE
8
cut
10
97775.0
20
57450.0
30
0
11
98625.0
21
57450.0
31
0
0
LINE
8
cut
10
98625.0
20
72750.0
30
0
11
98625.0
21
57450.0
31
0
0
LINE
8
cut
10
108575.0
20
72750.0
30
0
11
108575.0
21
57450.0
31
0
0
LINE
8
cut
10
108575.0
20
72750.0
30
0
11
109425.0
21
72750.0
31
0
0
LINE
8
cut
10
108575.0
20
57450.0
30
0
11
109425.0
21
57450.0
31
0
0
LINE
8
cut
10
109425.0
20
72750.0
30
0
11
109425.0
21
57450.0
31
0
0
LINE
8
cut
10
53350.0
20
72750.0
30
0
11
53350.0
21
57450.0
31
0
0
LINE
8
cut
10
53350.0
20
72750.0
30
0
11
53650.0
21
72750.0
31
0
0
LINE
8
cut
10
53350.0
20
57450.0
30
0
11
53650.0
21
57450.0
31
0
0
LINE
8
cut
10
53650.0
20
72750.0
30
0
11
53650.0
21
57450.0
31
0
0
LINE
8
cut
10
110350.0
20
72750.0
30
0
11
110350.0
21
57450.0
31
0
0
LINE
8
cut
10
110350.0
20
72750.0
30
0
11
110650.0
21
72750.0
31
0
0
LINE
8
cut
10
110350.0
20
57450.0
30
0
11
110650.0
21
57450.0
31
0
0
LINE
8
cut
10
110650.0
20
72750.0
30
0
11
110650.0
21
57450.0
31
0
0
LINE
8
cut
10
53500.0
20
57850.0
30
0
11
53500.0
21
57450.0
31
0
0
LINE
8
cut
10
53500.0
20
57850.0
30
0
11
110500.0
21
57850.0
31
0
0
LINE
8
cut
10
53500.0
20
57450.0
30
0
11
110500.0
21
57450.0
31
0
0
LINE
8
cut
10
110500.0
20
57850.0
30
0
11
110500.0
21
57450.0
31
0
0
LINE
8
interiors
10
93480.0
20
57850.0
30
0
11
93480.0
21
61050.0
31
0
0
LINE
8
interiors
10
93480.0
20
61050.0
30
0
11
93320.0
21
61050.0
31
0
0
LINE
8
interiors
10
93480.0
20
57850.0
30
0
11
93320.0
21
57850.0
31
0
0
LINE
8
interiors
10
93320.0
20
57850.0
30
0
11
93320.0
21
61050.0
31
0
0
LINE
8
interiors
10
70680.0
20
57850.0
30
0
11
70680.0
21
61050.0
31
0
0
LINE
8
interiors
10
70680.0
20
61050.0
30
0
11
70520.0
21
61050.0
31
0
0
LINE
8
interiors
10
70680.0
20
57850.0
30
0
11
70520.0
21
57850.0
31
0
0
LINE
8
interiors
10
70520.0
20
57850.0
30
0
11
70520.0
21
61050.0
31
0
0
LINE
8
cut
10
53500.0
20
62950.0
30
0
11
53500.0
21
62550.0
31
0
0
LINE
8
cut
10
53500.0
20
62950.0
30
0
11
110500.0
21
62950.0
31
0
0
LINE
8
cut
10
53500.0
20
62550.0
30
0
11
110500.0
21
62550.0
31
0
0
LINE
8
cut
10
110500.0
20
62950.0
30
0
11
110500.0
21
62550.0
31
0
0
LINE
8
interiors
10
93480.0
20
62950.0
30
0
11
93480.0
21
66150.0
31
0
0
LINE
8
interiors
10
93480.0
20
66150.0
30
0
11
93320.0
21
66150.0
31
0
0
LINE
8
interiors
10
93480.0
20
62950.0
30
0
11
93320.0
21
62950.0
31
0
0
LINE
8
interiors
10
93320.0
20
62950.0
30
0
11
93320.0
21
66150.0
31
0
0
LINE
8
interiors
10
70680.0
20
62950.0
30
0
11
70680.0
21
66150.0
31
0
0
LINE
8
interiors
10
70680.0
20
66150.0
30
0
11
70520.0
21
66150.0
31
0
0
LINE
8
interiors
10
70680.0
20
62950.0
30
0
11
70520.0
21
62950.0
31
0
0
LINE
8
interiors
10
70520.0
20
62950.0
30
0
11
70520.0
21
66150.0
31
0
0
LINE
8
cut
10
53500.0
20
68050.0
30
0
11
53500.0
21
67650.0
31
0
0
LINE
8
cut
10
53500.0
20
68050.0
30
0
11
110500.0
21
68050.0
31
0
0
LINE
8
cut
10
53500.0
20
67650.0
30
0
11
110500.0
21
67650.0
31
0
0
LINE
8
cut
10
110500.0
20
68050.0
30
0
11
110500.0
21
67650.0
31
0
0
LINE
8
cut
10
53000.0
20
73350.0
30
0
11
53000.0
21
72750.0
31
0
0
LINE
8
cut
10
53000.0
20
73350.0
30
0
11
111000.0
21
73350.0
31
0
0
LINE
8
cut
10
53000.0
20
72750.0
30
0
11
111000.0
21
72750.0
31
0
0
LINE
8
cut
10
111000.0
20
73350.0
30
0
11
111000.0
21
72750.0
31
0
0
LINE
8
cut
10
24075.0
20
67750.0
30
0
11
24075.0
21
57450.0
31
0
0
LINE
8
cut
10
24075.0
20
67750.0
30
0
11
24925.0
21
67750.0
31
0
0
LINE
8
cut
10
24075.0
20
57450.0
30
0
11
24925.0
21
57450.0
31
0
0
LINE
8
cut
10
24925.0
20
67750.0
30
0
11
24925.0
21
57450.0
31
0
0
LINE
8
cut
10
33075.0
20
67750.0
30
0
11
33075.0
21
57450.0
31
0
0
LINE
8
cut
10
33075.0
20
67750.0
30
0
11
33925.0
21
67750.0
31
0
0
LINE
8
cut
10
33075.0
20
57450.0
30
0
11
33925.0
21
57450.0
31
0
0
LINE
8
cut
10
33925.0
20
67750.0
30
0
11
33925.0
21
57450.0
31
0
0
LINE
8
cut
10
42075.0
20
67750.0
30
0
11
42075.0
21
57450.0
31
0
0
LINE
8
cut
10
42075.0
20
67750.0
30
0
11
42925.0
21
67750.0
31
0
0
LINE
8
cut
10
42075.0
20
57450.0
30
0
11
42925.0
21
57450.0
31
0
0
LINE
8
cut
10
42925.0
20
67750.0
30
0
11
42925.0
21
57450.0
31
0
0
LINE
8
cut
10
51075.0
20
67750.0
30
0
11
51075.0
21
57450.0
31
0
0
LINE
8
cut
10
51075.0
20
67750.0
30
0
11
51925.0
21
67750.0
31
0
0
LINE
8
cut
10
51075.0
20
57450.0
30
0
11
51925.0
21
57450.0
31
0
0
LINE
8
cut
10
51925.0
20
67750.0
30
0
11
51925.0
21
57450.0
31
0
0
LINE
8
cut
10
22850.0
20
67750.0
30
0
11
22850.0
21
57450.0
31
0
0
LINE
8
cut
10
22850.0
20
67750.0
30
0
11
23150.0
21
67750.0
31
0
0
LINE
8
cut
10
22850.0
20
57450.0
30
0
11
23150.0
21
57450.0
31
0
0
LINE
8
cut
10
23150.0
20
67750.0
30
0
11
23150.0
21
57450.0
31
0
0
LINE
8
cut
10
52850.0
20
67750.0
30
0
11
52850.0
21
57450.0
31
0
0
LINE
8
cut
10
52850.0
20
67750.0
30
0
11
53150.0
21
67750.0
31
0
0
LINE
8
cut
10
52850.0
20
57450.0
30
0
11
53150.0
21
57450.0
31
0
0
LINE
8
cut
10
53150.0
20
67750.0
30
0
11
53150.0
21
57450.0
31
0
0
LINE
8
cut
10
23000.0
20
57850.0
30
0
11
23000.0
21
57450.0
31
0
0
LINE
8
cut
10
23000.0
20
57850.0
30
0
11
53000.0
21
57850.0
31
0
0
LINE
8
cut
10
23000.0
20
57450.0
30
0
11
53000.0
21
57450.0
31
0
0
LINE
8
cut
10
53000.0
20
57850.0
30
0
11
53000.0
21
57450.0
31
0
0
LINE
8
interiors
10
132080.0
20
57850.0
30
0
11
132080.0
21
61050.0
31
0
0
LINE
8
interiors
10
132080.0
20
61050.0
30
0
11
131920.0
21
61050.0
31
0
0
LINE
8
interiors
10
132080.0
20
57850.0
30
0
11
131920.0
21
57850.0
31
0
0
LINE
8
interiors
10
131920.0
20
57850.0
30
0
11
131920.0
21
61050.0
31
0
0
LINE
8
interiors
10
120080.0
20
57850.0
30
0
11
120080.0
21
61050.0
31
0
0
LINE
8
interiors
10
120080.0
20
61050.0
30
0
11
119920.0
21
61050.0
31
0
0
LINE
8
interiors
10
120080.0
20
57850.0
30
0
11
119920.0
21
57850.0
31
0
0
LINE
8
interiors
10
119920.0
20
57850.0
30
0
11
119920.0
21
61050.0
31
0
0
LINE
8
cut
10
23000.0
20
63000.0
30
0
11
23000.0
21
62600.0
31
0
0
LINE
8
cut
10
23000.0
20
63000.0
30
0
11
53000.0
21
63000.0
31
0
0
LINE
8
cut
10
23000.0
20
62600.0
30
0
11
53000.0
21
62600.0
31
0
0
LINE
8
cut
10
53000.0
20
63000.0
30
0
11
53000.0
21
62600.0
31
0
0
LINE
8
cut
10
22500.0
20
68350.0
30
0
11
22500.0
21
67750.0
31
0
0
LINE
8
cut
10
22500.0
20
68350.0
30
0
11
53500.0
21
68350.0
31
0
0
LINE
8
cut
10
22500.0
20
67750.0
30
0
11
53500.0
21
67750.0
31
0
0
LINE
8
cut
10
53500.0
20
68350.0
30
0
11
53500.0
21
67750.0
31
0
0
LINE
8
cut
10
112075.0
20
67750.0
30
0
11
112075.0
21
57450.0
31
0
0
LINE
8
cut
10
112075.0
20
67750.0
30
0
11
112925.0
21
67750.0
31
0
0
LINE
8
cut
10
112075.0
20
57450.0
30
0
11
112925.0
21
57450.0
31
0
0
LINE
8
cut
10
112925.0
20
67750.0
30
0
11
112925.0
21
57450.0
31
0
0
LINE
8
cut
10
121075.0
20
67750.0
30
0
11
121075.0
21
57450.0
31
0
0
LINE
8
cut
10
121075.0
20
67750.0
30
0
11
121925.0
21
67750.0
31
0
0
LINE
8
cut
10
121075.0
20
57450.0
30
0
11
121925.0
21
57450.0
31
0
0
LINE
8
cut
10
121925.0
20
67750.0
30
0
11
121925.0
21
57450.0
31
0
0
LINE
8
cut
10
130075.0
20
67750.0
30
0
11
130075.0
21
57450.0
31
0
0
LINE
8
cut
10
130075.0
20
67750.0
30
0
11
130925.0
21
67750.0
31
0
0
LINE
8
cut
10
130075.0
20
57450.0
30
0
11
130925.0
21
57450.0
31
0
0
LINE
8
cut
10
130925.0
20
67750.0
30
0
11
130925.0
21
57450.0
31
0
0
LINE
8
cut
10
139075.0
20
67750.0
30
0
11
139075.0
21
57450.0
31
0
0
LINE
8
cut
10
139075.0
20
67750.0
30
0
11
139925.0
21
67750.0
31
0
0
LINE
8
cut
10
139075.0
20
57450.0
30
0
11
139925.0
21
57450.0
31
0
0
LINE
8
cut
10
139925.0
20
67750.0
30
0
11
139925.0
21
57450.0
31
0
0
LINE
8
cut
10
110850.0
20
67750.0
30
0
11
110850.0
21
57450.0
31
0
0
LINE
8
cut
10
110850.0
20
67750.0
30
0
11
111150.0
21
67750.0
31
0
0
LINE
8
cut
10
110850.0
20
57450.0
30
0
11
111150.0
21
57450.0
31
0
0
LINE
8
cut
10
111150.0
20
67750.0
30
0
11
111150.0
21
57450.0
31
0
0
LINE
8
cut
10
140850.0
20
67750.0
30
0
11
140850.0
21
57450.0
31
0
0
LINE
8
cut
10
140850.0
20
67750.0
30
0
11
141150.0
21
67750.0
31
0
0
LINE
8
cut
10
140850.0
20
57450.0
30
0
11
141150.0
21
57450.0
31
0
0
LINE
8
cut
10
141150.0
20
67750.0
30
0
11
141150.0
21
57450.0
31
0
0
LINE
8
cut
10
111000.0
20
57850.0
30
0
11
111000.0
21
57450.0
31
0
0
LINE
8
cut
10
111000.0
20
57850.0
30
0
11
141000.0
21
57850.0
31
0
0
LINE
8
cut
10
111000.0
20
57450.0
30
0
11
141000.0
21
57450.0
31
0
0
LINE
8
cut
10
141000.0
20
57850.0
30
0
11
141000.0
21
57450.0
31
0
0
LINE
8
interiors
10
44080.0
20
57850.0
30
0
11
44080.0
21
61050.0
31
0
0
LINE
8
interiors
10
44080.0
20
61050.0
30
0
11
43920.0
21
61050.0
31
0
0
LINE
8
interiors
10
44080.0
20
57850.0
30
0
11
43920.0
21
57850.0
31
0
0
LINE
8
interiors
10
43920.0
20
57850.0
30
0
11
43920.0
21
61050.0
31
0
0
LINE
8
interiors
10
32080.0
20
57850.0
30
0
11
32080.0
21
61050.0
31
0
0
LINE
8
interiors
10
32080.0
20
61050.0
30
0
11
31920.0
21
61050.0
31
0
0
LINE
8
interiors
10
32080.0
20
57850.0
30
0
11
31920.0
21
57850.0
31
0
0
LINE
8
interiors
10
31920.0
20
57850.0
30
0
11
31920.0
21
61050.0
31
0
0
LINE
8
cut
10
111000.0
20
63000.0
30
0
11
111000.0
21
62600.0
31
0
0
LINE
8
cut
10
111000.0
20
63000.0
30
0
11
141000.0
21
63000.0
31
0
0
LINE
8
cut
10
111000.0
20
62600.0
30
0
11
141000.0
21
62600.0
31
0
0
LINE
8
cut
10
141000.0
20
63000.0
30
0
11
141000.0
21
62600.0
31
0
0
LINE
8
cut
10
110500.0
20
68350.0
30
0
11
110500.0
21
67750.0
31
0
0
LINE
8
cut
10
110500.0
20
68350.0
30
0
11
141500.0
21
68350.0
31
0
0
LINE
8
cut
10
110500.0
20
67750.0
30
0
11
141500.0
21
67750.0
31
0
0
LINE
8
cut
10
141500.0
20
68350.0
30
0
11
141500.0
21
67750.0
31
0
0
LINE
8
grid
10
145300.0
20
57450.0
30
0
11
151700.0
21
57450.0
31
0
0
TEXT
8
annotation
10
146000.0
20
57929.99999999999
30
0
40
1000.0
1
PODIUM +1.20m
50
0
0
LINE
8
grid
10
145300.0
20
67750.0
30
0
11
151700.0
21
67750.0
31
0
0
TEXT
8
annotation
10
145000.0
20
68230.0
30
0
40
1000.0
1
WING RF +11.50m
50
0
0
LINE
8
grid
10
145300.0
20
72750.0
30
0
11
151700.0
21
72750.0
31
0
0
TEXT
8
annotation
10
145000.0
20
73230.0
30
0
40
1000.0
1
HALL RF +16.50m
50
0
0
LINE
8
dimension
10
19500.0
20
51850.0
30
0
11
144500.0
21
51850.0
31
0
0
LINE
8
dimension
10
19100.0
20
51450.0
30
0
11
19900.0
21
52250.0
31
0
0
LINE
8
dimension
10
144100.0
20
51450.0
30
0
11
144900.0
21
52250.0
31
0
0
TEXT
8
annotation
10
75100.0
20
52450.0
30
0
40
1200.0
1
125,000 mm shown extent
50
0
0
LINE
8
frame
10
5600
20
23600
30
0
11
162400
21
23600
31
0
0
TEXT
8
annotation
10
5600
20
20400
30
0
40
1400.0
1
CONCEPT DESIGN | IMAGE-INFERRED | NOT FOR CONSTRUCTION
50
0
0
TEXT
8
annotation
10
5600
20
15200.0
30
0
40
1060.0
1
Source: two campus AI images + fab1.jpg; official analogues documented in analysis/cad/.
50
0
0
TEXT
8
annotation
10
5600
20
13440.00000000001
30
0
40
1060.0
1
CAD model in mm; site coordinates X east, Y north, Z up. Internal layouts and member sizes are design estimates.
50
0
0
TEXT
8
annotation
10
5600
20
11679.999999999996
30
0
40
1060.0
1
Plans/sections are extracted from actual FreeCAD BRep. Elevations project component outlines; hidden edges omitted per component.
50
0
0
TEXT
8
annotation
10
5600
20
9920.000000000004
30
0
40
1060.0
1
Civic wing roofs and skylight may differ from the nominal building height; inspect actual geometry and parameter aliases.
50
0
0
TEXT
8
annotation
10
5600
20
8159.999999999991
30
0
40
1060.0
1
No process certification, structural verification, measured survey, or construction approval is implied.
50
0
0
TEXT
8
annotation
10
142800.0
20
4400
30
0
40
1120.0
1
2026-09-30  |  FreeCAD 1.1.4  |  mm
50
0
0
ENDSEC
0
EOF
