0
SECTION
2
HEADER
9
$ACADVER
1
AC1009
9
$INSUNITS
70
4
0
ENDSEC
0
SECTION
2
ENTITIES
0
LINE
8
frame
10
2800
20
116000
30
0
11
165200
21
116000
31
0
0
LINE
8
frame
10
165200
20
116000
30
0
11
165200
21
2800
31
0
0
LINE
8
frame
10
165200
20
2800
30
0
11
2800
21
2800
31
0
0
LINE
8
frame
10
2800
20
2800
30
0
11
2800
21
116000
31
0
0
TEXT
8
annotation
10
5600
20
111600
30
0
40
1680.0
1
PHOENIX SCIENCE PARK
50
0
0
TEXT
8
annotation
10
5600
20
108400
30
0
40
2000.0
1
EXHIBITION / Roof equipment plan
50
0
0
TEXT
8
annotation
10
154720.0
20
111600
30
0
40
1280.0
1
A3  |  1:400
50
0
0
TEXT
8
annotation
10
146800.0
20
108400
30
0
40
1200.0
1
CAD-EXHIBITION-ROOF  /  R1
50
0
0
LINE
8
frame
10
5600
20
106400
30
0
11
162400
21
106400
31
0
0
LINE
8
roof
10
53000.0
20
44800.0
30
0
11
53000.0
21
84800.0
31
0
0
LINE
8
roof
10
111000.0
20
44800.0
30
0
11
111000.0
21
84800.0
31
0
0
LINE
8
roof
10
53000.0
20
44800.0
30
0
11
111000.0
21
44800.0
31
0
0
LINE
8
roof
10
53000.0
20
84800.0
30
0
11
111000.0
21
84800.0
31
0
0
LINE
8
roof
10
22500.0
20
47300.0
30
0
11
22500.0
21
82300.0
31
0
0
LINE
8
roof
10
53500.0
20
47300.0
30
0
11
53500.0
21
82300.0
31
0
0
LINE
8
roof
10
22500.0
20
47300.0
30
0
11
53500.0
21
47300.0
31
0
0
LINE
8
roof
10
22500.0
20
82300.0
30
0
11
53500.0
21
82300.0
31
0
0
LINE
8
roof
10
110500.0
20
47300.0
30
0
11
110500.0
21
82300.0
31
0
0
LINE
8
roof
10
141500.0
20
47300.0
30
0
11
141500.0
21
82300.0
31
0
0
LINE
8
roof
10
110500.0
20
47300.0
30
0
11
141500.0
21
47300.0
31
0
0
LINE
8
roof
10
110500.0
20
82300.0
30
0
11
141500.0
21
82300.0
31
0
0
LINE
8
datum
10
23000.0
20
44800.0
30
0
11
141000.0
21
44800.0
31
0
0
LINE
8
datum
10
141000.0
20
44800.0
30
0
11
141000.0
21
84800.0
31
0
0
LINE
8
datum
10
141000.0
20
84800.0
30
0
11
23000.0
21
84800.0
31
0
0
LINE
8
datum
10
23000.0
20
84800.0
30
0
11
23000.0
21
44800.0
31
0
0
LINE
8
grid
10
23000.0
20
42300.0
30
0
11
23000.0
21
89300.0
31
0
0
TEXT
8
annotation
10
22750.0
20
90100.0
30
0
40
1000.0
1
1
50
0
0
LINE
8
grid
10
32833.333333333336
20
42300.0
30
0
11
32833.333333333336
21
89300.0
31
0
0
TEXT
8
annotation
10
32583.333333333336
20
90100.0
30
0
40
1000.0
1
2
50
0
0
LINE
8
grid
10
42666.66666666667
20
42300.0
30
0
11
42666.66666666667
21
89300.0
31
0
0
TEXT
8
annotation
10
42416.66666666667
20
90100.0
30
0
40
1000.0
1
3
50
0
0
LINE
8
grid
10
52500.0
20
42300.0
30
0
11
52500.0
21
89300.0
31
0
0
TEXT
8
annotation
10
52250.0
20
90100.0
30
0
40
1000.0
1
4
50
0
0
LINE
8
grid
10
62333.333333333336
20
42300.0
30
0
11
62333.333333333336
21
89300.0
31
0
0
TEXT
8
annotation
10
62083.333333333336
20
90100.0
30
0
40
1000.0
1
5
50
0
0
LINE
8
grid
10
72166.66666666666
20
42300.0
30
0
11
72166.66666666666
21
89300.0
31
0
0
TEXT
8
annotation
10
71916.66666666666
20
90100.0
30
0
40
1000.0
1
6
50
0
0
LINE
8
grid
10
82000.0
20
42300.0
30
0
11
82000.0
21
89300.0
31
0
0
TEXT
8
annotation
10
81750.0
20
90100.0
30
0
40
1000.0
1
7
50
0
0
LINE
8
grid
10
91833.33333333333
20
42300.0
30
0
11
91833.33333333333
21
89300.0
31
0
0
TEXT
8
annotation
10
91583.33333333333
20
90100.0
30
0
40
1000.0
1
8
50
0
0
LINE
8
grid
10
101666.66666666667
20
42300.0
30
0
11
101666.66666666667
21
89300.0
31
0
0
TEXT
8
annotation
10
101416.66666666667
20
90100.0
30
0
40
1000.0
1
9
50
0
0
LINE
8
grid
10
111500.0
20
42300.0
30
0
11
111500.0
21
89300.0
31
0
0
TEXT
8
annotation
10
111000.0
20
90100.0
30
0
40
1000.0
1
10
50
0
0
LINE
8
grid
10
121333.33333333333
20
42300.0
30
0
11
121333.33333333333
21
89300.0
31
0
0
TEXT
8
annotation
10
120833.33333333333
20
90100.0
30
0
40
1000.0
1
11
50
0
0
LINE
8
grid
10
131166.6666666667
20
42300.0
30
0
11
131166.6666666667
21
89300.0
31
0
0
TEXT
8
annotation
10
130666.66666666667
20
90100.0
30
0
40
1000.0
1
12
50
0
0
LINE
8
grid
10
141000.0
20
42300.0
30
0
11
141000.0
21
89300.0
31
0
0
TEXT
8
annotation
10
140500.0
20
90100.0
30
0
40
1000.0
1
13
50
0
0
LINE
8
grid
10
19000.0
20
44800.0
30
0
11
145000.0
21
44800.0
31
0
0
TEXT
8
annotation
10
17700.0
20
44400.0
30
0
40
1000.0
1
A
50
0
0
LINE
8
grid
10
19000.0
20
64800.0
30
0
11
145000.0
21
64800.0
31
0
0
TEXT
8
annotation
10
17700.0
20
64400.0
30
0
40
1000.0
1
B
50
0
0
LINE
8
grid
10
19000.0
20
84800.0
30
0
11
145000.0
21
84800.0
31
0
0
TEXT
8
annotation
10
17700.0
20
84400.0
30
0
40
1000.0
1
C
50
0
0
LINE
8
dimension
10
23000.0
20
40000.0
30
0
11
141000.0
21
40000.0
31
0
0
LINE
8
dimension
10
22600.0
20
39600.0
30
0
11
23400.0
21
40400.0
31
0
0
LINE
8
dimension
10
140600.0
20
39600.0
30
0
11
141400.0
21
40400.0
31
0
0
TEXT
8
annotation
10
76600.0
20
40600.0
30
0
40
1200.0
1
118,000 mm overall
50
0
0
LINE
8
dimension
10
145400.0
20
84800.0
30
0
11
145400.0
21
44800.0
31
0
0
TEXT
8
annotation
10
146600.0
20
64800.0
30
0
40
1200.0
1
40,000
50
0
0
TEXT
8
annotation
10
152400.0
20
100800
30
0
40
1600.0
1
N
50
0
0
LINE
8
annotation
10
152800
20
99600
30
0
11
151600
21
96000
31
0
0
LINE
8
annotation
10
151600
20
96000
30
0
11
152800
21
97200
31
0
0
LINE
8
annotation
10
152800
20
97200
30
0
11
154000
21
96000
31
0
0
LINE
8
annotation
10
154000
20
96000
30
0
11
152800
21
99600
31
0
0
LINE
8
frame
10
5600
20
23600
30
0
11
162400
21
23600
31
0
0
TEXT
8
annotation
10
5600
20
20400
30
0
40
1400.0
1
CONCEPT DESIGN | IMAGE-INFERRED | NOT FOR CONSTRUCTION
50
0
0
TEXT
8
annotation
10
5600
20
15200.0
30
0
40
1060.0
1
Source: two campus AI images + fab1.jpg; official analogues documented in analysis/cad/.
50
0
0
TEXT
8
annotation
10
5600
20
13440.00000000001
30
0
40
1060.0
1
CAD model in mm; site coordinates X east, Y north, Z up. Internal layouts and member sizes are design estimates.
50
0
0
TEXT
8
annotation
10
5600
20
11679.999999999996
30
0
40
1060.0
1
Plans/sections are extracted from actual FreeCAD BRep. Elevations project component outlines; hidden edges omitted per component.
50
0
0
TEXT
8
annotation
10
5600
20
9920.000000000004
30
0
40
1060.0
1
Civic wing roofs and skylight may differ from the nominal building height; inspect actual geometry and parameter aliases.
50
0
0
TEXT
8
annotation
10
5600
20
8159.999999999991
30
0
40
1060.0
1
No process certification, structural verification, measured survey, or construction approval is implied.
50
0
0
TEXT
8
annotation
10
142800.0
20
4400
30
0
40
1120.0
1
2026-09-30  |  FreeCAD 1.1.4  |  mm
50
0
0
ENDSEC
0
EOF
