0
SECTION
2
HEADER
9
$ACADVER
1
AC1009
9
$INSUNITS
70
4
0
ENDSEC
0
SECTION
2
ENTITIES
0
LINE
8
frame
10
2800
20
116000
30
0
11
165200
21
116000
31
0
0
LINE
8
frame
10
165200
20
116000
30
0
11
165200
21
2800
31
0
0
LINE
8
frame
10
165200
20
2800
30
0
11
2800
21
2800
31
0
0
LINE
8
frame
10
2800
20
2800
30
0
11
2800
21
116000
31
0
0
TEXT
8
annotation
10
5600
20
111600
30
0
40
1680.0
1
PHOENIX SCIENCE PARK
50
0
0
TEXT
8
annotation
10
5600
20
108400
30
0
40
2000.0
1
EXHIBITION / North elevation
50
0
0
TEXT
8
annotation
10
154720.0
20
111600
30
0
40
1280.0
1
A3  |  1:400
50
0
0
TEXT
8
annotation
10
146200.0
20
108400
30
0
40
1200.0
1
CAD-EXHIBITION-NORTH  /  R1
50
0
0
LINE
8
frame
10
5600
20
106400
30
0
11
162400
21
106400
31
0
0
LINE
8
glazing
10
110420.0
20
56850.0
30
0
11
110420.0
21
71950.0
31
0
0
LINE
8
glazing
10
107017.5
20
56850.0
30
0
11
107017.5
21
71950.0
31
0
0
LINE
8
glazing
10
110420.0
20
56850.0
30
0
11
107017.5
21
56850.0
31
0
0
LINE
8
glazing
10
110420.0
20
71950.0
30
0
11
107017.5
21
71950.0
31
0
0
LINE
8
glazing
10
106857.5
20
56850.0
30
0
11
106857.5
21
71950.0
31
0
0
LINE
8
glazing
10
103455.0
20
56850.0
30
0
11
103455.0
21
71950.0
31
0
0
LINE
8
glazing
10
106857.5
20
56850.0
30
0
11
103455.0
21
56850.0
31
0
0
LINE
8
glazing
10
106857.5
20
71950.0
30
0
11
103455.0
21
71950.0
31
0
0
LINE
8
glazing
10
103295.0
20
56850.0
30
0
11
103295.0
21
71950.0
31
0
0
LINE
8
glazing
10
99892.5
20
56850.0
30
0
11
99892.5
21
71950.0
31
0
0
LINE
8
glazing
10
103295.0
20
56850.0
30
0
11
99892.5
21
56850.0
31
0
0
LINE
8
glazing
10
103295.0
20
71950.0
30
0
11
99892.5
21
71950.0
31
0
0
LINE
8
glazing
10
99732.5
20
56850.0
30
0
11
99732.5
21
71950.0
31
0
0
LINE
8
glazing
10
96330.0
20
56850.0
30
0
11
96330.0
21
71950.0
31
0
0
LINE
8
glazing
10
99732.5
20
56850.0
30
0
11
96330.0
21
56850.0
31
0
0
LINE
8
glazing
10
99732.5
20
71950.0
30
0
11
96330.0
21
71950.0
31
0
0
LINE
8
glazing
10
96170.0
20
56850.0
30
0
11
96170.0
21
71950.0
31
0
0
LINE
8
glazing
10
92767.5
20
56850.0
30
0
11
92767.5
21
71950.0
31
0
0
LINE
8
glazing
10
96170.0
20
56850.0
30
0
11
92767.5
21
56850.0
31
0
0
LINE
8
glazing
10
96170.0
20
71950.0
30
0
11
92767.5
21
71950.0
31
0
0
LINE
8
glazing
10
92607.5
20
56850.0
30
0
11
92607.5
21
71950.0
31
0
0
LINE
8
glazing
10
89205.0
20
56850.0
30
0
11
89205.0
21
71950.0
31
0
0
LINE
8
glazing
10
92607.5
20
56850.0
30
0
11
89205.0
21
56850.0
31
0
0
LINE
8
glazing
10
92607.5
20
71950.0
30
0
11
89205.0
21
71950.0
31
0
0
LINE
8
glazing
10
89045.0
20
56850.0
30
0
11
89045.0
21
71950.0
31
0
0
LINE
8
glazing
10
85642.5
20
56850.0
30
0
11
85642.5
21
71950.0
31
0
0
LINE
8
glazing
10
89045.0
20
56850.0
30
0
11
85642.5
21
56850.0
31
0
0
LINE
8
glazing
10
89045.0
20
71950.0
30
0
11
85642.5
21
71950.0
31
0
0
LINE
8
glazing
10
85482.5
20
56850.0
30
0
11
85482.5
21
71950.0
31
0
0
LINE
8
glazing
10
82080.0
20
56850.0
30
0
11
82080.0
21
71950.0
31
0
0
LINE
8
glazing
10
85482.5
20
56850.0
30
0
11
82080.0
21
56850.0
31
0
0
LINE
8
glazing
10
85482.5
20
71950.0
30
0
11
82080.0
21
71950.0
31
0
0
LINE
8
glazing
10
81920.0
20
56850.0
30
0
11
81920.0
21
71950.0
31
0
0
LINE
8
glazing
10
78517.5
20
56850.0
30
0
11
78517.5
21
71950.0
31
0
0
LINE
8
glazing
10
81920.0
20
56850.0
30
0
11
78517.5
21
56850.0
31
0
0
LINE
8
glazing
10
81920.0
20
71950.0
30
0
11
78517.5
21
71950.0
31
0
0
LINE
8
glazing
10
78357.5
20
56850.0
30
0
11
78357.5
21
71950.0
31
0
0
LINE
8
glazing
10
74955.0
20
56850.0
30
0
11
74955.0
21
71950.0
31
0
0
LINE
8
glazing
10
78357.5
20
56850.0
30
0
11
74955.0
21
56850.0
31
0
0
LINE
8
glazing
10
78357.5
20
71950.0
30
0
11
74955.0
21
71950.0
31
0
0
LINE
8
glazing
10
74795.0
20
56850.0
30
0
11
74795.0
21
71950.0
31
0
0
LINE
8
glazing
10
71392.5
20
56850.0
30
0
11
71392.5
21
71950.0
31
0
0
LINE
8
glazing
10
74795.0
20
56850.0
30
0
11
71392.5
21
56850.0
31
0
0
LINE
8
glazing
10
74795.0
20
71950.0
30
0
11
71392.5
21
71950.0
31
0
0
LINE
8
glazing
10
71232.5
20
56850.0
30
0
11
71232.5
21
71950.0
31
0
0
LINE
8
glazing
10
67830.0
20
56850.0
30
0
11
67830.0
21
71950.0
31
0
0
LINE
8
glazing
10
71232.5
20
56850.0
30
0
11
67830.0
21
56850.0
31
0
0
LINE
8
glazing
10
71232.5
20
71950.0
30
0
11
67830.0
21
71950.0
31
0
0
LINE
8
glazing
10
67670.0
20
56850.0
30
0
11
67670.0
21
71950.0
31
0
0
LINE
8
glazing
10
64267.49999999999
20
56850.0
30
0
11
64267.49999999999
21
71950.0
31
0
0
LINE
8
glazing
10
67670.0
20
56850.0
30
0
11
64267.49999999999
21
56850.0
31
0
0
LINE
8
glazing
10
67670.0
20
71950.0
30
0
11
64267.49999999999
21
71950.0
31
0
0
LINE
8
glazing
10
64107.50000000001
20
56850.0
30
0
11
64107.50000000001
21
71950.0
31
0
0
LINE
8
glazing
10
60704.99999999999
20
56850.0
30
0
11
60704.99999999999
21
71950.0
31
0
0
LINE
8
glazing
10
64107.50000000001
20
56850.0
30
0
11
60704.99999999999
21
56850.0
31
0
0
LINE
8
glazing
10
64107.50000000001
20
71950.0
30
0
11
60704.99999999999
21
71950.0
31
0
0
LINE
8
glazing
10
60545.00000000001
20
56850.0
30
0
11
60545.00000000001
21
71950.0
31
0
0
LINE
8
glazing
10
57142.49999999999
20
56850.0
30
0
11
57142.49999999999
21
71950.0
31
0
0
LINE
8
glazing
10
60545.00000000001
20
56850.0
30
0
11
57142.49999999999
21
56850.0
31
0
0
LINE
8
glazing
10
60545.00000000001
20
71950.0
30
0
11
57142.49999999999
21
71950.0
31
0
0
LINE
8
glazing
10
56982.50000000001
20
56850.0
30
0
11
56982.50000000001
21
71950.0
31
0
0
LINE
8
glazing
10
53579.99999999999
20
56850.0
30
0
11
53579.99999999999
21
71950.0
31
0
0
LINE
8
glazing
10
56982.50000000001
20
56850.0
30
0
11
53579.99999999999
21
56850.0
31
0
0
LINE
8
glazing
10
56982.50000000001
20
71950.0
30
0
11
53579.99999999999
21
71950.0
31
0
0
LINE
8
envelope
10
110559.99999999999
20
56850.0
30
0
11
110559.99999999999
21
72150.0
31
0
0
LINE
8
envelope
10
110440.00000000001
20
56850.0
30
0
11
110440.00000000001
21
72150.0
31
0
0
LINE
8
envelope
10
110559.99999999999
20
56850.0
30
0
11
110440.00000000001
21
56850.0
31
0
0
LINE
8
envelope
10
110559.99999999999
20
72150.0
30
0
11
110440.00000000001
21
72150.0
31
0
0
LINE
8
envelope
10
106997.49999999999
20
56850.0
30
0
11
106997.49999999999
21
72150.0
31
0
0
LINE
8
envelope
10
106877.50000000001
20
56850.0
30
0
11
106877.50000000001
21
72150.0
31
0
0
LINE
8
envelope
10
106997.49999999999
20
56850.0
30
0
11
106877.50000000001
21
56850.0
31
0
0
LINE
8
envelope
10
106997.49999999999
20
72150.0
30
0
11
106877.50000000001
21
72150.0
31
0
0
LINE
8
envelope
10
103434.99999999999
20
56850.0
30
0
11
103434.99999999999
21
72150.0
31
0
0
LINE
8
envelope
10
103315.00000000001
20
56850.0
30
0
11
103315.00000000001
21
72150.0
31
0
0
LINE
8
envelope
10
103434.99999999999
20
56850.0
30
0
11
103315.00000000001
21
56850.0
31
0
0
LINE
8
envelope
10
103434.99999999999
20
72150.0
30
0
11
103315.00000000001
21
72150.0
31
0
0
LINE
8
envelope
10
99872.5
20
56850.0
30
0
11
99872.5
21
72150.0
31
0
0
LINE
8
envelope
10
99752.5
20
56850.0
30
0
11
99752.5
21
72150.0
31
0
0
LINE
8
envelope
10
99872.5
20
56850.0
30
0
11
99752.5
21
56850.0
31
0
0
LINE
8
envelope
10
99872.5
20
72150.0
30
0
11
99752.5
21
72150.0
31
0
0
LINE
8
envelope
10
96310.0
20
56850.0
30
0
11
96310.0
21
72150.0
31
0
0
LINE
8
envelope
10
96190.0
20
56850.0
30
0
11
96190.0
21
72150.0
31
0
0
LINE
8
envelope
10
96310.0
20
56850.0
30
0
11
96190.0
21
56850.0
31
0
0
LINE
8
envelope
10
96310.0
20
72150.0
30
0
11
96190.0
21
72150.0
31
0
0
LINE
8
envelope
10
92747.5
20
56850.0
30
0
11
92747.5
21
72150.0
31
0
0
LINE
8
envelope
10
92627.5
20
56850.0
30
0
11
92627.5
21
72150.0
31
0
0
LINE
8
envelope
10
92747.5
20
56850.0
30
0
11
92627.5
21
56850.0
31
0
0
LINE
8
envelope
10
92747.5
20
72150.0
30
0
11
92627.5
21
72150.0
31
0
0
LINE
8
envelope
10
89185.0
20
56850.0
30
0
11
89185.0
21
72150.0
31
0
0
LINE
8
envelope
10
89065.0
20
56850.0
30
0
11
89065.0
21
72150.0
31
0
0
LINE
8
envelope
10
89185.0
20
56850.0
30
0
11
89065.0
21
56850.0
31
0
0
LINE
8
envelope
10
89185.0
20
72150.0
30
0
11
89065.0
21
72150.0
31
0
0
LINE
8
envelope
10
85622.5
20
56850.0
30
0
11
85622.5
21
72150.0
31
0
0
LINE
8
envelope
10
85502.5
20
56850.0
30
0
11
85502.5
21
72150.0
31
0
0
LINE
8
envelope
10
85622.5
20
56850.0
30
0
11
85502.5
21
56850.0
31
0
0
LINE
8
envelope
10
85622.5
20
72150.0
30
0
11
85502.5
21
72150.0
31
0
0
LINE
8
envelope
10
82060.0
20
56850.0
30
0
11
82060.0
21
72150.0
31
0
0
LINE
8
envelope
10
81940.0
20
56850.0
30
0
11
81940.0
21
72150.0
31
0
0
LINE
8
envelope
10
82060.0
20
56850.0
30
0
11
81940.0
21
56850.0
31
0
0
LINE
8
envelope
10
82060.0
20
72150.0
30
0
11
81940.0
21
72150.0
31
0
0
LINE
8
envelope
10
78497.5
20
56850.0
30
0
11
78497.5
21
72150.0
31
0
0
LINE
8
envelope
10
78377.5
20
56850.0
30
0
11
78377.5
21
72150.0
31
0
0
LINE
8
envelope
10
78497.5
20
56850.0
30
0
11
78377.5
21
56850.0
31
0
0
LINE
8
envelope
10
78497.5
20
72150.0
30
0
11
78377.5
21
72150.0
31
0
0
LINE
8
envelope
10
74935.0
20
56850.0
30
0
11
74935.0
21
72150.0
31
0
0
LINE
8
envelope
10
74815.0
20
56850.0
30
0
11
74815.0
21
72150.0
31
0
0
LINE
8
envelope
10
74935.0
20
56850.0
30
0
11
74815.0
21
56850.0
31
0
0
LINE
8
envelope
10
74935.0
20
72150.0
30
0
11
74815.0
21
72150.0
31
0
0
LINE
8
envelope
10
71372.5
20
56850.0
30
0
11
71372.5
21
72150.0
31
0
0
LINE
8
envelope
10
71252.5
20
56850.0
30
0
11
71252.5
21
72150.0
31
0
0
LINE
8
envelope
10
71372.5
20
56850.0
30
0
11
71252.5
21
56850.0
31
0
0
LINE
8
envelope
10
71372.5
20
72150.0
30
0
11
71252.5
21
72150.0
31
0
0
LINE
8
envelope
10
67810.0
20
56850.0
30
0
11
67810.0
21
72150.0
31
0
0
LINE
8
envelope
10
67690.0
20
56850.0
30
0
11
67690.0
21
72150.0
31
0
0
LINE
8
envelope
10
67810.0
20
56850.0
30
0
11
67690.0
21
56850.0
31
0
0
LINE
8
envelope
10
67810.0
20
72150.0
30
0
11
67690.0
21
72150.0
31
0
0
LINE
8
envelope
10
64247.5
20
56850.0
30
0
11
64247.5
21
72150.0
31
0
0
LINE
8
envelope
10
64127.5
20
56850.0
30
0
11
64127.5
21
72150.0
31
0
0
LINE
8
envelope
10
64247.5
20
56850.0
30
0
11
64127.5
21
56850.0
31
0
0
LINE
8
envelope
10
64247.5
20
72150.0
30
0
11
64127.5
21
72150.0
31
0
0
LINE
8
envelope
10
60685.0
20
56850.0
30
0
11
60685.0
21
72150.0
31
0
0
LINE
8
envelope
10
60565.0
20
56850.0
30
0
11
60565.0
21
72150.0
31
0
0
LINE
8
envelope
10
60685.0
20
56850.0
30
0
11
60565.0
21
56850.0
31
0
0
LINE
8
envelope
10
60685.0
20
72150.0
30
0
11
60565.0
21
72150.0
31
0
0
LINE
8
envelope
10
57122.5
20
56850.0
30
0
11
57122.5
21
72150.0
31
0
0
LINE
8
envelope
10
57002.5
20
56850.0
30
0
11
57002.5
21
72150.0
31
0
0
LINE
8
envelope
10
57122.5
20
56850.0
30
0
11
57002.5
21
56850.0
31
0
0
LINE
8
envelope
10
57122.5
20
72150.0
30
0
11
57002.5
21
72150.0
31
0
0
LINE
8
envelope
10
53560.0
20
56850.0
30
0
11
53560.0
21
72150.0
31
0
0
LINE
8
envelope
10
53440.0
20
56850.0
30
0
11
53440.0
21
72150.0
31
0
0
LINE
8
envelope
10
53560.0
20
56850.0
30
0
11
53440.0
21
56850.0
31
0
0
LINE
8
envelope
10
53560.0
20
72150.0
30
0
11
53440.0
21
72150.0
31
0
0
LINE
8
envelope
10
110500.0
20
56850.0
30
0
11
110500.0
21
56990.0
31
0
0
LINE
8
envelope
10
53500.0
20
56850.0
30
0
11
53500.0
21
56990.0
31
0
0
LINE
8
envelope
10
110500.0
20
56850.0
30
0
11
53500.0
21
56850.0
31
0
0
LINE
8
envelope
10
110500.0
20
56990.0
30
0
11
53500.0
21
56990.0
31
0
0
LINE
8
envelope
10
110500.0
20
60675.0
30
0
11
110500.0
21
60815.0
31
0
0
LINE
8
envelope
10
53500.0
20
60675.0
30
0
11
53500.0
21
60815.0
31
0
0
LINE
8
envelope
10
110500.0
20
60675.0
30
0
11
53500.0
21
60675.0
31
0
0
LINE
8
envelope
10
110500.0
20
60815.0
30
0
11
53500.0
21
60815.0
31
0
0
LINE
8
envelope
10
110500.0
20
64500.0
30
0
11
110500.0
21
64640.0
31
0
0
LINE
8
envelope
10
53500.0
20
64500.0
30
0
11
53500.0
21
64640.0
31
0
0
LINE
8
envelope
10
110500.0
20
64500.0
30
0
11
53500.0
21
64500.0
31
0
0
LINE
8
envelope
10
110500.0
20
64640.0
30
0
11
53500.0
21
64640.0
31
0
0
LINE
8
envelope
10
110500.0
20
68325.0
30
0
11
110500.0
21
68465.0
31
0
0
LINE
8
envelope
10
53500.0
20
68325.0
30
0
11
53500.0
21
68465.0
31
0
0
LINE
8
envelope
10
110500.0
20
68325.0
30
0
11
53500.0
21
68325.0
31
0
0
LINE
8
envelope
10
110500.0
20
68465.0
30
0
11
53500.0
21
68465.0
31
0
0
LINE
8
envelope
10
110500.0
20
72150.0
30
0
11
110500.0
21
72290.0
31
0
0
LINE
8
envelope
10
53500.0
20
72150.0
30
0
11
53500.0
21
72290.0
31
0
0
LINE
8
envelope
10
110500.0
20
72150.0
30
0
11
53500.0
21
72150.0
31
0
0
LINE
8
envelope
10
110500.0
20
72290.0
30
0
11
53500.0
21
72290.0
31
0
0
LINE
8
envelope
10
110650.0
20
56850.0
30
0
11
110650.0
21
72150.0
31
0
0
LINE
8
envelope
10
110350.0
20
56850.0
30
0
11
110350.0
21
72150.0
31
0
0
LINE
8
envelope
10
110650.0
20
56850.0
30
0
11
110350.0
21
56850.0
31
0
0
LINE
8
envelope
10
110650.0
20
72150.0
30
0
11
110350.0
21
72150.0
31
0
0
LINE
8
envelope
10
53650.0
20
56850.0
30
0
11
53650.0
21
72150.0
31
0
0
LINE
8
envelope
10
53350.0
20
56850.0
30
0
11
53350.0
21
72150.0
31
0
0
LINE
8
envelope
10
53650.0
20
56850.0
30
0
11
53350.0
21
56850.0
31
0
0
LINE
8
envelope
10
53650.0
20
72150.0
30
0
11
53350.0
21
72150.0
31
0
0
LINE
8
roof
10
111000.0
20
72150.0
30
0
11
111000.0
21
72750.0
31
0
0
LINE
8
roof
10
53000.0
20
72150.0
30
0
11
53000.0
21
72750.0
31
0
0
LINE
8
roof
10
111000.0
20
72150.0
30
0
11
53000.0
21
72150.0
31
0
0
LINE
8
roof
10
111000.0
20
72750.0
30
0
11
53000.0
21
72750.0
31
0
0
LINE
8
glazing
10
140920.0
20
56850.0
30
0
11
140920.0
21
66950.0
31
0
0
LINE
8
glazing
10
137746.66999999998
20
56850.0
30
0
11
137746.66999999998
21
66950.0
31
0
0
LINE
8
glazing
10
140920.0
20
56850.0
30
0
11
137746.66999999998
21
56850.0
31
0
0
LINE
8
glazing
10
140920.0
20
66950.0
30
0
11
137746.66999999998
21
66950.0
31
0
0
LINE
8
glazing
10
137586.67
20
56850.0
30
0
11
137586.67
21
66950.0
31
0
0
LINE
8
glazing
10
134413.33
20
56850.0
30
0
11
134413.33
21
66950.0
31
0
0
LINE
8
glazing
10
137586.67
20
56850.0
30
0
11
134413.33
21
56850.0
31
0
0
LINE
8
glazing
10
137586.67
20
66950.0
30
0
11
134413.33
21
66950.0
31
0
0
LINE
8
glazing
10
134253.33000000002
20
56850.0
30
0
11
134253.33000000002
21
66950.0
31
0
0
LINE
8
glazing
10
131080.0
20
56850.0
30
0
11
131080.0
21
66950.0
31
0
0
LINE
8
glazing
10
134253.33000000002
20
56850.0
30
0
11
131080.0
21
56850.0
31
0
0
LINE
8
glazing
10
134253.33000000002
20
66950.0
30
0
11
131080.0
21
66950.0
31
0
0
LINE
8
glazing
10
130920.0
20
56850.0
30
0
11
130920.0
21
66950.0
31
0
0
LINE
8
glazing
10
127746.67
20
56850.0
30
0
11
127746.67
21
66950.0
31
0
0
LINE
8
glazing
10
130920.0
20
56850.0
30
0
11
127746.67
21
56850.0
31
0
0
LINE
8
glazing
10
130920.0
20
66950.0
30
0
11
127746.67
21
66950.0
31
0
0
LINE
8
glazing
10
127586.67
20
56850.0
30
0
11
127586.67
21
66950.0
31
0
0
LINE
8
glazing
10
124413.33
20
56850.0
30
0
11
124413.33
21
66950.0
31
0
0
LINE
8
glazing
10
127586.67
20
56850.0
30
0
11
124413.33
21
56850.0
31
0
0
LINE
8
glazing
10
127586.67
20
66950.0
30
0
11
124413.33
21
66950.0
31
0
0
LINE
8
glazing
10
124253.33
20
56850.0
30
0
11
124253.33
21
66950.0
31
0
0
LINE
8
glazing
10
121080.0
20
56850.0
30
0
11
121080.0
21
66950.0
31
0
0
LINE
8
glazing
10
124253.33
20
56850.0
30
0
11
121080.0
21
56850.0
31
0
0
LINE
8
glazing
10
124253.33
20
66950.0
30
0
11
121080.0
21
66950.0
31
0
0
LINE
8
glazing
10
120920.0
20
56850.0
30
0
11
120920.0
21
66950.0
31
0
0
LINE
8
glazing
10
117746.67
20
56850.0
30
0
11
117746.67
21
66950.0
31
0
0
LINE
8
glazing
10
120920.0
20
56850.0
30
0
11
117746.67
21
56850.0
31
0
0
LINE
8
glazing
10
120920.0
20
66950.0
30
0
11
117746.67
21
66950.0
31
0
0
LINE
8
glazing
10
117586.67
20
56850.0
30
0
11
117586.67
21
66950.0
31
0
0
LINE
8
glazing
10
114413.33
20
56850.0
30
0
11
114413.33
21
66950.0
31
0
0
LINE
8
glazing
10
117586.67
20
56850.0
30
0
11
114413.33
21
56850.0
31
0
0
LINE
8
glazing
10
117586.67
20
66950.0
30
0
11
114413.33
21
66950.0
31
0
0
LINE
8
glazing
10
114253.33
20
56850.0
30
0
11
114253.33
21
66950.0
31
0
0
LINE
8
glazing
10
111080.0
20
56850.0
30
0
11
111080.0
21
66950.0
31
0
0
LINE
8
glazing
10
114253.33
20
56850.0
30
0
11
111080.0
21
56850.0
31
0
0
LINE
8
glazing
10
114253.33
20
66950.0
30
0
11
111080.0
21
66950.0
31
0
0
LINE
8
envelope
10
141060.0
20
56850.0
30
0
11
141060.0
21
67150.0
31
0
0
LINE
8
envelope
10
140940.0
20
56850.0
30
0
11
140940.0
21
67150.0
31
0
0
LINE
8
envelope
10
141060.0
20
56850.0
30
0
11
140940.0
21
56850.0
31
0
0
LINE
8
envelope
10
141060.0
20
67150.0
30
0
11
140940.0
21
67150.0
31
0
0
LINE
8
envelope
10
137726.67
20
56850.0
30
0
11
137726.67
21
67150.0
31
0
0
LINE
8
envelope
10
137606.66999999998
20
56850.0
30
0
11
137606.66999999998
21
67150.0
31
0
0
LINE
8
envelope
10
137726.67
20
56850.0
30
0
11
137606.66999999998
21
56850.0
31
0
0
LINE
8
envelope
10
137726.67
20
67150.0
30
0
11
137606.66999999998
21
67150.0
31
0
0
LINE
8
envelope
10
134393.33000000002
20
56850.0
30
0
11
134393.33000000002
21
67150.0
31
0
0
LINE
8
envelope
10
134273.33
20
56850.0
30
0
11
134273.33
21
67150.0
31
0
0
LINE
8
envelope
10
134393.33000000002
20
56850.0
30
0
11
134273.33
21
56850.0
31
0
0
LINE
8
envelope
10
134393.33000000002
20
67150.0
30
0
11
134273.33
21
67150.0
31
0
0
LINE
8
envelope
10
131059.99999999999
20
56850.0
30
0
11
131059.99999999999
21
67150.0
31
0
0
LINE
8
envelope
10
130940.00000000001
20
56850.0
30
0
11
130940.00000000001
21
67150.0
31
0
0
LINE
8
envelope
10
131059.99999999999
20
56850.0
30
0
11
130940.00000000001
21
56850.0
31
0
0
LINE
8
envelope
10
131059.99999999999
20
67150.0
30
0
11
130940.00000000001
21
67150.0
31
0
0
LINE
8
envelope
10
127726.66999999998
20
56850.0
30
0
11
127726.66999999998
21
67150.0
31
0
0
LINE
8
envelope
10
127606.66999999998
20
56850.0
30
0
11
127606.66999999998
21
67150.0
31
0
0
LINE
8
envelope
10
127726.66999999998
20
56850.0
30
0
11
127606.66999999998
21
56850.0
31
0
0
LINE
8
envelope
10
127726.66999999998
20
67150.0
30
0
11
127606.66999999998
21
67150.0
31
0
0
LINE
8
envelope
10
124393.33000000002
20
56850.0
30
0
11
124393.33000000002
21
67150.0
31
0
0
LINE
8
envelope
10
124273.33000000002
20
56850.0
30
0
11
124273.33000000002
21
67150.0
31
0
0
LINE
8
envelope
10
124393.33000000002
20
56850.0
30
0
11
124273.33000000002
21
56850.0
31
0
0
LINE
8
envelope
10
124393.33000000002
20
67150.0
30
0
11
124273.33000000002
21
67150.0
31
0
0
LINE
8
envelope
10
121059.99999999999
20
56850.0
30
0
11
121059.99999999999
21
67150.0
31
0
0
LINE
8
envelope
10
120940.00000000001
20
56850.0
30
0
11
120940.00000000001
21
67150.0
31
0
0
LINE
8
envelope
10
121059.99999999999
20
56850.0
30
0
11
120940.00000000001
21
56850.0
31
0
0
LINE
8
envelope
10
121059.99999999999
20
67150.0
30
0
11
120940.00000000001
21
67150.0
31
0
0
LINE
8
envelope
10
117726.66999999998
20
56850.0
30
0
11
117726.66999999998
21
67150.0
31
0
0
LINE
8
envelope
10
117606.66999999998
20
56850.0
30
0
11
117606.66999999998
21
67150.0
31
0
0
LINE
8
envelope
10
117726.66999999998
20
56850.0
30
0
11
117606.66999999998
21
56850.0
31
0
0
LINE
8
envelope
10
117726.66999999998
20
67150.0
30
0
11
117606.66999999998
21
67150.0
31
0
0
LINE
8
envelope
10
114393.33000000002
20
56850.0
30
0
11
114393.33000000002
21
67150.0
31
0
0
LINE
8
envelope
10
114273.33000000002
20
56850.0
30
0
11
114273.33000000002
21
67150.0
31
0
0
LINE
8
envelope
10
114393.33000000002
20
56850.0
30
0
11
114273.33000000002
21
56850.0
31
0
0
LINE
8
envelope
10
114393.33000000002
20
67150.0
30
0
11
114273.33000000002
21
67150.0
31
0
0
LINE
8
envelope
10
111059.99999999999
20
56850.0
30
0
11
111059.99999999999
21
67150.0
31
0
0
LINE
8
envelope
10
110940.00000000001
20
56850.0
30
0
11
110940.00000000001
21
67150.0
31
0
0
LINE
8
envelope
10
111059.99999999999
20
56850.0
30
0
11
110940.00000000001
21
56850.0
31
0
0
LINE
8
envelope
10
111059.99999999999
20
67150.0
30
0
11
110940.00000000001
21
67150.0
31
0
0
LINE
8
envelope
10
141000.0
20
56850.0
30
0
11
141000.0
21
56990.0
31
0
0
LINE
8
envelope
10
111000.0
20
56850.0
30
0
11
111000.0
21
56990.0
31
0
0
LINE
8
envelope
10
141000.0
20
56850.0
30
0
11
111000.0
21
56850.0
31
0
0
LINE
8
envelope
10
141000.0
20
56990.0
30
0
11
111000.0
21
56990.0
31
0
0
LINE
8
envelope
10
141000.0
20
59425.0
30
0
11
141000.0
21
59565.0
31
0
0
LINE
8
envelope
10
111000.0
20
59425.0
30
0
11
111000.0
21
59565.0
31
0
0
LINE
8
envelope
10
141000.0
20
59425.0
30
0
11
111000.0
21
59425.0
31
0
0
LINE
8
envelope
10
141000.0
20
59565.0
30
0
11
111000.0
21
59565.0
31
0
0
LINE
8
envelope
10
141000.0
20
62000.0
30
0
11
141000.0
21
62140.0
31
0
0
LINE
8
envelope
10
111000.0
20
62000.0
30
0
11
111000.0
21
62140.0
31
0
0
LINE
8
envelope
10
141000.0
20
62000.0
30
0
11
111000.0
21
62000.0
31
0
0
LINE
8
envelope
10
141000.0
20
62140.0
30
0
11
111000.0
21
62140.0
31
0
0
LINE
8
envelope
10
141000.0
20
64575.0
30
0
11
141000.0
21
64715.0
31
0
0
LINE
8
envelope
10
111000.0
20
64575.0
30
0
11
111000.0
21
64715.0
31
0
0
LINE
8
envelope
10
141000.0
20
64575.0
30
0
11
111000.0
21
64575.0
31
0
0
LINE
8
envelope
10
141000.0
20
64715.0
30
0
11
111000.0
21
64715.0
31
0
0
LINE
8
envelope
10
141000.0
20
67150.0
30
0
11
141000.0
21
67290.0
31
0
0
LINE
8
envelope
10
111000.0
20
67150.0
30
0
11
111000.0
21
67290.0
31
0
0
LINE
8
envelope
10
141000.0
20
67150.0
30
0
11
111000.0
21
67150.0
31
0
0
LINE
8
envelope
10
141000.0
20
67290.0
30
0
11
111000.0
21
67290.0
31
0
0
LINE
8
envelope
10
141150.0
20
56850.0
30
0
11
141150.0
21
67150.0
31
0
0
LINE
8
envelope
10
140850.0
20
56850.0
30
0
11
140850.0
21
67150.0
31
0
0
LINE
8
envelope
10
141150.0
20
56850.0
30
0
11
140850.0
21
56850.0
31
0
0
LINE
8
envelope
10
141150.0
20
67150.0
30
0
11
140850.0
21
67150.0
31
0
0
LINE
8
envelope
10
111150.0
20
56850.0
30
0
11
111150.0
21
67150.0
31
0
0
LINE
8
envelope
10
110850.0
20
56850.0
30
0
11
110850.0
21
67150.0
31
0
0
LINE
8
envelope
10
111150.0
20
56850.0
30
0
11
110850.0
21
56850.0
31
0
0
LINE
8
envelope
10
111150.0
20
67150.0
30
0
11
110850.0
21
67150.0
31
0
0
LINE
8
roof
10
141500.0
20
67150.0
30
0
11
141500.0
21
67750.0
31
0
0
LINE
8
roof
10
110500.0
20
67150.0
30
0
11
110500.0
21
67750.0
31
0
0
LINE
8
roof
10
141500.0
20
67150.0
30
0
11
110500.0
21
67150.0
31
0
0
LINE
8
roof
10
141500.0
20
67750.0
30
0
11
110500.0
21
67750.0
31
0
0
LINE
8
glazing
10
52920.00000000001
20
56850.0
30
0
11
52920.00000000001
21
66950.0
31
0
0
LINE
8
glazing
10
49746.67
20
56850.0
30
0
11
49746.67
21
66950.0
31
0
0
LINE
8
glazing
10
52920.00000000001
20
56850.0
30
0
11
49746.67
21
56850.0
31
0
0
LINE
8
glazing
10
52920.00000000001
20
66950.0
30
0
11
49746.67
21
66950.0
31
0
0
LINE
8
glazing
10
49586.67
20
56850.0
30
0
11
49586.67
21
66950.0
31
0
0
LINE
8
glazing
10
46413.33
20
56850.0
30
0
11
46413.33
21
66950.0
31
0
0
LINE
8
glazing
10
49586.67
20
56850.0
30
0
11
46413.33
21
56850.0
31
0
0
LINE
8
glazing
10
49586.67
20
66950.0
30
0
11
46413.33
21
66950.0
31
0
0
LINE
8
glazing
10
46253.33
20
56850.0
30
0
11
46253.33
21
66950.0
31
0
0
LINE
8
glazing
10
43080.0
20
56850.0
30
0
11
43080.0
21
66950.0
31
0
0
LINE
8
glazing
10
46253.33
20
56850.0
30
0
11
43080.0
21
56850.0
31
0
0
LINE
8
glazing
10
46253.33
20
66950.0
30
0
11
43080.0
21
66950.0
31
0
0
LINE
8
glazing
10
42920.0
20
56850.0
30
0
11
42920.0
21
66950.0
31
0
0
LINE
8
glazing
10
39746.67
20
56850.0
30
0
11
39746.67
21
66950.0
31
0
0
LINE
8
glazing
10
42920.0
20
56850.0
30
0
11
39746.67
21
56850.0
31
0
0
LINE
8
glazing
10
42920.0
20
66950.0
30
0
11
39746.67
21
66950.0
31
0
0
LINE
8
glazing
10
39586.67
20
56850.0
30
0
11
39586.67
21
66950.0
31
0
0
LINE
8
glazing
10
36413.33
20
56850.0
30
0
11
36413.33
21
66950.0
31
0
0
LINE
8
glazing
10
39586.67
20
56850.0
30
0
11
36413.33
21
56850.0
31
0
0
LINE
8
glazing
10
39586.67
20
66950.0
30
0
11
36413.33
21
66950.0
31
0
0
LINE
8
glazing
10
36253.33
20
56850.0
30
0
11
36253.33
21
66950.0
31
0
0
LINE
8
glazing
10
33080.0
20
56850.0
30
0
11
33080.0
21
66950.0
31
0
0
LINE
8
glazing
10
36253.33
20
56850.0
30
0
11
33080.0
21
56850.0
31
0
0
LINE
8
glazing
10
36253.33
20
66950.0
30
0
11
33080.0
21
66950.0
31
0
0
LINE
8
glazing
10
32920.0
20
56850.0
30
0
11
32920.0
21
66950.0
31
0
0
LINE
8
glazing
10
29746.669999999995
20
56850.0
30
0
11
29746.669999999995
21
66950.0
31
0
0
LINE
8
glazing
10
32920.0
20
56850.0
30
0
11
29746.669999999995
21
56850.0
31
0
0
LINE
8
glazing
10
32920.0
20
66950.0
30
0
11
29746.669999999995
21
66950.0
31
0
0
LINE
8
glazing
10
29586.670000000006
20
56850.0
30
0
11
29586.670000000006
21
66950.0
31
0
0
LINE
8
glazing
10
26413.329999999994
20
56850.0
30
0
11
26413.329999999994
21
66950.0
31
0
0
LINE
8
glazing
10
29586.670000000006
20
56850.0
30
0
11
26413.329999999994
21
56850.0
31
0
0
LINE
8
glazing
10
29586.670000000006
20
66950.0
30
0
11
26413.329999999994
21
66950.0
31
0
0
LINE
8
glazing
10
26253.330000000005
20
56850.0
30
0
11
26253.330000000005
21
66950.0
31
0
0
LINE
8
glazing
10
23079.999999999996
20
56850.0
30
0
11
23079.999999999996
21
66950.0
31
0
0
LINE
8
glazing
10
26253.330000000005
20
56850.0
30
0
11
23079.999999999996
21
56850.0
31
0
0
LINE
8
glazing
10
26253.330000000005
20
66950.0
30
0
11
23079.999999999996
21
66950.0
31
0
0
LINE
8
envelope
10
53060.0
20
56850.0
30
0
11
53060.0
21
67150.0
31
0
0
LINE
8
envelope
10
52940.0
20
56850.0
30
0
11
52940.0
21
67150.0
31
0
0
LINE
8
envelope
10
53060.0
20
56850.0
30
0
11
52940.0
21
56850.0
31
0
0
LINE
8
envelope
10
53060.0
20
67150.0
30
0
11
52940.0
21
67150.0
31
0
0
LINE
8
envelope
10
49726.67
20
56850.0
30
0
11
49726.67
21
67150.0
31
0
0
LINE
8
envelope
10
49606.67
20
56850.0
30
0
11
49606.67
21
67150.0
31
0
0
LINE
8
envelope
10
49726.67
20
56850.0
30
0
11
49606.67
21
56850.0
31
0
0
LINE
8
envelope
10
49726.67
20
67150.0
30
0
11
49606.67
21
67150.0
31
0
0
LINE
8
envelope
10
46393.33
20
56850.0
30
0
11
46393.33
21
67150.0
31
0
0
LINE
8
envelope
10
46273.33
20
56850.0
30
0
11
46273.33
21
67150.0
31
0
0
LINE
8
envelope
10
46393.33
20
56850.0
30
0
11
46273.33
21
56850.0
31
0
0
LINE
8
envelope
10
46393.33
20
67150.0
30
0
11
46273.33
21
67150.0
31
0
0
LINE
8
envelope
10
43060.0
20
56850.0
30
0
11
43060.0
21
67150.0
31
0
0
LINE
8
envelope
10
42940.0
20
56850.0
30
0
11
42940.0
21
67150.0
31
0
0
LINE
8
envelope
10
43060.0
20
56850.0
30
0
11
42940.0
21
56850.0
31
0
0
LINE
8
envelope
10
43060.0
20
67150.0
30
0
11
42940.0
21
67150.0
31
0
0
LINE
8
envelope
10
39726.67
20
56850.0
30
0
11
39726.67
21
67150.0
31
0
0
LINE
8
envelope
10
39606.67
20
56850.0
30
0
11
39606.67
21
67150.0
31
0
0
LINE
8
envelope
10
39726.67
20
56850.0
30
0
11
39606.67
21
56850.0
31
0
0
LINE
8
envelope
10
39726.67
20
67150.0
30
0
11
39606.67
21
67150.0
31
0
0
LINE
8
envelope
10
36393.33
20
56850.0
30
0
11
36393.33
21
67150.0
31
0
0
LINE
8
envelope
10
36273.33
20
56850.0
30
0
11
36273.33
21
67150.0
31
0
0
LINE
8
envelope
10
36393.33
20
56850.0
30
0
11
36273.33
21
56850.0
31
0
0
LINE
8
envelope
10
36393.33
20
67150.0
30
0
11
36273.33
21
67150.0
31
0
0
LINE
8
envelope
10
33060.0
20
56850.0
30
0
11
33060.0
21
67150.0
31
0
0
LINE
8
envelope
10
32940.0
20
56850.0
30
0
11
32940.0
21
67150.0
31
0
0
LINE
8
envelope
10
33060.0
20
56850.0
30
0
11
32940.0
21
56850.0
31
0
0
LINE
8
envelope
10
33060.0
20
67150.0
30
0
11
32940.0
21
67150.0
31
0
0
LINE
8
envelope
10
29726.670000000002
20
56850.0
30
0
11
29726.670000000002
21
67150.0
31
0
0
LINE
8
envelope
10
29606.67
20
56850.0
30
0
11
29606.67
21
67150.0
31
0
0
LINE
8
envelope
10
29726.670000000002
20
56850.0
30
0
11
29606.67
21
56850.0
31
0
0
LINE
8
envelope
10
29726.670000000002
20
67150.0
30
0
11
29606.67
21
67150.0
31
0
0
LINE
8
envelope
10
26393.33
20
56850.0
30
0
11
26393.33
21
67150.0
31
0
0
LINE
8
envelope
10
26273.329999999998
20
56850.0
30
0
11
26273.329999999998
21
67150.0
31
0
0
LINE
8
envelope
10
26393.33
20
56850.0
30
0
11
26273.329999999998
21
56850.0
31
0
0
LINE
8
envelope
10
26393.33
20
67150.0
30
0
11
26273.329999999998
21
67150.0
31
0
0
LINE
8
envelope
10
23060.000000000004
20
56850.0
30
0
11
23060.000000000004
21
67150.0
31
0
0
LINE
8
envelope
10
22939.999999999996
20
56850.0
30
0
11
22939.999999999996
21
67150.0
31
0
0
LINE
8
envelope
10
23060.000000000004
20
56850.0
30
0
11
22939.999999999996
21
56850.0
31
0
0
LINE
8
envelope
10
23060.000000000004
20
67150.0
30
0
11
22939.999999999996
21
67150.0
31
0
0
LINE
8
envelope
10
53000.0
20
56850.0
30
0
11
53000.0
21
56990.0
31
0
0
LINE
8
envelope
10
23000.0
20
56850.0
30
0
11
23000.0
21
56990.0
31
0
0
LINE
8
envelope
10
53000.0
20
56850.0
30
0
11
23000.0
21
56850.0
31
0
0
LINE
8
envelope
10
53000.0
20
56990.0
30
0
11
23000.0
21
56990.0
31
0
0
LINE
8
envelope
10
53000.0
20
59425.0
30
0
11
53000.0
21
59565.0
31
0
0
LINE
8
envelope
10
23000.0
20
59425.0
30
0
11
23000.0
21
59565.0
31
0
0
LINE
8
envelope
10
53000.0
20
59425.0
30
0
11
23000.0
21
59425.0
31
0
0
LINE
8
envelope
10
53000.0
20
59565.0
30
0
11
23000.0
21
59565.0
31
0
0
LINE
8
envelope
10
53000.0
20
62000.0
30
0
11
53000.0
21
62140.0
31
0
0
LINE
8
envelope
10
23000.0
20
62000.0
30
0
11
23000.0
21
62140.0
31
0
0
LINE
8
envelope
10
53000.0
20
62000.0
30
0
11
23000.0
21
62000.0
31
0
0
LINE
8
envelope
10
53000.0
20
62140.0
30
0
11
23000.0
21
62140.0
31
0
0
LINE
8
envelope
10
53000.0
20
64575.0
30
0
11
53000.0
21
64715.0
31
0
0
LINE
8
envelope
10
23000.0
20
64575.0
30
0
11
23000.0
21
64715.0
31
0
0
LINE
8
envelope
10
53000.0
20
64575.0
30
0
11
23000.0
21
64575.0
31
0
0
LINE
8
envelope
10
53000.0
20
64715.0
30
0
11
23000.0
21
64715.0
31
0
0
LINE
8
envelope
10
53000.0
20
67150.0
30
0
11
53000.0
21
67290.0
31
0
0
LINE
8
envelope
10
23000.0
20
67150.0
30
0
11
23000.0
21
67290.0
31
0
0
LINE
8
envelope
10
53000.0
20
67150.0
30
0
11
23000.0
21
67150.0
31
0
0
LINE
8
envelope
10
53000.0
20
67290.0
30
0
11
23000.0
21
67290.0
31
0
0
LINE
8
envelope
10
53150.0
20
56850.0
30
0
11
53150.0
21
67150.0
31
0
0
LINE
8
envelope
10
52850.0
20
56850.0
30
0
11
52850.0
21
67150.0
31
0
0
LINE
8
envelope
10
53150.0
20
56850.0
30
0
11
52850.0
21
56850.0
31
0
0
LINE
8
envelope
10
53150.0
20
67150.0
30
0
11
52850.0
21
67150.0
31
0
0
LINE
8
envelope
10
23150.0
20
56850.0
30
0
11
23150.0
21
67150.0
31
0
0
LINE
8
envelope
10
22850.0
20
56850.0
30
0
11
22850.0
21
67150.0
31
0
0
LINE
8
envelope
10
23150.0
20
56850.0
30
0
11
22850.0
21
56850.0
31
0
0
LINE
8
envelope
10
23150.0
20
67150.0
30
0
11
22850.0
21
67150.0
31
0
0
LINE
8
roof
10
53500.0
20
67150.0
30
0
11
53500.0
21
67750.0
31
0
0
LINE
8
roof
10
22500.0
20
67150.0
30
0
11
22500.0
21
67750.0
31
0
0
LINE
8
roof
10
53500.0
20
67150.0
30
0
11
22500.0
21
67150.0
31
0
0
LINE
8
roof
10
53500.0
20
67750.0
30
0
11
22500.0
21
67750.0
31
0
0
LINE
8
roof
10
99000.0
20
62850.0
30
0
11
99000.0
21
63450.0
31
0
0
LINE
8
roof
10
65000.0
20
62850.0
30
0
11
65000.0
21
63450.0
31
0
0
LINE
8
roof
10
99000.0
20
62850.0
30
0
11
65000.0
21
62850.0
31
0
0
LINE
8
roof
10
99000.0
20
63450.0
30
0
11
65000.0
21
63450.0
31
0
0
LINE
8
glazing
10
86000.0
20
56850.0
30
0
11
86000.0
21
60850.0
31
0
0
LINE
8
glazing
10
84000.0
20
56850.0
30
0
11
84000.0
21
60850.0
31
0
0
LINE
8
glazing
10
86000.0
20
56850.0
30
0
11
84000.0
21
56850.0
31
0
0
LINE
8
glazing
10
86000.0
20
60850.0
30
0
11
84000.0
21
60850.0
31
0
0
LINE
8
glazing
10
82000.0
20
56850.0
30
0
11
82000.0
21
60850.0
31
0
0
LINE
8
glazing
10
84000.0
20
56850.0
30
0
11
82000.0
21
56850.0
31
0
0
LINE
8
glazing
10
84000.0
20
60850.0
30
0
11
82000.0
21
60850.0
31
0
0
LINE
8
glazing
10
80000.0
20
56850.0
30
0
11
80000.0
21
60850.0
31
0
0
LINE
8
glazing
10
82000.0
20
56850.0
30
0
11
80000.0
21
56850.0
31
0
0
LINE
8
glazing
10
82000.0
20
60850.0
30
0
11
80000.0
21
60850.0
31
0
0
LINE
8
glazing
10
78000.0
20
56850.0
30
0
11
78000.0
21
60850.0
31
0
0
LINE
8
glazing
10
80000.0
20
56850.0
30
0
11
78000.0
21
56850.0
31
0
0
LINE
8
glazing
10
80000.0
20
60850.0
30
0
11
78000.0
21
60850.0
31
0
0
LINE
8
grid
10
142300.0
20
56850.0
30
0
11
148700.0
21
56850.0
31
0
0
TEXT
8
annotation
10
143000.0
20
57329.99999999999
30
0
40
1000.0
1
PODIUM +1.20m
50
0
0
LINE
8
grid
10
142300.0
20
67150.0
30
0
11
148700.0
21
67150.0
31
0
0
TEXT
8
annotation
10
142000.0
20
67630.0
30
0
40
1000.0
1
WING RF +11.50m
50
0
0
LINE
8
grid
10
142300.0
20
72150.0
30
0
11
148700.0
21
72150.0
31
0
0
TEXT
8
annotation
10
142000.0
20
72630.0
30
0
40
1000.0
1
HALL RF +16.50m
50
0
0
LINE
8
dimension
10
22500.0
20
52450.0
30
0
11
141500.0
21
52450.0
31
0
0
LINE
8
dimension
10
22100.0
20
52050.0
30
0
11
22900.0
21
52850.0
31
0
0
LINE
8
dimension
10
141100.0
20
52050.0
30
0
11
141900.0
21
52850.0
31
0
0
TEXT
8
annotation
10
75100.0
20
53050.0
30
0
40
1200.0
1
119,000 mm shown extent
50
0
0
LINE
8
frame
10
5600
20
23600
30
0
11
162400
21
23600
31
0
0
TEXT
8
annotation
10
5600
20
20400
30
0
40
1400.0
1
CONCEPT DESIGN | IMAGE-INFERRED | NOT FOR CONSTRUCTION
50
0
0
TEXT
8
annotation
10
5600
20
15200.0
30
0
40
1060.0
1
Source: two campus AI images + fab1.jpg; official analogues documented in analysis/cad/.
50
0
0
TEXT
8
annotation
10
5600
20
13440.00000000001
30
0
40
1060.0
1
CAD model in mm; site coordinates X east, Y north, Z up. Internal layouts and member sizes are design estimates.
50
0
0
TEXT
8
annotation
10
5600
20
11679.999999999996
30
0
40
1060.0
1
Plans/sections are extracted from actual FreeCAD BRep. Elevations project component outlines; hidden edges omitted per component.
50
0
0
TEXT
8
annotation
10
5600
20
9920.000000000004
30
0
40
1060.0
1
Civic wing roofs and skylight may differ from the nominal building height; inspect actual geometry and parameter aliases.
50
0
0
TEXT
8
annotation
10
5600
20
8159.999999999991
30
0
40
1060.0
1
No process certification, structural verification, measured survey, or construction approval is implied.
50
0
0
TEXT
8
annotation
10
142800.0
20
4400
30
0
40
1120.0
1
2026-09-30  |  FreeCAD 1.1.4  |  mm
50
0
0
ENDSEC
0
EOF
