0
SECTION
2
HEADER
9
$ACADVER
1
AC1009
9
$INSUNITS
70
4
0
ENDSEC
0
SECTION
2
ENTITIES
0
LINE
8
frame
10
5250
20
217500
30
0
11
309750
21
217500
31
0
0
LINE
8
frame
10
309750
20
217500
30
0
11
309750
21
5250
31
0
0
LINE
8
frame
10
309750
20
5250
30
0
11
5250
21
5250
31
0
0
LINE
8
frame
10
5250
20
5250
30
0
11
5250
21
217500
31
0
0
TEXT
8
annotation
10
10500
20
209250
30
0
40
3150.0
1
PHOENIX SCIENCE PARK
50
0
0
TEXT
8
annotation
10
10500
20
203250
30
0
40
3750.0
1
FAB1 / Roof equipment plan
50
0
0
TEXT
8
annotation
10
290100.0
20
209250
30
0
40
2400.0
1
A3  |  1:750
50
0
0
TEXT
8
annotation
10
282000.0
20
203250
30
0
40
2250.0
1
CAD-FAB1-ROOF  /  R1
50
0
0
LINE
8
frame
10
10500
20
199500
30
0
11
304500
21
199500
31
0
0
LINE
8
roof
10
28750.000000000007
20
76500.0
30
0
11
28750.000000000007
21
166500.0
31
0
0
LINE
8
roof
10
28750.000000000007
20
76500.0
30
0
11
278750.0
21
76500.0
31
0
0
LINE
8
roof
10
28750.000000000007
20
166500.0
30
0
11
278750.0
21
166500.0
31
0
0
LINE
8
roof
10
278750.0
20
76500.0
30
0
11
278750.0
21
166500.0
31
0
0
LINE
8
roof
10
40249.99999999999
20
155000.0
30
0
11
33250.00000000001
21
155000.0
31
0
0
LINE
8
roof
10
40249.99999999999
20
155000.0
30
0
11
40249.99999999999
21
164000.0
31
0
0
LINE
8
roof
10
40249.99999999999
20
164000.0
30
0
11
33250.00000000001
21
164000.0
31
0
0
LINE
8
roof
10
33250.00000000001
20
155000.0
30
0
11
33250.00000000001
21
164000.0
31
0
0
LINE
8
roof
10
274250.0
20
155000.0
30
0
11
267250.0
21
155000.0
31
0
0
LINE
8
roof
10
274250.0
20
155000.0
30
0
11
274250.0
21
164000.0
31
0
0
LINE
8
roof
10
274250.0
20
164000.0
30
0
11
267250.0
21
164000.0
31
0
0
LINE
8
roof
10
267250.0
20
155000.0
30
0
11
267250.0
21
164000.0
31
0
0
LINE
8
circulation
10
30295.000000000007
20
78000.0
30
0
11
30227.500000000007
21
78038.97
31
0
0
LINE
8
circulation
10
30227.500000000007
20
78038.97
30
0
11
30227.500000000007
21
77961.03
31
0
0
LINE
8
circulation
10
30227.500000000007
20
77961.03
30
0
11
30295.000000000007
21
78000.0
31
0
0
LINE
8
circulation
10
35335.82000000001
20
78000.0
30
0
11
35268.32
21
78038.97
31
0
0
LINE
8
circulation
10
35268.32
20
78038.97
30
0
11
35268.32
21
77961.03
31
0
0
LINE
8
circulation
10
35268.32
20
77961.03
30
0
11
35335.82000000001
21
78000.0
31
0
0
LINE
8
circulation
10
40376.630000000005
20
78000.0
30
0
11
40309.130000000005
21
78038.97
31
0
0
LINE
8
circulation
10
40309.130000000005
20
78038.97
30
0
11
40309.130000000005
21
77961.03
31
0
0
LINE
8
circulation
10
40309.130000000005
20
77961.03
30
0
11
40376.630000000005
21
78000.0
31
0
0
LINE
8
circulation
10
45417.450000000004
20
78000.0
30
0
11
45349.95
21
78038.97
31
0
0
LINE
8
circulation
10
45349.95
20
78038.97
30
0
11
45349.95
21
77961.03
31
0
0
LINE
8
circulation
10
45349.95
20
77961.03
30
0
11
45417.450000000004
21
78000.0
31
0
0
LINE
8
circulation
10
50458.27
20
78000.0
30
0
11
50390.77
21
78038.97
31
0
0
LINE
8
circulation
10
50390.77
20
78038.97
30
0
11
50390.77
21
77961.03
31
0
0
LINE
8
circulation
10
50390.77
20
77961.03
30
0
11
50458.27
21
78000.0
31
0
0
LINE
8
circulation
10
55499.08
20
78000.0
30
0
11
55431.579999999994
21
78038.97
31
0
0
LINE
8
circulation
10
55431.579999999994
20
78038.97
30
0
11
55431.579999999994
21
77961.03
31
0
0
LINE
8
circulation
10
55431.579999999994
20
77961.03
30
0
11
55499.08
21
78000.0
31
0
0
LINE
8
circulation
10
60539.899999999994
20
78000.0
30
0
11
60472.399999999994
21
78038.97
31
0
0
LINE
8
circulation
10
60472.399999999994
20
78038.97
30
0
11
60472.399999999994
21
77961.03
31
0
0
LINE
8
circulation
10
60472.399999999994
20
77961.03
30
0
11
60539.899999999994
21
78000.0
31
0
0
LINE
8
circulation
10
65580.71
20
78000.0
30
0
11
65513.21000000001
21
78038.97
31
0
0
LINE
8
circulation
10
65513.21000000001
20
78038.97
30
0
11
65513.21000000001
21
77961.03
31
0
0
LINE
8
circulation
10
65513.21000000001
20
77961.03
30
0
11
65580.71
21
78000.0
31
0
0
LINE
8
circulation
10
70621.53
20
78000.0
30
0
11
70554.03
21
78038.97
31
0
0
LINE
8
circulation
10
70554.03
20
78038.97
30
0
11
70554.03
21
77961.03
31
0
0
LINE
8
circulation
10
70554.03
20
77961.03
30
0
11
70621.53
21
78000.0
31
0
0
LINE
8
circulation
10
75662.35
20
78000.0
30
0
11
75594.85
21
78038.97
31
0
0
LINE
8
circulation
10
75594.85
20
78038.97
30
0
11
75594.85
21
77961.03
31
0
0
LINE
8
circulation
10
75594.85
20
77961.03
30
0
11
75662.35
21
78000.0
31
0
0
LINE
8
circulation
10
80703.16
20
78000.0
30
0
11
80635.66
21
78038.97
31
0
0
LINE
8
circulation
10
80635.66
20
78038.97
30
0
11
80635.66
21
77961.03
31
0
0
LINE
8
circulation
10
80635.66
20
77961.03
30
0
11
80703.16
21
78000.0
31
0
0
LINE
8
circulation
10
85743.98
20
78000.0
30
0
11
85676.48
21
78038.97
31
0
0
LINE
8
circulation
10
85676.48
20
78038.97
30
0
11
85676.48
21
77961.03
31
0
0
LINE
8
circulation
10
85676.48
20
77961.03
30
0
11
85743.98
21
78000.0
31
0
0
LINE
8
circulation
10
90784.8
20
78000.0
30
0
11
90717.3
21
78038.97
31
0
0
LINE
8
circulation
10
90717.3
20
78038.97
30
0
11
90717.3
21
77961.03
31
0
0
LINE
8
circulation
10
90717.3
20
77961.03
30
0
11
90784.8
21
78000.0
31
0
0
LINE
8
circulation
10
95825.61
20
78000.0
30
0
11
95758.11
21
78038.97
31
0
0
LINE
8
circulation
10
95758.11
20
78038.97
30
0
11
95758.11
21
77961.03
31
0
0
LINE
8
circulation
10
95758.11
20
77961.03
30
0
11
95825.61
21
78000.0
31
0
0
LINE
8
circulation
10
100866.43000000001
20
78000.0
30
0
11
100798.93
21
78038.97
31
0
0
LINE
8
circulation
10
100798.93
20
78038.97
30
0
11
100798.93
21
77961.03
31
0
0
LINE
8
circulation
10
100798.93
20
77961.03
30
0
11
100866.43000000001
21
78000.0
31
0
0
LINE
8
circulation
10
105907.24
20
78000.0
30
0
11
105839.74
21
78038.97
31
0
0
LINE
8
circulation
10
105839.74
20
78038.97
30
0
11
105839.74
21
77961.03
31
0
0
LINE
8
circulation
10
105839.74
20
77961.03
30
0
11
105907.24
21
78000.0
31
0
0
LINE
8
circulation
10
110948.06
20
78000.0
30
0
11
110880.56
21
78038.97
31
0
0
LINE
8
circulation
10
110880.56
20
78038.97
30
0
11
110880.56
21
77961.03
31
0
0
LINE
8
circulation
10
110880.56
20
77961.03
30
0
11
110948.06
21
78000.0
31
0
0
LINE
8
circulation
10
115988.87999999999
20
78000.0
30
0
11
115921.37999999999
21
78038.97
31
0
0
LINE
8
circulation
10
115921.37999999999
20
78038.97
30
0
11
115921.37999999999
21
77961.03
31
0
0
LINE
8
circulation
10
115921.37999999999
20
77961.03
30
0
11
115988.87999999999
21
78000.0
31
0
0
LINE
8
circulation
10
121029.69
20
78000.0
30
0
11
120962.18999999999
21
78038.97
31
0
0
LINE
8
circulation
10
120962.18999999999
20
78038.97
30
0
11
120962.18999999999
21
77961.03
31
0
0
LINE
8
circulation
10
120962.18999999999
20
77961.03
30
0
11
121029.69
21
78000.0
31
0
0
LINE
8
circulation
10
126070.51
20
78000.0
30
0
11
126003.01
21
78038.97
31
0
0
LINE
8
circulation
10
126003.01
20
78038.97
30
0
11
126003.01
21
77961.03
31
0
0
LINE
8
circulation
10
126003.01
20
77961.03
30
0
11
126070.51
21
78000.0
31
0
0
LINE
8
circulation
10
131111.33000000002
20
78000.0
30
0
11
131043.83
21
78038.97
31
0
0
LINE
8
circulation
10
131043.83
20
78038.97
30
0
11
131043.83
21
77961.03
31
0
0
LINE
8
circulation
10
131043.83
20
77961.03
30
0
11
131111.33000000002
21
78000.0
31
0
0
LINE
8
circulation
10
136152.13999999998
20
78000.0
30
0
11
136084.64
21
78038.97
31
0
0
LINE
8
circulation
10
136084.64
20
78038.97
30
0
11
136084.64
21
77961.03
31
0
0
LINE
8
circulation
10
136084.64
20
77961.03
30
0
11
136152.13999999998
21
78000.0
31
0
0
LINE
8
circulation
10
141192.96000000002
20
78000.0
30
0
11
141125.46
21
78038.97
31
0
0
LINE
8
circulation
10
141125.46
20
78038.97
30
0
11
141125.46
21
77961.03
31
0
0
LINE
8
circulation
10
141125.46
20
77961.03
30
0
11
141192.96000000002
21
78000.0
31
0
0
LINE
8
circulation
10
146233.78
20
78000.0
30
0
11
146166.28
21
78038.97
31
0
0
LINE
8
circulation
10
146166.28
20
78038.97
30
0
11
146166.28
21
77961.03
31
0
0
LINE
8
circulation
10
146166.28
20
77961.03
30
0
11
146233.78
21
78000.0
31
0
0
LINE
8
circulation
10
151274.59
20
78000.0
30
0
11
151207.09
21
78038.97
31
0
0
LINE
8
circulation
10
151207.09
20
78038.97
30
0
11
151207.09
21
77961.03
31
0
0
LINE
8
circulation
10
151207.09
20
77961.03
30
0
11
151274.59
21
78000.0
31
0
0
LINE
8
circulation
10
156315.41
20
78000.0
30
0
11
156247.91
21
78038.97
31
0
0
LINE
8
circulation
10
156247.91
20
78038.97
30
0
11
156247.91
21
77961.03
31
0
0
LINE
8
circulation
10
156247.91
20
77961.03
30
0
11
156315.41
21
78000.0
31
0
0
LINE
8
circulation
10
161356.22
20
78000.0
30
0
11
161288.72
21
78038.97
31
0
0
LINE
8
circulation
10
161288.72
20
78038.97
30
0
11
161288.72
21
77961.03
31
0
0
LINE
8
circulation
10
161288.72
20
77961.03
30
0
11
161356.22
21
78000.0
31
0
0
LINE
8
circulation
10
166397.04
20
78000.0
30
0
11
166329.54
21
78038.97
31
0
0
LINE
8
circulation
10
166329.54
20
78038.97
30
0
11
166329.54
21
77961.03
31
0
0
LINE
8
circulation
10
166329.54
20
77961.03
30
0
11
166397.04
21
78000.0
31
0
0
LINE
8
circulation
10
171437.86
20
78000.0
30
0
11
171370.36
21
78038.97
31
0
0
LINE
8
circulation
10
171370.36
20
78038.97
30
0
11
171370.36
21
77961.03
31
0
0
LINE
8
circulation
10
171370.36
20
77961.03
30
0
11
171437.86
21
78000.0
31
0
0
LINE
8
circulation
10
176478.66999999998
20
78000.0
30
0
11
176411.16999999998
21
78038.97
31
0
0
LINE
8
circulation
10
176411.16999999998
20
78038.97
30
0
11
176411.16999999998
21
77961.03
31
0
0
LINE
8
circulation
10
176411.16999999998
20
77961.03
30
0
11
176478.66999999998
21
78000.0
31
0
0
LINE
8
circulation
10
181519.49
20
78000.0
30
0
11
181451.99000000002
21
78038.97
31
0
0
LINE
8
circulation
10
181451.99000000002
20
78038.97
30
0
11
181451.99000000002
21
77961.03
31
0
0
LINE
8
circulation
10
181451.99000000002
20
77961.03
30
0
11
181519.49
21
78000.0
31
0
0
LINE
8
circulation
10
186560.31
20
78000.0
30
0
11
186492.81
21
78038.97
31
0
0
LINE
8
circulation
10
186492.81
20
78038.97
30
0
11
186492.81
21
77961.03
31
0
0
LINE
8
circulation
10
186492.81
20
77961.03
30
0
11
186560.31
21
78000.0
31
0
0
LINE
8
circulation
10
191601.12
20
78000.0
30
0
11
191533.62
21
78038.97
31
0
0
LINE
8
circulation
10
191533.62
20
78038.97
30
0
11
191533.62
21
77961.03
31
0
0
LINE
8
circulation
10
191533.62
20
77961.03
30
0
11
191601.12
21
78000.0
31
0
0
LINE
8
circulation
10
196641.94
20
78000.0
30
0
11
196574.43999999997
21
78038.97
31
0
0
LINE
8
circulation
10
196574.43999999997
20
78038.97
30
0
11
196574.43999999997
21
77961.03
31
0
0
LINE
8
circulation
10
196574.43999999997
20
77961.03
30
0
11
196641.94
21
78000.0
31
0
0
LINE
8
circulation
10
201682.76
20
78000.0
30
0
11
201615.26
21
78038.97
31
0
0
LINE
8
circulation
10
201615.26
20
78038.97
30
0
11
201615.26
21
77961.03
31
0
0
LINE
8
circulation
10
201615.26
20
77961.03
30
0
11
201682.76
21
78000.0
31
0
0
LINE
8
circulation
10
206723.57000000004
20
78000.0
30
0
11
206656.07
21
78038.97
31
0
0
LINE
8
circulation
10
206656.07
20
78038.97
30
0
11
206656.07
21
77961.03
31
0
0
LINE
8
circulation
10
206656.07
20
77961.03
30
0
11
206723.57000000004
21
78000.0
31
0
0
LINE
8
circulation
10
211764.39
20
78000.0
30
0
11
211696.88999999998
21
78038.97
31
0
0
LINE
8
circulation
10
211696.88999999998
20
78038.97
30
0
11
211696.88999999998
21
77961.03
31
0
0
LINE
8
circulation
10
211696.88999999998
20
77961.03
30
0
11
211764.39
21
78000.0
31
0
0
LINE
8
circulation
10
216805.2
20
78000.0
30
0
11
216737.7
21
78038.97
31
0
0
LINE
8
circulation
10
216737.7
20
78038.97
30
0
11
216737.7
21
77961.03
31
0
0
LINE
8
circulation
10
216737.7
20
77961.03
30
0
11
216805.2
21
78000.0
31
0
0
LINE
8
circulation
10
221846.02
20
78000.0
30
0
11
221778.52000000002
21
78038.97
31
0
0
LINE
8
circulation
10
221778.52000000002
20
78038.97
30
0
11
221778.52000000002
21
77961.03
31
0
0
LINE
8
circulation
10
221778.52000000002
20
77961.03
30
0
11
221846.02
21
78000.0
31
0
0
LINE
8
circulation
10
226886.84
20
78000.0
30
0
11
226819.34000000003
21
78038.97
31
0
0
LINE
8
circulation
10
226819.34000000003
20
78038.97
30
0
11
226819.34000000003
21
77961.03
31
0
0
LINE
8
circulation
10
226819.34000000003
20
77961.03
30
0
11
226886.84
21
78000.0
31
0
0
LINE
8
circulation
10
231927.64999999997
20
78000.0
30
0
11
231860.15
21
78038.97
31
0
0
LINE
8
circulation
10
231860.15
20
78038.97
30
0
11
231860.15
21
77961.03
31
0
0
LINE
8
circulation
10
231860.15
20
77961.03
30
0
11
231927.64999999997
21
78000.0
31
0
0
LINE
8
circulation
10
236968.47
20
78000.0
30
0
11
236900.97
21
78038.97
31
0
0
LINE
8
circulation
10
236900.97
20
78038.97
30
0
11
236900.97
21
77961.03
31
0
0
LINE
8
circulation
10
236900.97
20
77961.03
30
0
11
236968.47
21
78000.0
31
0
0
LINE
8
circulation
10
242009.29
20
78000.0
30
0
11
241941.78999999998
21
78038.97
31
0
0
LINE
8
circulation
10
241941.78999999998
20
78038.97
30
0
11
241941.78999999998
21
77961.03
31
0
0
LINE
8
circulation
10
241941.78999999998
20
77961.03
30
0
11
242009.29
21
78000.0
31
0
0
LINE
8
circulation
10
247050.09999999998
20
78000.0
30
0
11
246982.6
21
78038.97
31
0
0
LINE
8
circulation
10
246982.6
20
78038.97
30
0
11
246982.6
21
77961.03
31
0
0
LINE
8
circulation
10
246982.6
20
77961.03
30
0
11
247050.09999999998
21
78000.0
31
0
0
LINE
8
circulation
10
252090.91999999998
20
78000.0
30
0
11
252023.42
21
78038.97
31
0
0
LINE
8
circulation
10
252023.42
20
78038.97
30
0
11
252023.42
21
77961.03
31
0
0
LINE
8
circulation
10
252023.42
20
77961.03
30
0
11
252090.91999999998
21
78000.0
31
0
0
LINE
8
circulation
10
257131.73
20
78000.0
30
0
11
257064.22999999998
21
78038.97
31
0
0
LINE
8
circulation
10
257064.22999999998
20
78038.97
30
0
11
257064.22999999998
21
77961.03
31
0
0
LINE
8
circulation
10
257064.22999999998
20
77961.03
30
0
11
257131.73
21
78000.0
31
0
0
LINE
8
circulation
10
262172.55
20
78000.0
30
0
11
262105.05
21
78038.97
31
0
0
LINE
8
circulation
10
262105.05
20
78038.97
30
0
11
262105.05
21
77961.03
31
0
0
LINE
8
circulation
10
262105.05
20
77961.03
30
0
11
262172.55
21
78000.0
31
0
0
LINE
8
circulation
10
267213.37
20
78000.0
30
0
11
267145.87
21
78038.97
31
0
0
LINE
8
circulation
10
267145.87
20
78038.97
30
0
11
267145.87
21
77961.03
31
0
0
LINE
8
circulation
10
267145.87
20
77961.03
30
0
11
267213.37
21
78000.0
31
0
0
LINE
8
circulation
10
272254.18
20
78000.0
30
0
11
272186.68
21
78038.97
31
0
0
LINE
8
circulation
10
272186.68
20
78038.97
30
0
11
272186.68
21
77961.03
31
0
0
LINE
8
circulation
10
272186.68
20
77961.03
30
0
11
272254.18
21
78000.0
31
0
0
LINE
8
circulation
10
277295.0
20
78000.0
30
0
11
277227.5
21
78038.97
31
0
0
LINE
8
circulation
10
277227.5
20
78038.97
30
0
11
277227.5
21
77961.03
31
0
0
LINE
8
circulation
10
277227.5
20
77961.03
30
0
11
277295.0
21
78000.0
31
0
0
LINE
8
circulation
10
30295.000000000007
20
83117.65
30
0
11
30227.500000000007
21
83156.62000000001
31
0
0
LINE
8
circulation
10
30227.500000000007
20
83156.62000000001
30
0
11
30227.500000000007
21
83078.68
31
0
0
LINE
8
circulation
10
30227.500000000007
20
83078.68
30
0
11
30295.000000000007
21
83117.65
31
0
0
LINE
8
circulation
10
30295.000000000007
20
88235.29
30
0
11
30227.500000000007
21
88274.27
31
0
0
LINE
8
circulation
10
30227.500000000007
20
88274.27
30
0
11
30227.500000000007
21
88196.31999999999
31
0
0
LINE
8
circulation
10
30227.500000000007
20
88196.31999999999
30
0
11
30295.000000000007
21
88235.29
31
0
0
LINE
8
circulation
10
30295.000000000007
20
93352.94
30
0
11
30227.500000000007
21
93391.91
31
0
0
LINE
8
circulation
10
30227.500000000007
20
93391.91
30
0
11
30227.500000000007
21
93313.97000000002
31
0
0
LINE
8
circulation
10
30227.500000000007
20
93313.97000000002
30
0
11
30295.000000000007
21
93352.94
31
0
0
LINE
8
circulation
10
30295.000000000007
20
98470.59
30
0
11
30227.500000000007
21
98509.56
31
0
0
LINE
8
circulation
10
30227.500000000007
20
98509.56
30
0
11
30227.500000000007
21
98431.62000000001
31
0
0
LINE
8
circulation
10
30227.500000000007
20
98431.62000000001
30
0
11
30295.000000000007
21
98470.59
31
0
0
LINE
8
circulation
10
30295.000000000007
20
103588.24000000002
30
0
11
30227.500000000007
21
103627.20999999999
31
0
0
LINE
8
circulation
10
30227.500000000007
20
103627.20999999999
30
0
11
30227.500000000007
21
103549.26
31
0
0
LINE
8
circulation
10
30227.500000000007
20
103549.26
30
0
11
30295.000000000007
21
103588.24000000002
31
0
0
LINE
8
circulation
10
30295.000000000007
20
108705.87999999999
30
0
11
30227.500000000007
21
108744.85
31
0
0
LINE
8
circulation
10
30227.500000000007
20
108744.85
30
0
11
30227.500000000007
21
108666.91
31
0
0
LINE
8
circulation
10
30227.500000000007
20
108666.91
30
0
11
30295.000000000007
21
108705.87999999999
31
0
0
LINE
8
circulation
10
30295.000000000007
20
113823.52999999998
30
0
11
30227.500000000007
21
113862.5
31
0
0
LINE
8
circulation
10
30227.500000000007
20
113862.5
30
0
11
30227.500000000007
21
113784.56000000001
31
0
0
LINE
8
circulation
10
30227.500000000007
20
113784.56000000001
30
0
11
30295.000000000007
21
113823.52999999998
31
0
0
LINE
8
circulation
10
30295.000000000007
20
118941.18000000001
30
0
11
30227.500000000007
21
118980.15
31
0
0
LINE
8
circulation
10
30227.500000000007
20
118980.15
30
0
11
30227.500000000007
21
118902.21
31
0
0
LINE
8
circulation
10
30227.500000000007
20
118902.21
30
0
11
30295.000000000007
21
118941.18000000001
31
0
0
LINE
8
circulation
10
30295.000000000007
20
124058.81999999999
30
0
11
30227.500000000007
21
124097.79
31
0
0
LINE
8
circulation
10
30227.500000000007
20
124097.79
30
0
11
30227.500000000007
21
124019.85
31
0
0
LINE
8
circulation
10
30227.500000000007
20
124019.85
30
0
11
30295.000000000007
21
124058.81999999999
31
0
0
LINE
8
circulation
10
30295.000000000007
20
129176.47000000002
30
0
11
30227.500000000007
21
129215.43999999999
31
0
0
LINE
8
circulation
10
30227.500000000007
20
129215.43999999999
30
0
11
30227.500000000007
21
129137.5
31
0
0
LINE
8
circulation
10
30227.500000000007
20
129137.5
30
0
11
30295.000000000007
21
129176.47000000002
31
0
0
LINE
8
circulation
10
30295.000000000007
20
134294.12
30
0
11
30227.500000000007
21
134333.09000000003
31
0
0
LINE
8
circulation
10
30227.500000000007
20
134333.09000000003
30
0
11
30227.500000000007
21
134255.15
31
0
0
LINE
8
circulation
10
30227.500000000007
20
134255.15
30
0
11
30295.000000000007
21
134294.12
31
0
0
LINE
8
circulation
10
30295.000000000007
20
139411.75999999998
30
0
11
30227.500000000007
21
139450.74000000002
31
0
0
LINE
8
circulation
10
30227.500000000007
20
139450.74000000002
30
0
11
30227.500000000007
21
139372.79
31
0
0
LINE
8
circulation
10
30227.500000000007
20
139372.79
30
0
11
30295.000000000007
21
139411.75999999998
31
0
0
LINE
8
circulation
10
30295.000000000007
20
144529.41
30
0
11
30227.500000000007
21
144568.38
31
0
0
LINE
8
circulation
10
30227.500000000007
20
144568.38
30
0
11
30227.500000000007
21
144490.44
31
0
0
LINE
8
circulation
10
30227.500000000007
20
144490.44
30
0
11
30295.000000000007
21
144529.41
31
0
0
LINE
8
circulation
10
30295.000000000007
20
149647.06
30
0
11
30227.500000000007
21
149686.03
31
0
0
LINE
8
circulation
10
30227.500000000007
20
149686.03
30
0
11
30227.500000000007
21
149608.09
31
0
0
LINE
8
circulation
10
30227.500000000007
20
149608.09
30
0
11
30295.000000000007
21
149647.06
31
0
0
LINE
8
circulation
10
30295.000000000007
20
154764.71
30
0
11
30227.500000000007
21
154803.68
31
0
0
LINE
8
circulation
10
30227.500000000007
20
154803.68
30
0
11
30227.500000000007
21
154725.73
31
0
0
LINE
8
circulation
10
30227.500000000007
20
154725.73
30
0
11
30295.000000000007
21
154764.71
31
0
0
LINE
8
circulation
10
30295.000000000007
20
159882.35
30
0
11
30227.500000000007
21
159921.32
31
0
0
LINE
8
circulation
10
30227.500000000007
20
159921.32
30
0
11
30227.500000000007
21
159843.38
31
0
0
LINE
8
circulation
10
30227.500000000007
20
159843.38
30
0
11
30295.000000000007
21
159882.35
31
0
0
LINE
8
circulation
10
30295.000000000007
20
165000.0
30
0
11
30227.500000000007
21
165038.97
31
0
0
LINE
8
circulation
10
30227.500000000007
20
165038.97
30
0
11
30227.500000000007
21
164961.03
31
0
0
LINE
8
circulation
10
30227.500000000007
20
164961.03
30
0
11
30295.000000000007
21
165000.0
31
0
0
LINE
8
circulation
10
35335.82000000001
20
165000.0
30
0
11
35268.32
21
165038.97
31
0
0
LINE
8
circulation
10
35268.32
20
165038.97
30
0
11
35268.32
21
164961.03
31
0
0
LINE
8
circulation
10
35268.32
20
164961.03
30
0
11
35335.82000000001
21
165000.0
31
0
0
LINE
8
circulation
10
40376.630000000005
20
165000.0
30
0
11
40309.130000000005
21
165038.97
31
0
0
LINE
8
circulation
10
40309.130000000005
20
165038.97
30
0
11
40309.130000000005
21
164961.03
31
0
0
LINE
8
circulation
10
40309.130000000005
20
164961.03
30
0
11
40376.630000000005
21
165000.0
31
0
0
LINE
8
circulation
10
45417.450000000004
20
165000.0
30
0
11
45349.95
21
165038.97
31
0
0
LINE
8
circulation
10
45349.95
20
165038.97
30
0
11
45349.95
21
164961.03
31
0
0
LINE
8
circulation
10
45349.95
20
164961.03
30
0
11
45417.450000000004
21
165000.0
31
0
0
LINE
8
circulation
10
50458.27
20
165000.0
30
0
11
50390.77
21
165038.97
31
0
0
LINE
8
circulation
10
50390.77
20
165038.97
30
0
11
50390.77
21
164961.03
31
0
0
LINE
8
circulation
10
50390.77
20
164961.03
30
0
11
50458.27
21
165000.0
31
0
0
LINE
8
circulation
10
55499.08
20
165000.0
30
0
11
55431.579999999994
21
165038.97
31
0
0
LINE
8
circulation
10
55431.579999999994
20
165038.97
30
0
11
55431.579999999994
21
164961.03
31
0
0
LINE
8
circulation
10
55431.579999999994
20
164961.03
30
0
11
55499.08
21
165000.0
31
0
0
LINE
8
circulation
10
60539.899999999994
20
165000.0
30
0
11
60472.399999999994
21
165038.97
31
0
0
LINE
8
circulation
10
60472.399999999994
20
165038.97
30
0
11
60472.399999999994
21
164961.03
31
0
0
LINE
8
circulation
10
60472.399999999994
20
164961.03
30
0
11
60539.899999999994
21
165000.0
31
0
0
LINE
8
circulation
10
65580.71
20
165000.0
30
0
11
65513.21000000001
21
165038.97
31
0
0
LINE
8
circulation
10
65513.21000000001
20
165038.97
30
0
11
65513.21000000001
21
164961.03
31
0
0
LINE
8
circulation
10
65513.21000000001
20
164961.03
30
0
11
65580.71
21
165000.0
31
0
0
LINE
8
circulation
10
70621.53
20
165000.0
30
0
11
70554.03
21
165038.97
31
0
0
LINE
8
circulation
10
70554.03
20
165038.97
30
0
11
70554.03
21
164961.03
31
0
0
LINE
8
circulation
10
70554.03
20
164961.03
30
0
11
70621.53
21
165000.0
31
0
0
LINE
8
circulation
10
75662.35
20
165000.0
30
0
11
75594.85
21
165038.97
31
0
0
LINE
8
circulation
10
75594.85
20
165038.97
30
0
11
75594.85
21
164961.03
31
0
0
LINE
8
circulation
10
75594.85
20
164961.03
30
0
11
75662.35
21
165000.0
31
0
0
LINE
8
circulation
10
80703.16
20
165000.0
30
0
11
80635.66
21
165038.97
31
0
0
LINE
8
circulation
10
80635.66
20
165038.97
30
0
11
80635.66
21
164961.03
31
0
0
LINE
8
circulation
10
80635.66
20
164961.03
30
0
11
80703.16
21
165000.0
31
0
0
LINE
8
circulation
10
85743.98
20
165000.0
30
0
11
85676.48
21
165038.97
31
0
0
LINE
8
circulation
10
85676.48
20
165038.97
30
0
11
85676.48
21
164961.03
31
0
0
LINE
8
circulation
10
85676.48
20
164961.03
30
0
11
85743.98
21
165000.0
31
0
0
LINE
8
circulation
10
90784.8
20
165000.0
30
0
11
90717.3
21
165038.97
31
0
0
LINE
8
circulation
10
90717.3
20
165038.97
30
0
11
90717.3
21
164961.03
31
0
0
LINE
8
circulation
10
90717.3
20
164961.03
30
0
11
90784.8
21
165000.0
31
0
0
LINE
8
circulation
10
95825.61
20
165000.0
30
0
11
95758.11
21
165038.97
31
0
0
LINE
8
circulation
10
95758.11
20
165038.97
30
0
11
95758.11
21
164961.03
31
0
0
LINE
8
circulation
10
95758.11
20
164961.03
30
0
11
95825.61
21
165000.0
31
0
0
LINE
8
circulation
10
100866.43000000001
20
165000.0
30
0
11
100798.93
21
165038.97
31
0
0
LINE
8
circulation
10
100798.93
20
165038.97
30
0
11
100798.93
21
164961.03
31
0
0
LINE
8
circulation
10
100798.93
20
164961.03
30
0
11
100866.43000000001
21
165000.0
31
0
0
LINE
8
circulation
10
105907.24
20
165000.0
30
0
11
105839.74
21
165038.97
31
0
0
LINE
8
circulation
10
105839.74
20
165038.97
30
0
11
105839.74
21
164961.03
31
0
0
LINE
8
circulation
10
105839.74
20
164961.03
30
0
11
105907.24
21
165000.0
31
0
0
LINE
8
circulation
10
110948.06
20
165000.0
30
0
11
110880.56
21
165038.97
31
0
0
LINE
8
circulation
10
110880.56
20
165038.97
30
0
11
110880.56
21
164961.03
31
0
0
LINE
8
circulation
10
110880.56
20
164961.03
30
0
11
110948.06
21
165000.0
31
0
0
LINE
8
circulation
10
115988.87999999999
20
165000.0
30
0
11
115921.37999999999
21
165038.97
31
0
0
LINE
8
circulation
10
115921.37999999999
20
165038.97
30
0
11
115921.37999999999
21
164961.03
31
0
0
LINE
8
circulation
10
115921.37999999999
20
164961.03
30
0
11
115988.87999999999
21
165000.0
31
0
0
LINE
8
circulation
10
121029.69
20
165000.0
30
0
11
120962.18999999999
21
165038.97
31
0
0
LINE
8
circulation
10
120962.18999999999
20
165038.97
30
0
11
120962.18999999999
21
164961.03
31
0
0
LINE
8
circulation
10
120962.18999999999
20
164961.03
30
0
11
121029.69
21
165000.0
31
0
0
LINE
8
circulation
10
126070.51
20
165000.0
30
0
11
126003.01
21
165038.97
31
0
0
LINE
8
circulation
10
126003.01
20
165038.97
30
0
11
126003.01
21
164961.03
31
0
0
LINE
8
circulation
10
126003.01
20
164961.03
30
0
11
126070.51
21
165000.0
31
0
0
LINE
8
circulation
10
131111.33000000002
20
165000.0
30
0
11
131043.83
21
165038.97
31
0
0
LINE
8
circulation
10
131043.83
20
165038.97
30
0
11
131043.83
21
164961.03
31
0
0
LINE
8
circulation
10
131043.83
20
164961.03
30
0
11
131111.33000000002
21
165000.0
31
0
0
LINE
8
circulation
10
136152.13999999998
20
165000.0
30
0
11
136084.64
21
165038.97
31
0
0
LINE
8
circulation
10
136084.64
20
165038.97
30
0
11
136084.64
21
164961.03
31
0
0
LINE
8
circulation
10
136084.64
20
164961.03
30
0
11
136152.13999999998
21
165000.0
31
0
0
LINE
8
circulation
10
141192.96000000002
20
165000.0
30
0
11
141125.46
21
165038.97
31
0
0
LINE
8
circulation
10
141125.46
20
165038.97
30
0
11
141125.46
21
164961.03
31
0
0
LINE
8
circulation
10
141125.46
20
164961.03
30
0
11
141192.96000000002
21
165000.0
31
0
0
LINE
8
circulation
10
146233.78
20
165000.0
30
0
11
146166.28
21
165038.97
31
0
0
LINE
8
circulation
10
146166.28
20
165038.97
30
0
11
146166.28
21
164961.03
31
0
0
LINE
8
circulation
10
146166.28
20
164961.03
30
0
11
146233.78
21
165000.0
31
0
0
LINE
8
circulation
10
151274.59
20
165000.0
30
0
11
151207.09
21
165038.97
31
0
0
LINE
8
circulation
10
151207.09
20
165038.97
30
0
11
151207.09
21
164961.03
31
0
0
LINE
8
circulation
10
151207.09
20
164961.03
30
0
11
151274.59
21
165000.0
31
0
0
LINE
8
circulation
10
156315.41
20
165000.0
30
0
11
156247.91
21
165038.97
31
0
0
LINE
8
circulation
10
156247.91
20
165038.97
30
0
11
156247.91
21
164961.03
31
0
0
LINE
8
circulation
10
156247.91
20
164961.03
30
0
11
156315.41
21
165000.0
31
0
0
LINE
8
circulation
10
161356.22
20
165000.0
30
0
11
161288.72
21
165038.97
31
0
0
LINE
8
circulation
10
161288.72
20
165038.97
30
0
11
161288.72
21
164961.03
31
0
0
LINE
8
circulation
10
161288.72
20
164961.03
30
0
11
161356.22
21
165000.0
31
0
0
LINE
8
circulation
10
166397.04
20
165000.0
30
0
11
166329.54
21
165038.97
31
0
0
LINE
8
circulation
10
166329.54
20
165038.97
30
0
11
166329.54
21
164961.03
31
0
0
LINE
8
circulation
10
166329.54
20
164961.03
30
0
11
166397.04
21
165000.0
31
0
0
LINE
8
circulation
10
171437.86
20
165000.0
30
0
11
171370.36
21
165038.97
31
0
0
LINE
8
circulation
10
171370.36
20
165038.97
30
0
11
171370.36
21
164961.03
31
0
0
LINE
8
circulation
10
171370.36
20
164961.03
30
0
11
171437.86
21
165000.0
31
0
0
LINE
8
circulation
10
176478.66999999998
20
165000.0
30
0
11
176411.16999999998
21
165038.97
31
0
0
LINE
8
circulation
10
176411.16999999998
20
165038.97
30
0
11
176411.16999999998
21
164961.03
31
0
0
LINE
8
circulation
10
176411.16999999998
20
164961.03
30
0
11
176478.66999999998
21
165000.0
31
0
0
LINE
8
circulation
10
181519.49
20
165000.0
30
0
11
181451.99000000002
21
165038.97
31
0
0
LINE
8
circulation
10
181451.99000000002
20
165038.97
30
0
11
181451.99000000002
21
164961.03
31
0
0
LINE
8
circulation
10
181451.99000000002
20
164961.03
30
0
11
181519.49
21
165000.0
31
0
0
LINE
8
circulation
10
186560.31
20
165000.0
30
0
11
186492.81
21
165038.97
31
0
0
LINE
8
circulation
10
186492.81
20
165038.97
30
0
11
186492.81
21
164961.03
31
0
0
LINE
8
circulation
10
186492.81
20
164961.03
30
0
11
186560.31
21
165000.0
31
0
0
LINE
8
circulation
10
191601.12
20
165000.0
30
0
11
191533.62
21
165038.97
31
0
0
LINE
8
circulation
10
191533.62
20
165038.97
30
0
11
191533.62
21
164961.03
31
0
0
LINE
8
circulation
10
191533.62
20
164961.03
30
0
11
191601.12
21
165000.0
31
0
0
LINE
8
circulation
10
196641.94
20
165000.0
30
0
11
196574.43999999997
21
165038.97
31
0
0
LINE
8
circulation
10
196574.43999999997
20
165038.97
30
0
11
196574.43999999997
21
164961.03
31
0
0
LINE
8
circulation
10
196574.43999999997
20
164961.03
30
0
11
196641.94
21
165000.0
31
0
0
LINE
8
circulation
10
201682.76
20
165000.0
30
0
11
201615.26
21
165038.97
31
0
0
LINE
8
circulation
10
201615.26
20
165038.97
30
0
11
201615.26
21
164961.03
31
0
0
LINE
8
circulation
10
201615.26
20
164961.03
30
0
11
201682.76
21
165000.0
31
0
0
LINE
8
circulation
10
206723.57000000004
20
165000.0
30
0
11
206656.07
21
165038.97
31
0
0
LINE
8
circulation
10
206656.07
20
165038.97
30
0
11
206656.07
21
164961.03
31
0
0
LINE
8
circulation
10
206656.07
20
164961.03
30
0
11
206723.57000000004
21
165000.0
31
0
0
LINE
8
circulation
10
211764.39
20
165000.0
30
0
11
211696.88999999998
21
165038.97
31
0
0
LINE
8
circulation
10
211696.88999999998
20
165038.97
30
0
11
211696.88999999998
21
164961.03
31
0
0
LINE
8
circulation
10
211696.88999999998
20
164961.03
30
0
11
211764.39
21
165000.0
31
0
0
LINE
8
circulation
10
216805.2
20
165000.0
30
0
11
216737.7
21
165038.97
31
0
0
LINE
8
circulation
10
216737.7
20
165038.97
30
0
11
216737.7
21
164961.03
31
0
0
LINE
8
circulation
10
216737.7
20
164961.03
30
0
11
216805.2
21
165000.0
31
0
0
LINE
8
circulation
10
221846.02
20
165000.0
30
0
11
221778.52000000002
21
165038.97
31
0
0
LINE
8
circulation
10
221778.52000000002
20
165038.97
30
0
11
221778.52000000002
21
164961.03
31
0
0
LINE
8
circulation
10
221778.52000000002
20
164961.03
30
0
11
221846.02
21
165000.0
31
0
0
LINE
8
circulation
10
226886.84
20
165000.0
30
0
11
226819.34000000003
21
165038.97
31
0
0
LINE
8
circulation
10
226819.34000000003
20
165038.97
30
0
11
226819.34000000003
21
164961.03
31
0
0
LINE
8
circulation
10
226819.34000000003
20
164961.03
30
0
11
226886.84
21
165000.0
31
0
0
LINE
8
circulation
10
231927.64999999997
20
165000.0
30
0
11
231860.15
21
165038.97
31
0
0
LINE
8
circulation
10
231860.15
20
165038.97
30
0
11
231860.15
21
164961.03
31
0
0
LINE
8
circulation
10
231860.15
20
164961.03
30
0
11
231927.64999999997
21
165000.0
31
0
0
LINE
8
circulation
10
236968.47
20
165000.0
30
0
11
236900.97
21
165038.97
31
0
0
LINE
8
circulation
10
236900.97
20
165038.97
30
0
11
236900.97
21
164961.03
31
0
0
LINE
8
circulation
10
236900.97
20
164961.03
30
0
11
236968.47
21
165000.0
31
0
0
LINE
8
circulation
10
242009.29
20
165000.0
30
0
11
241941.78999999998
21
165038.97
31
0
0
LINE
8
circulation
10
241941.78999999998
20
165038.97
30
0
11
241941.78999999998
21
164961.03
31
0
0
LINE
8
circulation
10
241941.78999999998
20
164961.03
30
0
11
242009.29
21
165000.0
31
0
0
LINE
8
circulation
10
247050.09999999998
20
165000.0
30
0
11
246982.6
21
165038.97
31
0
0
LINE
8
circulation
10
246982.6
20
165038.97
30
0
11
246982.6
21
164961.03
31
0
0
LINE
8
circulation
10
246982.6
20
164961.03
30
0
11
247050.09999999998
21
165000.0
31
0
0
LINE
8
circulation
10
252090.91999999998
20
165000.0
30
0
11
252023.42
21
165038.97
31
0
0
LINE
8
circulation
10
252023.42
20
165038.97
30
0
11
252023.42
21
164961.03
31
0
0
LINE
8
circulation
10
252023.42
20
164961.03
30
0
11
252090.91999999998
21
165000.0
31
0
0
LINE
8
circulation
10
257131.73
20
165000.0
30
0
11
257064.22999999998
21
165038.97
31
0
0
LINE
8
circulation
10
257064.22999999998
20
165038.97
30
0
11
257064.22999999998
21
164961.03
31
0
0
LINE
8
circulation
10
257064.22999999998
20
164961.03
30
0
11
257131.73
21
165000.0
31
0
0
LINE
8
circulation
10
262172.55
20
165000.0
30
0
11
262105.05
21
165038.97
31
0
0
LINE
8
circulation
10
262105.05
20
165038.97
30
0
11
262105.05
21
164961.03
31
0
0
LINE
8
circulation
10
262105.05
20
164961.03
30
0
11
262172.55
21
165000.0
31
0
0
LINE
8
circulation
10
267213.37
20
165000.0
30
0
11
267145.87
21
165038.97
31
0
0
LINE
8
circulation
10
267145.87
20
165038.97
30
0
11
267145.87
21
164961.03
31
0
0
LINE
8
circulation
10
267145.87
20
164961.03
30
0
11
267213.37
21
165000.0
31
0
0
LINE
8
circulation
10
272254.18
20
165000.0
30
0
11
272186.68
21
165038.97
31
0
0
LINE
8
circulation
10
272186.68
20
165038.97
30
0
11
272186.68
21
164961.03
31
0
0
LINE
8
circulation
10
272186.68
20
164961.03
30
0
11
272254.18
21
165000.0
31
0
0
LINE
8
circulation
10
277295.0
20
165000.0
30
0
11
277227.5
21
165038.97
31
0
0
LINE
8
circulation
10
277227.5
20
165038.97
30
0
11
277227.5
21
164961.03
31
0
0
LINE
8
circulation
10
277227.5
20
164961.03
30
0
11
277295.0
21
165000.0
31
0
0
LINE
8
circulation
10
277295.0
20
83117.65
30
0
11
277227.5
21
83156.62000000001
31
0
0
LINE
8
circulation
10
277227.5
20
83156.62000000001
30
0
11
277227.5
21
83078.68
31
0
0
LINE
8
circulation
10
277227.5
20
83078.68
30
0
11
277295.0
21
83117.65
31
0
0
LINE
8
circulation
10
277295.0
20
88235.29
30
0
11
277227.5
21
88274.27
31
0
0
LINE
8
circulation
10
277227.5
20
88274.27
30
0
11
277227.5
21
88196.31999999999
31
0
0
LINE
8
circulation
10
277227.5
20
88196.31999999999
30
0
11
277295.0
21
88235.29
31
0
0
LINE
8
circulation
10
277295.0
20
93352.94
30
0
11
277227.5
21
93391.91
31
0
0
LINE
8
circulation
10
277227.5
20
93391.91
30
0
11
277227.5
21
93313.97000000002
31
0
0
LINE
8
circulation
10
277227.5
20
93313.97000000002
30
0
11
277295.0
21
93352.94
31
0
0
LINE
8
circulation
10
277295.0
20
98470.59
30
0
11
277227.5
21
98509.56
31
0
0
LINE
8
circulation
10
277227.5
20
98509.56
30
0
11
277227.5
21
98431.62000000001
31
0
0
LINE
8
circulation
10
277227.5
20
98431.62000000001
30
0
11
277295.0
21
98470.59
31
0
0
LINE
8
circulation
10
277295.0
20
103588.24000000002
30
0
11
277227.5
21
103627.20999999999
31
0
0
LINE
8
circulation
10
277227.5
20
103627.20999999999
30
0
11
277227.5
21
103549.26
31
0
0
LINE
8
circulation
10
277227.5
20
103549.26
30
0
11
277295.0
21
103588.24000000002
31
0
0
LINE
8
circulation
10
277295.0
20
108705.87999999999
30
0
11
277227.5
21
108744.85
31
0
0
LINE
8
circulation
10
277227.5
20
108744.85
30
0
11
277227.5
21
108666.91
31
0
0
LINE
8
circulation
10
277227.5
20
108666.91
30
0
11
277295.0
21
108705.87999999999
31
0
0
LINE
8
circulation
10
277295.0
20
113823.52999999998
30
0
11
277227.5
21
113862.5
31
0
0
LINE
8
circulation
10
277227.5
20
113862.5
30
0
11
277227.5
21
113784.56000000001
31
0
0
LINE
8
circulation
10
277227.5
20
113784.56000000001
30
0
11
277295.0
21
113823.52999999998
31
0
0
LINE
8
circulation
10
277295.0
20
118941.18000000001
30
0
11
277227.5
21
118980.15
31
0
0
LINE
8
circulation
10
277227.5
20
118980.15
30
0
11
277227.5
21
118902.21
31
0
0
LINE
8
circulation
10
277227.5
20
118902.21
30
0
11
277295.0
21
118941.18000000001
31
0
0
LINE
8
circulation
10
277295.0
20
124058.81999999999
30
0
11
277227.5
21
124097.79
31
0
0
LINE
8
circulation
10
277227.5
20
124097.79
30
0
11
277227.5
21
124019.85
31
0
0
LINE
8
circulation
10
277227.5
20
124019.85
30
0
11
277295.0
21
124058.81999999999
31
0
0
LINE
8
circulation
10
277295.0
20
129176.47000000002
30
0
11
277227.5
21
129215.43999999999
31
0
0
LINE
8
circulation
10
277227.5
20
129215.43999999999
30
0
11
277227.5
21
129137.5
31
0
0
LINE
8
circulation
10
277227.5
20
129137.5
30
0
11
277295.0
21
129176.47000000002
31
0
0
LINE
8
circulation
10
277295.0
20
134294.12
30
0
11
277227.5
21
134333.09000000003
31
0
0
LINE
8
circulation
10
277227.5
20
134333.09000000003
30
0
11
277227.5
21
134255.15
31
0
0
LINE
8
circulation
10
277227.5
20
134255.15
30
0
11
277295.0
21
134294.12
31
0
0
LINE
8
circulation
10
277295.0
20
139411.75999999998
30
0
11
277227.5
21
139450.74000000002
31
0
0
LINE
8
circulation
10
277227.5
20
139450.74000000002
30
0
11
277227.5
21
139372.79
31
0
0
LINE
8
circulation
10
277227.5
20
139372.79
30
0
11
277295.0
21
139411.75999999998
31
0
0
LINE
8
circulation
10
277295.0
20
144529.41
30
0
11
277227.5
21
144568.38
31
0
0
LINE
8
circulation
10
277227.5
20
144568.38
30
0
11
277227.5
21
144490.44
31
0
0
LINE
8
circulation
10
277227.5
20
144490.44
30
0
11
277295.0
21
144529.41
31
0
0
LINE
8
circulation
10
277295.0
20
149647.06
30
0
11
277227.5
21
149686.03
31
0
0
LINE
8
circulation
10
277227.5
20
149686.03
30
0
11
277227.5
21
149608.09
31
0
0
LINE
8
circulation
10
277227.5
20
149608.09
30
0
11
277295.0
21
149647.06
31
0
0
LINE
8
circulation
10
277295.0
20
154764.71
30
0
11
277227.5
21
154803.68
31
0
0
LINE
8
circulation
10
277227.5
20
154803.68
30
0
11
277227.5
21
154725.73
31
0
0
LINE
8
circulation
10
277227.5
20
154725.73
30
0
11
277295.0
21
154764.71
31
0
0
LINE
8
circulation
10
277295.0
20
159882.35
30
0
11
277227.5
21
159921.32
31
0
0
LINE
8
circulation
10
277227.5
20
159921.32
30
0
11
277227.5
21
159843.38
31
0
0
LINE
8
circulation
10
277227.5
20
159843.38
30
0
11
277295.0
21
159882.35
31
0
0
LINE
8
equipment
10
55850.0
20
90350.0
30
0
11
55850.0
21
96650.0
31
0
0
LINE
8
equipment
10
67650.0
20
90350.0
30
0
11
67650.0
21
96650.0
31
0
0
LINE
8
equipment
10
55850.0
20
90350.0
30
0
11
67650.0
21
90350.0
31
0
0
LINE
8
equipment
10
55850.0
20
96650.0
30
0
11
67650.0
21
96650.0
31
0
0
LINE
8
equipment
10
56250.0
20
90750.0
30
0
11
56250.0
21
96250.0
31
0
0
LINE
8
equipment
10
67250.0
20
90750.0
30
0
11
67250.0
21
96250.0
31
0
0
LINE
8
equipment
10
56250.0
20
90750.0
30
0
11
67250.0
21
90750.0
31
0
0
LINE
8
equipment
10
56250.0
20
96250.0
30
0
11
67250.0
21
96250.0
31
0
0
LINE
8
equipment
10
56650.0
20
96250.0
30
0
11
56650.0
21
96370.0
31
0
0
LINE
8
equipment
10
58450.0
20
96250.0
30
0
11
58450.0
21
96370.0
31
0
0
LINE
8
equipment
10
56650.0
20
96370.0
30
0
11
58450.0
21
96370.0
31
0
0
LINE
8
equipment
10
60330.0
20
93500.0
30
0
11
59953.490000000005
21
94281.83000000002
31
0
0
LINE
8
equipment
10
59953.490000000005
20
94281.83000000002
30
0
11
59107.479999999996
21
94474.93000000001
31
0
0
LINE
8
equipment
10
59107.479999999996
20
94474.93000000001
30
0
11
58429.03
21
93933.87999999999
31
0
0
LINE
8
equipment
10
58429.03
20
93933.87999999999
30
0
11
58429.03
21
93066.12000000001
31
0
0
LINE
8
equipment
10
58429.03
20
93066.12000000001
30
0
11
59107.479999999996
21
92525.06999999999
31
0
0
LINE
8
equipment
10
59107.479999999996
20
92525.06999999999
30
0
11
59953.490000000005
21
92718.17
31
0
0
LINE
8
equipment
10
59953.490000000005
20
92718.17
30
0
11
60330.0
21
93500.0
31
0
0
LINE
8
equipment
10
60850.00000000001
20
96250.0
30
0
11
60850.00000000001
21
96370.0
31
0
0
LINE
8
equipment
10
62650.0
20
96250.0
30
0
11
62650.0
21
96370.0
31
0
0
LINE
8
equipment
10
60850.00000000001
20
96370.0
30
0
11
62650.0
21
96370.0
31
0
0
LINE
8
equipment
10
62750.0
20
93500.0
30
0
11
62373.49
21
94281.83000000002
31
0
0
LINE
8
equipment
10
62373.49
20
94281.83000000002
30
0
11
61527.479999999996
21
94474.93000000001
31
0
0
LINE
8
equipment
10
61527.479999999996
20
94474.93000000001
30
0
11
60849.030000000006
21
93933.87999999999
31
0
0
LINE
8
equipment
10
60849.030000000006
20
93933.87999999999
30
0
11
60849.030000000006
21
93066.12000000001
31
0
0
LINE
8
equipment
10
60849.030000000006
20
93066.12000000001
30
0
11
61527.479999999996
21
92525.06999999999
31
0
0
LINE
8
equipment
10
61527.479999999996
20
92525.06999999999
30
0
11
62373.49
21
92718.17
31
0
0
LINE
8
equipment
10
62373.49
20
92718.17
30
0
11
62750.0
21
93500.0
31
0
0
LINE
8
equipment
10
65050.0
20
96250.0
30
0
11
65050.0
21
96370.0
31
0
0
LINE
8
equipment
10
66850.0
20
96250.0
30
0
11
66850.0
21
96370.0
31
0
0
LINE
8
equipment
10
65050.0
20
96370.0
30
0
11
66850.0
21
96370.0
31
0
0
LINE
8
equipment
10
65170.0
20
93500.0
30
0
11
64793.490000000005
21
94281.83000000002
31
0
0
LINE
8
equipment
10
64793.490000000005
20
94281.83000000002
30
0
11
63947.479999999996
21
94474.93000000001
31
0
0
LINE
8
equipment
10
63947.479999999996
20
94474.93000000001
30
0
11
63269.03
21
93933.87999999999
31
0
0
LINE
8
equipment
10
63269.03
20
93933.87999999999
30
0
11
63269.03
21
93066.12000000001
31
0
0
LINE
8
equipment
10
63269.03
20
93066.12000000001
30
0
11
63947.479999999996
21
92525.06999999999
31
0
0
LINE
8
equipment
10
63947.479999999996
20
92525.06999999999
30
0
11
64793.490000000005
21
92718.17
31
0
0
LINE
8
equipment
10
64793.490000000005
20
92718.17
30
0
11
65170.0
21
93500.0
31
0
0
LINE
8
equipment
10
56450.00000000001
20
90685.0
30
0
11
56450.00000000001
21
90750.0
31
0
0
LINE
8
equipment
10
67050.0
20
90685.0
30
0
11
67050.0
21
90750.0
31
0
0
LINE
8
equipment
10
56450.00000000001
20
90685.0
30
0
11
67050.0
21
90685.0
31
0
0
LINE
8
equipment
10
56450.00000000001
20
96250.0
30
0
11
56450.00000000001
21
96315.00000000001
31
0
0
LINE
8
equipment
10
67050.0
20
96250.0
30
0
11
67050.0
21
96315.00000000001
31
0
0
LINE
8
equipment
10
56450.00000000001
20
96315.00000000001
30
0
11
56650.0
21
96315.00000000001
31
0
0
LINE
8
equipment
10
58450.0
20
96315.00000000001
30
0
11
60850.00000000001
21
96315.00000000001
31
0
0
LINE
8
equipment
10
62650.0
20
96315.00000000001
30
0
11
65050.0
21
96315.00000000001
31
0
0
LINE
8
equipment
10
66850.0
20
96315.00000000001
30
0
11
67050.0
21
96315.00000000001
31
0
0
LINE
8
equipment
10
91850.0
20
90350.0
30
0
11
91850.0
21
96650.0
31
0
0
LINE
8
equipment
10
103649.99999999999
20
90350.0
30
0
11
103649.99999999999
21
96650.0
31
0
0
LINE
8
equipment
10
91850.0
20
90350.0
30
0
11
103649.99999999999
21
90350.0
31
0
0
LINE
8
equipment
10
91850.0
20
96650.0
30
0
11
103649.99999999999
21
96650.0
31
0
0
LINE
8
equipment
10
92250.0
20
90750.0
30
0
11
92250.0
21
96250.0
31
0
0
LINE
8
equipment
10
103250.00000000001
20
90750.0
30
0
11
103250.00000000001
21
96250.0
31
0
0
LINE
8
equipment
10
92250.0
20
90750.0
30
0
11
103250.00000000001
21
90750.0
31
0
0
LINE
8
equipment
10
92250.0
20
96250.0
30
0
11
103250.00000000001
21
96250.0
31
0
0
LINE
8
equipment
10
92650.0
20
96250.0
30
0
11
92650.0
21
96370.0
31
0
0
LINE
8
equipment
10
94450.0
20
96250.0
30
0
11
94450.0
21
96370.0
31
0
0
LINE
8
equipment
10
92650.0
20
96370.0
30
0
11
94450.0
21
96370.0
31
0
0
LINE
8
equipment
10
96330.0
20
93500.0
30
0
11
95953.48999999999
21
94281.83000000002
31
0
0
LINE
8
equipment
10
95953.48999999999
20
94281.83000000002
30
0
11
95107.48
21
94474.93000000001
31
0
0
LINE
8
equipment
10
95107.48
20
94474.93000000001
30
0
11
94429.03
21
93933.87999999999
31
0
0
LINE
8
equipment
10
94429.03
20
93933.87999999999
30
0
11
94429.03
21
93066.12000000001
31
0
0
LINE
8
equipment
10
94429.03
20
93066.12000000001
30
0
11
95107.48
21
92525.06999999999
31
0
0
LINE
8
equipment
10
95107.48
20
92525.06999999999
30
0
11
95953.48999999999
21
92718.17
31
0
0
LINE
8
equipment
10
95953.48999999999
20
92718.17
30
0
11
96330.0
21
93500.0
31
0
0
LINE
8
equipment
10
96850.0
20
96250.0
30
0
11
96850.0
21
96370.0
31
0
0
LINE
8
equipment
10
98650.0
20
96250.0
30
0
11
98650.0
21
96370.0
31
0
0
LINE
8
equipment
10
96850.0
20
96370.0
30
0
11
98650.0
21
96370.0
31
0
0
LINE
8
equipment
10
98750.00000000001
20
93500.0
30
0
11
98373.48999999999
21
94281.83000000002
31
0
0
LINE
8
equipment
10
98373.48999999999
20
94281.83000000002
30
0
11
97527.48000000001
21
94474.93000000001
31
0
0
LINE
8
equipment
10
97527.48000000001
20
94474.93000000001
30
0
11
96849.03000000001
21
93933.87999999999
31
0
0
LINE
8
equipment
10
96849.03000000001
20
93933.87999999999
30
0
11
96849.03000000001
21
93066.12000000001
31
0
0
LINE
8
equipment
10
96849.03000000001
20
93066.12000000001
30
0
11
97527.48000000001
21
92525.06999999999
31
0
0
LINE
8
equipment
10
97527.48000000001
20
92525.06999999999
30
0
11
98373.48999999999
21
92718.17
31
0
0
LINE
8
equipment
10
98373.48999999999
20
92718.17
30
0
11
98750.00000000001
21
93500.0
31
0
0
LINE
8
equipment
10
101050.00000000001
20
96250.0
30
0
11
101050.00000000001
21
96370.0
31
0
0
LINE
8
equipment
10
102850.0
20
96250.0
30
0
11
102850.0
21
96370.0
31
0
0
LINE
8
equipment
10
101050.00000000001
20
96370.0
30
0
11
102850.0
21
96370.0
31
0
0
LINE
8
equipment
10
101169.99999999999
20
93500.0
30
0
11
100793.49
21
94281.83000000002
31
0
0
LINE
8
equipment
10
100793.49
20
94281.83000000002
30
0
11
99947.48
21
94474.93000000001
31
0
0
LINE
8
equipment
10
99947.48
20
94474.93000000001
30
0
11
99269.02999999998
21
93933.87999999999
31
0
0
LINE
8
equipment
10
99269.02999999998
20
93933.87999999999
30
0
11
99269.02999999998
21
93066.12000000001
31
0
0
LINE
8
equipment
10
99269.02999999998
20
93066.12000000001
30
0
11
99947.48
21
92525.06999999999
31
0
0
LINE
8
equipment
10
99947.48
20
92525.06999999999
30
0
11
100793.49
21
92718.17
31
0
0
LINE
8
equipment
10
100793.49
20
92718.17
30
0
11
101169.99999999999
21
93500.0
31
0
0
LINE
8
equipment
10
92450.0
20
90685.0
30
0
11
92450.0
21
90750.0
31
0
0
LINE
8
equipment
10
103050.0
20
90685.0
30
0
11
103050.0
21
90750.0
31
0
0
LINE
8
equipment
10
92450.0
20
90685.0
30
0
11
103050.0
21
90685.0
31
0
0
LINE
8
equipment
10
92450.0
20
96250.0
30
0
11
92450.0
21
96315.00000000001
31
0
0
LINE
8
equipment
10
103050.0
20
96250.0
30
0
11
103050.0
21
96315.00000000001
31
0
0
LINE
8
equipment
10
92450.0
20
96315.00000000001
30
0
11
92650.0
21
96315.00000000001
31
0
0
LINE
8
equipment
10
94450.0
20
96315.00000000001
30
0
11
96850.0
21
96315.00000000001
31
0
0
LINE
8
equipment
10
98650.0
20
96315.00000000001
30
0
11
101050.00000000001
21
96315.00000000001
31
0
0
LINE
8
equipment
10
102850.0
20
96315.00000000001
30
0
11
103050.0
21
96315.00000000001
31
0
0
LINE
8
equipment
10
127850.0
20
90350.0
30
0
11
127850.0
21
96650.0
31
0
0
LINE
8
equipment
10
139650.0
20
90350.0
30
0
11
139650.0
21
96650.0
31
0
0
LINE
8
equipment
10
127850.0
20
90350.0
30
0
11
139650.0
21
90350.0
31
0
0
LINE
8
equipment
10
127850.0
20
96650.0
30
0
11
139650.0
21
96650.0
31
0
0
LINE
8
equipment
10
128250.0
20
90750.0
30
0
11
128250.0
21
96250.0
31
0
0
LINE
8
equipment
10
139250.0
20
90750.0
30
0
11
139250.0
21
96250.0
31
0
0
LINE
8
equipment
10
128250.0
20
90750.0
30
0
11
139250.0
21
90750.0
31
0
0
LINE
8
equipment
10
128250.0
20
96250.0
30
0
11
139250.0
21
96250.0
31
0
0
LINE
8
equipment
10
128650.0
20
96250.0
30
0
11
128650.0
21
96370.0
31
0
0
LINE
8
equipment
10
130450.0
20
96250.0
30
0
11
130450.0
21
96370.0
31
0
0
LINE
8
equipment
10
128650.0
20
96370.0
30
0
11
130450.0
21
96370.0
31
0
0
LINE
8
equipment
10
132330.0
20
93500.0
30
0
11
131953.49
21
94281.83000000002
31
0
0
LINE
8
equipment
10
131953.49
20
94281.83000000002
30
0
11
131107.48
21
94474.93000000001
31
0
0
LINE
8
equipment
10
131107.48
20
94474.93000000001
30
0
11
130429.03
21
93933.87999999999
31
0
0
LINE
8
equipment
10
130429.03
20
93933.87999999999
30
0
11
130429.03
21
93066.12000000001
31
0
0
LINE
8
equipment
10
130429.03
20
93066.12000000001
30
0
11
131107.48
21
92525.06999999999
31
0
0
LINE
8
equipment
10
131107.48
20
92525.06999999999
30
0
11
131953.49
21
92718.17
31
0
0
LINE
8
equipment
10
131953.49
20
92718.17
30
0
11
132330.0
21
93500.0
31
0
0
LINE
8
equipment
10
132850.0
20
96250.0
30
0
11
132850.0
21
96370.0
31
0
0
LINE
8
equipment
10
134650.0
20
96250.0
30
0
11
134650.0
21
96370.0
31
0
0
LINE
8
equipment
10
132850.0
20
96370.0
30
0
11
134650.0
21
96370.0
31
0
0
LINE
8
equipment
10
134750.0
20
93500.0
30
0
11
134373.49
21
94281.83000000002
31
0
0
LINE
8
equipment
10
134373.49
20
94281.83000000002
30
0
11
133527.48
21
94474.93000000001
31
0
0
LINE
8
equipment
10
133527.48
20
94474.93000000001
30
0
11
132849.03
21
93933.87999999999
31
0
0
LINE
8
equipment
10
132849.03
20
93933.87999999999
30
0
11
132849.03
21
93066.12000000001
31
0
0
LINE
8
equipment
10
132849.03
20
93066.12000000001
30
0
11
133527.48
21
92525.06999999999
31
0
0
LINE
8
equipment
10
133527.48
20
92525.06999999999
30
0
11
134373.49
21
92718.17
31
0
0
LINE
8
equipment
10
134373.49
20
92718.17
30
0
11
134750.0
21
93500.0
31
0
0
LINE
8
equipment
10
137050.0
20
96250.0
30
0
11
137050.0
21
96370.0
31
0
0
LINE
8
equipment
10
138850.0
20
96250.0
30
0
11
138850.0
21
96370.0
31
0
0
LINE
8
equipment
10
137050.0
20
96370.0
30
0
11
138850.0
21
96370.0
31
0
0
LINE
8
equipment
10
137170.0
20
93500.0
30
0
11
136793.49000000002
21
94281.83000000002
31
0
0
LINE
8
equipment
10
136793.49000000002
20
94281.83000000002
30
0
11
135947.48
21
94474.93000000001
31
0
0
LINE
8
equipment
10
135947.48
20
94474.93000000001
30
0
11
135269.03
21
93933.87999999999
31
0
0
LINE
8
equipment
10
135269.03
20
93933.87999999999
30
0
11
135269.03
21
93066.12000000001
31
0
0
LINE
8
equipment
10
135269.03
20
93066.12000000001
30
0
11
135947.48
21
92525.06999999999
31
0
0
LINE
8
equipment
10
135947.48
20
92525.06999999999
30
0
11
136793.49000000002
21
92718.17
31
0
0
LINE
8
equipment
10
136793.49000000002
20
92718.17
30
0
11
137170.0
21
93500.0
31
0
0
LINE
8
equipment
10
128449.99999999999
20
90685.0
30
0
11
128449.99999999999
21
90750.0
31
0
0
LINE
8
equipment
10
139050.0
20
90685.0
30
0
11
139050.0
21
90750.0
31
0
0
LINE
8
equipment
10
128449.99999999999
20
90685.0
30
0
11
139050.0
21
90685.0
31
0
0
LINE
8
equipment
10
128449.99999999999
20
96250.0
30
0
11
128449.99999999999
21
96315.00000000001
31
0
0
LINE
8
equipment
10
139050.0
20
96250.0
30
0
11
139050.0
21
96315.00000000001
31
0
0
LINE
8
equipment
10
128449.99999999999
20
96315.00000000001
30
0
11
128650.0
21
96315.00000000001
31
0
0
LINE
8
equipment
10
130450.0
20
96315.00000000001
30
0
11
132850.0
21
96315.00000000001
31
0
0
LINE
8
equipment
10
134650.0
20
96315.00000000001
30
0
11
137050.0
21
96315.00000000001
31
0
0
LINE
8
equipment
10
138850.0
20
96315.00000000001
30
0
11
139050.0
21
96315.00000000001
31
0
0
LINE
8
equipment
10
163850.0
20
90350.0
30
0
11
163850.0
21
96650.0
31
0
0
LINE
8
equipment
10
175650.0
20
90350.0
30
0
11
175650.0
21
96650.0
31
0
0
LINE
8
equipment
10
163850.0
20
90350.0
30
0
11
175650.0
21
90350.0
31
0
0
LINE
8
equipment
10
163850.0
20
96650.0
30
0
11
175650.0
21
96650.0
31
0
0
LINE
8
equipment
10
164250.0
20
90750.0
30
0
11
164250.0
21
96250.0
31
0
0
LINE
8
equipment
10
175250.0
20
90750.0
30
0
11
175250.0
21
96250.0
31
0
0
LINE
8
equipment
10
164250.0
20
90750.0
30
0
11
175250.0
21
90750.0
31
0
0
LINE
8
equipment
10
164250.0
20
96250.0
30
0
11
175250.0
21
96250.0
31
0
0
LINE
8
equipment
10
164650.0
20
96250.0
30
0
11
164650.0
21
96370.0
31
0
0
LINE
8
equipment
10
166450.0
20
96250.0
30
0
11
166450.0
21
96370.0
31
0
0
LINE
8
equipment
10
164650.0
20
96370.0
30
0
11
166450.0
21
96370.0
31
0
0
LINE
8
equipment
10
168330.0
20
93500.0
30
0
11
167953.49
21
94281.83000000002
31
0
0
LINE
8
equipment
10
167953.49
20
94281.83000000002
30
0
11
167107.48
21
94474.93000000001
31
0
0
LINE
8
equipment
10
167107.48
20
94474.93000000001
30
0
11
166429.03
21
93933.87999999999
31
0
0
LINE
8
equipment
10
166429.03
20
93933.87999999999
30
0
11
166429.03
21
93066.12000000001
31
0
0
LINE
8
equipment
10
166429.03
20
93066.12000000001
30
0
11
167107.48
21
92525.06999999999
31
0
0
LINE
8
equipment
10
167107.48
20
92525.06999999999
30
0
11
167953.49
21
92718.17
31
0
0
LINE
8
equipment
10
167953.49
20
92718.17
30
0
11
168330.0
21
93500.0
31
0
0
LINE
8
equipment
10
168850.0
20
96250.0
30
0
11
168850.0
21
96370.0
31
0
0
LINE
8
equipment
10
170650.0
20
96250.0
30
0
11
170650.0
21
96370.0
31
0
0
LINE
8
equipment
10
168850.0
20
96370.0
30
0
11
170650.0
21
96370.0
31
0
0
LINE
8
equipment
10
170750.0
20
93500.0
30
0
11
170373.49
21
94281.83000000002
31
0
0
LINE
8
equipment
10
170373.49
20
94281.83000000002
30
0
11
169527.48
21
94474.93000000001
31
0
0
LINE
8
equipment
10
169527.48
20
94474.93000000001
30
0
11
168849.03
21
93933.87999999999
31
0
0
LINE
8
equipment
10
168849.03
20
93933.87999999999
30
0
11
168849.03
21
93066.12000000001
31
0
0
LINE
8
equipment
10
168849.03
20
93066.12000000001
30
0
11
169527.48
21
92525.06999999999
31
0
0
LINE
8
equipment
10
169527.48
20
92525.06999999999
30
0
11
170373.49
21
92718.17
31
0
0
LINE
8
equipment
10
170373.49
20
92718.17
30
0
11
170750.0
21
93500.0
31
0
0
LINE
8
equipment
10
173050.0
20
96250.0
30
0
11
173050.0
21
96370.0
31
0
0
LINE
8
equipment
10
174850.0
20
96250.0
30
0
11
174850.0
21
96370.0
31
0
0
LINE
8
equipment
10
173050.0
20
96370.0
30
0
11
174850.0
21
96370.0
31
0
0
LINE
8
equipment
10
173170.0
20
93500.0
30
0
11
172793.49000000002
21
94281.83000000002
31
0
0
LINE
8
equipment
10
172793.49000000002
20
94281.83000000002
30
0
11
171947.48
21
94474.93000000001
31
0
0
LINE
8
equipment
10
171947.48
20
94474.93000000001
30
0
11
171269.03
21
93933.87999999999
31
0
0
LINE
8
equipment
10
171269.03
20
93933.87999999999
30
0
11
171269.03
21
93066.12000000001
31
0
0
LINE
8
equipment
10
171269.03
20
93066.12000000001
30
0
11
171947.48
21
92525.06999999999
31
0
0
LINE
8
equipment
10
171947.48
20
92525.06999999999
30
0
11
172793.49000000002
21
92718.17
31
0
0
LINE
8
equipment
10
172793.49000000002
20
92718.17
30
0
11
173170.0
21
93500.0
31
0
0
LINE
8
equipment
10
164450.0
20
90685.0
30
0
11
164450.0
21
90750.0
31
0
0
LINE
8
equipment
10
175050.0
20
90685.0
30
0
11
175050.0
21
90750.0
31
0
0
LINE
8
equipment
10
164450.0
20
90685.0
30
0
11
175050.0
21
90685.0
31
0
0
LINE
8
equipment
10
164450.0
20
96250.0
30
0
11
164450.0
21
96315.00000000001
31
0
0
LINE
8
equipment
10
175050.0
20
96250.0
30
0
11
175050.0
21
96315.00000000001
31
0
0
LINE
8
equipment
10
164450.0
20
96315.00000000001
30
0
11
164650.0
21
96315.00000000001
31
0
0
LINE
8
equipment
10
166450.0
20
96315.00000000001
30
0
11
168850.0
21
96315.00000000001
31
0
0
LINE
8
equipment
10
170650.0
20
96315.00000000001
30
0
11
173050.0
21
96315.00000000001
31
0
0
LINE
8
equipment
10
174850.0
20
96315.00000000001
30
0
11
175050.0
21
96315.00000000001
31
0
0
LINE
8
equipment
10
199850.00000000003
20
90350.0
30
0
11
199850.00000000003
21
96650.0
31
0
0
LINE
8
equipment
10
211650.0
20
90350.0
30
0
11
211650.0
21
96650.0
31
0
0
LINE
8
equipment
10
199850.00000000003
20
90350.0
30
0
11
211650.0
21
90350.0
31
0
0
LINE
8
equipment
10
199850.00000000003
20
96650.0
30
0
11
211650.0
21
96650.0
31
0
0
LINE
8
equipment
10
200250.0
20
90750.0
30
0
11
200250.0
21
96250.0
31
0
0
LINE
8
equipment
10
211250.0
20
90750.0
30
0
11
211250.0
21
96250.0
31
0
0
LINE
8
equipment
10
200250.0
20
90750.0
30
0
11
211250.0
21
90750.0
31
0
0
LINE
8
equipment
10
200250.0
20
96250.0
30
0
11
211250.0
21
96250.0
31
0
0
LINE
8
equipment
10
200649.99999999997
20
96250.0
30
0
11
200649.99999999997
21
96370.0
31
0
0
LINE
8
equipment
10
202450.0
20
96250.0
30
0
11
202450.0
21
96370.0
31
0
0
LINE
8
equipment
10
200649.99999999997
20
96370.0
30
0
11
202450.0
21
96370.0
31
0
0
LINE
8
equipment
10
204330.0
20
93500.0
30
0
11
203953.49000000002
21
94281.83000000002
31
0
0
LINE
8
equipment
10
203953.49000000002
20
94281.83000000002
30
0
11
203107.48
21
94474.93000000001
31
0
0
LINE
8
equipment
10
203107.48
20
94474.93000000001
30
0
11
202429.03
21
93933.87999999999
31
0
0
LINE
8
equipment
10
202429.03
20
93933.87999999999
30
0
11
202429.03
21
93066.12000000001
31
0
0
LINE
8
equipment
10
202429.03
20
93066.12000000001
30
0
11
203107.48
21
92525.06999999999
31
0
0
LINE
8
equipment
10
203107.48
20
92525.06999999999
30
0
11
203953.49000000002
21
92718.17
31
0
0
LINE
8
equipment
10
203953.49000000002
20
92718.17
30
0
11
204330.0
21
93500.0
31
0
0
LINE
8
equipment
10
204850.0
20
96250.0
30
0
11
204850.0
21
96370.0
31
0
0
LINE
8
equipment
10
206649.99999999997
20
96250.0
30
0
11
206649.99999999997
21
96370.0
31
0
0
LINE
8
equipment
10
204850.0
20
96370.0
30
0
11
206649.99999999997
21
96370.0
31
0
0
LINE
8
equipment
10
206750.0
20
93500.0
30
0
11
206373.49
21
94281.83000000002
31
0
0
LINE
8
equipment
10
206373.49
20
94281.83000000002
30
0
11
205527.48000000004
21
94474.93000000001
31
0
0
LINE
8
equipment
10
205527.48000000004
20
94474.93000000001
30
0
11
204849.03
21
93933.87999999999
31
0
0
LINE
8
equipment
10
204849.03
20
93933.87999999999
30
0
11
204849.03
21
93066.12000000001
31
0
0
LINE
8
equipment
10
204849.03
20
93066.12000000001
30
0
11
205527.48000000004
21
92525.06999999999
31
0
0
LINE
8
equipment
10
205527.48000000004
20
92525.06999999999
30
0
11
206373.49
21
92718.17
31
0
0
LINE
8
equipment
10
206373.49
20
92718.17
30
0
11
206750.0
21
93500.0
31
0
0
LINE
8
equipment
10
209050.0
20
96250.0
30
0
11
209050.0
21
96370.0
31
0
0
LINE
8
equipment
10
210850.0
20
96250.0
30
0
11
210850.0
21
96370.0
31
0
0
LINE
8
equipment
10
209050.0
20
96370.0
30
0
11
210850.0
21
96370.0
31
0
0
LINE
8
equipment
10
209170.0
20
93500.0
30
0
11
208793.49000000002
21
94281.83000000002
31
0
0
LINE
8
equipment
10
208793.49000000002
20
94281.83000000002
30
0
11
207947.48
21
94474.93000000001
31
0
0
LINE
8
equipment
10
207947.48
20
94474.93000000001
30
0
11
207269.03
21
93933.87999999999
31
0
0
LINE
8
equipment
10
207269.03
20
93933.87999999999
30
0
11
207269.03
21
93066.12000000001
31
0
0
LINE
8
equipment
10
207269.03
20
93066.12000000001
30
0
11
207947.48
21
92525.06999999999
31
0
0
LINE
8
equipment
10
207947.48
20
92525.06999999999
30
0
11
208793.49000000002
21
92718.17
31
0
0
LINE
8
equipment
10
208793.49000000002
20
92718.17
30
0
11
209170.0
21
93500.0
31
0
0
LINE
8
equipment
10
200450.0
20
90685.0
30
0
11
200450.0
21
90750.0
31
0
0
LINE
8
equipment
10
211049.99999999997
20
90685.0
30
0
11
211049.99999999997
21
90750.0
31
0
0
LINE
8
equipment
10
200450.0
20
90685.0
30
0
11
211049.99999999997
21
90685.0
31
0
0
LINE
8
equipment
10
200450.0
20
96250.0
30
0
11
200450.0
21
96315.00000000001
31
0
0
LINE
8
equipment
10
211049.99999999997
20
96250.0
30
0
11
211049.99999999997
21
96315.00000000001
31
0
0
LINE
8
equipment
10
200450.0
20
96315.00000000001
30
0
11
200649.99999999997
21
96315.00000000001
31
0
0
LINE
8
equipment
10
202450.0
20
96315.00000000001
30
0
11
204850.0
21
96315.00000000001
31
0
0
LINE
8
equipment
10
206649.99999999997
20
96315.00000000001
30
0
11
209050.0
21
96315.00000000001
31
0
0
LINE
8
equipment
10
210850.0
20
96315.00000000001
30
0
11
211049.99999999997
21
96315.00000000001
31
0
0
LINE
8
equipment
10
235850.00000000003
20
90350.0
30
0
11
235850.00000000003
21
96650.0
31
0
0
LINE
8
equipment
10
247650.0
20
90350.0
30
0
11
247650.0
21
96650.0
31
0
0
LINE
8
equipment
10
235850.00000000003
20
90350.0
30
0
11
247650.0
21
90350.0
31
0
0
LINE
8
equipment
10
235850.00000000003
20
96650.0
30
0
11
247650.0
21
96650.0
31
0
0
LINE
8
equipment
10
236250.0
20
90750.0
30
0
11
236250.0
21
96250.0
31
0
0
LINE
8
equipment
10
247250.0
20
90750.0
30
0
11
247250.0
21
96250.0
31
0
0
LINE
8
equipment
10
236250.0
20
90750.0
30
0
11
247250.0
21
90750.0
31
0
0
LINE
8
equipment
10
236250.0
20
96250.0
30
0
11
247250.0
21
96250.0
31
0
0
LINE
8
equipment
10
236649.99999999997
20
96250.0
30
0
11
236649.99999999997
21
96370.0
31
0
0
LINE
8
equipment
10
238450.0
20
96250.0
30
0
11
238450.0
21
96370.0
31
0
0
LINE
8
equipment
10
236649.99999999997
20
96370.0
30
0
11
238450.0
21
96370.0
31
0
0
LINE
8
equipment
10
240330.0
20
93500.0
30
0
11
239953.49000000002
21
94281.83000000002
31
0
0
LINE
8
equipment
10
239953.49000000002
20
94281.83000000002
30
0
11
239107.48
21
94474.93000000001
31
0
0
LINE
8
equipment
10
239107.48
20
94474.93000000001
30
0
11
238429.03
21
93933.87999999999
31
0
0
LINE
8
equipment
10
238429.03
20
93933.87999999999
30
0
11
238429.03
21
93066.12000000001
31
0
0
LINE
8
equipment
10
238429.03
20
93066.12000000001
30
0
11
239107.48
21
92525.06999999999
31
0
0
LINE
8
equipment
10
239107.48
20
92525.06999999999
30
0
11
239953.49000000002
21
92718.17
31
0
0
LINE
8
equipment
10
239953.49000000002
20
92718.17
30
0
11
240330.0
21
93500.0
31
0
0
LINE
8
equipment
10
240850.0
20
96250.0
30
0
11
240850.0
21
96370.0
31
0
0
LINE
8
equipment
10
242649.99999999997
20
96250.0
30
0
11
242649.99999999997
21
96370.0
31
0
0
LINE
8
equipment
10
240850.0
20
96370.0
30
0
11
242649.99999999997
21
96370.0
31
0
0
LINE
8
equipment
10
242750.0
20
93500.0
30
0
11
242373.49
21
94281.83000000002
31
0
0
LINE
8
equipment
10
242373.49
20
94281.83000000002
30
0
11
241527.47999999998
21
94474.93000000001
31
0
0
LINE
8
equipment
10
241527.47999999998
20
94474.93000000001
30
0
11
240849.03
21
93933.87999999999
31
0
0
LINE
8
equipment
10
240849.03
20
93933.87999999999
30
0
11
240849.03
21
93066.12000000001
31
0
0
LINE
8
equipment
10
240849.03
20
93066.12000000001
30
0
11
241527.47999999998
21
92525.06999999999
31
0
0
LINE
8
equipment
10
241527.47999999998
20
92525.06999999999
30
0
11
242373.49
21
92718.17
31
0
0
LINE
8
equipment
10
242373.49
20
92718.17
30
0
11
242750.0
21
93500.0
31
0
0
LINE
8
equipment
10
245050.0
20
96250.0
30
0
11
245050.0
21
96370.0
31
0
0
LINE
8
equipment
10
246850.0
20
96250.0
30
0
11
246850.0
21
96370.0
31
0
0
LINE
8
equipment
10
245050.0
20
96370.0
30
0
11
246850.0
21
96370.0
31
0
0
LINE
8
equipment
10
245170.0
20
93500.0
30
0
11
244793.49000000002
21
94281.83000000002
31
0
0
LINE
8
equipment
10
244793.49000000002
20
94281.83000000002
30
0
11
243947.48
21
94474.93000000001
31
0
0
LINE
8
equipment
10
243947.48
20
94474.93000000001
30
0
11
243269.03
21
93933.87999999999
31
0
0
LINE
8
equipment
10
243269.03
20
93933.87999999999
30
0
11
243269.03
21
93066.12000000001
31
0
0
LINE
8
equipment
10
243269.03
20
93066.12000000001
30
0
11
243947.48
21
92525.06999999999
31
0
0
LINE
8
equipment
10
243947.48
20
92525.06999999999
30
0
11
244793.49000000002
21
92718.17
31
0
0
LINE
8
equipment
10
244793.49000000002
20
92718.17
30
0
11
245170.0
21
93500.0
31
0
0
LINE
8
equipment
10
236450.0
20
90685.0
30
0
11
236450.0
21
90750.0
31
0
0
LINE
8
equipment
10
247049.99999999997
20
90685.0
30
0
11
247049.99999999997
21
90750.0
31
0
0
LINE
8
equipment
10
236450.0
20
90685.0
30
0
11
247049.99999999997
21
90685.0
31
0
0
LINE
8
equipment
10
236450.0
20
96250.0
30
0
11
236450.0
21
96315.00000000001
31
0
0
LINE
8
equipment
10
247049.99999999997
20
96250.0
30
0
11
247049.99999999997
21
96315.00000000001
31
0
0
LINE
8
equipment
10
236450.0
20
96315.00000000001
30
0
11
236649.99999999997
21
96315.00000000001
31
0
0
LINE
8
equipment
10
238450.0
20
96315.00000000001
30
0
11
240850.0
21
96315.00000000001
31
0
0
LINE
8
equipment
10
242649.99999999997
20
96315.00000000001
30
0
11
245050.0
21
96315.00000000001
31
0
0
LINE
8
equipment
10
246850.0
20
96315.00000000001
30
0
11
247049.99999999997
21
96315.00000000001
31
0
0
LINE
8
equipment
10
55850.0
20
117350.0
30
0
11
55850.0
21
123650.0
31
0
0
LINE
8
equipment
10
67650.0
20
117350.0
30
0
11
67650.0
21
123650.0
31
0
0
LINE
8
equipment
10
55850.0
20
117350.0
30
0
11
67650.0
21
117350.0
31
0
0
LINE
8
equipment
10
55850.0
20
123650.0
30
0
11
67650.0
21
123650.0
31
0
0
LINE
8
equipment
10
56250.0
20
117750.0
30
0
11
56250.0
21
123250.0
31
0
0
LINE
8
equipment
10
67250.0
20
117750.0
30
0
11
67250.0
21
123250.0
31
0
0
LINE
8
equipment
10
56250.0
20
117750.0
30
0
11
67250.0
21
117750.0
31
0
0
LINE
8
equipment
10
56250.0
20
123250.0
30
0
11
67250.0
21
123250.0
31
0
0
LINE
8
equipment
10
56650.0
20
123250.0
30
0
11
56650.0
21
123370.0
31
0
0
LINE
8
equipment
10
58450.0
20
123250.0
30
0
11
58450.0
21
123370.0
31
0
0
LINE
8
equipment
10
56650.0
20
123370.0
30
0
11
58450.0
21
123370.0
31
0
0
LINE
8
equipment
10
60330.0
20
120500.0
30
0
11
59953.490000000005
21
121281.82999999999
31
0
0
LINE
8
equipment
10
59953.490000000005
20
121281.82999999999
30
0
11
59107.479999999996
21
121474.93000000001
31
0
0
LINE
8
equipment
10
59107.479999999996
20
121474.93000000001
30
0
11
58429.03
21
120933.87999999999
31
0
0
LINE
8
equipment
10
58429.03
20
120933.87999999999
30
0
11
58429.03
21
120066.12
31
0
0
LINE
8
equipment
10
58429.03
20
120066.12
30
0
11
59107.479999999996
21
119525.06999999999
31
0
0
LINE
8
equipment
10
59107.479999999996
20
119525.06999999999
30
0
11
59953.490000000005
21
119718.17
31
0
0
LINE
8
equipment
10
59953.490000000005
20
119718.17
30
0
11
60330.0
21
120500.0
31
0
0
LINE
8
equipment
10
60850.00000000001
20
123250.0
30
0
11
60850.00000000001
21
123370.0
31
0
0
LINE
8
equipment
10
62650.0
20
123250.0
30
0
11
62650.0
21
123370.0
31
0
0
LINE
8
equipment
10
60850.00000000001
20
123370.0
30
0
11
62650.0
21
123370.0
31
0
0
LINE
8
equipment
10
62750.0
20
120500.0
30
0
11
62373.49
21
121281.82999999999
31
0
0
LINE
8
equipment
10
62373.49
20
121281.82999999999
30
0
11
61527.479999999996
21
121474.93000000001
31
0
0
LINE
8
equipment
10
61527.479999999996
20
121474.93000000001
30
0
11
60849.030000000006
21
120933.87999999999
31
0
0
LINE
8
equipment
10
60849.030000000006
20
120933.87999999999
30
0
11
60849.030000000006
21
120066.12
31
0
0
LINE
8
equipment
10
60849.030000000006
20
120066.12
30
0
11
61527.479999999996
21
119525.06999999999
31
0
0
LINE
8
equipment
10
61527.479999999996
20
119525.06999999999
30
0
11
62373.49
21
119718.17
31
0
0
LINE
8
equipment
10
62373.49
20
119718.17
30
0
11
62750.0
21
120500.0
31
0
0
LINE
8
equipment
10
65050.0
20
123250.0
30
0
11
65050.0
21
123370.0
31
0
0
LINE
8
equipment
10
66850.0
20
123250.0
30
0
11
66850.0
21
123370.0
31
0
0
LINE
8
equipment
10
65050.0
20
123370.0
30
0
11
66850.0
21
123370.0
31
0
0
LINE
8
equipment
10
65170.0
20
120500.0
30
0
11
64793.490000000005
21
121281.82999999999
31
0
0
LINE
8
equipment
10
64793.490000000005
20
121281.82999999999
30
0
11
63947.479999999996
21
121474.93000000001
31
0
0
LINE
8
equipment
10
63947.479999999996
20
121474.93000000001
30
0
11
63269.03
21
120933.87999999999
31
0
0
LINE
8
equipment
10
63269.03
20
120933.87999999999
30
0
11
63269.03
21
120066.12
31
0
0
LINE
8
equipment
10
63269.03
20
120066.12
30
0
11
63947.479999999996
21
119525.06999999999
31
0
0
LINE
8
equipment
10
63947.479999999996
20
119525.06999999999
30
0
11
64793.490000000005
21
119718.17
31
0
0
LINE
8
equipment
10
64793.490000000005
20
119718.17
30
0
11
65170.0
21
120500.0
31
0
0
LINE
8
equipment
10
56450.00000000001
20
117685.0
30
0
11
56450.00000000001
21
117750.0
31
0
0
LINE
8
equipment
10
67050.0
20
117685.0
30
0
11
67050.0
21
117750.0
31
0
0
LINE
8
equipment
10
56450.00000000001
20
117685.0
30
0
11
67050.0
21
117685.0
31
0
0
LINE
8
equipment
10
56450.00000000001
20
123250.0
30
0
11
56450.00000000001
21
123314.99999999999
31
0
0
LINE
8
equipment
10
67050.0
20
123250.0
30
0
11
67050.0
21
123314.99999999999
31
0
0
LINE
8
equipment
10
56450.00000000001
20
123314.99999999999
30
0
11
56650.0
21
123314.99999999999
31
0
0
LINE
8
equipment
10
58450.0
20
123314.99999999999
30
0
11
60850.00000000001
21
123314.99999999999
31
0
0
LINE
8
equipment
10
62650.0
20
123314.99999999999
30
0
11
65050.0
21
123314.99999999999
31
0
0
LINE
8
equipment
10
66850.0
20
123314.99999999999
30
0
11
67050.0
21
123314.99999999999
31
0
0
LINE
8
equipment
10
91850.0
20
117350.0
30
0
11
91850.0
21
123650.0
31
0
0
LINE
8
equipment
10
103649.99999999999
20
117350.0
30
0
11
103649.99999999999
21
123650.0
31
0
0
LINE
8
equipment
10
91850.0
20
117350.0
30
0
11
103649.99999999999
21
117350.0
31
0
0
LINE
8
equipment
10
91850.0
20
123650.0
30
0
11
103649.99999999999
21
123650.0
31
0
0
LINE
8
equipment
10
92250.0
20
117750.0
30
0
11
92250.0
21
123250.0
31
0
0
LINE
8
equipment
10
103250.00000000001
20
117750.0
30
0
11
103250.00000000001
21
123250.0
31
0
0
LINE
8
equipment
10
92250.0
20
117750.0
30
0
11
103250.00000000001
21
117750.0
31
0
0
LINE
8
equipment
10
92250.0
20
123250.0
30
0
11
103250.00000000001
21
123250.0
31
0
0
LINE
8
equipment
10
92650.0
20
123250.0
30
0
11
92650.0
21
123370.0
31
0
0
LINE
8
equipment
10
94450.0
20
123250.0
30
0
11
94450.0
21
123370.0
31
0
0
LINE
8
equipment
10
92650.0
20
123370.0
30
0
11
94450.0
21
123370.0
31
0
0
LINE
8
equipment
10
96330.0
20
120500.0
30
0
11
95953.48999999999
21
121281.82999999999
31
0
0
LINE
8
equipment
10
95953.48999999999
20
121281.82999999999
30
0
11
95107.48
21
121474.93000000001
31
0
0
LINE
8
equipment
10
95107.48
20
121474.93000000001
30
0
11
94429.03
21
120933.87999999999
31
0
0
LINE
8
equipment
10
94429.03
20
120933.87999999999
30
0
11
94429.03
21
120066.12
31
0
0
LINE
8
equipment
10
94429.03
20
120066.12
30
0
11
95107.48
21
119525.06999999999
31
0
0
LINE
8
equipment
10
95107.48
20
119525.06999999999
30
0
11
95953.48999999999
21
119718.17
31
0
0
LINE
8
equipment
10
95953.48999999999
20
119718.17
30
0
11
96330.0
21
120500.0
31
0
0
LINE
8
equipment
10
96850.0
20
123250.0
30
0
11
96850.0
21
123370.0
31
0
0
LINE
8
equipment
10
98650.0
20
123250.0
30
0
11
98650.0
21
123370.0
31
0
0
LINE
8
equipment
10
96850.0
20
123370.0
30
0
11
98650.0
21
123370.0
31
0
0
LINE
8
equipment
10
98750.00000000001
20
120500.0
30
0
11
98373.48999999999
21
121281.82999999999
31
0
0
LINE
8
equipment
10
98373.48999999999
20
121281.82999999999
30
0
11
97527.48000000001
21
121474.93000000001
31
0
0
LINE
8
equipment
10
97527.48000000001
20
121474.93000000001
30
0
11
96849.03000000001
21
120933.87999999999
31
0
0
LINE
8
equipment
10
96849.03000000001
20
120933.87999999999
30
0
11
96849.03000000001
21
120066.12
31
0
0
LINE
8
equipment
10
96849.03000000001
20
120066.12
30
0
11
97527.48000000001
21
119525.06999999999
31
0
0
LINE
8
equipment
10
97527.48000000001
20
119525.06999999999
30
0
11
98373.48999999999
21
119718.17
31
0
0
LINE
8
equipment
10
98373.48999999999
20
119718.17
30
0
11
98750.00000000001
21
120500.0
31
0
0
LINE
8
equipment
10
101050.00000000001
20
123250.0
30
0
11
101050.00000000001
21
123370.0
31
0
0
LINE
8
equipment
10
102850.0
20
123250.0
30
0
11
102850.0
21
123370.0
31
0
0
LINE
8
equipment
10
101050.00000000001
20
123370.0
30
0
11
102850.0
21
123370.0
31
0
0
LINE
8
equipment
10
101169.99999999999
20
120500.0
30
0
11
100793.49
21
121281.82999999999
31
0
0
LINE
8
equipment
10
100793.49
20
121281.82999999999
30
0
11
99947.48
21
121474.93000000001
31
0
0
LINE
8
equipment
10
99947.48
20
121474.93000000001
30
0
11
99269.02999999998
21
120933.87999999999
31
0
0
LINE
8
equipment
10
99269.02999999998
20
120933.87999999999
30
0
11
99269.02999999998
21
120066.12
31
0
0
LINE
8
equipment
10
99269.02999999998
20
120066.12
30
0
11
99947.48
21
119525.06999999999
31
0
0
LINE
8
equipment
10
99947.48
20
119525.06999999999
30
0
11
100793.49
21
119718.17
31
0
0
LINE
8
equipment
10
100793.49
20
119718.17
30
0
11
101169.99999999999
21
120500.0
31
0
0
LINE
8
equipment
10
92450.0
20
117685.0
30
0
11
92450.0
21
117750.0
31
0
0
LINE
8
equipment
10
103050.0
20
117685.0
30
0
11
103050.0
21
117750.0
31
0
0
LINE
8
equipment
10
92450.0
20
117685.0
30
0
11
103050.0
21
117685.0
31
0
0
LINE
8
equipment
10
92450.0
20
123250.0
30
0
11
92450.0
21
123314.99999999999
31
0
0
LINE
8
equipment
10
103050.0
20
123250.0
30
0
11
103050.0
21
123314.99999999999
31
0
0
LINE
8
equipment
10
92450.0
20
123314.99999999999
30
0
11
92650.0
21
123314.99999999999
31
0
0
LINE
8
equipment
10
94450.0
20
123314.99999999999
30
0
11
96850.0
21
123314.99999999999
31
0
0
LINE
8
equipment
10
98650.0
20
123314.99999999999
30
0
11
101050.00000000001
21
123314.99999999999
31
0
0
LINE
8
equipment
10
102850.0
20
123314.99999999999
30
0
11
103050.0
21
123314.99999999999
31
0
0
LINE
8
equipment
10
127850.0
20
117350.0
30
0
11
127850.0
21
123650.0
31
0
0
LINE
8
equipment
10
139650.0
20
117350.0
30
0
11
139650.0
21
123650.0
31
0
0
LINE
8
equipment
10
127850.0
20
117350.0
30
0
11
139650.0
21
117350.0
31
0
0
LINE
8
equipment
10
127850.0
20
123650.0
30
0
11
139650.0
21
123650.0
31
0
0
LINE
8
equipment
10
128250.0
20
117750.0
30
0
11
128250.0
21
123250.0
31
0
0
LINE
8
equipment
10
139250.0
20
117750.0
30
0
11
139250.0
21
123250.0
31
0
0
LINE
8
equipment
10
128250.0
20
117750.0
30
0
11
139250.0
21
117750.0
31
0
0
LINE
8
equipment
10
128250.0
20
123250.0
30
0
11
139250.0
21
123250.0
31
0
0
LINE
8
equipment
10
128650.0
20
123250.0
30
0
11
128650.0
21
123370.0
31
0
0
LINE
8
equipment
10
130450.0
20
123250.0
30
0
11
130450.0
21
123370.0
31
0
0
LINE
8
equipment
10
128650.0
20
123370.0
30
0
11
130450.0
21
123370.0
31
0
0
LINE
8
equipment
10
132330.0
20
120500.0
30
0
11
131953.49
21
121281.82999999999
31
0
0
LINE
8
equipment
10
131953.49
20
121281.82999999999
30
0
11
131107.48
21
121474.93000000001
31
0
0
LINE
8
equipment
10
131107.48
20
121474.93000000001
30
0
11
130429.03
21
120933.87999999999
31
0
0
LINE
8
equipment
10
130429.03
20
120933.87999999999
30
0
11
130429.03
21
120066.12
31
0
0
LINE
8
equipment
10
130429.03
20
120066.12
30
0
11
131107.48
21
119525.06999999999
31
0
0
LINE
8
equipment
10
131107.48
20
119525.06999999999
30
0
11
131953.49
21
119718.17
31
0
0
LINE
8
equipment
10
131953.49
20
119718.17
30
0
11
132330.0
21
120500.0
31
0
0
LINE
8
equipment
10
132850.0
20
123250.0
30
0
11
132850.0
21
123370.0
31
0
0
LINE
8
equipment
10
134650.0
20
123250.0
30
0
11
134650.0
21
123370.0
31
0
0
LINE
8
equipment
10
132850.0
20
123370.0
30
0
11
134650.0
21
123370.0
31
0
0
LINE
8
equipment
10
134750.0
20
120500.0
30
0
11
134373.49
21
121281.82999999999
31
0
0
LINE
8
equipment
10
134373.49
20
121281.82999999999
30
0
11
133527.48
21
121474.93000000001
31
0
0
LINE
8
equipment
10
133527.48
20
121474.93000000001
30
0
11
132849.03
21
120933.87999999999
31
0
0
LINE
8
equipment
10
132849.03
20
120933.87999999999
30
0
11
132849.03
21
120066.12
31
0
0
LINE
8
equipment
10
132849.03
20
120066.12
30
0
11
133527.48
21
119525.06999999999
31
0
0
LINE
8
equipment
10
133527.48
20
119525.06999999999
30
0
11
134373.49
21
119718.17
31
0
0
LINE
8
equipment
10
134373.49
20
119718.17
30
0
11
134750.0
21
120500.0
31
0
0
LINE
8
equipment
10
137050.0
20
123250.0
30
0
11
137050.0
21
123370.0
31
0
0
LINE
8
equipment
10
138850.0
20
123250.0
30
0
11
138850.0
21
123370.0
31
0
0
LINE
8
equipment
10
137050.0
20
123370.0
30
0
11
138850.0
21
123370.0
31
0
0
LINE
8
equipment
10
137170.0
20
120500.0
30
0
11
136793.49000000002
21
121281.82999999999
31
0
0
LINE
8
equipment
10
136793.49000000002
20
121281.82999999999
30
0
11
135947.48
21
121474.93000000001
31
0
0
LINE
8
equipment
10
135947.48
20
121474.93000000001
30
0
11
135269.03
21
120933.87999999999
31
0
0
LINE
8
equipment
10
135269.03
20
120933.87999999999
30
0
11
135269.03
21
120066.12
31
0
0
LINE
8
equipment
10
135269.03
20
120066.12
30
0
11
135947.48
21
119525.06999999999
31
0
0
LINE
8
equipment
10
135947.48
20
119525.06999999999
30
0
11
136793.49000000002
21
119718.17
31
0
0
LINE
8
equipment
10
136793.49000000002
20
119718.17
30
0
11
137170.0
21
120500.0
31
0
0
LINE
8
equipment
10
128449.99999999999
20
117685.0
30
0
11
128449.99999999999
21
117750.0
31
0
0
LINE
8
equipment
10
139050.0
20
117685.0
30
0
11
139050.0
21
117750.0
31
0
0
LINE
8
equipment
10
128449.99999999999
20
117685.0
30
0
11
139050.0
21
117685.0
31
0
0
LINE
8
equipment
10
128449.99999999999
20
123250.0
30
0
11
128449.99999999999
21
123314.99999999999
31
0
0
LINE
8
equipment
10
139050.0
20
123250.0
30
0
11
139050.0
21
123314.99999999999
31
0
0
LINE
8
equipment
10
128449.99999999999
20
123314.99999999999
30
0
11
128650.0
21
123314.99999999999
31
0
0
LINE
8
equipment
10
130450.0
20
123314.99999999999
30
0
11
132850.0
21
123314.99999999999
31
0
0
LINE
8
equipment
10
134650.0
20
123314.99999999999
30
0
11
137050.0
21
123314.99999999999
31
0
0
LINE
8
equipment
10
138850.0
20
123314.99999999999
30
0
11
139050.0
21
123314.99999999999
31
0
0
LINE
8
equipment
10
163850.0
20
117350.0
30
0
11
163850.0
21
123650.0
31
0
0
LINE
8
equipment
10
175650.0
20
117350.0
30
0
11
175650.0
21
123650.0
31
0
0
LINE
8
equipment
10
163850.0
20
117350.0
30
0
11
175650.0
21
117350.0
31
0
0
LINE
8
equipment
10
163850.0
20
123650.0
30
0
11
175650.0
21
123650.0
31
0
0
LINE
8
equipment
10
164250.0
20
117750.0
30
0
11
164250.0
21
123250.0
31
0
0
LINE
8
equipment
10
175250.0
20
117750.0
30
0
11
175250.0
21
123250.0
31
0
0
LINE
8
equipment
10
164250.0
20
117750.0
30
0
11
175250.0
21
117750.0
31
0
0
LINE
8
equipment
10
164250.0
20
123250.0
30
0
11
175250.0
21
123250.0
31
0
0
LINE
8
equipment
10
164650.0
20
123250.0
30
0
11
164650.0
21
123370.0
31
0
0
LINE
8
equipment
10
166450.0
20
123250.0
30
0
11
166450.0
21
123370.0
31
0
0
LINE
8
equipment
10
164650.0
20
123370.0
30
0
11
166450.0
21
123370.0
31
0
0
LINE
8
equipment
10
168330.0
20
120500.0
30
0
11
167953.49
21
121281.82999999999
31
0
0
LINE
8
equipment
10
167953.49
20
121281.82999999999
30
0
11
167107.48
21
121474.93000000001
31
0
0
LINE
8
equipment
10
167107.48
20
121474.93000000001
30
0
11
166429.03
21
120933.87999999999
31
0
0
LINE
8
equipment
10
166429.03
20
120933.87999999999
30
0
11
166429.03
21
120066.12
31
0
0
LINE
8
equipment
10
166429.03
20
120066.12
30
0
11
167107.48
21
119525.06999999999
31
0
0
LINE
8
equipment
10
167107.48
20
119525.06999999999
30
0
11
167953.49
21
119718.17
31
0
0
LINE
8
equipment
10
167953.49
20
119718.17
30
0
11
168330.0
21
120500.0
31
0
0
LINE
8
equipment
10
168850.0
20
123250.0
30
0
11
168850.0
21
123370.0
31
0
0
LINE
8
equipment
10
170650.0
20
123250.0
30
0
11
170650.0
21
123370.0
31
0
0
LINE
8
equipment
10
168850.0
20
123370.0
30
0
11
170650.0
21
123370.0
31
0
0
LINE
8
equipment
10
170750.0
20
120500.0
30
0
11
170373.49
21
121281.82999999999
31
0
0
LINE
8
equipment
10
170373.49
20
121281.82999999999
30
0
11
169527.48
21
121474.93000000001
31
0
0
LINE
8
equipment
10
169527.48
20
121474.93000000001
30
0
11
168849.03
21
120933.87999999999
31
0
0
LINE
8
equipment
10
168849.03
20
120933.87999999999
30
0
11
168849.03
21
120066.12
31
0
0
LINE
8
equipment
10
168849.03
20
120066.12
30
0
11
169527.48
21
119525.06999999999
31
0
0
LINE
8
equipment
10
169527.48
20
119525.06999999999
30
0
11
170373.49
21
119718.17
31
0
0
LINE
8
equipment
10
170373.49
20
119718.17
30
0
11
170750.0
21
120500.0
31
0
0
LINE
8
equipment
10
173050.0
20
123250.0
30
0
11
173050.0
21
123370.0
31
0
0
LINE
8
equipment
10
174850.0
20
123250.0
30
0
11
174850.0
21
123370.0
31
0
0
LINE
8
equipment
10
173050.0
20
123370.0
30
0
11
174850.0
21
123370.0
31
0
0
LINE
8
equipment
10
173170.0
20
120500.0
30
0
11
172793.49000000002
21
121281.82999999999
31
0
0
LINE
8
equipment
10
172793.49000000002
20
121281.82999999999
30
0
11
171947.48
21
121474.93000000001
31
0
0
LINE
8
equipment
10
171947.48
20
121474.93000000001
30
0
11
171269.03
21
120933.87999999999
31
0
0
LINE
8
equipment
10
171269.03
20
120933.87999999999
30
0
11
171269.03
21
120066.12
31
0
0
LINE
8
equipment
10
171269.03
20
120066.12
30
0
11
171947.48
21
119525.06999999999
31
0
0
LINE
8
equipment
10
171947.48
20
119525.06999999999
30
0
11
172793.49000000002
21
119718.17
31
0
0
LINE
8
equipment
10
172793.49000000002
20
119718.17
30
0
11
173170.0
21
120500.0
31
0
0
LINE
8
equipment
10
164450.0
20
117685.0
30
0
11
164450.0
21
117750.0
31
0
0
LINE
8
equipment
10
175050.0
20
117685.0
30
0
11
175050.0
21
117750.0
31
0
0
LINE
8
equipment
10
164450.0
20
117685.0
30
0
11
175050.0
21
117685.0
31
0
0
LINE
8
equipment
10
164450.0
20
123250.0
30
0
11
164450.0
21
123314.99999999999
31
0
0
LINE
8
equipment
10
175050.0
20
123250.0
30
0
11
175050.0
21
123314.99999999999
31
0
0
LINE
8
equipment
10
164450.0
20
123314.99999999999
30
0
11
164650.0
21
123314.99999999999
31
0
0
LINE
8
equipment
10
166450.0
20
123314.99999999999
30
0
11
168850.0
21
123314.99999999999
31
0
0
LINE
8
equipment
10
170650.0
20
123314.99999999999
30
0
11
173050.0
21
123314.99999999999
31
0
0
LINE
8
equipment
10
174850.0
20
123314.99999999999
30
0
11
175050.0
21
123314.99999999999
31
0
0
LINE
8
equipment
10
199850.00000000003
20
117350.0
30
0
11
199850.00000000003
21
123650.0
31
0
0
LINE
8
equipment
10
211650.0
20
117350.0
30
0
11
211650.0
21
123650.0
31
0
0
LINE
8
equipment
10
199850.00000000003
20
117350.0
30
0
11
211650.0
21
117350.0
31
0
0
LINE
8
equipment
10
199850.00000000003
20
123650.0
30
0
11
211650.0
21
123650.0
31
0
0
LINE
8
equipment
10
200250.0
20
117750.0
30
0
11
200250.0
21
123250.0
31
0
0
LINE
8
equipment
10
211250.0
20
117750.0
30
0
11
211250.0
21
123250.0
31
0
0
LINE
8
equipment
10
200250.0
20
117750.0
30
0
11
211250.0
21
117750.0
31
0
0
LINE
8
equipment
10
200250.0
20
123250.0
30
0
11
211250.0
21
123250.0
31
0
0
LINE
8
equipment
10
200649.99999999997
20
123250.0
30
0
11
200649.99999999997
21
123370.0
31
0
0
LINE
8
equipment
10
202450.0
20
123250.0
30
0
11
202450.0
21
123370.0
31
0
0
LINE
8
equipment
10
200649.99999999997
20
123370.0
30
0
11
202450.0
21
123370.0
31
0
0
LINE
8
equipment
10
204330.0
20
120500.0
30
0
11
203953.49000000002
21
121281.82999999999
31
0
0
LINE
8
equipment
10
203953.49000000002
20
121281.82999999999
30
0
11
203107.48
21
121474.93000000001
31
0
0
LINE
8
equipment
10
203107.48
20
121474.93000000001
30
0
11
202429.03
21
120933.87999999999
31
0
0
LINE
8
equipment
10
202429.03
20
120933.87999999999
30
0
11
202429.03
21
120066.12
31
0
0
LINE
8
equipment
10
202429.03
20
120066.12
30
0
11
203107.48
21
119525.06999999999
31
0
0
LINE
8
equipment
10
203107.48
20
119525.06999999999
30
0
11
203953.49000000002
21
119718.17
31
0
0
LINE
8
equipment
10
203953.49000000002
20
119718.17
30
0
11
204330.0
21
120500.0
31
0
0
LINE
8
equipment
10
204850.0
20
123250.0
30
0
11
204850.0
21
123370.0
31
0
0
LINE
8
equipment
10
206649.99999999997
20
123250.0
30
0
11
206649.99999999997
21
123370.0
31
0
0
LINE
8
equipment
10
204850.0
20
123370.0
30
0
11
206649.99999999997
21
123370.0
31
0
0
LINE
8
equipment
10
206750.0
20
120500.0
30
0
11
206373.49
21
121281.82999999999
31
0
0
LINE
8
equipment
10
206373.49
20
121281.82999999999
30
0
11
205527.48000000004
21
121474.93000000001
31
0
0
LINE
8
equipment
10
205527.48000000004
20
121474.93000000001
30
0
11
204849.03
21
120933.87999999999
31
0
0
LINE
8
equipment
10
204849.03
20
120933.87999999999
30
0
11
204849.03
21
120066.12
31
0
0
LINE
8
equipment
10
204849.03
20
120066.12
30
0
11
205527.48000000004
21
119525.06999999999
31
0
0
LINE
8
equipment
10
205527.48000000004
20
119525.06999999999
30
0
11
206373.49
21
119718.17
31
0
0
LINE
8
equipment
10
206373.49
20
119718.17
30
0
11
206750.0
21
120500.0
31
0
0
LINE
8
equipment
10
209050.0
20
123250.0
30
0
11
209050.0
21
123370.0
31
0
0
LINE
8
equipment
10
210850.0
20
123250.0
30
0
11
210850.0
21
123370.0
31
0
0
LINE
8
equipment
10
209050.0
20
123370.0
30
0
11
210850.0
21
123370.0
31
0
0
LINE
8
equipment
10
209170.0
20
120500.0
30
0
11
208793.49000000002
21
121281.82999999999
31
0
0
LINE
8
equipment
10
208793.49000000002
20
121281.82999999999
30
0
11
207947.48
21
121474.93000000001
31
0
0
LINE
8
equipment
10
207947.48
20
121474.93000000001
30
0
11
207269.03
21
120933.87999999999
31
0
0
LINE
8
equipment
10
207269.03
20
120933.87999999999
30
0
11
207269.03
21
120066.12
31
0
0
LINE
8
equipment
10
207269.03
20
120066.12
30
0
11
207947.48
21
119525.06999999999
31
0
0
LINE
8
equipment
10
207947.48
20
119525.06999999999
30
0
11
208793.49000000002
21
119718.17
31
0
0
LINE
8
equipment
10
208793.49000000002
20
119718.17
30
0
11
209170.0
21
120500.0
31
0
0
LINE
8
equipment
10
200450.0
20
117685.0
30
0
11
200450.0
21
117750.0
31
0
0
LINE
8
equipment
10
211049.99999999997
20
117685.0
30
0
11
211049.99999999997
21
117750.0
31
0
0
LINE
8
equipment
10
200450.0
20
117685.0
30
0
11
211049.99999999997
21
117685.0
31
0
0
LINE
8
equipment
10
200450.0
20
123250.0
30
0
11
200450.0
21
123314.99999999999
31
0
0
LINE
8
equipment
10
211049.99999999997
20
123250.0
30
0
11
211049.99999999997
21
123314.99999999999
31
0
0
LINE
8
equipment
10
200450.0
20
123314.99999999999
30
0
11
200649.99999999997
21
123314.99999999999
31
0
0
LINE
8
equipment
10
202450.0
20
123314.99999999999
30
0
11
204850.0
21
123314.99999999999
31
0
0
LINE
8
equipment
10
206649.99999999997
20
123314.99999999999
30
0
11
209050.0
21
123314.99999999999
31
0
0
LINE
8
equipment
10
210850.0
20
123314.99999999999
30
0
11
211049.99999999997
21
123314.99999999999
31
0
0
LINE
8
equipment
10
235850.00000000003
20
117350.0
30
0
11
235850.00000000003
21
123650.0
31
0
0
LINE
8
equipment
10
247650.0
20
117350.0
30
0
11
247650.0
21
123650.0
31
0
0
LINE
8
equipment
10
235850.00000000003
20
117350.0
30
0
11
247650.0
21
117350.0
31
0
0
LINE
8
equipment
10
235850.00000000003
20
123650.0
30
0
11
247650.0
21
123650.0
31
0
0
LINE
8
equipment
10
236250.0
20
117750.0
30
0
11
236250.0
21
123250.0
31
0
0
LINE
8
equipment
10
247250.0
20
117750.0
30
0
11
247250.0
21
123250.0
31
0
0
LINE
8
equipment
10
236250.0
20
117750.0
30
0
11
247250.0
21
117750.0
31
0
0
LINE
8
equipment
10
236250.0
20
123250.0
30
0
11
247250.0
21
123250.0
31
0
0
LINE
8
equipment
10
236649.99999999997
20
123250.0
30
0
11
236649.99999999997
21
123370.0
31
0
0
LINE
8
equipment
10
238450.0
20
123250.0
30
0
11
238450.0
21
123370.0
31
0
0
LINE
8
equipment
10
236649.99999999997
20
123370.0
30
0
11
238450.0
21
123370.0
31
0
0
LINE
8
equipment
10
240330.0
20
120500.0
30
0
11
239953.49000000002
21
121281.82999999999
31
0
0
LINE
8
equipment
10
239953.49000000002
20
121281.82999999999
30
0
11
239107.48
21
121474.93000000001
31
0
0
LINE
8
equipment
10
239107.48
20
121474.93000000001
30
0
11
238429.03
21
120933.87999999999
31
0
0
LINE
8
equipment
10
238429.03
20
120933.87999999999
30
0
11
238429.03
21
120066.12
31
0
0
LINE
8
equipment
10
238429.03
20
120066.12
30
0
11
239107.48
21
119525.06999999999
31
0
0
LINE
8
equipment
10
239107.48
20
119525.06999999999
30
0
11
239953.49000000002
21
119718.17
31
0
0
LINE
8
equipment
10
239953.49000000002
20
119718.17
30
0
11
240330.0
21
120500.0
31
0
0
LINE
8
equipment
10
240850.0
20
123250.0
30
0
11
240850.0
21
123370.0
31
0
0
LINE
8
equipment
10
242649.99999999997
20
123250.0
30
0
11
242649.99999999997
21
123370.0
31
0
0
LINE
8
equipment
10
240850.0
20
123370.0
30
0
11
242649.99999999997
21
123370.0
31
0
0
LINE
8
equipment
10
242750.0
20
120500.0
30
0
11
242373.49
21
121281.82999999999
31
0
0
LINE
8
equipment
10
242373.49
20
121281.82999999999
30
0
11
241527.47999999998
21
121474.93000000001
31
0
0
LINE
8
equipment
10
241527.47999999998
20
121474.93000000001
30
0
11
240849.03
21
120933.87999999999
31
0
0
LINE
8
equipment
10
240849.03
20
120933.87999999999
30
0
11
240849.03
21
120066.12
31
0
0
LINE
8
equipment
10
240849.03
20
120066.12
30
0
11
241527.47999999998
21
119525.06999999999
31
0
0
LINE
8
equipment
10
241527.47999999998
20
119525.06999999999
30
0
11
242373.49
21
119718.17
31
0
0
LINE
8
equipment
10
242373.49
20
119718.17
30
0
11
242750.0
21
120500.0
31
0
0
LINE
8
equipment
10
245050.0
20
123250.0
30
0
11
245050.0
21
123370.0
31
0
0
LINE
8
equipment
10
246850.0
20
123250.0
30
0
11
246850.0
21
123370.0
31
0
0
LINE
8
equipment
10
245050.0
20
123370.0
30
0
11
246850.0
21
123370.0
31
0
0
LINE
8
equipment
10
245170.0
20
120500.0
30
0
11
244793.49000000002
21
121281.82999999999
31
0
0
LINE
8
equipment
10
244793.49000000002
20
121281.82999999999
30
0
11
243947.48
21
121474.93000000001
31
0
0
LINE
8
equipment
10
243947.48
20
121474.93000000001
30
0
11
243269.03
21
120933.87999999999
31
0
0
LINE
8
equipment
10
243269.03
20
120933.87999999999
30
0
11
243269.03
21
120066.12
31
0
0
LINE
8
equipment
10
243269.03
20
120066.12
30
0
11
243947.48
21
119525.06999999999
31
0
0
LINE
8
equipment
10
243947.48
20
119525.06999999999
30
0
11
244793.49000000002
21
119718.17
31
0
0
LINE
8
equipment
10
244793.49000000002
20
119718.17
30
0
11
245170.0
21
120500.0
31
0
0
LINE
8
equipment
10
236450.0
20
117685.0
30
0
11
236450.0
21
117750.0
31
0
0
LINE
8
equipment
10
247049.99999999997
20
117685.0
30
0
11
247049.99999999997
21
117750.0
31
0
0
LINE
8
equipment
10
236450.0
20
117685.0
30
0
11
247049.99999999997
21
117685.0
31
0
0
LINE
8
equipment
10
236450.0
20
123250.0
30
0
11
236450.0
21
123314.99999999999
31
0
0
LINE
8
equipment
10
247049.99999999997
20
123250.0
30
0
11
247049.99999999997
21
123314.99999999999
31
0
0
LINE
8
equipment
10
236450.0
20
123314.99999999999
30
0
11
236649.99999999997
21
123314.99999999999
31
0
0
LINE
8
equipment
10
238450.0
20
123314.99999999999
30
0
11
240850.0
21
123314.99999999999
31
0
0
LINE
8
equipment
10
242649.99999999997
20
123314.99999999999
30
0
11
245050.0
21
123314.99999999999
31
0
0
LINE
8
equipment
10
246850.0
20
123314.99999999999
30
0
11
247049.99999999997
21
123314.99999999999
31
0
0
LINE
8
equipment
10
55850.0
20
144350.0
30
0
11
55850.0
21
150650.0
31
0
0
LINE
8
equipment
10
67650.0
20
144350.0
30
0
11
67650.0
21
150650.0
31
0
0
LINE
8
equipment
10
55850.0
20
144350.0
30
0
11
67650.0
21
144350.0
31
0
0
LINE
8
equipment
10
55850.0
20
150650.0
30
0
11
67650.0
21
150650.0
31
0
0
LINE
8
equipment
10
56250.0
20
144750.0
30
0
11
56250.0
21
150250.0
31
0
0
LINE
8
equipment
10
67250.0
20
144750.0
30
0
11
67250.0
21
150250.0
31
0
0
LINE
8
equipment
10
56250.0
20
144750.0
30
0
11
67250.0
21
144750.0
31
0
0
LINE
8
equipment
10
56250.0
20
150250.0
30
0
11
67250.0
21
150250.0
31
0
0
LINE
8
equipment
10
56650.0
20
150250.0
30
0
11
56650.0
21
150370.0
31
0
0
LINE
8
equipment
10
58450.0
20
150250.0
30
0
11
58450.0
21
150370.0
31
0
0
LINE
8
equipment
10
56650.0
20
150370.0
30
0
11
58450.0
21
150370.0
31
0
0
LINE
8
equipment
10
60330.0
20
147500.0
30
0
11
59953.490000000005
21
148281.83000000002
31
0
0
LINE
8
equipment
10
59953.490000000005
20
148281.83000000002
30
0
11
59107.479999999996
21
148474.93000000002
31
0
0
LINE
8
equipment
10
59107.479999999996
20
148474.93000000002
30
0
11
58429.03
21
147933.88
31
0
0
LINE
8
equipment
10
58429.03
20
147933.88
30
0
11
58429.03
21
147066.12000000002
31
0
0
LINE
8
equipment
10
58429.03
20
147066.12000000002
30
0
11
59107.479999999996
21
146525.07
31
0
0
LINE
8
equipment
10
59107.479999999996
20
146525.07
30
0
11
59953.490000000005
21
146718.16999999998
31
0
0
LINE
8
equipment
10
59953.490000000005
20
146718.16999999998
30
0
11
60330.0
21
147500.0
31
0
0
LINE
8
equipment
10
60850.00000000001
20
150250.0
30
0
11
60850.00000000001
21
150370.0
31
0
0
LINE
8
equipment
10
62650.0
20
150250.0
30
0
11
62650.0
21
150370.0
31
0
0
LINE
8
equipment
10
60850.00000000001
20
150370.0
30
0
11
62650.0
21
150370.0
31
0
0
LINE
8
equipment
10
62750.0
20
147500.0
30
0
11
62373.49
21
148281.83000000002
31
0
0
LINE
8
equipment
10
62373.49
20
148281.83000000002
30
0
11
61527.479999999996
21
148474.93000000002
31
0
0
LINE
8
equipment
10
61527.479999999996
20
148474.93000000002
30
0
11
60849.030000000006
21
147933.88
31
0
0
LINE
8
equipment
10
60849.030000000006
20
147933.88
30
0
11
60849.030000000006
21
147066.12000000002
31
0
0
LINE
8
equipment
10
60849.030000000006
20
147066.12000000002
30
0
11
61527.479999999996
21
146525.07
31
0
0
LINE
8
equipment
10
61527.479999999996
20
146525.07
30
0
11
62373.49
21
146718.16999999998
31
0
0
LINE
8
equipment
10
62373.49
20
146718.16999999998
30
0
11
62750.0
21
147500.0
31
0
0
LINE
8
equipment
10
65050.0
20
150250.0
30
0
11
65050.0
21
150370.0
31
0
0
LINE
8
equipment
10
66850.0
20
150250.0
30
0
11
66850.0
21
150370.0
31
0
0
LINE
8
equipment
10
65050.0
20
150370.0
30
0
11
66850.0
21
150370.0
31
0
0
LINE
8
equipment
10
65170.0
20
147500.0
30
0
11
64793.490000000005
21
148281.83000000002
31
0
0
LINE
8
equipment
10
64793.490000000005
20
148281.83000000002
30
0
11
63947.479999999996
21
148474.93000000002
31
0
0
LINE
8
equipment
10
63947.479999999996
20
148474.93000000002
30
0
11
63269.03
21
147933.88
31
0
0
LINE
8
equipment
10
63269.03
20
147933.88
30
0
11
63269.03
21
147066.12000000002
31
0
0
LINE
8
equipment
10
63269.03
20
147066.12000000002
30
0
11
63947.479999999996
21
146525.07
31
0
0
LINE
8
equipment
10
63947.479999999996
20
146525.07
30
0
11
64793.490000000005
21
146718.16999999998
31
0
0
LINE
8
equipment
10
64793.490000000005
20
146718.16999999998
30
0
11
65170.0
21
147500.0
31
0
0
LINE
8
equipment
10
56450.00000000001
20
144685.0
30
0
11
56450.00000000001
21
144750.0
31
0
0
LINE
8
equipment
10
67050.0
20
144685.0
30
0
11
67050.0
21
144750.0
31
0
0
LINE
8
equipment
10
56450.00000000001
20
144685.0
30
0
11
67050.0
21
144685.0
31
0
0
LINE
8
equipment
10
56450.00000000001
20
150250.0
30
0
11
56450.00000000001
21
150315.0
31
0
0
LINE
8
equipment
10
67050.0
20
150250.0
30
0
11
67050.0
21
150315.0
31
0
0
LINE
8
equipment
10
56450.00000000001
20
150315.0
30
0
11
56650.0
21
150315.0
31
0
0
LINE
8
equipment
10
58450.0
20
150315.0
30
0
11
60850.00000000001
21
150315.0
31
0
0
LINE
8
equipment
10
62650.0
20
150315.0
30
0
11
65050.0
21
150315.0
31
0
0
LINE
8
equipment
10
66850.0
20
150315.0
30
0
11
67050.0
21
150315.0
31
0
0
LINE
8
equipment
10
91850.0
20
144350.0
30
0
11
91850.0
21
150650.0
31
0
0
LINE
8
equipment
10
103649.99999999999
20
144350.0
30
0
11
103649.99999999999
21
150650.0
31
0
0
LINE
8
equipment
10
91850.0
20
144350.0
30
0
11
103649.99999999999
21
144350.0
31
0
0
LINE
8
equipment
10
91850.0
20
150650.0
30
0
11
103649.99999999999
21
150650.0
31
0
0
LINE
8
equipment
10
92250.0
20
144750.0
30
0
11
92250.0
21
150250.0
31
0
0
LINE
8
equipment
10
103250.00000000001
20
144750.0
30
0
11
103250.00000000001
21
150250.0
31
0
0
LINE
8
equipment
10
92250.0
20
144750.0
30
0
11
103250.00000000001
21
144750.0
31
0
0
LINE
8
equipment
10
92250.0
20
150250.0
30
0
11
103250.00000000001
21
150250.0
31
0
0
LINE
8
equipment
10
92650.0
20
150250.0
30
0
11
92650.0
21
150370.0
31
0
0
LINE
8
equipment
10
94450.0
20
150250.0
30
0
11
94450.0
21
150370.0
31
0
0
LINE
8
equipment
10
92650.0
20
150370.0
30
0
11
94450.0
21
150370.0
31
0
0
LINE
8
equipment
10
96330.0
20
147500.0
30
0
11
95953.48999999999
21
148281.83000000002
31
0
0
LINE
8
equipment
10
95953.48999999999
20
148281.83000000002
30
0
11
95107.48
21
148474.93000000002
31
0
0
LINE
8
equipment
10
95107.48
20
148474.93000000002
30
0
11
94429.03
21
147933.88
31
0
0
LINE
8
equipment
10
94429.03
20
147933.88
30
0
11
94429.03
21
147066.12000000002
31
0
0
LINE
8
equipment
10
94429.03
20
147066.12000000002
30
0
11
95107.48
21
146525.07
31
0
0
LINE
8
equipment
10
95107.48
20
146525.07
30
0
11
95953.48999999999
21
146718.16999999998
31
0
0
LINE
8
equipment
10
95953.48999999999
20
146718.16999999998
30
0
11
96330.0
21
147500.0
31
0
0
LINE
8
equipment
10
96850.0
20
150250.0
30
0
11
96850.0
21
150370.0
31
0
0
LINE
8
equipment
10
98650.0
20
150250.0
30
0
11
98650.0
21
150370.0
31
0
0
LINE
8
equipment
10
96850.0
20
150370.0
30
0
11
98650.0
21
150370.0
31
0
0
LINE
8
equipment
10
98750.00000000001
20
147500.0
30
0
11
98373.48999999999
21
148281.83000000002
31
0
0
LINE
8
equipment
10
98373.48999999999
20
148281.83000000002
30
0
11
97527.48000000001
21
148474.93000000002
31
0
0
LINE
8
equipment
10
97527.48000000001
20
148474.93000000002
30
0
11
96849.03000000001
21
147933.88
31
0
0
LINE
8
equipment
10
96849.03000000001
20
147933.88
30
0
11
96849.03000000001
21
147066.12000000002
31
0
0
LINE
8
equipment
10
96849.03000000001
20
147066.12000000002
30
0
11
97527.48000000001
21
146525.07
31
0
0
LINE
8
equipment
10
97527.48000000001
20
146525.07
30
0
11
98373.48999999999
21
146718.16999999998
31
0
0
LINE
8
equipment
10
98373.48999999999
20
146718.16999999998
30
0
11
98750.00000000001
21
147500.0
31
0
0
LINE
8
equipment
10
101050.00000000001
20
150250.0
30
0
11
101050.00000000001
21
150370.0
31
0
0
LINE
8
equipment
10
102850.0
20
150250.0
30
0
11
102850.0
21
150370.0
31
0
0
LINE
8
equipment
10
101050.00000000001
20
150370.0
30
0
11
102850.0
21
150370.0
31
0
0
LINE
8
equipment
10
101169.99999999999
20
147500.0
30
0
11
100793.49
21
148281.83000000002
31
0
0
LINE
8
equipment
10
100793.49
20
148281.83000000002
30
0
11
99947.48
21
148474.93000000002
31
0
0
LINE
8
equipment
10
99947.48
20
148474.93000000002
30
0
11
99269.02999999998
21
147933.88
31
0
0
LINE
8
equipment
10
99269.02999999998
20
147933.88
30
0
11
99269.02999999998
21
147066.12000000002
31
0
0
LINE
8
equipment
10
99269.02999999998
20
147066.12000000002
30
0
11
99947.48
21
146525.07
31
0
0
LINE
8
equipment
10
99947.48
20
146525.07
30
0
11
100793.49
21
146718.16999999998
31
0
0
LINE
8
equipment
10
100793.49
20
146718.16999999998
30
0
11
101169.99999999999
21
147500.0
31
0
0
LINE
8
equipment
10
92450.0
20
144685.0
30
0
11
92450.0
21
144750.0
31
0
0
LINE
8
equipment
10
103050.0
20
144685.0
30
0
11
103050.0
21
144750.0
31
0
0
LINE
8
equipment
10
92450.0
20
144685.0
30
0
11
103050.0
21
144685.0
31
0
0
LINE
8
equipment
10
92450.0
20
150250.0
30
0
11
92450.0
21
150315.0
31
0
0
LINE
8
equipment
10
103050.0
20
150250.0
30
0
11
103050.0
21
150315.0
31
0
0
LINE
8
equipment
10
92450.0
20
150315.0
30
0
11
92650.0
21
150315.0
31
0
0
LINE
8
equipment
10
94450.0
20
150315.0
30
0
11
96850.0
21
150315.0
31
0
0
LINE
8
equipment
10
98650.0
20
150315.0
30
0
11
101050.00000000001
21
150315.0
31
0
0
LINE
8
equipment
10
102850.0
20
150315.0
30
0
11
103050.0
21
150315.0
31
0
0
LINE
8
equipment
10
127850.0
20
144350.0
30
0
11
127850.0
21
150650.0
31
0
0
LINE
8
equipment
10
139650.0
20
144350.0
30
0
11
139650.0
21
150650.0
31
0
0
LINE
8
equipment
10
127850.0
20
144350.0
30
0
11
139650.0
21
144350.0
31
0
0
LINE
8
equipment
10
127850.0
20
150650.0
30
0
11
139650.0
21
150650.0
31
0
0
LINE
8
equipment
10
128250.0
20
144750.0
30
0
11
128250.0
21
150250.0
31
0
0
LINE
8
equipment
10
139250.0
20
144750.0
30
0
11
139250.0
21
150250.0
31
0
0
LINE
8
equipment
10
128250.0
20
144750.0
30
0
11
139250.0
21
144750.0
31
0
0
LINE
8
equipment
10
128250.0
20
150250.0
30
0
11
139250.0
21
150250.0
31
0
0
LINE
8
equipment
10
128650.0
20
150250.0
30
0
11
128650.0
21
150370.0
31
0
0
LINE
8
equipment
10
130450.0
20
150250.0
30
0
11
130450.0
21
150370.0
31
0
0
LINE
8
equipment
10
128650.0
20
150370.0
30
0
11
130450.0
21
150370.0
31
0
0
LINE
8
equipment
10
132330.0
20
147500.0
30
0
11
131953.49
21
148281.83000000002
31
0
0
LINE
8
equipment
10
131953.49
20
148281.83000000002
30
0
11
131107.48
21
148474.93000000002
31
0
0
LINE
8
equipment
10
131107.48
20
148474.93000000002
30
0
11
130429.03
21
147933.88
31
0
0
LINE
8
equipment
10
130429.03
20
147933.88
30
0
11
130429.03
21
147066.12000000002
31
0
0
LINE
8
equipment
10
130429.03
20
147066.12000000002
30
0
11
131107.48
21
146525.07
31
0
0
LINE
8
equipment
10
131107.48
20
146525.07
30
0
11
131953.49
21
146718.16999999998
31
0
0
LINE
8
equipment
10
131953.49
20
146718.16999999998
30
0
11
132330.0
21
147500.0
31
0
0
LINE
8
equipment
10
132850.0
20
150250.0
30
0
11
132850.0
21
150370.0
31
0
0
LINE
8
equipment
10
134650.0
20
150250.0
30
0
11
134650.0
21
150370.0
31
0
0
LINE
8
equipment
10
132850.0
20
150370.0
30
0
11
134650.0
21
150370.0
31
0
0
LINE
8
equipment
10
134750.0
20
147500.0
30
0
11
134373.49
21
148281.83000000002
31
0
0
LINE
8
equipment
10
134373.49
20
148281.83000000002
30
0
11
133527.48
21
148474.93000000002
31
0
0
LINE
8
equipment
10
133527.48
20
148474.93000000002
30
0
11
132849.03
21
147933.88
31
0
0
LINE
8
equipment
10
132849.03
20
147933.88
30
0
11
132849.03
21
147066.12000000002
31
0
0
LINE
8
equipment
10
132849.03
20
147066.12000000002
30
0
11
133527.48
21
146525.07
31
0
0
LINE
8
equipment
10
133527.48
20
146525.07
30
0
11
134373.49
21
146718.16999999998
31
0
0
LINE
8
equipment
10
134373.49
20
146718.16999999998
30
0
11
134750.0
21
147500.0
31
0
0
LINE
8
equipment
10
137050.0
20
150250.0
30
0
11
137050.0
21
150370.0
31
0
0
LINE
8
equipment
10
138850.0
20
150250.0
30
0
11
138850.0
21
150370.0
31
0
0
LINE
8
equipment
10
137050.0
20
150370.0
30
0
11
138850.0
21
150370.0
31
0
0
LINE
8
equipment
10
137170.0
20
147500.0
30
0
11
136793.49000000002
21
148281.83000000002
31
0
0
LINE
8
equipment
10
136793.49000000002
20
148281.83000000002
30
0
11
135947.48
21
148474.93000000002
31
0
0
LINE
8
equipment
10
135947.48
20
148474.93000000002
30
0
11
135269.03
21
147933.88
31
0
0
LINE
8
equipment
10
135269.03
20
147933.88
30
0
11
135269.03
21
147066.12000000002
31
0
0
LINE
8
equipment
10
135269.03
20
147066.12000000002
30
0
11
135947.48
21
146525.07
31
0
0
LINE
8
equipment
10
135947.48
20
146525.07
30
0
11
136793.49000000002
21
146718.16999999998
31
0
0
LINE
8
equipment
10
136793.49000000002
20
146718.16999999998
30
0
11
137170.0
21
147500.0
31
0
0
LINE
8
equipment
10
128449.99999999999
20
144685.0
30
0
11
128449.99999999999
21
144750.0
31
0
0
LINE
8
equipment
10
139050.0
20
144685.0
30
0
11
139050.0
21
144750.0
31
0
0
LINE
8
equipment
10
128449.99999999999
20
144685.0
30
0
11
139050.0
21
144685.0
31
0
0
LINE
8
equipment
10
128449.99999999999
20
150250.0
30
0
11
128449.99999999999
21
150315.0
31
0
0
LINE
8
equipment
10
139050.0
20
150250.0
30
0
11
139050.0
21
150315.0
31
0
0
LINE
8
equipment
10
128449.99999999999
20
150315.0
30
0
11
128650.0
21
150315.0
31
0
0
LINE
8
equipment
10
130450.0
20
150315.0
30
0
11
132850.0
21
150315.0
31
0
0
LINE
8
equipment
10
134650.0
20
150315.0
30
0
11
137050.0
21
150315.0
31
0
0
LINE
8
equipment
10
138850.0
20
150315.0
30
0
11
139050.0
21
150315.0
31
0
0
LINE
8
equipment
10
163850.0
20
144350.0
30
0
11
163850.0
21
150650.0
31
0
0
LINE
8
equipment
10
175650.0
20
144350.0
30
0
11
175650.0
21
150650.0
31
0
0
LINE
8
equipment
10
163850.0
20
144350.0
30
0
11
175650.0
21
144350.0
31
0
0
LINE
8
equipment
10
163850.0
20
150650.0
30
0
11
175650.0
21
150650.0
31
0
0
LINE
8
equipment
10
164250.0
20
144750.0
30
0
11
164250.0
21
150250.0
31
0
0
LINE
8
equipment
10
175250.0
20
144750.0
30
0
11
175250.0
21
150250.0
31
0
0
LINE
8
equipment
10
164250.0
20
144750.0
30
0
11
175250.0
21
144750.0
31
0
0
LINE
8
equipment
10
164250.0
20
150250.0
30
0
11
175250.0
21
150250.0
31
0
0
LINE
8
equipment
10
164650.0
20
150250.0
30
0
11
164650.0
21
150370.0
31
0
0
LINE
8
equipment
10
166450.0
20
150250.0
30
0
11
166450.0
21
150370.0
31
0
0
LINE
8
equipment
10
164650.0
20
150370.0
30
0
11
166450.0
21
150370.0
31
0
0
LINE
8
equipment
10
168330.0
20
147500.0
30
0
11
167953.49
21
148281.83000000002
31
0
0
LINE
8
equipment
10
167953.49
20
148281.83000000002
30
0
11
167107.48
21
148474.93000000002
31
0
0
LINE
8
equipment
10
167107.48
20
148474.93000000002
30
0
11
166429.03
21
147933.88
31
0
0
LINE
8
equipment
10
166429.03
20
147933.88
30
0
11
166429.03
21
147066.12000000002
31
0
0
LINE
8
equipment
10
166429.03
20
147066.12000000002
30
0
11
167107.48
21
146525.07
31
0
0
LINE
8
equipment
10
167107.48
20
146525.07
30
0
11
167953.49
21
146718.16999999998
31
0
0
LINE
8
equipment
10
167953.49
20
146718.16999999998
30
0
11
168330.0
21
147500.0
31
0
0
LINE
8
equipment
10
168850.0
20
150250.0
30
0
11
168850.0
21
150370.0
31
0
0
LINE
8
equipment
10
170650.0
20
150250.0
30
0
11
170650.0
21
150370.0
31
0
0
LINE
8
equipment
10
168850.0
20
150370.0
30
0
11
170650.0
21
150370.0
31
0
0
LINE
8
equipment
10
170750.0
20
147500.0
30
0
11
170373.49
21
148281.83000000002
31
0
0
LINE
8
equipment
10
170373.49
20
148281.83000000002
30
0
11
169527.48
21
148474.93000000002
31
0
0
LINE
8
equipment
10
169527.48
20
148474.93000000002
30
0
11
168849.03
21
147933.88
31
0
0
LINE
8
equipment
10
168849.03
20
147933.88
30
0
11
168849.03
21
147066.12000000002
31
0
0
LINE
8
equipment
10
168849.03
20
147066.12000000002
30
0
11
169527.48
21
146525.07
31
0
0
LINE
8
equipment
10
169527.48
20
146525.07
30
0
11
170373.49
21
146718.16999999998
31
0
0
LINE
8
equipment
10
170373.49
20
146718.16999999998
30
0
11
170750.0
21
147500.0
31
0
0
LINE
8
equipment
10
173050.0
20
150250.0
30
0
11
173050.0
21
150370.0
31
0
0
LINE
8
equipment
10
174850.0
20
150250.0
30
0
11
174850.0
21
150370.0
31
0
0
LINE
8
equipment
10
173050.0
20
150370.0
30
0
11
174850.0
21
150370.0
31
0
0
LINE
8
equipment
10
173170.0
20
147500.0
30
0
11
172793.49000000002
21
148281.83000000002
31
0
0
LINE
8
equipment
10
172793.49000000002
20
148281.83000000002
30
0
11
171947.48
21
148474.93000000002
31
0
0
LINE
8
equipment
10
171947.48
20
148474.93000000002
30
0
11
171269.03
21
147933.88
31
0
0
LINE
8
equipment
10
171269.03
20
147933.88
30
0
11
171269.03
21
147066.12000000002
31
0
0
LINE
8
equipment
10
171269.03
20
147066.12000000002
30
0
11
171947.48
21
146525.07
31
0
0
LINE
8
equipment
10
171947.48
20
146525.07
30
0
11
172793.49000000002
21
146718.16999999998
31
0
0
LINE
8
equipment
10
172793.49000000002
20
146718.16999999998
30
0
11
173170.0
21
147500.0
31
0
0
LINE
8
equipment
10
164450.0
20
144685.0
30
0
11
164450.0
21
144750.0
31
0
0
LINE
8
equipment
10
175050.0
20
144685.0
30
0
11
175050.0
21
144750.0
31
0
0
LINE
8
equipment
10
164450.0
20
144685.0
30
0
11
175050.0
21
144685.0
31
0
0
LINE
8
equipment
10
164450.0
20
150250.0
30
0
11
164450.0
21
150315.0
31
0
0
LINE
8
equipment
10
175050.0
20
150250.0
30
0
11
175050.0
21
150315.0
31
0
0
LINE
8
equipment
10
164450.0
20
150315.0
30
0
11
164650.0
21
150315.0
31
0
0
LINE
8
equipment
10
166450.0
20
150315.0
30
0
11
168850.0
21
150315.0
31
0
0
LINE
8
equipment
10
170650.0
20
150315.0
30
0
11
173050.0
21
150315.0
31
0
0
LINE
8
equipment
10
174850.0
20
150315.0
30
0
11
175050.0
21
150315.0
31
0
0
LINE
8
equipment
10
199850.00000000003
20
144350.0
30
0
11
199850.00000000003
21
150650.0
31
0
0
LINE
8
equipment
10
211650.0
20
144350.0
30
0
11
211650.0
21
150650.0
31
0
0
LINE
8
equipment
10
199850.00000000003
20
144350.0
30
0
11
211650.0
21
144350.0
31
0
0
LINE
8
equipment
10
199850.00000000003
20
150650.0
30
0
11
211650.0
21
150650.0
31
0
0
LINE
8
equipment
10
200250.0
20
144750.0
30
0
11
200250.0
21
150250.0
31
0
0
LINE
8
equipment
10
211250.0
20
144750.0
30
0
11
211250.0
21
150250.0
31
0
0
LINE
8
equipment
10
200250.0
20
144750.0
30
0
11
211250.0
21
144750.0
31
0
0
LINE
8
equipment
10
200250.0
20
150250.0
30
0
11
211250.0
21
150250.0
31
0
0
LINE
8
equipment
10
200649.99999999997
20
150250.0
30
0
11
200649.99999999997
21
150370.0
31
0
0
LINE
8
equipment
10
202450.0
20
150250.0
30
0
11
202450.0
21
150370.0
31
0
0
LINE
8
equipment
10
200649.99999999997
20
150370.0
30
0
11
202450.0
21
150370.0
31
0
0
LINE
8
equipment
10
204330.0
20
147500.0
30
0
11
203953.49000000002
21
148281.83000000002
31
0
0
LINE
8
equipment
10
203953.49000000002
20
148281.83000000002
30
0
11
203107.48
21
148474.93000000002
31
0
0
LINE
8
equipment
10
203107.48
20
148474.93000000002
30
0
11
202429.03
21
147933.88
31
0
0
LINE
8
equipment
10
202429.03
20
147933.88
30
0
11
202429.03
21
147066.12000000002
31
0
0
LINE
8
equipment
10
202429.03
20
147066.12000000002
30
0
11
203107.48
21
146525.07
31
0
0
LINE
8
equipment
10
203107.48
20
146525.07
30
0
11
203953.49000000002
21
146718.16999999998
31
0
0
LINE
8
equipment
10
203953.49000000002
20
146718.16999999998
30
0
11
204330.0
21
147500.0
31
0
0
LINE
8
equipment
10
204850.0
20
150250.0
30
0
11
204850.0
21
150370.0
31
0
0
LINE
8
equipment
10
206649.99999999997
20
150250.0
30
0
11
206649.99999999997
21
150370.0
31
0
0
LINE
8
equipment
10
204850.0
20
150370.0
30
0
11
206649.99999999997
21
150370.0
31
0
0
LINE
8
equipment
10
206750.0
20
147500.0
30
0
11
206373.49
21
148281.83000000002
31
0
0
LINE
8
equipment
10
206373.49
20
148281.83000000002
30
0
11
205527.48000000004
21
148474.93000000002
31
0
0
LINE
8
equipment
10
205527.48000000004
20
148474.93000000002
30
0
11
204849.03
21
147933.88
31
0
0
LINE
8
equipment
10
204849.03
20
147933.88
30
0
11
204849.03
21
147066.12000000002
31
0
0
LINE
8
equipment
10
204849.03
20
147066.12000000002
30
0
11
205527.48000000004
21
146525.07
31
0
0
LINE
8
equipment
10
205527.48000000004
20
146525.07
30
0
11
206373.49
21
146718.16999999998
31
0
0
LINE
8
equipment
10
206373.49
20
146718.16999999998
30
0
11
206750.0
21
147500.0
31
0
0
LINE
8
equipment
10
209050.0
20
150250.0
30
0
11
209050.0
21
150370.0
31
0
0
LINE
8
equipment
10
210850.0
20
150250.0
30
0
11
210850.0
21
150370.0
31
0
0
LINE
8
equipment
10
209050.0
20
150370.0
30
0
11
210850.0
21
150370.0
31
0
0
LINE
8
equipment
10
209170.0
20
147500.0
30
0
11
208793.49000000002
21
148281.83000000002
31
0
0
LINE
8
equipment
10
208793.49000000002
20
148281.83000000002
30
0
11
207947.48
21
148474.93000000002
31
0
0
LINE
8
equipment
10
207947.48
20
148474.93000000002
30
0
11
207269.03
21
147933.88
31
0
0
LINE
8
equipment
10
207269.03
20
147933.88
30
0
11
207269.03
21
147066.12000000002
31
0
0
LINE
8
equipment
10
207269.03
20
147066.12000000002
30
0
11
207947.48
21
146525.07
31
0
0
LINE
8
equipment
10
207947.48
20
146525.07
30
0
11
208793.49000000002
21
146718.16999999998
31
0
0
LINE
8
equipment
10
208793.49000000002
20
146718.16999999998
30
0
11
209170.0
21
147500.0
31
0
0
LINE
8
equipment
10
200450.0
20
144685.0
30
0
11
200450.0
21
144750.0
31
0
0
LINE
8
equipment
10
211049.99999999997
20
144685.0
30
0
11
211049.99999999997
21
144750.0
31
0
0
LINE
8
equipment
10
200450.0
20
144685.0
30
0
11
211049.99999999997
21
144685.0
31
0
0
LINE
8
equipment
10
200450.0
20
150250.0
30
0
11
200450.0
21
150315.0
31
0
0
LINE
8
equipment
10
211049.99999999997
20
150250.0
30
0
11
211049.99999999997
21
150315.0
31
0
0
LINE
8
equipment
10
200450.0
20
150315.0
30
0
11
200649.99999999997
21
150315.0
31
0
0
LINE
8
equipment
10
202450.0
20
150315.0
30
0
11
204850.0
21
150315.0
31
0
0
LINE
8
equipment
10
206649.99999999997
20
150315.0
30
0
11
209050.0
21
150315.0
31
0
0
LINE
8
equipment
10
210850.0
20
150315.0
30
0
11
211049.99999999997
21
150315.0
31
0
0
LINE
8
equipment
10
235850.00000000003
20
144350.0
30
0
11
235850.00000000003
21
150650.0
31
0
0
LINE
8
equipment
10
247650.0
20
144350.0
30
0
11
247650.0
21
150650.0
31
0
0
LINE
8
equipment
10
235850.00000000003
20
144350.0
30
0
11
247650.0
21
144350.0
31
0
0
LINE
8
equipment
10
235850.00000000003
20
150650.0
30
0
11
247650.0
21
150650.0
31
0
0
LINE
8
equipment
10
236250.0
20
144750.0
30
0
11
236250.0
21
150250.0
31
0
0
LINE
8
equipment
10
247250.0
20
144750.0
30
0
11
247250.0
21
150250.0
31
0
0
LINE
8
equipment
10
236250.0
20
144750.0
30
0
11
247250.0
21
144750.0
31
0
0
LINE
8
equipment
10
236250.0
20
150250.0
30
0
11
247250.0
21
150250.0
31
0
0
LINE
8
equipment
10
236649.99999999997
20
150250.0
30
0
11
236649.99999999997
21
150370.0
31
0
0
LINE
8
equipment
10
238450.0
20
150250.0
30
0
11
238450.0
21
150370.0
31
0
0
LINE
8
equipment
10
236649.99999999997
20
150370.0
30
0
11
238450.0
21
150370.0
31
0
0
LINE
8
equipment
10
240330.0
20
147500.0
30
0
11
239953.49000000002
21
148281.83000000002
31
0
0
LINE
8
equipment
10
239953.49000000002
20
148281.83000000002
30
0
11
239107.48
21
148474.93000000002
31
0
0
LINE
8
equipment
10
239107.48
20
148474.93000000002
30
0
11
238429.03
21
147933.88
31
0
0
LINE
8
equipment
10
238429.03
20
147933.88
30
0
11
238429.03
21
147066.12000000002
31
0
0
LINE
8
equipment
10
238429.03
20
147066.12000000002
30
0
11
239107.48
21
146525.07
31
0
0
LINE
8
equipment
10
239107.48
20
146525.07
30
0
11
239953.49000000002
21
146718.16999999998
31
0
0
LINE
8
equipment
10
239953.49000000002
20
146718.16999999998
30
0
11
240330.0
21
147500.0
31
0
0
LINE
8
equipment
10
240850.0
20
150250.0
30
0
11
240850.0
21
150370.0
31
0
0
LINE
8
equipment
10
242649.99999999997
20
150250.0
30
0
11
242649.99999999997
21
150370.0
31
0
0
LINE
8
equipment
10
240850.0
20
150370.0
30
0
11
242649.99999999997
21
150370.0
31
0
0
LINE
8
equipment
10
242750.0
20
147500.0
30
0
11
242373.49
21
148281.83000000002
31
0
0
LINE
8
equipment
10
242373.49
20
148281.83000000002
30
0
11
241527.47999999998
21
148474.93000000002
31
0
0
LINE
8
equipment
10
241527.47999999998
20
148474.93000000002
30
0
11
240849.03
21
147933.88
31
0
0
LINE
8
equipment
10
240849.03
20
147933.88
30
0
11
240849.03
21
147066.12000000002
31
0
0
LINE
8
equipment
10
240849.03
20
147066.12000000002
30
0
11
241527.47999999998
21
146525.07
31
0
0
LINE
8
equipment
10
241527.47999999998
20
146525.07
30
0
11
242373.49
21
146718.16999999998
31
0
0
LINE
8
equipment
10
242373.49
20
146718.16999999998
30
0
11
242750.0
21
147500.0
31
0
0
LINE
8
equipment
10
245050.0
20
150250.0
30
0
11
245050.0
21
150370.0
31
0
0
LINE
8
equipment
10
246850.0
20
150250.0
30
0
11
246850.0
21
150370.0
31
0
0
LINE
8
equipment
10
245050.0
20
150370.0
30
0
11
246850.0
21
150370.0
31
0
0
LINE
8
equipment
10
245170.0
20
147500.0
30
0
11
244793.49000000002
21
148281.83000000002
31
0
0
LINE
8
equipment
10
244793.49000000002
20
148281.83000000002
30
0
11
243947.48
21
148474.93000000002
31
0
0
LINE
8
equipment
10
243947.48
20
148474.93000000002
30
0
11
243269.03
21
147933.88
31
0
0
LINE
8
equipment
10
243269.03
20
147933.88
30
0
11
243269.03
21
147066.12000000002
31
0
0
LINE
8
equipment
10
243269.03
20
147066.12000000002
30
0
11
243947.48
21
146525.07
31
0
0
LINE
8
equipment
10
243947.48
20
146525.07
30
0
11
244793.49000000002
21
146718.16999999998
31
0
0
LINE
8
equipment
10
244793.49000000002
20
146718.16999999998
30
0
11
245170.0
21
147500.0
31
0
0
LINE
8
equipment
10
236450.0
20
144685.0
30
0
11
236450.0
21
144750.0
31
0
0
LINE
8
equipment
10
247049.99999999997
20
144685.0
30
0
11
247049.99999999997
21
144750.0
31
0
0
LINE
8
equipment
10
236450.0
20
144685.0
30
0
11
247049.99999999997
21
144685.0
31
0
0
LINE
8
equipment
10
236450.0
20
150250.0
30
0
11
236450.0
21
150315.0
31
0
0
LINE
8
equipment
10
247049.99999999997
20
150250.0
30
0
11
247049.99999999997
21
150315.0
31
0
0
LINE
8
equipment
10
236450.0
20
150315.0
30
0
11
236649.99999999997
21
150315.0
31
0
0
LINE
8
equipment
10
238450.0
20
150315.0
30
0
11
240850.0
21
150315.0
31
0
0
LINE
8
equipment
10
242649.99999999997
20
150315.0
30
0
11
245050.0
21
150315.0
31
0
0
LINE
8
equipment
10
246850.0
20
150315.0
30
0
11
247049.99999999997
21
150315.0
31
0
0
LINE
8
equipment
10
69750.0
20
80500.0
30
0
11
69750.0
21
84500.0
31
0
0
LINE
8
equipment
10
73750.0
20
80500.0
30
0
11
73750.0
21
84500.0
31
0
0
LINE
8
equipment
10
69750.0
20
80500.0
30
0
11
73750.0
21
80500.0
31
0
0
LINE
8
equipment
10
69750.0
20
84500.0
30
0
11
73750.0
21
84500.0
31
0
0
LINE
8
equipment
10
72750.0
20
82500.0
30
0
11
72373.49
21
83281.83
31
0
0
LINE
8
equipment
10
72373.49
20
83281.83
30
0
11
71527.48
21
83474.93
31
0
0
LINE
8
equipment
10
71527.48
20
83474.93
30
0
11
70849.03
21
82933.88
31
0
0
LINE
8
equipment
10
70849.03
20
82933.88
30
0
11
70849.03
21
82066.12
31
0
0
LINE
8
equipment
10
70849.03
20
82066.12
30
0
11
71527.48
21
81525.07
31
0
0
LINE
8
equipment
10
71527.48
20
81525.07
30
0
11
72373.49
21
81718.17
31
0
0
LINE
8
equipment
10
72373.49
20
81718.17
30
0
11
72750.0
21
82500.0
31
0
0
LINE
8
equipment
10
72450.0
20
82500.0
30
0
11
72100.0
21
83106.21999999999
31
0
0
LINE
8
equipment
10
72100.0
20
83106.21999999999
30
0
11
71400.0
21
83106.21999999999
31
0
0
LINE
8
equipment
10
71400.0
20
83106.21999999999
30
0
11
71050.0
21
82500.0
31
0
0
LINE
8
equipment
10
71050.0
20
82500.0
30
0
11
71400.0
21
81893.78000000001
31
0
0
LINE
8
equipment
10
71400.0
20
81893.78000000001
30
0
11
72100.0
21
81893.78000000001
31
0
0
LINE
8
equipment
10
72100.0
20
81893.78000000001
30
0
11
72450.0
21
82500.0
31
0
0
LINE
8
equipment
10
101750.00000000001
20
80500.0
30
0
11
101750.00000000001
21
84500.0
31
0
0
LINE
8
equipment
10
105750.0
20
80500.0
30
0
11
105750.0
21
84500.0
31
0
0
LINE
8
equipment
10
101750.00000000001
20
80500.0
30
0
11
105750.0
21
80500.0
31
0
0
LINE
8
equipment
10
101750.00000000001
20
84500.0
30
0
11
105750.0
21
84500.0
31
0
0
LINE
8
equipment
10
104750.00000000001
20
82500.0
30
0
11
104373.48999999999
21
83281.83
31
0
0
LINE
8
equipment
10
104373.48999999999
20
83281.83
30
0
11
103527.48000000001
21
83474.93
31
0
0
LINE
8
equipment
10
103527.48000000001
20
83474.93
30
0
11
102849.03000000001
21
82933.88
31
0
0
LINE
8
equipment
10
102849.03000000001
20
82933.88
30
0
11
102849.03000000001
21
82066.12
31
0
0
LINE
8
equipment
10
102849.03000000001
20
82066.12
30
0
11
103527.48000000001
21
81525.07
31
0
0
LINE
8
equipment
10
103527.48000000001
20
81525.07
30
0
11
104373.48999999999
21
81718.17
31
0
0
LINE
8
equipment
10
104373.48999999999
20
81718.17
30
0
11
104750.00000000001
21
82500.0
31
0
0
LINE
8
equipment
10
104449.99999999999
20
82500.0
30
0
11
104100.00000000001
21
83106.21999999999
31
0
0
LINE
8
equipment
10
104100.00000000001
20
83106.21999999999
30
0
11
103400.0
21
83106.21999999999
31
0
0
LINE
8
equipment
10
103400.0
20
83106.21999999999
30
0
11
103050.0
21
82500.0
31
0
0
LINE
8
equipment
10
103050.0
20
82500.0
30
0
11
103400.0
21
81893.78000000001
31
0
0
LINE
8
equipment
10
103400.0
20
81893.78000000001
30
0
11
104100.00000000001
21
81893.78000000001
31
0
0
LINE
8
equipment
10
104100.00000000001
20
81893.78000000001
30
0
11
104449.99999999999
21
82500.0
31
0
0
LINE
8
equipment
10
133750.0
20
80500.0
30
0
11
133750.0
21
84500.0
31
0
0
LINE
8
equipment
10
137750.0
20
80500.0
30
0
11
137750.0
21
84500.0
31
0
0
LINE
8
equipment
10
133750.0
20
80500.0
30
0
11
137750.0
21
80500.0
31
0
0
LINE
8
equipment
10
133750.0
20
84500.0
30
0
11
137750.0
21
84500.0
31
0
0
LINE
8
equipment
10
136750.0
20
82500.0
30
0
11
136373.49
21
83281.83
31
0
0
LINE
8
equipment
10
136373.49
20
83281.83
30
0
11
135527.48
21
83474.93
31
0
0
LINE
8
equipment
10
135527.48
20
83474.93
30
0
11
134849.03
21
82933.88
31
0
0
LINE
8
equipment
10
134849.03
20
82933.88
30
0
11
134849.03
21
82066.12
31
0
0
LINE
8
equipment
10
134849.03
20
82066.12
30
0
11
135527.48
21
81525.07
31
0
0
LINE
8
equipment
10
135527.48
20
81525.07
30
0
11
136373.49
21
81718.17
31
0
0
LINE
8
equipment
10
136373.49
20
81718.17
30
0
11
136750.0
21
82500.0
31
0
0
LINE
8
equipment
10
136450.0
20
82500.0
30
0
11
136100.0
21
83106.21999999999
31
0
0
LINE
8
equipment
10
136100.0
20
83106.21999999999
30
0
11
135400.0
21
83106.21999999999
31
0
0
LINE
8
equipment
10
135400.0
20
83106.21999999999
30
0
11
135050.0
21
82500.0
31
0
0
LINE
8
equipment
10
135050.0
20
82500.0
30
0
11
135400.0
21
81893.78000000001
31
0
0
LINE
8
equipment
10
135400.0
20
81893.78000000001
30
0
11
136100.0
21
81893.78000000001
31
0
0
LINE
8
equipment
10
136100.0
20
81893.78000000001
30
0
11
136450.0
21
82500.0
31
0
0
LINE
8
equipment
10
165750.0
20
80500.0
30
0
11
165750.0
21
84500.0
31
0
0
LINE
8
equipment
10
169750.0
20
80500.0
30
0
11
169750.0
21
84500.0
31
0
0
LINE
8
equipment
10
165750.0
20
80500.0
30
0
11
169750.0
21
80500.0
31
0
0
LINE
8
equipment
10
165750.0
20
84500.0
30
0
11
169750.0
21
84500.0
31
0
0
LINE
8
equipment
10
168750.0
20
82500.0
30
0
11
168373.49
21
83281.83
31
0
0
LINE
8
equipment
10
168373.49
20
83281.83
30
0
11
167527.48
21
83474.93
31
0
0
LINE
8
equipment
10
167527.48
20
83474.93
30
0
11
166849.03
21
82933.88
31
0
0
LINE
8
equipment
10
166849.03
20
82933.88
30
0
11
166849.03
21
82066.12
31
0
0
LINE
8
equipment
10
166849.03
20
82066.12
30
0
11
167527.48
21
81525.07
31
0
0
LINE
8
equipment
10
167527.48
20
81525.07
30
0
11
168373.49
21
81718.17
31
0
0
LINE
8
equipment
10
168373.49
20
81718.17
30
0
11
168750.0
21
82500.0
31
0
0
LINE
8
equipment
10
168450.0
20
82500.0
30
0
11
168100.0
21
83106.21999999999
31
0
0
LINE
8
equipment
10
168100.0
20
83106.21999999999
30
0
11
167400.0
21
83106.21999999999
31
0
0
LINE
8
equipment
10
167400.0
20
83106.21999999999
30
0
11
167050.0
21
82500.0
31
0
0
LINE
8
equipment
10
167050.0
20
82500.0
30
0
11
167400.0
21
81893.78000000001
31
0
0
LINE
8
equipment
10
167400.0
20
81893.78000000001
30
0
11
168100.0
21
81893.78000000001
31
0
0
LINE
8
equipment
10
168100.0
20
81893.78000000001
30
0
11
168450.0
21
82500.0
31
0
0
LINE
8
equipment
10
197750.0
20
80500.0
30
0
11
197750.0
21
84500.0
31
0
0
LINE
8
equipment
10
201750.0
20
80500.0
30
0
11
201750.0
21
84500.0
31
0
0
LINE
8
equipment
10
197750.0
20
80500.0
30
0
11
201750.0
21
80500.0
31
0
0
LINE
8
equipment
10
197750.0
20
84500.0
30
0
11
201750.0
21
84500.0
31
0
0
LINE
8
equipment
10
200750.0
20
82500.0
30
0
11
200373.49
21
83281.83
31
0
0
LINE
8
equipment
10
200373.49
20
83281.83
30
0
11
199527.48000000004
21
83474.93
31
0
0
LINE
8
equipment
10
199527.48000000004
20
83474.93
30
0
11
198849.03
21
82933.88
31
0
0
LINE
8
equipment
10
198849.03
20
82933.88
30
0
11
198849.03
21
82066.12
31
0
0
LINE
8
equipment
10
198849.03
20
82066.12
30
0
11
199527.48000000004
21
81525.07
31
0
0
LINE
8
equipment
10
199527.48000000004
20
81525.07
30
0
11
200373.49
21
81718.17
31
0
0
LINE
8
equipment
10
200373.49
20
81718.17
30
0
11
200750.0
21
82500.0
31
0
0
LINE
8
equipment
10
200450.0
20
82500.0
30
0
11
200100.0
21
83106.21999999999
31
0
0
LINE
8
equipment
10
200100.0
20
83106.21999999999
30
0
11
199400.0
21
83106.21999999999
31
0
0
LINE
8
equipment
10
199400.0
20
83106.21999999999
30
0
11
199049.99999999997
21
82500.0
31
0
0
LINE
8
equipment
10
199049.99999999997
20
82500.0
30
0
11
199400.0
21
81893.78000000001
31
0
0
LINE
8
equipment
10
199400.0
20
81893.78000000001
30
0
11
200100.0
21
81893.78000000001
31
0
0
LINE
8
equipment
10
200100.0
20
81893.78000000001
30
0
11
200450.0
21
82500.0
31
0
0
LINE
8
equipment
10
229750.0
20
80500.0
30
0
11
229750.0
21
84500.0
31
0
0
LINE
8
equipment
10
233750.0
20
80500.0
30
0
11
233750.0
21
84500.0
31
0
0
LINE
8
equipment
10
229750.0
20
80500.0
30
0
11
233750.0
21
80500.0
31
0
0
LINE
8
equipment
10
229750.0
20
84500.0
30
0
11
233750.0
21
84500.0
31
0
0
LINE
8
equipment
10
232750.0
20
82500.0
30
0
11
232373.49
21
83281.83
31
0
0
LINE
8
equipment
10
232373.49
20
83281.83
30
0
11
231527.48
21
83474.93
31
0
0
LINE
8
equipment
10
231527.48
20
83474.93
30
0
11
230849.03
21
82933.88
31
0
0
LINE
8
equipment
10
230849.03
20
82933.88
30
0
11
230849.03
21
82066.12
31
0
0
LINE
8
equipment
10
230849.03
20
82066.12
30
0
11
231527.48
21
81525.07
31
0
0
LINE
8
equipment
10
231527.48
20
81525.07
30
0
11
232373.49
21
81718.17
31
0
0
LINE
8
equipment
10
232373.49
20
81718.17
30
0
11
232750.0
21
82500.0
31
0
0
LINE
8
equipment
10
232450.0
20
82500.0
30
0
11
232100.00000000003
21
83106.21999999999
31
0
0
LINE
8
equipment
10
232100.00000000003
20
83106.21999999999
30
0
11
231399.99999999997
21
83106.21999999999
31
0
0
LINE
8
equipment
10
231399.99999999997
20
83106.21999999999
30
0
11
231050.0
21
82500.0
31
0
0
LINE
8
equipment
10
231050.0
20
82500.0
30
0
11
231399.99999999997
21
81893.78000000001
31
0
0
LINE
8
equipment
10
231399.99999999997
20
81893.78000000001
30
0
11
232100.00000000003
21
81893.78000000001
31
0
0
LINE
8
equipment
10
232100.00000000003
20
81893.78000000001
30
0
11
232450.0
21
82500.0
31
0
0
LINE
8
piping
10
270750.0
20
107500.0
30
0
11
270750.0
21
107473.68999999999
31
0
0
LINE
8
piping
10
270750.0
20
107473.68999999999
30
0
11
270750.0
21
107447.70999999999
31
0
0
LINE
8
piping
10
270750.0
20
107447.70999999999
30
0
11
270750.0
21
107422.37999999999
31
0
0
LINE
8
piping
10
270750.0
20
107422.37999999999
30
0
11
270750.0
21
107398.04
31
0
0
LINE
8
piping
10
270750.0
20
107398.04
30
0
11
270750.0
21
107374.97
31
0
0
LINE
8
piping
10
270750.0
20
107374.97
30
0
11
270750.0
21
107353.48
31
0
0
LINE
8
piping
10
270750.0
20
107353.48
30
0
11
270750.0
21
107333.83
31
0
0
LINE
8
piping
10
270750.0
20
107333.83
30
0
11
270750.0
21
107316.26999999999
31
0
0
LINE
8
piping
10
270750.0
20
107316.26999999999
30
0
11
270750.0
21
107301.02
31
0
0
LINE
8
piping
10
270750.0
20
107301.02
30
0
11
270750.0
21
107288.27
31
0
0
LINE
8
piping
10
270750.0
20
107288.27
30
0
11
270750.0
21
107278.19
31
0
0
LINE
8
piping
10
270750.0
20
107278.19
30
0
11
270750.0
21
107270.89
31
0
0
LINE
8
piping
10
270750.0
20
107270.89
30
0
11
270750.0
21
107266.48
31
0
0
LINE
8
piping
10
270750.0
20
107266.48
30
0
11
270750.0
21
107265.00000000001
31
0
0
LINE
8
piping
10
270750.0
20
107735.0
30
0
11
270750.0
21
107733.51999999999
31
0
0
LINE
8
piping
10
270750.0
20
107733.51999999999
30
0
11
270750.0
21
107729.11
31
0
0
LINE
8
piping
10
270750.0
20
107729.11
30
0
11
270750.0
21
107721.81
31
0
0
LINE
8
piping
10
270750.0
20
107721.81
30
0
11
270750.0
21
107711.72999999998
31
0
0
LINE
8
piping
10
270750.0
20
107711.72999999998
30
0
11
270750.0
21
107698.98
31
0
0
LINE
8
piping
10
270750.0
20
107698.98
30
0
11
270750.0
21
107683.73
31
0
0
LINE
8
piping
10
270750.0
20
107683.73
30
0
11
270750.0
21
107666.17
31
0
0
LINE
8
piping
10
270750.0
20
107666.17
30
0
11
270750.0
21
107646.52
31
0
0
LINE
8
piping
10
270750.0
20
107646.52
30
0
11
270750.0
21
107625.03000000001
31
0
0
LINE
8
piping
10
270750.0
20
107625.03000000001
30
0
11
270750.0
21
107601.95999999999
31
0
0
LINE
8
piping
10
270750.0
20
107601.95999999999
30
0
11
270750.0
21
107577.62
31
0
0
LINE
8
piping
10
270750.0
20
107577.62
30
0
11
270750.0
21
107552.29
31
0
0
LINE
8
piping
10
270750.0
20
107552.29
30
0
11
270750.0
21
107526.31
31
0
0
LINE
8
piping
10
270750.0
20
107526.31
30
0
11
270750.0
21
107500.0
31
0
0
LINE
8
piping
10
36750.0
20
107500.0
30
0
11
36750.0
21
107473.68999999999
31
0
0
LINE
8
piping
10
36750.0
20
107473.68999999999
30
0
11
36750.0
21
107447.70999999999
31
0
0
LINE
8
piping
10
36750.0
20
107447.70999999999
30
0
11
36750.0
21
107422.37999999999
31
0
0
LINE
8
piping
10
36750.0
20
107422.37999999999
30
0
11
36750.0
21
107398.04
31
0
0
LINE
8
piping
10
36750.0
20
107398.04
30
0
11
36750.0
21
107374.97
31
0
0
LINE
8
piping
10
36750.0
20
107374.97
30
0
11
36750.0
21
107353.48
31
0
0
LINE
8
piping
10
36750.0
20
107353.48
30
0
11
36750.0
21
107333.83
31
0
0
LINE
8
piping
10
36750.0
20
107333.83
30
0
11
36750.0
21
107316.26999999999
31
0
0
LINE
8
piping
10
36750.0
20
107316.26999999999
30
0
11
36750.0
21
107301.02
31
0
0
LINE
8
piping
10
36750.0
20
107301.02
30
0
11
36750.0
21
107288.27
31
0
0
LINE
8
piping
10
36750.0
20
107288.27
30
0
11
36750.0
21
107278.19
31
0
0
LINE
8
piping
10
36750.0
20
107278.19
30
0
11
36750.0
21
107270.89
31
0
0
LINE
8
piping
10
36750.0
20
107270.89
30
0
11
36750.0
21
107266.48
31
0
0
LINE
8
piping
10
36750.0
20
107266.48
30
0
11
36750.0
21
107265.00000000001
31
0
0
LINE
8
piping
10
36750.0
20
107735.0
30
0
11
36750.0
21
107733.51999999999
31
0
0
LINE
8
piping
10
36750.0
20
107733.51999999999
30
0
11
36750.0
21
107729.11
31
0
0
LINE
8
piping
10
36750.0
20
107729.11
30
0
11
36750.0
21
107721.81
31
0
0
LINE
8
piping
10
36750.0
20
107721.81
30
0
11
36750.0
21
107711.72999999998
31
0
0
LINE
8
piping
10
36750.0
20
107711.72999999998
30
0
11
36750.0
21
107698.98
31
0
0
LINE
8
piping
10
36750.0
20
107698.98
30
0
11
36750.0
21
107683.73
31
0
0
LINE
8
piping
10
36750.0
20
107683.73
30
0
11
36750.0
21
107666.17
31
0
0
LINE
8
piping
10
36750.0
20
107666.17
30
0
11
36750.0
21
107646.52
31
0
0
LINE
8
piping
10
36750.0
20
107646.52
30
0
11
36750.0
21
107625.03000000001
31
0
0
LINE
8
piping
10
36750.0
20
107625.03000000001
30
0
11
36750.0
21
107601.95999999999
31
0
0
LINE
8
piping
10
36750.0
20
107601.95999999999
30
0
11
36750.0
21
107577.62
31
0
0
LINE
8
piping
10
36750.0
20
107577.62
30
0
11
36750.0
21
107552.29
31
0
0
LINE
8
piping
10
36750.0
20
107552.29
30
0
11
36750.0
21
107526.31
31
0
0
LINE
8
piping
10
36750.0
20
107526.31
30
0
11
36750.0
21
107500.0
31
0
0
LINE
8
piping
10
270750.0
20
135500.0
30
0
11
270750.0
21
135473.69
31
0
0
LINE
8
piping
10
270750.0
20
135473.69
30
0
11
270750.0
21
135447.71
31
0
0
LINE
8
piping
10
270750.0
20
135447.71
30
0
11
270750.0
21
135422.38
31
0
0
LINE
8
piping
10
270750.0
20
135422.38
30
0
11
270750.0
21
135398.04
31
0
0
LINE
8
piping
10
270750.0
20
135398.04
30
0
11
270750.0
21
135374.97
31
0
0
LINE
8
piping
10
270750.0
20
135374.97
30
0
11
270750.0
21
135353.48
31
0
0
LINE
8
piping
10
270750.0
20
135353.48
30
0
11
270750.0
21
135333.83000000002
31
0
0
LINE
8
piping
10
270750.0
20
135333.83000000002
30
0
11
270750.0
21
135316.27
31
0
0
LINE
8
piping
10
270750.0
20
135316.27
30
0
11
270750.0
21
135301.02000000002
31
0
0
LINE
8
piping
10
270750.0
20
135301.02000000002
30
0
11
270750.0
21
135288.27000000002
31
0
0
LINE
8
piping
10
270750.0
20
135288.27000000002
30
0
11
270750.0
21
135278.19
31
0
0
LINE
8
piping
10
270750.0
20
135278.19
30
0
11
270750.0
21
135270.89
31
0
0
LINE
8
piping
10
270750.0
20
135270.89
30
0
11
270750.0
21
135266.47999999998
31
0
0
LINE
8
piping
10
270750.0
20
135266.47999999998
30
0
11
270750.0
21
135265.0
31
0
0
LINE
8
piping
10
270750.0
20
135735.0
30
0
11
270750.0
21
135733.52
31
0
0
LINE
8
piping
10
270750.0
20
135733.52
30
0
11
270750.0
21
135729.11000000002
31
0
0
LINE
8
piping
10
270750.0
20
135729.11000000002
30
0
11
270750.0
21
135721.81
31
0
0
LINE
8
piping
10
270750.0
20
135721.81
30
0
11
270750.0
21
135711.72999999998
31
0
0
LINE
8
piping
10
270750.0
20
135711.72999999998
30
0
11
270750.0
21
135698.98
31
0
0
LINE
8
piping
10
270750.0
20
135698.98
30
0
11
270750.0
21
135683.73
31
0
0
LINE
8
piping
10
270750.0
20
135683.73
30
0
11
270750.0
21
135666.17
31
0
0
LINE
8
piping
10
270750.0
20
135666.17
30
0
11
270750.0
21
135646.52000000002
31
0
0
LINE
8
piping
10
270750.0
20
135646.52000000002
30
0
11
270750.0
21
135625.03
31
0
0
LINE
8
piping
10
270750.0
20
135625.03
30
0
11
270750.0
21
135601.96
31
0
0
LINE
8
piping
10
270750.0
20
135601.96
30
0
11
270750.0
21
135577.62
31
0
0
LINE
8
piping
10
270750.0
20
135577.62
30
0
11
270750.0
21
135552.29
31
0
0
LINE
8
piping
10
270750.0
20
135552.29
30
0
11
270750.0
21
135526.31
31
0
0
LINE
8
piping
10
270750.0
20
135526.31
30
0
11
270750.0
21
135500.0
31
0
0
LINE
8
piping
10
36750.0
20
135500.0
30
0
11
36750.0
21
135473.69
31
0
0
LINE
8
piping
10
36750.0
20
135473.69
30
0
11
36750.0
21
135447.71
31
0
0
LINE
8
piping
10
36750.0
20
135447.71
30
0
11
36750.0
21
135422.38
31
0
0
LINE
8
piping
10
36750.0
20
135422.38
30
0
11
36750.0
21
135398.04
31
0
0
LINE
8
piping
10
36750.0
20
135398.04
30
0
11
36750.0
21
135374.97
31
0
0
LINE
8
piping
10
36750.0
20
135374.97
30
0
11
36750.0
21
135353.48
31
0
0
LINE
8
piping
10
36750.0
20
135353.48
30
0
11
36750.0
21
135333.83000000002
31
0
0
LINE
8
piping
10
36750.0
20
135333.83000000002
30
0
11
36750.0
21
135316.27
31
0
0
LINE
8
piping
10
36750.0
20
135316.27
30
0
11
36750.0
21
135301.02000000002
31
0
0
LINE
8
piping
10
36750.0
20
135301.02000000002
30
0
11
36750.0
21
135288.27000000002
31
0
0
LINE
8
piping
10
36750.0
20
135288.27000000002
30
0
11
36750.0
21
135278.19
31
0
0
LINE
8
piping
10
36750.0
20
135278.19
30
0
11
36750.0
21
135270.89
31
0
0
LINE
8
piping
10
36750.0
20
135270.89
30
0
11
36750.0
21
135266.47999999998
31
0
0
LINE
8
piping
10
36750.0
20
135266.47999999998
30
0
11
36750.0
21
135265.0
31
0
0
LINE
8
piping
10
36750.0
20
135735.0
30
0
11
36750.0
21
135733.52
31
0
0
LINE
8
piping
10
36750.0
20
135733.52
30
0
11
36750.0
21
135729.11000000002
31
0
0
LINE
8
piping
10
36750.0
20
135729.11000000002
30
0
11
36750.0
21
135721.81
31
0
0
LINE
8
piping
10
36750.0
20
135721.81
30
0
11
36750.0
21
135711.72999999998
31
0
0
LINE
8
piping
10
36750.0
20
135711.72999999998
30
0
11
36750.0
21
135698.98
31
0
0
LINE
8
piping
10
36750.0
20
135698.98
30
0
11
36750.0
21
135683.73
31
0
0
LINE
8
piping
10
36750.0
20
135683.73
30
0
11
36750.0
21
135666.17
31
0
0
LINE
8
piping
10
36750.0
20
135666.17
30
0
11
36750.0
21
135646.52000000002
31
0
0
LINE
8
piping
10
36750.0
20
135646.52000000002
30
0
11
36750.0
21
135625.03
31
0
0
LINE
8
piping
10
36750.0
20
135625.03
30
0
11
36750.0
21
135601.96
31
0
0
LINE
8
piping
10
36750.0
20
135601.96
30
0
11
36750.0
21
135577.62
31
0
0
LINE
8
piping
10
36750.0
20
135577.62
30
0
11
36750.0
21
135552.29
31
0
0
LINE
8
piping
10
36750.0
20
135552.29
30
0
11
36750.0
21
135526.31
31
0
0
LINE
8
piping
10
36750.0
20
135526.31
30
0
11
36750.0
21
135500.0
31
0
0
LINE
8
datum
10
28750.000000000007
20
76500.0
30
0
11
278750.0
21
76500.0
31
0
0
LINE
8
datum
10
278750.0
20
76500.0
30
0
11
278750.0
21
166500.0
31
0
0
LINE
8
datum
10
278750.0
20
166500.0
30
0
11
28750.000000000007
21
166500.0
31
0
0
LINE
8
datum
10
28750.000000000007
20
166500.0
30
0
11
28750.000000000007
21
76500.0
31
0
0
LINE
8
grid
10
30250.000000000007
20
74000.0
30
0
11
30250.000000000007
21
171000.0
31
0
0
TEXT
8
annotation
10
29781.250000000007
20
172500.0
30
0
40
1875.0
1
1
50
0
0
LINE
8
grid
10
54950.00000000001
20
74000.0
30
0
11
54950.00000000001
21
171000.0
31
0
0
TEXT
8
annotation
10
54481.25000000001
20
172500.0
30
0
40
1875.0
1
3
50
0
0
LINE
8
grid
10
79650.0
20
74000.0
30
0
11
79650.0
21
171000.0
31
0
0
TEXT
8
annotation
10
79181.25
20
172500.0
30
0
40
1875.0
1
5
50
0
0
LINE
8
grid
10
104350.0
20
74000.0
30
0
11
104350.0
21
171000.0
31
0
0
TEXT
8
annotation
10
103881.25
20
172500.0
30
0
40
1875.0
1
7
50
0
0
LINE
8
grid
10
129050.0
20
74000.0
30
0
11
129050.0
21
171000.0
31
0
0
TEXT
8
annotation
10
128581.25
20
172500.0
30
0
40
1875.0
1
9
50
0
0
LINE
8
grid
10
153750.0
20
74000.0
30
0
11
153750.0
21
171000.0
31
0
0
TEXT
8
annotation
10
152812.5
20
172500.0
30
0
40
1875.0
1
11
50
0
0
LINE
8
grid
10
178450.0
20
74000.0
30
0
11
178450.0
21
171000.0
31
0
0
TEXT
8
annotation
10
177512.5
20
172500.0
30
0
40
1875.0
1
13
50
0
0
LINE
8
grid
10
203150.0
20
74000.0
30
0
11
203150.0
21
171000.0
31
0
0
TEXT
8
annotation
10
202212.5
20
172500.0
30
0
40
1875.0
1
15
50
0
0
LINE
8
grid
10
227850.0
20
74000.0
30
0
11
227850.0
21
171000.0
31
0
0
TEXT
8
annotation
10
226912.5
20
172500.0
30
0
40
1875.0
1
17
50
0
0
LINE
8
grid
10
252550.0
20
74000.0
30
0
11
252550.0
21
171000.0
31
0
0
TEXT
8
annotation
10
251612.5
20
172500.0
30
0
40
1875.0
1
19
50
0
0
LINE
8
grid
10
277250.0
20
74000.0
30
0
11
277250.0
21
171000.0
31
0
0
TEXT
8
annotation
10
276312.5
20
172500.0
30
0
40
1875.0
1
21
50
0
0
LINE
8
grid
10
24750.0
20
78000.0
30
0
11
282750.0
21
78000.0
31
0
0
TEXT
8
annotation
10
22312.5
20
77250.0
30
0
40
1875.0
1
A
50
0
0
LINE
8
grid
10
24750.0
20
92500.0
30
0
11
282750.0
21
92500.0
31
0
0
TEXT
8
annotation
10
22312.5
20
91750.0
30
0
40
1875.0
1
B
50
0
0
LINE
8
grid
10
24750.0
20
107000.0
30
0
11
282750.0
21
107000.0
31
0
0
TEXT
8
annotation
10
22312.5
20
106250.0
30
0
40
1875.0
1
C
50
0
0
LINE
8
grid
10
24750.0
20
121500.0
30
0
11
282750.0
21
121500.0
31
0
0
TEXT
8
annotation
10
22312.5
20
120750.0
30
0
40
1875.0
1
D
50
0
0
LINE
8
grid
10
24750.0
20
136000.0
30
0
11
282750.0
21
136000.0
31
0
0
TEXT
8
annotation
10
22312.5
20
135250.0
30
0
40
1875.0
1
E
50
0
0
LINE
8
grid
10
24750.0
20
150500.0
30
0
11
282750.0
21
150500.0
31
0
0
TEXT
8
annotation
10
22312.5
20
149750.0
30
0
40
1875.0
1
F
50
0
0
LINE
8
grid
10
24750.0
20
165000.0
30
0
11
282750.0
21
165000.0
31
0
0
TEXT
8
annotation
10
22312.5
20
164250.0
30
0
40
1875.0
1
G
50
0
0
LINE
8
dimension
10
28750.000000000007
20
67500.0
30
0
11
278750.0
21
67500.0
31
0
0
LINE
8
dimension
10
28000.000000000007
20
66750.0
30
0
11
29500.000000000007
21
68250.0
31
0
0
LINE
8
dimension
10
278000.0
20
66750.0
30
0
11
279500.0
21
68250.0
31
0
0
TEXT
8
annotation
10
143625.0
20
68625.0
30
0
40
2250.0
1
250,000 mm overall
50
0
0
LINE
8
dimension
10
287000.0
20
166500.0
30
0
11
287000.0
21
76500.0
31
0
0
TEXT
8
annotation
10
289250.0
20
121500.0
30
0
40
2250.0
1
90,000
50
0
0
TEXT
8
annotation
10
285750.0
20
189000
30
0
40
3000.0
1
N
50
0
0
LINE
8
annotation
10
286500
20
186750
30
0
11
284250
21
180000
31
0
0
LINE
8
annotation
10
284250
20
180000
30
0
11
286500
21
182250
31
0
0
LINE
8
annotation
10
286500
20
182250
30
0
11
288750
21
180000
31
0
0
LINE
8
annotation
10
288750
20
180000
30
0
11
286500
21
186750
31
0
0
LINE
8
frame
10
10500
20
44250
30
0
11
304500
21
44250
31
0
0
TEXT
8
annotation
10
10500
20
38250
30
0
40
2625.0
1
CONCEPT DESIGN | IMAGE-INFERRED | NOT FOR CONSTRUCTION
50
0
0
TEXT
8
annotation
10
10500
20
28500.0
30
0
40
1987.5
1
Source: two campus AI images + fab1.jpg; official analogues documented in analysis/cad/.
50
0
0
TEXT
8
annotation
10
10500
20
25200.00000000002
30
0
40
1987.5
1
CAD model in mm; site coordinates X east, Y north, Z up. Internal layouts and member sizes are design estimates.
50
0
0
TEXT
8
annotation
10
10500
20
21899.999999999993
30
0
40
1987.5
1
Plans/sections are extracted from actual FreeCAD BRep. Elevations project component outlines; hidden edges omitted per component.
50
0
0
TEXT
8
annotation
10
10500
20
18600.000000000007
30
0
40
1987.5
1
FAB source levels preserved, unverified: foundation -12.2 / B1 -7.2 / F1 +14.8 / F2 +29.6 / RF +41.8 m.
50
0
0
TEXT
8
annotation
10
10500
20
15299.999999999984
30
0
40
1987.5
1
No process certification, structural verification, measured survey, or construction approval is implied.
50
0
0
TEXT
8
annotation
10
267750.0
20
8250
30
0
40
2100.0
1
2026-09-30  |  FreeCAD 1.1.4  |  mm
50
0
0
ENDSEC
0
EOF
