0
SECTION
2
HEADER
9
$ACADVER
1
AC1009
9
$INSUNITS
70
4
0
ENDSEC
0
SECTION
2
ENTITIES
0
LINE
8
frame
10
2800
20
116000
30
0
11
165200
21
116000
31
0
0
LINE
8
frame
10
165200
20
116000
30
0
11
165200
21
2800
31
0
0
LINE
8
frame
10
165200
20
2800
30
0
11
2800
21
2800
31
0
0
LINE
8
frame
10
2800
20
2800
30
0
11
2800
21
116000
31
0
0
TEXT
8
annotation
10
5600
20
111600
30
0
40
1680.0
1
PHOENIX SCIENCE PARK
50
0
0
TEXT
8
annotation
10
5600
20
108400
30
0
40
2000.0
1
FAB1 / East elevation
50
0
0
TEXT
8
annotation
10
154720.0
20
111600
30
0
40
1280.0
1
A3  |  1:400
50
0
0
TEXT
8
annotation
10
150400.0
20
108400
30
0
40
1200.0
1
CAD-FAB1-EAST  /  R1
50
0
0
LINE
8
frame
10
5600
20
106400
30
0
11
162400
21
106400
31
0
0
LINE
8
roof
10
133127.5
20
84400.0
30
0
11
133127.5
21
85000.0
31
0
0
LINE
8
roof
10
133127.5
20
85000.0
30
0
11
43127.5
21
85000.0
31
0
0
LINE
8
roof
10
43127.5
20
84400.0
30
0
11
43127.5
21
85000.0
31
0
0
LINE
8
roof
10
133127.5
20
84400.0
30
0
11
43127.5
21
84400.0
31
0
0
LINE
8
envelope
10
133277.5
20
36000.0
30
0
11
133277.5
21
84400.0
31
0
0
LINE
8
envelope
10
133277.5
20
84400.0
30
0
11
132977.5
21
84400.0
31
0
0
LINE
8
envelope
10
132977.5
20
36000.0
30
0
11
132977.5
21
84400.0
31
0
0
LINE
8
envelope
10
133277.5
20
36000.0
30
0
11
132977.5
21
36000.0
31
0
0
LINE
8
glazing
10
133207.5
20
38200.0
30
0
11
133207.5
21
82200.0
31
0
0
LINE
8
glazing
10
133207.5
20
82200.0
30
0
11
133047.5
21
82200.0
31
0
0
LINE
8
glazing
10
133047.5
20
38200.0
30
0
11
133047.5
21
82200.0
31
0
0
LINE
8
glazing
10
133207.5
20
38200.0
30
0
11
133047.5
21
38200.0
31
0
0
LINE
8
envelope
10
133372.5
20
36000.0
30
0
11
133372.5
21
84400.0
31
0
0
LINE
8
envelope
10
133372.5
20
84400.0
30
0
11
133282.5
21
84400.0
31
0
0
LINE
8
envelope
10
133282.5
20
36000.0
30
0
11
133282.5
21
84400.0
31
0
0
LINE
8
envelope
10
133372.5
20
36000.0
30
0
11
133282.5
21
36000.0
31
0
0
LINE
8
envelope
10
133127.5
20
36000.0
30
0
11
133127.5
21
84400.0
31
0
0
LINE
8
envelope
10
43127.5
20
36000.0
30
0
11
43127.5
21
84400.0
31
0
0
LINE
8
envelope
10
133127.5
20
36000.0
30
0
11
43127.5
21
36000.0
31
0
0
LINE
8
envelope
10
43277.5
20
36000.0
30
0
11
43277.5
21
84400.0
31
0
0
LINE
8
envelope
10
43277.5
20
84400.0
30
0
11
42977.5
21
84400.0
31
0
0
LINE
8
envelope
10
42977.5
20
36000.0
30
0
11
42977.5
21
84400.0
31
0
0
LINE
8
envelope
10
43277.5
20
36000.0
30
0
11
42977.5
21
36000.0
31
0
0
LINE
8
glazing
10
43207.5
20
38200.0
30
0
11
43207.5
21
82200.0
31
0
0
LINE
8
glazing
10
43207.5
20
82200.0
30
0
11
43047.5
21
82200.0
31
0
0
LINE
8
glazing
10
43047.5
20
38200.0
30
0
11
43047.5
21
82200.0
31
0
0
LINE
8
glazing
10
43207.5
20
38200.0
30
0
11
43047.5
21
38200.0
31
0
0
LINE
8
envelope
10
42972.5
20
36000.0
30
0
11
42972.5
21
84400.0
31
0
0
LINE
8
envelope
10
42972.5
20
84400.0
30
0
11
42882.5
21
84400.0
31
0
0
LINE
8
envelope
10
42882.5
20
36000.0
30
0
11
42882.5
21
84400.0
31
0
0
LINE
8
envelope
10
42972.5
20
36000.0
30
0
11
42882.5
21
36000.0
31
0
0
LINE
8
glazing
10
33127.5
20
54100.0
30
0
11
33047.5
21
54100.0
31
0
0
LINE
8
glazing
10
33047.5
20
42600.0
30
0
11
33047.5
21
54100.0
31
0
0
LINE
8
glazing
10
33127.5
20
42600.0
30
0
11
33047.5
21
42600.0
31
0
0
LINE
8
glazing
10
43127.5
20
42600.0
30
0
11
43127.5
21
54100.0
31
0
0
LINE
8
glazing
10
43127.5
20
54100.0
30
0
11
33127.5
21
54100.0
31
0
0
LINE
8
glazing
10
33127.5
20
42600.0
30
0
11
33127.5
21
54100.0
31
0
0
LINE
8
glazing
10
43127.5
20
42600.0
30
0
11
33127.5
21
42600.0
31
0
0
LINE
8
glazing
10
33477.5
20
42800.0
30
0
11
33477.5
21
46800.0
31
0
0
LINE
8
glazing
10
33477.5
20
46800.0
30
0
11
33377.5
21
46800.0
31
0
0
LINE
8
glazing
10
33377.5
20
42800.0
30
0
11
33377.5
21
46800.0
31
0
0
LINE
8
glazing
10
33477.5
20
42800.0
30
0
11
33377.5
21
42800.0
31
0
0
LINE
8
roof
10
43627.5
20
54100.0
30
0
11
43627.5
21
54700.0
31
0
0
LINE
8
roof
10
43627.5
20
54700.0
30
0
11
30627.499999999996
21
54700.0
31
0
0
LINE
8
roof
10
30627.499999999996
20
54100.0
30
0
11
30627.499999999996
21
54700.0
31
0
0
LINE
8
roof
10
43627.5
20
54100.0
30
0
11
30627.499999999996
21
54100.0
31
0
0
LINE
8
equipment
10
119277.50000000001
20
85000.0
30
0
11
119277.50000000001
21
85500.0
31
0
0
LINE
8
equipment
10
119277.50000000001
20
85500.0
30
0
11
112977.50000000001
21
85500.0
31
0
0
LINE
8
equipment
10
112977.50000000001
20
85000.0
30
0
11
112977.50000000001
21
85500.0
31
0
0
LINE
8
equipment
10
119277.50000000001
20
85000.0
30
0
11
112977.50000000001
21
85000.0
31
0
0
LINE
8
equipment
10
118877.50000000001
20
85500.0
30
0
11
118877.50000000001
21
88800.0
31
0
0
LINE
8
equipment
10
118877.50000000001
20
88800.0
30
0
11
113377.50000000001
21
88800.0
31
0
0
LINE
8
equipment
10
113377.50000000001
20
85500.0
30
0
11
113377.50000000001
21
88800.0
31
0
0
LINE
8
equipment
10
113377.50000000001
20
88200.0
30
0
11
113257.5
21
88200.0
31
0
0
LINE
8
equipment
10
113257.5
20
85900.0
30
0
11
113257.5
21
88200.0
31
0
0
LINE
8
equipment
10
113377.50000000001
20
85900.0
30
0
11
113257.5
21
85900.0
31
0
0
LINE
8
equipment
10
116127.50000000001
20
89100.0
30
0
11
116015.54000000001
21
89100.0
31
0
0
LINE
8
equipment
10
116015.54000000001
20
89100.0
30
0
11
115904.98
21
89100.0
31
0
0
LINE
8
equipment
10
115904.98
20
89100.0
30
0
11
115797.21999999999
21
89100.0
31
0
0
LINE
8
equipment
10
115797.21999999999
20
89100.0
30
0
11
115693.61999999998
21
89100.0
31
0
0
LINE
8
equipment
10
115693.61999999998
20
89100.0
30
0
11
115595.47
21
89100.0
31
0
0
LINE
8
equipment
10
115595.47
20
89100.0
30
0
11
115504.01
21
89100.0
31
0
0
LINE
8
equipment
10
115504.01
20
89100.0
30
0
11
115420.39
21
89100.0
31
0
0
LINE
8
equipment
10
115420.39
20
89100.0
30
0
11
115345.67
21
89100.0
31
0
0
LINE
8
equipment
10
115345.67
20
89100.0
30
0
11
115280.78
21
89100.0
31
0
0
LINE
8
equipment
10
115280.78
20
89100.0
30
0
11
115226.53
21
89100.0
31
0
0
LINE
8
equipment
10
115226.53
20
89100.0
30
0
11
115183.62
21
89100.0
31
0
0
LINE
8
equipment
10
115183.62
20
89100.0
30
0
11
115152.56999999999
21
89100.0
31
0
0
LINE
8
equipment
10
115152.56999999999
20
89100.0
30
0
11
115133.79
21
89100.0
31
0
0
LINE
8
equipment
10
115133.79
20
89100.0
30
0
11
115127.50000000001
21
89100.0
31
0
0
LINE
8
equipment
10
117127.50000000001
20
89100.0
30
0
11
117121.20999999999
21
89100.0
31
0
0
LINE
8
equipment
10
117121.20999999999
20
89100.0
30
0
11
117102.43000000001
21
89100.0
31
0
0
LINE
8
equipment
10
117102.43000000001
20
89100.0
30
0
11
117071.38
21
89100.0
31
0
0
LINE
8
equipment
10
117071.38
20
89100.0
30
0
11
117028.46999999999
21
89100.0
31
0
0
LINE
8
equipment
10
117028.46999999999
20
89100.0
30
0
11
116974.22000000002
21
89100.0
31
0
0
LINE
8
equipment
10
116974.22000000002
20
89100.0
30
0
11
116909.33
21
89100.0
31
0
0
LINE
8
equipment
10
116909.33
20
89100.0
30
0
11
116834.61
21
89100.0
31
0
0
LINE
8
equipment
10
116834.61
20
89100.0
30
0
11
116750.99
21
89100.0
31
0
0
LINE
8
equipment
10
116750.99
20
89100.0
30
0
11
116659.53
21
89100.0
31
0
0
LINE
8
equipment
10
116659.53
20
89100.0
30
0
11
116561.38
21
89100.0
31
0
0
LINE
8
equipment
10
116561.38
20
89100.0
30
0
11
116457.78
21
89100.0
31
0
0
LINE
8
equipment
10
116457.78
20
89100.0
30
0
11
116350.01999999999
21
89100.0
31
0
0
LINE
8
equipment
10
116350.01999999999
20
89100.0
30
0
11
116239.46
21
89100.0
31
0
0
LINE
8
equipment
10
116239.46
20
89100.0
30
0
11
116127.50000000001
21
89100.0
31
0
0
LINE
8
equipment
10
118942.5
20
85800.0
30
0
11
118942.5
21
85880.0
31
0
0
LINE
8
equipment
10
118942.5
20
85880.0
30
0
11
118877.50000000001
21
85880.0
31
0
0
LINE
8
equipment
10
118942.5
20
85800.0
30
0
11
118877.50000000001
21
85800.0
31
0
0
LINE
8
equipment
10
118942.5
20
86050.0
30
0
11
118942.5
21
86130.0
31
0
0
LINE
8
equipment
10
118942.5
20
86130.0
30
0
11
118877.50000000001
21
86130.0
31
0
0
LINE
8
equipment
10
118942.5
20
86050.0
30
0
11
118877.50000000001
21
86050.0
31
0
0
LINE
8
equipment
10
118942.5
20
86300.0
30
0
11
118942.5
21
86380.0
31
0
0
LINE
8
equipment
10
118942.5
20
86380.0
30
0
11
118877.50000000001
21
86380.0
31
0
0
LINE
8
equipment
10
118942.5
20
86300.0
30
0
11
118877.50000000001
21
86300.0
31
0
0
LINE
8
equipment
10
118942.5
20
86550.0
30
0
11
118942.5
21
86630.0
31
0
0
LINE
8
equipment
10
118942.5
20
86630.0
30
0
11
118877.50000000001
21
86630.0
31
0
0
LINE
8
equipment
10
118942.5
20
86550.0
30
0
11
118877.50000000001
21
86550.0
31
0
0
LINE
8
equipment
10
118942.5
20
86800.0
30
0
11
118942.5
21
86880.0
31
0
0
LINE
8
equipment
10
118942.5
20
86880.0
30
0
11
118877.50000000001
21
86880.0
31
0
0
LINE
8
equipment
10
118942.5
20
86800.0
30
0
11
118877.50000000001
21
86800.0
31
0
0
LINE
8
equipment
10
118942.5
20
87050.0
30
0
11
118942.5
21
87130.0
31
0
0
LINE
8
equipment
10
118942.5
20
87130.0
30
0
11
118877.50000000001
21
87130.0
31
0
0
LINE
8
equipment
10
118942.5
20
87050.0
30
0
11
118877.50000000001
21
87050.0
31
0
0
LINE
8
equipment
10
118942.5
20
87300.0
30
0
11
118942.5
21
87380.0
31
0
0
LINE
8
equipment
10
118942.5
20
87380.0
30
0
11
118877.50000000001
21
87380.0
31
0
0
LINE
8
equipment
10
118942.5
20
87300.0
30
0
11
118877.50000000001
21
87300.0
31
0
0
LINE
8
equipment
10
118942.5
20
87550.0
30
0
11
118942.5
21
87630.0
31
0
0
LINE
8
equipment
10
118942.5
20
87630.0
30
0
11
118877.50000000001
21
87630.0
31
0
0
LINE
8
equipment
10
118942.5
20
87550.0
30
0
11
118877.50000000001
21
87550.0
31
0
0
LINE
8
equipment
10
118942.5
20
87800.0
30
0
11
118942.5
21
87880.0
31
0
0
LINE
8
equipment
10
118942.5
20
87880.0
30
0
11
118877.50000000001
21
87880.0
31
0
0
LINE
8
equipment
10
118942.5
20
87800.0
30
0
11
118877.50000000001
21
87800.0
31
0
0
LINE
8
equipment
10
118942.5
20
88050.0
30
0
11
118942.5
21
88130.0
31
0
0
LINE
8
equipment
10
118942.5
20
88130.0
30
0
11
118877.50000000001
21
88130.0
31
0
0
LINE
8
equipment
10
118942.5
20
88050.0
30
0
11
118877.50000000001
21
88050.0
31
0
0
LINE
8
equipment
10
113377.50000000001
20
85880.0
30
0
11
113312.5
21
85880.0
31
0
0
LINE
8
equipment
10
113312.5
20
85800.0
30
0
11
113312.5
21
85880.0
31
0
0
LINE
8
equipment
10
113377.50000000001
20
85800.0
30
0
11
113312.5
21
85800.0
31
0
0
LINE
8
equipment
10
113377.50000000001
20
86130.0
30
0
11
113312.5
21
86130.0
31
0
0
LINE
8
equipment
10
113312.5
20
86050.0
30
0
11
113312.5
21
86130.0
31
0
0
LINE
8
equipment
10
113377.50000000001
20
86050.0
30
0
11
113312.5
21
86050.0
31
0
0
LINE
8
equipment
10
113377.50000000001
20
86380.0
30
0
11
113312.5
21
86380.0
31
0
0
LINE
8
equipment
10
113312.5
20
86300.0
30
0
11
113312.5
21
86380.0
31
0
0
LINE
8
equipment
10
113377.50000000001
20
86300.0
30
0
11
113312.5
21
86300.0
31
0
0
LINE
8
equipment
10
113377.50000000001
20
86630.0
30
0
11
113312.5
21
86630.0
31
0
0
LINE
8
equipment
10
113312.5
20
86550.0
30
0
11
113312.5
21
86630.0
31
0
0
LINE
8
equipment
10
113377.50000000001
20
86550.0
30
0
11
113312.5
21
86550.0
31
0
0
LINE
8
equipment
10
113377.50000000001
20
86880.0
30
0
11
113312.5
21
86880.0
31
0
0
LINE
8
equipment
10
113312.5
20
86800.0
30
0
11
113312.5
21
86880.0
31
0
0
LINE
8
equipment
10
113377.50000000001
20
86800.0
30
0
11
113312.5
21
86800.0
31
0
0
LINE
8
equipment
10
113377.50000000001
20
87130.0
30
0
11
113312.5
21
87130.0
31
0
0
LINE
8
equipment
10
113312.5
20
87050.0
30
0
11
113312.5
21
87130.0
31
0
0
LINE
8
equipment
10
113377.50000000001
20
87050.0
30
0
11
113312.5
21
87050.0
31
0
0
LINE
8
equipment
10
113377.50000000001
20
87380.0
30
0
11
113312.5
21
87380.0
31
0
0
LINE
8
equipment
10
113312.5
20
87300.0
30
0
11
113312.5
21
87380.0
31
0
0
LINE
8
equipment
10
113377.50000000001
20
87300.0
30
0
11
113312.5
21
87300.0
31
0
0
LINE
8
equipment
10
113377.50000000001
20
87630.0
30
0
11
113312.5
21
87630.0
31
0
0
LINE
8
equipment
10
113312.5
20
87550.0
30
0
11
113312.5
21
87630.0
31
0
0
LINE
8
equipment
10
113377.50000000001
20
87550.0
30
0
11
113312.5
21
87550.0
31
0
0
LINE
8
equipment
10
113377.50000000001
20
87880.0
30
0
11
113312.5
21
87880.0
31
0
0
LINE
8
equipment
10
113312.5
20
87800.0
30
0
11
113312.5
21
87880.0
31
0
0
LINE
8
equipment
10
113377.50000000001
20
87800.0
30
0
11
113312.5
21
87800.0
31
0
0
LINE
8
equipment
10
113377.50000000001
20
88130.0
30
0
11
113312.5
21
88130.0
31
0
0
LINE
8
equipment
10
113312.5
20
88050.0
30
0
11
113312.5
21
88130.0
31
0
0
LINE
8
equipment
10
113377.50000000001
20
88050.0
30
0
11
113312.5
21
88050.0
31
0
0
LINE
8
equipment
10
92277.5
20
85000.0
30
0
11
92277.5
21
85500.0
31
0
0
LINE
8
equipment
10
92277.5
20
85500.0
30
0
11
85977.5
21
85500.0
31
0
0
LINE
8
equipment
10
85977.5
20
85000.0
30
0
11
85977.5
21
85500.0
31
0
0
LINE
8
equipment
10
92277.5
20
85000.0
30
0
11
85977.5
21
85000.0
31
0
0
LINE
8
equipment
10
91877.5
20
85500.0
30
0
11
91877.5
21
88800.0
31
0
0
LINE
8
equipment
10
91877.5
20
88800.0
30
0
11
86377.5
21
88800.0
31
0
0
LINE
8
equipment
10
86377.5
20
85500.0
30
0
11
86377.5
21
88800.0
31
0
0
LINE
8
equipment
10
86377.5
20
88200.0
30
0
11
86257.5
21
88200.0
31
0
0
LINE
8
equipment
10
86257.5
20
85900.0
30
0
11
86257.5
21
88200.0
31
0
0
LINE
8
equipment
10
86377.5
20
85900.0
30
0
11
86257.5
21
85900.0
31
0
0
LINE
8
equipment
10
89127.5
20
89100.0
30
0
11
89015.54
21
89100.0
31
0
0
LINE
8
equipment
10
89015.54
20
89100.0
30
0
11
88904.98
21
89100.0
31
0
0
LINE
8
equipment
10
88904.98
20
89100.0
30
0
11
88797.22
21
89100.0
31
0
0
LINE
8
equipment
10
88797.22
20
89100.0
30
0
11
88693.62
21
89100.0
31
0
0
LINE
8
equipment
10
88693.62
20
89100.0
30
0
11
88595.47
21
89100.0
31
0
0
LINE
8
equipment
10
88595.47
20
89100.0
30
0
11
88504.01
21
89100.0
31
0
0
LINE
8
equipment
10
88504.01
20
89100.0
30
0
11
88420.39
21
89100.0
31
0
0
LINE
8
equipment
10
88420.39
20
89100.0
30
0
11
88345.67
21
89100.0
31
0
0
LINE
8
equipment
10
88345.67
20
89100.0
30
0
11
88280.78
21
89100.0
31
0
0
LINE
8
equipment
10
88280.78
20
89100.0
30
0
11
88226.53
21
89100.0
31
0
0
LINE
8
equipment
10
88226.53
20
89100.0
30
0
11
88183.62
21
89100.0
31
0
0
LINE
8
equipment
10
88183.62
20
89100.0
30
0
11
88152.57
21
89100.0
31
0
0
LINE
8
equipment
10
88152.57
20
89100.0
30
0
11
88133.79
21
89100.0
31
0
0
LINE
8
equipment
10
88133.79
20
89100.0
30
0
11
88127.5
21
89100.0
31
0
0
LINE
8
equipment
10
90127.5
20
89100.0
30
0
11
90121.20999999999
21
89100.0
31
0
0
LINE
8
equipment
10
90121.20999999999
20
89100.0
30
0
11
90102.43000000001
21
89100.0
31
0
0
LINE
8
equipment
10
90102.43000000001
20
89100.0
30
0
11
90071.38
21
89100.0
31
0
0
LINE
8
equipment
10
90071.38
20
89100.0
30
0
11
90028.47
21
89100.0
31
0
0
LINE
8
equipment
10
90028.47
20
89100.0
30
0
11
89974.22
21
89100.0
31
0
0
LINE
8
equipment
10
89974.22
20
89100.0
30
0
11
89909.33
21
89100.0
31
0
0
LINE
8
equipment
10
89909.33
20
89100.0
30
0
11
89834.61
21
89100.0
31
0
0
LINE
8
equipment
10
89834.61
20
89100.0
30
0
11
89750.99
21
89100.0
31
0
0
LINE
8
equipment
10
89750.99
20
89100.0
30
0
11
89659.53
21
89100.0
31
0
0
LINE
8
equipment
10
89659.53
20
89100.0
30
0
11
89561.37999999999
21
89100.0
31
0
0
LINE
8
equipment
10
89561.37999999999
20
89100.0
30
0
11
89457.78
21
89100.0
31
0
0
LINE
8
equipment
10
89457.78
20
89100.0
30
0
11
89350.01999999999
21
89100.0
31
0
0
LINE
8
equipment
10
89350.01999999999
20
89100.0
30
0
11
89239.45999999999
21
89100.0
31
0
0
LINE
8
equipment
10
89239.45999999999
20
89100.0
30
0
11
89127.5
21
89100.0
31
0
0
LINE
8
equipment
10
91942.5
20
85800.0
30
0
11
91942.5
21
85880.0
31
0
0
LINE
8
equipment
10
91942.5
20
85880.0
30
0
11
91877.5
21
85880.0
31
0
0
LINE
8
equipment
10
91942.5
20
85800.0
30
0
11
91877.5
21
85800.0
31
0
0
LINE
8
equipment
10
91942.5
20
86050.0
30
0
11
91942.5
21
86130.0
31
0
0
LINE
8
equipment
10
91942.5
20
86130.0
30
0
11
91877.5
21
86130.0
31
0
0
LINE
8
equipment
10
91942.5
20
86050.0
30
0
11
91877.5
21
86050.0
31
0
0
LINE
8
equipment
10
91942.5
20
86300.0
30
0
11
91942.5
21
86380.0
31
0
0
LINE
8
equipment
10
91942.5
20
86380.0
30
0
11
91877.5
21
86380.0
31
0
0
LINE
8
equipment
10
91942.5
20
86300.0
30
0
11
91877.5
21
86300.0
31
0
0
LINE
8
equipment
10
91942.5
20
86550.0
30
0
11
91942.5
21
86630.0
31
0
0
LINE
8
equipment
10
91942.5
20
86630.0
30
0
11
91877.5
21
86630.0
31
0
0
LINE
8
equipment
10
91942.5
20
86550.0
30
0
11
91877.5
21
86550.0
31
0
0
LINE
8
equipment
10
91942.5
20
86800.0
30
0
11
91942.5
21
86880.0
31
0
0
LINE
8
equipment
10
91942.5
20
86880.0
30
0
11
91877.5
21
86880.0
31
0
0
LINE
8
equipment
10
91942.5
20
86800.0
30
0
11
91877.5
21
86800.0
31
0
0
LINE
8
equipment
10
91942.5
20
87050.0
30
0
11
91942.5
21
87130.0
31
0
0
LINE
8
equipment
10
91942.5
20
87130.0
30
0
11
91877.5
21
87130.0
31
0
0
LINE
8
equipment
10
91942.5
20
87050.0
30
0
11
91877.5
21
87050.0
31
0
0
LINE
8
equipment
10
91942.5
20
87300.0
30
0
11
91942.5
21
87380.0
31
0
0
LINE
8
equipment
10
91942.5
20
87380.0
30
0
11
91877.5
21
87380.0
31
0
0
LINE
8
equipment
10
91942.5
20
87300.0
30
0
11
91877.5
21
87300.0
31
0
0
LINE
8
equipment
10
91942.5
20
87550.0
30
0
11
91942.5
21
87630.0
31
0
0
LINE
8
equipment
10
91942.5
20
87630.0
30
0
11
91877.5
21
87630.0
31
0
0
LINE
8
equipment
10
91942.5
20
87550.0
30
0
11
91877.5
21
87550.0
31
0
0
LINE
8
equipment
10
91942.5
20
87800.0
30
0
11
91942.5
21
87880.0
31
0
0
LINE
8
equipment
10
91942.5
20
87880.0
30
0
11
91877.5
21
87880.0
31
0
0
LINE
8
equipment
10
91942.5
20
87800.0
30
0
11
91877.5
21
87800.0
31
0
0
LINE
8
equipment
10
91942.5
20
88050.0
30
0
11
91942.5
21
88130.0
31
0
0
LINE
8
equipment
10
91942.5
20
88130.0
30
0
11
91877.5
21
88130.0
31
0
0
LINE
8
equipment
10
91942.5
20
88050.0
30
0
11
91877.5
21
88050.0
31
0
0
LINE
8
equipment
10
86377.5
20
85880.0
30
0
11
86312.5
21
85880.0
31
0
0
LINE
8
equipment
10
86312.5
20
85800.0
30
0
11
86312.5
21
85880.0
31
0
0
LINE
8
equipment
10
86377.5
20
85800.0
30
0
11
86312.5
21
85800.0
31
0
0
LINE
8
equipment
10
86377.5
20
86130.0
30
0
11
86312.5
21
86130.0
31
0
0
LINE
8
equipment
10
86312.5
20
86050.0
30
0
11
86312.5
21
86130.0
31
0
0
LINE
8
equipment
10
86377.5
20
86050.0
30
0
11
86312.5
21
86050.0
31
0
0
LINE
8
equipment
10
86377.5
20
86380.0
30
0
11
86312.5
21
86380.0
31
0
0
LINE
8
equipment
10
86312.5
20
86300.0
30
0
11
86312.5
21
86380.0
31
0
0
LINE
8
equipment
10
86377.5
20
86300.0
30
0
11
86312.5
21
86300.0
31
0
0
LINE
8
equipment
10
86377.5
20
86630.0
30
0
11
86312.5
21
86630.0
31
0
0
LINE
8
equipment
10
86312.5
20
86550.0
30
0
11
86312.5
21
86630.0
31
0
0
LINE
8
equipment
10
86377.5
20
86550.0
30
0
11
86312.5
21
86550.0
31
0
0
LINE
8
equipment
10
86377.5
20
86880.0
30
0
11
86312.5
21
86880.0
31
0
0
LINE
8
equipment
10
86312.5
20
86800.0
30
0
11
86312.5
21
86880.0
31
0
0
LINE
8
equipment
10
86377.5
20
86800.0
30
0
11
86312.5
21
86800.0
31
0
0
LINE
8
equipment
10
86377.5
20
87130.0
30
0
11
86312.5
21
87130.0
31
0
0
LINE
8
equipment
10
86312.5
20
87050.0
30
0
11
86312.5
21
87130.0
31
0
0
LINE
8
equipment
10
86377.5
20
87050.0
30
0
11
86312.5
21
87050.0
31
0
0
LINE
8
equipment
10
86377.5
20
87380.0
30
0
11
86312.5
21
87380.0
31
0
0
LINE
8
equipment
10
86312.5
20
87300.0
30
0
11
86312.5
21
87380.0
31
0
0
LINE
8
equipment
10
86377.5
20
87300.0
30
0
11
86312.5
21
87300.0
31
0
0
LINE
8
equipment
10
86377.5
20
87630.0
30
0
11
86312.5
21
87630.0
31
0
0
LINE
8
equipment
10
86312.5
20
87550.0
30
0
11
86312.5
21
87630.0
31
0
0
LINE
8
equipment
10
86377.5
20
87550.0
30
0
11
86312.5
21
87550.0
31
0
0
LINE
8
equipment
10
86377.5
20
87880.0
30
0
11
86312.5
21
87880.0
31
0
0
LINE
8
equipment
10
86312.5
20
87800.0
30
0
11
86312.5
21
87880.0
31
0
0
LINE
8
equipment
10
86377.5
20
87800.0
30
0
11
86312.5
21
87800.0
31
0
0
LINE
8
equipment
10
86377.5
20
88130.0
30
0
11
86312.5
21
88130.0
31
0
0
LINE
8
equipment
10
86312.5
20
88050.0
30
0
11
86312.5
21
88130.0
31
0
0
LINE
8
equipment
10
86377.5
20
88050.0
30
0
11
86312.5
21
88050.0
31
0
0
LINE
8
equipment
10
65277.5
20
85000.0
30
0
11
65277.5
21
85500.0
31
0
0
LINE
8
equipment
10
65277.5
20
85500.0
30
0
11
58977.5
21
85500.0
31
0
0
LINE
8
equipment
10
58977.5
20
85000.0
30
0
11
58977.5
21
85500.0
31
0
0
LINE
8
equipment
10
65277.5
20
85000.0
30
0
11
58977.5
21
85000.0
31
0
0
LINE
8
equipment
10
64877.5
20
85500.0
30
0
11
64877.5
21
88800.0
31
0
0
LINE
8
equipment
10
64877.5
20
88800.0
30
0
11
59377.5
21
88800.0
31
0
0
LINE
8
equipment
10
59377.5
20
85500.0
30
0
11
59377.5
21
88800.0
31
0
0
LINE
8
equipment
10
59377.5
20
88200.0
30
0
11
59257.50000000001
21
88200.0
31
0
0
LINE
8
equipment
10
59257.50000000001
20
85900.0
30
0
11
59257.50000000001
21
88200.0
31
0
0
LINE
8
equipment
10
59377.5
20
85900.0
30
0
11
59257.50000000001
21
85900.0
31
0
0
LINE
8
equipment
10
62127.5
20
89100.0
30
0
11
62015.54
21
89100.0
31
0
0
LINE
8
equipment
10
62015.54
20
89100.0
30
0
11
61904.98
21
89100.0
31
0
0
LINE
8
equipment
10
61904.98
20
89100.0
30
0
11
61797.22
21
89100.0
31
0
0
LINE
8
equipment
10
61797.22
20
89100.0
30
0
11
61693.619999999995
21
89100.0
31
0
0
LINE
8
equipment
10
61693.619999999995
20
89100.0
30
0
11
61595.47
21
89100.0
31
0
0
LINE
8
equipment
10
61595.47
20
89100.0
30
0
11
61504.009999999995
21
89100.0
31
0
0
LINE
8
equipment
10
61504.009999999995
20
89100.0
30
0
11
61420.39
21
89100.0
31
0
0
LINE
8
equipment
10
61420.39
20
89100.0
30
0
11
61345.67
21
89100.0
31
0
0
LINE
8
equipment
10
61345.67
20
89100.0
30
0
11
61280.780000000006
21
89100.0
31
0
0
LINE
8
equipment
10
61280.780000000006
20
89100.0
30
0
11
61226.53
21
89100.0
31
0
0
LINE
8
equipment
10
61226.53
20
89100.0
30
0
11
61183.619999999995
21
89100.0
31
0
0
LINE
8
equipment
10
61183.619999999995
20
89100.0
30
0
11
61152.57
21
89100.0
31
0
0
LINE
8
equipment
10
61152.57
20
89100.0
30
0
11
61133.79
21
89100.0
31
0
0
LINE
8
equipment
10
61133.79
20
89100.0
30
0
11
61127.5
21
89100.0
31
0
0
LINE
8
equipment
10
63127.5
20
89100.0
30
0
11
63121.21
21
89100.0
31
0
0
LINE
8
equipment
10
63121.21
20
89100.0
30
0
11
63102.43000000001
21
89100.0
31
0
0
LINE
8
equipment
10
63102.43000000001
20
89100.0
30
0
11
63071.38
21
89100.0
31
0
0
LINE
8
equipment
10
63071.38
20
89100.0
30
0
11
63028.47
21
89100.0
31
0
0
LINE
8
equipment
10
63028.47
20
89100.0
30
0
11
62974.22
21
89100.0
31
0
0
LINE
8
equipment
10
62974.22
20
89100.0
30
0
11
62909.33
21
89100.0
31
0
0
LINE
8
equipment
10
62909.33
20
89100.0
30
0
11
62834.61
21
89100.0
31
0
0
LINE
8
equipment
10
62834.61
20
89100.0
30
0
11
62750.990000000005
21
89100.0
31
0
0
LINE
8
equipment
10
62750.990000000005
20
89100.0
30
0
11
62659.53
21
89100.0
31
0
0
LINE
8
equipment
10
62659.53
20
89100.0
30
0
11
62561.38
21
89100.0
31
0
0
LINE
8
equipment
10
62561.38
20
89100.0
30
0
11
62457.78
21
89100.0
31
0
0
LINE
8
equipment
10
62457.78
20
89100.0
30
0
11
62350.02
21
89100.0
31
0
0
LINE
8
equipment
10
62350.02
20
89100.0
30
0
11
62239.46
21
89100.0
31
0
0
LINE
8
equipment
10
62239.46
20
89100.0
30
0
11
62127.5
21
89100.0
31
0
0
LINE
8
equipment
10
64942.49999999999
20
85800.0
30
0
11
64942.49999999999
21
85880.0
31
0
0
LINE
8
equipment
10
64942.49999999999
20
85880.0
30
0
11
64877.5
21
85880.0
31
0
0
LINE
8
equipment
10
64942.49999999999
20
85800.0
30
0
11
64877.5
21
85800.0
31
0
0
LINE
8
equipment
10
64942.49999999999
20
86050.0
30
0
11
64942.49999999999
21
86130.0
31
0
0
LINE
8
equipment
10
64942.49999999999
20
86130.0
30
0
11
64877.5
21
86130.0
31
0
0
LINE
8
equipment
10
64942.49999999999
20
86050.0
30
0
11
64877.5
21
86050.0
31
0
0
LINE
8
equipment
10
64942.49999999999
20
86300.0
30
0
11
64942.49999999999
21
86380.0
31
0
0
LINE
8
equipment
10
64942.49999999999
20
86380.0
30
0
11
64877.5
21
86380.0
31
0
0
LINE
8
equipment
10
64942.49999999999
20
86300.0
30
0
11
64877.5
21
86300.0
31
0
0
LINE
8
equipment
10
64942.49999999999
20
86550.0
30
0
11
64942.49999999999
21
86630.0
31
0
0
LINE
8
equipment
10
64942.49999999999
20
86630.0
30
0
11
64877.5
21
86630.0
31
0
0
LINE
8
equipment
10
64942.49999999999
20
86550.0
30
0
11
64877.5
21
86550.0
31
0
0
LINE
8
equipment
10
64942.49999999999
20
86800.0
30
0
11
64942.49999999999
21
86880.0
31
0
0
LINE
8
equipment
10
64942.49999999999
20
86880.0
30
0
11
64877.5
21
86880.0
31
0
0
LINE
8
equipment
10
64942.49999999999
20
86800.0
30
0
11
64877.5
21
86800.0
31
0
0
LINE
8
equipment
10
64942.49999999999
20
87050.0
30
0
11
64942.49999999999
21
87130.0
31
0
0
LINE
8
equipment
10
64942.49999999999
20
87130.0
30
0
11
64877.5
21
87130.0
31
0
0
LINE
8
equipment
10
64942.49999999999
20
87050.0
30
0
11
64877.5
21
87050.0
31
0
0
LINE
8
equipment
10
64942.49999999999
20
87300.0
30
0
11
64942.49999999999
21
87380.0
31
0
0
LINE
8
equipment
10
64942.49999999999
20
87380.0
30
0
11
64877.5
21
87380.0
31
0
0
LINE
8
equipment
10
64942.49999999999
20
87300.0
30
0
11
64877.5
21
87300.0
31
0
0
LINE
8
equipment
10
64942.49999999999
20
87550.0
30
0
11
64942.49999999999
21
87630.0
31
0
0
LINE
8
equipment
10
64942.49999999999
20
87630.0
30
0
11
64877.5
21
87630.0
31
0
0
LINE
8
equipment
10
64942.49999999999
20
87550.0
30
0
11
64877.5
21
87550.0
31
0
0
LINE
8
equipment
10
64942.49999999999
20
87800.0
30
0
11
64942.49999999999
21
87880.0
31
0
0
LINE
8
equipment
10
64942.49999999999
20
87880.0
30
0
11
64877.5
21
87880.0
31
0
0
LINE
8
equipment
10
64942.49999999999
20
87800.0
30
0
11
64877.5
21
87800.0
31
0
0
LINE
8
equipment
10
64942.49999999999
20
88050.0
30
0
11
64942.49999999999
21
88130.0
31
0
0
LINE
8
equipment
10
64942.49999999999
20
88130.0
30
0
11
64877.5
21
88130.0
31
0
0
LINE
8
equipment
10
64942.49999999999
20
88050.0
30
0
11
64877.5
21
88050.0
31
0
0
LINE
8
equipment
10
59377.5
20
85880.0
30
0
11
59312.5
21
85880.0
31
0
0
LINE
8
equipment
10
59312.5
20
85800.0
30
0
11
59312.5
21
85880.0
31
0
0
LINE
8
equipment
10
59377.5
20
85800.0
30
0
11
59312.5
21
85800.0
31
0
0
LINE
8
equipment
10
59377.5
20
86130.0
30
0
11
59312.5
21
86130.0
31
0
0
LINE
8
equipment
10
59312.5
20
86050.0
30
0
11
59312.5
21
86130.0
31
0
0
LINE
8
equipment
10
59377.5
20
86050.0
30
0
11
59312.5
21
86050.0
31
0
0
LINE
8
equipment
10
59377.5
20
86380.0
30
0
11
59312.5
21
86380.0
31
0
0
LINE
8
equipment
10
59312.5
20
86300.0
30
0
11
59312.5
21
86380.0
31
0
0
LINE
8
equipment
10
59377.5
20
86300.0
30
0
11
59312.5
21
86300.0
31
0
0
LINE
8
equipment
10
59377.5
20
86630.0
30
0
11
59312.5
21
86630.0
31
0
0
LINE
8
equipment
10
59312.5
20
86550.0
30
0
11
59312.5
21
86630.0
31
0
0
LINE
8
equipment
10
59377.5
20
86550.0
30
0
11
59312.5
21
86550.0
31
0
0
LINE
8
equipment
10
59377.5
20
86880.0
30
0
11
59312.5
21
86880.0
31
0
0
LINE
8
equipment
10
59312.5
20
86800.0
30
0
11
59312.5
21
86880.0
31
0
0
LINE
8
equipment
10
59377.5
20
86800.0
30
0
11
59312.5
21
86800.0
31
0
0
LINE
8
equipment
10
59377.5
20
87130.0
30
0
11
59312.5
21
87130.0
31
0
0
LINE
8
equipment
10
59312.5
20
87050.0
30
0
11
59312.5
21
87130.0
31
0
0
LINE
8
equipment
10
59377.5
20
87050.0
30
0
11
59312.5
21
87050.0
31
0
0
LINE
8
equipment
10
59377.5
20
87380.0
30
0
11
59312.5
21
87380.0
31
0
0
LINE
8
equipment
10
59312.5
20
87300.0
30
0
11
59312.5
21
87380.0
31
0
0
LINE
8
equipment
10
59377.5
20
87300.0
30
0
11
59312.5
21
87300.0
31
0
0
LINE
8
equipment
10
59377.5
20
87630.0
30
0
11
59312.5
21
87630.0
31
0
0
LINE
8
equipment
10
59312.5
20
87550.0
30
0
11
59312.5
21
87630.0
31
0
0
LINE
8
equipment
10
59377.5
20
87550.0
30
0
11
59312.5
21
87550.0
31
0
0
LINE
8
equipment
10
59377.5
20
87880.0
30
0
11
59312.5
21
87880.0
31
0
0
LINE
8
equipment
10
59312.5
20
87800.0
30
0
11
59312.5
21
87880.0
31
0
0
LINE
8
equipment
10
59377.5
20
87800.0
30
0
11
59312.5
21
87800.0
31
0
0
LINE
8
equipment
10
59377.5
20
88130.0
30
0
11
59312.5
21
88130.0
31
0
0
LINE
8
equipment
10
59312.5
20
88050.0
30
0
11
59312.5
21
88130.0
31
0
0
LINE
8
equipment
10
59377.5
20
88050.0
30
0
11
59312.5
21
88050.0
31
0
0
LINE
8
equipment
10
129127.50000000001
20
85000.0
30
0
11
129127.50000000001
21
85600.0
31
0
0
LINE
8
equipment
10
129127.50000000001
20
85600.0
30
0
11
125127.50000000001
21
85600.0
31
0
0
LINE
8
equipment
10
125127.50000000001
20
85000.0
30
0
11
125127.50000000001
21
85600.0
31
0
0
LINE
8
equipment
10
129127.50000000001
20
85000.0
30
0
11
125127.50000000001
21
85000.0
31
0
0
LINE
8
equipment
10
127127.50000000001
20
92600.0
30
0
11
127015.54000000001
21
92600.0
31
0
0
LINE
8
equipment
10
127015.54000000001
20
92600.0
30
0
11
126904.98
21
92600.0
31
0
0
LINE
8
equipment
10
126904.98
20
92600.0
30
0
11
126797.21999999999
21
92600.0
31
0
0
LINE
8
equipment
10
126797.21999999999
20
92600.0
30
0
11
126693.62000000001
21
92600.0
31
0
0
LINE
8
equipment
10
126693.62000000001
20
92600.0
30
0
11
126595.47
21
92600.0
31
0
0
LINE
8
equipment
10
126595.47
20
92600.0
30
0
11
126504.01
21
92600.0
31
0
0
LINE
8
equipment
10
126504.01
20
92600.0
30
0
11
126420.39
21
92600.0
31
0
0
LINE
8
equipment
10
126420.39
20
92600.0
30
0
11
126345.67
21
92600.0
31
0
0
LINE
8
equipment
10
126345.67
20
92600.0
30
0
11
126280.78
21
92600.0
31
0
0
LINE
8
equipment
10
126280.78
20
92600.0
30
0
11
126226.53
21
92600.0
31
0
0
LINE
8
equipment
10
126226.53
20
92600.0
30
0
11
126183.62
21
92600.0
31
0
0
LINE
8
equipment
10
126183.62
20
92600.0
30
0
11
126152.56999999999
21
92600.0
31
0
0
LINE
8
equipment
10
126152.56999999999
20
92600.0
30
0
11
126133.79
21
92600.0
31
0
0
LINE
8
equipment
10
126133.79
20
92600.0
30
0
11
126127.50000000001
21
92600.0
31
0
0
LINE
8
equipment
10
128127.50000000001
20
92600.0
30
0
11
128121.20999999999
21
92600.0
31
0
0
LINE
8
equipment
10
128121.20999999999
20
92600.0
30
0
11
128102.43000000001
21
92600.0
31
0
0
LINE
8
equipment
10
128102.43000000001
20
92600.0
30
0
11
128071.38
21
92600.0
31
0
0
LINE
8
equipment
10
128071.38
20
92600.0
30
0
11
128028.46999999999
21
92600.0
31
0
0
LINE
8
equipment
10
128028.46999999999
20
92600.0
30
0
11
127974.22000000002
21
92600.0
31
0
0
LINE
8
equipment
10
127974.22000000002
20
92600.0
30
0
11
127909.33
21
92600.0
31
0
0
LINE
8
equipment
10
127909.33
20
92600.0
30
0
11
127834.61
21
92600.0
31
0
0
LINE
8
equipment
10
127834.61
20
92600.0
30
0
11
127750.99
21
92600.0
31
0
0
LINE
8
equipment
10
127750.99
20
92600.0
30
0
11
127659.53
21
92600.0
31
0
0
LINE
8
equipment
10
127659.53
20
92600.0
30
0
11
127561.38
21
92600.0
31
0
0
LINE
8
equipment
10
127561.38
20
92600.0
30
0
11
127457.78
21
92600.0
31
0
0
LINE
8
equipment
10
127457.78
20
92600.0
30
0
11
127350.01999999999
21
92600.0
31
0
0
LINE
8
equipment
10
127350.01999999999
20
92600.0
30
0
11
127239.46
21
92600.0
31
0
0
LINE
8
equipment
10
127239.46
20
92600.0
30
0
11
127127.50000000001
21
92600.0
31
0
0
LINE
8
equipment
10
127127.50000000001
20
93600.0
30
0
11
127049.12
21
93600.0
31
0
0
LINE
8
equipment
10
127049.12
20
93600.0
30
0
11
126971.74
21
93600.0
31
0
0
LINE
8
equipment
10
126971.74
20
93600.0
30
0
11
126896.3
21
93600.0
31
0
0
LINE
8
equipment
10
126896.3
20
93600.0
30
0
11
126823.77999999998
21
93600.0
31
0
0
LINE
8
equipment
10
126823.77999999998
20
93600.0
30
0
11
126755.08
21
93600.0
31
0
0
LINE
8
equipment
10
126755.08
20
93600.0
30
0
11
126691.06
21
93600.0
31
0
0
LINE
8
equipment
10
126691.06
20
93600.0
30
0
11
126632.53
21
93600.0
31
0
0
LINE
8
equipment
10
126632.53
20
93600.0
30
0
11
126580.22
21
93600.0
31
0
0
LINE
8
equipment
10
126580.22
20
93600.0
30
0
11
126534.79
21
93600.0
31
0
0
LINE
8
equipment
10
126534.79
20
93600.0
30
0
11
126496.82
21
93600.0
31
0
0
LINE
8
equipment
10
126496.82
20
93600.0
30
0
11
126466.78
21
93600.0
31
0
0
LINE
8
equipment
10
126466.78
20
93600.0
30
0
11
126445.04999999999
21
93600.0
31
0
0
LINE
8
equipment
10
126445.04999999999
20
93600.0
30
0
11
126431.9
21
93600.0
31
0
0
LINE
8
equipment
10
126431.9
20
93600.0
30
0
11
126427.50000000001
21
93600.0
31
0
0
LINE
8
equipment
10
127827.50000000001
20
93600.0
30
0
11
127823.1
21
93600.0
31
0
0
LINE
8
equipment
10
127823.1
20
93600.0
30
0
11
127809.95
21
93600.0
31
0
0
LINE
8
equipment
10
127809.95
20
93600.0
30
0
11
127788.22
21
93600.0
31
0
0
LINE
8
equipment
10
127788.22
20
93600.0
30
0
11
127758.18
21
93600.0
31
0
0
LINE
8
equipment
10
127758.18
20
93600.0
30
0
11
127720.20999999999
21
93600.0
31
0
0
LINE
8
equipment
10
127720.20999999999
20
93600.0
30
0
11
127674.78000000001
21
93600.0
31
0
0
LINE
8
equipment
10
127674.78000000001
20
93600.0
30
0
11
127622.47
21
93600.0
31
0
0
LINE
8
equipment
10
127622.47
20
93600.0
30
0
11
127563.94
21
93600.0
31
0
0
LINE
8
equipment
10
127563.94
20
93600.0
30
0
11
127499.92
21
93600.0
31
0
0
LINE
8
equipment
10
127499.92
20
93600.0
30
0
11
127431.22
21
93600.0
31
0
0
LINE
8
equipment
10
127431.22
20
93600.0
30
0
11
127358.7
21
93600.0
31
0
0
LINE
8
equipment
10
127358.7
20
93600.0
30
0
11
127283.26
21
93600.0
31
0
0
LINE
8
equipment
10
127283.26
20
93600.0
30
0
11
127205.88
21
93600.0
31
0
0
LINE
8
equipment
10
127205.88
20
93600.0
30
0
11
127127.50000000001
21
93600.0
31
0
0
LINE
8
grid
10
134172.5
20
35400.0
30
0
11
140572.5
21
35400.0
31
0
0
TEXT
8
annotation
10
136872.5
20
35879.99999999999
30
0
40
1000.0
1
B1 -7.20m
50
0
0
LINE
8
grid
10
134172.5
20
57400.0
30
0
11
140572.5
21
57400.0
31
0
0
TEXT
8
annotation
10
136372.5
20
57879.99999999999
30
0
40
1000.0
1
F1 +14.80m
50
0
0
LINE
8
grid
10
134172.5
20
72200.0
30
0
11
140572.5
21
72200.0
31
0
0
TEXT
8
annotation
10
136372.5
20
72680.0
30
0
40
1000.0
1
F2 +29.60m
50
0
0
LINE
8
grid
10
134172.5
20
84400.0
30
0
11
140572.5
21
84400.0
31
0
0
TEXT
8
annotation
10
136372.5
20
84880.0
30
0
40
1000.0
1
RF +41.80m
50
0
0
LINE
8
dimension
10
30627.499999999996
20
31600.0
30
0
11
133372.5
21
31600.0
31
0
0
LINE
8
dimension
10
30227.499999999996
20
31200.0
30
0
11
31027.499999999996
21
32000.0
31
0
0
LINE
8
dimension
10
132972.5
20
31200.0
30
0
11
133772.5
21
32000.0
31
0
0
TEXT
8
annotation
10
75100.0
20
32200.0
30
0
40
1200.0
1
102,745 mm shown extent
50
0
0
LINE
8
frame
10
5600
20
23600
30
0
11
162400
21
23600
31
0
0
TEXT
8
annotation
10
5600
20
20400
30
0
40
1400.0
1
CONCEPT DESIGN | IMAGE-INFERRED | NOT FOR CONSTRUCTION
50
0
0
TEXT
8
annotation
10
5600
20
15200.0
30
0
40
1060.0
1
Source: two campus AI images + fab1.jpg; official analogues documented in analysis/cad/.
50
0
0
TEXT
8
annotation
10
5600
20
13440.00000000001
30
0
40
1060.0
1
CAD model in mm; site coordinates X east, Y north, Z up. Internal layouts and member sizes are design estimates.
50
0
0
TEXT
8
annotation
10
5600
20
11679.999999999996
30
0
40
1060.0
1
Plans/sections are extracted from actual FreeCAD BRep. Elevations project component outlines; hidden edges omitted per component.
50
0
0
TEXT
8
annotation
10
5600
20
9920.000000000004
30
0
40
1060.0
1
FAB source levels preserved, unverified: foundation -12.2 / B1 -7.2 / F1 +14.8 / F2 +29.6 / RF +41.8 m.
50
0
0
TEXT
8
annotation
10
5600
20
8159.999999999991
30
0
40
1060.0
1
No process certification, structural verification, measured survey, or construction approval is implied.
50
0
0
TEXT
8
annotation
10
142800.0
20
4400
30
0
40
1120.0
1
2026-09-30  |  FreeCAD 1.1.4  |  mm
50
0
0
ENDSEC
0
EOF
