0
SECTION
2
HEADER
9
$ACADVER
1
AC1009
9
$INSUNITS
70
4
0
ENDSEC
0
SECTION
2
ENTITIES
0
LINE
8
frame
10
5250
20
217500
30
0
11
309750
21
217500
31
0
0
LINE
8
frame
10
309750
20
217500
30
0
11
309750
21
5250
31
0
0
LINE
8
frame
10
309750
20
5250
30
0
11
5250
21
5250
31
0
0
LINE
8
frame
10
5250
20
5250
30
0
11
5250
21
217500
31
0
0
TEXT
8
annotation
10
10500
20
209250
30
0
40
3150.0
1
PHOENIX SCIENCE PARK
50
0
0
TEXT
8
annotation
10
10500
20
203250
30
0
40
3750.0
1
FAB2 / North elevation
50
0
0
TEXT
8
annotation
10
290100.0
20
209250
30
0
40
2400.0
1
A3  |  1:750
50
0
0
TEXT
8
annotation
10
280875.0
20
203250
30
0
40
2250.0
1
CAD-FAB2-NORTH  /  R1
50
0
0
LINE
8
frame
10
10500
20
199500
30
0
11
304500
21
199500
31
0
0
LINE
8
roof
10
278750.0
20
141100.0
30
0
11
278750.0
21
141700.0
31
0
0
LINE
8
roof
10
278750.0
20
141700.0
30
0
11
28750.000000000007
21
141700.0
31
0
0
LINE
8
roof
10
278750.0
20
141100.0
30
0
11
28750.000000000007
21
141100.0
31
0
0
LINE
8
roof
10
28750.000000000007
20
141100.0
30
0
11
28750.000000000007
21
141700.0
31
0
0
LINE
8
envelope
10
278750.0
20
92700.0
30
0
11
278750.0
21
141100.0
31
0
0
LINE
8
envelope
10
278750.0
20
92700.0
30
0
11
28750.000000000007
21
92700.0
31
0
0
LINE
8
envelope
10
28750.000000000007
20
92700.0
30
0
11
28750.000000000007
21
141100.0
31
0
0
LINE
8
envelope
10
249650.0
20
138900.0
30
0
11
247850.00000000003
21
138900.0
31
0
0
LINE
8
envelope
10
249650.0
20
138900.0
30
0
11
249650.0
21
94900.0
31
0
0
LINE
8
envelope
10
247850.00000000003
20
138900.0
30
0
11
247850.00000000003
21
94900.0
31
0
0
LINE
8
envelope
10
249650.0
20
94900.0
30
0
11
247850.00000000003
21
94900.0
31
0
0
LINE
8
envelope
10
154650.0
20
138900.0
30
0
11
152850.0
21
138900.0
31
0
0
LINE
8
envelope
10
154650.0
20
138900.0
30
0
11
154650.0
21
94900.0
31
0
0
LINE
8
envelope
10
152850.0
20
138900.0
30
0
11
152850.0
21
94900.0
31
0
0
LINE
8
envelope
10
154650.0
20
94900.0
30
0
11
152850.0
21
94900.0
31
0
0
LINE
8
envelope
10
59650.0
20
138900.0
30
0
11
57850.00000000001
21
138900.0
31
0
0
LINE
8
envelope
10
57850.00000000001
20
138900.0
30
0
11
57850.00000000001
21
94900.0
31
0
0
LINE
8
envelope
10
59650.0
20
94900.0
30
0
11
57850.00000000001
21
94900.0
31
0
0
LINE
8
envelope
10
59650.0
20
138900.0
30
0
11
59650.0
21
94900.0
31
0
0
LINE
8
glazing
10
249600.0
20
94900.0
30
0
11
249600.0
21
138900.0
31
0
0
LINE
8
glazing
10
247899.99999999997
20
94900.0
30
0
11
247899.99999999997
21
138900.0
31
0
0
LINE
8
glazing
10
249600.0
20
94900.0
30
0
11
247899.99999999997
21
94900.0
31
0
0
LINE
8
glazing
10
249600.0
20
138900.0
30
0
11
247899.99999999997
21
138900.0
31
0
0
LINE
8
glazing
10
154600.0
20
94900.0
30
0
11
154600.0
21
138900.0
31
0
0
LINE
8
glazing
10
152900.0
20
94900.0
30
0
11
152900.0
21
138900.0
31
0
0
LINE
8
glazing
10
154600.0
20
94900.0
30
0
11
152900.0
21
94900.0
31
0
0
LINE
8
glazing
10
154600.0
20
138900.0
30
0
11
152900.0
21
138900.0
31
0
0
LINE
8
glazing
10
59600.0
20
94900.0
30
0
11
59600.0
21
138900.0
31
0
0
LINE
8
glazing
10
57900.0
20
94900.0
30
0
11
57900.0
21
138900.0
31
0
0
LINE
8
glazing
10
59600.0
20
94900.0
30
0
11
57900.0
21
94900.0
31
0
0
LINE
8
glazing
10
59600.0
20
138900.0
30
0
11
57900.0
21
138900.0
31
0
0
LINE
8
envelope
10
278772.5
20
92700.0
30
0
11
278772.5
21
141100.0
31
0
0
LINE
8
envelope
10
278727.5
20
92700.0
30
0
11
278727.5
21
141100.0
31
0
0
LINE
8
envelope
10
278772.5
20
92700.0
30
0
11
278727.5
21
92700.0
31
0
0
LINE
8
envelope
10
278772.5
20
141100.0
30
0
11
278727.5
21
141100.0
31
0
0
LINE
8
envelope
10
277272.5
20
92700.0
30
0
11
277272.5
21
141100.0
31
0
0
LINE
8
envelope
10
277227.5
20
92700.0
30
0
11
277227.5
21
141100.0
31
0
0
LINE
8
envelope
10
277272.5
20
92700.0
30
0
11
277227.5
21
92700.0
31
0
0
LINE
8
envelope
10
277272.5
20
141100.0
30
0
11
277227.5
21
141100.0
31
0
0
LINE
8
envelope
10
275772.5
20
92700.0
30
0
11
275772.5
21
141100.0
31
0
0
LINE
8
envelope
10
275727.5
20
92700.0
30
0
11
275727.5
21
141100.0
31
0
0
LINE
8
envelope
10
275772.5
20
92700.0
30
0
11
275727.5
21
92700.0
31
0
0
LINE
8
envelope
10
275772.5
20
141100.0
30
0
11
275727.5
21
141100.0
31
0
0
LINE
8
envelope
10
274272.5
20
92700.0
30
0
11
274272.5
21
141100.0
31
0
0
LINE
8
envelope
10
274227.5
20
92700.0
30
0
11
274227.5
21
141100.0
31
0
0
LINE
8
envelope
10
274272.5
20
92700.0
30
0
11
274227.5
21
92700.0
31
0
0
LINE
8
envelope
10
274272.5
20
141100.0
30
0
11
274227.5
21
141100.0
31
0
0
LINE
8
envelope
10
272772.5
20
92700.0
30
0
11
272772.5
21
141100.0
31
0
0
LINE
8
envelope
10
272727.5
20
92700.0
30
0
11
272727.5
21
141100.0
31
0
0
LINE
8
envelope
10
272772.5
20
92700.0
30
0
11
272727.5
21
92700.0
31
0
0
LINE
8
envelope
10
272772.5
20
141100.0
30
0
11
272727.5
21
141100.0
31
0
0
LINE
8
envelope
10
271272.5
20
92700.0
30
0
11
271272.5
21
141100.0
31
0
0
LINE
8
envelope
10
271227.5
20
92700.0
30
0
11
271227.5
21
141100.0
31
0
0
LINE
8
envelope
10
271272.5
20
92700.0
30
0
11
271227.5
21
92700.0
31
0
0
LINE
8
envelope
10
271272.5
20
141100.0
30
0
11
271227.5
21
141100.0
31
0
0
LINE
8
envelope
10
269772.5
20
92700.0
30
0
11
269772.5
21
141100.0
31
0
0
LINE
8
envelope
10
269727.5
20
92700.0
30
0
11
269727.5
21
141100.0
31
0
0
LINE
8
envelope
10
269772.5
20
92700.0
30
0
11
269727.5
21
92700.0
31
0
0
LINE
8
envelope
10
269772.5
20
141100.0
30
0
11
269727.5
21
141100.0
31
0
0
LINE
8
envelope
10
268272.5
20
92700.0
30
0
11
268272.5
21
141100.0
31
0
0
LINE
8
envelope
10
268227.5
20
92700.0
30
0
11
268227.5
21
141100.0
31
0
0
LINE
8
envelope
10
268272.5
20
92700.0
30
0
11
268227.5
21
92700.0
31
0
0
LINE
8
envelope
10
268272.5
20
141100.0
30
0
11
268227.5
21
141100.0
31
0
0
LINE
8
envelope
10
266772.5
20
92700.0
30
0
11
266772.5
21
141100.0
31
0
0
LINE
8
envelope
10
266727.5
20
92700.0
30
0
11
266727.5
21
141100.0
31
0
0
LINE
8
envelope
10
266772.5
20
92700.0
30
0
11
266727.5
21
92700.0
31
0
0
LINE
8
envelope
10
266772.5
20
141100.0
30
0
11
266727.5
21
141100.0
31
0
0
LINE
8
envelope
10
265272.5
20
92700.0
30
0
11
265272.5
21
141100.0
31
0
0
LINE
8
envelope
10
265227.5
20
92700.0
30
0
11
265227.5
21
141100.0
31
0
0
LINE
8
envelope
10
265272.5
20
92700.0
30
0
11
265227.5
21
92700.0
31
0
0
LINE
8
envelope
10
265272.5
20
141100.0
30
0
11
265227.5
21
141100.0
31
0
0
LINE
8
envelope
10
263772.5
20
92700.0
30
0
11
263772.5
21
141100.0
31
0
0
LINE
8
envelope
10
263727.5
20
92700.0
30
0
11
263727.5
21
141100.0
31
0
0
LINE
8
envelope
10
263772.5
20
92700.0
30
0
11
263727.5
21
92700.0
31
0
0
LINE
8
envelope
10
263772.5
20
141100.0
30
0
11
263727.5
21
141100.0
31
0
0
LINE
8
envelope
10
262272.5
20
92700.0
30
0
11
262272.5
21
141100.0
31
0
0
LINE
8
envelope
10
262227.5
20
92700.0
30
0
11
262227.5
21
141100.0
31
0
0
LINE
8
envelope
10
262272.5
20
92700.0
30
0
11
262227.5
21
92700.0
31
0
0
LINE
8
envelope
10
262272.5
20
141100.0
30
0
11
262227.5
21
141100.0
31
0
0
LINE
8
envelope
10
260772.5
20
92700.0
30
0
11
260772.5
21
141100.0
31
0
0
LINE
8
envelope
10
260727.5
20
92700.0
30
0
11
260727.5
21
141100.0
31
0
0
LINE
8
envelope
10
260772.5
20
92700.0
30
0
11
260727.5
21
92700.0
31
0
0
LINE
8
envelope
10
260772.5
20
141100.0
30
0
11
260727.5
21
141100.0
31
0
0
LINE
8
envelope
10
259272.5
20
92700.0
30
0
11
259272.5
21
141100.0
31
0
0
LINE
8
envelope
10
259227.5
20
92700.0
30
0
11
259227.5
21
141100.0
31
0
0
LINE
8
envelope
10
259272.5
20
92700.0
30
0
11
259227.5
21
92700.0
31
0
0
LINE
8
envelope
10
259272.5
20
141100.0
30
0
11
259227.5
21
141100.0
31
0
0
LINE
8
envelope
10
257772.5
20
92700.0
30
0
11
257772.5
21
141100.0
31
0
0
LINE
8
envelope
10
257727.5
20
92700.0
30
0
11
257727.5
21
141100.0
31
0
0
LINE
8
envelope
10
257772.5
20
92700.0
30
0
11
257727.5
21
92700.0
31
0
0
LINE
8
envelope
10
257772.5
20
141100.0
30
0
11
257727.5
21
141100.0
31
0
0
LINE
8
envelope
10
256272.5
20
92700.0
30
0
11
256272.5
21
141100.0
31
0
0
LINE
8
envelope
10
256227.5
20
92700.0
30
0
11
256227.5
21
141100.0
31
0
0
LINE
8
envelope
10
256272.5
20
92700.0
30
0
11
256227.5
21
92700.0
31
0
0
LINE
8
envelope
10
256272.5
20
141100.0
30
0
11
256227.5
21
141100.0
31
0
0
LINE
8
envelope
10
254772.5
20
92700.0
30
0
11
254772.5
21
141100.0
31
0
0
LINE
8
envelope
10
254727.5
20
92700.0
30
0
11
254727.5
21
141100.0
31
0
0
LINE
8
envelope
10
254772.5
20
92700.0
30
0
11
254727.5
21
92700.0
31
0
0
LINE
8
envelope
10
254772.5
20
141100.0
30
0
11
254727.5
21
141100.0
31
0
0
LINE
8
envelope
10
253272.5
20
92700.0
30
0
11
253272.5
21
141100.0
31
0
0
LINE
8
envelope
10
253227.5
20
92700.0
30
0
11
253227.5
21
141100.0
31
0
0
LINE
8
envelope
10
253272.5
20
92700.0
30
0
11
253227.5
21
92700.0
31
0
0
LINE
8
envelope
10
253272.5
20
141100.0
30
0
11
253227.5
21
141100.0
31
0
0
LINE
8
envelope
10
251772.5
20
92700.0
30
0
11
251772.5
21
141100.0
31
0
0
LINE
8
envelope
10
251727.5
20
92700.0
30
0
11
251727.5
21
141100.0
31
0
0
LINE
8
envelope
10
251772.5
20
92700.0
30
0
11
251727.5
21
92700.0
31
0
0
LINE
8
envelope
10
251772.5
20
141100.0
30
0
11
251727.5
21
141100.0
31
0
0
LINE
8
envelope
10
250272.5
20
92700.0
30
0
11
250272.5
21
141100.0
31
0
0
LINE
8
envelope
10
250227.5
20
92700.0
30
0
11
250227.5
21
141100.0
31
0
0
LINE
8
envelope
10
250272.5
20
92700.0
30
0
11
250227.5
21
92700.0
31
0
0
LINE
8
envelope
10
250272.5
20
141100.0
30
0
11
250227.5
21
141100.0
31
0
0
LINE
8
envelope
10
248772.5
20
92700.0
30
0
11
248772.5
21
141100.0
31
0
0
LINE
8
envelope
10
248727.5
20
92700.0
30
0
11
248727.5
21
141100.0
31
0
0
LINE
8
envelope
10
248772.5
20
92700.0
30
0
11
248727.5
21
92700.0
31
0
0
LINE
8
envelope
10
248772.5
20
141100.0
30
0
11
248727.5
21
141100.0
31
0
0
LINE
8
envelope
10
247272.5
20
92700.0
30
0
11
247272.5
21
141100.0
31
0
0
LINE
8
envelope
10
247227.5
20
92700.0
30
0
11
247227.5
21
141100.0
31
0
0
LINE
8
envelope
10
247272.5
20
92700.0
30
0
11
247227.5
21
92700.0
31
0
0
LINE
8
envelope
10
247272.5
20
141100.0
30
0
11
247227.5
21
141100.0
31
0
0
LINE
8
envelope
10
245772.5
20
92700.0
30
0
11
245772.5
21
141100.0
31
0
0
LINE
8
envelope
10
245727.5
20
92700.0
30
0
11
245727.5
21
141100.0
31
0
0
LINE
8
envelope
10
245772.5
20
92700.0
30
0
11
245727.5
21
92700.0
31
0
0
LINE
8
envelope
10
245772.5
20
141100.0
30
0
11
245727.5
21
141100.0
31
0
0
LINE
8
envelope
10
244272.5
20
92700.0
30
0
11
244272.5
21
141100.0
31
0
0
LINE
8
envelope
10
244227.5
20
92700.0
30
0
11
244227.5
21
141100.0
31
0
0
LINE
8
envelope
10
244272.5
20
92700.0
30
0
11
244227.5
21
92700.0
31
0
0
LINE
8
envelope
10
244272.5
20
141100.0
30
0
11
244227.5
21
141100.0
31
0
0
LINE
8
envelope
10
242772.5
20
92700.0
30
0
11
242772.5
21
141100.0
31
0
0
LINE
8
envelope
10
242727.5
20
92700.0
30
0
11
242727.5
21
141100.0
31
0
0
LINE
8
envelope
10
242772.5
20
92700.0
30
0
11
242727.5
21
92700.0
31
0
0
LINE
8
envelope
10
242772.5
20
141100.0
30
0
11
242727.5
21
141100.0
31
0
0
LINE
8
envelope
10
241272.5
20
92700.0
30
0
11
241272.5
21
141100.0
31
0
0
LINE
8
envelope
10
241227.5
20
92700.0
30
0
11
241227.5
21
141100.0
31
0
0
LINE
8
envelope
10
241272.5
20
92700.0
30
0
11
241227.5
21
92700.0
31
0
0
LINE
8
envelope
10
241272.5
20
141100.0
30
0
11
241227.5
21
141100.0
31
0
0
LINE
8
envelope
10
239772.5
20
92700.0
30
0
11
239772.5
21
141100.0
31
0
0
LINE
8
envelope
10
239727.5
20
92700.0
30
0
11
239727.5
21
141100.0
31
0
0
LINE
8
envelope
10
239772.5
20
92700.0
30
0
11
239727.5
21
92700.0
31
0
0
LINE
8
envelope
10
239772.5
20
141100.0
30
0
11
239727.5
21
141100.0
31
0
0
LINE
8
envelope
10
238272.5
20
92700.0
30
0
11
238272.5
21
141100.0
31
0
0
LINE
8
envelope
10
238227.5
20
92700.0
30
0
11
238227.5
21
141100.0
31
0
0
LINE
8
envelope
10
238272.5
20
92700.0
30
0
11
238227.5
21
92700.0
31
0
0
LINE
8
envelope
10
238272.5
20
141100.0
30
0
11
238227.5
21
141100.0
31
0
0
LINE
8
envelope
10
236772.5
20
92700.0
30
0
11
236772.5
21
141100.0
31
0
0
LINE
8
envelope
10
236727.5
20
92700.0
30
0
11
236727.5
21
141100.0
31
0
0
LINE
8
envelope
10
236772.5
20
92700.0
30
0
11
236727.5
21
92700.0
31
0
0
LINE
8
envelope
10
236772.5
20
141100.0
30
0
11
236727.5
21
141100.0
31
0
0
LINE
8
envelope
10
235272.5
20
92700.0
30
0
11
235272.5
21
141100.0
31
0
0
LINE
8
envelope
10
235227.5
20
92700.0
30
0
11
235227.5
21
141100.0
31
0
0
LINE
8
envelope
10
235272.5
20
92700.0
30
0
11
235227.5
21
92700.0
31
0
0
LINE
8
envelope
10
235272.5
20
141100.0
30
0
11
235227.5
21
141100.0
31
0
0
LINE
8
envelope
10
233772.5
20
92700.0
30
0
11
233772.5
21
141100.0
31
0
0
LINE
8
envelope
10
233727.5
20
92700.0
30
0
11
233727.5
21
141100.0
31
0
0
LINE
8
envelope
10
233772.5
20
92700.0
30
0
11
233727.5
21
92700.0
31
0
0
LINE
8
envelope
10
233772.5
20
141100.0
30
0
11
233727.5
21
141100.0
31
0
0
LINE
8
envelope
10
232272.5
20
92700.0
30
0
11
232272.5
21
141100.0
31
0
0
LINE
8
envelope
10
232227.5
20
92700.0
30
0
11
232227.5
21
141100.0
31
0
0
LINE
8
envelope
10
232272.5
20
92700.0
30
0
11
232227.5
21
92700.0
31
0
0
LINE
8
envelope
10
232272.5
20
141100.0
30
0
11
232227.5
21
141100.0
31
0
0
LINE
8
envelope
10
230772.5
20
92700.0
30
0
11
230772.5
21
141100.0
31
0
0
LINE
8
envelope
10
230727.5
20
92700.0
30
0
11
230727.5
21
141100.0
31
0
0
LINE
8
envelope
10
230772.5
20
92700.0
30
0
11
230727.5
21
92700.0
31
0
0
LINE
8
envelope
10
230772.5
20
141100.0
30
0
11
230727.5
21
141100.0
31
0
0
LINE
8
envelope
10
229272.5
20
92700.0
30
0
11
229272.5
21
141100.0
31
0
0
LINE
8
envelope
10
229227.5
20
92700.0
30
0
11
229227.5
21
141100.0
31
0
0
LINE
8
envelope
10
229272.5
20
92700.0
30
0
11
229227.5
21
92700.0
31
0
0
LINE
8
envelope
10
229272.5
20
141100.0
30
0
11
229227.5
21
141100.0
31
0
0
LINE
8
envelope
10
227772.5
20
92700.0
30
0
11
227772.5
21
141100.0
31
0
0
LINE
8
envelope
10
227727.5
20
92700.0
30
0
11
227727.5
21
141100.0
31
0
0
LINE
8
envelope
10
227772.5
20
92700.0
30
0
11
227727.5
21
92700.0
31
0
0
LINE
8
envelope
10
227772.5
20
141100.0
30
0
11
227727.5
21
141100.0
31
0
0
LINE
8
envelope
10
226272.5
20
92700.0
30
0
11
226272.5
21
141100.0
31
0
0
LINE
8
envelope
10
226227.5
20
92700.0
30
0
11
226227.5
21
141100.0
31
0
0
LINE
8
envelope
10
226272.5
20
92700.0
30
0
11
226227.5
21
92700.0
31
0
0
LINE
8
envelope
10
226272.5
20
141100.0
30
0
11
226227.5
21
141100.0
31
0
0
LINE
8
envelope
10
224772.5
20
92700.0
30
0
11
224772.5
21
141100.0
31
0
0
LINE
8
envelope
10
224727.5
20
92700.0
30
0
11
224727.5
21
141100.0
31
0
0
LINE
8
envelope
10
224772.5
20
92700.0
30
0
11
224727.5
21
92700.0
31
0
0
LINE
8
envelope
10
224772.5
20
141100.0
30
0
11
224727.5
21
141100.0
31
0
0
LINE
8
envelope
10
223272.5
20
92700.0
30
0
11
223272.5
21
141100.0
31
0
0
LINE
8
envelope
10
223227.5
20
92700.0
30
0
11
223227.5
21
141100.0
31
0
0
LINE
8
envelope
10
223272.5
20
92700.0
30
0
11
223227.5
21
92700.0
31
0
0
LINE
8
envelope
10
223272.5
20
141100.0
30
0
11
223227.5
21
141100.0
31
0
0
LINE
8
envelope
10
221772.5
20
92700.0
30
0
11
221772.5
21
141100.0
31
0
0
LINE
8
envelope
10
221727.5
20
92700.0
30
0
11
221727.5
21
141100.0
31
0
0
LINE
8
envelope
10
221772.5
20
92700.0
30
0
11
221727.5
21
92700.0
31
0
0
LINE
8
envelope
10
221772.5
20
141100.0
30
0
11
221727.5
21
141100.0
31
0
0
LINE
8
envelope
10
220272.5
20
92700.0
30
0
11
220272.5
21
141100.0
31
0
0
LINE
8
envelope
10
220227.5
20
92700.0
30
0
11
220227.5
21
141100.0
31
0
0
LINE
8
envelope
10
220272.5
20
92700.0
30
0
11
220227.5
21
92700.0
31
0
0
LINE
8
envelope
10
220272.5
20
141100.0
30
0
11
220227.5
21
141100.0
31
0
0
LINE
8
envelope
10
218772.5
20
92700.0
30
0
11
218772.5
21
141100.0
31
0
0
LINE
8
envelope
10
218727.5
20
92700.0
30
0
11
218727.5
21
141100.0
31
0
0
LINE
8
envelope
10
218772.5
20
92700.0
30
0
11
218727.5
21
92700.0
31
0
0
LINE
8
envelope
10
218772.5
20
141100.0
30
0
11
218727.5
21
141100.0
31
0
0
LINE
8
envelope
10
217272.5
20
92700.0
30
0
11
217272.5
21
141100.0
31
0
0
LINE
8
envelope
10
217227.5
20
92700.0
30
0
11
217227.5
21
141100.0
31
0
0
LINE
8
envelope
10
217272.5
20
92700.0
30
0
11
217227.5
21
92700.0
31
0
0
LINE
8
envelope
10
217272.5
20
141100.0
30
0
11
217227.5
21
141100.0
31
0
0
LINE
8
envelope
10
215772.5
20
92700.0
30
0
11
215772.5
21
141100.0
31
0
0
LINE
8
envelope
10
215727.5
20
92700.0
30
0
11
215727.5
21
141100.0
31
0
0
LINE
8
envelope
10
215772.5
20
92700.0
30
0
11
215727.5
21
92700.0
31
0
0
LINE
8
envelope
10
215772.5
20
141100.0
30
0
11
215727.5
21
141100.0
31
0
0
LINE
8
envelope
10
214272.5
20
92700.0
30
0
11
214272.5
21
141100.0
31
0
0
LINE
8
envelope
10
214227.5
20
92700.0
30
0
11
214227.5
21
141100.0
31
0
0
LINE
8
envelope
10
214272.5
20
92700.0
30
0
11
214227.5
21
92700.0
31
0
0
LINE
8
envelope
10
214272.5
20
141100.0
30
0
11
214227.5
21
141100.0
31
0
0
LINE
8
envelope
10
212772.5
20
92700.0
30
0
11
212772.5
21
141100.0
31
0
0
LINE
8
envelope
10
212727.5
20
92700.0
30
0
11
212727.5
21
141100.0
31
0
0
LINE
8
envelope
10
212772.5
20
92700.0
30
0
11
212727.5
21
92700.0
31
0
0
LINE
8
envelope
10
212772.5
20
141100.0
30
0
11
212727.5
21
141100.0
31
0
0
LINE
8
envelope
10
211272.5
20
92700.0
30
0
11
211272.5
21
141100.0
31
0
0
LINE
8
envelope
10
211227.5
20
92700.0
30
0
11
211227.5
21
141100.0
31
0
0
LINE
8
envelope
10
211272.5
20
92700.0
30
0
11
211227.5
21
92700.0
31
0
0
LINE
8
envelope
10
211272.5
20
141100.0
30
0
11
211227.5
21
141100.0
31
0
0
LINE
8
envelope
10
209772.5
20
92700.0
30
0
11
209772.5
21
141100.0
31
0
0
LINE
8
envelope
10
209727.5
20
92700.0
30
0
11
209727.5
21
141100.0
31
0
0
LINE
8
envelope
10
209772.5
20
92700.0
30
0
11
209727.5
21
92700.0
31
0
0
LINE
8
envelope
10
209772.5
20
141100.0
30
0
11
209727.5
21
141100.0
31
0
0
LINE
8
envelope
10
208272.5
20
92700.0
30
0
11
208272.5
21
141100.0
31
0
0
LINE
8
envelope
10
208227.5
20
92700.0
30
0
11
208227.5
21
141100.0
31
0
0
LINE
8
envelope
10
208272.5
20
92700.0
30
0
11
208227.5
21
92700.0
31
0
0
LINE
8
envelope
10
208272.5
20
141100.0
30
0
11
208227.5
21
141100.0
31
0
0
LINE
8
envelope
10
206772.5
20
92700.0
30
0
11
206772.5
21
141100.0
31
0
0
LINE
8
envelope
10
206727.5
20
92700.0
30
0
11
206727.5
21
141100.0
31
0
0
LINE
8
envelope
10
206772.5
20
92700.0
30
0
11
206727.5
21
92700.0
31
0
0
LINE
8
envelope
10
206772.5
20
141100.0
30
0
11
206727.5
21
141100.0
31
0
0
LINE
8
envelope
10
205272.5
20
92700.0
30
0
11
205272.5
21
141100.0
31
0
0
LINE
8
envelope
10
205227.5
20
92700.0
30
0
11
205227.5
21
141100.0
31
0
0
LINE
8
envelope
10
205272.5
20
92700.0
30
0
11
205227.5
21
92700.0
31
0
0
LINE
8
envelope
10
205272.5
20
141100.0
30
0
11
205227.5
21
141100.0
31
0
0
LINE
8
envelope
10
203772.5
20
92700.0
30
0
11
203772.5
21
141100.0
31
0
0
LINE
8
envelope
10
203727.5
20
92700.0
30
0
11
203727.5
21
141100.0
31
0
0
LINE
8
envelope
10
203772.5
20
92700.0
30
0
11
203727.5
21
92700.0
31
0
0
LINE
8
envelope
10
203772.5
20
141100.0
30
0
11
203727.5
21
141100.0
31
0
0
LINE
8
envelope
10
202272.5
20
92700.0
30
0
11
202272.5
21
141100.0
31
0
0
LINE
8
envelope
10
202227.5
20
92700.0
30
0
11
202227.5
21
141100.0
31
0
0
LINE
8
envelope
10
202272.5
20
92700.0
30
0
11
202227.5
21
92700.0
31
0
0
LINE
8
envelope
10
202272.5
20
141100.0
30
0
11
202227.5
21
141100.0
31
0
0
LINE
8
envelope
10
200772.5
20
92700.0
30
0
11
200772.5
21
141100.0
31
0
0
LINE
8
envelope
10
200727.5
20
92700.0
30
0
11
200727.5
21
141100.0
31
0
0
LINE
8
envelope
10
200772.5
20
92700.0
30
0
11
200727.5
21
92700.0
31
0
0
LINE
8
envelope
10
200772.5
20
141100.0
30
0
11
200727.5
21
141100.0
31
0
0
LINE
8
envelope
10
199272.5
20
92700.0
30
0
11
199272.5
21
141100.0
31
0
0
LINE
8
envelope
10
199227.5
20
92700.0
30
0
11
199227.5
21
141100.0
31
0
0
LINE
8
envelope
10
199272.5
20
92700.0
30
0
11
199227.5
21
92700.0
31
0
0
LINE
8
envelope
10
199272.5
20
141100.0
30
0
11
199227.5
21
141100.0
31
0
0
LINE
8
envelope
10
197772.5
20
92700.0
30
0
11
197772.5
21
141100.0
31
0
0
LINE
8
envelope
10
197727.5
20
92700.0
30
0
11
197727.5
21
141100.0
31
0
0
LINE
8
envelope
10
197772.5
20
92700.0
30
0
11
197727.5
21
92700.0
31
0
0
LINE
8
envelope
10
197772.5
20
141100.0
30
0
11
197727.5
21
141100.0
31
0
0
LINE
8
envelope
10
196272.5
20
92700.0
30
0
11
196272.5
21
141100.0
31
0
0
LINE
8
envelope
10
196227.5
20
92700.0
30
0
11
196227.5
21
141100.0
31
0
0
LINE
8
envelope
10
196272.5
20
92700.0
30
0
11
196227.5
21
92700.0
31
0
0
LINE
8
envelope
10
196272.5
20
141100.0
30
0
11
196227.5
21
141100.0
31
0
0
LINE
8
envelope
10
194772.5
20
92700.0
30
0
11
194772.5
21
141100.0
31
0
0
LINE
8
envelope
10
194727.5
20
92700.0
30
0
11
194727.5
21
141100.0
31
0
0
LINE
8
envelope
10
194772.5
20
92700.0
30
0
11
194727.5
21
92700.0
31
0
0
LINE
8
envelope
10
194772.5
20
141100.0
30
0
11
194727.5
21
141100.0
31
0
0
LINE
8
envelope
10
193272.5
20
92700.0
30
0
11
193272.5
21
141100.0
31
0
0
LINE
8
envelope
10
193227.5
20
92700.0
30
0
11
193227.5
21
141100.0
31
0
0
LINE
8
envelope
10
193272.5
20
92700.0
30
0
11
193227.5
21
92700.0
31
0
0
LINE
8
envelope
10
193272.5
20
141100.0
30
0
11
193227.5
21
141100.0
31
0
0
LINE
8
envelope
10
191772.5
20
92700.0
30
0
11
191772.5
21
141100.0
31
0
0
LINE
8
envelope
10
191727.5
20
92700.0
30
0
11
191727.5
21
141100.0
31
0
0
LINE
8
envelope
10
191772.5
20
92700.0
30
0
11
191727.5
21
92700.0
31
0
0
LINE
8
envelope
10
191772.5
20
141100.0
30
0
11
191727.5
21
141100.0
31
0
0
LINE
8
envelope
10
190272.5
20
92700.0
30
0
11
190272.5
21
141100.0
31
0
0
LINE
8
envelope
10
190227.5
20
92700.0
30
0
11
190227.5
21
141100.0
31
0
0
LINE
8
envelope
10
190272.5
20
92700.0
30
0
11
190227.5
21
92700.0
31
0
0
LINE
8
envelope
10
190272.5
20
141100.0
30
0
11
190227.5
21
141100.0
31
0
0
LINE
8
envelope
10
188772.5
20
92700.0
30
0
11
188772.5
21
141100.0
31
0
0
LINE
8
envelope
10
188727.5
20
92700.0
30
0
11
188727.5
21
141100.0
31
0
0
LINE
8
envelope
10
188772.5
20
92700.0
30
0
11
188727.5
21
92700.0
31
0
0
LINE
8
envelope
10
188772.5
20
141100.0
30
0
11
188727.5
21
141100.0
31
0
0
LINE
8
envelope
10
187272.5
20
92700.0
30
0
11
187272.5
21
141100.0
31
0
0
LINE
8
envelope
10
187227.5
20
92700.0
30
0
11
187227.5
21
141100.0
31
0
0
LINE
8
envelope
10
187272.5
20
92700.0
30
0
11
187227.5
21
92700.0
31
0
0
LINE
8
envelope
10
187272.5
20
141100.0
30
0
11
187227.5
21
141100.0
31
0
0
LINE
8
envelope
10
185772.5
20
92700.0
30
0
11
185772.5
21
141100.0
31
0
0
LINE
8
envelope
10
185727.5
20
92700.0
30
0
11
185727.5
21
141100.0
31
0
0
LINE
8
envelope
10
185772.5
20
92700.0
30
0
11
185727.5
21
92700.0
31
0
0
LINE
8
envelope
10
185772.5
20
141100.0
30
0
11
185727.5
21
141100.0
31
0
0
LINE
8
envelope
10
184272.5
20
92700.0
30
0
11
184272.5
21
141100.0
31
0
0
LINE
8
envelope
10
184227.5
20
92700.0
30
0
11
184227.5
21
141100.0
31
0
0
LINE
8
envelope
10
184272.5
20
92700.0
30
0
11
184227.5
21
92700.0
31
0
0
LINE
8
envelope
10
184272.5
20
141100.0
30
0
11
184227.5
21
141100.0
31
0
0
LINE
8
envelope
10
182772.5
20
92700.0
30
0
11
182772.5
21
141100.0
31
0
0
LINE
8
envelope
10
182727.5
20
92700.0
30
0
11
182727.5
21
141100.0
31
0
0
LINE
8
envelope
10
182772.5
20
92700.0
30
0
11
182727.5
21
92700.0
31
0
0
LINE
8
envelope
10
182772.5
20
141100.0
30
0
11
182727.5
21
141100.0
31
0
0
LINE
8
envelope
10
181272.5
20
92700.0
30
0
11
181272.5
21
141100.0
31
0
0
LINE
8
envelope
10
181227.5
20
92700.0
30
0
11
181227.5
21
141100.0
31
0
0
LINE
8
envelope
10
181272.5
20
92700.0
30
0
11
181227.5
21
92700.0
31
0
0
LINE
8
envelope
10
181272.5
20
141100.0
30
0
11
181227.5
21
141100.0
31
0
0
LINE
8
envelope
10
179772.5
20
92700.0
30
0
11
179772.5
21
141100.0
31
0
0
LINE
8
envelope
10
179727.5
20
92700.0
30
0
11
179727.5
21
141100.0
31
0
0
LINE
8
envelope
10
179772.5
20
92700.0
30
0
11
179727.5
21
92700.0
31
0
0
LINE
8
envelope
10
179772.5
20
141100.0
30
0
11
179727.5
21
141100.0
31
0
0
LINE
8
envelope
10
178272.5
20
92700.0
30
0
11
178272.5
21
141100.0
31
0
0
LINE
8
envelope
10
178227.5
20
92700.0
30
0
11
178227.5
21
141100.0
31
0
0
LINE
8
envelope
10
178272.5
20
92700.0
30
0
11
178227.5
21
92700.0
31
0
0
LINE
8
envelope
10
178272.5
20
141100.0
30
0
11
178227.5
21
141100.0
31
0
0
LINE
8
envelope
10
176772.5
20
92700.0
30
0
11
176772.5
21
141100.0
31
0
0
LINE
8
envelope
10
176727.5
20
92700.0
30
0
11
176727.5
21
141100.0
31
0
0
LINE
8
envelope
10
176772.5
20
92700.0
30
0
11
176727.5
21
92700.0
31
0
0
LINE
8
envelope
10
176772.5
20
141100.0
30
0
11
176727.5
21
141100.0
31
0
0
LINE
8
envelope
10
175272.5
20
92700.0
30
0
11
175272.5
21
141100.0
31
0
0
LINE
8
envelope
10
175227.5
20
92700.0
30
0
11
175227.5
21
141100.0
31
0
0
LINE
8
envelope
10
175272.5
20
92700.0
30
0
11
175227.5
21
92700.0
31
0
0
LINE
8
envelope
10
175272.5
20
141100.0
30
0
11
175227.5
21
141100.0
31
0
0
LINE
8
envelope
10
173772.5
20
92700.0
30
0
11
173772.5
21
141100.0
31
0
0
LINE
8
envelope
10
173727.5
20
92700.0
30
0
11
173727.5
21
141100.0
31
0
0
LINE
8
envelope
10
173772.5
20
92700.0
30
0
11
173727.5
21
92700.0
31
0
0
LINE
8
envelope
10
173772.5
20
141100.0
30
0
11
173727.5
21
141100.0
31
0
0
LINE
8
envelope
10
172272.5
20
92700.0
30
0
11
172272.5
21
141100.0
31
0
0
LINE
8
envelope
10
172227.5
20
92700.0
30
0
11
172227.5
21
141100.0
31
0
0
LINE
8
envelope
10
172272.5
20
92700.0
30
0
11
172227.5
21
92700.0
31
0
0
LINE
8
envelope
10
172272.5
20
141100.0
30
0
11
172227.5
21
141100.0
31
0
0
LINE
8
envelope
10
170772.5
20
92700.0
30
0
11
170772.5
21
141100.0
31
0
0
LINE
8
envelope
10
170727.5
20
92700.0
30
0
11
170727.5
21
141100.0
31
0
0
LINE
8
envelope
10
170772.5
20
92700.0
30
0
11
170727.5
21
92700.0
31
0
0
LINE
8
envelope
10
170772.5
20
141100.0
30
0
11
170727.5
21
141100.0
31
0
0
LINE
8
envelope
10
169272.5
20
92700.0
30
0
11
169272.5
21
141100.0
31
0
0
LINE
8
envelope
10
169227.5
20
92700.0
30
0
11
169227.5
21
141100.0
31
0
0
LINE
8
envelope
10
169272.5
20
92700.0
30
0
11
169227.5
21
92700.0
31
0
0
LINE
8
envelope
10
169272.5
20
141100.0
30
0
11
169227.5
21
141100.0
31
0
0
LINE
8
envelope
10
167772.5
20
92700.0
30
0
11
167772.5
21
141100.0
31
0
0
LINE
8
envelope
10
167727.5
20
92700.0
30
0
11
167727.5
21
141100.0
31
0
0
LINE
8
envelope
10
167772.5
20
92700.0
30
0
11
167727.5
21
92700.0
31
0
0
LINE
8
envelope
10
167772.5
20
141100.0
30
0
11
167727.5
21
141100.0
31
0
0
LINE
8
envelope
10
166272.5
20
92700.0
30
0
11
166272.5
21
141100.0
31
0
0
LINE
8
envelope
10
166227.5
20
92700.0
30
0
11
166227.5
21
141100.0
31
0
0
LINE
8
envelope
10
166272.5
20
92700.0
30
0
11
166227.5
21
92700.0
31
0
0
LINE
8
envelope
10
166272.5
20
141100.0
30
0
11
166227.5
21
141100.0
31
0
0
LINE
8
envelope
10
164772.5
20
92700.0
30
0
11
164772.5
21
141100.0
31
0
0
LINE
8
envelope
10
164727.5
20
92700.0
30
0
11
164727.5
21
141100.0
31
0
0
LINE
8
envelope
10
164772.5
20
92700.0
30
0
11
164727.5
21
92700.0
31
0
0
LINE
8
envelope
10
164772.5
20
141100.0
30
0
11
164727.5
21
141100.0
31
0
0
LINE
8
envelope
10
163272.5
20
92700.0
30
0
11
163272.5
21
141100.0
31
0
0
LINE
8
envelope
10
163227.5
20
92700.0
30
0
11
163227.5
21
141100.0
31
0
0
LINE
8
envelope
10
163272.5
20
92700.0
30
0
11
163227.5
21
92700.0
31
0
0
LINE
8
envelope
10
163272.5
20
141100.0
30
0
11
163227.5
21
141100.0
31
0
0
LINE
8
envelope
10
161772.5
20
92700.0
30
0
11
161772.5
21
141100.0
31
0
0
LINE
8
envelope
10
161727.5
20
92700.0
30
0
11
161727.5
21
141100.0
31
0
0
LINE
8
envelope
10
161772.5
20
92700.0
30
0
11
161727.5
21
92700.0
31
0
0
LINE
8
envelope
10
161772.5
20
141100.0
30
0
11
161727.5
21
141100.0
31
0
0
LINE
8
envelope
10
160272.5
20
92700.0
30
0
11
160272.5
21
141100.0
31
0
0
LINE
8
envelope
10
160227.5
20
92700.0
30
0
11
160227.5
21
141100.0
31
0
0
LINE
8
envelope
10
160272.5
20
92700.0
30
0
11
160227.5
21
92700.0
31
0
0
LINE
8
envelope
10
160272.5
20
141100.0
30
0
11
160227.5
21
141100.0
31
0
0
LINE
8
envelope
10
158772.5
20
92700.0
30
0
11
158772.5
21
141100.0
31
0
0
LINE
8
envelope
10
158727.5
20
92700.0
30
0
11
158727.5
21
141100.0
31
0
0
LINE
8
envelope
10
158772.5
20
92700.0
30
0
11
158727.5
21
92700.0
31
0
0
LINE
8
envelope
10
158772.5
20
141100.0
30
0
11
158727.5
21
141100.0
31
0
0
LINE
8
envelope
10
157272.5
20
92700.0
30
0
11
157272.5
21
141100.0
31
0
0
LINE
8
envelope
10
157227.5
20
92700.0
30
0
11
157227.5
21
141100.0
31
0
0
LINE
8
envelope
10
157272.5
20
92700.0
30
0
11
157227.5
21
92700.0
31
0
0
LINE
8
envelope
10
157272.5
20
141100.0
30
0
11
157227.5
21
141100.0
31
0
0
LINE
8
envelope
10
155772.5
20
92700.0
30
0
11
155772.5
21
141100.0
31
0
0
LINE
8
envelope
10
155727.5
20
92700.0
30
0
11
155727.5
21
141100.0
31
0
0
LINE
8
envelope
10
155772.5
20
92700.0
30
0
11
155727.5
21
92700.0
31
0
0
LINE
8
envelope
10
155772.5
20
141100.0
30
0
11
155727.5
21
141100.0
31
0
0
LINE
8
envelope
10
154272.5
20
92700.0
30
0
11
154272.5
21
141100.0
31
0
0
LINE
8
envelope
10
154227.5
20
92700.0
30
0
11
154227.5
21
141100.0
31
0
0
LINE
8
envelope
10
154272.5
20
92700.0
30
0
11
154227.5
21
92700.0
31
0
0
LINE
8
envelope
10
154272.5
20
141100.0
30
0
11
154227.5
21
141100.0
31
0
0
LINE
8
envelope
10
152772.5
20
92700.0
30
0
11
152772.5
21
141100.0
31
0
0
LINE
8
envelope
10
152727.5
20
92700.0
30
0
11
152727.5
21
141100.0
31
0
0
LINE
8
envelope
10
152772.5
20
92700.0
30
0
11
152727.5
21
92700.0
31
0
0
LINE
8
envelope
10
152772.5
20
141100.0
30
0
11
152727.5
21
141100.0
31
0
0
LINE
8
envelope
10
151272.5
20
92700.0
30
0
11
151272.5
21
141100.0
31
0
0
LINE
8
envelope
10
151227.5
20
92700.0
30
0
11
151227.5
21
141100.0
31
0
0
LINE
8
envelope
10
151272.5
20
92700.0
30
0
11
151227.5
21
92700.0
31
0
0
LINE
8
envelope
10
151272.5
20
141100.0
30
0
11
151227.5
21
141100.0
31
0
0
LINE
8
envelope
10
149772.5
20
92700.0
30
0
11
149772.5
21
141100.0
31
0
0
LINE
8
envelope
10
149727.5
20
92700.0
30
0
11
149727.5
21
141100.0
31
0
0
LINE
8
envelope
10
149772.5
20
92700.0
30
0
11
149727.5
21
92700.0
31
0
0
LINE
8
envelope
10
149772.5
20
141100.0
30
0
11
149727.5
21
141100.0
31
0
0
LINE
8
envelope
10
148272.5
20
92700.0
30
0
11
148272.5
21
141100.0
31
0
0
LINE
8
envelope
10
148227.5
20
92700.0
30
0
11
148227.5
21
141100.0
31
0
0
LINE
8
envelope
10
148272.5
20
92700.0
30
0
11
148227.5
21
92700.0
31
0
0
LINE
8
envelope
10
148272.5
20
141100.0
30
0
11
148227.5
21
141100.0
31
0
0
LINE
8
envelope
10
146772.5
20
92700.0
30
0
11
146772.5
21
141100.0
31
0
0
LINE
8
envelope
10
146727.5
20
92700.0
30
0
11
146727.5
21
141100.0
31
0
0
LINE
8
envelope
10
146772.5
20
92700.0
30
0
11
146727.5
21
92700.0
31
0
0
LINE
8
envelope
10
146772.5
20
141100.0
30
0
11
146727.5
21
141100.0
31
0
0
LINE
8
envelope
10
145272.5
20
92700.0
30
0
11
145272.5
21
141100.0
31
0
0
LINE
8
envelope
10
145227.5
20
92700.0
30
0
11
145227.5
21
141100.0
31
0
0
LINE
8
envelope
10
145272.5
20
92700.0
30
0
11
145227.5
21
92700.0
31
0
0
LINE
8
envelope
10
145272.5
20
141100.0
30
0
11
145227.5
21
141100.0
31
0
0
LINE
8
envelope
10
143772.5
20
92700.0
30
0
11
143772.5
21
141100.0
31
0
0
LINE
8
envelope
10
143727.5
20
92700.0
30
0
11
143727.5
21
141100.0
31
0
0
LINE
8
envelope
10
143772.5
20
92700.0
30
0
11
143727.5
21
92700.0
31
0
0
LINE
8
envelope
10
143772.5
20
141100.0
30
0
11
143727.5
21
141100.0
31
0
0
LINE
8
envelope
10
142272.5
20
92700.0
30
0
11
142272.5
21
141100.0
31
0
0
LINE
8
envelope
10
142227.5
20
92700.0
30
0
11
142227.5
21
141100.0
31
0
0
LINE
8
envelope
10
142272.5
20
92700.0
30
0
11
142227.5
21
92700.0
31
0
0
LINE
8
envelope
10
142272.5
20
141100.0
30
0
11
142227.5
21
141100.0
31
0
0
LINE
8
envelope
10
140772.5
20
92700.0
30
0
11
140772.5
21
141100.0
31
0
0
LINE
8
envelope
10
140727.5
20
92700.0
30
0
11
140727.5
21
141100.0
31
0
0
LINE
8
envelope
10
140772.5
20
92700.0
30
0
11
140727.5
21
92700.0
31
0
0
LINE
8
envelope
10
140772.5
20
141100.0
30
0
11
140727.5
21
141100.0
31
0
0
LINE
8
envelope
10
139272.5
20
92700.0
30
0
11
139272.5
21
141100.0
31
0
0
LINE
8
envelope
10
139227.5
20
92700.0
30
0
11
139227.5
21
141100.0
31
0
0
LINE
8
envelope
10
139272.5
20
92700.0
30
0
11
139227.5
21
92700.0
31
0
0
LINE
8
envelope
10
139272.5
20
141100.0
30
0
11
139227.5
21
141100.0
31
0
0
LINE
8
envelope
10
137772.5
20
92700.0
30
0
11
137772.5
21
141100.0
31
0
0
LINE
8
envelope
10
137727.5
20
92700.0
30
0
11
137727.5
21
141100.0
31
0
0
LINE
8
envelope
10
137772.5
20
92700.0
30
0
11
137727.5
21
92700.0
31
0
0
LINE
8
envelope
10
137772.5
20
141100.0
30
0
11
137727.5
21
141100.0
31
0
0
LINE
8
envelope
10
136272.5
20
92700.0
30
0
11
136272.5
21
141100.0
31
0
0
LINE
8
envelope
10
136227.5
20
92700.0
30
0
11
136227.5
21
141100.0
31
0
0
LINE
8
envelope
10
136272.5
20
92700.0
30
0
11
136227.5
21
92700.0
31
0
0
LINE
8
envelope
10
136272.5
20
141100.0
30
0
11
136227.5
21
141100.0
31
0
0
LINE
8
envelope
10
134772.5
20
92700.0
30
0
11
134772.5
21
141100.0
31
0
0
LINE
8
envelope
10
134727.5
20
92700.0
30
0
11
134727.5
21
141100.0
31
0
0
LINE
8
envelope
10
134772.5
20
92700.0
30
0
11
134727.5
21
92700.0
31
0
0
LINE
8
envelope
10
134772.5
20
141100.0
30
0
11
134727.5
21
141100.0
31
0
0
LINE
8
envelope
10
133272.5
20
92700.0
30
0
11
133272.5
21
141100.0
31
0
0
LINE
8
envelope
10
133227.5
20
92700.0
30
0
11
133227.5
21
141100.0
31
0
0
LINE
8
envelope
10
133272.5
20
92700.0
30
0
11
133227.5
21
92700.0
31
0
0
LINE
8
envelope
10
133272.5
20
141100.0
30
0
11
133227.5
21
141100.0
31
0
0
LINE
8
envelope
10
131772.5
20
92700.0
30
0
11
131772.5
21
141100.0
31
0
0
LINE
8
envelope
10
131727.5
20
92700.0
30
0
11
131727.5
21
141100.0
31
0
0
LINE
8
envelope
10
131772.5
20
92700.0
30
0
11
131727.5
21
92700.0
31
0
0
LINE
8
envelope
10
131772.5
20
141100.0
30
0
11
131727.5
21
141100.0
31
0
0
LINE
8
envelope
10
130272.5
20
92700.0
30
0
11
130272.5
21
141100.0
31
0
0
LINE
8
envelope
10
130227.49999999999
20
92700.0
30
0
11
130227.49999999999
21
141100.0
31
0
0
LINE
8
envelope
10
130272.5
20
92700.0
30
0
11
130227.49999999999
21
92700.0
31
0
0
LINE
8
envelope
10
130272.5
20
141100.0
30
0
11
130227.49999999999
21
141100.0
31
0
0
LINE
8
envelope
10
128772.5
20
92700.0
30
0
11
128772.5
21
141100.0
31
0
0
LINE
8
envelope
10
128727.49999999999
20
92700.0
30
0
11
128727.49999999999
21
141100.0
31
0
0
LINE
8
envelope
10
128772.5
20
92700.0
30
0
11
128727.49999999999
21
92700.0
31
0
0
LINE
8
envelope
10
128772.5
20
141100.0
30
0
11
128727.49999999999
21
141100.0
31
0
0
LINE
8
envelope
10
127272.5
20
92700.0
30
0
11
127272.5
21
141100.0
31
0
0
LINE
8
envelope
10
127227.49999999999
20
92700.0
30
0
11
127227.49999999999
21
141100.0
31
0
0
LINE
8
envelope
10
127272.5
20
92700.0
30
0
11
127227.49999999999
21
92700.0
31
0
0
LINE
8
envelope
10
127272.5
20
141100.0
30
0
11
127227.49999999999
21
141100.0
31
0
0
LINE
8
envelope
10
125772.5
20
92700.0
30
0
11
125772.5
21
141100.0
31
0
0
LINE
8
envelope
10
125727.49999999999
20
92700.0
30
0
11
125727.49999999999
21
141100.0
31
0
0
LINE
8
envelope
10
125772.5
20
92700.0
30
0
11
125727.49999999999
21
92700.0
31
0
0
LINE
8
envelope
10
125772.5
20
141100.0
30
0
11
125727.49999999999
21
141100.0
31
0
0
LINE
8
envelope
10
124272.5
20
92700.0
30
0
11
124272.5
21
141100.0
31
0
0
LINE
8
envelope
10
124227.49999999999
20
92700.0
30
0
11
124227.49999999999
21
141100.0
31
0
0
LINE
8
envelope
10
124272.5
20
92700.0
30
0
11
124227.49999999999
21
92700.0
31
0
0
LINE
8
envelope
10
124272.5
20
141100.0
30
0
11
124227.49999999999
21
141100.0
31
0
0
LINE
8
envelope
10
122772.5
20
92700.0
30
0
11
122772.5
21
141100.0
31
0
0
LINE
8
envelope
10
122727.49999999999
20
92700.0
30
0
11
122727.49999999999
21
141100.0
31
0
0
LINE
8
envelope
10
122772.5
20
92700.0
30
0
11
122727.49999999999
21
92700.0
31
0
0
LINE
8
envelope
10
122772.5
20
141100.0
30
0
11
122727.49999999999
21
141100.0
31
0
0
LINE
8
envelope
10
121272.5
20
92700.0
30
0
11
121272.5
21
141100.0
31
0
0
LINE
8
envelope
10
121227.49999999999
20
92700.0
30
0
11
121227.49999999999
21
141100.0
31
0
0
LINE
8
envelope
10
121272.5
20
92700.0
30
0
11
121227.49999999999
21
92700.0
31
0
0
LINE
8
envelope
10
121272.5
20
141100.0
30
0
11
121227.49999999999
21
141100.0
31
0
0
LINE
8
envelope
10
119772.5
20
92700.0
30
0
11
119772.5
21
141100.0
31
0
0
LINE
8
envelope
10
119727.49999999999
20
92700.0
30
0
11
119727.49999999999
21
141100.0
31
0
0
LINE
8
envelope
10
119772.5
20
92700.0
30
0
11
119727.49999999999
21
92700.0
31
0
0
LINE
8
envelope
10
119772.5
20
141100.0
30
0
11
119727.49999999999
21
141100.0
31
0
0
LINE
8
envelope
10
118272.5
20
92700.0
30
0
11
118272.5
21
141100.0
31
0
0
LINE
8
envelope
10
118227.49999999999
20
92700.0
30
0
11
118227.49999999999
21
141100.0
31
0
0
LINE
8
envelope
10
118272.5
20
92700.0
30
0
11
118227.49999999999
21
92700.0
31
0
0
LINE
8
envelope
10
118272.5
20
141100.0
30
0
11
118227.49999999999
21
141100.0
31
0
0
LINE
8
envelope
10
116772.5
20
92700.0
30
0
11
116772.5
21
141100.0
31
0
0
LINE
8
envelope
10
116727.49999999999
20
92700.0
30
0
11
116727.49999999999
21
141100.0
31
0
0
LINE
8
envelope
10
116772.5
20
92700.0
30
0
11
116727.49999999999
21
92700.0
31
0
0
LINE
8
envelope
10
116772.5
20
141100.0
30
0
11
116727.49999999999
21
141100.0
31
0
0
LINE
8
envelope
10
115272.5
20
92700.0
30
0
11
115272.5
21
141100.0
31
0
0
LINE
8
envelope
10
115227.49999999999
20
92700.0
30
0
11
115227.49999999999
21
141100.0
31
0
0
LINE
8
envelope
10
115272.5
20
92700.0
30
0
11
115227.49999999999
21
92700.0
31
0
0
LINE
8
envelope
10
115272.5
20
141100.0
30
0
11
115227.49999999999
21
141100.0
31
0
0
LINE
8
envelope
10
113772.5
20
92700.0
30
0
11
113772.5
21
141100.0
31
0
0
LINE
8
envelope
10
113727.49999999999
20
92700.0
30
0
11
113727.49999999999
21
141100.0
31
0
0
LINE
8
envelope
10
113772.5
20
92700.0
30
0
11
113727.49999999999
21
92700.0
31
0
0
LINE
8
envelope
10
113772.5
20
141100.0
30
0
11
113727.49999999999
21
141100.0
31
0
0
LINE
8
envelope
10
112272.5
20
92700.0
30
0
11
112272.5
21
141100.0
31
0
0
LINE
8
envelope
10
112227.49999999999
20
92700.0
30
0
11
112227.49999999999
21
141100.0
31
0
0
LINE
8
envelope
10
112272.5
20
92700.0
30
0
11
112227.49999999999
21
92700.0
31
0
0
LINE
8
envelope
10
112272.5
20
141100.0
30
0
11
112227.49999999999
21
141100.0
31
0
0
LINE
8
envelope
10
110772.5
20
92700.0
30
0
11
110772.5
21
141100.0
31
0
0
LINE
8
envelope
10
110727.49999999999
20
92700.0
30
0
11
110727.49999999999
21
141100.0
31
0
0
LINE
8
envelope
10
110772.5
20
92700.0
30
0
11
110727.49999999999
21
92700.0
31
0
0
LINE
8
envelope
10
110772.5
20
141100.0
30
0
11
110727.49999999999
21
141100.0
31
0
0
LINE
8
envelope
10
109272.5
20
92700.0
30
0
11
109272.5
21
141100.0
31
0
0
LINE
8
envelope
10
109227.49999999999
20
92700.0
30
0
11
109227.49999999999
21
141100.0
31
0
0
LINE
8
envelope
10
109272.5
20
92700.0
30
0
11
109227.49999999999
21
92700.0
31
0
0
LINE
8
envelope
10
109272.5
20
141100.0
30
0
11
109227.49999999999
21
141100.0
31
0
0
LINE
8
envelope
10
107772.5
20
92700.0
30
0
11
107772.5
21
141100.0
31
0
0
LINE
8
envelope
10
107727.49999999999
20
92700.0
30
0
11
107727.49999999999
21
141100.0
31
0
0
LINE
8
envelope
10
107772.5
20
92700.0
30
0
11
107727.49999999999
21
92700.0
31
0
0
LINE
8
envelope
10
107772.5
20
141100.0
30
0
11
107727.49999999999
21
141100.0
31
0
0
LINE
8
envelope
10
106272.5
20
92700.0
30
0
11
106272.5
21
141100.0
31
0
0
LINE
8
envelope
10
106227.49999999999
20
92700.0
30
0
11
106227.49999999999
21
141100.0
31
0
0
LINE
8
envelope
10
106272.5
20
92700.0
30
0
11
106227.49999999999
21
92700.0
31
0
0
LINE
8
envelope
10
106272.5
20
141100.0
30
0
11
106227.49999999999
21
141100.0
31
0
0
LINE
8
envelope
10
104772.5
20
92700.0
30
0
11
104772.5
21
141100.0
31
0
0
LINE
8
envelope
10
104727.49999999999
20
92700.0
30
0
11
104727.49999999999
21
141100.0
31
0
0
LINE
8
envelope
10
104772.5
20
92700.0
30
0
11
104727.49999999999
21
92700.0
31
0
0
LINE
8
envelope
10
104772.5
20
141100.0
30
0
11
104727.49999999999
21
141100.0
31
0
0
LINE
8
envelope
10
103272.5
20
92700.0
30
0
11
103272.5
21
141100.0
31
0
0
LINE
8
envelope
10
103227.49999999999
20
92700.0
30
0
11
103227.49999999999
21
141100.0
31
0
0
LINE
8
envelope
10
103272.5
20
92700.0
30
0
11
103227.49999999999
21
92700.0
31
0
0
LINE
8
envelope
10
103272.5
20
141100.0
30
0
11
103227.49999999999
21
141100.0
31
0
0
LINE
8
envelope
10
101772.5
20
92700.0
30
0
11
101772.5
21
141100.0
31
0
0
LINE
8
envelope
10
101727.49999999999
20
92700.0
30
0
11
101727.49999999999
21
141100.0
31
0
0
LINE
8
envelope
10
101772.5
20
92700.0
30
0
11
101727.49999999999
21
92700.0
31
0
0
LINE
8
envelope
10
101772.5
20
141100.0
30
0
11
101727.49999999999
21
141100.0
31
0
0
LINE
8
envelope
10
100272.5
20
92700.0
30
0
11
100272.5
21
141100.0
31
0
0
LINE
8
envelope
10
100227.49999999999
20
92700.0
30
0
11
100227.49999999999
21
141100.0
31
0
0
LINE
8
envelope
10
100272.5
20
92700.0
30
0
11
100227.49999999999
21
92700.0
31
0
0
LINE
8
envelope
10
100272.5
20
141100.0
30
0
11
100227.49999999999
21
141100.0
31
0
0
LINE
8
envelope
10
98772.5
20
92700.0
30
0
11
98772.5
21
141100.0
31
0
0
LINE
8
envelope
10
98727.49999999999
20
92700.0
30
0
11
98727.49999999999
21
141100.0
31
0
0
LINE
8
envelope
10
98772.5
20
92700.0
30
0
11
98727.49999999999
21
92700.0
31
0
0
LINE
8
envelope
10
98772.5
20
141100.0
30
0
11
98727.49999999999
21
141100.0
31
0
0
LINE
8
envelope
10
97272.5
20
92700.0
30
0
11
97272.5
21
141100.0
31
0
0
LINE
8
envelope
10
97227.49999999999
20
92700.0
30
0
11
97227.49999999999
21
141100.0
31
0
0
LINE
8
envelope
10
97272.5
20
92700.0
30
0
11
97227.49999999999
21
92700.0
31
0
0
LINE
8
envelope
10
97272.5
20
141100.0
30
0
11
97227.49999999999
21
141100.0
31
0
0
LINE
8
envelope
10
95772.5
20
92700.0
30
0
11
95772.5
21
141100.0
31
0
0
LINE
8
envelope
10
95727.5
20
92700.0
30
0
11
95727.5
21
141100.0
31
0
0
LINE
8
envelope
10
95772.5
20
92700.0
30
0
11
95727.5
21
92700.0
31
0
0
LINE
8
envelope
10
95772.5
20
141100.0
30
0
11
95727.5
21
141100.0
31
0
0
LINE
8
envelope
10
94272.5
20
92700.0
30
0
11
94272.5
21
141100.0
31
0
0
LINE
8
envelope
10
94227.5
20
92700.0
30
0
11
94227.5
21
141100.0
31
0
0
LINE
8
envelope
10
94272.5
20
92700.0
30
0
11
94227.5
21
92700.0
31
0
0
LINE
8
envelope
10
94272.5
20
141100.0
30
0
11
94227.5
21
141100.0
31
0
0
LINE
8
envelope
10
92772.5
20
92700.0
30
0
11
92772.5
21
141100.0
31
0
0
LINE
8
envelope
10
92727.5
20
92700.0
30
0
11
92727.5
21
141100.0
31
0
0
LINE
8
envelope
10
92772.5
20
92700.0
30
0
11
92727.5
21
92700.0
31
0
0
LINE
8
envelope
10
92772.5
20
141100.0
30
0
11
92727.5
21
141100.0
31
0
0
LINE
8
envelope
10
91272.5
20
92700.0
30
0
11
91272.5
21
141100.0
31
0
0
LINE
8
envelope
10
91227.5
20
92700.0
30
0
11
91227.5
21
141100.0
31
0
0
LINE
8
envelope
10
91272.5
20
92700.0
30
0
11
91227.5
21
92700.0
31
0
0
LINE
8
envelope
10
91272.5
20
141100.0
30
0
11
91227.5
21
141100.0
31
0
0
LINE
8
envelope
10
89772.5
20
92700.0
30
0
11
89772.5
21
141100.0
31
0
0
LINE
8
envelope
10
89727.5
20
92700.0
30
0
11
89727.5
21
141100.0
31
0
0
LINE
8
envelope
10
89772.5
20
92700.0
30
0
11
89727.5
21
92700.0
31
0
0
LINE
8
envelope
10
89772.5
20
141100.0
30
0
11
89727.5
21
141100.0
31
0
0
LINE
8
envelope
10
88272.5
20
92700.0
30
0
11
88272.5
21
141100.0
31
0
0
LINE
8
envelope
10
88227.5
20
92700.0
30
0
11
88227.5
21
141100.0
31
0
0
LINE
8
envelope
10
88272.5
20
92700.0
30
0
11
88227.5
21
92700.0
31
0
0
LINE
8
envelope
10
88272.5
20
141100.0
30
0
11
88227.5
21
141100.0
31
0
0
LINE
8
envelope
10
86772.5
20
92700.0
30
0
11
86772.5
21
141100.0
31
0
0
LINE
8
envelope
10
86727.5
20
92700.0
30
0
11
86727.5
21
141100.0
31
0
0
LINE
8
envelope
10
86772.5
20
92700.0
30
0
11
86727.5
21
92700.0
31
0
0
LINE
8
envelope
10
86772.5
20
141100.0
30
0
11
86727.5
21
141100.0
31
0
0
LINE
8
envelope
10
85272.5
20
92700.0
30
0
11
85272.5
21
141100.0
31
0
0
LINE
8
envelope
10
85227.5
20
92700.0
30
0
11
85227.5
21
141100.0
31
0
0
LINE
8
envelope
10
85272.5
20
92700.0
30
0
11
85227.5
21
92700.0
31
0
0
LINE
8
envelope
10
85272.5
20
141100.0
30
0
11
85227.5
21
141100.0
31
0
0
LINE
8
envelope
10
83772.5
20
92700.0
30
0
11
83772.5
21
141100.0
31
0
0
LINE
8
envelope
10
83727.5
20
92700.0
30
0
11
83727.5
21
141100.0
31
0
0
LINE
8
envelope
10
83772.5
20
92700.0
30
0
11
83727.5
21
92700.0
31
0
0
LINE
8
envelope
10
83772.5
20
141100.0
30
0
11
83727.5
21
141100.0
31
0
0
LINE
8
envelope
10
82272.5
20
92700.0
30
0
11
82272.5
21
141100.0
31
0
0
LINE
8
envelope
10
82227.5
20
92700.0
30
0
11
82227.5
21
141100.0
31
0
0
LINE
8
envelope
10
82272.5
20
92700.0
30
0
11
82227.5
21
92700.0
31
0
0
LINE
8
envelope
10
82272.5
20
141100.0
30
0
11
82227.5
21
141100.0
31
0
0
LINE
8
envelope
10
80772.5
20
92700.0
30
0
11
80772.5
21
141100.0
31
0
0
LINE
8
envelope
10
80727.5
20
92700.0
30
0
11
80727.5
21
141100.0
31
0
0
LINE
8
envelope
10
80772.5
20
92700.0
30
0
11
80727.5
21
92700.0
31
0
0
LINE
8
envelope
10
80772.5
20
141100.0
30
0
11
80727.5
21
141100.0
31
0
0
LINE
8
envelope
10
79272.5
20
92700.0
30
0
11
79272.5
21
141100.0
31
0
0
LINE
8
envelope
10
79227.5
20
92700.0
30
0
11
79227.5
21
141100.0
31
0
0
LINE
8
envelope
10
79272.5
20
92700.0
30
0
11
79227.5
21
92700.0
31
0
0
LINE
8
envelope
10
79272.5
20
141100.0
30
0
11
79227.5
21
141100.0
31
0
0
LINE
8
envelope
10
77772.5
20
92700.0
30
0
11
77772.5
21
141100.0
31
0
0
LINE
8
envelope
10
77727.5
20
92700.0
30
0
11
77727.5
21
141100.0
31
0
0
LINE
8
envelope
10
77772.5
20
92700.0
30
0
11
77727.5
21
92700.0
31
0
0
LINE
8
envelope
10
77772.5
20
141100.0
30
0
11
77727.5
21
141100.0
31
0
0
LINE
8
envelope
10
76272.5
20
92700.0
30
0
11
76272.5
21
141100.0
31
0
0
LINE
8
envelope
10
76227.5
20
92700.0
30
0
11
76227.5
21
141100.0
31
0
0
LINE
8
envelope
10
76272.5
20
92700.0
30
0
11
76227.5
21
92700.0
31
0
0
LINE
8
envelope
10
76272.5
20
141100.0
30
0
11
76227.5
21
141100.0
31
0
0
LINE
8
envelope
10
74772.5
20
92700.0
30
0
11
74772.5
21
141100.0
31
0
0
LINE
8
envelope
10
74727.5
20
92700.0
30
0
11
74727.5
21
141100.0
31
0
0
LINE
8
envelope
10
74772.5
20
92700.0
30
0
11
74727.5
21
92700.0
31
0
0
LINE
8
envelope
10
74772.5
20
141100.0
30
0
11
74727.5
21
141100.0
31
0
0
LINE
8
envelope
10
73272.5
20
92700.0
30
0
11
73272.5
21
141100.0
31
0
0
LINE
8
envelope
10
73227.5
20
92700.0
30
0
11
73227.5
21
141100.0
31
0
0
LINE
8
envelope
10
73272.5
20
92700.0
30
0
11
73227.5
21
92700.0
31
0
0
LINE
8
envelope
10
73272.5
20
141100.0
30
0
11
73227.5
21
141100.0
31
0
0
LINE
8
envelope
10
71772.5
20
92700.0
30
0
11
71772.5
21
141100.0
31
0
0
LINE
8
envelope
10
71727.5
20
92700.0
30
0
11
71727.5
21
141100.0
31
0
0
LINE
8
envelope
10
71772.5
20
92700.0
30
0
11
71727.5
21
92700.0
31
0
0
LINE
8
envelope
10
71772.5
20
141100.0
30
0
11
71727.5
21
141100.0
31
0
0
LINE
8
envelope
10
70272.5
20
92700.0
30
0
11
70272.5
21
141100.0
31
0
0
LINE
8
envelope
10
70227.5
20
92700.0
30
0
11
70227.5
21
141100.0
31
0
0
LINE
8
envelope
10
70272.5
20
92700.0
30
0
11
70227.5
21
92700.0
31
0
0
LINE
8
envelope
10
70272.5
20
141100.0
30
0
11
70227.5
21
141100.0
31
0
0
LINE
8
envelope
10
68772.5
20
92700.0
30
0
11
68772.5
21
141100.0
31
0
0
LINE
8
envelope
10
68727.5
20
92700.0
30
0
11
68727.5
21
141100.0
31
0
0
LINE
8
envelope
10
68772.5
20
92700.0
30
0
11
68727.5
21
92700.0
31
0
0
LINE
8
envelope
10
68772.5
20
141100.0
30
0
11
68727.5
21
141100.0
31
0
0
LINE
8
envelope
10
67272.5
20
92700.0
30
0
11
67272.5
21
141100.0
31
0
0
LINE
8
envelope
10
67227.5
20
92700.0
30
0
11
67227.5
21
141100.0
31
0
0
LINE
8
envelope
10
67272.5
20
92700.0
30
0
11
67227.5
21
92700.0
31
0
0
LINE
8
envelope
10
67272.5
20
141100.0
30
0
11
67227.5
21
141100.0
31
0
0
LINE
8
envelope
10
65772.5
20
92700.0
30
0
11
65772.5
21
141100.0
31
0
0
LINE
8
envelope
10
65727.5
20
92700.0
30
0
11
65727.5
21
141100.0
31
0
0
LINE
8
envelope
10
65772.5
20
92700.0
30
0
11
65727.5
21
92700.0
31
0
0
LINE
8
envelope
10
65772.5
20
141100.0
30
0
11
65727.5
21
141100.0
31
0
0
LINE
8
envelope
10
64272.50000000001
20
92700.0
30
0
11
64272.50000000001
21
141100.0
31
0
0
LINE
8
envelope
10
64227.5
20
92700.0
30
0
11
64227.5
21
141100.0
31
0
0
LINE
8
envelope
10
64272.50000000001
20
92700.0
30
0
11
64227.5
21
92700.0
31
0
0
LINE
8
envelope
10
64272.50000000001
20
141100.0
30
0
11
64227.5
21
141100.0
31
0
0
LINE
8
envelope
10
62772.50000000001
20
92700.0
30
0
11
62772.50000000001
21
141100.0
31
0
0
LINE
8
envelope
10
62727.5
20
92700.0
30
0
11
62727.5
21
141100.0
31
0
0
LINE
8
envelope
10
62772.50000000001
20
92700.0
30
0
11
62727.5
21
92700.0
31
0
0
LINE
8
envelope
10
62772.50000000001
20
141100.0
30
0
11
62727.5
21
141100.0
31
0
0
LINE
8
envelope
10
61272.50000000001
20
92700.0
30
0
11
61272.50000000001
21
141100.0
31
0
0
LINE
8
envelope
10
61227.5
20
92700.0
30
0
11
61227.5
21
141100.0
31
0
0
LINE
8
envelope
10
61272.50000000001
20
92700.0
30
0
11
61227.5
21
92700.0
31
0
0
LINE
8
envelope
10
61272.50000000001
20
141100.0
30
0
11
61227.5
21
141100.0
31
0
0
LINE
8
envelope
10
59772.50000000001
20
92700.0
30
0
11
59772.50000000001
21
141100.0
31
0
0
LINE
8
envelope
10
59727.5
20
92700.0
30
0
11
59727.5
21
141100.0
31
0
0
LINE
8
envelope
10
59772.50000000001
20
92700.0
30
0
11
59727.5
21
92700.0
31
0
0
LINE
8
envelope
10
59772.50000000001
20
141100.0
30
0
11
59727.5
21
141100.0
31
0
0
LINE
8
envelope
10
58272.50000000001
20
92700.0
30
0
11
58272.50000000001
21
141100.0
31
0
0
LINE
8
envelope
10
58227.5
20
92700.0
30
0
11
58227.5
21
141100.0
31
0
0
LINE
8
envelope
10
58272.50000000001
20
92700.0
30
0
11
58227.5
21
92700.0
31
0
0
LINE
8
envelope
10
58272.50000000001
20
141100.0
30
0
11
58227.5
21
141100.0
31
0
0
LINE
8
envelope
10
56772.49999999999
20
92700.0
30
0
11
56772.49999999999
21
141100.0
31
0
0
LINE
8
envelope
10
56727.49999999999
20
92700.0
30
0
11
56727.49999999999
21
141100.0
31
0
0
LINE
8
envelope
10
56772.49999999999
20
92700.0
30
0
11
56727.49999999999
21
92700.0
31
0
0
LINE
8
envelope
10
56772.49999999999
20
141100.0
30
0
11
56727.49999999999
21
141100.0
31
0
0
LINE
8
envelope
10
55272.49999999999
20
92700.0
30
0
11
55272.49999999999
21
141100.0
31
0
0
LINE
8
envelope
10
55227.49999999999
20
92700.0
30
0
11
55227.49999999999
21
141100.0
31
0
0
LINE
8
envelope
10
55272.49999999999
20
92700.0
30
0
11
55227.49999999999
21
92700.0
31
0
0
LINE
8
envelope
10
55272.49999999999
20
141100.0
30
0
11
55227.49999999999
21
141100.0
31
0
0
LINE
8
envelope
10
53772.49999999999
20
92700.0
30
0
11
53772.49999999999
21
141100.0
31
0
0
LINE
8
envelope
10
53727.49999999999
20
92700.0
30
0
11
53727.49999999999
21
141100.0
31
0
0
LINE
8
envelope
10
53772.49999999999
20
92700.0
30
0
11
53727.49999999999
21
92700.0
31
0
0
LINE
8
envelope
10
53772.49999999999
20
141100.0
30
0
11
53727.49999999999
21
141100.0
31
0
0
LINE
8
envelope
10
52272.49999999999
20
92700.0
30
0
11
52272.49999999999
21
141100.0
31
0
0
LINE
8
envelope
10
52227.49999999999
20
92700.0
30
0
11
52227.49999999999
21
141100.0
31
0
0
LINE
8
envelope
10
52272.49999999999
20
92700.0
30
0
11
52227.49999999999
21
92700.0
31
0
0
LINE
8
envelope
10
52272.49999999999
20
141100.0
30
0
11
52227.49999999999
21
141100.0
31
0
0
LINE
8
envelope
10
50772.49999999999
20
92700.0
30
0
11
50772.49999999999
21
141100.0
31
0
0
LINE
8
envelope
10
50727.49999999999
20
92700.0
30
0
11
50727.49999999999
21
141100.0
31
0
0
LINE
8
envelope
10
50772.49999999999
20
92700.0
30
0
11
50727.49999999999
21
92700.0
31
0
0
LINE
8
envelope
10
50772.49999999999
20
141100.0
30
0
11
50727.49999999999
21
141100.0
31
0
0
LINE
8
envelope
10
49272.49999999999
20
92700.0
30
0
11
49272.49999999999
21
141100.0
31
0
0
LINE
8
envelope
10
49227.49999999999
20
92700.0
30
0
11
49227.49999999999
21
141100.0
31
0
0
LINE
8
envelope
10
49272.49999999999
20
92700.0
30
0
11
49227.49999999999
21
92700.0
31
0
0
LINE
8
envelope
10
49272.49999999999
20
141100.0
30
0
11
49227.49999999999
21
141100.0
31
0
0
LINE
8
envelope
10
47772.49999999999
20
92700.0
30
0
11
47772.49999999999
21
141100.0
31
0
0
LINE
8
envelope
10
47727.49999999999
20
92700.0
30
0
11
47727.49999999999
21
141100.0
31
0
0
LINE
8
envelope
10
47772.49999999999
20
92700.0
30
0
11
47727.49999999999
21
92700.0
31
0
0
LINE
8
envelope
10
47772.49999999999
20
141100.0
30
0
11
47727.49999999999
21
141100.0
31
0
0
LINE
8
envelope
10
46272.49999999999
20
92700.0
30
0
11
46272.49999999999
21
141100.0
31
0
0
LINE
8
envelope
10
46227.49999999999
20
92700.0
30
0
11
46227.49999999999
21
141100.0
31
0
0
LINE
8
envelope
10
46272.49999999999
20
92700.0
30
0
11
46227.49999999999
21
92700.0
31
0
0
LINE
8
envelope
10
46272.49999999999
20
141100.0
30
0
11
46227.49999999999
21
141100.0
31
0
0
LINE
8
envelope
10
44772.49999999999
20
92700.0
30
0
11
44772.49999999999
21
141100.0
31
0
0
LINE
8
envelope
10
44727.49999999999
20
92700.0
30
0
11
44727.49999999999
21
141100.0
31
0
0
LINE
8
envelope
10
44772.49999999999
20
92700.0
30
0
11
44727.49999999999
21
92700.0
31
0
0
LINE
8
envelope
10
44772.49999999999
20
141100.0
30
0
11
44727.49999999999
21
141100.0
31
0
0
LINE
8
envelope
10
43272.49999999999
20
92700.0
30
0
11
43272.49999999999
21
141100.0
31
0
0
LINE
8
envelope
10
43227.49999999999
20
92700.0
30
0
11
43227.49999999999
21
141100.0
31
0
0
LINE
8
envelope
10
43272.49999999999
20
92700.0
30
0
11
43227.49999999999
21
92700.0
31
0
0
LINE
8
envelope
10
43272.49999999999
20
141100.0
30
0
11
43227.49999999999
21
141100.0
31
0
0
LINE
8
envelope
10
41772.49999999999
20
92700.0
30
0
11
41772.49999999999
21
141100.0
31
0
0
LINE
8
envelope
10
41727.49999999999
20
92700.0
30
0
11
41727.49999999999
21
141100.0
31
0
0
LINE
8
envelope
10
41772.49999999999
20
92700.0
30
0
11
41727.49999999999
21
92700.0
31
0
0
LINE
8
envelope
10
41772.49999999999
20
141100.0
30
0
11
41727.49999999999
21
141100.0
31
0
0
LINE
8
envelope
10
40272.49999999999
20
92700.0
30
0
11
40272.49999999999
21
141100.0
31
0
0
LINE
8
envelope
10
40227.49999999999
20
92700.0
30
0
11
40227.49999999999
21
141100.0
31
0
0
LINE
8
envelope
10
40272.49999999999
20
92700.0
30
0
11
40227.49999999999
21
92700.0
31
0
0
LINE
8
envelope
10
40272.49999999999
20
141100.0
30
0
11
40227.49999999999
21
141100.0
31
0
0
LINE
8
envelope
10
38772.49999999999
20
92700.0
30
0
11
38772.49999999999
21
141100.0
31
0
0
LINE
8
envelope
10
38727.49999999999
20
92700.0
30
0
11
38727.49999999999
21
141100.0
31
0
0
LINE
8
envelope
10
38772.49999999999
20
92700.0
30
0
11
38727.49999999999
21
92700.0
31
0
0
LINE
8
envelope
10
38772.49999999999
20
141100.0
30
0
11
38727.49999999999
21
141100.0
31
0
0
LINE
8
envelope
10
37272.49999999999
20
92700.0
30
0
11
37272.49999999999
21
141100.0
31
0
0
LINE
8
envelope
10
37227.49999999999
20
92700.0
30
0
11
37227.49999999999
21
141100.0
31
0
0
LINE
8
envelope
10
37272.49999999999
20
92700.0
30
0
11
37227.49999999999
21
92700.0
31
0
0
LINE
8
envelope
10
37272.49999999999
20
141100.0
30
0
11
37227.49999999999
21
141100.0
31
0
0
LINE
8
envelope
10
35772.49999999999
20
92700.0
30
0
11
35772.49999999999
21
141100.0
31
0
0
LINE
8
envelope
10
35727.49999999999
20
92700.0
30
0
11
35727.49999999999
21
141100.0
31
0
0
LINE
8
envelope
10
35772.49999999999
20
92700.0
30
0
11
35727.49999999999
21
92700.0
31
0
0
LINE
8
envelope
10
35772.49999999999
20
141100.0
30
0
11
35727.49999999999
21
141100.0
31
0
0
LINE
8
envelope
10
34272.49999999999
20
92700.0
30
0
11
34272.49999999999
21
141100.0
31
0
0
LINE
8
envelope
10
34227.49999999999
20
92700.0
30
0
11
34227.49999999999
21
141100.0
31
0
0
LINE
8
envelope
10
34272.49999999999
20
92700.0
30
0
11
34227.49999999999
21
92700.0
31
0
0
LINE
8
envelope
10
34272.49999999999
20
141100.0
30
0
11
34227.49999999999
21
141100.0
31
0
0
LINE
8
envelope
10
32772.49999999999
20
92700.0
30
0
11
32772.49999999999
21
141100.0
31
0
0
LINE
8
envelope
10
32727.499999999993
20
92700.0
30
0
11
32727.499999999993
21
141100.0
31
0
0
LINE
8
envelope
10
32772.49999999999
20
92700.0
30
0
11
32727.499999999993
21
92700.0
31
0
0
LINE
8
envelope
10
32772.49999999999
20
141100.0
30
0
11
32727.499999999993
21
141100.0
31
0
0
LINE
8
envelope
10
31272.499999999993
20
92700.0
30
0
11
31272.499999999993
21
141100.0
31
0
0
LINE
8
envelope
10
31227.499999999993
20
92700.0
30
0
11
31227.499999999993
21
141100.0
31
0
0
LINE
8
envelope
10
31272.499999999993
20
92700.0
30
0
11
31227.499999999993
21
92700.0
31
0
0
LINE
8
envelope
10
31272.499999999993
20
141100.0
30
0
11
31227.499999999993
21
141100.0
31
0
0
LINE
8
envelope
10
29772.499999999993
20
92700.0
30
0
11
29772.499999999993
21
141100.0
31
0
0
LINE
8
envelope
10
29727.499999999993
20
92700.0
30
0
11
29727.499999999993
21
141100.0
31
0
0
LINE
8
envelope
10
29772.499999999993
20
92700.0
30
0
11
29727.499999999993
21
92700.0
31
0
0
LINE
8
envelope
10
29772.499999999993
20
141100.0
30
0
11
29727.499999999993
21
141100.0
31
0
0
LINE
8
envelope
10
278900.0
20
92700.0
30
0
11
278900.0
21
141100.0
31
0
0
LINE
8
envelope
10
278600.0
20
92700.0
30
0
11
278600.0
21
141100.0
31
0
0
LINE
8
envelope
10
278900.0
20
92700.0
30
0
11
278600.0
21
92700.0
31
0
0
LINE
8
envelope
10
278900.0
20
141100.0
30
0
11
278600.0
21
141100.0
31
0
0
LINE
8
envelope
10
101750.00000000001
20
103800.0
30
0
11
95750.0
21
103800.0
31
0
0
LINE
8
envelope
10
95750.0
20
103800.0
30
0
11
95750.0
21
99300.0
31
0
0
LINE
8
envelope
10
101750.00000000001
20
99300.0
30
0
11
95750.0
21
99300.0
31
0
0
LINE
8
envelope
10
101750.00000000001
20
103800.0
30
0
11
101750.00000000001
21
99300.0
31
0
0
LINE
8
envelope
10
28900.0
20
92700.0
30
0
11
28900.0
21
141100.0
31
0
0
LINE
8
envelope
10
28599.999999999993
20
92700.0
30
0
11
28599.999999999993
21
141100.0
31
0
0
LINE
8
envelope
10
28900.0
20
92700.0
30
0
11
28599.999999999993
21
92700.0
31
0
0
LINE
8
envelope
10
28900.0
20
141100.0
30
0
11
28599.999999999993
21
141100.0
31
0
0
LINE
8
glazing
10
111250.0
20
99300.0
30
0
11
111250.0
21
110799.99999999999
31
0
0
LINE
8
glazing
10
102249.99999999999
20
99300.0
30
0
11
102249.99999999999
21
110799.99999999999
31
0
0
LINE
8
glazing
10
111250.0
20
99300.0
30
0
11
102249.99999999999
21
99300.0
31
0
0
LINE
8
glazing
10
111250.0
20
110799.99999999999
30
0
11
102249.99999999999
21
110799.99999999999
31
0
0
LINE
8
glazing
10
95250.0
20
99300.0
30
0
11
95250.0
21
110799.99999999999
31
0
0
LINE
8
glazing
10
86250.0
20
99300.0
30
0
11
86250.0
21
110799.99999999999
31
0
0
LINE
8
glazing
10
95250.0
20
99300.0
30
0
11
86250.0
21
99300.0
31
0
0
LINE
8
glazing
10
95250.0
20
110799.99999999999
30
0
11
86250.0
21
110799.99999999999
31
0
0
LINE
8
glazing
10
111330.0
20
99300.0
30
0
11
111330.0
21
110799.99999999999
31
0
0
LINE
8
glazing
10
111330.0
20
99300.0
30
0
11
111250.0
21
99300.0
31
0
0
LINE
8
glazing
10
111330.0
20
110799.99999999999
30
0
11
111250.0
21
110799.99999999999
31
0
0
LINE
8
glazing
10
86170.0
20
99300.0
30
0
11
86170.0
21
110799.99999999999
31
0
0
LINE
8
glazing
10
86250.0
20
99300.0
30
0
11
86170.0
21
99300.0
31
0
0
LINE
8
glazing
10
86250.0
20
110799.99999999999
30
0
11
86170.0
21
110799.99999999999
31
0
0
LINE
8
glazing
10
102249.99999999999
20
103800.0
30
0
11
102249.99999999999
21
110799.99999999999
31
0
0
LINE
8
glazing
10
95250.0
20
103800.0
30
0
11
95250.0
21
110799.99999999999
31
0
0
LINE
8
glazing
10
102249.99999999999
20
103800.0
30
0
11
95250.0
21
103800.0
31
0
0
LINE
8
glazing
10
102249.99999999999
20
110799.99999999999
30
0
11
95250.0
21
110799.99999999999
31
0
0
LINE
8
glazing
10
101850.00000000001
20
99500.0
30
0
11
101850.00000000001
21
103500.0
31
0
0
LINE
8
glazing
10
98850.00000000001
20
99500.0
30
0
11
98850.00000000001
21
103500.0
31
0
0
LINE
8
glazing
10
101850.00000000001
20
99500.0
30
0
11
98850.00000000001
21
99500.0
31
0
0
LINE
8
glazing
10
101850.00000000001
20
103500.0
30
0
11
98850.00000000001
21
103500.0
31
0
0
LINE
8
glazing
10
98650.0
20
99500.0
30
0
11
98650.0
21
103500.0
31
0
0
LINE
8
glazing
10
95650.0
20
99500.0
30
0
11
95650.0
21
103500.0
31
0
0
LINE
8
glazing
10
98650.0
20
99500.0
30
0
11
95650.0
21
99500.0
31
0
0
LINE
8
glazing
10
98650.0
20
103500.0
30
0
11
95650.0
21
103500.0
31
0
0
LINE
8
roof
10
112750.0
20
110799.99999999999
30
0
11
112750.0
21
111400.0
31
0
0
LINE
8
roof
10
84750.0
20
110799.99999999999
30
0
11
84750.0
21
111400.0
31
0
0
LINE
8
roof
10
112750.0
20
110799.99999999999
30
0
11
84750.0
21
110799.99999999999
31
0
0
LINE
8
roof
10
112750.0
20
111400.0
30
0
11
84750.0
21
111400.0
31
0
0
LINE
8
equipment
10
251649.99999999997
20
141700.0
30
0
11
251649.99999999997
21
142200.0
31
0
0
LINE
8
equipment
10
239850.0
20
141700.0
30
0
11
239850.0
21
142200.0
31
0
0
LINE
8
equipment
10
251649.99999999997
20
141700.0
30
0
11
239850.0
21
141700.0
31
0
0
LINE
8
equipment
10
251649.99999999997
20
142200.0
30
0
11
239850.0
21
142200.0
31
0
0
LINE
8
equipment
10
251250.0
20
142200.0
30
0
11
251250.0
21
145500.0
31
0
0
LINE
8
equipment
10
240250.0
20
142200.0
30
0
11
240250.0
21
145500.0
31
0
0
LINE
8
equipment
10
251250.0
20
145500.0
30
0
11
240250.0
21
145500.0
31
0
0
LINE
8
equipment
10
250850.00000000003
20
142600.0
30
0
11
250850.00000000003
21
144900.0
31
0
0
LINE
8
equipment
10
249050.0
20
142600.0
30
0
11
249050.0
21
144900.0
31
0
0
LINE
8
equipment
10
250850.00000000003
20
142600.0
30
0
11
249050.0
21
142600.0
31
0
0
LINE
8
equipment
10
250850.00000000003
20
144900.0
30
0
11
249050.0
21
144900.0
31
0
0
LINE
8
equipment
10
247170.0
20
145800.0
30
0
11
247195.07
21
145800.0
31
0
0
LINE
8
equipment
10
247195.07
20
145800.0
30
0
11
247269.03000000003
21
145800.0
31
0
0
LINE
8
equipment
10
247269.03000000003
20
145800.0
30
0
11
247388.16999999998
21
145800.0
31
0
0
LINE
8
equipment
10
247388.16999999998
20
145800.0
30
0
11
247546.50999999998
21
145800.0
31
0
0
LINE
8
equipment
10
247546.50999999998
20
145800.0
30
0
11
247736.12
21
145800.0
31
0
0
LINE
8
equipment
10
247736.12
20
145800.0
30
0
11
247947.47999999998
21
145800.0
31
0
0
LINE
8
equipment
10
247947.47999999998
20
145800.0
30
0
11
248170.0
21
145800.0
31
0
0
LINE
8
equipment
10
248170.0
20
145800.0
30
0
11
248392.52
21
145800.0
31
0
0
LINE
8
equipment
10
248392.52
20
145800.0
30
0
11
248603.87999999998
21
145800.0
31
0
0
LINE
8
equipment
10
248603.87999999998
20
145800.0
30
0
11
248793.49
21
145800.0
31
0
0
LINE
8
equipment
10
248793.49
20
145800.0
30
0
11
248951.83
21
145800.0
31
0
0
LINE
8
equipment
10
248951.83
20
145800.0
30
0
11
249070.97
21
145800.0
31
0
0
LINE
8
equipment
10
249070.97
20
145800.0
30
0
11
249144.93
21
145800.0
31
0
0
LINE
8
equipment
10
249144.93
20
145800.0
30
0
11
249170.00000000003
21
145800.0
31
0
0
LINE
8
equipment
10
247170.0
20
145500.0
30
0
11
247170.0
21
145800.0
31
0
0
LINE
8
equipment
10
246650.0
20
142600.0
30
0
11
246650.0
21
144900.0
31
0
0
LINE
8
equipment
10
244850.00000000003
20
142600.0
30
0
11
244850.00000000003
21
144900.0
31
0
0
LINE
8
equipment
10
246650.0
20
142600.0
30
0
11
244850.00000000003
21
142600.0
31
0
0
LINE
8
equipment
10
246650.0
20
144900.0
30
0
11
244850.00000000003
21
144900.0
31
0
0
LINE
8
equipment
10
244750.0
20
145800.0
30
0
11
244775.07
21
145800.0
31
0
0
LINE
8
equipment
10
244775.07
20
145800.0
30
0
11
244849.03
21
145800.0
31
0
0
LINE
8
equipment
10
244849.03
20
145800.0
30
0
11
244968.17
21
145800.0
31
0
0
LINE
8
equipment
10
244968.17
20
145800.0
30
0
11
245126.51
21
145800.0
31
0
0
LINE
8
equipment
10
245126.51
20
145800.0
30
0
11
245316.12000000002
21
145800.0
31
0
0
LINE
8
equipment
10
245316.12000000002
20
145800.0
30
0
11
245527.48
21
145800.0
31
0
0
LINE
8
equipment
10
245527.48
20
145800.0
30
0
11
245750.0
21
145800.0
31
0
0
LINE
8
equipment
10
245750.0
20
145800.0
30
0
11
245972.52000000002
21
145800.0
31
0
0
LINE
8
equipment
10
245972.52000000002
20
145800.0
30
0
11
246183.88
21
145800.0
31
0
0
LINE
8
equipment
10
246183.88
20
145800.0
30
0
11
246373.49000000002
21
145800.0
31
0
0
LINE
8
equipment
10
246373.49000000002
20
145800.0
30
0
11
246531.83000000002
21
145800.0
31
0
0
LINE
8
equipment
10
246531.83000000002
20
145800.0
30
0
11
246650.97
21
145800.0
31
0
0
LINE
8
equipment
10
246650.97
20
145800.0
30
0
11
246724.93
21
145800.0
31
0
0
LINE
8
equipment
10
246724.93
20
145800.0
30
0
11
246750.0
21
145800.0
31
0
0
LINE
8
equipment
10
244750.0
20
145500.0
30
0
11
244750.0
21
145800.0
31
0
0
LINE
8
equipment
10
242450.0
20
142600.0
30
0
11
242450.0
21
144900.0
31
0
0
LINE
8
equipment
10
240650.0
20
142600.0
30
0
11
240650.0
21
144900.0
31
0
0
LINE
8
equipment
10
242450.0
20
142600.0
30
0
11
240650.0
21
142600.0
31
0
0
LINE
8
equipment
10
242450.0
20
144900.0
30
0
11
240650.0
21
144900.0
31
0
0
LINE
8
equipment
10
242330.0
20
145800.0
30
0
11
242355.06999999998
21
145800.0
31
0
0
LINE
8
equipment
10
242355.06999999998
20
145800.0
30
0
11
242429.02999999997
21
145800.0
31
0
0
LINE
8
equipment
10
242429.02999999997
20
145800.0
30
0
11
242548.17
21
145800.0
31
0
0
LINE
8
equipment
10
242548.17
20
145800.0
30
0
11
242706.50999999998
21
145800.0
31
0
0
LINE
8
equipment
10
242706.50999999998
20
145800.0
30
0
11
242896.12
21
145800.0
31
0
0
LINE
8
equipment
10
242896.12
20
145800.0
30
0
11
243107.47999999998
21
145800.0
31
0
0
LINE
8
equipment
10
243107.47999999998
20
145800.0
30
0
11
243330.0
21
145800.0
31
0
0
LINE
8
equipment
10
243330.0
20
145800.0
30
0
11
243552.52
21
145800.0
31
0
0
LINE
8
equipment
10
243552.52
20
145800.0
30
0
11
243763.88
21
145800.0
31
0
0
LINE
8
equipment
10
243763.88
20
145800.0
30
0
11
243953.49
21
145800.0
31
0
0
LINE
8
equipment
10
243953.49
20
145800.0
30
0
11
244111.83
21
145800.0
31
0
0
LINE
8
equipment
10
244111.83
20
145800.0
30
0
11
244230.97
21
145800.0
31
0
0
LINE
8
equipment
10
244230.97
20
145800.0
30
0
11
244304.93000000002
21
145800.0
31
0
0
LINE
8
equipment
10
244304.93000000002
20
145800.0
30
0
11
244329.99999999997
21
145800.0
31
0
0
LINE
8
equipment
10
242330.0
20
145500.0
30
0
11
242330.0
21
145800.0
31
0
0
LINE
8
equipment
10
251050.0
20
142500.0
30
0
11
251050.0
21
142580.0
31
0
0
LINE
8
equipment
10
240450.00000000003
20
142500.0
30
0
11
240450.00000000003
21
142580.0
31
0
0
LINE
8
equipment
10
251050.0
20
142500.0
30
0
11
240450.00000000003
21
142500.0
31
0
0
LINE
8
equipment
10
251050.0
20
142580.0
30
0
11
240450.00000000003
21
142580.0
31
0
0
LINE
8
equipment
10
251050.0
20
142750.0
30
0
11
251050.0
21
142830.0
31
0
0
LINE
8
equipment
10
240450.00000000003
20
142750.0
30
0
11
240450.00000000003
21
142830.0
31
0
0
LINE
8
equipment
10
251050.0
20
142750.0
30
0
11
250850.00000000003
21
142750.0
31
0
0
LINE
8
equipment
10
249050.0
20
142750.0
30
0
11
246650.0
21
142750.0
31
0
0
LINE
8
equipment
10
244850.00000000003
20
142750.0
30
0
11
242450.0
21
142750.0
31
0
0
LINE
8
equipment
10
240650.0
20
142750.0
30
0
11
240450.00000000003
21
142750.0
31
0
0
LINE
8
equipment
10
251050.0
20
142830.0
30
0
11
250850.00000000003
21
142830.0
31
0
0
LINE
8
equipment
10
249050.0
20
142830.0
30
0
11
246650.0
21
142830.0
31
0
0
LINE
8
equipment
10
244850.00000000003
20
142830.0
30
0
11
242450.0
21
142830.0
31
0
0
LINE
8
equipment
10
240650.0
20
142830.0
30
0
11
240450.00000000003
21
142830.0
31
0
0
LINE
8
equipment
10
251050.0
20
143000.0
30
0
11
251050.0
21
143080.0
31
0
0
LINE
8
equipment
10
240450.00000000003
20
143000.0
30
0
11
240450.00000000003
21
143080.0
31
0
0
LINE
8
equipment
10
251050.0
20
143000.0
30
0
11
250850.00000000003
21
143000.0
31
0
0
LINE
8
equipment
10
249050.0
20
143000.0
30
0
11
246650.0
21
143000.0
31
0
0
LINE
8
equipment
10
244850.00000000003
20
143000.0
30
0
11
242450.0
21
143000.0
31
0
0
LINE
8
equipment
10
240650.0
20
143000.0
30
0
11
240450.00000000003
21
143000.0
31
0
0
LINE
8
equipment
10
251050.0
20
143080.0
30
0
11
250850.00000000003
21
143080.0
31
0
0
LINE
8
equipment
10
249050.0
20
143080.0
30
0
11
246650.0
21
143080.0
31
0
0
LINE
8
equipment
10
244850.00000000003
20
143080.0
30
0
11
242450.0
21
143080.0
31
0
0
LINE
8
equipment
10
240650.0
20
143080.0
30
0
11
240450.00000000003
21
143080.0
31
0
0
LINE
8
equipment
10
251050.0
20
143250.0
30
0
11
251050.0
21
143330.0
31
0
0
LINE
8
equipment
10
240450.00000000003
20
143250.0
30
0
11
240450.00000000003
21
143330.0
31
0
0
LINE
8
equipment
10
251050.0
20
143250.0
30
0
11
250850.00000000003
21
143250.0
31
0
0
LINE
8
equipment
10
249050.0
20
143250.0
30
0
11
246650.0
21
143250.0
31
0
0
LINE
8
equipment
10
244850.00000000003
20
143250.0
30
0
11
242450.0
21
143250.0
31
0
0
LINE
8
equipment
10
240650.0
20
143250.0
30
0
11
240450.00000000003
21
143250.0
31
0
0
LINE
8
equipment
10
251050.0
20
143330.0
30
0
11
250850.00000000003
21
143330.0
31
0
0
LINE
8
equipment
10
249050.0
20
143330.0
30
0
11
246650.0
21
143330.0
31
0
0
LINE
8
equipment
10
244850.00000000003
20
143330.0
30
0
11
242450.0
21
143330.0
31
0
0
LINE
8
equipment
10
240650.0
20
143330.0
30
0
11
240450.00000000003
21
143330.0
31
0
0
LINE
8
equipment
10
251050.0
20
143500.0
30
0
11
251050.0
21
143580.0
31
0
0
LINE
8
equipment
10
240450.00000000003
20
143500.0
30
0
11
240450.00000000003
21
143580.0
31
0
0
LINE
8
equipment
10
251050.0
20
143500.0
30
0
11
250850.00000000003
21
143500.0
31
0
0
LINE
8
equipment
10
249050.0
20
143500.0
30
0
11
246650.0
21
143500.0
31
0
0
LINE
8
equipment
10
244850.00000000003
20
143500.0
30
0
11
242450.0
21
143500.0
31
0
0
LINE
8
equipment
10
240650.0
20
143500.0
30
0
11
240450.00000000003
21
143500.0
31
0
0
LINE
8
equipment
10
251050.0
20
143580.0
30
0
11
250850.00000000003
21
143580.0
31
0
0
LINE
8
equipment
10
249050.0
20
143580.0
30
0
11
246650.0
21
143580.0
31
0
0
LINE
8
equipment
10
244850.00000000003
20
143580.0
30
0
11
242450.0
21
143580.0
31
0
0
LINE
8
equipment
10
240650.0
20
143580.0
30
0
11
240450.00000000003
21
143580.0
31
0
0
LINE
8
equipment
10
251050.0
20
143750.0
30
0
11
251050.0
21
143830.0
31
0
0
LINE
8
equipment
10
240450.00000000003
20
143750.0
30
0
11
240450.00000000003
21
143830.0
31
0
0
LINE
8
equipment
10
251050.0
20
143750.0
30
0
11
250850.00000000003
21
143750.0
31
0
0
LINE
8
equipment
10
249050.0
20
143750.0
30
0
11
246650.0
21
143750.0
31
0
0
LINE
8
equipment
10
244850.00000000003
20
143750.0
30
0
11
242450.0
21
143750.0
31
0
0
LINE
8
equipment
10
240650.0
20
143750.0
30
0
11
240450.00000000003
21
143750.0
31
0
0
LINE
8
equipment
10
251050.0
20
143830.0
30
0
11
250850.00000000003
21
143830.0
31
0
0
LINE
8
equipment
10
249050.0
20
143830.0
30
0
11
246650.0
21
143830.0
31
0
0
LINE
8
equipment
10
244850.00000000003
20
143830.0
30
0
11
242450.0
21
143830.0
31
0
0
LINE
8
equipment
10
240650.0
20
143830.0
30
0
11
240450.00000000003
21
143830.0
31
0
0
LINE
8
equipment
10
251050.0
20
144000.0
30
0
11
251050.0
21
144080.0
31
0
0
LINE
8
equipment
10
240450.00000000003
20
144000.0
30
0
11
240450.00000000003
21
144080.0
31
0
0
LINE
8
equipment
10
251050.0
20
144000.0
30
0
11
250850.00000000003
21
144000.0
31
0
0
LINE
8
equipment
10
249050.0
20
144000.0
30
0
11
246650.0
21
144000.0
31
0
0
LINE
8
equipment
10
244850.00000000003
20
144000.0
30
0
11
242450.0
21
144000.0
31
0
0
LINE
8
equipment
10
240650.0
20
144000.0
30
0
11
240450.00000000003
21
144000.0
31
0
0
LINE
8
equipment
10
251050.0
20
144080.0
30
0
11
250850.00000000003
21
144080.0
31
0
0
LINE
8
equipment
10
249050.0
20
144080.0
30
0
11
246650.0
21
144080.0
31
0
0
LINE
8
equipment
10
244850.00000000003
20
144080.0
30
0
11
242450.0
21
144080.0
31
0
0
LINE
8
equipment
10
240650.0
20
144080.0
30
0
11
240450.00000000003
21
144080.0
31
0
0
LINE
8
equipment
10
251050.0
20
144250.0
30
0
11
251050.0
21
144330.0
31
0
0
LINE
8
equipment
10
240450.00000000003
20
144250.0
30
0
11
240450.00000000003
21
144330.0
31
0
0
LINE
8
equipment
10
251050.0
20
144250.0
30
0
11
250850.00000000003
21
144250.0
31
0
0
LINE
8
equipment
10
249050.0
20
144250.0
30
0
11
246650.0
21
144250.0
31
0
0
LINE
8
equipment
10
244850.00000000003
20
144250.0
30
0
11
242450.0
21
144250.0
31
0
0
LINE
8
equipment
10
240650.0
20
144250.0
30
0
11
240450.00000000003
21
144250.0
31
0
0
LINE
8
equipment
10
251050.0
20
144330.0
30
0
11
250850.00000000003
21
144330.0
31
0
0
LINE
8
equipment
10
249050.0
20
144330.0
30
0
11
246650.0
21
144330.0
31
0
0
LINE
8
equipment
10
244850.00000000003
20
144330.0
30
0
11
242450.0
21
144330.0
31
0
0
LINE
8
equipment
10
240650.0
20
144330.0
30
0
11
240450.00000000003
21
144330.0
31
0
0
LINE
8
equipment
10
251050.0
20
144500.0
30
0
11
251050.0
21
144580.0
31
0
0
LINE
8
equipment
10
240450.00000000003
20
144500.0
30
0
11
240450.00000000003
21
144580.0
31
0
0
LINE
8
equipment
10
251050.0
20
144500.0
30
0
11
250850.00000000003
21
144500.0
31
0
0
LINE
8
equipment
10
249050.0
20
144500.0
30
0
11
246650.0
21
144500.0
31
0
0
LINE
8
equipment
10
244850.00000000003
20
144500.0
30
0
11
242450.0
21
144500.0
31
0
0
LINE
8
equipment
10
240650.0
20
144500.0
30
0
11
240450.00000000003
21
144500.0
31
0
0
LINE
8
equipment
10
251050.0
20
144580.0
30
0
11
250850.00000000003
21
144580.0
31
0
0
LINE
8
equipment
10
249050.0
20
144580.0
30
0
11
246650.0
21
144580.0
31
0
0
LINE
8
equipment
10
244850.00000000003
20
144580.0
30
0
11
242450.0
21
144580.0
31
0
0
LINE
8
equipment
10
240650.0
20
144580.0
30
0
11
240450.00000000003
21
144580.0
31
0
0
LINE
8
equipment
10
251050.0
20
144750.0
30
0
11
251050.0
21
144830.0
31
0
0
LINE
8
equipment
10
240450.00000000003
20
144750.0
30
0
11
240450.00000000003
21
144830.0
31
0
0
LINE
8
equipment
10
251050.0
20
144750.0
30
0
11
250850.00000000003
21
144750.0
31
0
0
LINE
8
equipment
10
249050.0
20
144750.0
30
0
11
246650.0
21
144750.0
31
0
0
LINE
8
equipment
10
244850.00000000003
20
144750.0
30
0
11
242450.0
21
144750.0
31
0
0
LINE
8
equipment
10
240650.0
20
144750.0
30
0
11
240450.00000000003
21
144750.0
31
0
0
LINE
8
equipment
10
251050.0
20
144830.0
30
0
11
250850.00000000003
21
144830.0
31
0
0
LINE
8
equipment
10
249050.0
20
144830.0
30
0
11
246650.0
21
144830.0
31
0
0
LINE
8
equipment
10
244850.00000000003
20
144830.0
30
0
11
242450.0
21
144830.0
31
0
0
LINE
8
equipment
10
240650.0
20
144830.0
30
0
11
240450.00000000003
21
144830.0
31
0
0
LINE
8
equipment
10
215649.99999999997
20
141700.0
30
0
11
215649.99999999997
21
142200.0
31
0
0
LINE
8
equipment
10
203850.0
20
141700.0
30
0
11
203850.0
21
142200.0
31
0
0
LINE
8
equipment
10
215649.99999999997
20
141700.0
30
0
11
203850.0
21
141700.0
31
0
0
LINE
8
equipment
10
215649.99999999997
20
142200.0
30
0
11
203850.0
21
142200.0
31
0
0
LINE
8
equipment
10
215250.0
20
142200.0
30
0
11
215250.0
21
145500.0
31
0
0
LINE
8
equipment
10
204250.0
20
142200.0
30
0
11
204250.0
21
145500.0
31
0
0
LINE
8
equipment
10
215250.0
20
145500.0
30
0
11
204250.0
21
145500.0
31
0
0
LINE
8
equipment
10
214850.00000000003
20
142600.0
30
0
11
214850.00000000003
21
144900.0
31
0
0
LINE
8
equipment
10
213050.0
20
142600.0
30
0
11
213050.0
21
144900.0
31
0
0
LINE
8
equipment
10
214850.00000000003
20
142600.0
30
0
11
213050.0
21
142600.0
31
0
0
LINE
8
equipment
10
214850.00000000003
20
144900.0
30
0
11
213050.0
21
144900.0
31
0
0
LINE
8
equipment
10
211170.0
20
145800.0
30
0
11
211195.07
21
145800.0
31
0
0
LINE
8
equipment
10
211195.07
20
145800.0
30
0
11
211269.03000000003
21
145800.0
31
0
0
LINE
8
equipment
10
211269.03000000003
20
145800.0
30
0
11
211388.16999999998
21
145800.0
31
0
0
LINE
8
equipment
10
211388.16999999998
20
145800.0
30
0
11
211546.50999999998
21
145800.0
31
0
0
LINE
8
equipment
10
211546.50999999998
20
145800.0
30
0
11
211736.12000000002
21
145800.0
31
0
0
LINE
8
equipment
10
211736.12000000002
20
145800.0
30
0
11
211947.47999999998
21
145800.0
31
0
0
LINE
8
equipment
10
211947.47999999998
20
145800.0
30
0
11
212170.0
21
145800.0
31
0
0
LINE
8
equipment
10
212170.0
20
145800.0
30
0
11
212392.52
21
145800.0
31
0
0
LINE
8
equipment
10
212392.52
20
145800.0
30
0
11
212603.87999999998
21
145800.0
31
0
0
LINE
8
equipment
10
212603.87999999998
20
145800.0
30
0
11
212793.49
21
145800.0
31
0
0
LINE
8
equipment
10
212793.49
20
145800.0
30
0
11
212951.83
21
145800.0
31
0
0
LINE
8
equipment
10
212951.83
20
145800.0
30
0
11
213070.97
21
145800.0
31
0
0
LINE
8
equipment
10
213070.97
20
145800.0
30
0
11
213144.93
21
145800.0
31
0
0
LINE
8
equipment
10
213144.93
20
145800.0
30
0
11
213170.00000000003
21
145800.0
31
0
0
LINE
8
equipment
10
211170.0
20
145500.0
30
0
11
211170.0
21
145800.0
31
0
0
LINE
8
equipment
10
210650.0
20
142600.0
30
0
11
210650.0
21
144900.0
31
0
0
LINE
8
equipment
10
208850.00000000003
20
142600.0
30
0
11
208850.00000000003
21
144900.0
31
0
0
LINE
8
equipment
10
210650.0
20
142600.0
30
0
11
208850.00000000003
21
142600.0
31
0
0
LINE
8
equipment
10
210650.0
20
144900.0
30
0
11
208850.00000000003
21
144900.0
31
0
0
LINE
8
equipment
10
208750.0
20
145800.0
30
0
11
208775.07
21
145800.0
31
0
0
LINE
8
equipment
10
208775.07
20
145800.0
30
0
11
208849.03
21
145800.0
31
0
0
LINE
8
equipment
10
208849.03
20
145800.0
30
0
11
208968.17
21
145800.0
31
0
0
LINE
8
equipment
10
208968.17
20
145800.0
30
0
11
209126.51
21
145800.0
31
0
0
LINE
8
equipment
10
209126.51
20
145800.0
30
0
11
209316.12000000002
21
145800.0
31
0
0
LINE
8
equipment
10
209316.12000000002
20
145800.0
30
0
11
209527.48
21
145800.0
31
0
0
LINE
8
equipment
10
209527.48
20
145800.0
30
0
11
209750.0
21
145800.0
31
0
0
LINE
8
equipment
10
209750.0
20
145800.0
30
0
11
209972.51999999996
21
145800.0
31
0
0
LINE
8
equipment
10
209972.51999999996
20
145800.0
30
0
11
210183.88
21
145800.0
31
0
0
LINE
8
equipment
10
210183.88
20
145800.0
30
0
11
210373.48999999996
21
145800.0
31
0
0
LINE
8
equipment
10
210373.48999999996
20
145800.0
30
0
11
210531.83000000002
21
145800.0
31
0
0
LINE
8
equipment
10
210531.83000000002
20
145800.0
30
0
11
210650.97
21
145800.0
31
0
0
LINE
8
equipment
10
210650.97
20
145800.0
30
0
11
210724.93
21
145800.0
31
0
0
LINE
8
equipment
10
210724.93
20
145800.0
30
0
11
210750.0
21
145800.0
31
0
0
LINE
8
equipment
10
208750.0
20
145500.0
30
0
11
208750.0
21
145800.0
31
0
0
LINE
8
equipment
10
206450.0
20
142600.0
30
0
11
206450.0
21
144900.0
31
0
0
LINE
8
equipment
10
204650.0
20
142600.0
30
0
11
204650.0
21
144900.0
31
0
0
LINE
8
equipment
10
206450.0
20
142600.0
30
0
11
204650.0
21
142600.0
31
0
0
LINE
8
equipment
10
206450.0
20
144900.0
30
0
11
204650.0
21
144900.0
31
0
0
LINE
8
equipment
10
206330.0
20
145800.0
30
0
11
206355.06999999998
21
145800.0
31
0
0
LINE
8
equipment
10
206355.06999999998
20
145800.0
30
0
11
206429.02999999997
21
145800.0
31
0
0
LINE
8
equipment
10
206429.02999999997
20
145800.0
30
0
11
206548.17
21
145800.0
31
0
0
LINE
8
equipment
10
206548.17
20
145800.0
30
0
11
206706.50999999998
21
145800.0
31
0
0
LINE
8
equipment
10
206706.50999999998
20
145800.0
30
0
11
206896.12
21
145800.0
31
0
0
LINE
8
equipment
10
206896.12
20
145800.0
30
0
11
207107.47999999998
21
145800.0
31
0
0
LINE
8
equipment
10
207107.47999999998
20
145800.0
30
0
11
207330.0
21
145800.0
31
0
0
LINE
8
equipment
10
207330.0
20
145800.0
30
0
11
207552.52
21
145800.0
31
0
0
LINE
8
equipment
10
207552.52
20
145800.0
30
0
11
207763.88
21
145800.0
31
0
0
LINE
8
equipment
10
207763.88
20
145800.0
30
0
11
207953.49
21
145800.0
31
0
0
LINE
8
equipment
10
207953.49
20
145800.0
30
0
11
208111.83
21
145800.0
31
0
0
LINE
8
equipment
10
208111.83
20
145800.0
30
0
11
208230.97
21
145800.0
31
0
0
LINE
8
equipment
10
208230.97
20
145800.0
30
0
11
208304.93000000002
21
145800.0
31
0
0
LINE
8
equipment
10
208304.93000000002
20
145800.0
30
0
11
208329.99999999997
21
145800.0
31
0
0
LINE
8
equipment
10
206330.0
20
145500.0
30
0
11
206330.0
21
145800.0
31
0
0
LINE
8
equipment
10
215050.0
20
142500.0
30
0
11
215050.0
21
142580.0
31
0
0
LINE
8
equipment
10
204450.00000000003
20
142500.0
30
0
11
204450.00000000003
21
142580.0
31
0
0
LINE
8
equipment
10
215050.0
20
142500.0
30
0
11
204450.00000000003
21
142500.0
31
0
0
LINE
8
equipment
10
215050.0
20
142580.0
30
0
11
204450.00000000003
21
142580.0
31
0
0
LINE
8
equipment
10
215050.0
20
142750.0
30
0
11
215050.0
21
142830.0
31
0
0
LINE
8
equipment
10
204450.00000000003
20
142750.0
30
0
11
204450.00000000003
21
142830.0
31
0
0
LINE
8
equipment
10
215050.0
20
142750.0
30
0
11
214850.00000000003
21
142750.0
31
0
0
LINE
8
equipment
10
213050.0
20
142750.0
30
0
11
210650.0
21
142750.0
31
0
0
LINE
8
equipment
10
208850.00000000003
20
142750.0
30
0
11
206450.0
21
142750.0
31
0
0
LINE
8
equipment
10
204650.0
20
142750.0
30
0
11
204450.00000000003
21
142750.0
31
0
0
LINE
8
equipment
10
215050.0
20
142830.0
30
0
11
214850.00000000003
21
142830.0
31
0
0
LINE
8
equipment
10
213050.0
20
142830.0
30
0
11
210650.0
21
142830.0
31
0
0
LINE
8
equipment
10
208850.00000000003
20
142830.0
30
0
11
206450.0
21
142830.0
31
0
0
LINE
8
equipment
10
204650.0
20
142830.0
30
0
11
204450.00000000003
21
142830.0
31
0
0
LINE
8
equipment
10
215050.0
20
143000.0
30
0
11
215050.0
21
143080.0
31
0
0
LINE
8
equipment
10
204450.00000000003
20
143000.0
30
0
11
204450.00000000003
21
143080.0
31
0
0
LINE
8
equipment
10
215050.0
20
143000.0
30
0
11
214850.00000000003
21
143000.0
31
0
0
LINE
8
equipment
10
213050.0
20
143000.0
30
0
11
210650.0
21
143000.0
31
0
0
LINE
8
equipment
10
208850.00000000003
20
143000.0
30
0
11
206450.0
21
143000.0
31
0
0
LINE
8
equipment
10
204650.0
20
143000.0
30
0
11
204450.00000000003
21
143000.0
31
0
0
LINE
8
equipment
10
215050.0
20
143080.0
30
0
11
214850.00000000003
21
143080.0
31
0
0
LINE
8
equipment
10
213050.0
20
143080.0
30
0
11
210650.0
21
143080.0
31
0
0
LINE
8
equipment
10
208850.00000000003
20
143080.0
30
0
11
206450.0
21
143080.0
31
0
0
LINE
8
equipment
10
204650.0
20
143080.0
30
0
11
204450.00000000003
21
143080.0
31
0
0
LINE
8
equipment
10
215050.0
20
143250.0
30
0
11
215050.0
21
143330.0
31
0
0
LINE
8
equipment
10
204450.00000000003
20
143250.0
30
0
11
204450.00000000003
21
143330.0
31
0
0
LINE
8
equipment
10
215050.0
20
143250.0
30
0
11
214850.00000000003
21
143250.0
31
0
0
LINE
8
equipment
10
213050.0
20
143250.0
30
0
11
210650.0
21
143250.0
31
0
0
LINE
8
equipment
10
208850.00000000003
20
143250.0
30
0
11
206450.0
21
143250.0
31
0
0
LINE
8
equipment
10
204650.0
20
143250.0
30
0
11
204450.00000000003
21
143250.0
31
0
0
LINE
8
equipment
10
215050.0
20
143330.0
30
0
11
214850.00000000003
21
143330.0
31
0
0
LINE
8
equipment
10
213050.0
20
143330.0
30
0
11
210650.0
21
143330.0
31
0
0
LINE
8
equipment
10
208850.00000000003
20
143330.0
30
0
11
206450.0
21
143330.0
31
0
0
LINE
8
equipment
10
204650.0
20
143330.0
30
0
11
204450.00000000003
21
143330.0
31
0
0
LINE
8
equipment
10
215050.0
20
143500.0
30
0
11
215050.0
21
143580.0
31
0
0
LINE
8
equipment
10
204450.00000000003
20
143500.0
30
0
11
204450.00000000003
21
143580.0
31
0
0
LINE
8
equipment
10
215050.0
20
143500.0
30
0
11
214850.00000000003
21
143500.0
31
0
0
LINE
8
equipment
10
213050.0
20
143500.0
30
0
11
210650.0
21
143500.0
31
0
0
LINE
8
equipment
10
208850.00000000003
20
143500.0
30
0
11
206450.0
21
143500.0
31
0
0
LINE
8
equipment
10
204650.0
20
143500.0
30
0
11
204450.00000000003
21
143500.0
31
0
0
LINE
8
equipment
10
215050.0
20
143580.0
30
0
11
214850.00000000003
21
143580.0
31
0
0
LINE
8
equipment
10
213050.0
20
143580.0
30
0
11
210650.0
21
143580.0
31
0
0
LINE
8
equipment
10
208850.00000000003
20
143580.0
30
0
11
206450.0
21
143580.0
31
0
0
LINE
8
equipment
10
204650.0
20
143580.0
30
0
11
204450.00000000003
21
143580.0
31
0
0
LINE
8
equipment
10
215050.0
20
143750.0
30
0
11
215050.0
21
143830.0
31
0
0
LINE
8
equipment
10
204450.00000000003
20
143750.0
30
0
11
204450.00000000003
21
143830.0
31
0
0
LINE
8
equipment
10
215050.0
20
143750.0
30
0
11
214850.00000000003
21
143750.0
31
0
0
LINE
8
equipment
10
213050.0
20
143750.0
30
0
11
210650.0
21
143750.0
31
0
0
LINE
8
equipment
10
208850.00000000003
20
143750.0
30
0
11
206450.0
21
143750.0
31
0
0
LINE
8
equipment
10
204650.0
20
143750.0
30
0
11
204450.00000000003
21
143750.0
31
0
0
LINE
8
equipment
10
215050.0
20
143830.0
30
0
11
214850.00000000003
21
143830.0
31
0
0
LINE
8
equipment
10
213050.0
20
143830.0
30
0
11
210650.0
21
143830.0
31
0
0
LINE
8
equipment
10
208850.00000000003
20
143830.0
30
0
11
206450.0
21
143830.0
31
0
0
LINE
8
equipment
10
204650.0
20
143830.0
30
0
11
204450.00000000003
21
143830.0
31
0
0
LINE
8
equipment
10
215050.0
20
144000.0
30
0
11
215050.0
21
144080.0
31
0
0
LINE
8
equipment
10
204450.00000000003
20
144000.0
30
0
11
204450.00000000003
21
144080.0
31
0
0
LINE
8
equipment
10
215050.0
20
144000.0
30
0
11
214850.00000000003
21
144000.0
31
0
0
LINE
8
equipment
10
213050.0
20
144000.0
30
0
11
210650.0
21
144000.0
31
0
0
LINE
8
equipment
10
208850.00000000003
20
144000.0
30
0
11
206450.0
21
144000.0
31
0
0
LINE
8
equipment
10
204650.0
20
144000.0
30
0
11
204450.00000000003
21
144000.0
31
0
0
LINE
8
equipment
10
215050.0
20
144080.0
30
0
11
214850.00000000003
21
144080.0
31
0
0
LINE
8
equipment
10
213050.0
20
144080.0
30
0
11
210650.0
21
144080.0
31
0
0
LINE
8
equipment
10
208850.00000000003
20
144080.0
30
0
11
206450.0
21
144080.0
31
0
0
LINE
8
equipment
10
204650.0
20
144080.0
30
0
11
204450.00000000003
21
144080.0
31
0
0
LINE
8
equipment
10
215050.0
20
144250.0
30
0
11
215050.0
21
144330.0
31
0
0
LINE
8
equipment
10
204450.00000000003
20
144250.0
30
0
11
204450.00000000003
21
144330.0
31
0
0
LINE
8
equipment
10
215050.0
20
144250.0
30
0
11
214850.00000000003
21
144250.0
31
0
0
LINE
8
equipment
10
213050.0
20
144250.0
30
0
11
210650.0
21
144250.0
31
0
0
LINE
8
equipment
10
208850.00000000003
20
144250.0
30
0
11
206450.0
21
144250.0
31
0
0
LINE
8
equipment
10
204650.0
20
144250.0
30
0
11
204450.00000000003
21
144250.0
31
0
0
LINE
8
equipment
10
215050.0
20
144330.0
30
0
11
214850.00000000003
21
144330.0
31
0
0
LINE
8
equipment
10
213050.0
20
144330.0
30
0
11
210650.0
21
144330.0
31
0
0
LINE
8
equipment
10
208850.00000000003
20
144330.0
30
0
11
206450.0
21
144330.0
31
0
0
LINE
8
equipment
10
204650.0
20
144330.0
30
0
11
204450.00000000003
21
144330.0
31
0
0
LINE
8
equipment
10
215050.0
20
144500.0
30
0
11
215050.0
21
144580.0
31
0
0
LINE
8
equipment
10
204450.00000000003
20
144500.0
30
0
11
204450.00000000003
21
144580.0
31
0
0
LINE
8
equipment
10
215050.0
20
144500.0
30
0
11
214850.00000000003
21
144500.0
31
0
0
LINE
8
equipment
10
213050.0
20
144500.0
30
0
11
210650.0
21
144500.0
31
0
0
LINE
8
equipment
10
208850.00000000003
20
144500.0
30
0
11
206450.0
21
144500.0
31
0
0
LINE
8
equipment
10
204650.0
20
144500.0
30
0
11
204450.00000000003
21
144500.0
31
0
0
LINE
8
equipment
10
215050.0
20
144580.0
30
0
11
214850.00000000003
21
144580.0
31
0
0
LINE
8
equipment
10
213050.0
20
144580.0
30
0
11
210650.0
21
144580.0
31
0
0
LINE
8
equipment
10
208850.00000000003
20
144580.0
30
0
11
206450.0
21
144580.0
31
0
0
LINE
8
equipment
10
204650.0
20
144580.0
30
0
11
204450.00000000003
21
144580.0
31
0
0
LINE
8
equipment
10
215050.0
20
144750.0
30
0
11
215050.0
21
144830.0
31
0
0
LINE
8
equipment
10
204450.00000000003
20
144750.0
30
0
11
204450.00000000003
21
144830.0
31
0
0
LINE
8
equipment
10
215050.0
20
144750.0
30
0
11
214850.00000000003
21
144750.0
31
0
0
LINE
8
equipment
10
213050.0
20
144750.0
30
0
11
210650.0
21
144750.0
31
0
0
LINE
8
equipment
10
208850.00000000003
20
144750.0
30
0
11
206450.0
21
144750.0
31
0
0
LINE
8
equipment
10
204650.0
20
144750.0
30
0
11
204450.00000000003
21
144750.0
31
0
0
LINE
8
equipment
10
215050.0
20
144830.0
30
0
11
214850.00000000003
21
144830.0
31
0
0
LINE
8
equipment
10
213050.0
20
144830.0
30
0
11
210650.0
21
144830.0
31
0
0
LINE
8
equipment
10
208850.00000000003
20
144830.0
30
0
11
206450.0
21
144830.0
31
0
0
LINE
8
equipment
10
204650.0
20
144830.0
30
0
11
204450.00000000003
21
144830.0
31
0
0
LINE
8
equipment
10
179650.0
20
141700.0
30
0
11
179650.0
21
142200.0
31
0
0
LINE
8
equipment
10
167850.0
20
141700.0
30
0
11
167850.0
21
142200.0
31
0
0
LINE
8
equipment
10
179650.0
20
141700.0
30
0
11
167850.0
21
141700.0
31
0
0
LINE
8
equipment
10
179650.0
20
142200.0
30
0
11
167850.0
21
142200.0
31
0
0
LINE
8
equipment
10
179250.0
20
142200.0
30
0
11
179250.0
21
145500.0
31
0
0
LINE
8
equipment
10
168250.0
20
142200.0
30
0
11
168250.0
21
145500.0
31
0
0
LINE
8
equipment
10
179250.0
20
145500.0
30
0
11
168250.0
21
145500.0
31
0
0
LINE
8
equipment
10
178850.0
20
142600.0
30
0
11
178850.0
21
144900.0
31
0
0
LINE
8
equipment
10
177050.0
20
142600.0
30
0
11
177050.0
21
144900.0
31
0
0
LINE
8
equipment
10
178850.0
20
142600.0
30
0
11
177050.0
21
142600.0
31
0
0
LINE
8
equipment
10
178850.0
20
144900.0
30
0
11
177050.0
21
144900.0
31
0
0
LINE
8
equipment
10
175170.0
20
145800.0
30
0
11
175195.07
21
145800.0
31
0
0
LINE
8
equipment
10
175195.07
20
145800.0
30
0
11
175269.03
21
145800.0
31
0
0
LINE
8
equipment
10
175269.03
20
145800.0
30
0
11
175388.16999999998
21
145800.0
31
0
0
LINE
8
equipment
10
175388.16999999998
20
145800.0
30
0
11
175546.51
21
145800.0
31
0
0
LINE
8
equipment
10
175546.51
20
145800.0
30
0
11
175736.12
21
145800.0
31
0
0
LINE
8
equipment
10
175736.12
20
145800.0
30
0
11
175947.48
21
145800.0
31
0
0
LINE
8
equipment
10
175947.48
20
145800.0
30
0
11
176170.0
21
145800.0
31
0
0
LINE
8
equipment
10
176170.0
20
145800.0
30
0
11
176392.52
21
145800.0
31
0
0
LINE
8
equipment
10
176392.52
20
145800.0
30
0
11
176603.87999999998
21
145800.0
31
0
0
LINE
8
equipment
10
176603.87999999998
20
145800.0
30
0
11
176793.49
21
145800.0
31
0
0
LINE
8
equipment
10
176793.49
20
145800.0
30
0
11
176951.83000000002
21
145800.0
31
0
0
LINE
8
equipment
10
176951.83000000002
20
145800.0
30
0
11
177070.97
21
145800.0
31
0
0
LINE
8
equipment
10
177070.97
20
145800.0
30
0
11
177144.93
21
145800.0
31
0
0
LINE
8
equipment
10
177144.93
20
145800.0
30
0
11
177170.0
21
145800.0
31
0
0
LINE
8
equipment
10
175170.0
20
145500.0
30
0
11
175170.0
21
145800.0
31
0
0
LINE
8
equipment
10
174650.0
20
142600.0
30
0
11
174650.0
21
144900.0
31
0
0
LINE
8
equipment
10
172850.0
20
142600.0
30
0
11
172850.0
21
144900.0
31
0
0
LINE
8
equipment
10
174650.0
20
142600.0
30
0
11
172850.0
21
142600.0
31
0
0
LINE
8
equipment
10
174650.0
20
144900.0
30
0
11
172850.0
21
144900.0
31
0
0
LINE
8
equipment
10
172750.0
20
145800.0
30
0
11
172775.07
21
145800.0
31
0
0
LINE
8
equipment
10
172775.07
20
145800.0
30
0
11
172849.03
21
145800.0
31
0
0
LINE
8
equipment
10
172849.03
20
145800.0
30
0
11
172968.16999999998
21
145800.0
31
0
0
LINE
8
equipment
10
172968.16999999998
20
145800.0
30
0
11
173126.51
21
145800.0
31
0
0
LINE
8
equipment
10
173126.51
20
145800.0
30
0
11
173316.12
21
145800.0
31
0
0
LINE
8
equipment
10
173316.12
20
145800.0
30
0
11
173527.48
21
145800.0
31
0
0
LINE
8
equipment
10
173527.48
20
145800.0
30
0
11
173750.0
21
145800.0
31
0
0
LINE
8
equipment
10
173750.0
20
145800.0
30
0
11
173972.52
21
145800.0
31
0
0
LINE
8
equipment
10
173972.52
20
145800.0
30
0
11
174183.88
21
145800.0
31
0
0
LINE
8
equipment
10
174183.88
20
145800.0
30
0
11
174373.49
21
145800.0
31
0
0
LINE
8
equipment
10
174373.49
20
145800.0
30
0
11
174531.83000000002
21
145800.0
31
0
0
LINE
8
equipment
10
174531.83000000002
20
145800.0
30
0
11
174650.97
21
145800.0
31
0
0
LINE
8
equipment
10
174650.97
20
145800.0
30
0
11
174724.93000000002
21
145800.0
31
0
0
LINE
8
equipment
10
174724.93000000002
20
145800.0
30
0
11
174750.0
21
145800.0
31
0
0
LINE
8
equipment
10
172750.0
20
145500.0
30
0
11
172750.0
21
145800.0
31
0
0
LINE
8
equipment
10
170450.0
20
142600.0
30
0
11
170450.0
21
144900.0
31
0
0
LINE
8
equipment
10
168650.0
20
142600.0
30
0
11
168650.0
21
144900.0
31
0
0
LINE
8
equipment
10
170450.0
20
142600.0
30
0
11
168650.0
21
142600.0
31
0
0
LINE
8
equipment
10
170450.0
20
144900.0
30
0
11
168650.0
21
144900.0
31
0
0
LINE
8
equipment
10
170330.0
20
145800.0
30
0
11
170355.07
21
145800.0
31
0
0
LINE
8
equipment
10
170355.07
20
145800.0
30
0
11
170429.03
21
145800.0
31
0
0
LINE
8
equipment
10
170429.03
20
145800.0
30
0
11
170548.17
21
145800.0
31
0
0
LINE
8
equipment
10
170548.17
20
145800.0
30
0
11
170706.50999999998
21
145800.0
31
0
0
LINE
8
equipment
10
170706.50999999998
20
145800.0
30
0
11
170896.12
21
145800.0
31
0
0
LINE
8
equipment
10
170896.12
20
145800.0
30
0
11
171107.47999999998
21
145800.0
31
0
0
LINE
8
equipment
10
171107.47999999998
20
145800.0
30
0
11
171330.0
21
145800.0
31
0
0
LINE
8
equipment
10
171330.0
20
145800.0
30
0
11
171552.52
21
145800.0
31
0
0
LINE
8
equipment
10
171552.52
20
145800.0
30
0
11
171763.88
21
145800.0
31
0
0
LINE
8
equipment
10
171763.88
20
145800.0
30
0
11
171953.49
21
145800.0
31
0
0
LINE
8
equipment
10
171953.49
20
145800.0
30
0
11
172111.83
21
145800.0
31
0
0
LINE
8
equipment
10
172111.83
20
145800.0
30
0
11
172230.97
21
145800.0
31
0
0
LINE
8
equipment
10
172230.97
20
145800.0
30
0
11
172304.93
21
145800.0
31
0
0
LINE
8
equipment
10
172304.93
20
145800.0
30
0
11
172330.0
21
145800.0
31
0
0
LINE
8
equipment
10
170330.0
20
145500.0
30
0
11
170330.0
21
145800.0
31
0
0
LINE
8
equipment
10
179050.0
20
142500.0
30
0
11
179050.0
21
142580.0
31
0
0
LINE
8
equipment
10
168450.0
20
142500.0
30
0
11
168450.0
21
142580.0
31
0
0
LINE
8
equipment
10
179050.0
20
142500.0
30
0
11
168450.0
21
142500.0
31
0
0
LINE
8
equipment
10
179050.0
20
142580.0
30
0
11
168450.0
21
142580.0
31
0
0
LINE
8
equipment
10
179050.0
20
142750.0
30
0
11
179050.0
21
142830.0
31
0
0
LINE
8
equipment
10
168450.0
20
142750.0
30
0
11
168450.0
21
142830.0
31
0
0
LINE
8
equipment
10
179050.0
20
142750.0
30
0
11
178850.0
21
142750.0
31
0
0
LINE
8
equipment
10
177050.0
20
142750.0
30
0
11
174650.0
21
142750.0
31
0
0
LINE
8
equipment
10
172850.0
20
142750.0
30
0
11
170450.0
21
142750.0
31
0
0
LINE
8
equipment
10
168650.0
20
142750.0
30
0
11
168450.0
21
142750.0
31
0
0
LINE
8
equipment
10
179050.0
20
142830.0
30
0
11
178850.0
21
142830.0
31
0
0
LINE
8
equipment
10
177050.0
20
142830.0
30
0
11
174650.0
21
142830.0
31
0
0
LINE
8
equipment
10
172850.0
20
142830.0
30
0
11
170450.0
21
142830.0
31
0
0
LINE
8
equipment
10
168650.0
20
142830.0
30
0
11
168450.0
21
142830.0
31
0
0
LINE
8
equipment
10
179050.0
20
143000.0
30
0
11
179050.0
21
143080.0
31
0
0
LINE
8
equipment
10
168450.0
20
143000.0
30
0
11
168450.0
21
143080.0
31
0
0
LINE
8
equipment
10
179050.0
20
143000.0
30
0
11
178850.0
21
143000.0
31
0
0
LINE
8
equipment
10
177050.0
20
143000.0
30
0
11
174650.0
21
143000.0
31
0
0
LINE
8
equipment
10
172850.0
20
143000.0
30
0
11
170450.0
21
143000.0
31
0
0
LINE
8
equipment
10
168650.0
20
143000.0
30
0
11
168450.0
21
143000.0
31
0
0
LINE
8
equipment
10
179050.0
20
143080.0
30
0
11
178850.0
21
143080.0
31
0
0
LINE
8
equipment
10
177050.0
20
143080.0
30
0
11
174650.0
21
143080.0
31
0
0
LINE
8
equipment
10
172850.0
20
143080.0
30
0
11
170450.0
21
143080.0
31
0
0
LINE
8
equipment
10
168650.0
20
143080.0
30
0
11
168450.0
21
143080.0
31
0
0
LINE
8
equipment
10
179050.0
20
143250.0
30
0
11
179050.0
21
143330.0
31
0
0
LINE
8
equipment
10
168450.0
20
143250.0
30
0
11
168450.0
21
143330.0
31
0
0
LINE
8
equipment
10
179050.0
20
143250.0
30
0
11
178850.0
21
143250.0
31
0
0
LINE
8
equipment
10
177050.0
20
143250.0
30
0
11
174650.0
21
143250.0
31
0
0
LINE
8
equipment
10
172850.0
20
143250.0
30
0
11
170450.0
21
143250.0
31
0
0
LINE
8
equipment
10
168650.0
20
143250.0
30
0
11
168450.0
21
143250.0
31
0
0
LINE
8
equipment
10
179050.0
20
143330.0
30
0
11
178850.0
21
143330.0
31
0
0
LINE
8
equipment
10
177050.0
20
143330.0
30
0
11
174650.0
21
143330.0
31
0
0
LINE
8
equipment
10
172850.0
20
143330.0
30
0
11
170450.0
21
143330.0
31
0
0
LINE
8
equipment
10
168650.0
20
143330.0
30
0
11
168450.0
21
143330.0
31
0
0
LINE
8
equipment
10
179050.0
20
143500.0
30
0
11
179050.0
21
143580.0
31
0
0
LINE
8
equipment
10
168450.0
20
143500.0
30
0
11
168450.0
21
143580.0
31
0
0
LINE
8
equipment
10
179050.0
20
143500.0
30
0
11
178850.0
21
143500.0
31
0
0
LINE
8
equipment
10
177050.0
20
143500.0
30
0
11
174650.0
21
143500.0
31
0
0
LINE
8
equipment
10
172850.0
20
143500.0
30
0
11
170450.0
21
143500.0
31
0
0
LINE
8
equipment
10
168650.0
20
143500.0
30
0
11
168450.0
21
143500.0
31
0
0
LINE
8
equipment
10
179050.0
20
143580.0
30
0
11
178850.0
21
143580.0
31
0
0
LINE
8
equipment
10
177050.0
20
143580.0
30
0
11
174650.0
21
143580.0
31
0
0
LINE
8
equipment
10
172850.0
20
143580.0
30
0
11
170450.0
21
143580.0
31
0
0
LINE
8
equipment
10
168650.0
20
143580.0
30
0
11
168450.0
21
143580.0
31
0
0
LINE
8
equipment
10
179050.0
20
143750.0
30
0
11
179050.0
21
143830.0
31
0
0
LINE
8
equipment
10
168450.0
20
143750.0
30
0
11
168450.0
21
143830.0
31
0
0
LINE
8
equipment
10
179050.0
20
143750.0
30
0
11
178850.0
21
143750.0
31
0
0
LINE
8
equipment
10
177050.0
20
143750.0
30
0
11
174650.0
21
143750.0
31
0
0
LINE
8
equipment
10
172850.0
20
143750.0
30
0
11
170450.0
21
143750.0
31
0
0
LINE
8
equipment
10
168650.0
20
143750.0
30
0
11
168450.0
21
143750.0
31
0
0
LINE
8
equipment
10
179050.0
20
143830.0
30
0
11
178850.0
21
143830.0
31
0
0
LINE
8
equipment
10
177050.0
20
143830.0
30
0
11
174650.0
21
143830.0
31
0
0
LINE
8
equipment
10
172850.0
20
143830.0
30
0
11
170450.0
21
143830.0
31
0
0
LINE
8
equipment
10
168650.0
20
143830.0
30
0
11
168450.0
21
143830.0
31
0
0
LINE
8
equipment
10
179050.0
20
144000.0
30
0
11
179050.0
21
144080.0
31
0
0
LINE
8
equipment
10
168450.0
20
144000.0
30
0
11
168450.0
21
144080.0
31
0
0
LINE
8
equipment
10
179050.0
20
144000.0
30
0
11
178850.0
21
144000.0
31
0
0
LINE
8
equipment
10
177050.0
20
144000.0
30
0
11
174650.0
21
144000.0
31
0
0
LINE
8
equipment
10
172850.0
20
144000.0
30
0
11
170450.0
21
144000.0
31
0
0
LINE
8
equipment
10
168650.0
20
144000.0
30
0
11
168450.0
21
144000.0
31
0
0
LINE
8
equipment
10
179050.0
20
144080.0
30
0
11
178850.0
21
144080.0
31
0
0
LINE
8
equipment
10
177050.0
20
144080.0
30
0
11
174650.0
21
144080.0
31
0
0
LINE
8
equipment
10
172850.0
20
144080.0
30
0
11
170450.0
21
144080.0
31
0
0
LINE
8
equipment
10
168650.0
20
144080.0
30
0
11
168450.0
21
144080.0
31
0
0
LINE
8
equipment
10
179050.0
20
144250.0
30
0
11
179050.0
21
144330.0
31
0
0
LINE
8
equipment
10
168450.0
20
144250.0
30
0
11
168450.0
21
144330.0
31
0
0
LINE
8
equipment
10
179050.0
20
144250.0
30
0
11
178850.0
21
144250.0
31
0
0
LINE
8
equipment
10
177050.0
20
144250.0
30
0
11
174650.0
21
144250.0
31
0
0
LINE
8
equipment
10
172850.0
20
144250.0
30
0
11
170450.0
21
144250.0
31
0
0
LINE
8
equipment
10
168650.0
20
144250.0
30
0
11
168450.0
21
144250.0
31
0
0
LINE
8
equipment
10
179050.0
20
144330.0
30
0
11
178850.0
21
144330.0
31
0
0
LINE
8
equipment
10
177050.0
20
144330.0
30
0
11
174650.0
21
144330.0
31
0
0
LINE
8
equipment
10
172850.0
20
144330.0
30
0
11
170450.0
21
144330.0
31
0
0
LINE
8
equipment
10
168650.0
20
144330.0
30
0
11
168450.0
21
144330.0
31
0
0
LINE
8
equipment
10
179050.0
20
144500.0
30
0
11
179050.0
21
144580.0
31
0
0
LINE
8
equipment
10
168450.0
20
144500.0
30
0
11
168450.0
21
144580.0
31
0
0
LINE
8
equipment
10
179050.0
20
144500.0
30
0
11
178850.0
21
144500.0
31
0
0
LINE
8
equipment
10
177050.0
20
144500.0
30
0
11
174650.0
21
144500.0
31
0
0
LINE
8
equipment
10
172850.0
20
144500.0
30
0
11
170450.0
21
144500.0
31
0
0
LINE
8
equipment
10
168650.0
20
144500.0
30
0
11
168450.0
21
144500.0
31
0
0
LINE
8
equipment
10
179050.0
20
144580.0
30
0
11
178850.0
21
144580.0
31
0
0
LINE
8
equipment
10
177050.0
20
144580.0
30
0
11
174650.0
21
144580.0
31
0
0
LINE
8
equipment
10
172850.0
20
144580.0
30
0
11
170450.0
21
144580.0
31
0
0
LINE
8
equipment
10
168650.0
20
144580.0
30
0
11
168450.0
21
144580.0
31
0
0
LINE
8
equipment
10
179050.0
20
144750.0
30
0
11
179050.0
21
144830.0
31
0
0
LINE
8
equipment
10
168450.0
20
144750.0
30
0
11
168450.0
21
144830.0
31
0
0
LINE
8
equipment
10
179050.0
20
144750.0
30
0
11
178850.0
21
144750.0
31
0
0
LINE
8
equipment
10
177050.0
20
144750.0
30
0
11
174650.0
21
144750.0
31
0
0
LINE
8
equipment
10
172850.0
20
144750.0
30
0
11
170450.0
21
144750.0
31
0
0
LINE
8
equipment
10
168650.0
20
144750.0
30
0
11
168450.0
21
144750.0
31
0
0
LINE
8
equipment
10
179050.0
20
144830.0
30
0
11
178850.0
21
144830.0
31
0
0
LINE
8
equipment
10
177050.0
20
144830.0
30
0
11
174650.0
21
144830.0
31
0
0
LINE
8
equipment
10
172850.0
20
144830.0
30
0
11
170450.0
21
144830.0
31
0
0
LINE
8
equipment
10
168650.0
20
144830.0
30
0
11
168450.0
21
144830.0
31
0
0
LINE
8
equipment
10
143650.0
20
141700.0
30
0
11
143650.0
21
142200.0
31
0
0
LINE
8
equipment
10
131850.0
20
141700.0
30
0
11
131850.0
21
142200.0
31
0
0
LINE
8
equipment
10
143650.0
20
141700.0
30
0
11
131850.0
21
141700.0
31
0
0
LINE
8
equipment
10
143650.0
20
142200.0
30
0
11
131850.0
21
142200.0
31
0
0
LINE
8
equipment
10
143250.0
20
142200.0
30
0
11
143250.0
21
145500.0
31
0
0
LINE
8
equipment
10
132250.0
20
142200.0
30
0
11
132250.0
21
145500.0
31
0
0
LINE
8
equipment
10
143250.0
20
145500.0
30
0
11
132250.0
21
145500.0
31
0
0
LINE
8
equipment
10
142850.0
20
142600.0
30
0
11
142850.0
21
144900.0
31
0
0
LINE
8
equipment
10
141050.0
20
142600.0
30
0
11
141050.0
21
144900.0
31
0
0
LINE
8
equipment
10
142850.0
20
142600.0
30
0
11
141050.0
21
142600.0
31
0
0
LINE
8
equipment
10
142850.0
20
144900.0
30
0
11
141050.0
21
144900.0
31
0
0
LINE
8
equipment
10
139170.0
20
145800.0
30
0
11
139195.07
21
145800.0
31
0
0
LINE
8
equipment
10
139195.07
20
145800.0
30
0
11
139269.03
21
145800.0
31
0
0
LINE
8
equipment
10
139269.03
20
145800.0
30
0
11
139388.16999999998
21
145800.0
31
0
0
LINE
8
equipment
10
139388.16999999998
20
145800.0
30
0
11
139546.51
21
145800.0
31
0
0
LINE
8
equipment
10
139546.51
20
145800.0
30
0
11
139736.12
21
145800.0
31
0
0
LINE
8
equipment
10
139736.12
20
145800.0
30
0
11
139947.48
21
145800.0
31
0
0
LINE
8
equipment
10
139947.48
20
145800.0
30
0
11
140170.0
21
145800.0
31
0
0
LINE
8
equipment
10
140170.0
20
145800.0
30
0
11
140392.52
21
145800.0
31
0
0
LINE
8
equipment
10
140392.52
20
145800.0
30
0
11
140603.87999999998
21
145800.0
31
0
0
LINE
8
equipment
10
140603.87999999998
20
145800.0
30
0
11
140793.49
21
145800.0
31
0
0
LINE
8
equipment
10
140793.49
20
145800.0
30
0
11
140951.83000000002
21
145800.0
31
0
0
LINE
8
equipment
10
140951.83000000002
20
145800.0
30
0
11
141070.97
21
145800.0
31
0
0
LINE
8
equipment
10
141070.97
20
145800.0
30
0
11
141144.93
21
145800.0
31
0
0
LINE
8
equipment
10
141144.93
20
145800.0
30
0
11
141170.0
21
145800.0
31
0
0
LINE
8
equipment
10
139170.0
20
145500.0
30
0
11
139170.0
21
145800.0
31
0
0
LINE
8
equipment
10
138650.0
20
142600.0
30
0
11
138650.0
21
144900.0
31
0
0
LINE
8
equipment
10
136850.0
20
142600.0
30
0
11
136850.0
21
144900.0
31
0
0
LINE
8
equipment
10
138650.0
20
142600.0
30
0
11
136850.0
21
142600.0
31
0
0
LINE
8
equipment
10
138650.0
20
144900.0
30
0
11
136850.0
21
144900.0
31
0
0
LINE
8
equipment
10
136750.0
20
145800.0
30
0
11
136775.07
21
145800.0
31
0
0
LINE
8
equipment
10
136775.07
20
145800.0
30
0
11
136849.03
21
145800.0
31
0
0
LINE
8
equipment
10
136849.03
20
145800.0
30
0
11
136968.16999999998
21
145800.0
31
0
0
LINE
8
equipment
10
136968.16999999998
20
145800.0
30
0
11
137126.51
21
145800.0
31
0
0
LINE
8
equipment
10
137126.51
20
145800.0
30
0
11
137316.12
21
145800.0
31
0
0
LINE
8
equipment
10
137316.12
20
145800.0
30
0
11
137527.48
21
145800.0
31
0
0
LINE
8
equipment
10
137527.48
20
145800.0
30
0
11
137750.0
21
145800.0
31
0
0
LINE
8
equipment
10
137750.0
20
145800.0
30
0
11
137972.52
21
145800.0
31
0
0
LINE
8
equipment
10
137972.52
20
145800.0
30
0
11
138183.88
21
145800.0
31
0
0
LINE
8
equipment
10
138183.88
20
145800.0
30
0
11
138373.49
21
145800.0
31
0
0
LINE
8
equipment
10
138373.49
20
145800.0
30
0
11
138531.83
21
145800.0
31
0
0
LINE
8
equipment
10
138531.83
20
145800.0
30
0
11
138650.97
21
145800.0
31
0
0
LINE
8
equipment
10
138650.97
20
145800.0
30
0
11
138724.93000000002
21
145800.0
31
0
0
LINE
8
equipment
10
138724.93000000002
20
145800.0
30
0
11
138750.0
21
145800.0
31
0
0
LINE
8
equipment
10
136750.0
20
145500.0
30
0
11
136750.0
21
145800.0
31
0
0
LINE
8
equipment
10
134450.0
20
142600.0
30
0
11
134450.0
21
144900.0
31
0
0
LINE
8
equipment
10
132650.0
20
142600.0
30
0
11
132650.0
21
144900.0
31
0
0
LINE
8
equipment
10
134450.0
20
142600.0
30
0
11
132650.0
21
142600.0
31
0
0
LINE
8
equipment
10
134450.0
20
144900.0
30
0
11
132650.0
21
144900.0
31
0
0
LINE
8
equipment
10
134330.0
20
145800.0
30
0
11
134355.07
21
145800.0
31
0
0
LINE
8
equipment
10
134355.07
20
145800.0
30
0
11
134429.03
21
145800.0
31
0
0
LINE
8
equipment
10
134429.03
20
145800.0
30
0
11
134548.17
21
145800.0
31
0
0
LINE
8
equipment
10
134548.17
20
145800.0
30
0
11
134706.50999999998
21
145800.0
31
0
0
LINE
8
equipment
10
134706.50999999998
20
145800.0
30
0
11
134896.12
21
145800.0
31
0
0
LINE
8
equipment
10
134896.12
20
145800.0
30
0
11
135107.47999999998
21
145800.0
31
0
0
LINE
8
equipment
10
135107.47999999998
20
145800.0
30
0
11
135330.0
21
145800.0
31
0
0
LINE
8
equipment
10
135330.0
20
145800.0
30
0
11
135552.52
21
145800.0
31
0
0
LINE
8
equipment
10
135552.52
20
145800.0
30
0
11
135763.88
21
145800.0
31
0
0
LINE
8
equipment
10
135763.88
20
145800.0
30
0
11
135953.49
21
145800.0
31
0
0
LINE
8
equipment
10
135953.49
20
145800.0
30
0
11
136111.83
21
145800.0
31
0
0
LINE
8
equipment
10
136111.83
20
145800.0
30
0
11
136230.97
21
145800.0
31
0
0
LINE
8
equipment
10
136230.97
20
145800.0
30
0
11
136304.93
21
145800.0
31
0
0
LINE
8
equipment
10
136304.93
20
145800.0
30
0
11
136330.0
21
145800.0
31
0
0
LINE
8
equipment
10
134330.0
20
145500.0
30
0
11
134330.0
21
145800.0
31
0
0
LINE
8
equipment
10
143050.0
20
142500.0
30
0
11
143050.0
21
142580.0
31
0
0
LINE
8
equipment
10
132450.0
20
142500.0
30
0
11
132450.0
21
142580.0
31
0
0
LINE
8
equipment
10
143050.0
20
142500.0
30
0
11
132450.0
21
142500.0
31
0
0
LINE
8
equipment
10
143050.0
20
142580.0
30
0
11
132450.0
21
142580.0
31
0
0
LINE
8
equipment
10
143050.0
20
142750.0
30
0
11
143050.0
21
142830.0
31
0
0
LINE
8
equipment
10
132450.0
20
142750.0
30
0
11
132450.0
21
142830.0
31
0
0
LINE
8
equipment
10
143050.0
20
142750.0
30
0
11
142850.0
21
142750.0
31
0
0
LINE
8
equipment
10
141050.0
20
142750.0
30
0
11
138650.0
21
142750.0
31
0
0
LINE
8
equipment
10
136850.0
20
142750.0
30
0
11
134450.0
21
142750.0
31
0
0
LINE
8
equipment
10
132650.0
20
142750.0
30
0
11
132450.0
21
142750.0
31
0
0
LINE
8
equipment
10
143050.0
20
142830.0
30
0
11
142850.0
21
142830.0
31
0
0
LINE
8
equipment
10
141050.0
20
142830.0
30
0
11
138650.0
21
142830.0
31
0
0
LINE
8
equipment
10
136850.0
20
142830.0
30
0
11
134450.0
21
142830.0
31
0
0
LINE
8
equipment
10
132650.0
20
142830.0
30
0
11
132450.0
21
142830.0
31
0
0
LINE
8
equipment
10
143050.0
20
143000.0
30
0
11
143050.0
21
143080.0
31
0
0
LINE
8
equipment
10
132450.0
20
143000.0
30
0
11
132450.0
21
143080.0
31
0
0
LINE
8
equipment
10
143050.0
20
143000.0
30
0
11
142850.0
21
143000.0
31
0
0
LINE
8
equipment
10
141050.0
20
143000.0
30
0
11
138650.0
21
143000.0
31
0
0
LINE
8
equipment
10
136850.0
20
143000.0
30
0
11
134450.0
21
143000.0
31
0
0
LINE
8
equipment
10
132650.0
20
143000.0
30
0
11
132450.0
21
143000.0
31
0
0
LINE
8
equipment
10
143050.0
20
143080.0
30
0
11
142850.0
21
143080.0
31
0
0
LINE
8
equipment
10
141050.0
20
143080.0
30
0
11
138650.0
21
143080.0
31
0
0
LINE
8
equipment
10
136850.0
20
143080.0
30
0
11
134450.0
21
143080.0
31
0
0
LINE
8
equipment
10
132650.0
20
143080.0
30
0
11
132450.0
21
143080.0
31
0
0
LINE
8
equipment
10
143050.0
20
143250.0
30
0
11
143050.0
21
143330.0
31
0
0
LINE
8
equipment
10
132450.0
20
143250.0
30
0
11
132450.0
21
143330.0
31
0
0
LINE
8
equipment
10
143050.0
20
143250.0
30
0
11
142850.0
21
143250.0
31
0
0
LINE
8
equipment
10
141050.0
20
143250.0
30
0
11
138650.0
21
143250.0
31
0
0
LINE
8
equipment
10
136850.0
20
143250.0
30
0
11
134450.0
21
143250.0
31
0
0
LINE
8
equipment
10
132650.0
20
143250.0
30
0
11
132450.0
21
143250.0
31
0
0
LINE
8
equipment
10
143050.0
20
143330.0
30
0
11
142850.0
21
143330.0
31
0
0
LINE
8
equipment
10
141050.0
20
143330.0
30
0
11
138650.0
21
143330.0
31
0
0
LINE
8
equipment
10
136850.0
20
143330.0
30
0
11
134450.0
21
143330.0
31
0
0
LINE
8
equipment
10
132650.0
20
143330.0
30
0
11
132450.0
21
143330.0
31
0
0
LINE
8
equipment
10
143050.0
20
143500.0
30
0
11
143050.0
21
143580.0
31
0
0
LINE
8
equipment
10
132450.0
20
143500.0
30
0
11
132450.0
21
143580.0
31
0
0
LINE
8
equipment
10
143050.0
20
143500.0
30
0
11
142850.0
21
143500.0
31
0
0
LINE
8
equipment
10
141050.0
20
143500.0
30
0
11
138650.0
21
143500.0
31
0
0
LINE
8
equipment
10
136850.0
20
143500.0
30
0
11
134450.0
21
143500.0
31
0
0
LINE
8
equipment
10
132650.0
20
143500.0
30
0
11
132450.0
21
143500.0
31
0
0
LINE
8
equipment
10
143050.0
20
143580.0
30
0
11
142850.0
21
143580.0
31
0
0
LINE
8
equipment
10
141050.0
20
143580.0
30
0
11
138650.0
21
143580.0
31
0
0
LINE
8
equipment
10
136850.0
20
143580.0
30
0
11
134450.0
21
143580.0
31
0
0
LINE
8
equipment
10
132650.0
20
143580.0
30
0
11
132450.0
21
143580.0
31
0
0
LINE
8
equipment
10
143050.0
20
143750.0
30
0
11
143050.0
21
143830.0
31
0
0
LINE
8
equipment
10
132450.0
20
143750.0
30
0
11
132450.0
21
143830.0
31
0
0
LINE
8
equipment
10
143050.0
20
143750.0
30
0
11
142850.0
21
143750.0
31
0
0
LINE
8
equipment
10
141050.0
20
143750.0
30
0
11
138650.0
21
143750.0
31
0
0
LINE
8
equipment
10
136850.0
20
143750.0
30
0
11
134450.0
21
143750.0
31
0
0
LINE
8
equipment
10
132650.0
20
143750.0
30
0
11
132450.0
21
143750.0
31
0
0
LINE
8
equipment
10
143050.0
20
143830.0
30
0
11
142850.0
21
143830.0
31
0
0
LINE
8
equipment
10
141050.0
20
143830.0
30
0
11
138650.0
21
143830.0
31
0
0
LINE
8
equipment
10
136850.0
20
143830.0
30
0
11
134450.0
21
143830.0
31
0
0
LINE
8
equipment
10
132650.0
20
143830.0
30
0
11
132450.0
21
143830.0
31
0
0
LINE
8
equipment
10
143050.0
20
144000.0
30
0
11
143050.0
21
144080.0
31
0
0
LINE
8
equipment
10
132450.0
20
144000.0
30
0
11
132450.0
21
144080.0
31
0
0
LINE
8
equipment
10
143050.0
20
144000.0
30
0
11
142850.0
21
144000.0
31
0
0
LINE
8
equipment
10
141050.0
20
144000.0
30
0
11
138650.0
21
144000.0
31
0
0
LINE
8
equipment
10
136850.0
20
144000.0
30
0
11
134450.0
21
144000.0
31
0
0
LINE
8
equipment
10
132650.0
20
144000.0
30
0
11
132450.0
21
144000.0
31
0
0
LINE
8
equipment
10
143050.0
20
144080.0
30
0
11
142850.0
21
144080.0
31
0
0
LINE
8
equipment
10
141050.0
20
144080.0
30
0
11
138650.0
21
144080.0
31
0
0
LINE
8
equipment
10
136850.0
20
144080.0
30
0
11
134450.0
21
144080.0
31
0
0
LINE
8
equipment
10
132650.0
20
144080.0
30
0
11
132450.0
21
144080.0
31
0
0
LINE
8
equipment
10
143050.0
20
144250.0
30
0
11
143050.0
21
144330.0
31
0
0
LINE
8
equipment
10
132450.0
20
144250.0
30
0
11
132450.0
21
144330.0
31
0
0
LINE
8
equipment
10
143050.0
20
144250.0
30
0
11
142850.0
21
144250.0
31
0
0
LINE
8
equipment
10
141050.0
20
144250.0
30
0
11
138650.0
21
144250.0
31
0
0
LINE
8
equipment
10
136850.0
20
144250.0
30
0
11
134450.0
21
144250.0
31
0
0
LINE
8
equipment
10
132650.0
20
144250.0
30
0
11
132450.0
21
144250.0
31
0
0
LINE
8
equipment
10
143050.0
20
144330.0
30
0
11
142850.0
21
144330.0
31
0
0
LINE
8
equipment
10
141050.0
20
144330.0
30
0
11
138650.0
21
144330.0
31
0
0
LINE
8
equipment
10
136850.0
20
144330.0
30
0
11
134450.0
21
144330.0
31
0
0
LINE
8
equipment
10
132650.0
20
144330.0
30
0
11
132450.0
21
144330.0
31
0
0
LINE
8
equipment
10
143050.0
20
144500.0
30
0
11
143050.0
21
144580.0
31
0
0
LINE
8
equipment
10
132450.0
20
144500.0
30
0
11
132450.0
21
144580.0
31
0
0
LINE
8
equipment
10
143050.0
20
144500.0
30
0
11
142850.0
21
144500.0
31
0
0
LINE
8
equipment
10
141050.0
20
144500.0
30
0
11
138650.0
21
144500.0
31
0
0
LINE
8
equipment
10
136850.0
20
144500.0
30
0
11
134450.0
21
144500.0
31
0
0
LINE
8
equipment
10
132650.0
20
144500.0
30
0
11
132450.0
21
144500.0
31
0
0
LINE
8
equipment
10
143050.0
20
144580.0
30
0
11
142850.0
21
144580.0
31
0
0
LINE
8
equipment
10
141050.0
20
144580.0
30
0
11
138650.0
21
144580.0
31
0
0
LINE
8
equipment
10
136850.0
20
144580.0
30
0
11
134450.0
21
144580.0
31
0
0
LINE
8
equipment
10
132650.0
20
144580.0
30
0
11
132450.0
21
144580.0
31
0
0
LINE
8
equipment
10
143050.0
20
144750.0
30
0
11
143050.0
21
144830.0
31
0
0
LINE
8
equipment
10
132450.0
20
144750.0
30
0
11
132450.0
21
144830.0
31
0
0
LINE
8
equipment
10
143050.0
20
144750.0
30
0
11
142850.0
21
144750.0
31
0
0
LINE
8
equipment
10
141050.0
20
144750.0
30
0
11
138650.0
21
144750.0
31
0
0
LINE
8
equipment
10
136850.0
20
144750.0
30
0
11
134450.0
21
144750.0
31
0
0
LINE
8
equipment
10
132650.0
20
144750.0
30
0
11
132450.0
21
144750.0
31
0
0
LINE
8
equipment
10
143050.0
20
144830.0
30
0
11
142850.0
21
144830.0
31
0
0
LINE
8
equipment
10
141050.0
20
144830.0
30
0
11
138650.0
21
144830.0
31
0
0
LINE
8
equipment
10
136850.0
20
144830.0
30
0
11
134450.0
21
144830.0
31
0
0
LINE
8
equipment
10
132650.0
20
144830.0
30
0
11
132450.0
21
144830.0
31
0
0
LINE
8
equipment
10
107650.0
20
141700.0
30
0
11
107650.0
21
142200.0
31
0
0
LINE
8
equipment
10
95850.0
20
141700.0
30
0
11
95850.0
21
142200.0
31
0
0
LINE
8
equipment
10
107650.0
20
141700.0
30
0
11
95850.0
21
141700.0
31
0
0
LINE
8
equipment
10
107650.0
20
142200.0
30
0
11
95850.0
21
142200.0
31
0
0
LINE
8
equipment
10
107250.0
20
142200.0
30
0
11
107250.0
21
145500.0
31
0
0
LINE
8
equipment
10
96249.99999999999
20
142200.0
30
0
11
96249.99999999999
21
145500.0
31
0
0
LINE
8
equipment
10
107250.0
20
145500.0
30
0
11
96249.99999999999
21
145500.0
31
0
0
LINE
8
equipment
10
106850.0
20
142600.0
30
0
11
106850.0
21
144900.0
31
0
0
LINE
8
equipment
10
105050.0
20
142600.0
30
0
11
105050.0
21
144900.0
31
0
0
LINE
8
equipment
10
106850.0
20
142600.0
30
0
11
105050.0
21
142600.0
31
0
0
LINE
8
equipment
10
106850.0
20
144900.0
30
0
11
105050.0
21
144900.0
31
0
0
LINE
8
equipment
10
103170.0
20
145800.0
30
0
11
103195.07000000002
21
145800.0
31
0
0
LINE
8
equipment
10
103195.07000000002
20
145800.0
30
0
11
103269.03
21
145800.0
31
0
0
LINE
8
equipment
10
103269.03
20
145800.0
30
0
11
103388.16999999998
21
145800.0
31
0
0
LINE
8
equipment
10
103388.16999999998
20
145800.0
30
0
11
103546.51000000001
21
145800.0
31
0
0
LINE
8
equipment
10
103546.51000000001
20
145800.0
30
0
11
103736.12000000001
21
145800.0
31
0
0
LINE
8
equipment
10
103736.12000000001
20
145800.0
30
0
11
103947.48000000001
21
145800.0
31
0
0
LINE
8
equipment
10
103947.48000000001
20
145800.0
30
0
11
104169.99999999999
21
145800.0
31
0
0
LINE
8
equipment
10
104169.99999999999
20
145800.0
30
0
11
104392.51999999999
21
145800.0
31
0
0
LINE
8
equipment
10
104392.51999999999
20
145800.0
30
0
11
104603.87999999999
21
145800.0
31
0
0
LINE
8
equipment
10
104603.87999999999
20
145800.0
30
0
11
104793.48999999999
21
145800.0
31
0
0
LINE
8
equipment
10
104793.48999999999
20
145800.0
30
0
11
104951.82999999999
21
145800.0
31
0
0
LINE
8
equipment
10
104951.82999999999
20
145800.0
30
0
11
105070.97
21
145800.0
31
0
0
LINE
8
equipment
10
105070.97
20
145800.0
30
0
11
105144.93000000001
21
145800.0
31
0
0
LINE
8
equipment
10
105144.93000000001
20
145800.0
30
0
11
105170.00000000001
21
145800.0
31
0
0
LINE
8
equipment
10
103170.0
20
145500.0
30
0
11
103170.0
21
145800.0
31
0
0
LINE
8
equipment
10
102650.0
20
142600.0
30
0
11
102650.0
21
144900.0
31
0
0
LINE
8
equipment
10
100850.0
20
142600.0
30
0
11
100850.0
21
144900.0
31
0
0
LINE
8
equipment
10
102650.0
20
142600.0
30
0
11
100850.0
21
142600.0
31
0
0
LINE
8
equipment
10
102650.0
20
144900.0
30
0
11
100850.0
21
144900.0
31
0
0
LINE
8
equipment
10
100749.99999999999
20
145800.0
30
0
11
100775.06999999999
21
145800.0
31
0
0
LINE
8
equipment
10
100775.06999999999
20
145800.0
30
0
11
100849.03
21
145800.0
31
0
0
LINE
8
equipment
10
100849.03
20
145800.0
30
0
11
100968.17
21
145800.0
31
0
0
LINE
8
equipment
10
100968.17
20
145800.0
30
0
11
101126.51000000001
21
145800.0
31
0
0
LINE
8
equipment
10
101126.51000000001
20
145800.0
30
0
11
101316.12000000001
21
145800.0
31
0
0
LINE
8
equipment
10
101316.12000000001
20
145800.0
30
0
11
101527.48000000001
21
145800.0
31
0
0
LINE
8
equipment
10
101527.48000000001
20
145800.0
30
0
11
101750.00000000001
21
145800.0
31
0
0
LINE
8
equipment
10
101750.00000000001
20
145800.0
30
0
11
101972.51999999999
21
145800.0
31
0
0
LINE
8
equipment
10
101972.51999999999
20
145800.0
30
0
11
102183.87999999999
21
145800.0
31
0
0
LINE
8
equipment
10
102183.87999999999
20
145800.0
30
0
11
102373.48999999999
21
145800.0
31
0
0
LINE
8
equipment
10
102373.48999999999
20
145800.0
30
0
11
102531.83000000002
21
145800.0
31
0
0
LINE
8
equipment
10
102531.83000000002
20
145800.0
30
0
11
102650.96999999999
21
145800.0
31
0
0
LINE
8
equipment
10
102650.96999999999
20
145800.0
30
0
11
102724.93
21
145800.0
31
0
0
LINE
8
equipment
10
102724.93
20
145800.0
30
0
11
102750.0
21
145800.0
31
0
0
LINE
8
equipment
10
100749.99999999999
20
145500.0
30
0
11
100749.99999999999
21
145800.0
31
0
0
LINE
8
equipment
10
98449.99999999999
20
142600.0
30
0
11
98449.99999999999
21
144900.0
31
0
0
LINE
8
equipment
10
96650.0
20
142600.0
30
0
11
96650.0
21
144900.0
31
0
0
LINE
8
equipment
10
98449.99999999999
20
142600.0
30
0
11
96650.0
21
142600.0
31
0
0
LINE
8
equipment
10
98449.99999999999
20
144900.0
30
0
11
96650.0
21
144900.0
31
0
0
LINE
8
equipment
10
98330.00000000001
20
145800.0
30
0
11
98355.07
21
145800.0
31
0
0
LINE
8
equipment
10
98355.07
20
145800.0
30
0
11
98429.02999999998
21
145800.0
31
0
0
LINE
8
equipment
10
98429.02999999998
20
145800.0
30
0
11
98548.17
21
145800.0
31
0
0
LINE
8
equipment
10
98548.17
20
145800.0
30
0
11
98706.51
21
145800.0
31
0
0
LINE
8
equipment
10
98706.51
20
145800.0
30
0
11
98896.12
21
145800.0
31
0
0
LINE
8
equipment
10
98896.12
20
145800.0
30
0
11
99107.48
21
145800.0
31
0
0
LINE
8
equipment
10
99107.48
20
145800.0
30
0
11
99330.0
21
145800.0
31
0
0
LINE
8
equipment
10
99330.0
20
145800.0
30
0
11
99552.52
21
145800.0
31
0
0
LINE
8
equipment
10
99552.52
20
145800.0
30
0
11
99763.88
21
145800.0
31
0
0
LINE
8
equipment
10
99763.88
20
145800.0
30
0
11
99953.49
21
145800.0
31
0
0
LINE
8
equipment
10
99953.49
20
145800.0
30
0
11
100111.83
21
145800.0
31
0
0
LINE
8
equipment
10
100111.83
20
145800.0
30
0
11
100230.97000000002
21
145800.0
31
0
0
LINE
8
equipment
10
100230.97000000002
20
145800.0
30
0
11
100304.93000000001
21
145800.0
31
0
0
LINE
8
equipment
10
100304.93000000001
20
145800.0
30
0
11
100329.99999999999
21
145800.0
31
0
0
LINE
8
equipment
10
98330.00000000001
20
145500.0
30
0
11
98330.00000000001
21
145800.0
31
0
0
LINE
8
equipment
10
107050.00000000001
20
142500.0
30
0
11
107050.00000000001
21
142580.0
31
0
0
LINE
8
equipment
10
96450.0
20
142500.0
30
0
11
96450.0
21
142580.0
31
0
0
LINE
8
equipment
10
107050.00000000001
20
142500.0
30
0
11
96450.0
21
142500.0
31
0
0
LINE
8
equipment
10
107050.00000000001
20
142580.0
30
0
11
96450.0
21
142580.0
31
0
0
LINE
8
equipment
10
107050.00000000001
20
142750.0
30
0
11
107050.00000000001
21
142830.0
31
0
0
LINE
8
equipment
10
96450.0
20
142750.0
30
0
11
96450.0
21
142830.0
31
0
0
LINE
8
equipment
10
107050.00000000001
20
142750.0
30
0
11
106850.0
21
142750.0
31
0
0
LINE
8
equipment
10
105050.0
20
142750.0
30
0
11
102650.0
21
142750.0
31
0
0
LINE
8
equipment
10
100850.0
20
142750.0
30
0
11
98449.99999999999
21
142750.0
31
0
0
LINE
8
equipment
10
96650.0
20
142750.0
30
0
11
96450.0
21
142750.0
31
0
0
LINE
8
equipment
10
107050.00000000001
20
142830.0
30
0
11
106850.0
21
142830.0
31
0
0
LINE
8
equipment
10
105050.0
20
142830.0
30
0
11
102650.0
21
142830.0
31
0
0
LINE
8
equipment
10
100850.0
20
142830.0
30
0
11
98449.99999999999
21
142830.0
31
0
0
LINE
8
equipment
10
96650.0
20
142830.0
30
0
11
96450.0
21
142830.0
31
0
0
LINE
8
equipment
10
107050.00000000001
20
143000.0
30
0
11
107050.00000000001
21
143080.0
31
0
0
LINE
8
equipment
10
96450.0
20
143000.0
30
0
11
96450.0
21
143080.0
31
0
0
LINE
8
equipment
10
107050.00000000001
20
143000.0
30
0
11
106850.0
21
143000.0
31
0
0
LINE
8
equipment
10
105050.0
20
143000.0
30
0
11
102650.0
21
143000.0
31
0
0
LINE
8
equipment
10
100850.0
20
143000.0
30
0
11
98449.99999999999
21
143000.0
31
0
0
LINE
8
equipment
10
96650.0
20
143000.0
30
0
11
96450.0
21
143000.0
31
0
0
LINE
8
equipment
10
107050.00000000001
20
143080.0
30
0
11
106850.0
21
143080.0
31
0
0
LINE
8
equipment
10
105050.0
20
143080.0
30
0
11
102650.0
21
143080.0
31
0
0
LINE
8
equipment
10
100850.0
20
143080.0
30
0
11
98449.99999999999
21
143080.0
31
0
0
LINE
8
equipment
10
96650.0
20
143080.0
30
0
11
96450.0
21
143080.0
31
0
0
LINE
8
equipment
10
107050.00000000001
20
143250.0
30
0
11
107050.00000000001
21
143330.0
31
0
0
LINE
8
equipment
10
96450.0
20
143250.0
30
0
11
96450.0
21
143330.0
31
0
0
LINE
8
equipment
10
107050.00000000001
20
143250.0
30
0
11
106850.0
21
143250.0
31
0
0
LINE
8
equipment
10
105050.0
20
143250.0
30
0
11
102650.0
21
143250.0
31
0
0
LINE
8
equipment
10
100850.0
20
143250.0
30
0
11
98449.99999999999
21
143250.0
31
0
0
LINE
8
equipment
10
96650.0
20
143250.0
30
0
11
96450.0
21
143250.0
31
0
0
LINE
8
equipment
10
107050.00000000001
20
143330.0
30
0
11
106850.0
21
143330.0
31
0
0
LINE
8
equipment
10
105050.0
20
143330.0
30
0
11
102650.0
21
143330.0
31
0
0
LINE
8
equipment
10
100850.0
20
143330.0
30
0
11
98449.99999999999
21
143330.0
31
0
0
LINE
8
equipment
10
96650.0
20
143330.0
30
0
11
96450.0
21
143330.0
31
0
0
LINE
8
equipment
10
107050.00000000001
20
143500.0
30
0
11
107050.00000000001
21
143580.0
31
0
0
LINE
8
equipment
10
96450.0
20
143500.0
30
0
11
96450.0
21
143580.0
31
0
0
LINE
8
equipment
10
107050.00000000001
20
143500.0
30
0
11
106850.0
21
143500.0
31
0
0
LINE
8
equipment
10
105050.0
20
143500.0
30
0
11
102650.0
21
143500.0
31
0
0
LINE
8
equipment
10
100850.0
20
143500.0
30
0
11
98449.99999999999
21
143500.0
31
0
0
LINE
8
equipment
10
96650.0
20
143500.0
30
0
11
96450.0
21
143500.0
31
0
0
LINE
8
equipment
10
107050.00000000001
20
143580.0
30
0
11
106850.0
21
143580.0
31
0
0
LINE
8
equipment
10
105050.0
20
143580.0
30
0
11
102650.0
21
143580.0
31
0
0
LINE
8
equipment
10
100850.0
20
143580.0
30
0
11
98449.99999999999
21
143580.0
31
0
0
LINE
8
equipment
10
96650.0
20
143580.0
30
0
11
96450.0
21
143580.0
31
0
0
LINE
8
equipment
10
107050.00000000001
20
143750.0
30
0
11
107050.00000000001
21
143830.0
31
0
0
LINE
8
equipment
10
96450.0
20
143750.0
30
0
11
96450.0
21
143830.0
31
0
0
LINE
8
equipment
10
107050.00000000001
20
143750.0
30
0
11
106850.0
21
143750.0
31
0
0
LINE
8
equipment
10
105050.0
20
143750.0
30
0
11
102650.0
21
143750.0
31
0
0
LINE
8
equipment
10
100850.0
20
143750.0
30
0
11
98449.99999999999
21
143750.0
31
0
0
LINE
8
equipment
10
96650.0
20
143750.0
30
0
11
96450.0
21
143750.0
31
0
0
LINE
8
equipment
10
107050.00000000001
20
143830.0
30
0
11
106850.0
21
143830.0
31
0
0
LINE
8
equipment
10
105050.0
20
143830.0
30
0
11
102650.0
21
143830.0
31
0
0
LINE
8
equipment
10
100850.0
20
143830.0
30
0
11
98449.99999999999
21
143830.0
31
0
0
LINE
8
equipment
10
96650.0
20
143830.0
30
0
11
96450.0
21
143830.0
31
0
0
LINE
8
equipment
10
107050.00000000001
20
144000.0
30
0
11
107050.00000000001
21
144080.0
31
0
0
LINE
8
equipment
10
96450.0
20
144000.0
30
0
11
96450.0
21
144080.0
31
0
0
LINE
8
equipment
10
107050.00000000001
20
144000.0
30
0
11
106850.0
21
144000.0
31
0
0
LINE
8
equipment
10
105050.0
20
144000.0
30
0
11
102650.0
21
144000.0
31
0
0
LINE
8
equipment
10
100850.0
20
144000.0
30
0
11
98449.99999999999
21
144000.0
31
0
0
LINE
8
equipment
10
96650.0
20
144000.0
30
0
11
96450.0
21
144000.0
31
0
0
LINE
8
equipment
10
107050.00000000001
20
144080.0
30
0
11
106850.0
21
144080.0
31
0
0
LINE
8
equipment
10
105050.0
20
144080.0
30
0
11
102650.0
21
144080.0
31
0
0
LINE
8
equipment
10
100850.0
20
144080.0
30
0
11
98449.99999999999
21
144080.0
31
0
0
LINE
8
equipment
10
96650.0
20
144080.0
30
0
11
96450.0
21
144080.0
31
0
0
LINE
8
equipment
10
107050.00000000001
20
144250.0
30
0
11
107050.00000000001
21
144330.0
31
0
0
LINE
8
equipment
10
96450.0
20
144250.0
30
0
11
96450.0
21
144330.0
31
0
0
LINE
8
equipment
10
107050.00000000001
20
144250.0
30
0
11
106850.0
21
144250.0
31
0
0
LINE
8
equipment
10
105050.0
20
144250.0
30
0
11
102650.0
21
144250.0
31
0
0
LINE
8
equipment
10
100850.0
20
144250.0
30
0
11
98449.99999999999
21
144250.0
31
0
0
LINE
8
equipment
10
96650.0
20
144250.0
30
0
11
96450.0
21
144250.0
31
0
0
LINE
8
equipment
10
107050.00000000001
20
144330.0
30
0
11
106850.0
21
144330.0
31
0
0
LINE
8
equipment
10
105050.0
20
144330.0
30
0
11
102650.0
21
144330.0
31
0
0
LINE
8
equipment
10
100850.0
20
144330.0
30
0
11
98449.99999999999
21
144330.0
31
0
0
LINE
8
equipment
10
96650.0
20
144330.0
30
0
11
96450.0
21
144330.0
31
0
0
LINE
8
equipment
10
107050.00000000001
20
144500.0
30
0
11
107050.00000000001
21
144580.0
31
0
0
LINE
8
equipment
10
96450.0
20
144500.0
30
0
11
96450.0
21
144580.0
31
0
0
LINE
8
equipment
10
107050.00000000001
20
144500.0
30
0
11
106850.0
21
144500.0
31
0
0
LINE
8
equipment
10
105050.0
20
144500.0
30
0
11
102650.0
21
144500.0
31
0
0
LINE
8
equipment
10
100850.0
20
144500.0
30
0
11
98449.99999999999
21
144500.0
31
0
0
LINE
8
equipment
10
96650.0
20
144500.0
30
0
11
96450.0
21
144500.0
31
0
0
LINE
8
equipment
10
107050.00000000001
20
144580.0
30
0
11
106850.0
21
144580.0
31
0
0
LINE
8
equipment
10
105050.0
20
144580.0
30
0
11
102650.0
21
144580.0
31
0
0
LINE
8
equipment
10
100850.0
20
144580.0
30
0
11
98449.99999999999
21
144580.0
31
0
0
LINE
8
equipment
10
96650.0
20
144580.0
30
0
11
96450.0
21
144580.0
31
0
0
LINE
8
equipment
10
107050.00000000001
20
144750.0
30
0
11
107050.00000000001
21
144830.0
31
0
0
LINE
8
equipment
10
96450.0
20
144750.0
30
0
11
96450.0
21
144830.0
31
0
0
LINE
8
equipment
10
107050.00000000001
20
144750.0
30
0
11
106850.0
21
144750.0
31
0
0
LINE
8
equipment
10
105050.0
20
144750.0
30
0
11
102650.0
21
144750.0
31
0
0
LINE
8
equipment
10
100850.0
20
144750.0
30
0
11
98449.99999999999
21
144750.0
31
0
0
LINE
8
equipment
10
96650.0
20
144750.0
30
0
11
96450.0
21
144750.0
31
0
0
LINE
8
equipment
10
107050.00000000001
20
144830.0
30
0
11
106850.0
21
144830.0
31
0
0
LINE
8
equipment
10
105050.0
20
144830.0
30
0
11
102650.0
21
144830.0
31
0
0
LINE
8
equipment
10
100850.0
20
144830.0
30
0
11
98449.99999999999
21
144830.0
31
0
0
LINE
8
equipment
10
96650.0
20
144830.0
30
0
11
96450.0
21
144830.0
31
0
0
LINE
8
equipment
10
71650.0
20
141700.0
30
0
11
71650.0
21
142200.0
31
0
0
LINE
8
equipment
10
59850.0
20
141700.0
30
0
11
59850.0
21
142200.0
31
0
0
LINE
8
equipment
10
71650.0
20
141700.0
30
0
11
59850.0
21
141700.0
31
0
0
LINE
8
equipment
10
71650.0
20
142200.0
30
0
11
59850.0
21
142200.0
31
0
0
LINE
8
equipment
10
71250.0
20
142200.0
30
0
11
71250.0
21
145500.0
31
0
0
LINE
8
equipment
10
60250.0
20
142200.0
30
0
11
60250.0
21
145500.0
31
0
0
LINE
8
equipment
10
71250.0
20
145500.0
30
0
11
60250.0
21
145500.0
31
0
0
LINE
8
equipment
10
70850.0
20
142600.0
30
0
11
70850.0
21
144900.0
31
0
0
LINE
8
equipment
10
69050.0
20
142600.0
30
0
11
69050.0
21
144900.0
31
0
0
LINE
8
equipment
10
70850.0
20
142600.0
30
0
11
69050.0
21
142600.0
31
0
0
LINE
8
equipment
10
70850.0
20
144900.0
30
0
11
69050.0
21
144900.0
31
0
0
LINE
8
equipment
10
67170.0
20
145800.0
30
0
11
67195.07
21
145800.0
31
0
0
LINE
8
equipment
10
67195.07
20
145800.0
30
0
11
67269.03
21
145800.0
31
0
0
LINE
8
equipment
10
67269.03
20
145800.0
30
0
11
67388.17
21
145800.0
31
0
0
LINE
8
equipment
10
67388.17
20
145800.0
30
0
11
67546.51
21
145800.0
31
0
0
LINE
8
equipment
10
67546.51
20
145800.0
30
0
11
67736.12
21
145800.0
31
0
0
LINE
8
equipment
10
67736.12
20
145800.0
30
0
11
67947.48
21
145800.0
31
0
0
LINE
8
equipment
10
67947.48
20
145800.0
30
0
11
68170.0
21
145800.0
31
0
0
LINE
8
equipment
10
68170.0
20
145800.0
30
0
11
68392.52
21
145800.0
31
0
0
LINE
8
equipment
10
68392.52
20
145800.0
30
0
11
68603.88
21
145800.0
31
0
0
LINE
8
equipment
10
68603.88
20
145800.0
30
0
11
68793.49
21
145800.0
31
0
0
LINE
8
equipment
10
68793.49
20
145800.0
30
0
11
68951.83
21
145800.0
31
0
0
LINE
8
equipment
10
68951.83
20
145800.0
30
0
11
69070.97
21
145800.0
31
0
0
LINE
8
equipment
10
69070.97
20
145800.0
30
0
11
69144.93
21
145800.0
31
0
0
LINE
8
equipment
10
69144.93
20
145800.0
30
0
11
69170.0
21
145800.0
31
0
0
LINE
8
equipment
10
67170.0
20
145500.0
30
0
11
67170.0
21
145800.0
31
0
0
LINE
8
equipment
10
66650.0
20
142600.0
30
0
11
66650.0
21
144900.0
31
0
0
LINE
8
equipment
10
64850.0
20
142600.0
30
0
11
64850.0
21
144900.0
31
0
0
LINE
8
equipment
10
66650.0
20
142600.0
30
0
11
64850.0
21
142600.0
31
0
0
LINE
8
equipment
10
66650.0
20
144900.0
30
0
11
64850.0
21
144900.0
31
0
0
LINE
8
equipment
10
64750.0
20
145800.0
30
0
11
64775.07000000001
21
145800.0
31
0
0
LINE
8
equipment
10
64775.07000000001
20
145800.0
30
0
11
64849.03
21
145800.0
31
0
0
LINE
8
equipment
10
64849.03
20
145800.0
30
0
11
64968.16999999999
21
145800.0
31
0
0
LINE
8
equipment
10
64968.16999999999
20
145800.0
30
0
11
65126.51
21
145800.0
31
0
0
LINE
8
equipment
10
65126.51
20
145800.0
30
0
11
65316.11999999999
21
145800.0
31
0
0
LINE
8
equipment
10
65316.11999999999
20
145800.0
30
0
11
65527.48
21
145800.0
31
0
0
LINE
8
equipment
10
65527.48
20
145800.0
30
0
11
65750.0
21
145800.0
31
0
0
LINE
8
equipment
10
65750.0
20
145800.0
30
0
11
65972.52
21
145800.0
31
0
0
LINE
8
equipment
10
65972.52
20
145800.0
30
0
11
66183.88
21
145800.0
31
0
0
LINE
8
equipment
10
66183.88
20
145800.0
30
0
11
66373.49
21
145800.0
31
0
0
LINE
8
equipment
10
66373.49
20
145800.0
30
0
11
66531.83
21
145800.0
31
0
0
LINE
8
equipment
10
66531.83
20
145800.0
30
0
11
66650.97
21
145800.0
31
0
0
LINE
8
equipment
10
66650.97
20
145800.0
30
0
11
66724.93
21
145800.0
31
0
0
LINE
8
equipment
10
66724.93
20
145800.0
30
0
11
66750.0
21
145800.0
31
0
0
LINE
8
equipment
10
64750.0
20
145500.0
30
0
11
64750.0
21
145800.0
31
0
0
LINE
8
equipment
10
62450.0
20
142600.0
30
0
11
62450.0
21
144900.0
31
0
0
LINE
8
equipment
10
60649.99999999999
20
142600.0
30
0
11
60649.99999999999
21
144900.0
31
0
0
LINE
8
equipment
10
62450.0
20
142600.0
30
0
11
60649.99999999999
21
142600.0
31
0
0
LINE
8
equipment
10
62450.0
20
144900.0
30
0
11
60649.99999999999
21
144900.0
31
0
0
LINE
8
equipment
10
62330.0
20
145800.0
30
0
11
62355.07000000001
21
145800.0
31
0
0
LINE
8
equipment
10
62355.07000000001
20
145800.0
30
0
11
62429.02999999999
21
145800.0
31
0
0
LINE
8
equipment
10
62429.02999999999
20
145800.0
30
0
11
62548.17
21
145800.0
31
0
0
LINE
8
equipment
10
62548.17
20
145800.0
30
0
11
62706.509999999995
21
145800.0
31
0
0
LINE
8
equipment
10
62706.509999999995
20
145800.0
30
0
11
62896.119999999995
21
145800.0
31
0
0
LINE
8
equipment
10
62896.119999999995
20
145800.0
30
0
11
63107.479999999996
21
145800.0
31
0
0
LINE
8
equipment
10
63107.479999999996
20
145800.0
30
0
11
63330.0
21
145800.0
31
0
0
LINE
8
equipment
10
63330.0
20
145800.0
30
0
11
63552.520000000004
21
145800.0
31
0
0
LINE
8
equipment
10
63552.520000000004
20
145800.0
30
0
11
63763.88
21
145800.0
31
0
0
LINE
8
equipment
10
63763.88
20
145800.0
30
0
11
63953.490000000005
21
145800.0
31
0
0
LINE
8
equipment
10
63953.490000000005
20
145800.0
30
0
11
64111.829999999994
21
145800.0
31
0
0
LINE
8
equipment
10
64111.829999999994
20
145800.0
30
0
11
64230.97
21
145800.0
31
0
0
LINE
8
equipment
10
64230.97
20
145800.0
30
0
11
64304.92999999999
21
145800.0
31
0
0
LINE
8
equipment
10
64304.92999999999
20
145800.0
30
0
11
64329.99999999999
21
145800.0
31
0
0
LINE
8
equipment
10
62330.0
20
145500.0
30
0
11
62330.0
21
145800.0
31
0
0
LINE
8
equipment
10
71050.0
20
142500.0
30
0
11
71050.0
21
142580.0
31
0
0
LINE
8
equipment
10
60449.99999999999
20
142500.0
30
0
11
60449.99999999999
21
142580.0
31
0
0
LINE
8
equipment
10
71050.0
20
142500.0
30
0
11
60449.99999999999
21
142500.0
31
0
0
LINE
8
equipment
10
71050.0
20
142580.0
30
0
11
60449.99999999999
21
142580.0
31
0
0
LINE
8
equipment
10
71050.0
20
142750.0
30
0
11
71050.0
21
142830.0
31
0
0
LINE
8
equipment
10
60449.99999999999
20
142750.0
30
0
11
60449.99999999999
21
142830.0
31
0
0
LINE
8
equipment
10
71050.0
20
142750.0
30
0
11
70850.0
21
142750.0
31
0
0
LINE
8
equipment
10
69050.0
20
142750.0
30
0
11
66650.0
21
142750.0
31
0
0
LINE
8
equipment
10
64850.0
20
142750.0
30
0
11
62450.0
21
142750.0
31
0
0
LINE
8
equipment
10
60649.99999999999
20
142750.0
30
0
11
60449.99999999999
21
142750.0
31
0
0
LINE
8
equipment
10
71050.0
20
142830.0
30
0
11
70850.0
21
142830.0
31
0
0
LINE
8
equipment
10
69050.0
20
142830.0
30
0
11
66650.0
21
142830.0
31
0
0
LINE
8
equipment
10
64850.0
20
142830.0
30
0
11
62450.0
21
142830.0
31
0
0
LINE
8
equipment
10
60649.99999999999
20
142830.0
30
0
11
60449.99999999999
21
142830.0
31
0
0
LINE
8
equipment
10
71050.0
20
143000.0
30
0
11
71050.0
21
143080.0
31
0
0
LINE
8
equipment
10
60449.99999999999
20
143000.0
30
0
11
60449.99999999999
21
143080.0
31
0
0
LINE
8
equipment
10
71050.0
20
143000.0
30
0
11
70850.0
21
143000.0
31
0
0
LINE
8
equipment
10
69050.0
20
143000.0
30
0
11
66650.0
21
143000.0
31
0
0
LINE
8
equipment
10
64850.0
20
143000.0
30
0
11
62450.0
21
143000.0
31
0
0
LINE
8
equipment
10
60649.99999999999
20
143000.0
30
0
11
60449.99999999999
21
143000.0
31
0
0
LINE
8
equipment
10
71050.0
20
143080.0
30
0
11
70850.0
21
143080.0
31
0
0
LINE
8
equipment
10
69050.0
20
143080.0
30
0
11
66650.0
21
143080.0
31
0
0
LINE
8
equipment
10
64850.0
20
143080.0
30
0
11
62450.0
21
143080.0
31
0
0
LINE
8
equipment
10
60649.99999999999
20
143080.0
30
0
11
60449.99999999999
21
143080.0
31
0
0
LINE
8
equipment
10
71050.0
20
143250.0
30
0
11
71050.0
21
143330.0
31
0
0
LINE
8
equipment
10
60449.99999999999
20
143250.0
30
0
11
60449.99999999999
21
143330.0
31
0
0
LINE
8
equipment
10
71050.0
20
143250.0
30
0
11
70850.0
21
143250.0
31
0
0
LINE
8
equipment
10
69050.0
20
143250.0
30
0
11
66650.0
21
143250.0
31
0
0
LINE
8
equipment
10
64850.0
20
143250.0
30
0
11
62450.0
21
143250.0
31
0
0
LINE
8
equipment
10
60649.99999999999
20
143250.0
30
0
11
60449.99999999999
21
143250.0
31
0
0
LINE
8
equipment
10
71050.0
20
143330.0
30
0
11
70850.0
21
143330.0
31
0
0
LINE
8
equipment
10
69050.0
20
143330.0
30
0
11
66650.0
21
143330.0
31
0
0
LINE
8
equipment
10
64850.0
20
143330.0
30
0
11
62450.0
21
143330.0
31
0
0
LINE
8
equipment
10
60649.99999999999
20
143330.0
30
0
11
60449.99999999999
21
143330.0
31
0
0
LINE
8
equipment
10
71050.0
20
143500.0
30
0
11
71050.0
21
143580.0
31
0
0
LINE
8
equipment
10
60449.99999999999
20
143500.0
30
0
11
60449.99999999999
21
143580.0
31
0
0
LINE
8
equipment
10
71050.0
20
143500.0
30
0
11
70850.0
21
143500.0
31
0
0
LINE
8
equipment
10
69050.0
20
143500.0
30
0
11
66650.0
21
143500.0
31
0
0
LINE
8
equipment
10
64850.0
20
143500.0
30
0
11
62450.0
21
143500.0
31
0
0
LINE
8
equipment
10
60649.99999999999
20
143500.0
30
0
11
60449.99999999999
21
143500.0
31
0
0
LINE
8
equipment
10
71050.0
20
143580.0
30
0
11
70850.0
21
143580.0
31
0
0
LINE
8
equipment
10
69050.0
20
143580.0
30
0
11
66650.0
21
143580.0
31
0
0
LINE
8
equipment
10
64850.0
20
143580.0
30
0
11
62450.0
21
143580.0
31
0
0
LINE
8
equipment
10
60649.99999999999
20
143580.0
30
0
11
60449.99999999999
21
143580.0
31
0
0
LINE
8
equipment
10
71050.0
20
143750.0
30
0
11
71050.0
21
143830.0
31
0
0
LINE
8
equipment
10
60449.99999999999
20
143750.0
30
0
11
60449.99999999999
21
143830.0
31
0
0
LINE
8
equipment
10
71050.0
20
143750.0
30
0
11
70850.0
21
143750.0
31
0
0
LINE
8
equipment
10
69050.0
20
143750.0
30
0
11
66650.0
21
143750.0
31
0
0
LINE
8
equipment
10
64850.0
20
143750.0
30
0
11
62450.0
21
143750.0
31
0
0
LINE
8
equipment
10
60649.99999999999
20
143750.0
30
0
11
60449.99999999999
21
143750.0
31
0
0
LINE
8
equipment
10
71050.0
20
143830.0
30
0
11
70850.0
21
143830.0
31
0
0
LINE
8
equipment
10
69050.0
20
143830.0
30
0
11
66650.0
21
143830.0
31
0
0
LINE
8
equipment
10
64850.0
20
143830.0
30
0
11
62450.0
21
143830.0
31
0
0
LINE
8
equipment
10
60649.99999999999
20
143830.0
30
0
11
60449.99999999999
21
143830.0
31
0
0
LINE
8
equipment
10
71050.0
20
144000.0
30
0
11
71050.0
21
144080.0
31
0
0
LINE
8
equipment
10
60449.99999999999
20
144000.0
30
0
11
60449.99999999999
21
144080.0
31
0
0
LINE
8
equipment
10
71050.0
20
144000.0
30
0
11
70850.0
21
144000.0
31
0
0
LINE
8
equipment
10
69050.0
20
144000.0
30
0
11
66650.0
21
144000.0
31
0
0
LINE
8
equipment
10
64850.0
20
144000.0
30
0
11
62450.0
21
144000.0
31
0
0
LINE
8
equipment
10
60649.99999999999
20
144000.0
30
0
11
60449.99999999999
21
144000.0
31
0
0
LINE
8
equipment
10
71050.0
20
144080.0
30
0
11
70850.0
21
144080.0
31
0
0
LINE
8
equipment
10
69050.0
20
144080.0
30
0
11
66650.0
21
144080.0
31
0
0
LINE
8
equipment
10
64850.0
20
144080.0
30
0
11
62450.0
21
144080.0
31
0
0
LINE
8
equipment
10
60649.99999999999
20
144080.0
30
0
11
60449.99999999999
21
144080.0
31
0
0
LINE
8
equipment
10
71050.0
20
144250.0
30
0
11
71050.0
21
144330.0
31
0
0
LINE
8
equipment
10
60449.99999999999
20
144250.0
30
0
11
60449.99999999999
21
144330.0
31
0
0
LINE
8
equipment
10
71050.0
20
144250.0
30
0
11
70850.0
21
144250.0
31
0
0
LINE
8
equipment
10
69050.0
20
144250.0
30
0
11
66650.0
21
144250.0
31
0
0
LINE
8
equipment
10
64850.0
20
144250.0
30
0
11
62450.0
21
144250.0
31
0
0
LINE
8
equipment
10
60649.99999999999
20
144250.0
30
0
11
60449.99999999999
21
144250.0
31
0
0
LINE
8
equipment
10
71050.0
20
144330.0
30
0
11
70850.0
21
144330.0
31
0
0
LINE
8
equipment
10
69050.0
20
144330.0
30
0
11
66650.0
21
144330.0
31
0
0
LINE
8
equipment
10
64850.0
20
144330.0
30
0
11
62450.0
21
144330.0
31
0
0
LINE
8
equipment
10
60649.99999999999
20
144330.0
30
0
11
60449.99999999999
21
144330.0
31
0
0
LINE
8
equipment
10
71050.0
20
144500.0
30
0
11
71050.0
21
144580.0
31
0
0
LINE
8
equipment
10
60449.99999999999
20
144500.0
30
0
11
60449.99999999999
21
144580.0
31
0
0
LINE
8
equipment
10
71050.0
20
144500.0
30
0
11
70850.0
21
144500.0
31
0
0
LINE
8
equipment
10
69050.0
20
144500.0
30
0
11
66650.0
21
144500.0
31
0
0
LINE
8
equipment
10
64850.0
20
144500.0
30
0
11
62450.0
21
144500.0
31
0
0
LINE
8
equipment
10
60649.99999999999
20
144500.0
30
0
11
60449.99999999999
21
144500.0
31
0
0
LINE
8
equipment
10
71050.0
20
144580.0
30
0
11
70850.0
21
144580.0
31
0
0
LINE
8
equipment
10
69050.0
20
144580.0
30
0
11
66650.0
21
144580.0
31
0
0
LINE
8
equipment
10
64850.0
20
144580.0
30
0
11
62450.0
21
144580.0
31
0
0
LINE
8
equipment
10
60649.99999999999
20
144580.0
30
0
11
60449.99999999999
21
144580.0
31
0
0
LINE
8
equipment
10
71050.0
20
144750.0
30
0
11
71050.0
21
144830.0
31
0
0
LINE
8
equipment
10
60449.99999999999
20
144750.0
30
0
11
60449.99999999999
21
144830.0
31
0
0
LINE
8
equipment
10
71050.0
20
144750.0
30
0
11
70850.0
21
144750.0
31
0
0
LINE
8
equipment
10
69050.0
20
144750.0
30
0
11
66650.0
21
144750.0
31
0
0
LINE
8
equipment
10
64850.0
20
144750.0
30
0
11
62450.0
21
144750.0
31
0
0
LINE
8
equipment
10
60649.99999999999
20
144750.0
30
0
11
60449.99999999999
21
144750.0
31
0
0
LINE
8
equipment
10
71050.0
20
144830.0
30
0
11
70850.0
21
144830.0
31
0
0
LINE
8
equipment
10
69050.0
20
144830.0
30
0
11
66650.0
21
144830.0
31
0
0
LINE
8
equipment
10
64850.0
20
144830.0
30
0
11
62450.0
21
144830.0
31
0
0
LINE
8
equipment
10
60649.99999999999
20
144830.0
30
0
11
60449.99999999999
21
144830.0
31
0
0
LINE
8
equipment
10
237750.0
20
141700.0
30
0
11
237750.0
21
142300.0
31
0
0
LINE
8
equipment
10
233750.0
20
141700.0
30
0
11
233750.0
21
142300.0
31
0
0
LINE
8
equipment
10
237750.0
20
141700.0
30
0
11
233750.0
21
141700.0
31
0
0
LINE
8
equipment
10
237750.0
20
142300.0
30
0
11
233750.0
21
142300.0
31
0
0
LINE
8
equipment
10
234750.0
20
149300.0
30
0
11
234775.07
21
149300.0
31
0
0
LINE
8
equipment
10
234775.07
20
149300.0
30
0
11
234849.03
21
149300.0
31
0
0
LINE
8
equipment
10
234849.03
20
149300.0
30
0
11
234968.16999999998
21
149300.0
31
0
0
LINE
8
equipment
10
234968.16999999998
20
149300.0
30
0
11
235126.50999999998
21
149300.0
31
0
0
LINE
8
equipment
10
235126.50999999998
20
149300.0
30
0
11
235316.12
21
149300.0
31
0
0
LINE
8
equipment
10
235316.12
20
149300.0
30
0
11
235527.47999999998
21
149300.0
31
0
0
LINE
8
equipment
10
235527.47999999998
20
149300.0
30
0
11
235750.0
21
149300.0
31
0
0
LINE
8
equipment
10
235750.0
20
149300.0
30
0
11
235972.52
21
149300.0
31
0
0
LINE
8
equipment
10
235972.52
20
149300.0
30
0
11
236183.87999999998
21
149300.0
31
0
0
LINE
8
equipment
10
236183.87999999998
20
149300.0
30
0
11
236373.49
21
149300.0
31
0
0
LINE
8
equipment
10
236373.49
20
149300.0
30
0
11
236531.83
21
149300.0
31
0
0
LINE
8
equipment
10
236531.83
20
149300.0
30
0
11
236650.97
21
149300.0
31
0
0
LINE
8
equipment
10
236650.97
20
149300.0
30
0
11
236724.93
21
149300.0
31
0
0
LINE
8
equipment
10
236724.93
20
149300.0
30
0
11
236750.0
21
149300.0
31
0
0
LINE
8
equipment
10
234750.0
20
142300.0
30
0
11
234750.0
21
149300.0
31
0
0
LINE
8
equipment
10
235049.99999999997
20
150300.0
30
0
11
235067.55000000002
21
150300.0
31
0
0
LINE
8
equipment
10
235067.55000000002
20
150300.0
30
0
11
235119.32
21
150300.0
31
0
0
LINE
8
equipment
10
235119.32
20
150300.0
30
0
11
235202.72
21
150300.0
31
0
0
LINE
8
equipment
10
235202.72
20
150300.0
30
0
11
235313.56
21
150300.0
31
0
0
LINE
8
equipment
10
235313.56
20
150300.0
30
0
11
235446.27999999997
21
150300.0
31
0
0
LINE
8
equipment
10
235446.27999999997
20
150300.0
30
0
11
235594.24
21
150300.0
31
0
0
LINE
8
equipment
10
235594.24
20
150300.0
30
0
11
235750.0
21
150300.0
31
0
0
LINE
8
equipment
10
235750.0
20
150300.0
30
0
11
235905.76
21
150300.0
31
0
0
LINE
8
equipment
10
235905.76
20
150300.0
30
0
11
236053.72
21
150300.0
31
0
0
LINE
8
equipment
10
236053.72
20
150300.0
30
0
11
236186.44
21
150300.0
31
0
0
LINE
8
equipment
10
236186.44
20
150300.0
30
0
11
236297.28
21
150300.0
31
0
0
LINE
8
equipment
10
236297.28
20
150300.0
30
0
11
236380.68
21
150300.0
31
0
0
LINE
8
equipment
10
236380.68
20
150300.0
30
0
11
236432.45
21
150300.0
31
0
0
LINE
8
equipment
10
236432.45
20
150300.0
30
0
11
236450.0
21
150300.0
31
0
0
LINE
8
equipment
10
234750.0
20
149300.0
30
0
11
235049.99999999997
21
150300.0
31
0
0
LINE
8
equipment
10
205750.0
20
141700.0
30
0
11
205750.0
21
142300.0
31
0
0
LINE
8
equipment
10
201750.0
20
141700.0
30
0
11
201750.0
21
142300.0
31
0
0
LINE
8
equipment
10
205750.0
20
141700.0
30
0
11
201750.0
21
141700.0
31
0
0
LINE
8
equipment
10
205750.0
20
142300.0
30
0
11
201750.0
21
142300.0
31
0
0
LINE
8
equipment
10
202750.0
20
149300.0
30
0
11
202775.07
21
149300.0
31
0
0
LINE
8
equipment
10
202775.07
20
149300.0
30
0
11
202849.03
21
149300.0
31
0
0
LINE
8
equipment
10
202849.03
20
149300.0
30
0
11
202968.17
21
149300.0
31
0
0
LINE
8
equipment
10
202968.17
20
149300.0
30
0
11
203126.51
21
149300.0
31
0
0
LINE
8
equipment
10
203126.51
20
149300.0
30
0
11
203316.12000000002
21
149300.0
31
0
0
LINE
8
equipment
10
203316.12000000002
20
149300.0
30
0
11
203527.48
21
149300.0
31
0
0
LINE
8
equipment
10
203527.48
20
149300.0
30
0
11
203750.0
21
149300.0
31
0
0
LINE
8
equipment
10
203750.0
20
149300.0
30
0
11
203972.51999999996
21
149300.0
31
0
0
LINE
8
equipment
10
203972.51999999996
20
149300.0
30
0
11
204183.88
21
149300.0
31
0
0
LINE
8
equipment
10
204183.88
20
149300.0
30
0
11
204373.48999999996
21
149300.0
31
0
0
LINE
8
equipment
10
204373.48999999996
20
149300.0
30
0
11
204531.83000000002
21
149300.0
31
0
0
LINE
8
equipment
10
204531.83000000002
20
149300.0
30
0
11
204650.97
21
149300.0
31
0
0
LINE
8
equipment
10
204650.97
20
149300.0
30
0
11
204724.93
21
149300.0
31
0
0
LINE
8
equipment
10
204724.93
20
149300.0
30
0
11
204750.0
21
149300.0
31
0
0
LINE
8
equipment
10
202750.0
20
142300.0
30
0
11
202750.0
21
149300.0
31
0
0
LINE
8
equipment
10
203050.0
20
150300.0
30
0
11
203067.55
21
150300.0
31
0
0
LINE
8
equipment
10
203067.55
20
150300.0
30
0
11
203119.32
21
150300.0
31
0
0
LINE
8
equipment
10
203119.32
20
150300.0
30
0
11
203202.72
21
150300.0
31
0
0
LINE
8
equipment
10
203202.72
20
150300.0
30
0
11
203313.56
21
150300.0
31
0
0
LINE
8
equipment
10
203313.56
20
150300.0
30
0
11
203446.28
21
150300.0
31
0
0
LINE
8
equipment
10
203446.28
20
150300.0
30
0
11
203594.24
21
150300.0
31
0
0
LINE
8
equipment
10
203594.24
20
150300.0
30
0
11
203750.0
21
150300.0
31
0
0
LINE
8
equipment
10
203750.0
20
150300.0
30
0
11
203905.76
21
150300.0
31
0
0
LINE
8
equipment
10
203905.76
20
150300.0
30
0
11
204053.72000000003
21
150300.0
31
0
0
LINE
8
equipment
10
204053.72000000003
20
150300.0
30
0
11
204186.44
21
150300.0
31
0
0
LINE
8
equipment
10
204186.44
20
150300.0
30
0
11
204297.28
21
150300.0
31
0
0
LINE
8
equipment
10
204297.28
20
150300.0
30
0
11
204380.68
21
150300.0
31
0
0
LINE
8
equipment
10
204380.68
20
150300.0
30
0
11
204432.44999999998
21
150300.0
31
0
0
LINE
8
equipment
10
204432.44999999998
20
150300.0
30
0
11
204450.00000000003
21
150300.0
31
0
0
LINE
8
equipment
10
202750.0
20
149300.0
30
0
11
203050.0
21
150300.0
31
0
0
LINE
8
equipment
10
173750.0
20
141700.0
30
0
11
173750.0
21
142300.0
31
0
0
LINE
8
equipment
10
169750.0
20
141700.0
30
0
11
169750.0
21
142300.0
31
0
0
LINE
8
equipment
10
173750.0
20
141700.0
30
0
11
169750.0
21
141700.0
31
0
0
LINE
8
equipment
10
173750.0
20
142300.0
30
0
11
169750.0
21
142300.0
31
0
0
LINE
8
equipment
10
170750.0
20
149300.0
30
0
11
170775.07
21
149300.0
31
0
0
LINE
8
equipment
10
170775.07
20
149300.0
30
0
11
170849.03
21
149300.0
31
0
0
LINE
8
equipment
10
170849.03
20
149300.0
30
0
11
170968.17
21
149300.0
31
0
0
LINE
8
equipment
10
170968.17
20
149300.0
30
0
11
171126.51
21
149300.0
31
0
0
LINE
8
equipment
10
171126.51
20
149300.0
30
0
11
171316.12
21
149300.0
31
0
0
LINE
8
equipment
10
171316.12
20
149300.0
30
0
11
171527.48
21
149300.0
31
0
0
LINE
8
equipment
10
171527.48
20
149300.0
30
0
11
171750.0
21
149300.0
31
0
0
LINE
8
equipment
10
171750.0
20
149300.0
30
0
11
171972.52
21
149300.0
31
0
0
LINE
8
equipment
10
171972.52
20
149300.0
30
0
11
172183.88
21
149300.0
31
0
0
LINE
8
equipment
10
172183.88
20
149300.0
30
0
11
172373.49
21
149300.0
31
0
0
LINE
8
equipment
10
172373.49
20
149300.0
30
0
11
172531.83
21
149300.0
31
0
0
LINE
8
equipment
10
172531.83
20
149300.0
30
0
11
172650.97
21
149300.0
31
0
0
LINE
8
equipment
10
172650.97
20
149300.0
30
0
11
172724.93
21
149300.0
31
0
0
LINE
8
equipment
10
172724.93
20
149300.0
30
0
11
172750.0
21
149300.0
31
0
0
LINE
8
equipment
10
170750.0
20
142300.0
30
0
11
170750.0
21
149300.0
31
0
0
LINE
8
equipment
10
171050.0
20
150300.0
30
0
11
171067.55000000002
21
150300.0
31
0
0
LINE
8
equipment
10
171067.55000000002
20
150300.0
30
0
11
171119.32
21
150300.0
31
0
0
LINE
8
equipment
10
171119.32
20
150300.0
30
0
11
171202.72
21
150300.0
31
0
0
LINE
8
equipment
10
171202.72
20
150300.0
30
0
11
171313.56
21
150300.0
31
0
0
LINE
8
equipment
10
171313.56
20
150300.0
30
0
11
171446.28
21
150300.0
31
0
0
LINE
8
equipment
10
171446.28
20
150300.0
30
0
11
171594.24000000002
21
150300.0
31
0
0
LINE
8
equipment
10
171594.24000000002
20
150300.0
30
0
11
171750.0
21
150300.0
31
0
0
LINE
8
equipment
10
171750.0
20
150300.0
30
0
11
171905.75999999998
21
150300.0
31
0
0
LINE
8
equipment
10
171905.75999999998
20
150300.0
30
0
11
172053.72
21
150300.0
31
0
0
LINE
8
equipment
10
172053.72
20
150300.0
30
0
11
172186.44
21
150300.0
31
0
0
LINE
8
equipment
10
172186.44
20
150300.0
30
0
11
172297.28
21
150300.0
31
0
0
LINE
8
equipment
10
172297.28
20
150300.0
30
0
11
172380.68
21
150300.0
31
0
0
LINE
8
equipment
10
172380.68
20
150300.0
30
0
11
172432.44999999998
21
150300.0
31
0
0
LINE
8
equipment
10
172432.44999999998
20
150300.0
30
0
11
172450.0
21
150300.0
31
0
0
LINE
8
equipment
10
170750.0
20
149300.0
30
0
11
171050.0
21
150300.0
31
0
0
LINE
8
equipment
10
141750.0
20
141700.0
30
0
11
141750.0
21
142300.0
31
0
0
LINE
8
equipment
10
137750.0
20
141700.0
30
0
11
137750.0
21
142300.0
31
0
0
LINE
8
equipment
10
141750.0
20
141700.0
30
0
11
137750.0
21
141700.0
31
0
0
LINE
8
equipment
10
141750.0
20
142300.0
30
0
11
137750.0
21
142300.0
31
0
0
LINE
8
equipment
10
138750.0
20
149300.0
30
0
11
138775.06999999998
21
149300.0
31
0
0
LINE
8
equipment
10
138775.06999999998
20
149300.0
30
0
11
138849.03
21
149300.0
31
0
0
LINE
8
equipment
10
138849.03
20
149300.0
30
0
11
138968.17
21
149300.0
31
0
0
LINE
8
equipment
10
138968.17
20
149300.0
30
0
11
139126.51
21
149300.0
31
0
0
LINE
8
equipment
10
139126.51
20
149300.0
30
0
11
139316.12
21
149300.0
31
0
0
LINE
8
equipment
10
139316.12
20
149300.0
30
0
11
139527.48
21
149300.0
31
0
0
LINE
8
equipment
10
139527.48
20
149300.0
30
0
11
139750.0
21
149300.0
31
0
0
LINE
8
equipment
10
139750.0
20
149300.0
30
0
11
139972.52
21
149300.0
31
0
0
LINE
8
equipment
10
139972.52
20
149300.0
30
0
11
140183.87999999998
21
149300.0
31
0
0
LINE
8
equipment
10
140183.87999999998
20
149300.0
30
0
11
140373.49
21
149300.0
31
0
0
LINE
8
equipment
10
140373.49
20
149300.0
30
0
11
140531.83000000002
21
149300.0
31
0
0
LINE
8
equipment
10
140531.83000000002
20
149300.0
30
0
11
140650.97
21
149300.0
31
0
0
LINE
8
equipment
10
140650.97
20
149300.0
30
0
11
140724.93
21
149300.0
31
0
0
LINE
8
equipment
10
140724.93
20
149300.0
30
0
11
140750.0
21
149300.0
31
0
0
LINE
8
equipment
10
138750.0
20
142300.0
30
0
11
138750.0
21
149300.0
31
0
0
LINE
8
equipment
10
139050.0
20
150300.0
30
0
11
139067.55
21
150300.0
31
0
0
LINE
8
equipment
10
139067.55
20
150300.0
30
0
11
139119.32
21
150300.0
31
0
0
LINE
8
equipment
10
139119.32
20
150300.0
30
0
11
139202.72
21
150300.0
31
0
0
LINE
8
equipment
10
139202.72
20
150300.0
30
0
11
139313.56
21
150300.0
31
0
0
LINE
8
equipment
10
139313.56
20
150300.0
30
0
11
139446.28
21
150300.0
31
0
0
LINE
8
equipment
10
139446.28
20
150300.0
30
0
11
139594.24
21
150300.0
31
0
0
LINE
8
equipment
10
139594.24
20
150300.0
30
0
11
139750.0
21
150300.0
31
0
0
LINE
8
equipment
10
139750.0
20
150300.0
30
0
11
139905.75999999998
21
150300.0
31
0
0
LINE
8
equipment
10
139905.75999999998
20
150300.0
30
0
11
140053.72
21
150300.0
31
0
0
LINE
8
equipment
10
140053.72
20
150300.0
30
0
11
140186.44
21
150300.0
31
0
0
LINE
8
equipment
10
140186.44
20
150300.0
30
0
11
140297.28
21
150300.0
31
0
0
LINE
8
equipment
10
140297.28
20
150300.0
30
0
11
140380.68
21
150300.0
31
0
0
LINE
8
equipment
10
140380.68
20
150300.0
30
0
11
140432.45
21
150300.0
31
0
0
LINE
8
equipment
10
140432.45
20
150300.0
30
0
11
140450.0
21
150300.0
31
0
0
LINE
8
equipment
10
138750.0
20
149300.0
30
0
11
139050.0
21
150300.0
31
0
0
LINE
8
equipment
10
109750.0
20
141700.0
30
0
11
109750.0
21
142300.0
31
0
0
LINE
8
equipment
10
105750.0
20
141700.0
30
0
11
105750.0
21
142300.0
31
0
0
LINE
8
equipment
10
109750.0
20
141700.0
30
0
11
105750.0
21
141700.0
31
0
0
LINE
8
equipment
10
109750.0
20
142300.0
30
0
11
105750.0
21
142300.0
31
0
0
LINE
8
equipment
10
106750.0
20
149300.0
30
0
11
106775.06999999999
21
149300.0
31
0
0
LINE
8
equipment
10
106775.06999999999
20
149300.0
30
0
11
106849.03
21
149300.0
31
0
0
LINE
8
equipment
10
106849.03
20
149300.0
30
0
11
106968.17
21
149300.0
31
0
0
LINE
8
equipment
10
106968.17
20
149300.0
30
0
11
107126.51000000001
21
149300.0
31
0
0
LINE
8
equipment
10
107126.51000000001
20
149300.0
30
0
11
107316.12000000001
21
149300.0
31
0
0
LINE
8
equipment
10
107316.12000000001
20
149300.0
30
0
11
107527.48000000001
21
149300.0
31
0
0
LINE
8
equipment
10
107527.48000000001
20
149300.0
30
0
11
107750.0
21
149300.0
31
0
0
LINE
8
equipment
10
107750.0
20
149300.0
30
0
11
107972.51999999999
21
149300.0
31
0
0
LINE
8
equipment
10
107972.51999999999
20
149300.0
30
0
11
108183.87999999999
21
149300.0
31
0
0
LINE
8
equipment
10
108183.87999999999
20
149300.0
30
0
11
108373.48999999999
21
149300.0
31
0
0
LINE
8
equipment
10
108373.48999999999
20
149300.0
30
0
11
108531.83000000002
21
149300.0
31
0
0
LINE
8
equipment
10
108531.83000000002
20
149300.0
30
0
11
108650.97
21
149300.0
31
0
0
LINE
8
equipment
10
108650.97
20
149300.0
30
0
11
108724.93000000001
21
149300.0
31
0
0
LINE
8
equipment
10
108724.93000000001
20
149300.0
30
0
11
108750.0
21
149300.0
31
0
0
LINE
8
equipment
10
106750.0
20
142300.0
30
0
11
106750.0
21
149300.0
31
0
0
LINE
8
equipment
10
107050.00000000001
20
150300.0
30
0
11
107067.55
21
150300.0
31
0
0
LINE
8
equipment
10
107067.55
20
150300.0
30
0
11
107119.32
21
150300.0
31
0
0
LINE
8
equipment
10
107119.32
20
150300.0
30
0
11
107202.72
21
150300.0
31
0
0
LINE
8
equipment
10
107202.72
20
150300.0
30
0
11
107313.56
21
150300.0
31
0
0
LINE
8
equipment
10
107313.56
20
150300.0
30
0
11
107446.28
21
150300.0
31
0
0
LINE
8
equipment
10
107446.28
20
150300.0
30
0
11
107594.23999999999
21
150300.0
31
0
0
LINE
8
equipment
10
107594.23999999999
20
150300.0
30
0
11
107750.0
21
150300.0
31
0
0
LINE
8
equipment
10
107750.0
20
150300.0
30
0
11
107905.76
21
150300.0
31
0
0
LINE
8
equipment
10
107905.76
20
150300.0
30
0
11
108053.72
21
150300.0
31
0
0
LINE
8
equipment
10
108053.72
20
150300.0
30
0
11
108186.43999999999
21
150300.0
31
0
0
LINE
8
equipment
10
108186.43999999999
20
150300.0
30
0
11
108297.27999999998
21
150300.0
31
0
0
LINE
8
equipment
10
108297.27999999998
20
150300.0
30
0
11
108380.68000000001
21
150300.0
31
0
0
LINE
8
equipment
10
108380.68000000001
20
150300.0
30
0
11
108432.44999999998
21
150300.0
31
0
0
LINE
8
equipment
10
108432.44999999998
20
150300.0
30
0
11
108450.0
21
150300.0
31
0
0
LINE
8
equipment
10
106750.0
20
149300.0
30
0
11
107050.00000000001
21
150300.0
31
0
0
LINE
8
equipment
10
77750.0
20
141700.0
30
0
11
77750.0
21
142300.0
31
0
0
LINE
8
equipment
10
73750.0
20
141700.0
30
0
11
73750.0
21
142300.0
31
0
0
LINE
8
equipment
10
77750.0
20
141700.0
30
0
11
73750.0
21
141700.0
31
0
0
LINE
8
equipment
10
77750.0
20
142300.0
30
0
11
73750.0
21
142300.0
31
0
0
LINE
8
equipment
10
74750.0
20
149300.0
30
0
11
74775.07
21
149300.0
31
0
0
LINE
8
equipment
10
74775.07
20
149300.0
30
0
11
74849.03
21
149300.0
31
0
0
LINE
8
equipment
10
74849.03
20
149300.0
30
0
11
74968.17
21
149300.0
31
0
0
LINE
8
equipment
10
74968.17
20
149300.0
30
0
11
75126.51
21
149300.0
31
0
0
LINE
8
equipment
10
75126.51
20
149300.0
30
0
11
75316.12
21
149300.0
31
0
0
LINE
8
equipment
10
75316.12
20
149300.0
30
0
11
75527.48
21
149300.0
31
0
0
LINE
8
equipment
10
75527.48
20
149300.0
30
0
11
75750.0
21
149300.0
31
0
0
LINE
8
equipment
10
75750.0
20
149300.0
30
0
11
75972.52
21
149300.0
31
0
0
LINE
8
equipment
10
75972.52
20
149300.0
30
0
11
76183.88
21
149300.0
31
0
0
LINE
8
equipment
10
76183.88
20
149300.0
30
0
11
76373.49
21
149300.0
31
0
0
LINE
8
equipment
10
76373.49
20
149300.0
30
0
11
76531.83
21
149300.0
31
0
0
LINE
8
equipment
10
76531.83
20
149300.0
30
0
11
76650.97
21
149300.0
31
0
0
LINE
8
equipment
10
76650.97
20
149300.0
30
0
11
76724.93
21
149300.0
31
0
0
LINE
8
equipment
10
76724.93
20
149300.0
30
0
11
76750.0
21
149300.0
31
0
0
LINE
8
equipment
10
74750.0
20
142300.0
30
0
11
74750.0
21
149300.0
31
0
0
LINE
8
equipment
10
75050.0
20
150300.0
30
0
11
75067.55
21
150300.0
31
0
0
LINE
8
equipment
10
75067.55
20
150300.0
30
0
11
75119.32
21
150300.0
31
0
0
LINE
8
equipment
10
75119.32
20
150300.0
30
0
11
75202.72
21
150300.0
31
0
0
LINE
8
equipment
10
75202.72
20
150300.0
30
0
11
75313.56
21
150300.0
31
0
0
LINE
8
equipment
10
75313.56
20
150300.0
30
0
11
75446.28
21
150300.0
31
0
0
LINE
8
equipment
10
75446.28
20
150300.0
30
0
11
75594.24
21
150300.0
31
0
0
LINE
8
equipment
10
75594.24
20
150300.0
30
0
11
75750.0
21
150300.0
31
0
0
LINE
8
equipment
10
75750.0
20
150300.0
30
0
11
75905.76
21
150300.0
31
0
0
LINE
8
equipment
10
75905.76
20
150300.0
30
0
11
76053.72
21
150300.0
31
0
0
LINE
8
equipment
10
76053.72
20
150300.0
30
0
11
76186.44
21
150300.0
31
0
0
LINE
8
equipment
10
76186.44
20
150300.0
30
0
11
76297.28
21
150300.0
31
0
0
LINE
8
equipment
10
76297.28
20
150300.0
30
0
11
76380.68
21
150300.0
31
0
0
LINE
8
equipment
10
76380.68
20
150300.0
30
0
11
76432.45
21
150300.0
31
0
0
LINE
8
equipment
10
76432.45
20
150300.0
30
0
11
76450.0
21
150300.0
31
0
0
LINE
8
equipment
10
74750.0
20
149300.0
30
0
11
75050.0
21
150300.0
31
0
0
LINE
8
grid
10
280400.0
20
92100.00000000001
30
0
11
292400.0
21
92100.00000000001
31
0
0
TEXT
8
annotation
10
285462.5
20
93000.0
30
0
40
1875.0
1
B1 -7.20m
50
0
0
LINE
8
grid
10
280400.0
20
114100.0
30
0
11
292400.0
21
114100.0
31
0
0
TEXT
8
annotation
10
284525.0
20
114999.99999999999
30
0
40
1875.0
1
F1 +14.80m
50
0
0
LINE
8
grid
10
280400.0
20
128900.0
30
0
11
292400.0
21
128900.0
31
0
0
TEXT
8
annotation
10
284525.0
20
129800.0
30
0
40
1875.0
1
F2 +29.60m
50
0
0
LINE
8
grid
10
280400.0
20
141100.0
30
0
11
292400.0
21
141100.0
31
0
0
TEXT
8
annotation
10
284525.0
20
142000.0
30
0
40
1875.0
1
RF +41.80m
50
0
0
LINE
8
dimension
10
28599.999999999993
20
84450.0
30
0
11
278900.0
21
84450.0
31
0
0
LINE
8
dimension
10
27849.999999999993
20
83700.0
30
0
11
29349.999999999993
21
85200.0
31
0
0
LINE
8
dimension
10
278150.0
20
83700.0
30
0
11
279650.0
21
85200.0
31
0
0
TEXT
8
annotation
10
140812.5
20
85575.0
30
0
40
2250.0
1
250,300 mm shown extent
50
0
0
LINE
8
frame
10
10500
20
44250
30
0
11
304500
21
44250
31
0
0
TEXT
8
annotation
10
10500
20
38250
30
0
40
2625.0
1
CONCEPT DESIGN | IMAGE-INFERRED | NOT FOR CONSTRUCTION
50
0
0
TEXT
8
annotation
10
10500
20
28500.0
30
0
40
1987.5
1
Source: two campus AI images + fab1.jpg; official analogues documented in analysis/cad/.
50
0
0
TEXT
8
annotation
10
10500
20
25200.00000000002
30
0
40
1987.5
1
CAD model in mm; site coordinates X east, Y north, Z up. Internal layouts and member sizes are design estimates.
50
0
0
TEXT
8
annotation
10
10500
20
21899.999999999993
30
0
40
1987.5
1
Plans/sections are extracted from actual FreeCAD BRep. Elevations project component outlines; hidden edges omitted per component.
50
0
0
TEXT
8
annotation
10
10500
20
18600.000000000007
30
0
40
1987.5
1
FAB source levels preserved, unverified: foundation -12.2 / B1 -7.2 / F1 +14.8 / F2 +29.6 / RF +41.8 m.
50
0
0
TEXT
8
annotation
10
10500
20
15299.999999999984
30
0
40
1987.5
1
No process certification, structural verification, measured survey, or construction approval is implied.
50
0
0
TEXT
8
annotation
10
267750.0
20
8250
30
0
40
2100.0
1
2026-09-30  |  FreeCAD 1.1.4  |  mm
50
0
0
ENDSEC
0
EOF
