0
SECTION
2
HEADER
9
$ACADVER
1
AC1009
9
$INSUNITS
70
4
0
ENDSEC
0
SECTION
2
ENTITIES
0
LINE
8
frame
10
1750
20
72500
30
0
11
103250
21
72500
31
0
0
LINE
8
frame
10
103250
20
72500
30
0
11
103250
21
1750
31
0
0
LINE
8
frame
10
103250
20
1750
30
0
11
1750
21
1750
31
0
0
LINE
8
frame
10
1750
20
1750
30
0
11
1750
21
72500
31
0
0
TEXT
8
annotation
10
3500
20
69750
30
0
40
1050.0
1
PHOENIX SCIENCE PARK
50
0
0
TEXT
8
annotation
10
3500
20
67750
30
0
40
1250.0
1
HQ / East elevation
50
0
0
TEXT
8
annotation
10
96700.0
20
69750
30
0
40
800.0
1
A3  |  1:250
50
0
0
TEXT
8
annotation
10
94750.0
20
67750
30
0
40
750.0
1
CAD-HQ-EAST  /  R1
50
0
0
LINE
8
frame
10
3500
20
66500
30
0
11
101500
21
66500
31
0
0
LINE
8
glazing
10
80310.0
20
22640.0
30
0
11
80310.0
21
55240.0
31
0
0
LINE
8
glazing
10
80310.0
20
55240.0
30
0
11
80190.0
21
55240.0
31
0
0
LINE
8
glazing
10
80190.0
20
22640.0
30
0
11
80190.0
21
55240.0
31
0
0
LINE
8
glazing
10
80310.0
20
22640.0
30
0
11
80190.0
21
22640.0
31
0
0
LINE
8
envelope
10
80590.0
20
22640.0
30
0
11
80590.0
21
55440.0
31
0
0
LINE
8
envelope
10
80590.0
20
55440.0
30
0
11
80270.0
21
55440.0
31
0
0
LINE
8
envelope
10
80270.0
20
22640.0
30
0
11
80270.0
21
55440.0
31
0
0
LINE
8
envelope
10
80590.0
20
22640.0
30
0
11
80270.0
21
22640.0
31
0
0
LINE
8
envelope
10
80590.0
20
55440.0
30
0
11
80590.0
21
55580.0
31
0
0
LINE
8
envelope
10
80590.0
20
55580.0
30
0
11
80270.0
21
55580.0
31
0
0
LINE
8
envelope
10
80270.0
20
55440.0
30
0
11
80270.0
21
55580.0
31
0
0
LINE
8
envelope
10
80250.0
20
22640.0
30
0
11
80250.0
21
55440.0
31
0
0
LINE
8
envelope
10
80250.0
20
55440.0
30
0
11
22250.0
21
55440.0
31
0
0
LINE
8
envelope
10
22250.0
20
22640.0
30
0
11
22250.0
21
55440.0
31
0
0
LINE
8
envelope
10
80250.0
20
22640.0
30
0
11
22250.0
21
22640.0
31
0
0
LINE
8
glazing
10
22310.0
20
22640.0
30
0
11
22310.0
21
55240.0
31
0
0
LINE
8
glazing
10
22310.0
20
55240.0
30
0
11
22190.0
21
55240.0
31
0
0
LINE
8
glazing
10
22190.0
20
22640.0
30
0
11
22190.0
21
55240.0
31
0
0
LINE
8
glazing
10
22310.0
20
22640.0
30
0
11
22190.0
21
22640.0
31
0
0
LINE
8
envelope
10
22230.0
20
22640.0
30
0
11
22230.0
21
55440.0
31
0
0
LINE
8
envelope
10
22230.0
20
55440.0
30
0
11
21910.0
21
55440.0
31
0
0
LINE
8
envelope
10
21910.0
20
22640.0
30
0
11
21910.0
21
55440.0
31
0
0
LINE
8
envelope
10
22230.0
20
22640.0
30
0
11
21910.0
21
22640.0
31
0
0
LINE
8
envelope
10
22230.0
20
55440.0
30
0
11
22230.0
21
55580.0
31
0
0
LINE
8
envelope
10
22230.0
20
55580.0
30
0
11
21910.0
21
55580.0
31
0
0
LINE
8
envelope
10
21910.0
20
55440.0
30
0
11
21910.0
21
55580.0
31
0
0
LINE
8
roof
10
80750.0
20
55440.0
30
0
11
80750.0
21
56040.0
31
0
0
LINE
8
roof
10
80750.0
20
56040.0
30
0
11
21750.0
21
56040.0
31
0
0
LINE
8
roof
10
21750.0
20
55440.0
30
0
11
21750.0
21
56040.0
31
0
0
LINE
8
roof
10
80750.0
20
55440.0
30
0
11
21750.0
21
55440.0
31
0
0
LINE
8
glazing
10
77810.0
20
22640.0
30
0
11
77810.0
21
50240.0
31
0
0
LINE
8
glazing
10
77810.0
20
50240.0
30
0
11
77690.0
21
50240.0
31
0
0
LINE
8
glazing
10
77690.0
20
22640.0
30
0
11
77690.0
21
50240.0
31
0
0
LINE
8
glazing
10
77810.0
20
22640.0
30
0
11
77690.0
21
22640.0
31
0
0
LINE
8
envelope
10
78090.0
20
22640.0
30
0
11
78090.0
21
50440.0
31
0
0
LINE
8
envelope
10
78090.0
20
50440.0
30
0
11
77770.0
21
50440.0
31
0
0
LINE
8
envelope
10
77770.0
20
22640.0
30
0
11
77770.0
21
50440.0
31
0
0
LINE
8
envelope
10
78090.0
20
22640.0
30
0
11
77770.0
21
22640.0
31
0
0
LINE
8
envelope
10
78090.0
20
50440.0
30
0
11
78090.0
21
50580.0
31
0
0
LINE
8
envelope
10
78090.0
20
50580.0
30
0
11
77770.0
21
50580.0
31
0
0
LINE
8
envelope
10
77770.0
20
50440.0
30
0
11
77770.0
21
50580.0
31
0
0
LINE
8
envelope
10
77750.0
20
22640.0
30
0
11
77750.0
21
50440.0
31
0
0
LINE
8
envelope
10
77750.0
20
50440.0
30
0
11
24750.0
21
50440.0
31
0
0
LINE
8
envelope
10
24750.0
20
22640.0
30
0
11
24750.0
21
50440.0
31
0
0
LINE
8
envelope
10
77750.0
20
22640.0
30
0
11
24750.0
21
22640.0
31
0
0
LINE
8
glazing
10
24810.0
20
22640.0
30
0
11
24810.0
21
50240.0
31
0
0
LINE
8
glazing
10
24810.0
20
50240.0
30
0
11
24690.0
21
50240.0
31
0
0
LINE
8
glazing
10
24690.0
20
22640.0
30
0
11
24690.0
21
50240.0
31
0
0
LINE
8
glazing
10
24810.0
20
22640.0
30
0
11
24690.0
21
22640.0
31
0
0
LINE
8
envelope
10
24730.0
20
22640.0
30
0
11
24730.0
21
50440.0
31
0
0
LINE
8
envelope
10
24730.0
20
50440.0
30
0
11
24410.0
21
50440.0
31
0
0
LINE
8
envelope
10
24410.0
20
22640.0
30
0
11
24410.0
21
50440.0
31
0
0
LINE
8
envelope
10
24730.0
20
22640.0
30
0
11
24410.0
21
22640.0
31
0
0
LINE
8
envelope
10
24730.0
20
50440.0
30
0
11
24730.0
21
50580.0
31
0
0
LINE
8
envelope
10
24730.0
20
50580.0
30
0
11
24410.0
21
50580.0
31
0
0
LINE
8
envelope
10
24410.0
20
50440.0
30
0
11
24410.0
21
50580.0
31
0
0
LINE
8
roof
10
78250.0
20
50440.0
30
0
11
78250.0
21
51040.0
31
0
0
LINE
8
roof
10
78250.0
20
51040.0
30
0
11
24250.0
21
51040.0
31
0
0
LINE
8
roof
10
24250.0
20
50440.0
30
0
11
24250.0
21
51040.0
31
0
0
LINE
8
roof
10
78250.0
20
50440.0
30
0
11
24250.0
21
50440.0
31
0
0
LINE
8
equipment
10
65650.0
20
51040.0
30
0
11
65650.0
21
51540.0
31
0
0
LINE
8
equipment
10
65650.0
20
51540.0
30
0
11
60850.0
21
51540.0
31
0
0
LINE
8
equipment
10
60850.0
20
51040.0
30
0
11
60850.0
21
51540.0
31
0
0
LINE
8
equipment
10
65650.0
20
51040.0
30
0
11
60850.0
21
51040.0
31
0
0
LINE
8
equipment
10
65250.0
20
51540.0
30
0
11
65250.0
21
54840.0
31
0
0
LINE
8
equipment
10
65250.0
20
54840.0
30
0
11
61250.0
21
54840.0
31
0
0
LINE
8
equipment
10
61250.0
20
51540.0
30
0
11
61250.0
21
54840.0
31
0
0
LINE
8
equipment
10
61250.0
20
54240.0
30
0
11
61130.0
21
54240.0
31
0
0
LINE
8
equipment
10
61130.0
20
51940.0
30
0
11
61130.0
21
54240.0
31
0
0
LINE
8
equipment
10
61250.0
20
51940.0
30
0
11
61130.0
21
51940.0
31
0
0
LINE
8
equipment
10
63250.0
20
55140.0
30
0
11
63138.04
21
55140.0
31
0
0
LINE
8
equipment
10
63138.04
20
55140.0
30
0
11
63027.479999999996
21
55140.0
31
0
0
LINE
8
equipment
10
63027.479999999996
20
55140.0
30
0
11
62919.72
21
55140.0
31
0
0
LINE
8
equipment
10
62919.72
20
55140.0
30
0
11
62816.119999999995
21
55140.0
31
0
0
LINE
8
equipment
10
62816.119999999995
20
55140.0
30
0
11
62717.97
21
55140.0
31
0
0
LINE
8
equipment
10
62717.97
20
55140.0
30
0
11
62626.509999999995
21
55140.0
31
0
0
LINE
8
equipment
10
62626.509999999995
20
55140.0
30
0
11
62542.89
21
55140.0
31
0
0
LINE
8
equipment
10
62542.89
20
55140.0
30
0
11
62468.17
21
55140.0
31
0
0
LINE
8
equipment
10
62468.17
20
55140.0
30
0
11
62403.28
21
55140.0
31
0
0
LINE
8
equipment
10
62403.28
20
55140.0
30
0
11
62349.03
21
55140.0
31
0
0
LINE
8
equipment
10
62349.03
20
55140.0
30
0
11
62306.12
21
55140.0
31
0
0
LINE
8
equipment
10
62306.12
20
55140.0
30
0
11
62275.07
21
55140.0
31
0
0
LINE
8
equipment
10
62275.07
20
55140.0
30
0
11
62256.29
21
55140.0
31
0
0
LINE
8
equipment
10
62256.29
20
55140.0
30
0
11
62250.0
21
55140.0
31
0
0
LINE
8
equipment
10
64250.0
20
55140.0
30
0
11
64243.70999999999
21
55140.0
31
0
0
LINE
8
equipment
10
64243.70999999999
20
55140.0
30
0
11
64224.93
21
55140.0
31
0
0
LINE
8
equipment
10
64224.93
20
55140.0
30
0
11
64193.880000000005
21
55140.0
31
0
0
LINE
8
equipment
10
64193.880000000005
20
55140.0
30
0
11
64150.97
21
55140.0
31
0
0
LINE
8
equipment
10
64150.97
20
55140.0
30
0
11
64096.72
21
55140.0
31
0
0
LINE
8
equipment
10
64096.72
20
55140.0
30
0
11
64031.83
21
55140.0
31
0
0
LINE
8
equipment
10
64031.83
20
55140.0
30
0
11
63957.11
21
55140.0
31
0
0
LINE
8
equipment
10
63957.11
20
55140.0
30
0
11
63873.490000000005
21
55140.0
31
0
0
LINE
8
equipment
10
63873.490000000005
20
55140.0
30
0
11
63782.03
21
55140.0
31
0
0
LINE
8
equipment
10
63782.03
20
55140.0
30
0
11
63683.880000000005
21
55140.0
31
0
0
LINE
8
equipment
10
63683.880000000005
20
55140.0
30
0
11
63580.28
21
55140.0
31
0
0
LINE
8
equipment
10
63580.28
20
55140.0
30
0
11
63472.520000000004
21
55140.0
31
0
0
LINE
8
equipment
10
63472.520000000004
20
55140.0
30
0
11
63361.96
21
55140.0
31
0
0
LINE
8
equipment
10
63361.96
20
55140.0
30
0
11
63250.0
21
55140.0
31
0
0
LINE
8
equipment
10
65315.0
20
51840.0
30
0
11
65315.0
21
51920.0
31
0
0
LINE
8
equipment
10
65315.0
20
51920.0
30
0
11
65250.0
21
51920.0
31
0
0
LINE
8
equipment
10
65315.0
20
51840.0
30
0
11
65250.0
21
51840.0
31
0
0
LINE
8
equipment
10
65315.0
20
52090.0
30
0
11
65315.0
21
52170.0
31
0
0
LINE
8
equipment
10
65315.0
20
52170.0
30
0
11
65250.0
21
52170.0
31
0
0
LINE
8
equipment
10
65315.0
20
52090.0
30
0
11
65250.0
21
52090.0
31
0
0
LINE
8
equipment
10
65315.0
20
52340.0
30
0
11
65315.0
21
52420.0
31
0
0
LINE
8
equipment
10
65315.0
20
52420.0
30
0
11
65250.0
21
52420.0
31
0
0
LINE
8
equipment
10
65315.0
20
52340.0
30
0
11
65250.0
21
52340.0
31
0
0
LINE
8
equipment
10
65315.0
20
52590.0
30
0
11
65315.0
21
52670.0
31
0
0
LINE
8
equipment
10
65315.0
20
52670.0
30
0
11
65250.0
21
52670.0
31
0
0
LINE
8
equipment
10
65315.0
20
52590.0
30
0
11
65250.0
21
52590.0
31
0
0
LINE
8
equipment
10
65315.0
20
52840.0
30
0
11
65315.0
21
52920.0
31
0
0
LINE
8
equipment
10
65315.0
20
52920.0
30
0
11
65250.0
21
52920.0
31
0
0
LINE
8
equipment
10
65315.0
20
52840.0
30
0
11
65250.0
21
52840.0
31
0
0
LINE
8
equipment
10
65315.0
20
53090.0
30
0
11
65315.0
21
53170.0
31
0
0
LINE
8
equipment
10
65315.0
20
53170.0
30
0
11
65250.0
21
53170.0
31
0
0
LINE
8
equipment
10
65315.0
20
53090.0
30
0
11
65250.0
21
53090.0
31
0
0
LINE
8
equipment
10
65315.0
20
53340.0
30
0
11
65315.0
21
53420.0
31
0
0
LINE
8
equipment
10
65315.0
20
53420.0
30
0
11
65250.0
21
53420.0
31
0
0
LINE
8
equipment
10
65315.0
20
53340.0
30
0
11
65250.0
21
53340.0
31
0
0
LINE
8
equipment
10
65315.0
20
53590.0
30
0
11
65315.0
21
53670.0
31
0
0
LINE
8
equipment
10
65315.0
20
53670.0
30
0
11
65250.0
21
53670.0
31
0
0
LINE
8
equipment
10
65315.0
20
53590.0
30
0
11
65250.0
21
53590.0
31
0
0
LINE
8
equipment
10
65315.0
20
53840.0
30
0
11
65315.0
21
53920.0
31
0
0
LINE
8
equipment
10
65315.0
20
53920.0
30
0
11
65250.0
21
53920.0
31
0
0
LINE
8
equipment
10
65315.0
20
53840.0
30
0
11
65250.0
21
53840.0
31
0
0
LINE
8
equipment
10
65315.0
20
54090.0
30
0
11
65315.0
21
54170.0
31
0
0
LINE
8
equipment
10
65315.0
20
54170.0
30
0
11
65250.0
21
54170.0
31
0
0
LINE
8
equipment
10
65315.0
20
54090.0
30
0
11
65250.0
21
54090.0
31
0
0
LINE
8
equipment
10
61250.0
20
51920.0
30
0
11
61185.0
21
51920.0
31
0
0
LINE
8
equipment
10
61185.0
20
51840.0
30
0
11
61185.0
21
51920.0
31
0
0
LINE
8
equipment
10
61250.0
20
51840.0
30
0
11
61185.0
21
51840.0
31
0
0
LINE
8
equipment
10
61250.0
20
52170.0
30
0
11
61185.0
21
52170.0
31
0
0
LINE
8
equipment
10
61185.0
20
52090.0
30
0
11
61185.0
21
52170.0
31
0
0
LINE
8
equipment
10
61250.0
20
52090.0
30
0
11
61185.0
21
52090.0
31
0
0
LINE
8
equipment
10
61250.0
20
52420.0
30
0
11
61185.0
21
52420.0
31
0
0
LINE
8
equipment
10
61185.0
20
52340.0
30
0
11
61185.0
21
52420.0
31
0
0
LINE
8
equipment
10
61250.0
20
52340.0
30
0
11
61185.0
21
52340.0
31
0
0
LINE
8
equipment
10
61250.0
20
52670.0
30
0
11
61185.0
21
52670.0
31
0
0
LINE
8
equipment
10
61185.0
20
52590.0
30
0
11
61185.0
21
52670.0
31
0
0
LINE
8
equipment
10
61250.0
20
52590.0
30
0
11
61185.0
21
52590.0
31
0
0
LINE
8
equipment
10
61250.0
20
52920.0
30
0
11
61185.0
21
52920.0
31
0
0
LINE
8
equipment
10
61185.0
20
52840.0
30
0
11
61185.0
21
52920.0
31
0
0
LINE
8
equipment
10
61250.0
20
52840.0
30
0
11
61185.0
21
52840.0
31
0
0
LINE
8
equipment
10
61250.0
20
53170.0
30
0
11
61185.0
21
53170.0
31
0
0
LINE
8
equipment
10
61185.0
20
53090.0
30
0
11
61185.0
21
53170.0
31
0
0
LINE
8
equipment
10
61250.0
20
53090.0
30
0
11
61185.0
21
53090.0
31
0
0
LINE
8
equipment
10
61250.0
20
53420.0
30
0
11
61185.0
21
53420.0
31
0
0
LINE
8
equipment
10
61185.0
20
53340.0
30
0
11
61185.0
21
53420.0
31
0
0
LINE
8
equipment
10
61250.0
20
53340.0
30
0
11
61185.0
21
53340.0
31
0
0
LINE
8
equipment
10
61250.0
20
53670.0
30
0
11
61185.0
21
53670.0
31
0
0
LINE
8
equipment
10
61185.0
20
53590.0
30
0
11
61185.0
21
53670.0
31
0
0
LINE
8
equipment
10
61250.0
20
53590.0
30
0
11
61185.0
21
53590.0
31
0
0
LINE
8
equipment
10
61250.0
20
53920.0
30
0
11
61185.0
21
53920.0
31
0
0
LINE
8
equipment
10
61185.0
20
53840.0
30
0
11
61185.0
21
53920.0
31
0
0
LINE
8
equipment
10
61250.0
20
53840.0
30
0
11
61185.0
21
53840.0
31
0
0
LINE
8
equipment
10
61250.0
20
54170.0
30
0
11
61185.0
21
54170.0
31
0
0
LINE
8
equipment
10
61185.0
20
54090.0
30
0
11
61185.0
21
54170.0
31
0
0
LINE
8
equipment
10
61250.0
20
54090.0
30
0
11
61185.0
21
54090.0
31
0
0
LINE
8
envelope
10
82250.0
20
21439.999999999996
30
0
11
82250.0
21
57440.0
31
0
0
LINE
8
envelope
10
82250.0
20
57440.0
30
0
11
20250.0
21
57440.0
31
0
0
LINE
8
envelope
10
20250.0
20
21439.999999999996
30
0
11
20250.0
21
57440.0
31
0
0
LINE
8
envelope
10
82250.0
20
21439.999999999996
30
0
11
20250.0
21
21439.999999999996
31
0
0
LINE
8
envelope
10
82250.0
20
21439.999999999996
30
0
11
82250.0
21
52440.0
31
0
0
LINE
8
envelope
10
82250.0
20
52440.0
30
0
11
20250.0
21
52440.0
31
0
0
LINE
8
envelope
10
20250.0
20
21439.999999999996
30
0
11
20250.0
21
52440.0
31
0
0
LINE
8
roof
10
60250.0
20
56040.0
30
0
11
60250.0
21
56160.0
31
0
0
LINE
8
roof
10
51250.0
20
59440.0
30
0
11
51250.0
21
59560.0
31
0
0
LINE
8
roof
10
60250.0
20
56040.0
30
0
11
51250.0
21
59440.0
31
0
0
LINE
8
roof
10
60250.0
20
56160.0
30
0
11
51250.0
21
59560.0
31
0
0
LINE
8
roof
10
42250.0
20
56040.0
30
0
11
42250.0
21
56160.0
31
0
0
LINE
8
roof
10
42250.0
20
56040.0
30
0
11
51250.0
21
59440.0
31
0
0
LINE
8
roof
10
42250.0
20
56160.0
30
0
11
51250.0
21
59560.0
31
0
0
LINE
8
roof
10
90250.0
20
28640.0
30
0
11
90250.0
21
29240.000000000004
31
0
0
LINE
8
roof
10
90250.0
20
29240.000000000004
30
0
11
80250.0
21
29240.000000000004
31
0
0
LINE
8
roof
10
80250.0
20
28640.0
30
0
11
80250.0
21
29240.000000000004
31
0
0
LINE
8
roof
10
90250.0
20
28640.0
30
0
11
80250.0
21
28640.0
31
0
0
LINE
8
glazing
10
82320.0
20
22640.0
30
0
11
82320.0
21
26640.0
31
0
0
LINE
8
glazing
10
82320.0
20
26640.0
30
0
11
82180.0
21
26640.0
31
0
0
LINE
8
glazing
10
82180.0
20
22640.0
30
0
11
82180.0
21
26640.0
31
0
0
LINE
8
glazing
10
82320.0
20
22640.0
30
0
11
82180.0
21
22640.0
31
0
0
LINE
8
roof
10
22250.0
20
28640.0
30
0
11
22250.0
21
29240.000000000004
31
0
0
LINE
8
roof
10
22250.0
20
29240.000000000004
30
0
11
12250.0
21
29240.000000000004
31
0
0
LINE
8
roof
10
12250.0
20
28640.0
30
0
11
12250.0
21
29240.000000000004
31
0
0
LINE
8
roof
10
22250.0
20
28640.0
30
0
11
12250.0
21
28640.0
31
0
0
LINE
8
glazing
10
20320.0
20
22640.0
30
0
11
20320.0
21
26640.0
31
0
0
LINE
8
glazing
10
20320.0
20
26640.0
30
0
11
20180.0
21
26640.0
31
0
0
LINE
8
glazing
10
20180.0
20
22640.0
30
0
11
20180.0
21
26640.0
31
0
0
LINE
8
glazing
10
20320.0
20
22640.0
30
0
11
20180.0
21
22640.0
31
0
0
LINE
8
grid
10
90750.0
20
22640.0
30
0
11
94750.0
21
22640.0
31
0
0
TEXT
8
annotation
10
91187.5
20
22939.999999999996
30
0
40
625.0
1
PODIUM +1.20m
50
0
0
LINE
8
grid
10
90750.0
20
50440.0
30
0
11
94750.0
21
50440.0
31
0
0
TEXT
8
annotation
10
90562.5
20
50739.99999999999
30
0
40
625.0
1
WING RF +29.00m
50
0
0
LINE
8
grid
10
90750.0
20
55440.0
30
0
11
94750.0
21
55440.0
31
0
0
TEXT
8
annotation
10
89937.5
20
55739.99999999999
30
0
40
625.0
1
ATRIUM RF +34.00m
50
0
0
LINE
8
grid
10
90750.0
20
59440.0
30
0
11
94750.0
21
59440.0
31
0
0
TEXT
8
annotation
10
91187.5
20
59740.0
30
0
40
625.0
1
RIDGE +38.00m
50
0
0
LINE
8
dimension
10
12250.0
20
18689.999999999996
30
0
11
90250.0
21
18689.999999999996
31
0
0
LINE
8
dimension
10
12000.0
20
18439.999999999996
30
0
11
12500.0
21
18939.999999999996
31
0
0
LINE
8
dimension
10
90000.0
20
18439.999999999996
30
0
11
90500.0
21
18939.999999999996
31
0
0
TEXT
8
annotation
10
47125.0
20
19064.999999999996
30
0
40
750.0
1
78,000 mm shown extent
50
0
0
LINE
8
frame
10
3500
20
14750
30
0
11
101500
21
14750
31
0
0
TEXT
8
annotation
10
3500
20
12750
30
0
40
875.0
1
CONCEPT DESIGN | IMAGE-INFERRED | NOT FOR CONSTRUCTION
50
0
0
TEXT
8
annotation
10
3500
20
9500.0
30
0
40
662.5
1
Source: two campus AI images + fab1.jpg; official analogues documented in analysis/cad/.
50
0
0
TEXT
8
annotation
10
3500
20
8400.000000000005
30
0
40
662.5
1
CAD model in mm; site coordinates X east, Y north, Z up. Internal layouts and member sizes are design estimates.
50
0
0
TEXT
8
annotation
10
3500
20
7299.999999999997
30
0
40
662.5
1
Plans/sections are extracted from actual FreeCAD BRep. Elevations project component outlines; hidden edges omitted per component.
50
0
0
TEXT
8
annotation
10
3500
20
6200.000000000003
30
0
40
662.5
1
Civic wing roofs and skylight may differ from the nominal building height; inspect actual geometry and parameter aliases.
50
0
0
TEXT
8
annotation
10
3500
20
5099.9999999999945
30
0
40
662.5
1
No process certification, structural verification, measured survey, or construction approval is implied.
50
0
0
TEXT
8
annotation
10
89250.0
20
2750
30
0
40
700.0
1
2026-09-30  |  FreeCAD 1.1.4  |  mm
50
0
0
ENDSEC
0
EOF
