0
SECTION
2
HEADER
9
$ACADVER
1
AC1009
9
$INSUNITS
70
4
0
ENDSEC
0
SECTION
2
ENTITIES
0
LINE
8
frame
10
5250
20
217500
30
0
11
309750
21
217500
31
0
0
LINE
8
frame
10
309750
20
217500
30
0
11
309750
21
5250
31
0
0
LINE
8
frame
10
309750
20
5250
30
0
11
5250
21
5250
31
0
0
LINE
8
frame
10
5250
20
5250
30
0
11
5250
21
217500
31
0
0
TEXT
8
annotation
10
10500
20
209250
30
0
40
3150.0
1
PHOENIX SCIENCE PARK
50
0
0
TEXT
8
annotation
10
10500
20
203250
30
0
40
3750.0
1
HQ / North elevation
50
0
0
TEXT
8
annotation
10
290100.0
20
209250
30
0
40
2400.0
1
A3  |  1:750
50
0
0
TEXT
8
annotation
10
283125.0
20
203250
30
0
40
2250.0
1
CAD-HQ-NORTH  /  R1
50
0
0
LINE
8
frame
10
10500
20
199500
30
0
11
304500
21
199500
31
0
0
LINE
8
glazing
10
188670.0
20
103640.0
30
0
11
188670.0
21
136240.0
31
0
0
LINE
8
glazing
10
185330.0
20
103640.0
30
0
11
185330.0
21
136240.0
31
0
0
LINE
8
glazing
10
188670.0
20
103640.0
30
0
11
185330.0
21
103640.0
31
0
0
LINE
8
glazing
10
188670.0
20
136240.0
30
0
11
185330.0
21
136240.0
31
0
0
LINE
8
glazing
10
185170.0
20
103640.0
30
0
11
185170.0
21
136240.0
31
0
0
LINE
8
glazing
10
181830.0
20
103640.0
30
0
11
181830.0
21
136240.0
31
0
0
LINE
8
glazing
10
185170.0
20
103640.0
30
0
11
181830.0
21
103640.0
31
0
0
LINE
8
glazing
10
185170.0
20
136240.0
30
0
11
181830.0
21
136240.0
31
0
0
LINE
8
glazing
10
181670.0
20
103640.0
30
0
11
181670.0
21
136240.0
31
0
0
LINE
8
glazing
10
178330.0
20
103640.0
30
0
11
178330.0
21
136240.0
31
0
0
LINE
8
glazing
10
181670.0
20
103640.0
30
0
11
178330.0
21
103640.0
31
0
0
LINE
8
glazing
10
181670.0
20
136240.0
30
0
11
178330.0
21
136240.0
31
0
0
LINE
8
glazing
10
178170.0
20
103640.0
30
0
11
178170.0
21
136240.0
31
0
0
LINE
8
glazing
10
174830.0
20
103640.0
30
0
11
174830.0
21
136240.0
31
0
0
LINE
8
glazing
10
178170.0
20
103640.0
30
0
11
174830.0
21
103640.0
31
0
0
LINE
8
glazing
10
178170.0
20
136240.0
30
0
11
174830.0
21
136240.0
31
0
0
LINE
8
glazing
10
174670.0
20
103640.0
30
0
11
174670.0
21
136240.0
31
0
0
LINE
8
glazing
10
171330.0
20
103640.0
30
0
11
171330.0
21
136240.0
31
0
0
LINE
8
glazing
10
174670.0
20
103640.0
30
0
11
171330.0
21
103640.0
31
0
0
LINE
8
glazing
10
174670.0
20
136240.0
30
0
11
171330.0
21
136240.0
31
0
0
LINE
8
glazing
10
171170.0
20
103640.0
30
0
11
171170.0
21
136240.0
31
0
0
LINE
8
glazing
10
167830.0
20
103640.0
30
0
11
167830.0
21
136240.0
31
0
0
LINE
8
glazing
10
171170.0
20
103640.0
30
0
11
167830.0
21
103640.0
31
0
0
LINE
8
glazing
10
171170.0
20
136240.0
30
0
11
167830.0
21
136240.0
31
0
0
LINE
8
glazing
10
167670.0
20
103640.0
30
0
11
167670.0
21
136240.0
31
0
0
LINE
8
glazing
10
164330.0
20
103640.0
30
0
11
164330.0
21
136240.0
31
0
0
LINE
8
glazing
10
167670.0
20
103640.0
30
0
11
164330.0
21
103640.0
31
0
0
LINE
8
glazing
10
167670.0
20
136240.0
30
0
11
164330.0
21
136240.0
31
0
0
LINE
8
glazing
10
164170.0
20
103640.0
30
0
11
164170.0
21
136240.0
31
0
0
LINE
8
glazing
10
160830.0
20
103640.0
30
0
11
160830.0
21
136240.0
31
0
0
LINE
8
glazing
10
164170.0
20
103640.0
30
0
11
160830.0
21
103640.0
31
0
0
LINE
8
glazing
10
164170.0
20
136240.0
30
0
11
160830.0
21
136240.0
31
0
0
LINE
8
glazing
10
160670.0
20
103640.0
30
0
11
160670.0
21
136240.0
31
0
0
LINE
8
glazing
10
157330.0
20
103640.0
30
0
11
157330.0
21
136240.0
31
0
0
LINE
8
glazing
10
160670.0
20
103640.0
30
0
11
157330.0
21
103640.0
31
0
0
LINE
8
glazing
10
160670.0
20
136240.0
30
0
11
157330.0
21
136240.0
31
0
0
LINE
8
glazing
10
157170.0
20
103640.0
30
0
11
157170.0
21
136240.0
31
0
0
LINE
8
glazing
10
153830.0
20
103640.0
30
0
11
153830.0
21
136240.0
31
0
0
LINE
8
glazing
10
157170.0
20
103640.0
30
0
11
153830.0
21
103640.0
31
0
0
LINE
8
glazing
10
157170.0
20
136240.0
30
0
11
153830.0
21
136240.0
31
0
0
LINE
8
glazing
10
153670.0
20
103640.0
30
0
11
153670.0
21
136240.0
31
0
0
LINE
8
glazing
10
150330.0
20
103640.0
30
0
11
150330.0
21
136240.0
31
0
0
LINE
8
glazing
10
153670.0
20
103640.0
30
0
11
150330.0
21
103640.0
31
0
0
LINE
8
glazing
10
153670.0
20
136240.0
30
0
11
150330.0
21
136240.0
31
0
0
LINE
8
glazing
10
150170.0
20
103640.0
30
0
11
150170.0
21
136240.0
31
0
0
LINE
8
glazing
10
146830.0
20
103640.0
30
0
11
146830.0
21
136240.0
31
0
0
LINE
8
glazing
10
150170.0
20
103640.0
30
0
11
146830.0
21
103640.0
31
0
0
LINE
8
glazing
10
150170.0
20
136240.0
30
0
11
146830.0
21
136240.0
31
0
0
LINE
8
glazing
10
146670.0
20
103640.0
30
0
11
146670.0
21
136240.0
31
0
0
LINE
8
glazing
10
143330.0
20
103640.0
30
0
11
143330.0
21
136240.0
31
0
0
LINE
8
glazing
10
146670.0
20
103640.0
30
0
11
143330.0
21
103640.0
31
0
0
LINE
8
glazing
10
146670.0
20
136240.0
30
0
11
143330.0
21
136240.0
31
0
0
LINE
8
glazing
10
143170.0
20
103640.0
30
0
11
143170.0
21
136240.0
31
0
0
LINE
8
glazing
10
139830.0
20
103640.0
30
0
11
139830.0
21
136240.0
31
0
0
LINE
8
glazing
10
143170.0
20
103640.0
30
0
11
139830.0
21
103640.0
31
0
0
LINE
8
glazing
10
143170.0
20
136240.0
30
0
11
139830.0
21
136240.0
31
0
0
LINE
8
glazing
10
139670.0
20
103640.0
30
0
11
139670.0
21
136240.0
31
0
0
LINE
8
glazing
10
136330.0
20
103640.0
30
0
11
136330.0
21
136240.0
31
0
0
LINE
8
glazing
10
139670.0
20
103640.0
30
0
11
136330.0
21
103640.0
31
0
0
LINE
8
glazing
10
139670.0
20
136240.0
30
0
11
136330.0
21
136240.0
31
0
0
LINE
8
glazing
10
136170.0
20
103640.0
30
0
11
136170.0
21
136240.0
31
0
0
LINE
8
glazing
10
132830.0
20
103640.0
30
0
11
132830.0
21
136240.0
31
0
0
LINE
8
glazing
10
136170.0
20
103640.0
30
0
11
132830.0
21
103640.0
31
0
0
LINE
8
glazing
10
136170.0
20
136240.0
30
0
11
132830.0
21
136240.0
31
0
0
LINE
8
glazing
10
132670.0
20
103640.0
30
0
11
132670.0
21
136240.0
31
0
0
LINE
8
glazing
10
129330.0
20
103640.0
30
0
11
129330.0
21
136240.0
31
0
0
LINE
8
glazing
10
132670.0
20
103640.0
30
0
11
129330.0
21
103640.0
31
0
0
LINE
8
glazing
10
132670.0
20
136240.0
30
0
11
129330.0
21
136240.0
31
0
0
LINE
8
glazing
10
129170.0
20
103640.0
30
0
11
129170.0
21
136240.0
31
0
0
LINE
8
glazing
10
125830.0
20
103640.0
30
0
11
125830.0
21
136240.0
31
0
0
LINE
8
glazing
10
129170.0
20
103640.0
30
0
11
125830.0
21
103640.0
31
0
0
LINE
8
glazing
10
129170.0
20
136240.0
30
0
11
125830.0
21
136240.0
31
0
0
LINE
8
glazing
10
125670.0
20
103640.0
30
0
11
125670.0
21
136240.0
31
0
0
LINE
8
glazing
10
122330.00000000001
20
103640.0
30
0
11
122330.00000000001
21
136240.0
31
0
0
LINE
8
glazing
10
125670.0
20
103640.0
30
0
11
122330.00000000001
21
103640.0
31
0
0
LINE
8
glazing
10
125670.0
20
136240.0
30
0
11
122330.00000000001
21
136240.0
31
0
0
LINE
8
glazing
10
122169.99999999999
20
103640.0
30
0
11
122169.99999999999
21
136240.0
31
0
0
LINE
8
glazing
10
118830.0
20
103640.0
30
0
11
118830.0
21
136240.0
31
0
0
LINE
8
glazing
10
122169.99999999999
20
103640.0
30
0
11
118830.0
21
103640.0
31
0
0
LINE
8
glazing
10
122169.99999999999
20
136240.0
30
0
11
118830.0
21
136240.0
31
0
0
LINE
8
envelope
10
188810.0
20
103640.0
30
0
11
188810.0
21
136440.0
31
0
0
LINE
8
envelope
10
188690.0
20
103640.0
30
0
11
188690.0
21
136440.0
31
0
0
LINE
8
envelope
10
188810.0
20
103640.0
30
0
11
188690.0
21
103640.0
31
0
0
LINE
8
envelope
10
188810.0
20
136440.0
30
0
11
188690.0
21
136440.0
31
0
0
LINE
8
envelope
10
185310.0
20
103640.0
30
0
11
185310.0
21
136440.0
31
0
0
LINE
8
envelope
10
185190.0
20
103640.0
30
0
11
185190.0
21
136440.0
31
0
0
LINE
8
envelope
10
185310.0
20
103640.0
30
0
11
185190.0
21
103640.0
31
0
0
LINE
8
envelope
10
185310.0
20
136440.0
30
0
11
185190.0
21
136440.0
31
0
0
LINE
8
envelope
10
181810.0
20
103640.0
30
0
11
181810.0
21
136440.0
31
0
0
LINE
8
envelope
10
181690.0
20
103640.0
30
0
11
181690.0
21
136440.0
31
0
0
LINE
8
envelope
10
181810.0
20
103640.0
30
0
11
181690.0
21
103640.0
31
0
0
LINE
8
envelope
10
181810.0
20
136440.0
30
0
11
181690.0
21
136440.0
31
0
0
LINE
8
envelope
10
178310.0
20
103640.0
30
0
11
178310.0
21
136440.0
31
0
0
LINE
8
envelope
10
178190.0
20
103640.0
30
0
11
178190.0
21
136440.0
31
0
0
LINE
8
envelope
10
178310.0
20
103640.0
30
0
11
178190.0
21
103640.0
31
0
0
LINE
8
envelope
10
178310.0
20
136440.0
30
0
11
178190.0
21
136440.0
31
0
0
LINE
8
envelope
10
174810.0
20
103640.0
30
0
11
174810.0
21
136440.0
31
0
0
LINE
8
envelope
10
174690.0
20
103640.0
30
0
11
174690.0
21
136440.0
31
0
0
LINE
8
envelope
10
174810.0
20
103640.0
30
0
11
174690.0
21
103640.0
31
0
0
LINE
8
envelope
10
174810.0
20
136440.0
30
0
11
174690.0
21
136440.0
31
0
0
LINE
8
envelope
10
171310.0
20
103640.0
30
0
11
171310.0
21
136440.0
31
0
0
LINE
8
envelope
10
171190.0
20
103640.0
30
0
11
171190.0
21
136440.0
31
0
0
LINE
8
envelope
10
171310.0
20
103640.0
30
0
11
171190.0
21
103640.0
31
0
0
LINE
8
envelope
10
171310.0
20
136440.0
30
0
11
171190.0
21
136440.0
31
0
0
LINE
8
envelope
10
167810.0
20
103640.0
30
0
11
167810.0
21
136440.0
31
0
0
LINE
8
envelope
10
167690.0
20
103640.0
30
0
11
167690.0
21
136440.0
31
0
0
LINE
8
envelope
10
167810.0
20
103640.0
30
0
11
167690.0
21
103640.0
31
0
0
LINE
8
envelope
10
167810.0
20
136440.0
30
0
11
167690.0
21
136440.0
31
0
0
LINE
8
envelope
10
164310.0
20
103640.0
30
0
11
164310.0
21
136440.0
31
0
0
LINE
8
envelope
10
164190.0
20
103640.0
30
0
11
164190.0
21
136440.0
31
0
0
LINE
8
envelope
10
164310.0
20
103640.0
30
0
11
164190.0
21
103640.0
31
0
0
LINE
8
envelope
10
164310.0
20
136440.0
30
0
11
164190.0
21
136440.0
31
0
0
LINE
8
envelope
10
160810.0
20
103640.0
30
0
11
160810.0
21
136440.0
31
0
0
LINE
8
envelope
10
160690.0
20
103640.0
30
0
11
160690.0
21
136440.0
31
0
0
LINE
8
envelope
10
160810.0
20
103640.0
30
0
11
160690.0
21
103640.0
31
0
0
LINE
8
envelope
10
160810.0
20
136440.0
30
0
11
160690.0
21
136440.0
31
0
0
LINE
8
envelope
10
157310.0
20
103640.0
30
0
11
157310.0
21
136440.0
31
0
0
LINE
8
envelope
10
157190.0
20
103640.0
30
0
11
157190.0
21
136440.0
31
0
0
LINE
8
envelope
10
157310.0
20
103640.0
30
0
11
157190.0
21
103640.0
31
0
0
LINE
8
envelope
10
157310.0
20
136440.0
30
0
11
157190.0
21
136440.0
31
0
0
LINE
8
envelope
10
153810.0
20
103640.0
30
0
11
153810.0
21
136440.0
31
0
0
LINE
8
envelope
10
153690.0
20
103640.0
30
0
11
153690.0
21
136440.0
31
0
0
LINE
8
envelope
10
153810.0
20
103640.0
30
0
11
153690.0
21
103640.0
31
0
0
LINE
8
envelope
10
153810.0
20
136440.0
30
0
11
153690.0
21
136440.0
31
0
0
LINE
8
envelope
10
150310.0
20
103640.0
30
0
11
150310.0
21
136440.0
31
0
0
LINE
8
envelope
10
150190.0
20
103640.0
30
0
11
150190.0
21
136440.0
31
0
0
LINE
8
envelope
10
150310.0
20
103640.0
30
0
11
150190.0
21
103640.0
31
0
0
LINE
8
envelope
10
150310.0
20
136440.0
30
0
11
150190.0
21
136440.0
31
0
0
LINE
8
envelope
10
146810.0
20
103640.0
30
0
11
146810.0
21
136440.0
31
0
0
LINE
8
envelope
10
146690.0
20
103640.0
30
0
11
146690.0
21
136440.0
31
0
0
LINE
8
envelope
10
146810.0
20
103640.0
30
0
11
146690.0
21
103640.0
31
0
0
LINE
8
envelope
10
146810.0
20
136440.0
30
0
11
146690.0
21
136440.0
31
0
0
LINE
8
envelope
10
143310.0
20
103640.0
30
0
11
143310.0
21
136440.0
31
0
0
LINE
8
envelope
10
143190.0
20
103640.0
30
0
11
143190.0
21
136440.0
31
0
0
LINE
8
envelope
10
143310.0
20
103640.0
30
0
11
143190.0
21
103640.0
31
0
0
LINE
8
envelope
10
143310.0
20
136440.0
30
0
11
143190.0
21
136440.0
31
0
0
LINE
8
envelope
10
139810.0
20
103640.0
30
0
11
139810.0
21
136440.0
31
0
0
LINE
8
envelope
10
139690.0
20
103640.0
30
0
11
139690.0
21
136440.0
31
0
0
LINE
8
envelope
10
139810.0
20
103640.0
30
0
11
139690.0
21
103640.0
31
0
0
LINE
8
envelope
10
139810.0
20
136440.0
30
0
11
139690.0
21
136440.0
31
0
0
LINE
8
envelope
10
136310.0
20
103640.0
30
0
11
136310.0
21
136440.0
31
0
0
LINE
8
envelope
10
136190.0
20
103640.0
30
0
11
136190.0
21
136440.0
31
0
0
LINE
8
envelope
10
136310.0
20
103640.0
30
0
11
136190.0
21
103640.0
31
0
0
LINE
8
envelope
10
136310.0
20
136440.0
30
0
11
136190.0
21
136440.0
31
0
0
LINE
8
envelope
10
132810.0
20
103640.0
30
0
11
132810.0
21
136440.0
31
0
0
LINE
8
envelope
10
132690.0
20
103640.0
30
0
11
132690.0
21
136440.0
31
0
0
LINE
8
envelope
10
132810.0
20
103640.0
30
0
11
132690.0
21
103640.0
31
0
0
LINE
8
envelope
10
132810.0
20
136440.0
30
0
11
132690.0
21
136440.0
31
0
0
LINE
8
envelope
10
129310.0
20
103640.0
30
0
11
129310.0
21
136440.0
31
0
0
LINE
8
envelope
10
129190.0
20
103640.0
30
0
11
129190.0
21
136440.0
31
0
0
LINE
8
envelope
10
129310.0
20
103640.0
30
0
11
129190.0
21
103640.0
31
0
0
LINE
8
envelope
10
129310.0
20
136440.0
30
0
11
129190.0
21
136440.0
31
0
0
LINE
8
envelope
10
125810.0
20
103640.0
30
0
11
125810.0
21
136440.0
31
0
0
LINE
8
envelope
10
125690.0
20
103640.0
30
0
11
125690.0
21
136440.0
31
0
0
LINE
8
envelope
10
125810.0
20
103640.0
30
0
11
125690.0
21
103640.0
31
0
0
LINE
8
envelope
10
125810.0
20
136440.0
30
0
11
125690.0
21
136440.0
31
0
0
LINE
8
envelope
10
122309.99999999999
20
103640.0
30
0
11
122309.99999999999
21
136440.0
31
0
0
LINE
8
envelope
10
122190.00000000001
20
103640.0
30
0
11
122190.00000000001
21
136440.0
31
0
0
LINE
8
envelope
10
122309.99999999999
20
103640.0
30
0
11
122190.00000000001
21
103640.0
31
0
0
LINE
8
envelope
10
122309.99999999999
20
136440.0
30
0
11
122190.00000000001
21
136440.0
31
0
0
LINE
8
envelope
10
118810.0
20
103640.0
30
0
11
118810.0
21
136440.0
31
0
0
LINE
8
envelope
10
118690.0
20
103640.0
30
0
11
118690.0
21
136440.0
31
0
0
LINE
8
envelope
10
118810.0
20
103640.0
30
0
11
118690.0
21
103640.0
31
0
0
LINE
8
envelope
10
118810.0
20
136440.0
30
0
11
118690.0
21
136440.0
31
0
0
LINE
8
envelope
10
188750.0
20
103640.0
30
0
11
188750.0
21
103780.0
31
0
0
LINE
8
envelope
10
118750.0
20
103640.0
30
0
11
118750.0
21
103780.0
31
0
0
LINE
8
envelope
10
188750.0
20
103640.0
30
0
11
118750.0
21
103640.0
31
0
0
LINE
8
envelope
10
188750.0
20
103780.0
30
0
11
118750.0
21
103780.0
31
0
0
LINE
8
envelope
10
188750.0
20
111840.0
30
0
11
188750.0
21
111980.0
31
0
0
LINE
8
envelope
10
118750.0
20
111840.0
30
0
11
118750.0
21
111980.0
31
0
0
LINE
8
envelope
10
188750.0
20
111840.0
30
0
11
118750.0
21
111840.0
31
0
0
LINE
8
envelope
10
188750.0
20
111980.0
30
0
11
118750.0
21
111980.0
31
0
0
LINE
8
envelope
10
188750.0
20
120040.0
30
0
11
188750.0
21
120180.0
31
0
0
LINE
8
envelope
10
118750.0
20
120040.0
30
0
11
118750.0
21
120180.0
31
0
0
LINE
8
envelope
10
188750.0
20
120040.0
30
0
11
118750.0
21
120040.0
31
0
0
LINE
8
envelope
10
188750.0
20
120180.0
30
0
11
118750.0
21
120180.0
31
0
0
LINE
8
envelope
10
188750.0
20
128240.00000000001
30
0
11
188750.0
21
128380.00000000001
31
0
0
LINE
8
envelope
10
118750.0
20
128240.00000000001
30
0
11
118750.0
21
128380.00000000001
31
0
0
LINE
8
envelope
10
188750.0
20
128240.00000000001
30
0
11
118750.0
21
128240.00000000001
31
0
0
LINE
8
envelope
10
188750.0
20
128380.00000000001
30
0
11
118750.0
21
128380.00000000001
31
0
0
LINE
8
envelope
10
188750.0
20
136440.0
30
0
11
188750.0
21
136580.0
31
0
0
LINE
8
envelope
10
118750.0
20
136440.0
30
0
11
118750.0
21
136580.0
31
0
0
LINE
8
envelope
10
188750.0
20
136440.0
30
0
11
118750.0
21
136440.0
31
0
0
LINE
8
envelope
10
188750.0
20
136580.0
30
0
11
118750.0
21
136580.0
31
0
0
LINE
8
envelope
10
188900.0
20
103640.0
30
0
11
188900.0
21
136440.0
31
0
0
LINE
8
envelope
10
188600.0
20
103640.0
30
0
11
188600.0
21
136440.0
31
0
0
LINE
8
envelope
10
188900.0
20
103640.0
30
0
11
188600.0
21
103640.0
31
0
0
LINE
8
envelope
10
188900.0
20
136440.0
30
0
11
188600.0
21
136440.0
31
0
0
LINE
8
envelope
10
118900.0
20
103640.0
30
0
11
118900.0
21
136440.0
31
0
0
LINE
8
envelope
10
118600.0
20
103640.0
30
0
11
118600.0
21
136440.0
31
0
0
LINE
8
envelope
10
118900.0
20
103640.0
30
0
11
118600.0
21
103640.0
31
0
0
LINE
8
envelope
10
118900.0
20
136440.0
30
0
11
118600.0
21
136440.0
31
0
0
LINE
8
roof
10
189250.0
20
136440.0
30
0
11
189250.0
21
137040.0
31
0
0
LINE
8
roof
10
118250.0
20
136440.0
30
0
11
118250.0
21
137040.0
31
0
0
LINE
8
roof
10
189250.0
20
136440.0
30
0
11
118250.0
21
136440.0
31
0
0
LINE
8
roof
10
189250.0
20
137040.0
30
0
11
118250.0
21
137040.0
31
0
0
LINE
8
glazing
10
239170.0
20
103640.0
30
0
11
239170.0
21
131240.0
31
0
0
LINE
8
glazing
10
235746.66999999998
20
103640.0
30
0
11
235746.66999999998
21
131240.0
31
0
0
LINE
8
glazing
10
239170.0
20
103640.0
30
0
11
235746.66999999998
21
103640.0
31
0
0
LINE
8
glazing
10
239170.0
20
131240.0
30
0
11
235746.66999999998
21
131240.0
31
0
0
LINE
8
glazing
10
235586.67
20
103640.0
30
0
11
235586.67
21
131240.0
31
0
0
LINE
8
glazing
10
232163.33000000002
20
103640.0
30
0
11
232163.33000000002
21
131240.0
31
0
0
LINE
8
glazing
10
235586.67
20
103640.0
30
0
11
232163.33000000002
21
103640.0
31
0
0
LINE
8
glazing
10
235586.67
20
131240.0
30
0
11
232163.33000000002
21
131240.0
31
0
0
LINE
8
glazing
10
232003.33
20
103640.0
30
0
11
232003.33
21
131240.0
31
0
0
LINE
8
glazing
10
228579.99999999997
20
103640.0
30
0
11
228579.99999999997
21
131240.0
31
0
0
LINE
8
glazing
10
232003.33
20
103640.0
30
0
11
228579.99999999997
21
103640.0
31
0
0
LINE
8
glazing
10
232003.33
20
131240.0
30
0
11
228579.99999999997
21
131240.0
31
0
0
LINE
8
glazing
10
228420.0
20
103640.0
30
0
11
228420.0
21
131240.0
31
0
0
LINE
8
glazing
10
224996.67
20
103640.0
30
0
11
224996.67
21
131240.0
31
0
0
LINE
8
glazing
10
228420.0
20
103640.0
30
0
11
224996.67
21
103640.0
31
0
0
LINE
8
glazing
10
228420.0
20
131240.0
30
0
11
224996.67
21
131240.0
31
0
0
LINE
8
glazing
10
224836.66999999998
20
103640.0
30
0
11
224836.66999999998
21
131240.0
31
0
0
LINE
8
glazing
10
221413.33000000002
20
103640.0
30
0
11
221413.33000000002
21
131240.0
31
0
0
LINE
8
glazing
10
224836.66999999998
20
103640.0
30
0
11
221413.33000000002
21
103640.0
31
0
0
LINE
8
glazing
10
224836.66999999998
20
131240.0
30
0
11
221413.33000000002
21
131240.0
31
0
0
LINE
8
glazing
10
221253.33
20
103640.0
30
0
11
221253.33
21
131240.0
31
0
0
LINE
8
glazing
10
217830.0
20
103640.0
30
0
11
217830.0
21
131240.0
31
0
0
LINE
8
glazing
10
221253.33
20
103640.0
30
0
11
217830.0
21
103640.0
31
0
0
LINE
8
glazing
10
221253.33
20
131240.0
30
0
11
217830.0
21
131240.0
31
0
0
LINE
8
glazing
10
217670.00000000003
20
103640.0
30
0
11
217670.00000000003
21
131240.0
31
0
0
LINE
8
glazing
10
214246.67
20
103640.0
30
0
11
214246.67
21
131240.0
31
0
0
LINE
8
glazing
10
217670.00000000003
20
103640.0
30
0
11
214246.67
21
103640.0
31
0
0
LINE
8
glazing
10
217670.00000000003
20
131240.0
30
0
11
214246.67
21
131240.0
31
0
0
LINE
8
glazing
10
214086.66999999998
20
103640.0
30
0
11
214086.66999999998
21
131240.0
31
0
0
LINE
8
glazing
10
210663.33
20
103640.0
30
0
11
210663.33
21
131240.0
31
0
0
LINE
8
glazing
10
214086.66999999998
20
103640.0
30
0
11
210663.33
21
103640.0
31
0
0
LINE
8
glazing
10
214086.66999999998
20
131240.0
30
0
11
210663.33
21
131240.0
31
0
0
LINE
8
glazing
10
210503.33000000002
20
103640.0
30
0
11
210503.33000000002
21
131240.0
31
0
0
LINE
8
glazing
10
207080.0
20
103640.0
30
0
11
207080.0
21
131240.0
31
0
0
LINE
8
glazing
10
210503.33000000002
20
103640.0
30
0
11
207080.0
21
103640.0
31
0
0
LINE
8
glazing
10
210503.33000000002
20
131240.0
30
0
11
207080.0
21
131240.0
31
0
0
LINE
8
glazing
10
206920.0
20
103640.0
30
0
11
206920.0
21
131240.0
31
0
0
LINE
8
glazing
10
203496.66999999998
20
103640.0
30
0
11
203496.66999999998
21
131240.0
31
0
0
LINE
8
glazing
10
206920.0
20
103640.0
30
0
11
203496.66999999998
21
103640.0
31
0
0
LINE
8
glazing
10
206920.0
20
131240.0
30
0
11
203496.66999999998
21
131240.0
31
0
0
LINE
8
glazing
10
203336.67
20
103640.0
30
0
11
203336.67
21
131240.0
31
0
0
LINE
8
glazing
10
199913.33000000002
20
103640.0
30
0
11
199913.33000000002
21
131240.0
31
0
0
LINE
8
glazing
10
203336.67
20
103640.0
30
0
11
199913.33000000002
21
103640.0
31
0
0
LINE
8
glazing
10
203336.67
20
131240.0
30
0
11
199913.33000000002
21
131240.0
31
0
0
LINE
8
glazing
10
199753.33000000002
20
103640.0
30
0
11
199753.33000000002
21
131240.0
31
0
0
LINE
8
glazing
10
196329.99999999997
20
103640.0
30
0
11
196329.99999999997
21
131240.0
31
0
0
LINE
8
glazing
10
199753.33000000002
20
103640.0
30
0
11
196329.99999999997
21
103640.0
31
0
0
LINE
8
glazing
10
199753.33000000002
20
131240.0
30
0
11
196329.99999999997
21
131240.0
31
0
0
LINE
8
envelope
10
239310.0
20
103640.0
30
0
11
239310.0
21
131440.0
31
0
0
LINE
8
envelope
10
239190.0
20
103640.0
30
0
11
239190.0
21
131440.0
31
0
0
LINE
8
envelope
10
239310.0
20
103640.0
30
0
11
239190.0
21
103640.0
31
0
0
LINE
8
envelope
10
239310.0
20
131440.0
30
0
11
239190.0
21
131440.0
31
0
0
LINE
8
envelope
10
235726.67
20
103640.0
30
0
11
235726.67
21
131440.0
31
0
0
LINE
8
envelope
10
235606.66999999998
20
103640.0
30
0
11
235606.66999999998
21
131440.0
31
0
0
LINE
8
envelope
10
235726.67
20
103640.0
30
0
11
235606.66999999998
21
103640.0
31
0
0
LINE
8
envelope
10
235726.67
20
131440.0
30
0
11
235606.66999999998
21
131440.0
31
0
0
LINE
8
envelope
10
232143.33000000002
20
103640.0
30
0
11
232143.33000000002
21
131440.0
31
0
0
LINE
8
envelope
10
232023.33
20
103640.0
30
0
11
232023.33
21
131440.0
31
0
0
LINE
8
envelope
10
232143.33000000002
20
103640.0
30
0
11
232023.33
21
103640.0
31
0
0
LINE
8
envelope
10
232143.33000000002
20
131440.0
30
0
11
232023.33
21
131440.0
31
0
0
LINE
8
envelope
10
228560.0
20
103640.0
30
0
11
228560.0
21
131440.0
31
0
0
LINE
8
envelope
10
228440.00000000003
20
103640.0
30
0
11
228440.00000000003
21
131440.0
31
0
0
LINE
8
envelope
10
228560.0
20
103640.0
30
0
11
228440.00000000003
21
103640.0
31
0
0
LINE
8
envelope
10
228560.0
20
131440.0
30
0
11
228440.00000000003
21
131440.0
31
0
0
LINE
8
envelope
10
224976.66999999998
20
103640.0
30
0
11
224976.66999999998
21
131440.0
31
0
0
LINE
8
envelope
10
224856.67
20
103640.0
30
0
11
224856.67
21
131440.0
31
0
0
LINE
8
envelope
10
224976.66999999998
20
103640.0
30
0
11
224856.67
21
103640.0
31
0
0
LINE
8
envelope
10
224976.66999999998
20
131440.0
30
0
11
224856.67
21
131440.0
31
0
0
LINE
8
envelope
10
221393.33
20
103640.0
30
0
11
221393.33
21
131440.0
31
0
0
LINE
8
envelope
10
221273.33000000002
20
103640.0
30
0
11
221273.33000000002
21
131440.0
31
0
0
LINE
8
envelope
10
221393.33
20
103640.0
30
0
11
221273.33000000002
21
103640.0
31
0
0
LINE
8
envelope
10
221393.33
20
131440.0
30
0
11
221273.33000000002
21
131440.0
31
0
0
LINE
8
envelope
10
217809.99999999997
20
103640.0
30
0
11
217809.99999999997
21
131440.0
31
0
0
LINE
8
envelope
10
217690.0
20
103640.0
30
0
11
217690.0
21
131440.0
31
0
0
LINE
8
envelope
10
217809.99999999997
20
103640.0
30
0
11
217690.0
21
103640.0
31
0
0
LINE
8
envelope
10
217809.99999999997
20
131440.0
30
0
11
217690.0
21
131440.0
31
0
0
LINE
8
envelope
10
214226.67
20
103640.0
30
0
11
214226.67
21
131440.0
31
0
0
LINE
8
envelope
10
214106.66999999998
20
103640.0
30
0
11
214106.66999999998
21
131440.0
31
0
0
LINE
8
envelope
10
214226.67
20
103640.0
30
0
11
214106.66999999998
21
103640.0
31
0
0
LINE
8
envelope
10
214226.67
20
131440.0
30
0
11
214106.66999999998
21
131440.0
31
0
0
LINE
8
envelope
10
210643.33000000002
20
103640.0
30
0
11
210643.33000000002
21
131440.0
31
0
0
LINE
8
envelope
10
210523.33
20
103640.0
30
0
11
210523.33
21
131440.0
31
0
0
LINE
8
envelope
10
210643.33000000002
20
103640.0
30
0
11
210523.33
21
103640.0
31
0
0
LINE
8
envelope
10
210643.33000000002
20
131440.0
30
0
11
210523.33
21
131440.0
31
0
0
LINE
8
envelope
10
207060.0
20
103640.0
30
0
11
207060.0
21
131440.0
31
0
0
LINE
8
envelope
10
206940.0
20
103640.0
30
0
11
206940.0
21
131440.0
31
0
0
LINE
8
envelope
10
207060.0
20
103640.0
30
0
11
206940.0
21
103640.0
31
0
0
LINE
8
envelope
10
207060.0
20
131440.0
30
0
11
206940.0
21
131440.0
31
0
0
LINE
8
envelope
10
203476.67
20
103640.0
30
0
11
203476.67
21
131440.0
31
0
0
LINE
8
envelope
10
203356.66999999998
20
103640.0
30
0
11
203356.66999999998
21
131440.0
31
0
0
LINE
8
envelope
10
203476.67
20
103640.0
30
0
11
203356.66999999998
21
103640.0
31
0
0
LINE
8
envelope
10
203476.67
20
131440.0
30
0
11
203356.66999999998
21
131440.0
31
0
0
LINE
8
envelope
10
199893.33000000002
20
103640.0
30
0
11
199893.33000000002
21
131440.0
31
0
0
LINE
8
envelope
10
199773.33
20
103640.0
30
0
11
199773.33
21
131440.0
31
0
0
LINE
8
envelope
10
199893.33000000002
20
103640.0
30
0
11
199773.33
21
103640.0
31
0
0
LINE
8
envelope
10
199893.33000000002
20
131440.0
30
0
11
199773.33
21
131440.0
31
0
0
LINE
8
envelope
10
196310.0
20
103640.0
30
0
11
196310.0
21
131440.0
31
0
0
LINE
8
envelope
10
196189.99999999997
20
103640.0
30
0
11
196189.99999999997
21
131440.0
31
0
0
LINE
8
envelope
10
196310.0
20
103640.0
30
0
11
196189.99999999997
21
103640.0
31
0
0
LINE
8
envelope
10
196310.0
20
131440.0
30
0
11
196189.99999999997
21
131440.0
31
0
0
LINE
8
envelope
10
239250.0
20
103640.0
30
0
11
239250.0
21
103780.0
31
0
0
LINE
8
envelope
10
196250.0
20
103640.0
30
0
11
196250.0
21
103780.0
31
0
0
LINE
8
envelope
10
239250.0
20
103640.0
30
0
11
196250.0
21
103640.0
31
0
0
LINE
8
envelope
10
239250.0
20
103780.0
30
0
11
196250.0
21
103780.0
31
0
0
LINE
8
envelope
10
239250.0
20
110589.99999999999
30
0
11
239250.0
21
110729.99999999999
31
0
0
LINE
8
envelope
10
196250.0
20
110589.99999999999
30
0
11
196250.0
21
110729.99999999999
31
0
0
LINE
8
envelope
10
239250.0
20
110589.99999999999
30
0
11
196250.0
21
110589.99999999999
31
0
0
LINE
8
envelope
10
239250.0
20
110729.99999999999
30
0
11
196250.0
21
110729.99999999999
31
0
0
LINE
8
envelope
10
239250.0
20
117540.0
30
0
11
239250.0
21
117680.0
31
0
0
LINE
8
envelope
10
196250.0
20
117540.0
30
0
11
196250.0
21
117680.0
31
0
0
LINE
8
envelope
10
239250.0
20
117540.0
30
0
11
196250.0
21
117540.0
31
0
0
LINE
8
envelope
10
239250.0
20
117680.0
30
0
11
196250.0
21
117680.0
31
0
0
LINE
8
envelope
10
239250.0
20
124490.00000000001
30
0
11
239250.0
21
124630.00000000001
31
0
0
LINE
8
envelope
10
196250.0
20
124490.00000000001
30
0
11
196250.0
21
124630.00000000001
31
0
0
LINE
8
envelope
10
239250.0
20
124490.00000000001
30
0
11
196250.0
21
124490.00000000001
31
0
0
LINE
8
envelope
10
239250.0
20
124630.00000000001
30
0
11
196250.0
21
124630.00000000001
31
0
0
LINE
8
envelope
10
239250.0
20
131440.0
30
0
11
239250.0
21
131580.0
31
0
0
LINE
8
envelope
10
196250.0
20
131440.0
30
0
11
196250.0
21
131580.0
31
0
0
LINE
8
envelope
10
239250.0
20
131440.0
30
0
11
196250.0
21
131440.0
31
0
0
LINE
8
envelope
10
239250.0
20
131580.0
30
0
11
196250.0
21
131580.0
31
0
0
LINE
8
envelope
10
239400.0
20
103640.0
30
0
11
239400.0
21
131440.0
31
0
0
LINE
8
envelope
10
239100.0
20
103640.0
30
0
11
239100.0
21
131440.0
31
0
0
LINE
8
envelope
10
239400.0
20
103640.0
30
0
11
239100.0
21
103640.0
31
0
0
LINE
8
envelope
10
239400.0
20
131440.0
30
0
11
239100.0
21
131440.0
31
0
0
LINE
8
envelope
10
196400.0
20
103640.0
30
0
11
196400.0
21
131440.0
31
0
0
LINE
8
envelope
10
196100.00000000003
20
103640.0
30
0
11
196100.00000000003
21
131440.0
31
0
0
LINE
8
envelope
10
196400.0
20
103640.0
30
0
11
196100.00000000003
21
103640.0
31
0
0
LINE
8
envelope
10
196400.0
20
131440.0
30
0
11
196100.00000000003
21
131440.0
31
0
0
LINE
8
roof
10
239750.0
20
131440.0
30
0
11
239750.0
21
132040.0
31
0
0
LINE
8
roof
10
195750.0
20
131440.0
30
0
11
195750.0
21
132040.0
31
0
0
LINE
8
roof
10
239750.0
20
131440.0
30
0
11
195750.0
21
131440.0
31
0
0
LINE
8
roof
10
239750.0
20
132040.0
30
0
11
195750.0
21
132040.0
31
0
0
LINE
8
equipment
10
230649.99999999997
20
132040.0
30
0
11
230649.99999999997
21
132540.0
31
0
0
LINE
8
equipment
10
222850.0
20
132040.0
30
0
11
222850.0
21
132540.0
31
0
0
LINE
8
equipment
10
230649.99999999997
20
132040.0
30
0
11
222850.0
21
132040.0
31
0
0
LINE
8
equipment
10
230649.99999999997
20
132540.0
30
0
11
222850.0
21
132540.0
31
0
0
LINE
8
equipment
10
230250.0
20
132540.0
30
0
11
230250.0
21
135840.0
31
0
0
LINE
8
equipment
10
223250.0
20
132540.0
30
0
11
223250.0
21
135840.0
31
0
0
LINE
8
equipment
10
230250.0
20
135840.0
30
0
11
223250.0
21
135840.0
31
0
0
LINE
8
equipment
10
229850.00000000003
20
132940.0
30
0
11
229850.00000000003
21
135240.0
31
0
0
LINE
8
equipment
10
228050.0
20
132940.0
30
0
11
228050.0
21
135240.0
31
0
0
LINE
8
equipment
10
229850.00000000003
20
132940.0
30
0
11
228050.0
21
132940.0
31
0
0
LINE
8
equipment
10
229850.00000000003
20
135240.0
30
0
11
228050.0
21
135240.0
31
0
0
LINE
8
equipment
10
227290.0
20
136140.0
30
0
11
227315.07
21
136140.0
31
0
0
LINE
8
equipment
10
227315.07
20
136140.0
30
0
11
227389.03000000003
21
136140.0
31
0
0
LINE
8
equipment
10
227389.03000000003
20
136140.0
30
0
11
227508.16999999998
21
136140.0
31
0
0
LINE
8
equipment
10
227508.16999999998
20
136140.0
30
0
11
227666.50999999998
21
136140.0
31
0
0
LINE
8
equipment
10
227666.50999999998
20
136140.0
30
0
11
227856.12
21
136140.0
31
0
0
LINE
8
equipment
10
227856.12
20
136140.0
30
0
11
228067.47999999998
21
136140.0
31
0
0
LINE
8
equipment
10
228067.47999999998
20
136140.0
30
0
11
228290.0
21
136140.0
31
0
0
LINE
8
equipment
10
228290.0
20
136140.0
30
0
11
228512.52
21
136140.0
31
0
0
LINE
8
equipment
10
228512.52
20
136140.0
30
0
11
228723.88
21
136140.0
31
0
0
LINE
8
equipment
10
228723.88
20
136140.0
30
0
11
228913.49
21
136140.0
31
0
0
LINE
8
equipment
10
228913.49
20
136140.0
30
0
11
229071.83
21
136140.0
31
0
0
LINE
8
equipment
10
229071.83
20
136140.0
30
0
11
229190.97
21
136140.0
31
0
0
LINE
8
equipment
10
229190.97
20
136140.0
30
0
11
229264.93
21
136140.0
31
0
0
LINE
8
equipment
10
229264.93
20
136140.0
30
0
11
229290.00000000003
21
136140.0
31
0
0
LINE
8
equipment
10
227649.99999999997
20
132940.0
30
0
11
227649.99999999997
21
135240.0
31
0
0
LINE
8
equipment
10
225850.0
20
132940.0
30
0
11
225850.0
21
135240.0
31
0
0
LINE
8
equipment
10
227649.99999999997
20
132940.0
30
0
11
225850.0
21
132940.0
31
0
0
LINE
8
equipment
10
227649.99999999997
20
135240.0
30
0
11
225850.0
21
135240.0
31
0
0
LINE
8
equipment
10
225750.0
20
136140.0
30
0
11
225775.07
21
136140.0
31
0
0
LINE
8
equipment
10
225775.07
20
136140.0
30
0
11
225849.03
21
136140.0
31
0
0
LINE
8
equipment
10
225849.03
20
136140.0
30
0
11
225968.16999999998
21
136140.0
31
0
0
LINE
8
equipment
10
225968.16999999998
20
136140.0
30
0
11
226126.50999999998
21
136140.0
31
0
0
LINE
8
equipment
10
226126.50999999998
20
136140.0
30
0
11
226316.12
21
136140.0
31
0
0
LINE
8
equipment
10
226316.12
20
136140.0
30
0
11
226527.47999999998
21
136140.0
31
0
0
LINE
8
equipment
10
226527.47999999998
20
136140.0
30
0
11
226750.0
21
136140.0
31
0
0
LINE
8
equipment
10
226750.0
20
136140.0
30
0
11
226972.52
21
136140.0
31
0
0
LINE
8
equipment
10
226972.52
20
136140.0
30
0
11
227183.87999999998
21
136140.0
31
0
0
LINE
8
equipment
10
227183.87999999998
20
136140.0
30
0
11
227373.49
21
136140.0
31
0
0
LINE
8
equipment
10
227373.49
20
136140.0
30
0
11
227531.83
21
136140.0
31
0
0
LINE
8
equipment
10
227531.83
20
136140.0
30
0
11
227650.97
21
136140.0
31
0
0
LINE
8
equipment
10
227650.97
20
136140.0
30
0
11
227724.93
21
136140.0
31
0
0
LINE
8
equipment
10
227724.93
20
136140.0
30
0
11
227750.0
21
136140.0
31
0
0
LINE
8
equipment
10
225450.00000000003
20
132940.0
30
0
11
225450.00000000003
21
135240.0
31
0
0
LINE
8
equipment
10
223650.0
20
132940.0
30
0
11
223650.0
21
135240.0
31
0
0
LINE
8
equipment
10
225450.00000000003
20
132940.0
30
0
11
223650.0
21
132940.0
31
0
0
LINE
8
equipment
10
225450.00000000003
20
135240.0
30
0
11
223650.0
21
135240.0
31
0
0
LINE
8
equipment
10
224210.0
20
136140.0
30
0
11
224235.07
21
136140.0
31
0
0
LINE
8
equipment
10
224235.07
20
136140.0
30
0
11
224309.03
21
136140.0
31
0
0
LINE
8
equipment
10
224309.03
20
136140.0
30
0
11
224428.17
21
136140.0
31
0
0
LINE
8
equipment
10
224428.17
20
136140.0
30
0
11
224586.50999999998
21
136140.0
31
0
0
LINE
8
equipment
10
224586.50999999998
20
136140.0
30
0
11
224776.12000000002
21
136140.0
31
0
0
LINE
8
equipment
10
224776.12000000002
20
136140.0
30
0
11
224987.47999999998
21
136140.0
31
0
0
LINE
8
equipment
10
224987.47999999998
20
136140.0
30
0
11
225209.99999999997
21
136140.0
31
0
0
LINE
8
equipment
10
225209.99999999997
20
136140.0
30
0
11
225432.52
21
136140.0
31
0
0
LINE
8
equipment
10
225432.52
20
136140.0
30
0
11
225643.88000000003
21
136140.0
31
0
0
LINE
8
equipment
10
225643.88000000003
20
136140.0
30
0
11
225833.49
21
136140.0
31
0
0
LINE
8
equipment
10
225833.49
20
136140.0
30
0
11
225991.83000000002
21
136140.0
31
0
0
LINE
8
equipment
10
225991.83000000002
20
136140.0
30
0
11
226110.97
21
136140.0
31
0
0
LINE
8
equipment
10
226110.97
20
136140.0
30
0
11
226184.93
21
136140.0
31
0
0
LINE
8
equipment
10
226184.93
20
136140.0
30
0
11
226210.0
21
136140.0
31
0
0
LINE
8
equipment
10
224210.0
20
135840.0
30
0
11
224210.0
21
136140.0
31
0
0
LINE
8
equipment
10
230050.0
20
132840.0
30
0
11
230050.0
21
132920.0
31
0
0
LINE
8
equipment
10
223450.0
20
132840.0
30
0
11
223450.0
21
132920.0
31
0
0
LINE
8
equipment
10
230050.0
20
132840.0
30
0
11
223450.0
21
132840.0
31
0
0
LINE
8
equipment
10
230050.0
20
132920.0
30
0
11
223450.0
21
132920.0
31
0
0
LINE
8
equipment
10
230050.0
20
133090.0
30
0
11
230050.0
21
133170.0
31
0
0
LINE
8
equipment
10
223450.0
20
133090.0
30
0
11
223450.0
21
133170.0
31
0
0
LINE
8
equipment
10
230050.0
20
133090.0
30
0
11
229850.00000000003
21
133090.0
31
0
0
LINE
8
equipment
10
228050.0
20
133090.0
30
0
11
227649.99999999997
21
133090.0
31
0
0
LINE
8
equipment
10
225850.0
20
133090.0
30
0
11
225450.00000000003
21
133090.0
31
0
0
LINE
8
equipment
10
223650.0
20
133090.0
30
0
11
223450.0
21
133090.0
31
0
0
LINE
8
equipment
10
230050.0
20
133170.0
30
0
11
229850.00000000003
21
133170.0
31
0
0
LINE
8
equipment
10
228050.0
20
133170.0
30
0
11
227649.99999999997
21
133170.0
31
0
0
LINE
8
equipment
10
225850.0
20
133170.0
30
0
11
225450.00000000003
21
133170.0
31
0
0
LINE
8
equipment
10
223650.0
20
133170.0
30
0
11
223450.0
21
133170.0
31
0
0
LINE
8
equipment
10
230050.0
20
133340.0
30
0
11
230050.0
21
133420.0
31
0
0
LINE
8
equipment
10
223450.0
20
133340.0
30
0
11
223450.0
21
133420.0
31
0
0
LINE
8
equipment
10
230050.0
20
133340.0
30
0
11
229850.00000000003
21
133340.0
31
0
0
LINE
8
equipment
10
228050.0
20
133340.0
30
0
11
227649.99999999997
21
133340.0
31
0
0
LINE
8
equipment
10
225850.0
20
133340.0
30
0
11
225450.00000000003
21
133340.0
31
0
0
LINE
8
equipment
10
223650.0
20
133340.0
30
0
11
223450.0
21
133340.0
31
0
0
LINE
8
equipment
10
230050.0
20
133420.0
30
0
11
229850.00000000003
21
133420.0
31
0
0
LINE
8
equipment
10
228050.0
20
133420.0
30
0
11
227649.99999999997
21
133420.0
31
0
0
LINE
8
equipment
10
225850.0
20
133420.0
30
0
11
225450.00000000003
21
133420.0
31
0
0
LINE
8
equipment
10
223650.0
20
133420.0
30
0
11
223450.0
21
133420.0
31
0
0
LINE
8
equipment
10
230050.0
20
133590.0
30
0
11
230050.0
21
133670.0
31
0
0
LINE
8
equipment
10
223450.0
20
133590.0
30
0
11
223450.0
21
133670.0
31
0
0
LINE
8
equipment
10
230050.0
20
133590.0
30
0
11
229850.00000000003
21
133590.0
31
0
0
LINE
8
equipment
10
228050.0
20
133590.0
30
0
11
227649.99999999997
21
133590.0
31
0
0
LINE
8
equipment
10
225850.0
20
133590.0
30
0
11
225450.00000000003
21
133590.0
31
0
0
LINE
8
equipment
10
223650.0
20
133590.0
30
0
11
223450.0
21
133590.0
31
0
0
LINE
8
equipment
10
230050.0
20
133670.0
30
0
11
229850.00000000003
21
133670.0
31
0
0
LINE
8
equipment
10
228050.0
20
133670.0
30
0
11
227649.99999999997
21
133670.0
31
0
0
LINE
8
equipment
10
225850.0
20
133670.0
30
0
11
225450.00000000003
21
133670.0
31
0
0
LINE
8
equipment
10
223650.0
20
133670.0
30
0
11
223450.0
21
133670.0
31
0
0
LINE
8
equipment
10
230050.0
20
133840.0
30
0
11
230050.0
21
133920.0
31
0
0
LINE
8
equipment
10
223450.0
20
133840.0
30
0
11
223450.0
21
133920.0
31
0
0
LINE
8
equipment
10
230050.0
20
133840.0
30
0
11
229850.00000000003
21
133840.0
31
0
0
LINE
8
equipment
10
228050.0
20
133840.0
30
0
11
227649.99999999997
21
133840.0
31
0
0
LINE
8
equipment
10
225850.0
20
133840.0
30
0
11
225450.00000000003
21
133840.0
31
0
0
LINE
8
equipment
10
223650.0
20
133840.0
30
0
11
223450.0
21
133840.0
31
0
0
LINE
8
equipment
10
230050.0
20
133920.0
30
0
11
229850.00000000003
21
133920.0
31
0
0
LINE
8
equipment
10
228050.0
20
133920.0
30
0
11
227649.99999999997
21
133920.0
31
0
0
LINE
8
equipment
10
225850.0
20
133920.0
30
0
11
225450.00000000003
21
133920.0
31
0
0
LINE
8
equipment
10
223650.0
20
133920.0
30
0
11
223450.0
21
133920.0
31
0
0
LINE
8
equipment
10
230050.0
20
134090.0
30
0
11
230050.0
21
134170.0
31
0
0
LINE
8
equipment
10
223450.0
20
134090.0
30
0
11
223450.0
21
134170.0
31
0
0
LINE
8
equipment
10
230050.0
20
134090.0
30
0
11
229850.00000000003
21
134090.0
31
0
0
LINE
8
equipment
10
228050.0
20
134090.0
30
0
11
227649.99999999997
21
134090.0
31
0
0
LINE
8
equipment
10
225850.0
20
134090.0
30
0
11
225450.00000000003
21
134090.0
31
0
0
LINE
8
equipment
10
223650.0
20
134090.0
30
0
11
223450.0
21
134090.0
31
0
0
LINE
8
equipment
10
230050.0
20
134170.0
30
0
11
229850.00000000003
21
134170.0
31
0
0
LINE
8
equipment
10
228050.0
20
134170.0
30
0
11
227649.99999999997
21
134170.0
31
0
0
LINE
8
equipment
10
225850.0
20
134170.0
30
0
11
225450.00000000003
21
134170.0
31
0
0
LINE
8
equipment
10
223650.0
20
134170.0
30
0
11
223450.0
21
134170.0
31
0
0
LINE
8
equipment
10
230050.0
20
134340.0
30
0
11
230050.0
21
134420.0
31
0
0
LINE
8
equipment
10
223450.0
20
134340.0
30
0
11
223450.0
21
134420.0
31
0
0
LINE
8
equipment
10
230050.0
20
134340.0
30
0
11
229850.00000000003
21
134340.0
31
0
0
LINE
8
equipment
10
228050.0
20
134340.0
30
0
11
227649.99999999997
21
134340.0
31
0
0
LINE
8
equipment
10
225850.0
20
134340.0
30
0
11
225450.00000000003
21
134340.0
31
0
0
LINE
8
equipment
10
223650.0
20
134340.0
30
0
11
223450.0
21
134340.0
31
0
0
LINE
8
equipment
10
230050.0
20
134420.0
30
0
11
229850.00000000003
21
134420.0
31
0
0
LINE
8
equipment
10
228050.0
20
134420.0
30
0
11
227649.99999999997
21
134420.0
31
0
0
LINE
8
equipment
10
225850.0
20
134420.0
30
0
11
225450.00000000003
21
134420.0
31
0
0
LINE
8
equipment
10
223650.0
20
134420.0
30
0
11
223450.0
21
134420.0
31
0
0
LINE
8
equipment
10
230050.0
20
134590.0
30
0
11
230050.0
21
134670.0
31
0
0
LINE
8
equipment
10
223450.0
20
134590.0
30
0
11
223450.0
21
134670.0
31
0
0
LINE
8
equipment
10
230050.0
20
134590.0
30
0
11
229850.00000000003
21
134590.0
31
0
0
LINE
8
equipment
10
228050.0
20
134590.0
30
0
11
227649.99999999997
21
134590.0
31
0
0
LINE
8
equipment
10
225850.0
20
134590.0
30
0
11
225450.00000000003
21
134590.0
31
0
0
LINE
8
equipment
10
223650.0
20
134590.0
30
0
11
223450.0
21
134590.0
31
0
0
LINE
8
equipment
10
230050.0
20
134670.0
30
0
11
229850.00000000003
21
134670.0
31
0
0
LINE
8
equipment
10
228050.0
20
134670.0
30
0
11
227649.99999999997
21
134670.0
31
0
0
LINE
8
equipment
10
225850.0
20
134670.0
30
0
11
225450.00000000003
21
134670.0
31
0
0
LINE
8
equipment
10
223650.0
20
134670.0
30
0
11
223450.0
21
134670.0
31
0
0
LINE
8
equipment
10
230050.0
20
134840.0
30
0
11
230050.0
21
134920.0
31
0
0
LINE
8
equipment
10
223450.0
20
134840.0
30
0
11
223450.0
21
134920.0
31
0
0
LINE
8
equipment
10
230050.0
20
134840.0
30
0
11
229850.00000000003
21
134840.0
31
0
0
LINE
8
equipment
10
228050.0
20
134840.0
30
0
11
227649.99999999997
21
134840.0
31
0
0
LINE
8
equipment
10
225850.0
20
134840.0
30
0
11
225450.00000000003
21
134840.0
31
0
0
LINE
8
equipment
10
223650.0
20
134840.0
30
0
11
223450.0
21
134840.0
31
0
0
LINE
8
equipment
10
230050.0
20
134920.0
30
0
11
229850.00000000003
21
134920.0
31
0
0
LINE
8
equipment
10
228050.0
20
134920.0
30
0
11
227649.99999999997
21
134920.0
31
0
0
LINE
8
equipment
10
225850.0
20
134920.0
30
0
11
225450.00000000003
21
134920.0
31
0
0
LINE
8
equipment
10
223650.0
20
134920.0
30
0
11
223450.0
21
134920.0
31
0
0
LINE
8
equipment
10
230050.0
20
135090.0
30
0
11
230050.0
21
135170.0
31
0
0
LINE
8
equipment
10
223450.0
20
135090.0
30
0
11
223450.0
21
135170.0
31
0
0
LINE
8
equipment
10
230050.0
20
135090.0
30
0
11
229850.00000000003
21
135090.0
31
0
0
LINE
8
equipment
10
228050.0
20
135090.0
30
0
11
227649.99999999997
21
135090.0
31
0
0
LINE
8
equipment
10
225850.0
20
135090.0
30
0
11
225450.00000000003
21
135090.0
31
0
0
LINE
8
equipment
10
223650.0
20
135090.0
30
0
11
223450.0
21
135090.0
31
0
0
LINE
8
equipment
10
230050.0
20
135170.0
30
0
11
229850.00000000003
21
135170.0
31
0
0
LINE
8
equipment
10
228050.0
20
135170.0
30
0
11
227649.99999999997
21
135170.0
31
0
0
LINE
8
equipment
10
225850.0
20
135170.0
30
0
11
225450.00000000003
21
135170.0
31
0
0
LINE
8
equipment
10
223650.0
20
135170.0
30
0
11
223450.0
21
135170.0
31
0
0
LINE
8
equipment
10
212649.99999999997
20
132040.0
30
0
11
212649.99999999997
21
132540.0
31
0
0
LINE
8
equipment
10
204850.0
20
132040.0
30
0
11
204850.0
21
132540.0
31
0
0
LINE
8
equipment
10
212649.99999999997
20
132040.0
30
0
11
204850.0
21
132040.0
31
0
0
LINE
8
equipment
10
212649.99999999997
20
132540.0
30
0
11
204850.0
21
132540.0
31
0
0
LINE
8
equipment
10
212250.0
20
132540.0
30
0
11
212250.0
21
135840.0
31
0
0
LINE
8
equipment
10
205250.0
20
132540.0
30
0
11
205250.0
21
135840.0
31
0
0
LINE
8
equipment
10
212250.0
20
135840.0
30
0
11
205250.0
21
135840.0
31
0
0
LINE
8
equipment
10
211850.00000000003
20
132940.0
30
0
11
211850.00000000003
21
135240.0
31
0
0
LINE
8
equipment
10
210050.0
20
132940.0
30
0
11
210050.0
21
135240.0
31
0
0
LINE
8
equipment
10
211850.00000000003
20
132940.0
30
0
11
210050.0
21
132940.0
31
0
0
LINE
8
equipment
10
211850.00000000003
20
135240.0
30
0
11
210050.0
21
135240.0
31
0
0
LINE
8
equipment
10
209290.0
20
136140.0
30
0
11
209315.07
21
136140.0
31
0
0
LINE
8
equipment
10
209315.07
20
136140.0
30
0
11
209389.03000000003
21
136140.0
31
0
0
LINE
8
equipment
10
209389.03000000003
20
136140.0
30
0
11
209508.16999999998
21
136140.0
31
0
0
LINE
8
equipment
10
209508.16999999998
20
136140.0
30
0
11
209666.50999999998
21
136140.0
31
0
0
LINE
8
equipment
10
209666.50999999998
20
136140.0
30
0
11
209856.12
21
136140.0
31
0
0
LINE
8
equipment
10
209856.12
20
136140.0
30
0
11
210067.47999999998
21
136140.0
31
0
0
LINE
8
equipment
10
210067.47999999998
20
136140.0
30
0
11
210290.0
21
136140.0
31
0
0
LINE
8
equipment
10
210290.0
20
136140.0
30
0
11
210512.52
21
136140.0
31
0
0
LINE
8
equipment
10
210512.52
20
136140.0
30
0
11
210723.88
21
136140.0
31
0
0
LINE
8
equipment
10
210723.88
20
136140.0
30
0
11
210913.49
21
136140.0
31
0
0
LINE
8
equipment
10
210913.49
20
136140.0
30
0
11
211071.83
21
136140.0
31
0
0
LINE
8
equipment
10
211071.83
20
136140.0
30
0
11
211190.97
21
136140.0
31
0
0
LINE
8
equipment
10
211190.97
20
136140.0
30
0
11
211264.93
21
136140.0
31
0
0
LINE
8
equipment
10
211264.93
20
136140.0
30
0
11
211290.00000000003
21
136140.0
31
0
0
LINE
8
equipment
10
209649.99999999997
20
132940.0
30
0
11
209649.99999999997
21
135240.0
31
0
0
LINE
8
equipment
10
207850.0
20
132940.0
30
0
11
207850.0
21
135240.0
31
0
0
LINE
8
equipment
10
209649.99999999997
20
132940.0
30
0
11
207850.0
21
132940.0
31
0
0
LINE
8
equipment
10
209649.99999999997
20
135240.0
30
0
11
207850.0
21
135240.0
31
0
0
LINE
8
equipment
10
207750.0
20
136140.0
30
0
11
207775.07
21
136140.0
31
0
0
LINE
8
equipment
10
207775.07
20
136140.0
30
0
11
207849.03
21
136140.0
31
0
0
LINE
8
equipment
10
207849.03
20
136140.0
30
0
11
207968.16999999998
21
136140.0
31
0
0
LINE
8
equipment
10
207968.16999999998
20
136140.0
30
0
11
208126.51000000004
21
136140.0
31
0
0
LINE
8
equipment
10
208126.51000000004
20
136140.0
30
0
11
208316.12
21
136140.0
31
0
0
LINE
8
equipment
10
208316.12
20
136140.0
30
0
11
208527.48000000004
21
136140.0
31
0
0
LINE
8
equipment
10
208527.48000000004
20
136140.0
30
0
11
208750.0
21
136140.0
31
0
0
LINE
8
equipment
10
208750.0
20
136140.0
30
0
11
208972.52
21
136140.0
31
0
0
LINE
8
equipment
10
208972.52
20
136140.0
30
0
11
209183.87999999998
21
136140.0
31
0
0
LINE
8
equipment
10
209183.87999999998
20
136140.0
30
0
11
209373.49
21
136140.0
31
0
0
LINE
8
equipment
10
209373.49
20
136140.0
30
0
11
209531.83
21
136140.0
31
0
0
LINE
8
equipment
10
209531.83
20
136140.0
30
0
11
209650.97
21
136140.0
31
0
0
LINE
8
equipment
10
209650.97
20
136140.0
30
0
11
209724.93
21
136140.0
31
0
0
LINE
8
equipment
10
209724.93
20
136140.0
30
0
11
209750.0
21
136140.0
31
0
0
LINE
8
equipment
10
207450.00000000003
20
132940.0
30
0
11
207450.00000000003
21
135240.0
31
0
0
LINE
8
equipment
10
205650.0
20
132940.0
30
0
11
205650.0
21
135240.0
31
0
0
LINE
8
equipment
10
207450.00000000003
20
132940.0
30
0
11
205650.0
21
132940.0
31
0
0
LINE
8
equipment
10
207450.00000000003
20
135240.0
30
0
11
205650.0
21
135240.0
31
0
0
LINE
8
equipment
10
206210.0
20
136140.0
30
0
11
206235.07
21
136140.0
31
0
0
LINE
8
equipment
10
206235.07
20
136140.0
30
0
11
206309.03
21
136140.0
31
0
0
LINE
8
equipment
10
206309.03
20
136140.0
30
0
11
206428.17
21
136140.0
31
0
0
LINE
8
equipment
10
206428.17
20
136140.0
30
0
11
206586.50999999998
21
136140.0
31
0
0
LINE
8
equipment
10
206586.50999999998
20
136140.0
30
0
11
206776.12000000002
21
136140.0
31
0
0
LINE
8
equipment
10
206776.12000000002
20
136140.0
30
0
11
206987.47999999998
21
136140.0
31
0
0
LINE
8
equipment
10
206987.47999999998
20
136140.0
30
0
11
207209.99999999997
21
136140.0
31
0
0
LINE
8
equipment
10
207209.99999999997
20
136140.0
30
0
11
207432.52
21
136140.0
31
0
0
LINE
8
equipment
10
207432.52
20
136140.0
30
0
11
207643.87999999998
21
136140.0
31
0
0
LINE
8
equipment
10
207643.87999999998
20
136140.0
30
0
11
207833.49
21
136140.0
31
0
0
LINE
8
equipment
10
207833.49
20
136140.0
30
0
11
207991.83000000002
21
136140.0
31
0
0
LINE
8
equipment
10
207991.83000000002
20
136140.0
30
0
11
208110.97
21
136140.0
31
0
0
LINE
8
equipment
10
208110.97
20
136140.0
30
0
11
208184.93
21
136140.0
31
0
0
LINE
8
equipment
10
208184.93
20
136140.0
30
0
11
208210.0
21
136140.0
31
0
0
LINE
8
equipment
10
206210.0
20
135840.0
30
0
11
206210.0
21
136140.0
31
0
0
LINE
8
equipment
10
212050.0
20
132840.0
30
0
11
212050.0
21
132920.0
31
0
0
LINE
8
equipment
10
205450.0
20
132840.0
30
0
11
205450.0
21
132920.0
31
0
0
LINE
8
equipment
10
212050.0
20
132840.0
30
0
11
205450.0
21
132840.0
31
0
0
LINE
8
equipment
10
212050.0
20
132920.0
30
0
11
205450.0
21
132920.0
31
0
0
LINE
8
equipment
10
212050.0
20
133090.0
30
0
11
212050.0
21
133170.0
31
0
0
LINE
8
equipment
10
205450.0
20
133090.0
30
0
11
205450.0
21
133170.0
31
0
0
LINE
8
equipment
10
212050.0
20
133090.0
30
0
11
211850.00000000003
21
133090.0
31
0
0
LINE
8
equipment
10
210050.0
20
133090.0
30
0
11
209649.99999999997
21
133090.0
31
0
0
LINE
8
equipment
10
207850.0
20
133090.0
30
0
11
207450.00000000003
21
133090.0
31
0
0
LINE
8
equipment
10
205650.0
20
133090.0
30
0
11
205450.0
21
133090.0
31
0
0
LINE
8
equipment
10
212050.0
20
133170.0
30
0
11
211850.00000000003
21
133170.0
31
0
0
LINE
8
equipment
10
210050.0
20
133170.0
30
0
11
209649.99999999997
21
133170.0
31
0
0
LINE
8
equipment
10
207850.0
20
133170.0
30
0
11
207450.00000000003
21
133170.0
31
0
0
LINE
8
equipment
10
205650.0
20
133170.0
30
0
11
205450.0
21
133170.0
31
0
0
LINE
8
equipment
10
212050.0
20
133340.0
30
0
11
212050.0
21
133420.0
31
0
0
LINE
8
equipment
10
205450.0
20
133340.0
30
0
11
205450.0
21
133420.0
31
0
0
LINE
8
equipment
10
212050.0
20
133340.0
30
0
11
211850.00000000003
21
133340.0
31
0
0
LINE
8
equipment
10
210050.0
20
133340.0
30
0
11
209649.99999999997
21
133340.0
31
0
0
LINE
8
equipment
10
207850.0
20
133340.0
30
0
11
207450.00000000003
21
133340.0
31
0
0
LINE
8
equipment
10
205650.0
20
133340.0
30
0
11
205450.0
21
133340.0
31
0
0
LINE
8
equipment
10
212050.0
20
133420.0
30
0
11
211850.00000000003
21
133420.0
31
0
0
LINE
8
equipment
10
210050.0
20
133420.0
30
0
11
209649.99999999997
21
133420.0
31
0
0
LINE
8
equipment
10
207850.0
20
133420.0
30
0
11
207450.00000000003
21
133420.0
31
0
0
LINE
8
equipment
10
205650.0
20
133420.0
30
0
11
205450.0
21
133420.0
31
0
0
LINE
8
equipment
10
212050.0
20
133590.0
30
0
11
212050.0
21
133670.0
31
0
0
LINE
8
equipment
10
205450.0
20
133590.0
30
0
11
205450.0
21
133670.0
31
0
0
LINE
8
equipment
10
212050.0
20
133590.0
30
0
11
211850.00000000003
21
133590.0
31
0
0
LINE
8
equipment
10
210050.0
20
133590.0
30
0
11
209649.99999999997
21
133590.0
31
0
0
LINE
8
equipment
10
207850.0
20
133590.0
30
0
11
207450.00000000003
21
133590.0
31
0
0
LINE
8
equipment
10
205650.0
20
133590.0
30
0
11
205450.0
21
133590.0
31
0
0
LINE
8
equipment
10
212050.0
20
133670.0
30
0
11
211850.00000000003
21
133670.0
31
0
0
LINE
8
equipment
10
210050.0
20
133670.0
30
0
11
209649.99999999997
21
133670.0
31
0
0
LINE
8
equipment
10
207850.0
20
133670.0
30
0
11
207450.00000000003
21
133670.0
31
0
0
LINE
8
equipment
10
205650.0
20
133670.0
30
0
11
205450.0
21
133670.0
31
0
0
LINE
8
equipment
10
212050.0
20
133840.0
30
0
11
212050.0
21
133920.0
31
0
0
LINE
8
equipment
10
205450.0
20
133840.0
30
0
11
205450.0
21
133920.0
31
0
0
LINE
8
equipment
10
212050.0
20
133840.0
30
0
11
211850.00000000003
21
133840.0
31
0
0
LINE
8
equipment
10
210050.0
20
133840.0
30
0
11
209649.99999999997
21
133840.0
31
0
0
LINE
8
equipment
10
207850.0
20
133840.0
30
0
11
207450.00000000003
21
133840.0
31
0
0
LINE
8
equipment
10
205650.0
20
133840.0
30
0
11
205450.0
21
133840.0
31
0
0
LINE
8
equipment
10
212050.0
20
133920.0
30
0
11
211850.00000000003
21
133920.0
31
0
0
LINE
8
equipment
10
210050.0
20
133920.0
30
0
11
209649.99999999997
21
133920.0
31
0
0
LINE
8
equipment
10
207850.0
20
133920.0
30
0
11
207450.00000000003
21
133920.0
31
0
0
LINE
8
equipment
10
205650.0
20
133920.0
30
0
11
205450.0
21
133920.0
31
0
0
LINE
8
equipment
10
212050.0
20
134090.0
30
0
11
212050.0
21
134170.0
31
0
0
LINE
8
equipment
10
205450.0
20
134090.0
30
0
11
205450.0
21
134170.0
31
0
0
LINE
8
equipment
10
212050.0
20
134090.0
30
0
11
211850.00000000003
21
134090.0
31
0
0
LINE
8
equipment
10
210050.0
20
134090.0
30
0
11
209649.99999999997
21
134090.0
31
0
0
LINE
8
equipment
10
207850.0
20
134090.0
30
0
11
207450.00000000003
21
134090.0
31
0
0
LINE
8
equipment
10
205650.0
20
134090.0
30
0
11
205450.0
21
134090.0
31
0
0
LINE
8
equipment
10
212050.0
20
134170.0
30
0
11
211850.00000000003
21
134170.0
31
0
0
LINE
8
equipment
10
210050.0
20
134170.0
30
0
11
209649.99999999997
21
134170.0
31
0
0
LINE
8
equipment
10
207850.0
20
134170.0
30
0
11
207450.00000000003
21
134170.0
31
0
0
LINE
8
equipment
10
205650.0
20
134170.0
30
0
11
205450.0
21
134170.0
31
0
0
LINE
8
equipment
10
212050.0
20
134340.0
30
0
11
212050.0
21
134420.0
31
0
0
LINE
8
equipment
10
205450.0
20
134340.0
30
0
11
205450.0
21
134420.0
31
0
0
LINE
8
equipment
10
212050.0
20
134340.0
30
0
11
211850.00000000003
21
134340.0
31
0
0
LINE
8
equipment
10
210050.0
20
134340.0
30
0
11
209649.99999999997
21
134340.0
31
0
0
LINE
8
equipment
10
207850.0
20
134340.0
30
0
11
207450.00000000003
21
134340.0
31
0
0
LINE
8
equipment
10
205650.0
20
134340.0
30
0
11
205450.0
21
134340.0
31
0
0
LINE
8
equipment
10
212050.0
20
134420.0
30
0
11
211850.00000000003
21
134420.0
31
0
0
LINE
8
equipment
10
210050.0
20
134420.0
30
0
11
209649.99999999997
21
134420.0
31
0
0
LINE
8
equipment
10
207850.0
20
134420.0
30
0
11
207450.00000000003
21
134420.0
31
0
0
LINE
8
equipment
10
205650.0
20
134420.0
30
0
11
205450.0
21
134420.0
31
0
0
LINE
8
equipment
10
212050.0
20
134590.0
30
0
11
212050.0
21
134670.0
31
0
0
LINE
8
equipment
10
205450.0
20
134590.0
30
0
11
205450.0
21
134670.0
31
0
0
LINE
8
equipment
10
212050.0
20
134590.0
30
0
11
211850.00000000003
21
134590.0
31
0
0
LINE
8
equipment
10
210050.0
20
134590.0
30
0
11
209649.99999999997
21
134590.0
31
0
0
LINE
8
equipment
10
207850.0
20
134590.0
30
0
11
207450.00000000003
21
134590.0
31
0
0
LINE
8
equipment
10
205650.0
20
134590.0
30
0
11
205450.0
21
134590.0
31
0
0
LINE
8
equipment
10
212050.0
20
134670.0
30
0
11
211850.00000000003
21
134670.0
31
0
0
LINE
8
equipment
10
210050.0
20
134670.0
30
0
11
209649.99999999997
21
134670.0
31
0
0
LINE
8
equipment
10
207850.0
20
134670.0
30
0
11
207450.00000000003
21
134670.0
31
0
0
LINE
8
equipment
10
205650.0
20
134670.0
30
0
11
205450.0
21
134670.0
31
0
0
LINE
8
equipment
10
212050.0
20
134840.0
30
0
11
212050.0
21
134920.0
31
0
0
LINE
8
equipment
10
205450.0
20
134840.0
30
0
11
205450.0
21
134920.0
31
0
0
LINE
8
equipment
10
212050.0
20
134840.0
30
0
11
211850.00000000003
21
134840.0
31
0
0
LINE
8
equipment
10
210050.0
20
134840.0
30
0
11
209649.99999999997
21
134840.0
31
0
0
LINE
8
equipment
10
207850.0
20
134840.0
30
0
11
207450.00000000003
21
134840.0
31
0
0
LINE
8
equipment
10
205650.0
20
134840.0
30
0
11
205450.0
21
134840.0
31
0
0
LINE
8
equipment
10
212050.0
20
134920.0
30
0
11
211850.00000000003
21
134920.0
31
0
0
LINE
8
equipment
10
210050.0
20
134920.0
30
0
11
209649.99999999997
21
134920.0
31
0
0
LINE
8
equipment
10
207850.0
20
134920.0
30
0
11
207450.00000000003
21
134920.0
31
0
0
LINE
8
equipment
10
205650.0
20
134920.0
30
0
11
205450.0
21
134920.0
31
0
0
LINE
8
equipment
10
212050.0
20
135090.0
30
0
11
212050.0
21
135170.0
31
0
0
LINE
8
equipment
10
205450.0
20
135090.0
30
0
11
205450.0
21
135170.0
31
0
0
LINE
8
equipment
10
212050.0
20
135090.0
30
0
11
211850.00000000003
21
135090.0
31
0
0
LINE
8
equipment
10
210050.0
20
135090.0
30
0
11
209649.99999999997
21
135090.0
31
0
0
LINE
8
equipment
10
207850.0
20
135090.0
30
0
11
207450.00000000003
21
135090.0
31
0
0
LINE
8
equipment
10
205650.0
20
135090.0
30
0
11
205450.0
21
135090.0
31
0
0
LINE
8
equipment
10
212050.0
20
135170.0
30
0
11
211850.00000000003
21
135170.0
31
0
0
LINE
8
equipment
10
210050.0
20
135170.0
30
0
11
209649.99999999997
21
135170.0
31
0
0
LINE
8
equipment
10
207850.0
20
135170.0
30
0
11
207450.00000000003
21
135170.0
31
0
0
LINE
8
equipment
10
205650.0
20
135170.0
30
0
11
205450.0
21
135170.0
31
0
0
LINE
8
glazing
10
111170.0
20
103640.0
30
0
11
111170.0
21
131240.0
31
0
0
LINE
8
glazing
10
107746.67
20
103640.0
30
0
11
107746.67
21
131240.0
31
0
0
LINE
8
glazing
10
111170.0
20
103640.0
30
0
11
107746.67
21
103640.0
31
0
0
LINE
8
glazing
10
111170.0
20
131240.0
30
0
11
107746.67
21
131240.0
31
0
0
LINE
8
glazing
10
107586.67
20
103640.0
30
0
11
107586.67
21
131240.0
31
0
0
LINE
8
glazing
10
104163.32999999999
20
103640.0
30
0
11
104163.32999999999
21
131240.0
31
0
0
LINE
8
glazing
10
107586.67
20
103640.0
30
0
11
104163.32999999999
21
103640.0
31
0
0
LINE
8
glazing
10
107586.67
20
131240.0
30
0
11
104163.32999999999
21
131240.0
31
0
0
LINE
8
glazing
10
104003.33
20
103640.0
30
0
11
104003.33
21
131240.0
31
0
0
LINE
8
glazing
10
100580.00000000001
20
103640.0
30
0
11
100580.00000000001
21
131240.0
31
0
0
LINE
8
glazing
10
104003.33
20
103640.0
30
0
11
100580.00000000001
21
103640.0
31
0
0
LINE
8
glazing
10
104003.33
20
131240.0
30
0
11
100580.00000000001
21
131240.0
31
0
0
LINE
8
glazing
10
100419.99999999999
20
103640.0
30
0
11
100419.99999999999
21
131240.0
31
0
0
LINE
8
glazing
10
96996.67
20
103640.0
30
0
11
96996.67
21
131240.0
31
0
0
LINE
8
glazing
10
100419.99999999999
20
103640.0
30
0
11
96996.67
21
103640.0
31
0
0
LINE
8
glazing
10
100419.99999999999
20
131240.0
30
0
11
96996.67
21
131240.0
31
0
0
LINE
8
glazing
10
96836.67000000001
20
103640.0
30
0
11
96836.67000000001
21
131240.0
31
0
0
LINE
8
glazing
10
93413.33
20
103640.0
30
0
11
93413.33
21
131240.0
31
0
0
LINE
8
glazing
10
96836.67000000001
20
103640.0
30
0
11
93413.33
21
103640.0
31
0
0
LINE
8
glazing
10
96836.67000000001
20
131240.0
30
0
11
93413.33
21
131240.0
31
0
0
LINE
8
glazing
10
93253.33
20
103640.0
30
0
11
93253.33
21
131240.0
31
0
0
LINE
8
glazing
10
89830.0
20
103640.0
30
0
11
89830.0
21
131240.0
31
0
0
LINE
8
glazing
10
93253.33
20
103640.0
30
0
11
89830.0
21
103640.0
31
0
0
LINE
8
glazing
10
93253.33
20
131240.0
30
0
11
89830.0
21
131240.0
31
0
0
LINE
8
glazing
10
89670.0
20
103640.0
30
0
11
89670.0
21
131240.0
31
0
0
LINE
8
glazing
10
86246.67
20
103640.0
30
0
11
86246.67
21
131240.0
31
0
0
LINE
8
glazing
10
89670.0
20
103640.0
30
0
11
86246.67
21
103640.0
31
0
0
LINE
8
glazing
10
89670.0
20
131240.0
30
0
11
86246.67
21
131240.0
31
0
0
LINE
8
glazing
10
86086.67
20
103640.0
30
0
11
86086.67
21
131240.0
31
0
0
LINE
8
glazing
10
82663.33
20
103640.0
30
0
11
82663.33
21
131240.0
31
0
0
LINE
8
glazing
10
86086.67
20
103640.0
30
0
11
82663.33
21
103640.0
31
0
0
LINE
8
glazing
10
86086.67
20
131240.0
30
0
11
82663.33
21
131240.0
31
0
0
LINE
8
glazing
10
82503.33
20
103640.0
30
0
11
82503.33
21
131240.0
31
0
0
LINE
8
glazing
10
79080.0
20
103640.0
30
0
11
79080.0
21
131240.0
31
0
0
LINE
8
glazing
10
82503.33
20
103640.0
30
0
11
79080.0
21
103640.0
31
0
0
LINE
8
glazing
10
82503.33
20
131240.0
30
0
11
79080.0
21
131240.0
31
0
0
LINE
8
glazing
10
78920.0
20
103640.0
30
0
11
78920.0
21
131240.0
31
0
0
LINE
8
glazing
10
75496.67
20
103640.0
30
0
11
75496.67
21
131240.0
31
0
0
LINE
8
glazing
10
78920.0
20
103640.0
30
0
11
75496.67
21
103640.0
31
0
0
LINE
8
glazing
10
78920.0
20
131240.0
30
0
11
75496.67
21
131240.0
31
0
0
LINE
8
glazing
10
75336.67
20
103640.0
30
0
11
75336.67
21
131240.0
31
0
0
LINE
8
glazing
10
71913.33
20
103640.0
30
0
11
71913.33
21
131240.0
31
0
0
LINE
8
glazing
10
75336.67
20
103640.0
30
0
11
71913.33
21
103640.0
31
0
0
LINE
8
glazing
10
75336.67
20
131240.0
30
0
11
71913.33
21
131240.0
31
0
0
LINE
8
glazing
10
71753.33
20
103640.0
30
0
11
71753.33
21
131240.0
31
0
0
LINE
8
glazing
10
68330.0
20
103640.0
30
0
11
68330.0
21
131240.0
31
0
0
LINE
8
glazing
10
71753.33
20
103640.0
30
0
11
68330.0
21
103640.0
31
0
0
LINE
8
glazing
10
71753.33
20
131240.0
30
0
11
68330.0
21
131240.0
31
0
0
LINE
8
envelope
10
111310.0
20
103640.0
30
0
11
111310.0
21
131440.0
31
0
0
LINE
8
envelope
10
111190.0
20
103640.0
30
0
11
111190.0
21
131440.0
31
0
0
LINE
8
envelope
10
111310.0
20
103640.0
30
0
11
111190.0
21
103640.0
31
0
0
LINE
8
envelope
10
111310.0
20
131440.0
30
0
11
111190.0
21
131440.0
31
0
0
LINE
8
envelope
10
107726.67
20
103640.0
30
0
11
107726.67
21
131440.0
31
0
0
LINE
8
envelope
10
107606.67
20
103640.0
30
0
11
107606.67
21
131440.0
31
0
0
LINE
8
envelope
10
107726.67
20
103640.0
30
0
11
107606.67
21
103640.0
31
0
0
LINE
8
envelope
10
107726.67
20
131440.0
30
0
11
107606.67
21
131440.0
31
0
0
LINE
8
envelope
10
104143.33
20
103640.0
30
0
11
104143.33
21
131440.0
31
0
0
LINE
8
envelope
10
104023.32999999999
20
103640.0
30
0
11
104023.32999999999
21
131440.0
31
0
0
LINE
8
envelope
10
104143.33
20
103640.0
30
0
11
104023.32999999999
21
103640.0
31
0
0
LINE
8
envelope
10
104143.33
20
131440.0
30
0
11
104023.32999999999
21
131440.0
31
0
0
LINE
8
envelope
10
100559.99999999999
20
103640.0
30
0
11
100559.99999999999
21
131440.0
31
0
0
LINE
8
envelope
10
100440.00000000001
20
103640.0
30
0
11
100440.00000000001
21
131440.0
31
0
0
LINE
8
envelope
10
100559.99999999999
20
103640.0
30
0
11
100440.00000000001
21
103640.0
31
0
0
LINE
8
envelope
10
100559.99999999999
20
131440.0
30
0
11
100440.00000000001
21
131440.0
31
0
0
LINE
8
envelope
10
96976.67000000001
20
103640.0
30
0
11
96976.67000000001
21
131440.0
31
0
0
LINE
8
envelope
10
96856.67
20
103640.0
30
0
11
96856.67
21
131440.0
31
0
0
LINE
8
envelope
10
96976.67000000001
20
103640.0
30
0
11
96856.67
21
103640.0
31
0
0
LINE
8
envelope
10
96976.67000000001
20
131440.0
30
0
11
96856.67
21
131440.0
31
0
0
LINE
8
envelope
10
93393.33
20
103640.0
30
0
11
93393.33
21
131440.0
31
0
0
LINE
8
envelope
10
93273.33
20
103640.0
30
0
11
93273.33
21
131440.0
31
0
0
LINE
8
envelope
10
93393.33
20
103640.0
30
0
11
93273.33
21
103640.0
31
0
0
LINE
8
envelope
10
93393.33
20
131440.0
30
0
11
93273.33
21
131440.0
31
0
0
LINE
8
envelope
10
89810.0
20
103640.0
30
0
11
89810.0
21
131440.0
31
0
0
LINE
8
envelope
10
89690.0
20
103640.0
30
0
11
89690.0
21
131440.0
31
0
0
LINE
8
envelope
10
89810.0
20
103640.0
30
0
11
89690.0
21
103640.0
31
0
0
LINE
8
envelope
10
89810.0
20
131440.0
30
0
11
89690.0
21
131440.0
31
0
0
LINE
8
envelope
10
86226.67
20
103640.0
30
0
11
86226.67
21
131440.0
31
0
0
LINE
8
envelope
10
86106.67
20
103640.0
30
0
11
86106.67
21
131440.0
31
0
0
LINE
8
envelope
10
86226.67
20
103640.0
30
0
11
86106.67
21
103640.0
31
0
0
LINE
8
envelope
10
86226.67
20
131440.0
30
0
11
86106.67
21
131440.0
31
0
0
LINE
8
envelope
10
82643.33
20
103640.0
30
0
11
82643.33
21
131440.0
31
0
0
LINE
8
envelope
10
82523.33
20
103640.0
30
0
11
82523.33
21
131440.0
31
0
0
LINE
8
envelope
10
82643.33
20
103640.0
30
0
11
82523.33
21
103640.0
31
0
0
LINE
8
envelope
10
82643.33
20
131440.0
30
0
11
82523.33
21
131440.0
31
0
0
LINE
8
envelope
10
79060.0
20
103640.0
30
0
11
79060.0
21
131440.0
31
0
0
LINE
8
envelope
10
78940.0
20
103640.0
30
0
11
78940.0
21
131440.0
31
0
0
LINE
8
envelope
10
79060.0
20
103640.0
30
0
11
78940.0
21
103640.0
31
0
0
LINE
8
envelope
10
79060.0
20
131440.0
30
0
11
78940.0
21
131440.0
31
0
0
LINE
8
envelope
10
75476.67
20
103640.0
30
0
11
75476.67
21
131440.0
31
0
0
LINE
8
envelope
10
75356.67
20
103640.0
30
0
11
75356.67
21
131440.0
31
0
0
LINE
8
envelope
10
75476.67
20
103640.0
30
0
11
75356.67
21
103640.0
31
0
0
LINE
8
envelope
10
75476.67
20
131440.0
30
0
11
75356.67
21
131440.0
31
0
0
LINE
8
envelope
10
71893.33
20
103640.0
30
0
11
71893.33
21
131440.0
31
0
0
LINE
8
envelope
10
71773.33
20
103640.0
30
0
11
71773.33
21
131440.0
31
0
0
LINE
8
envelope
10
71893.33
20
103640.0
30
0
11
71773.33
21
103640.0
31
0
0
LINE
8
envelope
10
71893.33
20
131440.0
30
0
11
71773.33
21
131440.0
31
0
0
LINE
8
envelope
10
68310.0
20
103640.0
30
0
11
68310.0
21
131440.0
31
0
0
LINE
8
envelope
10
68190.0
20
103640.0
30
0
11
68190.0
21
131440.0
31
0
0
LINE
8
envelope
10
68310.0
20
103640.0
30
0
11
68190.0
21
103640.0
31
0
0
LINE
8
envelope
10
68310.0
20
131440.0
30
0
11
68190.0
21
131440.0
31
0
0
LINE
8
envelope
10
111250.0
20
103640.0
30
0
11
111250.0
21
103780.0
31
0
0
LINE
8
envelope
10
68250.0
20
103640.0
30
0
11
68250.0
21
103780.0
31
0
0
LINE
8
envelope
10
111250.0
20
103640.0
30
0
11
68250.0
21
103640.0
31
0
0
LINE
8
envelope
10
111250.0
20
103780.0
30
0
11
68250.0
21
103780.0
31
0
0
LINE
8
envelope
10
111250.0
20
110589.99999999999
30
0
11
111250.0
21
110729.99999999999
31
0
0
LINE
8
envelope
10
68250.0
20
110589.99999999999
30
0
11
68250.0
21
110729.99999999999
31
0
0
LINE
8
envelope
10
111250.0
20
110589.99999999999
30
0
11
68250.0
21
110589.99999999999
31
0
0
LINE
8
envelope
10
111250.0
20
110729.99999999999
30
0
11
68250.0
21
110729.99999999999
31
0
0
LINE
8
envelope
10
111250.0
20
117540.0
30
0
11
111250.0
21
117680.0
31
0
0
LINE
8
envelope
10
68250.0
20
117540.0
30
0
11
68250.0
21
117680.0
31
0
0
LINE
8
envelope
10
111250.0
20
117540.0
30
0
11
68250.0
21
117540.0
31
0
0
LINE
8
envelope
10
111250.0
20
117680.0
30
0
11
68250.0
21
117680.0
31
0
0
LINE
8
envelope
10
111250.0
20
124490.00000000001
30
0
11
111250.0
21
124630.00000000001
31
0
0
LINE
8
envelope
10
68250.0
20
124490.00000000001
30
0
11
68250.0
21
124630.00000000001
31
0
0
LINE
8
envelope
10
111250.0
20
124490.00000000001
30
0
11
68250.0
21
124490.00000000001
31
0
0
LINE
8
envelope
10
111250.0
20
124630.00000000001
30
0
11
68250.0
21
124630.00000000001
31
0
0
LINE
8
envelope
10
111250.0
20
131440.0
30
0
11
111250.0
21
131580.0
31
0
0
LINE
8
envelope
10
68250.0
20
131440.0
30
0
11
68250.0
21
131580.0
31
0
0
LINE
8
envelope
10
111250.0
20
131440.0
30
0
11
68250.0
21
131440.0
31
0
0
LINE
8
envelope
10
111250.0
20
131580.0
30
0
11
68250.0
21
131580.0
31
0
0
LINE
8
envelope
10
111400.0
20
103640.0
30
0
11
111400.0
21
131440.0
31
0
0
LINE
8
envelope
10
111100.0
20
103640.0
30
0
11
111100.0
21
131440.0
31
0
0
LINE
8
envelope
10
111400.0
20
103640.0
30
0
11
111100.0
21
103640.0
31
0
0
LINE
8
envelope
10
111400.0
20
131440.0
30
0
11
111100.0
21
131440.0
31
0
0
LINE
8
envelope
10
68400.0
20
103640.0
30
0
11
68400.0
21
131440.0
31
0
0
LINE
8
envelope
10
68100.0
20
103640.0
30
0
11
68100.0
21
131440.0
31
0
0
LINE
8
envelope
10
68400.0
20
103640.0
30
0
11
68100.0
21
103640.0
31
0
0
LINE
8
envelope
10
68400.0
20
131440.0
30
0
11
68100.0
21
131440.0
31
0
0
LINE
8
roof
10
111750.0
20
131440.0
30
0
11
111750.0
21
132040.0
31
0
0
LINE
8
roof
10
67750.0
20
131440.0
30
0
11
67750.0
21
132040.0
31
0
0
LINE
8
roof
10
111750.0
20
131440.0
30
0
11
67750.0
21
131440.0
31
0
0
LINE
8
roof
10
111750.0
20
132040.0
30
0
11
67750.0
21
132040.0
31
0
0
LINE
8
equipment
10
102650.0
20
132040.0
30
0
11
102650.0
21
132540.0
31
0
0
LINE
8
equipment
10
94850.0
20
132040.0
30
0
11
94850.0
21
132540.0
31
0
0
LINE
8
equipment
10
102650.0
20
132040.0
30
0
11
94850.0
21
132040.0
31
0
0
LINE
8
equipment
10
102650.0
20
132540.0
30
0
11
94850.0
21
132540.0
31
0
0
LINE
8
equipment
10
102249.99999999999
20
132540.0
30
0
11
102249.99999999999
21
135840.0
31
0
0
LINE
8
equipment
10
95250.0
20
132540.0
30
0
11
95250.0
21
135840.0
31
0
0
LINE
8
equipment
10
102249.99999999999
20
135840.0
30
0
11
95250.0
21
135840.0
31
0
0
LINE
8
equipment
10
101850.00000000001
20
132940.0
30
0
11
101850.00000000001
21
135240.0
31
0
0
LINE
8
equipment
10
100050.0
20
132940.0
30
0
11
100050.0
21
135240.0
31
0
0
LINE
8
equipment
10
101850.00000000001
20
132940.0
30
0
11
100050.0
21
132940.0
31
0
0
LINE
8
equipment
10
101850.00000000001
20
135240.0
30
0
11
100050.0
21
135240.0
31
0
0
LINE
8
equipment
10
99289.99999999999
20
136140.0
30
0
11
99315.07
21
136140.0
31
0
0
LINE
8
equipment
10
99315.07
20
136140.0
30
0
11
99389.03
21
136140.0
31
0
0
LINE
8
equipment
10
99389.03
20
136140.0
30
0
11
99508.17
21
136140.0
31
0
0
LINE
8
equipment
10
99508.17
20
136140.0
30
0
11
99666.51000000001
21
136140.0
31
0
0
LINE
8
equipment
10
99666.51000000001
20
136140.0
30
0
11
99856.12000000002
21
136140.0
31
0
0
LINE
8
equipment
10
99856.12000000002
20
136140.0
30
0
11
100067.48000000001
21
136140.0
31
0
0
LINE
8
equipment
10
100067.48000000001
20
136140.0
30
0
11
100290.0
21
136140.0
31
0
0
LINE
8
equipment
10
100290.0
20
136140.0
30
0
11
100512.52
21
136140.0
31
0
0
LINE
8
equipment
10
100512.52
20
136140.0
30
0
11
100723.88
21
136140.0
31
0
0
LINE
8
equipment
10
100723.88
20
136140.0
30
0
11
100913.49
21
136140.0
31
0
0
LINE
8
equipment
10
100913.49
20
136140.0
30
0
11
101071.83
21
136140.0
31
0
0
LINE
8
equipment
10
101071.83
20
136140.0
30
0
11
101190.96999999999
21
136140.0
31
0
0
LINE
8
equipment
10
101190.96999999999
20
136140.0
30
0
11
101264.93
21
136140.0
31
0
0
LINE
8
equipment
10
101264.93
20
136140.0
30
0
11
101290.0
21
136140.0
31
0
0
LINE
8
equipment
10
99650.0
20
132940.0
30
0
11
99650.0
21
135240.0
31
0
0
LINE
8
equipment
10
97850.0
20
132940.0
30
0
11
97850.0
21
135240.0
31
0
0
LINE
8
equipment
10
99650.0
20
132940.0
30
0
11
97850.0
21
132940.0
31
0
0
LINE
8
equipment
10
99650.0
20
135240.0
30
0
11
97850.0
21
135240.0
31
0
0
LINE
8
equipment
10
97749.99999999999
20
136140.0
30
0
11
97775.06999999999
21
136140.0
31
0
0
LINE
8
equipment
10
97775.06999999999
20
136140.0
30
0
11
97849.03
21
136140.0
31
0
0
LINE
8
equipment
10
97849.03
20
136140.0
30
0
11
97968.17
21
136140.0
31
0
0
LINE
8
equipment
10
97968.17
20
136140.0
30
0
11
98126.51000000001
21
136140.0
31
0
0
LINE
8
equipment
10
98126.51000000001
20
136140.0
30
0
11
98316.12000000001
21
136140.0
31
0
0
LINE
8
equipment
10
98316.12000000001
20
136140.0
30
0
11
98527.48000000001
21
136140.0
31
0
0
LINE
8
equipment
10
98527.48000000001
20
136140.0
30
0
11
98750.00000000001
21
136140.0
31
0
0
LINE
8
equipment
10
98750.00000000001
20
136140.0
30
0
11
98972.51999999999
21
136140.0
31
0
0
LINE
8
equipment
10
98972.51999999999
20
136140.0
30
0
11
99183.87999999999
21
136140.0
31
0
0
LINE
8
equipment
10
99183.87999999999
20
136140.0
30
0
11
99373.48999999999
21
136140.0
31
0
0
LINE
8
equipment
10
99373.48999999999
20
136140.0
30
0
11
99531.83000000002
21
136140.0
31
0
0
LINE
8
equipment
10
99531.83000000002
20
136140.0
30
0
11
99650.96999999999
21
136140.0
31
0
0
LINE
8
equipment
10
99650.96999999999
20
136140.0
30
0
11
99724.93
21
136140.0
31
0
0
LINE
8
equipment
10
99724.93
20
136140.0
30
0
11
99750.0
21
136140.0
31
0
0
LINE
8
equipment
10
97450.0
20
132940.0
30
0
11
97450.0
21
135240.0
31
0
0
LINE
8
equipment
10
95650.0
20
132940.0
30
0
11
95650.0
21
135240.0
31
0
0
LINE
8
equipment
10
97450.0
20
132940.0
30
0
11
95650.0
21
132940.0
31
0
0
LINE
8
equipment
10
97450.0
20
135240.0
30
0
11
95650.0
21
135240.0
31
0
0
LINE
8
equipment
10
96210.0
20
136140.0
30
0
11
96235.06999999999
21
136140.0
31
0
0
LINE
8
equipment
10
96235.06999999999
20
136140.0
30
0
11
96309.03
21
136140.0
31
0
0
LINE
8
equipment
10
96309.03
20
136140.0
30
0
11
96428.17000000001
21
136140.0
31
0
0
LINE
8
equipment
10
96428.17000000001
20
136140.0
30
0
11
96586.51000000001
21
136140.0
31
0
0
LINE
8
equipment
10
96586.51000000001
20
136140.0
30
0
11
96776.12000000001
21
136140.0
31
0
0
LINE
8
equipment
10
96776.12000000001
20
136140.0
30
0
11
96987.48000000001
21
136140.0
31
0
0
LINE
8
equipment
10
96987.48000000001
20
136140.0
30
0
11
97210.00000000001
21
136140.0
31
0
0
LINE
8
equipment
10
97210.00000000001
20
136140.0
30
0
11
97432.52
21
136140.0
31
0
0
LINE
8
equipment
10
97432.52
20
136140.0
30
0
11
97643.88
21
136140.0
31
0
0
LINE
8
equipment
10
97643.88
20
136140.0
30
0
11
97833.49
21
136140.0
31
0
0
LINE
8
equipment
10
97833.49
20
136140.0
30
0
11
97991.83
21
136140.0
31
0
0
LINE
8
equipment
10
97991.83
20
136140.0
30
0
11
98110.97
21
136140.0
31
0
0
LINE
8
equipment
10
98110.97
20
136140.0
30
0
11
98184.93000000001
21
136140.0
31
0
0
LINE
8
equipment
10
98184.93000000001
20
136140.0
30
0
11
98210.0
21
136140.0
31
0
0
LINE
8
equipment
10
96210.0
20
135840.0
30
0
11
96210.0
21
136140.0
31
0
0
LINE
8
equipment
10
102050.0
20
132840.0
30
0
11
102050.0
21
132920.0
31
0
0
LINE
8
equipment
10
95450.0
20
132840.0
30
0
11
95450.0
21
132920.0
31
0
0
LINE
8
equipment
10
102050.0
20
132840.0
30
0
11
95450.0
21
132840.0
31
0
0
LINE
8
equipment
10
102050.0
20
132920.0
30
0
11
95450.0
21
132920.0
31
0
0
LINE
8
equipment
10
102050.0
20
133090.0
30
0
11
102050.0
21
133170.0
31
0
0
LINE
8
equipment
10
95450.0
20
133090.0
30
0
11
95450.0
21
133170.0
31
0
0
LINE
8
equipment
10
102050.0
20
133090.0
30
0
11
101850.00000000001
21
133090.0
31
0
0
LINE
8
equipment
10
100050.0
20
133090.0
30
0
11
99650.0
21
133090.0
31
0
0
LINE
8
equipment
10
97850.0
20
133090.0
30
0
11
97450.0
21
133090.0
31
0
0
LINE
8
equipment
10
95650.0
20
133090.0
30
0
11
95450.0
21
133090.0
31
0
0
LINE
8
equipment
10
102050.0
20
133170.0
30
0
11
101850.00000000001
21
133170.0
31
0
0
LINE
8
equipment
10
100050.0
20
133170.0
30
0
11
99650.0
21
133170.0
31
0
0
LINE
8
equipment
10
97850.0
20
133170.0
30
0
11
97450.0
21
133170.0
31
0
0
LINE
8
equipment
10
95650.0
20
133170.0
30
0
11
95450.0
21
133170.0
31
0
0
LINE
8
equipment
10
102050.0
20
133340.0
30
0
11
102050.0
21
133420.0
31
0
0
LINE
8
equipment
10
95450.0
20
133340.0
30
0
11
95450.0
21
133420.0
31
0
0
LINE
8
equipment
10
102050.0
20
133340.0
30
0
11
101850.00000000001
21
133340.0
31
0
0
LINE
8
equipment
10
100050.0
20
133340.0
30
0
11
99650.0
21
133340.0
31
0
0
LINE
8
equipment
10
97850.0
20
133340.0
30
0
11
97450.0
21
133340.0
31
0
0
LINE
8
equipment
10
95650.0
20
133340.0
30
0
11
95450.0
21
133340.0
31
0
0
LINE
8
equipment
10
102050.0
20
133420.0
30
0
11
101850.00000000001
21
133420.0
31
0
0
LINE
8
equipment
10
100050.0
20
133420.0
30
0
11
99650.0
21
133420.0
31
0
0
LINE
8
equipment
10
97850.0
20
133420.0
30
0
11
97450.0
21
133420.0
31
0
0
LINE
8
equipment
10
95650.0
20
133420.0
30
0
11
95450.0
21
133420.0
31
0
0
LINE
8
equipment
10
102050.0
20
133590.0
30
0
11
102050.0
21
133670.0
31
0
0
LINE
8
equipment
10
95450.0
20
133590.0
30
0
11
95450.0
21
133670.0
31
0
0
LINE
8
equipment
10
102050.0
20
133590.0
30
0
11
101850.00000000001
21
133590.0
31
0
0
LINE
8
equipment
10
100050.0
20
133590.0
30
0
11
99650.0
21
133590.0
31
0
0
LINE
8
equipment
10
97850.0
20
133590.0
30
0
11
97450.0
21
133590.0
31
0
0
LINE
8
equipment
10
95650.0
20
133590.0
30
0
11
95450.0
21
133590.0
31
0
0
LINE
8
equipment
10
102050.0
20
133670.0
30
0
11
101850.00000000001
21
133670.0
31
0
0
LINE
8
equipment
10
100050.0
20
133670.0
30
0
11
99650.0
21
133670.0
31
0
0
LINE
8
equipment
10
97850.0
20
133670.0
30
0
11
97450.0
21
133670.0
31
0
0
LINE
8
equipment
10
95650.0
20
133670.0
30
0
11
95450.0
21
133670.0
31
0
0
LINE
8
equipment
10
102050.0
20
133840.0
30
0
11
102050.0
21
133920.0
31
0
0
LINE
8
equipment
10
95450.0
20
133840.0
30
0
11
95450.0
21
133920.0
31
0
0
LINE
8
equipment
10
102050.0
20
133840.0
30
0
11
101850.00000000001
21
133840.0
31
0
0
LINE
8
equipment
10
100050.0
20
133840.0
30
0
11
99650.0
21
133840.0
31
0
0
LINE
8
equipment
10
97850.0
20
133840.0
30
0
11
97450.0
21
133840.0
31
0
0
LINE
8
equipment
10
95650.0
20
133840.0
30
0
11
95450.0
21
133840.0
31
0
0
LINE
8
equipment
10
102050.0
20
133920.0
30
0
11
101850.00000000001
21
133920.0
31
0
0
LINE
8
equipment
10
100050.0
20
133920.0
30
0
11
99650.0
21
133920.0
31
0
0
LINE
8
equipment
10
97850.0
20
133920.0
30
0
11
97450.0
21
133920.0
31
0
0
LINE
8
equipment
10
95650.0
20
133920.0
30
0
11
95450.0
21
133920.0
31
0
0
LINE
8
equipment
10
102050.0
20
134090.0
30
0
11
102050.0
21
134170.0
31
0
0
LINE
8
equipment
10
95450.0
20
134090.0
30
0
11
95450.0
21
134170.0
31
0
0
LINE
8
equipment
10
102050.0
20
134090.0
30
0
11
101850.00000000001
21
134090.0
31
0
0
LINE
8
equipment
10
100050.0
20
134090.0
30
0
11
99650.0
21
134090.0
31
0
0
LINE
8
equipment
10
97850.0
20
134090.0
30
0
11
97450.0
21
134090.0
31
0
0
LINE
8
equipment
10
95650.0
20
134090.0
30
0
11
95450.0
21
134090.0
31
0
0
LINE
8
equipment
10
102050.0
20
134170.0
30
0
11
101850.00000000001
21
134170.0
31
0
0
LINE
8
equipment
10
100050.0
20
134170.0
30
0
11
99650.0
21
134170.0
31
0
0
LINE
8
equipment
10
97850.0
20
134170.0
30
0
11
97450.0
21
134170.0
31
0
0
LINE
8
equipment
10
95650.0
20
134170.0
30
0
11
95450.0
21
134170.0
31
0
0
LINE
8
equipment
10
102050.0
20
134340.0
30
0
11
102050.0
21
134420.0
31
0
0
LINE
8
equipment
10
95450.0
20
134340.0
30
0
11
95450.0
21
134420.0
31
0
0
LINE
8
equipment
10
102050.0
20
134340.0
30
0
11
101850.00000000001
21
134340.0
31
0
0
LINE
8
equipment
10
100050.0
20
134340.0
30
0
11
99650.0
21
134340.0
31
0
0
LINE
8
equipment
10
97850.0
20
134340.0
30
0
11
97450.0
21
134340.0
31
0
0
LINE
8
equipment
10
95650.0
20
134340.0
30
0
11
95450.0
21
134340.0
31
0
0
LINE
8
equipment
10
102050.0
20
134420.0
30
0
11
101850.00000000001
21
134420.0
31
0
0
LINE
8
equipment
10
100050.0
20
134420.0
30
0
11
99650.0
21
134420.0
31
0
0
LINE
8
equipment
10
97850.0
20
134420.0
30
0
11
97450.0
21
134420.0
31
0
0
LINE
8
equipment
10
95650.0
20
134420.0
30
0
11
95450.0
21
134420.0
31
0
0
LINE
8
equipment
10
102050.0
20
134590.0
30
0
11
102050.0
21
134670.0
31
0
0
LINE
8
equipment
10
95450.0
20
134590.0
30
0
11
95450.0
21
134670.0
31
0
0
LINE
8
equipment
10
102050.0
20
134590.0
30
0
11
101850.00000000001
21
134590.0
31
0
0
LINE
8
equipment
10
100050.0
20
134590.0
30
0
11
99650.0
21
134590.0
31
0
0
LINE
8
equipment
10
97850.0
20
134590.0
30
0
11
97450.0
21
134590.0
31
0
0
LINE
8
equipment
10
95650.0
20
134590.0
30
0
11
95450.0
21
134590.0
31
0
0
LINE
8
equipment
10
102050.0
20
134670.0
30
0
11
101850.00000000001
21
134670.0
31
0
0
LINE
8
equipment
10
100050.0
20
134670.0
30
0
11
99650.0
21
134670.0
31
0
0
LINE
8
equipment
10
97850.0
20
134670.0
30
0
11
97450.0
21
134670.0
31
0
0
LINE
8
equipment
10
95650.0
20
134670.0
30
0
11
95450.0
21
134670.0
31
0
0
LINE
8
equipment
10
102050.0
20
134840.0
30
0
11
102050.0
21
134920.0
31
0
0
LINE
8
equipment
10
95450.0
20
134840.0
30
0
11
95450.0
21
134920.0
31
0
0
LINE
8
equipment
10
102050.0
20
134840.0
30
0
11
101850.00000000001
21
134840.0
31
0
0
LINE
8
equipment
10
100050.0
20
134840.0
30
0
11
99650.0
21
134840.0
31
0
0
LINE
8
equipment
10
97850.0
20
134840.0
30
0
11
97450.0
21
134840.0
31
0
0
LINE
8
equipment
10
95650.0
20
134840.0
30
0
11
95450.0
21
134840.0
31
0
0
LINE
8
equipment
10
102050.0
20
134920.0
30
0
11
101850.00000000001
21
134920.0
31
0
0
LINE
8
equipment
10
100050.0
20
134920.0
30
0
11
99650.0
21
134920.0
31
0
0
LINE
8
equipment
10
97850.0
20
134920.0
30
0
11
97450.0
21
134920.0
31
0
0
LINE
8
equipment
10
95650.0
20
134920.0
30
0
11
95450.0
21
134920.0
31
0
0
LINE
8
equipment
10
102050.0
20
135090.0
30
0
11
102050.0
21
135170.0
31
0
0
LINE
8
equipment
10
95450.0
20
135090.0
30
0
11
95450.0
21
135170.0
31
0
0
LINE
8
equipment
10
102050.0
20
135090.0
30
0
11
101850.00000000001
21
135090.0
31
0
0
LINE
8
equipment
10
100050.0
20
135090.0
30
0
11
99650.0
21
135090.0
31
0
0
LINE
8
equipment
10
97850.0
20
135090.0
30
0
11
97450.0
21
135090.0
31
0
0
LINE
8
equipment
10
95650.0
20
135090.0
30
0
11
95450.0
21
135090.0
31
0
0
LINE
8
equipment
10
102050.0
20
135170.0
30
0
11
101850.00000000001
21
135170.0
31
0
0
LINE
8
equipment
10
100050.0
20
135170.0
30
0
11
99650.0
21
135170.0
31
0
0
LINE
8
equipment
10
97850.0
20
135170.0
30
0
11
97450.0
21
135170.0
31
0
0
LINE
8
equipment
10
95650.0
20
135170.0
30
0
11
95450.0
21
135170.0
31
0
0
LINE
8
equipment
10
84650.0
20
132040.0
30
0
11
84650.0
21
132540.0
31
0
0
LINE
8
equipment
10
76850.0
20
132040.0
30
0
11
76850.0
21
132540.0
31
0
0
LINE
8
equipment
10
84650.0
20
132040.0
30
0
11
76850.0
21
132040.0
31
0
0
LINE
8
equipment
10
84650.0
20
132540.0
30
0
11
76850.0
21
132540.0
31
0
0
LINE
8
equipment
10
84250.0
20
132540.0
30
0
11
84250.0
21
135840.0
31
0
0
LINE
8
equipment
10
77250.0
20
132540.0
30
0
11
77250.0
21
135840.0
31
0
0
LINE
8
equipment
10
84250.0
20
135840.0
30
0
11
77250.0
21
135840.0
31
0
0
LINE
8
equipment
10
83850.0
20
132940.0
30
0
11
83850.0
21
135240.0
31
0
0
LINE
8
equipment
10
82050.0
20
132940.0
30
0
11
82050.0
21
135240.0
31
0
0
LINE
8
equipment
10
83850.0
20
132940.0
30
0
11
82050.0
21
132940.0
31
0
0
LINE
8
equipment
10
83850.0
20
135240.0
30
0
11
82050.0
21
135240.0
31
0
0
LINE
8
equipment
10
81290.0
20
136140.0
30
0
11
81315.07
21
136140.0
31
0
0
LINE
8
equipment
10
81315.07
20
136140.0
30
0
11
81389.03
21
136140.0
31
0
0
LINE
8
equipment
10
81389.03
20
136140.0
30
0
11
81508.17
21
136140.0
31
0
0
LINE
8
equipment
10
81508.17
20
136140.0
30
0
11
81666.51
21
136140.0
31
0
0
LINE
8
equipment
10
81666.51
20
136140.0
30
0
11
81856.12
21
136140.0
31
0
0
LINE
8
equipment
10
81856.12
20
136140.0
30
0
11
82067.48
21
136140.0
31
0
0
LINE
8
equipment
10
82067.48
20
136140.0
30
0
11
82290.0
21
136140.0
31
0
0
LINE
8
equipment
10
82290.0
20
136140.0
30
0
11
82512.52
21
136140.0
31
0
0
LINE
8
equipment
10
82512.52
20
136140.0
30
0
11
82723.88
21
136140.0
31
0
0
LINE
8
equipment
10
82723.88
20
136140.0
30
0
11
82913.49
21
136140.0
31
0
0
LINE
8
equipment
10
82913.49
20
136140.0
30
0
11
83071.83
21
136140.0
31
0
0
LINE
8
equipment
10
83071.83
20
136140.0
30
0
11
83190.97
21
136140.0
31
0
0
LINE
8
equipment
10
83190.97
20
136140.0
30
0
11
83264.93
21
136140.0
31
0
0
LINE
8
equipment
10
83264.93
20
136140.0
30
0
11
83290.0
21
136140.0
31
0
0
LINE
8
equipment
10
81650.0
20
132940.0
30
0
11
81650.0
21
135240.0
31
0
0
LINE
8
equipment
10
79850.0
20
132940.0
30
0
11
79850.0
21
135240.0
31
0
0
LINE
8
equipment
10
81650.0
20
132940.0
30
0
11
79850.0
21
132940.0
31
0
0
LINE
8
equipment
10
81650.0
20
135240.0
30
0
11
79850.0
21
135240.0
31
0
0
LINE
8
equipment
10
79750.0
20
136140.0
30
0
11
79775.07
21
136140.0
31
0
0
LINE
8
equipment
10
79775.07
20
136140.0
30
0
11
79849.03
21
136140.0
31
0
0
LINE
8
equipment
10
79849.03
20
136140.0
30
0
11
79968.17
21
136140.0
31
0
0
LINE
8
equipment
10
79968.17
20
136140.0
30
0
11
80126.51
21
136140.0
31
0
0
LINE
8
equipment
10
80126.51
20
136140.0
30
0
11
80316.12
21
136140.0
31
0
0
LINE
8
equipment
10
80316.12
20
136140.0
30
0
11
80527.48
21
136140.0
31
0
0
LINE
8
equipment
10
80527.48
20
136140.0
30
0
11
80750.0
21
136140.0
31
0
0
LINE
8
equipment
10
80750.0
20
136140.0
30
0
11
80972.52
21
136140.0
31
0
0
LINE
8
equipment
10
80972.52
20
136140.0
30
0
11
81183.88
21
136140.0
31
0
0
LINE
8
equipment
10
81183.88
20
136140.0
30
0
11
81373.49
21
136140.0
31
0
0
LINE
8
equipment
10
81373.49
20
136140.0
30
0
11
81531.83
21
136140.0
31
0
0
LINE
8
equipment
10
81531.83
20
136140.0
30
0
11
81650.97
21
136140.0
31
0
0
LINE
8
equipment
10
81650.97
20
136140.0
30
0
11
81724.93
21
136140.0
31
0
0
LINE
8
equipment
10
81724.93
20
136140.0
30
0
11
81750.0
21
136140.0
31
0
0
LINE
8
equipment
10
79450.0
20
132940.0
30
0
11
79450.0
21
135240.0
31
0
0
LINE
8
equipment
10
77650.0
20
132940.0
30
0
11
77650.0
21
135240.0
31
0
0
LINE
8
equipment
10
79450.0
20
132940.0
30
0
11
77650.0
21
132940.0
31
0
0
LINE
8
equipment
10
79450.0
20
135240.0
30
0
11
77650.0
21
135240.0
31
0
0
LINE
8
equipment
10
78210.0
20
136140.0
30
0
11
78235.07
21
136140.0
31
0
0
LINE
8
equipment
10
78235.07
20
136140.0
30
0
11
78309.03
21
136140.0
31
0
0
LINE
8
equipment
10
78309.03
20
136140.0
30
0
11
78428.17
21
136140.0
31
0
0
LINE
8
equipment
10
78428.17
20
136140.0
30
0
11
78586.51
21
136140.0
31
0
0
LINE
8
equipment
10
78586.51
20
136140.0
30
0
11
78776.12
21
136140.0
31
0
0
LINE
8
equipment
10
78776.12
20
136140.0
30
0
11
78987.48
21
136140.0
31
0
0
LINE
8
equipment
10
78987.48
20
136140.0
30
0
11
79210.0
21
136140.0
31
0
0
LINE
8
equipment
10
79210.0
20
136140.0
30
0
11
79432.52
21
136140.0
31
0
0
LINE
8
equipment
10
79432.52
20
136140.0
30
0
11
79643.88
21
136140.0
31
0
0
LINE
8
equipment
10
79643.88
20
136140.0
30
0
11
79833.49
21
136140.0
31
0
0
LINE
8
equipment
10
79833.49
20
136140.0
30
0
11
79991.83
21
136140.0
31
0
0
LINE
8
equipment
10
79991.83
20
136140.0
30
0
11
80110.97
21
136140.0
31
0
0
LINE
8
equipment
10
80110.97
20
136140.0
30
0
11
80184.93
21
136140.0
31
0
0
LINE
8
equipment
10
80184.93
20
136140.0
30
0
11
80210.0
21
136140.0
31
0
0
LINE
8
equipment
10
78210.0
20
135840.0
30
0
11
78210.0
21
136140.0
31
0
0
LINE
8
equipment
10
84050.0
20
132840.0
30
0
11
84050.0
21
132920.0
31
0
0
LINE
8
equipment
10
77450.0
20
132840.0
30
0
11
77450.0
21
132920.0
31
0
0
LINE
8
equipment
10
84050.0
20
132840.0
30
0
11
77450.0
21
132840.0
31
0
0
LINE
8
equipment
10
84050.0
20
132920.0
30
0
11
77450.0
21
132920.0
31
0
0
LINE
8
equipment
10
84050.0
20
133090.0
30
0
11
84050.0
21
133170.0
31
0
0
LINE
8
equipment
10
77450.0
20
133090.0
30
0
11
77450.0
21
133170.0
31
0
0
LINE
8
equipment
10
84050.0
20
133090.0
30
0
11
83850.0
21
133090.0
31
0
0
LINE
8
equipment
10
82050.0
20
133090.0
30
0
11
81650.0
21
133090.0
31
0
0
LINE
8
equipment
10
79850.0
20
133090.0
30
0
11
79450.0
21
133090.0
31
0
0
LINE
8
equipment
10
77650.0
20
133090.0
30
0
11
77450.0
21
133090.0
31
0
0
LINE
8
equipment
10
84050.0
20
133170.0
30
0
11
83850.0
21
133170.0
31
0
0
LINE
8
equipment
10
82050.0
20
133170.0
30
0
11
81650.0
21
133170.0
31
0
0
LINE
8
equipment
10
79850.0
20
133170.0
30
0
11
79450.0
21
133170.0
31
0
0
LINE
8
equipment
10
77650.0
20
133170.0
30
0
11
77450.0
21
133170.0
31
0
0
LINE
8
equipment
10
84050.0
20
133340.0
30
0
11
84050.0
21
133420.0
31
0
0
LINE
8
equipment
10
77450.0
20
133340.0
30
0
11
77450.0
21
133420.0
31
0
0
LINE
8
equipment
10
84050.0
20
133340.0
30
0
11
83850.0
21
133340.0
31
0
0
LINE
8
equipment
10
82050.0
20
133340.0
30
0
11
81650.0
21
133340.0
31
0
0
LINE
8
equipment
10
79850.0
20
133340.0
30
0
11
79450.0
21
133340.0
31
0
0
LINE
8
equipment
10
77650.0
20
133340.0
30
0
11
77450.0
21
133340.0
31
0
0
LINE
8
equipment
10
84050.0
20
133420.0
30
0
11
83850.0
21
133420.0
31
0
0
LINE
8
equipment
10
82050.0
20
133420.0
30
0
11
81650.0
21
133420.0
31
0
0
LINE
8
equipment
10
79850.0
20
133420.0
30
0
11
79450.0
21
133420.0
31
0
0
LINE
8
equipment
10
77650.0
20
133420.0
30
0
11
77450.0
21
133420.0
31
0
0
LINE
8
equipment
10
84050.0
20
133590.0
30
0
11
84050.0
21
133670.0
31
0
0
LINE
8
equipment
10
77450.0
20
133590.0
30
0
11
77450.0
21
133670.0
31
0
0
LINE
8
equipment
10
84050.0
20
133590.0
30
0
11
83850.0
21
133590.0
31
0
0
LINE
8
equipment
10
82050.0
20
133590.0
30
0
11
81650.0
21
133590.0
31
0
0
LINE
8
equipment
10
79850.0
20
133590.0
30
0
11
79450.0
21
133590.0
31
0
0
LINE
8
equipment
10
77650.0
20
133590.0
30
0
11
77450.0
21
133590.0
31
0
0
LINE
8
equipment
10
84050.0
20
133670.0
30
0
11
83850.0
21
133670.0
31
0
0
LINE
8
equipment
10
82050.0
20
133670.0
30
0
11
81650.0
21
133670.0
31
0
0
LINE
8
equipment
10
79850.0
20
133670.0
30
0
11
79450.0
21
133670.0
31
0
0
LINE
8
equipment
10
77650.0
20
133670.0
30
0
11
77450.0
21
133670.0
31
0
0
LINE
8
equipment
10
84050.0
20
133840.0
30
0
11
84050.0
21
133920.0
31
0
0
LINE
8
equipment
10
77450.0
20
133840.0
30
0
11
77450.0
21
133920.0
31
0
0
LINE
8
equipment
10
84050.0
20
133840.0
30
0
11
83850.0
21
133840.0
31
0
0
LINE
8
equipment
10
82050.0
20
133840.0
30
0
11
81650.0
21
133840.0
31
0
0
LINE
8
equipment
10
79850.0
20
133840.0
30
0
11
79450.0
21
133840.0
31
0
0
LINE
8
equipment
10
77650.0
20
133840.0
30
0
11
77450.0
21
133840.0
31
0
0
LINE
8
equipment
10
84050.0
20
133920.0
30
0
11
83850.0
21
133920.0
31
0
0
LINE
8
equipment
10
82050.0
20
133920.0
30
0
11
81650.0
21
133920.0
31
0
0
LINE
8
equipment
10
79850.0
20
133920.0
30
0
11
79450.0
21
133920.0
31
0
0
LINE
8
equipment
10
77650.0
20
133920.0
30
0
11
77450.0
21
133920.0
31
0
0
LINE
8
equipment
10
84050.0
20
134090.0
30
0
11
84050.0
21
134170.0
31
0
0
LINE
8
equipment
10
77450.0
20
134090.0
30
0
11
77450.0
21
134170.0
31
0
0
LINE
8
equipment
10
84050.0
20
134090.0
30
0
11
83850.0
21
134090.0
31
0
0
LINE
8
equipment
10
82050.0
20
134090.0
30
0
11
81650.0
21
134090.0
31
0
0
LINE
8
equipment
10
79850.0
20
134090.0
30
0
11
79450.0
21
134090.0
31
0
0
LINE
8
equipment
10
77650.0
20
134090.0
30
0
11
77450.0
21
134090.0
31
0
0
LINE
8
equipment
10
84050.0
20
134170.0
30
0
11
83850.0
21
134170.0
31
0
0
LINE
8
equipment
10
82050.0
20
134170.0
30
0
11
81650.0
21
134170.0
31
0
0
LINE
8
equipment
10
79850.0
20
134170.0
30
0
11
79450.0
21
134170.0
31
0
0
LINE
8
equipment
10
77650.0
20
134170.0
30
0
11
77450.0
21
134170.0
31
0
0
LINE
8
equipment
10
84050.0
20
134340.0
30
0
11
84050.0
21
134420.0
31
0
0
LINE
8
equipment
10
77450.0
20
134340.0
30
0
11
77450.0
21
134420.0
31
0
0
LINE
8
equipment
10
84050.0
20
134340.0
30
0
11
83850.0
21
134340.0
31
0
0
LINE
8
equipment
10
82050.0
20
134340.0
30
0
11
81650.0
21
134340.0
31
0
0
LINE
8
equipment
10
79850.0
20
134340.0
30
0
11
79450.0
21
134340.0
31
0
0
LINE
8
equipment
10
77650.0
20
134340.0
30
0
11
77450.0
21
134340.0
31
0
0
LINE
8
equipment
10
84050.0
20
134420.0
30
0
11
83850.0
21
134420.0
31
0
0
LINE
8
equipment
10
82050.0
20
134420.0
30
0
11
81650.0
21
134420.0
31
0
0
LINE
8
equipment
10
79850.0
20
134420.0
30
0
11
79450.0
21
134420.0
31
0
0
LINE
8
equipment
10
77650.0
20
134420.0
30
0
11
77450.0
21
134420.0
31
0
0
LINE
8
equipment
10
84050.0
20
134590.0
30
0
11
84050.0
21
134670.0
31
0
0
LINE
8
equipment
10
77450.0
20
134590.0
30
0
11
77450.0
21
134670.0
31
0
0
LINE
8
equipment
10
84050.0
20
134590.0
30
0
11
83850.0
21
134590.0
31
0
0
LINE
8
equipment
10
82050.0
20
134590.0
30
0
11
81650.0
21
134590.0
31
0
0
LINE
8
equipment
10
79850.0
20
134590.0
30
0
11
79450.0
21
134590.0
31
0
0
LINE
8
equipment
10
77650.0
20
134590.0
30
0
11
77450.0
21
134590.0
31
0
0
LINE
8
equipment
10
84050.0
20
134670.0
30
0
11
83850.0
21
134670.0
31
0
0
LINE
8
equipment
10
82050.0
20
134670.0
30
0
11
81650.0
21
134670.0
31
0
0
LINE
8
equipment
10
79850.0
20
134670.0
30
0
11
79450.0
21
134670.0
31
0
0
LINE
8
equipment
10
77650.0
20
134670.0
30
0
11
77450.0
21
134670.0
31
0
0
LINE
8
equipment
10
84050.0
20
134840.0
30
0
11
84050.0
21
134920.0
31
0
0
LINE
8
equipment
10
77450.0
20
134840.0
30
0
11
77450.0
21
134920.0
31
0
0
LINE
8
equipment
10
84050.0
20
134840.0
30
0
11
83850.0
21
134840.0
31
0
0
LINE
8
equipment
10
82050.0
20
134840.0
30
0
11
81650.0
21
134840.0
31
0
0
LINE
8
equipment
10
79850.0
20
134840.0
30
0
11
79450.0
21
134840.0
31
0
0
LINE
8
equipment
10
77650.0
20
134840.0
30
0
11
77450.0
21
134840.0
31
0
0
LINE
8
equipment
10
84050.0
20
134920.0
30
0
11
83850.0
21
134920.0
31
0
0
LINE
8
equipment
10
82050.0
20
134920.0
30
0
11
81650.0
21
134920.0
31
0
0
LINE
8
equipment
10
79850.0
20
134920.0
30
0
11
79450.0
21
134920.0
31
0
0
LINE
8
equipment
10
77650.0
20
134920.0
30
0
11
77450.0
21
134920.0
31
0
0
LINE
8
equipment
10
84050.0
20
135090.0
30
0
11
84050.0
21
135170.0
31
0
0
LINE
8
equipment
10
77450.0
20
135090.0
30
0
11
77450.0
21
135170.0
31
0
0
LINE
8
equipment
10
84050.0
20
135090.0
30
0
11
83850.0
21
135090.0
31
0
0
LINE
8
equipment
10
82050.0
20
135090.0
30
0
11
81650.0
21
135090.0
31
0
0
LINE
8
equipment
10
79850.0
20
135090.0
30
0
11
79450.0
21
135090.0
31
0
0
LINE
8
equipment
10
77650.0
20
135090.0
30
0
11
77450.0
21
135090.0
31
0
0
LINE
8
equipment
10
84050.0
20
135170.0
30
0
11
83850.0
21
135170.0
31
0
0
LINE
8
equipment
10
82050.0
20
135170.0
30
0
11
81650.0
21
135170.0
31
0
0
LINE
8
equipment
10
79850.0
20
135170.0
30
0
11
79450.0
21
135170.0
31
0
0
LINE
8
equipment
10
77650.0
20
135170.0
30
0
11
77450.0
21
135170.0
31
0
0
LINE
8
envelope
10
198250.0
20
102440.0
30
0
11
198250.0
21
138440.0
31
0
0
LINE
8
envelope
10
189250.0
20
102440.0
30
0
11
189250.0
21
138440.0
31
0
0
LINE
8
envelope
10
198250.0
20
102440.0
30
0
11
189250.0
21
102440.0
31
0
0
LINE
8
envelope
10
198250.0
20
138440.0
30
0
11
189250.0
21
138440.0
31
0
0
LINE
8
envelope
10
252750.0
20
102440.0
30
0
11
252750.0
21
133440.0
31
0
0
LINE
8
envelope
10
240750.0
20
102440.0
30
0
11
240750.0
21
133440.0
31
0
0
LINE
8
envelope
10
252750.0
20
102440.0
30
0
11
240750.0
21
102440.0
31
0
0
LINE
8
envelope
10
252750.0
20
133440.0
30
0
11
240750.0
21
133440.0
31
0
0
LINE
8
envelope
10
118250.0
20
102440.0
30
0
11
118250.0
21
138440.0
31
0
0
LINE
8
envelope
10
109250.0
20
102440.0
30
0
11
109250.0
21
138440.0
31
0
0
LINE
8
envelope
10
118250.0
20
102440.0
30
0
11
109250.0
21
102440.0
31
0
0
LINE
8
envelope
10
118250.0
20
138440.0
30
0
11
109250.0
21
138440.0
31
0
0
LINE
8
envelope
10
66750.0
20
102440.0
30
0
11
66750.0
21
133440.0
31
0
0
LINE
8
envelope
10
54750.0
20
102440.0
30
0
11
54750.0
21
133440.0
31
0
0
LINE
8
envelope
10
66750.0
20
102440.0
30
0
11
54750.0
21
102440.0
31
0
0
LINE
8
envelope
10
66750.0
20
133440.0
30
0
11
54750.0
21
133440.0
31
0
0
LINE
8
roof
10
124750.0
20
140560.0
30
0
11
182750.0
21
140560.0
31
0
0
LINE
8
roof
10
182750.0
20
137040.0
30
0
11
182750.0
21
137160.0
31
0
0
LINE
8
roof
10
124750.0
20
137040.0
30
0
11
124750.0
21
137160.0
31
0
0
LINE
8
roof
10
182750.0
20
137040.0
30
0
11
124750.0
21
137040.0
31
0
0
LINE
8
roof
10
182750.0
20
137160.0
30
0
11
124750.0
21
137160.0
31
0
0
LINE
8
roof
10
124750.0
20
137160.0
30
0
11
124750.0
21
140560.0
31
0
0
LINE
8
roof
10
182750.0
20
140560.0
30
0
11
182750.0
21
137160.0
31
0
0
LINE
8
roof
10
172750.0
20
109640.0
30
0
11
172750.0
21
110240.00000000001
31
0
0
LINE
8
roof
10
134750.0
20
109640.0
30
0
11
134750.0
21
110240.00000000001
31
0
0
LINE
8
roof
10
172750.0
20
109640.0
30
0
11
134750.0
21
109640.0
31
0
0
LINE
8
roof
10
172750.0
20
110240.00000000001
30
0
11
134750.0
21
110240.00000000001
31
0
0
LINE
8
glazing
10
157750.0
20
103640.0
30
0
11
157750.0
21
107640.00000000001
31
0
0
LINE
8
glazing
10
155750.0
20
103640.0
30
0
11
155750.0
21
107640.00000000001
31
0
0
LINE
8
glazing
10
157750.0
20
103640.0
30
0
11
155750.0
21
103640.0
31
0
0
LINE
8
glazing
10
157750.0
20
107640.00000000001
30
0
11
155750.0
21
107640.00000000001
31
0
0
LINE
8
glazing
10
153750.0
20
103640.0
30
0
11
153750.0
21
107640.00000000001
31
0
0
LINE
8
glazing
10
155750.0
20
103640.0
30
0
11
153750.0
21
103640.0
31
0
0
LINE
8
glazing
10
155750.0
20
107640.00000000001
30
0
11
153750.0
21
107640.00000000001
31
0
0
LINE
8
glazing
10
151750.0
20
103640.0
30
0
11
151750.0
21
107640.00000000001
31
0
0
LINE
8
glazing
10
153750.0
20
103640.0
30
0
11
151750.0
21
103640.0
31
0
0
LINE
8
glazing
10
153750.0
20
107640.00000000001
30
0
11
151750.0
21
107640.00000000001
31
0
0
LINE
8
glazing
10
149750.0
20
103640.0
30
0
11
149750.0
21
107640.00000000001
31
0
0
LINE
8
glazing
10
151750.0
20
103640.0
30
0
11
149750.0
21
103640.0
31
0
0
LINE
8
glazing
10
151750.0
20
107640.00000000001
30
0
11
149750.0
21
107640.00000000001
31
0
0
LINE
8
grid
10
254250.0
20
103640.0
30
0
11
266250.0
21
103640.0
31
0
0
TEXT
8
annotation
10
255562.5
20
104539.99999999999
30
0
40
1875.0
1
PODIUM +1.20m
50
0
0
LINE
8
grid
10
254250.0
20
131440.0
30
0
11
266250.0
21
131440.0
31
0
0
TEXT
8
annotation
10
253687.5
20
132340.0
30
0
40
1875.0
1
WING RF +29.00m
50
0
0
LINE
8
grid
10
254250.0
20
136440.0
30
0
11
266250.0
21
136440.0
31
0
0
TEXT
8
annotation
10
251812.5
20
137340.0
30
0
40
1875.0
1
ATRIUM RF +34.00m
50
0
0
LINE
8
grid
10
254250.0
20
140440.0
30
0
11
266250.0
21
140440.0
31
0
0
TEXT
8
annotation
10
255562.5
20
141340.0
30
0
40
1875.0
1
RIDGE +38.00m
50
0
0
LINE
8
dimension
10
54750.0
20
94190.0
30
0
11
252750.0
21
94190.0
31
0
0
LINE
8
dimension
10
54000.0
20
93440.0
30
0
11
55500.0
21
94940.0
31
0
0
LINE
8
dimension
10
252000.0
20
93440.0
30
0
11
253500.0
21
94940.0
31
0
0
TEXT
8
annotation
10
140812.5
20
95315.0
30
0
40
2250.0
1
198,000 mm shown extent
50
0
0
LINE
8
frame
10
10500
20
44250
30
0
11
304500
21
44250
31
0
0
TEXT
8
annotation
10
10500
20
38250
30
0
40
2625.0
1
CONCEPT DESIGN | IMAGE-INFERRED | NOT FOR CONSTRUCTION
50
0
0
TEXT
8
annotation
10
10500
20
28500.0
30
0
40
1987.5
1
Source: two campus AI images + fab1.jpg; official analogues documented in analysis/cad/.
50
0
0
TEXT
8
annotation
10
10500
20
25200.00000000002
30
0
40
1987.5
1
CAD model in mm; site coordinates X east, Y north, Z up. Internal layouts and member sizes are design estimates.
50
0
0
TEXT
8
annotation
10
10500
20
21899.999999999993
30
0
40
1987.5
1
Plans/sections are extracted from actual FreeCAD BRep. Elevations project component outlines; hidden edges omitted per component.
50
0
0
TEXT
8
annotation
10
10500
20
18600.000000000007
30
0
40
1987.5
1
Civic wing roofs and skylight may differ from the nominal building height; inspect actual geometry and parameter aliases.
50
0
0
TEXT
8
annotation
10
10500
20
15299.999999999984
30
0
40
1987.5
1
No process certification, structural verification, measured survey, or construction approval is implied.
50
0
0
TEXT
8
annotation
10
267750.0
20
8250
30
0
40
2100.0
1
2026-09-30  |  FreeCAD 1.1.4  |  mm
50
0
0
ENDSEC
0
EOF
