0
SECTION
2
HEADER
9
$ACADVER
1
AC1009
9
$INSUNITS
70
4
0
ENDSEC
0
SECTION
2
ENTITIES
0
LINE
8
frame
10
5250
20
217500
30
0
11
309750
21
217500
31
0
0
LINE
8
frame
10
309750
20
217500
30
0
11
309750
21
5250
31
0
0
LINE
8
frame
10
309750
20
5250
30
0
11
5250
21
5250
31
0
0
LINE
8
frame
10
5250
20
5250
30
0
11
5250
21
217500
31
0
0
TEXT
8
annotation
10
10500
20
209250
30
0
40
3150.0
1
PHOENIX SCIENCE PARK
50
0
0
TEXT
8
annotation
10
10500
20
203250
30
0
40
3750.0
1
HQ / Floor plan
50
0
0
TEXT
8
annotation
10
290100.0
20
209250
30
0
40
2400.0
1
A3  |  1:750
50
0
0
TEXT
8
annotation
10
284250.0
20
203250
30
0
40
2250.0
1
CAD-HQ-PLAN  /  R1
50
0
0
LINE
8
frame
10
10500
20
199500
30
0
11
304500
21
199500
31
0
0
LINE
8
cut
10
118830.0
20
92560.0
30
0
11
118830.0
21
92440.0
31
0
0
LINE
8
cut
10
118830.0
20
92560.0
30
0
11
122169.99999999999
21
92560.0
31
0
0
LINE
8
cut
10
118830.0
20
92440.0
30
0
11
122169.99999999999
21
92440.0
31
0
0
LINE
8
cut
10
122169.99999999999
20
92560.0
30
0
11
122169.99999999999
21
92440.0
31
0
0
LINE
8
cut
10
122330.00000000001
20
92560.0
30
0
11
122330.00000000001
21
92440.0
31
0
0
LINE
8
cut
10
122330.00000000001
20
92560.0
30
0
11
125670.0
21
92560.0
31
0
0
LINE
8
cut
10
122330.00000000001
20
92440.0
30
0
11
125670.0
21
92440.0
31
0
0
LINE
8
cut
10
125670.0
20
92560.0
30
0
11
125670.0
21
92440.0
31
0
0
LINE
8
cut
10
125830.0
20
92560.0
30
0
11
125830.0
21
92440.0
31
0
0
LINE
8
cut
10
125830.0
20
92560.0
30
0
11
129170.0
21
92560.0
31
0
0
LINE
8
cut
10
125830.0
20
92440.0
30
0
11
129170.0
21
92440.0
31
0
0
LINE
8
cut
10
129170.0
20
92560.0
30
0
11
129170.0
21
92440.0
31
0
0
LINE
8
cut
10
129330.0
20
92560.0
30
0
11
129330.0
21
92440.0
31
0
0
LINE
8
cut
10
129330.0
20
92560.0
30
0
11
132670.0
21
92560.0
31
0
0
LINE
8
cut
10
129330.0
20
92440.0
30
0
11
132670.0
21
92440.0
31
0
0
LINE
8
cut
10
132670.0
20
92560.0
30
0
11
132670.0
21
92440.0
31
0
0
LINE
8
cut
10
132830.0
20
92560.0
30
0
11
132830.0
21
92440.0
31
0
0
LINE
8
cut
10
132830.0
20
92560.0
30
0
11
136170.0
21
92560.0
31
0
0
LINE
8
cut
10
132830.0
20
92440.0
30
0
11
136170.0
21
92440.0
31
0
0
LINE
8
cut
10
136170.0
20
92560.0
30
0
11
136170.0
21
92440.0
31
0
0
LINE
8
cut
10
136330.0
20
92560.0
30
0
11
136330.0
21
92440.0
31
0
0
LINE
8
cut
10
136330.0
20
92560.0
30
0
11
139670.0
21
92560.0
31
0
0
LINE
8
cut
10
136330.0
20
92440.0
30
0
11
139670.0
21
92440.0
31
0
0
LINE
8
cut
10
139670.0
20
92560.0
30
0
11
139670.0
21
92440.0
31
0
0
LINE
8
cut
10
139830.0
20
92560.0
30
0
11
139830.0
21
92440.0
31
0
0
LINE
8
cut
10
139830.0
20
92560.0
30
0
11
143170.0
21
92560.0
31
0
0
LINE
8
cut
10
139830.0
20
92440.0
30
0
11
143170.0
21
92440.0
31
0
0
LINE
8
cut
10
143170.0
20
92560.0
30
0
11
143170.0
21
92440.0
31
0
0
LINE
8
cut
10
143330.0
20
92560.0
30
0
11
143330.0
21
92440.0
31
0
0
LINE
8
cut
10
143330.0
20
92560.0
30
0
11
146670.0
21
92560.0
31
0
0
LINE
8
cut
10
143330.0
20
92440.0
30
0
11
146670.0
21
92440.0
31
0
0
LINE
8
cut
10
146670.0
20
92560.0
30
0
11
146670.0
21
92440.0
31
0
0
LINE
8
cut
10
146830.0
20
92560.0
30
0
11
146830.0
21
92440.0
31
0
0
LINE
8
cut
10
146830.0
20
92560.0
30
0
11
150170.0
21
92560.0
31
0
0
LINE
8
cut
10
146830.0
20
92440.0
30
0
11
150170.0
21
92440.0
31
0
0
LINE
8
cut
10
150170.0
20
92560.0
30
0
11
150170.0
21
92440.0
31
0
0
LINE
8
cut
10
150330.0
20
92560.0
30
0
11
150330.0
21
92440.0
31
0
0
LINE
8
cut
10
150330.0
20
92560.0
30
0
11
153670.0
21
92560.0
31
0
0
LINE
8
cut
10
150330.0
20
92440.0
30
0
11
153670.0
21
92440.0
31
0
0
LINE
8
cut
10
153670.0
20
92560.0
30
0
11
153670.0
21
92440.0
31
0
0
LINE
8
cut
10
153830.0
20
92560.0
30
0
11
153830.0
21
92440.0
31
0
0
LINE
8
cut
10
153830.0
20
92560.0
30
0
11
157170.0
21
92560.0
31
0
0
LINE
8
cut
10
153830.0
20
92440.0
30
0
11
157170.0
21
92440.0
31
0
0
LINE
8
cut
10
157170.0
20
92560.0
30
0
11
157170.0
21
92440.0
31
0
0
LINE
8
cut
10
157330.0
20
92560.0
30
0
11
157330.0
21
92440.0
31
0
0
LINE
8
cut
10
157330.0
20
92560.0
30
0
11
160670.0
21
92560.0
31
0
0
LINE
8
cut
10
157330.0
20
92440.0
30
0
11
160670.0
21
92440.0
31
0
0
LINE
8
cut
10
160670.0
20
92560.0
30
0
11
160670.0
21
92440.0
31
0
0
LINE
8
cut
10
160830.0
20
92560.0
30
0
11
160830.0
21
92440.0
31
0
0
LINE
8
cut
10
160830.0
20
92560.0
30
0
11
164170.0
21
92560.0
31
0
0
LINE
8
cut
10
160830.0
20
92440.0
30
0
11
164170.0
21
92440.0
31
0
0
LINE
8
cut
10
164170.0
20
92560.0
30
0
11
164170.0
21
92440.0
31
0
0
LINE
8
cut
10
164330.0
20
92560.0
30
0
11
164330.0
21
92440.0
31
0
0
LINE
8
cut
10
164330.0
20
92560.0
30
0
11
167670.0
21
92560.0
31
0
0
LINE
8
cut
10
164330.0
20
92440.0
30
0
11
167670.0
21
92440.0
31
0
0
LINE
8
cut
10
167670.0
20
92560.0
30
0
11
167670.0
21
92440.0
31
0
0
LINE
8
cut
10
167830.0
20
92560.0
30
0
11
167830.0
21
92440.0
31
0
0
LINE
8
cut
10
167830.0
20
92560.0
30
0
11
171170.0
21
92560.0
31
0
0
LINE
8
cut
10
167830.0
20
92440.0
30
0
11
171170.0
21
92440.0
31
0
0
LINE
8
cut
10
171170.0
20
92560.0
30
0
11
171170.0
21
92440.0
31
0
0
LINE
8
cut
10
171330.0
20
92560.0
30
0
11
171330.0
21
92440.0
31
0
0
LINE
8
cut
10
171330.0
20
92560.0
30
0
11
174670.0
21
92560.0
31
0
0
LINE
8
cut
10
171330.0
20
92440.0
30
0
11
174670.0
21
92440.0
31
0
0
LINE
8
cut
10
174670.0
20
92560.0
30
0
11
174670.0
21
92440.0
31
0
0
LINE
8
cut
10
174830.0
20
92560.0
30
0
11
174830.0
21
92440.0
31
0
0
LINE
8
cut
10
174830.0
20
92560.0
30
0
11
178170.0
21
92560.0
31
0
0
LINE
8
cut
10
174830.0
20
92440.0
30
0
11
178170.0
21
92440.0
31
0
0
LINE
8
cut
10
178170.0
20
92560.0
30
0
11
178170.0
21
92440.0
31
0
0
LINE
8
cut
10
178330.0
20
92560.0
30
0
11
178330.0
21
92440.0
31
0
0
LINE
8
cut
10
178330.0
20
92560.0
30
0
11
181670.0
21
92560.0
31
0
0
LINE
8
cut
10
178330.0
20
92440.0
30
0
11
181670.0
21
92440.0
31
0
0
LINE
8
cut
10
181670.0
20
92560.0
30
0
11
181670.0
21
92440.0
31
0
0
LINE
8
cut
10
181830.0
20
92560.0
30
0
11
181830.0
21
92440.0
31
0
0
LINE
8
cut
10
181830.0
20
92560.0
30
0
11
185170.0
21
92560.0
31
0
0
LINE
8
cut
10
181830.0
20
92440.0
30
0
11
185170.0
21
92440.0
31
0
0
LINE
8
cut
10
185170.0
20
92560.0
30
0
11
185170.0
21
92440.0
31
0
0
LINE
8
cut
10
185330.0
20
92560.0
30
0
11
185330.0
21
92440.0
31
0
0
LINE
8
cut
10
185330.0
20
92560.0
30
0
11
188670.0
21
92560.0
31
0
0
LINE
8
cut
10
185330.0
20
92440.0
30
0
11
188670.0
21
92440.0
31
0
0
LINE
8
cut
10
188670.0
20
92560.0
30
0
11
188670.0
21
92440.0
31
0
0
LINE
8
cut
10
118690.0
20
92480.0
30
0
11
118690.0
21
92160.0
31
0
0
LINE
8
cut
10
118690.0
20
92480.0
30
0
11
118810.0
21
92480.0
31
0
0
LINE
8
cut
10
118690.0
20
92160.0
30
0
11
118810.0
21
92160.0
31
0
0
LINE
8
cut
10
118810.0
20
92480.0
30
0
11
118810.0
21
92160.0
31
0
0
LINE
8
cut
10
122190.00000000001
20
92480.0
30
0
11
122190.00000000001
21
92160.0
31
0
0
LINE
8
cut
10
122190.00000000001
20
92480.0
30
0
11
122309.99999999999
21
92480.0
31
0
0
LINE
8
cut
10
122190.00000000001
20
92160.0
30
0
11
122309.99999999999
21
92160.0
31
0
0
LINE
8
cut
10
122309.99999999999
20
92480.0
30
0
11
122309.99999999999
21
92160.0
31
0
0
LINE
8
cut
10
125690.0
20
92480.0
30
0
11
125690.0
21
92160.0
31
0
0
LINE
8
cut
10
125690.0
20
92480.0
30
0
11
125810.0
21
92480.0
31
0
0
LINE
8
cut
10
125690.0
20
92160.0
30
0
11
125810.0
21
92160.0
31
0
0
LINE
8
cut
10
125810.0
20
92480.0
30
0
11
125810.0
21
92160.0
31
0
0
LINE
8
cut
10
129190.0
20
92480.0
30
0
11
129190.0
21
92160.0
31
0
0
LINE
8
cut
10
129190.0
20
92480.0
30
0
11
129310.0
21
92480.0
31
0
0
LINE
8
cut
10
129190.0
20
92160.0
30
0
11
129310.0
21
92160.0
31
0
0
LINE
8
cut
10
129310.0
20
92480.0
30
0
11
129310.0
21
92160.0
31
0
0
LINE
8
cut
10
132690.0
20
92480.0
30
0
11
132690.0
21
92160.0
31
0
0
LINE
8
cut
10
132690.0
20
92480.0
30
0
11
132810.0
21
92480.0
31
0
0
LINE
8
cut
10
132690.0
20
92160.0
30
0
11
132810.0
21
92160.0
31
0
0
LINE
8
cut
10
132810.0
20
92480.0
30
0
11
132810.0
21
92160.0
31
0
0
LINE
8
cut
10
136190.0
20
92480.0
30
0
11
136190.0
21
92160.0
31
0
0
LINE
8
cut
10
136190.0
20
92480.0
30
0
11
136310.0
21
92480.0
31
0
0
LINE
8
cut
10
136190.0
20
92160.0
30
0
11
136310.0
21
92160.0
31
0
0
LINE
8
cut
10
136310.0
20
92480.0
30
0
11
136310.0
21
92160.0
31
0
0
LINE
8
cut
10
139690.0
20
92480.0
30
0
11
139690.0
21
92160.0
31
0
0
LINE
8
cut
10
139690.0
20
92480.0
30
0
11
139810.0
21
92480.0
31
0
0
LINE
8
cut
10
139690.0
20
92160.0
30
0
11
139810.0
21
92160.0
31
0
0
LINE
8
cut
10
139810.0
20
92480.0
30
0
11
139810.0
21
92160.0
31
0
0
LINE
8
cut
10
143190.0
20
92480.0
30
0
11
143190.0
21
92160.0
31
0
0
LINE
8
cut
10
143190.0
20
92480.0
30
0
11
143310.0
21
92480.0
31
0
0
LINE
8
cut
10
143190.0
20
92160.0
30
0
11
143310.0
21
92160.0
31
0
0
LINE
8
cut
10
143310.0
20
92480.0
30
0
11
143310.0
21
92160.0
31
0
0
LINE
8
cut
10
146690.0
20
92480.0
30
0
11
146690.0
21
92160.0
31
0
0
LINE
8
cut
10
146690.0
20
92480.0
30
0
11
146810.0
21
92480.0
31
0
0
LINE
8
cut
10
146690.0
20
92160.0
30
0
11
146810.0
21
92160.0
31
0
0
LINE
8
cut
10
146810.0
20
92480.0
30
0
11
146810.0
21
92160.0
31
0
0
LINE
8
cut
10
150190.0
20
92480.0
30
0
11
150190.0
21
92160.0
31
0
0
LINE
8
cut
10
150190.0
20
92480.0
30
0
11
150310.0
21
92480.0
31
0
0
LINE
8
cut
10
150190.0
20
92160.0
30
0
11
150310.0
21
92160.0
31
0
0
LINE
8
cut
10
150310.0
20
92480.0
30
0
11
150310.0
21
92160.0
31
0
0
LINE
8
cut
10
153690.0
20
92480.0
30
0
11
153690.0
21
92160.0
31
0
0
LINE
8
cut
10
153690.0
20
92480.0
30
0
11
153810.0
21
92480.0
31
0
0
LINE
8
cut
10
153690.0
20
92160.0
30
0
11
153810.0
21
92160.0
31
0
0
LINE
8
cut
10
153810.0
20
92480.0
30
0
11
153810.0
21
92160.0
31
0
0
LINE
8
cut
10
157190.0
20
92480.0
30
0
11
157190.0
21
92160.0
31
0
0
LINE
8
cut
10
157190.0
20
92480.0
30
0
11
157310.0
21
92480.0
31
0
0
LINE
8
cut
10
157190.0
20
92160.0
30
0
11
157310.0
21
92160.0
31
0
0
LINE
8
cut
10
157310.0
20
92480.0
30
0
11
157310.0
21
92160.0
31
0
0
LINE
8
cut
10
160690.0
20
92480.0
30
0
11
160690.0
21
92160.0
31
0
0
LINE
8
cut
10
160690.0
20
92480.0
30
0
11
160810.0
21
92480.0
31
0
0
LINE
8
cut
10
160690.0
20
92160.0
30
0
11
160810.0
21
92160.0
31
0
0
LINE
8
cut
10
160810.0
20
92480.0
30
0
11
160810.0
21
92160.0
31
0
0
LINE
8
cut
10
164190.0
20
92480.0
30
0
11
164190.0
21
92160.0
31
0
0
LINE
8
cut
10
164190.0
20
92480.0
30
0
11
164310.0
21
92480.0
31
0
0
LINE
8
cut
10
164190.0
20
92160.0
30
0
11
164310.0
21
92160.0
31
0
0
LINE
8
cut
10
164310.0
20
92480.0
30
0
11
164310.0
21
92160.0
31
0
0
LINE
8
cut
10
167690.0
20
92480.0
30
0
11
167690.0
21
92160.0
31
0
0
LINE
8
cut
10
167690.0
20
92480.0
30
0
11
167810.0
21
92480.0
31
0
0
LINE
8
cut
10
167690.0
20
92160.0
30
0
11
167810.0
21
92160.0
31
0
0
LINE
8
cut
10
167810.0
20
92480.0
30
0
11
167810.0
21
92160.0
31
0
0
LINE
8
cut
10
171190.0
20
92480.0
30
0
11
171190.0
21
92160.0
31
0
0
LINE
8
cut
10
171190.0
20
92480.0
30
0
11
171310.0
21
92480.0
31
0
0
LINE
8
cut
10
171190.0
20
92160.0
30
0
11
171310.0
21
92160.0
31
0
0
LINE
8
cut
10
171310.0
20
92480.0
30
0
11
171310.0
21
92160.0
31
0
0
LINE
8
cut
10
174690.0
20
92480.0
30
0
11
174690.0
21
92160.0
31
0
0
LINE
8
cut
10
174690.0
20
92480.0
30
0
11
174810.0
21
92480.0
31
0
0
LINE
8
cut
10
174690.0
20
92160.0
30
0
11
174810.0
21
92160.0
31
0
0
LINE
8
cut
10
174810.0
20
92480.0
30
0
11
174810.0
21
92160.0
31
0
0
LINE
8
cut
10
178190.0
20
92480.0
30
0
11
178190.0
21
92160.0
31
0
0
LINE
8
cut
10
178190.0
20
92480.0
30
0
11
178310.0
21
92480.0
31
0
0
LINE
8
cut
10
178190.0
20
92160.0
30
0
11
178310.0
21
92160.0
31
0
0
LINE
8
cut
10
178310.0
20
92480.0
30
0
11
178310.0
21
92160.0
31
0
0
LINE
8
cut
10
181690.0
20
92480.0
30
0
11
181690.0
21
92160.0
31
0
0
LINE
8
cut
10
181690.0
20
92480.0
30
0
11
181810.0
21
92480.0
31
0
0
LINE
8
cut
10
181690.0
20
92160.0
30
0
11
181810.0
21
92160.0
31
0
0
LINE
8
cut
10
181810.0
20
92480.0
30
0
11
181810.0
21
92160.0
31
0
0
LINE
8
cut
10
185190.0
20
92480.0
30
0
11
185190.0
21
92160.0
31
0
0
LINE
8
cut
10
185190.0
20
92480.0
30
0
11
185310.0
21
92480.0
31
0
0
LINE
8
cut
10
185190.0
20
92160.0
30
0
11
185310.0
21
92160.0
31
0
0
LINE
8
cut
10
185310.0
20
92480.0
30
0
11
185310.0
21
92160.0
31
0
0
LINE
8
cut
10
188690.0
20
92480.0
30
0
11
188690.0
21
92160.0
31
0
0
LINE
8
cut
10
188690.0
20
92480.0
30
0
11
188810.0
21
92480.0
31
0
0
LINE
8
cut
10
188690.0
20
92160.0
30
0
11
188810.0
21
92160.0
31
0
0
LINE
8
cut
10
188810.0
20
92480.0
30
0
11
188810.0
21
92160.0
31
0
0
LINE
8
cut
10
118600.0
20
150500.0
30
0
11
118600.0
21
92500.0
31
0
0
LINE
8
cut
10
118600.0
20
150500.0
30
0
11
118900.0
21
150500.0
31
0
0
LINE
8
cut
10
118600.0
20
92500.0
30
0
11
118900.0
21
92500.0
31
0
0
LINE
8
cut
10
118900.0
20
150500.0
30
0
11
118900.0
21
92500.0
31
0
0
LINE
8
cut
10
118830.0
20
150560.0
30
0
11
118830.0
21
150440.0
31
0
0
LINE
8
cut
10
118830.0
20
150560.0
30
0
11
122169.99999999999
21
150560.0
31
0
0
LINE
8
cut
10
118830.0
20
150440.0
30
0
11
122169.99999999999
21
150440.0
31
0
0
LINE
8
cut
10
122169.99999999999
20
150560.0
30
0
11
122169.99999999999
21
150440.0
31
0
0
LINE
8
cut
10
122330.00000000001
20
150560.0
30
0
11
122330.00000000001
21
150440.0
31
0
0
LINE
8
cut
10
122330.00000000001
20
150560.0
30
0
11
125670.0
21
150560.0
31
0
0
LINE
8
cut
10
122330.00000000001
20
150440.0
30
0
11
125670.0
21
150440.0
31
0
0
LINE
8
cut
10
125670.0
20
150560.0
30
0
11
125670.0
21
150440.0
31
0
0
LINE
8
cut
10
125830.0
20
150560.0
30
0
11
125830.0
21
150440.0
31
0
0
LINE
8
cut
10
125830.0
20
150560.0
30
0
11
129170.0
21
150560.0
31
0
0
LINE
8
cut
10
125830.0
20
150440.0
30
0
11
129170.0
21
150440.0
31
0
0
LINE
8
cut
10
129170.0
20
150560.0
30
0
11
129170.0
21
150440.0
31
0
0
LINE
8
cut
10
129330.0
20
150560.0
30
0
11
129330.0
21
150440.0
31
0
0
LINE
8
cut
10
129330.0
20
150560.0
30
0
11
132670.0
21
150560.0
31
0
0
LINE
8
cut
10
129330.0
20
150440.0
30
0
11
132670.0
21
150440.0
31
0
0
LINE
8
cut
10
132670.0
20
150560.0
30
0
11
132670.0
21
150440.0
31
0
0
LINE
8
cut
10
132830.0
20
150560.0
30
0
11
132830.0
21
150440.0
31
0
0
LINE
8
cut
10
132830.0
20
150560.0
30
0
11
136170.0
21
150560.0
31
0
0
LINE
8
cut
10
132830.0
20
150440.0
30
0
11
136170.0
21
150440.0
31
0
0
LINE
8
cut
10
136170.0
20
150560.0
30
0
11
136170.0
21
150440.0
31
0
0
LINE
8
cut
10
136330.0
20
150560.0
30
0
11
136330.0
21
150440.0
31
0
0
LINE
8
cut
10
136330.0
20
150560.0
30
0
11
139670.0
21
150560.0
31
0
0
LINE
8
cut
10
136330.0
20
150440.0
30
0
11
139670.0
21
150440.0
31
0
0
LINE
8
cut
10
139670.0
20
150560.0
30
0
11
139670.0
21
150440.0
31
0
0
LINE
8
cut
10
139830.0
20
150560.0
30
0
11
139830.0
21
150440.0
31
0
0
LINE
8
cut
10
139830.0
20
150560.0
30
0
11
143170.0
21
150560.0
31
0
0
LINE
8
cut
10
139830.0
20
150440.0
30
0
11
143170.0
21
150440.0
31
0
0
LINE
8
cut
10
143170.0
20
150560.0
30
0
11
143170.0
21
150440.0
31
0
0
LINE
8
cut
10
143330.0
20
150560.0
30
0
11
143330.0
21
150440.0
31
0
0
LINE
8
cut
10
143330.0
20
150560.0
30
0
11
146670.0
21
150560.0
31
0
0
LINE
8
cut
10
143330.0
20
150440.0
30
0
11
146670.0
21
150440.0
31
0
0
LINE
8
cut
10
146670.0
20
150560.0
30
0
11
146670.0
21
150440.0
31
0
0
LINE
8
cut
10
146830.0
20
150560.0
30
0
11
146830.0
21
150440.0
31
0
0
LINE
8
cut
10
146830.0
20
150560.0
30
0
11
150170.0
21
150560.0
31
0
0
LINE
8
cut
10
146830.0
20
150440.0
30
0
11
150170.0
21
150440.0
31
0
0
LINE
8
cut
10
150170.0
20
150560.0
30
0
11
150170.0
21
150440.0
31
0
0
LINE
8
cut
10
150330.0
20
150560.0
30
0
11
150330.0
21
150440.0
31
0
0
LINE
8
cut
10
150330.0
20
150560.0
30
0
11
153670.0
21
150560.0
31
0
0
LINE
8
cut
10
150330.0
20
150440.0
30
0
11
153670.0
21
150440.0
31
0
0
LINE
8
cut
10
153670.0
20
150560.0
30
0
11
153670.0
21
150440.0
31
0
0
LINE
8
cut
10
153830.0
20
150560.0
30
0
11
153830.0
21
150440.0
31
0
0
LINE
8
cut
10
153830.0
20
150560.0
30
0
11
157170.0
21
150560.0
31
0
0
LINE
8
cut
10
153830.0
20
150440.0
30
0
11
157170.0
21
150440.0
31
0
0
LINE
8
cut
10
157170.0
20
150560.0
30
0
11
157170.0
21
150440.0
31
0
0
LINE
8
cut
10
157330.0
20
150560.0
30
0
11
157330.0
21
150440.0
31
0
0
LINE
8
cut
10
157330.0
20
150560.0
30
0
11
160670.0
21
150560.0
31
0
0
LINE
8
cut
10
157330.0
20
150440.0
30
0
11
160670.0
21
150440.0
31
0
0
LINE
8
cut
10
160670.0
20
150560.0
30
0
11
160670.0
21
150440.0
31
0
0
LINE
8
cut
10
160830.0
20
150560.0
30
0
11
160830.0
21
150440.0
31
0
0
LINE
8
cut
10
160830.0
20
150560.0
30
0
11
164170.0
21
150560.0
31
0
0
LINE
8
cut
10
160830.0
20
150440.0
30
0
11
164170.0
21
150440.0
31
0
0
LINE
8
cut
10
164170.0
20
150560.0
30
0
11
164170.0
21
150440.0
31
0
0
LINE
8
cut
10
164330.0
20
150560.0
30
0
11
164330.0
21
150440.0
31
0
0
LINE
8
cut
10
164330.0
20
150560.0
30
0
11
167670.0
21
150560.0
31
0
0
LINE
8
cut
10
164330.0
20
150440.0
30
0
11
167670.0
21
150440.0
31
0
0
LINE
8
cut
10
167670.0
20
150560.0
30
0
11
167670.0
21
150440.0
31
0
0
LINE
8
cut
10
167830.0
20
150560.0
30
0
11
167830.0
21
150440.0
31
0
0
LINE
8
cut
10
167830.0
20
150560.0
30
0
11
171170.0
21
150560.0
31
0
0
LINE
8
cut
10
167830.0
20
150440.0
30
0
11
171170.0
21
150440.0
31
0
0
LINE
8
cut
10
171170.0
20
150560.0
30
0
11
171170.0
21
150440.0
31
0
0
LINE
8
cut
10
171330.0
20
150560.0
30
0
11
171330.0
21
150440.0
31
0
0
LINE
8
cut
10
171330.0
20
150560.0
30
0
11
174670.0
21
150560.0
31
0
0
LINE
8
cut
10
171330.0
20
150440.0
30
0
11
174670.0
21
150440.0
31
0
0
LINE
8
cut
10
174670.0
20
150560.0
30
0
11
174670.0
21
150440.0
31
0
0
LINE
8
cut
10
174830.0
20
150560.0
30
0
11
174830.0
21
150440.0
31
0
0
LINE
8
cut
10
174830.0
20
150560.0
30
0
11
178170.0
21
150560.0
31
0
0
LINE
8
cut
10
174830.0
20
150440.0
30
0
11
178170.0
21
150440.0
31
0
0
LINE
8
cut
10
178170.0
20
150560.0
30
0
11
178170.0
21
150440.0
31
0
0
LINE
8
cut
10
178330.0
20
150560.0
30
0
11
178330.0
21
150440.0
31
0
0
LINE
8
cut
10
178330.0
20
150560.0
30
0
11
181670.0
21
150560.0
31
0
0
LINE
8
cut
10
178330.0
20
150440.0
30
0
11
181670.0
21
150440.0
31
0
0
LINE
8
cut
10
181670.0
20
150560.0
30
0
11
181670.0
21
150440.0
31
0
0
LINE
8
cut
10
181830.0
20
150560.0
30
0
11
181830.0
21
150440.0
31
0
0
LINE
8
cut
10
181830.0
20
150560.0
30
0
11
185170.0
21
150560.0
31
0
0
LINE
8
cut
10
181830.0
20
150440.0
30
0
11
185170.0
21
150440.0
31
0
0
LINE
8
cut
10
185170.0
20
150560.0
30
0
11
185170.0
21
150440.0
31
0
0
LINE
8
cut
10
185330.0
20
150560.0
30
0
11
185330.0
21
150440.0
31
0
0
LINE
8
cut
10
185330.0
20
150560.0
30
0
11
188670.0
21
150560.0
31
0
0
LINE
8
cut
10
185330.0
20
150440.0
30
0
11
188670.0
21
150440.0
31
0
0
LINE
8
cut
10
188670.0
20
150560.0
30
0
11
188670.0
21
150440.0
31
0
0
LINE
8
cut
10
118690.0
20
150840.0
30
0
11
118690.0
21
150520.0
31
0
0
LINE
8
cut
10
118690.0
20
150840.0
30
0
11
118810.0
21
150840.0
31
0
0
LINE
8
cut
10
118690.0
20
150520.0
30
0
11
118810.0
21
150520.0
31
0
0
LINE
8
cut
10
118810.0
20
150840.0
30
0
11
118810.0
21
150520.0
31
0
0
LINE
8
cut
10
122190.00000000001
20
150840.0
30
0
11
122190.00000000001
21
150520.0
31
0
0
LINE
8
cut
10
122190.00000000001
20
150840.0
30
0
11
122309.99999999999
21
150840.0
31
0
0
LINE
8
cut
10
122190.00000000001
20
150520.0
30
0
11
122309.99999999999
21
150520.0
31
0
0
LINE
8
cut
10
122309.99999999999
20
150840.0
30
0
11
122309.99999999999
21
150520.0
31
0
0
LINE
8
cut
10
125690.0
20
150840.0
30
0
11
125690.0
21
150520.0
31
0
0
LINE
8
cut
10
125690.0
20
150840.0
30
0
11
125810.0
21
150840.0
31
0
0
LINE
8
cut
10
125690.0
20
150520.0
30
0
11
125810.0
21
150520.0
31
0
0
LINE
8
cut
10
125810.0
20
150840.0
30
0
11
125810.0
21
150520.0
31
0
0
LINE
8
cut
10
129190.0
20
150840.0
30
0
11
129190.0
21
150520.0
31
0
0
LINE
8
cut
10
129190.0
20
150840.0
30
0
11
129310.0
21
150840.0
31
0
0
LINE
8
cut
10
129190.0
20
150520.0
30
0
11
129310.0
21
150520.0
31
0
0
LINE
8
cut
10
129310.0
20
150840.0
30
0
11
129310.0
21
150520.0
31
0
0
LINE
8
cut
10
132690.0
20
150840.0
30
0
11
132690.0
21
150520.0
31
0
0
LINE
8
cut
10
132690.0
20
150840.0
30
0
11
132810.0
21
150840.0
31
0
0
LINE
8
cut
10
132690.0
20
150520.0
30
0
11
132810.0
21
150520.0
31
0
0
LINE
8
cut
10
132810.0
20
150840.0
30
0
11
132810.0
21
150520.0
31
0
0
LINE
8
cut
10
136190.0
20
150840.0
30
0
11
136190.0
21
150520.0
31
0
0
LINE
8
cut
10
136190.0
20
150840.0
30
0
11
136310.0
21
150840.0
31
0
0
LINE
8
cut
10
136190.0
20
150520.0
30
0
11
136310.0
21
150520.0
31
0
0
LINE
8
cut
10
136310.0
20
150840.0
30
0
11
136310.0
21
150520.0
31
0
0
LINE
8
cut
10
139690.0
20
150840.0
30
0
11
139690.0
21
150520.0
31
0
0
LINE
8
cut
10
139690.0
20
150840.0
30
0
11
139810.0
21
150840.0
31
0
0
LINE
8
cut
10
139690.0
20
150520.0
30
0
11
139810.0
21
150520.0
31
0
0
LINE
8
cut
10
139810.0
20
150840.0
30
0
11
139810.0
21
150520.0
31
0
0
LINE
8
cut
10
143190.0
20
150840.0
30
0
11
143190.0
21
150520.0
31
0
0
LINE
8
cut
10
143190.0
20
150840.0
30
0
11
143310.0
21
150840.0
31
0
0
LINE
8
cut
10
143190.0
20
150520.0
30
0
11
143310.0
21
150520.0
31
0
0
LINE
8
cut
10
143310.0
20
150840.0
30
0
11
143310.0
21
150520.0
31
0
0
LINE
8
cut
10
146690.0
20
150840.0
30
0
11
146690.0
21
150520.0
31
0
0
LINE
8
cut
10
146690.0
20
150840.0
30
0
11
146810.0
21
150840.0
31
0
0
LINE
8
cut
10
146690.0
20
150520.0
30
0
11
146810.0
21
150520.0
31
0
0
LINE
8
cut
10
146810.0
20
150840.0
30
0
11
146810.0
21
150520.0
31
0
0
LINE
8
cut
10
150190.0
20
150840.0
30
0
11
150190.0
21
150520.0
31
0
0
LINE
8
cut
10
150190.0
20
150840.0
30
0
11
150310.0
21
150840.0
31
0
0
LINE
8
cut
10
150190.0
20
150520.0
30
0
11
150310.0
21
150520.0
31
0
0
LINE
8
cut
10
150310.0
20
150840.0
30
0
11
150310.0
21
150520.0
31
0
0
LINE
8
cut
10
153690.0
20
150840.0
30
0
11
153690.0
21
150520.0
31
0
0
LINE
8
cut
10
153690.0
20
150840.0
30
0
11
153810.0
21
150840.0
31
0
0
LINE
8
cut
10
153690.0
20
150520.0
30
0
11
153810.0
21
150520.0
31
0
0
LINE
8
cut
10
153810.0
20
150840.0
30
0
11
153810.0
21
150520.0
31
0
0
LINE
8
cut
10
157190.0
20
150840.0
30
0
11
157190.0
21
150520.0
31
0
0
LINE
8
cut
10
157190.0
20
150840.0
30
0
11
157310.0
21
150840.0
31
0
0
LINE
8
cut
10
157190.0
20
150520.0
30
0
11
157310.0
21
150520.0
31
0
0
LINE
8
cut
10
157310.0
20
150840.0
30
0
11
157310.0
21
150520.0
31
0
0
LINE
8
cut
10
160690.0
20
150840.0
30
0
11
160690.0
21
150520.0
31
0
0
LINE
8
cut
10
160690.0
20
150840.0
30
0
11
160810.0
21
150840.0
31
0
0
LINE
8
cut
10
160690.0
20
150520.0
30
0
11
160810.0
21
150520.0
31
0
0
LINE
8
cut
10
160810.0
20
150840.0
30
0
11
160810.0
21
150520.0
31
0
0
LINE
8
cut
10
164190.0
20
150840.0
30
0
11
164190.0
21
150520.0
31
0
0
LINE
8
cut
10
164190.0
20
150840.0
30
0
11
164310.0
21
150840.0
31
0
0
LINE
8
cut
10
164190.0
20
150520.0
30
0
11
164310.0
21
150520.0
31
0
0
LINE
8
cut
10
164310.0
20
150840.0
30
0
11
164310.0
21
150520.0
31
0
0
LINE
8
cut
10
167690.0
20
150840.0
30
0
11
167690.0
21
150520.0
31
0
0
LINE
8
cut
10
167690.0
20
150840.0
30
0
11
167810.0
21
150840.0
31
0
0
LINE
8
cut
10
167690.0
20
150520.0
30
0
11
167810.0
21
150520.0
31
0
0
LINE
8
cut
10
167810.0
20
150840.0
30
0
11
167810.0
21
150520.0
31
0
0
LINE
8
cut
10
171190.0
20
150840.0
30
0
11
171190.0
21
150520.0
31
0
0
LINE
8
cut
10
171190.0
20
150840.0
30
0
11
171310.0
21
150840.0
31
0
0
LINE
8
cut
10
171190.0
20
150520.0
30
0
11
171310.0
21
150520.0
31
0
0
LINE
8
cut
10
171310.0
20
150840.0
30
0
11
171310.0
21
150520.0
31
0
0
LINE
8
cut
10
174690.0
20
150840.0
30
0
11
174690.0
21
150520.0
31
0
0
LINE
8
cut
10
174690.0
20
150840.0
30
0
11
174810.0
21
150840.0
31
0
0
LINE
8
cut
10
174690.0
20
150520.0
30
0
11
174810.0
21
150520.0
31
0
0
LINE
8
cut
10
174810.0
20
150840.0
30
0
11
174810.0
21
150520.0
31
0
0
LINE
8
cut
10
178190.0
20
150840.0
30
0
11
178190.0
21
150520.0
31
0
0
LINE
8
cut
10
178190.0
20
150840.0
30
0
11
178310.0
21
150840.0
31
0
0
LINE
8
cut
10
178190.0
20
150520.0
30
0
11
178310.0
21
150520.0
31
0
0
LINE
8
cut
10
178310.0
20
150840.0
30
0
11
178310.0
21
150520.0
31
0
0
LINE
8
cut
10
181690.0
20
150840.0
30
0
11
181690.0
21
150520.0
31
0
0
LINE
8
cut
10
181690.0
20
150840.0
30
0
11
181810.0
21
150840.0
31
0
0
LINE
8
cut
10
181690.0
20
150520.0
30
0
11
181810.0
21
150520.0
31
0
0
LINE
8
cut
10
181810.0
20
150840.0
30
0
11
181810.0
21
150520.0
31
0
0
LINE
8
cut
10
185190.0
20
150840.0
30
0
11
185190.0
21
150520.0
31
0
0
LINE
8
cut
10
185190.0
20
150840.0
30
0
11
185310.0
21
150840.0
31
0
0
LINE
8
cut
10
185190.0
20
150520.0
30
0
11
185310.0
21
150520.0
31
0
0
LINE
8
cut
10
185310.0
20
150840.0
30
0
11
185310.0
21
150520.0
31
0
0
LINE
8
cut
10
188690.0
20
150840.0
30
0
11
188690.0
21
150520.0
31
0
0
LINE
8
cut
10
188690.0
20
150840.0
30
0
11
188810.0
21
150840.0
31
0
0
LINE
8
cut
10
188690.0
20
150520.0
30
0
11
188810.0
21
150520.0
31
0
0
LINE
8
cut
10
188810.0
20
150840.0
30
0
11
188810.0
21
150520.0
31
0
0
LINE
8
cut
10
188600.0
20
150500.0
30
0
11
188600.0
21
92500.0
31
0
0
LINE
8
cut
10
188600.0
20
150500.0
30
0
11
188900.0
21
150500.0
31
0
0
LINE
8
cut
10
188600.0
20
92500.0
30
0
11
188900.0
21
92500.0
31
0
0
LINE
8
cut
10
188900.0
20
150500.0
30
0
11
188900.0
21
92500.0
31
0
0
LINE
8
interiors
10
139670.0
20
94500.0
30
0
11
139670.0
21
148500.0
31
0
0
LINE
8
interiors
10
139830.0
20
94500.0
30
0
11
139830.0
21
148500.0
31
0
0
LINE
8
interiors
10
139670.0
20
94500.0
30
0
11
139830.0
21
94500.0
31
0
0
LINE
8
interiors
10
139670.0
20
148500.0
30
0
11
139830.0
21
148500.0
31
0
0
LINE
8
interiors
10
167670.0
20
94500.0
30
0
11
167670.0
21
148500.0
31
0
0
LINE
8
interiors
10
167830.0
20
94500.0
30
0
11
167830.0
21
148500.0
31
0
0
LINE
8
interiors
10
167670.0
20
94500.0
30
0
11
167830.0
21
94500.0
31
0
0
LINE
8
interiors
10
167670.0
20
148500.0
30
0
11
167830.0
21
148500.0
31
0
0
LINE
8
cut
10
69325.0
20
96925.00000000001
30
0
11
69325.0
21
96075.0
31
0
0
LINE
8
cut
10
69325.0
20
96925.00000000001
30
0
11
70175.0
21
96925.00000000001
31
0
0
LINE
8
cut
10
69325.0
20
96075.0
30
0
11
70175.0
21
96075.0
31
0
0
LINE
8
cut
10
70175.0
20
96925.00000000001
30
0
11
70175.0
21
96075.0
31
0
0
LINE
8
cut
10
79325.0
20
96925.00000000001
30
0
11
79325.0
21
96075.0
31
0
0
LINE
8
cut
10
79325.0
20
96925.00000000001
30
0
11
80175.0
21
96925.00000000001
31
0
0
LINE
8
cut
10
79325.0
20
96075.0
30
0
11
80175.0
21
96075.0
31
0
0
LINE
8
cut
10
80175.0
20
96925.00000000001
30
0
11
80175.0
21
96075.0
31
0
0
LINE
8
cut
10
89325.0
20
96925.00000000001
30
0
11
89325.0
21
96075.0
31
0
0
LINE
8
cut
10
89325.0
20
96925.00000000001
30
0
11
90175.0
21
96925.00000000001
31
0
0
LINE
8
cut
10
89325.0
20
96075.0
30
0
11
90175.0
21
96075.0
31
0
0
LINE
8
cut
10
90175.0
20
96925.00000000001
30
0
11
90175.0
21
96075.0
31
0
0
LINE
8
cut
10
99325.0
20
96925.00000000001
30
0
11
99325.0
21
96075.0
31
0
0
LINE
8
cut
10
99325.0
20
96925.00000000001
30
0
11
100175.0
21
96925.00000000001
31
0
0
LINE
8
cut
10
99325.0
20
96075.0
30
0
11
100175.0
21
96075.0
31
0
0
LINE
8
cut
10
100175.0
20
96925.00000000001
30
0
11
100175.0
21
96075.0
31
0
0
LINE
8
cut
10
109324.99999999999
20
96925.00000000001
30
0
11
109324.99999999999
21
96075.0
31
0
0
LINE
8
cut
10
109324.99999999999
20
96925.00000000001
30
0
11
110175.0
21
96925.00000000001
31
0
0
LINE
8
cut
10
109324.99999999999
20
96075.0
30
0
11
110175.0
21
96075.0
31
0
0
LINE
8
cut
10
110175.0
20
96925.00000000001
30
0
11
110175.0
21
96075.0
31
0
0
LINE
8
cut
10
69325.0
20
113591.67
30
0
11
69325.0
21
112741.67
31
0
0
LINE
8
cut
10
69325.0
20
113591.67
30
0
11
70175.0
21
113591.67
31
0
0
LINE
8
cut
10
69325.0
20
112741.67
30
0
11
70175.0
21
112741.67
31
0
0
LINE
8
cut
10
70175.0
20
113591.67
30
0
11
70175.0
21
112741.67
31
0
0
LINE
8
cut
10
79325.0
20
113591.67
30
0
11
79325.0
21
112741.67
31
0
0
LINE
8
cut
10
79325.0
20
113591.67
30
0
11
80175.0
21
113591.67
31
0
0
LINE
8
cut
10
79325.0
20
112741.67
30
0
11
80175.0
21
112741.67
31
0
0
LINE
8
cut
10
80175.0
20
113591.67
30
0
11
80175.0
21
112741.67
31
0
0
LINE
8
cut
10
89325.0
20
113591.67
30
0
11
89325.0
21
112741.67
31
0
0
LINE
8
cut
10
89325.0
20
113591.67
30
0
11
90175.0
21
113591.67
31
0
0
LINE
8
cut
10
89325.0
20
112741.67
30
0
11
90175.0
21
112741.67
31
0
0
LINE
8
cut
10
90175.0
20
113591.67
30
0
11
90175.0
21
112741.67
31
0
0
LINE
8
cut
10
99325.0
20
113591.67
30
0
11
99325.0
21
112741.67
31
0
0
LINE
8
cut
10
99325.0
20
113591.67
30
0
11
100175.0
21
113591.67
31
0
0
LINE
8
cut
10
99325.0
20
112741.67
30
0
11
100175.0
21
112741.67
31
0
0
LINE
8
cut
10
100175.0
20
113591.67
30
0
11
100175.0
21
112741.67
31
0
0
LINE
8
cut
10
109324.99999999999
20
113591.67
30
0
11
109324.99999999999
21
112741.67
31
0
0
LINE
8
cut
10
109324.99999999999
20
113591.67
30
0
11
110175.0
21
113591.67
31
0
0
LINE
8
cut
10
109324.99999999999
20
112741.67
30
0
11
110175.0
21
112741.67
31
0
0
LINE
8
cut
10
110175.0
20
113591.67
30
0
11
110175.0
21
112741.67
31
0
0
LINE
8
cut
10
69325.0
20
130258.33
30
0
11
69325.0
21
129408.33
31
0
0
LINE
8
cut
10
69325.0
20
130258.33
30
0
11
70175.0
21
130258.33
31
0
0
LINE
8
cut
10
69325.0
20
129408.33
30
0
11
70175.0
21
129408.33
31
0
0
LINE
8
cut
10
70175.0
20
130258.33
30
0
11
70175.0
21
129408.33
31
0
0
LINE
8
cut
10
79325.0
20
130258.33
30
0
11
79325.0
21
129408.33
31
0
0
LINE
8
cut
10
79325.0
20
130258.33
30
0
11
80175.0
21
130258.33
31
0
0
LINE
8
cut
10
79325.0
20
129408.33
30
0
11
80175.0
21
129408.33
31
0
0
LINE
8
cut
10
80175.0
20
130258.33
30
0
11
80175.0
21
129408.33
31
0
0
LINE
8
cut
10
89325.0
20
130258.33
30
0
11
89325.0
21
129408.33
31
0
0
LINE
8
cut
10
89325.0
20
130258.33
30
0
11
90175.0
21
130258.33
31
0
0
LINE
8
cut
10
89325.0
20
129408.33
30
0
11
90175.0
21
129408.33
31
0
0
LINE
8
cut
10
90175.0
20
130258.33
30
0
11
90175.0
21
129408.33
31
0
0
LINE
8
cut
10
99325.0
20
130258.33
30
0
11
99325.0
21
129408.33
31
0
0
LINE
8
cut
10
99325.0
20
130258.33
30
0
11
100175.0
21
130258.33
31
0
0
LINE
8
cut
10
99325.0
20
129408.33
30
0
11
100175.0
21
129408.33
31
0
0
LINE
8
cut
10
100175.0
20
130258.33
30
0
11
100175.0
21
129408.33
31
0
0
LINE
8
cut
10
109324.99999999999
20
130258.33
30
0
11
109324.99999999999
21
129408.33
31
0
0
LINE
8
cut
10
109324.99999999999
20
130258.33
30
0
11
110175.0
21
130258.33
31
0
0
LINE
8
cut
10
109324.99999999999
20
129408.33
30
0
11
110175.0
21
129408.33
31
0
0
LINE
8
cut
10
110175.0
20
130258.33
30
0
11
110175.0
21
129408.33
31
0
0
LINE
8
cut
10
69325.0
20
146925.0
30
0
11
69325.0
21
146075.0
31
0
0
LINE
8
cut
10
69325.0
20
146925.0
30
0
11
70175.0
21
146925.0
31
0
0
LINE
8
cut
10
69325.0
20
146075.0
30
0
11
70175.0
21
146075.0
31
0
0
LINE
8
cut
10
70175.0
20
146925.0
30
0
11
70175.0
21
146075.0
31
0
0
LINE
8
cut
10
79325.0
20
146925.0
30
0
11
79325.0
21
146075.0
31
0
0
LINE
8
cut
10
79325.0
20
146925.0
30
0
11
80175.0
21
146925.0
31
0
0
LINE
8
cut
10
79325.0
20
146075.0
30
0
11
80175.0
21
146075.0
31
0
0
LINE
8
cut
10
80175.0
20
146925.0
30
0
11
80175.0
21
146075.0
31
0
0
LINE
8
cut
10
89325.0
20
146925.0
30
0
11
89325.0
21
146075.0
31
0
0
LINE
8
cut
10
89325.0
20
146925.0
30
0
11
90175.0
21
146925.0
31
0
0
LINE
8
cut
10
89325.0
20
146075.0
30
0
11
90175.0
21
146075.0
31
0
0
LINE
8
cut
10
90175.0
20
146925.0
30
0
11
90175.0
21
146075.0
31
0
0
LINE
8
cut
10
99325.0
20
146925.0
30
0
11
99325.0
21
146075.0
31
0
0
LINE
8
cut
10
99325.0
20
146925.0
30
0
11
100175.0
21
146925.0
31
0
0
LINE
8
cut
10
99325.0
20
146075.0
30
0
11
100175.0
21
146075.0
31
0
0
LINE
8
cut
10
100175.0
20
146925.0
30
0
11
100175.0
21
146075.0
31
0
0
LINE
8
cut
10
109324.99999999999
20
146925.0
30
0
11
109324.99999999999
21
146075.0
31
0
0
LINE
8
cut
10
109324.99999999999
20
146925.0
30
0
11
110175.0
21
146925.0
31
0
0
LINE
8
cut
10
109324.99999999999
20
146075.0
30
0
11
110175.0
21
146075.0
31
0
0
LINE
8
cut
10
110175.0
20
146925.0
30
0
11
110175.0
21
146075.0
31
0
0
LINE
8
cut
10
68330.0
20
95060.0
30
0
11
68330.0
21
94940.0
31
0
0
LINE
8
cut
10
68330.0
20
95060.0
30
0
11
71753.33
21
95060.0
31
0
0
LINE
8
cut
10
68330.0
20
94940.0
30
0
11
71753.33
21
94940.0
31
0
0
LINE
8
cut
10
71753.33
20
95060.0
30
0
11
71753.33
21
94940.0
31
0
0
LINE
8
cut
10
71913.33
20
95060.0
30
0
11
71913.33
21
94940.0
31
0
0
LINE
8
cut
10
71913.33
20
95060.0
30
0
11
75336.67
21
95060.0
31
0
0
LINE
8
cut
10
71913.33
20
94940.0
30
0
11
75336.67
21
94940.0
31
0
0
LINE
8
cut
10
75336.67
20
95060.0
30
0
11
75336.67
21
94940.0
31
0
0
LINE
8
cut
10
75496.67
20
95060.0
30
0
11
75496.67
21
94940.0
31
0
0
LINE
8
cut
10
75496.67
20
95060.0
30
0
11
78920.0
21
95060.0
31
0
0
LINE
8
cut
10
75496.67
20
94940.0
30
0
11
78920.0
21
94940.0
31
0
0
LINE
8
cut
10
78920.0
20
95060.0
30
0
11
78920.0
21
94940.0
31
0
0
LINE
8
cut
10
79080.0
20
95060.0
30
0
11
79080.0
21
94940.0
31
0
0
LINE
8
cut
10
79080.0
20
95060.0
30
0
11
82503.33
21
95060.0
31
0
0
LINE
8
cut
10
79080.0
20
94940.0
30
0
11
82503.33
21
94940.0
31
0
0
LINE
8
cut
10
82503.33
20
95060.0
30
0
11
82503.33
21
94940.0
31
0
0
LINE
8
cut
10
82663.33
20
95060.0
30
0
11
82663.33
21
94940.0
31
0
0
LINE
8
cut
10
82663.33
20
95060.0
30
0
11
86086.67
21
95060.0
31
0
0
LINE
8
cut
10
82663.33
20
94940.0
30
0
11
86086.67
21
94940.0
31
0
0
LINE
8
cut
10
86086.67
20
95060.0
30
0
11
86086.67
21
94940.0
31
0
0
LINE
8
cut
10
86246.67
20
95060.0
30
0
11
86246.67
21
94940.0
31
0
0
LINE
8
cut
10
86246.67
20
95060.0
30
0
11
89670.0
21
95060.0
31
0
0
LINE
8
cut
10
86246.67
20
94940.0
30
0
11
89670.0
21
94940.0
31
0
0
LINE
8
cut
10
89670.0
20
95060.0
30
0
11
89670.0
21
94940.0
31
0
0
LINE
8
cut
10
89830.0
20
95060.0
30
0
11
89830.0
21
94940.0
31
0
0
LINE
8
cut
10
89830.0
20
95060.0
30
0
11
93253.33
21
95060.0
31
0
0
LINE
8
cut
10
89830.0
20
94940.0
30
0
11
93253.33
21
94940.0
31
0
0
LINE
8
cut
10
93253.33
20
95060.0
30
0
11
93253.33
21
94940.0
31
0
0
LINE
8
cut
10
93413.33
20
95060.0
30
0
11
93413.33
21
94940.0
31
0
0
LINE
8
cut
10
93413.33
20
95060.0
30
0
11
96836.67000000001
21
95060.0
31
0
0
LINE
8
cut
10
93413.33
20
94940.0
30
0
11
96836.67000000001
21
94940.0
31
0
0
LINE
8
cut
10
96836.67000000001
20
95060.0
30
0
11
96836.67000000001
21
94940.0
31
0
0
LINE
8
cut
10
96996.67
20
95060.0
30
0
11
96996.67
21
94940.0
31
0
0
LINE
8
cut
10
96996.67
20
95060.0
30
0
11
100419.99999999999
21
95060.0
31
0
0
LINE
8
cut
10
96996.67
20
94940.0
30
0
11
100419.99999999999
21
94940.0
31
0
0
LINE
8
cut
10
100419.99999999999
20
95060.0
30
0
11
100419.99999999999
21
94940.0
31
0
0
LINE
8
cut
10
100580.00000000001
20
95060.0
30
0
11
100580.00000000001
21
94940.0
31
0
0
LINE
8
cut
10
100580.00000000001
20
95060.0
30
0
11
104003.33
21
95060.0
31
0
0
LINE
8
cut
10
100580.00000000001
20
94940.0
30
0
11
104003.33
21
94940.0
31
0
0
LINE
8
cut
10
104003.33
20
95060.0
30
0
11
104003.33
21
94940.0
31
0
0
LINE
8
cut
10
104163.32999999999
20
95060.0
30
0
11
104163.32999999999
21
94940.0
31
0
0
LINE
8
cut
10
104163.32999999999
20
95060.0
30
0
11
107586.67
21
95060.0
31
0
0
LINE
8
cut
10
104163.32999999999
20
94940.0
30
0
11
107586.67
21
94940.0
31
0
0
LINE
8
cut
10
107586.67
20
95060.0
30
0
11
107586.67
21
94940.0
31
0
0
LINE
8
cut
10
107746.67
20
95060.0
30
0
11
107746.67
21
94940.0
31
0
0
LINE
8
cut
10
107746.67
20
95060.0
30
0
11
111170.0
21
95060.0
31
0
0
LINE
8
cut
10
107746.67
20
94940.0
30
0
11
111170.0
21
94940.0
31
0
0
LINE
8
cut
10
111170.0
20
95060.0
30
0
11
111170.0
21
94940.0
31
0
0
LINE
8
cut
10
68190.0
20
94979.99999999999
30
0
11
68190.0
21
94660.0
31
0
0
LINE
8
cut
10
68190.0
20
94979.99999999999
30
0
11
68310.0
21
94979.99999999999
31
0
0
LINE
8
cut
10
68190.0
20
94660.0
30
0
11
68310.0
21
94660.0
31
0
0
LINE
8
cut
10
68310.0
20
94979.99999999999
30
0
11
68310.0
21
94660.0
31
0
0
LINE
8
cut
10
71773.33
20
94979.99999999999
30
0
11
71773.33
21
94660.0
31
0
0
LINE
8
cut
10
71773.33
20
94979.99999999999
30
0
11
71893.33
21
94979.99999999999
31
0
0
LINE
8
cut
10
71773.33
20
94660.0
30
0
11
71893.33
21
94660.0
31
0
0
LINE
8
cut
10
71893.33
20
94979.99999999999
30
0
11
71893.33
21
94660.0
31
0
0
LINE
8
cut
10
75356.67
20
94979.99999999999
30
0
11
75356.67
21
94660.0
31
0
0
LINE
8
cut
10
75356.67
20
94979.99999999999
30
0
11
75476.67
21
94979.99999999999
31
0
0
LINE
8
cut
10
75356.67
20
94660.0
30
0
11
75476.67
21
94660.0
31
0
0
LINE
8
cut
10
75476.67
20
94979.99999999999
30
0
11
75476.67
21
94660.0
31
0
0
LINE
8
cut
10
78940.0
20
94979.99999999999
30
0
11
78940.0
21
94660.0
31
0
0
LINE
8
cut
10
78940.0
20
94979.99999999999
30
0
11
79060.0
21
94979.99999999999
31
0
0
LINE
8
cut
10
78940.0
20
94660.0
30
0
11
79060.0
21
94660.0
31
0
0
LINE
8
cut
10
79060.0
20
94979.99999999999
30
0
11
79060.0
21
94660.0
31
0
0
LINE
8
cut
10
82523.33
20
94979.99999999999
30
0
11
82523.33
21
94660.0
31
0
0
LINE
8
cut
10
82523.33
20
94979.99999999999
30
0
11
82643.33
21
94979.99999999999
31
0
0
LINE
8
cut
10
82523.33
20
94660.0
30
0
11
82643.33
21
94660.0
31
0
0
LINE
8
cut
10
82643.33
20
94979.99999999999
30
0
11
82643.33
21
94660.0
31
0
0
LINE
8
cut
10
86106.67
20
94979.99999999999
30
0
11
86106.67
21
94660.0
31
0
0
LINE
8
cut
10
86106.67
20
94979.99999999999
30
0
11
86226.67
21
94979.99999999999
31
0
0
LINE
8
cut
10
86106.67
20
94660.0
30
0
11
86226.67
21
94660.0
31
0
0
LINE
8
cut
10
86226.67
20
94979.99999999999
30
0
11
86226.67
21
94660.0
31
0
0
LINE
8
cut
10
89690.0
20
94979.99999999999
30
0
11
89690.0
21
94660.0
31
0
0
LINE
8
cut
10
89690.0
20
94979.99999999999
30
0
11
89810.0
21
94979.99999999999
31
0
0
LINE
8
cut
10
89690.0
20
94660.0
30
0
11
89810.0
21
94660.0
31
0
0
LINE
8
cut
10
89810.0
20
94979.99999999999
30
0
11
89810.0
21
94660.0
31
0
0
LINE
8
cut
10
93273.33
20
94979.99999999999
30
0
11
93273.33
21
94660.0
31
0
0
LINE
8
cut
10
93273.33
20
94979.99999999999
30
0
11
93393.33
21
94979.99999999999
31
0
0
LINE
8
cut
10
93273.33
20
94660.0
30
0
11
93393.33
21
94660.0
31
0
0
LINE
8
cut
10
93393.33
20
94979.99999999999
30
0
11
93393.33
21
94660.0
31
0
0
LINE
8
cut
10
96856.67
20
94979.99999999999
30
0
11
96856.67
21
94660.0
31
0
0
LINE
8
cut
10
96856.67
20
94979.99999999999
30
0
11
96976.67000000001
21
94979.99999999999
31
0
0
LINE
8
cut
10
96856.67
20
94660.0
30
0
11
96976.67000000001
21
94660.0
31
0
0
LINE
8
cut
10
96976.67000000001
20
94979.99999999999
30
0
11
96976.67000000001
21
94660.0
31
0
0
LINE
8
cut
10
100440.00000000001
20
94979.99999999999
30
0
11
100440.00000000001
21
94660.0
31
0
0
LINE
8
cut
10
100440.00000000001
20
94979.99999999999
30
0
11
100559.99999999999
21
94979.99999999999
31
0
0
LINE
8
cut
10
100440.00000000001
20
94660.0
30
0
11
100559.99999999999
21
94660.0
31
0
0
LINE
8
cut
10
100559.99999999999
20
94979.99999999999
30
0
11
100559.99999999999
21
94660.0
31
0
0
LINE
8
cut
10
104023.32999999999
20
94979.99999999999
30
0
11
104023.32999999999
21
94660.0
31
0
0
LINE
8
cut
10
104023.32999999999
20
94979.99999999999
30
0
11
104143.33
21
94979.99999999999
31
0
0
LINE
8
cut
10
104023.32999999999
20
94660.0
30
0
11
104143.33
21
94660.0
31
0
0
LINE
8
cut
10
104143.33
20
94979.99999999999
30
0
11
104143.33
21
94660.0
31
0
0
LINE
8
cut
10
107606.67
20
94979.99999999999
30
0
11
107606.67
21
94660.0
31
0
0
LINE
8
cut
10
107606.67
20
94979.99999999999
30
0
11
107726.67
21
94979.99999999999
31
0
0
LINE
8
cut
10
107606.67
20
94660.0
30
0
11
107726.67
21
94660.0
31
0
0
LINE
8
cut
10
107726.67
20
94979.99999999999
30
0
11
107726.67
21
94660.0
31
0
0
LINE
8
cut
10
111190.0
20
94979.99999999999
30
0
11
111190.0
21
94660.0
31
0
0
LINE
8
cut
10
111190.0
20
94979.99999999999
30
0
11
111310.0
21
94979.99999999999
31
0
0
LINE
8
cut
10
111190.0
20
94660.0
30
0
11
111310.0
21
94660.0
31
0
0
LINE
8
cut
10
111310.0
20
94979.99999999999
30
0
11
111310.0
21
94660.0
31
0
0
LINE
8
cut
10
68100.0
20
148000.0
30
0
11
68100.0
21
95000.0
31
0
0
LINE
8
cut
10
68100.0
20
148000.0
30
0
11
68400.0
21
148000.0
31
0
0
LINE
8
cut
10
68100.0
20
95000.0
30
0
11
68400.0
21
95000.0
31
0
0
LINE
8
cut
10
68400.0
20
148000.0
30
0
11
68400.0
21
95000.0
31
0
0
LINE
8
cut
10
68330.0
20
148060.0
30
0
11
68330.0
21
147940.0
31
0
0
LINE
8
cut
10
68330.0
20
148060.0
30
0
11
71753.33
21
148060.0
31
0
0
LINE
8
cut
10
68330.0
20
147940.0
30
0
11
71753.33
21
147940.0
31
0
0
LINE
8
cut
10
71753.33
20
148060.0
30
0
11
71753.33
21
147940.0
31
0
0
LINE
8
cut
10
71913.33
20
148060.0
30
0
11
71913.33
21
147940.0
31
0
0
LINE
8
cut
10
71913.33
20
148060.0
30
0
11
75336.67
21
148060.0
31
0
0
LINE
8
cut
10
71913.33
20
147940.0
30
0
11
75336.67
21
147940.0
31
0
0
LINE
8
cut
10
75336.67
20
148060.0
30
0
11
75336.67
21
147940.0
31
0
0
LINE
8
cut
10
75496.67
20
148060.0
30
0
11
75496.67
21
147940.0
31
0
0
LINE
8
cut
10
75496.67
20
148060.0
30
0
11
78920.0
21
148060.0
31
0
0
LINE
8
cut
10
75496.67
20
147940.0
30
0
11
78920.0
21
147940.0
31
0
0
LINE
8
cut
10
78920.0
20
148060.0
30
0
11
78920.0
21
147940.0
31
0
0
LINE
8
cut
10
79080.0
20
148060.0
30
0
11
79080.0
21
147940.0
31
0
0
LINE
8
cut
10
79080.0
20
148060.0
30
0
11
82503.33
21
148060.0
31
0
0
LINE
8
cut
10
79080.0
20
147940.0
30
0
11
82503.33
21
147940.0
31
0
0
LINE
8
cut
10
82503.33
20
148060.0
30
0
11
82503.33
21
147940.0
31
0
0
LINE
8
cut
10
82663.33
20
148060.0
30
0
11
82663.33
21
147940.0
31
0
0
LINE
8
cut
10
82663.33
20
148060.0
30
0
11
86086.67
21
148060.0
31
0
0
LINE
8
cut
10
82663.33
20
147940.0
30
0
11
86086.67
21
147940.0
31
0
0
LINE
8
cut
10
86086.67
20
148060.0
30
0
11
86086.67
21
147940.0
31
0
0
LINE
8
cut
10
86246.67
20
148060.0
30
0
11
86246.67
21
147940.0
31
0
0
LINE
8
cut
10
86246.67
20
148060.0
30
0
11
89670.0
21
148060.0
31
0
0
LINE
8
cut
10
86246.67
20
147940.0
30
0
11
89670.0
21
147940.0
31
0
0
LINE
8
cut
10
89670.0
20
148060.0
30
0
11
89670.0
21
147940.0
31
0
0
LINE
8
cut
10
89830.0
20
148060.0
30
0
11
89830.0
21
147940.0
31
0
0
LINE
8
cut
10
89830.0
20
148060.0
30
0
11
93253.33
21
148060.0
31
0
0
LINE
8
cut
10
89830.0
20
147940.0
30
0
11
93253.33
21
147940.0
31
0
0
LINE
8
cut
10
93253.33
20
148060.0
30
0
11
93253.33
21
147940.0
31
0
0
LINE
8
cut
10
93413.33
20
148060.0
30
0
11
93413.33
21
147940.0
31
0
0
LINE
8
cut
10
93413.33
20
148060.0
30
0
11
96836.67000000001
21
148060.0
31
0
0
LINE
8
cut
10
93413.33
20
147940.0
30
0
11
96836.67000000001
21
147940.0
31
0
0
LINE
8
cut
10
96836.67000000001
20
148060.0
30
0
11
96836.67000000001
21
147940.0
31
0
0
LINE
8
cut
10
96996.67
20
148060.0
30
0
11
96996.67
21
147940.0
31
0
0
LINE
8
cut
10
96996.67
20
148060.0
30
0
11
100419.99999999999
21
148060.0
31
0
0
LINE
8
cut
10
96996.67
20
147940.0
30
0
11
100419.99999999999
21
147940.0
31
0
0
LINE
8
cut
10
100419.99999999999
20
148060.0
30
0
11
100419.99999999999
21
147940.0
31
0
0
LINE
8
cut
10
100580.00000000001
20
148060.0
30
0
11
100580.00000000001
21
147940.0
31
0
0
LINE
8
cut
10
100580.00000000001
20
148060.0
30
0
11
104003.33
21
148060.0
31
0
0
LINE
8
cut
10
100580.00000000001
20
147940.0
30
0
11
104003.33
21
147940.0
31
0
0
LINE
8
cut
10
104003.33
20
148060.0
30
0
11
104003.33
21
147940.0
31
0
0
LINE
8
cut
10
104163.32999999999
20
148060.0
30
0
11
104163.32999999999
21
147940.0
31
0
0
LINE
8
cut
10
104163.32999999999
20
148060.0
30
0
11
107586.67
21
148060.0
31
0
0
LINE
8
cut
10
104163.32999999999
20
147940.0
30
0
11
107586.67
21
147940.0
31
0
0
LINE
8
cut
10
107586.67
20
148060.0
30
0
11
107586.67
21
147940.0
31
0
0
LINE
8
cut
10
107746.67
20
148060.0
30
0
11
107746.67
21
147940.0
31
0
0
LINE
8
cut
10
107746.67
20
148060.0
30
0
11
111170.0
21
148060.0
31
0
0
LINE
8
cut
10
107746.67
20
147940.0
30
0
11
111170.0
21
147940.0
31
0
0
LINE
8
cut
10
111170.0
20
148060.0
30
0
11
111170.0
21
147940.0
31
0
0
LINE
8
cut
10
68190.0
20
148340.0
30
0
11
68190.0
21
148020.0
31
0
0
LINE
8
cut
10
68190.0
20
148340.0
30
0
11
68310.0
21
148340.0
31
0
0
LINE
8
cut
10
68190.0
20
148020.0
30
0
11
68310.0
21
148020.0
31
0
0
LINE
8
cut
10
68310.0
20
148340.0
30
0
11
68310.0
21
148020.0
31
0
0
LINE
8
cut
10
71773.33
20
148340.0
30
0
11
71773.33
21
148020.0
31
0
0
LINE
8
cut
10
71773.33
20
148340.0
30
0
11
71893.33
21
148340.0
31
0
0
LINE
8
cut
10
71773.33
20
148020.0
30
0
11
71893.33
21
148020.0
31
0
0
LINE
8
cut
10
71893.33
20
148340.0
30
0
11
71893.33
21
148020.0
31
0
0
LINE
8
cut
10
75356.67
20
148340.0
30
0
11
75356.67
21
148020.0
31
0
0
LINE
8
cut
10
75356.67
20
148340.0
30
0
11
75476.67
21
148340.0
31
0
0
LINE
8
cut
10
75356.67
20
148020.0
30
0
11
75476.67
21
148020.0
31
0
0
LINE
8
cut
10
75476.67
20
148340.0
30
0
11
75476.67
21
148020.0
31
0
0
LINE
8
cut
10
78940.0
20
148340.0
30
0
11
78940.0
21
148020.0
31
0
0
LINE
8
cut
10
78940.0
20
148340.0
30
0
11
79060.0
21
148340.0
31
0
0
LINE
8
cut
10
78940.0
20
148020.0
30
0
11
79060.0
21
148020.0
31
0
0
LINE
8
cut
10
79060.0
20
148340.0
30
0
11
79060.0
21
148020.0
31
0
0
LINE
8
cut
10
82523.33
20
148340.0
30
0
11
82523.33
21
148020.0
31
0
0
LINE
8
cut
10
82523.33
20
148340.0
30
0
11
82643.33
21
148340.0
31
0
0
LINE
8
cut
10
82523.33
20
148020.0
30
0
11
82643.33
21
148020.0
31
0
0
LINE
8
cut
10
82643.33
20
148340.0
30
0
11
82643.33
21
148020.0
31
0
0
LINE
8
cut
10
86106.67
20
148340.0
30
0
11
86106.67
21
148020.0
31
0
0
LINE
8
cut
10
86106.67
20
148340.0
30
0
11
86226.67
21
148340.0
31
0
0
LINE
8
cut
10
86106.67
20
148020.0
30
0
11
86226.67
21
148020.0
31
0
0
LINE
8
cut
10
86226.67
20
148340.0
30
0
11
86226.67
21
148020.0
31
0
0
LINE
8
cut
10
89690.0
20
148340.0
30
0
11
89690.0
21
148020.0
31
0
0
LINE
8
cut
10
89690.0
20
148340.0
30
0
11
89810.0
21
148340.0
31
0
0
LINE
8
cut
10
89690.0
20
148020.0
30
0
11
89810.0
21
148020.0
31
0
0
LINE
8
cut
10
89810.0
20
148340.0
30
0
11
89810.0
21
148020.0
31
0
0
LINE
8
cut
10
93273.33
20
148340.0
30
0
11
93273.33
21
148020.0
31
0
0
LINE
8
cut
10
93273.33
20
148340.0
30
0
11
93393.33
21
148340.0
31
0
0
LINE
8
cut
10
93273.33
20
148020.0
30
0
11
93393.33
21
148020.0
31
0
0
LINE
8
cut
10
93393.33
20
148340.0
30
0
11
93393.33
21
148020.0
31
0
0
LINE
8
cut
10
96856.67
20
148340.0
30
0
11
96856.67
21
148020.0
31
0
0
LINE
8
cut
10
96856.67
20
148340.0
30
0
11
96976.67000000001
21
148340.0
31
0
0
LINE
8
cut
10
96856.67
20
148020.0
30
0
11
96976.67000000001
21
148020.0
31
0
0
LINE
8
cut
10
96976.67000000001
20
148340.0
30
0
11
96976.67000000001
21
148020.0
31
0
0
LINE
8
cut
10
100440.00000000001
20
148340.0
30
0
11
100440.00000000001
21
148020.0
31
0
0
LINE
8
cut
10
100440.00000000001
20
148340.0
30
0
11
100559.99999999999
21
148340.0
31
0
0
LINE
8
cut
10
100440.00000000001
20
148020.0
30
0
11
100559.99999999999
21
148020.0
31
0
0
LINE
8
cut
10
100559.99999999999
20
148340.0
30
0
11
100559.99999999999
21
148020.0
31
0
0
LINE
8
cut
10
104023.32999999999
20
148340.0
30
0
11
104023.32999999999
21
148020.0
31
0
0
LINE
8
cut
10
104023.32999999999
20
148340.0
30
0
11
104143.33
21
148340.0
31
0
0
LINE
8
cut
10
104023.32999999999
20
148020.0
30
0
11
104143.33
21
148020.0
31
0
0
LINE
8
cut
10
104143.33
20
148340.0
30
0
11
104143.33
21
148020.0
31
0
0
LINE
8
cut
10
107606.67
20
148340.0
30
0
11
107606.67
21
148020.0
31
0
0
LINE
8
cut
10
107606.67
20
148340.0
30
0
11
107726.67
21
148340.0
31
0
0
LINE
8
cut
10
107606.67
20
148020.0
30
0
11
107726.67
21
148020.0
31
0
0
LINE
8
cut
10
107726.67
20
148340.0
30
0
11
107726.67
21
148020.0
31
0
0
LINE
8
cut
10
111190.0
20
148340.0
30
0
11
111190.0
21
148020.0
31
0
0
LINE
8
cut
10
111190.0
20
148340.0
30
0
11
111310.0
21
148340.0
31
0
0
LINE
8
cut
10
111190.0
20
148020.0
30
0
11
111310.0
21
148020.0
31
0
0
LINE
8
cut
10
111310.0
20
148340.0
30
0
11
111310.0
21
148020.0
31
0
0
LINE
8
cut
10
111100.0
20
148000.0
30
0
11
111100.0
21
95000.0
31
0
0
LINE
8
cut
10
111100.0
20
148000.0
30
0
11
111400.0
21
148000.0
31
0
0
LINE
8
cut
10
111100.0
20
95000.0
30
0
11
111400.0
21
95000.0
31
0
0
LINE
8
cut
10
111400.0
20
148000.0
30
0
11
111400.0
21
95000.0
31
0
0
LINE
8
interiors
10
81070.0
20
97000.0
30
0
11
81070.0
21
146000.0
31
0
0
LINE
8
interiors
10
81230.0
20
97000.0
30
0
11
81230.0
21
146000.0
31
0
0
LINE
8
interiors
10
81070.0
20
97000.0
30
0
11
81230.0
21
97000.0
31
0
0
LINE
8
interiors
10
81070.0
20
146000.0
30
0
11
81230.0
21
146000.0
31
0
0
LINE
8
interiors
10
98270.0
20
97000.0
30
0
11
98270.0
21
146000.0
31
0
0
LINE
8
interiors
10
98430.0
20
97000.0
30
0
11
98430.0
21
146000.0
31
0
0
LINE
8
interiors
10
98270.0
20
97000.0
30
0
11
98430.0
21
97000.0
31
0
0
LINE
8
interiors
10
98270.0
20
146000.0
30
0
11
98430.0
21
146000.0
31
0
0
LINE
8
cut
10
197325.00000000003
20
96925.00000000001
30
0
11
197325.00000000003
21
96075.0
31
0
0
LINE
8
cut
10
197325.00000000003
20
96925.00000000001
30
0
11
198175.0
21
96925.00000000001
31
0
0
LINE
8
cut
10
197325.00000000003
20
96075.0
30
0
11
198175.0
21
96075.0
31
0
0
LINE
8
cut
10
198175.0
20
96925.00000000001
30
0
11
198175.0
21
96075.0
31
0
0
LINE
8
cut
10
207325.0
20
96925.00000000001
30
0
11
207325.0
21
96075.0
31
0
0
LINE
8
cut
10
207325.0
20
96925.00000000001
30
0
11
208175.0
21
96925.00000000001
31
0
0
LINE
8
cut
10
207325.0
20
96075.0
30
0
11
208175.0
21
96075.0
31
0
0
LINE
8
cut
10
208175.0
20
96925.00000000001
30
0
11
208175.0
21
96075.0
31
0
0
LINE
8
cut
10
217325.0
20
96925.00000000001
30
0
11
217325.0
21
96075.0
31
0
0
LINE
8
cut
10
217325.0
20
96925.00000000001
30
0
11
218174.99999999997
21
96925.00000000001
31
0
0
LINE
8
cut
10
217325.0
20
96075.0
30
0
11
218174.99999999997
21
96075.0
31
0
0
LINE
8
cut
10
218174.99999999997
20
96925.00000000001
30
0
11
218174.99999999997
21
96075.0
31
0
0
LINE
8
cut
10
227325.00000000003
20
96925.00000000001
30
0
11
227325.00000000003
21
96075.0
31
0
0
LINE
8
cut
10
227325.00000000003
20
96925.00000000001
30
0
11
228175.0
21
96925.00000000001
31
0
0
LINE
8
cut
10
227325.00000000003
20
96075.0
30
0
11
228175.0
21
96075.0
31
0
0
LINE
8
cut
10
228175.0
20
96925.00000000001
30
0
11
228175.0
21
96075.0
31
0
0
LINE
8
cut
10
237325.0
20
96925.00000000001
30
0
11
237325.0
21
96075.0
31
0
0
LINE
8
cut
10
237325.0
20
96925.00000000001
30
0
11
238175.0
21
96925.00000000001
31
0
0
LINE
8
cut
10
237325.0
20
96075.0
30
0
11
238175.0
21
96075.0
31
0
0
LINE
8
cut
10
238175.0
20
96925.00000000001
30
0
11
238175.0
21
96075.0
31
0
0
LINE
8
cut
10
197325.00000000003
20
113591.67
30
0
11
197325.00000000003
21
112741.67
31
0
0
LINE
8
cut
10
197325.00000000003
20
113591.67
30
0
11
198175.0
21
113591.67
31
0
0
LINE
8
cut
10
197325.00000000003
20
112741.67
30
0
11
198175.0
21
112741.67
31
0
0
LINE
8
cut
10
198175.0
20
113591.67
30
0
11
198175.0
21
112741.67
31
0
0
LINE
8
cut
10
207325.0
20
113591.67
30
0
11
207325.0
21
112741.67
31
0
0
LINE
8
cut
10
207325.0
20
113591.67
30
0
11
208175.0
21
113591.67
31
0
0
LINE
8
cut
10
207325.0
20
112741.67
30
0
11
208175.0
21
112741.67
31
0
0
LINE
8
cut
10
208175.0
20
113591.67
30
0
11
208175.0
21
112741.67
31
0
0
LINE
8
cut
10
217325.0
20
113591.67
30
0
11
217325.0
21
112741.67
31
0
0
LINE
8
cut
10
217325.0
20
113591.67
30
0
11
218174.99999999997
21
113591.67
31
0
0
LINE
8
cut
10
217325.0
20
112741.67
30
0
11
218174.99999999997
21
112741.67
31
0
0
LINE
8
cut
10
218174.99999999997
20
113591.67
30
0
11
218174.99999999997
21
112741.67
31
0
0
LINE
8
cut
10
227325.00000000003
20
113591.67
30
0
11
227325.00000000003
21
112741.67
31
0
0
LINE
8
cut
10
227325.00000000003
20
113591.67
30
0
11
228175.0
21
113591.67
31
0
0
LINE
8
cut
10
227325.00000000003
20
112741.67
30
0
11
228175.0
21
112741.67
31
0
0
LINE
8
cut
10
228175.0
20
113591.67
30
0
11
228175.0
21
112741.67
31
0
0
LINE
8
cut
10
237325.0
20
113591.67
30
0
11
237325.0
21
112741.67
31
0
0
LINE
8
cut
10
237325.0
20
113591.67
30
0
11
238175.0
21
113591.67
31
0
0
LINE
8
cut
10
237325.0
20
112741.67
30
0
11
238175.0
21
112741.67
31
0
0
LINE
8
cut
10
238175.0
20
113591.67
30
0
11
238175.0
21
112741.67
31
0
0
LINE
8
cut
10
197325.00000000003
20
130258.33
30
0
11
197325.00000000003
21
129408.33
31
0
0
LINE
8
cut
10
197325.00000000003
20
130258.33
30
0
11
198175.0
21
130258.33
31
0
0
LINE
8
cut
10
197325.00000000003
20
129408.33
30
0
11
198175.0
21
129408.33
31
0
0
LINE
8
cut
10
198175.0
20
130258.33
30
0
11
198175.0
21
129408.33
31
0
0
LINE
8
cut
10
207325.0
20
130258.33
30
0
11
207325.0
21
129408.33
31
0
0
LINE
8
cut
10
207325.0
20
130258.33
30
0
11
208175.0
21
130258.33
31
0
0
LINE
8
cut
10
207325.0
20
129408.33
30
0
11
208175.0
21
129408.33
31
0
0
LINE
8
cut
10
208175.0
20
130258.33
30
0
11
208175.0
21
129408.33
31
0
0
LINE
8
cut
10
217325.0
20
130258.33
30
0
11
217325.0
21
129408.33
31
0
0
LINE
8
cut
10
217325.0
20
130258.33
30
0
11
218174.99999999997
21
130258.33
31
0
0
LINE
8
cut
10
217325.0
20
129408.33
30
0
11
218174.99999999997
21
129408.33
31
0
0
LINE
8
cut
10
218174.99999999997
20
130258.33
30
0
11
218174.99999999997
21
129408.33
31
0
0
LINE
8
cut
10
227325.00000000003
20
130258.33
30
0
11
227325.00000000003
21
129408.33
31
0
0
LINE
8
cut
10
227325.00000000003
20
130258.33
30
0
11
228175.0
21
130258.33
31
0
0
LINE
8
cut
10
227325.00000000003
20
129408.33
30
0
11
228175.0
21
129408.33
31
0
0
LINE
8
cut
10
228175.0
20
130258.33
30
0
11
228175.0
21
129408.33
31
0
0
LINE
8
cut
10
237325.0
20
130258.33
30
0
11
237325.0
21
129408.33
31
0
0
LINE
8
cut
10
237325.0
20
130258.33
30
0
11
238175.0
21
130258.33
31
0
0
LINE
8
cut
10
237325.0
20
129408.33
30
0
11
238175.0
21
129408.33
31
0
0
LINE
8
cut
10
238175.0
20
130258.33
30
0
11
238175.0
21
129408.33
31
0
0
LINE
8
cut
10
197325.00000000003
20
146925.0
30
0
11
197325.00000000003
21
146075.0
31
0
0
LINE
8
cut
10
197325.00000000003
20
146925.0
30
0
11
198175.0
21
146925.0
31
0
0
LINE
8
cut
10
197325.00000000003
20
146075.0
30
0
11
198175.0
21
146075.0
31
0
0
LINE
8
cut
10
198175.0
20
146925.0
30
0
11
198175.0
21
146075.0
31
0
0
LINE
8
cut
10
207325.0
20
146925.0
30
0
11
207325.0
21
146075.0
31
0
0
LINE
8
cut
10
207325.0
20
146925.0
30
0
11
208175.0
21
146925.0
31
0
0
LINE
8
cut
10
207325.0
20
146075.0
30
0
11
208175.0
21
146075.0
31
0
0
LINE
8
cut
10
208175.0
20
146925.0
30
0
11
208175.0
21
146075.0
31
0
0
LINE
8
cut
10
217325.0
20
146925.0
30
0
11
217325.0
21
146075.0
31
0
0
LINE
8
cut
10
217325.0
20
146925.0
30
0
11
218174.99999999997
21
146925.0
31
0
0
LINE
8
cut
10
217325.0
20
146075.0
30
0
11
218174.99999999997
21
146075.0
31
0
0
LINE
8
cut
10
218174.99999999997
20
146925.0
30
0
11
218174.99999999997
21
146075.0
31
0
0
LINE
8
cut
10
227325.00000000003
20
146925.0
30
0
11
227325.00000000003
21
146075.0
31
0
0
LINE
8
cut
10
227325.00000000003
20
146925.0
30
0
11
228175.0
21
146925.0
31
0
0
LINE
8
cut
10
227325.00000000003
20
146075.0
30
0
11
228175.0
21
146075.0
31
0
0
LINE
8
cut
10
228175.0
20
146925.0
30
0
11
228175.0
21
146075.0
31
0
0
LINE
8
cut
10
237325.0
20
146925.0
30
0
11
237325.0
21
146075.0
31
0
0
LINE
8
cut
10
237325.0
20
146925.0
30
0
11
238175.0
21
146925.0
31
0
0
LINE
8
cut
10
237325.0
20
146075.0
30
0
11
238175.0
21
146075.0
31
0
0
LINE
8
cut
10
238175.0
20
146925.0
30
0
11
238175.0
21
146075.0
31
0
0
LINE
8
cut
10
196329.99999999997
20
95060.0
30
0
11
196329.99999999997
21
94940.0
31
0
0
LINE
8
cut
10
196329.99999999997
20
95060.0
30
0
11
199753.33000000002
21
95060.0
31
0
0
LINE
8
cut
10
196329.99999999997
20
94940.0
30
0
11
199753.33000000002
21
94940.0
31
0
0
LINE
8
cut
10
199753.33000000002
20
95060.0
30
0
11
199753.33000000002
21
94940.0
31
0
0
LINE
8
cut
10
199913.33000000002
20
95060.0
30
0
11
199913.33000000002
21
94940.0
31
0
0
LINE
8
cut
10
199913.33000000002
20
95060.0
30
0
11
203336.67
21
95060.0
31
0
0
LINE
8
cut
10
199913.33000000002
20
94940.0
30
0
11
203336.67
21
94940.0
31
0
0
LINE
8
cut
10
203336.67
20
95060.0
30
0
11
203336.67
21
94940.0
31
0
0
LINE
8
cut
10
203496.66999999998
20
95060.0
30
0
11
203496.66999999998
21
94940.0
31
0
0
LINE
8
cut
10
203496.66999999998
20
95060.0
30
0
11
206920.0
21
95060.0
31
0
0
LINE
8
cut
10
203496.66999999998
20
94940.0
30
0
11
206920.0
21
94940.0
31
0
0
LINE
8
cut
10
206920.0
20
95060.0
30
0
11
206920.0
21
94940.0
31
0
0
LINE
8
cut
10
207080.0
20
95060.0
30
0
11
207080.0
21
94940.0
31
0
0
LINE
8
cut
10
207080.0
20
95060.0
30
0
11
210503.33000000002
21
95060.0
31
0
0
LINE
8
cut
10
207080.0
20
94940.0
30
0
11
210503.33000000002
21
94940.0
31
0
0
LINE
8
cut
10
210503.33000000002
20
95060.0
30
0
11
210503.33000000002
21
94940.0
31
0
0
LINE
8
cut
10
210663.33
20
95060.0
30
0
11
210663.33
21
94940.0
31
0
0
LINE
8
cut
10
210663.33
20
95060.0
30
0
11
214086.66999999998
21
95060.0
31
0
0
LINE
8
cut
10
210663.33
20
94940.0
30
0
11
214086.66999999998
21
94940.0
31
0
0
LINE
8
cut
10
214086.66999999998
20
95060.0
30
0
11
214086.66999999998
21
94940.0
31
0
0
LINE
8
cut
10
214246.67
20
95060.0
30
0
11
214246.67
21
94940.0
31
0
0
LINE
8
cut
10
214246.67
20
95060.0
30
0
11
217670.00000000003
21
95060.0
31
0
0
LINE
8
cut
10
214246.67
20
94940.0
30
0
11
217670.00000000003
21
94940.0
31
0
0
LINE
8
cut
10
217670.00000000003
20
95060.0
30
0
11
217670.00000000003
21
94940.0
31
0
0
LINE
8
cut
10
217830.0
20
95060.0
30
0
11
217830.0
21
94940.0
31
0
0
LINE
8
cut
10
217830.0
20
95060.0
30
0
11
221253.33
21
95060.0
31
0
0
LINE
8
cut
10
217830.0
20
94940.0
30
0
11
221253.33
21
94940.0
31
0
0
LINE
8
cut
10
221253.33
20
95060.0
30
0
11
221253.33
21
94940.0
31
0
0
LINE
8
cut
10
221413.33000000002
20
95060.0
30
0
11
221413.33000000002
21
94940.0
31
0
0
LINE
8
cut
10
221413.33000000002
20
95060.0
30
0
11
224836.66999999998
21
95060.0
31
0
0
LINE
8
cut
10
221413.33000000002
20
94940.0
30
0
11
224836.66999999998
21
94940.0
31
0
0
LINE
8
cut
10
224836.66999999998
20
95060.0
30
0
11
224836.66999999998
21
94940.0
31
0
0
LINE
8
cut
10
224996.67
20
95060.0
30
0
11
224996.67
21
94940.0
31
0
0
LINE
8
cut
10
224996.67
20
95060.0
30
0
11
228420.0
21
95060.0
31
0
0
LINE
8
cut
10
224996.67
20
94940.0
30
0
11
228420.0
21
94940.0
31
0
0
LINE
8
cut
10
228420.0
20
95060.0
30
0
11
228420.0
21
94940.0
31
0
0
LINE
8
cut
10
228579.99999999997
20
95060.0
30
0
11
228579.99999999997
21
94940.0
31
0
0
LINE
8
cut
10
228579.99999999997
20
95060.0
30
0
11
232003.33
21
95060.0
31
0
0
LINE
8
cut
10
228579.99999999997
20
94940.0
30
0
11
232003.33
21
94940.0
31
0
0
LINE
8
cut
10
232003.33
20
95060.0
30
0
11
232003.33
21
94940.0
31
0
0
LINE
8
cut
10
232163.33000000002
20
95060.0
30
0
11
232163.33000000002
21
94940.0
31
0
0
LINE
8
cut
10
232163.33000000002
20
95060.0
30
0
11
235586.67
21
95060.0
31
0
0
LINE
8
cut
10
232163.33000000002
20
94940.0
30
0
11
235586.67
21
94940.0
31
0
0
LINE
8
cut
10
235586.67
20
95060.0
30
0
11
235586.67
21
94940.0
31
0
0
LINE
8
cut
10
235746.66999999998
20
95060.0
30
0
11
235746.66999999998
21
94940.0
31
0
0
LINE
8
cut
10
235746.66999999998
20
95060.0
30
0
11
239170.0
21
95060.0
31
0
0
LINE
8
cut
10
235746.66999999998
20
94940.0
30
0
11
239170.0
21
94940.0
31
0
0
LINE
8
cut
10
239170.0
20
95060.0
30
0
11
239170.0
21
94940.0
31
0
0
LINE
8
cut
10
196189.99999999997
20
94979.99999999999
30
0
11
196189.99999999997
21
94660.0
31
0
0
LINE
8
cut
10
196189.99999999997
20
94979.99999999999
30
0
11
196310.0
21
94979.99999999999
31
0
0
LINE
8
cut
10
196189.99999999997
20
94660.0
30
0
11
196310.0
21
94660.0
31
0
0
LINE
8
cut
10
196310.0
20
94979.99999999999
30
0
11
196310.0
21
94660.0
31
0
0
LINE
8
cut
10
199773.33
20
94979.99999999999
30
0
11
199773.33
21
94660.0
31
0
0
LINE
8
cut
10
199773.33
20
94979.99999999999
30
0
11
199893.33000000002
21
94979.99999999999
31
0
0
LINE
8
cut
10
199773.33
20
94660.0
30
0
11
199893.33000000002
21
94660.0
31
0
0
LINE
8
cut
10
199893.33000000002
20
94979.99999999999
30
0
11
199893.33000000002
21
94660.0
31
0
0
LINE
8
cut
10
203356.66999999998
20
94979.99999999999
30
0
11
203356.66999999998
21
94660.0
31
0
0
LINE
8
cut
10
203356.66999999998
20
94979.99999999999
30
0
11
203476.67
21
94979.99999999999
31
0
0
LINE
8
cut
10
203356.66999999998
20
94660.0
30
0
11
203476.67
21
94660.0
31
0
0
LINE
8
cut
10
203476.67
20
94979.99999999999
30
0
11
203476.67
21
94660.0
31
0
0
LINE
8
cut
10
206940.0
20
94979.99999999999
30
0
11
206940.0
21
94660.0
31
0
0
LINE
8
cut
10
206940.0
20
94979.99999999999
30
0
11
207060.0
21
94979.99999999999
31
0
0
LINE
8
cut
10
206940.0
20
94660.0
30
0
11
207060.0
21
94660.0
31
0
0
LINE
8
cut
10
207060.0
20
94979.99999999999
30
0
11
207060.0
21
94660.0
31
0
0
LINE
8
cut
10
210523.33
20
94979.99999999999
30
0
11
210523.33
21
94660.0
31
0
0
LINE
8
cut
10
210523.33
20
94979.99999999999
30
0
11
210643.33000000002
21
94979.99999999999
31
0
0
LINE
8
cut
10
210523.33
20
94660.0
30
0
11
210643.33000000002
21
94660.0
31
0
0
LINE
8
cut
10
210643.33000000002
20
94979.99999999999
30
0
11
210643.33000000002
21
94660.0
31
0
0
LINE
8
cut
10
214106.66999999998
20
94979.99999999999
30
0
11
214106.66999999998
21
94660.0
31
0
0
LINE
8
cut
10
214106.66999999998
20
94979.99999999999
30
0
11
214226.67
21
94979.99999999999
31
0
0
LINE
8
cut
10
214106.66999999998
20
94660.0
30
0
11
214226.67
21
94660.0
31
0
0
LINE
8
cut
10
214226.67
20
94979.99999999999
30
0
11
214226.67
21
94660.0
31
0
0
LINE
8
cut
10
217690.0
20
94979.99999999999
30
0
11
217690.0
21
94660.0
31
0
0
LINE
8
cut
10
217690.0
20
94979.99999999999
30
0
11
217809.99999999997
21
94979.99999999999
31
0
0
LINE
8
cut
10
217690.0
20
94660.0
30
0
11
217809.99999999997
21
94660.0
31
0
0
LINE
8
cut
10
217809.99999999997
20
94979.99999999999
30
0
11
217809.99999999997
21
94660.0
31
0
0
LINE
8
cut
10
221273.33000000002
20
94979.99999999999
30
0
11
221273.33000000002
21
94660.0
31
0
0
LINE
8
cut
10
221273.33000000002
20
94979.99999999999
30
0
11
221393.33
21
94979.99999999999
31
0
0
LINE
8
cut
10
221273.33000000002
20
94660.0
30
0
11
221393.33
21
94660.0
31
0
0
LINE
8
cut
10
221393.33
20
94979.99999999999
30
0
11
221393.33
21
94660.0
31
0
0
LINE
8
cut
10
224856.67
20
94979.99999999999
30
0
11
224856.67
21
94660.0
31
0
0
LINE
8
cut
10
224856.67
20
94979.99999999999
30
0
11
224976.66999999998
21
94979.99999999999
31
0
0
LINE
8
cut
10
224856.67
20
94660.0
30
0
11
224976.66999999998
21
94660.0
31
0
0
LINE
8
cut
10
224976.66999999998
20
94979.99999999999
30
0
11
224976.66999999998
21
94660.0
31
0
0
LINE
8
cut
10
228440.00000000003
20
94979.99999999999
30
0
11
228440.00000000003
21
94660.0
31
0
0
LINE
8
cut
10
228440.00000000003
20
94979.99999999999
30
0
11
228560.0
21
94979.99999999999
31
0
0
LINE
8
cut
10
228440.00000000003
20
94660.0
30
0
11
228560.0
21
94660.0
31
0
0
LINE
8
cut
10
228560.0
20
94979.99999999999
30
0
11
228560.0
21
94660.0
31
0
0
LINE
8
cut
10
232023.33
20
94979.99999999999
30
0
11
232023.33
21
94660.0
31
0
0
LINE
8
cut
10
232023.33
20
94979.99999999999
30
0
11
232143.33000000002
21
94979.99999999999
31
0
0
LINE
8
cut
10
232023.33
20
94660.0
30
0
11
232143.33000000002
21
94660.0
31
0
0
LINE
8
cut
10
232143.33000000002
20
94979.99999999999
30
0
11
232143.33000000002
21
94660.0
31
0
0
LINE
8
cut
10
235606.66999999998
20
94979.99999999999
30
0
11
235606.66999999998
21
94660.0
31
0
0
LINE
8
cut
10
235606.66999999998
20
94979.99999999999
30
0
11
235726.67
21
94979.99999999999
31
0
0
LINE
8
cut
10
235606.66999999998
20
94660.0
30
0
11
235726.67
21
94660.0
31
0
0
LINE
8
cut
10
235726.67
20
94979.99999999999
30
0
11
235726.67
21
94660.0
31
0
0
LINE
8
cut
10
239190.0
20
94979.99999999999
30
0
11
239190.0
21
94660.0
31
0
0
LINE
8
cut
10
239190.0
20
94979.99999999999
30
0
11
239310.0
21
94979.99999999999
31
0
0
LINE
8
cut
10
239190.0
20
94660.0
30
0
11
239310.0
21
94660.0
31
0
0
LINE
8
cut
10
239310.0
20
94979.99999999999
30
0
11
239310.0
21
94660.0
31
0
0
LINE
8
cut
10
196100.00000000003
20
148000.0
30
0
11
196100.00000000003
21
95000.0
31
0
0
LINE
8
cut
10
196100.00000000003
20
148000.0
30
0
11
196400.0
21
148000.0
31
0
0
LINE
8
cut
10
196100.00000000003
20
95000.0
30
0
11
196400.0
21
95000.0
31
0
0
LINE
8
cut
10
196400.0
20
148000.0
30
0
11
196400.0
21
95000.0
31
0
0
LINE
8
cut
10
196329.99999999997
20
148060.0
30
0
11
196329.99999999997
21
147940.0
31
0
0
LINE
8
cut
10
196329.99999999997
20
148060.0
30
0
11
199753.33000000002
21
148060.0
31
0
0
LINE
8
cut
10
196329.99999999997
20
147940.0
30
0
11
199753.33000000002
21
147940.0
31
0
0
LINE
8
cut
10
199753.33000000002
20
148060.0
30
0
11
199753.33000000002
21
147940.0
31
0
0
LINE
8
cut
10
199913.33000000002
20
148060.0
30
0
11
199913.33000000002
21
147940.0
31
0
0
LINE
8
cut
10
199913.33000000002
20
148060.0
30
0
11
203336.67
21
148060.0
31
0
0
LINE
8
cut
10
199913.33000000002
20
147940.0
30
0
11
203336.67
21
147940.0
31
0
0
LINE
8
cut
10
203336.67
20
148060.0
30
0
11
203336.67
21
147940.0
31
0
0
LINE
8
cut
10
203496.66999999998
20
148060.0
30
0
11
203496.66999999998
21
147940.0
31
0
0
LINE
8
cut
10
203496.66999999998
20
148060.0
30
0
11
206920.0
21
148060.0
31
0
0
LINE
8
cut
10
203496.66999999998
20
147940.0
30
0
11
206920.0
21
147940.0
31
0
0
LINE
8
cut
10
206920.0
20
148060.0
30
0
11
206920.0
21
147940.0
31
0
0
LINE
8
cut
10
207080.0
20
148060.0
30
0
11
207080.0
21
147940.0
31
0
0
LINE
8
cut
10
207080.0
20
148060.0
30
0
11
210503.33000000002
21
148060.0
31
0
0
LINE
8
cut
10
207080.0
20
147940.0
30
0
11
210503.33000000002
21
147940.0
31
0
0
LINE
8
cut
10
210503.33000000002
20
148060.0
30
0
11
210503.33000000002
21
147940.0
31
0
0
LINE
8
cut
10
210663.33
20
148060.0
30
0
11
210663.33
21
147940.0
31
0
0
LINE
8
cut
10
210663.33
20
148060.0
30
0
11
214086.66999999998
21
148060.0
31
0
0
LINE
8
cut
10
210663.33
20
147940.0
30
0
11
214086.66999999998
21
147940.0
31
0
0
LINE
8
cut
10
214086.66999999998
20
148060.0
30
0
11
214086.66999999998
21
147940.0
31
0
0
LINE
8
cut
10
214246.67
20
148060.0
30
0
11
214246.67
21
147940.0
31
0
0
LINE
8
cut
10
214246.67
20
148060.0
30
0
11
217670.00000000003
21
148060.0
31
0
0
LINE
8
cut
10
214246.67
20
147940.0
30
0
11
217670.00000000003
21
147940.0
31
0
0
LINE
8
cut
10
217670.00000000003
20
148060.0
30
0
11
217670.00000000003
21
147940.0
31
0
0
LINE
8
cut
10
217830.0
20
148060.0
30
0
11
217830.0
21
147940.0
31
0
0
LINE
8
cut
10
217830.0
20
148060.0
30
0
11
221253.33
21
148060.0
31
0
0
LINE
8
cut
10
217830.0
20
147940.0
30
0
11
221253.33
21
147940.0
31
0
0
LINE
8
cut
10
221253.33
20
148060.0
30
0
11
221253.33
21
147940.0
31
0
0
LINE
8
cut
10
221413.33000000002
20
148060.0
30
0
11
221413.33000000002
21
147940.0
31
0
0
LINE
8
cut
10
221413.33000000002
20
148060.0
30
0
11
224836.66999999998
21
148060.0
31
0
0
LINE
8
cut
10
221413.33000000002
20
147940.0
30
0
11
224836.66999999998
21
147940.0
31
0
0
LINE
8
cut
10
224836.66999999998
20
148060.0
30
0
11
224836.66999999998
21
147940.0
31
0
0
LINE
8
cut
10
224996.67
20
148060.0
30
0
11
224996.67
21
147940.0
31
0
0
LINE
8
cut
10
224996.67
20
148060.0
30
0
11
228420.0
21
148060.0
31
0
0
LINE
8
cut
10
224996.67
20
147940.0
30
0
11
228420.0
21
147940.0
31
0
0
LINE
8
cut
10
228420.0
20
148060.0
30
0
11
228420.0
21
147940.0
31
0
0
LINE
8
cut
10
228579.99999999997
20
148060.0
30
0
11
228579.99999999997
21
147940.0
31
0
0
LINE
8
cut
10
228579.99999999997
20
148060.0
30
0
11
232003.33
21
148060.0
31
0
0
LINE
8
cut
10
228579.99999999997
20
147940.0
30
0
11
232003.33
21
147940.0
31
0
0
LINE
8
cut
10
232003.33
20
148060.0
30
0
11
232003.33
21
147940.0
31
0
0
LINE
8
cut
10
232163.33000000002
20
148060.0
30
0
11
232163.33000000002
21
147940.0
31
0
0
LINE
8
cut
10
232163.33000000002
20
148060.0
30
0
11
235586.67
21
148060.0
31
0
0
LINE
8
cut
10
232163.33000000002
20
147940.0
30
0
11
235586.67
21
147940.0
31
0
0
LINE
8
cut
10
235586.67
20
148060.0
30
0
11
235586.67
21
147940.0
31
0
0
LINE
8
cut
10
235746.66999999998
20
148060.0
30
0
11
235746.66999999998
21
147940.0
31
0
0
LINE
8
cut
10
235746.66999999998
20
148060.0
30
0
11
239170.0
21
148060.0
31
0
0
LINE
8
cut
10
235746.66999999998
20
147940.0
30
0
11
239170.0
21
147940.0
31
0
0
LINE
8
cut
10
239170.0
20
148060.0
30
0
11
239170.0
21
147940.0
31
0
0
LINE
8
cut
10
196189.99999999997
20
148340.0
30
0
11
196189.99999999997
21
148020.0
31
0
0
LINE
8
cut
10
196189.99999999997
20
148340.0
30
0
11
196310.0
21
148340.0
31
0
0
LINE
8
cut
10
196189.99999999997
20
148020.0
30
0
11
196310.0
21
148020.0
31
0
0
LINE
8
cut
10
196310.0
20
148340.0
30
0
11
196310.0
21
148020.0
31
0
0
LINE
8
cut
10
199773.33
20
148340.0
30
0
11
199773.33
21
148020.0
31
0
0
LINE
8
cut
10
199773.33
20
148340.0
30
0
11
199893.33000000002
21
148340.0
31
0
0
LINE
8
cut
10
199773.33
20
148020.0
30
0
11
199893.33000000002
21
148020.0
31
0
0
LINE
8
cut
10
199893.33000000002
20
148340.0
30
0
11
199893.33000000002
21
148020.0
31
0
0
LINE
8
cut
10
203356.66999999998
20
148340.0
30
0
11
203356.66999999998
21
148020.0
31
0
0
LINE
8
cut
10
203356.66999999998
20
148340.0
30
0
11
203476.67
21
148340.0
31
0
0
LINE
8
cut
10
203356.66999999998
20
148020.0
30
0
11
203476.67
21
148020.0
31
0
0
LINE
8
cut
10
203476.67
20
148340.0
30
0
11
203476.67
21
148020.0
31
0
0
LINE
8
cut
10
206940.0
20
148340.0
30
0
11
206940.0
21
148020.0
31
0
0
LINE
8
cut
10
206940.0
20
148340.0
30
0
11
207060.0
21
148340.0
31
0
0
LINE
8
cut
10
206940.0
20
148020.0
30
0
11
207060.0
21
148020.0
31
0
0
LINE
8
cut
10
207060.0
20
148340.0
30
0
11
207060.0
21
148020.0
31
0
0
LINE
8
cut
10
210523.33
20
148340.0
30
0
11
210523.33
21
148020.0
31
0
0
LINE
8
cut
10
210523.33
20
148340.0
30
0
11
210643.33000000002
21
148340.0
31
0
0
LINE
8
cut
10
210523.33
20
148020.0
30
0
11
210643.33000000002
21
148020.0
31
0
0
LINE
8
cut
10
210643.33000000002
20
148340.0
30
0
11
210643.33000000002
21
148020.0
31
0
0
LINE
8
cut
10
214106.66999999998
20
148340.0
30
0
11
214106.66999999998
21
148020.0
31
0
0
LINE
8
cut
10
214106.66999999998
20
148340.0
30
0
11
214226.67
21
148340.0
31
0
0
LINE
8
cut
10
214106.66999999998
20
148020.0
30
0
11
214226.67
21
148020.0
31
0
0
LINE
8
cut
10
214226.67
20
148340.0
30
0
11
214226.67
21
148020.0
31
0
0
LINE
8
cut
10
217690.0
20
148340.0
30
0
11
217690.0
21
148020.0
31
0
0
LINE
8
cut
10
217690.0
20
148340.0
30
0
11
217809.99999999997
21
148340.0
31
0
0
LINE
8
cut
10
217690.0
20
148020.0
30
0
11
217809.99999999997
21
148020.0
31
0
0
LINE
8
cut
10
217809.99999999997
20
148340.0
30
0
11
217809.99999999997
21
148020.0
31
0
0
LINE
8
cut
10
221273.33000000002
20
148340.0
30
0
11
221273.33000000002
21
148020.0
31
0
0
LINE
8
cut
10
221273.33000000002
20
148340.0
30
0
11
221393.33
21
148340.0
31
0
0
LINE
8
cut
10
221273.33000000002
20
148020.0
30
0
11
221393.33
21
148020.0
31
0
0
LINE
8
cut
10
221393.33
20
148340.0
30
0
11
221393.33
21
148020.0
31
0
0
LINE
8
cut
10
224856.67
20
148340.0
30
0
11
224856.67
21
148020.0
31
0
0
LINE
8
cut
10
224856.67
20
148340.0
30
0
11
224976.66999999998
21
148340.0
31
0
0
LINE
8
cut
10
224856.67
20
148020.0
30
0
11
224976.66999999998
21
148020.0
31
0
0
LINE
8
cut
10
224976.66999999998
20
148340.0
30
0
11
224976.66999999998
21
148020.0
31
0
0
LINE
8
cut
10
228440.00000000003
20
148340.0
30
0
11
228440.00000000003
21
148020.0
31
0
0
LINE
8
cut
10
228440.00000000003
20
148340.0
30
0
11
228560.0
21
148340.0
31
0
0
LINE
8
cut
10
228440.00000000003
20
148020.0
30
0
11
228560.0
21
148020.0
31
0
0
LINE
8
cut
10
228560.0
20
148340.0
30
0
11
228560.0
21
148020.0
31
0
0
LINE
8
cut
10
232023.33
20
148340.0
30
0
11
232023.33
21
148020.0
31
0
0
LINE
8
cut
10
232023.33
20
148340.0
30
0
11
232143.33000000002
21
148340.0
31
0
0
LINE
8
cut
10
232023.33
20
148020.0
30
0
11
232143.33000000002
21
148020.0
31
0
0
LINE
8
cut
10
232143.33000000002
20
148340.0
30
0
11
232143.33000000002
21
148020.0
31
0
0
LINE
8
cut
10
235606.66999999998
20
148340.0
30
0
11
235606.66999999998
21
148020.0
31
0
0
LINE
8
cut
10
235606.66999999998
20
148340.0
30
0
11
235726.67
21
148340.0
31
0
0
LINE
8
cut
10
235606.66999999998
20
148020.0
30
0
11
235726.67
21
148020.0
31
0
0
LINE
8
cut
10
235726.67
20
148340.0
30
0
11
235726.67
21
148020.0
31
0
0
LINE
8
cut
10
239190.0
20
148340.0
30
0
11
239190.0
21
148020.0
31
0
0
LINE
8
cut
10
239190.0
20
148340.0
30
0
11
239310.0
21
148340.0
31
0
0
LINE
8
cut
10
239190.0
20
148020.0
30
0
11
239310.0
21
148020.0
31
0
0
LINE
8
cut
10
239310.0
20
148340.0
30
0
11
239310.0
21
148020.0
31
0
0
LINE
8
cut
10
239100.0
20
148000.0
30
0
11
239100.0
21
95000.0
31
0
0
LINE
8
cut
10
239100.0
20
148000.0
30
0
11
239400.0
21
148000.0
31
0
0
LINE
8
cut
10
239100.0
20
95000.0
30
0
11
239400.0
21
95000.0
31
0
0
LINE
8
cut
10
239400.0
20
148000.0
30
0
11
239400.0
21
95000.0
31
0
0
LINE
8
interiors
10
209070.0
20
97000.0
30
0
11
209070.0
21
146000.0
31
0
0
LINE
8
interiors
10
209230.00000000003
20
97000.0
30
0
11
209230.00000000003
21
146000.0
31
0
0
LINE
8
interiors
10
209070.0
20
97000.0
30
0
11
209230.00000000003
21
97000.0
31
0
0
LINE
8
interiors
10
209070.0
20
146000.0
30
0
11
209230.00000000003
21
146000.0
31
0
0
LINE
8
interiors
10
226270.0
20
97000.0
30
0
11
226270.0
21
146000.0
31
0
0
LINE
8
interiors
10
226429.99999999997
20
97000.0
30
0
11
226429.99999999997
21
146000.0
31
0
0
LINE
8
interiors
10
226270.0
20
97000.0
30
0
11
226429.99999999997
21
97000.0
31
0
0
LINE
8
interiors
10
226270.0
20
146000.0
30
0
11
226429.99999999997
21
146000.0
31
0
0
LINE
8
cut
10
109250.0
20
152500.0
30
0
11
109250.0
21
90500.0
31
0
0
LINE
8
cut
10
109250.0
20
152500.0
30
0
11
118250.0
21
152500.0
31
0
0
LINE
8
cut
10
109250.0
20
90500.0
30
0
11
118250.0
21
90500.0
31
0
0
LINE
8
cut
10
118250.0
20
152500.0
30
0
11
118250.0
21
90500.0
31
0
0
LINE
8
cut
10
54750.0
20
152500.0
30
0
11
54750.0
21
90500.0
31
0
0
LINE
8
cut
10
54750.0
20
152500.0
30
0
11
66750.0
21
152500.0
31
0
0
LINE
8
cut
10
54750.0
20
90500.0
30
0
11
66750.0
21
90500.0
31
0
0
LINE
8
cut
10
66750.0
20
152500.0
30
0
11
66750.0
21
90500.0
31
0
0
LINE
8
cut
10
189250.0
20
152500.0
30
0
11
189250.0
21
90500.0
31
0
0
LINE
8
cut
10
189250.0
20
152500.0
30
0
11
198250.0
21
152500.0
31
0
0
LINE
8
cut
10
189250.0
20
90500.0
30
0
11
198250.0
21
90500.0
31
0
0
LINE
8
cut
10
198250.0
20
152500.0
30
0
11
198250.0
21
90500.0
31
0
0
LINE
8
cut
10
240750.0
20
152500.0
30
0
11
240750.0
21
90500.0
31
0
0
LINE
8
cut
10
240750.0
20
152500.0
30
0
11
252750.0
21
152500.0
31
0
0
LINE
8
cut
10
240750.0
20
90500.0
30
0
11
252750.0
21
90500.0
31
0
0
LINE
8
cut
10
252750.0
20
152500.0
30
0
11
252750.0
21
90500.0
31
0
0
LINE
8
cut
10
137350.0
20
84899.99999999999
30
0
11
137350.0
21
84100.0
31
0
0
LINE
8
cut
10
137350.0
20
84899.99999999999
30
0
11
138150.0
21
84899.99999999999
31
0
0
LINE
8
cut
10
137350.0
20
84100.0
30
0
11
138150.0
21
84100.0
31
0
0
LINE
8
cut
10
138150.0
20
84899.99999999999
30
0
11
138150.0
21
84100.0
31
0
0
LINE
8
cut
10
147950.0
20
84899.99999999999
30
0
11
147950.0
21
84100.0
31
0
0
LINE
8
cut
10
147950.0
20
84899.99999999999
30
0
11
148750.0
21
84899.99999999999
31
0
0
LINE
8
cut
10
147950.0
20
84100.0
30
0
11
148750.0
21
84100.0
31
0
0
LINE
8
cut
10
148750.0
20
84899.99999999999
30
0
11
148750.0
21
84100.0
31
0
0
LINE
8
cut
10
158750.0
20
84899.99999999999
30
0
11
158750.0
21
84100.0
31
0
0
LINE
8
cut
10
158750.0
20
84899.99999999999
30
0
11
159550.0
21
84899.99999999999
31
0
0
LINE
8
cut
10
158750.0
20
84100.0
30
0
11
159550.0
21
84100.0
31
0
0
LINE
8
cut
10
159550.0
20
84899.99999999999
30
0
11
159550.0
21
84100.0
31
0
0
LINE
8
cut
10
169350.0
20
84899.99999999999
30
0
11
169350.0
21
84100.0
31
0
0
LINE
8
cut
10
169350.0
20
84899.99999999999
30
0
11
170150.0
21
84899.99999999999
31
0
0
LINE
8
cut
10
169350.0
20
84100.0
30
0
11
170150.0
21
84100.0
31
0
0
LINE
8
cut
10
170150.0
20
84899.99999999999
30
0
11
170150.0
21
84100.0
31
0
0
LINE
8
circulation
10
128750.0
20
82200.0
30
0
11
128750.0
21
82800.0
31
0
0
LINE
8
circulation
10
178750.0
20
82200.0
30
0
11
178750.0
21
82800.0
31
0
0
LINE
8
circulation
10
128750.0
20
82200.0
30
0
11
178750.0
21
82200.0
31
0
0
LINE
8
circulation
10
128750.0
20
82800.0
30
0
11
178750.0
21
82800.0
31
0
0
LINE
8
circulation
10
128750.0
20
81600.00000000001
30
0
11
128750.0
21
82200.0
31
0
0
LINE
8
circulation
10
178750.0
20
81600.00000000001
30
0
11
178750.0
21
82200.0
31
0
0
LINE
8
circulation
10
128750.0
20
81600.00000000001
30
0
11
178750.0
21
81600.00000000001
31
0
0
LINE
8
circulation
10
128750.0
20
81000.0
30
0
11
128750.0
21
81600.00000000001
31
0
0
LINE
8
circulation
10
178750.0
20
81000.0
30
0
11
178750.0
21
81600.00000000001
31
0
0
LINE
8
circulation
10
128750.0
20
81000.0
30
0
11
178750.0
21
81000.0
31
0
0
LINE
8
circulation
10
128750.0
20
80399.99999999999
30
0
11
128750.0
21
81000.0
31
0
0
LINE
8
circulation
10
178750.0
20
80399.99999999999
30
0
11
178750.0
21
81000.0
31
0
0
LINE
8
circulation
10
128750.0
20
80399.99999999999
30
0
11
178750.0
21
80399.99999999999
31
0
0
LINE
8
circulation
10
128750.0
20
79800.0
30
0
11
128750.0
21
80399.99999999999
31
0
0
LINE
8
circulation
10
178750.0
20
79800.0
30
0
11
178750.0
21
80399.99999999999
31
0
0
LINE
8
circulation
10
128750.0
20
79800.0
30
0
11
178750.0
21
79800.0
31
0
0
LINE
8
circulation
10
128750.0
20
79200.0
30
0
11
128750.0
21
79800.0
31
0
0
LINE
8
circulation
10
178750.0
20
79200.0
30
0
11
178750.0
21
79800.0
31
0
0
LINE
8
circulation
10
128750.0
20
79200.0
30
0
11
178750.0
21
79200.0
31
0
0
LINE
8
circulation
10
128750.0
20
78600.00000000001
30
0
11
128750.0
21
79200.0
31
0
0
LINE
8
circulation
10
178750.0
20
78600.00000000001
30
0
11
178750.0
21
79200.0
31
0
0
LINE
8
circulation
10
128750.0
20
78600.00000000001
30
0
11
178750.0
21
78600.00000000001
31
0
0
LINE
8
circulation
10
128750.0
20
78000.0
30
0
11
128750.0
21
78600.00000000001
31
0
0
LINE
8
circulation
10
178750.0
20
78000.0
30
0
11
178750.0
21
78600.00000000001
31
0
0
LINE
8
circulation
10
128750.0
20
78000.0
30
0
11
178750.0
21
78000.0
31
0
0
LINE
8
cut
10
149750.0
20
90570.0
30
0
11
149750.0
21
90429.99999999999
31
0
0
LINE
8
cut
10
149750.0
20
90570.0
30
0
11
151750.0
21
90570.0
31
0
0
LINE
8
cut
10
149750.0
20
90429.99999999999
30
0
11
151750.0
21
90429.99999999999
31
0
0
LINE
8
cut
10
151750.0
20
90570.0
30
0
11
151750.0
21
90429.99999999999
31
0
0
LINE
8
cut
10
151750.0
20
90570.0
30
0
11
153750.0
21
90570.0
31
0
0
LINE
8
cut
10
151750.0
20
90429.99999999999
30
0
11
153750.0
21
90429.99999999999
31
0
0
LINE
8
cut
10
153750.0
20
90570.0
30
0
11
153750.0
21
90429.99999999999
31
0
0
LINE
8
cut
10
153750.0
20
90570.0
30
0
11
155750.0
21
90570.0
31
0
0
LINE
8
cut
10
153750.0
20
90429.99999999999
30
0
11
155750.0
21
90429.99999999999
31
0
0
LINE
8
cut
10
155750.0
20
90570.0
30
0
11
155750.0
21
90429.99999999999
31
0
0
LINE
8
cut
10
155750.0
20
90570.0
30
0
11
157750.0
21
90570.0
31
0
0
LINE
8
cut
10
155750.0
20
90429.99999999999
30
0
11
157750.0
21
90429.99999999999
31
0
0
LINE
8
cut
10
157750.0
20
90570.0
30
0
11
157750.0
21
90429.99999999999
31
0
0
LINE
8
cut
10
137350.0
20
158900.0
30
0
11
137350.0
21
158100.0
31
0
0
LINE
8
cut
10
137350.0
20
158900.0
30
0
11
138150.0
21
158900.0
31
0
0
LINE
8
cut
10
137350.0
20
158100.0
30
0
11
138150.0
21
158100.0
31
0
0
LINE
8
cut
10
138150.0
20
158900.0
30
0
11
138150.0
21
158100.0
31
0
0
LINE
8
cut
10
147950.0
20
158900.0
30
0
11
147950.0
21
158100.0
31
0
0
LINE
8
cut
10
147950.0
20
158900.0
30
0
11
148750.0
21
158900.0
31
0
0
LINE
8
cut
10
147950.0
20
158100.0
30
0
11
148750.0
21
158100.0
31
0
0
LINE
8
cut
10
148750.0
20
158900.0
30
0
11
148750.0
21
158100.0
31
0
0
LINE
8
cut
10
158750.0
20
158900.0
30
0
11
158750.0
21
158100.0
31
0
0
LINE
8
cut
10
158750.0
20
158900.0
30
0
11
159550.0
21
158900.0
31
0
0
LINE
8
cut
10
158750.0
20
158100.0
30
0
11
159550.0
21
158100.0
31
0
0
LINE
8
cut
10
159550.0
20
158900.0
30
0
11
159550.0
21
158100.0
31
0
0
LINE
8
cut
10
169350.0
20
158900.0
30
0
11
169350.0
21
158100.0
31
0
0
LINE
8
cut
10
169350.0
20
158900.0
30
0
11
170150.0
21
158900.0
31
0
0
LINE
8
cut
10
169350.0
20
158100.0
30
0
11
170150.0
21
158100.0
31
0
0
LINE
8
cut
10
170150.0
20
158900.0
30
0
11
170150.0
21
158100.0
31
0
0
LINE
8
circulation
10
128750.0
20
160200.0
30
0
11
128750.0
21
160800.0
31
0
0
LINE
8
circulation
10
178750.0
20
160200.0
30
0
11
178750.0
21
160800.0
31
0
0
LINE
8
circulation
10
128750.0
20
160200.0
30
0
11
178750.0
21
160200.0
31
0
0
LINE
8
circulation
10
128750.0
20
160800.0
30
0
11
178750.0
21
160800.0
31
0
0
LINE
8
circulation
10
128750.0
20
160800.0
30
0
11
128750.0
21
161400.0
31
0
0
LINE
8
circulation
10
178750.0
20
160800.0
30
0
11
178750.0
21
161400.0
31
0
0
LINE
8
circulation
10
128750.0
20
161400.0
30
0
11
178750.0
21
161400.0
31
0
0
LINE
8
circulation
10
128750.0
20
161400.0
30
0
11
128750.0
21
162000.0
31
0
0
LINE
8
circulation
10
178750.0
20
161400.0
30
0
11
178750.0
21
162000.0
31
0
0
LINE
8
circulation
10
128750.0
20
162000.0
30
0
11
178750.0
21
162000.0
31
0
0
LINE
8
circulation
10
128750.0
20
162000.0
30
0
11
128750.0
21
162600.0
31
0
0
LINE
8
circulation
10
178750.0
20
162000.0
30
0
11
178750.0
21
162600.0
31
0
0
LINE
8
circulation
10
128750.0
20
162600.0
30
0
11
178750.0
21
162600.0
31
0
0
LINE
8
circulation
10
128750.0
20
162600.0
30
0
11
128750.0
21
163200.0
31
0
0
LINE
8
circulation
10
178750.0
20
162600.0
30
0
11
178750.0
21
163200.0
31
0
0
LINE
8
circulation
10
128750.0
20
163200.0
30
0
11
178750.0
21
163200.0
31
0
0
LINE
8
circulation
10
128750.0
20
163200.0
30
0
11
128750.0
21
163800.0
31
0
0
LINE
8
circulation
10
178750.0
20
163200.0
30
0
11
178750.0
21
163800.0
31
0
0
LINE
8
circulation
10
128750.0
20
163800.0
30
0
11
178750.0
21
163800.0
31
0
0
LINE
8
circulation
10
128750.0
20
163800.0
30
0
11
128750.0
21
164400.0
31
0
0
LINE
8
circulation
10
178750.0
20
163800.0
30
0
11
178750.0
21
164400.0
31
0
0
LINE
8
circulation
10
128750.0
20
164400.0
30
0
11
178750.0
21
164400.0
31
0
0
LINE
8
circulation
10
128750.0
20
164400.0
30
0
11
128750.0
21
165000.0
31
0
0
LINE
8
circulation
10
178750.0
20
164400.0
30
0
11
178750.0
21
165000.0
31
0
0
LINE
8
circulation
10
128750.0
20
165000.0
30
0
11
178750.0
21
165000.0
31
0
0
LINE
8
cut
10
149750.0
20
152570.0
30
0
11
149750.0
21
152430.0
31
0
0
LINE
8
cut
10
149750.0
20
152570.0
30
0
11
151750.0
21
152570.0
31
0
0
LINE
8
cut
10
149750.0
20
152430.0
30
0
11
151750.0
21
152430.0
31
0
0
LINE
8
cut
10
151750.0
20
152570.0
30
0
11
151750.0
21
152430.0
31
0
0
LINE
8
cut
10
151750.0
20
152570.0
30
0
11
153750.0
21
152570.0
31
0
0
LINE
8
cut
10
151750.0
20
152430.0
30
0
11
153750.0
21
152430.0
31
0
0
LINE
8
cut
10
153750.0
20
152570.0
30
0
11
153750.0
21
152430.0
31
0
0
LINE
8
cut
10
153750.0
20
152570.0
30
0
11
155750.0
21
152570.0
31
0
0
LINE
8
cut
10
153750.0
20
152430.0
30
0
11
155750.0
21
152430.0
31
0
0
LINE
8
cut
10
155750.0
20
152570.0
30
0
11
155750.0
21
152430.0
31
0
0
LINE
8
cut
10
155750.0
20
152570.0
30
0
11
157750.0
21
152570.0
31
0
0
LINE
8
cut
10
155750.0
20
152430.0
30
0
11
157750.0
21
152430.0
31
0
0
LINE
8
cut
10
157750.0
20
152570.0
30
0
11
157750.0
21
152430.0
31
0
0
LINE
8
datum
10
56749.99999999999
20
91500.0
30
0
11
250750.00000000003
21
91500.0
31
0
0
LINE
8
datum
10
250750.00000000003
20
91500.0
30
0
11
250750.00000000003
21
151500.0
31
0
0
LINE
8
datum
10
250750.00000000003
20
151500.0
30
0
11
56749.99999999999
21
151500.0
31
0
0
LINE
8
datum
10
56749.99999999999
20
151500.0
30
0
11
56749.99999999999
21
91500.0
31
0
0
LINE
8
grid
10
56749.99999999999
20
89000.0
30
0
11
56749.99999999999
21
156000.0
31
0
0
TEXT
8
annotation
10
56281.24999999999
20
157500.0
30
0
40
1875.0
1
1
50
0
0
LINE
8
grid
10
72916.66666666667
20
89000.0
30
0
11
72916.66666666667
21
156000.0
31
0
0
TEXT
8
annotation
10
72447.91666666667
20
157500.0
30
0
40
1875.0
1
2
50
0
0
LINE
8
grid
10
89083.33333333334
20
89000.0
30
0
11
89083.33333333334
21
156000.0
31
0
0
TEXT
8
annotation
10
88614.58333333334
20
157500.0
30
0
40
1875.0
1
3
50
0
0
LINE
8
grid
10
105249.99999999999
20
89000.0
30
0
11
105249.99999999999
21
156000.0
31
0
0
TEXT
8
annotation
10
104781.24999999999
20
157500.0
30
0
40
1875.0
1
4
50
0
0
LINE
8
grid
10
121416.66666666667
20
89000.0
30
0
11
121416.66666666667
21
156000.0
31
0
0
TEXT
8
annotation
10
120947.91666666667
20
157500.0
30
0
40
1875.0
1
5
50
0
0
LINE
8
grid
10
137583.3333333333
20
89000.0
30
0
11
137583.3333333333
21
156000.0
31
0
0
TEXT
8
annotation
10
137114.5833333333
20
157500.0
30
0
40
1875.0
1
6
50
0
0
LINE
8
grid
10
153750.0
20
89000.0
30
0
11
153750.0
21
156000.0
31
0
0
TEXT
8
annotation
10
153281.25
20
157500.0
30
0
40
1875.0
1
7
50
0
0
LINE
8
grid
10
169916.6666666667
20
89000.0
30
0
11
169916.6666666667
21
156000.0
31
0
0
TEXT
8
annotation
10
169447.9166666667
20
157500.0
30
0
40
1875.0
1
8
50
0
0
LINE
8
grid
10
186083.33333333334
20
89000.0
30
0
11
186083.33333333334
21
156000.0
31
0
0
TEXT
8
annotation
10
185614.58333333334
20
157500.0
30
0
40
1875.0
1
9
50
0
0
LINE
8
grid
10
202250.0
20
89000.0
30
0
11
202250.0
21
156000.0
31
0
0
TEXT
8
annotation
10
201312.5
20
157500.0
30
0
40
1875.0
1
10
50
0
0
LINE
8
grid
10
218416.66666666666
20
89000.0
30
0
11
218416.66666666666
21
156000.0
31
0
0
TEXT
8
annotation
10
217479.16666666666
20
157500.0
30
0
40
1875.0
1
11
50
0
0
LINE
8
grid
10
234583.33333333334
20
89000.0
30
0
11
234583.33333333334
21
156000.0
31
0
0
TEXT
8
annotation
10
233645.83333333334
20
157500.0
30
0
40
1875.0
1
12
50
0
0
LINE
8
grid
10
250750.00000000003
20
89000.0
30
0
11
250750.00000000003
21
156000.0
31
0
0
TEXT
8
annotation
10
249812.50000000003
20
157500.0
30
0
40
1875.0
1
13
50
0
0
LINE
8
grid
10
52750.00000000001
20
91500.0
30
0
11
254749.99999999997
21
91500.0
31
0
0
TEXT
8
annotation
10
50312.50000000001
20
90750.0
30
0
40
1875.0
1
A
50
0
0
LINE
8
grid
10
52750.00000000001
20
121500.0
30
0
11
254749.99999999997
21
121500.0
31
0
0
TEXT
8
annotation
10
50312.50000000001
20
120750.0
30
0
40
1875.0
1
B
50
0
0
LINE
8
grid
10
52750.00000000001
20
151500.0
30
0
11
254749.99999999997
21
151500.0
31
0
0
TEXT
8
annotation
10
50312.50000000001
20
150750.0
30
0
40
1875.0
1
C
50
0
0
LINE
8
dimension
10
56749.99999999999
20
82500.0
30
0
11
250750.00000000003
21
82500.0
31
0
0
LINE
8
dimension
10
55999.99999999999
20
81750.0
30
0
11
57499.99999999999
21
83250.0
31
0
0
LINE
8
dimension
10
250000.00000000003
20
81750.0
30
0
11
251500.00000000003
21
83250.0
31
0
0
TEXT
8
annotation
10
143625.0
20
83625.0
30
0
40
2250.0
1
194,000 mm overall
50
0
0
LINE
8
dimension
10
259000.00000000003
20
151500.0
30
0
11
259000.00000000003
21
91500.0
31
0
0
TEXT
8
annotation
10
261250.00000000003
20
121500.0
30
0
40
2250.0
1
60,000
50
0
0
TEXT
8
annotation
10
285750.0
20
189000
30
0
40
3000.0
1
N
50
0
0
LINE
8
annotation
10
286500
20
186750
30
0
11
284250
21
180000
31
0
0
LINE
8
annotation
10
284250
20
180000
30
0
11
286500
21
182250
31
0
0
LINE
8
annotation
10
286500
20
182250
30
0
11
288750
21
180000
31
0
0
LINE
8
annotation
10
288750
20
180000
30
0
11
286500
21
186750
31
0
0
LINE
8
section-line
10
53749.99999999999
20
121500.0
30
0
11
253750.00000000003
21
121500.0
31
0
0
TEXT
8
annotation
10
51124.99999999999
20
123000.0
30
0
40
2250.0
1
A
50
0
0
TEXT
8
annotation
10
255250.00000000003
20
123000.0
30
0
40
2250.0
1
A
50
0
0
TEXT
8
annotation
10
86712.5
20
121500.0
30
0
40
2025.0000000000002
1
OFFICE
50
0
0
TEXT
8
annotation
10
150712.5
20
121500.0
30
0
40
2025.0000000000002
1
ATRIUM
50
0
0
TEXT
8
annotation
10
214712.49999999997
20
121500.0
30
0
40
2025.0000000000002
1
OFFICE
50
0
0
TEXT
8
annotation
10
10500
20
48000
30
0
40
2025.0000000000002
1
Reference grid only; not structural column setting-out. Civic wings have independent framing.
50
0
0
LINE
8
frame
10
10500
20
44250
30
0
11
304500
21
44250
31
0
0
TEXT
8
annotation
10
10500
20
38250
30
0
40
2625.0
1
CONCEPT DESIGN | IMAGE-INFERRED | NOT FOR CONSTRUCTION
50
0
0
TEXT
8
annotation
10
10500
20
28500.0
30
0
40
1987.5
1
Source: two campus AI images + fab1.jpg; official analogues documented in analysis/cad/.
50
0
0
TEXT
8
annotation
10
10500
20
25200.00000000002
30
0
40
1987.5
1
CAD model in mm; site coordinates X east, Y north, Z up. Internal layouts and member sizes are design estimates.
50
0
0
TEXT
8
annotation
10
10500
20
21899.999999999993
30
0
40
1987.5
1
Plans/sections are extracted from actual FreeCAD BRep. Elevations project component outlines; hidden edges omitted per component.
50
0
0
TEXT
8
annotation
10
10500
20
18600.000000000007
30
0
40
1987.5
1
Civic wing roofs and skylight may differ from the nominal building height; inspect actual geometry and parameter aliases.
50
0
0
TEXT
8
annotation
10
10500
20
15299.999999999984
30
0
40
1987.5
1
No process certification, structural verification, measured survey, or construction approval is implied.
50
0
0
TEXT
8
annotation
10
267750.0
20
8250
30
0
40
2100.0
1
2026-09-30  |  FreeCAD 1.1.4  |  mm
50
0
0
ENDSEC
0
EOF
