0
SECTION
2
HEADER
9
$ACADVER
1
AC1009
9
$INSUNITS
70
4
0
ENDSEC
0
SECTION
2
ENTITIES
0
LINE
8
frame
10
5250
20
217500
30
0
11
309750
21
217500
31
0
0
LINE
8
frame
10
309750
20
217500
30
0
11
309750
21
5250
31
0
0
LINE
8
frame
10
309750
20
5250
30
0
11
5250
21
5250
31
0
0
LINE
8
frame
10
5250
20
5250
30
0
11
5250
21
217500
31
0
0
TEXT
8
annotation
10
10500
20
209250
30
0
40
3150.0
1
PHOENIX SCIENCE PARK
50
0
0
TEXT
8
annotation
10
10500
20
203250
30
0
40
3750.0
1
HQ / Roof equipment plan
50
0
0
TEXT
8
annotation
10
290100.0
20
209250
30
0
40
2400.0
1
A3  |  1:750
50
0
0
TEXT
8
annotation
10
284250.0
20
203250
30
0
40
2250.0
1
CAD-HQ-ROOF  /  R1
50
0
0
LINE
8
frame
10
10500
20
199500
30
0
11
304500
21
199500
31
0
0
LINE
8
roof
10
118250.0
20
92000.0
30
0
11
118250.0
21
151000.0
31
0
0
LINE
8
roof
10
189250.0
20
92000.0
30
0
11
189250.0
21
151000.0
31
0
0
LINE
8
roof
10
118250.0
20
92000.0
30
0
11
189250.0
21
92000.0
31
0
0
LINE
8
roof
10
118250.0
20
151000.0
30
0
11
189250.0
21
151000.0
31
0
0
LINE
8
roof
10
67750.0
20
94500.0
30
0
11
67750.0
21
148500.0
31
0
0
LINE
8
roof
10
111750.0
20
94500.0
30
0
11
111750.0
21
148500.0
31
0
0
LINE
8
roof
10
67750.0
20
94500.0
30
0
11
111750.0
21
94500.0
31
0
0
LINE
8
roof
10
67750.0
20
148500.0
30
0
11
111750.0
21
148500.0
31
0
0
LINE
8
equipment
10
76850.0
20
107100.00000000001
30
0
11
76850.0
21
111899.99999999999
31
0
0
LINE
8
equipment
10
84650.0
20
107100.00000000001
30
0
11
84650.0
21
111899.99999999999
31
0
0
LINE
8
equipment
10
76850.0
20
107100.00000000001
30
0
11
84650.0
21
107100.00000000001
31
0
0
LINE
8
equipment
10
76850.0
20
111899.99999999999
30
0
11
84650.0
21
111899.99999999999
31
0
0
LINE
8
equipment
10
77250.0
20
107500.0
30
0
11
77250.0
21
111500.0
31
0
0
LINE
8
equipment
10
84250.0
20
107500.0
30
0
11
84250.0
21
111500.0
31
0
0
LINE
8
equipment
10
77250.0
20
107500.0
30
0
11
84250.0
21
107500.0
31
0
0
LINE
8
equipment
10
77250.0
20
111500.0
30
0
11
84250.0
21
111500.0
31
0
0
LINE
8
equipment
10
77650.0
20
111500.0
30
0
11
77650.0
21
111619.99999999999
31
0
0
LINE
8
equipment
10
79450.0
20
111500.0
30
0
11
79450.0
21
111619.99999999999
31
0
0
LINE
8
equipment
10
77650.0
20
111619.99999999999
30
0
11
79450.0
21
111619.99999999999
31
0
0
LINE
8
equipment
10
80210.0
20
109500.0
30
0
11
79833.49
21
110281.83
31
0
0
LINE
8
equipment
10
79833.49
20
110281.83
30
0
11
78987.48
21
110474.93
31
0
0
LINE
8
equipment
10
78987.48
20
110474.93
30
0
11
78309.03
21
109933.88
31
0
0
LINE
8
equipment
10
78309.03
20
109933.88
30
0
11
78309.03
21
109066.12
31
0
0
LINE
8
equipment
10
78309.03
20
109066.12
30
0
11
78987.48
21
108525.07
31
0
0
LINE
8
equipment
10
78987.48
20
108525.07
30
0
11
79833.49
21
108718.17
31
0
0
LINE
8
equipment
10
79833.49
20
108718.17
30
0
11
80210.0
21
109500.0
31
0
0
LINE
8
equipment
10
79850.0
20
111500.0
30
0
11
79850.0
21
111619.99999999999
31
0
0
LINE
8
equipment
10
81650.0
20
111500.0
30
0
11
81650.0
21
111619.99999999999
31
0
0
LINE
8
equipment
10
79850.0
20
111619.99999999999
30
0
11
81650.0
21
111619.99999999999
31
0
0
LINE
8
equipment
10
81750.0
20
109500.0
30
0
11
81373.49
21
110281.83
31
0
0
LINE
8
equipment
10
81373.49
20
110281.83
30
0
11
80527.48
21
110474.93
31
0
0
LINE
8
equipment
10
80527.48
20
110474.93
30
0
11
79849.03
21
109933.88
31
0
0
LINE
8
equipment
10
79849.03
20
109933.88
30
0
11
79849.03
21
109066.12
31
0
0
LINE
8
equipment
10
79849.03
20
109066.12
30
0
11
80527.48
21
108525.07
31
0
0
LINE
8
equipment
10
80527.48
20
108525.07
30
0
11
81373.49
21
108718.17
31
0
0
LINE
8
equipment
10
81373.49
20
108718.17
30
0
11
81750.0
21
109500.0
31
0
0
LINE
8
equipment
10
82050.0
20
111500.0
30
0
11
82050.0
21
111619.99999999999
31
0
0
LINE
8
equipment
10
83850.0
20
111500.0
30
0
11
83850.0
21
111619.99999999999
31
0
0
LINE
8
equipment
10
82050.0
20
111619.99999999999
30
0
11
83850.0
21
111619.99999999999
31
0
0
LINE
8
equipment
10
83290.0
20
109500.0
30
0
11
82913.49
21
110281.83
31
0
0
LINE
8
equipment
10
82913.49
20
110281.83
30
0
11
82067.48
21
110474.93
31
0
0
LINE
8
equipment
10
82067.48
20
110474.93
30
0
11
81389.03
21
109933.88
31
0
0
LINE
8
equipment
10
81389.03
20
109933.88
30
0
11
81389.03
21
109066.12
31
0
0
LINE
8
equipment
10
81389.03
20
109066.12
30
0
11
82067.48
21
108525.07
31
0
0
LINE
8
equipment
10
82067.48
20
108525.07
30
0
11
82913.49
21
108718.17
31
0
0
LINE
8
equipment
10
82913.49
20
108718.17
30
0
11
83290.0
21
109500.0
31
0
0
LINE
8
equipment
10
77450.0
20
107435.0
30
0
11
77450.0
21
107500.0
31
0
0
LINE
8
equipment
10
84050.0
20
107435.0
30
0
11
84050.0
21
107500.0
31
0
0
LINE
8
equipment
10
77450.0
20
107435.0
30
0
11
84050.0
21
107435.0
31
0
0
LINE
8
equipment
10
77450.0
20
111500.0
30
0
11
77450.0
21
111565.0
31
0
0
LINE
8
equipment
10
84050.0
20
111500.0
30
0
11
84050.0
21
111565.0
31
0
0
LINE
8
equipment
10
77450.0
20
111565.0
30
0
11
77650.0
21
111565.0
31
0
0
LINE
8
equipment
10
79450.0
20
111565.0
30
0
11
79850.0
21
111565.0
31
0
0
LINE
8
equipment
10
81650.0
20
111565.0
30
0
11
82050.0
21
111565.0
31
0
0
LINE
8
equipment
10
83850.0
20
111565.0
30
0
11
84050.0
21
111565.0
31
0
0
LINE
8
equipment
10
94850.0
20
107100.00000000001
30
0
11
94850.0
21
111899.99999999999
31
0
0
LINE
8
equipment
10
102650.0
20
107100.00000000001
30
0
11
102650.0
21
111899.99999999999
31
0
0
LINE
8
equipment
10
94850.0
20
107100.00000000001
30
0
11
102650.0
21
107100.00000000001
31
0
0
LINE
8
equipment
10
94850.0
20
111899.99999999999
30
0
11
102650.0
21
111899.99999999999
31
0
0
LINE
8
equipment
10
95250.0
20
107500.0
30
0
11
95250.0
21
111500.0
31
0
0
LINE
8
equipment
10
102249.99999999999
20
107500.0
30
0
11
102249.99999999999
21
111500.0
31
0
0
LINE
8
equipment
10
95250.0
20
107500.0
30
0
11
102249.99999999999
21
107500.0
31
0
0
LINE
8
equipment
10
95250.0
20
111500.0
30
0
11
102249.99999999999
21
111500.0
31
0
0
LINE
8
equipment
10
95650.0
20
111500.0
30
0
11
95650.0
21
111619.99999999999
31
0
0
LINE
8
equipment
10
97450.0
20
111500.0
30
0
11
97450.0
21
111619.99999999999
31
0
0
LINE
8
equipment
10
95650.0
20
111619.99999999999
30
0
11
97450.0
21
111619.99999999999
31
0
0
LINE
8
equipment
10
98210.0
20
109500.0
30
0
11
97833.49
21
110281.83
31
0
0
LINE
8
equipment
10
97833.49
20
110281.83
30
0
11
96987.48000000001
21
110474.93
31
0
0
LINE
8
equipment
10
96987.48000000001
20
110474.93
30
0
11
96309.03
21
109933.88
31
0
0
LINE
8
equipment
10
96309.03
20
109933.88
30
0
11
96309.03
21
109066.12
31
0
0
LINE
8
equipment
10
96309.03
20
109066.12
30
0
11
96987.48000000001
21
108525.07
31
0
0
LINE
8
equipment
10
96987.48000000001
20
108525.07
30
0
11
97833.49
21
108718.17
31
0
0
LINE
8
equipment
10
97833.49
20
108718.17
30
0
11
98210.0
21
109500.0
31
0
0
LINE
8
equipment
10
97850.0
20
111500.0
30
0
11
97850.0
21
111619.99999999999
31
0
0
LINE
8
equipment
10
99650.0
20
111500.0
30
0
11
99650.0
21
111619.99999999999
31
0
0
LINE
8
equipment
10
97850.0
20
111619.99999999999
30
0
11
99650.0
21
111619.99999999999
31
0
0
LINE
8
equipment
10
99750.0
20
109500.0
30
0
11
99373.48999999999
21
110281.83
31
0
0
LINE
8
equipment
10
99373.48999999999
20
110281.83
30
0
11
98527.48000000001
21
110474.93
31
0
0
LINE
8
equipment
10
98527.48000000001
20
110474.93
30
0
11
97849.03
21
109933.88
31
0
0
LINE
8
equipment
10
97849.03
20
109933.88
30
0
11
97849.03
21
109066.12
31
0
0
LINE
8
equipment
10
97849.03
20
109066.12
30
0
11
98527.48000000001
21
108525.07
31
0
0
LINE
8
equipment
10
98527.48000000001
20
108525.07
30
0
11
99373.48999999999
21
108718.17
31
0
0
LINE
8
equipment
10
99373.48999999999
20
108718.17
30
0
11
99750.0
21
109500.0
31
0
0
LINE
8
equipment
10
100050.0
20
111500.0
30
0
11
100050.0
21
111619.99999999999
31
0
0
LINE
8
equipment
10
101850.00000000001
20
111500.0
30
0
11
101850.00000000001
21
111619.99999999999
31
0
0
LINE
8
equipment
10
100050.0
20
111619.99999999999
30
0
11
101850.00000000001
21
111619.99999999999
31
0
0
LINE
8
equipment
10
101290.0
20
109500.0
30
0
11
100913.49
21
110281.83
31
0
0
LINE
8
equipment
10
100913.49
20
110281.83
30
0
11
100067.48000000001
21
110474.93
31
0
0
LINE
8
equipment
10
100067.48000000001
20
110474.93
30
0
11
99389.03
21
109933.88
31
0
0
LINE
8
equipment
10
99389.03
20
109933.88
30
0
11
99389.03
21
109066.12
31
0
0
LINE
8
equipment
10
99389.03
20
109066.12
30
0
11
100067.48000000001
21
108525.07
31
0
0
LINE
8
equipment
10
100067.48000000001
20
108525.07
30
0
11
100913.49
21
108718.17
31
0
0
LINE
8
equipment
10
100913.49
20
108718.17
30
0
11
101290.0
21
109500.0
31
0
0
LINE
8
equipment
10
95450.0
20
107435.0
30
0
11
95450.0
21
107500.0
31
0
0
LINE
8
equipment
10
102050.0
20
107435.0
30
0
11
102050.0
21
107500.0
31
0
0
LINE
8
equipment
10
95450.0
20
107435.0
30
0
11
102050.0
21
107435.0
31
0
0
LINE
8
equipment
10
95450.0
20
111500.0
30
0
11
95450.0
21
111565.0
31
0
0
LINE
8
equipment
10
102050.0
20
111500.0
30
0
11
102050.0
21
111565.0
31
0
0
LINE
8
equipment
10
95450.0
20
111565.0
30
0
11
95650.0
21
111565.0
31
0
0
LINE
8
equipment
10
97450.0
20
111565.0
30
0
11
97850.0
21
111565.0
31
0
0
LINE
8
equipment
10
99650.0
20
111565.0
30
0
11
100050.0
21
111565.0
31
0
0
LINE
8
equipment
10
101850.00000000001
20
111565.0
30
0
11
102050.0
21
111565.0
31
0
0
LINE
8
roof
10
195750.0
20
94500.0
30
0
11
195750.0
21
148500.0
31
0
0
LINE
8
roof
10
239750.0
20
94500.0
30
0
11
239750.0
21
148500.0
31
0
0
LINE
8
roof
10
195750.0
20
94500.0
30
0
11
239750.0
21
94500.0
31
0
0
LINE
8
roof
10
195750.0
20
148500.0
30
0
11
239750.0
21
148500.0
31
0
0
LINE
8
equipment
10
204850.0
20
107100.00000000001
30
0
11
204850.0
21
111899.99999999999
31
0
0
LINE
8
equipment
10
212649.99999999997
20
107100.00000000001
30
0
11
212649.99999999997
21
111899.99999999999
31
0
0
LINE
8
equipment
10
204850.0
20
107100.00000000001
30
0
11
212649.99999999997
21
107100.00000000001
31
0
0
LINE
8
equipment
10
204850.0
20
111899.99999999999
30
0
11
212649.99999999997
21
111899.99999999999
31
0
0
LINE
8
equipment
10
205250.0
20
107500.0
30
0
11
205250.0
21
111500.0
31
0
0
LINE
8
equipment
10
212250.0
20
107500.0
30
0
11
212250.0
21
111500.0
31
0
0
LINE
8
equipment
10
205250.0
20
107500.0
30
0
11
212250.0
21
107500.0
31
0
0
LINE
8
equipment
10
205250.0
20
111500.0
30
0
11
212250.0
21
111500.0
31
0
0
LINE
8
equipment
10
205650.0
20
111500.0
30
0
11
205650.0
21
111619.99999999999
31
0
0
LINE
8
equipment
10
207450.00000000003
20
111500.0
30
0
11
207450.00000000003
21
111619.99999999999
31
0
0
LINE
8
equipment
10
205650.0
20
111619.99999999999
30
0
11
207450.00000000003
21
111619.99999999999
31
0
0
LINE
8
equipment
10
208210.0
20
109500.0
30
0
11
207833.49
21
110281.83
31
0
0
LINE
8
equipment
10
207833.49
20
110281.83
30
0
11
206987.47999999998
21
110474.93
31
0
0
LINE
8
equipment
10
206987.47999999998
20
110474.93
30
0
11
206309.03
21
109933.88
31
0
0
LINE
8
equipment
10
206309.03
20
109933.88
30
0
11
206309.03
21
109066.12
31
0
0
LINE
8
equipment
10
206309.03
20
109066.12
30
0
11
206987.47999999998
21
108525.07
31
0
0
LINE
8
equipment
10
206987.47999999998
20
108525.07
30
0
11
207833.49
21
108718.17
31
0
0
LINE
8
equipment
10
207833.49
20
108718.17
30
0
11
208210.0
21
109500.0
31
0
0
LINE
8
equipment
10
207850.0
20
111500.0
30
0
11
207850.0
21
111619.99999999999
31
0
0
LINE
8
equipment
10
209649.99999999997
20
111500.0
30
0
11
209649.99999999997
21
111619.99999999999
31
0
0
LINE
8
equipment
10
207850.0
20
111619.99999999999
30
0
11
209649.99999999997
21
111619.99999999999
31
0
0
LINE
8
equipment
10
209750.0
20
109500.0
30
0
11
209373.49
21
110281.83
31
0
0
LINE
8
equipment
10
209373.49
20
110281.83
30
0
11
208527.48000000004
21
110474.93
31
0
0
LINE
8
equipment
10
208527.48000000004
20
110474.93
30
0
11
207849.03
21
109933.88
31
0
0
LINE
8
equipment
10
207849.03
20
109933.88
30
0
11
207849.03
21
109066.12
31
0
0
LINE
8
equipment
10
207849.03
20
109066.12
30
0
11
208527.48000000004
21
108525.07
31
0
0
LINE
8
equipment
10
208527.48000000004
20
108525.07
30
0
11
209373.49
21
108718.17
31
0
0
LINE
8
equipment
10
209373.49
20
108718.17
30
0
11
209750.0
21
109500.0
31
0
0
LINE
8
equipment
10
210050.0
20
111500.0
30
0
11
210050.0
21
111619.99999999999
31
0
0
LINE
8
equipment
10
211850.00000000003
20
111500.0
30
0
11
211850.00000000003
21
111619.99999999999
31
0
0
LINE
8
equipment
10
210050.0
20
111619.99999999999
30
0
11
211850.00000000003
21
111619.99999999999
31
0
0
LINE
8
equipment
10
211290.00000000003
20
109500.0
30
0
11
210913.49
21
110281.83
31
0
0
LINE
8
equipment
10
210913.49
20
110281.83
30
0
11
210067.47999999998
21
110474.93
31
0
0
LINE
8
equipment
10
210067.47999999998
20
110474.93
30
0
11
209389.03000000003
21
109933.88
31
0
0
LINE
8
equipment
10
209389.03000000003
20
109933.88
30
0
11
209389.03000000003
21
109066.12
31
0
0
LINE
8
equipment
10
209389.03000000003
20
109066.12
30
0
11
210067.47999999998
21
108525.07
31
0
0
LINE
8
equipment
10
210067.47999999998
20
108525.07
30
0
11
210913.49
21
108718.17
31
0
0
LINE
8
equipment
10
210913.49
20
108718.17
30
0
11
211290.00000000003
21
109500.0
31
0
0
LINE
8
equipment
10
205450.0
20
107435.0
30
0
11
205450.0
21
107500.0
31
0
0
LINE
8
equipment
10
212050.0
20
107435.0
30
0
11
212050.0
21
107500.0
31
0
0
LINE
8
equipment
10
205450.0
20
107435.0
30
0
11
212050.0
21
107435.0
31
0
0
LINE
8
equipment
10
205450.0
20
111500.0
30
0
11
205450.0
21
111565.0
31
0
0
LINE
8
equipment
10
212050.0
20
111500.0
30
0
11
212050.0
21
111565.0
31
0
0
LINE
8
equipment
10
205450.0
20
111565.0
30
0
11
205650.0
21
111565.0
31
0
0
LINE
8
equipment
10
207450.00000000003
20
111565.0
30
0
11
207850.0
21
111565.0
31
0
0
LINE
8
equipment
10
209649.99999999997
20
111565.0
30
0
11
210050.0
21
111565.0
31
0
0
LINE
8
equipment
10
211850.00000000003
20
111565.0
30
0
11
212050.0
21
111565.0
31
0
0
LINE
8
equipment
10
222850.0
20
107100.00000000001
30
0
11
222850.0
21
111899.99999999999
31
0
0
LINE
8
equipment
10
230649.99999999997
20
107100.00000000001
30
0
11
230649.99999999997
21
111899.99999999999
31
0
0
LINE
8
equipment
10
222850.0
20
107100.00000000001
30
0
11
230649.99999999997
21
107100.00000000001
31
0
0
LINE
8
equipment
10
222850.0
20
111899.99999999999
30
0
11
230649.99999999997
21
111899.99999999999
31
0
0
LINE
8
equipment
10
223250.0
20
107500.0
30
0
11
223250.0
21
111500.0
31
0
0
LINE
8
equipment
10
230250.0
20
107500.0
30
0
11
230250.0
21
111500.0
31
0
0
LINE
8
equipment
10
223250.0
20
107500.0
30
0
11
230250.0
21
107500.0
31
0
0
LINE
8
equipment
10
223250.0
20
111500.0
30
0
11
230250.0
21
111500.0
31
0
0
LINE
8
equipment
10
223650.0
20
111500.0
30
0
11
223650.0
21
111619.99999999999
31
0
0
LINE
8
equipment
10
225450.00000000003
20
111500.0
30
0
11
225450.00000000003
21
111619.99999999999
31
0
0
LINE
8
equipment
10
223650.0
20
111619.99999999999
30
0
11
225450.00000000003
21
111619.99999999999
31
0
0
LINE
8
equipment
10
226210.0
20
109500.0
30
0
11
225833.49
21
110281.83
31
0
0
LINE
8
equipment
10
225833.49
20
110281.83
30
0
11
224987.47999999998
21
110474.93
31
0
0
LINE
8
equipment
10
224987.47999999998
20
110474.93
30
0
11
224309.03
21
109933.88
31
0
0
LINE
8
equipment
10
224309.03
20
109933.88
30
0
11
224309.03
21
109066.12
31
0
0
LINE
8
equipment
10
224309.03
20
109066.12
30
0
11
224987.47999999998
21
108525.07
31
0
0
LINE
8
equipment
10
224987.47999999998
20
108525.07
30
0
11
225833.49
21
108718.17
31
0
0
LINE
8
equipment
10
225833.49
20
108718.17
30
0
11
226210.0
21
109500.0
31
0
0
LINE
8
equipment
10
225850.0
20
111500.0
30
0
11
225850.0
21
111619.99999999999
31
0
0
LINE
8
equipment
10
227649.99999999997
20
111500.0
30
0
11
227649.99999999997
21
111619.99999999999
31
0
0
LINE
8
equipment
10
225850.0
20
111619.99999999999
30
0
11
227649.99999999997
21
111619.99999999999
31
0
0
LINE
8
equipment
10
227750.0
20
109500.0
30
0
11
227373.49
21
110281.83
31
0
0
LINE
8
equipment
10
227373.49
20
110281.83
30
0
11
226527.47999999998
21
110474.93
31
0
0
LINE
8
equipment
10
226527.47999999998
20
110474.93
30
0
11
225849.03
21
109933.88
31
0
0
LINE
8
equipment
10
225849.03
20
109933.88
30
0
11
225849.03
21
109066.12
31
0
0
LINE
8
equipment
10
225849.03
20
109066.12
30
0
11
226527.47999999998
21
108525.07
31
0
0
LINE
8
equipment
10
226527.47999999998
20
108525.07
30
0
11
227373.49
21
108718.17
31
0
0
LINE
8
equipment
10
227373.49
20
108718.17
30
0
11
227750.0
21
109500.0
31
0
0
LINE
8
equipment
10
228050.0
20
111500.0
30
0
11
228050.0
21
111619.99999999999
31
0
0
LINE
8
equipment
10
229850.00000000003
20
111500.0
30
0
11
229850.00000000003
21
111619.99999999999
31
0
0
LINE
8
equipment
10
228050.0
20
111619.99999999999
30
0
11
229850.00000000003
21
111619.99999999999
31
0
0
LINE
8
equipment
10
229290.00000000003
20
109500.0
30
0
11
228913.49
21
110281.83
31
0
0
LINE
8
equipment
10
228913.49
20
110281.83
30
0
11
228067.47999999998
21
110474.93
31
0
0
LINE
8
equipment
10
228067.47999999998
20
110474.93
30
0
11
227389.03000000003
21
109933.88
31
0
0
LINE
8
equipment
10
227389.03000000003
20
109933.88
30
0
11
227389.03000000003
21
109066.12
31
0
0
LINE
8
equipment
10
227389.03000000003
20
109066.12
30
0
11
228067.47999999998
21
108525.07
31
0
0
LINE
8
equipment
10
228067.47999999998
20
108525.07
30
0
11
228913.49
21
108718.17
31
0
0
LINE
8
equipment
10
228913.49
20
108718.17
30
0
11
229290.00000000003
21
109500.0
31
0
0
LINE
8
equipment
10
223450.0
20
107435.0
30
0
11
223450.0
21
107500.0
31
0
0
LINE
8
equipment
10
230050.0
20
107435.0
30
0
11
230050.0
21
107500.0
31
0
0
LINE
8
equipment
10
223450.0
20
107435.0
30
0
11
230050.0
21
107435.0
31
0
0
LINE
8
equipment
10
223450.0
20
111500.0
30
0
11
223450.0
21
111565.0
31
0
0
LINE
8
equipment
10
230050.0
20
111500.0
30
0
11
230050.0
21
111565.0
31
0
0
LINE
8
equipment
10
223450.0
20
111565.0
30
0
11
223650.0
21
111565.0
31
0
0
LINE
8
equipment
10
225450.00000000003
20
111565.0
30
0
11
225850.0
21
111565.0
31
0
0
LINE
8
equipment
10
227649.99999999997
20
111565.0
30
0
11
228050.0
21
111565.0
31
0
0
LINE
8
equipment
10
229850.00000000003
20
111565.0
30
0
11
230050.0
21
111565.0
31
0
0
LINE
8
roof
10
124750.0
20
112500.0
30
0
11
182750.0
21
112500.0
31
0
0
LINE
8
roof
10
182750.0
20
112500.0
30
0
11
182750.0
21
121500.0
31
0
0
LINE
8
roof
10
182750.0
20
121500.0
30
0
11
124750.0
21
121500.0
31
0
0
LINE
8
roof
10
124750.0
20
121500.0
30
0
11
124750.0
21
112500.0
31
0
0
LINE
8
roof
10
124750.0
20
130500.0
30
0
11
182750.0
21
130500.0
31
0
0
LINE
8
roof
10
182750.0
20
130500.0
30
0
11
182750.0
21
121500.0
31
0
0
LINE
8
roof
10
124750.0
20
121500.0
30
0
11
124750.0
21
130500.0
31
0
0
LINE
8
datum
10
56749.99999999999
20
91500.0
30
0
11
250750.00000000003
21
91500.0
31
0
0
LINE
8
datum
10
250750.00000000003
20
91500.0
30
0
11
250750.00000000003
21
151500.0
31
0
0
LINE
8
datum
10
250750.00000000003
20
151500.0
30
0
11
56749.99999999999
21
151500.0
31
0
0
LINE
8
datum
10
56749.99999999999
20
151500.0
30
0
11
56749.99999999999
21
91500.0
31
0
0
LINE
8
grid
10
56749.99999999999
20
89000.0
30
0
11
56749.99999999999
21
156000.0
31
0
0
TEXT
8
annotation
10
56281.24999999999
20
157500.0
30
0
40
1875.0
1
1
50
0
0
LINE
8
grid
10
72916.66666666667
20
89000.0
30
0
11
72916.66666666667
21
156000.0
31
0
0
TEXT
8
annotation
10
72447.91666666667
20
157500.0
30
0
40
1875.0
1
2
50
0
0
LINE
8
grid
10
89083.33333333334
20
89000.0
30
0
11
89083.33333333334
21
156000.0
31
0
0
TEXT
8
annotation
10
88614.58333333334
20
157500.0
30
0
40
1875.0
1
3
50
0
0
LINE
8
grid
10
105249.99999999999
20
89000.0
30
0
11
105249.99999999999
21
156000.0
31
0
0
TEXT
8
annotation
10
104781.24999999999
20
157500.0
30
0
40
1875.0
1
4
50
0
0
LINE
8
grid
10
121416.66666666667
20
89000.0
30
0
11
121416.66666666667
21
156000.0
31
0
0
TEXT
8
annotation
10
120947.91666666667
20
157500.0
30
0
40
1875.0
1
5
50
0
0
LINE
8
grid
10
137583.3333333333
20
89000.0
30
0
11
137583.3333333333
21
156000.0
31
0
0
TEXT
8
annotation
10
137114.5833333333
20
157500.0
30
0
40
1875.0
1
6
50
0
0
LINE
8
grid
10
153750.0
20
89000.0
30
0
11
153750.0
21
156000.0
31
0
0
TEXT
8
annotation
10
153281.25
20
157500.0
30
0
40
1875.0
1
7
50
0
0
LINE
8
grid
10
169916.6666666667
20
89000.0
30
0
11
169916.6666666667
21
156000.0
31
0
0
TEXT
8
annotation
10
169447.9166666667
20
157500.0
30
0
40
1875.0
1
8
50
0
0
LINE
8
grid
10
186083.33333333334
20
89000.0
30
0
11
186083.33333333334
21
156000.0
31
0
0
TEXT
8
annotation
10
185614.58333333334
20
157500.0
30
0
40
1875.0
1
9
50
0
0
LINE
8
grid
10
202250.0
20
89000.0
30
0
11
202250.0
21
156000.0
31
0
0
TEXT
8
annotation
10
201312.5
20
157500.0
30
0
40
1875.0
1
10
50
0
0
LINE
8
grid
10
218416.66666666666
20
89000.0
30
0
11
218416.66666666666
21
156000.0
31
0
0
TEXT
8
annotation
10
217479.16666666666
20
157500.0
30
0
40
1875.0
1
11
50
0
0
LINE
8
grid
10
234583.33333333334
20
89000.0
30
0
11
234583.33333333334
21
156000.0
31
0
0
TEXT
8
annotation
10
233645.83333333334
20
157500.0
30
0
40
1875.0
1
12
50
0
0
LINE
8
grid
10
250750.00000000003
20
89000.0
30
0
11
250750.00000000003
21
156000.0
31
0
0
TEXT
8
annotation
10
249812.50000000003
20
157500.0
30
0
40
1875.0
1
13
50
0
0
LINE
8
grid
10
52750.00000000001
20
91500.0
30
0
11
254749.99999999997
21
91500.0
31
0
0
TEXT
8
annotation
10
50312.50000000001
20
90750.0
30
0
40
1875.0
1
A
50
0
0
LINE
8
grid
10
52750.00000000001
20
121500.0
30
0
11
254749.99999999997
21
121500.0
31
0
0
TEXT
8
annotation
10
50312.50000000001
20
120750.0
30
0
40
1875.0
1
B
50
0
0
LINE
8
grid
10
52750.00000000001
20
151500.0
30
0
11
254749.99999999997
21
151500.0
31
0
0
TEXT
8
annotation
10
50312.50000000001
20
150750.0
30
0
40
1875.0
1
C
50
0
0
LINE
8
dimension
10
56749.99999999999
20
82500.0
30
0
11
250750.00000000003
21
82500.0
31
0
0
LINE
8
dimension
10
55999.99999999999
20
81750.0
30
0
11
57499.99999999999
21
83250.0
31
0
0
LINE
8
dimension
10
250000.00000000003
20
81750.0
30
0
11
251500.00000000003
21
83250.0
31
0
0
TEXT
8
annotation
10
143625.0
20
83625.0
30
0
40
2250.0
1
194,000 mm overall
50
0
0
LINE
8
dimension
10
259000.00000000003
20
151500.0
30
0
11
259000.00000000003
21
91500.0
31
0
0
TEXT
8
annotation
10
261250.00000000003
20
121500.0
30
0
40
2250.0
1
60,000
50
0
0
TEXT
8
annotation
10
285750.0
20
189000
30
0
40
3000.0
1
N
50
0
0
LINE
8
annotation
10
286500
20
186750
30
0
11
284250
21
180000
31
0
0
LINE
8
annotation
10
284250
20
180000
30
0
11
286500
21
182250
31
0
0
LINE
8
annotation
10
286500
20
182250
30
0
11
288750
21
180000
31
0
0
LINE
8
annotation
10
288750
20
180000
30
0
11
286500
21
186750
31
0
0
LINE
8
frame
10
10500
20
44250
30
0
11
304500
21
44250
31
0
0
TEXT
8
annotation
10
10500
20
38250
30
0
40
2625.0
1
CONCEPT DESIGN | IMAGE-INFERRED | NOT FOR CONSTRUCTION
50
0
0
TEXT
8
annotation
10
10500
20
28500.0
30
0
40
1987.5
1
Source: two campus AI images + fab1.jpg; official analogues documented in analysis/cad/.
50
0
0
TEXT
8
annotation
10
10500
20
25200.00000000002
30
0
40
1987.5
1
CAD model in mm; site coordinates X east, Y north, Z up. Internal layouts and member sizes are design estimates.
50
0
0
TEXT
8
annotation
10
10500
20
21899.999999999993
30
0
40
1987.5
1
Plans/sections are extracted from actual FreeCAD BRep. Elevations project component outlines; hidden edges omitted per component.
50
0
0
TEXT
8
annotation
10
10500
20
18600.000000000007
30
0
40
1987.5
1
Civic wing roofs and skylight may differ from the nominal building height; inspect actual geometry and parameter aliases.
50
0
0
TEXT
8
annotation
10
10500
20
15299.999999999984
30
0
40
1987.5
1
No process certification, structural verification, measured survey, or construction approval is implied.
50
0
0
TEXT
8
annotation
10
267750.0
20
8250
30
0
40
2100.0
1
2026-09-30  |  FreeCAD 1.1.4  |  mm
50
0
0
ENDSEC
0
EOF
