0
SECTION
2
HEADER
9
$ACADVER
1
AC1009
9
$INSUNITS
70
4
0
ENDSEC
0
SECTION
2
ENTITIES
0
LINE
8
frame
10
5250
20
217500
30
0
11
309750
21
217500
31
0
0
LINE
8
frame
10
309750
20
217500
30
0
11
309750
21
5250
31
0
0
LINE
8
frame
10
309750
20
5250
30
0
11
5250
21
5250
31
0
0
LINE
8
frame
10
5250
20
5250
30
0
11
5250
21
217500
31
0
0
TEXT
8
annotation
10
10500
20
209250
30
0
40
3150.0
1
PHOENIX SCIENCE PARK
50
0
0
TEXT
8
annotation
10
10500
20
203250
30
0
40
3750.0
1
HQ / Section A-A
50
0
0
TEXT
8
annotation
10
290100.0
20
209250
30
0
40
2400.0
1
A3  |  1:750
50
0
0
TEXT
8
annotation
10
280875.0
20
203250
30
0
40
2250.0
1
CAD-HQ-SECTION  /  R1
50
0
0
LINE
8
frame
10
10500
20
199500
30
0
11
304500
21
199500
31
0
0
LINE
8
cut
10
53250.0
20
103640.0
30
0
11
53250.0
21
102440.0
31
0
0
LINE
8
cut
10
53250.0
20
103640.0
30
0
11
254250.0
21
103640.0
31
0
0
LINE
8
cut
10
53250.0
20
102440.0
30
0
11
254250.0
21
102440.0
31
0
0
LINE
8
cut
10
254250.0
20
103640.0
30
0
11
254250.0
21
102440.0
31
0
0
LINE
8
cut
10
118600.0
20
136440.0
30
0
11
118600.0
21
103640.0
31
0
0
LINE
8
cut
10
118600.0
20
136440.0
30
0
11
118900.0
21
136440.0
31
0
0
LINE
8
cut
10
118600.0
20
103640.0
30
0
11
118900.0
21
103640.0
31
0
0
LINE
8
cut
10
118900.0
20
136440.0
30
0
11
118900.0
21
103640.0
31
0
0
LINE
8
cut
10
188600.0
20
136440.0
30
0
11
188600.0
21
103640.0
31
0
0
LINE
8
cut
10
188600.0
20
136440.0
30
0
11
188900.0
21
136440.0
31
0
0
LINE
8
cut
10
188600.0
20
103640.0
30
0
11
188900.0
21
103640.0
31
0
0
LINE
8
cut
10
188900.0
20
136440.0
30
0
11
188900.0
21
103640.0
31
0
0
LINE
8
cut
10
118750.0
20
104040.0
30
0
11
118750.0
21
103640.0
31
0
0
LINE
8
cut
10
118750.0
20
104040.0
30
0
11
188750.0
21
104040.0
31
0
0
LINE
8
cut
10
118750.0
20
103640.0
30
0
11
188750.0
21
103640.0
31
0
0
LINE
8
cut
10
188750.0
20
104040.0
30
0
11
188750.0
21
103640.0
31
0
0
LINE
8
interiors
10
167830.0
20
104040.0
30
0
11
167830.0
21
107240.00000000001
31
0
0
LINE
8
interiors
10
167830.0
20
107240.00000000001
30
0
11
167670.0
21
107240.00000000001
31
0
0
LINE
8
interiors
10
167830.0
20
104040.0
30
0
11
167670.0
21
104040.0
31
0
0
LINE
8
interiors
10
167670.0
20
104040.0
30
0
11
167670.0
21
107240.00000000001
31
0
0
LINE
8
interiors
10
139830.0
20
104040.0
30
0
11
139830.0
21
107240.00000000001
31
0
0
LINE
8
interiors
10
139830.0
20
107240.00000000001
30
0
11
139670.0
21
107240.00000000001
31
0
0
LINE
8
interiors
10
139830.0
20
104040.0
30
0
11
139670.0
21
104040.0
31
0
0
LINE
8
interiors
10
139670.0
20
104040.0
30
0
11
139670.0
21
107240.00000000001
31
0
0
LINE
8
cut
10
118250.0
20
137040.0
30
0
11
118250.0
21
136440.0
31
0
0
LINE
8
cut
10
118250.0
20
137040.0
30
0
11
189250.0
21
137040.0
31
0
0
LINE
8
cut
10
118250.0
20
136440.0
30
0
11
189250.0
21
136440.0
31
0
0
LINE
8
cut
10
189250.0
20
137040.0
30
0
11
189250.0
21
136440.0
31
0
0
LINE
8
cut
10
68100.0
20
131440.0
30
0
11
68100.0
21
103640.0
31
0
0
LINE
8
cut
10
68100.0
20
131440.0
30
0
11
68400.0
21
131440.0
31
0
0
LINE
8
cut
10
68100.0
20
103640.0
30
0
11
68400.0
21
103640.0
31
0
0
LINE
8
cut
10
68400.0
20
131440.0
30
0
11
68400.0
21
103640.0
31
0
0
LINE
8
cut
10
111100.0
20
131440.0
30
0
11
111100.0
21
103640.0
31
0
0
LINE
8
cut
10
111100.0
20
131440.0
30
0
11
111400.0
21
131440.0
31
0
0
LINE
8
cut
10
111100.0
20
103640.0
30
0
11
111400.0
21
103640.0
31
0
0
LINE
8
cut
10
111400.0
20
131440.0
30
0
11
111400.0
21
103640.0
31
0
0
LINE
8
cut
10
68250.0
20
104040.0
30
0
11
68250.0
21
103640.0
31
0
0
LINE
8
cut
10
68250.0
20
104040.0
30
0
11
111250.0
21
104040.0
31
0
0
LINE
8
cut
10
68250.0
20
103640.0
30
0
11
111250.0
21
103640.0
31
0
0
LINE
8
cut
10
111250.0
20
104040.0
30
0
11
111250.0
21
103640.0
31
0
0
LINE
8
interiors
10
226429.99999999997
20
104040.0
30
0
11
226429.99999999997
21
107240.00000000001
31
0
0
LINE
8
interiors
10
226429.99999999997
20
107240.00000000001
30
0
11
226270.0
21
107240.00000000001
31
0
0
LINE
8
interiors
10
226429.99999999997
20
104040.0
30
0
11
226270.0
21
104040.0
31
0
0
LINE
8
interiors
10
226270.0
20
104040.0
30
0
11
226270.0
21
107240.00000000001
31
0
0
LINE
8
interiors
10
209230.00000000003
20
104040.0
30
0
11
209230.00000000003
21
107240.00000000001
31
0
0
LINE
8
interiors
10
209230.00000000003
20
107240.00000000001
30
0
11
209070.0
21
107240.00000000001
31
0
0
LINE
8
interiors
10
209230.00000000003
20
104040.0
30
0
11
209070.0
21
104040.0
31
0
0
LINE
8
interiors
10
209070.0
20
104040.0
30
0
11
209070.0
21
107240.00000000001
31
0
0
LINE
8
cut
10
68250.0
20
108673.33
30
0
11
68250.0
21
108273.33
31
0
0
LINE
8
cut
10
68250.0
20
108673.33
30
0
11
111250.0
21
108673.33
31
0
0
LINE
8
cut
10
68250.0
20
108273.33
30
0
11
111250.0
21
108273.33
31
0
0
LINE
8
cut
10
111250.0
20
108673.33
30
0
11
111250.0
21
108273.33
31
0
0
LINE
8
interiors
10
226429.99999999997
20
108673.33
30
0
11
226429.99999999997
21
111873.33000000002
31
0
0
LINE
8
interiors
10
226429.99999999997
20
111873.33000000002
30
0
11
226270.0
21
111873.33000000002
31
0
0
LINE
8
interiors
10
226429.99999999997
20
108673.33
30
0
11
226270.0
21
108673.33
31
0
0
LINE
8
interiors
10
226270.0
20
108673.33
30
0
11
226270.0
21
111873.33000000002
31
0
0
LINE
8
interiors
10
209230.00000000003
20
108673.33
30
0
11
209230.00000000003
21
111873.33000000002
31
0
0
LINE
8
interiors
10
209230.00000000003
20
111873.33000000002
30
0
11
209070.0
21
111873.33000000002
31
0
0
LINE
8
interiors
10
209230.00000000003
20
108673.33
30
0
11
209070.0
21
108673.33
31
0
0
LINE
8
interiors
10
209070.0
20
108673.33
30
0
11
209070.0
21
111873.33000000002
31
0
0
LINE
8
cut
10
68250.0
20
113306.67
30
0
11
68250.0
21
112906.67
31
0
0
LINE
8
cut
10
68250.0
20
113306.67
30
0
11
111250.0
21
113306.67
31
0
0
LINE
8
cut
10
68250.0
20
112906.67
30
0
11
111250.0
21
112906.67
31
0
0
LINE
8
cut
10
111250.0
20
113306.67
30
0
11
111250.0
21
112906.67
31
0
0
LINE
8
interiors
10
226429.99999999997
20
113306.67
30
0
11
226429.99999999997
21
116506.67000000001
31
0
0
LINE
8
interiors
10
226429.99999999997
20
116506.67000000001
30
0
11
226270.0
21
116506.67000000001
31
0
0
LINE
8
interiors
10
226429.99999999997
20
113306.67
30
0
11
226270.0
21
113306.67
31
0
0
LINE
8
interiors
10
226270.0
20
113306.67
30
0
11
226270.0
21
116506.67000000001
31
0
0
LINE
8
interiors
10
209230.00000000003
20
113306.67
30
0
11
209230.00000000003
21
116506.67000000001
31
0
0
LINE
8
interiors
10
209230.00000000003
20
116506.67000000001
30
0
11
209070.0
21
116506.67000000001
31
0
0
LINE
8
interiors
10
209230.00000000003
20
113306.67
30
0
11
209070.0
21
113306.67
31
0
0
LINE
8
interiors
10
209070.0
20
113306.67
30
0
11
209070.0
21
116506.67000000001
31
0
0
LINE
8
cut
10
68250.0
20
117940.0
30
0
11
68250.0
21
117540.0
31
0
0
LINE
8
cut
10
68250.0
20
117940.0
30
0
11
111250.0
21
117940.0
31
0
0
LINE
8
cut
10
68250.0
20
117540.0
30
0
11
111250.0
21
117540.0
31
0
0
LINE
8
cut
10
111250.0
20
117940.0
30
0
11
111250.0
21
117540.0
31
0
0
LINE
8
interiors
10
226429.99999999997
20
117940.0
30
0
11
226429.99999999997
21
121140.00000000001
31
0
0
LINE
8
interiors
10
226429.99999999997
20
121140.00000000001
30
0
11
226270.0
21
121140.00000000001
31
0
0
LINE
8
interiors
10
226429.99999999997
20
117940.0
30
0
11
226270.0
21
117940.0
31
0
0
LINE
8
interiors
10
226270.0
20
117940.0
30
0
11
226270.0
21
121140.00000000001
31
0
0
LINE
8
interiors
10
209230.00000000003
20
117940.0
30
0
11
209230.00000000003
21
121140.00000000001
31
0
0
LINE
8
interiors
10
209230.00000000003
20
121140.00000000001
30
0
11
209070.0
21
121140.00000000001
31
0
0
LINE
8
interiors
10
209230.00000000003
20
117940.0
30
0
11
209070.0
21
117940.0
31
0
0
LINE
8
interiors
10
209070.0
20
117940.0
30
0
11
209070.0
21
121140.00000000001
31
0
0
LINE
8
cut
10
68250.0
20
122573.33
30
0
11
68250.0
21
122173.33
31
0
0
LINE
8
cut
10
68250.0
20
122573.33
30
0
11
111250.0
21
122573.33
31
0
0
LINE
8
cut
10
68250.0
20
122173.33
30
0
11
111250.0
21
122173.33
31
0
0
LINE
8
cut
10
111250.0
20
122573.33
30
0
11
111250.0
21
122173.33
31
0
0
LINE
8
interiors
10
226429.99999999997
20
122573.33
30
0
11
226429.99999999997
21
125773.33
31
0
0
LINE
8
interiors
10
226429.99999999997
20
125773.33
30
0
11
226270.0
21
125773.33
31
0
0
LINE
8
interiors
10
226429.99999999997
20
122573.33
30
0
11
226270.0
21
122573.33
31
0
0
LINE
8
interiors
10
226270.0
20
122573.33
30
0
11
226270.0
21
125773.33
31
0
0
LINE
8
interiors
10
209230.00000000003
20
122573.33
30
0
11
209230.00000000003
21
125773.33
31
0
0
LINE
8
interiors
10
209230.00000000003
20
125773.33
30
0
11
209070.0
21
125773.33
31
0
0
LINE
8
interiors
10
209230.00000000003
20
122573.33
30
0
11
209070.0
21
122573.33
31
0
0
LINE
8
interiors
10
209070.0
20
122573.33
30
0
11
209070.0
21
125773.33
31
0
0
LINE
8
cut
10
68250.0
20
127206.67
30
0
11
68250.0
21
126806.67
31
0
0
LINE
8
cut
10
68250.0
20
127206.67
30
0
11
111250.0
21
127206.67
31
0
0
LINE
8
cut
10
68250.0
20
126806.67
30
0
11
111250.0
21
126806.67
31
0
0
LINE
8
cut
10
111250.0
20
127206.67
30
0
11
111250.0
21
126806.67
31
0
0
LINE
8
cut
10
67750.0
20
132040.0
30
0
11
67750.0
21
131440.0
31
0
0
LINE
8
cut
10
67750.0
20
132040.0
30
0
11
111750.0
21
132040.0
31
0
0
LINE
8
cut
10
67750.0
20
131440.0
30
0
11
111750.0
21
131440.0
31
0
0
LINE
8
cut
10
111750.0
20
132040.0
30
0
11
111750.0
21
131440.0
31
0
0
LINE
8
cut
10
196100.00000000003
20
131440.0
30
0
11
196100.00000000003
21
103640.0
31
0
0
LINE
8
cut
10
196100.00000000003
20
131440.0
30
0
11
196400.0
21
131440.0
31
0
0
LINE
8
cut
10
196100.00000000003
20
103640.0
30
0
11
196400.0
21
103640.0
31
0
0
LINE
8
cut
10
196400.0
20
131440.0
30
0
11
196400.0
21
103640.0
31
0
0
LINE
8
cut
10
239100.0
20
131440.0
30
0
11
239100.0
21
103640.0
31
0
0
LINE
8
cut
10
239100.0
20
131440.0
30
0
11
239400.0
21
131440.0
31
0
0
LINE
8
cut
10
239100.0
20
103640.0
30
0
11
239400.0
21
103640.0
31
0
0
LINE
8
cut
10
239400.0
20
131440.0
30
0
11
239400.0
21
103640.0
31
0
0
LINE
8
cut
10
196250.0
20
104040.0
30
0
11
196250.0
21
103640.0
31
0
0
LINE
8
cut
10
196250.0
20
104040.0
30
0
11
239250.0
21
104040.0
31
0
0
LINE
8
cut
10
196250.0
20
103640.0
30
0
11
239250.0
21
103640.0
31
0
0
LINE
8
cut
10
239250.0
20
104040.0
30
0
11
239250.0
21
103640.0
31
0
0
LINE
8
interiors
10
98430.0
20
104040.0
30
0
11
98430.0
21
107240.00000000001
31
0
0
LINE
8
interiors
10
98430.0
20
107240.00000000001
30
0
11
98270.0
21
107240.00000000001
31
0
0
LINE
8
interiors
10
98430.0
20
104040.0
30
0
11
98270.0
21
104040.0
31
0
0
LINE
8
interiors
10
98270.0
20
104040.0
30
0
11
98270.0
21
107240.00000000001
31
0
0
LINE
8
interiors
10
81230.0
20
104040.0
30
0
11
81230.0
21
107240.00000000001
31
0
0
LINE
8
interiors
10
81230.0
20
107240.00000000001
30
0
11
81070.0
21
107240.00000000001
31
0
0
LINE
8
interiors
10
81230.0
20
104040.0
30
0
11
81070.0
21
104040.0
31
0
0
LINE
8
interiors
10
81070.0
20
104040.0
30
0
11
81070.0
21
107240.00000000001
31
0
0
LINE
8
cut
10
196250.0
20
108673.33
30
0
11
196250.0
21
108273.33
31
0
0
LINE
8
cut
10
196250.0
20
108673.33
30
0
11
239250.0
21
108673.33
31
0
0
LINE
8
cut
10
196250.0
20
108273.33
30
0
11
239250.0
21
108273.33
31
0
0
LINE
8
cut
10
239250.0
20
108673.33
30
0
11
239250.0
21
108273.33
31
0
0
LINE
8
interiors
10
98430.0
20
108673.33
30
0
11
98430.0
21
111873.33000000002
31
0
0
LINE
8
interiors
10
98430.0
20
111873.33000000002
30
0
11
98270.0
21
111873.33000000002
31
0
0
LINE
8
interiors
10
98430.0
20
108673.33
30
0
11
98270.0
21
108673.33
31
0
0
LINE
8
interiors
10
98270.0
20
108673.33
30
0
11
98270.0
21
111873.33000000002
31
0
0
LINE
8
interiors
10
81230.0
20
108673.33
30
0
11
81230.0
21
111873.33000000002
31
0
0
LINE
8
interiors
10
81230.0
20
111873.33000000002
30
0
11
81070.0
21
111873.33000000002
31
0
0
LINE
8
interiors
10
81230.0
20
108673.33
30
0
11
81070.0
21
108673.33
31
0
0
LINE
8
interiors
10
81070.0
20
108673.33
30
0
11
81070.0
21
111873.33000000002
31
0
0
LINE
8
cut
10
196250.0
20
113306.67
30
0
11
196250.0
21
112906.67
31
0
0
LINE
8
cut
10
196250.0
20
113306.67
30
0
11
239250.0
21
113306.67
31
0
0
LINE
8
cut
10
196250.0
20
112906.67
30
0
11
239250.0
21
112906.67
31
0
0
LINE
8
cut
10
239250.0
20
113306.67
30
0
11
239250.0
21
112906.67
31
0
0
LINE
8
interiors
10
98430.0
20
113306.67
30
0
11
98430.0
21
116506.67000000001
31
0
0
LINE
8
interiors
10
98430.0
20
116506.67000000001
30
0
11
98270.0
21
116506.67000000001
31
0
0
LINE
8
interiors
10
98430.0
20
113306.67
30
0
11
98270.0
21
113306.67
31
0
0
LINE
8
interiors
10
98270.0
20
113306.67
30
0
11
98270.0
21
116506.67000000001
31
0
0
LINE
8
interiors
10
81230.0
20
113306.67
30
0
11
81230.0
21
116506.67000000001
31
0
0
LINE
8
interiors
10
81230.0
20
116506.67000000001
30
0
11
81070.0
21
116506.67000000001
31
0
0
LINE
8
interiors
10
81230.0
20
113306.67
30
0
11
81070.0
21
113306.67
31
0
0
LINE
8
interiors
10
81070.0
20
113306.67
30
0
11
81070.0
21
116506.67000000001
31
0
0
LINE
8
cut
10
196250.0
20
117940.0
30
0
11
196250.0
21
117540.0
31
0
0
LINE
8
cut
10
196250.0
20
117940.0
30
0
11
239250.0
21
117940.0
31
0
0
LINE
8
cut
10
196250.0
20
117540.0
30
0
11
239250.0
21
117540.0
31
0
0
LINE
8
cut
10
239250.0
20
117940.0
30
0
11
239250.0
21
117540.0
31
0
0
LINE
8
interiors
10
98430.0
20
117940.0
30
0
11
98430.0
21
121140.00000000001
31
0
0
LINE
8
interiors
10
98430.0
20
121140.00000000001
30
0
11
98270.0
21
121140.00000000001
31
0
0
LINE
8
interiors
10
98430.0
20
117940.0
30
0
11
98270.0
21
117940.0
31
0
0
LINE
8
interiors
10
98270.0
20
117940.0
30
0
11
98270.0
21
121140.00000000001
31
0
0
LINE
8
interiors
10
81230.0
20
117940.0
30
0
11
81230.0
21
121140.00000000001
31
0
0
LINE
8
interiors
10
81230.0
20
121140.00000000001
30
0
11
81070.0
21
121140.00000000001
31
0
0
LINE
8
interiors
10
81230.0
20
117940.0
30
0
11
81070.0
21
117940.0
31
0
0
LINE
8
interiors
10
81070.0
20
117940.0
30
0
11
81070.0
21
121140.00000000001
31
0
0
LINE
8
cut
10
196250.0
20
122573.33
30
0
11
196250.0
21
122173.33
31
0
0
LINE
8
cut
10
196250.0
20
122573.33
30
0
11
239250.0
21
122573.33
31
0
0
LINE
8
cut
10
196250.0
20
122173.33
30
0
11
239250.0
21
122173.33
31
0
0
LINE
8
cut
10
239250.0
20
122573.33
30
0
11
239250.0
21
122173.33
31
0
0
LINE
8
interiors
10
98430.0
20
122573.33
30
0
11
98430.0
21
125773.33
31
0
0
LINE
8
interiors
10
98430.0
20
125773.33
30
0
11
98270.0
21
125773.33
31
0
0
LINE
8
interiors
10
98430.0
20
122573.33
30
0
11
98270.0
21
122573.33
31
0
0
LINE
8
interiors
10
98270.0
20
122573.33
30
0
11
98270.0
21
125773.33
31
0
0
LINE
8
interiors
10
81230.0
20
122573.33
30
0
11
81230.0
21
125773.33
31
0
0
LINE
8
interiors
10
81230.0
20
125773.33
30
0
11
81070.0
21
125773.33
31
0
0
LINE
8
interiors
10
81230.0
20
122573.33
30
0
11
81070.0
21
122573.33
31
0
0
LINE
8
interiors
10
81070.0
20
122573.33
30
0
11
81070.0
21
125773.33
31
0
0
LINE
8
cut
10
196250.0
20
127206.67
30
0
11
196250.0
21
126806.67
31
0
0
LINE
8
cut
10
196250.0
20
127206.67
30
0
11
239250.0
21
127206.67
31
0
0
LINE
8
cut
10
196250.0
20
126806.67
30
0
11
239250.0
21
126806.67
31
0
0
LINE
8
cut
10
239250.0
20
127206.67
30
0
11
239250.0
21
126806.67
31
0
0
LINE
8
cut
10
195750.0
20
132040.0
30
0
11
195750.0
21
131440.0
31
0
0
LINE
8
cut
10
195750.0
20
132040.0
30
0
11
239750.0
21
132040.0
31
0
0
LINE
8
cut
10
195750.0
20
131440.0
30
0
11
239750.0
21
131440.0
31
0
0
LINE
8
cut
10
239750.0
20
132040.0
30
0
11
239750.0
21
131440.0
31
0
0
LINE
8
cut
10
109250.0
20
138440.0
30
0
11
109250.0
21
102440.0
31
0
0
LINE
8
cut
10
109250.0
20
138440.0
30
0
11
118250.0
21
138440.0
31
0
0
LINE
8
cut
10
109250.0
20
102440.0
30
0
11
118250.0
21
102440.0
31
0
0
LINE
8
cut
10
118250.0
20
138440.0
30
0
11
118250.0
21
102440.0
31
0
0
LINE
8
cut
10
54750.0
20
133440.0
30
0
11
54750.0
21
102440.0
31
0
0
LINE
8
cut
10
54750.0
20
133440.0
30
0
11
66750.0
21
133440.0
31
0
0
LINE
8
cut
10
54750.0
20
102440.0
30
0
11
66750.0
21
102440.0
31
0
0
LINE
8
cut
10
66750.0
20
133440.0
30
0
11
66750.0
21
102440.0
31
0
0
LINE
8
cut
10
189250.0
20
138440.0
30
0
11
189250.0
21
102440.0
31
0
0
LINE
8
cut
10
189250.0
20
138440.0
30
0
11
198250.0
21
138440.0
31
0
0
LINE
8
cut
10
189250.0
20
102440.0
30
0
11
198250.0
21
102440.0
31
0
0
LINE
8
cut
10
198250.0
20
138440.0
30
0
11
198250.0
21
102440.0
31
0
0
LINE
8
cut
10
240750.0
20
133440.0
30
0
11
240750.0
21
102440.0
31
0
0
LINE
8
cut
10
240750.0
20
133440.0
30
0
11
252750.0
21
133440.0
31
0
0
LINE
8
cut
10
240750.0
20
102440.0
30
0
11
252750.0
21
102440.0
31
0
0
LINE
8
cut
10
252750.0
20
133440.0
30
0
11
252750.0
21
102440.0
31
0
0
LINE
8
cut
10
182750.0
20
140440.0
30
0
11
182750.0
21
140560.0
31
0
0
LINE
8
cut
10
182750.0
20
140440.0
30
0
11
124750.0
21
140440.0
31
0
0
LINE
8
cut
10
182750.0
20
140560.0
30
0
11
124750.0
21
140560.0
31
0
0
LINE
8
cut
10
124750.0
20
140440.0
30
0
11
124750.0
21
140560.0
31
0
0
LINE
8
grid
10
255750.0
20
103640.0
30
0
11
267750.0
21
103640.0
31
0
0
TEXT
8
annotation
10
257062.5
20
104539.99999999999
30
0
40
1875.0
1
PODIUM +1.20m
50
0
0
LINE
8
grid
10
255750.0
20
131440.0
30
0
11
267750.0
21
131440.0
31
0
0
TEXT
8
annotation
10
255187.5
20
132340.0
30
0
40
1875.0
1
WING RF +29.00m
50
0
0
LINE
8
grid
10
255750.0
20
136440.0
30
0
11
267750.0
21
136440.0
31
0
0
TEXT
8
annotation
10
253312.5
20
137340.0
30
0
40
1875.0
1
ATRIUM RF +34.00m
50
0
0
LINE
8
grid
10
255750.0
20
140440.0
30
0
11
267750.0
21
140440.0
31
0
0
TEXT
8
annotation
10
257062.5
20
141340.0
30
0
40
1875.0
1
RIDGE +38.00m
50
0
0
LINE
8
dimension
10
53250.0
20
94190.0
30
0
11
254250.0
21
94190.0
31
0
0
LINE
8
dimension
10
52500.0
20
93440.0
30
0
11
54000.0
21
94940.0
31
0
0
LINE
8
dimension
10
253500.0
20
93440.0
30
0
11
255000.0
21
94940.0
31
0
0
TEXT
8
annotation
10
140812.5
20
95315.0
30
0
40
2250.0
1
201,000 mm shown extent
50
0
0
LINE
8
frame
10
10500
20
44250
30
0
11
304500
21
44250
31
0
0
TEXT
8
annotation
10
10500
20
38250
30
0
40
2625.0
1
CONCEPT DESIGN | IMAGE-INFERRED | NOT FOR CONSTRUCTION
50
0
0
TEXT
8
annotation
10
10500
20
28500.0
30
0
40
1987.5
1
Source: two campus AI images + fab1.jpg; official analogues documented in analysis/cad/.
50
0
0
TEXT
8
annotation
10
10500
20
25200.00000000002
30
0
40
1987.5
1
CAD model in mm; site coordinates X east, Y north, Z up. Internal layouts and member sizes are design estimates.
50
0
0
TEXT
8
annotation
10
10500
20
21899.999999999993
30
0
40
1987.5
1
Plans/sections are extracted from actual FreeCAD BRep. Elevations project component outlines; hidden edges omitted per component.
50
0
0
TEXT
8
annotation
10
10500
20
18600.000000000007
30
0
40
1987.5
1
Civic wing roofs and skylight may differ from the nominal building height; inspect actual geometry and parameter aliases.
50
0
0
TEXT
8
annotation
10
10500
20
15299.999999999984
30
0
40
1987.5
1
No process certification, structural verification, measured survey, or construction approval is implied.
50
0
0
TEXT
8
annotation
10
267750.0
20
8250
30
0
40
2100.0
1
2026-09-30  |  FreeCAD 1.1.4  |  mm
50
0
0
ENDSEC
0
EOF
