0
SECTION
2
HEADER
9
$ACADVER
1
AC1009
9
$INSUNITS
70
4
0
ENDSEC
0
SECTION
2
ENTITIES
0
LINE
8
frame
10
2800
20
116000
30
0
11
165200
21
116000
31
0
0
LINE
8
frame
10
165200
20
116000
30
0
11
165200
21
2800
31
0
0
LINE
8
frame
10
165200
20
2800
30
0
11
2800
21
2800
31
0
0
LINE
8
frame
10
2800
20
2800
30
0
11
2800
21
116000
31
0
0
TEXT
8
annotation
10
5600
20
111600
30
0
40
1680.0
1
PHOENIX SCIENCE PARK
50
0
0
TEXT
8
annotation
10
5600
20
108400
30
0
40
2000.0
1
LAB / East elevation
50
0
0
TEXT
8
annotation
10
154720.0
20
111600
30
0
40
1280.0
1
A3  |  1:400
50
0
0
TEXT
8
annotation
10
151000.0
20
108400
30
0
40
1200.0
1
CAD-LAB-EAST  /  R1
50
0
0
LINE
8
frame
10
5600
20
106400
30
0
11
162400
21
106400
31
0
0
LINE
8
roof
10
140500.0
20
72400.0
30
0
11
140500.0
21
72800.0
31
0
0
LINE
8
roof
10
140500.0
20
72800.0
30
0
11
23500.0
21
72800.0
31
0
0
LINE
8
roof
10
23500.0
20
72400.0
30
0
11
23500.0
21
72800.0
31
0
0
LINE
8
roof
10
140500.0
20
72400.0
30
0
11
23500.0
21
72400.0
31
0
0
LINE
8
envelope
10
140650.0
20
47800.0
30
0
11
140650.0
21
72400.0
31
0
0
LINE
8
envelope
10
140650.0
20
72400.0
30
0
11
140350.0
21
72400.0
31
0
0
LINE
8
envelope
10
140350.0
20
47800.0
30
0
11
140350.0
21
72400.0
31
0
0
LINE
8
envelope
10
140650.0
20
47800.0
30
0
11
140350.0
21
47800.0
31
0
0
LINE
8
glazing
10
140580.0
20
50000.0
30
0
11
140580.0
21
70200.0
31
0
0
LINE
8
glazing
10
140580.0
20
70200.0
30
0
11
140420.0
21
70200.0
31
0
0
LINE
8
glazing
10
140420.0
20
50000.0
30
0
11
140420.0
21
70200.0
31
0
0
LINE
8
glazing
10
140580.0
20
50000.0
30
0
11
140420.0
21
50000.0
31
0
0
LINE
8
envelope
10
140745.0
20
47800.0
30
0
11
140745.0
21
72400.0
31
0
0
LINE
8
envelope
10
140745.0
20
72400.0
30
0
11
140655.0
21
72400.0
31
0
0
LINE
8
envelope
10
140655.0
20
47800.0
30
0
11
140655.0
21
72400.0
31
0
0
LINE
8
envelope
10
140745.0
20
47800.0
30
0
11
140655.0
21
47800.0
31
0
0
LINE
8
envelope
10
140500.0
20
47800.0
30
0
11
140500.0
21
72400.0
31
0
0
LINE
8
envelope
10
23500.0
20
47800.0
30
0
11
23500.0
21
72400.0
31
0
0
LINE
8
envelope
10
140500.0
20
47800.0
30
0
11
23500.0
21
47800.0
31
0
0
LINE
8
envelope
10
23650.0
20
47800.0
30
0
11
23650.0
21
72400.0
31
0
0
LINE
8
envelope
10
23650.0
20
72400.0
30
0
11
23350.0
21
72400.0
31
0
0
LINE
8
envelope
10
23350.0
20
47800.0
30
0
11
23350.0
21
72400.0
31
0
0
LINE
8
envelope
10
23650.0
20
47800.0
30
0
11
23350.0
21
47800.0
31
0
0
LINE
8
glazing
10
23579.999999999996
20
50000.0
30
0
11
23579.999999999996
21
70200.0
31
0
0
LINE
8
glazing
10
23579.999999999996
20
70200.0
30
0
11
23420.000000000004
21
70200.0
31
0
0
LINE
8
glazing
10
23420.000000000004
20
50000.0
30
0
11
23420.000000000004
21
70200.0
31
0
0
LINE
8
glazing
10
23579.999999999996
20
50000.0
30
0
11
23420.000000000004
21
50000.0
31
0
0
LINE
8
envelope
10
23345.000000000004
20
47800.0
30
0
11
23345.000000000004
21
72400.0
31
0
0
LINE
8
envelope
10
23345.000000000004
20
72400.0
30
0
11
23254.999999999996
21
72400.0
31
0
0
LINE
8
envelope
10
23254.999999999996
20
47800.0
30
0
11
23254.999999999996
21
72400.0
31
0
0
LINE
8
envelope
10
23345.000000000004
20
47800.0
30
0
11
23254.999999999996
21
47800.0
31
0
0
LINE
8
equipment
10
107150.0
20
72800.0
30
0
11
107150.0
21
73300.0
31
0
0
LINE
8
equipment
10
107150.0
20
73300.0
30
0
11
100850.0
21
73300.0
31
0
0
LINE
8
equipment
10
100850.0
20
72800.0
30
0
11
100850.0
21
73300.0
31
0
0
LINE
8
equipment
10
107150.0
20
72800.0
30
0
11
100850.0
21
72800.0
31
0
0
LINE
8
equipment
10
106750.0
20
73300.0
30
0
11
106750.0
21
76600.0
31
0
0
LINE
8
equipment
10
106750.0
20
76600.0
30
0
11
101250.0
21
76600.0
31
0
0
LINE
8
equipment
10
101250.0
20
73300.0
30
0
11
101250.0
21
76600.0
31
0
0
LINE
8
equipment
10
101250.0
20
76000.0
30
0
11
101130.0
21
76000.0
31
0
0
LINE
8
equipment
10
101130.0
20
73700.0
30
0
11
101130.0
21
76000.0
31
0
0
LINE
8
equipment
10
101250.0
20
73700.0
30
0
11
101130.0
21
73700.0
31
0
0
LINE
8
equipment
10
104000.0
20
76900.0
30
0
11
103888.04000000001
21
76900.0
31
0
0
LINE
8
equipment
10
103888.04000000001
20
76900.0
30
0
11
103777.48
21
76900.0
31
0
0
LINE
8
equipment
10
103777.48
20
76900.0
30
0
11
103669.72
21
76900.0
31
0
0
LINE
8
equipment
10
103669.72
20
76900.0
30
0
11
103566.12
21
76900.0
31
0
0
LINE
8
equipment
10
103566.12
20
76900.0
30
0
11
103467.97000000002
21
76900.0
31
0
0
LINE
8
equipment
10
103467.97000000002
20
76900.0
30
0
11
103376.51000000001
21
76900.0
31
0
0
LINE
8
equipment
10
103376.51000000001
20
76900.0
30
0
11
103292.88999999998
21
76900.0
31
0
0
LINE
8
equipment
10
103292.88999999998
20
76900.0
30
0
11
103218.17000000001
21
76900.0
31
0
0
LINE
8
equipment
10
103218.17000000001
20
76900.0
30
0
11
103153.28
21
76900.0
31
0
0
LINE
8
equipment
10
103153.28
20
76900.0
30
0
11
103099.03
21
76900.0
31
0
0
LINE
8
equipment
10
103099.03
20
76900.0
30
0
11
103056.12000000001
21
76900.0
31
0
0
LINE
8
equipment
10
103056.12000000001
20
76900.0
30
0
11
103025.07
21
76900.0
31
0
0
LINE
8
equipment
10
103025.07
20
76900.0
30
0
11
103006.29
21
76900.0
31
0
0
LINE
8
equipment
10
103006.29
20
76900.0
30
0
11
103000.0
21
76900.0
31
0
0
LINE
8
equipment
10
105000.0
20
76900.0
30
0
11
104993.71
21
76900.0
31
0
0
LINE
8
equipment
10
104993.71
20
76900.0
30
0
11
104974.93
21
76900.0
31
0
0
LINE
8
equipment
10
104974.93
20
76900.0
30
0
11
104943.87999999999
21
76900.0
31
0
0
LINE
8
equipment
10
104943.87999999999
20
76900.0
30
0
11
104900.97
21
76900.0
31
0
0
LINE
8
equipment
10
104900.97
20
76900.0
30
0
11
104846.72
21
76900.0
31
0
0
LINE
8
equipment
10
104846.72
20
76900.0
30
0
11
104781.82999999999
21
76900.0
31
0
0
LINE
8
equipment
10
104781.82999999999
20
76900.0
30
0
11
104707.11000000002
21
76900.0
31
0
0
LINE
8
equipment
10
104707.11000000002
20
76900.0
30
0
11
104623.48999999999
21
76900.0
31
0
0
LINE
8
equipment
10
104623.48999999999
20
76900.0
30
0
11
104532.02999999998
21
76900.0
31
0
0
LINE
8
equipment
10
104532.02999999998
20
76900.0
30
0
11
104433.88
21
76900.0
31
0
0
LINE
8
equipment
10
104433.88
20
76900.0
30
0
11
104330.28
21
76900.0
31
0
0
LINE
8
equipment
10
104330.28
20
76900.0
30
0
11
104222.52
21
76900.0
31
0
0
LINE
8
equipment
10
104222.52
20
76900.0
30
0
11
104111.95999999999
21
76900.0
31
0
0
LINE
8
equipment
10
104111.95999999999
20
76900.0
30
0
11
104000.0
21
76900.0
31
0
0
LINE
8
equipment
10
106815.00000000001
20
73600.0
30
0
11
106815.00000000001
21
73680.0
31
0
0
LINE
8
equipment
10
106815.00000000001
20
73680.0
30
0
11
106750.0
21
73680.0
31
0
0
LINE
8
equipment
10
106815.00000000001
20
73600.0
30
0
11
106750.0
21
73600.0
31
0
0
LINE
8
equipment
10
106815.00000000001
20
73850.0
30
0
11
106815.00000000001
21
73930.0
31
0
0
LINE
8
equipment
10
106815.00000000001
20
73930.0
30
0
11
106750.0
21
73930.0
31
0
0
LINE
8
equipment
10
106815.00000000001
20
73850.0
30
0
11
106750.0
21
73850.0
31
0
0
LINE
8
equipment
10
106815.00000000001
20
74100.0
30
0
11
106815.00000000001
21
74180.0
31
0
0
LINE
8
equipment
10
106815.00000000001
20
74180.0
30
0
11
106750.0
21
74180.0
31
0
0
LINE
8
equipment
10
106815.00000000001
20
74100.0
30
0
11
106750.0
21
74100.0
31
0
0
LINE
8
equipment
10
106815.00000000001
20
74350.0
30
0
11
106815.00000000001
21
74430.0
31
0
0
LINE
8
equipment
10
106815.00000000001
20
74430.0
30
0
11
106750.0
21
74430.0
31
0
0
LINE
8
equipment
10
106815.00000000001
20
74350.0
30
0
11
106750.0
21
74350.0
31
0
0
LINE
8
equipment
10
106815.00000000001
20
74600.0
30
0
11
106815.00000000001
21
74680.0
31
0
0
LINE
8
equipment
10
106815.00000000001
20
74680.0
30
0
11
106750.0
21
74680.0
31
0
0
LINE
8
equipment
10
106815.00000000001
20
74600.0
30
0
11
106750.0
21
74600.0
31
0
0
LINE
8
equipment
10
106815.00000000001
20
74850.0
30
0
11
106815.00000000001
21
74930.0
31
0
0
LINE
8
equipment
10
106815.00000000001
20
74930.0
30
0
11
106750.0
21
74930.0
31
0
0
LINE
8
equipment
10
106815.00000000001
20
74850.0
30
0
11
106750.0
21
74850.0
31
0
0
LINE
8
equipment
10
106815.00000000001
20
75100.0
30
0
11
106815.00000000001
21
75180.0
31
0
0
LINE
8
equipment
10
106815.00000000001
20
75180.0
30
0
11
106750.0
21
75180.0
31
0
0
LINE
8
equipment
10
106815.00000000001
20
75100.0
30
0
11
106750.0
21
75100.0
31
0
0
LINE
8
equipment
10
106815.00000000001
20
75350.0
30
0
11
106815.00000000001
21
75430.0
31
0
0
LINE
8
equipment
10
106815.00000000001
20
75430.0
30
0
11
106750.0
21
75430.0
31
0
0
LINE
8
equipment
10
106815.00000000001
20
75350.0
30
0
11
106750.0
21
75350.0
31
0
0
LINE
8
equipment
10
106815.00000000001
20
75600.0
30
0
11
106815.00000000001
21
75680.0
31
0
0
LINE
8
equipment
10
106815.00000000001
20
75680.0
30
0
11
106750.0
21
75680.0
31
0
0
LINE
8
equipment
10
106815.00000000001
20
75600.0
30
0
11
106750.0
21
75600.0
31
0
0
LINE
8
equipment
10
106815.00000000001
20
75850.0
30
0
11
106815.00000000001
21
75930.0
31
0
0
LINE
8
equipment
10
106815.00000000001
20
75930.0
30
0
11
106750.0
21
75930.0
31
0
0
LINE
8
equipment
10
106815.00000000001
20
75850.0
30
0
11
106750.0
21
75850.0
31
0
0
LINE
8
equipment
10
101250.0
20
73680.0
30
0
11
101185.0
21
73680.0
31
0
0
LINE
8
equipment
10
101185.0
20
73600.0
30
0
11
101185.0
21
73680.0
31
0
0
LINE
8
equipment
10
101250.0
20
73600.0
30
0
11
101185.0
21
73600.0
31
0
0
LINE
8
equipment
10
101250.0
20
73930.0
30
0
11
101185.0
21
73930.0
31
0
0
LINE
8
equipment
10
101185.0
20
73850.0
30
0
11
101185.0
21
73930.0
31
0
0
LINE
8
equipment
10
101250.0
20
73850.0
30
0
11
101185.0
21
73850.0
31
0
0
LINE
8
equipment
10
101250.0
20
74180.0
30
0
11
101185.0
21
74180.0
31
0
0
LINE
8
equipment
10
101185.0
20
74100.0
30
0
11
101185.0
21
74180.0
31
0
0
LINE
8
equipment
10
101250.0
20
74100.0
30
0
11
101185.0
21
74100.0
31
0
0
LINE
8
equipment
10
101250.0
20
74430.0
30
0
11
101185.0
21
74430.0
31
0
0
LINE
8
equipment
10
101185.0
20
74350.0
30
0
11
101185.0
21
74430.0
31
0
0
LINE
8
equipment
10
101250.0
20
74350.0
30
0
11
101185.0
21
74350.0
31
0
0
LINE
8
equipment
10
101250.0
20
74680.0
30
0
11
101185.0
21
74680.0
31
0
0
LINE
8
equipment
10
101185.0
20
74600.0
30
0
11
101185.0
21
74680.0
31
0
0
LINE
8
equipment
10
101250.0
20
74600.0
30
0
11
101185.0
21
74600.0
31
0
0
LINE
8
equipment
10
101250.0
20
74930.0
30
0
11
101185.0
21
74930.0
31
0
0
LINE
8
equipment
10
101185.0
20
74850.0
30
0
11
101185.0
21
74930.0
31
0
0
LINE
8
equipment
10
101250.0
20
74850.0
30
0
11
101185.0
21
74850.0
31
0
0
LINE
8
equipment
10
101250.0
20
75180.0
30
0
11
101185.0
21
75180.0
31
0
0
LINE
8
equipment
10
101185.0
20
75100.0
30
0
11
101185.0
21
75180.0
31
0
0
LINE
8
equipment
10
101250.0
20
75100.0
30
0
11
101185.0
21
75100.0
31
0
0
LINE
8
equipment
10
101250.0
20
75430.0
30
0
11
101185.0
21
75430.0
31
0
0
LINE
8
equipment
10
101185.0
20
75350.0
30
0
11
101185.0
21
75430.0
31
0
0
LINE
8
equipment
10
101250.0
20
75350.0
30
0
11
101185.0
21
75350.0
31
0
0
LINE
8
equipment
10
101250.0
20
75680.0
30
0
11
101185.0
21
75680.0
31
0
0
LINE
8
equipment
10
101185.0
20
75600.0
30
0
11
101185.0
21
75680.0
31
0
0
LINE
8
equipment
10
101250.0
20
75600.0
30
0
11
101185.0
21
75600.0
31
0
0
LINE
8
equipment
10
101250.0
20
75930.0
30
0
11
101185.0
21
75930.0
31
0
0
LINE
8
equipment
10
101185.0
20
75850.0
30
0
11
101185.0
21
75930.0
31
0
0
LINE
8
equipment
10
101250.0
20
75850.0
30
0
11
101185.0
21
75850.0
31
0
0
LINE
8
equipment
10
63150.0
20
72800.0
30
0
11
63150.0
21
73300.0
31
0
0
LINE
8
equipment
10
63150.0
20
73300.0
30
0
11
56850.0
21
73300.0
31
0
0
LINE
8
equipment
10
56850.0
20
72800.0
30
0
11
56850.0
21
73300.0
31
0
0
LINE
8
equipment
10
63150.0
20
72800.0
30
0
11
56850.0
21
72800.0
31
0
0
LINE
8
equipment
10
62750.0
20
73300.0
30
0
11
62750.0
21
76600.0
31
0
0
LINE
8
equipment
10
62750.0
20
76600.0
30
0
11
57250.0
21
76600.0
31
0
0
LINE
8
equipment
10
57250.0
20
73300.0
30
0
11
57250.0
21
76600.0
31
0
0
LINE
8
equipment
10
57250.0
20
76000.0
30
0
11
57129.99999999999
21
76000.0
31
0
0
LINE
8
equipment
10
57129.99999999999
20
73700.0
30
0
11
57129.99999999999
21
76000.0
31
0
0
LINE
8
equipment
10
57250.0
20
73700.0
30
0
11
57129.99999999999
21
73700.0
31
0
0
LINE
8
equipment
10
60000.0
20
76900.0
30
0
11
59888.04
21
76900.0
31
0
0
LINE
8
equipment
10
59888.04
20
76900.0
30
0
11
59777.48
21
76900.0
31
0
0
LINE
8
equipment
10
59777.48
20
76900.0
30
0
11
59669.72000000001
21
76900.0
31
0
0
LINE
8
equipment
10
59669.72000000001
20
76900.0
30
0
11
59566.12
21
76900.0
31
0
0
LINE
8
equipment
10
59566.12
20
76900.0
30
0
11
59467.97
21
76900.0
31
0
0
LINE
8
equipment
10
59467.97
20
76900.0
30
0
11
59376.509999999995
21
76900.0
31
0
0
LINE
8
equipment
10
59376.509999999995
20
76900.0
30
0
11
59292.89
21
76900.0
31
0
0
LINE
8
equipment
10
59292.89
20
76900.0
30
0
11
59218.17
21
76900.0
31
0
0
LINE
8
equipment
10
59218.17
20
76900.0
30
0
11
59153.28
21
76900.0
31
0
0
LINE
8
equipment
10
59153.28
20
76900.0
30
0
11
59099.02999999999
21
76900.0
31
0
0
LINE
8
equipment
10
59099.02999999999
20
76900.0
30
0
11
59056.119999999995
21
76900.0
31
0
0
LINE
8
equipment
10
59056.119999999995
20
76900.0
30
0
11
59025.07000000001
21
76900.0
31
0
0
LINE
8
equipment
10
59025.07000000001
20
76900.0
30
0
11
59006.29
21
76900.0
31
0
0
LINE
8
equipment
10
59006.29
20
76900.0
30
0
11
59000.0
21
76900.0
31
0
0
LINE
8
equipment
10
61000.0
20
76900.0
30
0
11
60993.71
21
76900.0
31
0
0
LINE
8
equipment
10
60993.71
20
76900.0
30
0
11
60974.92999999999
21
76900.0
31
0
0
LINE
8
equipment
10
60974.92999999999
20
76900.0
30
0
11
60943.880000000005
21
76900.0
31
0
0
LINE
8
equipment
10
60943.880000000005
20
76900.0
30
0
11
60900.97000000001
21
76900.0
31
0
0
LINE
8
equipment
10
60900.97000000001
20
76900.0
30
0
11
60846.72
21
76900.0
31
0
0
LINE
8
equipment
10
60846.72
20
76900.0
30
0
11
60781.83
21
76900.0
31
0
0
LINE
8
equipment
10
60781.83
20
76900.0
30
0
11
60707.11
21
76900.0
31
0
0
LINE
8
equipment
10
60707.11
20
76900.0
30
0
11
60623.490000000005
21
76900.0
31
0
0
LINE
8
equipment
10
60623.490000000005
20
76900.0
30
0
11
60532.03
21
76900.0
31
0
0
LINE
8
equipment
10
60532.03
20
76900.0
30
0
11
60433.88
21
76900.0
31
0
0
LINE
8
equipment
10
60433.88
20
76900.0
30
0
11
60330.27999999999
21
76900.0
31
0
0
LINE
8
equipment
10
60330.27999999999
20
76900.0
30
0
11
60222.52
21
76900.0
31
0
0
LINE
8
equipment
10
60222.52
20
76900.0
30
0
11
60111.96
21
76900.0
31
0
0
LINE
8
equipment
10
60111.96
20
76900.0
30
0
11
60000.0
21
76900.0
31
0
0
LINE
8
equipment
10
62815.0
20
73600.0
30
0
11
62815.0
21
73680.0
31
0
0
LINE
8
equipment
10
62815.0
20
73680.0
30
0
11
62750.0
21
73680.0
31
0
0
LINE
8
equipment
10
62815.0
20
73600.0
30
0
11
62750.0
21
73600.0
31
0
0
LINE
8
equipment
10
62815.0
20
73850.0
30
0
11
62815.0
21
73930.0
31
0
0
LINE
8
equipment
10
62815.0
20
73930.0
30
0
11
62750.0
21
73930.0
31
0
0
LINE
8
equipment
10
62815.0
20
73850.0
30
0
11
62750.0
21
73850.0
31
0
0
LINE
8
equipment
10
62815.0
20
74100.0
30
0
11
62815.0
21
74180.0
31
0
0
LINE
8
equipment
10
62815.0
20
74180.0
30
0
11
62750.0
21
74180.0
31
0
0
LINE
8
equipment
10
62815.0
20
74100.0
30
0
11
62750.0
21
74100.0
31
0
0
LINE
8
equipment
10
62815.0
20
74350.0
30
0
11
62815.0
21
74430.0
31
0
0
LINE
8
equipment
10
62815.0
20
74430.0
30
0
11
62750.0
21
74430.0
31
0
0
LINE
8
equipment
10
62815.0
20
74350.0
30
0
11
62750.0
21
74350.0
31
0
0
LINE
8
equipment
10
62815.0
20
74600.0
30
0
11
62815.0
21
74680.0
31
0
0
LINE
8
equipment
10
62815.0
20
74680.0
30
0
11
62750.0
21
74680.0
31
0
0
LINE
8
equipment
10
62815.0
20
74600.0
30
0
11
62750.0
21
74600.0
31
0
0
LINE
8
equipment
10
62815.0
20
74850.0
30
0
11
62815.0
21
74930.0
31
0
0
LINE
8
equipment
10
62815.0
20
74930.0
30
0
11
62750.0
21
74930.0
31
0
0
LINE
8
equipment
10
62815.0
20
74850.0
30
0
11
62750.0
21
74850.0
31
0
0
LINE
8
equipment
10
62815.0
20
75100.0
30
0
11
62815.0
21
75180.0
31
0
0
LINE
8
equipment
10
62815.0
20
75180.0
30
0
11
62750.0
21
75180.0
31
0
0
LINE
8
equipment
10
62815.0
20
75100.0
30
0
11
62750.0
21
75100.0
31
0
0
LINE
8
equipment
10
62815.0
20
75350.0
30
0
11
62815.0
21
75430.0
31
0
0
LINE
8
equipment
10
62815.0
20
75430.0
30
0
11
62750.0
21
75430.0
31
0
0
LINE
8
equipment
10
62815.0
20
75350.0
30
0
11
62750.0
21
75350.0
31
0
0
LINE
8
equipment
10
62815.0
20
75600.0
30
0
11
62815.0
21
75680.0
31
0
0
LINE
8
equipment
10
62815.0
20
75680.0
30
0
11
62750.0
21
75680.0
31
0
0
LINE
8
equipment
10
62815.0
20
75600.0
30
0
11
62750.0
21
75600.0
31
0
0
LINE
8
equipment
10
62815.0
20
75850.0
30
0
11
62815.0
21
75930.0
31
0
0
LINE
8
equipment
10
62815.0
20
75930.0
30
0
11
62750.0
21
75930.0
31
0
0
LINE
8
equipment
10
62815.0
20
75850.0
30
0
11
62750.0
21
75850.0
31
0
0
LINE
8
equipment
10
57250.0
20
73680.0
30
0
11
57185.0
21
73680.0
31
0
0
LINE
8
equipment
10
57185.0
20
73600.0
30
0
11
57185.0
21
73680.0
31
0
0
LINE
8
equipment
10
57250.0
20
73600.0
30
0
11
57185.0
21
73600.0
31
0
0
LINE
8
equipment
10
57250.0
20
73930.0
30
0
11
57185.0
21
73930.0
31
0
0
LINE
8
equipment
10
57185.0
20
73850.0
30
0
11
57185.0
21
73930.0
31
0
0
LINE
8
equipment
10
57250.0
20
73850.0
30
0
11
57185.0
21
73850.0
31
0
0
LINE
8
equipment
10
57250.0
20
74180.0
30
0
11
57185.0
21
74180.0
31
0
0
LINE
8
equipment
10
57185.0
20
74100.0
30
0
11
57185.0
21
74180.0
31
0
0
LINE
8
equipment
10
57250.0
20
74100.0
30
0
11
57185.0
21
74100.0
31
0
0
LINE
8
equipment
10
57250.0
20
74430.0
30
0
11
57185.0
21
74430.0
31
0
0
LINE
8
equipment
10
57185.0
20
74350.0
30
0
11
57185.0
21
74430.0
31
0
0
LINE
8
equipment
10
57250.0
20
74350.0
30
0
11
57185.0
21
74350.0
31
0
0
LINE
8
equipment
10
57250.0
20
74680.0
30
0
11
57185.0
21
74680.0
31
0
0
LINE
8
equipment
10
57185.0
20
74600.0
30
0
11
57185.0
21
74680.0
31
0
0
LINE
8
equipment
10
57250.0
20
74600.0
30
0
11
57185.0
21
74600.0
31
0
0
LINE
8
equipment
10
57250.0
20
74930.0
30
0
11
57185.0
21
74930.0
31
0
0
LINE
8
equipment
10
57185.0
20
74850.0
30
0
11
57185.0
21
74930.0
31
0
0
LINE
8
equipment
10
57250.0
20
74850.0
30
0
11
57185.0
21
74850.0
31
0
0
LINE
8
equipment
10
57250.0
20
75180.0
30
0
11
57185.0
21
75180.0
31
0
0
LINE
8
equipment
10
57185.0
20
75100.0
30
0
11
57185.0
21
75180.0
31
0
0
LINE
8
equipment
10
57250.0
20
75100.0
30
0
11
57185.0
21
75100.0
31
0
0
LINE
8
equipment
10
57250.0
20
75430.0
30
0
11
57185.0
21
75430.0
31
0
0
LINE
8
equipment
10
57185.0
20
75350.0
30
0
11
57185.0
21
75430.0
31
0
0
LINE
8
equipment
10
57250.0
20
75350.0
30
0
11
57185.0
21
75350.0
31
0
0
LINE
8
equipment
10
57250.0
20
75680.0
30
0
11
57185.0
21
75680.0
31
0
0
LINE
8
equipment
10
57185.0
20
75600.0
30
0
11
57185.0
21
75680.0
31
0
0
LINE
8
equipment
10
57250.0
20
75600.0
30
0
11
57185.0
21
75600.0
31
0
0
LINE
8
equipment
10
57250.0
20
75930.0
30
0
11
57185.0
21
75930.0
31
0
0
LINE
8
equipment
10
57185.0
20
75850.0
30
0
11
57185.0
21
75930.0
31
0
0
LINE
8
equipment
10
57250.0
20
75850.0
30
0
11
57185.0
21
75850.0
31
0
0
LINE
8
equipment
10
31500.0
20
81800.0
30
0
11
31343.25
21
81800.0
31
0
0
LINE
8
equipment
10
31343.25
20
81800.0
30
0
11
31188.47
21
81800.0
31
0
0
LINE
8
equipment
10
31188.47
20
81800.0
30
0
11
31037.61
21
81800.0
31
0
0
LINE
8
equipment
10
31037.61
20
81800.0
30
0
11
30892.559999999998
21
81800.0
31
0
0
LINE
8
equipment
10
30892.559999999998
20
81800.0
30
0
11
30755.16
21
81800.0
31
0
0
LINE
8
equipment
10
30755.16
20
81800.0
30
0
11
30627.110000000004
21
81800.0
31
0
0
LINE
8
equipment
10
30627.110000000004
20
81800.0
30
0
11
30510.050000000003
21
81800.0
31
0
0
LINE
8
equipment
10
30510.050000000003
20
81800.0
30
0
11
30405.44
21
81800.0
31
0
0
LINE
8
equipment
10
30405.44
20
81800.0
30
0
11
30314.589999999997
21
81800.0
31
0
0
LINE
8
equipment
10
30314.589999999997
20
81800.0
30
0
11
30238.64
21
81800.0
31
0
0
LINE
8
equipment
10
30238.64
20
81800.0
30
0
11
30178.559999999994
21
81800.0
31
0
0
LINE
8
equipment
10
30178.559999999994
20
81800.0
30
0
11
30135.1
21
81800.0
31
0
0
LINE
8
equipment
10
30135.1
20
81800.0
30
0
11
30108.800000000007
21
81800.0
31
0
0
LINE
8
equipment
10
30108.800000000007
20
81800.0
30
0
11
30100.0
21
81800.0
31
0
0
LINE
8
equipment
10
32900.0
20
81800.0
30
0
11
32891.2
21
81800.0
31
0
0
LINE
8
equipment
10
32891.2
20
81800.0
30
0
11
32864.9
21
81800.0
31
0
0
LINE
8
equipment
10
32864.9
20
81800.0
30
0
11
32821.44
21
81800.0
31
0
0
LINE
8
equipment
10
32821.44
20
81800.0
30
0
11
32761.36
21
81800.0
31
0
0
LINE
8
equipment
10
32761.36
20
81800.0
30
0
11
32685.410000000003
21
81800.0
31
0
0
LINE
8
equipment
10
32685.410000000003
20
81800.0
30
0
11
32594.559999999994
21
81800.0
31
0
0
LINE
8
equipment
10
32594.559999999994
20
81800.0
30
0
11
32489.949999999997
21
81800.0
31
0
0
LINE
8
equipment
10
32489.949999999997
20
81800.0
30
0
11
32372.89
21
81800.0
31
0
0
LINE
8
equipment
10
32372.89
20
81800.0
30
0
11
32244.84
21
81800.0
31
0
0
LINE
8
equipment
10
32244.84
20
81800.0
30
0
11
32107.440000000002
21
81800.0
31
0
0
LINE
8
equipment
10
32107.440000000002
20
81800.0
30
0
11
31962.39
21
81800.0
31
0
0
LINE
8
equipment
10
31962.39
20
81800.0
30
0
11
31811.53
21
81800.0
31
0
0
LINE
8
equipment
10
31811.53
20
81800.0
30
0
11
31656.75
21
81800.0
31
0
0
LINE
8
equipment
10
31656.75
20
81800.0
30
0
11
31500.0
21
81800.0
31
0
0
LINE
8
equipment
10
33500.0
20
72800.0
30
0
11
33500.0
21
73400.0
31
0
0
LINE
8
equipment
10
33500.0
20
73400.0
30
0
11
29500.0
21
73400.0
31
0
0
LINE
8
equipment
10
29500.0
20
72800.0
30
0
11
29500.0
21
73400.0
31
0
0
LINE
8
equipment
10
33500.0
20
72800.0
30
0
11
29500.0
21
72800.0
31
0
0
LINE
8
grid
10
141545.0
20
47400.0
30
0
11
147945.0
21
47400.0
31
0
0
TEXT
8
annotation
10
144245.0
20
47879.99999999999
30
0
40
1000.0
1
F0 +0.00m
50
0
0
LINE
8
grid
10
141545.0
20
53650.0
30
0
11
147945.0
21
53650.0
31
0
0
TEXT
8
annotation
10
144245.0
20
54129.99999999999
30
0
40
1000.0
1
F1 +6.25m
50
0
0
LINE
8
grid
10
141545.0
20
59900.0
30
0
11
147945.0
21
59900.0
31
0
0
TEXT
8
annotation
10
143745.0
20
60379.99999999999
30
0
40
1000.0
1
F2 +12.50m
50
0
0
LINE
8
grid
10
141545.0
20
66150.0
30
0
11
147945.0
21
66150.0
31
0
0
TEXT
8
annotation
10
143745.0
20
66630.0
30
0
40
1000.0
1
F3 +18.75m
50
0
0
LINE
8
grid
10
141545.0
20
72400.0
30
0
11
147945.0
21
72400.0
31
0
0
TEXT
8
annotation
10
143745.0
20
72880.0
30
0
40
1000.0
1
RF +25.00m
50
0
0
LINE
8
dimension
10
23254.999999999996
20
43400.0
30
0
11
140745.0
21
43400.0
31
0
0
LINE
8
dimension
10
22854.999999999996
20
43000.0
30
0
11
23654.999999999996
21
43800.0
31
0
0
LINE
8
dimension
10
140345.0
20
43000.0
30
0
11
141145.0
21
43800.0
31
0
0
TEXT
8
annotation
10
75100.0
20
44000.0
30
0
40
1200.0
1
117,490 mm shown extent
50
0
0
LINE
8
frame
10
5600
20
23600
30
0
11
162400
21
23600
31
0
0
TEXT
8
annotation
10
5600
20
20400
30
0
40
1400.0
1
CONCEPT DESIGN | IMAGE-INFERRED | NOT FOR CONSTRUCTION
50
0
0
TEXT
8
annotation
10
5600
20
15200.0
30
0
40
1060.0
1
Source: two campus AI images + fab1.jpg; official analogues documented in analysis/cad/.
50
0
0
TEXT
8
annotation
10
5600
20
13440.00000000001
30
0
40
1060.0
1
CAD model in mm; site coordinates X east, Y north, Z up. Internal layouts and member sizes are design estimates.
50
0
0
TEXT
8
annotation
10
5600
20
11679.999999999996
30
0
40
1060.0
1
Plans/sections are extracted from actual FreeCAD BRep. Elevations project component outlines; hidden edges omitted per component.
50
0
0
TEXT
8
annotation
10
5600
20
9920.000000000004
30
0
40
1060.0
1
Civic wing roofs and skylight may differ from the nominal building height; inspect actual geometry and parameter aliases.
50
0
0
TEXT
8
annotation
10
5600
20
8159.999999999991
30
0
40
1060.0
1
No process certification, structural verification, measured survey, or construction approval is implied.
50
0
0
TEXT
8
annotation
10
142800.0
20
4400
30
0
40
1120.0
1
2026-09-30  |  FreeCAD 1.1.4  |  mm
50
0
0
ENDSEC
0
EOF
