0
SECTION
2
HEADER
9
$ACADVER
1
AC1009
9
$INSUNITS
70
4
0
ENDSEC
0
SECTION
2
ENTITIES
0
LINE
8
frame
10
5250
20
217500
30
0
11
309750
21
217500
31
0
0
LINE
8
frame
10
309750
20
217500
30
0
11
309750
21
5250
31
0
0
LINE
8
frame
10
309750
20
5250
30
0
11
5250
21
5250
31
0
0
LINE
8
frame
10
5250
20
5250
30
0
11
5250
21
217500
31
0
0
TEXT
8
annotation
10
10500
20
209250
30
0
40
3150.0
1
PHOENIX SCIENCE PARK
50
0
0
TEXT
8
annotation
10
10500
20
203250
30
0
40
3750.0
1
LAB / Roof equipment plan
50
0
0
TEXT
8
annotation
10
290100.0
20
209250
30
0
40
2400.0
1
A3  |  1:750
50
0
0
TEXT
8
annotation
10
283125.0
20
203250
30
0
40
2250.0
1
CAD-LAB-ROOF  /  R1
50
0
0
LINE
8
frame
10
10500
20
199500
30
0
11
304500
21
199500
31
0
0
LINE
8
roof
10
71750.0
20
63000.0
30
0
11
71750.0
21
180000.0
31
0
0
LINE
8
roof
10
235750.0
20
63000.0
30
0
11
235750.0
21
180000.0
31
0
0
LINE
8
roof
10
71750.0
20
63000.0
30
0
11
235750.0
21
63000.0
31
0
0
LINE
8
roof
10
71750.0
20
180000.0
30
0
11
235750.0
21
180000.0
31
0
0
LINE
8
equipment
10
90950.0
20
96350.0
30
0
11
90950.0
21
102650.0
31
0
0
LINE
8
equipment
10
101750.00000000001
20
96350.0
30
0
11
101750.00000000001
21
102650.0
31
0
0
LINE
8
equipment
10
90950.0
20
96350.0
30
0
11
101750.00000000001
21
96350.0
31
0
0
LINE
8
equipment
10
90950.0
20
102650.0
30
0
11
101750.00000000001
21
102650.0
31
0
0
LINE
8
equipment
10
91350.0
20
96750.0
30
0
11
91350.0
21
102250.0
31
0
0
LINE
8
equipment
10
101350.0
20
96750.0
30
0
11
101350.0
21
102250.0
31
0
0
LINE
8
equipment
10
91350.0
20
96750.0
30
0
11
101350.0
21
96750.0
31
0
0
LINE
8
equipment
10
91350.0
20
102250.0
30
0
11
101350.0
21
102250.0
31
0
0
LINE
8
equipment
10
91750.0
20
102250.0
30
0
11
91750.0
21
102370.0
31
0
0
LINE
8
equipment
10
93550.0
20
102250.0
30
0
11
93550.0
21
102370.0
31
0
0
LINE
8
equipment
10
91750.0
20
102370.0
30
0
11
93550.0
21
102370.0
31
0
0
LINE
8
equipment
10
95150.0
20
99500.0
30
0
11
94773.49
21
100281.83000000002
31
0
0
LINE
8
equipment
10
94773.49
20
100281.83000000002
30
0
11
93927.48000000001
21
100474.93000000001
31
0
0
LINE
8
equipment
10
93927.48000000001
20
100474.93000000001
30
0
11
93249.03
21
99933.87999999999
31
0
0
LINE
8
equipment
10
93249.03
20
99933.87999999999
30
0
11
93249.03
21
99066.12
31
0
0
LINE
8
equipment
10
93249.03
20
99066.12
30
0
11
93927.48000000001
21
98525.06999999999
31
0
0
LINE
8
equipment
10
93927.48000000001
20
98525.06999999999
30
0
11
94773.49
21
98718.17
31
0
0
LINE
8
equipment
10
94773.49
20
98718.17
30
0
11
95150.0
21
99500.0
31
0
0
LINE
8
equipment
10
95450.0
20
102250.0
30
0
11
95450.0
21
102370.0
31
0
0
LINE
8
equipment
10
97250.00000000001
20
102250.0
30
0
11
97250.00000000001
21
102370.0
31
0
0
LINE
8
equipment
10
95450.0
20
102370.0
30
0
11
97250.00000000001
21
102370.0
31
0
0
LINE
8
equipment
10
97350.00000000001
20
99500.0
30
0
11
96973.48999999999
21
100281.83000000002
31
0
0
LINE
8
equipment
10
96973.48999999999
20
100281.83000000002
30
0
11
96127.48
21
100474.93000000001
31
0
0
LINE
8
equipment
10
96127.48
20
100474.93000000001
30
0
11
95449.03
21
99933.87999999999
31
0
0
LINE
8
equipment
10
95449.03
20
99933.87999999999
30
0
11
95449.03
21
99066.12
31
0
0
LINE
8
equipment
10
95449.03
20
99066.12
30
0
11
96127.48
21
98525.06999999999
31
0
0
LINE
8
equipment
10
96127.48
20
98525.06999999999
30
0
11
96973.48999999999
21
98718.17
31
0
0
LINE
8
equipment
10
96973.48999999999
20
98718.17
30
0
11
97350.00000000001
21
99500.0
31
0
0
LINE
8
equipment
10
99149.99999999999
20
102250.0
30
0
11
99149.99999999999
21
102370.0
31
0
0
LINE
8
equipment
10
100950.0
20
102250.0
30
0
11
100950.0
21
102370.0
31
0
0
LINE
8
equipment
10
99149.99999999999
20
102370.0
30
0
11
100950.0
21
102370.0
31
0
0
LINE
8
equipment
10
99550.00000000001
20
99500.0
30
0
11
99173.48999999999
21
100281.83000000002
31
0
0
LINE
8
equipment
10
99173.48999999999
20
100281.83000000002
30
0
11
98327.48
21
100474.93000000001
31
0
0
LINE
8
equipment
10
98327.48
20
100474.93000000001
30
0
11
97649.03000000001
21
99933.87999999999
31
0
0
LINE
8
equipment
10
97649.03000000001
20
99933.87999999999
30
0
11
97649.03000000001
21
99066.12
31
0
0
LINE
8
equipment
10
97649.03000000001
20
99066.12
30
0
11
98327.48
21
98525.06999999999
31
0
0
LINE
8
equipment
10
98327.48
20
98525.06999999999
30
0
11
99173.48999999999
21
98718.17
31
0
0
LINE
8
equipment
10
99173.48999999999
20
98718.17
30
0
11
99550.00000000001
21
99500.0
31
0
0
LINE
8
equipment
10
91550.0
20
96685.0
30
0
11
91550.0
21
96750.0
31
0
0
LINE
8
equipment
10
101150.0
20
96685.0
30
0
11
101150.0
21
96750.0
31
0
0
LINE
8
equipment
10
91550.0
20
96685.0
30
0
11
101150.0
21
96685.0
31
0
0
LINE
8
equipment
10
91550.0
20
102250.0
30
0
11
91550.0
21
102315.00000000001
31
0
0
LINE
8
equipment
10
101150.0
20
102250.0
30
0
11
101150.0
21
102315.00000000001
31
0
0
LINE
8
equipment
10
91550.0
20
102315.00000000001
30
0
11
91750.0
21
102315.00000000001
31
0
0
LINE
8
equipment
10
93550.0
20
102315.00000000001
30
0
11
95450.0
21
102315.00000000001
31
0
0
LINE
8
equipment
10
97250.00000000001
20
102315.00000000001
30
0
11
99149.99999999999
21
102315.00000000001
31
0
0
LINE
8
equipment
10
100950.0
20
102315.00000000001
30
0
11
101150.0
21
102315.00000000001
31
0
0
LINE
8
equipment
10
119650.0
20
96350.0
30
0
11
119650.0
21
102650.0
31
0
0
LINE
8
equipment
10
130450.0
20
96350.0
30
0
11
130450.0
21
102650.0
31
0
0
LINE
8
equipment
10
119650.0
20
96350.0
30
0
11
130450.0
21
96350.0
31
0
0
LINE
8
equipment
10
119650.0
20
102650.0
30
0
11
130450.0
21
102650.0
31
0
0
LINE
8
equipment
10
120050.0
20
96750.0
30
0
11
120050.0
21
102250.0
31
0
0
LINE
8
equipment
10
130050.0
20
96750.0
30
0
11
130050.0
21
102250.0
31
0
0
LINE
8
equipment
10
120050.0
20
96750.0
30
0
11
130050.0
21
96750.0
31
0
0
LINE
8
equipment
10
120050.0
20
102250.0
30
0
11
130050.0
21
102250.0
31
0
0
LINE
8
equipment
10
120450.0
20
102250.0
30
0
11
120450.0
21
102370.0
31
0
0
LINE
8
equipment
10
122250.0
20
102250.0
30
0
11
122250.0
21
102370.0
31
0
0
LINE
8
equipment
10
120450.0
20
102370.0
30
0
11
122250.0
21
102370.0
31
0
0
LINE
8
equipment
10
123850.0
20
99500.0
30
0
11
123473.49
21
100281.83000000002
31
0
0
LINE
8
equipment
10
123473.49
20
100281.83000000002
30
0
11
122627.48000000001
21
100474.93000000001
31
0
0
LINE
8
equipment
10
122627.48000000001
20
100474.93000000001
30
0
11
121949.03
21
99933.87999999999
31
0
0
LINE
8
equipment
10
121949.03
20
99933.87999999999
30
0
11
121949.03
21
99066.12
31
0
0
LINE
8
equipment
10
121949.03
20
99066.12
30
0
11
122627.48000000001
21
98525.06999999999
31
0
0
LINE
8
equipment
10
122627.48000000001
20
98525.06999999999
30
0
11
123473.49
21
98718.17
31
0
0
LINE
8
equipment
10
123473.49
20
98718.17
30
0
11
123850.0
21
99500.0
31
0
0
LINE
8
equipment
10
124150.0
20
102250.0
30
0
11
124150.0
21
102370.0
31
0
0
LINE
8
equipment
10
125950.0
20
102250.0
30
0
11
125950.0
21
102370.0
31
0
0
LINE
8
equipment
10
124150.0
20
102370.0
30
0
11
125950.0
21
102370.0
31
0
0
LINE
8
equipment
10
126050.0
20
99500.0
30
0
11
125673.48999999999
21
100281.83000000002
31
0
0
LINE
8
equipment
10
125673.48999999999
20
100281.83000000002
30
0
11
124827.48000000001
21
100474.93000000001
31
0
0
LINE
8
equipment
10
124827.48000000001
20
100474.93000000001
30
0
11
124149.03
21
99933.87999999999
31
0
0
LINE
8
equipment
10
124149.03
20
99933.87999999999
30
0
11
124149.03
21
99066.12
31
0
0
LINE
8
equipment
10
124149.03
20
99066.12
30
0
11
124827.48000000001
21
98525.06999999999
31
0
0
LINE
8
equipment
10
124827.48000000001
20
98525.06999999999
30
0
11
125673.48999999999
21
98718.17
31
0
0
LINE
8
equipment
10
125673.48999999999
20
98718.17
30
0
11
126050.0
21
99500.0
31
0
0
LINE
8
equipment
10
127850.0
20
102250.0
30
0
11
127850.0
21
102370.0
31
0
0
LINE
8
equipment
10
129650.0
20
102250.0
30
0
11
129650.0
21
102370.0
31
0
0
LINE
8
equipment
10
127850.0
20
102370.0
30
0
11
129650.0
21
102370.0
31
0
0
LINE
8
equipment
10
128250.0
20
99500.0
30
0
11
127873.48999999999
21
100281.83000000002
31
0
0
LINE
8
equipment
10
127873.48999999999
20
100281.83000000002
30
0
11
127027.48000000001
21
100474.93000000001
31
0
0
LINE
8
equipment
10
127027.48000000001
20
100474.93000000001
30
0
11
126349.03
21
99933.87999999999
31
0
0
LINE
8
equipment
10
126349.03
20
99933.87999999999
30
0
11
126349.03
21
99066.12
31
0
0
LINE
8
equipment
10
126349.03
20
99066.12
30
0
11
127027.48000000001
21
98525.06999999999
31
0
0
LINE
8
equipment
10
127027.48000000001
20
98525.06999999999
30
0
11
127873.48999999999
21
98718.17
31
0
0
LINE
8
equipment
10
127873.48999999999
20
98718.17
30
0
11
128250.0
21
99500.0
31
0
0
LINE
8
equipment
10
120250.0
20
96685.0
30
0
11
120250.0
21
96750.0
31
0
0
LINE
8
equipment
10
129850.0
20
96685.0
30
0
11
129850.0
21
96750.0
31
0
0
LINE
8
equipment
10
120250.0
20
96685.0
30
0
11
129850.0
21
96685.0
31
0
0
LINE
8
equipment
10
120250.0
20
102250.0
30
0
11
120250.0
21
102315.00000000001
31
0
0
LINE
8
equipment
10
129850.0
20
102250.0
30
0
11
129850.0
21
102315.00000000001
31
0
0
LINE
8
equipment
10
120250.0
20
102315.00000000001
30
0
11
120450.0
21
102315.00000000001
31
0
0
LINE
8
equipment
10
122250.0
20
102315.00000000001
30
0
11
124150.0
21
102315.00000000001
31
0
0
LINE
8
equipment
10
125950.0
20
102315.00000000001
30
0
11
127850.0
21
102315.00000000001
31
0
0
LINE
8
equipment
10
129650.0
20
102315.00000000001
30
0
11
129850.0
21
102315.00000000001
31
0
0
LINE
8
equipment
10
148350.0
20
96350.0
30
0
11
148350.0
21
102650.0
31
0
0
LINE
8
equipment
10
159150.0
20
96350.0
30
0
11
159150.0
21
102650.0
31
0
0
LINE
8
equipment
10
148350.0
20
96350.0
30
0
11
159150.0
21
96350.0
31
0
0
LINE
8
equipment
10
148350.0
20
102650.0
30
0
11
159150.0
21
102650.0
31
0
0
LINE
8
equipment
10
148750.0
20
96750.0
30
0
11
148750.0
21
102250.0
31
0
0
LINE
8
equipment
10
158750.0
20
96750.0
30
0
11
158750.0
21
102250.0
31
0
0
LINE
8
equipment
10
148750.0
20
96750.0
30
0
11
158750.0
21
96750.0
31
0
0
LINE
8
equipment
10
148750.0
20
102250.0
30
0
11
158750.0
21
102250.0
31
0
0
LINE
8
equipment
10
149150.0
20
102250.0
30
0
11
149150.0
21
102370.0
31
0
0
LINE
8
equipment
10
150950.0
20
102250.0
30
0
11
150950.0
21
102370.0
31
0
0
LINE
8
equipment
10
149150.0
20
102370.0
30
0
11
150950.0
21
102370.0
31
0
0
LINE
8
equipment
10
152550.0
20
99500.0
30
0
11
152173.49
21
100281.83000000002
31
0
0
LINE
8
equipment
10
152173.49
20
100281.83000000002
30
0
11
151327.47999999998
21
100474.93000000001
31
0
0
LINE
8
equipment
10
151327.47999999998
20
100474.93000000001
30
0
11
150649.03
21
99933.87999999999
31
0
0
LINE
8
equipment
10
150649.03
20
99933.87999999999
30
0
11
150649.03
21
99066.12
31
0
0
LINE
8
equipment
10
150649.03
20
99066.12
30
0
11
151327.47999999998
21
98525.06999999999
31
0
0
LINE
8
equipment
10
151327.47999999998
20
98525.06999999999
30
0
11
152173.49
21
98718.17
31
0
0
LINE
8
equipment
10
152173.49
20
98718.17
30
0
11
152550.0
21
99500.0
31
0
0
LINE
8
equipment
10
152850.0
20
102250.0
30
0
11
152850.0
21
102370.0
31
0
0
LINE
8
equipment
10
154650.0
20
102250.0
30
0
11
154650.0
21
102370.0
31
0
0
LINE
8
equipment
10
152850.0
20
102370.0
30
0
11
154650.0
21
102370.0
31
0
0
LINE
8
equipment
10
154750.0
20
99500.0
30
0
11
154373.49
21
100281.83000000002
31
0
0
LINE
8
equipment
10
154373.49
20
100281.83000000002
30
0
11
153527.48
21
100474.93000000001
31
0
0
LINE
8
equipment
10
153527.48
20
100474.93000000001
30
0
11
152849.03
21
99933.87999999999
31
0
0
LINE
8
equipment
10
152849.03
20
99933.87999999999
30
0
11
152849.03
21
99066.12
31
0
0
LINE
8
equipment
10
152849.03
20
99066.12
30
0
11
153527.48
21
98525.06999999999
31
0
0
LINE
8
equipment
10
153527.48
20
98525.06999999999
30
0
11
154373.49
21
98718.17
31
0
0
LINE
8
equipment
10
154373.49
20
98718.17
30
0
11
154750.0
21
99500.0
31
0
0
LINE
8
equipment
10
156550.0
20
102250.0
30
0
11
156550.0
21
102370.0
31
0
0
LINE
8
equipment
10
158350.0
20
102250.0
30
0
11
158350.0
21
102370.0
31
0
0
LINE
8
equipment
10
156550.0
20
102370.0
30
0
11
158350.0
21
102370.0
31
0
0
LINE
8
equipment
10
156950.0
20
99500.0
30
0
11
156573.49000000002
21
100281.83000000002
31
0
0
LINE
8
equipment
10
156573.49000000002
20
100281.83000000002
30
0
11
155727.48
21
100474.93000000001
31
0
0
LINE
8
equipment
10
155727.48
20
100474.93000000001
30
0
11
155049.03
21
99933.87999999999
31
0
0
LINE
8
equipment
10
155049.03
20
99933.87999999999
30
0
11
155049.03
21
99066.12
31
0
0
LINE
8
equipment
10
155049.03
20
99066.12
30
0
11
155727.48
21
98525.06999999999
31
0
0
LINE
8
equipment
10
155727.48
20
98525.06999999999
30
0
11
156573.49000000002
21
98718.17
31
0
0
LINE
8
equipment
10
156573.49000000002
20
98718.17
30
0
11
156950.0
21
99500.0
31
0
0
LINE
8
equipment
10
148950.0
20
96685.0
30
0
11
148950.0
21
96750.0
31
0
0
LINE
8
equipment
10
158550.0
20
96685.0
30
0
11
158550.0
21
96750.0
31
0
0
LINE
8
equipment
10
148950.0
20
96685.0
30
0
11
158550.0
21
96685.0
31
0
0
LINE
8
equipment
10
148950.0
20
102250.0
30
0
11
148950.0
21
102315.00000000001
31
0
0
LINE
8
equipment
10
158550.0
20
102250.0
30
0
11
158550.0
21
102315.00000000001
31
0
0
LINE
8
equipment
10
148950.0
20
102315.00000000001
30
0
11
149150.0
21
102315.00000000001
31
0
0
LINE
8
equipment
10
150950.0
20
102315.00000000001
30
0
11
152850.0
21
102315.00000000001
31
0
0
LINE
8
equipment
10
154650.0
20
102315.00000000001
30
0
11
156550.0
21
102315.00000000001
31
0
0
LINE
8
equipment
10
158350.0
20
102315.00000000001
30
0
11
158550.0
21
102315.00000000001
31
0
0
LINE
8
equipment
10
177050.0
20
96350.0
30
0
11
177050.0
21
102650.0
31
0
0
LINE
8
equipment
10
187850.0
20
96350.0
30
0
11
187850.0
21
102650.0
31
0
0
LINE
8
equipment
10
177050.0
20
96350.0
30
0
11
187850.0
21
96350.0
31
0
0
LINE
8
equipment
10
177050.0
20
102650.0
30
0
11
187850.0
21
102650.0
31
0
0
LINE
8
equipment
10
177450.0
20
96750.0
30
0
11
177450.0
21
102250.0
31
0
0
LINE
8
equipment
10
187450.0
20
96750.0
30
0
11
187450.0
21
102250.0
31
0
0
LINE
8
equipment
10
177450.0
20
96750.0
30
0
11
187450.0
21
96750.0
31
0
0
LINE
8
equipment
10
177450.0
20
102250.0
30
0
11
187450.0
21
102250.0
31
0
0
LINE
8
equipment
10
177850.0
20
102250.0
30
0
11
177850.0
21
102370.0
31
0
0
LINE
8
equipment
10
179650.0
20
102250.0
30
0
11
179650.0
21
102370.0
31
0
0
LINE
8
equipment
10
177850.0
20
102370.0
30
0
11
179650.0
21
102370.0
31
0
0
LINE
8
equipment
10
181250.0
20
99500.0
30
0
11
180873.49
21
100281.83000000002
31
0
0
LINE
8
equipment
10
180873.49
20
100281.83000000002
30
0
11
180027.48
21
100474.93000000001
31
0
0
LINE
8
equipment
10
180027.48
20
100474.93000000001
30
0
11
179349.03
21
99933.87999999999
31
0
0
LINE
8
equipment
10
179349.03
20
99933.87999999999
30
0
11
179349.03
21
99066.12
31
0
0
LINE
8
equipment
10
179349.03
20
99066.12
30
0
11
180027.48
21
98525.06999999999
31
0
0
LINE
8
equipment
10
180027.48
20
98525.06999999999
30
0
11
180873.49
21
98718.17
31
0
0
LINE
8
equipment
10
180873.49
20
98718.17
30
0
11
181250.0
21
99500.0
31
0
0
LINE
8
equipment
10
181550.0
20
102250.0
30
0
11
181550.0
21
102370.0
31
0
0
LINE
8
equipment
10
183350.0
20
102250.0
30
0
11
183350.0
21
102370.0
31
0
0
LINE
8
equipment
10
181550.0
20
102370.0
30
0
11
183350.0
21
102370.0
31
0
0
LINE
8
equipment
10
183450.0
20
99500.0
30
0
11
183073.49
21
100281.83000000002
31
0
0
LINE
8
equipment
10
183073.49
20
100281.83000000002
30
0
11
182227.48
21
100474.93000000001
31
0
0
LINE
8
equipment
10
182227.48
20
100474.93000000001
30
0
11
181549.03
21
99933.87999999999
31
0
0
LINE
8
equipment
10
181549.03
20
99933.87999999999
30
0
11
181549.03
21
99066.12
31
0
0
LINE
8
equipment
10
181549.03
20
99066.12
30
0
11
182227.48
21
98525.06999999999
31
0
0
LINE
8
equipment
10
182227.48
20
98525.06999999999
30
0
11
183073.49
21
98718.17
31
0
0
LINE
8
equipment
10
183073.49
20
98718.17
30
0
11
183450.0
21
99500.0
31
0
0
LINE
8
equipment
10
185250.0
20
102250.0
30
0
11
185250.0
21
102370.0
31
0
0
LINE
8
equipment
10
187050.0
20
102250.0
30
0
11
187050.0
21
102370.0
31
0
0
LINE
8
equipment
10
185250.0
20
102370.0
30
0
11
187050.0
21
102370.0
31
0
0
LINE
8
equipment
10
185650.0
20
99500.0
30
0
11
185273.49
21
100281.83000000002
31
0
0
LINE
8
equipment
10
185273.49
20
100281.83000000002
30
0
11
184427.47999999998
21
100474.93000000001
31
0
0
LINE
8
equipment
10
184427.47999999998
20
100474.93000000001
30
0
11
183749.03
21
99933.87999999999
31
0
0
LINE
8
equipment
10
183749.03
20
99933.87999999999
30
0
11
183749.03
21
99066.12
31
0
0
LINE
8
equipment
10
183749.03
20
99066.12
30
0
11
184427.47999999998
21
98525.06999999999
31
0
0
LINE
8
equipment
10
184427.47999999998
20
98525.06999999999
30
0
11
185273.49
21
98718.17
31
0
0
LINE
8
equipment
10
185273.49
20
98718.17
30
0
11
185650.0
21
99500.0
31
0
0
LINE
8
equipment
10
177650.0
20
96685.0
30
0
11
177650.0
21
96750.0
31
0
0
LINE
8
equipment
10
187250.0
20
96685.0
30
0
11
187250.0
21
96750.0
31
0
0
LINE
8
equipment
10
177650.0
20
96685.0
30
0
11
187250.0
21
96685.0
31
0
0
LINE
8
equipment
10
177650.0
20
102250.0
30
0
11
177650.0
21
102315.00000000001
31
0
0
LINE
8
equipment
10
187250.0
20
102250.0
30
0
11
187250.0
21
102315.00000000001
31
0
0
LINE
8
equipment
10
177650.0
20
102315.00000000001
30
0
11
177850.0
21
102315.00000000001
31
0
0
LINE
8
equipment
10
179650.0
20
102315.00000000001
30
0
11
181550.0
21
102315.00000000001
31
0
0
LINE
8
equipment
10
183350.0
20
102315.00000000001
30
0
11
185250.0
21
102315.00000000001
31
0
0
LINE
8
equipment
10
187050.0
20
102315.00000000001
30
0
11
187250.0
21
102315.00000000001
31
0
0
LINE
8
equipment
10
205750.0
20
96350.0
30
0
11
205750.0
21
102650.0
31
0
0
LINE
8
equipment
10
216550.0
20
96350.0
30
0
11
216550.0
21
102650.0
31
0
0
LINE
8
equipment
10
205750.0
20
96350.0
30
0
11
216550.0
21
96350.0
31
0
0
LINE
8
equipment
10
205750.0
20
102650.0
30
0
11
216550.0
21
102650.0
31
0
0
LINE
8
equipment
10
206150.0
20
96750.0
30
0
11
206150.0
21
102250.0
31
0
0
LINE
8
equipment
10
216150.0
20
96750.0
30
0
11
216150.0
21
102250.0
31
0
0
LINE
8
equipment
10
206150.0
20
96750.0
30
0
11
216150.0
21
96750.0
31
0
0
LINE
8
equipment
10
206150.0
20
102250.0
30
0
11
216150.0
21
102250.0
31
0
0
LINE
8
equipment
10
206549.99999999997
20
102250.0
30
0
11
206549.99999999997
21
102370.0
31
0
0
LINE
8
equipment
10
208350.0
20
102250.0
30
0
11
208350.0
21
102370.0
31
0
0
LINE
8
equipment
10
206549.99999999997
20
102370.0
30
0
11
208350.0
21
102370.0
31
0
0
LINE
8
equipment
10
209950.0
20
99500.0
30
0
11
209573.49000000002
21
100281.83000000002
31
0
0
LINE
8
equipment
10
209573.49000000002
20
100281.83000000002
30
0
11
208727.48
21
100474.93000000001
31
0
0
LINE
8
equipment
10
208727.48
20
100474.93000000001
30
0
11
208049.03
21
99933.87999999999
31
0
0
LINE
8
equipment
10
208049.03
20
99933.87999999999
30
0
11
208049.03
21
99066.12
31
0
0
LINE
8
equipment
10
208049.03
20
99066.12
30
0
11
208727.48
21
98525.06999999999
31
0
0
LINE
8
equipment
10
208727.48
20
98525.06999999999
30
0
11
209573.49000000002
21
98718.17
31
0
0
LINE
8
equipment
10
209573.49000000002
20
98718.17
30
0
11
209950.0
21
99500.0
31
0
0
LINE
8
equipment
10
210250.0
20
102250.0
30
0
11
210250.0
21
102370.0
31
0
0
LINE
8
equipment
10
212050.0
20
102250.0
30
0
11
212050.0
21
102370.0
31
0
0
LINE
8
equipment
10
210250.0
20
102370.0
30
0
11
212050.0
21
102370.0
31
0
0
LINE
8
equipment
10
212150.0
20
99500.0
30
0
11
211773.49
21
100281.83000000002
31
0
0
LINE
8
equipment
10
211773.49
20
100281.83000000002
30
0
11
210927.48
21
100474.93000000001
31
0
0
LINE
8
equipment
10
210927.48
20
100474.93000000001
30
0
11
210249.03
21
99933.87999999999
31
0
0
LINE
8
equipment
10
210249.03
20
99933.87999999999
30
0
11
210249.03
21
99066.12
31
0
0
LINE
8
equipment
10
210249.03
20
99066.12
30
0
11
210927.48
21
98525.06999999999
31
0
0
LINE
8
equipment
10
210927.48
20
98525.06999999999
30
0
11
211773.49
21
98718.17
31
0
0
LINE
8
equipment
10
211773.49
20
98718.17
30
0
11
212150.0
21
99500.0
31
0
0
LINE
8
equipment
10
213950.0
20
102250.0
30
0
11
213950.0
21
102370.0
31
0
0
LINE
8
equipment
10
215750.0
20
102250.0
30
0
11
215750.0
21
102370.0
31
0
0
LINE
8
equipment
10
213950.0
20
102370.0
30
0
11
215750.0
21
102370.0
31
0
0
LINE
8
equipment
10
214350.0
20
99500.0
30
0
11
213973.49
21
100281.83000000002
31
0
0
LINE
8
equipment
10
213973.49
20
100281.83000000002
30
0
11
213127.48
21
100474.93000000001
31
0
0
LINE
8
equipment
10
213127.48
20
100474.93000000001
30
0
11
212449.03
21
99933.87999999999
31
0
0
LINE
8
equipment
10
212449.03
20
99933.87999999999
30
0
11
212449.03
21
99066.12
31
0
0
LINE
8
equipment
10
212449.03
20
99066.12
30
0
11
213127.48
21
98525.06999999999
31
0
0
LINE
8
equipment
10
213127.48
20
98525.06999999999
30
0
11
213973.49
21
98718.17
31
0
0
LINE
8
equipment
10
213973.49
20
98718.17
30
0
11
214350.0
21
99500.0
31
0
0
LINE
8
equipment
10
206350.0
20
96685.0
30
0
11
206350.0
21
96750.0
31
0
0
LINE
8
equipment
10
215950.0
20
96685.0
30
0
11
215950.0
21
96750.0
31
0
0
LINE
8
equipment
10
206350.0
20
96685.0
30
0
11
215950.0
21
96685.0
31
0
0
LINE
8
equipment
10
206350.0
20
102250.0
30
0
11
206350.0
21
102315.00000000001
31
0
0
LINE
8
equipment
10
215950.0
20
102250.0
30
0
11
215950.0
21
102315.00000000001
31
0
0
LINE
8
equipment
10
206350.0
20
102315.00000000001
30
0
11
206549.99999999997
21
102315.00000000001
31
0
0
LINE
8
equipment
10
208350.0
20
102315.00000000001
30
0
11
210250.0
21
102315.00000000001
31
0
0
LINE
8
equipment
10
212050.0
20
102315.00000000001
30
0
11
213950.0
21
102315.00000000001
31
0
0
LINE
8
equipment
10
215750.0
20
102315.00000000001
30
0
11
215950.0
21
102315.00000000001
31
0
0
LINE
8
equipment
10
90950.0
20
140350.0
30
0
11
90950.0
21
146650.0
31
0
0
LINE
8
equipment
10
101750.00000000001
20
140350.0
30
0
11
101750.00000000001
21
146650.0
31
0
0
LINE
8
equipment
10
90950.0
20
140350.0
30
0
11
101750.00000000001
21
140350.0
31
0
0
LINE
8
equipment
10
90950.0
20
146650.0
30
0
11
101750.00000000001
21
146650.0
31
0
0
LINE
8
equipment
10
91350.0
20
140750.0
30
0
11
91350.0
21
146250.0
31
0
0
LINE
8
equipment
10
101350.0
20
140750.0
30
0
11
101350.0
21
146250.0
31
0
0
LINE
8
equipment
10
91350.0
20
140750.0
30
0
11
101350.0
21
140750.0
31
0
0
LINE
8
equipment
10
91350.0
20
146250.0
30
0
11
101350.0
21
146250.0
31
0
0
LINE
8
equipment
10
91750.0
20
146250.0
30
0
11
91750.0
21
146370.0
31
0
0
LINE
8
equipment
10
93550.0
20
146250.0
30
0
11
93550.0
21
146370.0
31
0
0
LINE
8
equipment
10
91750.0
20
146370.0
30
0
11
93550.0
21
146370.0
31
0
0
LINE
8
equipment
10
95150.0
20
143500.0
30
0
11
94773.49
21
144281.83000000002
31
0
0
LINE
8
equipment
10
94773.49
20
144281.83000000002
30
0
11
93927.48000000001
21
144474.93
31
0
0
LINE
8
equipment
10
93927.48000000001
20
144474.93
30
0
11
93249.03
21
143933.87999999998
31
0
0
LINE
8
equipment
10
93249.03
20
143933.87999999998
30
0
11
93249.03
21
143066.12
31
0
0
LINE
8
equipment
10
93249.03
20
143066.12
30
0
11
93927.48000000001
21
142525.07
31
0
0
LINE
8
equipment
10
93927.48000000001
20
142525.07
30
0
11
94773.49
21
142718.16999999998
31
0
0
LINE
8
equipment
10
94773.49
20
142718.16999999998
30
0
11
95150.0
21
143500.0
31
0
0
LINE
8
equipment
10
95450.0
20
146250.0
30
0
11
95450.0
21
146370.0
31
0
0
LINE
8
equipment
10
97250.00000000001
20
146250.0
30
0
11
97250.00000000001
21
146370.0
31
0
0
LINE
8
equipment
10
95450.0
20
146370.0
30
0
11
97250.00000000001
21
146370.0
31
0
0
LINE
8
equipment
10
97350.00000000001
20
143500.0
30
0
11
96973.48999999999
21
144281.83000000002
31
0
0
LINE
8
equipment
10
96973.48999999999
20
144281.83000000002
30
0
11
96127.48
21
144474.93
31
0
0
LINE
8
equipment
10
96127.48
20
144474.93
30
0
11
95449.03
21
143933.87999999998
31
0
0
LINE
8
equipment
10
95449.03
20
143933.87999999998
30
0
11
95449.03
21
143066.12
31
0
0
LINE
8
equipment
10
95449.03
20
143066.12
30
0
11
96127.48
21
142525.07
31
0
0
LINE
8
equipment
10
96127.48
20
142525.07
30
0
11
96973.48999999999
21
142718.16999999998
31
0
0
LINE
8
equipment
10
96973.48999999999
20
142718.16999999998
30
0
11
97350.00000000001
21
143500.0
31
0
0
LINE
8
equipment
10
99149.99999999999
20
146250.0
30
0
11
99149.99999999999
21
146370.0
31
0
0
LINE
8
equipment
10
100950.0
20
146250.0
30
0
11
100950.0
21
146370.0
31
0
0
LINE
8
equipment
10
99149.99999999999
20
146370.0
30
0
11
100950.0
21
146370.0
31
0
0
LINE
8
equipment
10
99550.00000000001
20
143500.0
30
0
11
99173.48999999999
21
144281.83000000002
31
0
0
LINE
8
equipment
10
99173.48999999999
20
144281.83000000002
30
0
11
98327.48
21
144474.93
31
0
0
LINE
8
equipment
10
98327.48
20
144474.93
30
0
11
97649.03000000001
21
143933.87999999998
31
0
0
LINE
8
equipment
10
97649.03000000001
20
143933.87999999998
30
0
11
97649.03000000001
21
143066.12
31
0
0
LINE
8
equipment
10
97649.03000000001
20
143066.12
30
0
11
98327.48
21
142525.07
31
0
0
LINE
8
equipment
10
98327.48
20
142525.07
30
0
11
99173.48999999999
21
142718.16999999998
31
0
0
LINE
8
equipment
10
99173.48999999999
20
142718.16999999998
30
0
11
99550.00000000001
21
143500.0
31
0
0
LINE
8
equipment
10
91550.0
20
140685.0
30
0
11
91550.0
21
140750.0
31
0
0
LINE
8
equipment
10
101150.0
20
140685.0
30
0
11
101150.0
21
140750.0
31
0
0
LINE
8
equipment
10
91550.0
20
140685.0
30
0
11
101150.0
21
140685.0
31
0
0
LINE
8
equipment
10
91550.0
20
146250.0
30
0
11
91550.0
21
146315.0
31
0
0
LINE
8
equipment
10
101150.0
20
146250.0
30
0
11
101150.0
21
146315.0
31
0
0
LINE
8
equipment
10
91550.0
20
146315.0
30
0
11
91750.0
21
146315.0
31
0
0
LINE
8
equipment
10
93550.0
20
146315.0
30
0
11
95450.0
21
146315.0
31
0
0
LINE
8
equipment
10
97250.00000000001
20
146315.0
30
0
11
99149.99999999999
21
146315.0
31
0
0
LINE
8
equipment
10
100950.0
20
146315.0
30
0
11
101150.0
21
146315.0
31
0
0
LINE
8
equipment
10
119650.0
20
140350.0
30
0
11
119650.0
21
146650.0
31
0
0
LINE
8
equipment
10
130450.0
20
140350.0
30
0
11
130450.0
21
146650.0
31
0
0
LINE
8
equipment
10
119650.0
20
140350.0
30
0
11
130450.0
21
140350.0
31
0
0
LINE
8
equipment
10
119650.0
20
146650.0
30
0
11
130450.0
21
146650.0
31
0
0
LINE
8
equipment
10
120050.0
20
140750.0
30
0
11
120050.0
21
146250.0
31
0
0
LINE
8
equipment
10
130050.0
20
140750.0
30
0
11
130050.0
21
146250.0
31
0
0
LINE
8
equipment
10
120050.0
20
140750.0
30
0
11
130050.0
21
140750.0
31
0
0
LINE
8
equipment
10
120050.0
20
146250.0
30
0
11
130050.0
21
146250.0
31
0
0
LINE
8
equipment
10
120450.0
20
146250.0
30
0
11
120450.0
21
146370.0
31
0
0
LINE
8
equipment
10
122250.0
20
146250.0
30
0
11
122250.0
21
146370.0
31
0
0
LINE
8
equipment
10
120450.0
20
146370.0
30
0
11
122250.0
21
146370.0
31
0
0
LINE
8
equipment
10
123850.0
20
143500.0
30
0
11
123473.49
21
144281.83000000002
31
0
0
LINE
8
equipment
10
123473.49
20
144281.83000000002
30
0
11
122627.48000000001
21
144474.93
31
0
0
LINE
8
equipment
10
122627.48000000001
20
144474.93
30
0
11
121949.03
21
143933.87999999998
31
0
0
LINE
8
equipment
10
121949.03
20
143933.87999999998
30
0
11
121949.03
21
143066.12
31
0
0
LINE
8
equipment
10
121949.03
20
143066.12
30
0
11
122627.48000000001
21
142525.07
31
0
0
LINE
8
equipment
10
122627.48000000001
20
142525.07
30
0
11
123473.49
21
142718.16999999998
31
0
0
LINE
8
equipment
10
123473.49
20
142718.16999999998
30
0
11
123850.0
21
143500.0
31
0
0
LINE
8
equipment
10
124150.0
20
146250.0
30
0
11
124150.0
21
146370.0
31
0
0
LINE
8
equipment
10
125950.0
20
146250.0
30
0
11
125950.0
21
146370.0
31
0
0
LINE
8
equipment
10
124150.0
20
146370.0
30
0
11
125950.0
21
146370.0
31
0
0
LINE
8
equipment
10
126050.0
20
143500.0
30
0
11
125673.48999999999
21
144281.83000000002
31
0
0
LINE
8
equipment
10
125673.48999999999
20
144281.83000000002
30
0
11
124827.48000000001
21
144474.93
31
0
0
LINE
8
equipment
10
124827.48000000001
20
144474.93
30
0
11
124149.03
21
143933.87999999998
31
0
0
LINE
8
equipment
10
124149.03
20
143933.87999999998
30
0
11
124149.03
21
143066.12
31
0
0
LINE
8
equipment
10
124149.03
20
143066.12
30
0
11
124827.48000000001
21
142525.07
31
0
0
LINE
8
equipment
10
124827.48000000001
20
142525.07
30
0
11
125673.48999999999
21
142718.16999999998
31
0
0
LINE
8
equipment
10
125673.48999999999
20
142718.16999999998
30
0
11
126050.0
21
143500.0
31
0
0
LINE
8
equipment
10
127850.0
20
146250.0
30
0
11
127850.0
21
146370.0
31
0
0
LINE
8
equipment
10
129650.0
20
146250.0
30
0
11
129650.0
21
146370.0
31
0
0
LINE
8
equipment
10
127850.0
20
146370.0
30
0
11
129650.0
21
146370.0
31
0
0
LINE
8
equipment
10
128250.0
20
143500.0
30
0
11
127873.48999999999
21
144281.83000000002
31
0
0
LINE
8
equipment
10
127873.48999999999
20
144281.83000000002
30
0
11
127027.48000000001
21
144474.93
31
0
0
LINE
8
equipment
10
127027.48000000001
20
144474.93
30
0
11
126349.03
21
143933.87999999998
31
0
0
LINE
8
equipment
10
126349.03
20
143933.87999999998
30
0
11
126349.03
21
143066.12
31
0
0
LINE
8
equipment
10
126349.03
20
143066.12
30
0
11
127027.48000000001
21
142525.07
31
0
0
LINE
8
equipment
10
127027.48000000001
20
142525.07
30
0
11
127873.48999999999
21
142718.16999999998
31
0
0
LINE
8
equipment
10
127873.48999999999
20
142718.16999999998
30
0
11
128250.0
21
143500.0
31
0
0
LINE
8
equipment
10
120250.0
20
140685.0
30
0
11
120250.0
21
140750.0
31
0
0
LINE
8
equipment
10
129850.0
20
140685.0
30
0
11
129850.0
21
140750.0
31
0
0
LINE
8
equipment
10
120250.0
20
140685.0
30
0
11
129850.0
21
140685.0
31
0
0
LINE
8
equipment
10
120250.0
20
146250.0
30
0
11
120250.0
21
146315.0
31
0
0
LINE
8
equipment
10
129850.0
20
146250.0
30
0
11
129850.0
21
146315.0
31
0
0
LINE
8
equipment
10
120250.0
20
146315.0
30
0
11
120450.0
21
146315.0
31
0
0
LINE
8
equipment
10
122250.0
20
146315.0
30
0
11
124150.0
21
146315.0
31
0
0
LINE
8
equipment
10
125950.0
20
146315.0
30
0
11
127850.0
21
146315.0
31
0
0
LINE
8
equipment
10
129650.0
20
146315.0
30
0
11
129850.0
21
146315.0
31
0
0
LINE
8
equipment
10
148350.0
20
140350.0
30
0
11
148350.0
21
146650.0
31
0
0
LINE
8
equipment
10
159150.0
20
140350.0
30
0
11
159150.0
21
146650.0
31
0
0
LINE
8
equipment
10
148350.0
20
140350.0
30
0
11
159150.0
21
140350.0
31
0
0
LINE
8
equipment
10
148350.0
20
146650.0
30
0
11
159150.0
21
146650.0
31
0
0
LINE
8
equipment
10
148750.0
20
140750.0
30
0
11
148750.0
21
146250.0
31
0
0
LINE
8
equipment
10
158750.0
20
140750.0
30
0
11
158750.0
21
146250.0
31
0
0
LINE
8
equipment
10
148750.0
20
140750.0
30
0
11
158750.0
21
140750.0
31
0
0
LINE
8
equipment
10
148750.0
20
146250.0
30
0
11
158750.0
21
146250.0
31
0
0
LINE
8
equipment
10
149150.0
20
146250.0
30
0
11
149150.0
21
146370.0
31
0
0
LINE
8
equipment
10
150950.0
20
146250.0
30
0
11
150950.0
21
146370.0
31
0
0
LINE
8
equipment
10
149150.0
20
146370.0
30
0
11
150950.0
21
146370.0
31
0
0
LINE
8
equipment
10
152550.0
20
143500.0
30
0
11
152173.49
21
144281.83000000002
31
0
0
LINE
8
equipment
10
152173.49
20
144281.83000000002
30
0
11
151327.47999999998
21
144474.93
31
0
0
LINE
8
equipment
10
151327.47999999998
20
144474.93
30
0
11
150649.03
21
143933.87999999998
31
0
0
LINE
8
equipment
10
150649.03
20
143933.87999999998
30
0
11
150649.03
21
143066.12
31
0
0
LINE
8
equipment
10
150649.03
20
143066.12
30
0
11
151327.47999999998
21
142525.07
31
0
0
LINE
8
equipment
10
151327.47999999998
20
142525.07
30
0
11
152173.49
21
142718.16999999998
31
0
0
LINE
8
equipment
10
152173.49
20
142718.16999999998
30
0
11
152550.0
21
143500.0
31
0
0
LINE
8
equipment
10
152850.0
20
146250.0
30
0
11
152850.0
21
146370.0
31
0
0
LINE
8
equipment
10
154650.0
20
146250.0
30
0
11
154650.0
21
146370.0
31
0
0
LINE
8
equipment
10
152850.0
20
146370.0
30
0
11
154650.0
21
146370.0
31
0
0
LINE
8
equipment
10
154750.0
20
143500.0
30
0
11
154373.49
21
144281.83000000002
31
0
0
LINE
8
equipment
10
154373.49
20
144281.83000000002
30
0
11
153527.48
21
144474.93
31
0
0
LINE
8
equipment
10
153527.48
20
144474.93
30
0
11
152849.03
21
143933.87999999998
31
0
0
LINE
8
equipment
10
152849.03
20
143933.87999999998
30
0
11
152849.03
21
143066.12
31
0
0
LINE
8
equipment
10
152849.03
20
143066.12
30
0
11
153527.48
21
142525.07
31
0
0
LINE
8
equipment
10
153527.48
20
142525.07
30
0
11
154373.49
21
142718.16999999998
31
0
0
LINE
8
equipment
10
154373.49
20
142718.16999999998
30
0
11
154750.0
21
143500.0
31
0
0
LINE
8
equipment
10
156550.0
20
146250.0
30
0
11
156550.0
21
146370.0
31
0
0
LINE
8
equipment
10
158350.0
20
146250.0
30
0
11
158350.0
21
146370.0
31
0
0
LINE
8
equipment
10
156550.0
20
146370.0
30
0
11
158350.0
21
146370.0
31
0
0
LINE
8
equipment
10
156950.0
20
143500.0
30
0
11
156573.49000000002
21
144281.83000000002
31
0
0
LINE
8
equipment
10
156573.49000000002
20
144281.83000000002
30
0
11
155727.48
21
144474.93
31
0
0
LINE
8
equipment
10
155727.48
20
144474.93
30
0
11
155049.03
21
143933.87999999998
31
0
0
LINE
8
equipment
10
155049.03
20
143933.87999999998
30
0
11
155049.03
21
143066.12
31
0
0
LINE
8
equipment
10
155049.03
20
143066.12
30
0
11
155727.48
21
142525.07
31
0
0
LINE
8
equipment
10
155727.48
20
142525.07
30
0
11
156573.49000000002
21
142718.16999999998
31
0
0
LINE
8
equipment
10
156573.49000000002
20
142718.16999999998
30
0
11
156950.0
21
143500.0
31
0
0
LINE
8
equipment
10
148950.0
20
140685.0
30
0
11
148950.0
21
140750.0
31
0
0
LINE
8
equipment
10
158550.0
20
140685.0
30
0
11
158550.0
21
140750.0
31
0
0
LINE
8
equipment
10
148950.0
20
140685.0
30
0
11
158550.0
21
140685.0
31
0
0
LINE
8
equipment
10
148950.0
20
146250.0
30
0
11
148950.0
21
146315.0
31
0
0
LINE
8
equipment
10
158550.0
20
146250.0
30
0
11
158550.0
21
146315.0
31
0
0
LINE
8
equipment
10
148950.0
20
146315.0
30
0
11
149150.0
21
146315.0
31
0
0
LINE
8
equipment
10
150950.0
20
146315.0
30
0
11
152850.0
21
146315.0
31
0
0
LINE
8
equipment
10
154650.0
20
146315.0
30
0
11
156550.0
21
146315.0
31
0
0
LINE
8
equipment
10
158350.0
20
146315.0
30
0
11
158550.0
21
146315.0
31
0
0
LINE
8
equipment
10
177050.0
20
140350.0
30
0
11
177050.0
21
146650.0
31
0
0
LINE
8
equipment
10
187850.0
20
140350.0
30
0
11
187850.0
21
146650.0
31
0
0
LINE
8
equipment
10
177050.0
20
140350.0
30
0
11
187850.0
21
140350.0
31
0
0
LINE
8
equipment
10
177050.0
20
146650.0
30
0
11
187850.0
21
146650.0
31
0
0
LINE
8
equipment
10
177450.0
20
140750.0
30
0
11
177450.0
21
146250.0
31
0
0
LINE
8
equipment
10
187450.0
20
140750.0
30
0
11
187450.0
21
146250.0
31
0
0
LINE
8
equipment
10
177450.0
20
140750.0
30
0
11
187450.0
21
140750.0
31
0
0
LINE
8
equipment
10
177450.0
20
146250.0
30
0
11
187450.0
21
146250.0
31
0
0
LINE
8
equipment
10
177850.0
20
146250.0
30
0
11
177850.0
21
146370.0
31
0
0
LINE
8
equipment
10
179650.0
20
146250.0
30
0
11
179650.0
21
146370.0
31
0
0
LINE
8
equipment
10
177850.0
20
146370.0
30
0
11
179650.0
21
146370.0
31
0
0
LINE
8
equipment
10
181250.0
20
143500.0
30
0
11
180873.49
21
144281.83000000002
31
0
0
LINE
8
equipment
10
180873.49
20
144281.83000000002
30
0
11
180027.48
21
144474.93
31
0
0
LINE
8
equipment
10
180027.48
20
144474.93
30
0
11
179349.03
21
143933.87999999998
31
0
0
LINE
8
equipment
10
179349.03
20
143933.87999999998
30
0
11
179349.03
21
143066.12
31
0
0
LINE
8
equipment
10
179349.03
20
143066.12
30
0
11
180027.48
21
142525.07
31
0
0
LINE
8
equipment
10
180027.48
20
142525.07
30
0
11
180873.49
21
142718.16999999998
31
0
0
LINE
8
equipment
10
180873.49
20
142718.16999999998
30
0
11
181250.0
21
143500.0
31
0
0
LINE
8
equipment
10
181550.0
20
146250.0
30
0
11
181550.0
21
146370.0
31
0
0
LINE
8
equipment
10
183350.0
20
146250.0
30
0
11
183350.0
21
146370.0
31
0
0
LINE
8
equipment
10
181550.0
20
146370.0
30
0
11
183350.0
21
146370.0
31
0
0
LINE
8
equipment
10
183450.0
20
143500.0
30
0
11
183073.49
21
144281.83000000002
31
0
0
LINE
8
equipment
10
183073.49
20
144281.83000000002
30
0
11
182227.48
21
144474.93
31
0
0
LINE
8
equipment
10
182227.48
20
144474.93
30
0
11
181549.03
21
143933.87999999998
31
0
0
LINE
8
equipment
10
181549.03
20
143933.87999999998
30
0
11
181549.03
21
143066.12
31
0
0
LINE
8
equipment
10
181549.03
20
143066.12
30
0
11
182227.48
21
142525.07
31
0
0
LINE
8
equipment
10
182227.48
20
142525.07
30
0
11
183073.49
21
142718.16999999998
31
0
0
LINE
8
equipment
10
183073.49
20
142718.16999999998
30
0
11
183450.0
21
143500.0
31
0
0
LINE
8
equipment
10
185250.0
20
146250.0
30
0
11
185250.0
21
146370.0
31
0
0
LINE
8
equipment
10
187050.0
20
146250.0
30
0
11
187050.0
21
146370.0
31
0
0
LINE
8
equipment
10
185250.0
20
146370.0
30
0
11
187050.0
21
146370.0
31
0
0
LINE
8
equipment
10
185650.0
20
143500.0
30
0
11
185273.49
21
144281.83000000002
31
0
0
LINE
8
equipment
10
185273.49
20
144281.83000000002
30
0
11
184427.47999999998
21
144474.93
31
0
0
LINE
8
equipment
10
184427.47999999998
20
144474.93
30
0
11
183749.03
21
143933.87999999998
31
0
0
LINE
8
equipment
10
183749.03
20
143933.87999999998
30
0
11
183749.03
21
143066.12
31
0
0
LINE
8
equipment
10
183749.03
20
143066.12
30
0
11
184427.47999999998
21
142525.07
31
0
0
LINE
8
equipment
10
184427.47999999998
20
142525.07
30
0
11
185273.49
21
142718.16999999998
31
0
0
LINE
8
equipment
10
185273.49
20
142718.16999999998
30
0
11
185650.0
21
143500.0
31
0
0
LINE
8
equipment
10
177650.0
20
140685.0
30
0
11
177650.0
21
140750.0
31
0
0
LINE
8
equipment
10
187250.0
20
140685.0
30
0
11
187250.0
21
140750.0
31
0
0
LINE
8
equipment
10
177650.0
20
140685.0
30
0
11
187250.0
21
140685.0
31
0
0
LINE
8
equipment
10
177650.0
20
146250.0
30
0
11
177650.0
21
146315.0
31
0
0
LINE
8
equipment
10
187250.0
20
146250.0
30
0
11
187250.0
21
146315.0
31
0
0
LINE
8
equipment
10
177650.0
20
146315.0
30
0
11
177850.0
21
146315.0
31
0
0
LINE
8
equipment
10
179650.0
20
146315.0
30
0
11
181550.0
21
146315.0
31
0
0
LINE
8
equipment
10
183350.0
20
146315.0
30
0
11
185250.0
21
146315.0
31
0
0
LINE
8
equipment
10
187050.0
20
146315.0
30
0
11
187250.0
21
146315.0
31
0
0
LINE
8
equipment
10
205750.0
20
140350.0
30
0
11
205750.0
21
146650.0
31
0
0
LINE
8
equipment
10
216550.0
20
140350.0
30
0
11
216550.0
21
146650.0
31
0
0
LINE
8
equipment
10
205750.0
20
140350.0
30
0
11
216550.0
21
140350.0
31
0
0
LINE
8
equipment
10
205750.0
20
146650.0
30
0
11
216550.0
21
146650.0
31
0
0
LINE
8
equipment
10
206150.0
20
140750.0
30
0
11
206150.0
21
146250.0
31
0
0
LINE
8
equipment
10
216150.0
20
140750.0
30
0
11
216150.0
21
146250.0
31
0
0
LINE
8
equipment
10
206150.0
20
140750.0
30
0
11
216150.0
21
140750.0
31
0
0
LINE
8
equipment
10
206150.0
20
146250.0
30
0
11
216150.0
21
146250.0
31
0
0
LINE
8
equipment
10
206549.99999999997
20
146250.0
30
0
11
206549.99999999997
21
146370.0
31
0
0
LINE
8
equipment
10
208350.0
20
146250.0
30
0
11
208350.0
21
146370.0
31
0
0
LINE
8
equipment
10
206549.99999999997
20
146370.0
30
0
11
208350.0
21
146370.0
31
0
0
LINE
8
equipment
10
209950.0
20
143500.0
30
0
11
209573.49000000002
21
144281.83000000002
31
0
0
LINE
8
equipment
10
209573.49000000002
20
144281.83000000002
30
0
11
208727.48
21
144474.93
31
0
0
LINE
8
equipment
10
208727.48
20
144474.93
30
0
11
208049.03
21
143933.87999999998
31
0
0
LINE
8
equipment
10
208049.03
20
143933.87999999998
30
0
11
208049.03
21
143066.12
31
0
0
LINE
8
equipment
10
208049.03
20
143066.12
30
0
11
208727.48
21
142525.07
31
0
0
LINE
8
equipment
10
208727.48
20
142525.07
30
0
11
209573.49000000002
21
142718.16999999998
31
0
0
LINE
8
equipment
10
209573.49000000002
20
142718.16999999998
30
0
11
209950.0
21
143500.0
31
0
0
LINE
8
equipment
10
210250.0
20
146250.0
30
0
11
210250.0
21
146370.0
31
0
0
LINE
8
equipment
10
212050.0
20
146250.0
30
0
11
212050.0
21
146370.0
31
0
0
LINE
8
equipment
10
210250.0
20
146370.0
30
0
11
212050.0
21
146370.0
31
0
0
LINE
8
equipment
10
212150.0
20
143500.0
30
0
11
211773.49
21
144281.83000000002
31
0
0
LINE
8
equipment
10
211773.49
20
144281.83000000002
30
0
11
210927.48
21
144474.93
31
0
0
LINE
8
equipment
10
210927.48
20
144474.93
30
0
11
210249.03
21
143933.87999999998
31
0
0
LINE
8
equipment
10
210249.03
20
143933.87999999998
30
0
11
210249.03
21
143066.12
31
0
0
LINE
8
equipment
10
210249.03
20
143066.12
30
0
11
210927.48
21
142525.07
31
0
0
LINE
8
equipment
10
210927.48
20
142525.07
30
0
11
211773.49
21
142718.16999999998
31
0
0
LINE
8
equipment
10
211773.49
20
142718.16999999998
30
0
11
212150.0
21
143500.0
31
0
0
LINE
8
equipment
10
213950.0
20
146250.0
30
0
11
213950.0
21
146370.0
31
0
0
LINE
8
equipment
10
215750.0
20
146250.0
30
0
11
215750.0
21
146370.0
31
0
0
LINE
8
equipment
10
213950.0
20
146370.0
30
0
11
215750.0
21
146370.0
31
0
0
LINE
8
equipment
10
214350.0
20
143500.0
30
0
11
213973.49
21
144281.83000000002
31
0
0
LINE
8
equipment
10
213973.49
20
144281.83000000002
30
0
11
213127.48
21
144474.93
31
0
0
LINE
8
equipment
10
213127.48
20
144474.93
30
0
11
212449.03
21
143933.87999999998
31
0
0
LINE
8
equipment
10
212449.03
20
143933.87999999998
30
0
11
212449.03
21
143066.12
31
0
0
LINE
8
equipment
10
212449.03
20
143066.12
30
0
11
213127.48
21
142525.07
31
0
0
LINE
8
equipment
10
213127.48
20
142525.07
30
0
11
213973.49
21
142718.16999999998
31
0
0
LINE
8
equipment
10
213973.49
20
142718.16999999998
30
0
11
214350.0
21
143500.0
31
0
0
LINE
8
equipment
10
206350.0
20
140685.0
30
0
11
206350.0
21
140750.0
31
0
0
LINE
8
equipment
10
215950.0
20
140685.0
30
0
11
215950.0
21
140750.0
31
0
0
LINE
8
equipment
10
206350.0
20
140685.0
30
0
11
215950.0
21
140685.0
31
0
0
LINE
8
equipment
10
206350.0
20
146250.0
30
0
11
206350.0
21
146315.0
31
0
0
LINE
8
equipment
10
215950.0
20
146250.0
30
0
11
215950.0
21
146315.0
31
0
0
LINE
8
equipment
10
206350.0
20
146315.0
30
0
11
206549.99999999997
21
146315.0
31
0
0
LINE
8
equipment
10
208350.0
20
146315.0
30
0
11
210250.0
21
146315.0
31
0
0
LINE
8
equipment
10
212050.0
20
146315.0
30
0
11
213950.0
21
146315.0
31
0
0
LINE
8
equipment
10
215750.0
20
146315.0
30
0
11
215950.0
21
146315.0
31
0
0
LINE
8
piping
10
227549.99999999997
20
121500.0
30
0
11
227549.99999999997
21
121479.84999999999
31
0
0
LINE
8
piping
10
227549.99999999997
20
121479.84999999999
30
0
11
227549.99999999997
21
121459.95
31
0
0
LINE
8
piping
10
227549.99999999997
20
121459.95
30
0
11
227549.99999999997
21
121440.55
31
0
0
LINE
8
piping
10
227549.99999999997
20
121440.55
30
0
11
227549.99999999997
21
121421.90000000001
31
0
0
LINE
8
piping
10
227549.99999999997
20
121421.90000000001
30
0
11
227549.99999999997
21
121404.23000000001
31
0
0
LINE
8
piping
10
227549.99999999997
20
121404.23000000001
30
0
11
227549.99999999997
21
121387.76999999999
31
0
0
LINE
8
piping
10
227549.99999999997
20
121387.76999999999
30
0
11
227549.99999999997
21
121372.72
31
0
0
LINE
8
piping
10
227549.99999999997
20
121372.72
30
0
11
227549.99999999997
21
121359.27
31
0
0
LINE
8
piping
10
227549.99999999997
20
121359.27
30
0
11
227549.99999999997
21
121347.59
31
0
0
LINE
8
piping
10
227549.99999999997
20
121347.59
30
0
11
227549.99999999997
21
121337.83
31
0
0
LINE
8
piping
10
227549.99999999997
20
121337.83
30
0
11
227549.99999999997
21
121330.1
31
0
0
LINE
8
piping
10
227549.99999999997
20
121330.1
30
0
11
227549.99999999997
21
121324.51
31
0
0
LINE
8
piping
10
227549.99999999997
20
121324.51
30
0
11
227549.99999999997
21
121321.12999999999
31
0
0
LINE
8
piping
10
227549.99999999997
20
121321.12999999999
30
0
11
227549.99999999997
21
121320.0
31
0
0
LINE
8
piping
10
227549.99999999997
20
121680.0
30
0
11
227549.99999999997
21
121678.87000000001
31
0
0
LINE
8
piping
10
227549.99999999997
20
121678.87000000001
30
0
11
227549.99999999997
21
121675.49
31
0
0
LINE
8
piping
10
227549.99999999997
20
121675.49
30
0
11
227549.99999999997
21
121669.9
31
0
0
LINE
8
piping
10
227549.99999999997
20
121669.9
30
0
11
227549.99999999997
21
121662.17
31
0
0
LINE
8
piping
10
227549.99999999997
20
121662.17
30
0
11
227549.99999999997
21
121652.41
31
0
0
LINE
8
piping
10
227549.99999999997
20
121652.41
30
0
11
227549.99999999997
21
121640.73
31
0
0
LINE
8
piping
10
227549.99999999997
20
121640.73
30
0
11
227549.99999999997
21
121627.28
31
0
0
LINE
8
piping
10
227549.99999999997
20
121627.28
30
0
11
227549.99999999997
21
121612.23000000001
31
0
0
LINE
8
piping
10
227549.99999999997
20
121612.23000000001
30
0
11
227549.99999999997
21
121595.76999999999
31
0
0
LINE
8
piping
10
227549.99999999997
20
121595.76999999999
30
0
11
227549.99999999997
21
121578.09999999999
31
0
0
LINE
8
piping
10
227549.99999999997
20
121578.09999999999
30
0
11
227549.99999999997
21
121559.45
31
0
0
LINE
8
piping
10
227549.99999999997
20
121559.45
30
0
11
227549.99999999997
21
121540.05
31
0
0
LINE
8
piping
10
227549.99999999997
20
121540.05
30
0
11
227549.99999999997
21
121520.15000000001
31
0
0
LINE
8
piping
10
227549.99999999997
20
121520.15000000001
30
0
11
227549.99999999997
21
121500.0
31
0
0
LINE
8
piping
10
79950.0
20
121500.0
30
0
11
79950.0
21
121479.84999999999
31
0
0
LINE
8
piping
10
79950.0
20
121479.84999999999
30
0
11
79950.0
21
121459.95
31
0
0
LINE
8
piping
10
79950.0
20
121459.95
30
0
11
79950.0
21
121440.55
31
0
0
LINE
8
piping
10
79950.0
20
121440.55
30
0
11
79950.0
21
121421.90000000001
31
0
0
LINE
8
piping
10
79950.0
20
121421.90000000001
30
0
11
79950.0
21
121404.23000000001
31
0
0
LINE
8
piping
10
79950.0
20
121404.23000000001
30
0
11
79950.0
21
121387.76999999999
31
0
0
LINE
8
piping
10
79950.0
20
121387.76999999999
30
0
11
79950.0
21
121372.72
31
0
0
LINE
8
piping
10
79950.0
20
121372.72
30
0
11
79950.0
21
121359.27
31
0
0
LINE
8
piping
10
79950.0
20
121359.27
30
0
11
79950.0
21
121347.59
31
0
0
LINE
8
piping
10
79950.0
20
121347.59
30
0
11
79950.0
21
121337.83
31
0
0
LINE
8
piping
10
79950.0
20
121337.83
30
0
11
79950.0
21
121330.1
31
0
0
LINE
8
piping
10
79950.0
20
121330.1
30
0
11
79950.0
21
121324.51
31
0
0
LINE
8
piping
10
79950.0
20
121324.51
30
0
11
79950.0
21
121321.12999999999
31
0
0
LINE
8
piping
10
79950.0
20
121321.12999999999
30
0
11
79950.0
21
121320.0
31
0
0
LINE
8
piping
10
79950.0
20
121680.0
30
0
11
79950.0
21
121678.87000000001
31
0
0
LINE
8
piping
10
79950.0
20
121678.87000000001
30
0
11
79950.0
21
121675.49
31
0
0
LINE
8
piping
10
79950.0
20
121675.49
30
0
11
79950.0
21
121669.9
31
0
0
LINE
8
piping
10
79950.0
20
121669.9
30
0
11
79950.0
21
121662.17
31
0
0
LINE
8
piping
10
79950.0
20
121662.17
30
0
11
79950.0
21
121652.41
31
0
0
LINE
8
piping
10
79950.0
20
121652.41
30
0
11
79950.0
21
121640.73
31
0
0
LINE
8
piping
10
79950.0
20
121640.73
30
0
11
79950.0
21
121627.28
31
0
0
LINE
8
piping
10
79950.0
20
121627.28
30
0
11
79950.0
21
121612.23000000001
31
0
0
LINE
8
piping
10
79950.0
20
121612.23000000001
30
0
11
79950.0
21
121595.76999999999
31
0
0
LINE
8
piping
10
79950.0
20
121595.76999999999
30
0
11
79950.0
21
121578.09999999999
31
0
0
LINE
8
piping
10
79950.0
20
121578.09999999999
30
0
11
79950.0
21
121559.45
31
0
0
LINE
8
piping
10
79950.0
20
121559.45
30
0
11
79950.0
21
121540.05
31
0
0
LINE
8
piping
10
79950.0
20
121540.05
30
0
11
79950.0
21
121520.15000000001
31
0
0
LINE
8
piping
10
79950.0
20
121520.15000000001
30
0
11
79950.0
21
121500.0
31
0
0
LINE
8
equipment
10
105149.99999999999
20
172000.0
30
0
11
104822.46
21
172899.90000000002
31
0
0
LINE
8
equipment
10
104822.46
20
172899.90000000002
30
0
11
103993.11000000002
21
173378.73
31
0
0
LINE
8
equipment
10
103993.11000000002
20
173378.73
30
0
11
103050.0
21
173212.44
31
0
0
LINE
8
equipment
10
103050.0
20
173212.44
30
0
11
102434.43
21
172478.83
31
0
0
LINE
8
equipment
10
102434.43
20
172478.83
30
0
11
102434.43
21
171521.16999999998
31
0
0
LINE
8
equipment
10
102434.43
20
171521.16999999998
30
0
11
103050.0
21
170787.56
31
0
0
LINE
8
equipment
10
103050.0
20
170787.56
30
0
11
103993.11000000002
21
170621.27
31
0
0
LINE
8
equipment
10
103993.11000000002
20
170621.27
30
0
11
104822.46
21
171100.1
31
0
0
LINE
8
equipment
10
104822.46
20
171100.1
30
0
11
105149.99999999999
21
172000.0
31
0
0
LINE
8
equipment
10
101750.00000000001
20
170000.0
30
0
11
101750.00000000001
21
174000.0
31
0
0
LINE
8
equipment
10
105750.0
20
170000.0
30
0
11
105750.0
21
174000.0
31
0
0
LINE
8
equipment
10
101750.00000000001
20
170000.0
30
0
11
105750.0
21
170000.0
31
0
0
LINE
8
equipment
10
101750.00000000001
20
174000.0
30
0
11
105750.0
21
174000.0
31
0
0
LINE
8
equipment
10
130150.0
20
172000.0
30
0
11
129822.45999999999
21
172899.90000000002
31
0
0
LINE
8
equipment
10
129822.45999999999
20
172899.90000000002
30
0
11
128993.11
21
173378.73
31
0
0
LINE
8
equipment
10
128993.11
20
173378.73
30
0
11
128050.00000000001
21
173212.44
31
0
0
LINE
8
equipment
10
128050.00000000001
20
173212.44
30
0
11
127434.43000000001
21
172478.83
31
0
0
LINE
8
equipment
10
127434.43000000001
20
172478.83
30
0
11
127434.43000000001
21
171521.16999999998
31
0
0
LINE
8
equipment
10
127434.43000000001
20
171521.16999999998
30
0
11
128050.00000000001
21
170787.56
31
0
0
LINE
8
equipment
10
128050.00000000001
20
170787.56
30
0
11
128993.11
21
170621.27
31
0
0
LINE
8
equipment
10
128993.11
20
170621.27
30
0
11
129822.45999999999
21
171100.1
31
0
0
LINE
8
equipment
10
129822.45999999999
20
171100.1
30
0
11
130150.0
21
172000.0
31
0
0
LINE
8
equipment
10
126750.0
20
170000.0
30
0
11
126750.0
21
174000.0
31
0
0
LINE
8
equipment
10
130750.0
20
170000.0
30
0
11
130750.0
21
174000.0
31
0
0
LINE
8
equipment
10
126750.0
20
170000.0
30
0
11
130750.0
21
170000.0
31
0
0
LINE
8
equipment
10
126750.0
20
174000.0
30
0
11
130750.0
21
174000.0
31
0
0
LINE
8
equipment
10
155150.0
20
172000.0
30
0
11
154822.46
21
172899.90000000002
31
0
0
LINE
8
equipment
10
154822.46
20
172899.90000000002
30
0
11
153993.11000000002
21
173378.73
31
0
0
LINE
8
equipment
10
153993.11000000002
20
173378.73
30
0
11
153050.0
21
173212.44
31
0
0
LINE
8
equipment
10
153050.0
20
173212.44
30
0
11
152434.43
21
172478.83
31
0
0
LINE
8
equipment
10
152434.43
20
172478.83
30
0
11
152434.43
21
171521.16999999998
31
0
0
LINE
8
equipment
10
152434.43
20
171521.16999999998
30
0
11
153050.0
21
170787.56
31
0
0
LINE
8
equipment
10
153050.0
20
170787.56
30
0
11
153993.11000000002
21
170621.27
31
0
0
LINE
8
equipment
10
153993.11000000002
20
170621.27
30
0
11
154822.46
21
171100.1
31
0
0
LINE
8
equipment
10
154822.46
20
171100.1
30
0
11
155150.0
21
172000.0
31
0
0
LINE
8
equipment
10
151750.0
20
170000.0
30
0
11
151750.0
21
174000.0
31
0
0
LINE
8
equipment
10
155750.0
20
170000.0
30
0
11
155750.0
21
174000.0
31
0
0
LINE
8
equipment
10
151750.0
20
170000.0
30
0
11
155750.0
21
170000.0
31
0
0
LINE
8
equipment
10
151750.0
20
174000.0
30
0
11
155750.0
21
174000.0
31
0
0
LINE
8
equipment
10
180150.0
20
172000.0
30
0
11
179822.46000000002
21
172899.90000000002
31
0
0
LINE
8
equipment
10
179822.46000000002
20
172899.90000000002
30
0
11
178993.11
21
173378.73
31
0
0
LINE
8
equipment
10
178993.11
20
173378.73
30
0
11
178050.0
21
173212.44
31
0
0
LINE
8
equipment
10
178050.0
20
173212.44
30
0
11
177434.43
21
172478.83
31
0
0
LINE
8
equipment
10
177434.43
20
172478.83
30
0
11
177434.43
21
171521.16999999998
31
0
0
LINE
8
equipment
10
177434.43
20
171521.16999999998
30
0
11
178050.0
21
170787.56
31
0
0
LINE
8
equipment
10
178050.0
20
170787.56
30
0
11
178993.11
21
170621.27
31
0
0
LINE
8
equipment
10
178993.11
20
170621.27
30
0
11
179822.46000000002
21
171100.1
31
0
0
LINE
8
equipment
10
179822.46000000002
20
171100.1
30
0
11
180150.0
21
172000.0
31
0
0
LINE
8
equipment
10
176750.0
20
170000.0
30
0
11
176750.0
21
174000.0
31
0
0
LINE
8
equipment
10
180750.0
20
170000.0
30
0
11
180750.0
21
174000.0
31
0
0
LINE
8
equipment
10
176750.0
20
170000.0
30
0
11
180750.0
21
170000.0
31
0
0
LINE
8
equipment
10
176750.0
20
174000.0
30
0
11
180750.0
21
174000.0
31
0
0
LINE
8
equipment
10
205149.99999999997
20
172000.0
30
0
11
204822.46
21
172899.90000000002
31
0
0
LINE
8
equipment
10
204822.46
20
172899.90000000002
30
0
11
203993.11000000002
21
173378.73
31
0
0
LINE
8
equipment
10
203993.11000000002
20
173378.73
30
0
11
203050.0
21
173212.44
31
0
0
LINE
8
equipment
10
203050.0
20
173212.44
30
0
11
202434.43
21
172478.83
31
0
0
LINE
8
equipment
10
202434.43
20
172478.83
30
0
11
202434.43
21
171521.16999999998
31
0
0
LINE
8
equipment
10
202434.43
20
171521.16999999998
30
0
11
203050.0
21
170787.56
31
0
0
LINE
8
equipment
10
203050.0
20
170787.56
30
0
11
203993.11000000002
21
170621.27
31
0
0
LINE
8
equipment
10
203993.11000000002
20
170621.27
30
0
11
204822.46
21
171100.1
31
0
0
LINE
8
equipment
10
204822.46
20
171100.1
30
0
11
205149.99999999997
21
172000.0
31
0
0
LINE
8
equipment
10
201750.0
20
170000.0
30
0
11
201750.0
21
174000.0
31
0
0
LINE
8
equipment
10
205750.0
20
170000.0
30
0
11
205750.0
21
174000.0
31
0
0
LINE
8
equipment
10
201750.0
20
170000.0
30
0
11
205750.0
21
170000.0
31
0
0
LINE
8
equipment
10
201750.0
20
174000.0
30
0
11
205750.0
21
174000.0
31
0
0
LINE
8
circulation
10
72795.0
20
63999.999999999985
30
0
11
72727.5
21
64038.969999999994
31
0
0
LINE
8
circulation
10
72727.5
20
64038.969999999994
30
0
11
72727.5
21
63961.03
31
0
0
LINE
8
circulation
10
72727.5
20
63961.03
30
0
11
72795.0
21
63999.999999999985
31
0
0
LINE
8
circulation
10
77857.5
20
63999.999999999985
30
0
11
77790.0
21
64038.969999999994
31
0
0
LINE
8
circulation
10
77790.0
20
64038.969999999994
30
0
11
77790.0
21
63961.03
31
0
0
LINE
8
circulation
10
77790.0
20
63961.03
30
0
11
77857.5
21
63999.999999999985
31
0
0
LINE
8
circulation
10
82920.0
20
63999.999999999985
30
0
11
82852.5
21
64038.969999999994
31
0
0
LINE
8
circulation
10
82852.5
20
64038.969999999994
30
0
11
82852.5
21
63961.03
31
0
0
LINE
8
circulation
10
82852.5
20
63961.03
30
0
11
82920.0
21
63999.999999999985
31
0
0
LINE
8
circulation
10
87982.5
20
63999.999999999985
30
0
11
87915.0
21
64038.969999999994
31
0
0
LINE
8
circulation
10
87915.0
20
64038.969999999994
30
0
11
87915.0
21
63961.03
31
0
0
LINE
8
circulation
10
87915.0
20
63961.03
30
0
11
87982.5
21
63999.999999999985
31
0
0
LINE
8
circulation
10
93045.0
20
63999.999999999985
30
0
11
92977.5
21
64038.969999999994
31
0
0
LINE
8
circulation
10
92977.5
20
64038.969999999994
30
0
11
92977.5
21
63961.03
31
0
0
LINE
8
circulation
10
92977.5
20
63961.03
30
0
11
93045.0
21
63999.999999999985
31
0
0
LINE
8
circulation
10
98107.5
20
63999.999999999985
30
0
11
98040.0
21
64038.969999999994
31
0
0
LINE
8
circulation
10
98040.0
20
64038.969999999994
30
0
11
98040.0
21
63961.03
31
0
0
LINE
8
circulation
10
98040.0
20
63961.03
30
0
11
98107.5
21
63999.999999999985
31
0
0
LINE
8
circulation
10
103170.0
20
63999.999999999985
30
0
11
103102.5
21
64038.969999999994
31
0
0
LINE
8
circulation
10
103102.5
20
64038.969999999994
30
0
11
103102.5
21
63961.03
31
0
0
LINE
8
circulation
10
103102.5
20
63961.03
30
0
11
103170.0
21
63999.999999999985
31
0
0
LINE
8
circulation
10
108232.5
20
63999.999999999985
30
0
11
108165.0
21
64038.969999999994
31
0
0
LINE
8
circulation
10
108165.0
20
64038.969999999994
30
0
11
108165.0
21
63961.03
31
0
0
LINE
8
circulation
10
108165.0
20
63961.03
30
0
11
108232.5
21
63999.999999999985
31
0
0
LINE
8
circulation
10
113295.0
20
63999.999999999985
30
0
11
113227.5
21
64038.969999999994
31
0
0
LINE
8
circulation
10
113227.5
20
64038.969999999994
30
0
11
113227.5
21
63961.03
31
0
0
LINE
8
circulation
10
113227.5
20
63961.03
30
0
11
113295.0
21
63999.999999999985
31
0
0
LINE
8
circulation
10
118357.5
20
63999.999999999985
30
0
11
118290.0
21
64038.969999999994
31
0
0
LINE
8
circulation
10
118290.0
20
64038.969999999994
30
0
11
118290.0
21
63961.03
31
0
0
LINE
8
circulation
10
118290.0
20
63961.03
30
0
11
118357.5
21
63999.999999999985
31
0
0
LINE
8
circulation
10
123420.0
20
63999.999999999985
30
0
11
123352.5
21
64038.969999999994
31
0
0
LINE
8
circulation
10
123352.5
20
64038.969999999994
30
0
11
123352.5
21
63961.03
31
0
0
LINE
8
circulation
10
123352.5
20
63961.03
30
0
11
123420.0
21
63999.999999999985
31
0
0
LINE
8
circulation
10
128482.5
20
63999.999999999985
30
0
11
128415.0
21
64038.969999999994
31
0
0
LINE
8
circulation
10
128415.0
20
64038.969999999994
30
0
11
128415.0
21
63961.03
31
0
0
LINE
8
circulation
10
128415.0
20
63961.03
30
0
11
128482.5
21
63999.999999999985
31
0
0
LINE
8
circulation
10
133545.0
20
63999.999999999985
30
0
11
133477.5
21
64038.969999999994
31
0
0
LINE
8
circulation
10
133477.5
20
64038.969999999994
30
0
11
133477.5
21
63961.03
31
0
0
LINE
8
circulation
10
133477.5
20
63961.03
30
0
11
133545.0
21
63999.999999999985
31
0
0
LINE
8
circulation
10
138607.5
20
63999.999999999985
30
0
11
138540.0
21
64038.969999999994
31
0
0
LINE
8
circulation
10
138540.0
20
64038.969999999994
30
0
11
138540.0
21
63961.03
31
0
0
LINE
8
circulation
10
138540.0
20
63961.03
30
0
11
138607.5
21
63999.999999999985
31
0
0
LINE
8
circulation
10
143670.0
20
63999.999999999985
30
0
11
143602.5
21
64038.969999999994
31
0
0
LINE
8
circulation
10
143602.5
20
64038.969999999994
30
0
11
143602.5
21
63961.03
31
0
0
LINE
8
circulation
10
143602.5
20
63961.03
30
0
11
143670.0
21
63999.999999999985
31
0
0
LINE
8
circulation
10
148732.5
20
63999.999999999985
30
0
11
148665.0
21
64038.969999999994
31
0
0
LINE
8
circulation
10
148665.0
20
64038.969999999994
30
0
11
148665.0
21
63961.03
31
0
0
LINE
8
circulation
10
148665.0
20
63961.03
30
0
11
148732.5
21
63999.999999999985
31
0
0
LINE
8
circulation
10
153795.0
20
63999.999999999985
30
0
11
153727.5
21
64038.969999999994
31
0
0
LINE
8
circulation
10
153727.5
20
64038.969999999994
30
0
11
153727.5
21
63961.03
31
0
0
LINE
8
circulation
10
153727.5
20
63961.03
30
0
11
153795.0
21
63999.999999999985
31
0
0
LINE
8
circulation
10
158857.5
20
63999.999999999985
30
0
11
158790.0
21
64038.969999999994
31
0
0
LINE
8
circulation
10
158790.0
20
64038.969999999994
30
0
11
158790.0
21
63961.03
31
0
0
LINE
8
circulation
10
158790.0
20
63961.03
30
0
11
158857.5
21
63999.999999999985
31
0
0
LINE
8
circulation
10
163920.0
20
63999.999999999985
30
0
11
163852.5
21
64038.969999999994
31
0
0
LINE
8
circulation
10
163852.5
20
64038.969999999994
30
0
11
163852.5
21
63961.03
31
0
0
LINE
8
circulation
10
163852.5
20
63961.03
30
0
11
163920.0
21
63999.999999999985
31
0
0
LINE
8
circulation
10
168982.5
20
63999.999999999985
30
0
11
168915.0
21
64038.969999999994
31
0
0
LINE
8
circulation
10
168915.0
20
64038.969999999994
30
0
11
168915.0
21
63961.03
31
0
0
LINE
8
circulation
10
168915.0
20
63961.03
30
0
11
168982.5
21
63999.999999999985
31
0
0
LINE
8
circulation
10
174045.0
20
63999.999999999985
30
0
11
173977.5
21
64038.969999999994
31
0
0
LINE
8
circulation
10
173977.5
20
64038.969999999994
30
0
11
173977.5
21
63961.03
31
0
0
LINE
8
circulation
10
173977.5
20
63961.03
30
0
11
174045.0
21
63999.999999999985
31
0
0
LINE
8
circulation
10
179107.5
20
63999.999999999985
30
0
11
179040.0
21
64038.969999999994
31
0
0
LINE
8
circulation
10
179040.0
20
64038.969999999994
30
0
11
179040.0
21
63961.03
31
0
0
LINE
8
circulation
10
179040.0
20
63961.03
30
0
11
179107.5
21
63999.999999999985
31
0
0
LINE
8
circulation
10
184170.0
20
63999.999999999985
30
0
11
184102.5
21
64038.969999999994
31
0
0
LINE
8
circulation
10
184102.5
20
64038.969999999994
30
0
11
184102.5
21
63961.03
31
0
0
LINE
8
circulation
10
184102.5
20
63961.03
30
0
11
184170.0
21
63999.999999999985
31
0
0
LINE
8
circulation
10
189232.5
20
63999.999999999985
30
0
11
189165.0
21
64038.969999999994
31
0
0
LINE
8
circulation
10
189165.0
20
64038.969999999994
30
0
11
189165.0
21
63961.03
31
0
0
LINE
8
circulation
10
189165.0
20
63961.03
30
0
11
189232.5
21
63999.999999999985
31
0
0
LINE
8
circulation
10
194295.0
20
63999.999999999985
30
0
11
194227.50000000003
21
64038.969999999994
31
0
0
LINE
8
circulation
10
194227.50000000003
20
64038.969999999994
30
0
11
194227.50000000003
21
63961.03
31
0
0
LINE
8
circulation
10
194227.50000000003
20
63961.03
30
0
11
194295.0
21
63999.999999999985
31
0
0
LINE
8
circulation
10
199357.5
20
63999.999999999985
30
0
11
199290.00000000003
21
64038.969999999994
31
0
0
LINE
8
circulation
10
199290.00000000003
20
64038.969999999994
30
0
11
199290.00000000003
21
63961.03
31
0
0
LINE
8
circulation
10
199290.00000000003
20
63961.03
30
0
11
199357.5
21
63999.999999999985
31
0
0
LINE
8
circulation
10
204420.0
20
63999.999999999985
30
0
11
204352.50000000003
21
64038.969999999994
31
0
0
LINE
8
circulation
10
204352.50000000003
20
64038.969999999994
30
0
11
204352.50000000003
21
63961.03
31
0
0
LINE
8
circulation
10
204352.50000000003
20
63961.03
30
0
11
204420.0
21
63999.999999999985
31
0
0
LINE
8
circulation
10
209482.5
20
63999.999999999985
30
0
11
209415.00000000003
21
64038.969999999994
31
0
0
LINE
8
circulation
10
209415.00000000003
20
64038.969999999994
30
0
11
209415.00000000003
21
63961.03
31
0
0
LINE
8
circulation
10
209415.00000000003
20
63961.03
30
0
11
209482.5
21
63999.999999999985
31
0
0
LINE
8
circulation
10
214545.0
20
63999.999999999985
30
0
11
214477.50000000003
21
64038.969999999994
31
0
0
LINE
8
circulation
10
214477.50000000003
20
64038.969999999994
30
0
11
214477.50000000003
21
63961.03
31
0
0
LINE
8
circulation
10
214477.50000000003
20
63961.03
30
0
11
214545.0
21
63999.999999999985
31
0
0
LINE
8
circulation
10
219607.5
20
63999.999999999985
30
0
11
219540.00000000003
21
64038.969999999994
31
0
0
LINE
8
circulation
10
219540.00000000003
20
64038.969999999994
30
0
11
219540.00000000003
21
63961.03
31
0
0
LINE
8
circulation
10
219540.00000000003
20
63961.03
30
0
11
219607.5
21
63999.999999999985
31
0
0
LINE
8
circulation
10
224670.0
20
63999.999999999985
30
0
11
224602.50000000003
21
64038.969999999994
31
0
0
LINE
8
circulation
10
224602.50000000003
20
64038.969999999994
30
0
11
224602.50000000003
21
63961.03
31
0
0
LINE
8
circulation
10
224602.50000000003
20
63961.03
30
0
11
224670.0
21
63999.999999999985
31
0
0
LINE
8
circulation
10
229732.5
20
63999.999999999985
30
0
11
229665.00000000003
21
64038.969999999994
31
0
0
LINE
8
circulation
10
229665.00000000003
20
64038.969999999994
30
0
11
229665.00000000003
21
63961.03
31
0
0
LINE
8
circulation
10
229665.00000000003
20
63961.03
30
0
11
229732.5
21
63999.999999999985
31
0
0
LINE
8
circulation
10
234795.0
20
63999.999999999985
30
0
11
234727.50000000003
21
64038.969999999994
31
0
0
LINE
8
circulation
10
234727.50000000003
20
64038.969999999994
30
0
11
234727.50000000003
21
63961.03
31
0
0
LINE
8
circulation
10
234727.50000000003
20
63961.03
30
0
11
234795.0
21
63999.999999999985
31
0
0
LINE
8
circulation
10
72795.0
20
69000.0
30
0
11
72727.5
21
69038.97
31
0
0
LINE
8
circulation
10
72727.5
20
69038.97
30
0
11
72727.5
21
68961.03
31
0
0
LINE
8
circulation
10
72727.5
20
68961.03
30
0
11
72795.0
21
69000.0
31
0
0
LINE
8
circulation
10
72795.0
20
74000.0
30
0
11
72727.5
21
74038.97
31
0
0
LINE
8
circulation
10
72727.5
20
74038.97
30
0
11
72727.5
21
73961.03000000001
31
0
0
LINE
8
circulation
10
72727.5
20
73961.03000000001
30
0
11
72795.0
21
74000.0
31
0
0
LINE
8
circulation
10
72795.0
20
79000.0
30
0
11
72727.5
21
79038.96999999999
31
0
0
LINE
8
circulation
10
72727.5
20
79038.96999999999
30
0
11
72727.5
21
78961.03
31
0
0
LINE
8
circulation
10
72727.5
20
78961.03
30
0
11
72795.0
21
79000.0
31
0
0
LINE
8
circulation
10
72795.0
20
84000.0
30
0
11
72727.5
21
84038.97
31
0
0
LINE
8
circulation
10
72727.5
20
84038.97
30
0
11
72727.5
21
83961.03
31
0
0
LINE
8
circulation
10
72727.5
20
83961.03
30
0
11
72795.0
21
84000.0
31
0
0
LINE
8
circulation
10
72795.0
20
89000.0
30
0
11
72727.5
21
89038.97
31
0
0
LINE
8
circulation
10
72727.5
20
89038.97
30
0
11
72727.5
21
88961.03000000001
31
0
0
LINE
8
circulation
10
72727.5
20
88961.03000000001
30
0
11
72795.0
21
89000.0
31
0
0
LINE
8
circulation
10
72795.0
20
94000.0
30
0
11
72727.5
21
94038.96999999999
31
0
0
LINE
8
circulation
10
72727.5
20
94038.96999999999
30
0
11
72727.5
21
93961.03
31
0
0
LINE
8
circulation
10
72727.5
20
93961.03
30
0
11
72795.0
21
94000.0
31
0
0
LINE
8
circulation
10
72795.0
20
99000.0
30
0
11
72727.5
21
99038.97
31
0
0
LINE
8
circulation
10
72727.5
20
99038.97
30
0
11
72727.5
21
98961.03
31
0
0
LINE
8
circulation
10
72727.5
20
98961.03
30
0
11
72795.0
21
99000.0
31
0
0
LINE
8
circulation
10
72795.0
20
104000.0
30
0
11
72727.5
21
104038.97
31
0
0
LINE
8
circulation
10
72727.5
20
104038.97
30
0
11
72727.5
21
103961.03000000001
31
0
0
LINE
8
circulation
10
72727.5
20
103961.03000000001
30
0
11
72795.0
21
104000.0
31
0
0
LINE
8
circulation
10
72795.0
20
109000.0
30
0
11
72727.5
21
109038.96999999999
31
0
0
LINE
8
circulation
10
72727.5
20
109038.96999999999
30
0
11
72727.5
21
108961.03
31
0
0
LINE
8
circulation
10
72727.5
20
108961.03
30
0
11
72795.0
21
109000.0
31
0
0
LINE
8
circulation
10
72795.0
20
114000.0
30
0
11
72727.5
21
114038.97
31
0
0
LINE
8
circulation
10
72727.5
20
114038.97
30
0
11
72727.5
21
113961.03
31
0
0
LINE
8
circulation
10
72727.5
20
113961.03
30
0
11
72795.0
21
114000.0
31
0
0
LINE
8
circulation
10
72795.0
20
119000.0
30
0
11
72727.5
21
119038.97
31
0
0
LINE
8
circulation
10
72727.5
20
119038.97
30
0
11
72727.5
21
118961.03000000001
31
0
0
LINE
8
circulation
10
72727.5
20
118961.03000000001
30
0
11
72795.0
21
119000.0
31
0
0
LINE
8
circulation
10
72795.0
20
124000.0
30
0
11
72727.5
21
124038.96999999999
31
0
0
LINE
8
circulation
10
72727.5
20
124038.96999999999
30
0
11
72727.5
21
123961.03
31
0
0
LINE
8
circulation
10
72727.5
20
123961.03
30
0
11
72795.0
21
124000.0
31
0
0
LINE
8
circulation
10
72795.0
20
129000.0
30
0
11
72727.5
21
129038.97
31
0
0
LINE
8
circulation
10
72727.5
20
129038.97
30
0
11
72727.5
21
128961.03
31
0
0
LINE
8
circulation
10
72727.5
20
128961.03
30
0
11
72795.0
21
129000.0
31
0
0
LINE
8
circulation
10
72795.0
20
134000.0
30
0
11
72727.5
21
134038.97
31
0
0
LINE
8
circulation
10
72727.5
20
134038.97
30
0
11
72727.5
21
133961.03
31
0
0
LINE
8
circulation
10
72727.5
20
133961.03
30
0
11
72795.0
21
134000.0
31
0
0
LINE
8
circulation
10
72795.0
20
139000.0
30
0
11
72727.5
21
139038.97
31
0
0
LINE
8
circulation
10
72727.5
20
139038.97
30
0
11
72727.5
21
138961.03
31
0
0
LINE
8
circulation
10
72727.5
20
138961.03
30
0
11
72795.0
21
139000.0
31
0
0
LINE
8
circulation
10
72795.0
20
144000.0
30
0
11
72727.5
21
144038.97
31
0
0
LINE
8
circulation
10
72727.5
20
144038.97
30
0
11
72727.5
21
143961.03
31
0
0
LINE
8
circulation
10
72727.5
20
143961.03
30
0
11
72795.0
21
144000.0
31
0
0
LINE
8
circulation
10
72795.0
20
149000.0
30
0
11
72727.5
21
149038.97
31
0
0
LINE
8
circulation
10
72727.5
20
149038.97
30
0
11
72727.5
21
148961.03
31
0
0
LINE
8
circulation
10
72727.5
20
148961.03
30
0
11
72795.0
21
149000.0
31
0
0
LINE
8
circulation
10
72795.0
20
154000.0
30
0
11
72727.5
21
154038.97
31
0
0
LINE
8
circulation
10
72727.5
20
154038.97
30
0
11
72727.5
21
153961.03
31
0
0
LINE
8
circulation
10
72727.5
20
153961.03
30
0
11
72795.0
21
154000.0
31
0
0
LINE
8
circulation
10
72795.0
20
159000.0
30
0
11
72727.5
21
159038.97
31
0
0
LINE
8
circulation
10
72727.5
20
159038.97
30
0
11
72727.5
21
158961.03
31
0
0
LINE
8
circulation
10
72727.5
20
158961.03
30
0
11
72795.0
21
159000.0
31
0
0
LINE
8
circulation
10
72795.0
20
164000.0
30
0
11
72727.5
21
164038.97
31
0
0
LINE
8
circulation
10
72727.5
20
164038.97
30
0
11
72727.5
21
163961.03
31
0
0
LINE
8
circulation
10
72727.5
20
163961.03
30
0
11
72795.0
21
164000.0
31
0
0
LINE
8
circulation
10
72795.0
20
169000.0
30
0
11
72727.5
21
169038.97
31
0
0
LINE
8
circulation
10
72727.5
20
169038.97
30
0
11
72727.5
21
168961.03
31
0
0
LINE
8
circulation
10
72727.5
20
168961.03
30
0
11
72795.0
21
169000.0
31
0
0
LINE
8
circulation
10
72795.0
20
174000.0
30
0
11
72727.5
21
174038.97
31
0
0
LINE
8
circulation
10
72727.5
20
174038.97
30
0
11
72727.5
21
173961.03
31
0
0
LINE
8
circulation
10
72727.5
20
173961.03
30
0
11
72795.0
21
174000.0
31
0
0
LINE
8
circulation
10
72795.0
20
179000.0
30
0
11
72727.5
21
179038.97
31
0
0
LINE
8
circulation
10
72727.5
20
179038.97
30
0
11
72727.5
21
178961.03
31
0
0
LINE
8
circulation
10
72727.5
20
178961.03
30
0
11
72795.0
21
179000.0
31
0
0
LINE
8
circulation
10
77857.5
20
179000.0
30
0
11
77790.0
21
179038.97
31
0
0
LINE
8
circulation
10
77790.0
20
179038.97
30
0
11
77790.0
21
178961.03
31
0
0
LINE
8
circulation
10
77790.0
20
178961.03
30
0
11
77857.5
21
179000.0
31
0
0
LINE
8
circulation
10
82920.0
20
179000.0
30
0
11
82852.5
21
179038.97
31
0
0
LINE
8
circulation
10
82852.5
20
179038.97
30
0
11
82852.5
21
178961.03
31
0
0
LINE
8
circulation
10
82852.5
20
178961.03
30
0
11
82920.0
21
179000.0
31
0
0
LINE
8
circulation
10
87982.5
20
179000.0
30
0
11
87915.0
21
179038.97
31
0
0
LINE
8
circulation
10
87915.0
20
179038.97
30
0
11
87915.0
21
178961.03
31
0
0
LINE
8
circulation
10
87915.0
20
178961.03
30
0
11
87982.5
21
179000.0
31
0
0
LINE
8
circulation
10
93045.0
20
179000.0
30
0
11
92977.5
21
179038.97
31
0
0
LINE
8
circulation
10
92977.5
20
179038.97
30
0
11
92977.5
21
178961.03
31
0
0
LINE
8
circulation
10
92977.5
20
178961.03
30
0
11
93045.0
21
179000.0
31
0
0
LINE
8
circulation
10
98107.5
20
179000.0
30
0
11
98040.0
21
179038.97
31
0
0
LINE
8
circulation
10
98040.0
20
179038.97
30
0
11
98040.0
21
178961.03
31
0
0
LINE
8
circulation
10
98040.0
20
178961.03
30
0
11
98107.5
21
179000.0
31
0
0
LINE
8
circulation
10
103170.0
20
179000.0
30
0
11
103102.5
21
179038.97
31
0
0
LINE
8
circulation
10
103102.5
20
179038.97
30
0
11
103102.5
21
178961.03
31
0
0
LINE
8
circulation
10
103102.5
20
178961.03
30
0
11
103170.0
21
179000.0
31
0
0
LINE
8
circulation
10
108232.5
20
179000.0
30
0
11
108165.0
21
179038.97
31
0
0
LINE
8
circulation
10
108165.0
20
179038.97
30
0
11
108165.0
21
178961.03
31
0
0
LINE
8
circulation
10
108165.0
20
178961.03
30
0
11
108232.5
21
179000.0
31
0
0
LINE
8
circulation
10
113295.0
20
179000.0
30
0
11
113227.5
21
179038.97
31
0
0
LINE
8
circulation
10
113227.5
20
179038.97
30
0
11
113227.5
21
178961.03
31
0
0
LINE
8
circulation
10
113227.5
20
178961.03
30
0
11
113295.0
21
179000.0
31
0
0
LINE
8
circulation
10
118357.5
20
179000.0
30
0
11
118290.0
21
179038.97
31
0
0
LINE
8
circulation
10
118290.0
20
179038.97
30
0
11
118290.0
21
178961.03
31
0
0
LINE
8
circulation
10
118290.0
20
178961.03
30
0
11
118357.5
21
179000.0
31
0
0
LINE
8
circulation
10
123420.0
20
179000.0
30
0
11
123352.5
21
179038.97
31
0
0
LINE
8
circulation
10
123352.5
20
179038.97
30
0
11
123352.5
21
178961.03
31
0
0
LINE
8
circulation
10
123352.5
20
178961.03
30
0
11
123420.0
21
179000.0
31
0
0
LINE
8
circulation
10
128482.5
20
179000.0
30
0
11
128415.0
21
179038.97
31
0
0
LINE
8
circulation
10
128415.0
20
179038.97
30
0
11
128415.0
21
178961.03
31
0
0
LINE
8
circulation
10
128415.0
20
178961.03
30
0
11
128482.5
21
179000.0
31
0
0
LINE
8
circulation
10
133545.0
20
179000.0
30
0
11
133477.5
21
179038.97
31
0
0
LINE
8
circulation
10
133477.5
20
179038.97
30
0
11
133477.5
21
178961.03
31
0
0
LINE
8
circulation
10
133477.5
20
178961.03
30
0
11
133545.0
21
179000.0
31
0
0
LINE
8
circulation
10
138607.5
20
179000.0
30
0
11
138540.0
21
179038.97
31
0
0
LINE
8
circulation
10
138540.0
20
179038.97
30
0
11
138540.0
21
178961.03
31
0
0
LINE
8
circulation
10
138540.0
20
178961.03
30
0
11
138607.5
21
179000.0
31
0
0
LINE
8
circulation
10
143670.0
20
179000.0
30
0
11
143602.5
21
179038.97
31
0
0
LINE
8
circulation
10
143602.5
20
179038.97
30
0
11
143602.5
21
178961.03
31
0
0
LINE
8
circulation
10
143602.5
20
178961.03
30
0
11
143670.0
21
179000.0
31
0
0
LINE
8
circulation
10
148732.5
20
179000.0
30
0
11
148665.0
21
179038.97
31
0
0
LINE
8
circulation
10
148665.0
20
179038.97
30
0
11
148665.0
21
178961.03
31
0
0
LINE
8
circulation
10
148665.0
20
178961.03
30
0
11
148732.5
21
179000.0
31
0
0
LINE
8
circulation
10
153795.0
20
179000.0
30
0
11
153727.5
21
179038.97
31
0
0
LINE
8
circulation
10
153727.5
20
179038.97
30
0
11
153727.5
21
178961.03
31
0
0
LINE
8
circulation
10
153727.5
20
178961.03
30
0
11
153795.0
21
179000.0
31
0
0
LINE
8
circulation
10
158857.5
20
179000.0
30
0
11
158790.0
21
179038.97
31
0
0
LINE
8
circulation
10
158790.0
20
179038.97
30
0
11
158790.0
21
178961.03
31
0
0
LINE
8
circulation
10
158790.0
20
178961.03
30
0
11
158857.5
21
179000.0
31
0
0
LINE
8
circulation
10
163920.0
20
179000.0
30
0
11
163852.5
21
179038.97
31
0
0
LINE
8
circulation
10
163852.5
20
179038.97
30
0
11
163852.5
21
178961.03
31
0
0
LINE
8
circulation
10
163852.5
20
178961.03
30
0
11
163920.0
21
179000.0
31
0
0
LINE
8
circulation
10
168982.5
20
179000.0
30
0
11
168915.0
21
179038.97
31
0
0
LINE
8
circulation
10
168915.0
20
179038.97
30
0
11
168915.0
21
178961.03
31
0
0
LINE
8
circulation
10
168915.0
20
178961.03
30
0
11
168982.5
21
179000.0
31
0
0
LINE
8
circulation
10
174045.0
20
179000.0
30
0
11
173977.5
21
179038.97
31
0
0
LINE
8
circulation
10
173977.5
20
179038.97
30
0
11
173977.5
21
178961.03
31
0
0
LINE
8
circulation
10
173977.5
20
178961.03
30
0
11
174045.0
21
179000.0
31
0
0
LINE
8
circulation
10
179107.5
20
179000.0
30
0
11
179040.0
21
179038.97
31
0
0
LINE
8
circulation
10
179040.0
20
179038.97
30
0
11
179040.0
21
178961.03
31
0
0
LINE
8
circulation
10
179040.0
20
178961.03
30
0
11
179107.5
21
179000.0
31
0
0
LINE
8
circulation
10
184170.0
20
179000.0
30
0
11
184102.5
21
179038.97
31
0
0
LINE
8
circulation
10
184102.5
20
179038.97
30
0
11
184102.5
21
178961.03
31
0
0
LINE
8
circulation
10
184102.5
20
178961.03
30
0
11
184170.0
21
179000.0
31
0
0
LINE
8
circulation
10
189232.5
20
179000.0
30
0
11
189165.0
21
179038.97
31
0
0
LINE
8
circulation
10
189165.0
20
179038.97
30
0
11
189165.0
21
178961.03
31
0
0
LINE
8
circulation
10
189165.0
20
178961.03
30
0
11
189232.5
21
179000.0
31
0
0
LINE
8
circulation
10
194295.0
20
179000.0
30
0
11
194227.50000000003
21
179038.97
31
0
0
LINE
8
circulation
10
194227.50000000003
20
179038.97
30
0
11
194227.50000000003
21
178961.03
31
0
0
LINE
8
circulation
10
194227.50000000003
20
178961.03
30
0
11
194295.0
21
179000.0
31
0
0
LINE
8
circulation
10
199357.5
20
179000.0
30
0
11
199290.00000000003
21
179038.97
31
0
0
LINE
8
circulation
10
199290.00000000003
20
179038.97
30
0
11
199290.00000000003
21
178961.03
31
0
0
LINE
8
circulation
10
199290.00000000003
20
178961.03
30
0
11
199357.5
21
179000.0
31
0
0
LINE
8
circulation
10
204420.0
20
179000.0
30
0
11
204352.50000000003
21
179038.97
31
0
0
LINE
8
circulation
10
204352.50000000003
20
179038.97
30
0
11
204352.50000000003
21
178961.03
31
0
0
LINE
8
circulation
10
204352.50000000003
20
178961.03
30
0
11
204420.0
21
179000.0
31
0
0
LINE
8
circulation
10
209482.5
20
179000.0
30
0
11
209415.00000000003
21
179038.97
31
0
0
LINE
8
circulation
10
209415.00000000003
20
179038.97
30
0
11
209415.00000000003
21
178961.03
31
0
0
LINE
8
circulation
10
209415.00000000003
20
178961.03
30
0
11
209482.5
21
179000.0
31
0
0
LINE
8
circulation
10
214545.0
20
179000.0
30
0
11
214477.50000000003
21
179038.97
31
0
0
LINE
8
circulation
10
214477.50000000003
20
179038.97
30
0
11
214477.50000000003
21
178961.03
31
0
0
LINE
8
circulation
10
214477.50000000003
20
178961.03
30
0
11
214545.0
21
179000.0
31
0
0
LINE
8
circulation
10
219607.5
20
179000.0
30
0
11
219540.00000000003
21
179038.97
31
0
0
LINE
8
circulation
10
219540.00000000003
20
179038.97
30
0
11
219540.00000000003
21
178961.03
31
0
0
LINE
8
circulation
10
219540.00000000003
20
178961.03
30
0
11
219607.5
21
179000.0
31
0
0
LINE
8
circulation
10
224670.0
20
179000.0
30
0
11
224602.50000000003
21
179038.97
31
0
0
LINE
8
circulation
10
224602.50000000003
20
179038.97
30
0
11
224602.50000000003
21
178961.03
31
0
0
LINE
8
circulation
10
224602.50000000003
20
178961.03
30
0
11
224670.0
21
179000.0
31
0
0
LINE
8
circulation
10
229732.5
20
179000.0
30
0
11
229665.00000000003
21
179038.97
31
0
0
LINE
8
circulation
10
229665.00000000003
20
179038.97
30
0
11
229665.00000000003
21
178961.03
31
0
0
LINE
8
circulation
10
229665.00000000003
20
178961.03
30
0
11
229732.5
21
179000.0
31
0
0
LINE
8
circulation
10
234795.0
20
179000.0
30
0
11
234727.50000000003
21
179038.97
31
0
0
LINE
8
circulation
10
234727.50000000003
20
179038.97
30
0
11
234727.50000000003
21
178961.03
31
0
0
LINE
8
circulation
10
234727.50000000003
20
178961.03
30
0
11
234795.0
21
179000.0
31
0
0
LINE
8
circulation
10
234795.0
20
69000.0
30
0
11
234727.50000000003
21
69038.97
31
0
0
LINE
8
circulation
10
234727.50000000003
20
69038.97
30
0
11
234727.50000000003
21
68961.03
31
0
0
LINE
8
circulation
10
234727.50000000003
20
68961.03
30
0
11
234795.0
21
69000.0
31
0
0
LINE
8
circulation
10
234795.0
20
74000.0
30
0
11
234727.50000000003
21
74038.97
31
0
0
LINE
8
circulation
10
234727.50000000003
20
74038.97
30
0
11
234727.50000000003
21
73961.03000000001
31
0
0
LINE
8
circulation
10
234727.50000000003
20
73961.03000000001
30
0
11
234795.0
21
74000.0
31
0
0
LINE
8
circulation
10
234795.0
20
79000.0
30
0
11
234727.50000000003
21
79038.96999999999
31
0
0
LINE
8
circulation
10
234727.50000000003
20
79038.96999999999
30
0
11
234727.50000000003
21
78961.03
31
0
0
LINE
8
circulation
10
234727.50000000003
20
78961.03
30
0
11
234795.0
21
79000.0
31
0
0
LINE
8
circulation
10
234795.0
20
84000.0
30
0
11
234727.50000000003
21
84038.97
31
0
0
LINE
8
circulation
10
234727.50000000003
20
84038.97
30
0
11
234727.50000000003
21
83961.03
31
0
0
LINE
8
circulation
10
234727.50000000003
20
83961.03
30
0
11
234795.0
21
84000.0
31
0
0
LINE
8
circulation
10
234795.0
20
89000.0
30
0
11
234727.50000000003
21
89038.97
31
0
0
LINE
8
circulation
10
234727.50000000003
20
89038.97
30
0
11
234727.50000000003
21
88961.03000000001
31
0
0
LINE
8
circulation
10
234727.50000000003
20
88961.03000000001
30
0
11
234795.0
21
89000.0
31
0
0
LINE
8
circulation
10
234795.0
20
94000.0
30
0
11
234727.50000000003
21
94038.96999999999
31
0
0
LINE
8
circulation
10
234727.50000000003
20
94038.96999999999
30
0
11
234727.50000000003
21
93961.03
31
0
0
LINE
8
circulation
10
234727.50000000003
20
93961.03
30
0
11
234795.0
21
94000.0
31
0
0
LINE
8
circulation
10
234795.0
20
99000.0
30
0
11
234727.50000000003
21
99038.97
31
0
0
LINE
8
circulation
10
234727.50000000003
20
99038.97
30
0
11
234727.50000000003
21
98961.03
31
0
0
LINE
8
circulation
10
234727.50000000003
20
98961.03
30
0
11
234795.0
21
99000.0
31
0
0
LINE
8
circulation
10
234795.0
20
104000.0
30
0
11
234727.50000000003
21
104038.97
31
0
0
LINE
8
circulation
10
234727.50000000003
20
104038.97
30
0
11
234727.50000000003
21
103961.03000000001
31
0
0
LINE
8
circulation
10
234727.50000000003
20
103961.03000000001
30
0
11
234795.0
21
104000.0
31
0
0
LINE
8
circulation
10
234795.0
20
109000.0
30
0
11
234727.50000000003
21
109038.96999999999
31
0
0
LINE
8
circulation
10
234727.50000000003
20
109038.96999999999
30
0
11
234727.50000000003
21
108961.03
31
0
0
LINE
8
circulation
10
234727.50000000003
20
108961.03
30
0
11
234795.0
21
109000.0
31
0
0
LINE
8
circulation
10
234795.0
20
114000.0
30
0
11
234727.50000000003
21
114038.97
31
0
0
LINE
8
circulation
10
234727.50000000003
20
114038.97
30
0
11
234727.50000000003
21
113961.03
31
0
0
LINE
8
circulation
10
234727.50000000003
20
113961.03
30
0
11
234795.0
21
114000.0
31
0
0
LINE
8
circulation
10
234795.0
20
119000.0
30
0
11
234727.50000000003
21
119038.97
31
0
0
LINE
8
circulation
10
234727.50000000003
20
119038.97
30
0
11
234727.50000000003
21
118961.03000000001
31
0
0
LINE
8
circulation
10
234727.50000000003
20
118961.03000000001
30
0
11
234795.0
21
119000.0
31
0
0
LINE
8
circulation
10
234795.0
20
124000.0
30
0
11
234727.50000000003
21
124038.96999999999
31
0
0
LINE
8
circulation
10
234727.50000000003
20
124038.96999999999
30
0
11
234727.50000000003
21
123961.03
31
0
0
LINE
8
circulation
10
234727.50000000003
20
123961.03
30
0
11
234795.0
21
124000.0
31
0
0
LINE
8
circulation
10
234795.0
20
129000.0
30
0
11
234727.50000000003
21
129038.97
31
0
0
LINE
8
circulation
10
234727.50000000003
20
129038.97
30
0
11
234727.50000000003
21
128961.03
31
0
0
LINE
8
circulation
10
234727.50000000003
20
128961.03
30
0
11
234795.0
21
129000.0
31
0
0
LINE
8
circulation
10
234795.0
20
134000.0
30
0
11
234727.50000000003
21
134038.97
31
0
0
LINE
8
circulation
10
234727.50000000003
20
134038.97
30
0
11
234727.50000000003
21
133961.03
31
0
0
LINE
8
circulation
10
234727.50000000003
20
133961.03
30
0
11
234795.0
21
134000.0
31
0
0
LINE
8
circulation
10
234795.0
20
139000.0
30
0
11
234727.50000000003
21
139038.97
31
0
0
LINE
8
circulation
10
234727.50000000003
20
139038.97
30
0
11
234727.50000000003
21
138961.03
31
0
0
LINE
8
circulation
10
234727.50000000003
20
138961.03
30
0
11
234795.0
21
139000.0
31
0
0
LINE
8
circulation
10
234795.0
20
144000.0
30
0
11
234727.50000000003
21
144038.97
31
0
0
LINE
8
circulation
10
234727.50000000003
20
144038.97
30
0
11
234727.50000000003
21
143961.03
31
0
0
LINE
8
circulation
10
234727.50000000003
20
143961.03
30
0
11
234795.0
21
144000.0
31
0
0
LINE
8
circulation
10
234795.0
20
149000.0
30
0
11
234727.50000000003
21
149038.97
31
0
0
LINE
8
circulation
10
234727.50000000003
20
149038.97
30
0
11
234727.50000000003
21
148961.03
31
0
0
LINE
8
circulation
10
234727.50000000003
20
148961.03
30
0
11
234795.0
21
149000.0
31
0
0
LINE
8
circulation
10
234795.0
20
154000.0
30
0
11
234727.50000000003
21
154038.97
31
0
0
LINE
8
circulation
10
234727.50000000003
20
154038.97
30
0
11
234727.50000000003
21
153961.03
31
0
0
LINE
8
circulation
10
234727.50000000003
20
153961.03
30
0
11
234795.0
21
154000.0
31
0
0
LINE
8
circulation
10
234795.0
20
159000.0
30
0
11
234727.50000000003
21
159038.97
31
0
0
LINE
8
circulation
10
234727.50000000003
20
159038.97
30
0
11
234727.50000000003
21
158961.03
31
0
0
LINE
8
circulation
10
234727.50000000003
20
158961.03
30
0
11
234795.0
21
159000.0
31
0
0
LINE
8
circulation
10
234795.0
20
164000.0
30
0
11
234727.50000000003
21
164038.97
31
0
0
LINE
8
circulation
10
234727.50000000003
20
164038.97
30
0
11
234727.50000000003
21
163961.03
31
0
0
LINE
8
circulation
10
234727.50000000003
20
163961.03
30
0
11
234795.0
21
164000.0
31
0
0
LINE
8
circulation
10
234795.0
20
169000.0
30
0
11
234727.50000000003
21
169038.97
31
0
0
LINE
8
circulation
10
234727.50000000003
20
169038.97
30
0
11
234727.50000000003
21
168961.03
31
0
0
LINE
8
circulation
10
234727.50000000003
20
168961.03
30
0
11
234795.0
21
169000.0
31
0
0
LINE
8
circulation
10
234795.0
20
174000.0
30
0
11
234727.50000000003
21
174038.97
31
0
0
LINE
8
circulation
10
234727.50000000003
20
174038.97
30
0
11
234727.50000000003
21
173961.03
31
0
0
LINE
8
circulation
10
234727.50000000003
20
173961.03
30
0
11
234795.0
21
174000.0
31
0
0
LINE
8
datum
10
71750.0
20
63000.0
30
0
11
235750.0
21
63000.0
31
0
0
LINE
8
datum
10
235750.0
20
63000.0
30
0
11
235750.0
21
180000.0
31
0
0
LINE
8
datum
10
235750.0
20
180000.0
30
0
11
71750.0
21
180000.0
31
0
0
LINE
8
datum
10
71750.0
20
180000.0
30
0
11
71750.0
21
63000.0
31
0
0
LINE
8
grid
10
73250.0
20
60500.000000000015
30
0
11
73250.0
21
184500.0
31
0
0
TEXT
8
annotation
10
72781.25
20
186000.0
30
0
40
1875.0
1
1
50
0
0
LINE
8
grid
10
85635.0
20
60500.000000000015
30
0
11
85635.0
21
184500.0
31
0
0
TEXT
8
annotation
10
85166.25
20
186000.0
30
0
40
1875.0
1
2
50
0
0
LINE
8
grid
10
98019.0
20
60500.000000000015
30
0
11
98019.0
21
184500.0
31
0
0
TEXT
8
annotation
10
97550.25
20
186000.0
30
0
40
1875.0
1
3
50
0
0
LINE
8
grid
10
110404.0
20
60500.000000000015
30
0
11
110404.0
21
184500.0
31
0
0
TEXT
8
annotation
10
109935.25
20
186000.0
30
0
40
1875.0
1
4
50
0
0
LINE
8
grid
10
122788.0
20
60500.000000000015
30
0
11
122788.0
21
184500.0
31
0
0
TEXT
8
annotation
10
122319.25
20
186000.0
30
0
40
1875.0
1
5
50
0
0
LINE
8
grid
10
135173.0
20
60500.000000000015
30
0
11
135173.0
21
184500.0
31
0
0
TEXT
8
annotation
10
134704.25
20
186000.0
30
0
40
1875.0
1
6
50
0
0
LINE
8
grid
10
147558.0
20
60500.000000000015
30
0
11
147558.0
21
184500.0
31
0
0
TEXT
8
annotation
10
147089.25
20
186000.0
30
0
40
1875.0
1
7
50
0
0
LINE
8
grid
10
159942.0
20
60500.000000000015
30
0
11
159942.0
21
184500.0
31
0
0
TEXT
8
annotation
10
159473.25
20
186000.0
30
0
40
1875.0
1
8
50
0
0
LINE
8
grid
10
172327.0
20
60500.000000000015
30
0
11
172327.0
21
184500.0
31
0
0
TEXT
8
annotation
10
171858.25
20
186000.0
30
0
40
1875.0
1
9
50
0
0
LINE
8
grid
10
184712.0
20
60500.000000000015
30
0
11
184712.0
21
184500.0
31
0
0
TEXT
8
annotation
10
183774.5
20
186000.0
30
0
40
1875.0
1
10
50
0
0
LINE
8
grid
10
197096.0
20
60500.000000000015
30
0
11
197096.0
21
184500.0
31
0
0
TEXT
8
annotation
10
196158.5
20
186000.0
30
0
40
1875.0
1
11
50
0
0
LINE
8
grid
10
209481.0
20
60500.000000000015
30
0
11
209481.0
21
184500.0
31
0
0
TEXT
8
annotation
10
208543.5
20
186000.0
30
0
40
1875.0
1
12
50
0
0
LINE
8
grid
10
221865.0
20
60500.000000000015
30
0
11
221865.0
21
184500.0
31
0
0
TEXT
8
annotation
10
220927.5
20
186000.0
30
0
40
1875.0
1
13
50
0
0
LINE
8
grid
10
234250.0
20
60500.000000000015
30
0
11
234250.0
21
184500.0
31
0
0
TEXT
8
annotation
10
233312.5
20
186000.0
30
0
40
1875.0
1
14
50
0
0
LINE
8
grid
10
67750.0
20
64500.0
30
0
11
239750.0
21
64500.0
31
0
0
TEXT
8
annotation
10
65312.5
20
63750.0
30
0
40
1875.0
1
A
50
0
0
LINE
8
grid
10
67750.0
20
78750.0
30
0
11
239750.0
21
78750.0
31
0
0
TEXT
8
annotation
10
65312.5
20
78000.0
30
0
40
1875.0
1
B
50
0
0
LINE
8
grid
10
67750.0
20
93000.0
30
0
11
239750.0
21
93000.0
31
0
0
TEXT
8
annotation
10
65312.5
20
92250.0
30
0
40
1875.0
1
C
50
0
0
LINE
8
grid
10
67750.0
20
107250.0
30
0
11
239750.0
21
107250.0
31
0
0
TEXT
8
annotation
10
65312.5
20
106500.0
30
0
40
1875.0
1
D
50
0
0
LINE
8
grid
10
67750.0
20
121500.0
30
0
11
239750.0
21
121500.0
31
0
0
TEXT
8
annotation
10
65312.5
20
120750.0
30
0
40
1875.0
1
E
50
0
0
LINE
8
grid
10
67750.0
20
135750.0
30
0
11
239750.0
21
135750.0
31
0
0
TEXT
8
annotation
10
65312.5
20
135000.0
30
0
40
1875.0
1
F
50
0
0
LINE
8
grid
10
67750.0
20
150000.0
30
0
11
239750.0
21
150000.0
31
0
0
TEXT
8
annotation
10
65312.5
20
149250.0
30
0
40
1875.0
1
G
50
0
0
LINE
8
grid
10
67750.0
20
164250.0
30
0
11
239750.0
21
164250.0
31
0
0
TEXT
8
annotation
10
65312.5
20
163500.0
30
0
40
1875.0
1
H
50
0
0
LINE
8
grid
10
67750.0
20
178500.0
30
0
11
239750.0
21
178500.0
31
0
0
TEXT
8
annotation
10
65312.5
20
177750.0
30
0
40
1875.0
1
I
50
0
0
LINE
8
dimension
10
71750.0
20
54000.0
30
0
11
235750.0
21
54000.0
31
0
0
LINE
8
dimension
10
71000.0
20
53250.0
30
0
11
72500.0
21
54750.0
31
0
0
LINE
8
dimension
10
235000.0
20
53250.0
30
0
11
236500.0
21
54750.0
31
0
0
TEXT
8
annotation
10
143625.0
20
55125.0
30
0
40
2250.0
1
164,000 mm overall
50
0
0
LINE
8
dimension
10
244000.0
20
180000.0
30
0
11
244000.0
21
63000.0
31
0
0
TEXT
8
annotation
10
246250.0
20
121500.0
30
0
40
2250.0
1
117,000
50
0
0
TEXT
8
annotation
10
285750.0
20
189000
30
0
40
3000.0
1
N
50
0
0
LINE
8
annotation
10
286500
20
186750
30
0
11
284250
21
180000
31
0
0
LINE
8
annotation
10
284250
20
180000
30
0
11
286500
21
182250
31
0
0
LINE
8
annotation
10
286500
20
182250
30
0
11
288750
21
180000
31
0
0
LINE
8
annotation
10
288750
20
180000
30
0
11
286500
21
186750
31
0
0
LINE
8
frame
10
10500
20
44250
30
0
11
304500
21
44250
31
0
0
TEXT
8
annotation
10
10500
20
38250
30
0
40
2625.0
1
CONCEPT DESIGN | IMAGE-INFERRED | NOT FOR CONSTRUCTION
50
0
0
TEXT
8
annotation
10
10500
20
28500.0
30
0
40
1987.5
1
Source: two campus AI images + fab1.jpg; official analogues documented in analysis/cad/.
50
0
0
TEXT
8
annotation
10
10500
20
25200.00000000002
30
0
40
1987.5
1
CAD model in mm; site coordinates X east, Y north, Z up. Internal layouts and member sizes are design estimates.
50
0
0
TEXT
8
annotation
10
10500
20
21899.999999999993
30
0
40
1987.5
1
Plans/sections are extracted from actual FreeCAD BRep. Elevations project component outlines; hidden edges omitted per component.
50
0
0
TEXT
8
annotation
10
10500
20
18600.000000000007
30
0
40
1987.5
1
Civic wing roofs and skylight may differ from the nominal building height; inspect actual geometry and parameter aliases.
50
0
0
TEXT
8
annotation
10
10500
20
15299.999999999984
30
0
40
1987.5
1
No process certification, structural verification, measured survey, or construction approval is implied.
50
0
0
TEXT
8
annotation
10
267750.0
20
8250
30
0
40
2100.0
1
2026-09-30  |  FreeCAD 1.1.4  |  mm
50
0
0
ENDSEC
0
EOF
