0
SECTION
2
HEADER
9
$ACADVER
1
AC1009
9
$INSUNITS
70
4
0
ENDSEC
0
SECTION
2
ENTITIES
0
LINE
8
frame
10
5250
20
217500
30
0
11
309750
21
217500
31
0
0
LINE
8
frame
10
309750
20
217500
30
0
11
309750
21
5250
31
0
0
LINE
8
frame
10
309750
20
5250
30
0
11
5250
21
5250
31
0
0
LINE
8
frame
10
5250
20
5250
30
0
11
5250
21
217500
31
0
0
TEXT
8
annotation
10
10500
20
209250
30
0
40
3150.0
1
PHOENIX SCIENCE PARK
50
0
0
TEXT
8
annotation
10
10500
20
203250
30
0
40
3750.0
1
LAB / Floor plan
50
0
0
TEXT
8
annotation
10
290100.0
20
209250
30
0
40
2400.0
1
A3  |  1:750
50
0
0
TEXT
8
annotation
10
283125.0
20
203250
30
0
40
2250.0
1
CAD-LAB-PLAN  /  R1
50
0
0
LINE
8
frame
10
10500
20
199500
30
0
11
304500
21
199500
31
0
0
LINE
8
cut
10
72825.0
20
64925.0
30
0
11
72825.0
21
64075.0
31
0
0
LINE
8
cut
10
72825.0
20
64925.0
30
0
11
73675.0
21
64925.0
31
0
0
LINE
8
cut
10
72825.0
20
64075.0
30
0
11
73675.0
21
64075.0
31
0
0
LINE
8
cut
10
73675.0
20
64925.0
30
0
11
73675.0
21
64075.0
31
0
0
LINE
8
cut
10
85209.62
20
64925.0
30
0
11
85209.62
21
64075.0
31
0
0
LINE
8
cut
10
85209.62
20
64925.0
30
0
11
86059.62
21
64925.0
31
0
0
LINE
8
cut
10
85209.62
20
64075.0
30
0
11
86059.62
21
64075.0
31
0
0
LINE
8
cut
10
86059.62
20
64925.0
30
0
11
86059.62
21
64075.0
31
0
0
LINE
8
cut
10
97594.23
20
64925.0
30
0
11
97594.23
21
64075.0
31
0
0
LINE
8
cut
10
97594.23
20
64925.0
30
0
11
98444.23000000003
21
64925.0
31
0
0
LINE
8
cut
10
97594.23
20
64075.0
30
0
11
98444.23000000003
21
64075.0
31
0
0
LINE
8
cut
10
98444.23000000003
20
64925.0
30
0
11
98444.23000000003
21
64075.0
31
0
0
LINE
8
cut
10
109978.84999999999
20
64925.0
30
0
11
109978.84999999999
21
64075.0
31
0
0
LINE
8
cut
10
109978.84999999999
20
64925.0
30
0
11
110828.84999999999
21
64925.0
31
0
0
LINE
8
cut
10
109978.84999999999
20
64075.0
30
0
11
110828.84999999999
21
64075.0
31
0
0
LINE
8
cut
10
110828.84999999999
20
64925.0
30
0
11
110828.84999999999
21
64075.0
31
0
0
LINE
8
cut
10
122363.45999999999
20
64925.0
30
0
11
122363.45999999999
21
64075.0
31
0
0
LINE
8
cut
10
122363.45999999999
20
64925.0
30
0
11
123213.46
21
64925.0
31
0
0
LINE
8
cut
10
122363.45999999999
20
64075.0
30
0
11
123213.46
21
64075.0
31
0
0
LINE
8
cut
10
123213.46
20
64925.0
30
0
11
123213.46
21
64075.0
31
0
0
LINE
8
cut
10
134748.08
20
64925.0
30
0
11
134748.08
21
64075.0
31
0
0
LINE
8
cut
10
134748.08
20
64925.0
30
0
11
135598.08
21
64925.0
31
0
0
LINE
8
cut
10
134748.08
20
64075.0
30
0
11
135598.08
21
64075.0
31
0
0
LINE
8
cut
10
135598.08
20
64925.0
30
0
11
135598.08
21
64075.0
31
0
0
LINE
8
cut
10
147132.69
20
64925.0
30
0
11
147132.69
21
64075.0
31
0
0
LINE
8
cut
10
147132.69
20
64925.0
30
0
11
147982.69
21
64925.0
31
0
0
LINE
8
cut
10
147132.69
20
64075.0
30
0
11
147982.69
21
64075.0
31
0
0
LINE
8
cut
10
147982.69
20
64925.0
30
0
11
147982.69
21
64075.0
31
0
0
LINE
8
cut
10
159517.31
20
64925.0
30
0
11
159517.31
21
64075.0
31
0
0
LINE
8
cut
10
159517.31
20
64925.0
30
0
11
160367.31
21
64925.0
31
0
0
LINE
8
cut
10
159517.31
20
64075.0
30
0
11
160367.31
21
64075.0
31
0
0
LINE
8
cut
10
160367.31
20
64925.0
30
0
11
160367.31
21
64075.0
31
0
0
LINE
8
cut
10
171901.92
20
64925.0
30
0
11
171901.92
21
64075.0
31
0
0
LINE
8
cut
10
171901.92
20
64925.0
30
0
11
172751.92
21
64925.0
31
0
0
LINE
8
cut
10
171901.92
20
64075.0
30
0
11
172751.92
21
64075.0
31
0
0
LINE
8
cut
10
172751.92
20
64925.0
30
0
11
172751.92
21
64075.0
31
0
0
LINE
8
cut
10
184286.54
20
64925.0
30
0
11
184286.54
21
64075.0
31
0
0
LINE
8
cut
10
184286.54
20
64925.0
30
0
11
185136.54
21
64925.0
31
0
0
LINE
8
cut
10
184286.54
20
64075.0
30
0
11
185136.54
21
64075.0
31
0
0
LINE
8
cut
10
185136.54
20
64925.0
30
0
11
185136.54
21
64075.0
31
0
0
LINE
8
cut
10
196671.15000000002
20
64925.0
30
0
11
196671.15000000002
21
64075.0
31
0
0
LINE
8
cut
10
196671.15000000002
20
64925.0
30
0
11
197521.15
21
64925.0
31
0
0
LINE
8
cut
10
196671.15000000002
20
64075.0
30
0
11
197521.15
21
64075.0
31
0
0
LINE
8
cut
10
197521.15
20
64925.0
30
0
11
197521.15
21
64075.0
31
0
0
LINE
8
cut
10
209055.77
20
64925.0
30
0
11
209055.77
21
64075.0
31
0
0
LINE
8
cut
10
209055.77
20
64925.0
30
0
11
209905.77000000002
21
64925.0
31
0
0
LINE
8
cut
10
209055.77
20
64075.0
30
0
11
209905.77000000002
21
64075.0
31
0
0
LINE
8
cut
10
209905.77000000002
20
64925.0
30
0
11
209905.77000000002
21
64075.0
31
0
0
LINE
8
cut
10
221440.38
20
64925.0
30
0
11
221440.38
21
64075.0
31
0
0
LINE
8
cut
10
221440.38
20
64925.0
30
0
11
222290.38
21
64925.0
31
0
0
LINE
8
cut
10
221440.38
20
64075.0
30
0
11
222290.38
21
64075.0
31
0
0
LINE
8
cut
10
222290.38
20
64925.0
30
0
11
222290.38
21
64075.0
31
0
0
LINE
8
cut
10
233825.0
20
64925.0
30
0
11
233825.0
21
64075.0
31
0
0
LINE
8
cut
10
233825.0
20
64925.0
30
0
11
234674.99999999997
21
64925.0
31
0
0
LINE
8
cut
10
233825.0
20
64075.0
30
0
11
234674.99999999997
21
64075.0
31
0
0
LINE
8
cut
10
234674.99999999997
20
64925.0
30
0
11
234674.99999999997
21
64075.0
31
0
0
LINE
8
cut
10
72825.0
20
79175.0
30
0
11
72825.0
21
78325.0
31
0
0
LINE
8
cut
10
72825.0
20
79175.0
30
0
11
73675.0
21
79175.0
31
0
0
LINE
8
cut
10
72825.0
20
78325.0
30
0
11
73675.0
21
78325.0
31
0
0
LINE
8
cut
10
73675.0
20
79175.0
30
0
11
73675.0
21
78325.0
31
0
0
LINE
8
cut
10
85209.62
20
79175.0
30
0
11
85209.62
21
78325.0
31
0
0
LINE
8
cut
10
85209.62
20
79175.0
30
0
11
86059.62
21
79175.0
31
0
0
LINE
8
cut
10
85209.62
20
78325.0
30
0
11
86059.62
21
78325.0
31
0
0
LINE
8
cut
10
86059.62
20
79175.0
30
0
11
86059.62
21
78325.0
31
0
0
LINE
8
cut
10
97594.23
20
79175.0
30
0
11
97594.23
21
78325.0
31
0
0
LINE
8
cut
10
97594.23
20
79175.0
30
0
11
98444.23000000003
21
79175.0
31
0
0
LINE
8
cut
10
97594.23
20
78325.0
30
0
11
98444.23000000003
21
78325.0
31
0
0
LINE
8
cut
10
98444.23000000003
20
79175.0
30
0
11
98444.23000000003
21
78325.0
31
0
0
LINE
8
cut
10
109978.84999999999
20
79175.0
30
0
11
109978.84999999999
21
78325.0
31
0
0
LINE
8
cut
10
109978.84999999999
20
79175.0
30
0
11
110828.84999999999
21
79175.0
31
0
0
LINE
8
cut
10
109978.84999999999
20
78325.0
30
0
11
110828.84999999999
21
78325.0
31
0
0
LINE
8
cut
10
110828.84999999999
20
79175.0
30
0
11
110828.84999999999
21
78325.0
31
0
0
LINE
8
cut
10
122363.45999999999
20
79175.0
30
0
11
122363.45999999999
21
78325.0
31
0
0
LINE
8
cut
10
122363.45999999999
20
79175.0
30
0
11
123213.46
21
79175.0
31
0
0
LINE
8
cut
10
122363.45999999999
20
78325.0
30
0
11
123213.46
21
78325.0
31
0
0
LINE
8
cut
10
123213.46
20
79175.0
30
0
11
123213.46
21
78325.0
31
0
0
LINE
8
cut
10
134748.08
20
79175.0
30
0
11
134748.08
21
78325.0
31
0
0
LINE
8
cut
10
134748.08
20
79175.0
30
0
11
135598.08
21
79175.0
31
0
0
LINE
8
cut
10
134748.08
20
78325.0
30
0
11
135598.08
21
78325.0
31
0
0
LINE
8
cut
10
135598.08
20
79175.0
30
0
11
135598.08
21
78325.0
31
0
0
LINE
8
cut
10
147132.69
20
79175.0
30
0
11
147132.69
21
78325.0
31
0
0
LINE
8
cut
10
147132.69
20
79175.0
30
0
11
147982.69
21
79175.0
31
0
0
LINE
8
cut
10
147132.69
20
78325.0
30
0
11
147982.69
21
78325.0
31
0
0
LINE
8
cut
10
147982.69
20
79175.0
30
0
11
147982.69
21
78325.0
31
0
0
LINE
8
cut
10
159517.31
20
79175.0
30
0
11
159517.31
21
78325.0
31
0
0
LINE
8
cut
10
159517.31
20
79175.0
30
0
11
160367.31
21
79175.0
31
0
0
LINE
8
cut
10
159517.31
20
78325.0
30
0
11
160367.31
21
78325.0
31
0
0
LINE
8
cut
10
160367.31
20
79175.0
30
0
11
160367.31
21
78325.0
31
0
0
LINE
8
cut
10
171901.92
20
79175.0
30
0
11
171901.92
21
78325.0
31
0
0
LINE
8
cut
10
171901.92
20
79175.0
30
0
11
172751.92
21
79175.0
31
0
0
LINE
8
cut
10
171901.92
20
78325.0
30
0
11
172751.92
21
78325.0
31
0
0
LINE
8
cut
10
172751.92
20
79175.0
30
0
11
172751.92
21
78325.0
31
0
0
LINE
8
cut
10
184286.54
20
79175.0
30
0
11
184286.54
21
78325.0
31
0
0
LINE
8
cut
10
184286.54
20
79175.0
30
0
11
185136.54
21
79175.0
31
0
0
LINE
8
cut
10
184286.54
20
78325.0
30
0
11
185136.54
21
78325.0
31
0
0
LINE
8
cut
10
185136.54
20
79175.0
30
0
11
185136.54
21
78325.0
31
0
0
LINE
8
cut
10
196671.15000000002
20
79175.0
30
0
11
196671.15000000002
21
78325.0
31
0
0
LINE
8
cut
10
196671.15000000002
20
79175.0
30
0
11
197521.15
21
79175.0
31
0
0
LINE
8
cut
10
196671.15000000002
20
78325.0
30
0
11
197521.15
21
78325.0
31
0
0
LINE
8
cut
10
197521.15
20
79175.0
30
0
11
197521.15
21
78325.0
31
0
0
LINE
8
cut
10
209055.77
20
79175.0
30
0
11
209055.77
21
78325.0
31
0
0
LINE
8
cut
10
209055.77
20
79175.0
30
0
11
209905.77000000002
21
79175.0
31
0
0
LINE
8
cut
10
209055.77
20
78325.0
30
0
11
209905.77000000002
21
78325.0
31
0
0
LINE
8
cut
10
209905.77000000002
20
79175.0
30
0
11
209905.77000000002
21
78325.0
31
0
0
LINE
8
cut
10
221440.38
20
79175.0
30
0
11
221440.38
21
78325.0
31
0
0
LINE
8
cut
10
221440.38
20
79175.0
30
0
11
222290.38
21
79175.0
31
0
0
LINE
8
cut
10
221440.38
20
78325.0
30
0
11
222290.38
21
78325.0
31
0
0
LINE
8
cut
10
222290.38
20
79175.0
30
0
11
222290.38
21
78325.0
31
0
0
LINE
8
cut
10
233825.0
20
79175.0
30
0
11
233825.0
21
78325.0
31
0
0
LINE
8
cut
10
233825.0
20
79175.0
30
0
11
234674.99999999997
21
79175.0
31
0
0
LINE
8
cut
10
233825.0
20
78325.0
30
0
11
234674.99999999997
21
78325.0
31
0
0
LINE
8
cut
10
234674.99999999997
20
79175.0
30
0
11
234674.99999999997
21
78325.0
31
0
0
LINE
8
cut
10
72825.0
20
93425.0
30
0
11
72825.0
21
92575.0
31
0
0
LINE
8
cut
10
72825.0
20
93425.0
30
0
11
73675.0
21
93425.0
31
0
0
LINE
8
cut
10
72825.0
20
92575.0
30
0
11
73675.0
21
92575.0
31
0
0
LINE
8
cut
10
73675.0
20
93425.0
30
0
11
73675.0
21
92575.0
31
0
0
LINE
8
cut
10
85209.62
20
93425.0
30
0
11
85209.62
21
92575.0
31
0
0
LINE
8
cut
10
85209.62
20
93425.0
30
0
11
86059.62
21
93425.0
31
0
0
LINE
8
cut
10
85209.62
20
92575.0
30
0
11
86059.62
21
92575.0
31
0
0
LINE
8
cut
10
86059.62
20
93425.0
30
0
11
86059.62
21
92575.0
31
0
0
LINE
8
cut
10
97594.23
20
93425.0
30
0
11
97594.23
21
92575.0
31
0
0
LINE
8
cut
10
97594.23
20
93425.0
30
0
11
98444.23000000003
21
93425.0
31
0
0
LINE
8
cut
10
97594.23
20
92575.0
30
0
11
98444.23000000003
21
92575.0
31
0
0
LINE
8
cut
10
98444.23000000003
20
93425.0
30
0
11
98444.23000000003
21
92575.0
31
0
0
LINE
8
cut
10
109978.84999999999
20
93425.0
30
0
11
109978.84999999999
21
92575.0
31
0
0
LINE
8
cut
10
109978.84999999999
20
93425.0
30
0
11
110828.84999999999
21
93425.0
31
0
0
LINE
8
cut
10
109978.84999999999
20
92575.0
30
0
11
110828.84999999999
21
92575.0
31
0
0
LINE
8
cut
10
110828.84999999999
20
93425.0
30
0
11
110828.84999999999
21
92575.0
31
0
0
LINE
8
cut
10
122363.45999999999
20
93425.0
30
0
11
122363.45999999999
21
92575.0
31
0
0
LINE
8
cut
10
122363.45999999999
20
93425.0
30
0
11
123213.46
21
93425.0
31
0
0
LINE
8
cut
10
122363.45999999999
20
92575.0
30
0
11
123213.46
21
92575.0
31
0
0
LINE
8
cut
10
123213.46
20
93425.0
30
0
11
123213.46
21
92575.0
31
0
0
LINE
8
cut
10
134748.08
20
93425.0
30
0
11
134748.08
21
92575.0
31
0
0
LINE
8
cut
10
134748.08
20
93425.0
30
0
11
135598.08
21
93425.0
31
0
0
LINE
8
cut
10
134748.08
20
92575.0
30
0
11
135598.08
21
92575.0
31
0
0
LINE
8
cut
10
135598.08
20
93425.0
30
0
11
135598.08
21
92575.0
31
0
0
LINE
8
cut
10
147132.69
20
93425.0
30
0
11
147132.69
21
92575.0
31
0
0
LINE
8
cut
10
147132.69
20
93425.0
30
0
11
147982.69
21
93425.0
31
0
0
LINE
8
cut
10
147132.69
20
92575.0
30
0
11
147982.69
21
92575.0
31
0
0
LINE
8
cut
10
147982.69
20
93425.0
30
0
11
147982.69
21
92575.0
31
0
0
LINE
8
cut
10
159517.31
20
93425.0
30
0
11
159517.31
21
92575.0
31
0
0
LINE
8
cut
10
159517.31
20
93425.0
30
0
11
160367.31
21
93425.0
31
0
0
LINE
8
cut
10
159517.31
20
92575.0
30
0
11
160367.31
21
92575.0
31
0
0
LINE
8
cut
10
160367.31
20
93425.0
30
0
11
160367.31
21
92575.0
31
0
0
LINE
8
cut
10
171901.92
20
93425.0
30
0
11
171901.92
21
92575.0
31
0
0
LINE
8
cut
10
171901.92
20
93425.0
30
0
11
172751.92
21
93425.0
31
0
0
LINE
8
cut
10
171901.92
20
92575.0
30
0
11
172751.92
21
92575.0
31
0
0
LINE
8
cut
10
172751.92
20
93425.0
30
0
11
172751.92
21
92575.0
31
0
0
LINE
8
cut
10
184286.54
20
93425.0
30
0
11
184286.54
21
92575.0
31
0
0
LINE
8
cut
10
184286.54
20
93425.0
30
0
11
185136.54
21
93425.0
31
0
0
LINE
8
cut
10
184286.54
20
92575.0
30
0
11
185136.54
21
92575.0
31
0
0
LINE
8
cut
10
185136.54
20
93425.0
30
0
11
185136.54
21
92575.0
31
0
0
LINE
8
cut
10
196671.15000000002
20
93425.0
30
0
11
196671.15000000002
21
92575.0
31
0
0
LINE
8
cut
10
196671.15000000002
20
93425.0
30
0
11
197521.15
21
93425.0
31
0
0
LINE
8
cut
10
196671.15000000002
20
92575.0
30
0
11
197521.15
21
92575.0
31
0
0
LINE
8
cut
10
197521.15
20
93425.0
30
0
11
197521.15
21
92575.0
31
0
0
LINE
8
cut
10
209055.77
20
93425.0
30
0
11
209055.77
21
92575.0
31
0
0
LINE
8
cut
10
209055.77
20
93425.0
30
0
11
209905.77000000002
21
93425.0
31
0
0
LINE
8
cut
10
209055.77
20
92575.0
30
0
11
209905.77000000002
21
92575.0
31
0
0
LINE
8
cut
10
209905.77000000002
20
93425.0
30
0
11
209905.77000000002
21
92575.0
31
0
0
LINE
8
cut
10
221440.38
20
93425.0
30
0
11
221440.38
21
92575.0
31
0
0
LINE
8
cut
10
221440.38
20
93425.0
30
0
11
222290.38
21
93425.0
31
0
0
LINE
8
cut
10
221440.38
20
92575.0
30
0
11
222290.38
21
92575.0
31
0
0
LINE
8
cut
10
222290.38
20
93425.0
30
0
11
222290.38
21
92575.0
31
0
0
LINE
8
cut
10
233825.0
20
93425.0
30
0
11
233825.0
21
92575.0
31
0
0
LINE
8
cut
10
233825.0
20
93425.0
30
0
11
234674.99999999997
21
93425.0
31
0
0
LINE
8
cut
10
233825.0
20
92575.0
30
0
11
234674.99999999997
21
92575.0
31
0
0
LINE
8
cut
10
234674.99999999997
20
93425.0
30
0
11
234674.99999999997
21
92575.0
31
0
0
LINE
8
cut
10
72825.0
20
107675.0
30
0
11
72825.0
21
106825.0
31
0
0
LINE
8
cut
10
72825.0
20
107675.0
30
0
11
73675.0
21
107675.0
31
0
0
LINE
8
cut
10
72825.0
20
106825.0
30
0
11
73675.0
21
106825.0
31
0
0
LINE
8
cut
10
73675.0
20
107675.0
30
0
11
73675.0
21
106825.0
31
0
0
LINE
8
cut
10
85209.62
20
107675.0
30
0
11
85209.62
21
106825.0
31
0
0
LINE
8
cut
10
85209.62
20
107675.0
30
0
11
86059.62
21
107675.0
31
0
0
LINE
8
cut
10
85209.62
20
106825.0
30
0
11
86059.62
21
106825.0
31
0
0
LINE
8
cut
10
86059.62
20
107675.0
30
0
11
86059.62
21
106825.0
31
0
0
LINE
8
cut
10
97594.23
20
107675.0
30
0
11
97594.23
21
106825.0
31
0
0
LINE
8
cut
10
97594.23
20
107675.0
30
0
11
98444.23000000003
21
107675.0
31
0
0
LINE
8
cut
10
97594.23
20
106825.0
30
0
11
98444.23000000003
21
106825.0
31
0
0
LINE
8
cut
10
98444.23000000003
20
107675.0
30
0
11
98444.23000000003
21
106825.0
31
0
0
LINE
8
cut
10
109978.84999999999
20
107675.0
30
0
11
109978.84999999999
21
106825.0
31
0
0
LINE
8
cut
10
109978.84999999999
20
107675.0
30
0
11
110828.84999999999
21
107675.0
31
0
0
LINE
8
cut
10
109978.84999999999
20
106825.0
30
0
11
110828.84999999999
21
106825.0
31
0
0
LINE
8
cut
10
110828.84999999999
20
107675.0
30
0
11
110828.84999999999
21
106825.0
31
0
0
LINE
8
cut
10
122363.45999999999
20
107675.0
30
0
11
122363.45999999999
21
106825.0
31
0
0
LINE
8
cut
10
122363.45999999999
20
107675.0
30
0
11
123213.46
21
107675.0
31
0
0
LINE
8
cut
10
122363.45999999999
20
106825.0
30
0
11
123213.46
21
106825.0
31
0
0
LINE
8
cut
10
123213.46
20
107675.0
30
0
11
123213.46
21
106825.0
31
0
0
LINE
8
cut
10
134748.08
20
107675.0
30
0
11
134748.08
21
106825.0
31
0
0
LINE
8
cut
10
134748.08
20
107675.0
30
0
11
135598.08
21
107675.0
31
0
0
LINE
8
cut
10
134748.08
20
106825.0
30
0
11
135598.08
21
106825.0
31
0
0
LINE
8
cut
10
135598.08
20
107675.0
30
0
11
135598.08
21
106825.0
31
0
0
LINE
8
cut
10
147132.69
20
107675.0
30
0
11
147132.69
21
106825.0
31
0
0
LINE
8
cut
10
147132.69
20
107675.0
30
0
11
147982.69
21
107675.0
31
0
0
LINE
8
cut
10
147132.69
20
106825.0
30
0
11
147982.69
21
106825.0
31
0
0
LINE
8
cut
10
147982.69
20
107675.0
30
0
11
147982.69
21
106825.0
31
0
0
LINE
8
cut
10
159517.31
20
107675.0
30
0
11
159517.31
21
106825.0
31
0
0
LINE
8
cut
10
159517.31
20
107675.0
30
0
11
160367.31
21
107675.0
31
0
0
LINE
8
cut
10
159517.31
20
106825.0
30
0
11
160367.31
21
106825.0
31
0
0
LINE
8
cut
10
160367.31
20
107675.0
30
0
11
160367.31
21
106825.0
31
0
0
LINE
8
cut
10
171901.92
20
107675.0
30
0
11
171901.92
21
106825.0
31
0
0
LINE
8
cut
10
171901.92
20
107675.0
30
0
11
172751.92
21
107675.0
31
0
0
LINE
8
cut
10
171901.92
20
106825.0
30
0
11
172751.92
21
106825.0
31
0
0
LINE
8
cut
10
172751.92
20
107675.0
30
0
11
172751.92
21
106825.0
31
0
0
LINE
8
cut
10
184286.54
20
107675.0
30
0
11
184286.54
21
106825.0
31
0
0
LINE
8
cut
10
184286.54
20
107675.0
30
0
11
185136.54
21
107675.0
31
0
0
LINE
8
cut
10
184286.54
20
106825.0
30
0
11
185136.54
21
106825.0
31
0
0
LINE
8
cut
10
185136.54
20
107675.0
30
0
11
185136.54
21
106825.0
31
0
0
LINE
8
cut
10
196671.15000000002
20
107675.0
30
0
11
196671.15000000002
21
106825.0
31
0
0
LINE
8
cut
10
196671.15000000002
20
107675.0
30
0
11
197521.15
21
107675.0
31
0
0
LINE
8
cut
10
196671.15000000002
20
106825.0
30
0
11
197521.15
21
106825.0
31
0
0
LINE
8
cut
10
197521.15
20
107675.0
30
0
11
197521.15
21
106825.0
31
0
0
LINE
8
cut
10
209055.77
20
107675.0
30
0
11
209055.77
21
106825.0
31
0
0
LINE
8
cut
10
209055.77
20
107675.0
30
0
11
209905.77000000002
21
107675.0
31
0
0
LINE
8
cut
10
209055.77
20
106825.0
30
0
11
209905.77000000002
21
106825.0
31
0
0
LINE
8
cut
10
209905.77000000002
20
107675.0
30
0
11
209905.77000000002
21
106825.0
31
0
0
LINE
8
cut
10
221440.38
20
107675.0
30
0
11
221440.38
21
106825.0
31
0
0
LINE
8
cut
10
221440.38
20
107675.0
30
0
11
222290.38
21
107675.0
31
0
0
LINE
8
cut
10
221440.38
20
106825.0
30
0
11
222290.38
21
106825.0
31
0
0
LINE
8
cut
10
222290.38
20
107675.0
30
0
11
222290.38
21
106825.0
31
0
0
LINE
8
cut
10
233825.0
20
107675.0
30
0
11
233825.0
21
106825.0
31
0
0
LINE
8
cut
10
233825.0
20
107675.0
30
0
11
234674.99999999997
21
107675.0
31
0
0
LINE
8
cut
10
233825.0
20
106825.0
30
0
11
234674.99999999997
21
106825.0
31
0
0
LINE
8
cut
10
234674.99999999997
20
107675.0
30
0
11
234674.99999999997
21
106825.0
31
0
0
LINE
8
cut
10
72825.0
20
121925.0
30
0
11
72825.0
21
121075.0
31
0
0
LINE
8
cut
10
72825.0
20
121925.0
30
0
11
73675.0
21
121925.0
31
0
0
LINE
8
cut
10
72825.0
20
121075.0
30
0
11
73675.0
21
121075.0
31
0
0
LINE
8
cut
10
73675.0
20
121925.0
30
0
11
73675.0
21
121075.0
31
0
0
LINE
8
cut
10
85209.62
20
121925.0
30
0
11
85209.62
21
121075.0
31
0
0
LINE
8
cut
10
85209.62
20
121925.0
30
0
11
86059.62
21
121925.0
31
0
0
LINE
8
cut
10
85209.62
20
121075.0
30
0
11
86059.62
21
121075.0
31
0
0
LINE
8
cut
10
86059.62
20
121925.0
30
0
11
86059.62
21
121075.0
31
0
0
LINE
8
cut
10
97594.23
20
121925.0
30
0
11
97594.23
21
121075.0
31
0
0
LINE
8
cut
10
97594.23
20
121925.0
30
0
11
98444.23000000003
21
121925.0
31
0
0
LINE
8
cut
10
97594.23
20
121075.0
30
0
11
98444.23000000003
21
121075.0
31
0
0
LINE
8
cut
10
98444.23000000003
20
121925.0
30
0
11
98444.23000000003
21
121075.0
31
0
0
LINE
8
cut
10
109978.84999999999
20
121925.0
30
0
11
109978.84999999999
21
121075.0
31
0
0
LINE
8
cut
10
109978.84999999999
20
121925.0
30
0
11
110828.84999999999
21
121925.0
31
0
0
LINE
8
cut
10
109978.84999999999
20
121075.0
30
0
11
110828.84999999999
21
121075.0
31
0
0
LINE
8
cut
10
110828.84999999999
20
121925.0
30
0
11
110828.84999999999
21
121075.0
31
0
0
LINE
8
cut
10
122363.45999999999
20
121925.0
30
0
11
122363.45999999999
21
121075.0
31
0
0
LINE
8
cut
10
122363.45999999999
20
121925.0
30
0
11
123213.46
21
121925.0
31
0
0
LINE
8
cut
10
122363.45999999999
20
121075.0
30
0
11
123213.46
21
121075.0
31
0
0
LINE
8
cut
10
123213.46
20
121925.0
30
0
11
123213.46
21
121075.0
31
0
0
LINE
8
cut
10
134748.08
20
121925.0
30
0
11
134748.08
21
121075.0
31
0
0
LINE
8
cut
10
134748.08
20
121925.0
30
0
11
135598.08
21
121925.0
31
0
0
LINE
8
cut
10
134748.08
20
121075.0
30
0
11
135598.08
21
121075.0
31
0
0
LINE
8
cut
10
135598.08
20
121925.0
30
0
11
135598.08
21
121075.0
31
0
0
LINE
8
cut
10
147132.69
20
121925.0
30
0
11
147132.69
21
121075.0
31
0
0
LINE
8
cut
10
147132.69
20
121925.0
30
0
11
147982.69
21
121925.0
31
0
0
LINE
8
cut
10
147132.69
20
121075.0
30
0
11
147982.69
21
121075.0
31
0
0
LINE
8
cut
10
147982.69
20
121925.0
30
0
11
147982.69
21
121075.0
31
0
0
LINE
8
cut
10
159517.31
20
121925.0
30
0
11
159517.31
21
121075.0
31
0
0
LINE
8
cut
10
159517.31
20
121925.0
30
0
11
160367.31
21
121925.0
31
0
0
LINE
8
cut
10
159517.31
20
121075.0
30
0
11
160367.31
21
121075.0
31
0
0
LINE
8
cut
10
160367.31
20
121925.0
30
0
11
160367.31
21
121075.0
31
0
0
LINE
8
cut
10
171901.92
20
121925.0
30
0
11
171901.92
21
121075.0
31
0
0
LINE
8
cut
10
171901.92
20
121925.0
30
0
11
172751.92
21
121925.0
31
0
0
LINE
8
cut
10
171901.92
20
121075.0
30
0
11
172751.92
21
121075.0
31
0
0
LINE
8
cut
10
172751.92
20
121925.0
30
0
11
172751.92
21
121075.0
31
0
0
LINE
8
cut
10
184286.54
20
121925.0
30
0
11
184286.54
21
121075.0
31
0
0
LINE
8
cut
10
184286.54
20
121925.0
30
0
11
185136.54
21
121925.0
31
0
0
LINE
8
cut
10
184286.54
20
121075.0
30
0
11
185136.54
21
121075.0
31
0
0
LINE
8
cut
10
185136.54
20
121925.0
30
0
11
185136.54
21
121075.0
31
0
0
LINE
8
cut
10
196671.15000000002
20
121925.0
30
0
11
196671.15000000002
21
121075.0
31
0
0
LINE
8
cut
10
196671.15000000002
20
121925.0
30
0
11
197521.15
21
121925.0
31
0
0
LINE
8
cut
10
196671.15000000002
20
121075.0
30
0
11
197521.15
21
121075.0
31
0
0
LINE
8
cut
10
197521.15
20
121925.0
30
0
11
197521.15
21
121075.0
31
0
0
LINE
8
cut
10
209055.77
20
121925.0
30
0
11
209055.77
21
121075.0
31
0
0
LINE
8
cut
10
209055.77
20
121925.0
30
0
11
209905.77000000002
21
121925.0
31
0
0
LINE
8
cut
10
209055.77
20
121075.0
30
0
11
209905.77000000002
21
121075.0
31
0
0
LINE
8
cut
10
209905.77000000002
20
121925.0
30
0
11
209905.77000000002
21
121075.0
31
0
0
LINE
8
cut
10
221440.38
20
121925.0
30
0
11
221440.38
21
121075.0
31
0
0
LINE
8
cut
10
221440.38
20
121925.0
30
0
11
222290.38
21
121925.0
31
0
0
LINE
8
cut
10
221440.38
20
121075.0
30
0
11
222290.38
21
121075.0
31
0
0
LINE
8
cut
10
222290.38
20
121925.0
30
0
11
222290.38
21
121075.0
31
0
0
LINE
8
cut
10
233825.0
20
121925.0
30
0
11
233825.0
21
121075.0
31
0
0
LINE
8
cut
10
233825.0
20
121925.0
30
0
11
234674.99999999997
21
121925.0
31
0
0
LINE
8
cut
10
233825.0
20
121075.0
30
0
11
234674.99999999997
21
121075.0
31
0
0
LINE
8
cut
10
234674.99999999997
20
121925.0
30
0
11
234674.99999999997
21
121075.0
31
0
0
LINE
8
cut
10
72825.0
20
136175.0
30
0
11
72825.0
21
135325.0
31
0
0
LINE
8
cut
10
72825.0
20
136175.0
30
0
11
73675.0
21
136175.0
31
0
0
LINE
8
cut
10
72825.0
20
135325.0
30
0
11
73675.0
21
135325.0
31
0
0
LINE
8
cut
10
73675.0
20
136175.0
30
0
11
73675.0
21
135325.0
31
0
0
LINE
8
cut
10
85209.62
20
136175.0
30
0
11
85209.62
21
135325.0
31
0
0
LINE
8
cut
10
85209.62
20
136175.0
30
0
11
86059.62
21
136175.0
31
0
0
LINE
8
cut
10
85209.62
20
135325.0
30
0
11
86059.62
21
135325.0
31
0
0
LINE
8
cut
10
86059.62
20
136175.0
30
0
11
86059.62
21
135325.0
31
0
0
LINE
8
cut
10
97594.23
20
136175.0
30
0
11
97594.23
21
135325.0
31
0
0
LINE
8
cut
10
97594.23
20
136175.0
30
0
11
98444.23000000003
21
136175.0
31
0
0
LINE
8
cut
10
97594.23
20
135325.0
30
0
11
98444.23000000003
21
135325.0
31
0
0
LINE
8
cut
10
98444.23000000003
20
136175.0
30
0
11
98444.23000000003
21
135325.0
31
0
0
LINE
8
cut
10
109978.84999999999
20
136175.0
30
0
11
109978.84999999999
21
135325.0
31
0
0
LINE
8
cut
10
109978.84999999999
20
136175.0
30
0
11
110828.84999999999
21
136175.0
31
0
0
LINE
8
cut
10
109978.84999999999
20
135325.0
30
0
11
110828.84999999999
21
135325.0
31
0
0
LINE
8
cut
10
110828.84999999999
20
136175.0
30
0
11
110828.84999999999
21
135325.0
31
0
0
LINE
8
cut
10
122363.45999999999
20
136175.0
30
0
11
122363.45999999999
21
135325.0
31
0
0
LINE
8
cut
10
122363.45999999999
20
136175.0
30
0
11
123213.46
21
136175.0
31
0
0
LINE
8
cut
10
122363.45999999999
20
135325.0
30
0
11
123213.46
21
135325.0
31
0
0
LINE
8
cut
10
123213.46
20
136175.0
30
0
11
123213.46
21
135325.0
31
0
0
LINE
8
cut
10
134748.08
20
136175.0
30
0
11
134748.08
21
135325.0
31
0
0
LINE
8
cut
10
134748.08
20
136175.0
30
0
11
135598.08
21
136175.0
31
0
0
LINE
8
cut
10
134748.08
20
135325.0
30
0
11
135598.08
21
135325.0
31
0
0
LINE
8
cut
10
135598.08
20
136175.0
30
0
11
135598.08
21
135325.0
31
0
0
LINE
8
cut
10
147132.69
20
136175.0
30
0
11
147132.69
21
135325.0
31
0
0
LINE
8
cut
10
147132.69
20
136175.0
30
0
11
147982.69
21
136175.0
31
0
0
LINE
8
cut
10
147132.69
20
135325.0
30
0
11
147982.69
21
135325.0
31
0
0
LINE
8
cut
10
147982.69
20
136175.0
30
0
11
147982.69
21
135325.0
31
0
0
LINE
8
cut
10
159517.31
20
136175.0
30
0
11
159517.31
21
135325.0
31
0
0
LINE
8
cut
10
159517.31
20
136175.0
30
0
11
160367.31
21
136175.0
31
0
0
LINE
8
cut
10
159517.31
20
135325.0
30
0
11
160367.31
21
135325.0
31
0
0
LINE
8
cut
10
160367.31
20
136175.0
30
0
11
160367.31
21
135325.0
31
0
0
LINE
8
cut
10
171901.92
20
136175.0
30
0
11
171901.92
21
135325.0
31
0
0
LINE
8
cut
10
171901.92
20
136175.0
30
0
11
172751.92
21
136175.0
31
0
0
LINE
8
cut
10
171901.92
20
135325.0
30
0
11
172751.92
21
135325.0
31
0
0
LINE
8
cut
10
172751.92
20
136175.0
30
0
11
172751.92
21
135325.0
31
0
0
LINE
8
cut
10
184286.54
20
136175.0
30
0
11
184286.54
21
135325.0
31
0
0
LINE
8
cut
10
184286.54
20
136175.0
30
0
11
185136.54
21
136175.0
31
0
0
LINE
8
cut
10
184286.54
20
135325.0
30
0
11
185136.54
21
135325.0
31
0
0
LINE
8
cut
10
185136.54
20
136175.0
30
0
11
185136.54
21
135325.0
31
0
0
LINE
8
cut
10
196671.15000000002
20
136175.0
30
0
11
196671.15000000002
21
135325.0
31
0
0
LINE
8
cut
10
196671.15000000002
20
136175.0
30
0
11
197521.15
21
136175.0
31
0
0
LINE
8
cut
10
196671.15000000002
20
135325.0
30
0
11
197521.15
21
135325.0
31
0
0
LINE
8
cut
10
197521.15
20
136175.0
30
0
11
197521.15
21
135325.0
31
0
0
LINE
8
cut
10
209055.77
20
136175.0
30
0
11
209055.77
21
135325.0
31
0
0
LINE
8
cut
10
209055.77
20
136175.0
30
0
11
209905.77000000002
21
136175.0
31
0
0
LINE
8
cut
10
209055.77
20
135325.0
30
0
11
209905.77000000002
21
135325.0
31
0
0
LINE
8
cut
10
209905.77000000002
20
136175.0
30
0
11
209905.77000000002
21
135325.0
31
0
0
LINE
8
cut
10
221440.38
20
136175.0
30
0
11
221440.38
21
135325.0
31
0
0
LINE
8
cut
10
221440.38
20
136175.0
30
0
11
222290.38
21
136175.0
31
0
0
LINE
8
cut
10
221440.38
20
135325.0
30
0
11
222290.38
21
135325.0
31
0
0
LINE
8
cut
10
222290.38
20
136175.0
30
0
11
222290.38
21
135325.0
31
0
0
LINE
8
cut
10
233825.0
20
136175.0
30
0
11
233825.0
21
135325.0
31
0
0
LINE
8
cut
10
233825.0
20
136175.0
30
0
11
234674.99999999997
21
136175.0
31
0
0
LINE
8
cut
10
233825.0
20
135325.0
30
0
11
234674.99999999997
21
135325.0
31
0
0
LINE
8
cut
10
234674.99999999997
20
136175.0
30
0
11
234674.99999999997
21
135325.0
31
0
0
LINE
8
cut
10
72825.0
20
150425.0
30
0
11
72825.0
21
149575.0
31
0
0
LINE
8
cut
10
72825.0
20
150425.0
30
0
11
73675.0
21
150425.0
31
0
0
LINE
8
cut
10
72825.0
20
149575.0
30
0
11
73675.0
21
149575.0
31
0
0
LINE
8
cut
10
73675.0
20
150425.0
30
0
11
73675.0
21
149575.0
31
0
0
LINE
8
cut
10
85209.62
20
150425.0
30
0
11
85209.62
21
149575.0
31
0
0
LINE
8
cut
10
85209.62
20
150425.0
30
0
11
86059.62
21
150425.0
31
0
0
LINE
8
cut
10
85209.62
20
149575.0
30
0
11
86059.62
21
149575.0
31
0
0
LINE
8
cut
10
86059.62
20
150425.0
30
0
11
86059.62
21
149575.0
31
0
0
LINE
8
cut
10
97594.23
20
150425.0
30
0
11
97594.23
21
149575.0
31
0
0
LINE
8
cut
10
97594.23
20
150425.0
30
0
11
98444.23000000003
21
150425.0
31
0
0
LINE
8
cut
10
97594.23
20
149575.0
30
0
11
98444.23000000003
21
149575.0
31
0
0
LINE
8
cut
10
98444.23000000003
20
150425.0
30
0
11
98444.23000000003
21
149575.0
31
0
0
LINE
8
cut
10
109978.84999999999
20
150425.0
30
0
11
109978.84999999999
21
149575.0
31
0
0
LINE
8
cut
10
109978.84999999999
20
150425.0
30
0
11
110828.84999999999
21
150425.0
31
0
0
LINE
8
cut
10
109978.84999999999
20
149575.0
30
0
11
110828.84999999999
21
149575.0
31
0
0
LINE
8
cut
10
110828.84999999999
20
150425.0
30
0
11
110828.84999999999
21
149575.0
31
0
0
LINE
8
cut
10
122363.45999999999
20
150425.0
30
0
11
122363.45999999999
21
149575.0
31
0
0
LINE
8
cut
10
122363.45999999999
20
150425.0
30
0
11
123213.46
21
150425.0
31
0
0
LINE
8
cut
10
122363.45999999999
20
149575.0
30
0
11
123213.46
21
149575.0
31
0
0
LINE
8
cut
10
123213.46
20
150425.0
30
0
11
123213.46
21
149575.0
31
0
0
LINE
8
cut
10
134748.08
20
150425.0
30
0
11
134748.08
21
149575.0
31
0
0
LINE
8
cut
10
134748.08
20
150425.0
30
0
11
135598.08
21
150425.0
31
0
0
LINE
8
cut
10
134748.08
20
149575.0
30
0
11
135598.08
21
149575.0
31
0
0
LINE
8
cut
10
135598.08
20
150425.0
30
0
11
135598.08
21
149575.0
31
0
0
LINE
8
cut
10
147132.69
20
150425.0
30
0
11
147132.69
21
149575.0
31
0
0
LINE
8
cut
10
147132.69
20
150425.0
30
0
11
147982.69
21
150425.0
31
0
0
LINE
8
cut
10
147132.69
20
149575.0
30
0
11
147982.69
21
149575.0
31
0
0
LINE
8
cut
10
147982.69
20
150425.0
30
0
11
147982.69
21
149575.0
31
0
0
LINE
8
cut
10
159517.31
20
150425.0
30
0
11
159517.31
21
149575.0
31
0
0
LINE
8
cut
10
159517.31
20
150425.0
30
0
11
160367.31
21
150425.0
31
0
0
LINE
8
cut
10
159517.31
20
149575.0
30
0
11
160367.31
21
149575.0
31
0
0
LINE
8
cut
10
160367.31
20
150425.0
30
0
11
160367.31
21
149575.0
31
0
0
LINE
8
cut
10
171901.92
20
150425.0
30
0
11
171901.92
21
149575.0
31
0
0
LINE
8
cut
10
171901.92
20
150425.0
30
0
11
172751.92
21
150425.0
31
0
0
LINE
8
cut
10
171901.92
20
149575.0
30
0
11
172751.92
21
149575.0
31
0
0
LINE
8
cut
10
172751.92
20
150425.0
30
0
11
172751.92
21
149575.0
31
0
0
LINE
8
cut
10
184286.54
20
150425.0
30
0
11
184286.54
21
149575.0
31
0
0
LINE
8
cut
10
184286.54
20
150425.0
30
0
11
185136.54
21
150425.0
31
0
0
LINE
8
cut
10
184286.54
20
149575.0
30
0
11
185136.54
21
149575.0
31
0
0
LINE
8
cut
10
185136.54
20
150425.0
30
0
11
185136.54
21
149575.0
31
0
0
LINE
8
cut
10
196671.15000000002
20
150425.0
30
0
11
196671.15000000002
21
149575.0
31
0
0
LINE
8
cut
10
196671.15000000002
20
150425.0
30
0
11
197521.15
21
150425.0
31
0
0
LINE
8
cut
10
196671.15000000002
20
149575.0
30
0
11
197521.15
21
149575.0
31
0
0
LINE
8
cut
10
197521.15
20
150425.0
30
0
11
197521.15
21
149575.0
31
0
0
LINE
8
cut
10
209055.77
20
150425.0
30
0
11
209055.77
21
149575.0
31
0
0
LINE
8
cut
10
209055.77
20
150425.0
30
0
11
209905.77000000002
21
150425.0
31
0
0
LINE
8
cut
10
209055.77
20
149575.0
30
0
11
209905.77000000002
21
149575.0
31
0
0
LINE
8
cut
10
209905.77000000002
20
150425.0
30
0
11
209905.77000000002
21
149575.0
31
0
0
LINE
8
cut
10
221440.38
20
150425.0
30
0
11
221440.38
21
149575.0
31
0
0
LINE
8
cut
10
221440.38
20
150425.0
30
0
11
222290.38
21
150425.0
31
0
0
LINE
8
cut
10
221440.38
20
149575.0
30
0
11
222290.38
21
149575.0
31
0
0
LINE
8
cut
10
222290.38
20
150425.0
30
0
11
222290.38
21
149575.0
31
0
0
LINE
8
cut
10
233825.0
20
150425.0
30
0
11
233825.0
21
149575.0
31
0
0
LINE
8
cut
10
233825.0
20
150425.0
30
0
11
234674.99999999997
21
150425.0
31
0
0
LINE
8
cut
10
233825.0
20
149575.0
30
0
11
234674.99999999997
21
149575.0
31
0
0
LINE
8
cut
10
234674.99999999997
20
150425.0
30
0
11
234674.99999999997
21
149575.0
31
0
0
LINE
8
cut
10
72825.0
20
164675.0
30
0
11
72825.0
21
163825.0
31
0
0
LINE
8
cut
10
72825.0
20
164675.0
30
0
11
73675.0
21
164675.0
31
0
0
LINE
8
cut
10
72825.0
20
163825.0
30
0
11
73675.0
21
163825.0
31
0
0
LINE
8
cut
10
73675.0
20
164675.0
30
0
11
73675.0
21
163825.0
31
0
0
LINE
8
cut
10
85209.62
20
164675.0
30
0
11
85209.62
21
163825.0
31
0
0
LINE
8
cut
10
85209.62
20
164675.0
30
0
11
86059.62
21
164675.0
31
0
0
LINE
8
cut
10
85209.62
20
163825.0
30
0
11
86059.62
21
163825.0
31
0
0
LINE
8
cut
10
86059.62
20
164675.0
30
0
11
86059.62
21
163825.0
31
0
0
LINE
8
cut
10
97594.23
20
164675.0
30
0
11
97594.23
21
163825.0
31
0
0
LINE
8
cut
10
97594.23
20
164675.0
30
0
11
98444.23000000003
21
164675.0
31
0
0
LINE
8
cut
10
97594.23
20
163825.0
30
0
11
98444.23000000003
21
163825.0
31
0
0
LINE
8
cut
10
98444.23000000003
20
164675.0
30
0
11
98444.23000000003
21
163825.0
31
0
0
LINE
8
cut
10
109978.84999999999
20
164675.0
30
0
11
109978.84999999999
21
163825.0
31
0
0
LINE
8
cut
10
109978.84999999999
20
164675.0
30
0
11
110828.84999999999
21
164675.0
31
0
0
LINE
8
cut
10
109978.84999999999
20
163825.0
30
0
11
110828.84999999999
21
163825.0
31
0
0
LINE
8
cut
10
110828.84999999999
20
164675.0
30
0
11
110828.84999999999
21
163825.0
31
0
0
LINE
8
cut
10
122363.45999999999
20
164675.0
30
0
11
122363.45999999999
21
163825.0
31
0
0
LINE
8
cut
10
122363.45999999999
20
164675.0
30
0
11
123213.46
21
164675.0
31
0
0
LINE
8
cut
10
122363.45999999999
20
163825.0
30
0
11
123213.46
21
163825.0
31
0
0
LINE
8
cut
10
123213.46
20
164675.0
30
0
11
123213.46
21
163825.0
31
0
0
LINE
8
cut
10
134748.08
20
164675.0
30
0
11
134748.08
21
163825.0
31
0
0
LINE
8
cut
10
134748.08
20
164675.0
30
0
11
135598.08
21
164675.0
31
0
0
LINE
8
cut
10
134748.08
20
163825.0
30
0
11
135598.08
21
163825.0
31
0
0
LINE
8
cut
10
135598.08
20
164675.0
30
0
11
135598.08
21
163825.0
31
0
0
LINE
8
cut
10
147132.69
20
164675.0
30
0
11
147132.69
21
163825.0
31
0
0
LINE
8
cut
10
147132.69
20
164675.0
30
0
11
147982.69
21
164675.0
31
0
0
LINE
8
cut
10
147132.69
20
163825.0
30
0
11
147982.69
21
163825.0
31
0
0
LINE
8
cut
10
147982.69
20
164675.0
30
0
11
147982.69
21
163825.0
31
0
0
LINE
8
cut
10
159517.31
20
164675.0
30
0
11
159517.31
21
163825.0
31
0
0
LINE
8
cut
10
159517.31
20
164675.0
30
0
11
160367.31
21
164675.0
31
0
0
LINE
8
cut
10
159517.31
20
163825.0
30
0
11
160367.31
21
163825.0
31
0
0
LINE
8
cut
10
160367.31
20
164675.0
30
0
11
160367.31
21
163825.0
31
0
0
LINE
8
cut
10
171901.92
20
164675.0
30
0
11
171901.92
21
163825.0
31
0
0
LINE
8
cut
10
171901.92
20
164675.0
30
0
11
172751.92
21
164675.0
31
0
0
LINE
8
cut
10
171901.92
20
163825.0
30
0
11
172751.92
21
163825.0
31
0
0
LINE
8
cut
10
172751.92
20
164675.0
30
0
11
172751.92
21
163825.0
31
0
0
LINE
8
cut
10
184286.54
20
164675.0
30
0
11
184286.54
21
163825.0
31
0
0
LINE
8
cut
10
184286.54
20
164675.0
30
0
11
185136.54
21
164675.0
31
0
0
LINE
8
cut
10
184286.54
20
163825.0
30
0
11
185136.54
21
163825.0
31
0
0
LINE
8
cut
10
185136.54
20
164675.0
30
0
11
185136.54
21
163825.0
31
0
0
LINE
8
cut
10
196671.15000000002
20
164675.0
30
0
11
196671.15000000002
21
163825.0
31
0
0
LINE
8
cut
10
196671.15000000002
20
164675.0
30
0
11
197521.15
21
164675.0
31
0
0
LINE
8
cut
10
196671.15000000002
20
163825.0
30
0
11
197521.15
21
163825.0
31
0
0
LINE
8
cut
10
197521.15
20
164675.0
30
0
11
197521.15
21
163825.0
31
0
0
LINE
8
cut
10
209055.77
20
164675.0
30
0
11
209055.77
21
163825.0
31
0
0
LINE
8
cut
10
209055.77
20
164675.0
30
0
11
209905.77000000002
21
164675.0
31
0
0
LINE
8
cut
10
209055.77
20
163825.0
30
0
11
209905.77000000002
21
163825.0
31
0
0
LINE
8
cut
10
209905.77000000002
20
164675.0
30
0
11
209905.77000000002
21
163825.0
31
0
0
LINE
8
cut
10
221440.38
20
164675.0
30
0
11
221440.38
21
163825.0
31
0
0
LINE
8
cut
10
221440.38
20
164675.0
30
0
11
222290.38
21
164675.0
31
0
0
LINE
8
cut
10
221440.38
20
163825.0
30
0
11
222290.38
21
163825.0
31
0
0
LINE
8
cut
10
222290.38
20
164675.0
30
0
11
222290.38
21
163825.0
31
0
0
LINE
8
cut
10
233825.0
20
164675.0
30
0
11
233825.0
21
163825.0
31
0
0
LINE
8
cut
10
233825.0
20
164675.0
30
0
11
234674.99999999997
21
164675.0
31
0
0
LINE
8
cut
10
233825.0
20
163825.0
30
0
11
234674.99999999997
21
163825.0
31
0
0
LINE
8
cut
10
234674.99999999997
20
164675.0
30
0
11
234674.99999999997
21
163825.0
31
0
0
LINE
8
cut
10
72825.0
20
178925.0
30
0
11
72825.0
21
178075.0
31
0
0
LINE
8
cut
10
72825.0
20
178925.0
30
0
11
73675.0
21
178925.0
31
0
0
LINE
8
cut
10
72825.0
20
178075.0
30
0
11
73675.0
21
178075.0
31
0
0
LINE
8
cut
10
73675.0
20
178925.0
30
0
11
73675.0
21
178075.0
31
0
0
LINE
8
cut
10
85209.62
20
178925.0
30
0
11
85209.62
21
178075.0
31
0
0
LINE
8
cut
10
85209.62
20
178925.0
30
0
11
86059.62
21
178925.0
31
0
0
LINE
8
cut
10
85209.62
20
178075.0
30
0
11
86059.62
21
178075.0
31
0
0
LINE
8
cut
10
86059.62
20
178925.0
30
0
11
86059.62
21
178075.0
31
0
0
LINE
8
cut
10
97594.23
20
178925.0
30
0
11
97594.23
21
178075.0
31
0
0
LINE
8
cut
10
97594.23
20
178925.0
30
0
11
98444.23000000003
21
178925.0
31
0
0
LINE
8
cut
10
97594.23
20
178075.0
30
0
11
98444.23000000003
21
178075.0
31
0
0
LINE
8
cut
10
98444.23000000003
20
178925.0
30
0
11
98444.23000000003
21
178075.0
31
0
0
LINE
8
cut
10
109978.84999999999
20
178925.0
30
0
11
109978.84999999999
21
178075.0
31
0
0
LINE
8
cut
10
109978.84999999999
20
178925.0
30
0
11
110828.84999999999
21
178925.0
31
0
0
LINE
8
cut
10
109978.84999999999
20
178075.0
30
0
11
110828.84999999999
21
178075.0
31
0
0
LINE
8
cut
10
110828.84999999999
20
178925.0
30
0
11
110828.84999999999
21
178075.0
31
0
0
LINE
8
cut
10
122363.45999999999
20
178925.0
30
0
11
122363.45999999999
21
178075.0
31
0
0
LINE
8
cut
10
122363.45999999999
20
178925.0
30
0
11
123213.46
21
178925.0
31
0
0
LINE
8
cut
10
122363.45999999999
20
178075.0
30
0
11
123213.46
21
178075.0
31
0
0
LINE
8
cut
10
123213.46
20
178925.0
30
0
11
123213.46
21
178075.0
31
0
0
LINE
8
cut
10
134748.08
20
178925.0
30
0
11
134748.08
21
178075.0
31
0
0
LINE
8
cut
10
134748.08
20
178925.0
30
0
11
135598.08
21
178925.0
31
0
0
LINE
8
cut
10
134748.08
20
178075.0
30
0
11
135598.08
21
178075.0
31
0
0
LINE
8
cut
10
135598.08
20
178925.0
30
0
11
135598.08
21
178075.0
31
0
0
LINE
8
cut
10
147132.69
20
178925.0
30
0
11
147132.69
21
178075.0
31
0
0
LINE
8
cut
10
147132.69
20
178925.0
30
0
11
147982.69
21
178925.0
31
0
0
LINE
8
cut
10
147132.69
20
178075.0
30
0
11
147982.69
21
178075.0
31
0
0
LINE
8
cut
10
147982.69
20
178925.0
30
0
11
147982.69
21
178075.0
31
0
0
LINE
8
cut
10
159517.31
20
178925.0
30
0
11
159517.31
21
178075.0
31
0
0
LINE
8
cut
10
159517.31
20
178925.0
30
0
11
160367.31
21
178925.0
31
0
0
LINE
8
cut
10
159517.31
20
178075.0
30
0
11
160367.31
21
178075.0
31
0
0
LINE
8
cut
10
160367.31
20
178925.0
30
0
11
160367.31
21
178075.0
31
0
0
LINE
8
cut
10
171901.92
20
178925.0
30
0
11
171901.92
21
178075.0
31
0
0
LINE
8
cut
10
171901.92
20
178925.0
30
0
11
172751.92
21
178925.0
31
0
0
LINE
8
cut
10
171901.92
20
178075.0
30
0
11
172751.92
21
178075.0
31
0
0
LINE
8
cut
10
172751.92
20
178925.0
30
0
11
172751.92
21
178075.0
31
0
0
LINE
8
cut
10
184286.54
20
178925.0
30
0
11
184286.54
21
178075.0
31
0
0
LINE
8
cut
10
184286.54
20
178925.0
30
0
11
185136.54
21
178925.0
31
0
0
LINE
8
cut
10
184286.54
20
178075.0
30
0
11
185136.54
21
178075.0
31
0
0
LINE
8
cut
10
185136.54
20
178925.0
30
0
11
185136.54
21
178075.0
31
0
0
LINE
8
cut
10
196671.15000000002
20
178925.0
30
0
11
196671.15000000002
21
178075.0
31
0
0
LINE
8
cut
10
196671.15000000002
20
178925.0
30
0
11
197521.15
21
178925.0
31
0
0
LINE
8
cut
10
196671.15000000002
20
178075.0
30
0
11
197521.15
21
178075.0
31
0
0
LINE
8
cut
10
197521.15
20
178925.0
30
0
11
197521.15
21
178075.0
31
0
0
LINE
8
cut
10
209055.77
20
178925.0
30
0
11
209055.77
21
178075.0
31
0
0
LINE
8
cut
10
209055.77
20
178925.0
30
0
11
209905.77000000002
21
178925.0
31
0
0
LINE
8
cut
10
209055.77
20
178075.0
30
0
11
209905.77000000002
21
178075.0
31
0
0
LINE
8
cut
10
209905.77000000002
20
178925.0
30
0
11
209905.77000000002
21
178075.0
31
0
0
LINE
8
cut
10
221440.38
20
178925.0
30
0
11
221440.38
21
178075.0
31
0
0
LINE
8
cut
10
221440.38
20
178925.0
30
0
11
222290.38
21
178925.0
31
0
0
LINE
8
cut
10
221440.38
20
178075.0
30
0
11
222290.38
21
178075.0
31
0
0
LINE
8
cut
10
222290.38
20
178925.0
30
0
11
222290.38
21
178075.0
31
0
0
LINE
8
cut
10
233825.0
20
178925.0
30
0
11
233825.0
21
178075.0
31
0
0
LINE
8
cut
10
233825.0
20
178925.0
30
0
11
234674.99999999997
21
178925.0
31
0
0
LINE
8
cut
10
233825.0
20
178075.0
30
0
11
234674.99999999997
21
178075.0
31
0
0
LINE
8
cut
10
234674.99999999997
20
178925.0
30
0
11
234674.99999999997
21
178075.0
31
0
0
LINE
8
cut
10
71750.0
20
63149.99999999999
30
0
11
71750.0
21
62850.00000000001
31
0
0
LINE
8
cut
10
71750.0
20
63149.99999999999
30
0
11
235750.0
21
63149.99999999999
31
0
0
LINE
8
cut
10
71750.0
20
62850.00000000001
30
0
11
235750.0
21
62850.00000000001
31
0
0
LINE
8
cut
10
235750.0
20
63149.99999999999
30
0
11
235750.0
21
62850.00000000001
31
0
0
LINE
8
cut
10
71727.5
20
62845.000000000015
30
0
11
71727.5
21
62755.00000000001
31
0
0
LINE
8
cut
10
71727.5
20
62845.000000000015
30
0
11
71772.5
21
62845.000000000015
31
0
0
LINE
8
cut
10
71727.5
20
62755.00000000001
30
0
11
71772.5
21
62755.00000000001
31
0
0
LINE
8
cut
10
71772.5
20
62845.000000000015
30
0
11
71772.5
21
62755.00000000001
31
0
0
LINE
8
cut
10
73227.5
20
62845.000000000015
30
0
11
73227.5
21
62755.00000000001
31
0
0
LINE
8
cut
10
73227.5
20
62845.000000000015
30
0
11
73272.5
21
62845.000000000015
31
0
0
LINE
8
cut
10
73227.5
20
62755.00000000001
30
0
11
73272.5
21
62755.00000000001
31
0
0
LINE
8
cut
10
73272.5
20
62845.000000000015
30
0
11
73272.5
21
62755.00000000001
31
0
0
LINE
8
cut
10
74727.5
20
62845.000000000015
30
0
11
74727.5
21
62755.00000000001
31
0
0
LINE
8
cut
10
74727.5
20
62845.000000000015
30
0
11
74772.5
21
62845.000000000015
31
0
0
LINE
8
cut
10
74727.5
20
62755.00000000001
30
0
11
74772.5
21
62755.00000000001
31
0
0
LINE
8
cut
10
74772.5
20
62845.000000000015
30
0
11
74772.5
21
62755.00000000001
31
0
0
LINE
8
cut
10
76227.5
20
62845.000000000015
30
0
11
76227.5
21
62755.00000000001
31
0
0
LINE
8
cut
10
76227.5
20
62845.000000000015
30
0
11
76272.5
21
62845.000000000015
31
0
0
LINE
8
cut
10
76227.5
20
62755.00000000001
30
0
11
76272.5
21
62755.00000000001
31
0
0
LINE
8
cut
10
76272.5
20
62845.000000000015
30
0
11
76272.5
21
62755.00000000001
31
0
0
LINE
8
cut
10
77727.5
20
62845.000000000015
30
0
11
77727.5
21
62755.00000000001
31
0
0
LINE
8
cut
10
77727.5
20
62845.000000000015
30
0
11
77772.5
21
62845.000000000015
31
0
0
LINE
8
cut
10
77727.5
20
62755.00000000001
30
0
11
77772.5
21
62755.00000000001
31
0
0
LINE
8
cut
10
77772.5
20
62845.000000000015
30
0
11
77772.5
21
62755.00000000001
31
0
0
LINE
8
cut
10
79227.5
20
62845.000000000015
30
0
11
79227.5
21
62755.00000000001
31
0
0
LINE
8
cut
10
79227.5
20
62845.000000000015
30
0
11
79272.5
21
62845.000000000015
31
0
0
LINE
8
cut
10
79227.5
20
62755.00000000001
30
0
11
79272.5
21
62755.00000000001
31
0
0
LINE
8
cut
10
79272.5
20
62845.000000000015
30
0
11
79272.5
21
62755.00000000001
31
0
0
LINE
8
cut
10
80727.5
20
62845.000000000015
30
0
11
80727.5
21
62755.00000000001
31
0
0
LINE
8
cut
10
80727.5
20
62845.000000000015
30
0
11
80772.5
21
62845.000000000015
31
0
0
LINE
8
cut
10
80727.5
20
62755.00000000001
30
0
11
80772.5
21
62755.00000000001
31
0
0
LINE
8
cut
10
80772.5
20
62845.000000000015
30
0
11
80772.5
21
62755.00000000001
31
0
0
LINE
8
cut
10
82227.5
20
62845.000000000015
30
0
11
82227.5
21
62755.00000000001
31
0
0
LINE
8
cut
10
82227.5
20
62845.000000000015
30
0
11
82272.5
21
62845.000000000015
31
0
0
LINE
8
cut
10
82227.5
20
62755.00000000001
30
0
11
82272.5
21
62755.00000000001
31
0
0
LINE
8
cut
10
82272.5
20
62845.000000000015
30
0
11
82272.5
21
62755.00000000001
31
0
0
LINE
8
cut
10
83727.5
20
62845.000000000015
30
0
11
83727.5
21
62755.00000000001
31
0
0
LINE
8
cut
10
83727.5
20
62845.000000000015
30
0
11
83772.5
21
62845.000000000015
31
0
0
LINE
8
cut
10
83727.5
20
62755.00000000001
30
0
11
83772.5
21
62755.00000000001
31
0
0
LINE
8
cut
10
83772.5
20
62845.000000000015
30
0
11
83772.5
21
62755.00000000001
31
0
0
LINE
8
cut
10
85227.5
20
62845.000000000015
30
0
11
85227.5
21
62755.00000000001
31
0
0
LINE
8
cut
10
85227.5
20
62845.000000000015
30
0
11
85272.5
21
62845.000000000015
31
0
0
LINE
8
cut
10
85227.5
20
62755.00000000001
30
0
11
85272.5
21
62755.00000000001
31
0
0
LINE
8
cut
10
85272.5
20
62845.000000000015
30
0
11
85272.5
21
62755.00000000001
31
0
0
LINE
8
cut
10
86727.5
20
62845.000000000015
30
0
11
86727.5
21
62755.00000000001
31
0
0
LINE
8
cut
10
86727.5
20
62845.000000000015
30
0
11
86772.5
21
62845.000000000015
31
0
0
LINE
8
cut
10
86727.5
20
62755.00000000001
30
0
11
86772.5
21
62755.00000000001
31
0
0
LINE
8
cut
10
86772.5
20
62845.000000000015
30
0
11
86772.5
21
62755.00000000001
31
0
0
LINE
8
cut
10
88227.5
20
62845.000000000015
30
0
11
88227.5
21
62755.00000000001
31
0
0
LINE
8
cut
10
88227.5
20
62845.000000000015
30
0
11
88272.5
21
62845.000000000015
31
0
0
LINE
8
cut
10
88227.5
20
62755.00000000001
30
0
11
88272.5
21
62755.00000000001
31
0
0
LINE
8
cut
10
88272.5
20
62845.000000000015
30
0
11
88272.5
21
62755.00000000001
31
0
0
LINE
8
cut
10
89727.5
20
62845.000000000015
30
0
11
89727.5
21
62755.00000000001
31
0
0
LINE
8
cut
10
89727.5
20
62845.000000000015
30
0
11
89772.5
21
62845.000000000015
31
0
0
LINE
8
cut
10
89727.5
20
62755.00000000001
30
0
11
89772.5
21
62755.00000000001
31
0
0
LINE
8
cut
10
89772.5
20
62845.000000000015
30
0
11
89772.5
21
62755.00000000001
31
0
0
LINE
8
cut
10
91227.5
20
62845.000000000015
30
0
11
91227.5
21
62755.00000000001
31
0
0
LINE
8
cut
10
91227.5
20
62845.000000000015
30
0
11
91272.5
21
62845.000000000015
31
0
0
LINE
8
cut
10
91227.5
20
62755.00000000001
30
0
11
91272.5
21
62755.00000000001
31
0
0
LINE
8
cut
10
91272.5
20
62845.000000000015
30
0
11
91272.5
21
62755.00000000001
31
0
0
LINE
8
cut
10
92727.5
20
62845.000000000015
30
0
11
92727.5
21
62755.00000000001
31
0
0
LINE
8
cut
10
92727.5
20
62845.000000000015
30
0
11
92772.5
21
62845.000000000015
31
0
0
LINE
8
cut
10
92727.5
20
62755.00000000001
30
0
11
92772.5
21
62755.00000000001
31
0
0
LINE
8
cut
10
92772.5
20
62845.000000000015
30
0
11
92772.5
21
62755.00000000001
31
0
0
LINE
8
cut
10
94227.5
20
62845.000000000015
30
0
11
94227.5
21
62755.00000000001
31
0
0
LINE
8
cut
10
94227.5
20
62845.000000000015
30
0
11
94272.5
21
62845.000000000015
31
0
0
LINE
8
cut
10
94227.5
20
62755.00000000001
30
0
11
94272.5
21
62755.00000000001
31
0
0
LINE
8
cut
10
94272.5
20
62845.000000000015
30
0
11
94272.5
21
62755.00000000001
31
0
0
LINE
8
cut
10
95727.5
20
62845.000000000015
30
0
11
95727.5
21
62755.00000000001
31
0
0
LINE
8
cut
10
95727.5
20
62845.000000000015
30
0
11
95772.5
21
62845.000000000015
31
0
0
LINE
8
cut
10
95727.5
20
62755.00000000001
30
0
11
95772.5
21
62755.00000000001
31
0
0
LINE
8
cut
10
95772.5
20
62845.000000000015
30
0
11
95772.5
21
62755.00000000001
31
0
0
LINE
8
cut
10
97227.49999999999
20
62845.000000000015
30
0
11
97227.49999999999
21
62755.00000000001
31
0
0
LINE
8
cut
10
97227.49999999999
20
62845.000000000015
30
0
11
97272.5
21
62845.000000000015
31
0
0
LINE
8
cut
10
97227.49999999999
20
62755.00000000001
30
0
11
97272.5
21
62755.00000000001
31
0
0
LINE
8
cut
10
97272.5
20
62845.000000000015
30
0
11
97272.5
21
62755.00000000001
31
0
0
LINE
8
cut
10
98727.49999999999
20
62845.000000000015
30
0
11
98727.49999999999
21
62755.00000000001
31
0
0
LINE
8
cut
10
98727.49999999999
20
62845.000000000015
30
0
11
98772.5
21
62845.000000000015
31
0
0
LINE
8
cut
10
98727.49999999999
20
62755.00000000001
30
0
11
98772.5
21
62755.00000000001
31
0
0
LINE
8
cut
10
98772.5
20
62845.000000000015
30
0
11
98772.5
21
62755.00000000001
31
0
0
LINE
8
cut
10
100227.49999999999
20
62845.000000000015
30
0
11
100227.49999999999
21
62755.00000000001
31
0
0
LINE
8
cut
10
100227.49999999999
20
62845.000000000015
30
0
11
100272.5
21
62845.000000000015
31
0
0
LINE
8
cut
10
100227.49999999999
20
62755.00000000001
30
0
11
100272.5
21
62755.00000000001
31
0
0
LINE
8
cut
10
100272.5
20
62845.000000000015
30
0
11
100272.5
21
62755.00000000001
31
0
0
LINE
8
cut
10
101727.49999999999
20
62845.000000000015
30
0
11
101727.49999999999
21
62755.00000000001
31
0
0
LINE
8
cut
10
101727.49999999999
20
62845.000000000015
30
0
11
101772.5
21
62845.000000000015
31
0
0
LINE
8
cut
10
101727.49999999999
20
62755.00000000001
30
0
11
101772.5
21
62755.00000000001
31
0
0
LINE
8
cut
10
101772.5
20
62845.000000000015
30
0
11
101772.5
21
62755.00000000001
31
0
0
LINE
8
cut
10
103227.49999999999
20
62845.000000000015
30
0
11
103227.49999999999
21
62755.00000000001
31
0
0
LINE
8
cut
10
103227.49999999999
20
62845.000000000015
30
0
11
103272.5
21
62845.000000000015
31
0
0
LINE
8
cut
10
103227.49999999999
20
62755.00000000001
30
0
11
103272.5
21
62755.00000000001
31
0
0
LINE
8
cut
10
103272.5
20
62845.000000000015
30
0
11
103272.5
21
62755.00000000001
31
0
0
LINE
8
cut
10
104727.49999999999
20
62845.000000000015
30
0
11
104727.49999999999
21
62755.00000000001
31
0
0
LINE
8
cut
10
104727.49999999999
20
62845.000000000015
30
0
11
104772.5
21
62845.000000000015
31
0
0
LINE
8
cut
10
104727.49999999999
20
62755.00000000001
30
0
11
104772.5
21
62755.00000000001
31
0
0
LINE
8
cut
10
104772.5
20
62845.000000000015
30
0
11
104772.5
21
62755.00000000001
31
0
0
LINE
8
cut
10
106227.49999999999
20
62845.000000000015
30
0
11
106227.49999999999
21
62755.00000000001
31
0
0
LINE
8
cut
10
106227.49999999999
20
62845.000000000015
30
0
11
106272.5
21
62845.000000000015
31
0
0
LINE
8
cut
10
106227.49999999999
20
62755.00000000001
30
0
11
106272.5
21
62755.00000000001
31
0
0
LINE
8
cut
10
106272.5
20
62845.000000000015
30
0
11
106272.5
21
62755.00000000001
31
0
0
LINE
8
cut
10
107727.49999999999
20
62845.000000000015
30
0
11
107727.49999999999
21
62755.00000000001
31
0
0
LINE
8
cut
10
107727.49999999999
20
62845.000000000015
30
0
11
107772.5
21
62845.000000000015
31
0
0
LINE
8
cut
10
107727.49999999999
20
62755.00000000001
30
0
11
107772.5
21
62755.00000000001
31
0
0
LINE
8
cut
10
107772.5
20
62845.000000000015
30
0
11
107772.5
21
62755.00000000001
31
0
0
LINE
8
cut
10
109227.49999999999
20
62845.000000000015
30
0
11
109227.49999999999
21
62755.00000000001
31
0
0
LINE
8
cut
10
109227.49999999999
20
62845.000000000015
30
0
11
109272.5
21
62845.000000000015
31
0
0
LINE
8
cut
10
109227.49999999999
20
62755.00000000001
30
0
11
109272.5
21
62755.00000000001
31
0
0
LINE
8
cut
10
109272.5
20
62845.000000000015
30
0
11
109272.5
21
62755.00000000001
31
0
0
LINE
8
cut
10
110727.49999999999
20
62845.000000000015
30
0
11
110727.49999999999
21
62755.00000000001
31
0
0
LINE
8
cut
10
110727.49999999999
20
62845.000000000015
30
0
11
110772.5
21
62845.000000000015
31
0
0
LINE
8
cut
10
110727.49999999999
20
62755.00000000001
30
0
11
110772.5
21
62755.00000000001
31
0
0
LINE
8
cut
10
110772.5
20
62845.000000000015
30
0
11
110772.5
21
62755.00000000001
31
0
0
LINE
8
cut
10
112227.49999999999
20
62845.000000000015
30
0
11
112227.49999999999
21
62755.00000000001
31
0
0
LINE
8
cut
10
112227.49999999999
20
62845.000000000015
30
0
11
112272.5
21
62845.000000000015
31
0
0
LINE
8
cut
10
112227.49999999999
20
62755.00000000001
30
0
11
112272.5
21
62755.00000000001
31
0
0
LINE
8
cut
10
112272.5
20
62845.000000000015
30
0
11
112272.5
21
62755.00000000001
31
0
0
LINE
8
cut
10
113727.49999999999
20
62845.000000000015
30
0
11
113727.49999999999
21
62755.00000000001
31
0
0
LINE
8
cut
10
113727.49999999999
20
62845.000000000015
30
0
11
113772.5
21
62845.000000000015
31
0
0
LINE
8
cut
10
113727.49999999999
20
62755.00000000001
30
0
11
113772.5
21
62755.00000000001
31
0
0
LINE
8
cut
10
113772.5
20
62845.000000000015
30
0
11
113772.5
21
62755.00000000001
31
0
0
LINE
8
cut
10
115227.49999999999
20
62845.000000000015
30
0
11
115227.49999999999
21
62755.00000000001
31
0
0
LINE
8
cut
10
115227.49999999999
20
62845.000000000015
30
0
11
115272.5
21
62845.000000000015
31
0
0
LINE
8
cut
10
115227.49999999999
20
62755.00000000001
30
0
11
115272.5
21
62755.00000000001
31
0
0
LINE
8
cut
10
115272.5
20
62845.000000000015
30
0
11
115272.5
21
62755.00000000001
31
0
0
LINE
8
cut
10
116727.49999999999
20
62845.000000000015
30
0
11
116727.49999999999
21
62755.00000000001
31
0
0
LINE
8
cut
10
116727.49999999999
20
62845.000000000015
30
0
11
116772.5
21
62845.000000000015
31
0
0
LINE
8
cut
10
116727.49999999999
20
62755.00000000001
30
0
11
116772.5
21
62755.00000000001
31
0
0
LINE
8
cut
10
116772.5
20
62845.000000000015
30
0
11
116772.5
21
62755.00000000001
31
0
0
LINE
8
cut
10
118227.49999999999
20
62845.000000000015
30
0
11
118227.49999999999
21
62755.00000000001
31
0
0
LINE
8
cut
10
118227.49999999999
20
62845.000000000015
30
0
11
118272.5
21
62845.000000000015
31
0
0
LINE
8
cut
10
118227.49999999999
20
62755.00000000001
30
0
11
118272.5
21
62755.00000000001
31
0
0
LINE
8
cut
10
118272.5
20
62845.000000000015
30
0
11
118272.5
21
62755.00000000001
31
0
0
LINE
8
cut
10
119727.49999999999
20
62845.000000000015
30
0
11
119727.49999999999
21
62755.00000000001
31
0
0
LINE
8
cut
10
119727.49999999999
20
62845.000000000015
30
0
11
119772.5
21
62845.000000000015
31
0
0
LINE
8
cut
10
119727.49999999999
20
62755.00000000001
30
0
11
119772.5
21
62755.00000000001
31
0
0
LINE
8
cut
10
119772.5
20
62845.000000000015
30
0
11
119772.5
21
62755.00000000001
31
0
0
LINE
8
cut
10
121227.49999999999
20
62845.000000000015
30
0
11
121227.49999999999
21
62755.00000000001
31
0
0
LINE
8
cut
10
121227.49999999999
20
62845.000000000015
30
0
11
121272.5
21
62845.000000000015
31
0
0
LINE
8
cut
10
121227.49999999999
20
62755.00000000001
30
0
11
121272.5
21
62755.00000000001
31
0
0
LINE
8
cut
10
121272.5
20
62845.000000000015
30
0
11
121272.5
21
62755.00000000001
31
0
0
LINE
8
cut
10
122727.49999999999
20
62845.000000000015
30
0
11
122727.49999999999
21
62755.00000000001
31
0
0
LINE
8
cut
10
122727.49999999999
20
62845.000000000015
30
0
11
122772.5
21
62845.000000000015
31
0
0
LINE
8
cut
10
122727.49999999999
20
62755.00000000001
30
0
11
122772.5
21
62755.00000000001
31
0
0
LINE
8
cut
10
122772.5
20
62845.000000000015
30
0
11
122772.5
21
62755.00000000001
31
0
0
LINE
8
cut
10
124227.49999999999
20
62845.000000000015
30
0
11
124227.49999999999
21
62755.00000000001
31
0
0
LINE
8
cut
10
124227.49999999999
20
62845.000000000015
30
0
11
124272.5
21
62845.000000000015
31
0
0
LINE
8
cut
10
124227.49999999999
20
62755.00000000001
30
0
11
124272.5
21
62755.00000000001
31
0
0
LINE
8
cut
10
124272.5
20
62845.000000000015
30
0
11
124272.5
21
62755.00000000001
31
0
0
LINE
8
cut
10
125727.49999999999
20
62845.000000000015
30
0
11
125727.49999999999
21
62755.00000000001
31
0
0
LINE
8
cut
10
125727.49999999999
20
62845.000000000015
30
0
11
125772.5
21
62845.000000000015
31
0
0
LINE
8
cut
10
125727.49999999999
20
62755.00000000001
30
0
11
125772.5
21
62755.00000000001
31
0
0
LINE
8
cut
10
125772.5
20
62845.000000000015
30
0
11
125772.5
21
62755.00000000001
31
0
0
LINE
8
cut
10
127227.49999999999
20
62845.000000000015
30
0
11
127227.49999999999
21
62755.00000000001
31
0
0
LINE
8
cut
10
127227.49999999999
20
62845.000000000015
30
0
11
127272.5
21
62845.000000000015
31
0
0
LINE
8
cut
10
127227.49999999999
20
62755.00000000001
30
0
11
127272.5
21
62755.00000000001
31
0
0
LINE
8
cut
10
127272.5
20
62845.000000000015
30
0
11
127272.5
21
62755.00000000001
31
0
0
LINE
8
cut
10
128727.49999999999
20
62845.000000000015
30
0
11
128727.49999999999
21
62755.00000000001
31
0
0
LINE
8
cut
10
128727.49999999999
20
62845.000000000015
30
0
11
128772.5
21
62845.000000000015
31
0
0
LINE
8
cut
10
128727.49999999999
20
62755.00000000001
30
0
11
128772.5
21
62755.00000000001
31
0
0
LINE
8
cut
10
128772.5
20
62845.000000000015
30
0
11
128772.5
21
62755.00000000001
31
0
0
LINE
8
cut
10
130227.49999999999
20
62845.000000000015
30
0
11
130227.49999999999
21
62755.00000000001
31
0
0
LINE
8
cut
10
130227.49999999999
20
62845.000000000015
30
0
11
130272.5
21
62845.000000000015
31
0
0
LINE
8
cut
10
130227.49999999999
20
62755.00000000001
30
0
11
130272.5
21
62755.00000000001
31
0
0
LINE
8
cut
10
130272.5
20
62845.000000000015
30
0
11
130272.5
21
62755.00000000001
31
0
0
LINE
8
cut
10
131727.5
20
62845.000000000015
30
0
11
131727.5
21
62755.00000000001
31
0
0
LINE
8
cut
10
131727.5
20
62845.000000000015
30
0
11
131772.5
21
62845.000000000015
31
0
0
LINE
8
cut
10
131727.5
20
62755.00000000001
30
0
11
131772.5
21
62755.00000000001
31
0
0
LINE
8
cut
10
131772.5
20
62845.000000000015
30
0
11
131772.5
21
62755.00000000001
31
0
0
LINE
8
cut
10
133227.5
20
62845.000000000015
30
0
11
133227.5
21
62755.00000000001
31
0
0
LINE
8
cut
10
133227.5
20
62845.000000000015
30
0
11
133272.5
21
62845.000000000015
31
0
0
LINE
8
cut
10
133227.5
20
62755.00000000001
30
0
11
133272.5
21
62755.00000000001
31
0
0
LINE
8
cut
10
133272.5
20
62845.000000000015
30
0
11
133272.5
21
62755.00000000001
31
0
0
LINE
8
cut
10
134727.5
20
62845.000000000015
30
0
11
134727.5
21
62755.00000000001
31
0
0
LINE
8
cut
10
134727.5
20
62845.000000000015
30
0
11
134772.5
21
62845.000000000015
31
0
0
LINE
8
cut
10
134727.5
20
62755.00000000001
30
0
11
134772.5
21
62755.00000000001
31
0
0
LINE
8
cut
10
134772.5
20
62845.000000000015
30
0
11
134772.5
21
62755.00000000001
31
0
0
LINE
8
cut
10
136227.5
20
62845.000000000015
30
0
11
136227.5
21
62755.00000000001
31
0
0
LINE
8
cut
10
136227.5
20
62845.000000000015
30
0
11
136272.5
21
62845.000000000015
31
0
0
LINE
8
cut
10
136227.5
20
62755.00000000001
30
0
11
136272.5
21
62755.00000000001
31
0
0
LINE
8
cut
10
136272.5
20
62845.000000000015
30
0
11
136272.5
21
62755.00000000001
31
0
0
LINE
8
cut
10
137727.5
20
62845.000000000015
30
0
11
137727.5
21
62755.00000000001
31
0
0
LINE
8
cut
10
137727.5
20
62845.000000000015
30
0
11
137772.5
21
62845.000000000015
31
0
0
LINE
8
cut
10
137727.5
20
62755.00000000001
30
0
11
137772.5
21
62755.00000000001
31
0
0
LINE
8
cut
10
137772.5
20
62845.000000000015
30
0
11
137772.5
21
62755.00000000001
31
0
0
LINE
8
cut
10
139227.5
20
62845.000000000015
30
0
11
139227.5
21
62755.00000000001
31
0
0
LINE
8
cut
10
139227.5
20
62845.000000000015
30
0
11
139272.5
21
62845.000000000015
31
0
0
LINE
8
cut
10
139227.5
20
62755.00000000001
30
0
11
139272.5
21
62755.00000000001
31
0
0
LINE
8
cut
10
139272.5
20
62845.000000000015
30
0
11
139272.5
21
62755.00000000001
31
0
0
LINE
8
cut
10
140727.5
20
62845.000000000015
30
0
11
140727.5
21
62755.00000000001
31
0
0
LINE
8
cut
10
140727.5
20
62845.000000000015
30
0
11
140772.5
21
62845.000000000015
31
0
0
LINE
8
cut
10
140727.5
20
62755.00000000001
30
0
11
140772.5
21
62755.00000000001
31
0
0
LINE
8
cut
10
140772.5
20
62845.000000000015
30
0
11
140772.5
21
62755.00000000001
31
0
0
LINE
8
cut
10
142227.5
20
62845.000000000015
30
0
11
142227.5
21
62755.00000000001
31
0
0
LINE
8
cut
10
142227.5
20
62845.000000000015
30
0
11
142272.5
21
62845.000000000015
31
0
0
LINE
8
cut
10
142227.5
20
62755.00000000001
30
0
11
142272.5
21
62755.00000000001
31
0
0
LINE
8
cut
10
142272.5
20
62845.000000000015
30
0
11
142272.5
21
62755.00000000001
31
0
0
LINE
8
cut
10
143727.5
20
62845.000000000015
30
0
11
143727.5
21
62755.00000000001
31
0
0
LINE
8
cut
10
143727.5
20
62845.000000000015
30
0
11
143772.5
21
62845.000000000015
31
0
0
LINE
8
cut
10
143727.5
20
62755.00000000001
30
0
11
143772.5
21
62755.00000000001
31
0
0
LINE
8
cut
10
143772.5
20
62845.000000000015
30
0
11
143772.5
21
62755.00000000001
31
0
0
LINE
8
cut
10
145227.5
20
62845.000000000015
30
0
11
145227.5
21
62755.00000000001
31
0
0
LINE
8
cut
10
145227.5
20
62845.000000000015
30
0
11
145272.5
21
62845.000000000015
31
0
0
LINE
8
cut
10
145227.5
20
62755.00000000001
30
0
11
145272.5
21
62755.00000000001
31
0
0
LINE
8
cut
10
145272.5
20
62845.000000000015
30
0
11
145272.5
21
62755.00000000001
31
0
0
LINE
8
cut
10
146727.5
20
62845.000000000015
30
0
11
146727.5
21
62755.00000000001
31
0
0
LINE
8
cut
10
146727.5
20
62845.000000000015
30
0
11
146772.5
21
62845.000000000015
31
0
0
LINE
8
cut
10
146727.5
20
62755.00000000001
30
0
11
146772.5
21
62755.00000000001
31
0
0
LINE
8
cut
10
146772.5
20
62845.000000000015
30
0
11
146772.5
21
62755.00000000001
31
0
0
LINE
8
cut
10
148227.5
20
62845.000000000015
30
0
11
148227.5
21
62755.00000000001
31
0
0
LINE
8
cut
10
148227.5
20
62845.000000000015
30
0
11
148272.5
21
62845.000000000015
31
0
0
LINE
8
cut
10
148227.5
20
62755.00000000001
30
0
11
148272.5
21
62755.00000000001
31
0
0
LINE
8
cut
10
148272.5
20
62845.000000000015
30
0
11
148272.5
21
62755.00000000001
31
0
0
LINE
8
cut
10
149727.5
20
62845.000000000015
30
0
11
149727.5
21
62755.00000000001
31
0
0
LINE
8
cut
10
149727.5
20
62845.000000000015
30
0
11
149772.5
21
62845.000000000015
31
0
0
LINE
8
cut
10
149727.5
20
62755.00000000001
30
0
11
149772.5
21
62755.00000000001
31
0
0
LINE
8
cut
10
149772.5
20
62845.000000000015
30
0
11
149772.5
21
62755.00000000001
31
0
0
LINE
8
cut
10
151227.5
20
62845.000000000015
30
0
11
151227.5
21
62755.00000000001
31
0
0
LINE
8
cut
10
151227.5
20
62845.000000000015
30
0
11
151272.5
21
62845.000000000015
31
0
0
LINE
8
cut
10
151227.5
20
62755.00000000001
30
0
11
151272.5
21
62755.00000000001
31
0
0
LINE
8
cut
10
151272.5
20
62845.000000000015
30
0
11
151272.5
21
62755.00000000001
31
0
0
LINE
8
cut
10
152727.5
20
62845.000000000015
30
0
11
152727.5
21
62755.00000000001
31
0
0
LINE
8
cut
10
152727.5
20
62845.000000000015
30
0
11
152772.5
21
62845.000000000015
31
0
0
LINE
8
cut
10
152727.5
20
62755.00000000001
30
0
11
152772.5
21
62755.00000000001
31
0
0
LINE
8
cut
10
152772.5
20
62845.000000000015
30
0
11
152772.5
21
62755.00000000001
31
0
0
LINE
8
cut
10
154227.5
20
62845.000000000015
30
0
11
154227.5
21
62755.00000000001
31
0
0
LINE
8
cut
10
154227.5
20
62845.000000000015
30
0
11
154272.5
21
62845.000000000015
31
0
0
LINE
8
cut
10
154227.5
20
62755.00000000001
30
0
11
154272.5
21
62755.00000000001
31
0
0
LINE
8
cut
10
154272.5
20
62845.000000000015
30
0
11
154272.5
21
62755.00000000001
31
0
0
LINE
8
cut
10
155727.5
20
62845.000000000015
30
0
11
155727.5
21
62755.00000000001
31
0
0
LINE
8
cut
10
155727.5
20
62845.000000000015
30
0
11
155772.5
21
62845.000000000015
31
0
0
LINE
8
cut
10
155727.5
20
62755.00000000001
30
0
11
155772.5
21
62755.00000000001
31
0
0
LINE
8
cut
10
155772.5
20
62845.000000000015
30
0
11
155772.5
21
62755.00000000001
31
0
0
LINE
8
cut
10
157227.5
20
62845.000000000015
30
0
11
157227.5
21
62755.00000000001
31
0
0
LINE
8
cut
10
157227.5
20
62845.000000000015
30
0
11
157272.5
21
62845.000000000015
31
0
0
LINE
8
cut
10
157227.5
20
62755.00000000001
30
0
11
157272.5
21
62755.00000000001
31
0
0
LINE
8
cut
10
157272.5
20
62845.000000000015
30
0
11
157272.5
21
62755.00000000001
31
0
0
LINE
8
cut
10
158727.5
20
62845.000000000015
30
0
11
158727.5
21
62755.00000000001
31
0
0
LINE
8
cut
10
158727.5
20
62845.000000000015
30
0
11
158772.5
21
62845.000000000015
31
0
0
LINE
8
cut
10
158727.5
20
62755.00000000001
30
0
11
158772.5
21
62755.00000000001
31
0
0
LINE
8
cut
10
158772.5
20
62845.000000000015
30
0
11
158772.5
21
62755.00000000001
31
0
0
LINE
8
cut
10
160227.5
20
62845.000000000015
30
0
11
160227.5
21
62755.00000000001
31
0
0
LINE
8
cut
10
160227.5
20
62845.000000000015
30
0
11
160272.5
21
62845.000000000015
31
0
0
LINE
8
cut
10
160227.5
20
62755.00000000001
30
0
11
160272.5
21
62755.00000000001
31
0
0
LINE
8
cut
10
160272.5
20
62845.000000000015
30
0
11
160272.5
21
62755.00000000001
31
0
0
LINE
8
cut
10
161727.5
20
62845.000000000015
30
0
11
161727.5
21
62755.00000000001
31
0
0
LINE
8
cut
10
161727.5
20
62845.000000000015
30
0
11
161772.5
21
62845.000000000015
31
0
0
LINE
8
cut
10
161727.5
20
62755.00000000001
30
0
11
161772.5
21
62755.00000000001
31
0
0
LINE
8
cut
10
161772.5
20
62845.000000000015
30
0
11
161772.5
21
62755.00000000001
31
0
0
LINE
8
cut
10
163227.5
20
62845.000000000015
30
0
11
163227.5
21
62755.00000000001
31
0
0
LINE
8
cut
10
163227.5
20
62845.000000000015
30
0
11
163272.5
21
62845.000000000015
31
0
0
LINE
8
cut
10
163227.5
20
62755.00000000001
30
0
11
163272.5
21
62755.00000000001
31
0
0
LINE
8
cut
10
163272.5
20
62845.000000000015
30
0
11
163272.5
21
62755.00000000001
31
0
0
LINE
8
cut
10
164727.5
20
62845.000000000015
30
0
11
164727.5
21
62755.00000000001
31
0
0
LINE
8
cut
10
164727.5
20
62845.000000000015
30
0
11
164772.5
21
62845.000000000015
31
0
0
LINE
8
cut
10
164727.5
20
62755.00000000001
30
0
11
164772.5
21
62755.00000000001
31
0
0
LINE
8
cut
10
164772.5
20
62845.000000000015
30
0
11
164772.5
21
62755.00000000001
31
0
0
LINE
8
cut
10
166227.5
20
62845.000000000015
30
0
11
166227.5
21
62755.00000000001
31
0
0
LINE
8
cut
10
166227.5
20
62845.000000000015
30
0
11
166272.5
21
62845.000000000015
31
0
0
LINE
8
cut
10
166227.5
20
62755.00000000001
30
0
11
166272.5
21
62755.00000000001
31
0
0
LINE
8
cut
10
166272.5
20
62845.000000000015
30
0
11
166272.5
21
62755.00000000001
31
0
0
LINE
8
cut
10
167727.5
20
62845.000000000015
30
0
11
167727.5
21
62755.00000000001
31
0
0
LINE
8
cut
10
167727.5
20
62845.000000000015
30
0
11
167772.5
21
62845.000000000015
31
0
0
LINE
8
cut
10
167727.5
20
62755.00000000001
30
0
11
167772.5
21
62755.00000000001
31
0
0
LINE
8
cut
10
167772.5
20
62845.000000000015
30
0
11
167772.5
21
62755.00000000001
31
0
0
LINE
8
cut
10
169227.5
20
62845.000000000015
30
0
11
169227.5
21
62755.00000000001
31
0
0
LINE
8
cut
10
169227.5
20
62845.000000000015
30
0
11
169272.5
21
62845.000000000015
31
0
0
LINE
8
cut
10
169227.5
20
62755.00000000001
30
0
11
169272.5
21
62755.00000000001
31
0
0
LINE
8
cut
10
169272.5
20
62845.000000000015
30
0
11
169272.5
21
62755.00000000001
31
0
0
LINE
8
cut
10
170727.5
20
62845.000000000015
30
0
11
170727.5
21
62755.00000000001
31
0
0
LINE
8
cut
10
170727.5
20
62845.000000000015
30
0
11
170772.5
21
62845.000000000015
31
0
0
LINE
8
cut
10
170727.5
20
62755.00000000001
30
0
11
170772.5
21
62755.00000000001
31
0
0
LINE
8
cut
10
170772.5
20
62845.000000000015
30
0
11
170772.5
21
62755.00000000001
31
0
0
LINE
8
cut
10
172227.5
20
62845.000000000015
30
0
11
172227.5
21
62755.00000000001
31
0
0
LINE
8
cut
10
172227.5
20
62845.000000000015
30
0
11
172272.5
21
62845.000000000015
31
0
0
LINE
8
cut
10
172227.5
20
62755.00000000001
30
0
11
172272.5
21
62755.00000000001
31
0
0
LINE
8
cut
10
172272.5
20
62845.000000000015
30
0
11
172272.5
21
62755.00000000001
31
0
0
LINE
8
cut
10
173727.5
20
62845.000000000015
30
0
11
173727.5
21
62755.00000000001
31
0
0
LINE
8
cut
10
173727.5
20
62845.000000000015
30
0
11
173772.5
21
62845.000000000015
31
0
0
LINE
8
cut
10
173727.5
20
62755.00000000001
30
0
11
173772.5
21
62755.00000000001
31
0
0
LINE
8
cut
10
173772.5
20
62845.000000000015
30
0
11
173772.5
21
62755.00000000001
31
0
0
LINE
8
cut
10
175227.5
20
62845.000000000015
30
0
11
175227.5
21
62755.00000000001
31
0
0
LINE
8
cut
10
175227.5
20
62845.000000000015
30
0
11
175272.5
21
62845.000000000015
31
0
0
LINE
8
cut
10
175227.5
20
62755.00000000001
30
0
11
175272.5
21
62755.00000000001
31
0
0
LINE
8
cut
10
175272.5
20
62845.000000000015
30
0
11
175272.5
21
62755.00000000001
31
0
0
LINE
8
cut
10
176727.5
20
62845.000000000015
30
0
11
176727.5
21
62755.00000000001
31
0
0
LINE
8
cut
10
176727.5
20
62845.000000000015
30
0
11
176772.5
21
62845.000000000015
31
0
0
LINE
8
cut
10
176727.5
20
62755.00000000001
30
0
11
176772.5
21
62755.00000000001
31
0
0
LINE
8
cut
10
176772.5
20
62845.000000000015
30
0
11
176772.5
21
62755.00000000001
31
0
0
LINE
8
cut
10
178227.5
20
62845.000000000015
30
0
11
178227.5
21
62755.00000000001
31
0
0
LINE
8
cut
10
178227.5
20
62845.000000000015
30
0
11
178272.5
21
62845.000000000015
31
0
0
LINE
8
cut
10
178227.5
20
62755.00000000001
30
0
11
178272.5
21
62755.00000000001
31
0
0
LINE
8
cut
10
178272.5
20
62845.000000000015
30
0
11
178272.5
21
62755.00000000001
31
0
0
LINE
8
cut
10
179727.5
20
62845.000000000015
30
0
11
179727.5
21
62755.00000000001
31
0
0
LINE
8
cut
10
179727.5
20
62845.000000000015
30
0
11
179772.5
21
62845.000000000015
31
0
0
LINE
8
cut
10
179727.5
20
62755.00000000001
30
0
11
179772.5
21
62755.00000000001
31
0
0
LINE
8
cut
10
179772.5
20
62845.000000000015
30
0
11
179772.5
21
62755.00000000001
31
0
0
LINE
8
cut
10
181227.5
20
62845.000000000015
30
0
11
181227.5
21
62755.00000000001
31
0
0
LINE
8
cut
10
181227.5
20
62845.000000000015
30
0
11
181272.5
21
62845.000000000015
31
0
0
LINE
8
cut
10
181227.5
20
62755.00000000001
30
0
11
181272.5
21
62755.00000000001
31
0
0
LINE
8
cut
10
181272.5
20
62845.000000000015
30
0
11
181272.5
21
62755.00000000001
31
0
0
LINE
8
cut
10
182727.5
20
62845.000000000015
30
0
11
182727.5
21
62755.00000000001
31
0
0
LINE
8
cut
10
182727.5
20
62845.000000000015
30
0
11
182772.5
21
62845.000000000015
31
0
0
LINE
8
cut
10
182727.5
20
62755.00000000001
30
0
11
182772.5
21
62755.00000000001
31
0
0
LINE
8
cut
10
182772.5
20
62845.000000000015
30
0
11
182772.5
21
62755.00000000001
31
0
0
LINE
8
cut
10
184227.5
20
62845.000000000015
30
0
11
184227.5
21
62755.00000000001
31
0
0
LINE
8
cut
10
184227.5
20
62845.000000000015
30
0
11
184272.5
21
62845.000000000015
31
0
0
LINE
8
cut
10
184227.5
20
62755.00000000001
30
0
11
184272.5
21
62755.00000000001
31
0
0
LINE
8
cut
10
184272.5
20
62845.000000000015
30
0
11
184272.5
21
62755.00000000001
31
0
0
LINE
8
cut
10
185727.5
20
62845.000000000015
30
0
11
185727.5
21
62755.00000000001
31
0
0
LINE
8
cut
10
185727.5
20
62845.000000000015
30
0
11
185772.5
21
62845.000000000015
31
0
0
LINE
8
cut
10
185727.5
20
62755.00000000001
30
0
11
185772.5
21
62755.00000000001
31
0
0
LINE
8
cut
10
185772.5
20
62845.000000000015
30
0
11
185772.5
21
62755.00000000001
31
0
0
LINE
8
cut
10
187227.5
20
62845.000000000015
30
0
11
187227.5
21
62755.00000000001
31
0
0
LINE
8
cut
10
187227.5
20
62845.000000000015
30
0
11
187272.5
21
62845.000000000015
31
0
0
LINE
8
cut
10
187227.5
20
62755.00000000001
30
0
11
187272.5
21
62755.00000000001
31
0
0
LINE
8
cut
10
187272.5
20
62845.000000000015
30
0
11
187272.5
21
62755.00000000001
31
0
0
LINE
8
cut
10
188727.5
20
62845.000000000015
30
0
11
188727.5
21
62755.00000000001
31
0
0
LINE
8
cut
10
188727.5
20
62845.000000000015
30
0
11
188772.5
21
62845.000000000015
31
0
0
LINE
8
cut
10
188727.5
20
62755.00000000001
30
0
11
188772.5
21
62755.00000000001
31
0
0
LINE
8
cut
10
188772.5
20
62845.000000000015
30
0
11
188772.5
21
62755.00000000001
31
0
0
LINE
8
cut
10
190227.5
20
62845.000000000015
30
0
11
190227.5
21
62755.00000000001
31
0
0
LINE
8
cut
10
190227.5
20
62845.000000000015
30
0
11
190272.5
21
62845.000000000015
31
0
0
LINE
8
cut
10
190227.5
20
62755.00000000001
30
0
11
190272.5
21
62755.00000000001
31
0
0
LINE
8
cut
10
190272.5
20
62845.000000000015
30
0
11
190272.5
21
62755.00000000001
31
0
0
LINE
8
cut
10
191727.5
20
62845.000000000015
30
0
11
191727.5
21
62755.00000000001
31
0
0
LINE
8
cut
10
191727.5
20
62845.000000000015
30
0
11
191772.5
21
62845.000000000015
31
0
0
LINE
8
cut
10
191727.5
20
62755.00000000001
30
0
11
191772.5
21
62755.00000000001
31
0
0
LINE
8
cut
10
191772.5
20
62845.000000000015
30
0
11
191772.5
21
62755.00000000001
31
0
0
LINE
8
cut
10
193227.5
20
62845.000000000015
30
0
11
193227.5
21
62755.00000000001
31
0
0
LINE
8
cut
10
193227.5
20
62845.000000000015
30
0
11
193272.5
21
62845.000000000015
31
0
0
LINE
8
cut
10
193227.5
20
62755.00000000001
30
0
11
193272.5
21
62755.00000000001
31
0
0
LINE
8
cut
10
193272.5
20
62845.000000000015
30
0
11
193272.5
21
62755.00000000001
31
0
0
LINE
8
cut
10
194727.5
20
62845.000000000015
30
0
11
194727.5
21
62755.00000000001
31
0
0
LINE
8
cut
10
194727.5
20
62845.000000000015
30
0
11
194772.5
21
62845.000000000015
31
0
0
LINE
8
cut
10
194727.5
20
62755.00000000001
30
0
11
194772.5
21
62755.00000000001
31
0
0
LINE
8
cut
10
194772.5
20
62845.000000000015
30
0
11
194772.5
21
62755.00000000001
31
0
0
LINE
8
cut
10
196227.5
20
62845.000000000015
30
0
11
196227.5
21
62755.00000000001
31
0
0
LINE
8
cut
10
196227.5
20
62845.000000000015
30
0
11
196272.5
21
62845.000000000015
31
0
0
LINE
8
cut
10
196227.5
20
62755.00000000001
30
0
11
196272.5
21
62755.00000000001
31
0
0
LINE
8
cut
10
196272.5
20
62845.000000000015
30
0
11
196272.5
21
62755.00000000001
31
0
0
LINE
8
cut
10
197727.5
20
62845.000000000015
30
0
11
197727.5
21
62755.00000000001
31
0
0
LINE
8
cut
10
197727.5
20
62845.000000000015
30
0
11
197772.5
21
62845.000000000015
31
0
0
LINE
8
cut
10
197727.5
20
62755.00000000001
30
0
11
197772.5
21
62755.00000000001
31
0
0
LINE
8
cut
10
197772.5
20
62845.000000000015
30
0
11
197772.5
21
62755.00000000001
31
0
0
LINE
8
cut
10
199227.5
20
62845.000000000015
30
0
11
199227.5
21
62755.00000000001
31
0
0
LINE
8
cut
10
199227.5
20
62845.000000000015
30
0
11
199272.5
21
62845.000000000015
31
0
0
LINE
8
cut
10
199227.5
20
62755.00000000001
30
0
11
199272.5
21
62755.00000000001
31
0
0
LINE
8
cut
10
199272.5
20
62845.000000000015
30
0
11
199272.5
21
62755.00000000001
31
0
0
LINE
8
cut
10
200727.5
20
62845.000000000015
30
0
11
200727.5
21
62755.00000000001
31
0
0
LINE
8
cut
10
200727.5
20
62845.000000000015
30
0
11
200772.5
21
62845.000000000015
31
0
0
LINE
8
cut
10
200727.5
20
62755.00000000001
30
0
11
200772.5
21
62755.00000000001
31
0
0
LINE
8
cut
10
200772.5
20
62845.000000000015
30
0
11
200772.5
21
62755.00000000001
31
0
0
LINE
8
cut
10
202227.5
20
62845.000000000015
30
0
11
202227.5
21
62755.00000000001
31
0
0
LINE
8
cut
10
202227.5
20
62845.000000000015
30
0
11
202272.5
21
62845.000000000015
31
0
0
LINE
8
cut
10
202227.5
20
62755.00000000001
30
0
11
202272.5
21
62755.00000000001
31
0
0
LINE
8
cut
10
202272.5
20
62845.000000000015
30
0
11
202272.5
21
62755.00000000001
31
0
0
LINE
8
cut
10
203727.5
20
62845.000000000015
30
0
11
203727.5
21
62755.00000000001
31
0
0
LINE
8
cut
10
203727.5
20
62845.000000000015
30
0
11
203772.5
21
62845.000000000015
31
0
0
LINE
8
cut
10
203727.5
20
62755.00000000001
30
0
11
203772.5
21
62755.00000000001
31
0
0
LINE
8
cut
10
203772.5
20
62845.000000000015
30
0
11
203772.5
21
62755.00000000001
31
0
0
LINE
8
cut
10
205227.5
20
62845.000000000015
30
0
11
205227.5
21
62755.00000000001
31
0
0
LINE
8
cut
10
205227.5
20
62845.000000000015
30
0
11
205272.5
21
62845.000000000015
31
0
0
LINE
8
cut
10
205227.5
20
62755.00000000001
30
0
11
205272.5
21
62755.00000000001
31
0
0
LINE
8
cut
10
205272.5
20
62845.000000000015
30
0
11
205272.5
21
62755.00000000001
31
0
0
LINE
8
cut
10
206727.5
20
62845.000000000015
30
0
11
206727.5
21
62755.00000000001
31
0
0
LINE
8
cut
10
206727.5
20
62845.000000000015
30
0
11
206772.5
21
62845.000000000015
31
0
0
LINE
8
cut
10
206727.5
20
62755.00000000001
30
0
11
206772.5
21
62755.00000000001
31
0
0
LINE
8
cut
10
206772.5
20
62845.000000000015
30
0
11
206772.5
21
62755.00000000001
31
0
0
LINE
8
cut
10
208227.5
20
62845.000000000015
30
0
11
208227.5
21
62755.00000000001
31
0
0
LINE
8
cut
10
208227.5
20
62845.000000000015
30
0
11
208272.5
21
62845.000000000015
31
0
0
LINE
8
cut
10
208227.5
20
62755.00000000001
30
0
11
208272.5
21
62755.00000000001
31
0
0
LINE
8
cut
10
208272.5
20
62845.000000000015
30
0
11
208272.5
21
62755.00000000001
31
0
0
LINE
8
cut
10
209727.5
20
62845.000000000015
30
0
11
209727.5
21
62755.00000000001
31
0
0
LINE
8
cut
10
209727.5
20
62845.000000000015
30
0
11
209772.5
21
62845.000000000015
31
0
0
LINE
8
cut
10
209727.5
20
62755.00000000001
30
0
11
209772.5
21
62755.00000000001
31
0
0
LINE
8
cut
10
209772.5
20
62845.000000000015
30
0
11
209772.5
21
62755.00000000001
31
0
0
LINE
8
cut
10
211227.5
20
62845.000000000015
30
0
11
211227.5
21
62755.00000000001
31
0
0
LINE
8
cut
10
211227.5
20
62845.000000000015
30
0
11
211272.5
21
62845.000000000015
31
0
0
LINE
8
cut
10
211227.5
20
62755.00000000001
30
0
11
211272.5
21
62755.00000000001
31
0
0
LINE
8
cut
10
211272.5
20
62845.000000000015
30
0
11
211272.5
21
62755.00000000001
31
0
0
LINE
8
cut
10
212727.5
20
62845.000000000015
30
0
11
212727.5
21
62755.00000000001
31
0
0
LINE
8
cut
10
212727.5
20
62845.000000000015
30
0
11
212772.5
21
62845.000000000015
31
0
0
LINE
8
cut
10
212727.5
20
62755.00000000001
30
0
11
212772.5
21
62755.00000000001
31
0
0
LINE
8
cut
10
212772.5
20
62845.000000000015
30
0
11
212772.5
21
62755.00000000001
31
0
0
LINE
8
cut
10
214227.5
20
62845.000000000015
30
0
11
214227.5
21
62755.00000000001
31
0
0
LINE
8
cut
10
214227.5
20
62845.000000000015
30
0
11
214272.5
21
62845.000000000015
31
0
0
LINE
8
cut
10
214227.5
20
62755.00000000001
30
0
11
214272.5
21
62755.00000000001
31
0
0
LINE
8
cut
10
214272.5
20
62845.000000000015
30
0
11
214272.5
21
62755.00000000001
31
0
0
LINE
8
cut
10
215727.5
20
62845.000000000015
30
0
11
215727.5
21
62755.00000000001
31
0
0
LINE
8
cut
10
215727.5
20
62845.000000000015
30
0
11
215772.5
21
62845.000000000015
31
0
0
LINE
8
cut
10
215727.5
20
62755.00000000001
30
0
11
215772.5
21
62755.00000000001
31
0
0
LINE
8
cut
10
215772.5
20
62845.000000000015
30
0
11
215772.5
21
62755.00000000001
31
0
0
LINE
8
cut
10
217227.5
20
62845.000000000015
30
0
11
217227.5
21
62755.00000000001
31
0
0
LINE
8
cut
10
217227.5
20
62845.000000000015
30
0
11
217272.5
21
62845.000000000015
31
0
0
LINE
8
cut
10
217227.5
20
62755.00000000001
30
0
11
217272.5
21
62755.00000000001
31
0
0
LINE
8
cut
10
217272.5
20
62845.000000000015
30
0
11
217272.5
21
62755.00000000001
31
0
0
LINE
8
cut
10
218727.5
20
62845.000000000015
30
0
11
218727.5
21
62755.00000000001
31
0
0
LINE
8
cut
10
218727.5
20
62845.000000000015
30
0
11
218772.5
21
62845.000000000015
31
0
0
LINE
8
cut
10
218727.5
20
62755.00000000001
30
0
11
218772.5
21
62755.00000000001
31
0
0
LINE
8
cut
10
218772.5
20
62845.000000000015
30
0
11
218772.5
21
62755.00000000001
31
0
0
LINE
8
cut
10
220227.5
20
62845.000000000015
30
0
11
220227.5
21
62755.00000000001
31
0
0
LINE
8
cut
10
220227.5
20
62845.000000000015
30
0
11
220272.5
21
62845.000000000015
31
0
0
LINE
8
cut
10
220227.5
20
62755.00000000001
30
0
11
220272.5
21
62755.00000000001
31
0
0
LINE
8
cut
10
220272.5
20
62845.000000000015
30
0
11
220272.5
21
62755.00000000001
31
0
0
LINE
8
cut
10
221727.5
20
62845.000000000015
30
0
11
221727.5
21
62755.00000000001
31
0
0
LINE
8
cut
10
221727.5
20
62845.000000000015
30
0
11
221772.5
21
62845.000000000015
31
0
0
LINE
8
cut
10
221727.5
20
62755.00000000001
30
0
11
221772.5
21
62755.00000000001
31
0
0
LINE
8
cut
10
221772.5
20
62845.000000000015
30
0
11
221772.5
21
62755.00000000001
31
0
0
LINE
8
cut
10
223227.5
20
62845.000000000015
30
0
11
223227.5
21
62755.00000000001
31
0
0
LINE
8
cut
10
223227.5
20
62845.000000000015
30
0
11
223272.5
21
62845.000000000015
31
0
0
LINE
8
cut
10
223227.5
20
62755.00000000001
30
0
11
223272.5
21
62755.00000000001
31
0
0
LINE
8
cut
10
223272.5
20
62845.000000000015
30
0
11
223272.5
21
62755.00000000001
31
0
0
LINE
8
cut
10
224727.5
20
62845.000000000015
30
0
11
224727.5
21
62755.00000000001
31
0
0
LINE
8
cut
10
224727.5
20
62845.000000000015
30
0
11
224772.5
21
62845.000000000015
31
0
0
LINE
8
cut
10
224727.5
20
62755.00000000001
30
0
11
224772.5
21
62755.00000000001
31
0
0
LINE
8
cut
10
224772.5
20
62845.000000000015
30
0
11
224772.5
21
62755.00000000001
31
0
0
LINE
8
cut
10
226227.5
20
62845.000000000015
30
0
11
226227.5
21
62755.00000000001
31
0
0
LINE
8
cut
10
226227.5
20
62845.000000000015
30
0
11
226272.5
21
62845.000000000015
31
0
0
LINE
8
cut
10
226227.5
20
62755.00000000001
30
0
11
226272.5
21
62755.00000000001
31
0
0
LINE
8
cut
10
226272.5
20
62845.000000000015
30
0
11
226272.5
21
62755.00000000001
31
0
0
LINE
8
cut
10
227727.5
20
62845.000000000015
30
0
11
227727.5
21
62755.00000000001
31
0
0
LINE
8
cut
10
227727.5
20
62845.000000000015
30
0
11
227772.5
21
62845.000000000015
31
0
0
LINE
8
cut
10
227727.5
20
62755.00000000001
30
0
11
227772.5
21
62755.00000000001
31
0
0
LINE
8
cut
10
227772.5
20
62845.000000000015
30
0
11
227772.5
21
62755.00000000001
31
0
0
LINE
8
cut
10
229227.5
20
62845.000000000015
30
0
11
229227.5
21
62755.00000000001
31
0
0
LINE
8
cut
10
229227.5
20
62845.000000000015
30
0
11
229272.5
21
62845.000000000015
31
0
0
LINE
8
cut
10
229227.5
20
62755.00000000001
30
0
11
229272.5
21
62755.00000000001
31
0
0
LINE
8
cut
10
229272.5
20
62845.000000000015
30
0
11
229272.5
21
62755.00000000001
31
0
0
LINE
8
cut
10
230727.5
20
62845.000000000015
30
0
11
230727.5
21
62755.00000000001
31
0
0
LINE
8
cut
10
230727.5
20
62845.000000000015
30
0
11
230772.5
21
62845.000000000015
31
0
0
LINE
8
cut
10
230727.5
20
62755.00000000001
30
0
11
230772.5
21
62755.00000000001
31
0
0
LINE
8
cut
10
230772.5
20
62845.000000000015
30
0
11
230772.5
21
62755.00000000001
31
0
0
LINE
8
cut
10
232227.5
20
62845.000000000015
30
0
11
232227.5
21
62755.00000000001
31
0
0
LINE
8
cut
10
232227.5
20
62845.000000000015
30
0
11
232272.5
21
62845.000000000015
31
0
0
LINE
8
cut
10
232227.5
20
62755.00000000001
30
0
11
232272.5
21
62755.00000000001
31
0
0
LINE
8
cut
10
232272.5
20
62845.000000000015
30
0
11
232272.5
21
62755.00000000001
31
0
0
LINE
8
cut
10
233727.5
20
62845.000000000015
30
0
11
233727.5
21
62755.00000000001
31
0
0
LINE
8
cut
10
233727.5
20
62845.000000000015
30
0
11
233772.5
21
62845.000000000015
31
0
0
LINE
8
cut
10
233727.5
20
62755.00000000001
30
0
11
233772.5
21
62755.00000000001
31
0
0
LINE
8
cut
10
233772.5
20
62845.000000000015
30
0
11
233772.5
21
62755.00000000001
31
0
0
LINE
8
cut
10
235227.5
20
62845.000000000015
30
0
11
235227.5
21
62755.00000000001
31
0
0
LINE
8
cut
10
235227.5
20
62845.000000000015
30
0
11
235272.5
21
62845.000000000015
31
0
0
LINE
8
cut
10
235227.5
20
62755.00000000001
30
0
11
235272.5
21
62755.00000000001
31
0
0
LINE
8
cut
10
235272.5
20
62845.000000000015
30
0
11
235272.5
21
62755.00000000001
31
0
0
LINE
8
cut
10
71600.0
20
180000.0
30
0
11
71600.0
21
63000.0
31
0
0
LINE
8
cut
10
71600.0
20
180000.0
30
0
11
71900.0
21
180000.0
31
0
0
LINE
8
cut
10
71600.0
20
63000.0
30
0
11
71900.0
21
63000.0
31
0
0
LINE
8
cut
10
71900.0
20
180000.0
30
0
11
71900.0
21
63000.0
31
0
0
LINE
8
cut
10
71750.0
20
180150.0
30
0
11
71750.0
21
179850.0
31
0
0
LINE
8
cut
10
71750.0
20
180150.0
30
0
11
235750.0
21
180150.0
31
0
0
LINE
8
cut
10
71750.0
20
179850.0
30
0
11
235750.0
21
179850.0
31
0
0
LINE
8
cut
10
235750.0
20
180150.0
30
0
11
235750.0
21
179850.0
31
0
0
LINE
8
cut
10
71727.5
20
180245.0
30
0
11
71727.5
21
180155.0
31
0
0
LINE
8
cut
10
71727.5
20
180245.0
30
0
11
71772.5
21
180245.0
31
0
0
LINE
8
cut
10
71727.5
20
180155.0
30
0
11
71772.5
21
180155.0
31
0
0
LINE
8
cut
10
71772.5
20
180245.0
30
0
11
71772.5
21
180155.0
31
0
0
LINE
8
cut
10
73227.5
20
180245.0
30
0
11
73227.5
21
180155.0
31
0
0
LINE
8
cut
10
73227.5
20
180245.0
30
0
11
73272.5
21
180245.0
31
0
0
LINE
8
cut
10
73227.5
20
180155.0
30
0
11
73272.5
21
180155.0
31
0
0
LINE
8
cut
10
73272.5
20
180245.0
30
0
11
73272.5
21
180155.0
31
0
0
LINE
8
cut
10
74727.5
20
180245.0
30
0
11
74727.5
21
180155.0
31
0
0
LINE
8
cut
10
74727.5
20
180245.0
30
0
11
74772.5
21
180245.0
31
0
0
LINE
8
cut
10
74727.5
20
180155.0
30
0
11
74772.5
21
180155.0
31
0
0
LINE
8
cut
10
74772.5
20
180245.0
30
0
11
74772.5
21
180155.0
31
0
0
LINE
8
cut
10
76227.5
20
180245.0
30
0
11
76227.5
21
180155.0
31
0
0
LINE
8
cut
10
76227.5
20
180245.0
30
0
11
76272.5
21
180245.0
31
0
0
LINE
8
cut
10
76227.5
20
180155.0
30
0
11
76272.5
21
180155.0
31
0
0
LINE
8
cut
10
76272.5
20
180245.0
30
0
11
76272.5
21
180155.0
31
0
0
LINE
8
cut
10
77727.5
20
180245.0
30
0
11
77727.5
21
180155.0
31
0
0
LINE
8
cut
10
77727.5
20
180245.0
30
0
11
77772.5
21
180245.0
31
0
0
LINE
8
cut
10
77727.5
20
180155.0
30
0
11
77772.5
21
180155.0
31
0
0
LINE
8
cut
10
77772.5
20
180245.0
30
0
11
77772.5
21
180155.0
31
0
0
LINE
8
cut
10
79227.5
20
180245.0
30
0
11
79227.5
21
180155.0
31
0
0
LINE
8
cut
10
79227.5
20
180245.0
30
0
11
79272.5
21
180245.0
31
0
0
LINE
8
cut
10
79227.5
20
180155.0
30
0
11
79272.5
21
180155.0
31
0
0
LINE
8
cut
10
79272.5
20
180245.0
30
0
11
79272.5
21
180155.0
31
0
0
LINE
8
cut
10
80727.5
20
180245.0
30
0
11
80727.5
21
180155.0
31
0
0
LINE
8
cut
10
80727.5
20
180245.0
30
0
11
80772.5
21
180245.0
31
0
0
LINE
8
cut
10
80727.5
20
180155.0
30
0
11
80772.5
21
180155.0
31
0
0
LINE
8
cut
10
80772.5
20
180245.0
30
0
11
80772.5
21
180155.0
31
0
0
LINE
8
cut
10
82227.5
20
180245.0
30
0
11
82227.5
21
180155.0
31
0
0
LINE
8
cut
10
82227.5
20
180245.0
30
0
11
82272.5
21
180245.0
31
0
0
LINE
8
cut
10
82227.5
20
180155.0
30
0
11
82272.5
21
180155.0
31
0
0
LINE
8
cut
10
82272.5
20
180245.0
30
0
11
82272.5
21
180155.0
31
0
0
LINE
8
cut
10
83727.5
20
180245.0
30
0
11
83727.5
21
180155.0
31
0
0
LINE
8
cut
10
83727.5
20
180245.0
30
0
11
83772.5
21
180245.0
31
0
0
LINE
8
cut
10
83727.5
20
180155.0
30
0
11
83772.5
21
180155.0
31
0
0
LINE
8
cut
10
83772.5
20
180245.0
30
0
11
83772.5
21
180155.0
31
0
0
LINE
8
cut
10
85227.5
20
180245.0
30
0
11
85227.5
21
180155.0
31
0
0
LINE
8
cut
10
85227.5
20
180245.0
30
0
11
85272.5
21
180245.0
31
0
0
LINE
8
cut
10
85227.5
20
180155.0
30
0
11
85272.5
21
180155.0
31
0
0
LINE
8
cut
10
85272.5
20
180245.0
30
0
11
85272.5
21
180155.0
31
0
0
LINE
8
cut
10
86727.5
20
180245.0
30
0
11
86727.5
21
180155.0
31
0
0
LINE
8
cut
10
86727.5
20
180245.0
30
0
11
86772.5
21
180245.0
31
0
0
LINE
8
cut
10
86727.5
20
180155.0
30
0
11
86772.5
21
180155.0
31
0
0
LINE
8
cut
10
86772.5
20
180245.0
30
0
11
86772.5
21
180155.0
31
0
0
LINE
8
cut
10
88227.5
20
180245.0
30
0
11
88227.5
21
180155.0
31
0
0
LINE
8
cut
10
88227.5
20
180245.0
30
0
11
88272.5
21
180245.0
31
0
0
LINE
8
cut
10
88227.5
20
180155.0
30
0
11
88272.5
21
180155.0
31
0
0
LINE
8
cut
10
88272.5
20
180245.0
30
0
11
88272.5
21
180155.0
31
0
0
LINE
8
cut
10
89727.5
20
180245.0
30
0
11
89727.5
21
180155.0
31
0
0
LINE
8
cut
10
89727.5
20
180245.0
30
0
11
89772.5
21
180245.0
31
0
0
LINE
8
cut
10
89727.5
20
180155.0
30
0
11
89772.5
21
180155.0
31
0
0
LINE
8
cut
10
89772.5
20
180245.0
30
0
11
89772.5
21
180155.0
31
0
0
LINE
8
cut
10
91227.5
20
180245.0
30
0
11
91227.5
21
180155.0
31
0
0
LINE
8
cut
10
91227.5
20
180245.0
30
0
11
91272.5
21
180245.0
31
0
0
LINE
8
cut
10
91227.5
20
180155.0
30
0
11
91272.5
21
180155.0
31
0
0
LINE
8
cut
10
91272.5
20
180245.0
30
0
11
91272.5
21
180155.0
31
0
0
LINE
8
cut
10
92727.5
20
180245.0
30
0
11
92727.5
21
180155.0
31
0
0
LINE
8
cut
10
92727.5
20
180245.0
30
0
11
92772.5
21
180245.0
31
0
0
LINE
8
cut
10
92727.5
20
180155.0
30
0
11
92772.5
21
180155.0
31
0
0
LINE
8
cut
10
92772.5
20
180245.0
30
0
11
92772.5
21
180155.0
31
0
0
LINE
8
cut
10
94227.5
20
180245.0
30
0
11
94227.5
21
180155.0
31
0
0
LINE
8
cut
10
94227.5
20
180245.0
30
0
11
94272.5
21
180245.0
31
0
0
LINE
8
cut
10
94227.5
20
180155.0
30
0
11
94272.5
21
180155.0
31
0
0
LINE
8
cut
10
94272.5
20
180245.0
30
0
11
94272.5
21
180155.0
31
0
0
LINE
8
cut
10
95727.5
20
180245.0
30
0
11
95727.5
21
180155.0
31
0
0
LINE
8
cut
10
95727.5
20
180245.0
30
0
11
95772.5
21
180245.0
31
0
0
LINE
8
cut
10
95727.5
20
180155.0
30
0
11
95772.5
21
180155.0
31
0
0
LINE
8
cut
10
95772.5
20
180245.0
30
0
11
95772.5
21
180155.0
31
0
0
LINE
8
cut
10
97227.49999999999
20
180245.0
30
0
11
97227.49999999999
21
180155.0
31
0
0
LINE
8
cut
10
97227.49999999999
20
180245.0
30
0
11
97272.5
21
180245.0
31
0
0
LINE
8
cut
10
97227.49999999999
20
180155.0
30
0
11
97272.5
21
180155.0
31
0
0
LINE
8
cut
10
97272.5
20
180245.0
30
0
11
97272.5
21
180155.0
31
0
0
LINE
8
cut
10
98727.49999999999
20
180245.0
30
0
11
98727.49999999999
21
180155.0
31
0
0
LINE
8
cut
10
98727.49999999999
20
180245.0
30
0
11
98772.5
21
180245.0
31
0
0
LINE
8
cut
10
98727.49999999999
20
180155.0
30
0
11
98772.5
21
180155.0
31
0
0
LINE
8
cut
10
98772.5
20
180245.0
30
0
11
98772.5
21
180155.0
31
0
0
LINE
8
cut
10
100227.49999999999
20
180245.0
30
0
11
100227.49999999999
21
180155.0
31
0
0
LINE
8
cut
10
100227.49999999999
20
180245.0
30
0
11
100272.5
21
180245.0
31
0
0
LINE
8
cut
10
100227.49999999999
20
180155.0
30
0
11
100272.5
21
180155.0
31
0
0
LINE
8
cut
10
100272.5
20
180245.0
30
0
11
100272.5
21
180155.0
31
0
0
LINE
8
cut
10
101727.49999999999
20
180245.0
30
0
11
101727.49999999999
21
180155.0
31
0
0
LINE
8
cut
10
101727.49999999999
20
180245.0
30
0
11
101772.5
21
180245.0
31
0
0
LINE
8
cut
10
101727.49999999999
20
180155.0
30
0
11
101772.5
21
180155.0
31
0
0
LINE
8
cut
10
101772.5
20
180245.0
30
0
11
101772.5
21
180155.0
31
0
0
LINE
8
cut
10
103227.49999999999
20
180245.0
30
0
11
103227.49999999999
21
180155.0
31
0
0
LINE
8
cut
10
103227.49999999999
20
180245.0
30
0
11
103272.5
21
180245.0
31
0
0
LINE
8
cut
10
103227.49999999999
20
180155.0
30
0
11
103272.5
21
180155.0
31
0
0
LINE
8
cut
10
103272.5
20
180245.0
30
0
11
103272.5
21
180155.0
31
0
0
LINE
8
cut
10
104727.49999999999
20
180245.0
30
0
11
104727.49999999999
21
180155.0
31
0
0
LINE
8
cut
10
104727.49999999999
20
180245.0
30
0
11
104772.5
21
180245.0
31
0
0
LINE
8
cut
10
104727.49999999999
20
180155.0
30
0
11
104772.5
21
180155.0
31
0
0
LINE
8
cut
10
104772.5
20
180245.0
30
0
11
104772.5
21
180155.0
31
0
0
LINE
8
cut
10
106227.49999999999
20
180245.0
30
0
11
106227.49999999999
21
180155.0
31
0
0
LINE
8
cut
10
106227.49999999999
20
180245.0
30
0
11
106272.5
21
180245.0
31
0
0
LINE
8
cut
10
106227.49999999999
20
180155.0
30
0
11
106272.5
21
180155.0
31
0
0
LINE
8
cut
10
106272.5
20
180245.0
30
0
11
106272.5
21
180155.0
31
0
0
LINE
8
cut
10
107727.49999999999
20
180245.0
30
0
11
107727.49999999999
21
180155.0
31
0
0
LINE
8
cut
10
107727.49999999999
20
180245.0
30
0
11
107772.5
21
180245.0
31
0
0
LINE
8
cut
10
107727.49999999999
20
180155.0
30
0
11
107772.5
21
180155.0
31
0
0
LINE
8
cut
10
107772.5
20
180245.0
30
0
11
107772.5
21
180155.0
31
0
0
LINE
8
cut
10
109227.49999999999
20
180245.0
30
0
11
109227.49999999999
21
180155.0
31
0
0
LINE
8
cut
10
109227.49999999999
20
180245.0
30
0
11
109272.5
21
180245.0
31
0
0
LINE
8
cut
10
109227.49999999999
20
180155.0
30
0
11
109272.5
21
180155.0
31
0
0
LINE
8
cut
10
109272.5
20
180245.0
30
0
11
109272.5
21
180155.0
31
0
0
LINE
8
cut
10
110727.49999999999
20
180245.0
30
0
11
110727.49999999999
21
180155.0
31
0
0
LINE
8
cut
10
110727.49999999999
20
180245.0
30
0
11
110772.5
21
180245.0
31
0
0
LINE
8
cut
10
110727.49999999999
20
180155.0
30
0
11
110772.5
21
180155.0
31
0
0
LINE
8
cut
10
110772.5
20
180245.0
30
0
11
110772.5
21
180155.0
31
0
0
LINE
8
cut
10
112227.49999999999
20
180245.0
30
0
11
112227.49999999999
21
180155.0
31
0
0
LINE
8
cut
10
112227.49999999999
20
180245.0
30
0
11
112272.5
21
180245.0
31
0
0
LINE
8
cut
10
112227.49999999999
20
180155.0
30
0
11
112272.5
21
180155.0
31
0
0
LINE
8
cut
10
112272.5
20
180245.0
30
0
11
112272.5
21
180155.0
31
0
0
LINE
8
cut
10
113727.49999999999
20
180245.0
30
0
11
113727.49999999999
21
180155.0
31
0
0
LINE
8
cut
10
113727.49999999999
20
180245.0
30
0
11
113772.5
21
180245.0
31
0
0
LINE
8
cut
10
113727.49999999999
20
180155.0
30
0
11
113772.5
21
180155.0
31
0
0
LINE
8
cut
10
113772.5
20
180245.0
30
0
11
113772.5
21
180155.0
31
0
0
LINE
8
cut
10
115227.49999999999
20
180245.0
30
0
11
115227.49999999999
21
180155.0
31
0
0
LINE
8
cut
10
115227.49999999999
20
180245.0
30
0
11
115272.5
21
180245.0
31
0
0
LINE
8
cut
10
115227.49999999999
20
180155.0
30
0
11
115272.5
21
180155.0
31
0
0
LINE
8
cut
10
115272.5
20
180245.0
30
0
11
115272.5
21
180155.0
31
0
0
LINE
8
cut
10
116727.49999999999
20
180245.0
30
0
11
116727.49999999999
21
180155.0
31
0
0
LINE
8
cut
10
116727.49999999999
20
180245.0
30
0
11
116772.5
21
180245.0
31
0
0
LINE
8
cut
10
116727.49999999999
20
180155.0
30
0
11
116772.5
21
180155.0
31
0
0
LINE
8
cut
10
116772.5
20
180245.0
30
0
11
116772.5
21
180155.0
31
0
0
LINE
8
cut
10
118227.49999999999
20
180245.0
30
0
11
118227.49999999999
21
180155.0
31
0
0
LINE
8
cut
10
118227.49999999999
20
180245.0
30
0
11
118272.5
21
180245.0
31
0
0
LINE
8
cut
10
118227.49999999999
20
180155.0
30
0
11
118272.5
21
180155.0
31
0
0
LINE
8
cut
10
118272.5
20
180245.0
30
0
11
118272.5
21
180155.0
31
0
0
LINE
8
cut
10
119727.49999999999
20
180245.0
30
0
11
119727.49999999999
21
180155.0
31
0
0
LINE
8
cut
10
119727.49999999999
20
180245.0
30
0
11
119772.5
21
180245.0
31
0
0
LINE
8
cut
10
119727.49999999999
20
180155.0
30
0
11
119772.5
21
180155.0
31
0
0
LINE
8
cut
10
119772.5
20
180245.0
30
0
11
119772.5
21
180155.0
31
0
0
LINE
8
cut
10
121227.49999999999
20
180245.0
30
0
11
121227.49999999999
21
180155.0
31
0
0
LINE
8
cut
10
121227.49999999999
20
180245.0
30
0
11
121272.5
21
180245.0
31
0
0
LINE
8
cut
10
121227.49999999999
20
180155.0
30
0
11
121272.5
21
180155.0
31
0
0
LINE
8
cut
10
121272.5
20
180245.0
30
0
11
121272.5
21
180155.0
31
0
0
LINE
8
cut
10
122727.49999999999
20
180245.0
30
0
11
122727.49999999999
21
180155.0
31
0
0
LINE
8
cut
10
122727.49999999999
20
180245.0
30
0
11
122772.5
21
180245.0
31
0
0
LINE
8
cut
10
122727.49999999999
20
180155.0
30
0
11
122772.5
21
180155.0
31
0
0
LINE
8
cut
10
122772.5
20
180245.0
30
0
11
122772.5
21
180155.0
31
0
0
LINE
8
cut
10
124227.49999999999
20
180245.0
30
0
11
124227.49999999999
21
180155.0
31
0
0
LINE
8
cut
10
124227.49999999999
20
180245.0
30
0
11
124272.5
21
180245.0
31
0
0
LINE
8
cut
10
124227.49999999999
20
180155.0
30
0
11
124272.5
21
180155.0
31
0
0
LINE
8
cut
10
124272.5
20
180245.0
30
0
11
124272.5
21
180155.0
31
0
0
LINE
8
cut
10
125727.49999999999
20
180245.0
30
0
11
125727.49999999999
21
180155.0
31
0
0
LINE
8
cut
10
125727.49999999999
20
180245.0
30
0
11
125772.5
21
180245.0
31
0
0
LINE
8
cut
10
125727.49999999999
20
180155.0
30
0
11
125772.5
21
180155.0
31
0
0
LINE
8
cut
10
125772.5
20
180245.0
30
0
11
125772.5
21
180155.0
31
0
0
LINE
8
cut
10
127227.49999999999
20
180245.0
30
0
11
127227.49999999999
21
180155.0
31
0
0
LINE
8
cut
10
127227.49999999999
20
180245.0
30
0
11
127272.5
21
180245.0
31
0
0
LINE
8
cut
10
127227.49999999999
20
180155.0
30
0
11
127272.5
21
180155.0
31
0
0
LINE
8
cut
10
127272.5
20
180245.0
30
0
11
127272.5
21
180155.0
31
0
0
LINE
8
cut
10
128727.49999999999
20
180245.0
30
0
11
128727.49999999999
21
180155.0
31
0
0
LINE
8
cut
10
128727.49999999999
20
180245.0
30
0
11
128772.5
21
180245.0
31
0
0
LINE
8
cut
10
128727.49999999999
20
180155.0
30
0
11
128772.5
21
180155.0
31
0
0
LINE
8
cut
10
128772.5
20
180245.0
30
0
11
128772.5
21
180155.0
31
0
0
LINE
8
cut
10
130227.49999999999
20
180245.0
30
0
11
130227.49999999999
21
180155.0
31
0
0
LINE
8
cut
10
130227.49999999999
20
180245.0
30
0
11
130272.5
21
180245.0
31
0
0
LINE
8
cut
10
130227.49999999999
20
180155.0
30
0
11
130272.5
21
180155.0
31
0
0
LINE
8
cut
10
130272.5
20
180245.0
30
0
11
130272.5
21
180155.0
31
0
0
LINE
8
cut
10
131727.5
20
180245.0
30
0
11
131727.5
21
180155.0
31
0
0
LINE
8
cut
10
131727.5
20
180245.0
30
0
11
131772.5
21
180245.0
31
0
0
LINE
8
cut
10
131727.5
20
180155.0
30
0
11
131772.5
21
180155.0
31
0
0
LINE
8
cut
10
131772.5
20
180245.0
30
0
11
131772.5
21
180155.0
31
0
0
LINE
8
cut
10
133227.5
20
180245.0
30
0
11
133227.5
21
180155.0
31
0
0
LINE
8
cut
10
133227.5
20
180245.0
30
0
11
133272.5
21
180245.0
31
0
0
LINE
8
cut
10
133227.5
20
180155.0
30
0
11
133272.5
21
180155.0
31
0
0
LINE
8
cut
10
133272.5
20
180245.0
30
0
11
133272.5
21
180155.0
31
0
0
LINE
8
cut
10
134727.5
20
180245.0
30
0
11
134727.5
21
180155.0
31
0
0
LINE
8
cut
10
134727.5
20
180245.0
30
0
11
134772.5
21
180245.0
31
0
0
LINE
8
cut
10
134727.5
20
180155.0
30
0
11
134772.5
21
180155.0
31
0
0
LINE
8
cut
10
134772.5
20
180245.0
30
0
11
134772.5
21
180155.0
31
0
0
LINE
8
cut
10
136227.5
20
180245.0
30
0
11
136227.5
21
180155.0
31
0
0
LINE
8
cut
10
136227.5
20
180245.0
30
0
11
136272.5
21
180245.0
31
0
0
LINE
8
cut
10
136227.5
20
180155.0
30
0
11
136272.5
21
180155.0
31
0
0
LINE
8
cut
10
136272.5
20
180245.0
30
0
11
136272.5
21
180155.0
31
0
0
LINE
8
cut
10
137727.5
20
180245.0
30
0
11
137727.5
21
180155.0
31
0
0
LINE
8
cut
10
137727.5
20
180245.0
30
0
11
137772.5
21
180245.0
31
0
0
LINE
8
cut
10
137727.5
20
180155.0
30
0
11
137772.5
21
180155.0
31
0
0
LINE
8
cut
10
137772.5
20
180245.0
30
0
11
137772.5
21
180155.0
31
0
0
LINE
8
cut
10
139227.5
20
180245.0
30
0
11
139227.5
21
180155.0
31
0
0
LINE
8
cut
10
139227.5
20
180245.0
30
0
11
139272.5
21
180245.0
31
0
0
LINE
8
cut
10
139227.5
20
180155.0
30
0
11
139272.5
21
180155.0
31
0
0
LINE
8
cut
10
139272.5
20
180245.0
30
0
11
139272.5
21
180155.0
31
0
0
LINE
8
cut
10
140727.5
20
180245.0
30
0
11
140727.5
21
180155.0
31
0
0
LINE
8
cut
10
140727.5
20
180245.0
30
0
11
140772.5
21
180245.0
31
0
0
LINE
8
cut
10
140727.5
20
180155.0
30
0
11
140772.5
21
180155.0
31
0
0
LINE
8
cut
10
140772.5
20
180245.0
30
0
11
140772.5
21
180155.0
31
0
0
LINE
8
cut
10
142227.5
20
180245.0
30
0
11
142227.5
21
180155.0
31
0
0
LINE
8
cut
10
142227.5
20
180245.0
30
0
11
142272.5
21
180245.0
31
0
0
LINE
8
cut
10
142227.5
20
180155.0
30
0
11
142272.5
21
180155.0
31
0
0
LINE
8
cut
10
142272.5
20
180245.0
30
0
11
142272.5
21
180155.0
31
0
0
LINE
8
cut
10
143727.5
20
180245.0
30
0
11
143727.5
21
180155.0
31
0
0
LINE
8
cut
10
143727.5
20
180245.0
30
0
11
143772.5
21
180245.0
31
0
0
LINE
8
cut
10
143727.5
20
180155.0
30
0
11
143772.5
21
180155.0
31
0
0
LINE
8
cut
10
143772.5
20
180245.0
30
0
11
143772.5
21
180155.0
31
0
0
LINE
8
cut
10
145227.5
20
180245.0
30
0
11
145227.5
21
180155.0
31
0
0
LINE
8
cut
10
145227.5
20
180245.0
30
0
11
145272.5
21
180245.0
31
0
0
LINE
8
cut
10
145227.5
20
180155.0
30
0
11
145272.5
21
180155.0
31
0
0
LINE
8
cut
10
145272.5
20
180245.0
30
0
11
145272.5
21
180155.0
31
0
0
LINE
8
cut
10
146727.5
20
180245.0
30
0
11
146727.5
21
180155.0
31
0
0
LINE
8
cut
10
146727.5
20
180245.0
30
0
11
146772.5
21
180245.0
31
0
0
LINE
8
cut
10
146727.5
20
180155.0
30
0
11
146772.5
21
180155.0
31
0
0
LINE
8
cut
10
146772.5
20
180245.0
30
0
11
146772.5
21
180155.0
31
0
0
LINE
8
cut
10
148227.5
20
180245.0
30
0
11
148227.5
21
180155.0
31
0
0
LINE
8
cut
10
148227.5
20
180245.0
30
0
11
148272.5
21
180245.0
31
0
0
LINE
8
cut
10
148227.5
20
180155.0
30
0
11
148272.5
21
180155.0
31
0
0
LINE
8
cut
10
148272.5
20
180245.0
30
0
11
148272.5
21
180155.0
31
0
0
LINE
8
cut
10
149727.5
20
180245.0
30
0
11
149727.5
21
180155.0
31
0
0
LINE
8
cut
10
149727.5
20
180245.0
30
0
11
149772.5
21
180245.0
31
0
0
LINE
8
cut
10
149727.5
20
180155.0
30
0
11
149772.5
21
180155.0
31
0
0
LINE
8
cut
10
149772.5
20
180245.0
30
0
11
149772.5
21
180155.0
31
0
0
LINE
8
cut
10
151227.5
20
180245.0
30
0
11
151227.5
21
180155.0
31
0
0
LINE
8
cut
10
151227.5
20
180245.0
30
0
11
151272.5
21
180245.0
31
0
0
LINE
8
cut
10
151227.5
20
180155.0
30
0
11
151272.5
21
180155.0
31
0
0
LINE
8
cut
10
151272.5
20
180245.0
30
0
11
151272.5
21
180155.0
31
0
0
LINE
8
cut
10
152727.5
20
180245.0
30
0
11
152727.5
21
180155.0
31
0
0
LINE
8
cut
10
152727.5
20
180245.0
30
0
11
152772.5
21
180245.0
31
0
0
LINE
8
cut
10
152727.5
20
180155.0
30
0
11
152772.5
21
180155.0
31
0
0
LINE
8
cut
10
152772.5
20
180245.0
30
0
11
152772.5
21
180155.0
31
0
0
LINE
8
cut
10
154227.5
20
180245.0
30
0
11
154227.5
21
180155.0
31
0
0
LINE
8
cut
10
154227.5
20
180245.0
30
0
11
154272.5
21
180245.0
31
0
0
LINE
8
cut
10
154227.5
20
180155.0
30
0
11
154272.5
21
180155.0
31
0
0
LINE
8
cut
10
154272.5
20
180245.0
30
0
11
154272.5
21
180155.0
31
0
0
LINE
8
cut
10
155727.5
20
180245.0
30
0
11
155727.5
21
180155.0
31
0
0
LINE
8
cut
10
155727.5
20
180245.0
30
0
11
155772.5
21
180245.0
31
0
0
LINE
8
cut
10
155727.5
20
180155.0
30
0
11
155772.5
21
180155.0
31
0
0
LINE
8
cut
10
155772.5
20
180245.0
30
0
11
155772.5
21
180155.0
31
0
0
LINE
8
cut
10
157227.5
20
180245.0
30
0
11
157227.5
21
180155.0
31
0
0
LINE
8
cut
10
157227.5
20
180245.0
30
0
11
157272.5
21
180245.0
31
0
0
LINE
8
cut
10
157227.5
20
180155.0
30
0
11
157272.5
21
180155.0
31
0
0
LINE
8
cut
10
157272.5
20
180245.0
30
0
11
157272.5
21
180155.0
31
0
0
LINE
8
cut
10
158727.5
20
180245.0
30
0
11
158727.5
21
180155.0
31
0
0
LINE
8
cut
10
158727.5
20
180245.0
30
0
11
158772.5
21
180245.0
31
0
0
LINE
8
cut
10
158727.5
20
180155.0
30
0
11
158772.5
21
180155.0
31
0
0
LINE
8
cut
10
158772.5
20
180245.0
30
0
11
158772.5
21
180155.0
31
0
0
LINE
8
cut
10
160227.5
20
180245.0
30
0
11
160227.5
21
180155.0
31
0
0
LINE
8
cut
10
160227.5
20
180245.0
30
0
11
160272.5
21
180245.0
31
0
0
LINE
8
cut
10
160227.5
20
180155.0
30
0
11
160272.5
21
180155.0
31
0
0
LINE
8
cut
10
160272.5
20
180245.0
30
0
11
160272.5
21
180155.0
31
0
0
LINE
8
cut
10
161727.5
20
180245.0
30
0
11
161727.5
21
180155.0
31
0
0
LINE
8
cut
10
161727.5
20
180245.0
30
0
11
161772.5
21
180245.0
31
0
0
LINE
8
cut
10
161727.5
20
180155.0
30
0
11
161772.5
21
180155.0
31
0
0
LINE
8
cut
10
161772.5
20
180245.0
30
0
11
161772.5
21
180155.0
31
0
0
LINE
8
cut
10
163227.5
20
180245.0
30
0
11
163227.5
21
180155.0
31
0
0
LINE
8
cut
10
163227.5
20
180245.0
30
0
11
163272.5
21
180245.0
31
0
0
LINE
8
cut
10
163227.5
20
180155.0
30
0
11
163272.5
21
180155.0
31
0
0
LINE
8
cut
10
163272.5
20
180245.0
30
0
11
163272.5
21
180155.0
31
0
0
LINE
8
cut
10
164727.5
20
180245.0
30
0
11
164727.5
21
180155.0
31
0
0
LINE
8
cut
10
164727.5
20
180245.0
30
0
11
164772.5
21
180245.0
31
0
0
LINE
8
cut
10
164727.5
20
180155.0
30
0
11
164772.5
21
180155.0
31
0
0
LINE
8
cut
10
164772.5
20
180245.0
30
0
11
164772.5
21
180155.0
31
0
0
LINE
8
cut
10
166227.5
20
180245.0
30
0
11
166227.5
21
180155.0
31
0
0
LINE
8
cut
10
166227.5
20
180245.0
30
0
11
166272.5
21
180245.0
31
0
0
LINE
8
cut
10
166227.5
20
180155.0
30
0
11
166272.5
21
180155.0
31
0
0
LINE
8
cut
10
166272.5
20
180245.0
30
0
11
166272.5
21
180155.0
31
0
0
LINE
8
cut
10
167727.5
20
180245.0
30
0
11
167727.5
21
180155.0
31
0
0
LINE
8
cut
10
167727.5
20
180245.0
30
0
11
167772.5
21
180245.0
31
0
0
LINE
8
cut
10
167727.5
20
180155.0
30
0
11
167772.5
21
180155.0
31
0
0
LINE
8
cut
10
167772.5
20
180245.0
30
0
11
167772.5
21
180155.0
31
0
0
LINE
8
cut
10
169227.5
20
180245.0
30
0
11
169227.5
21
180155.0
31
0
0
LINE
8
cut
10
169227.5
20
180245.0
30
0
11
169272.5
21
180245.0
31
0
0
LINE
8
cut
10
169227.5
20
180155.0
30
0
11
169272.5
21
180155.0
31
0
0
LINE
8
cut
10
169272.5
20
180245.0
30
0
11
169272.5
21
180155.0
31
0
0
LINE
8
cut
10
170727.5
20
180245.0
30
0
11
170727.5
21
180155.0
31
0
0
LINE
8
cut
10
170727.5
20
180245.0
30
0
11
170772.5
21
180245.0
31
0
0
LINE
8
cut
10
170727.5
20
180155.0
30
0
11
170772.5
21
180155.0
31
0
0
LINE
8
cut
10
170772.5
20
180245.0
30
0
11
170772.5
21
180155.0
31
0
0
LINE
8
cut
10
172227.5
20
180245.0
30
0
11
172227.5
21
180155.0
31
0
0
LINE
8
cut
10
172227.5
20
180245.0
30
0
11
172272.5
21
180245.0
31
0
0
LINE
8
cut
10
172227.5
20
180155.0
30
0
11
172272.5
21
180155.0
31
0
0
LINE
8
cut
10
172272.5
20
180245.0
30
0
11
172272.5
21
180155.0
31
0
0
LINE
8
cut
10
173727.5
20
180245.0
30
0
11
173727.5
21
180155.0
31
0
0
LINE
8
cut
10
173727.5
20
180245.0
30
0
11
173772.5
21
180245.0
31
0
0
LINE
8
cut
10
173727.5
20
180155.0
30
0
11
173772.5
21
180155.0
31
0
0
LINE
8
cut
10
173772.5
20
180245.0
30
0
11
173772.5
21
180155.0
31
0
0
LINE
8
cut
10
175227.5
20
180245.0
30
0
11
175227.5
21
180155.0
31
0
0
LINE
8
cut
10
175227.5
20
180245.0
30
0
11
175272.5
21
180245.0
31
0
0
LINE
8
cut
10
175227.5
20
180155.0
30
0
11
175272.5
21
180155.0
31
0
0
LINE
8
cut
10
175272.5
20
180245.0
30
0
11
175272.5
21
180155.0
31
0
0
LINE
8
cut
10
176727.5
20
180245.0
30
0
11
176727.5
21
180155.0
31
0
0
LINE
8
cut
10
176727.5
20
180245.0
30
0
11
176772.5
21
180245.0
31
0
0
LINE
8
cut
10
176727.5
20
180155.0
30
0
11
176772.5
21
180155.0
31
0
0
LINE
8
cut
10
176772.5
20
180245.0
30
0
11
176772.5
21
180155.0
31
0
0
LINE
8
cut
10
178227.5
20
180245.0
30
0
11
178227.5
21
180155.0
31
0
0
LINE
8
cut
10
178227.5
20
180245.0
30
0
11
178272.5
21
180245.0
31
0
0
LINE
8
cut
10
178227.5
20
180155.0
30
0
11
178272.5
21
180155.0
31
0
0
LINE
8
cut
10
178272.5
20
180245.0
30
0
11
178272.5
21
180155.0
31
0
0
LINE
8
cut
10
179727.5
20
180245.0
30
0
11
179727.5
21
180155.0
31
0
0
LINE
8
cut
10
179727.5
20
180245.0
30
0
11
179772.5
21
180245.0
31
0
0
LINE
8
cut
10
179727.5
20
180155.0
30
0
11
179772.5
21
180155.0
31
0
0
LINE
8
cut
10
179772.5
20
180245.0
30
0
11
179772.5
21
180155.0
31
0
0
LINE
8
cut
10
181227.5
20
180245.0
30
0
11
181227.5
21
180155.0
31
0
0
LINE
8
cut
10
181227.5
20
180245.0
30
0
11
181272.5
21
180245.0
31
0
0
LINE
8
cut
10
181227.5
20
180155.0
30
0
11
181272.5
21
180155.0
31
0
0
LINE
8
cut
10
181272.5
20
180245.0
30
0
11
181272.5
21
180155.0
31
0
0
LINE
8
cut
10
182727.5
20
180245.0
30
0
11
182727.5
21
180155.0
31
0
0
LINE
8
cut
10
182727.5
20
180245.0
30
0
11
182772.5
21
180245.0
31
0
0
LINE
8
cut
10
182727.5
20
180155.0
30
0
11
182772.5
21
180155.0
31
0
0
LINE
8
cut
10
182772.5
20
180245.0
30
0
11
182772.5
21
180155.0
31
0
0
LINE
8
cut
10
184227.5
20
180245.0
30
0
11
184227.5
21
180155.0
31
0
0
LINE
8
cut
10
184227.5
20
180245.0
30
0
11
184272.5
21
180245.0
31
0
0
LINE
8
cut
10
184227.5
20
180155.0
30
0
11
184272.5
21
180155.0
31
0
0
LINE
8
cut
10
184272.5
20
180245.0
30
0
11
184272.5
21
180155.0
31
0
0
LINE
8
cut
10
185727.5
20
180245.0
30
0
11
185727.5
21
180155.0
31
0
0
LINE
8
cut
10
185727.5
20
180245.0
30
0
11
185772.5
21
180245.0
31
0
0
LINE
8
cut
10
185727.5
20
180155.0
30
0
11
185772.5
21
180155.0
31
0
0
LINE
8
cut
10
185772.5
20
180245.0
30
0
11
185772.5
21
180155.0
31
0
0
LINE
8
cut
10
187227.5
20
180245.0
30
0
11
187227.5
21
180155.0
31
0
0
LINE
8
cut
10
187227.5
20
180245.0
30
0
11
187272.5
21
180245.0
31
0
0
LINE
8
cut
10
187227.5
20
180155.0
30
0
11
187272.5
21
180155.0
31
0
0
LINE
8
cut
10
187272.5
20
180245.0
30
0
11
187272.5
21
180155.0
31
0
0
LINE
8
cut
10
188727.5
20
180245.0
30
0
11
188727.5
21
180155.0
31
0
0
LINE
8
cut
10
188727.5
20
180245.0
30
0
11
188772.5
21
180245.0
31
0
0
LINE
8
cut
10
188727.5
20
180155.0
30
0
11
188772.5
21
180155.0
31
0
0
LINE
8
cut
10
188772.5
20
180245.0
30
0
11
188772.5
21
180155.0
31
0
0
LINE
8
cut
10
190227.5
20
180245.0
30
0
11
190227.5
21
180155.0
31
0
0
LINE
8
cut
10
190227.5
20
180245.0
30
0
11
190272.5
21
180245.0
31
0
0
LINE
8
cut
10
190227.5
20
180155.0
30
0
11
190272.5
21
180155.0
31
0
0
LINE
8
cut
10
190272.5
20
180245.0
30
0
11
190272.5
21
180155.0
31
0
0
LINE
8
cut
10
191727.5
20
180245.0
30
0
11
191727.5
21
180155.0
31
0
0
LINE
8
cut
10
191727.5
20
180245.0
30
0
11
191772.5
21
180245.0
31
0
0
LINE
8
cut
10
191727.5
20
180155.0
30
0
11
191772.5
21
180155.0
31
0
0
LINE
8
cut
10
191772.5
20
180245.0
30
0
11
191772.5
21
180155.0
31
0
0
LINE
8
cut
10
193227.5
20
180245.0
30
0
11
193227.5
21
180155.0
31
0
0
LINE
8
cut
10
193227.5
20
180245.0
30
0
11
193272.5
21
180245.0
31
0
0
LINE
8
cut
10
193227.5
20
180155.0
30
0
11
193272.5
21
180155.0
31
0
0
LINE
8
cut
10
193272.5
20
180245.0
30
0
11
193272.5
21
180155.0
31
0
0
LINE
8
cut
10
194727.5
20
180245.0
30
0
11
194727.5
21
180155.0
31
0
0
LINE
8
cut
10
194727.5
20
180245.0
30
0
11
194772.5
21
180245.0
31
0
0
LINE
8
cut
10
194727.5
20
180155.0
30
0
11
194772.5
21
180155.0
31
0
0
LINE
8
cut
10
194772.5
20
180245.0
30
0
11
194772.5
21
180155.0
31
0
0
LINE
8
cut
10
196227.5
20
180245.0
30
0
11
196227.5
21
180155.0
31
0
0
LINE
8
cut
10
196227.5
20
180245.0
30
0
11
196272.5
21
180245.0
31
0
0
LINE
8
cut
10
196227.5
20
180155.0
30
0
11
196272.5
21
180155.0
31
0
0
LINE
8
cut
10
196272.5
20
180245.0
30
0
11
196272.5
21
180155.0
31
0
0
LINE
8
cut
10
197727.5
20
180245.0
30
0
11
197727.5
21
180155.0
31
0
0
LINE
8
cut
10
197727.5
20
180245.0
30
0
11
197772.5
21
180245.0
31
0
0
LINE
8
cut
10
197727.5
20
180155.0
30
0
11
197772.5
21
180155.0
31
0
0
LINE
8
cut
10
197772.5
20
180245.0
30
0
11
197772.5
21
180155.0
31
0
0
LINE
8
cut
10
199227.5
20
180245.0
30
0
11
199227.5
21
180155.0
31
0
0
LINE
8
cut
10
199227.5
20
180245.0
30
0
11
199272.5
21
180245.0
31
0
0
LINE
8
cut
10
199227.5
20
180155.0
30
0
11
199272.5
21
180155.0
31
0
0
LINE
8
cut
10
199272.5
20
180245.0
30
0
11
199272.5
21
180155.0
31
0
0
LINE
8
cut
10
200727.5
20
180245.0
30
0
11
200727.5
21
180155.0
31
0
0
LINE
8
cut
10
200727.5
20
180245.0
30
0
11
200772.5
21
180245.0
31
0
0
LINE
8
cut
10
200727.5
20
180155.0
30
0
11
200772.5
21
180155.0
31
0
0
LINE
8
cut
10
200772.5
20
180245.0
30
0
11
200772.5
21
180155.0
31
0
0
LINE
8
cut
10
202227.5
20
180245.0
30
0
11
202227.5
21
180155.0
31
0
0
LINE
8
cut
10
202227.5
20
180245.0
30
0
11
202272.5
21
180245.0
31
0
0
LINE
8
cut
10
202227.5
20
180155.0
30
0
11
202272.5
21
180155.0
31
0
0
LINE
8
cut
10
202272.5
20
180245.0
30
0
11
202272.5
21
180155.0
31
0
0
LINE
8
cut
10
203727.5
20
180245.0
30
0
11
203727.5
21
180155.0
31
0
0
LINE
8
cut
10
203727.5
20
180245.0
30
0
11
203772.5
21
180245.0
31
0
0
LINE
8
cut
10
203727.5
20
180155.0
30
0
11
203772.5
21
180155.0
31
0
0
LINE
8
cut
10
203772.5
20
180245.0
30
0
11
203772.5
21
180155.0
31
0
0
LINE
8
cut
10
205227.5
20
180245.0
30
0
11
205227.5
21
180155.0
31
0
0
LINE
8
cut
10
205227.5
20
180245.0
30
0
11
205272.5
21
180245.0
31
0
0
LINE
8
cut
10
205227.5
20
180155.0
30
0
11
205272.5
21
180155.0
31
0
0
LINE
8
cut
10
205272.5
20
180245.0
30
0
11
205272.5
21
180155.0
31
0
0
LINE
8
cut
10
206727.5
20
180245.0
30
0
11
206727.5
21
180155.0
31
0
0
LINE
8
cut
10
206727.5
20
180245.0
30
0
11
206772.5
21
180245.0
31
0
0
LINE
8
cut
10
206727.5
20
180155.0
30
0
11
206772.5
21
180155.0
31
0
0
LINE
8
cut
10
206772.5
20
180245.0
30
0
11
206772.5
21
180155.0
31
0
0
LINE
8
cut
10
208227.5
20
180245.0
30
0
11
208227.5
21
180155.0
31
0
0
LINE
8
cut
10
208227.5
20
180245.0
30
0
11
208272.5
21
180245.0
31
0
0
LINE
8
cut
10
208227.5
20
180155.0
30
0
11
208272.5
21
180155.0
31
0
0
LINE
8
cut
10
208272.5
20
180245.0
30
0
11
208272.5
21
180155.0
31
0
0
LINE
8
cut
10
209727.5
20
180245.0
30
0
11
209727.5
21
180155.0
31
0
0
LINE
8
cut
10
209727.5
20
180245.0
30
0
11
209772.5
21
180245.0
31
0
0
LINE
8
cut
10
209727.5
20
180155.0
30
0
11
209772.5
21
180155.0
31
0
0
LINE
8
cut
10
209772.5
20
180245.0
30
0
11
209772.5
21
180155.0
31
0
0
LINE
8
cut
10
211227.5
20
180245.0
30
0
11
211227.5
21
180155.0
31
0
0
LINE
8
cut
10
211227.5
20
180245.0
30
0
11
211272.5
21
180245.0
31
0
0
LINE
8
cut
10
211227.5
20
180155.0
30
0
11
211272.5
21
180155.0
31
0
0
LINE
8
cut
10
211272.5
20
180245.0
30
0
11
211272.5
21
180155.0
31
0
0
LINE
8
cut
10
212727.5
20
180245.0
30
0
11
212727.5
21
180155.0
31
0
0
LINE
8
cut
10
212727.5
20
180245.0
30
0
11
212772.5
21
180245.0
31
0
0
LINE
8
cut
10
212727.5
20
180155.0
30
0
11
212772.5
21
180155.0
31
0
0
LINE
8
cut
10
212772.5
20
180245.0
30
0
11
212772.5
21
180155.0
31
0
0
LINE
8
cut
10
214227.5
20
180245.0
30
0
11
214227.5
21
180155.0
31
0
0
LINE
8
cut
10
214227.5
20
180245.0
30
0
11
214272.5
21
180245.0
31
0
0
LINE
8
cut
10
214227.5
20
180155.0
30
0
11
214272.5
21
180155.0
31
0
0
LINE
8
cut
10
214272.5
20
180245.0
30
0
11
214272.5
21
180155.0
31
0
0
LINE
8
cut
10
215727.5
20
180245.0
30
0
11
215727.5
21
180155.0
31
0
0
LINE
8
cut
10
215727.5
20
180245.0
30
0
11
215772.5
21
180245.0
31
0
0
LINE
8
cut
10
215727.5
20
180155.0
30
0
11
215772.5
21
180155.0
31
0
0
LINE
8
cut
10
215772.5
20
180245.0
30
0
11
215772.5
21
180155.0
31
0
0
LINE
8
cut
10
217227.5
20
180245.0
30
0
11
217227.5
21
180155.0
31
0
0
LINE
8
cut
10
217227.5
20
180245.0
30
0
11
217272.5
21
180245.0
31
0
0
LINE
8
cut
10
217227.5
20
180155.0
30
0
11
217272.5
21
180155.0
31
0
0
LINE
8
cut
10
217272.5
20
180245.0
30
0
11
217272.5
21
180155.0
31
0
0
LINE
8
cut
10
218727.5
20
180245.0
30
0
11
218727.5
21
180155.0
31
0
0
LINE
8
cut
10
218727.5
20
180245.0
30
0
11
218772.5
21
180245.0
31
0
0
LINE
8
cut
10
218727.5
20
180155.0
30
0
11
218772.5
21
180155.0
31
0
0
LINE
8
cut
10
218772.5
20
180245.0
30
0
11
218772.5
21
180155.0
31
0
0
LINE
8
cut
10
220227.5
20
180245.0
30
0
11
220227.5
21
180155.0
31
0
0
LINE
8
cut
10
220227.5
20
180245.0
30
0
11
220272.5
21
180245.0
31
0
0
LINE
8
cut
10
220227.5
20
180155.0
30
0
11
220272.5
21
180155.0
31
0
0
LINE
8
cut
10
220272.5
20
180245.0
30
0
11
220272.5
21
180155.0
31
0
0
LINE
8
cut
10
221727.5
20
180245.0
30
0
11
221727.5
21
180155.0
31
0
0
LINE
8
cut
10
221727.5
20
180245.0
30
0
11
221772.5
21
180245.0
31
0
0
LINE
8
cut
10
221727.5
20
180155.0
30
0
11
221772.5
21
180155.0
31
0
0
LINE
8
cut
10
221772.5
20
180245.0
30
0
11
221772.5
21
180155.0
31
0
0
LINE
8
cut
10
223227.5
20
180245.0
30
0
11
223227.5
21
180155.0
31
0
0
LINE
8
cut
10
223227.5
20
180245.0
30
0
11
223272.5
21
180245.0
31
0
0
LINE
8
cut
10
223227.5
20
180155.0
30
0
11
223272.5
21
180155.0
31
0
0
LINE
8
cut
10
223272.5
20
180245.0
30
0
11
223272.5
21
180155.0
31
0
0
LINE
8
cut
10
224727.5
20
180245.0
30
0
11
224727.5
21
180155.0
31
0
0
LINE
8
cut
10
224727.5
20
180245.0
30
0
11
224772.5
21
180245.0
31
0
0
LINE
8
cut
10
224727.5
20
180155.0
30
0
11
224772.5
21
180155.0
31
0
0
LINE
8
cut
10
224772.5
20
180245.0
30
0
11
224772.5
21
180155.0
31
0
0
LINE
8
cut
10
226227.5
20
180245.0
30
0
11
226227.5
21
180155.0
31
0
0
LINE
8
cut
10
226227.5
20
180245.0
30
0
11
226272.5
21
180245.0
31
0
0
LINE
8
cut
10
226227.5
20
180155.0
30
0
11
226272.5
21
180155.0
31
0
0
LINE
8
cut
10
226272.5
20
180245.0
30
0
11
226272.5
21
180155.0
31
0
0
LINE
8
cut
10
227727.5
20
180245.0
30
0
11
227727.5
21
180155.0
31
0
0
LINE
8
cut
10
227727.5
20
180245.0
30
0
11
227772.5
21
180245.0
31
0
0
LINE
8
cut
10
227727.5
20
180155.0
30
0
11
227772.5
21
180155.0
31
0
0
LINE
8
cut
10
227772.5
20
180245.0
30
0
11
227772.5
21
180155.0
31
0
0
LINE
8
cut
10
229227.5
20
180245.0
30
0
11
229227.5
21
180155.0
31
0
0
LINE
8
cut
10
229227.5
20
180245.0
30
0
11
229272.5
21
180245.0
31
0
0
LINE
8
cut
10
229227.5
20
180155.0
30
0
11
229272.5
21
180155.0
31
0
0
LINE
8
cut
10
229272.5
20
180245.0
30
0
11
229272.5
21
180155.0
31
0
0
LINE
8
cut
10
230727.5
20
180245.0
30
0
11
230727.5
21
180155.0
31
0
0
LINE
8
cut
10
230727.5
20
180245.0
30
0
11
230772.5
21
180245.0
31
0
0
LINE
8
cut
10
230727.5
20
180155.0
30
0
11
230772.5
21
180155.0
31
0
0
LINE
8
cut
10
230772.5
20
180245.0
30
0
11
230772.5
21
180155.0
31
0
0
LINE
8
cut
10
232227.5
20
180245.0
30
0
11
232227.5
21
180155.0
31
0
0
LINE
8
cut
10
232227.5
20
180245.0
30
0
11
232272.5
21
180245.0
31
0
0
LINE
8
cut
10
232227.5
20
180155.0
30
0
11
232272.5
21
180155.0
31
0
0
LINE
8
cut
10
232272.5
20
180245.0
30
0
11
232272.5
21
180155.0
31
0
0
LINE
8
cut
10
233727.5
20
180245.0
30
0
11
233727.5
21
180155.0
31
0
0
LINE
8
cut
10
233727.5
20
180245.0
30
0
11
233772.5
21
180245.0
31
0
0
LINE
8
cut
10
233727.5
20
180155.0
30
0
11
233772.5
21
180155.0
31
0
0
LINE
8
cut
10
233772.5
20
180245.0
30
0
11
233772.5
21
180155.0
31
0
0
LINE
8
cut
10
235227.5
20
180245.0
30
0
11
235227.5
21
180155.0
31
0
0
LINE
8
cut
10
235227.5
20
180245.0
30
0
11
235272.5
21
180245.0
31
0
0
LINE
8
cut
10
235227.5
20
180155.0
30
0
11
235272.5
21
180155.0
31
0
0
LINE
8
cut
10
235272.5
20
180245.0
30
0
11
235272.5
21
180155.0
31
0
0
LINE
8
cut
10
235600.0
20
180000.0
30
0
11
235600.0
21
63000.0
31
0
0
LINE
8
cut
10
235600.0
20
180000.0
30
0
11
235899.99999999997
21
180000.0
31
0
0
LINE
8
cut
10
235600.0
20
63000.0
30
0
11
235899.99999999997
21
63000.0
31
0
0
LINE
8
cut
10
235899.99999999997
20
180000.0
30
0
11
235899.99999999997
21
63000.0
31
0
0
LINE
8
interiors
10
75750.0
20
116420.0
30
0
11
75750.0
21
116580.0
31
0
0
LINE
8
interiors
10
231750.0
20
116420.0
30
0
11
231750.0
21
116580.0
31
0
0
LINE
8
interiors
10
75750.0
20
116420.0
30
0
11
231750.0
21
116420.0
31
0
0
LINE
8
interiors
10
75750.0
20
116580.0
30
0
11
231750.0
21
116580.0
31
0
0
LINE
8
interiors
10
75750.0
20
126420.0
30
0
11
75750.0
21
126580.0
31
0
0
LINE
8
interiors
10
231750.0
20
126420.0
30
0
11
231750.0
21
126580.0
31
0
0
LINE
8
interiors
10
75750.0
20
126420.0
30
0
11
231750.0
21
126420.0
31
0
0
LINE
8
interiors
10
75750.0
20
126580.0
30
0
11
231750.0
21
126580.0
31
0
0
LINE
8
interiors
10
80870.0
20
153000.0
30
0
11
80870.0
21
155000.0
31
0
0
LINE
8
interiors
10
80870.0
20
156000.0
30
0
11
80870.0
21
158000.0
31
0
0
LINE
8
interiors
10
88870.0
20
153000.0
30
0
11
88870.0
21
155000.0
31
0
0
LINE
8
interiors
10
88870.0
20
156000.0
30
0
11
88870.0
21
158000.0
31
0
0
LINE
8
interiors
10
80870.0
20
153000.0
30
0
11
88870.0
21
153000.0
31
0
0
LINE
8
interiors
10
80870.0
20
158000.0
30
0
11
88870.0
21
158000.0
31
0
0
LINE
8
interiors
10
80870.0
20
155000.0
30
0
11
80870.0
21
156000.0
31
0
0
LINE
8
interiors
10
88870.0
20
155000.0
30
0
11
88870.0
21
156000.0
31
0
0
LINE
8
interiors
10
80870.0
20
155000.0
30
0
11
81870.0
21
155000.0
31
0
0
LINE
8
interiors
10
83870.0
20
155000.0
30
0
11
88870.0
21
155000.0
31
0
0
LINE
8
interiors
10
80870.0
20
156000.0
30
0
11
81870.0
21
156000.0
31
0
0
LINE
8
interiors
10
83870.0
20
156000.0
30
0
11
88870.0
21
156000.0
31
0
0
LINE
8
interiors
10
81870.0
20
154500.0
30
0
11
81870.0
21
156500.0
31
0
0
LINE
8
interiors
10
83870.0
20
154500.0
30
0
11
83870.0
21
156500.0
31
0
0
LINE
8
interiors
10
81870.0
20
154500.0
30
0
11
83870.0
21
154500.0
31
0
0
LINE
8
interiors
10
81870.0
20
156500.0
30
0
11
83870.0
21
156500.0
31
0
0
LINE
8
interiors
10
108422.0
20
85000.0
30
0
11
108422.0
21
87000.0
31
0
0
LINE
8
interiors
10
108422.0
20
88000.0
30
0
11
108422.0
21
90000.0
31
0
0
LINE
8
interiors
10
116422.0
20
85000.0
30
0
11
116422.0
21
87000.0
31
0
0
LINE
8
interiors
10
116422.0
20
88000.0
30
0
11
116422.0
21
90000.0
31
0
0
LINE
8
interiors
10
108422.0
20
85000.0
30
0
11
116422.0
21
85000.0
31
0
0
LINE
8
interiors
10
108422.0
20
90000.0
30
0
11
116422.0
21
90000.0
31
0
0
LINE
8
interiors
10
108422.0
20
87000.0
30
0
11
108422.0
21
88000.0
31
0
0
LINE
8
interiors
10
116422.0
20
87000.0
30
0
11
116422.0
21
88000.0
31
0
0
LINE
8
interiors
10
108422.0
20
87000.0
30
0
11
109422.00000000001
21
87000.0
31
0
0
LINE
8
interiors
10
111422.0
20
87000.0
30
0
11
116422.0
21
87000.0
31
0
0
LINE
8
interiors
10
108422.0
20
88000.0
30
0
11
109422.00000000001
21
88000.0
31
0
0
LINE
8
interiors
10
111422.0
20
88000.0
30
0
11
116422.0
21
88000.0
31
0
0
LINE
8
interiors
10
109422.00000000001
20
86500.0
30
0
11
109422.00000000001
21
88500.0
31
0
0
LINE
8
interiors
10
111422.0
20
86500.0
30
0
11
111422.0
21
88500.0
31
0
0
LINE
8
interiors
10
109422.00000000001
20
86500.0
30
0
11
111422.0
21
86500.0
31
0
0
LINE
8
interiors
10
109422.00000000001
20
88500.0
30
0
11
111422.0
21
88500.0
31
0
0
LINE
8
interiors
10
135974.0
20
153000.0
30
0
11
135974.0
21
155000.0
31
0
0
LINE
8
interiors
10
135974.0
20
156000.0
30
0
11
135974.0
21
158000.0
31
0
0
LINE
8
interiors
10
143974.0
20
153000.0
30
0
11
143974.0
21
155000.0
31
0
0
LINE
8
interiors
10
143974.0
20
156000.0
30
0
11
143974.0
21
158000.0
31
0
0
LINE
8
interiors
10
135974.0
20
153000.0
30
0
11
143974.0
21
153000.0
31
0
0
LINE
8
interiors
10
135974.0
20
158000.0
30
0
11
143974.0
21
158000.0
31
0
0
LINE
8
interiors
10
135974.0
20
155000.0
30
0
11
135974.0
21
156000.0
31
0
0
LINE
8
interiors
10
143974.0
20
155000.0
30
0
11
143974.0
21
156000.0
31
0
0
LINE
8
interiors
10
135974.0
20
155000.0
30
0
11
136974.0
21
155000.0
31
0
0
LINE
8
interiors
10
138974.0
20
155000.0
30
0
11
143974.0
21
155000.0
31
0
0
LINE
8
interiors
10
135974.0
20
156000.0
30
0
11
136974.0
21
156000.0
31
0
0
LINE
8
interiors
10
138974.0
20
156000.0
30
0
11
143974.0
21
156000.0
31
0
0
LINE
8
interiors
10
136974.0
20
154500.0
30
0
11
136974.0
21
156500.0
31
0
0
LINE
8
interiors
10
138974.0
20
154500.0
30
0
11
138974.0
21
156500.0
31
0
0
LINE
8
interiors
10
136974.0
20
154500.0
30
0
11
138974.0
21
154500.0
31
0
0
LINE
8
interiors
10
136974.0
20
156500.0
30
0
11
138974.0
21
156500.0
31
0
0
LINE
8
interiors
10
163526.0
20
85000.0
30
0
11
163526.0
21
87000.0
31
0
0
LINE
8
interiors
10
163526.0
20
88000.0
30
0
11
163526.0
21
90000.0
31
0
0
LINE
8
interiors
10
171526.0
20
85000.0
30
0
11
171526.0
21
87000.0
31
0
0
LINE
8
interiors
10
171526.0
20
88000.0
30
0
11
171526.0
21
90000.0
31
0
0
LINE
8
interiors
10
163526.0
20
85000.0
30
0
11
171526.0
21
85000.0
31
0
0
LINE
8
interiors
10
163526.0
20
90000.0
30
0
11
171526.0
21
90000.0
31
0
0
LINE
8
interiors
10
163526.0
20
87000.0
30
0
11
163526.0
21
88000.0
31
0
0
LINE
8
interiors
10
171526.0
20
87000.0
30
0
11
171526.0
21
88000.0
31
0
0
LINE
8
interiors
10
163526.0
20
87000.0
30
0
11
164526.0
21
87000.0
31
0
0
LINE
8
interiors
10
166526.0
20
87000.0
30
0
11
171526.0
21
87000.0
31
0
0
LINE
8
interiors
10
163526.0
20
88000.0
30
0
11
164526.0
21
88000.0
31
0
0
LINE
8
interiors
10
166526.0
20
88000.0
30
0
11
171526.0
21
88000.0
31
0
0
LINE
8
interiors
10
164526.0
20
86500.0
30
0
11
164526.0
21
88500.0
31
0
0
LINE
8
interiors
10
166526.0
20
86500.0
30
0
11
166526.0
21
88500.0
31
0
0
LINE
8
interiors
10
164526.0
20
86500.0
30
0
11
166526.0
21
86500.0
31
0
0
LINE
8
interiors
10
164526.0
20
88500.0
30
0
11
166526.0
21
88500.0
31
0
0
LINE
8
interiors
10
191078.0
20
153000.0
30
0
11
191078.0
21
155000.0
31
0
0
LINE
8
interiors
10
191078.0
20
156000.0
30
0
11
191078.0
21
158000.0
31
0
0
LINE
8
interiors
10
199078.00000000003
20
153000.0
30
0
11
199078.00000000003
21
155000.0
31
0
0
LINE
8
interiors
10
199078.00000000003
20
156000.0
30
0
11
199078.00000000003
21
158000.0
31
0
0
LINE
8
interiors
10
191078.0
20
153000.0
30
0
11
199078.00000000003
21
153000.0
31
0
0
LINE
8
interiors
10
191078.0
20
158000.0
30
0
11
199078.00000000003
21
158000.0
31
0
0
LINE
8
interiors
10
191078.0
20
155000.0
30
0
11
191078.0
21
156000.0
31
0
0
LINE
8
interiors
10
199078.00000000003
20
155000.0
30
0
11
199078.00000000003
21
156000.0
31
0
0
LINE
8
interiors
10
191078.0
20
155000.0
30
0
11
192078.0
21
155000.0
31
0
0
LINE
8
interiors
10
194078.0
20
155000.0
30
0
11
199078.00000000003
21
155000.0
31
0
0
LINE
8
interiors
10
191078.0
20
156000.0
30
0
11
192078.0
21
156000.0
31
0
0
LINE
8
interiors
10
194078.0
20
156000.0
30
0
11
199078.00000000003
21
156000.0
31
0
0
LINE
8
interiors
10
192078.0
20
154500.0
30
0
11
192078.0
21
156500.0
31
0
0
LINE
8
interiors
10
194078.0
20
154500.0
30
0
11
194078.0
21
156500.0
31
0
0
LINE
8
interiors
10
192078.0
20
154500.0
30
0
11
194078.0
21
154500.0
31
0
0
LINE
8
interiors
10
192078.0
20
156500.0
30
0
11
194078.0
21
156500.0
31
0
0
LINE
8
interiors
10
218630.0
20
85000.0
30
0
11
218630.0
21
87000.0
31
0
0
LINE
8
interiors
10
218630.0
20
88000.0
30
0
11
218630.0
21
90000.0
31
0
0
LINE
8
interiors
10
226630.0
20
85000.0
30
0
11
226630.0
21
87000.0
31
0
0
LINE
8
interiors
10
226630.0
20
88000.0
30
0
11
226630.0
21
90000.0
31
0
0
LINE
8
interiors
10
218630.0
20
85000.0
30
0
11
226630.0
21
85000.0
31
0
0
LINE
8
interiors
10
218630.0
20
90000.0
30
0
11
226630.0
21
90000.0
31
0
0
LINE
8
interiors
10
218630.0
20
87000.0
30
0
11
218630.0
21
88000.0
31
0
0
LINE
8
interiors
10
226630.0
20
87000.0
30
0
11
226630.0
21
88000.0
31
0
0
LINE
8
interiors
10
218630.0
20
87000.0
30
0
11
219630.00000000003
21
87000.0
31
0
0
LINE
8
interiors
10
221630.0
20
87000.0
30
0
11
226630.0
21
87000.0
31
0
0
LINE
8
interiors
10
218630.0
20
88000.0
30
0
11
219630.00000000003
21
88000.0
31
0
0
LINE
8
interiors
10
221630.0
20
88000.0
30
0
11
226630.0
21
88000.0
31
0
0
LINE
8
interiors
10
219630.00000000003
20
86500.0
30
0
11
219630.00000000003
21
88500.0
31
0
0
LINE
8
interiors
10
221630.0
20
86500.0
30
0
11
221630.0
21
88500.0
31
0
0
LINE
8
interiors
10
219630.00000000003
20
86500.0
30
0
11
221630.0
21
86500.0
31
0
0
LINE
8
interiors
10
219630.00000000003
20
88500.0
30
0
11
221630.0
21
88500.0
31
0
0
LINE
8
circulation
10
117949.99999999999
20
65000.000000000015
30
0
11
117949.99999999999
21
75000.0
31
0
0
LINE
8
circulation
10
123949.99999999999
20
65000.000000000015
30
0
11
123949.99999999999
21
75000.0
31
0
0
LINE
8
circulation
10
117949.99999999999
20
65000.000000000015
30
0
11
123949.99999999999
21
65000.000000000015
31
0
0
LINE
8
circulation
10
117949.99999999999
20
75000.0
30
0
11
123949.99999999999
21
75000.0
31
0
0
LINE
8
circulation
10
183550.0
20
65000.000000000015
30
0
11
183550.0
21
75000.0
31
0
0
LINE
8
circulation
10
189550.0
20
65000.000000000015
30
0
11
189550.0
21
75000.0
31
0
0
LINE
8
circulation
10
183550.0
20
65000.000000000015
30
0
11
189550.0
21
65000.000000000015
31
0
0
LINE
8
circulation
10
183550.0
20
75000.0
30
0
11
189550.0
21
75000.0
31
0
0
LINE
8
datum
10
71750.0
20
63000.0
30
0
11
235750.0
21
63000.0
31
0
0
LINE
8
datum
10
235750.0
20
63000.0
30
0
11
235750.0
21
180000.0
31
0
0
LINE
8
datum
10
235750.0
20
180000.0
30
0
11
71750.0
21
180000.0
31
0
0
LINE
8
datum
10
71750.0
20
180000.0
30
0
11
71750.0
21
63000.0
31
0
0
LINE
8
grid
10
73250.0
20
60500.000000000015
30
0
11
73250.0
21
184500.0
31
0
0
TEXT
8
annotation
10
72781.25
20
186000.0
30
0
40
1875.0
1
1
50
0
0
LINE
8
grid
10
85635.0
20
60500.000000000015
30
0
11
85635.0
21
184500.0
31
0
0
TEXT
8
annotation
10
85166.25
20
186000.0
30
0
40
1875.0
1
2
50
0
0
LINE
8
grid
10
98019.0
20
60500.000000000015
30
0
11
98019.0
21
184500.0
31
0
0
TEXT
8
annotation
10
97550.25
20
186000.0
30
0
40
1875.0
1
3
50
0
0
LINE
8
grid
10
110404.0
20
60500.000000000015
30
0
11
110404.0
21
184500.0
31
0
0
TEXT
8
annotation
10
109935.25
20
186000.0
30
0
40
1875.0
1
4
50
0
0
LINE
8
grid
10
122788.0
20
60500.000000000015
30
0
11
122788.0
21
184500.0
31
0
0
TEXT
8
annotation
10
122319.25
20
186000.0
30
0
40
1875.0
1
5
50
0
0
LINE
8
grid
10
135173.0
20
60500.000000000015
30
0
11
135173.0
21
184500.0
31
0
0
TEXT
8
annotation
10
134704.25
20
186000.0
30
0
40
1875.0
1
6
50
0
0
LINE
8
grid
10
147558.0
20
60500.000000000015
30
0
11
147558.0
21
184500.0
31
0
0
TEXT
8
annotation
10
147089.25
20
186000.0
30
0
40
1875.0
1
7
50
0
0
LINE
8
grid
10
159942.0
20
60500.000000000015
30
0
11
159942.0
21
184500.0
31
0
0
TEXT
8
annotation
10
159473.25
20
186000.0
30
0
40
1875.0
1
8
50
0
0
LINE
8
grid
10
172327.0
20
60500.000000000015
30
0
11
172327.0
21
184500.0
31
0
0
TEXT
8
annotation
10
171858.25
20
186000.0
30
0
40
1875.0
1
9
50
0
0
LINE
8
grid
10
184712.0
20
60500.000000000015
30
0
11
184712.0
21
184500.0
31
0
0
TEXT
8
annotation
10
183774.5
20
186000.0
30
0
40
1875.0
1
10
50
0
0
LINE
8
grid
10
197096.0
20
60500.000000000015
30
0
11
197096.0
21
184500.0
31
0
0
TEXT
8
annotation
10
196158.5
20
186000.0
30
0
40
1875.0
1
11
50
0
0
LINE
8
grid
10
209481.0
20
60500.000000000015
30
0
11
209481.0
21
184500.0
31
0
0
TEXT
8
annotation
10
208543.5
20
186000.0
30
0
40
1875.0
1
12
50
0
0
LINE
8
grid
10
221865.0
20
60500.000000000015
30
0
11
221865.0
21
184500.0
31
0
0
TEXT
8
annotation
10
220927.5
20
186000.0
30
0
40
1875.0
1
13
50
0
0
LINE
8
grid
10
234250.0
20
60500.000000000015
30
0
11
234250.0
21
184500.0
31
0
0
TEXT
8
annotation
10
233312.5
20
186000.0
30
0
40
1875.0
1
14
50
0
0
LINE
8
grid
10
67750.0
20
64500.0
30
0
11
239750.0
21
64500.0
31
0
0
TEXT
8
annotation
10
65312.5
20
63750.0
30
0
40
1875.0
1
A
50
0
0
LINE
8
grid
10
67750.0
20
78750.0
30
0
11
239750.0
21
78750.0
31
0
0
TEXT
8
annotation
10
65312.5
20
78000.0
30
0
40
1875.0
1
B
50
0
0
LINE
8
grid
10
67750.0
20
93000.0
30
0
11
239750.0
21
93000.0
31
0
0
TEXT
8
annotation
10
65312.5
20
92250.0
30
0
40
1875.0
1
C
50
0
0
LINE
8
grid
10
67750.0
20
107250.0
30
0
11
239750.0
21
107250.0
31
0
0
TEXT
8
annotation
10
65312.5
20
106500.0
30
0
40
1875.0
1
D
50
0
0
LINE
8
grid
10
67750.0
20
121500.0
30
0
11
239750.0
21
121500.0
31
0
0
TEXT
8
annotation
10
65312.5
20
120750.0
30
0
40
1875.0
1
E
50
0
0
LINE
8
grid
10
67750.0
20
135750.0
30
0
11
239750.0
21
135750.0
31
0
0
TEXT
8
annotation
10
65312.5
20
135000.0
30
0
40
1875.0
1
F
50
0
0
LINE
8
grid
10
67750.0
20
150000.0
30
0
11
239750.0
21
150000.0
31
0
0
TEXT
8
annotation
10
65312.5
20
149250.0
30
0
40
1875.0
1
G
50
0
0
LINE
8
grid
10
67750.0
20
164250.0
30
0
11
239750.0
21
164250.0
31
0
0
TEXT
8
annotation
10
65312.5
20
163500.0
30
0
40
1875.0
1
H
50
0
0
LINE
8
grid
10
67750.0
20
178500.0
30
0
11
239750.0
21
178500.0
31
0
0
TEXT
8
annotation
10
65312.5
20
177750.0
30
0
40
1875.0
1
I
50
0
0
LINE
8
dimension
10
71750.0
20
54000.0
30
0
11
235750.0
21
54000.0
31
0
0
LINE
8
dimension
10
71000.0
20
53250.0
30
0
11
72500.0
21
54750.0
31
0
0
LINE
8
dimension
10
235000.0
20
53250.0
30
0
11
236500.0
21
54750.0
31
0
0
TEXT
8
annotation
10
143625.0
20
55125.0
30
0
40
2250.0
1
164,000 mm overall
50
0
0
LINE
8
dimension
10
244000.0
20
180000.0
30
0
11
244000.0
21
63000.0
31
0
0
TEXT
8
annotation
10
246250.0
20
121500.0
30
0
40
2250.0
1
117,000
50
0
0
TEXT
8
annotation
10
285750.0
20
189000
30
0
40
3000.0
1
N
50
0
0
LINE
8
annotation
10
286500
20
186750
30
0
11
284250
21
180000
31
0
0
LINE
8
annotation
10
284250
20
180000
30
0
11
286500
21
182250
31
0
0
LINE
8
annotation
10
286500
20
182250
30
0
11
288750
21
180000
31
0
0
LINE
8
annotation
10
288750
20
180000
30
0
11
286500
21
186750
31
0
0
LINE
8
section-line
10
68750.0
20
121500.0
30
0
11
238750.0
21
121500.0
31
0
0
TEXT
8
annotation
10
66125.0
20
123000.0
30
0
40
2250.0
1
A
50
0
0
TEXT
8
annotation
10
240250.0
20
123000.0
30
0
40
2250.0
1
A
50
0
0
TEXT
8
annotation
10
103181.24999999999
20
121500.0
30
0
40
2025.0000000000002
1
CIRCULATION
50
0
0
TEXT
8
annotation
10
147168.75
20
155500.0
30
0
40
2025.0000000000002
1
LAB / SUPPORT
50
0
0
TEXT
8
annotation
10
10500
20
48000
30
0
40
2025.0000000000002
1
Primary X grid: 12,385 mm typical; terminal offsets close to overall envelope.
50
0
0
LINE
8
frame
10
10500
20
44250
30
0
11
304500
21
44250
31
0
0
TEXT
8
annotation
10
10500
20
38250
30
0
40
2625.0
1
CONCEPT DESIGN | IMAGE-INFERRED | NOT FOR CONSTRUCTION
50
0
0
TEXT
8
annotation
10
10500
20
28500.0
30
0
40
1987.5
1
Source: two campus AI images + fab1.jpg; official analogues documented in analysis/cad/.
50
0
0
TEXT
8
annotation
10
10500
20
25200.00000000002
30
0
40
1987.5
1
CAD model in mm; site coordinates X east, Y north, Z up. Internal layouts and member sizes are design estimates.
50
0
0
TEXT
8
annotation
10
10500
20
21899.999999999993
30
0
40
1987.5
1
Plans/sections are extracted from actual FreeCAD BRep. Elevations project component outlines; hidden edges omitted per component.
50
0
0
TEXT
8
annotation
10
10500
20
18600.000000000007
30
0
40
1987.5
1
Civic wing roofs and skylight may differ from the nominal building height; inspect actual geometry and parameter aliases.
50
0
0
TEXT
8
annotation
10
10500
20
15299.999999999984
30
0
40
1987.5
1
No process certification, structural verification, measured survey, or construction approval is implied.
50
0
0
TEXT
8
annotation
10
267750.0
20
8250
30
0
40
2100.0
1
2026-09-30  |  FreeCAD 1.1.4  |  mm
50
0
0
ENDSEC
0
EOF
