0
SECTION
2
HEADER
9
$ACADVER
1
AC1009
9
$INSUNITS
70
4
0
ENDSEC
0
SECTION
2
ENTITIES
0
LINE
8
frame
10
3500
20
145000
30
0
11
206500
21
145000
31
0
0
LINE
8
frame
10
206500
20
145000
30
0
11
206500
21
3500
31
0
0
LINE
8
frame
10
206500
20
3500
30
0
11
3500
21
3500
31
0
0
LINE
8
frame
10
3500
20
3500
30
0
11
3500
21
145000
31
0
0
TEXT
8
annotation
10
7000
20
139500
30
0
40
2100.0
1
PHOENIX SCIENCE PARK
50
0
0
TEXT
8
annotation
10
7000
20
135500
30
0
40
2500.0
1
LAB / Section A-A
50
0
0
TEXT
8
annotation
10
193400.0
20
139500
30
0
40
1600.0
1
A3  |  1:500
50
0
0
TEXT
8
annotation
10
186500.0
20
135500
30
0
40
1500.0
1
CAD-LAB-SECTION  /  R1
50
0
0
LINE
8
frame
10
7000
20
133000
30
0
11
203000
21
133000
31
0
0
LINE
8
cut
10
18000.0
20
64400.00000000001
30
0
11
18000.0
21
63200.0
31
0
0
LINE
8
cut
10
18000.0
20
64400.00000000001
30
0
11
187000.0
21
64400.00000000001
31
0
0
LINE
8
cut
10
18000.0
20
63200.0
30
0
11
187000.0
21
63200.0
31
0
0
LINE
8
cut
10
187000.0
20
64400.00000000001
30
0
11
187000.0
21
63200.0
31
0
0
LINE
8
cut
10
21575.000000000004
20
89400.0
30
0
11
21575.000000000004
21
64400.00000000001
31
0
0
LINE
8
cut
10
21575.000000000004
20
89400.0
30
0
11
22424.999999999996
21
89400.0
31
0
0
LINE
8
cut
10
21575.000000000004
20
64400.00000000001
30
0
11
22424.999999999996
21
64400.00000000001
31
0
0
LINE
8
cut
10
22424.999999999996
20
89400.0
30
0
11
22424.999999999996
21
64400.00000000001
31
0
0
LINE
8
cut
10
33959.62
20
89400.0
30
0
11
33959.62
21
64400.00000000001
31
0
0
LINE
8
cut
10
33959.62
20
89400.0
30
0
11
34809.619999999995
21
89400.0
31
0
0
LINE
8
cut
10
33959.62
20
64400.00000000001
30
0
11
34809.619999999995
21
64400.00000000001
31
0
0
LINE
8
cut
10
34809.619999999995
20
89400.0
30
0
11
34809.619999999995
21
64400.00000000001
31
0
0
LINE
8
cut
10
46344.23
20
89400.0
30
0
11
46344.23
21
64400.00000000001
31
0
0
LINE
8
cut
10
46344.23
20
89400.0
30
0
11
47194.23
21
89400.0
31
0
0
LINE
8
cut
10
46344.23
20
64400.00000000001
30
0
11
47194.23
21
64400.00000000001
31
0
0
LINE
8
cut
10
47194.23
20
89400.0
30
0
11
47194.23
21
64400.00000000001
31
0
0
LINE
8
cut
10
58728.85
20
89400.0
30
0
11
58728.85
21
64400.00000000001
31
0
0
LINE
8
cut
10
58728.85
20
89400.0
30
0
11
59578.85
21
89400.0
31
0
0
LINE
8
cut
10
58728.85
20
64400.00000000001
30
0
11
59578.85
21
64400.00000000001
31
0
0
LINE
8
cut
10
59578.85
20
89400.0
30
0
11
59578.85
21
64400.00000000001
31
0
0
LINE
8
cut
10
71113.46
20
89400.0
30
0
11
71113.46
21
64400.00000000001
31
0
0
LINE
8
cut
10
71113.46
20
89400.0
30
0
11
71963.45999999999
21
89400.0
31
0
0
LINE
8
cut
10
71113.46
20
64400.00000000001
30
0
11
71963.45999999999
21
64400.00000000001
31
0
0
LINE
8
cut
10
71963.45999999999
20
89400.0
30
0
11
71963.45999999999
21
64400.00000000001
31
0
0
LINE
8
cut
10
83498.08
20
89400.0
30
0
11
83498.08
21
64400.00000000001
31
0
0
LINE
8
cut
10
83498.08
20
89400.0
30
0
11
84348.08000000002
21
89400.0
31
0
0
LINE
8
cut
10
83498.08
20
64400.00000000001
30
0
11
84348.08000000002
21
64400.00000000001
31
0
0
LINE
8
cut
10
84348.08000000002
20
89400.0
30
0
11
84348.08000000002
21
64400.00000000001
31
0
0
LINE
8
cut
10
95882.69
20
89400.0
30
0
11
95882.69
21
64400.00000000001
31
0
0
LINE
8
cut
10
95882.69
20
89400.0
30
0
11
96732.69
21
89400.0
31
0
0
LINE
8
cut
10
95882.69
20
64400.00000000001
30
0
11
96732.69
21
64400.00000000001
31
0
0
LINE
8
cut
10
96732.69
20
89400.0
30
0
11
96732.69
21
64400.00000000001
31
0
0
LINE
8
cut
10
108267.31
20
89400.0
30
0
11
108267.31
21
64400.00000000001
31
0
0
LINE
8
cut
10
108267.31
20
89400.0
30
0
11
109117.31
21
89400.0
31
0
0
LINE
8
cut
10
108267.31
20
64400.00000000001
30
0
11
109117.31
21
64400.00000000001
31
0
0
LINE
8
cut
10
109117.31
20
89400.0
30
0
11
109117.31
21
64400.00000000001
31
0
0
LINE
8
cut
10
120651.91999999998
20
89400.0
30
0
11
120651.91999999998
21
64400.00000000001
31
0
0
LINE
8
cut
10
120651.91999999998
20
89400.0
30
0
11
121501.92
21
89400.0
31
0
0
LINE
8
cut
10
120651.91999999998
20
64400.00000000001
30
0
11
121501.92
21
64400.00000000001
31
0
0
LINE
8
cut
10
121501.92
20
89400.0
30
0
11
121501.92
21
64400.00000000001
31
0
0
LINE
8
cut
10
133036.54
20
89400.0
30
0
11
133036.54
21
64400.00000000001
31
0
0
LINE
8
cut
10
133036.54
20
89400.0
30
0
11
133886.54
21
89400.0
31
0
0
LINE
8
cut
10
133036.54
20
64400.00000000001
30
0
11
133886.54
21
64400.00000000001
31
0
0
LINE
8
cut
10
133886.54
20
89400.0
30
0
11
133886.54
21
64400.00000000001
31
0
0
LINE
8
cut
10
145421.15000000002
20
89400.0
30
0
11
145421.15000000002
21
64400.00000000001
31
0
0
LINE
8
cut
10
145421.15000000002
20
89400.0
30
0
11
146271.15
21
89400.0
31
0
0
LINE
8
cut
10
145421.15000000002
20
64400.00000000001
30
0
11
146271.15
21
64400.00000000001
31
0
0
LINE
8
cut
10
146271.15
20
89400.0
30
0
11
146271.15
21
64400.00000000001
31
0
0
LINE
8
cut
10
157805.77
20
89400.0
30
0
11
157805.77
21
64400.00000000001
31
0
0
LINE
8
cut
10
157805.77
20
89400.0
30
0
11
158655.77
21
89400.0
31
0
0
LINE
8
cut
10
157805.77
20
64400.00000000001
30
0
11
158655.77
21
64400.00000000001
31
0
0
LINE
8
cut
10
158655.77
20
89400.0
30
0
11
158655.77
21
64400.00000000001
31
0
0
LINE
8
cut
10
170190.38
20
89400.0
30
0
11
170190.38
21
64400.00000000001
31
0
0
LINE
8
cut
10
170190.38
20
89400.0
30
0
11
171040.38
21
89400.0
31
0
0
LINE
8
cut
10
170190.38
20
64400.00000000001
30
0
11
171040.38
21
64400.00000000001
31
0
0
LINE
8
cut
10
171040.38
20
89400.0
30
0
11
171040.38
21
64400.00000000001
31
0
0
LINE
8
cut
10
182575.0
20
89400.0
30
0
11
182575.0
21
64400.00000000001
31
0
0
LINE
8
cut
10
182575.0
20
89400.0
30
0
11
183425.0
21
89400.0
31
0
0
LINE
8
cut
10
182575.0
20
64400.00000000001
30
0
11
183425.0
21
64400.00000000001
31
0
0
LINE
8
cut
10
183425.0
20
89400.0
30
0
11
183425.0
21
64400.00000000001
31
0
0
LINE
8
cut
10
20500.0
20
64800.0
30
0
11
20500.0
21
64400.00000000001
31
0
0
LINE
8
cut
10
20500.0
20
64800.0
30
0
11
184500.0
21
64800.0
31
0
0
LINE
8
cut
10
20500.0
20
64400.00000000001
30
0
11
184500.0
21
64400.00000000001
31
0
0
LINE
8
cut
10
184500.0
20
64800.0
30
0
11
184500.0
21
64400.00000000001
31
0
0
LINE
8
cut
10
20500.0
20
71050.0
30
0
11
20500.0
21
70650.0
31
0
0
LINE
8
cut
10
20500.0
20
71050.0
30
0
11
184500.0
21
71050.0
31
0
0
LINE
8
cut
10
20500.0
20
70650.0
30
0
11
184500.0
21
70650.0
31
0
0
LINE
8
cut
10
184500.0
20
71050.0
30
0
11
184500.0
21
70650.0
31
0
0
LINE
8
cut
10
20500.0
20
77300.0
30
0
11
20500.0
21
76900.0
31
0
0
LINE
8
cut
10
20500.0
20
77300.0
30
0
11
184500.0
21
77300.0
31
0
0
LINE
8
cut
10
20500.0
20
76900.0
30
0
11
184500.0
21
76900.0
31
0
0
LINE
8
cut
10
184500.0
20
77300.0
30
0
11
184500.0
21
76900.0
31
0
0
LINE
8
cut
10
20500.0
20
83550.0
30
0
11
20500.0
21
83150.0
31
0
0
LINE
8
cut
10
20500.0
20
83550.0
30
0
11
184500.0
21
83550.0
31
0
0
LINE
8
cut
10
20500.0
20
83150.0
30
0
11
184500.0
21
83150.0
31
0
0
LINE
8
cut
10
184500.0
20
83550.0
30
0
11
184500.0
21
83150.0
31
0
0
LINE
8
cut
10
20500.0
20
89800.0
30
0
11
20500.0
21
89400.0
31
0
0
LINE
8
cut
10
20500.0
20
89800.0
30
0
11
184500.0
21
89800.0
31
0
0
LINE
8
cut
10
20500.0
20
89400.0
30
0
11
184500.0
21
89400.0
31
0
0
LINE
8
cut
10
184500.0
20
89800.0
30
0
11
184500.0
21
89400.0
31
0
0
LINE
8
cut
10
20349.999999999993
20
89400.0
30
0
11
20349.999999999993
21
64800.0
31
0
0
LINE
8
cut
10
20349.999999999993
20
89400.0
30
0
11
20650.000000000007
21
89400.0
31
0
0
LINE
8
cut
10
20349.999999999993
20
64800.0
30
0
11
20650.000000000007
21
64800.0
31
0
0
LINE
8
cut
10
20650.000000000007
20
89400.0
30
0
11
20650.000000000007
21
64800.0
31
0
0
LINE
8
cut
10
184350.0
20
89400.0
30
0
11
184350.0
21
64800.0
31
0
0
LINE
8
cut
10
184350.0
20
89400.0
30
0
11
184650.0
21
89400.0
31
0
0
LINE
8
cut
10
184350.0
20
64800.0
30
0
11
184650.0
21
64800.0
31
0
0
LINE
8
cut
10
184650.0
20
89400.0
30
0
11
184650.0
21
64800.0
31
0
0
LINE
8
interiors
10
180500.0
20
64800.0
30
0
11
180500.0
21
68000.0
31
0
0
LINE
8
interiors
10
24500.0
20
64800.0
30
0
11
24500.0
21
68000.0
31
0
0
LINE
8
interiors
10
180500.0
20
64800.0
30
0
11
24500.0
21
64800.0
31
0
0
LINE
8
interiors
10
180500.0
20
68000.0
30
0
11
24500.0
21
68000.0
31
0
0
LINE
8
interiors
10
175380.0
20
64800.0
30
0
11
175380.0
21
65800.0
31
0
0
LINE
8
interiors
10
167380.0
20
64800.0
30
0
11
167380.0
21
65800.0
31
0
0
LINE
8
interiors
10
175380.0
20
64800.0
30
0
11
167380.0
21
64800.0
31
0
0
LINE
8
interiors
10
175380.0
20
65800.0
30
0
11
167380.0
21
65800.0
31
0
0
LINE
8
interiors
10
175380.0
20
65800.0
30
0
11
175380.0
21
66900.0
31
0
0
LINE
8
interiors
10
167380.0
20
65800.0
30
0
11
167380.0
21
66900.0
31
0
0
LINE
8
interiors
10
175380.0
20
66900.0
30
0
11
174380.0
21
66900.0
31
0
0
LINE
8
interiors
10
172380.0
20
66900.0
30
0
11
167380.0
21
66900.0
31
0
0
LINE
8
interiors
10
174380.0
20
65800.0
30
0
11
174380.0
21
67600.0
31
0
0
LINE
8
interiors
10
172380.0
20
65800.0
30
0
11
172380.0
21
67600.0
31
0
0
LINE
8
interiors
10
174380.0
20
67600.0
30
0
11
172380.0
21
67600.0
31
0
0
LINE
8
interiors
10
120276.0
20
64800.0
30
0
11
120276.0
21
65800.0
31
0
0
LINE
8
interiors
10
112276.0
20
64800.0
30
0
11
112276.0
21
65800.0
31
0
0
LINE
8
interiors
10
120276.0
20
64800.0
30
0
11
112276.0
21
64800.0
31
0
0
LINE
8
interiors
10
120276.0
20
65800.0
30
0
11
112276.0
21
65800.0
31
0
0
LINE
8
interiors
10
120276.0
20
65800.0
30
0
11
120276.0
21
66900.0
31
0
0
LINE
8
interiors
10
112276.0
20
65800.0
30
0
11
112276.0
21
66900.0
31
0
0
LINE
8
interiors
10
120276.0
20
66900.0
30
0
11
119276.0
21
66900.0
31
0
0
LINE
8
interiors
10
117276.0
20
66900.0
30
0
11
112276.0
21
66900.0
31
0
0
LINE
8
interiors
10
119276.0
20
65800.0
30
0
11
119276.0
21
67600.0
31
0
0
LINE
8
interiors
10
117276.0
20
65800.0
30
0
11
117276.0
21
67600.0
31
0
0
LINE
8
interiors
10
119276.0
20
67600.0
30
0
11
117276.0
21
67600.0
31
0
0
LINE
8
interiors
10
65172.0
20
64800.0
30
0
11
65172.0
21
65800.0
31
0
0
LINE
8
interiors
10
57172.0
20
64800.0
30
0
11
57172.0
21
65800.0
31
0
0
LINE
8
interiors
10
65172.0
20
64800.0
30
0
11
57172.0
21
64800.0
31
0
0
LINE
8
interiors
10
65172.0
20
65800.0
30
0
11
57172.0
21
65800.0
31
0
0
LINE
8
interiors
10
65172.0
20
65800.0
30
0
11
65172.0
21
66900.0
31
0
0
LINE
8
interiors
10
57172.0
20
65800.0
30
0
11
57172.0
21
66900.0
31
0
0
LINE
8
interiors
10
65172.0
20
66900.0
30
0
11
64172.0
21
66900.0
31
0
0
LINE
8
interiors
10
62172.0
20
66900.0
30
0
11
57172.0
21
66900.0
31
0
0
LINE
8
interiors
10
64172.0
20
65800.0
30
0
11
64172.0
21
67600.0
31
0
0
LINE
8
interiors
10
62172.0
20
65800.0
30
0
11
62172.0
21
67600.0
31
0
0
LINE
8
interiors
10
64172.0
20
67600.0
30
0
11
62172.0
21
67600.0
31
0
0
LINE
8
interiors
10
180500.0
20
71050.0
30
0
11
180500.0
21
74250.0
31
0
0
LINE
8
interiors
10
24500.0
20
71050.0
30
0
11
24500.0
21
74250.0
31
0
0
LINE
8
interiors
10
180500.0
20
71050.0
30
0
11
24500.0
21
71050.0
31
0
0
LINE
8
interiors
10
180500.0
20
74250.0
30
0
11
24500.0
21
74250.0
31
0
0
LINE
8
interiors
10
175380.0
20
71050.0
30
0
11
175380.0
21
72050.0
31
0
0
LINE
8
interiors
10
167380.0
20
71050.0
30
0
11
167380.0
21
72050.0
31
0
0
LINE
8
interiors
10
175380.0
20
71050.0
30
0
11
167380.0
21
71050.0
31
0
0
LINE
8
interiors
10
175380.0
20
72050.0
30
0
11
167380.0
21
72050.0
31
0
0
LINE
8
interiors
10
175380.0
20
72050.0
30
0
11
175380.0
21
73150.0
31
0
0
LINE
8
interiors
10
167380.0
20
72050.0
30
0
11
167380.0
21
73150.0
31
0
0
LINE
8
interiors
10
175380.0
20
73150.0
30
0
11
174380.0
21
73150.0
31
0
0
LINE
8
interiors
10
172380.0
20
73150.0
30
0
11
167380.0
21
73150.0
31
0
0
LINE
8
interiors
10
174380.0
20
72050.0
30
0
11
174380.0
21
73850.0
31
0
0
LINE
8
interiors
10
172380.0
20
72050.0
30
0
11
172380.0
21
73850.0
31
0
0
LINE
8
interiors
10
174380.0
20
73850.0
30
0
11
172380.0
21
73850.0
31
0
0
LINE
8
interiors
10
120276.0
20
71050.0
30
0
11
120276.0
21
72050.0
31
0
0
LINE
8
interiors
10
112276.0
20
71050.0
30
0
11
112276.0
21
72050.0
31
0
0
LINE
8
interiors
10
120276.0
20
71050.0
30
0
11
112276.0
21
71050.0
31
0
0
LINE
8
interiors
10
120276.0
20
72050.0
30
0
11
112276.0
21
72050.0
31
0
0
LINE
8
interiors
10
120276.0
20
72050.0
30
0
11
120276.0
21
73150.0
31
0
0
LINE
8
interiors
10
112276.0
20
72050.0
30
0
11
112276.0
21
73150.0
31
0
0
LINE
8
interiors
10
120276.0
20
73150.0
30
0
11
119276.0
21
73150.0
31
0
0
LINE
8
interiors
10
117276.0
20
73150.0
30
0
11
112276.0
21
73150.0
31
0
0
LINE
8
interiors
10
119276.0
20
72050.0
30
0
11
119276.0
21
73850.0
31
0
0
LINE
8
interiors
10
117276.0
20
72050.0
30
0
11
117276.0
21
73850.0
31
0
0
LINE
8
interiors
10
119276.0
20
73850.0
30
0
11
117276.0
21
73850.0
31
0
0
LINE
8
interiors
10
65172.0
20
71050.0
30
0
11
65172.0
21
72050.0
31
0
0
LINE
8
interiors
10
57172.0
20
71050.0
30
0
11
57172.0
21
72050.0
31
0
0
LINE
8
interiors
10
65172.0
20
71050.0
30
0
11
57172.0
21
71050.0
31
0
0
LINE
8
interiors
10
65172.0
20
72050.0
30
0
11
57172.0
21
72050.0
31
0
0
LINE
8
interiors
10
65172.0
20
72050.0
30
0
11
65172.0
21
73150.0
31
0
0
LINE
8
interiors
10
57172.0
20
72050.0
30
0
11
57172.0
21
73150.0
31
0
0
LINE
8
interiors
10
65172.0
20
73150.0
30
0
11
64172.0
21
73150.0
31
0
0
LINE
8
interiors
10
62172.0
20
73150.0
30
0
11
57172.0
21
73150.0
31
0
0
LINE
8
interiors
10
64172.0
20
72050.0
30
0
11
64172.0
21
73850.0
31
0
0
LINE
8
interiors
10
62172.0
20
72050.0
30
0
11
62172.0
21
73850.0
31
0
0
LINE
8
interiors
10
64172.0
20
73850.0
30
0
11
62172.0
21
73850.0
31
0
0
LINE
8
interiors
10
180500.0
20
77300.0
30
0
11
180500.0
21
80500.0
31
0
0
LINE
8
interiors
10
24500.0
20
77300.0
30
0
11
24500.0
21
80500.0
31
0
0
LINE
8
interiors
10
180500.0
20
77300.0
30
0
11
24500.0
21
77300.0
31
0
0
LINE
8
interiors
10
180500.0
20
80500.0
30
0
11
24500.0
21
80500.0
31
0
0
LINE
8
interiors
10
175380.0
20
77300.0
30
0
11
175380.0
21
78300.0
31
0
0
LINE
8
interiors
10
167380.0
20
77300.0
30
0
11
167380.0
21
78300.0
31
0
0
LINE
8
interiors
10
175380.0
20
77300.0
30
0
11
167380.0
21
77300.0
31
0
0
LINE
8
interiors
10
175380.0
20
78300.0
30
0
11
167380.0
21
78300.0
31
0
0
LINE
8
interiors
10
175380.0
20
78300.0
30
0
11
175380.0
21
79400.0
31
0
0
LINE
8
interiors
10
167380.0
20
78300.0
30
0
11
167380.0
21
79400.0
31
0
0
LINE
8
interiors
10
175380.0
20
79400.0
30
0
11
174380.0
21
79400.0
31
0
0
LINE
8
interiors
10
172380.0
20
79400.0
30
0
11
167380.0
21
79400.0
31
0
0
LINE
8
interiors
10
174380.0
20
78300.0
30
0
11
174380.0
21
80100.0
31
0
0
LINE
8
interiors
10
172380.0
20
78300.0
30
0
11
172380.0
21
80100.0
31
0
0
LINE
8
interiors
10
174380.0
20
80100.0
30
0
11
172380.0
21
80100.0
31
0
0
LINE
8
interiors
10
120276.0
20
77300.0
30
0
11
120276.0
21
78300.0
31
0
0
LINE
8
interiors
10
112276.0
20
77300.0
30
0
11
112276.0
21
78300.0
31
0
0
LINE
8
interiors
10
120276.0
20
77300.0
30
0
11
112276.0
21
77300.0
31
0
0
LINE
8
interiors
10
120276.0
20
78300.0
30
0
11
112276.0
21
78300.0
31
0
0
LINE
8
interiors
10
120276.0
20
78300.0
30
0
11
120276.0
21
79400.0
31
0
0
LINE
8
interiors
10
112276.0
20
78300.0
30
0
11
112276.0
21
79400.0
31
0
0
LINE
8
interiors
10
120276.0
20
79400.0
30
0
11
119276.0
21
79400.0
31
0
0
LINE
8
interiors
10
117276.0
20
79400.0
30
0
11
112276.0
21
79400.0
31
0
0
LINE
8
interiors
10
119276.0
20
78300.0
30
0
11
119276.0
21
80100.0
31
0
0
LINE
8
interiors
10
117276.0
20
78300.0
30
0
11
117276.0
21
80100.0
31
0
0
LINE
8
interiors
10
119276.0
20
80100.0
30
0
11
117276.0
21
80100.0
31
0
0
LINE
8
interiors
10
65172.0
20
77300.0
30
0
11
65172.0
21
78300.0
31
0
0
LINE
8
interiors
10
57172.0
20
77300.0
30
0
11
57172.0
21
78300.0
31
0
0
LINE
8
interiors
10
65172.0
20
77300.0
30
0
11
57172.0
21
77300.0
31
0
0
LINE
8
interiors
10
65172.0
20
78300.0
30
0
11
57172.0
21
78300.0
31
0
0
LINE
8
interiors
10
65172.0
20
78300.0
30
0
11
65172.0
21
79400.0
31
0
0
LINE
8
interiors
10
57172.0
20
78300.0
30
0
11
57172.0
21
79400.0
31
0
0
LINE
8
interiors
10
65172.0
20
79400.0
30
0
11
64172.0
21
79400.0
31
0
0
LINE
8
interiors
10
62172.0
20
79400.0
30
0
11
57172.0
21
79400.0
31
0
0
LINE
8
interiors
10
64172.0
20
78300.0
30
0
11
64172.0
21
80100.0
31
0
0
LINE
8
interiors
10
62172.0
20
78300.0
30
0
11
62172.0
21
80100.0
31
0
0
LINE
8
interiors
10
64172.0
20
80100.0
30
0
11
62172.0
21
80100.0
31
0
0
LINE
8
interiors
10
180500.0
20
83550.0
30
0
11
180500.0
21
86750.0
31
0
0
LINE
8
interiors
10
24500.0
20
83550.0
30
0
11
24500.0
21
86750.0
31
0
0
LINE
8
interiors
10
180500.0
20
83550.0
30
0
11
24500.0
21
83550.0
31
0
0
LINE
8
interiors
10
180500.0
20
86750.0
30
0
11
24500.0
21
86750.0
31
0
0
LINE
8
interiors
10
175380.0
20
83550.0
30
0
11
175380.0
21
84550.0
31
0
0
LINE
8
interiors
10
167380.0
20
83550.0
30
0
11
167380.0
21
84550.0
31
0
0
LINE
8
interiors
10
175380.0
20
83550.0
30
0
11
167380.0
21
83550.0
31
0
0
LINE
8
interiors
10
175380.0
20
84550.0
30
0
11
167380.0
21
84550.0
31
0
0
LINE
8
interiors
10
175380.0
20
84550.0
30
0
11
175380.0
21
85650.0
31
0
0
LINE
8
interiors
10
167380.0
20
84550.0
30
0
11
167380.0
21
85650.0
31
0
0
LINE
8
interiors
10
175380.0
20
85650.0
30
0
11
174380.0
21
85650.0
31
0
0
LINE
8
interiors
10
172380.0
20
85650.0
30
0
11
167380.0
21
85650.0
31
0
0
LINE
8
interiors
10
174380.0
20
84550.0
30
0
11
174380.0
21
86350.0
31
0
0
LINE
8
interiors
10
172380.0
20
84550.0
30
0
11
172380.0
21
86350.0
31
0
0
LINE
8
interiors
10
174380.0
20
86350.0
30
0
11
172380.0
21
86350.0
31
0
0
LINE
8
interiors
10
120276.0
20
83550.0
30
0
11
120276.0
21
84550.0
31
0
0
LINE
8
interiors
10
112276.0
20
83550.0
30
0
11
112276.0
21
84550.0
31
0
0
LINE
8
interiors
10
120276.0
20
83550.0
30
0
11
112276.0
21
83550.0
31
0
0
LINE
8
interiors
10
120276.0
20
84550.0
30
0
11
112276.0
21
84550.0
31
0
0
LINE
8
interiors
10
120276.0
20
84550.0
30
0
11
120276.0
21
85650.0
31
0
0
LINE
8
interiors
10
112276.0
20
84550.0
30
0
11
112276.0
21
85650.0
31
0
0
LINE
8
interiors
10
120276.0
20
85650.0
30
0
11
119276.0
21
85650.0
31
0
0
LINE
8
interiors
10
117276.0
20
85650.0
30
0
11
112276.0
21
85650.0
31
0
0
LINE
8
interiors
10
119276.0
20
84550.0
30
0
11
119276.0
21
86350.0
31
0
0
LINE
8
interiors
10
117276.0
20
84550.0
30
0
11
117276.0
21
86350.0
31
0
0
LINE
8
interiors
10
119276.0
20
86350.0
30
0
11
117276.0
21
86350.0
31
0
0
LINE
8
interiors
10
65172.0
20
83550.0
30
0
11
65172.0
21
84550.0
31
0
0
LINE
8
interiors
10
57172.0
20
83550.0
30
0
11
57172.0
21
84550.0
31
0
0
LINE
8
interiors
10
65172.0
20
83550.0
30
0
11
57172.0
21
83550.0
31
0
0
LINE
8
interiors
10
65172.0
20
84550.0
30
0
11
57172.0
21
84550.0
31
0
0
LINE
8
interiors
10
65172.0
20
84550.0
30
0
11
65172.0
21
85650.0
31
0
0
LINE
8
interiors
10
57172.0
20
84550.0
30
0
11
57172.0
21
85650.0
31
0
0
LINE
8
interiors
10
65172.0
20
85650.0
30
0
11
64172.0
21
85650.0
31
0
0
LINE
8
interiors
10
62172.0
20
85650.0
30
0
11
57172.0
21
85650.0
31
0
0
LINE
8
interiors
10
64172.0
20
84550.0
30
0
11
64172.0
21
86350.0
31
0
0
LINE
8
interiors
10
62172.0
20
84550.0
30
0
11
62172.0
21
86350.0
31
0
0
LINE
8
interiors
10
64172.0
20
86350.0
30
0
11
62172.0
21
86350.0
31
0
0
LINE
8
equipment
10
165300.0
20
89800.0
30
0
11
165300.0
21
90300.0
31
0
0
LINE
8
equipment
10
154500.0
20
89800.0
30
0
11
154500.0
21
90300.0
31
0
0
LINE
8
equipment
10
165300.0
20
89800.0
30
0
11
154500.0
21
89800.0
31
0
0
LINE
8
equipment
10
165300.0
20
90300.0
30
0
11
154500.0
21
90300.0
31
0
0
LINE
8
equipment
10
164500.0
20
90700.0
30
0
11
164500.0
21
93000.0
31
0
0
LINE
8
equipment
10
162700.0
20
90700.0
30
0
11
162700.0
21
93000.0
31
0
0
LINE
8
equipment
10
164500.0
20
90700.0
30
0
11
162700.0
21
90700.0
31
0
0
LINE
8
equipment
10
164500.0
20
93000.0
30
0
11
162700.0
21
93000.0
31
0
0
LINE
8
equipment
10
161100.0
20
93900.0
30
0
11
161125.07
21
93900.0
31
0
0
LINE
8
equipment
10
161125.07
20
93900.0
30
0
11
161199.03
21
93900.0
31
0
0
LINE
8
equipment
10
161199.03
20
93900.0
30
0
11
161318.17
21
93900.0
31
0
0
LINE
8
equipment
10
161318.17
20
93900.0
30
0
11
161476.51
21
93900.0
31
0
0
LINE
8
equipment
10
161476.51
20
93900.0
30
0
11
161666.12
21
93900.0
31
0
0
LINE
8
equipment
10
161666.12
20
93900.0
30
0
11
161877.47999999998
21
93900.0
31
0
0
LINE
8
equipment
10
161877.47999999998
20
93900.0
30
0
11
162100.0
21
93900.0
31
0
0
LINE
8
equipment
10
162100.0
20
93900.0
30
0
11
162322.52
21
93900.0
31
0
0
LINE
8
equipment
10
162322.52
20
93900.0
30
0
11
162533.88
21
93900.0
31
0
0
LINE
8
equipment
10
162533.88
20
93900.0
30
0
11
162723.49
21
93900.0
31
0
0
LINE
8
equipment
10
162723.49
20
93900.0
30
0
11
162881.83000000002
21
93900.0
31
0
0
LINE
8
equipment
10
162881.83000000002
20
93900.0
30
0
11
163000.97
21
93900.0
31
0
0
LINE
8
equipment
10
163000.97
20
93900.0
30
0
11
163074.93
21
93900.0
31
0
0
LINE
8
equipment
10
163074.93
20
93900.0
30
0
11
163100.0
21
93900.0
31
0
0
LINE
8
equipment
10
161100.0
20
93600.0
30
0
11
161100.0
21
93900.0
31
0
0
LINE
8
equipment
10
161100.0
20
93600.0
30
0
11
161125.07
21
93600.0
31
0
0
LINE
8
equipment
10
161125.07
20
93600.0
30
0
11
161199.03
21
93600.0
31
0
0
LINE
8
equipment
10
161199.03
20
93600.0
30
0
11
161318.17
21
93600.0
31
0
0
LINE
8
equipment
10
161318.17
20
93600.0
30
0
11
161476.51
21
93600.0
31
0
0
LINE
8
equipment
10
161476.51
20
93600.0
30
0
11
161666.12
21
93600.0
31
0
0
LINE
8
equipment
10
161666.12
20
93600.0
30
0
11
161877.47999999998
21
93600.0
31
0
0
LINE
8
equipment
10
161877.47999999998
20
93600.0
30
0
11
162100.0
21
93600.0
31
0
0
LINE
8
equipment
10
162100.0
20
93600.0
30
0
11
162322.52
21
93600.0
31
0
0
LINE
8
equipment
10
162322.52
20
93600.0
30
0
11
162533.88
21
93600.0
31
0
0
LINE
8
equipment
10
162533.88
20
93600.0
30
0
11
162723.49
21
93600.0
31
0
0
LINE
8
equipment
10
162723.49
20
93600.0
30
0
11
162881.83000000002
21
93600.0
31
0
0
LINE
8
equipment
10
162881.83000000002
20
93600.0
30
0
11
163000.97
21
93600.0
31
0
0
LINE
8
equipment
10
163000.97
20
93600.0
30
0
11
163074.93
21
93600.0
31
0
0
LINE
8
equipment
10
163074.93
20
93600.0
30
0
11
163100.0
21
93600.0
31
0
0
LINE
8
equipment
10
160800.0
20
90700.0
30
0
11
160800.0
21
93000.0
31
0
0
LINE
8
equipment
10
159000.0
20
90700.0
30
0
11
159000.0
21
93000.0
31
0
0
LINE
8
equipment
10
160800.0
20
90700.0
30
0
11
159000.0
21
90700.0
31
0
0
LINE
8
equipment
10
160800.0
20
93000.0
30
0
11
159000.0
21
93000.0
31
0
0
LINE
8
equipment
10
158900.0
20
93900.0
30
0
11
158925.07
21
93900.0
31
0
0
LINE
8
equipment
10
158925.07
20
93900.0
30
0
11
158999.03
21
93900.0
31
0
0
LINE
8
equipment
10
158999.03
20
93900.0
30
0
11
159118.16999999998
21
93900.0
31
0
0
LINE
8
equipment
10
159118.16999999998
20
93900.0
30
0
11
159276.51
21
93900.0
31
0
0
LINE
8
equipment
10
159276.51
20
93900.0
30
0
11
159466.12
21
93900.0
31
0
0
LINE
8
equipment
10
159466.12
20
93900.0
30
0
11
159677.48
21
93900.0
31
0
0
LINE
8
equipment
10
159677.48
20
93900.0
30
0
11
159900.0
21
93900.0
31
0
0
LINE
8
equipment
10
159900.0
20
93900.0
30
0
11
160122.52000000002
21
93900.0
31
0
0
LINE
8
equipment
10
160122.52000000002
20
93900.0
30
0
11
160333.88
21
93900.0
31
0
0
LINE
8
equipment
10
160333.88
20
93900.0
30
0
11
160523.49
21
93900.0
31
0
0
LINE
8
equipment
10
160523.49
20
93900.0
30
0
11
160681.83
21
93900.0
31
0
0
LINE
8
equipment
10
160681.83
20
93900.0
30
0
11
160800.97
21
93900.0
31
0
0
LINE
8
equipment
10
160800.97
20
93900.0
30
0
11
160874.93
21
93900.0
31
0
0
LINE
8
equipment
10
160874.93
20
93900.0
30
0
11
160900.0
21
93900.0
31
0
0
LINE
8
equipment
10
158900.0
20
93600.0
30
0
11
158900.0
21
93900.0
31
0
0
LINE
8
equipment
10
158900.0
20
93600.0
30
0
11
158925.07
21
93600.0
31
0
0
LINE
8
equipment
10
158925.07
20
93600.0
30
0
11
158999.03
21
93600.0
31
0
0
LINE
8
equipment
10
158999.03
20
93600.0
30
0
11
159118.16999999998
21
93600.0
31
0
0
LINE
8
equipment
10
159118.16999999998
20
93600.0
30
0
11
159276.51
21
93600.0
31
0
0
LINE
8
equipment
10
159276.51
20
93600.0
30
0
11
159466.12
21
93600.0
31
0
0
LINE
8
equipment
10
159466.12
20
93600.0
30
0
11
159677.48
21
93600.0
31
0
0
LINE
8
equipment
10
159677.48
20
93600.0
30
0
11
159900.0
21
93600.0
31
0
0
LINE
8
equipment
10
159900.0
20
93600.0
30
0
11
160122.52000000002
21
93600.0
31
0
0
LINE
8
equipment
10
160122.52000000002
20
93600.0
30
0
11
160333.88
21
93600.0
31
0
0
LINE
8
equipment
10
160333.88
20
93600.0
30
0
11
160523.49
21
93600.0
31
0
0
LINE
8
equipment
10
160523.49
20
93600.0
30
0
11
160681.83
21
93600.0
31
0
0
LINE
8
equipment
10
160681.83
20
93600.0
30
0
11
160800.97
21
93600.0
31
0
0
LINE
8
equipment
10
160800.97
20
93600.0
30
0
11
160874.93
21
93600.0
31
0
0
LINE
8
equipment
10
160874.93
20
93600.0
30
0
11
160900.0
21
93600.0
31
0
0
LINE
8
equipment
10
157100.0
20
90700.0
30
0
11
157100.0
21
93000.0
31
0
0
LINE
8
equipment
10
155300.0
20
90700.0
30
0
11
155300.0
21
93000.0
31
0
0
LINE
8
equipment
10
157100.0
20
90700.0
30
0
11
155300.0
21
90700.0
31
0
0
LINE
8
equipment
10
157100.0
20
93000.0
30
0
11
155300.0
21
93000.0
31
0
0
LINE
8
equipment
10
156700.0
20
93900.0
30
0
11
156725.07
21
93900.0
31
0
0
LINE
8
equipment
10
156725.07
20
93900.0
30
0
11
156799.03000000003
21
93900.0
31
0
0
LINE
8
equipment
10
156799.03000000003
20
93900.0
30
0
11
156918.17
21
93900.0
31
0
0
LINE
8
equipment
10
156918.17
20
93900.0
30
0
11
157076.50999999998
21
93900.0
31
0
0
LINE
8
equipment
10
157076.50999999998
20
93900.0
30
0
11
157266.12
21
93900.0
31
0
0
LINE
8
equipment
10
157266.12
20
93900.0
30
0
11
157477.48
21
93900.0
31
0
0
LINE
8
equipment
10
157477.48
20
93900.0
30
0
11
157700.0
21
93900.0
31
0
0
LINE
8
equipment
10
157700.0
20
93900.0
30
0
11
157922.52
21
93900.0
31
0
0
LINE
8
equipment
10
157922.52
20
93900.0
30
0
11
158133.88
21
93900.0
31
0
0
LINE
8
equipment
10
158133.88
20
93900.0
30
0
11
158323.49
21
93900.0
31
0
0
LINE
8
equipment
10
158323.49
20
93900.0
30
0
11
158481.83000000002
21
93900.0
31
0
0
LINE
8
equipment
10
158481.83000000002
20
93900.0
30
0
11
158600.97000000003
21
93900.0
31
0
0
LINE
8
equipment
10
158600.97000000003
20
93900.0
30
0
11
158674.93000000002
21
93900.0
31
0
0
LINE
8
equipment
10
158674.93000000002
20
93900.0
30
0
11
158700.0
21
93900.0
31
0
0
LINE
8
equipment
10
156700.0
20
93600.0
30
0
11
156700.0
21
93900.0
31
0
0
LINE
8
equipment
10
156700.0
20
93600.0
30
0
11
156725.07
21
93600.0
31
0
0
LINE
8
equipment
10
156725.07
20
93600.0
30
0
11
156799.03000000003
21
93600.0
31
0
0
LINE
8
equipment
10
156799.03000000003
20
93600.0
30
0
11
156918.17
21
93600.0
31
0
0
LINE
8
equipment
10
156918.17
20
93600.0
30
0
11
157076.50999999998
21
93600.0
31
0
0
LINE
8
equipment
10
157076.50999999998
20
93600.0
30
0
11
157266.12
21
93600.0
31
0
0
LINE
8
equipment
10
157266.12
20
93600.0
30
0
11
157477.48
21
93600.0
31
0
0
LINE
8
equipment
10
157477.48
20
93600.0
30
0
11
157700.0
21
93600.0
31
0
0
LINE
8
equipment
10
157700.0
20
93600.0
30
0
11
157922.52
21
93600.0
31
0
0
LINE
8
equipment
10
157922.52
20
93600.0
30
0
11
158133.88
21
93600.0
31
0
0
LINE
8
equipment
10
158133.88
20
93600.0
30
0
11
158323.49
21
93600.0
31
0
0
LINE
8
equipment
10
158323.49
20
93600.0
30
0
11
158481.83000000002
21
93600.0
31
0
0
LINE
8
equipment
10
158481.83000000002
20
93600.0
30
0
11
158600.97000000003
21
93600.0
31
0
0
LINE
8
equipment
10
158600.97000000003
20
93600.0
30
0
11
158674.93000000002
21
93600.0
31
0
0
LINE
8
equipment
10
158674.93000000002
20
93600.0
30
0
11
158700.0
21
93600.0
31
0
0
LINE
8
equipment
10
164700.0
20
90600.0
30
0
11
164700.0
21
90680.0
31
0
0
LINE
8
equipment
10
155100.0
20
90600.0
30
0
11
155100.0
21
90680.0
31
0
0
LINE
8
equipment
10
164700.0
20
90600.0
30
0
11
155100.0
21
90600.0
31
0
0
LINE
8
equipment
10
164700.0
20
90680.0
30
0
11
155100.0
21
90680.0
31
0
0
LINE
8
equipment
10
164700.0
20
90850.0
30
0
11
164700.0
21
90930.0
31
0
0
LINE
8
equipment
10
155100.0
20
90850.0
30
0
11
155100.0
21
90930.0
31
0
0
LINE
8
equipment
10
164700.0
20
90850.0
30
0
11
164500.0
21
90850.0
31
0
0
LINE
8
equipment
10
162700.0
20
90850.0
30
0
11
160800.0
21
90850.0
31
0
0
LINE
8
equipment
10
159000.0
20
90850.0
30
0
11
157100.0
21
90850.0
31
0
0
LINE
8
equipment
10
155300.0
20
90850.0
30
0
11
155100.0
21
90850.0
31
0
0
LINE
8
equipment
10
164700.0
20
90930.0
30
0
11
164500.0
21
90930.0
31
0
0
LINE
8
equipment
10
162700.0
20
90930.0
30
0
11
160800.0
21
90930.0
31
0
0
LINE
8
equipment
10
159000.0
20
90930.0
30
0
11
157100.0
21
90930.0
31
0
0
LINE
8
equipment
10
155300.0
20
90930.0
30
0
11
155100.0
21
90930.0
31
0
0
LINE
8
equipment
10
164700.0
20
91100.0
30
0
11
164700.0
21
91180.0
31
0
0
LINE
8
equipment
10
155100.0
20
91100.0
30
0
11
155100.0
21
91180.0
31
0
0
LINE
8
equipment
10
164700.0
20
91100.0
30
0
11
164500.0
21
91100.0
31
0
0
LINE
8
equipment
10
162700.0
20
91100.0
30
0
11
160800.0
21
91100.0
31
0
0
LINE
8
equipment
10
159000.0
20
91100.0
30
0
11
157100.0
21
91100.0
31
0
0
LINE
8
equipment
10
155300.0
20
91100.0
30
0
11
155100.0
21
91100.0
31
0
0
LINE
8
equipment
10
164700.0
20
91180.0
30
0
11
164500.0
21
91180.0
31
0
0
LINE
8
equipment
10
162700.0
20
91180.0
30
0
11
160800.0
21
91180.0
31
0
0
LINE
8
equipment
10
159000.0
20
91180.0
30
0
11
157100.0
21
91180.0
31
0
0
LINE
8
equipment
10
155300.0
20
91180.0
30
0
11
155100.0
21
91180.0
31
0
0
LINE
8
equipment
10
164700.0
20
91350.0
30
0
11
164700.0
21
91430.0
31
0
0
LINE
8
equipment
10
155100.0
20
91350.0
30
0
11
155100.0
21
91430.0
31
0
0
LINE
8
equipment
10
164700.0
20
91350.0
30
0
11
164500.0
21
91350.0
31
0
0
LINE
8
equipment
10
162700.0
20
91350.0
30
0
11
160800.0
21
91350.0
31
0
0
LINE
8
equipment
10
159000.0
20
91350.0
30
0
11
157100.0
21
91350.0
31
0
0
LINE
8
equipment
10
155300.0
20
91350.0
30
0
11
155100.0
21
91350.0
31
0
0
LINE
8
equipment
10
164700.0
20
91430.0
30
0
11
164500.0
21
91430.0
31
0
0
LINE
8
equipment
10
162700.0
20
91430.0
30
0
11
160800.0
21
91430.0
31
0
0
LINE
8
equipment
10
159000.0
20
91430.0
30
0
11
157100.0
21
91430.0
31
0
0
LINE
8
equipment
10
155300.0
20
91430.0
30
0
11
155100.0
21
91430.0
31
0
0
LINE
8
equipment
10
164700.0
20
91600.0
30
0
11
164700.0
21
91680.0
31
0
0
LINE
8
equipment
10
155100.0
20
91600.0
30
0
11
155100.0
21
91680.0
31
0
0
LINE
8
equipment
10
164700.0
20
91600.0
30
0
11
164500.0
21
91600.0
31
0
0
LINE
8
equipment
10
162700.0
20
91600.0
30
0
11
160800.0
21
91600.0
31
0
0
LINE
8
equipment
10
159000.0
20
91600.0
30
0
11
157100.0
21
91600.0
31
0
0
LINE
8
equipment
10
155300.0
20
91600.0
30
0
11
155100.0
21
91600.0
31
0
0
LINE
8
equipment
10
164700.0
20
91680.0
30
0
11
164500.0
21
91680.0
31
0
0
LINE
8
equipment
10
162700.0
20
91680.0
30
0
11
160800.0
21
91680.0
31
0
0
LINE
8
equipment
10
159000.0
20
91680.0
30
0
11
157100.0
21
91680.0
31
0
0
LINE
8
equipment
10
155300.0
20
91680.0
30
0
11
155100.0
21
91680.0
31
0
0
LINE
8
equipment
10
164700.0
20
91850.0
30
0
11
164700.0
21
91930.0
31
0
0
LINE
8
equipment
10
155100.0
20
91850.0
30
0
11
155100.0
21
91930.0
31
0
0
LINE
8
equipment
10
164700.0
20
91850.0
30
0
11
164500.0
21
91850.0
31
0
0
LINE
8
equipment
10
162700.0
20
91850.0
30
0
11
160800.0
21
91850.0
31
0
0
LINE
8
equipment
10
159000.0
20
91850.0
30
0
11
157100.0
21
91850.0
31
0
0
LINE
8
equipment
10
155300.0
20
91850.0
30
0
11
155100.0
21
91850.0
31
0
0
LINE
8
equipment
10
164700.0
20
91930.0
30
0
11
164500.0
21
91930.0
31
0
0
LINE
8
equipment
10
162700.0
20
91930.0
30
0
11
160800.0
21
91930.0
31
0
0
LINE
8
equipment
10
159000.0
20
91930.0
30
0
11
157100.0
21
91930.0
31
0
0
LINE
8
equipment
10
155300.0
20
91930.0
30
0
11
155100.0
21
91930.0
31
0
0
LINE
8
equipment
10
164700.0
20
92100.0
30
0
11
164700.0
21
92180.0
31
0
0
LINE
8
equipment
10
155100.0
20
92100.0
30
0
11
155100.0
21
92180.0
31
0
0
LINE
8
equipment
10
164700.0
20
92100.0
30
0
11
164500.0
21
92100.0
31
0
0
LINE
8
equipment
10
162700.0
20
92100.0
30
0
11
160800.0
21
92100.0
31
0
0
LINE
8
equipment
10
159000.0
20
92100.0
30
0
11
157100.0
21
92100.0
31
0
0
LINE
8
equipment
10
155300.0
20
92100.0
30
0
11
155100.0
21
92100.0
31
0
0
LINE
8
equipment
10
164700.0
20
92180.0
30
0
11
164500.0
21
92180.0
31
0
0
LINE
8
equipment
10
162700.0
20
92180.0
30
0
11
160800.0
21
92180.0
31
0
0
LINE
8
equipment
10
159000.0
20
92180.0
30
0
11
157100.0
21
92180.0
31
0
0
LINE
8
equipment
10
155300.0
20
92180.0
30
0
11
155100.0
21
92180.0
31
0
0
LINE
8
equipment
10
164700.0
20
92350.0
30
0
11
164700.0
21
92430.0
31
0
0
LINE
8
equipment
10
155100.0
20
92350.0
30
0
11
155100.0
21
92430.0
31
0
0
LINE
8
equipment
10
164700.0
20
92350.0
30
0
11
164500.0
21
92350.0
31
0
0
LINE
8
equipment
10
162700.0
20
92350.0
30
0
11
160800.0
21
92350.0
31
0
0
LINE
8
equipment
10
159000.0
20
92350.0
30
0
11
157100.0
21
92350.0
31
0
0
LINE
8
equipment
10
155300.0
20
92350.0
30
0
11
155100.0
21
92350.0
31
0
0
LINE
8
equipment
10
164700.0
20
92430.0
30
0
11
164500.0
21
92430.0
31
0
0
LINE
8
equipment
10
162700.0
20
92430.0
30
0
11
160800.0
21
92430.0
31
0
0
LINE
8
equipment
10
159000.0
20
92430.0
30
0
11
157100.0
21
92430.0
31
0
0
LINE
8
equipment
10
155300.0
20
92430.0
30
0
11
155100.0
21
92430.0
31
0
0
LINE
8
equipment
10
164700.0
20
92600.0
30
0
11
164700.0
21
92680.0
31
0
0
LINE
8
equipment
10
155100.0
20
92600.0
30
0
11
155100.0
21
92680.0
31
0
0
LINE
8
equipment
10
164700.0
20
92600.0
30
0
11
164500.0
21
92600.0
31
0
0
LINE
8
equipment
10
162700.0
20
92600.0
30
0
11
160800.0
21
92600.0
31
0
0
LINE
8
equipment
10
159000.0
20
92600.0
30
0
11
157100.0
21
92600.0
31
0
0
LINE
8
equipment
10
155300.0
20
92600.0
30
0
11
155100.0
21
92600.0
31
0
0
LINE
8
equipment
10
164700.0
20
92680.0
30
0
11
164500.0
21
92680.0
31
0
0
LINE
8
equipment
10
162700.0
20
92680.0
30
0
11
160800.0
21
92680.0
31
0
0
LINE
8
equipment
10
159000.0
20
92680.0
30
0
11
157100.0
21
92680.0
31
0
0
LINE
8
equipment
10
155300.0
20
92680.0
30
0
11
155100.0
21
92680.0
31
0
0
LINE
8
equipment
10
164700.0
20
92850.0
30
0
11
164700.0
21
92930.0
31
0
0
LINE
8
equipment
10
155100.0
20
92850.0
30
0
11
155100.0
21
92930.0
31
0
0
LINE
8
equipment
10
164700.0
20
92850.0
30
0
11
164500.0
21
92850.0
31
0
0
LINE
8
equipment
10
162700.0
20
92850.0
30
0
11
160800.0
21
92850.0
31
0
0
LINE
8
equipment
10
159000.0
20
92850.0
30
0
11
157100.0
21
92850.0
31
0
0
LINE
8
equipment
10
155300.0
20
92850.0
30
0
11
155100.0
21
92850.0
31
0
0
LINE
8
equipment
10
164700.0
20
92930.0
30
0
11
164500.0
21
92930.0
31
0
0
LINE
8
equipment
10
162700.0
20
92930.0
30
0
11
160800.0
21
92930.0
31
0
0
LINE
8
equipment
10
159000.0
20
92930.0
30
0
11
157100.0
21
92930.0
31
0
0
LINE
8
equipment
10
155300.0
20
92930.0
30
0
11
155100.0
21
92930.0
31
0
0
LINE
8
equipment
10
136600.0
20
89800.0
30
0
11
136600.0
21
90300.0
31
0
0
LINE
8
equipment
10
125800.0
20
89800.0
30
0
11
125800.0
21
90300.0
31
0
0
LINE
8
equipment
10
136600.0
20
89800.0
30
0
11
125800.0
21
89800.0
31
0
0
LINE
8
equipment
10
136600.0
20
90300.0
30
0
11
125800.0
21
90300.0
31
0
0
LINE
8
equipment
10
135800.0
20
90700.0
30
0
11
135800.0
21
93000.0
31
0
0
LINE
8
equipment
10
134000.0
20
90700.0
30
0
11
134000.0
21
93000.0
31
0
0
LINE
8
equipment
10
135800.0
20
90700.0
30
0
11
134000.0
21
90700.0
31
0
0
LINE
8
equipment
10
135800.0
20
93000.0
30
0
11
134000.0
21
93000.0
31
0
0
LINE
8
equipment
10
132400.0
20
93900.0
30
0
11
132425.07
21
93900.0
31
0
0
LINE
8
equipment
10
132425.07
20
93900.0
30
0
11
132499.03
21
93900.0
31
0
0
LINE
8
equipment
10
132499.03
20
93900.0
30
0
11
132618.16999999998
21
93900.0
31
0
0
LINE
8
equipment
10
132618.16999999998
20
93900.0
30
0
11
132776.51
21
93900.0
31
0
0
LINE
8
equipment
10
132776.51
20
93900.0
30
0
11
132966.12
21
93900.0
31
0
0
LINE
8
equipment
10
132966.12
20
93900.0
30
0
11
133177.48
21
93900.0
31
0
0
LINE
8
equipment
10
133177.48
20
93900.0
30
0
11
133400.0
21
93900.0
31
0
0
LINE
8
equipment
10
133400.0
20
93900.0
30
0
11
133622.52000000002
21
93900.0
31
0
0
LINE
8
equipment
10
133622.52000000002
20
93900.0
30
0
11
133833.88
21
93900.0
31
0
0
LINE
8
equipment
10
133833.88
20
93900.0
30
0
11
134023.49000000002
21
93900.0
31
0
0
LINE
8
equipment
10
134023.49000000002
20
93900.0
30
0
11
134181.83
21
93900.0
31
0
0
LINE
8
equipment
10
134181.83
20
93900.0
30
0
11
134300.97
21
93900.0
31
0
0
LINE
8
equipment
10
134300.97
20
93900.0
30
0
11
134374.93
21
93900.0
31
0
0
LINE
8
equipment
10
134374.93
20
93900.0
30
0
11
134400.0
21
93900.0
31
0
0
LINE
8
equipment
10
132400.0
20
93600.0
30
0
11
132400.0
21
93900.0
31
0
0
LINE
8
equipment
10
132400.0
20
93600.0
30
0
11
132425.07
21
93600.0
31
0
0
LINE
8
equipment
10
132425.07
20
93600.0
30
0
11
132499.03
21
93600.0
31
0
0
LINE
8
equipment
10
132499.03
20
93600.0
30
0
11
132618.16999999998
21
93600.0
31
0
0
LINE
8
equipment
10
132618.16999999998
20
93600.0
30
0
11
132776.51
21
93600.0
31
0
0
LINE
8
equipment
10
132776.51
20
93600.0
30
0
11
132966.12
21
93600.0
31
0
0
LINE
8
equipment
10
132966.12
20
93600.0
30
0
11
133177.48
21
93600.0
31
0
0
LINE
8
equipment
10
133177.48
20
93600.0
30
0
11
133400.0
21
93600.0
31
0
0
LINE
8
equipment
10
133400.0
20
93600.0
30
0
11
133622.52000000002
21
93600.0
31
0
0
LINE
8
equipment
10
133622.52000000002
20
93600.0
30
0
11
133833.88
21
93600.0
31
0
0
LINE
8
equipment
10
133833.88
20
93600.0
30
0
11
134023.49000000002
21
93600.0
31
0
0
LINE
8
equipment
10
134023.49000000002
20
93600.0
30
0
11
134181.83
21
93600.0
31
0
0
LINE
8
equipment
10
134181.83
20
93600.0
30
0
11
134300.97
21
93600.0
31
0
0
LINE
8
equipment
10
134300.97
20
93600.0
30
0
11
134374.93
21
93600.0
31
0
0
LINE
8
equipment
10
134374.93
20
93600.0
30
0
11
134400.0
21
93600.0
31
0
0
LINE
8
equipment
10
132100.0
20
90700.0
30
0
11
132100.0
21
93000.0
31
0
0
LINE
8
equipment
10
130300.00000000001
20
90700.0
30
0
11
130300.00000000001
21
93000.0
31
0
0
LINE
8
equipment
10
132100.0
20
90700.0
30
0
11
130300.00000000001
21
90700.0
31
0
0
LINE
8
equipment
10
132100.0
20
93000.0
30
0
11
130300.00000000001
21
93000.0
31
0
0
LINE
8
equipment
10
130199.99999999999
20
93900.0
30
0
11
130225.06999999999
21
93900.0
31
0
0
LINE
8
equipment
10
130225.06999999999
20
93900.0
30
0
11
130299.02999999998
21
93900.0
31
0
0
LINE
8
equipment
10
130299.02999999998
20
93900.0
30
0
11
130418.17
21
93900.0
31
0
0
LINE
8
equipment
10
130418.17
20
93900.0
30
0
11
130576.50999999998
21
93900.0
31
0
0
LINE
8
equipment
10
130576.50999999998
20
93900.0
30
0
11
130766.12
21
93900.0
31
0
0
LINE
8
equipment
10
130766.12
20
93900.0
30
0
11
130977.48000000001
21
93900.0
31
0
0
LINE
8
equipment
10
130977.48000000001
20
93900.0
30
0
11
131200.0
21
93900.0
31
0
0
LINE
8
equipment
10
131200.0
20
93900.0
30
0
11
131422.52
21
93900.0
31
0
0
LINE
8
equipment
10
131422.52
20
93900.0
30
0
11
131633.88
21
93900.0
31
0
0
LINE
8
equipment
10
131633.88
20
93900.0
30
0
11
131823.49
21
93900.0
31
0
0
LINE
8
equipment
10
131823.49
20
93900.0
30
0
11
131981.83000000002
21
93900.0
31
0
0
LINE
8
equipment
10
131981.83000000002
20
93900.0
30
0
11
132100.97
21
93900.0
31
0
0
LINE
8
equipment
10
132100.97
20
93900.0
30
0
11
132174.93
21
93900.0
31
0
0
LINE
8
equipment
10
132174.93
20
93900.0
30
0
11
132200.0
21
93900.0
31
0
0
LINE
8
equipment
10
130199.99999999999
20
93600.0
30
0
11
130199.99999999999
21
93900.0
31
0
0
LINE
8
equipment
10
130199.99999999999
20
93600.0
30
0
11
130225.06999999999
21
93600.0
31
0
0
LINE
8
equipment
10
130225.06999999999
20
93600.0
30
0
11
130299.02999999998
21
93600.0
31
0
0
LINE
8
equipment
10
130299.02999999998
20
93600.0
30
0
11
130418.17
21
93600.0
31
0
0
LINE
8
equipment
10
130418.17
20
93600.0
30
0
11
130576.50999999998
21
93600.0
31
0
0
LINE
8
equipment
10
130576.50999999998
20
93600.0
30
0
11
130766.12
21
93600.0
31
0
0
LINE
8
equipment
10
130766.12
20
93600.0
30
0
11
130977.48000000001
21
93600.0
31
0
0
LINE
8
equipment
10
130977.48000000001
20
93600.0
30
0
11
131200.0
21
93600.0
31
0
0
LINE
8
equipment
10
131200.0
20
93600.0
30
0
11
131422.52
21
93600.0
31
0
0
LINE
8
equipment
10
131422.52
20
93600.0
30
0
11
131633.88
21
93600.0
31
0
0
LINE
8
equipment
10
131633.88
20
93600.0
30
0
11
131823.49
21
93600.0
31
0
0
LINE
8
equipment
10
131823.49
20
93600.0
30
0
11
131981.83000000002
21
93600.0
31
0
0
LINE
8
equipment
10
131981.83000000002
20
93600.0
30
0
11
132100.97
21
93600.0
31
0
0
LINE
8
equipment
10
132100.97
20
93600.0
30
0
11
132174.93
21
93600.0
31
0
0
LINE
8
equipment
10
132174.93
20
93600.0
30
0
11
132200.0
21
93600.0
31
0
0
LINE
8
equipment
10
128400.0
20
90700.0
30
0
11
128400.0
21
93000.0
31
0
0
LINE
8
equipment
10
126600.0
20
90700.0
30
0
11
126600.0
21
93000.0
31
0
0
LINE
8
equipment
10
128400.0
20
90700.0
30
0
11
126600.0
21
90700.0
31
0
0
LINE
8
equipment
10
128400.0
20
93000.0
30
0
11
126600.0
21
93000.0
31
0
0
LINE
8
equipment
10
128000.0
20
93900.0
30
0
11
128025.06999999999
21
93900.0
31
0
0
LINE
8
equipment
10
128025.06999999999
20
93900.0
30
0
11
128099.03
21
93900.0
31
0
0
LINE
8
equipment
10
128099.03
20
93900.0
30
0
11
128218.16999999998
21
93900.0
31
0
0
LINE
8
equipment
10
128218.16999999998
20
93900.0
30
0
11
128376.51
21
93900.0
31
0
0
LINE
8
equipment
10
128376.51
20
93900.0
30
0
11
128566.12000000001
21
93900.0
31
0
0
LINE
8
equipment
10
128566.12000000001
20
93900.0
30
0
11
128777.48
21
93900.0
31
0
0
LINE
8
equipment
10
128777.48
20
93900.0
30
0
11
129000.0
21
93900.0
31
0
0
LINE
8
equipment
10
129000.0
20
93900.0
30
0
11
129222.52
21
93900.0
31
0
0
LINE
8
equipment
10
129222.52
20
93900.0
30
0
11
129433.87999999999
21
93900.0
31
0
0
LINE
8
equipment
10
129433.87999999999
20
93900.0
30
0
11
129623.49
21
93900.0
31
0
0
LINE
8
equipment
10
129623.49
20
93900.0
30
0
11
129781.83000000002
21
93900.0
31
0
0
LINE
8
equipment
10
129781.83000000002
20
93900.0
30
0
11
129900.97
21
93900.0
31
0
0
LINE
8
equipment
10
129900.97
20
93900.0
30
0
11
129974.93000000001
21
93900.0
31
0
0
LINE
8
equipment
10
129974.93000000001
20
93900.0
30
0
11
130000.0
21
93900.0
31
0
0
LINE
8
equipment
10
128000.0
20
93600.0
30
0
11
128000.0
21
93900.0
31
0
0
LINE
8
equipment
10
128000.0
20
93600.0
30
0
11
128025.06999999999
21
93600.0
31
0
0
LINE
8
equipment
10
128025.06999999999
20
93600.0
30
0
11
128099.03
21
93600.0
31
0
0
LINE
8
equipment
10
128099.03
20
93600.0
30
0
11
128218.16999999998
21
93600.0
31
0
0
LINE
8
equipment
10
128218.16999999998
20
93600.0
30
0
11
128376.51
21
93600.0
31
0
0
LINE
8
equipment
10
128376.51
20
93600.0
30
0
11
128566.12000000001
21
93600.0
31
0
0
LINE
8
equipment
10
128566.12000000001
20
93600.0
30
0
11
128777.48
21
93600.0
31
0
0
LINE
8
equipment
10
128777.48
20
93600.0
30
0
11
129000.0
21
93600.0
31
0
0
LINE
8
equipment
10
129000.0
20
93600.0
30
0
11
129222.52
21
93600.0
31
0
0
LINE
8
equipment
10
129222.52
20
93600.0
30
0
11
129433.87999999999
21
93600.0
31
0
0
LINE
8
equipment
10
129433.87999999999
20
93600.0
30
0
11
129623.49
21
93600.0
31
0
0
LINE
8
equipment
10
129623.49
20
93600.0
30
0
11
129781.83000000002
21
93600.0
31
0
0
LINE
8
equipment
10
129781.83000000002
20
93600.0
30
0
11
129900.97
21
93600.0
31
0
0
LINE
8
equipment
10
129900.97
20
93600.0
30
0
11
129974.93000000001
21
93600.0
31
0
0
LINE
8
equipment
10
129974.93000000001
20
93600.0
30
0
11
130000.0
21
93600.0
31
0
0
LINE
8
equipment
10
136000.0
20
90600.0
30
0
11
136000.0
21
90680.0
31
0
0
LINE
8
equipment
10
126400.0
20
90600.0
30
0
11
126400.0
21
90680.0
31
0
0
LINE
8
equipment
10
136000.0
20
90600.0
30
0
11
126400.0
21
90600.0
31
0
0
LINE
8
equipment
10
136000.0
20
90680.0
30
0
11
126400.0
21
90680.0
31
0
0
LINE
8
equipment
10
136000.0
20
90850.0
30
0
11
136000.0
21
90930.0
31
0
0
LINE
8
equipment
10
126400.0
20
90850.0
30
0
11
126400.0
21
90930.0
31
0
0
LINE
8
equipment
10
136000.0
20
90850.0
30
0
11
135800.0
21
90850.0
31
0
0
LINE
8
equipment
10
134000.0
20
90850.0
30
0
11
132100.0
21
90850.0
31
0
0
LINE
8
equipment
10
130300.00000000001
20
90850.0
30
0
11
128400.0
21
90850.0
31
0
0
LINE
8
equipment
10
126600.0
20
90850.0
30
0
11
126400.0
21
90850.0
31
0
0
LINE
8
equipment
10
136000.0
20
90930.0
30
0
11
135800.0
21
90930.0
31
0
0
LINE
8
equipment
10
134000.0
20
90930.0
30
0
11
132100.0
21
90930.0
31
0
0
LINE
8
equipment
10
130300.00000000001
20
90930.0
30
0
11
128400.0
21
90930.0
31
0
0
LINE
8
equipment
10
126600.0
20
90930.0
30
0
11
126400.0
21
90930.0
31
0
0
LINE
8
equipment
10
136000.0
20
91100.0
30
0
11
136000.0
21
91180.0
31
0
0
LINE
8
equipment
10
126400.0
20
91100.0
30
0
11
126400.0
21
91180.0
31
0
0
LINE
8
equipment
10
136000.0
20
91100.0
30
0
11
135800.0
21
91100.0
31
0
0
LINE
8
equipment
10
134000.0
20
91100.0
30
0
11
132100.0
21
91100.0
31
0
0
LINE
8
equipment
10
130300.00000000001
20
91100.0
30
0
11
128400.0
21
91100.0
31
0
0
LINE
8
equipment
10
126600.0
20
91100.0
30
0
11
126400.0
21
91100.0
31
0
0
LINE
8
equipment
10
136000.0
20
91180.0
30
0
11
135800.0
21
91180.0
31
0
0
LINE
8
equipment
10
134000.0
20
91180.0
30
0
11
132100.0
21
91180.0
31
0
0
LINE
8
equipment
10
130300.00000000001
20
91180.0
30
0
11
128400.0
21
91180.0
31
0
0
LINE
8
equipment
10
126600.0
20
91180.0
30
0
11
126400.0
21
91180.0
31
0
0
LINE
8
equipment
10
136000.0
20
91350.0
30
0
11
136000.0
21
91430.0
31
0
0
LINE
8
equipment
10
126400.0
20
91350.0
30
0
11
126400.0
21
91430.0
31
0
0
LINE
8
equipment
10
136000.0
20
91350.0
30
0
11
135800.0
21
91350.0
31
0
0
LINE
8
equipment
10
134000.0
20
91350.0
30
0
11
132100.0
21
91350.0
31
0
0
LINE
8
equipment
10
130300.00000000001
20
91350.0
30
0
11
128400.0
21
91350.0
31
0
0
LINE
8
equipment
10
126600.0
20
91350.0
30
0
11
126400.0
21
91350.0
31
0
0
LINE
8
equipment
10
136000.0
20
91430.0
30
0
11
135800.0
21
91430.0
31
0
0
LINE
8
equipment
10
134000.0
20
91430.0
30
0
11
132100.0
21
91430.0
31
0
0
LINE
8
equipment
10
130300.00000000001
20
91430.0
30
0
11
128400.0
21
91430.0
31
0
0
LINE
8
equipment
10
126600.0
20
91430.0
30
0
11
126400.0
21
91430.0
31
0
0
LINE
8
equipment
10
136000.0
20
91600.0
30
0
11
136000.0
21
91680.0
31
0
0
LINE
8
equipment
10
126400.0
20
91600.0
30
0
11
126400.0
21
91680.0
31
0
0
LINE
8
equipment
10
136000.0
20
91600.0
30
0
11
135800.0
21
91600.0
31
0
0
LINE
8
equipment
10
134000.0
20
91600.0
30
0
11
132100.0
21
91600.0
31
0
0
LINE
8
equipment
10
130300.00000000001
20
91600.0
30
0
11
128400.0
21
91600.0
31
0
0
LINE
8
equipment
10
126600.0
20
91600.0
30
0
11
126400.0
21
91600.0
31
0
0
LINE
8
equipment
10
136000.0
20
91680.0
30
0
11
135800.0
21
91680.0
31
0
0
LINE
8
equipment
10
134000.0
20
91680.0
30
0
11
132100.0
21
91680.0
31
0
0
LINE
8
equipment
10
130300.00000000001
20
91680.0
30
0
11
128400.0
21
91680.0
31
0
0
LINE
8
equipment
10
126600.0
20
91680.0
30
0
11
126400.0
21
91680.0
31
0
0
LINE
8
equipment
10
136000.0
20
91850.0
30
0
11
136000.0
21
91930.0
31
0
0
LINE
8
equipment
10
126400.0
20
91850.0
30
0
11
126400.0
21
91930.0
31
0
0
LINE
8
equipment
10
136000.0
20
91850.0
30
0
11
135800.0
21
91850.0
31
0
0
LINE
8
equipment
10
134000.0
20
91850.0
30
0
11
132100.0
21
91850.0
31
0
0
LINE
8
equipment
10
130300.00000000001
20
91850.0
30
0
11
128400.0
21
91850.0
31
0
0
LINE
8
equipment
10
126600.0
20
91850.0
30
0
11
126400.0
21
91850.0
31
0
0
LINE
8
equipment
10
136000.0
20
91930.0
30
0
11
135800.0
21
91930.0
31
0
0
LINE
8
equipment
10
134000.0
20
91930.0
30
0
11
132100.0
21
91930.0
31
0
0
LINE
8
equipment
10
130300.00000000001
20
91930.0
30
0
11
128400.0
21
91930.0
31
0
0
LINE
8
equipment
10
126600.0
20
91930.0
30
0
11
126400.0
21
91930.0
31
0
0
LINE
8
equipment
10
136000.0
20
92100.0
30
0
11
136000.0
21
92180.0
31
0
0
LINE
8
equipment
10
126400.0
20
92100.0
30
0
11
126400.0
21
92180.0
31
0
0
LINE
8
equipment
10
136000.0
20
92100.0
30
0
11
135800.0
21
92100.0
31
0
0
LINE
8
equipment
10
134000.0
20
92100.0
30
0
11
132100.0
21
92100.0
31
0
0
LINE
8
equipment
10
130300.00000000001
20
92100.0
30
0
11
128400.0
21
92100.0
31
0
0
LINE
8
equipment
10
126600.0
20
92100.0
30
0
11
126400.0
21
92100.0
31
0
0
LINE
8
equipment
10
136000.0
20
92180.0
30
0
11
135800.0
21
92180.0
31
0
0
LINE
8
equipment
10
134000.0
20
92180.0
30
0
11
132100.0
21
92180.0
31
0
0
LINE
8
equipment
10
130300.00000000001
20
92180.0
30
0
11
128400.0
21
92180.0
31
0
0
LINE
8
equipment
10
126600.0
20
92180.0
30
0
11
126400.0
21
92180.0
31
0
0
LINE
8
equipment
10
136000.0
20
92350.0
30
0
11
136000.0
21
92430.0
31
0
0
LINE
8
equipment
10
126400.0
20
92350.0
30
0
11
126400.0
21
92430.0
31
0
0
LINE
8
equipment
10
136000.0
20
92350.0
30
0
11
135800.0
21
92350.0
31
0
0
LINE
8
equipment
10
134000.0
20
92350.0
30
0
11
132100.0
21
92350.0
31
0
0
LINE
8
equipment
10
130300.00000000001
20
92350.0
30
0
11
128400.0
21
92350.0
31
0
0
LINE
8
equipment
10
126600.0
20
92350.0
30
0
11
126400.0
21
92350.0
31
0
0
LINE
8
equipment
10
136000.0
20
92430.0
30
0
11
135800.0
21
92430.0
31
0
0
LINE
8
equipment
10
134000.0
20
92430.0
30
0
11
132100.0
21
92430.0
31
0
0
LINE
8
equipment
10
130300.00000000001
20
92430.0
30
0
11
128400.0
21
92430.0
31
0
0
LINE
8
equipment
10
126600.0
20
92430.0
30
0
11
126400.0
21
92430.0
31
0
0
LINE
8
equipment
10
136000.0
20
92600.0
30
0
11
136000.0
21
92680.0
31
0
0
LINE
8
equipment
10
126400.0
20
92600.0
30
0
11
126400.0
21
92680.0
31
0
0
LINE
8
equipment
10
136000.0
20
92600.0
30
0
11
135800.0
21
92600.0
31
0
0
LINE
8
equipment
10
134000.0
20
92600.0
30
0
11
132100.0
21
92600.0
31
0
0
LINE
8
equipment
10
130300.00000000001
20
92600.0
30
0
11
128400.0
21
92600.0
31
0
0
LINE
8
equipment
10
126600.0
20
92600.0
30
0
11
126400.0
21
92600.0
31
0
0
LINE
8
equipment
10
136000.0
20
92680.0
30
0
11
135800.0
21
92680.0
31
0
0
LINE
8
equipment
10
134000.0
20
92680.0
30
0
11
132100.0
21
92680.0
31
0
0
LINE
8
equipment
10
130300.00000000001
20
92680.0
30
0
11
128400.0
21
92680.0
31
0
0
LINE
8
equipment
10
126600.0
20
92680.0
30
0
11
126400.0
21
92680.0
31
0
0
LINE
8
equipment
10
136000.0
20
92850.0
30
0
11
136000.0
21
92930.0
31
0
0
LINE
8
equipment
10
126400.0
20
92850.0
30
0
11
126400.0
21
92930.0
31
0
0
LINE
8
equipment
10
136000.0
20
92850.0
30
0
11
135800.0
21
92850.0
31
0
0
LINE
8
equipment
10
134000.0
20
92850.0
30
0
11
132100.0
21
92850.0
31
0
0
LINE
8
equipment
10
130300.00000000001
20
92850.0
30
0
11
128400.0
21
92850.0
31
0
0
LINE
8
equipment
10
126600.0
20
92850.0
30
0
11
126400.0
21
92850.0
31
0
0
LINE
8
equipment
10
136000.0
20
92930.0
30
0
11
135800.0
21
92930.0
31
0
0
LINE
8
equipment
10
134000.0
20
92930.0
30
0
11
132100.0
21
92930.0
31
0
0
LINE
8
equipment
10
130300.00000000001
20
92930.0
30
0
11
128400.0
21
92930.0
31
0
0
LINE
8
equipment
10
126600.0
20
92930.0
30
0
11
126400.0
21
92930.0
31
0
0
LINE
8
equipment
10
107900.0
20
89800.0
30
0
11
107900.0
21
90300.0
31
0
0
LINE
8
equipment
10
97100.0
20
89800.0
30
0
11
97100.0
21
90300.0
31
0
0
LINE
8
equipment
10
107900.0
20
89800.0
30
0
11
97100.0
21
89800.0
31
0
0
LINE
8
equipment
10
107900.0
20
90300.0
30
0
11
97100.0
21
90300.0
31
0
0
LINE
8
equipment
10
107100.0
20
90700.0
30
0
11
107100.0
21
93000.0
31
0
0
LINE
8
equipment
10
105300.0
20
90700.0
30
0
11
105300.0
21
93000.0
31
0
0
LINE
8
equipment
10
107100.0
20
90700.0
30
0
11
105300.0
21
90700.0
31
0
0
LINE
8
equipment
10
107100.0
20
93000.0
30
0
11
105300.0
21
93000.0
31
0
0
LINE
8
equipment
10
103700.0
20
93900.0
30
0
11
103725.07
21
93900.0
31
0
0
LINE
8
equipment
10
103725.07
20
93900.0
30
0
11
103799.03
21
93900.0
31
0
0
LINE
8
equipment
10
103799.03
20
93900.0
30
0
11
103918.17
21
93900.0
31
0
0
LINE
8
equipment
10
103918.17
20
93900.0
30
0
11
104076.51
21
93900.0
31
0
0
LINE
8
equipment
10
104076.51
20
93900.0
30
0
11
104266.12
21
93900.0
31
0
0
LINE
8
equipment
10
104266.12
20
93900.0
30
0
11
104477.48
21
93900.0
31
0
0
LINE
8
equipment
10
104477.48
20
93900.0
30
0
11
104700.0
21
93900.0
31
0
0
LINE
8
equipment
10
104700.0
20
93900.0
30
0
11
104922.52
21
93900.0
31
0
0
LINE
8
equipment
10
104922.52
20
93900.0
30
0
11
105133.88
21
93900.0
31
0
0
LINE
8
equipment
10
105133.88
20
93900.0
30
0
11
105323.48999999999
21
93900.0
31
0
0
LINE
8
equipment
10
105323.48999999999
20
93900.0
30
0
11
105481.83
21
93900.0
31
0
0
LINE
8
equipment
10
105481.83
20
93900.0
30
0
11
105600.97
21
93900.0
31
0
0
LINE
8
equipment
10
105600.97
20
93900.0
30
0
11
105674.93000000001
21
93900.0
31
0
0
LINE
8
equipment
10
105674.93000000001
20
93900.0
30
0
11
105700.0
21
93900.0
31
0
0
LINE
8
equipment
10
103700.0
20
93600.0
30
0
11
103700.0
21
93900.0
31
0
0
LINE
8
equipment
10
103700.0
20
93600.0
30
0
11
103725.07
21
93600.0
31
0
0
LINE
8
equipment
10
103725.07
20
93600.0
30
0
11
103799.03
21
93600.0
31
0
0
LINE
8
equipment
10
103799.03
20
93600.0
30
0
11
103918.17
21
93600.0
31
0
0
LINE
8
equipment
10
103918.17
20
93600.0
30
0
11
104076.51
21
93600.0
31
0
0
LINE
8
equipment
10
104076.51
20
93600.0
30
0
11
104266.12
21
93600.0
31
0
0
LINE
8
equipment
10
104266.12
20
93600.0
30
0
11
104477.48
21
93600.0
31
0
0
LINE
8
equipment
10
104477.48
20
93600.0
30
0
11
104700.0
21
93600.0
31
0
0
LINE
8
equipment
10
104700.0
20
93600.0
30
0
11
104922.52
21
93600.0
31
0
0
LINE
8
equipment
10
104922.52
20
93600.0
30
0
11
105133.88
21
93600.0
31
0
0
LINE
8
equipment
10
105133.88
20
93600.0
30
0
11
105323.48999999999
21
93600.0
31
0
0
LINE
8
equipment
10
105323.48999999999
20
93600.0
30
0
11
105481.83
21
93600.0
31
0
0
LINE
8
equipment
10
105481.83
20
93600.0
30
0
11
105600.97
21
93600.0
31
0
0
LINE
8
equipment
10
105600.97
20
93600.0
30
0
11
105674.93000000001
21
93600.0
31
0
0
LINE
8
equipment
10
105674.93000000001
20
93600.0
30
0
11
105700.0
21
93600.0
31
0
0
LINE
8
equipment
10
103400.0
20
90700.0
30
0
11
103400.0
21
93000.0
31
0
0
LINE
8
equipment
10
101600.0
20
90700.0
30
0
11
101600.0
21
93000.0
31
0
0
LINE
8
equipment
10
103400.0
20
90700.0
30
0
11
101600.0
21
90700.0
31
0
0
LINE
8
equipment
10
103400.0
20
93000.0
30
0
11
101600.0
21
93000.0
31
0
0
LINE
8
equipment
10
101500.0
20
93900.0
30
0
11
101525.06999999999
21
93900.0
31
0
0
LINE
8
equipment
10
101525.06999999999
20
93900.0
30
0
11
101599.03
21
93900.0
31
0
0
LINE
8
equipment
10
101599.03
20
93900.0
30
0
11
101718.17
21
93900.0
31
0
0
LINE
8
equipment
10
101718.17
20
93900.0
30
0
11
101876.51
21
93900.0
31
0
0
LINE
8
equipment
10
101876.51
20
93900.0
30
0
11
102066.12
21
93900.0
31
0
0
LINE
8
equipment
10
102066.12
20
93900.0
30
0
11
102277.48
21
93900.0
31
0
0
LINE
8
equipment
10
102277.48
20
93900.0
30
0
11
102500.0
21
93900.0
31
0
0
LINE
8
equipment
10
102500.0
20
93900.0
30
0
11
102722.52
21
93900.0
31
0
0
LINE
8
equipment
10
102722.52
20
93900.0
30
0
11
102933.88
21
93900.0
31
0
0
LINE
8
equipment
10
102933.88
20
93900.0
30
0
11
103123.49
21
93900.0
31
0
0
LINE
8
equipment
10
103123.49
20
93900.0
30
0
11
103281.83
21
93900.0
31
0
0
LINE
8
equipment
10
103281.83
20
93900.0
30
0
11
103400.97
21
93900.0
31
0
0
LINE
8
equipment
10
103400.97
20
93900.0
30
0
11
103474.93000000001
21
93900.0
31
0
0
LINE
8
equipment
10
103474.93000000001
20
93900.0
30
0
11
103500.0
21
93900.0
31
0
0
LINE
8
equipment
10
101500.0
20
93600.0
30
0
11
101500.0
21
93900.0
31
0
0
LINE
8
equipment
10
101500.0
20
93600.0
30
0
11
101525.06999999999
21
93600.0
31
0
0
LINE
8
equipment
10
101525.06999999999
20
93600.0
30
0
11
101599.03
21
93600.0
31
0
0
LINE
8
equipment
10
101599.03
20
93600.0
30
0
11
101718.17
21
93600.0
31
0
0
LINE
8
equipment
10
101718.17
20
93600.0
30
0
11
101876.51
21
93600.0
31
0
0
LINE
8
equipment
10
101876.51
20
93600.0
30
0
11
102066.12
21
93600.0
31
0
0
LINE
8
equipment
10
102066.12
20
93600.0
30
0
11
102277.48
21
93600.0
31
0
0
LINE
8
equipment
10
102277.48
20
93600.0
30
0
11
102500.0
21
93600.0
31
0
0
LINE
8
equipment
10
102500.0
20
93600.0
30
0
11
102722.52
21
93600.0
31
0
0
LINE
8
equipment
10
102722.52
20
93600.0
30
0
11
102933.88
21
93600.0
31
0
0
LINE
8
equipment
10
102933.88
20
93600.0
30
0
11
103123.49
21
93600.0
31
0
0
LINE
8
equipment
10
103123.49
20
93600.0
30
0
11
103281.83
21
93600.0
31
0
0
LINE
8
equipment
10
103281.83
20
93600.0
30
0
11
103400.97
21
93600.0
31
0
0
LINE
8
equipment
10
103400.97
20
93600.0
30
0
11
103474.93000000001
21
93600.0
31
0
0
LINE
8
equipment
10
103474.93000000001
20
93600.0
30
0
11
103500.0
21
93600.0
31
0
0
LINE
8
equipment
10
99700.0
20
90700.0
30
0
11
99700.0
21
93000.0
31
0
0
LINE
8
equipment
10
97900.0
20
90700.0
30
0
11
97900.0
21
93000.0
31
0
0
LINE
8
equipment
10
99700.0
20
90700.0
30
0
11
97900.0
21
90700.0
31
0
0
LINE
8
equipment
10
99700.0
20
93000.0
30
0
11
97900.0
21
93000.0
31
0
0
LINE
8
equipment
10
99300.0
20
93900.0
30
0
11
99325.06999999999
21
93900.0
31
0
0
LINE
8
equipment
10
99325.06999999999
20
93900.0
30
0
11
99399.03
21
93900.0
31
0
0
LINE
8
equipment
10
99399.03
20
93900.0
30
0
11
99518.17
21
93900.0
31
0
0
LINE
8
equipment
10
99518.17
20
93900.0
30
0
11
99676.51000000001
21
93900.0
31
0
0
LINE
8
equipment
10
99676.51000000001
20
93900.0
30
0
11
99866.12
21
93900.0
31
0
0
LINE
8
equipment
10
99866.12
20
93900.0
30
0
11
100077.48
21
93900.0
31
0
0
LINE
8
equipment
10
100077.48
20
93900.0
30
0
11
100300.0
21
93900.0
31
0
0
LINE
8
equipment
10
100300.0
20
93900.0
30
0
11
100522.52
21
93900.0
31
0
0
LINE
8
equipment
10
100522.52
20
93900.0
30
0
11
100733.88
21
93900.0
31
0
0
LINE
8
equipment
10
100733.88
20
93900.0
30
0
11
100923.49
21
93900.0
31
0
0
LINE
8
equipment
10
100923.49
20
93900.0
30
0
11
101081.83
21
93900.0
31
0
0
LINE
8
equipment
10
101081.83
20
93900.0
30
0
11
101200.97
21
93900.0
31
0
0
LINE
8
equipment
10
101200.97
20
93900.0
30
0
11
101274.93
21
93900.0
31
0
0
LINE
8
equipment
10
101274.93
20
93900.0
30
0
11
101300.0
21
93900.0
31
0
0
LINE
8
equipment
10
99300.0
20
93600.0
30
0
11
99300.0
21
93900.0
31
0
0
LINE
8
equipment
10
99300.0
20
93600.0
30
0
11
99325.06999999999
21
93600.0
31
0
0
LINE
8
equipment
10
99325.06999999999
20
93600.0
30
0
11
99399.03
21
93600.0
31
0
0
LINE
8
equipment
10
99399.03
20
93600.0
30
0
11
99518.17
21
93600.0
31
0
0
LINE
8
equipment
10
99518.17
20
93600.0
30
0
11
99676.51000000001
21
93600.0
31
0
0
LINE
8
equipment
10
99676.51000000001
20
93600.0
30
0
11
99866.12
21
93600.0
31
0
0
LINE
8
equipment
10
99866.12
20
93600.0
30
0
11
100077.48
21
93600.0
31
0
0
LINE
8
equipment
10
100077.48
20
93600.0
30
0
11
100300.0
21
93600.0
31
0
0
LINE
8
equipment
10
100300.0
20
93600.0
30
0
11
100522.52
21
93600.0
31
0
0
LINE
8
equipment
10
100522.52
20
93600.0
30
0
11
100733.88
21
93600.0
31
0
0
LINE
8
equipment
10
100733.88
20
93600.0
30
0
11
100923.49
21
93600.0
31
0
0
LINE
8
equipment
10
100923.49
20
93600.0
30
0
11
101081.83
21
93600.0
31
0
0
LINE
8
equipment
10
101081.83
20
93600.0
30
0
11
101200.97
21
93600.0
31
0
0
LINE
8
equipment
10
101200.97
20
93600.0
30
0
11
101274.93
21
93600.0
31
0
0
LINE
8
equipment
10
101274.93
20
93600.0
30
0
11
101300.0
21
93600.0
31
0
0
LINE
8
equipment
10
107300.0
20
90600.0
30
0
11
107300.0
21
90680.0
31
0
0
LINE
8
equipment
10
97700.0
20
90600.0
30
0
11
97700.0
21
90680.0
31
0
0
LINE
8
equipment
10
107300.0
20
90600.0
30
0
11
97700.0
21
90600.0
31
0
0
LINE
8
equipment
10
107300.0
20
90680.0
30
0
11
97700.0
21
90680.0
31
0
0
LINE
8
equipment
10
107300.0
20
90850.0
30
0
11
107300.0
21
90930.0
31
0
0
LINE
8
equipment
10
97700.0
20
90850.0
30
0
11
97700.0
21
90930.0
31
0
0
LINE
8
equipment
10
107300.0
20
90850.0
30
0
11
107100.0
21
90850.0
31
0
0
LINE
8
equipment
10
105300.0
20
90850.0
30
0
11
103400.0
21
90850.0
31
0
0
LINE
8
equipment
10
101600.0
20
90850.0
30
0
11
99700.0
21
90850.0
31
0
0
LINE
8
equipment
10
97900.0
20
90850.0
30
0
11
97700.0
21
90850.0
31
0
0
LINE
8
equipment
10
107300.0
20
90930.0
30
0
11
107100.0
21
90930.0
31
0
0
LINE
8
equipment
10
105300.0
20
90930.0
30
0
11
103400.0
21
90930.0
31
0
0
LINE
8
equipment
10
101600.0
20
90930.0
30
0
11
99700.0
21
90930.0
31
0
0
LINE
8
equipment
10
97900.0
20
90930.0
30
0
11
97700.0
21
90930.0
31
0
0
LINE
8
equipment
10
107300.0
20
91100.0
30
0
11
107300.0
21
91180.0
31
0
0
LINE
8
equipment
10
97700.0
20
91100.0
30
0
11
97700.0
21
91180.0
31
0
0
LINE
8
equipment
10
107300.0
20
91100.0
30
0
11
107100.0
21
91100.0
31
0
0
LINE
8
equipment
10
105300.0
20
91100.0
30
0
11
103400.0
21
91100.0
31
0
0
LINE
8
equipment
10
101600.0
20
91100.0
30
0
11
99700.0
21
91100.0
31
0
0
LINE
8
equipment
10
97900.0
20
91100.0
30
0
11
97700.0
21
91100.0
31
0
0
LINE
8
equipment
10
107300.0
20
91180.0
30
0
11
107100.0
21
91180.0
31
0
0
LINE
8
equipment
10
105300.0
20
91180.0
30
0
11
103400.0
21
91180.0
31
0
0
LINE
8
equipment
10
101600.0
20
91180.0
30
0
11
99700.0
21
91180.0
31
0
0
LINE
8
equipment
10
97900.0
20
91180.0
30
0
11
97700.0
21
91180.0
31
0
0
LINE
8
equipment
10
107300.0
20
91350.0
30
0
11
107300.0
21
91430.0
31
0
0
LINE
8
equipment
10
97700.0
20
91350.0
30
0
11
97700.0
21
91430.0
31
0
0
LINE
8
equipment
10
107300.0
20
91350.0
30
0
11
107100.0
21
91350.0
31
0
0
LINE
8
equipment
10
105300.0
20
91350.0
30
0
11
103400.0
21
91350.0
31
0
0
LINE
8
equipment
10
101600.0
20
91350.0
30
0
11
99700.0
21
91350.0
31
0
0
LINE
8
equipment
10
97900.0
20
91350.0
30
0
11
97700.0
21
91350.0
31
0
0
LINE
8
equipment
10
107300.0
20
91430.0
30
0
11
107100.0
21
91430.0
31
0
0
LINE
8
equipment
10
105300.0
20
91430.0
30
0
11
103400.0
21
91430.0
31
0
0
LINE
8
equipment
10
101600.0
20
91430.0
30
0
11
99700.0
21
91430.0
31
0
0
LINE
8
equipment
10
97900.0
20
91430.0
30
0
11
97700.0
21
91430.0
31
0
0
LINE
8
equipment
10
107300.0
20
91600.0
30
0
11
107300.0
21
91680.0
31
0
0
LINE
8
equipment
10
97700.0
20
91600.0
30
0
11
97700.0
21
91680.0
31
0
0
LINE
8
equipment
10
107300.0
20
91600.0
30
0
11
107100.0
21
91600.0
31
0
0
LINE
8
equipment
10
105300.0
20
91600.0
30
0
11
103400.0
21
91600.0
31
0
0
LINE
8
equipment
10
101600.0
20
91600.0
30
0
11
99700.0
21
91600.0
31
0
0
LINE
8
equipment
10
97900.0
20
91600.0
30
0
11
97700.0
21
91600.0
31
0
0
LINE
8
equipment
10
107300.0
20
91680.0
30
0
11
107100.0
21
91680.0
31
0
0
LINE
8
equipment
10
105300.0
20
91680.0
30
0
11
103400.0
21
91680.0
31
0
0
LINE
8
equipment
10
101600.0
20
91680.0
30
0
11
99700.0
21
91680.0
31
0
0
LINE
8
equipment
10
97900.0
20
91680.0
30
0
11
97700.0
21
91680.0
31
0
0
LINE
8
equipment
10
107300.0
20
91850.0
30
0
11
107300.0
21
91930.0
31
0
0
LINE
8
equipment
10
97700.0
20
91850.0
30
0
11
97700.0
21
91930.0
31
0
0
LINE
8
equipment
10
107300.0
20
91850.0
30
0
11
107100.0
21
91850.0
31
0
0
LINE
8
equipment
10
105300.0
20
91850.0
30
0
11
103400.0
21
91850.0
31
0
0
LINE
8
equipment
10
101600.0
20
91850.0
30
0
11
99700.0
21
91850.0
31
0
0
LINE
8
equipment
10
97900.0
20
91850.0
30
0
11
97700.0
21
91850.0
31
0
0
LINE
8
equipment
10
107300.0
20
91930.0
30
0
11
107100.0
21
91930.0
31
0
0
LINE
8
equipment
10
105300.0
20
91930.0
30
0
11
103400.0
21
91930.0
31
0
0
LINE
8
equipment
10
101600.0
20
91930.0
30
0
11
99700.0
21
91930.0
31
0
0
LINE
8
equipment
10
97900.0
20
91930.0
30
0
11
97700.0
21
91930.0
31
0
0
LINE
8
equipment
10
107300.0
20
92100.0
30
0
11
107300.0
21
92180.0
31
0
0
LINE
8
equipment
10
97700.0
20
92100.0
30
0
11
97700.0
21
92180.0
31
0
0
LINE
8
equipment
10
107300.0
20
92100.0
30
0
11
107100.0
21
92100.0
31
0
0
LINE
8
equipment
10
105300.0
20
92100.0
30
0
11
103400.0
21
92100.0
31
0
0
LINE
8
equipment
10
101600.0
20
92100.0
30
0
11
99700.0
21
92100.0
31
0
0
LINE
8
equipment
10
97900.0
20
92100.0
30
0
11
97700.0
21
92100.0
31
0
0
LINE
8
equipment
10
107300.0
20
92180.0
30
0
11
107100.0
21
92180.0
31
0
0
LINE
8
equipment
10
105300.0
20
92180.0
30
0
11
103400.0
21
92180.0
31
0
0
LINE
8
equipment
10
101600.0
20
92180.0
30
0
11
99700.0
21
92180.0
31
0
0
LINE
8
equipment
10
97900.0
20
92180.0
30
0
11
97700.0
21
92180.0
31
0
0
LINE
8
equipment
10
107300.0
20
92350.0
30
0
11
107300.0
21
92430.0
31
0
0
LINE
8
equipment
10
97700.0
20
92350.0
30
0
11
97700.0
21
92430.0
31
0
0
LINE
8
equipment
10
107300.0
20
92350.0
30
0
11
107100.0
21
92350.0
31
0
0
LINE
8
equipment
10
105300.0
20
92350.0
30
0
11
103400.0
21
92350.0
31
0
0
LINE
8
equipment
10
101600.0
20
92350.0
30
0
11
99700.0
21
92350.0
31
0
0
LINE
8
equipment
10
97900.0
20
92350.0
30
0
11
97700.0
21
92350.0
31
0
0
LINE
8
equipment
10
107300.0
20
92430.0
30
0
11
107100.0
21
92430.0
31
0
0
LINE
8
equipment
10
105300.0
20
92430.0
30
0
11
103400.0
21
92430.0
31
0
0
LINE
8
equipment
10
101600.0
20
92430.0
30
0
11
99700.0
21
92430.0
31
0
0
LINE
8
equipment
10
97900.0
20
92430.0
30
0
11
97700.0
21
92430.0
31
0
0
LINE
8
equipment
10
107300.0
20
92600.0
30
0
11
107300.0
21
92680.0
31
0
0
LINE
8
equipment
10
97700.0
20
92600.0
30
0
11
97700.0
21
92680.0
31
0
0
LINE
8
equipment
10
107300.0
20
92600.0
30
0
11
107100.0
21
92600.0
31
0
0
LINE
8
equipment
10
105300.0
20
92600.0
30
0
11
103400.0
21
92600.0
31
0
0
LINE
8
equipment
10
101600.0
20
92600.0
30
0
11
99700.0
21
92600.0
31
0
0
LINE
8
equipment
10
97900.0
20
92600.0
30
0
11
97700.0
21
92600.0
31
0
0
LINE
8
equipment
10
107300.0
20
92680.0
30
0
11
107100.0
21
92680.0
31
0
0
LINE
8
equipment
10
105300.0
20
92680.0
30
0
11
103400.0
21
92680.0
31
0
0
LINE
8
equipment
10
101600.0
20
92680.0
30
0
11
99700.0
21
92680.0
31
0
0
LINE
8
equipment
10
97900.0
20
92680.0
30
0
11
97700.0
21
92680.0
31
0
0
LINE
8
equipment
10
107300.0
20
92850.0
30
0
11
107300.0
21
92930.0
31
0
0
LINE
8
equipment
10
97700.0
20
92850.0
30
0
11
97700.0
21
92930.0
31
0
0
LINE
8
equipment
10
107300.0
20
92850.0
30
0
11
107100.0
21
92850.0
31
0
0
LINE
8
equipment
10
105300.0
20
92850.0
30
0
11
103400.0
21
92850.0
31
0
0
LINE
8
equipment
10
101600.0
20
92850.0
30
0
11
99700.0
21
92850.0
31
0
0
LINE
8
equipment
10
97900.0
20
92850.0
30
0
11
97700.0
21
92850.0
31
0
0
LINE
8
equipment
10
107300.0
20
92930.0
30
0
11
107100.0
21
92930.0
31
0
0
LINE
8
equipment
10
105300.0
20
92930.0
30
0
11
103400.0
21
92930.0
31
0
0
LINE
8
equipment
10
101600.0
20
92930.0
30
0
11
99700.0
21
92930.0
31
0
0
LINE
8
equipment
10
97900.0
20
92930.0
30
0
11
97700.0
21
92930.0
31
0
0
LINE
8
equipment
10
79200.0
20
89800.0
30
0
11
79200.0
21
90300.0
31
0
0
LINE
8
equipment
10
68400.0
20
89800.0
30
0
11
68400.0
21
90300.0
31
0
0
LINE
8
equipment
10
79200.0
20
89800.0
30
0
11
68400.0
21
89800.0
31
0
0
LINE
8
equipment
10
79200.0
20
90300.0
30
0
11
68400.0
21
90300.0
31
0
0
LINE
8
equipment
10
78400.0
20
90700.0
30
0
11
78400.0
21
93000.0
31
0
0
LINE
8
equipment
10
76600.0
20
90700.0
30
0
11
76600.0
21
93000.0
31
0
0
LINE
8
equipment
10
78400.0
20
90700.0
30
0
11
76600.0
21
90700.0
31
0
0
LINE
8
equipment
10
78400.0
20
93000.0
30
0
11
76600.0
21
93000.0
31
0
0
LINE
8
equipment
10
75000.0
20
93900.0
30
0
11
75025.06999999999
21
93900.0
31
0
0
LINE
8
equipment
10
75025.06999999999
20
93900.0
30
0
11
75099.03
21
93900.0
31
0
0
LINE
8
equipment
10
75099.03
20
93900.0
30
0
11
75218.17
21
93900.0
31
0
0
LINE
8
equipment
10
75218.17
20
93900.0
30
0
11
75376.51
21
93900.0
31
0
0
LINE
8
equipment
10
75376.51
20
93900.0
30
0
11
75566.12
21
93900.0
31
0
0
LINE
8
equipment
10
75566.12
20
93900.0
30
0
11
75777.48
21
93900.0
31
0
0
LINE
8
equipment
10
75777.48
20
93900.0
30
0
11
76000.0
21
93900.0
31
0
0
LINE
8
equipment
10
76000.0
20
93900.0
30
0
11
76222.52
21
93900.0
31
0
0
LINE
8
equipment
10
76222.52
20
93900.0
30
0
11
76433.88
21
93900.0
31
0
0
LINE
8
equipment
10
76433.88
20
93900.0
30
0
11
76623.49
21
93900.0
31
0
0
LINE
8
equipment
10
76623.49
20
93900.0
30
0
11
76781.83
21
93900.0
31
0
0
LINE
8
equipment
10
76781.83
20
93900.0
30
0
11
76900.97
21
93900.0
31
0
0
LINE
8
equipment
10
76900.97
20
93900.0
30
0
11
76974.93000000001
21
93900.0
31
0
0
LINE
8
equipment
10
76974.93000000001
20
93900.0
30
0
11
77000.0
21
93900.0
31
0
0
LINE
8
equipment
10
75000.0
20
93600.0
30
0
11
75000.0
21
93900.0
31
0
0
LINE
8
equipment
10
75000.0
20
93600.0
30
0
11
75025.06999999999
21
93600.0
31
0
0
LINE
8
equipment
10
75025.06999999999
20
93600.0
30
0
11
75099.03
21
93600.0
31
0
0
LINE
8
equipment
10
75099.03
20
93600.0
30
0
11
75218.17
21
93600.0
31
0
0
LINE
8
equipment
10
75218.17
20
93600.0
30
0
11
75376.51
21
93600.0
31
0
0
LINE
8
equipment
10
75376.51
20
93600.0
30
0
11
75566.12
21
93600.0
31
0
0
LINE
8
equipment
10
75566.12
20
93600.0
30
0
11
75777.48
21
93600.0
31
0
0
LINE
8
equipment
10
75777.48
20
93600.0
30
0
11
76000.0
21
93600.0
31
0
0
LINE
8
equipment
10
76000.0
20
93600.0
30
0
11
76222.52
21
93600.0
31
0
0
LINE
8
equipment
10
76222.52
20
93600.0
30
0
11
76433.88
21
93600.0
31
0
0
LINE
8
equipment
10
76433.88
20
93600.0
30
0
11
76623.49
21
93600.0
31
0
0
LINE
8
equipment
10
76623.49
20
93600.0
30
0
11
76781.83
21
93600.0
31
0
0
LINE
8
equipment
10
76781.83
20
93600.0
30
0
11
76900.97
21
93600.0
31
0
0
LINE
8
equipment
10
76900.97
20
93600.0
30
0
11
76974.93000000001
21
93600.0
31
0
0
LINE
8
equipment
10
76974.93000000001
20
93600.0
30
0
11
77000.0
21
93600.0
31
0
0
LINE
8
equipment
10
74700.0
20
90700.0
30
0
11
74700.0
21
93000.0
31
0
0
LINE
8
equipment
10
72900.0
20
90700.0
30
0
11
72900.0
21
93000.0
31
0
0
LINE
8
equipment
10
74700.0
20
90700.0
30
0
11
72900.0
21
90700.0
31
0
0
LINE
8
equipment
10
74700.0
20
93000.0
30
0
11
72900.0
21
93000.0
31
0
0
LINE
8
equipment
10
72800.0
20
93900.0
30
0
11
72825.06999999999
21
93900.0
31
0
0
LINE
8
equipment
10
72825.06999999999
20
93900.0
30
0
11
72899.03
21
93900.0
31
0
0
LINE
8
equipment
10
72899.03
20
93900.0
30
0
11
73018.17
21
93900.0
31
0
0
LINE
8
equipment
10
73018.17
20
93900.0
30
0
11
73176.51
21
93900.0
31
0
0
LINE
8
equipment
10
73176.51
20
93900.0
30
0
11
73366.12
21
93900.0
31
0
0
LINE
8
equipment
10
73366.12
20
93900.0
30
0
11
73577.48000000001
21
93900.0
31
0
0
LINE
8
equipment
10
73577.48000000001
20
93900.0
30
0
11
73800.0
21
93900.0
31
0
0
LINE
8
equipment
10
73800.0
20
93900.0
30
0
11
74022.52
21
93900.0
31
0
0
LINE
8
equipment
10
74022.52
20
93900.0
30
0
11
74233.88
21
93900.0
31
0
0
LINE
8
equipment
10
74233.88
20
93900.0
30
0
11
74423.49
21
93900.0
31
0
0
LINE
8
equipment
10
74423.49
20
93900.0
30
0
11
74581.83
21
93900.0
31
0
0
LINE
8
equipment
10
74581.83
20
93900.0
30
0
11
74700.97
21
93900.0
31
0
0
LINE
8
equipment
10
74700.97
20
93900.0
30
0
11
74774.93
21
93900.0
31
0
0
LINE
8
equipment
10
74774.93
20
93900.0
30
0
11
74800.0
21
93900.0
31
0
0
LINE
8
equipment
10
72800.0
20
93600.0
30
0
11
72800.0
21
93900.0
31
0
0
LINE
8
equipment
10
72800.0
20
93600.0
30
0
11
72825.06999999999
21
93600.0
31
0
0
LINE
8
equipment
10
72825.06999999999
20
93600.0
30
0
11
72899.03
21
93600.0
31
0
0
LINE
8
equipment
10
72899.03
20
93600.0
30
0
11
73018.17
21
93600.0
31
0
0
LINE
8
equipment
10
73018.17
20
93600.0
30
0
11
73176.51
21
93600.0
31
0
0
LINE
8
equipment
10
73176.51
20
93600.0
30
0
11
73366.12
21
93600.0
31
0
0
LINE
8
equipment
10
73366.12
20
93600.0
30
0
11
73577.48000000001
21
93600.0
31
0
0
LINE
8
equipment
10
73577.48000000001
20
93600.0
30
0
11
73800.0
21
93600.0
31
0
0
LINE
8
equipment
10
73800.0
20
93600.0
30
0
11
74022.52
21
93600.0
31
0
0
LINE
8
equipment
10
74022.52
20
93600.0
30
0
11
74233.88
21
93600.0
31
0
0
LINE
8
equipment
10
74233.88
20
93600.0
30
0
11
74423.49
21
93600.0
31
0
0
LINE
8
equipment
10
74423.49
20
93600.0
30
0
11
74581.83
21
93600.0
31
0
0
LINE
8
equipment
10
74581.83
20
93600.0
30
0
11
74700.97
21
93600.0
31
0
0
LINE
8
equipment
10
74700.97
20
93600.0
30
0
11
74774.93
21
93600.0
31
0
0
LINE
8
equipment
10
74774.93
20
93600.0
30
0
11
74800.0
21
93600.0
31
0
0
LINE
8
equipment
10
71000.0
20
90700.0
30
0
11
71000.0
21
93000.0
31
0
0
LINE
8
equipment
10
69200.0
20
90700.0
30
0
11
69200.0
21
93000.0
31
0
0
LINE
8
equipment
10
71000.0
20
90700.0
30
0
11
69200.0
21
90700.0
31
0
0
LINE
8
equipment
10
71000.0
20
93000.0
30
0
11
69200.0
21
93000.0
31
0
0
LINE
8
equipment
10
70600.0
20
93900.0
30
0
11
70625.06999999999
21
93900.0
31
0
0
LINE
8
equipment
10
70625.06999999999
20
93900.0
30
0
11
70699.03
21
93900.0
31
0
0
LINE
8
equipment
10
70699.03
20
93900.0
30
0
11
70818.17
21
93900.0
31
0
0
LINE
8
equipment
10
70818.17
20
93900.0
30
0
11
70976.51
21
93900.0
31
0
0
LINE
8
equipment
10
70976.51
20
93900.0
30
0
11
71166.12000000001
21
93900.0
31
0
0
LINE
8
equipment
10
71166.12000000001
20
93900.0
30
0
11
71377.48
21
93900.0
31
0
0
LINE
8
equipment
10
71377.48
20
93900.0
30
0
11
71600.0
21
93900.0
31
0
0
LINE
8
equipment
10
71600.0
20
93900.0
30
0
11
71822.52
21
93900.0
31
0
0
LINE
8
equipment
10
71822.52
20
93900.0
30
0
11
72033.87999999999
21
93900.0
31
0
0
LINE
8
equipment
10
72033.87999999999
20
93900.0
30
0
11
72223.49
21
93900.0
31
0
0
LINE
8
equipment
10
72223.49
20
93900.0
30
0
11
72381.83
21
93900.0
31
0
0
LINE
8
equipment
10
72381.83
20
93900.0
30
0
11
72500.97
21
93900.0
31
0
0
LINE
8
equipment
10
72500.97
20
93900.0
30
0
11
72574.93
21
93900.0
31
0
0
LINE
8
equipment
10
72574.93
20
93900.0
30
0
11
72600.0
21
93900.0
31
0
0
LINE
8
equipment
10
70600.0
20
93600.0
30
0
11
70600.0
21
93900.0
31
0
0
LINE
8
equipment
10
70600.0
20
93600.0
30
0
11
70625.06999999999
21
93600.0
31
0
0
LINE
8
equipment
10
70625.06999999999
20
93600.0
30
0
11
70699.03
21
93600.0
31
0
0
LINE
8
equipment
10
70699.03
20
93600.0
30
0
11
70818.17
21
93600.0
31
0
0
LINE
8
equipment
10
70818.17
20
93600.0
30
0
11
70976.51
21
93600.0
31
0
0
LINE
8
equipment
10
70976.51
20
93600.0
30
0
11
71166.12000000001
21
93600.0
31
0
0
LINE
8
equipment
10
71166.12000000001
20
93600.0
30
0
11
71377.48
21
93600.0
31
0
0
LINE
8
equipment
10
71377.48
20
93600.0
30
0
11
71600.0
21
93600.0
31
0
0
LINE
8
equipment
10
71600.0
20
93600.0
30
0
11
71822.52
21
93600.0
31
0
0
LINE
8
equipment
10
71822.52
20
93600.0
30
0
11
72033.87999999999
21
93600.0
31
0
0
LINE
8
equipment
10
72033.87999999999
20
93600.0
30
0
11
72223.49
21
93600.0
31
0
0
LINE
8
equipment
10
72223.49
20
93600.0
30
0
11
72381.83
21
93600.0
31
0
0
LINE
8
equipment
10
72381.83
20
93600.0
30
0
11
72500.97
21
93600.0
31
0
0
LINE
8
equipment
10
72500.97
20
93600.0
30
0
11
72574.93
21
93600.0
31
0
0
LINE
8
equipment
10
72574.93
20
93600.0
30
0
11
72600.0
21
93600.0
31
0
0
LINE
8
equipment
10
78600.0
20
90600.0
30
0
11
78600.0
21
90680.0
31
0
0
LINE
8
equipment
10
69000.0
20
90600.0
30
0
11
69000.0
21
90680.0
31
0
0
LINE
8
equipment
10
78600.0
20
90600.0
30
0
11
69000.0
21
90600.0
31
0
0
LINE
8
equipment
10
78600.0
20
90680.0
30
0
11
69000.0
21
90680.0
31
0
0
LINE
8
equipment
10
78600.0
20
90850.0
30
0
11
78600.0
21
90930.0
31
0
0
LINE
8
equipment
10
69000.0
20
90850.0
30
0
11
69000.0
21
90930.0
31
0
0
LINE
8
equipment
10
78600.0
20
90850.0
30
0
11
78400.0
21
90850.0
31
0
0
LINE
8
equipment
10
76600.0
20
90850.0
30
0
11
74700.0
21
90850.0
31
0
0
LINE
8
equipment
10
72900.0
20
90850.0
30
0
11
71000.0
21
90850.0
31
0
0
LINE
8
equipment
10
69200.0
20
90850.0
30
0
11
69000.0
21
90850.0
31
0
0
LINE
8
equipment
10
78600.0
20
90930.0
30
0
11
78400.0
21
90930.0
31
0
0
LINE
8
equipment
10
76600.0
20
90930.0
30
0
11
74700.0
21
90930.0
31
0
0
LINE
8
equipment
10
72900.0
20
90930.0
30
0
11
71000.0
21
90930.0
31
0
0
LINE
8
equipment
10
69200.0
20
90930.0
30
0
11
69000.0
21
90930.0
31
0
0
LINE
8
equipment
10
78600.0
20
91100.0
30
0
11
78600.0
21
91180.0
31
0
0
LINE
8
equipment
10
69000.0
20
91100.0
30
0
11
69000.0
21
91180.0
31
0
0
LINE
8
equipment
10
78600.0
20
91100.0
30
0
11
78400.0
21
91100.0
31
0
0
LINE
8
equipment
10
76600.0
20
91100.0
30
0
11
74700.0
21
91100.0
31
0
0
LINE
8
equipment
10
72900.0
20
91100.0
30
0
11
71000.0
21
91100.0
31
0
0
LINE
8
equipment
10
69200.0
20
91100.0
30
0
11
69000.0
21
91100.0
31
0
0
LINE
8
equipment
10
78600.0
20
91180.0
30
0
11
78400.0
21
91180.0
31
0
0
LINE
8
equipment
10
76600.0
20
91180.0
30
0
11
74700.0
21
91180.0
31
0
0
LINE
8
equipment
10
72900.0
20
91180.0
30
0
11
71000.0
21
91180.0
31
0
0
LINE
8
equipment
10
69200.0
20
91180.0
30
0
11
69000.0
21
91180.0
31
0
0
LINE
8
equipment
10
78600.0
20
91350.0
30
0
11
78600.0
21
91430.0
31
0
0
LINE
8
equipment
10
69000.0
20
91350.0
30
0
11
69000.0
21
91430.0
31
0
0
LINE
8
equipment
10
78600.0
20
91350.0
30
0
11
78400.0
21
91350.0
31
0
0
LINE
8
equipment
10
76600.0
20
91350.0
30
0
11
74700.0
21
91350.0
31
0
0
LINE
8
equipment
10
72900.0
20
91350.0
30
0
11
71000.0
21
91350.0
31
0
0
LINE
8
equipment
10
69200.0
20
91350.0
30
0
11
69000.0
21
91350.0
31
0
0
LINE
8
equipment
10
78600.0
20
91430.0
30
0
11
78400.0
21
91430.0
31
0
0
LINE
8
equipment
10
76600.0
20
91430.0
30
0
11
74700.0
21
91430.0
31
0
0
LINE
8
equipment
10
72900.0
20
91430.0
30
0
11
71000.0
21
91430.0
31
0
0
LINE
8
equipment
10
69200.0
20
91430.0
30
0
11
69000.0
21
91430.0
31
0
0
LINE
8
equipment
10
78600.0
20
91600.0
30
0
11
78600.0
21
91680.0
31
0
0
LINE
8
equipment
10
69000.0
20
91600.0
30
0
11
69000.0
21
91680.0
31
0
0
LINE
8
equipment
10
78600.0
20
91600.0
30
0
11
78400.0
21
91600.0
31
0
0
LINE
8
equipment
10
76600.0
20
91600.0
30
0
11
74700.0
21
91600.0
31
0
0
LINE
8
equipment
10
72900.0
20
91600.0
30
0
11
71000.0
21
91600.0
31
0
0
LINE
8
equipment
10
69200.0
20
91600.0
30
0
11
69000.0
21
91600.0
31
0
0
LINE
8
equipment
10
78600.0
20
91680.0
30
0
11
78400.0
21
91680.0
31
0
0
LINE
8
equipment
10
76600.0
20
91680.0
30
0
11
74700.0
21
91680.0
31
0
0
LINE
8
equipment
10
72900.0
20
91680.0
30
0
11
71000.0
21
91680.0
31
0
0
LINE
8
equipment
10
69200.0
20
91680.0
30
0
11
69000.0
21
91680.0
31
0
0
LINE
8
equipment
10
78600.0
20
91850.0
30
0
11
78600.0
21
91930.0
31
0
0
LINE
8
equipment
10
69000.0
20
91850.0
30
0
11
69000.0
21
91930.0
31
0
0
LINE
8
equipment
10
78600.0
20
91850.0
30
0
11
78400.0
21
91850.0
31
0
0
LINE
8
equipment
10
76600.0
20
91850.0
30
0
11
74700.0
21
91850.0
31
0
0
LINE
8
equipment
10
72900.0
20
91850.0
30
0
11
71000.0
21
91850.0
31
0
0
LINE
8
equipment
10
69200.0
20
91850.0
30
0
11
69000.0
21
91850.0
31
0
0
LINE
8
equipment
10
78600.0
20
91930.0
30
0
11
78400.0
21
91930.0
31
0
0
LINE
8
equipment
10
76600.0
20
91930.0
30
0
11
74700.0
21
91930.0
31
0
0
LINE
8
equipment
10
72900.0
20
91930.0
30
0
11
71000.0
21
91930.0
31
0
0
LINE
8
equipment
10
69200.0
20
91930.0
30
0
11
69000.0
21
91930.0
31
0
0
LINE
8
equipment
10
78600.0
20
92100.0
30
0
11
78600.0
21
92180.0
31
0
0
LINE
8
equipment
10
69000.0
20
92100.0
30
0
11
69000.0
21
92180.0
31
0
0
LINE
8
equipment
10
78600.0
20
92100.0
30
0
11
78400.0
21
92100.0
31
0
0
LINE
8
equipment
10
76600.0
20
92100.0
30
0
11
74700.0
21
92100.0
31
0
0
LINE
8
equipment
10
72900.0
20
92100.0
30
0
11
71000.0
21
92100.0
31
0
0
LINE
8
equipment
10
69200.0
20
92100.0
30
0
11
69000.0
21
92100.0
31
0
0
LINE
8
equipment
10
78600.0
20
92180.0
30
0
11
78400.0
21
92180.0
31
0
0
LINE
8
equipment
10
76600.0
20
92180.0
30
0
11
74700.0
21
92180.0
31
0
0
LINE
8
equipment
10
72900.0
20
92180.0
30
0
11
71000.0
21
92180.0
31
0
0
LINE
8
equipment
10
69200.0
20
92180.0
30
0
11
69000.0
21
92180.0
31
0
0
LINE
8
equipment
10
78600.0
20
92350.0
30
0
11
78600.0
21
92430.0
31
0
0
LINE
8
equipment
10
69000.0
20
92350.0
30
0
11
69000.0
21
92430.0
31
0
0
LINE
8
equipment
10
78600.0
20
92350.0
30
0
11
78400.0
21
92350.0
31
0
0
LINE
8
equipment
10
76600.0
20
92350.0
30
0
11
74700.0
21
92350.0
31
0
0
LINE
8
equipment
10
72900.0
20
92350.0
30
0
11
71000.0
21
92350.0
31
0
0
LINE
8
equipment
10
69200.0
20
92350.0
30
0
11
69000.0
21
92350.0
31
0
0
LINE
8
equipment
10
78600.0
20
92430.0
30
0
11
78400.0
21
92430.0
31
0
0
LINE
8
equipment
10
76600.0
20
92430.0
30
0
11
74700.0
21
92430.0
31
0
0
LINE
8
equipment
10
72900.0
20
92430.0
30
0
11
71000.0
21
92430.0
31
0
0
LINE
8
equipment
10
69200.0
20
92430.0
30
0
11
69000.0
21
92430.0
31
0
0
LINE
8
equipment
10
78600.0
20
92600.0
30
0
11
78600.0
21
92680.0
31
0
0
LINE
8
equipment
10
69000.0
20
92600.0
30
0
11
69000.0
21
92680.0
31
0
0
LINE
8
equipment
10
78600.0
20
92600.0
30
0
11
78400.0
21
92600.0
31
0
0
LINE
8
equipment
10
76600.0
20
92600.0
30
0
11
74700.0
21
92600.0
31
0
0
LINE
8
equipment
10
72900.0
20
92600.0
30
0
11
71000.0
21
92600.0
31
0
0
LINE
8
equipment
10
69200.0
20
92600.0
30
0
11
69000.0
21
92600.0
31
0
0
LINE
8
equipment
10
78600.0
20
92680.0
30
0
11
78400.0
21
92680.0
31
0
0
LINE
8
equipment
10
76600.0
20
92680.0
30
0
11
74700.0
21
92680.0
31
0
0
LINE
8
equipment
10
72900.0
20
92680.0
30
0
11
71000.0
21
92680.0
31
0
0
LINE
8
equipment
10
69200.0
20
92680.0
30
0
11
69000.0
21
92680.0
31
0
0
LINE
8
equipment
10
78600.0
20
92850.0
30
0
11
78600.0
21
92930.0
31
0
0
LINE
8
equipment
10
69000.0
20
92850.0
30
0
11
69000.0
21
92930.0
31
0
0
LINE
8
equipment
10
78600.0
20
92850.0
30
0
11
78400.0
21
92850.0
31
0
0
LINE
8
equipment
10
76600.0
20
92850.0
30
0
11
74700.0
21
92850.0
31
0
0
LINE
8
equipment
10
72900.0
20
92850.0
30
0
11
71000.0
21
92850.0
31
0
0
LINE
8
equipment
10
69200.0
20
92850.0
30
0
11
69000.0
21
92850.0
31
0
0
LINE
8
equipment
10
78600.0
20
92930.0
30
0
11
78400.0
21
92930.0
31
0
0
LINE
8
equipment
10
76600.0
20
92930.0
30
0
11
74700.0
21
92930.0
31
0
0
LINE
8
equipment
10
72900.0
20
92930.0
30
0
11
71000.0
21
92930.0
31
0
0
LINE
8
equipment
10
69200.0
20
92930.0
30
0
11
69000.0
21
92930.0
31
0
0
LINE
8
equipment
10
50500.0
20
89800.0
30
0
11
50500.0
21
90300.0
31
0
0
LINE
8
equipment
10
39700.0
20
89800.0
30
0
11
39700.0
21
90300.0
31
0
0
LINE
8
equipment
10
50500.0
20
89800.0
30
0
11
39700.0
21
89800.0
31
0
0
LINE
8
equipment
10
50500.0
20
90300.0
30
0
11
39700.0
21
90300.0
31
0
0
LINE
8
equipment
10
49700.0
20
90700.0
30
0
11
49700.0
21
93000.0
31
0
0
LINE
8
equipment
10
47900.0
20
90700.0
30
0
11
47900.0
21
93000.0
31
0
0
LINE
8
equipment
10
49700.0
20
90700.0
30
0
11
47900.0
21
90700.0
31
0
0
LINE
8
equipment
10
49700.0
20
93000.0
30
0
11
47900.0
21
93000.0
31
0
0
LINE
8
equipment
10
46300.0
20
93900.0
30
0
11
46325.07
21
93900.0
31
0
0
LINE
8
equipment
10
46325.07
20
93900.0
30
0
11
46399.03
21
93900.0
31
0
0
LINE
8
equipment
10
46399.03
20
93900.0
30
0
11
46518.17
21
93900.0
31
0
0
LINE
8
equipment
10
46518.17
20
93900.0
30
0
11
46676.51
21
93900.0
31
0
0
LINE
8
equipment
10
46676.51
20
93900.0
30
0
11
46866.12
21
93900.0
31
0
0
LINE
8
equipment
10
46866.12
20
93900.0
30
0
11
47077.48
21
93900.0
31
0
0
LINE
8
equipment
10
47077.48
20
93900.0
30
0
11
47300.0
21
93900.0
31
0
0
LINE
8
equipment
10
47300.0
20
93900.0
30
0
11
47522.52
21
93900.0
31
0
0
LINE
8
equipment
10
47522.52
20
93900.0
30
0
11
47733.88
21
93900.0
31
0
0
LINE
8
equipment
10
47733.88
20
93900.0
30
0
11
47923.49
21
93900.0
31
0
0
LINE
8
equipment
10
47923.49
20
93900.0
30
0
11
48081.83
21
93900.0
31
0
0
LINE
8
equipment
10
48081.83
20
93900.0
30
0
11
48200.97
21
93900.0
31
0
0
LINE
8
equipment
10
48200.97
20
93900.0
30
0
11
48274.93
21
93900.0
31
0
0
LINE
8
equipment
10
48274.93
20
93900.0
30
0
11
48300.0
21
93900.0
31
0
0
LINE
8
equipment
10
46300.0
20
93600.0
30
0
11
46300.0
21
93900.0
31
0
0
LINE
8
equipment
10
46300.0
20
93600.0
30
0
11
46325.07
21
93600.0
31
0
0
LINE
8
equipment
10
46325.07
20
93600.0
30
0
11
46399.03
21
93600.0
31
0
0
LINE
8
equipment
10
46399.03
20
93600.0
30
0
11
46518.17
21
93600.0
31
0
0
LINE
8
equipment
10
46518.17
20
93600.0
30
0
11
46676.51
21
93600.0
31
0
0
LINE
8
equipment
10
46676.51
20
93600.0
30
0
11
46866.12
21
93600.0
31
0
0
LINE
8
equipment
10
46866.12
20
93600.0
30
0
11
47077.48
21
93600.0
31
0
0
LINE
8
equipment
10
47077.48
20
93600.0
30
0
11
47300.0
21
93600.0
31
0
0
LINE
8
equipment
10
47300.0
20
93600.0
30
0
11
47522.52
21
93600.0
31
0
0
LINE
8
equipment
10
47522.52
20
93600.0
30
0
11
47733.88
21
93600.0
31
0
0
LINE
8
equipment
10
47733.88
20
93600.0
30
0
11
47923.49
21
93600.0
31
0
0
LINE
8
equipment
10
47923.49
20
93600.0
30
0
11
48081.83
21
93600.0
31
0
0
LINE
8
equipment
10
48081.83
20
93600.0
30
0
11
48200.97
21
93600.0
31
0
0
LINE
8
equipment
10
48200.97
20
93600.0
30
0
11
48274.93
21
93600.0
31
0
0
LINE
8
equipment
10
48274.93
20
93600.0
30
0
11
48300.0
21
93600.0
31
0
0
LINE
8
equipment
10
46000.0
20
90700.0
30
0
11
46000.0
21
93000.0
31
0
0
LINE
8
equipment
10
44200.0
20
90700.0
30
0
11
44200.0
21
93000.0
31
0
0
LINE
8
equipment
10
46000.0
20
90700.0
30
0
11
44200.0
21
90700.0
31
0
0
LINE
8
equipment
10
46000.0
20
93000.0
30
0
11
44200.0
21
93000.0
31
0
0
LINE
8
equipment
10
44100.0
20
93900.0
30
0
11
44125.07
21
93900.0
31
0
0
LINE
8
equipment
10
44125.07
20
93900.0
30
0
11
44199.03
21
93900.0
31
0
0
LINE
8
equipment
10
44199.03
20
93900.0
30
0
11
44318.17
21
93900.0
31
0
0
LINE
8
equipment
10
44318.17
20
93900.0
30
0
11
44476.51
21
93900.0
31
0
0
LINE
8
equipment
10
44476.51
20
93900.0
30
0
11
44666.12
21
93900.0
31
0
0
LINE
8
equipment
10
44666.12
20
93900.0
30
0
11
44877.48
21
93900.0
31
0
0
LINE
8
equipment
10
44877.48
20
93900.0
30
0
11
45100.0
21
93900.0
31
0
0
LINE
8
equipment
10
45100.0
20
93900.0
30
0
11
45322.52
21
93900.0
31
0
0
LINE
8
equipment
10
45322.52
20
93900.0
30
0
11
45533.88
21
93900.0
31
0
0
LINE
8
equipment
10
45533.88
20
93900.0
30
0
11
45723.49
21
93900.0
31
0
0
LINE
8
equipment
10
45723.49
20
93900.0
30
0
11
45881.83
21
93900.0
31
0
0
LINE
8
equipment
10
45881.83
20
93900.0
30
0
11
46000.97
21
93900.0
31
0
0
LINE
8
equipment
10
46000.97
20
93900.0
30
0
11
46074.93
21
93900.0
31
0
0
LINE
8
equipment
10
46074.93
20
93900.0
30
0
11
46100.0
21
93900.0
31
0
0
LINE
8
equipment
10
44100.0
20
93600.0
30
0
11
44100.0
21
93900.0
31
0
0
LINE
8
equipment
10
44100.0
20
93600.0
30
0
11
44125.07
21
93600.0
31
0
0
LINE
8
equipment
10
44125.07
20
93600.0
30
0
11
44199.03
21
93600.0
31
0
0
LINE
8
equipment
10
44199.03
20
93600.0
30
0
11
44318.17
21
93600.0
31
0
0
LINE
8
equipment
10
44318.17
20
93600.0
30
0
11
44476.51
21
93600.0
31
0
0
LINE
8
equipment
10
44476.51
20
93600.0
30
0
11
44666.12
21
93600.0
31
0
0
LINE
8
equipment
10
44666.12
20
93600.0
30
0
11
44877.48
21
93600.0
31
0
0
LINE
8
equipment
10
44877.48
20
93600.0
30
0
11
45100.0
21
93600.0
31
0
0
LINE
8
equipment
10
45100.0
20
93600.0
30
0
11
45322.52
21
93600.0
31
0
0
LINE
8
equipment
10
45322.52
20
93600.0
30
0
11
45533.88
21
93600.0
31
0
0
LINE
8
equipment
10
45533.88
20
93600.0
30
0
11
45723.49
21
93600.0
31
0
0
LINE
8
equipment
10
45723.49
20
93600.0
30
0
11
45881.83
21
93600.0
31
0
0
LINE
8
equipment
10
45881.83
20
93600.0
30
0
11
46000.97
21
93600.0
31
0
0
LINE
8
equipment
10
46000.97
20
93600.0
30
0
11
46074.93
21
93600.0
31
0
0
LINE
8
equipment
10
46074.93
20
93600.0
30
0
11
46100.0
21
93600.0
31
0
0
LINE
8
equipment
10
42300.0
20
90700.0
30
0
11
42300.0
21
93000.0
31
0
0
LINE
8
equipment
10
40500.0
20
90700.0
30
0
11
40500.0
21
93000.0
31
0
0
LINE
8
equipment
10
42300.0
20
90700.0
30
0
11
40500.0
21
90700.0
31
0
0
LINE
8
equipment
10
42300.0
20
93000.0
30
0
11
40500.0
21
93000.0
31
0
0
LINE
8
equipment
10
41900.0
20
93900.0
30
0
11
41925.07
21
93900.0
31
0
0
LINE
8
equipment
10
41925.07
20
93900.0
30
0
11
41999.03
21
93900.0
31
0
0
LINE
8
equipment
10
41999.03
20
93900.0
30
0
11
42118.17
21
93900.0
31
0
0
LINE
8
equipment
10
42118.17
20
93900.0
30
0
11
42276.51
21
93900.0
31
0
0
LINE
8
equipment
10
42276.51
20
93900.0
30
0
11
42466.12
21
93900.0
31
0
0
LINE
8
equipment
10
42466.12
20
93900.0
30
0
11
42677.48
21
93900.0
31
0
0
LINE
8
equipment
10
42677.48
20
93900.0
30
0
11
42900.0
21
93900.0
31
0
0
LINE
8
equipment
10
42900.0
20
93900.0
30
0
11
43122.52
21
93900.0
31
0
0
LINE
8
equipment
10
43122.52
20
93900.0
30
0
11
43333.88
21
93900.0
31
0
0
LINE
8
equipment
10
43333.88
20
93900.0
30
0
11
43523.49
21
93900.0
31
0
0
LINE
8
equipment
10
43523.49
20
93900.0
30
0
11
43681.83
21
93900.0
31
0
0
LINE
8
equipment
10
43681.83
20
93900.0
30
0
11
43800.97
21
93900.0
31
0
0
LINE
8
equipment
10
43800.97
20
93900.0
30
0
11
43874.93
21
93900.0
31
0
0
LINE
8
equipment
10
43874.93
20
93900.0
30
0
11
43900.0
21
93900.0
31
0
0
LINE
8
equipment
10
41900.0
20
93600.0
30
0
11
41900.0
21
93900.0
31
0
0
LINE
8
equipment
10
41900.0
20
93600.0
30
0
11
41925.07
21
93600.0
31
0
0
LINE
8
equipment
10
41925.07
20
93600.0
30
0
11
41999.03
21
93600.0
31
0
0
LINE
8
equipment
10
41999.03
20
93600.0
30
0
11
42118.17
21
93600.0
31
0
0
LINE
8
equipment
10
42118.17
20
93600.0
30
0
11
42276.51
21
93600.0
31
0
0
LINE
8
equipment
10
42276.51
20
93600.0
30
0
11
42466.12
21
93600.0
31
0
0
LINE
8
equipment
10
42466.12
20
93600.0
30
0
11
42677.48
21
93600.0
31
0
0
LINE
8
equipment
10
42677.48
20
93600.0
30
0
11
42900.0
21
93600.0
31
0
0
LINE
8
equipment
10
42900.0
20
93600.0
30
0
11
43122.52
21
93600.0
31
0
0
LINE
8
equipment
10
43122.52
20
93600.0
30
0
11
43333.88
21
93600.0
31
0
0
LINE
8
equipment
10
43333.88
20
93600.0
30
0
11
43523.49
21
93600.0
31
0
0
LINE
8
equipment
10
43523.49
20
93600.0
30
0
11
43681.83
21
93600.0
31
0
0
LINE
8
equipment
10
43681.83
20
93600.0
30
0
11
43800.97
21
93600.0
31
0
0
LINE
8
equipment
10
43800.97
20
93600.0
30
0
11
43874.93
21
93600.0
31
0
0
LINE
8
equipment
10
43874.93
20
93600.0
30
0
11
43900.0
21
93600.0
31
0
0
LINE
8
equipment
10
49900.0
20
90600.0
30
0
11
49900.0
21
90680.0
31
0
0
LINE
8
equipment
10
40300.0
20
90600.0
30
0
11
40300.0
21
90680.0
31
0
0
LINE
8
equipment
10
49900.0
20
90600.0
30
0
11
40300.0
21
90600.0
31
0
0
LINE
8
equipment
10
49900.0
20
90680.0
30
0
11
40300.0
21
90680.0
31
0
0
LINE
8
equipment
10
49900.0
20
90850.0
30
0
11
49900.0
21
90930.0
31
0
0
LINE
8
equipment
10
40300.0
20
90850.0
30
0
11
40300.0
21
90930.0
31
0
0
LINE
8
equipment
10
49900.0
20
90850.0
30
0
11
49700.0
21
90850.0
31
0
0
LINE
8
equipment
10
47900.0
20
90850.0
30
0
11
46000.0
21
90850.0
31
0
0
LINE
8
equipment
10
44200.0
20
90850.0
30
0
11
42300.0
21
90850.0
31
0
0
LINE
8
equipment
10
40500.0
20
90850.0
30
0
11
40300.0
21
90850.0
31
0
0
LINE
8
equipment
10
49900.0
20
90930.0
30
0
11
49700.0
21
90930.0
31
0
0
LINE
8
equipment
10
47900.0
20
90930.0
30
0
11
46000.0
21
90930.0
31
0
0
LINE
8
equipment
10
44200.0
20
90930.0
30
0
11
42300.0
21
90930.0
31
0
0
LINE
8
equipment
10
40500.0
20
90930.0
30
0
11
40300.0
21
90930.0
31
0
0
LINE
8
equipment
10
49900.0
20
91100.0
30
0
11
49900.0
21
91180.0
31
0
0
LINE
8
equipment
10
40300.0
20
91100.0
30
0
11
40300.0
21
91180.0
31
0
0
LINE
8
equipment
10
49900.0
20
91100.0
30
0
11
49700.0
21
91100.0
31
0
0
LINE
8
equipment
10
47900.0
20
91100.0
30
0
11
46000.0
21
91100.0
31
0
0
LINE
8
equipment
10
44200.0
20
91100.0
30
0
11
42300.0
21
91100.0
31
0
0
LINE
8
equipment
10
40500.0
20
91100.0
30
0
11
40300.0
21
91100.0
31
0
0
LINE
8
equipment
10
49900.0
20
91180.0
30
0
11
49700.0
21
91180.0
31
0
0
LINE
8
equipment
10
47900.0
20
91180.0
30
0
11
46000.0
21
91180.0
31
0
0
LINE
8
equipment
10
44200.0
20
91180.0
30
0
11
42300.0
21
91180.0
31
0
0
LINE
8
equipment
10
40500.0
20
91180.0
30
0
11
40300.0
21
91180.0
31
0
0
LINE
8
equipment
10
49900.0
20
91350.0
30
0
11
49900.0
21
91430.0
31
0
0
LINE
8
equipment
10
40300.0
20
91350.0
30
0
11
40300.0
21
91430.0
31
0
0
LINE
8
equipment
10
49900.0
20
91350.0
30
0
11
49700.0
21
91350.0
31
0
0
LINE
8
equipment
10
47900.0
20
91350.0
30
0
11
46000.0
21
91350.0
31
0
0
LINE
8
equipment
10
44200.0
20
91350.0
30
0
11
42300.0
21
91350.0
31
0
0
LINE
8
equipment
10
40500.0
20
91350.0
30
0
11
40300.0
21
91350.0
31
0
0
LINE
8
equipment
10
49900.0
20
91430.0
30
0
11
49700.0
21
91430.0
31
0
0
LINE
8
equipment
10
47900.0
20
91430.0
30
0
11
46000.0
21
91430.0
31
0
0
LINE
8
equipment
10
44200.0
20
91430.0
30
0
11
42300.0
21
91430.0
31
0
0
LINE
8
equipment
10
40500.0
20
91430.0
30
0
11
40300.0
21
91430.0
31
0
0
LINE
8
equipment
10
49900.0
20
91600.0
30
0
11
49900.0
21
91680.0
31
0
0
LINE
8
equipment
10
40300.0
20
91600.0
30
0
11
40300.0
21
91680.0
31
0
0
LINE
8
equipment
10
49900.0
20
91600.0
30
0
11
49700.0
21
91600.0
31
0
0
LINE
8
equipment
10
47900.0
20
91600.0
30
0
11
46000.0
21
91600.0
31
0
0
LINE
8
equipment
10
44200.0
20
91600.0
30
0
11
42300.0
21
91600.0
31
0
0
LINE
8
equipment
10
40500.0
20
91600.0
30
0
11
40300.0
21
91600.0
31
0
0
LINE
8
equipment
10
49900.0
20
91680.0
30
0
11
49700.0
21
91680.0
31
0
0
LINE
8
equipment
10
47900.0
20
91680.0
30
0
11
46000.0
21
91680.0
31
0
0
LINE
8
equipment
10
44200.0
20
91680.0
30
0
11
42300.0
21
91680.0
31
0
0
LINE
8
equipment
10
40500.0
20
91680.0
30
0
11
40300.0
21
91680.0
31
0
0
LINE
8
equipment
10
49900.0
20
91850.0
30
0
11
49900.0
21
91930.0
31
0
0
LINE
8
equipment
10
40300.0
20
91850.0
30
0
11
40300.0
21
91930.0
31
0
0
LINE
8
equipment
10
49900.0
20
91850.0
30
0
11
49700.0
21
91850.0
31
0
0
LINE
8
equipment
10
47900.0
20
91850.0
30
0
11
46000.0
21
91850.0
31
0
0
LINE
8
equipment
10
44200.0
20
91850.0
30
0
11
42300.0
21
91850.0
31
0
0
LINE
8
equipment
10
40500.0
20
91850.0
30
0
11
40300.0
21
91850.0
31
0
0
LINE
8
equipment
10
49900.0
20
91930.0
30
0
11
49700.0
21
91930.0
31
0
0
LINE
8
equipment
10
47900.0
20
91930.0
30
0
11
46000.0
21
91930.0
31
0
0
LINE
8
equipment
10
44200.0
20
91930.0
30
0
11
42300.0
21
91930.0
31
0
0
LINE
8
equipment
10
40500.0
20
91930.0
30
0
11
40300.0
21
91930.0
31
0
0
LINE
8
equipment
10
49900.0
20
92100.0
30
0
11
49900.0
21
92180.0
31
0
0
LINE
8
equipment
10
40300.0
20
92100.0
30
0
11
40300.0
21
92180.0
31
0
0
LINE
8
equipment
10
49900.0
20
92100.0
30
0
11
49700.0
21
92100.0
31
0
0
LINE
8
equipment
10
47900.0
20
92100.0
30
0
11
46000.0
21
92100.0
31
0
0
LINE
8
equipment
10
44200.0
20
92100.0
30
0
11
42300.0
21
92100.0
31
0
0
LINE
8
equipment
10
40500.0
20
92100.0
30
0
11
40300.0
21
92100.0
31
0
0
LINE
8
equipment
10
49900.0
20
92180.0
30
0
11
49700.0
21
92180.0
31
0
0
LINE
8
equipment
10
47900.0
20
92180.0
30
0
11
46000.0
21
92180.0
31
0
0
LINE
8
equipment
10
44200.0
20
92180.0
30
0
11
42300.0
21
92180.0
31
0
0
LINE
8
equipment
10
40500.0
20
92180.0
30
0
11
40300.0
21
92180.0
31
0
0
LINE
8
equipment
10
49900.0
20
92350.0
30
0
11
49900.0
21
92430.0
31
0
0
LINE
8
equipment
10
40300.0
20
92350.0
30
0
11
40300.0
21
92430.0
31
0
0
LINE
8
equipment
10
49900.0
20
92350.0
30
0
11
49700.0
21
92350.0
31
0
0
LINE
8
equipment
10
47900.0
20
92350.0
30
0
11
46000.0
21
92350.0
31
0
0
LINE
8
equipment
10
44200.0
20
92350.0
30
0
11
42300.0
21
92350.0
31
0
0
LINE
8
equipment
10
40500.0
20
92350.0
30
0
11
40300.0
21
92350.0
31
0
0
LINE
8
equipment
10
49900.0
20
92430.0
30
0
11
49700.0
21
92430.0
31
0
0
LINE
8
equipment
10
47900.0
20
92430.0
30
0
11
46000.0
21
92430.0
31
0
0
LINE
8
equipment
10
44200.0
20
92430.0
30
0
11
42300.0
21
92430.0
31
0
0
LINE
8
equipment
10
40500.0
20
92430.0
30
0
11
40300.0
21
92430.0
31
0
0
LINE
8
equipment
10
49900.0
20
92600.0
30
0
11
49900.0
21
92680.0
31
0
0
LINE
8
equipment
10
40300.0
20
92600.0
30
0
11
40300.0
21
92680.0
31
0
0
LINE
8
equipment
10
49900.0
20
92600.0
30
0
11
49700.0
21
92600.0
31
0
0
LINE
8
equipment
10
47900.0
20
92600.0
30
0
11
46000.0
21
92600.0
31
0
0
LINE
8
equipment
10
44200.0
20
92600.0
30
0
11
42300.0
21
92600.0
31
0
0
LINE
8
equipment
10
40500.0
20
92600.0
30
0
11
40300.0
21
92600.0
31
0
0
LINE
8
equipment
10
49900.0
20
92680.0
30
0
11
49700.0
21
92680.0
31
0
0
LINE
8
equipment
10
47900.0
20
92680.0
30
0
11
46000.0
21
92680.0
31
0
0
LINE
8
equipment
10
44200.0
20
92680.0
30
0
11
42300.0
21
92680.0
31
0
0
LINE
8
equipment
10
40500.0
20
92680.0
30
0
11
40300.0
21
92680.0
31
0
0
LINE
8
equipment
10
49900.0
20
92850.0
30
0
11
49900.0
21
92930.0
31
0
0
LINE
8
equipment
10
40300.0
20
92850.0
30
0
11
40300.0
21
92930.0
31
0
0
LINE
8
equipment
10
49900.0
20
92850.0
30
0
11
49700.0
21
92850.0
31
0
0
LINE
8
equipment
10
47900.0
20
92850.0
30
0
11
46000.0
21
92850.0
31
0
0
LINE
8
equipment
10
44200.0
20
92850.0
30
0
11
42300.0
21
92850.0
31
0
0
LINE
8
equipment
10
40500.0
20
92850.0
30
0
11
40300.0
21
92850.0
31
0
0
LINE
8
equipment
10
49900.0
20
92930.0
30
0
11
49700.0
21
92930.0
31
0
0
LINE
8
equipment
10
47900.0
20
92930.0
30
0
11
46000.0
21
92930.0
31
0
0
LINE
8
equipment
10
44200.0
20
92930.0
30
0
11
42300.0
21
92930.0
31
0
0
LINE
8
equipment
10
40500.0
20
92930.0
30
0
11
40300.0
21
92930.0
31
0
0
LINE
8
piping
10
176300.0
20
92580.0
30
0
11
28700.000000000004
21
92580.0
31
0
0
LINE
8
piping
10
176300.0
20
92220.0
30
0
11
176300.0
21
92224.51
31
0
0
LINE
8
piping
10
176300.0
20
92224.51
30
0
11
176300.0
21
92237.83
31
0
0
LINE
8
piping
10
176300.0
20
92237.83
30
0
11
176300.0
21
92259.27
31
0
0
LINE
8
piping
10
176300.0
20
92259.27
30
0
11
176300.0
21
92287.76999999999
31
0
0
LINE
8
piping
10
176300.0
20
92287.76999999999
30
0
11
176300.0
21
92321.9
31
0
0
LINE
8
piping
10
176300.0
20
92321.9
30
0
11
176300.0
21
92359.95
31
0
0
LINE
8
piping
10
176300.0
20
92359.95
30
0
11
176300.0
21
92400.0
31
0
0
LINE
8
piping
10
176300.0
20
92400.0
30
0
11
176300.0
21
92440.05
31
0
0
LINE
8
piping
10
176300.0
20
92440.05
30
0
11
176300.0
21
92478.09999999999
31
0
0
LINE
8
piping
10
176300.0
20
92478.09999999999
30
0
11
176300.0
21
92512.23
31
0
0
LINE
8
piping
10
176300.0
20
92512.23
30
0
11
176300.0
21
92540.73
31
0
0
LINE
8
piping
10
176300.0
20
92540.73
30
0
11
176300.0
21
92562.17
31
0
0
LINE
8
piping
10
176300.0
20
92562.17
30
0
11
176300.0
21
92575.49
31
0
0
LINE
8
piping
10
176300.0
20
92575.49
30
0
11
176300.0
21
92580.0
31
0
0
LINE
8
piping
10
176300.0
20
92220.0
30
0
11
28700.000000000004
21
92220.0
31
0
0
LINE
8
piping
10
28700.000000000004
20
92220.0
30
0
11
28700.000000000004
21
92224.51
31
0
0
LINE
8
piping
10
28700.000000000004
20
92224.51
30
0
11
28700.000000000004
21
92237.83
31
0
0
LINE
8
piping
10
28700.000000000004
20
92237.83
30
0
11
28700.000000000004
21
92259.27
31
0
0
LINE
8
piping
10
28700.000000000004
20
92259.27
30
0
11
28700.000000000004
21
92287.76999999999
31
0
0
LINE
8
piping
10
28700.000000000004
20
92287.76999999999
30
0
11
28700.000000000004
21
92321.9
31
0
0
LINE
8
piping
10
28700.000000000004
20
92321.9
30
0
11
28700.000000000004
21
92359.95
31
0
0
LINE
8
piping
10
28700.000000000004
20
92359.95
30
0
11
28700.000000000004
21
92400.0
31
0
0
LINE
8
piping
10
28700.000000000004
20
92400.0
30
0
11
28700.000000000004
21
92440.05
31
0
0
LINE
8
piping
10
28700.000000000004
20
92440.05
30
0
11
28700.000000000004
21
92478.09999999999
31
0
0
LINE
8
piping
10
28700.000000000004
20
92478.09999999999
30
0
11
28700.000000000004
21
92512.23
31
0
0
LINE
8
piping
10
28700.000000000004
20
92512.23
30
0
11
28700.000000000004
21
92540.73
31
0
0
LINE
8
piping
10
28700.000000000004
20
92540.73
30
0
11
28700.000000000004
21
92562.17
31
0
0
LINE
8
piping
10
28700.000000000004
20
92562.17
30
0
11
28700.000000000004
21
92575.49
31
0
0
LINE
8
piping
10
28700.000000000004
20
92575.49
30
0
11
28700.000000000004
21
92580.0
31
0
0
LINE
8
piping
10
176300.0
20
93080.0
30
0
11
28700.000000000004
21
93080.0
31
0
0
LINE
8
piping
10
176300.0
20
92720.0
30
0
11
176300.0
21
92724.51
31
0
0
LINE
8
piping
10
176300.0
20
92724.51
30
0
11
176300.0
21
92737.83
31
0
0
LINE
8
piping
10
176300.0
20
92737.83
30
0
11
176300.0
21
92759.27
31
0
0
LINE
8
piping
10
176300.0
20
92759.27
30
0
11
176300.0
21
92787.76999999999
31
0
0
LINE
8
piping
10
176300.0
20
92787.76999999999
30
0
11
176300.0
21
92821.9
31
0
0
LINE
8
piping
10
176300.0
20
92821.9
30
0
11
176300.0
21
92859.95
31
0
0
LINE
8
piping
10
176300.0
20
92859.95
30
0
11
176300.0
21
92900.0
31
0
0
LINE
8
piping
10
176300.0
20
92900.0
30
0
11
176300.0
21
92940.05
31
0
0
LINE
8
piping
10
176300.0
20
92940.05
30
0
11
176300.0
21
92978.09999999999
31
0
0
LINE
8
piping
10
176300.0
20
92978.09999999999
30
0
11
176300.0
21
93012.23
31
0
0
LINE
8
piping
10
176300.0
20
93012.23
30
0
11
176300.0
21
93040.73
31
0
0
LINE
8
piping
10
176300.0
20
93040.73
30
0
11
176300.0
21
93062.17
31
0
0
LINE
8
piping
10
176300.0
20
93062.17
30
0
11
176300.0
21
93075.49
31
0
0
LINE
8
piping
10
176300.0
20
93075.49
30
0
11
176300.0
21
93080.0
31
0
0
LINE
8
piping
10
176300.0
20
92720.0
30
0
11
28700.000000000004
21
92720.0
31
0
0
LINE
8
piping
10
28700.000000000004
20
92720.0
30
0
11
28700.000000000004
21
92724.51
31
0
0
LINE
8
piping
10
28700.000000000004
20
92724.51
30
0
11
28700.000000000004
21
92737.83
31
0
0
LINE
8
piping
10
28700.000000000004
20
92737.83
30
0
11
28700.000000000004
21
92759.27
31
0
0
LINE
8
piping
10
28700.000000000004
20
92759.27
30
0
11
28700.000000000004
21
92787.76999999999
31
0
0
LINE
8
piping
10
28700.000000000004
20
92787.76999999999
30
0
11
28700.000000000004
21
92821.9
31
0
0
LINE
8
piping
10
28700.000000000004
20
92821.9
30
0
11
28700.000000000004
21
92859.95
31
0
0
LINE
8
piping
10
28700.000000000004
20
92859.95
30
0
11
28700.000000000004
21
92900.0
31
0
0
LINE
8
piping
10
28700.000000000004
20
92900.0
30
0
11
28700.000000000004
21
92940.05
31
0
0
LINE
8
piping
10
28700.000000000004
20
92940.05
30
0
11
28700.000000000004
21
92978.09999999999
31
0
0
LINE
8
piping
10
28700.000000000004
20
92978.09999999999
30
0
11
28700.000000000004
21
93012.23
31
0
0
LINE
8
piping
10
28700.000000000004
20
93012.23
30
0
11
28700.000000000004
21
93040.73
31
0
0
LINE
8
piping
10
28700.000000000004
20
93040.73
30
0
11
28700.000000000004
21
93062.17
31
0
0
LINE
8
piping
10
28700.000000000004
20
93062.17
30
0
11
28700.000000000004
21
93075.49
31
0
0
LINE
8
piping
10
28700.000000000004
20
93075.49
30
0
11
28700.000000000004
21
93080.0
31
0
0
LINE
8
piping
10
176300.0
20
93580.0
30
0
11
28700.000000000004
21
93580.0
31
0
0
LINE
8
piping
10
176300.0
20
93220.0
30
0
11
176300.0
21
93224.51
31
0
0
LINE
8
piping
10
176300.0
20
93224.51
30
0
11
176300.0
21
93237.83
31
0
0
LINE
8
piping
10
176300.0
20
93237.83
30
0
11
176300.0
21
93259.27
31
0
0
LINE
8
piping
10
176300.0
20
93259.27
30
0
11
176300.0
21
93287.76999999999
31
0
0
LINE
8
piping
10
176300.0
20
93287.76999999999
30
0
11
176300.0
21
93321.9
31
0
0
LINE
8
piping
10
176300.0
20
93321.9
30
0
11
176300.0
21
93359.95
31
0
0
LINE
8
piping
10
176300.0
20
93359.95
30
0
11
176300.0
21
93400.0
31
0
0
LINE
8
piping
10
176300.0
20
93400.0
30
0
11
176300.0
21
93440.05
31
0
0
LINE
8
piping
10
176300.0
20
93440.05
30
0
11
176300.0
21
93478.09999999999
31
0
0
LINE
8
piping
10
176300.0
20
93478.09999999999
30
0
11
176300.0
21
93512.23
31
0
0
LINE
8
piping
10
176300.0
20
93512.23
30
0
11
176300.0
21
93540.73
31
0
0
LINE
8
piping
10
176300.0
20
93540.73
30
0
11
176300.0
21
93562.17
31
0
0
LINE
8
piping
10
176300.0
20
93562.17
30
0
11
176300.0
21
93575.49
31
0
0
LINE
8
piping
10
176300.0
20
93575.49
30
0
11
176300.0
21
93580.0
31
0
0
LINE
8
piping
10
176300.0
20
93220.0
30
0
11
28700.000000000004
21
93220.0
31
0
0
LINE
8
piping
10
28700.000000000004
20
93220.0
30
0
11
28700.000000000004
21
93224.51
31
0
0
LINE
8
piping
10
28700.000000000004
20
93224.51
30
0
11
28700.000000000004
21
93237.83
31
0
0
LINE
8
piping
10
28700.000000000004
20
93237.83
30
0
11
28700.000000000004
21
93259.27
31
0
0
LINE
8
piping
10
28700.000000000004
20
93259.27
30
0
11
28700.000000000004
21
93287.76999999999
31
0
0
LINE
8
piping
10
28700.000000000004
20
93287.76999999999
30
0
11
28700.000000000004
21
93321.9
31
0
0
LINE
8
piping
10
28700.000000000004
20
93321.9
30
0
11
28700.000000000004
21
93359.95
31
0
0
LINE
8
piping
10
28700.000000000004
20
93359.95
30
0
11
28700.000000000004
21
93400.0
31
0
0
LINE
8
piping
10
28700.000000000004
20
93400.0
30
0
11
28700.000000000004
21
93440.05
31
0
0
LINE
8
piping
10
28700.000000000004
20
93440.05
30
0
11
28700.000000000004
21
93478.09999999999
31
0
0
LINE
8
piping
10
28700.000000000004
20
93478.09999999999
30
0
11
28700.000000000004
21
93512.23
31
0
0
LINE
8
piping
10
28700.000000000004
20
93512.23
30
0
11
28700.000000000004
21
93540.73
31
0
0
LINE
8
piping
10
28700.000000000004
20
93540.73
30
0
11
28700.000000000004
21
93562.17
31
0
0
LINE
8
piping
10
28700.000000000004
20
93562.17
30
0
11
28700.000000000004
21
93575.49
31
0
0
LINE
8
piping
10
28700.000000000004
20
93575.49
30
0
11
28700.000000000004
21
93580.0
31
0
0
LINE
8
piping
10
176300.0
20
94080.0
30
0
11
28700.000000000004
21
94080.0
31
0
0
LINE
8
piping
10
176300.0
20
93720.0
30
0
11
176300.0
21
93724.51
31
0
0
LINE
8
piping
10
176300.0
20
93724.51
30
0
11
176300.0
21
93737.83
31
0
0
LINE
8
piping
10
176300.0
20
93737.83
30
0
11
176300.0
21
93759.27
31
0
0
LINE
8
piping
10
176300.0
20
93759.27
30
0
11
176300.0
21
93787.76999999999
31
0
0
LINE
8
piping
10
176300.0
20
93787.76999999999
30
0
11
176300.0
21
93821.9
31
0
0
LINE
8
piping
10
176300.0
20
93821.9
30
0
11
176300.0
21
93859.95
31
0
0
LINE
8
piping
10
176300.0
20
93859.95
30
0
11
176300.0
21
93900.0
31
0
0
LINE
8
piping
10
176300.0
20
93900.0
30
0
11
176300.0
21
93940.05
31
0
0
LINE
8
piping
10
176300.0
20
93940.05
30
0
11
176300.0
21
93978.09999999999
31
0
0
LINE
8
piping
10
176300.0
20
93978.09999999999
30
0
11
176300.0
21
94012.23
31
0
0
LINE
8
piping
10
176300.0
20
94012.23
30
0
11
176300.0
21
94040.73
31
0
0
LINE
8
piping
10
176300.0
20
94040.73
30
0
11
176300.0
21
94062.17
31
0
0
LINE
8
piping
10
176300.0
20
94062.17
30
0
11
176300.0
21
94075.49
31
0
0
LINE
8
piping
10
176300.0
20
94075.49
30
0
11
176300.0
21
94080.0
31
0
0
LINE
8
piping
10
176300.0
20
93720.0
30
0
11
28700.000000000004
21
93720.0
31
0
0
LINE
8
piping
10
28700.000000000004
20
93720.0
30
0
11
28700.000000000004
21
93724.51
31
0
0
LINE
8
piping
10
28700.000000000004
20
93724.51
30
0
11
28700.000000000004
21
93737.83
31
0
0
LINE
8
piping
10
28700.000000000004
20
93737.83
30
0
11
28700.000000000004
21
93759.27
31
0
0
LINE
8
piping
10
28700.000000000004
20
93759.27
30
0
11
28700.000000000004
21
93787.76999999999
31
0
0
LINE
8
piping
10
28700.000000000004
20
93787.76999999999
30
0
11
28700.000000000004
21
93821.9
31
0
0
LINE
8
piping
10
28700.000000000004
20
93821.9
30
0
11
28700.000000000004
21
93859.95
31
0
0
LINE
8
piping
10
28700.000000000004
20
93859.95
30
0
11
28700.000000000004
21
93900.0
31
0
0
LINE
8
piping
10
28700.000000000004
20
93900.0
30
0
11
28700.000000000004
21
93940.05
31
0
0
LINE
8
piping
10
28700.000000000004
20
93940.05
30
0
11
28700.000000000004
21
93978.09999999999
31
0
0
LINE
8
piping
10
28700.000000000004
20
93978.09999999999
30
0
11
28700.000000000004
21
94012.23
31
0
0
LINE
8
piping
10
28700.000000000004
20
94012.23
30
0
11
28700.000000000004
21
94040.73
31
0
0
LINE
8
piping
10
28700.000000000004
20
94040.73
30
0
11
28700.000000000004
21
94062.17
31
0
0
LINE
8
piping
10
28700.000000000004
20
94062.17
30
0
11
28700.000000000004
21
94075.49
31
0
0
LINE
8
piping
10
28700.000000000004
20
94075.49
30
0
11
28700.000000000004
21
94080.0
31
0
0
LINE
8
equipment
10
151100.0
20
98800.0
30
0
11
151135.1
21
98800.0
31
0
0
LINE
8
equipment
10
151135.1
20
98800.0
30
0
11
151238.64
21
98800.0
31
0
0
LINE
8
equipment
10
151238.64
20
98800.0
30
0
11
151405.44
21
98800.0
31
0
0
LINE
8
equipment
10
151405.44
20
98800.0
30
0
11
151627.11000000002
21
98800.0
31
0
0
LINE
8
equipment
10
151627.11000000002
20
98800.0
30
0
11
151892.56
21
98800.0
31
0
0
LINE
8
equipment
10
151892.56
20
98800.0
30
0
11
152188.47
21
98800.0
31
0
0
LINE
8
equipment
10
152188.47
20
98800.0
30
0
11
152500.0
21
98800.0
31
0
0
LINE
8
equipment
10
152500.0
20
98800.0
30
0
11
152811.53
21
98800.0
31
0
0
LINE
8
equipment
10
152811.53
20
98800.0
30
0
11
153107.44
21
98800.0
31
0
0
LINE
8
equipment
10
153107.44
20
98800.0
30
0
11
153372.88999999998
21
98800.0
31
0
0
LINE
8
equipment
10
153372.88999999998
20
98800.0
30
0
11
153594.56
21
98800.0
31
0
0
LINE
8
equipment
10
153594.56
20
98800.0
30
0
11
153761.36
21
98800.0
31
0
0
LINE
8
equipment
10
153761.36
20
98800.0
30
0
11
153864.9
21
98800.0
31
0
0
LINE
8
equipment
10
153864.9
20
98800.0
30
0
11
153900.0
21
98800.0
31
0
0
LINE
8
equipment
10
151100.0
20
90400.0
30
0
11
151100.0
21
98800.0
31
0
0
LINE
8
equipment
10
154500.0
20
89800.0
30
0
11
154500.0
21
90400.0
31
0
0
LINE
8
equipment
10
150500.0
20
89800.0
30
0
11
150500.0
21
90400.0
31
0
0
LINE
8
equipment
10
154500.0
20
89800.0
30
0
11
150500.0
21
89800.0
31
0
0
LINE
8
equipment
10
154500.0
20
90400.0
30
0
11
150500.0
21
90400.0
31
0
0
LINE
8
equipment
10
126100.0
20
98800.0
30
0
11
126135.09999999999
21
98800.0
31
0
0
LINE
8
equipment
10
126135.09999999999
20
98800.0
30
0
11
126238.64
21
98800.0
31
0
0
LINE
8
equipment
10
126238.64
20
98800.0
30
0
11
126405.44
21
98800.0
31
0
0
LINE
8
equipment
10
126405.44
20
98800.0
30
0
11
126627.11
21
98800.0
31
0
0
LINE
8
equipment
10
126627.11
20
98800.0
30
0
11
126892.56
21
98800.0
31
0
0
LINE
8
equipment
10
126892.56
20
98800.0
30
0
11
127188.47
21
98800.0
31
0
0
LINE
8
equipment
10
127188.47
20
98800.0
30
0
11
127500.0
21
98800.0
31
0
0
LINE
8
equipment
10
127500.0
20
98800.0
30
0
11
127811.53
21
98800.0
31
0
0
LINE
8
equipment
10
127811.53
20
98800.0
30
0
11
128107.44
21
98800.0
31
0
0
LINE
8
equipment
10
128107.44
20
98800.0
30
0
11
128372.88999999998
21
98800.0
31
0
0
LINE
8
equipment
10
128372.88999999998
20
98800.0
30
0
11
128594.56
21
98800.0
31
0
0
LINE
8
equipment
10
128594.56
20
98800.0
30
0
11
128761.36
21
98800.0
31
0
0
LINE
8
equipment
10
128761.36
20
98800.0
30
0
11
128864.90000000001
21
98800.0
31
0
0
LINE
8
equipment
10
128864.90000000001
20
98800.0
30
0
11
128900.0
21
98800.0
31
0
0
LINE
8
equipment
10
126100.0
20
90400.0
30
0
11
126100.0
21
98800.0
31
0
0
LINE
8
equipment
10
129500.0
20
89800.0
30
0
11
129500.0
21
90400.0
31
0
0
LINE
8
equipment
10
125500.0
20
89800.0
30
0
11
125500.0
21
90400.0
31
0
0
LINE
8
equipment
10
129500.0
20
89800.0
30
0
11
125500.0
21
89800.0
31
0
0
LINE
8
equipment
10
129500.0
20
90400.0
30
0
11
125500.0
21
90400.0
31
0
0
LINE
8
equipment
10
101100.0
20
98800.0
30
0
11
101135.09999999999
21
98800.0
31
0
0
LINE
8
equipment
10
101135.09999999999
20
98800.0
30
0
11
101238.64
21
98800.0
31
0
0
LINE
8
equipment
10
101238.64
20
98800.0
30
0
11
101405.44
21
98800.0
31
0
0
LINE
8
equipment
10
101405.44
20
98800.0
30
0
11
101627.11
21
98800.0
31
0
0
LINE
8
equipment
10
101627.11
20
98800.0
30
0
11
101892.56
21
98800.0
31
0
0
LINE
8
equipment
10
101892.56
20
98800.0
30
0
11
102188.47
21
98800.0
31
0
0
LINE
8
equipment
10
102188.47
20
98800.0
30
0
11
102500.0
21
98800.0
31
0
0
LINE
8
equipment
10
102500.0
20
98800.0
30
0
11
102811.53
21
98800.0
31
0
0
LINE
8
equipment
10
102811.53
20
98800.0
30
0
11
103107.44
21
98800.0
31
0
0
LINE
8
equipment
10
103107.44
20
98800.0
30
0
11
103372.89
21
98800.0
31
0
0
LINE
8
equipment
10
103372.89
20
98800.0
30
0
11
103594.56
21
98800.0
31
0
0
LINE
8
equipment
10
103594.56
20
98800.0
30
0
11
103761.36
21
98800.0
31
0
0
LINE
8
equipment
10
103761.36
20
98800.0
30
0
11
103864.90000000001
21
98800.0
31
0
0
LINE
8
equipment
10
103864.90000000001
20
98800.0
30
0
11
103900.0
21
98800.0
31
0
0
LINE
8
equipment
10
101100.0
20
90400.0
30
0
11
101100.0
21
98800.0
31
0
0
LINE
8
equipment
10
104500.0
20
89800.0
30
0
11
104500.0
21
90400.0
31
0
0
LINE
8
equipment
10
100500.0
20
89800.0
30
0
11
100500.0
21
90400.0
31
0
0
LINE
8
equipment
10
104500.0
20
89800.0
30
0
11
100500.0
21
89800.0
31
0
0
LINE
8
equipment
10
104500.0
20
90400.0
30
0
11
100500.0
21
90400.0
31
0
0
LINE
8
equipment
10
76100.0
20
98800.0
30
0
11
76135.09999999999
21
98800.0
31
0
0
LINE
8
equipment
10
76135.09999999999
20
98800.0
30
0
11
76238.64
21
98800.0
31
0
0
LINE
8
equipment
10
76238.64
20
98800.0
30
0
11
76405.44
21
98800.0
31
0
0
LINE
8
equipment
10
76405.44
20
98800.0
30
0
11
76627.11
21
98800.0
31
0
0
LINE
8
equipment
10
76627.11
20
98800.0
30
0
11
76892.56
21
98800.0
31
0
0
LINE
8
equipment
10
76892.56
20
98800.0
30
0
11
77188.47
21
98800.0
31
0
0
LINE
8
equipment
10
77188.47
20
98800.0
30
0
11
77500.0
21
98800.0
31
0
0
LINE
8
equipment
10
77500.0
20
98800.0
30
0
11
77811.53
21
98800.0
31
0
0
LINE
8
equipment
10
77811.53
20
98800.0
30
0
11
78107.44
21
98800.0
31
0
0
LINE
8
equipment
10
78107.44
20
98800.0
30
0
11
78372.89
21
98800.0
31
0
0
LINE
8
equipment
10
78372.89
20
98800.0
30
0
11
78594.56
21
98800.0
31
0
0
LINE
8
equipment
10
78594.56
20
98800.0
30
0
11
78761.36
21
98800.0
31
0
0
LINE
8
equipment
10
78761.36
20
98800.0
30
0
11
78864.90000000001
21
98800.0
31
0
0
LINE
8
equipment
10
78864.90000000001
20
98800.0
30
0
11
78900.0
21
98800.0
31
0
0
LINE
8
equipment
10
76100.0
20
90400.0
30
0
11
76100.0
21
98800.0
31
0
0
LINE
8
equipment
10
79500.0
20
89800.0
30
0
11
79500.0
21
90400.0
31
0
0
LINE
8
equipment
10
75500.0
20
89800.0
30
0
11
75500.0
21
90400.0
31
0
0
LINE
8
equipment
10
79500.0
20
89800.0
30
0
11
75500.0
21
89800.0
31
0
0
LINE
8
equipment
10
79500.0
20
90400.0
30
0
11
75500.0
21
90400.0
31
0
0
LINE
8
equipment
10
51100.0
20
98800.0
30
0
11
51135.1
21
98800.0
31
0
0
LINE
8
equipment
10
51135.1
20
98800.0
30
0
11
51238.64
21
98800.0
31
0
0
LINE
8
equipment
10
51238.64
20
98800.0
30
0
11
51405.44
21
98800.0
31
0
0
LINE
8
equipment
10
51405.44
20
98800.0
30
0
11
51627.11
21
98800.0
31
0
0
LINE
8
equipment
10
51627.11
20
98800.0
30
0
11
51892.56
21
98800.0
31
0
0
LINE
8
equipment
10
51892.56
20
98800.0
30
0
11
52188.47
21
98800.0
31
0
0
LINE
8
equipment
10
52188.47
20
98800.0
30
0
11
52500.0
21
98800.0
31
0
0
LINE
8
equipment
10
52500.0
20
98800.0
30
0
11
52811.53
21
98800.0
31
0
0
LINE
8
equipment
10
52811.53
20
98800.0
30
0
11
53107.44
21
98800.0
31
0
0
LINE
8
equipment
10
53107.44
20
98800.0
30
0
11
53372.89
21
98800.0
31
0
0
LINE
8
equipment
10
53372.89
20
98800.0
30
0
11
53594.56
21
98800.0
31
0
0
LINE
8
equipment
10
53594.56
20
98800.0
30
0
11
53761.36
21
98800.0
31
0
0
LINE
8
equipment
10
53761.36
20
98800.0
30
0
11
53864.9
21
98800.0
31
0
0
LINE
8
equipment
10
53864.9
20
98800.0
30
0
11
53900.0
21
98800.0
31
0
0
LINE
8
equipment
10
51100.0
20
90400.0
30
0
11
51100.0
21
98800.0
31
0
0
LINE
8
equipment
10
54500.0
20
89800.0
30
0
11
54500.0
21
90400.0
31
0
0
LINE
8
equipment
10
50500.0
20
89800.0
30
0
11
50500.0
21
90400.0
31
0
0
LINE
8
equipment
10
54500.0
20
89800.0
30
0
11
50500.0
21
89800.0
31
0
0
LINE
8
equipment
10
54500.0
20
90400.0
30
0
11
50500.0
21
90400.0
31
0
0
LINE
8
cut
10
21500.0
20
90384.99999999999
30
0
11
21530.31
21
90332.5
31
0
0
LINE
8
cut
10
21530.31
20
90332.5
30
0
11
21469.69
21
90332.5
31
0
0
LINE
8
cut
10
21469.69
20
90332.5
30
0
11
21500.0
21
90384.99999999999
31
0
0
LINE
8
cut
10
21500.0
20
90935.0
30
0
11
21530.31
21
90882.5
31
0
0
LINE
8
cut
10
21530.31
20
90882.5
30
0
11
21469.69
21
90882.5
31
0
0
LINE
8
cut
10
21469.69
20
90882.5
30
0
11
21500.0
21
90935.0
31
0
0
LINE
8
cut
10
183500.0
20
90384.99999999999
30
0
11
183530.31
21
90332.5
31
0
0
LINE
8
cut
10
183530.31
20
90332.5
30
0
11
183469.69
21
90332.5
31
0
0
LINE
8
cut
10
183469.69
20
90332.5
30
0
11
183500.0
21
90384.99999999999
31
0
0
LINE
8
cut
10
183500.0
20
90935.0
30
0
11
183530.31
21
90882.5
31
0
0
LINE
8
cut
10
183530.31
20
90882.5
30
0
11
183469.69
21
90882.5
31
0
0
LINE
8
cut
10
183469.69
20
90882.5
30
0
11
183500.0
21
90935.0
31
0
0
LINE
8
grid
10
188000.0
20
64400.00000000001
30
0
11
195500
21
64400.00000000001
31
0
0
TEXT
8
annotation
10
191375.0
20
65000.0
30
0
40
1250.0
1
F0 +0.00m
50
0
0
LINE
8
grid
10
188000.0
20
70650.0
30
0
11
195500
21
70650.0
31
0
0
TEXT
8
annotation
10
191375.0
20
71250.0
30
0
40
1250.0
1
F1 +6.25m
50
0
0
LINE
8
grid
10
188000.0
20
76900.0
30
0
11
195500
21
76900.0
31
0
0
TEXT
8
annotation
10
190750.0
20
77500.0
30
0
40
1250.0
1
F2 +12.50m
50
0
0
LINE
8
grid
10
188000.0
20
83150.0
30
0
11
195500
21
83150.0
31
0
0
TEXT
8
annotation
10
190750.0
20
83750.0
30
0
40
1250.0
1
F3 +18.75m
50
0
0
LINE
8
grid
10
188000.0
20
89400.0
30
0
11
195500
21
89400.0
31
0
0
TEXT
8
annotation
10
190750.0
20
90000.0
30
0
40
1250.0
1
RF +25.00m
50
0
0
LINE
8
dimension
10
18000.0
20
57700.0
30
0
11
187000.0
21
57700.0
31
0
0
LINE
8
dimension
10
17500.0
20
57200.0
30
0
11
18500.0
21
58200.0
31
0
0
LINE
8
dimension
10
186500.0
20
57200.0
30
0
11
187500.0
21
58200.0
31
0
0
TEXT
8
annotation
10
93875.0
20
58450.0
30
0
40
1500.0
1
169,000 mm shown extent
50
0
0
LINE
8
frame
10
7000
20
29500
30
0
11
203000
21
29500
31
0
0
TEXT
8
annotation
10
7000
20
25500
30
0
40
1750.0
1
CONCEPT DESIGN | IMAGE-INFERRED | NOT FOR CONSTRUCTION
50
0
0
TEXT
8
annotation
10
7000
20
19000.0
30
0
40
1325.0
1
Source: two campus AI images + fab1.jpg; official analogues documented in analysis/cad/.
50
0
0
TEXT
8
annotation
10
7000
20
16800.00000000001
30
0
40
1325.0
1
CAD model in mm; site coordinates X east, Y north, Z up. Internal layouts and member sizes are design estimates.
50
0
0
TEXT
8
annotation
10
7000
20
14599.999999999995
30
0
40
1325.0
1
Plans/sections are extracted from actual FreeCAD BRep. Elevations project component outlines; hidden edges omitted per component.
50
0
0
TEXT
8
annotation
10
7000
20
12400.000000000005
30
0
40
1325.0
1
Civic wing roofs and skylight may differ from the nominal building height; inspect actual geometry and parameter aliases.
50
0
0
TEXT
8
annotation
10
7000
20
10199.999999999989
30
0
40
1325.0
1
No process certification, structural verification, measured survey, or construction approval is implied.
50
0
0
TEXT
8
annotation
10
178500.0
20
5500
30
0
40
1400.0
1
2026-09-30  |  FreeCAD 1.1.4  |  mm
50
0
0
ENDSEC
0
EOF
