0
SECTION
2
HEADER
9
$ACADVER
1
AC1009
9
$INSUNITS
70
4
0
ENDSEC
0
SECTION
2
ENTITIES
0
LINE
8
frame
10
3500
20
145000
30
0
11
206500
21
145000
31
0
0
LINE
8
frame
10
206500
20
145000
30
0
11
206500
21
3500
31
0
0
LINE
8
frame
10
206500
20
3500
30
0
11
3500
21
3500
31
0
0
LINE
8
frame
10
3500
20
3500
30
0
11
3500
21
145000
31
0
0
TEXT
8
annotation
10
7000
20
139500
30
0
40
2100.0
1
PHOENIX SCIENCE PARK
50
0
0
TEXT
8
annotation
10
7000
20
135500
30
0
40
2500.0
1
MASK / North elevation
50
0
0
TEXT
8
annotation
10
193400.0
20
139500
30
0
40
1600.0
1
A3  |  1:500
50
0
0
TEXT
8
annotation
10
187250.0
20
135500
30
0
40
1500.0
1
CAD-MASK-NORTH  /  R1
50
0
0
LINE
8
frame
10
7000
20
133000
30
0
11
203000
21
133000
31
0
0
LINE
8
roof
10
184500.0
20
90100.0
30
0
11
184500.0
21
90500.0
31
0
0
LINE
8
roof
10
20500.0
20
90100.0
30
0
11
20500.0
21
90500.0
31
0
0
LINE
8
roof
10
184500.0
20
90100.0
30
0
11
20500.0
21
90100.0
31
0
0
LINE
8
roof
10
184500.0
20
90500.0
30
0
11
20500.0
21
90500.0
31
0
0
LINE
8
envelope
10
184500.0
20
65500.0
30
0
11
184500.0
21
90100.0
31
0
0
LINE
8
envelope
10
184500.0
20
65500.0
30
0
11
20500.0
21
65500.0
31
0
0
LINE
8
envelope
10
20500.0
20
65500.0
30
0
11
20500.0
21
90100.0
31
0
0
LINE
8
envelope
10
165720.0
20
87900.0
30
0
11
163920.00000000003
21
87900.0
31
0
0
LINE
8
envelope
10
165720.0
20
87900.0
30
0
11
165720.0
21
67700.0
31
0
0
LINE
8
envelope
10
163920.00000000003
20
87900.0
30
0
11
163920.00000000003
21
67700.0
31
0
0
LINE
8
envelope
10
165720.0
20
67700.0
30
0
11
163920.00000000003
21
67700.0
31
0
0
LINE
8
envelope
10
103400.0
20
87900.0
30
0
11
101600.0
21
87900.0
31
0
0
LINE
8
envelope
10
103400.0
20
87900.0
30
0
11
103400.0
21
67700.0
31
0
0
LINE
8
envelope
10
101600.0
20
87900.0
30
0
11
101600.0
21
67700.0
31
0
0
LINE
8
envelope
10
103400.0
20
67700.0
30
0
11
101600.0
21
67700.0
31
0
0
LINE
8
envelope
10
41080.0
20
87900.0
30
0
11
39280.0
21
87900.0
31
0
0
LINE
8
envelope
10
39280.0
20
87900.0
30
0
11
39280.0
21
67700.0
31
0
0
LINE
8
envelope
10
41080.0
20
67700.0
30
0
11
39280.0
21
67700.0
31
0
0
LINE
8
envelope
10
41080.0
20
87900.0
30
0
11
41080.0
21
67700.0
31
0
0
LINE
8
glazing
10
165670.00000000003
20
67700.0
30
0
11
165670.00000000003
21
87900.0
31
0
0
LINE
8
glazing
10
163970.0
20
67700.0
30
0
11
163970.0
21
87900.0
31
0
0
LINE
8
glazing
10
165670.00000000003
20
67700.0
30
0
11
163970.0
21
67700.0
31
0
0
LINE
8
glazing
10
165670.00000000003
20
87900.0
30
0
11
163970.0
21
87900.0
31
0
0
LINE
8
glazing
10
103350.0
20
67700.0
30
0
11
103350.0
21
87900.0
31
0
0
LINE
8
glazing
10
101650.0
20
67700.0
30
0
11
101650.0
21
87900.0
31
0
0
LINE
8
glazing
10
103350.0
20
67700.0
30
0
11
101650.0
21
67700.0
31
0
0
LINE
8
glazing
10
103350.0
20
87900.0
30
0
11
101650.0
21
87900.0
31
0
0
LINE
8
glazing
10
41030.0
20
67700.0
30
0
11
41030.0
21
87900.0
31
0
0
LINE
8
glazing
10
39330.0
20
67700.0
30
0
11
39330.0
21
87900.0
31
0
0
LINE
8
glazing
10
41030.0
20
67700.0
30
0
11
39330.0
21
67700.0
31
0
0
LINE
8
glazing
10
41030.0
20
87900.0
30
0
11
39330.0
21
87900.0
31
0
0
LINE
8
envelope
10
184522.49999999997
20
65500.0
30
0
11
184522.49999999997
21
90100.0
31
0
0
LINE
8
envelope
10
184477.50000000003
20
65500.0
30
0
11
184477.50000000003
21
90100.0
31
0
0
LINE
8
envelope
10
184522.49999999997
20
65500.0
30
0
11
184477.50000000003
21
65500.0
31
0
0
LINE
8
envelope
10
184522.49999999997
20
90100.0
30
0
11
184477.50000000003
21
90100.0
31
0
0
LINE
8
envelope
10
183022.49999999997
20
65500.0
30
0
11
183022.49999999997
21
90100.0
31
0
0
LINE
8
envelope
10
182977.50000000003
20
65500.0
30
0
11
182977.50000000003
21
90100.0
31
0
0
LINE
8
envelope
10
183022.49999999997
20
65500.0
30
0
11
182977.50000000003
21
65500.0
31
0
0
LINE
8
envelope
10
183022.49999999997
20
90100.0
30
0
11
182977.50000000003
21
90100.0
31
0
0
LINE
8
envelope
10
181522.49999999997
20
65500.0
30
0
11
181522.49999999997
21
90100.0
31
0
0
LINE
8
envelope
10
181477.50000000003
20
65500.0
30
0
11
181477.50000000003
21
90100.0
31
0
0
LINE
8
envelope
10
181522.49999999997
20
65500.0
30
0
11
181477.50000000003
21
65500.0
31
0
0
LINE
8
envelope
10
181522.49999999997
20
90100.0
30
0
11
181477.50000000003
21
90100.0
31
0
0
LINE
8
envelope
10
180022.49999999997
20
65500.0
30
0
11
180022.49999999997
21
90100.0
31
0
0
LINE
8
envelope
10
179977.50000000003
20
65500.0
30
0
11
179977.50000000003
21
90100.0
31
0
0
LINE
8
envelope
10
180022.49999999997
20
65500.0
30
0
11
179977.50000000003
21
65500.0
31
0
0
LINE
8
envelope
10
180022.49999999997
20
90100.0
30
0
11
179977.50000000003
21
90100.0
31
0
0
LINE
8
envelope
10
178522.49999999997
20
65500.0
30
0
11
178522.49999999997
21
90100.0
31
0
0
LINE
8
envelope
10
178477.50000000003
20
65500.0
30
0
11
178477.50000000003
21
90100.0
31
0
0
LINE
8
envelope
10
178522.49999999997
20
65500.0
30
0
11
178477.50000000003
21
65500.0
31
0
0
LINE
8
envelope
10
178522.49999999997
20
90100.0
30
0
11
178477.50000000003
21
90100.0
31
0
0
LINE
8
envelope
10
177022.49999999997
20
65500.0
30
0
11
177022.49999999997
21
90100.0
31
0
0
LINE
8
envelope
10
176977.50000000003
20
65500.0
30
0
11
176977.50000000003
21
90100.0
31
0
0
LINE
8
envelope
10
177022.49999999997
20
65500.0
30
0
11
176977.50000000003
21
65500.0
31
0
0
LINE
8
envelope
10
177022.49999999997
20
90100.0
30
0
11
176977.50000000003
21
90100.0
31
0
0
LINE
8
envelope
10
175522.49999999997
20
65500.0
30
0
11
175522.49999999997
21
90100.0
31
0
0
LINE
8
envelope
10
175477.50000000003
20
65500.0
30
0
11
175477.50000000003
21
90100.0
31
0
0
LINE
8
envelope
10
175522.49999999997
20
65500.0
30
0
11
175477.50000000003
21
65500.0
31
0
0
LINE
8
envelope
10
175522.49999999997
20
90100.0
30
0
11
175477.50000000003
21
90100.0
31
0
0
LINE
8
envelope
10
174022.49999999997
20
65500.0
30
0
11
174022.49999999997
21
90100.0
31
0
0
LINE
8
envelope
10
173977.50000000003
20
65500.0
30
0
11
173977.50000000003
21
90100.0
31
0
0
LINE
8
envelope
10
174022.49999999997
20
65500.0
30
0
11
173977.50000000003
21
65500.0
31
0
0
LINE
8
envelope
10
174022.49999999997
20
90100.0
30
0
11
173977.50000000003
21
90100.0
31
0
0
LINE
8
envelope
10
172522.49999999997
20
65500.0
30
0
11
172522.49999999997
21
90100.0
31
0
0
LINE
8
envelope
10
172477.50000000003
20
65500.0
30
0
11
172477.50000000003
21
90100.0
31
0
0
LINE
8
envelope
10
172522.49999999997
20
65500.0
30
0
11
172477.50000000003
21
65500.0
31
0
0
LINE
8
envelope
10
172522.49999999997
20
90100.0
30
0
11
172477.50000000003
21
90100.0
31
0
0
LINE
8
envelope
10
171022.49999999997
20
65500.0
30
0
11
171022.49999999997
21
90100.0
31
0
0
LINE
8
envelope
10
170977.50000000003
20
65500.0
30
0
11
170977.50000000003
21
90100.0
31
0
0
LINE
8
envelope
10
171022.49999999997
20
65500.0
30
0
11
170977.50000000003
21
65500.0
31
0
0
LINE
8
envelope
10
171022.49999999997
20
90100.0
30
0
11
170977.50000000003
21
90100.0
31
0
0
LINE
8
envelope
10
169522.49999999997
20
65500.0
30
0
11
169522.49999999997
21
90100.0
31
0
0
LINE
8
envelope
10
169477.50000000003
20
65500.0
30
0
11
169477.50000000003
21
90100.0
31
0
0
LINE
8
envelope
10
169522.49999999997
20
65500.0
30
0
11
169477.50000000003
21
65500.0
31
0
0
LINE
8
envelope
10
169522.49999999997
20
90100.0
30
0
11
169477.50000000003
21
90100.0
31
0
0
LINE
8
envelope
10
168022.49999999997
20
65500.0
30
0
11
168022.49999999997
21
90100.0
31
0
0
LINE
8
envelope
10
167977.50000000003
20
65500.0
30
0
11
167977.50000000003
21
90100.0
31
0
0
LINE
8
envelope
10
168022.49999999997
20
65500.0
30
0
11
167977.50000000003
21
65500.0
31
0
0
LINE
8
envelope
10
168022.49999999997
20
90100.0
30
0
11
167977.50000000003
21
90100.0
31
0
0
LINE
8
envelope
10
166522.49999999997
20
65500.0
30
0
11
166522.49999999997
21
90100.0
31
0
0
LINE
8
envelope
10
166477.5
20
65500.0
30
0
11
166477.5
21
90100.0
31
0
0
LINE
8
envelope
10
166522.49999999997
20
65500.0
30
0
11
166477.5
21
65500.0
31
0
0
LINE
8
envelope
10
166522.49999999997
20
90100.0
30
0
11
166477.5
21
90100.0
31
0
0
LINE
8
envelope
10
165022.5
20
65500.0
30
0
11
165022.5
21
90100.0
31
0
0
LINE
8
envelope
10
164977.5
20
65500.0
30
0
11
164977.5
21
90100.0
31
0
0
LINE
8
envelope
10
165022.5
20
65500.0
30
0
11
164977.5
21
65500.0
31
0
0
LINE
8
envelope
10
165022.5
20
90100.0
30
0
11
164977.5
21
90100.0
31
0
0
LINE
8
envelope
10
163522.5
20
65500.0
30
0
11
163522.5
21
90100.0
31
0
0
LINE
8
envelope
10
163477.5
20
65500.0
30
0
11
163477.5
21
90100.0
31
0
0
LINE
8
envelope
10
163522.5
20
65500.0
30
0
11
163477.5
21
65500.0
31
0
0
LINE
8
envelope
10
163522.5
20
90100.0
30
0
11
163477.5
21
90100.0
31
0
0
LINE
8
envelope
10
162022.5
20
65500.0
30
0
11
162022.5
21
90100.0
31
0
0
LINE
8
envelope
10
161977.5
20
65500.0
30
0
11
161977.5
21
90100.0
31
0
0
LINE
8
envelope
10
162022.5
20
65500.0
30
0
11
161977.5
21
65500.0
31
0
0
LINE
8
envelope
10
162022.5
20
90100.0
30
0
11
161977.5
21
90100.0
31
0
0
LINE
8
envelope
10
160522.5
20
65500.0
30
0
11
160522.5
21
90100.0
31
0
0
LINE
8
envelope
10
160477.5
20
65500.0
30
0
11
160477.5
21
90100.0
31
0
0
LINE
8
envelope
10
160522.5
20
65500.0
30
0
11
160477.5
21
65500.0
31
0
0
LINE
8
envelope
10
160522.5
20
90100.0
30
0
11
160477.5
21
90100.0
31
0
0
LINE
8
envelope
10
159022.5
20
65500.0
30
0
11
159022.5
21
90100.0
31
0
0
LINE
8
envelope
10
158977.5
20
65500.0
30
0
11
158977.5
21
90100.0
31
0
0
LINE
8
envelope
10
159022.5
20
65500.0
30
0
11
158977.5
21
65500.0
31
0
0
LINE
8
envelope
10
159022.5
20
90100.0
30
0
11
158977.5
21
90100.0
31
0
0
LINE
8
envelope
10
157522.5
20
65500.0
30
0
11
157522.5
21
90100.0
31
0
0
LINE
8
envelope
10
157477.5
20
65500.0
30
0
11
157477.5
21
90100.0
31
0
0
LINE
8
envelope
10
157522.5
20
65500.0
30
0
11
157477.5
21
65500.0
31
0
0
LINE
8
envelope
10
157522.5
20
90100.0
30
0
11
157477.5
21
90100.0
31
0
0
LINE
8
envelope
10
156022.5
20
65500.0
30
0
11
156022.5
21
90100.0
31
0
0
LINE
8
envelope
10
155977.5
20
65500.0
30
0
11
155977.5
21
90100.0
31
0
0
LINE
8
envelope
10
156022.5
20
65500.0
30
0
11
155977.5
21
65500.0
31
0
0
LINE
8
envelope
10
156022.5
20
90100.0
30
0
11
155977.5
21
90100.0
31
0
0
LINE
8
envelope
10
154522.5
20
65500.0
30
0
11
154522.5
21
90100.0
31
0
0
LINE
8
envelope
10
154477.5
20
65500.0
30
0
11
154477.5
21
90100.0
31
0
0
LINE
8
envelope
10
154522.5
20
65500.0
30
0
11
154477.5
21
65500.0
31
0
0
LINE
8
envelope
10
154522.5
20
90100.0
30
0
11
154477.5
21
90100.0
31
0
0
LINE
8
envelope
10
153022.5
20
65500.0
30
0
11
153022.5
21
90100.0
31
0
0
LINE
8
envelope
10
152977.5
20
65500.0
30
0
11
152977.5
21
90100.0
31
0
0
LINE
8
envelope
10
153022.5
20
65500.0
30
0
11
152977.5
21
65500.0
31
0
0
LINE
8
envelope
10
153022.5
20
90100.0
30
0
11
152977.5
21
90100.0
31
0
0
LINE
8
envelope
10
151522.5
20
65500.0
30
0
11
151522.5
21
90100.0
31
0
0
LINE
8
envelope
10
151477.5
20
65500.0
30
0
11
151477.5
21
90100.0
31
0
0
LINE
8
envelope
10
151522.5
20
65500.0
30
0
11
151477.5
21
65500.0
31
0
0
LINE
8
envelope
10
151522.5
20
90100.0
30
0
11
151477.5
21
90100.0
31
0
0
LINE
8
envelope
10
150022.5
20
65500.0
30
0
11
150022.5
21
90100.0
31
0
0
LINE
8
envelope
10
149977.5
20
65500.0
30
0
11
149977.5
21
90100.0
31
0
0
LINE
8
envelope
10
150022.5
20
65500.0
30
0
11
149977.5
21
65500.0
31
0
0
LINE
8
envelope
10
150022.5
20
90100.0
30
0
11
149977.5
21
90100.0
31
0
0
LINE
8
envelope
10
148522.5
20
65500.0
30
0
11
148522.5
21
90100.0
31
0
0
LINE
8
envelope
10
148477.5
20
65500.0
30
0
11
148477.5
21
90100.0
31
0
0
LINE
8
envelope
10
148522.5
20
65500.0
30
0
11
148477.5
21
65500.0
31
0
0
LINE
8
envelope
10
148522.5
20
90100.0
30
0
11
148477.5
21
90100.0
31
0
0
LINE
8
envelope
10
147022.5
20
65500.0
30
0
11
147022.5
21
90100.0
31
0
0
LINE
8
envelope
10
146977.5
20
65500.0
30
0
11
146977.5
21
90100.0
31
0
0
LINE
8
envelope
10
147022.5
20
65500.0
30
0
11
146977.5
21
65500.0
31
0
0
LINE
8
envelope
10
147022.5
20
90100.0
30
0
11
146977.5
21
90100.0
31
0
0
LINE
8
envelope
10
145522.5
20
65500.0
30
0
11
145522.5
21
90100.0
31
0
0
LINE
8
envelope
10
145477.5
20
65500.0
30
0
11
145477.5
21
90100.0
31
0
0
LINE
8
envelope
10
145522.5
20
65500.0
30
0
11
145477.5
21
65500.0
31
0
0
LINE
8
envelope
10
145522.5
20
90100.0
30
0
11
145477.5
21
90100.0
31
0
0
LINE
8
envelope
10
144022.5
20
65500.0
30
0
11
144022.5
21
90100.0
31
0
0
LINE
8
envelope
10
143977.5
20
65500.0
30
0
11
143977.5
21
90100.0
31
0
0
LINE
8
envelope
10
144022.5
20
65500.0
30
0
11
143977.5
21
65500.0
31
0
0
LINE
8
envelope
10
144022.5
20
90100.0
30
0
11
143977.5
21
90100.0
31
0
0
LINE
8
envelope
10
142522.5
20
65500.0
30
0
11
142522.5
21
90100.0
31
0
0
LINE
8
envelope
10
142477.5
20
65500.0
30
0
11
142477.5
21
90100.0
31
0
0
LINE
8
envelope
10
142522.5
20
65500.0
30
0
11
142477.5
21
65500.0
31
0
0
LINE
8
envelope
10
142522.5
20
90100.0
30
0
11
142477.5
21
90100.0
31
0
0
LINE
8
envelope
10
141022.5
20
65500.0
30
0
11
141022.5
21
90100.0
31
0
0
LINE
8
envelope
10
140977.5
20
65500.0
30
0
11
140977.5
21
90100.0
31
0
0
LINE
8
envelope
10
141022.5
20
65500.0
30
0
11
140977.5
21
65500.0
31
0
0
LINE
8
envelope
10
141022.5
20
90100.0
30
0
11
140977.5
21
90100.0
31
0
0
LINE
8
envelope
10
139522.5
20
65500.0
30
0
11
139522.5
21
90100.0
31
0
0
LINE
8
envelope
10
139477.5
20
65500.0
30
0
11
139477.5
21
90100.0
31
0
0
LINE
8
envelope
10
139522.5
20
65500.0
30
0
11
139477.5
21
65500.0
31
0
0
LINE
8
envelope
10
139522.5
20
90100.0
30
0
11
139477.5
21
90100.0
31
0
0
LINE
8
envelope
10
138022.5
20
65500.0
30
0
11
138022.5
21
90100.0
31
0
0
LINE
8
envelope
10
137977.5
20
65500.0
30
0
11
137977.5
21
90100.0
31
0
0
LINE
8
envelope
10
138022.5
20
65500.0
30
0
11
137977.5
21
65500.0
31
0
0
LINE
8
envelope
10
138022.5
20
90100.0
30
0
11
137977.5
21
90100.0
31
0
0
LINE
8
envelope
10
136522.5
20
65500.0
30
0
11
136522.5
21
90100.0
31
0
0
LINE
8
envelope
10
136477.5
20
65500.0
30
0
11
136477.5
21
90100.0
31
0
0
LINE
8
envelope
10
136522.5
20
65500.0
30
0
11
136477.5
21
65500.0
31
0
0
LINE
8
envelope
10
136522.5
20
90100.0
30
0
11
136477.5
21
90100.0
31
0
0
LINE
8
envelope
10
135022.5
20
65500.0
30
0
11
135022.5
21
90100.0
31
0
0
LINE
8
envelope
10
134977.5
20
65500.0
30
0
11
134977.5
21
90100.0
31
0
0
LINE
8
envelope
10
135022.5
20
65500.0
30
0
11
134977.5
21
65500.0
31
0
0
LINE
8
envelope
10
135022.5
20
90100.0
30
0
11
134977.5
21
90100.0
31
0
0
LINE
8
envelope
10
133522.5
20
65500.0
30
0
11
133522.5
21
90100.0
31
0
0
LINE
8
envelope
10
133477.5
20
65500.0
30
0
11
133477.5
21
90100.0
31
0
0
LINE
8
envelope
10
133522.5
20
65500.0
30
0
11
133477.5
21
65500.0
31
0
0
LINE
8
envelope
10
133522.5
20
90100.0
30
0
11
133477.5
21
90100.0
31
0
0
LINE
8
envelope
10
132022.5
20
65500.0
30
0
11
132022.5
21
90100.0
31
0
0
LINE
8
envelope
10
131977.5
20
65500.0
30
0
11
131977.5
21
90100.0
31
0
0
LINE
8
envelope
10
132022.5
20
65500.0
30
0
11
131977.5
21
65500.0
31
0
0
LINE
8
envelope
10
132022.5
20
90100.0
30
0
11
131977.5
21
90100.0
31
0
0
LINE
8
envelope
10
130522.50000000001
20
65500.0
30
0
11
130522.50000000001
21
90100.0
31
0
0
LINE
8
envelope
10
130477.49999999999
20
65500.0
30
0
11
130477.49999999999
21
90100.0
31
0
0
LINE
8
envelope
10
130522.50000000001
20
65500.0
30
0
11
130477.49999999999
21
65500.0
31
0
0
LINE
8
envelope
10
130522.50000000001
20
90100.0
30
0
11
130477.49999999999
21
90100.0
31
0
0
LINE
8
envelope
10
129022.50000000001
20
65500.0
30
0
11
129022.50000000001
21
90100.0
31
0
0
LINE
8
envelope
10
128977.49999999999
20
65500.0
30
0
11
128977.49999999999
21
90100.0
31
0
0
LINE
8
envelope
10
129022.50000000001
20
65500.0
30
0
11
128977.49999999999
21
65500.0
31
0
0
LINE
8
envelope
10
129022.50000000001
20
90100.0
30
0
11
128977.49999999999
21
90100.0
31
0
0
LINE
8
envelope
10
127522.50000000001
20
65500.0
30
0
11
127522.50000000001
21
90100.0
31
0
0
LINE
8
envelope
10
127477.49999999999
20
65500.0
30
0
11
127477.49999999999
21
90100.0
31
0
0
LINE
8
envelope
10
127522.50000000001
20
65500.0
30
0
11
127477.49999999999
21
65500.0
31
0
0
LINE
8
envelope
10
127522.50000000001
20
90100.0
30
0
11
127477.49999999999
21
90100.0
31
0
0
LINE
8
envelope
10
126022.50000000001
20
65500.0
30
0
11
126022.50000000001
21
90100.0
31
0
0
LINE
8
envelope
10
125977.49999999999
20
65500.0
30
0
11
125977.49999999999
21
90100.0
31
0
0
LINE
8
envelope
10
126022.50000000001
20
65500.0
30
0
11
125977.49999999999
21
65500.0
31
0
0
LINE
8
envelope
10
126022.50000000001
20
90100.0
30
0
11
125977.49999999999
21
90100.0
31
0
0
LINE
8
envelope
10
124522.50000000001
20
65500.0
30
0
11
124522.50000000001
21
90100.0
31
0
0
LINE
8
envelope
10
124477.49999999999
20
65500.0
30
0
11
124477.49999999999
21
90100.0
31
0
0
LINE
8
envelope
10
124522.50000000001
20
65500.0
30
0
11
124477.49999999999
21
65500.0
31
0
0
LINE
8
envelope
10
124522.50000000001
20
90100.0
30
0
11
124477.49999999999
21
90100.0
31
0
0
LINE
8
envelope
10
123022.50000000001
20
65500.0
30
0
11
123022.50000000001
21
90100.0
31
0
0
LINE
8
envelope
10
122977.49999999999
20
65500.0
30
0
11
122977.49999999999
21
90100.0
31
0
0
LINE
8
envelope
10
123022.50000000001
20
65500.0
30
0
11
122977.49999999999
21
65500.0
31
0
0
LINE
8
envelope
10
123022.50000000001
20
90100.0
30
0
11
122977.49999999999
21
90100.0
31
0
0
LINE
8
envelope
10
121522.50000000001
20
65500.0
30
0
11
121522.50000000001
21
90100.0
31
0
0
LINE
8
envelope
10
121477.49999999999
20
65500.0
30
0
11
121477.49999999999
21
90100.0
31
0
0
LINE
8
envelope
10
121522.50000000001
20
65500.0
30
0
11
121477.49999999999
21
65500.0
31
0
0
LINE
8
envelope
10
121522.50000000001
20
90100.0
30
0
11
121477.49999999999
21
90100.0
31
0
0
LINE
8
envelope
10
120022.50000000001
20
65500.0
30
0
11
120022.50000000001
21
90100.0
31
0
0
LINE
8
envelope
10
119977.49999999999
20
65500.0
30
0
11
119977.49999999999
21
90100.0
31
0
0
LINE
8
envelope
10
120022.50000000001
20
65500.0
30
0
11
119977.49999999999
21
65500.0
31
0
0
LINE
8
envelope
10
120022.50000000001
20
90100.0
30
0
11
119977.49999999999
21
90100.0
31
0
0
LINE
8
envelope
10
118522.50000000001
20
65500.0
30
0
11
118522.50000000001
21
90100.0
31
0
0
LINE
8
envelope
10
118477.49999999999
20
65500.0
30
0
11
118477.49999999999
21
90100.0
31
0
0
LINE
8
envelope
10
118522.50000000001
20
65500.0
30
0
11
118477.49999999999
21
65500.0
31
0
0
LINE
8
envelope
10
118522.50000000001
20
90100.0
30
0
11
118477.49999999999
21
90100.0
31
0
0
LINE
8
envelope
10
117022.50000000001
20
65500.0
30
0
11
117022.50000000001
21
90100.0
31
0
0
LINE
8
envelope
10
116977.49999999999
20
65500.0
30
0
11
116977.49999999999
21
90100.0
31
0
0
LINE
8
envelope
10
117022.50000000001
20
65500.0
30
0
11
116977.49999999999
21
65500.0
31
0
0
LINE
8
envelope
10
117022.50000000001
20
90100.0
30
0
11
116977.49999999999
21
90100.0
31
0
0
LINE
8
envelope
10
115522.50000000001
20
65500.0
30
0
11
115522.50000000001
21
90100.0
31
0
0
LINE
8
envelope
10
115477.49999999999
20
65500.0
30
0
11
115477.49999999999
21
90100.0
31
0
0
LINE
8
envelope
10
115522.50000000001
20
65500.0
30
0
11
115477.49999999999
21
65500.0
31
0
0
LINE
8
envelope
10
115522.50000000001
20
90100.0
30
0
11
115477.49999999999
21
90100.0
31
0
0
LINE
8
envelope
10
114022.50000000001
20
65500.0
30
0
11
114022.50000000001
21
90100.0
31
0
0
LINE
8
envelope
10
113977.49999999999
20
65500.0
30
0
11
113977.49999999999
21
90100.0
31
0
0
LINE
8
envelope
10
114022.50000000001
20
65500.0
30
0
11
113977.49999999999
21
65500.0
31
0
0
LINE
8
envelope
10
114022.50000000001
20
90100.0
30
0
11
113977.49999999999
21
90100.0
31
0
0
LINE
8
envelope
10
112522.50000000001
20
65500.0
30
0
11
112522.50000000001
21
90100.0
31
0
0
LINE
8
envelope
10
112477.49999999999
20
65500.0
30
0
11
112477.49999999999
21
90100.0
31
0
0
LINE
8
envelope
10
112522.50000000001
20
65500.0
30
0
11
112477.49999999999
21
65500.0
31
0
0
LINE
8
envelope
10
112522.50000000001
20
90100.0
30
0
11
112477.49999999999
21
90100.0
31
0
0
LINE
8
envelope
10
111022.50000000001
20
65500.0
30
0
11
111022.50000000001
21
90100.0
31
0
0
LINE
8
envelope
10
110977.49999999999
20
65500.0
30
0
11
110977.49999999999
21
90100.0
31
0
0
LINE
8
envelope
10
111022.50000000001
20
65500.0
30
0
11
110977.49999999999
21
65500.0
31
0
0
LINE
8
envelope
10
111022.50000000001
20
90100.0
30
0
11
110977.49999999999
21
90100.0
31
0
0
LINE
8
envelope
10
109522.5
20
65500.0
30
0
11
109522.5
21
90100.0
31
0
0
LINE
8
envelope
10
109477.5
20
65500.0
30
0
11
109477.5
21
90100.0
31
0
0
LINE
8
envelope
10
109522.5
20
65500.0
30
0
11
109477.5
21
65500.0
31
0
0
LINE
8
envelope
10
109522.5
20
90100.0
30
0
11
109477.5
21
90100.0
31
0
0
LINE
8
envelope
10
108022.5
20
65500.0
30
0
11
108022.5
21
90100.0
31
0
0
LINE
8
envelope
10
107977.5
20
65500.0
30
0
11
107977.5
21
90100.0
31
0
0
LINE
8
envelope
10
108022.5
20
65500.0
30
0
11
107977.5
21
65500.0
31
0
0
LINE
8
envelope
10
108022.5
20
90100.0
30
0
11
107977.5
21
90100.0
31
0
0
LINE
8
envelope
10
106522.5
20
65500.0
30
0
11
106522.5
21
90100.0
31
0
0
LINE
8
envelope
10
106477.5
20
65500.0
30
0
11
106477.5
21
90100.0
31
0
0
LINE
8
envelope
10
106522.5
20
65500.0
30
0
11
106477.5
21
65500.0
31
0
0
LINE
8
envelope
10
106522.5
20
90100.0
30
0
11
106477.5
21
90100.0
31
0
0
LINE
8
envelope
10
105022.5
20
65500.0
30
0
11
105022.5
21
90100.0
31
0
0
LINE
8
envelope
10
104977.5
20
65500.0
30
0
11
104977.5
21
90100.0
31
0
0
LINE
8
envelope
10
105022.5
20
65500.0
30
0
11
104977.5
21
65500.0
31
0
0
LINE
8
envelope
10
105022.5
20
90100.0
30
0
11
104977.5
21
90100.0
31
0
0
LINE
8
envelope
10
103522.5
20
65500.0
30
0
11
103522.5
21
90100.0
31
0
0
LINE
8
envelope
10
103477.5
20
65500.0
30
0
11
103477.5
21
90100.0
31
0
0
LINE
8
envelope
10
103522.5
20
65500.0
30
0
11
103477.5
21
65500.0
31
0
0
LINE
8
envelope
10
103522.5
20
90100.0
30
0
11
103477.5
21
90100.0
31
0
0
LINE
8
envelope
10
102022.5
20
65500.0
30
0
11
102022.5
21
90100.0
31
0
0
LINE
8
envelope
10
101977.5
20
65500.0
30
0
11
101977.5
21
90100.0
31
0
0
LINE
8
envelope
10
102022.5
20
65500.0
30
0
11
101977.5
21
65500.0
31
0
0
LINE
8
envelope
10
102022.5
20
90100.0
30
0
11
101977.5
21
90100.0
31
0
0
LINE
8
envelope
10
100522.5
20
65500.0
30
0
11
100522.5
21
90100.0
31
0
0
LINE
8
envelope
10
100477.5
20
65500.0
30
0
11
100477.5
21
90100.0
31
0
0
LINE
8
envelope
10
100522.5
20
65500.0
30
0
11
100477.5
21
65500.0
31
0
0
LINE
8
envelope
10
100522.5
20
90100.0
30
0
11
100477.5
21
90100.0
31
0
0
LINE
8
envelope
10
99022.5
20
65500.0
30
0
11
99022.5
21
90100.0
31
0
0
LINE
8
envelope
10
98977.5
20
65500.0
30
0
11
98977.5
21
90100.0
31
0
0
LINE
8
envelope
10
99022.5
20
65500.0
30
0
11
98977.5
21
65500.0
31
0
0
LINE
8
envelope
10
99022.5
20
90100.0
30
0
11
98977.5
21
90100.0
31
0
0
LINE
8
envelope
10
97522.5
20
65500.0
30
0
11
97522.5
21
90100.0
31
0
0
LINE
8
envelope
10
97477.5
20
65500.0
30
0
11
97477.5
21
90100.0
31
0
0
LINE
8
envelope
10
97522.5
20
65500.0
30
0
11
97477.5
21
65500.0
31
0
0
LINE
8
envelope
10
97522.5
20
90100.0
30
0
11
97477.5
21
90100.0
31
0
0
LINE
8
envelope
10
96022.5
20
65500.0
30
0
11
96022.5
21
90100.0
31
0
0
LINE
8
envelope
10
95977.5
20
65500.0
30
0
11
95977.5
21
90100.0
31
0
0
LINE
8
envelope
10
96022.5
20
65500.0
30
0
11
95977.5
21
65500.0
31
0
0
LINE
8
envelope
10
96022.5
20
90100.0
30
0
11
95977.5
21
90100.0
31
0
0
LINE
8
envelope
10
94522.5
20
65500.0
30
0
11
94522.5
21
90100.0
31
0
0
LINE
8
envelope
10
94477.49999999999
20
65500.0
30
0
11
94477.49999999999
21
90100.0
31
0
0
LINE
8
envelope
10
94522.5
20
65500.0
30
0
11
94477.49999999999
21
65500.0
31
0
0
LINE
8
envelope
10
94522.5
20
90100.0
30
0
11
94477.49999999999
21
90100.0
31
0
0
LINE
8
envelope
10
93022.50000000001
20
65500.0
30
0
11
93022.50000000001
21
90100.0
31
0
0
LINE
8
envelope
10
92977.49999999999
20
65500.0
30
0
11
92977.49999999999
21
90100.0
31
0
0
LINE
8
envelope
10
93022.50000000001
20
65500.0
30
0
11
92977.49999999999
21
65500.0
31
0
0
LINE
8
envelope
10
93022.50000000001
20
90100.0
30
0
11
92977.49999999999
21
90100.0
31
0
0
LINE
8
envelope
10
91522.50000000001
20
65500.0
30
0
11
91522.50000000001
21
90100.0
31
0
0
LINE
8
envelope
10
91477.49999999999
20
65500.0
30
0
11
91477.49999999999
21
90100.0
31
0
0
LINE
8
envelope
10
91522.50000000001
20
65500.0
30
0
11
91477.49999999999
21
65500.0
31
0
0
LINE
8
envelope
10
91522.50000000001
20
90100.0
30
0
11
91477.49999999999
21
90100.0
31
0
0
LINE
8
envelope
10
90022.50000000001
20
65500.0
30
0
11
90022.50000000001
21
90100.0
31
0
0
LINE
8
envelope
10
89977.49999999999
20
65500.0
30
0
11
89977.49999999999
21
90100.0
31
0
0
LINE
8
envelope
10
90022.50000000001
20
65500.0
30
0
11
89977.49999999999
21
65500.0
31
0
0
LINE
8
envelope
10
90022.50000000001
20
90100.0
30
0
11
89977.49999999999
21
90100.0
31
0
0
LINE
8
envelope
10
88522.50000000001
20
65500.0
30
0
11
88522.50000000001
21
90100.0
31
0
0
LINE
8
envelope
10
88477.49999999999
20
65500.0
30
0
11
88477.49999999999
21
90100.0
31
0
0
LINE
8
envelope
10
88522.50000000001
20
65500.0
30
0
11
88477.49999999999
21
65500.0
31
0
0
LINE
8
envelope
10
88522.50000000001
20
90100.0
30
0
11
88477.49999999999
21
90100.0
31
0
0
LINE
8
envelope
10
87022.50000000001
20
65500.0
30
0
11
87022.50000000001
21
90100.0
31
0
0
LINE
8
envelope
10
86977.49999999999
20
65500.0
30
0
11
86977.49999999999
21
90100.0
31
0
0
LINE
8
envelope
10
87022.50000000001
20
65500.0
30
0
11
86977.49999999999
21
65500.0
31
0
0
LINE
8
envelope
10
87022.50000000001
20
90100.0
30
0
11
86977.49999999999
21
90100.0
31
0
0
LINE
8
envelope
10
85522.50000000001
20
65500.0
30
0
11
85522.50000000001
21
90100.0
31
0
0
LINE
8
envelope
10
85477.49999999999
20
65500.0
30
0
11
85477.49999999999
21
90100.0
31
0
0
LINE
8
envelope
10
85522.50000000001
20
65500.0
30
0
11
85477.49999999999
21
65500.0
31
0
0
LINE
8
envelope
10
85522.50000000001
20
90100.0
30
0
11
85477.49999999999
21
90100.0
31
0
0
LINE
8
envelope
10
84022.50000000001
20
65500.0
30
0
11
84022.50000000001
21
90100.0
31
0
0
LINE
8
envelope
10
83977.49999999999
20
65500.0
30
0
11
83977.49999999999
21
90100.0
31
0
0
LINE
8
envelope
10
84022.50000000001
20
65500.0
30
0
11
83977.49999999999
21
65500.0
31
0
0
LINE
8
envelope
10
84022.50000000001
20
90100.0
30
0
11
83977.49999999999
21
90100.0
31
0
0
LINE
8
envelope
10
82522.50000000001
20
65500.0
30
0
11
82522.50000000001
21
90100.0
31
0
0
LINE
8
envelope
10
82477.49999999999
20
65500.0
30
0
11
82477.49999999999
21
90100.0
31
0
0
LINE
8
envelope
10
82522.50000000001
20
65500.0
30
0
11
82477.49999999999
21
65500.0
31
0
0
LINE
8
envelope
10
82522.50000000001
20
90100.0
30
0
11
82477.49999999999
21
90100.0
31
0
0
LINE
8
envelope
10
81022.50000000001
20
65500.0
30
0
11
81022.50000000001
21
90100.0
31
0
0
LINE
8
envelope
10
80977.49999999999
20
65500.0
30
0
11
80977.49999999999
21
90100.0
31
0
0
LINE
8
envelope
10
81022.50000000001
20
65500.0
30
0
11
80977.49999999999
21
65500.0
31
0
0
LINE
8
envelope
10
81022.50000000001
20
90100.0
30
0
11
80977.49999999999
21
90100.0
31
0
0
LINE
8
envelope
10
79522.50000000001
20
65500.0
30
0
11
79522.50000000001
21
90100.0
31
0
0
LINE
8
envelope
10
79477.49999999999
20
65500.0
30
0
11
79477.49999999999
21
90100.0
31
0
0
LINE
8
envelope
10
79522.50000000001
20
65500.0
30
0
11
79477.49999999999
21
65500.0
31
0
0
LINE
8
envelope
10
79522.50000000001
20
90100.0
30
0
11
79477.49999999999
21
90100.0
31
0
0
LINE
8
envelope
10
78022.50000000001
20
65500.0
30
0
11
78022.50000000001
21
90100.0
31
0
0
LINE
8
envelope
10
77977.49999999999
20
65500.0
30
0
11
77977.49999999999
21
90100.0
31
0
0
LINE
8
envelope
10
78022.50000000001
20
65500.0
30
0
11
77977.49999999999
21
65500.0
31
0
0
LINE
8
envelope
10
78022.50000000001
20
90100.0
30
0
11
77977.49999999999
21
90100.0
31
0
0
LINE
8
envelope
10
76522.50000000001
20
65500.0
30
0
11
76522.50000000001
21
90100.0
31
0
0
LINE
8
envelope
10
76477.49999999999
20
65500.0
30
0
11
76477.49999999999
21
90100.0
31
0
0
LINE
8
envelope
10
76522.50000000001
20
65500.0
30
0
11
76477.49999999999
21
65500.0
31
0
0
LINE
8
envelope
10
76522.50000000001
20
90100.0
30
0
11
76477.49999999999
21
90100.0
31
0
0
LINE
8
envelope
10
75022.50000000001
20
65500.0
30
0
11
75022.50000000001
21
90100.0
31
0
0
LINE
8
envelope
10
74977.49999999999
20
65500.0
30
0
11
74977.49999999999
21
90100.0
31
0
0
LINE
8
envelope
10
75022.50000000001
20
65500.0
30
0
11
74977.49999999999
21
65500.0
31
0
0
LINE
8
envelope
10
75022.50000000001
20
90100.0
30
0
11
74977.49999999999
21
90100.0
31
0
0
LINE
8
envelope
10
73522.50000000001
20
65500.0
30
0
11
73522.50000000001
21
90100.0
31
0
0
LINE
8
envelope
10
73477.49999999999
20
65500.0
30
0
11
73477.49999999999
21
90100.0
31
0
0
LINE
8
envelope
10
73522.50000000001
20
65500.0
30
0
11
73477.49999999999
21
65500.0
31
0
0
LINE
8
envelope
10
73522.50000000001
20
90100.0
30
0
11
73477.49999999999
21
90100.0
31
0
0
LINE
8
envelope
10
72022.50000000001
20
65500.0
30
0
11
72022.50000000001
21
90100.0
31
0
0
LINE
8
envelope
10
71977.49999999999
20
65500.0
30
0
11
71977.49999999999
21
90100.0
31
0
0
LINE
8
envelope
10
72022.50000000001
20
65500.0
30
0
11
71977.49999999999
21
65500.0
31
0
0
LINE
8
envelope
10
72022.50000000001
20
90100.0
30
0
11
71977.49999999999
21
90100.0
31
0
0
LINE
8
envelope
10
70522.50000000001
20
65500.0
30
0
11
70522.50000000001
21
90100.0
31
0
0
LINE
8
envelope
10
70477.49999999999
20
65500.0
30
0
11
70477.49999999999
21
90100.0
31
0
0
LINE
8
envelope
10
70522.50000000001
20
65500.0
30
0
11
70477.49999999999
21
65500.0
31
0
0
LINE
8
envelope
10
70522.50000000001
20
90100.0
30
0
11
70477.49999999999
21
90100.0
31
0
0
LINE
8
envelope
10
69022.50000000001
20
65500.0
30
0
11
69022.50000000001
21
90100.0
31
0
0
LINE
8
envelope
10
68977.49999999999
20
65500.0
30
0
11
68977.49999999999
21
90100.0
31
0
0
LINE
8
envelope
10
69022.50000000001
20
65500.0
30
0
11
68977.49999999999
21
65500.0
31
0
0
LINE
8
envelope
10
69022.50000000001
20
90100.0
30
0
11
68977.49999999999
21
90100.0
31
0
0
LINE
8
envelope
10
67522.50000000001
20
65500.0
30
0
11
67522.50000000001
21
90100.0
31
0
0
LINE
8
envelope
10
67477.49999999999
20
65500.0
30
0
11
67477.49999999999
21
90100.0
31
0
0
LINE
8
envelope
10
67522.50000000001
20
65500.0
30
0
11
67477.49999999999
21
65500.0
31
0
0
LINE
8
envelope
10
67522.50000000001
20
90100.0
30
0
11
67477.49999999999
21
90100.0
31
0
0
LINE
8
envelope
10
66022.50000000001
20
65500.0
30
0
11
66022.50000000001
21
90100.0
31
0
0
LINE
8
envelope
10
65977.49999999999
20
65500.0
30
0
11
65977.49999999999
21
90100.0
31
0
0
LINE
8
envelope
10
66022.50000000001
20
65500.0
30
0
11
65977.49999999999
21
65500.0
31
0
0
LINE
8
envelope
10
66022.50000000001
20
90100.0
30
0
11
65977.49999999999
21
90100.0
31
0
0
LINE
8
envelope
10
64522.50000000001
20
65500.0
30
0
11
64522.50000000001
21
90100.0
31
0
0
LINE
8
envelope
10
64477.49999999999
20
65500.0
30
0
11
64477.49999999999
21
90100.0
31
0
0
LINE
8
envelope
10
64522.50000000001
20
65500.0
30
0
11
64477.49999999999
21
65500.0
31
0
0
LINE
8
envelope
10
64522.50000000001
20
90100.0
30
0
11
64477.49999999999
21
90100.0
31
0
0
LINE
8
envelope
10
63022.5
20
65500.0
30
0
11
63022.5
21
90100.0
31
0
0
LINE
8
envelope
10
62977.5
20
65500.0
30
0
11
62977.5
21
90100.0
31
0
0
LINE
8
envelope
10
63022.5
20
65500.0
30
0
11
62977.5
21
65500.0
31
0
0
LINE
8
envelope
10
63022.5
20
90100.0
30
0
11
62977.5
21
90100.0
31
0
0
LINE
8
envelope
10
61522.5
20
65500.0
30
0
11
61522.5
21
90100.0
31
0
0
LINE
8
envelope
10
61477.5
20
65500.0
30
0
11
61477.5
21
90100.0
31
0
0
LINE
8
envelope
10
61522.5
20
65500.0
30
0
11
61477.5
21
65500.0
31
0
0
LINE
8
envelope
10
61522.5
20
90100.0
30
0
11
61477.5
21
90100.0
31
0
0
LINE
8
envelope
10
60022.5
20
65500.0
30
0
11
60022.5
21
90100.0
31
0
0
LINE
8
envelope
10
59977.5
20
65500.0
30
0
11
59977.5
21
90100.0
31
0
0
LINE
8
envelope
10
60022.5
20
65500.0
30
0
11
59977.5
21
65500.0
31
0
0
LINE
8
envelope
10
60022.5
20
90100.0
30
0
11
59977.5
21
90100.0
31
0
0
LINE
8
envelope
10
58522.5
20
65500.0
30
0
11
58522.5
21
90100.0
31
0
0
LINE
8
envelope
10
58477.5
20
65500.0
30
0
11
58477.5
21
90100.0
31
0
0
LINE
8
envelope
10
58522.5
20
65500.0
30
0
11
58477.5
21
65500.0
31
0
0
LINE
8
envelope
10
58522.5
20
90100.0
30
0
11
58477.5
21
90100.0
31
0
0
LINE
8
envelope
10
57022.5
20
65500.0
30
0
11
57022.5
21
90100.0
31
0
0
LINE
8
envelope
10
56977.5
20
65500.0
30
0
11
56977.5
21
90100.0
31
0
0
LINE
8
envelope
10
57022.5
20
65500.0
30
0
11
56977.5
21
65500.0
31
0
0
LINE
8
envelope
10
57022.5
20
90100.0
30
0
11
56977.5
21
90100.0
31
0
0
LINE
8
envelope
10
55522.5
20
65500.0
30
0
11
55522.5
21
90100.0
31
0
0
LINE
8
envelope
10
55477.5
20
65500.0
30
0
11
55477.5
21
90100.0
31
0
0
LINE
8
envelope
10
55522.5
20
65500.0
30
0
11
55477.5
21
65500.0
31
0
0
LINE
8
envelope
10
55522.5
20
90100.0
30
0
11
55477.5
21
90100.0
31
0
0
LINE
8
envelope
10
54022.5
20
65500.0
30
0
11
54022.5
21
90100.0
31
0
0
LINE
8
envelope
10
53977.5
20
65500.0
30
0
11
53977.5
21
90100.0
31
0
0
LINE
8
envelope
10
54022.5
20
65500.0
30
0
11
53977.5
21
65500.0
31
0
0
LINE
8
envelope
10
54022.5
20
90100.0
30
0
11
53977.5
21
90100.0
31
0
0
LINE
8
envelope
10
52522.5
20
65500.0
30
0
11
52522.5
21
90100.0
31
0
0
LINE
8
envelope
10
52477.5
20
65500.0
30
0
11
52477.5
21
90100.0
31
0
0
LINE
8
envelope
10
52522.5
20
65500.0
30
0
11
52477.5
21
65500.0
31
0
0
LINE
8
envelope
10
52522.5
20
90100.0
30
0
11
52477.5
21
90100.0
31
0
0
LINE
8
envelope
10
51022.5
20
65500.0
30
0
11
51022.5
21
90100.0
31
0
0
LINE
8
envelope
10
50977.5
20
65500.0
30
0
11
50977.5
21
90100.0
31
0
0
LINE
8
envelope
10
51022.5
20
65500.0
30
0
11
50977.5
21
65500.0
31
0
0
LINE
8
envelope
10
51022.5
20
90100.0
30
0
11
50977.5
21
90100.0
31
0
0
LINE
8
envelope
10
49522.5
20
65500.0
30
0
11
49522.5
21
90100.0
31
0
0
LINE
8
envelope
10
49477.5
20
65500.0
30
0
11
49477.5
21
90100.0
31
0
0
LINE
8
envelope
10
49522.5
20
65500.0
30
0
11
49477.5
21
65500.0
31
0
0
LINE
8
envelope
10
49522.5
20
90100.0
30
0
11
49477.5
21
90100.0
31
0
0
LINE
8
envelope
10
48022.5
20
65500.0
30
0
11
48022.5
21
90100.0
31
0
0
LINE
8
envelope
10
47977.5
20
65500.0
30
0
11
47977.5
21
90100.0
31
0
0
LINE
8
envelope
10
48022.5
20
65500.0
30
0
11
47977.5
21
65500.0
31
0
0
LINE
8
envelope
10
48022.5
20
90100.0
30
0
11
47977.5
21
90100.0
31
0
0
LINE
8
envelope
10
46522.5
20
65500.0
30
0
11
46522.5
21
90100.0
31
0
0
LINE
8
envelope
10
46477.5
20
65500.0
30
0
11
46477.5
21
90100.0
31
0
0
LINE
8
envelope
10
46522.5
20
65500.0
30
0
11
46477.5
21
65500.0
31
0
0
LINE
8
envelope
10
46522.5
20
90100.0
30
0
11
46477.5
21
90100.0
31
0
0
LINE
8
envelope
10
45022.5
20
65500.0
30
0
11
45022.5
21
90100.0
31
0
0
LINE
8
envelope
10
44977.5
20
65500.0
30
0
11
44977.5
21
90100.0
31
0
0
LINE
8
envelope
10
45022.5
20
65500.0
30
0
11
44977.5
21
65500.0
31
0
0
LINE
8
envelope
10
45022.5
20
90100.0
30
0
11
44977.5
21
90100.0
31
0
0
LINE
8
envelope
10
43522.5
20
65500.0
30
0
11
43522.5
21
90100.0
31
0
0
LINE
8
envelope
10
43477.5
20
65500.0
30
0
11
43477.5
21
90100.0
31
0
0
LINE
8
envelope
10
43522.5
20
65500.0
30
0
11
43477.5
21
65500.0
31
0
0
LINE
8
envelope
10
43522.5
20
90100.0
30
0
11
43477.5
21
90100.0
31
0
0
LINE
8
envelope
10
42022.5
20
65500.0
30
0
11
42022.5
21
90100.0
31
0
0
LINE
8
envelope
10
41977.5
20
65500.0
30
0
11
41977.5
21
90100.0
31
0
0
LINE
8
envelope
10
42022.5
20
65500.0
30
0
11
41977.5
21
65500.0
31
0
0
LINE
8
envelope
10
42022.5
20
90100.0
30
0
11
41977.5
21
90100.0
31
0
0
LINE
8
envelope
10
40522.5
20
65500.0
30
0
11
40522.5
21
90100.0
31
0
0
LINE
8
envelope
10
40477.5
20
65500.0
30
0
11
40477.5
21
90100.0
31
0
0
LINE
8
envelope
10
40522.5
20
65500.0
30
0
11
40477.5
21
65500.0
31
0
0
LINE
8
envelope
10
40522.5
20
90100.0
30
0
11
40477.5
21
90100.0
31
0
0
LINE
8
envelope
10
39022.5
20
65500.0
30
0
11
39022.5
21
90100.0
31
0
0
LINE
8
envelope
10
38977.5
20
65500.0
30
0
11
38977.5
21
90100.0
31
0
0
LINE
8
envelope
10
39022.5
20
65500.0
30
0
11
38977.5
21
65500.0
31
0
0
LINE
8
envelope
10
39022.5
20
90100.0
30
0
11
38977.5
21
90100.0
31
0
0
LINE
8
envelope
10
37522.49999999999
20
65500.0
30
0
11
37522.49999999999
21
90100.0
31
0
0
LINE
8
envelope
10
37477.50000000001
20
65500.0
30
0
11
37477.50000000001
21
90100.0
31
0
0
LINE
8
envelope
10
37522.49999999999
20
65500.0
30
0
11
37477.50000000001
21
65500.0
31
0
0
LINE
8
envelope
10
37522.49999999999
20
90100.0
30
0
11
37477.50000000001
21
90100.0
31
0
0
LINE
8
envelope
10
36022.49999999999
20
65500.0
30
0
11
36022.49999999999
21
90100.0
31
0
0
LINE
8
envelope
10
35977.50000000001
20
65500.0
30
0
11
35977.50000000001
21
90100.0
31
0
0
LINE
8
envelope
10
36022.49999999999
20
65500.0
30
0
11
35977.50000000001
21
65500.0
31
0
0
LINE
8
envelope
10
36022.49999999999
20
90100.0
30
0
11
35977.50000000001
21
90100.0
31
0
0
LINE
8
envelope
10
34522.49999999999
20
65500.0
30
0
11
34522.49999999999
21
90100.0
31
0
0
LINE
8
envelope
10
34477.50000000001
20
65500.0
30
0
11
34477.50000000001
21
90100.0
31
0
0
LINE
8
envelope
10
34522.49999999999
20
65500.0
30
0
11
34477.50000000001
21
65500.0
31
0
0
LINE
8
envelope
10
34522.49999999999
20
90100.0
30
0
11
34477.50000000001
21
90100.0
31
0
0
LINE
8
envelope
10
33022.49999999999
20
65500.0
30
0
11
33022.49999999999
21
90100.0
31
0
0
LINE
8
envelope
10
32977.50000000001
20
65500.0
30
0
11
32977.50000000001
21
90100.0
31
0
0
LINE
8
envelope
10
33022.49999999999
20
65500.0
30
0
11
32977.50000000001
21
65500.0
31
0
0
LINE
8
envelope
10
33022.49999999999
20
90100.0
30
0
11
32977.50000000001
21
90100.0
31
0
0
LINE
8
envelope
10
31522.499999999993
20
65500.0
30
0
11
31522.499999999993
21
90100.0
31
0
0
LINE
8
envelope
10
31477.500000000007
20
65500.0
30
0
11
31477.500000000007
21
90100.0
31
0
0
LINE
8
envelope
10
31522.499999999993
20
65500.0
30
0
11
31477.500000000007
21
65500.0
31
0
0
LINE
8
envelope
10
31522.499999999993
20
90100.0
30
0
11
31477.500000000007
21
90100.0
31
0
0
LINE
8
envelope
10
30022.499999999993
20
65500.0
30
0
11
30022.499999999993
21
90100.0
31
0
0
LINE
8
envelope
10
29977.500000000007
20
65500.0
30
0
11
29977.500000000007
21
90100.0
31
0
0
LINE
8
envelope
10
30022.499999999993
20
65500.0
30
0
11
29977.500000000007
21
65500.0
31
0
0
LINE
8
envelope
10
30022.499999999993
20
90100.0
30
0
11
29977.500000000007
21
90100.0
31
0
0
LINE
8
envelope
10
28522.499999999993
20
65500.0
30
0
11
28522.499999999993
21
90100.0
31
0
0
LINE
8
envelope
10
28477.500000000007
20
65500.0
30
0
11
28477.500000000007
21
90100.0
31
0
0
LINE
8
envelope
10
28522.499999999993
20
65500.0
30
0
11
28477.500000000007
21
65500.0
31
0
0
LINE
8
envelope
10
28522.499999999993
20
90100.0
30
0
11
28477.500000000007
21
90100.0
31
0
0
LINE
8
envelope
10
27022.499999999993
20
65500.0
30
0
11
27022.499999999993
21
90100.0
31
0
0
LINE
8
envelope
10
26977.500000000007
20
65500.0
30
0
11
26977.500000000007
21
90100.0
31
0
0
LINE
8
envelope
10
27022.499999999993
20
65500.0
30
0
11
26977.500000000007
21
65500.0
31
0
0
LINE
8
envelope
10
27022.499999999993
20
90100.0
30
0
11
26977.500000000007
21
90100.0
31
0
0
LINE
8
envelope
10
25522.499999999993
20
65500.0
30
0
11
25522.499999999993
21
90100.0
31
0
0
LINE
8
envelope
10
25477.500000000007
20
65500.0
30
0
11
25477.500000000007
21
90100.0
31
0
0
LINE
8
envelope
10
25522.499999999993
20
65500.0
30
0
11
25477.500000000007
21
65500.0
31
0
0
LINE
8
envelope
10
25522.499999999993
20
90100.0
30
0
11
25477.500000000007
21
90100.0
31
0
0
LINE
8
envelope
10
24022.499999999993
20
65500.0
30
0
11
24022.499999999993
21
90100.0
31
0
0
LINE
8
envelope
10
23977.500000000007
20
65500.0
30
0
11
23977.500000000007
21
90100.0
31
0
0
LINE
8
envelope
10
24022.499999999993
20
65500.0
30
0
11
23977.500000000007
21
65500.0
31
0
0
LINE
8
envelope
10
24022.499999999993
20
90100.0
30
0
11
23977.500000000007
21
90100.0
31
0
0
LINE
8
envelope
10
22522.499999999993
20
65500.0
30
0
11
22522.499999999993
21
90100.0
31
0
0
LINE
8
envelope
10
22477.500000000007
20
65500.0
30
0
11
22477.500000000007
21
90100.0
31
0
0
LINE
8
envelope
10
22522.499999999993
20
65500.0
30
0
11
22477.500000000007
21
65500.0
31
0
0
LINE
8
envelope
10
22522.499999999993
20
90100.0
30
0
11
22477.500000000007
21
90100.0
31
0
0
LINE
8
envelope
10
21022.499999999993
20
65500.0
30
0
11
21022.499999999993
21
90100.0
31
0
0
LINE
8
envelope
10
20977.500000000007
20
65500.0
30
0
11
20977.500000000007
21
90100.0
31
0
0
LINE
8
envelope
10
21022.499999999993
20
65500.0
30
0
11
20977.500000000007
21
65500.0
31
0
0
LINE
8
envelope
10
21022.499999999993
20
90100.0
30
0
11
20977.500000000007
21
90100.0
31
0
0
LINE
8
envelope
10
184650.0
20
65500.0
30
0
11
184650.0
21
90100.0
31
0
0
LINE
8
envelope
10
184350.0
20
65500.0
30
0
11
184350.0
21
90100.0
31
0
0
LINE
8
envelope
10
184650.0
20
65500.0
30
0
11
184350.0
21
65500.0
31
0
0
LINE
8
envelope
10
184650.0
20
90100.0
30
0
11
184350.0
21
90100.0
31
0
0
LINE
8
envelope
10
20650.000000000007
20
65500.0
30
0
11
20650.000000000007
21
90100.0
31
0
0
LINE
8
envelope
10
20349.999999999993
20
65500.0
30
0
11
20349.999999999993
21
90100.0
31
0
0
LINE
8
envelope
10
20650.000000000007
20
65500.0
30
0
11
20349.999999999993
21
65500.0
31
0
0
LINE
8
envelope
10
20650.000000000007
20
90100.0
30
0
11
20349.999999999993
21
90100.0
31
0
0
LINE
8
equipment
10
165300.0
20
90500.0
30
0
11
165300.0
21
91000.0
31
0
0
LINE
8
equipment
10
154500.0
20
90500.0
30
0
11
154500.0
21
91000.0
31
0
0
LINE
8
equipment
10
165300.0
20
90500.0
30
0
11
154500.0
21
90500.0
31
0
0
LINE
8
equipment
10
165300.0
20
91000.0
30
0
11
154500.0
21
91000.0
31
0
0
LINE
8
equipment
10
164900.0
20
91000.0
30
0
11
164900.0
21
94300.0
31
0
0
LINE
8
equipment
10
154900.0
20
91000.0
30
0
11
154900.0
21
94300.0
31
0
0
LINE
8
equipment
10
164900.0
20
94300.0
30
0
11
154900.0
21
94300.0
31
0
0
LINE
8
equipment
10
164500.0
20
91400.0
30
0
11
164500.0
21
93700.0
31
0
0
LINE
8
equipment
10
162700.0
20
91400.0
30
0
11
162700.0
21
93700.0
31
0
0
LINE
8
equipment
10
164500.0
20
91400.0
30
0
11
162700.0
21
91400.0
31
0
0
LINE
8
equipment
10
164500.0
20
93700.0
30
0
11
162700.0
21
93700.0
31
0
0
LINE
8
equipment
10
161100.0
20
94600.0
30
0
11
161125.07
21
94600.0
31
0
0
LINE
8
equipment
10
161125.07
20
94600.0
30
0
11
161199.03
21
94600.0
31
0
0
LINE
8
equipment
10
161199.03
20
94600.0
30
0
11
161318.17
21
94600.0
31
0
0
LINE
8
equipment
10
161318.17
20
94600.0
30
0
11
161476.51
21
94600.0
31
0
0
LINE
8
equipment
10
161476.51
20
94600.0
30
0
11
161666.12
21
94600.0
31
0
0
LINE
8
equipment
10
161666.12
20
94600.0
30
0
11
161877.47999999998
21
94600.0
31
0
0
LINE
8
equipment
10
161877.47999999998
20
94600.0
30
0
11
162100.0
21
94600.0
31
0
0
LINE
8
equipment
10
162100.0
20
94600.0
30
0
11
162322.52
21
94600.0
31
0
0
LINE
8
equipment
10
162322.52
20
94600.0
30
0
11
162533.88
21
94600.0
31
0
0
LINE
8
equipment
10
162533.88
20
94600.0
30
0
11
162723.49
21
94600.0
31
0
0
LINE
8
equipment
10
162723.49
20
94600.0
30
0
11
162881.83000000002
21
94600.0
31
0
0
LINE
8
equipment
10
162881.83000000002
20
94600.0
30
0
11
163000.97
21
94600.0
31
0
0
LINE
8
equipment
10
163000.97
20
94600.0
30
0
11
163074.93
21
94600.0
31
0
0
LINE
8
equipment
10
163074.93
20
94600.0
30
0
11
163100.0
21
94600.0
31
0
0
LINE
8
equipment
10
161100.0
20
94300.0
30
0
11
161100.0
21
94600.0
31
0
0
LINE
8
equipment
10
160800.0
20
91400.0
30
0
11
160800.0
21
93700.0
31
0
0
LINE
8
equipment
10
159000.0
20
91400.0
30
0
11
159000.0
21
93700.0
31
0
0
LINE
8
equipment
10
160800.0
20
91400.0
30
0
11
159000.0
21
91400.0
31
0
0
LINE
8
equipment
10
160800.0
20
93700.0
30
0
11
159000.0
21
93700.0
31
0
0
LINE
8
equipment
10
158900.0
20
94600.0
30
0
11
158925.07
21
94600.0
31
0
0
LINE
8
equipment
10
158925.07
20
94600.0
30
0
11
158999.03
21
94600.0
31
0
0
LINE
8
equipment
10
158999.03
20
94600.0
30
0
11
159118.16999999998
21
94600.0
31
0
0
LINE
8
equipment
10
159118.16999999998
20
94600.0
30
0
11
159276.51
21
94600.0
31
0
0
LINE
8
equipment
10
159276.51
20
94600.0
30
0
11
159466.12
21
94600.0
31
0
0
LINE
8
equipment
10
159466.12
20
94600.0
30
0
11
159677.48
21
94600.0
31
0
0
LINE
8
equipment
10
159677.48
20
94600.0
30
0
11
159900.0
21
94600.0
31
0
0
LINE
8
equipment
10
159900.0
20
94600.0
30
0
11
160122.52000000002
21
94600.0
31
0
0
LINE
8
equipment
10
160122.52000000002
20
94600.0
30
0
11
160333.88
21
94600.0
31
0
0
LINE
8
equipment
10
160333.88
20
94600.0
30
0
11
160523.49
21
94600.0
31
0
0
LINE
8
equipment
10
160523.49
20
94600.0
30
0
11
160681.83
21
94600.0
31
0
0
LINE
8
equipment
10
160681.83
20
94600.0
30
0
11
160800.97
21
94600.0
31
0
0
LINE
8
equipment
10
160800.97
20
94600.0
30
0
11
160874.93
21
94600.0
31
0
0
LINE
8
equipment
10
160874.93
20
94600.0
30
0
11
160900.0
21
94600.0
31
0
0
LINE
8
equipment
10
158900.0
20
94300.0
30
0
11
158900.0
21
94600.0
31
0
0
LINE
8
equipment
10
157100.0
20
91400.0
30
0
11
157100.0
21
93700.0
31
0
0
LINE
8
equipment
10
155300.0
20
91400.0
30
0
11
155300.0
21
93700.0
31
0
0
LINE
8
equipment
10
157100.0
20
91400.0
30
0
11
155300.0
21
91400.0
31
0
0
LINE
8
equipment
10
157100.0
20
93700.0
30
0
11
155300.0
21
93700.0
31
0
0
LINE
8
equipment
10
156700.0
20
94600.0
30
0
11
156725.07
21
94600.0
31
0
0
LINE
8
equipment
10
156725.07
20
94600.0
30
0
11
156799.03000000003
21
94600.0
31
0
0
LINE
8
equipment
10
156799.03000000003
20
94600.0
30
0
11
156918.17
21
94600.0
31
0
0
LINE
8
equipment
10
156918.17
20
94600.0
30
0
11
157076.50999999998
21
94600.0
31
0
0
LINE
8
equipment
10
157076.50999999998
20
94600.0
30
0
11
157266.12
21
94600.0
31
0
0
LINE
8
equipment
10
157266.12
20
94600.0
30
0
11
157477.48
21
94600.0
31
0
0
LINE
8
equipment
10
157477.48
20
94600.0
30
0
11
157700.0
21
94600.0
31
0
0
LINE
8
equipment
10
157700.0
20
94600.0
30
0
11
157922.52
21
94600.0
31
0
0
LINE
8
equipment
10
157922.52
20
94600.0
30
0
11
158133.88
21
94600.0
31
0
0
LINE
8
equipment
10
158133.88
20
94600.0
30
0
11
158323.49
21
94600.0
31
0
0
LINE
8
equipment
10
158323.49
20
94600.0
30
0
11
158481.83000000002
21
94600.0
31
0
0
LINE
8
equipment
10
158481.83000000002
20
94600.0
30
0
11
158600.97000000003
21
94600.0
31
0
0
LINE
8
equipment
10
158600.97000000003
20
94600.0
30
0
11
158674.93000000002
21
94600.0
31
0
0
LINE
8
equipment
10
158674.93000000002
20
94600.0
30
0
11
158700.0
21
94600.0
31
0
0
LINE
8
equipment
10
156700.0
20
94300.0
30
0
11
156700.0
21
94600.0
31
0
0
LINE
8
equipment
10
164700.0
20
91300.0
30
0
11
164700.0
21
91380.0
31
0
0
LINE
8
equipment
10
155100.0
20
91300.0
30
0
11
155100.0
21
91380.0
31
0
0
LINE
8
equipment
10
164700.0
20
91300.0
30
0
11
155100.0
21
91300.0
31
0
0
LINE
8
equipment
10
164700.0
20
91380.0
30
0
11
155100.0
21
91380.0
31
0
0
LINE
8
equipment
10
164700.0
20
91550.0
30
0
11
164700.0
21
91630.0
31
0
0
LINE
8
equipment
10
155100.0
20
91550.0
30
0
11
155100.0
21
91630.0
31
0
0
LINE
8
equipment
10
164700.0
20
91550.0
30
0
11
164500.0
21
91550.0
31
0
0
LINE
8
equipment
10
162700.0
20
91550.0
30
0
11
160800.0
21
91550.0
31
0
0
LINE
8
equipment
10
159000.0
20
91550.0
30
0
11
157100.0
21
91550.0
31
0
0
LINE
8
equipment
10
155300.0
20
91550.0
30
0
11
155100.0
21
91550.0
31
0
0
LINE
8
equipment
10
164700.0
20
91630.0
30
0
11
164500.0
21
91630.0
31
0
0
LINE
8
equipment
10
162700.0
20
91630.0
30
0
11
160800.0
21
91630.0
31
0
0
LINE
8
equipment
10
159000.0
20
91630.0
30
0
11
157100.0
21
91630.0
31
0
0
LINE
8
equipment
10
155300.0
20
91630.0
30
0
11
155100.0
21
91630.0
31
0
0
LINE
8
equipment
10
164700.0
20
91800.0
30
0
11
164700.0
21
91880.0
31
0
0
LINE
8
equipment
10
155100.0
20
91800.0
30
0
11
155100.0
21
91880.0
31
0
0
LINE
8
equipment
10
164700.0
20
91800.0
30
0
11
164500.0
21
91800.0
31
0
0
LINE
8
equipment
10
162700.0
20
91800.0
30
0
11
160800.0
21
91800.0
31
0
0
LINE
8
equipment
10
159000.0
20
91800.0
30
0
11
157100.0
21
91800.0
31
0
0
LINE
8
equipment
10
155300.0
20
91800.0
30
0
11
155100.0
21
91800.0
31
0
0
LINE
8
equipment
10
164700.0
20
91880.0
30
0
11
164500.0
21
91880.0
31
0
0
LINE
8
equipment
10
162700.0
20
91880.0
30
0
11
160800.0
21
91880.0
31
0
0
LINE
8
equipment
10
159000.0
20
91880.0
30
0
11
157100.0
21
91880.0
31
0
0
LINE
8
equipment
10
155300.0
20
91880.0
30
0
11
155100.0
21
91880.0
31
0
0
LINE
8
equipment
10
164700.0
20
92050.0
30
0
11
164700.0
21
92130.0
31
0
0
LINE
8
equipment
10
155100.0
20
92050.0
30
0
11
155100.0
21
92130.0
31
0
0
LINE
8
equipment
10
164700.0
20
92050.0
30
0
11
164500.0
21
92050.0
31
0
0
LINE
8
equipment
10
162700.0
20
92050.0
30
0
11
160800.0
21
92050.0
31
0
0
LINE
8
equipment
10
159000.0
20
92050.0
30
0
11
157100.0
21
92050.0
31
0
0
LINE
8
equipment
10
155300.0
20
92050.0
30
0
11
155100.0
21
92050.0
31
0
0
LINE
8
equipment
10
164700.0
20
92130.0
30
0
11
164500.0
21
92130.0
31
0
0
LINE
8
equipment
10
162700.0
20
92130.0
30
0
11
160800.0
21
92130.0
31
0
0
LINE
8
equipment
10
159000.0
20
92130.0
30
0
11
157100.0
21
92130.0
31
0
0
LINE
8
equipment
10
155300.0
20
92130.0
30
0
11
155100.0
21
92130.0
31
0
0
LINE
8
equipment
10
164700.0
20
92300.0
30
0
11
164700.0
21
92380.0
31
0
0
LINE
8
equipment
10
155100.0
20
92300.0
30
0
11
155100.0
21
92380.0
31
0
0
LINE
8
equipment
10
164700.0
20
92300.0
30
0
11
164500.0
21
92300.0
31
0
0
LINE
8
equipment
10
162700.0
20
92300.0
30
0
11
160800.0
21
92300.0
31
0
0
LINE
8
equipment
10
159000.0
20
92300.0
30
0
11
157100.0
21
92300.0
31
0
0
LINE
8
equipment
10
155300.0
20
92300.0
30
0
11
155100.0
21
92300.0
31
0
0
LINE
8
equipment
10
164700.0
20
92380.0
30
0
11
164500.0
21
92380.0
31
0
0
LINE
8
equipment
10
162700.0
20
92380.0
30
0
11
160800.0
21
92380.0
31
0
0
LINE
8
equipment
10
159000.0
20
92380.0
30
0
11
157100.0
21
92380.0
31
0
0
LINE
8
equipment
10
155300.0
20
92380.0
30
0
11
155100.0
21
92380.0
31
0
0
LINE
8
equipment
10
164700.0
20
92550.0
30
0
11
164700.0
21
92630.0
31
0
0
LINE
8
equipment
10
155100.0
20
92550.0
30
0
11
155100.0
21
92630.0
31
0
0
LINE
8
equipment
10
164700.0
20
92550.0
30
0
11
164500.0
21
92550.0
31
0
0
LINE
8
equipment
10
162700.0
20
92550.0
30
0
11
160800.0
21
92550.0
31
0
0
LINE
8
equipment
10
159000.0
20
92550.0
30
0
11
157100.0
21
92550.0
31
0
0
LINE
8
equipment
10
155300.0
20
92550.0
30
0
11
155100.0
21
92550.0
31
0
0
LINE
8
equipment
10
164700.0
20
92630.0
30
0
11
164500.0
21
92630.0
31
0
0
LINE
8
equipment
10
162700.0
20
92630.0
30
0
11
160800.0
21
92630.0
31
0
0
LINE
8
equipment
10
159000.0
20
92630.0
30
0
11
157100.0
21
92630.0
31
0
0
LINE
8
equipment
10
155300.0
20
92630.0
30
0
11
155100.0
21
92630.0
31
0
0
LINE
8
equipment
10
164700.0
20
92800.0
30
0
11
164700.0
21
92880.0
31
0
0
LINE
8
equipment
10
155100.0
20
92800.0
30
0
11
155100.0
21
92880.0
31
0
0
LINE
8
equipment
10
164700.0
20
92800.0
30
0
11
164500.0
21
92800.0
31
0
0
LINE
8
equipment
10
162700.0
20
92800.0
30
0
11
160800.0
21
92800.0
31
0
0
LINE
8
equipment
10
159000.0
20
92800.0
30
0
11
157100.0
21
92800.0
31
0
0
LINE
8
equipment
10
155300.0
20
92800.0
30
0
11
155100.0
21
92800.0
31
0
0
LINE
8
equipment
10
164700.0
20
92880.0
30
0
11
164500.0
21
92880.0
31
0
0
LINE
8
equipment
10
162700.0
20
92880.0
30
0
11
160800.0
21
92880.0
31
0
0
LINE
8
equipment
10
159000.0
20
92880.0
30
0
11
157100.0
21
92880.0
31
0
0
LINE
8
equipment
10
155300.0
20
92880.0
30
0
11
155100.0
21
92880.0
31
0
0
LINE
8
equipment
10
164700.0
20
93050.0
30
0
11
164700.0
21
93130.0
31
0
0
LINE
8
equipment
10
155100.0
20
93050.0
30
0
11
155100.0
21
93130.0
31
0
0
LINE
8
equipment
10
164700.0
20
93050.0
30
0
11
164500.0
21
93050.0
31
0
0
LINE
8
equipment
10
162700.0
20
93050.0
30
0
11
160800.0
21
93050.0
31
0
0
LINE
8
equipment
10
159000.0
20
93050.0
30
0
11
157100.0
21
93050.0
31
0
0
LINE
8
equipment
10
155300.0
20
93050.0
30
0
11
155100.0
21
93050.0
31
0
0
LINE
8
equipment
10
164700.0
20
93130.0
30
0
11
164500.0
21
93130.0
31
0
0
LINE
8
equipment
10
162700.0
20
93130.0
30
0
11
160800.0
21
93130.0
31
0
0
LINE
8
equipment
10
159000.0
20
93130.0
30
0
11
157100.0
21
93130.0
31
0
0
LINE
8
equipment
10
155300.0
20
93130.0
30
0
11
155100.0
21
93130.0
31
0
0
LINE
8
equipment
10
164700.0
20
93300.0
30
0
11
164700.0
21
93380.0
31
0
0
LINE
8
equipment
10
155100.0
20
93300.0
30
0
11
155100.0
21
93380.0
31
0
0
LINE
8
equipment
10
164700.0
20
93300.0
30
0
11
164500.0
21
93300.0
31
0
0
LINE
8
equipment
10
162700.0
20
93300.0
30
0
11
160800.0
21
93300.0
31
0
0
LINE
8
equipment
10
159000.0
20
93300.0
30
0
11
157100.0
21
93300.0
31
0
0
LINE
8
equipment
10
155300.0
20
93300.0
30
0
11
155100.0
21
93300.0
31
0
0
LINE
8
equipment
10
164700.0
20
93380.0
30
0
11
164500.0
21
93380.0
31
0
0
LINE
8
equipment
10
162700.0
20
93380.0
30
0
11
160800.0
21
93380.0
31
0
0
LINE
8
equipment
10
159000.0
20
93380.0
30
0
11
157100.0
21
93380.0
31
0
0
LINE
8
equipment
10
155300.0
20
93380.0
30
0
11
155100.0
21
93380.0
31
0
0
LINE
8
equipment
10
164700.0
20
93550.0
30
0
11
164700.0
21
93630.0
31
0
0
LINE
8
equipment
10
155100.0
20
93550.0
30
0
11
155100.0
21
93630.0
31
0
0
LINE
8
equipment
10
164700.0
20
93550.0
30
0
11
164500.0
21
93550.0
31
0
0
LINE
8
equipment
10
162700.0
20
93550.0
30
0
11
160800.0
21
93550.0
31
0
0
LINE
8
equipment
10
159000.0
20
93550.0
30
0
11
157100.0
21
93550.0
31
0
0
LINE
8
equipment
10
155300.0
20
93550.0
30
0
11
155100.0
21
93550.0
31
0
0
LINE
8
equipment
10
164700.0
20
93630.0
30
0
11
164500.0
21
93630.0
31
0
0
LINE
8
equipment
10
162700.0
20
93630.0
30
0
11
160800.0
21
93630.0
31
0
0
LINE
8
equipment
10
159000.0
20
93630.0
30
0
11
157100.0
21
93630.0
31
0
0
LINE
8
equipment
10
155300.0
20
93630.0
30
0
11
155100.0
21
93630.0
31
0
0
LINE
8
equipment
10
136600.0
20
90500.0
30
0
11
136600.0
21
91000.0
31
0
0
LINE
8
equipment
10
125800.0
20
90500.0
30
0
11
125800.0
21
91000.0
31
0
0
LINE
8
equipment
10
136600.0
20
90500.0
30
0
11
125800.0
21
90500.0
31
0
0
LINE
8
equipment
10
136600.0
20
91000.0
30
0
11
125800.0
21
91000.0
31
0
0
LINE
8
equipment
10
136200.0
20
91000.0
30
0
11
136200.0
21
94300.0
31
0
0
LINE
8
equipment
10
126200.0
20
91000.0
30
0
11
126200.0
21
94300.0
31
0
0
LINE
8
equipment
10
136200.0
20
94300.0
30
0
11
126200.0
21
94300.0
31
0
0
LINE
8
equipment
10
135800.0
20
91400.0
30
0
11
135800.0
21
93700.0
31
0
0
LINE
8
equipment
10
134000.0
20
91400.0
30
0
11
134000.0
21
93700.0
31
0
0
LINE
8
equipment
10
135800.0
20
91400.0
30
0
11
134000.0
21
91400.0
31
0
0
LINE
8
equipment
10
135800.0
20
93700.0
30
0
11
134000.0
21
93700.0
31
0
0
LINE
8
equipment
10
132400.0
20
94600.0
30
0
11
132425.07
21
94600.0
31
0
0
LINE
8
equipment
10
132425.07
20
94600.0
30
0
11
132499.03
21
94600.0
31
0
0
LINE
8
equipment
10
132499.03
20
94600.0
30
0
11
132618.16999999998
21
94600.0
31
0
0
LINE
8
equipment
10
132618.16999999998
20
94600.0
30
0
11
132776.51
21
94600.0
31
0
0
LINE
8
equipment
10
132776.51
20
94600.0
30
0
11
132966.12
21
94600.0
31
0
0
LINE
8
equipment
10
132966.12
20
94600.0
30
0
11
133177.48
21
94600.0
31
0
0
LINE
8
equipment
10
133177.48
20
94600.0
30
0
11
133400.0
21
94600.0
31
0
0
LINE
8
equipment
10
133400.0
20
94600.0
30
0
11
133622.52000000002
21
94600.0
31
0
0
LINE
8
equipment
10
133622.52000000002
20
94600.0
30
0
11
133833.88
21
94600.0
31
0
0
LINE
8
equipment
10
133833.88
20
94600.0
30
0
11
134023.49000000002
21
94600.0
31
0
0
LINE
8
equipment
10
134023.49000000002
20
94600.0
30
0
11
134181.83
21
94600.0
31
0
0
LINE
8
equipment
10
134181.83
20
94600.0
30
0
11
134300.97
21
94600.0
31
0
0
LINE
8
equipment
10
134300.97
20
94600.0
30
0
11
134374.93
21
94600.0
31
0
0
LINE
8
equipment
10
134374.93
20
94600.0
30
0
11
134400.0
21
94600.0
31
0
0
LINE
8
equipment
10
132400.0
20
94300.0
30
0
11
132400.0
21
94600.0
31
0
0
LINE
8
equipment
10
132100.0
20
91400.0
30
0
11
132100.0
21
93700.0
31
0
0
LINE
8
equipment
10
130300.00000000001
20
91400.0
30
0
11
130300.00000000001
21
93700.0
31
0
0
LINE
8
equipment
10
132100.0
20
91400.0
30
0
11
130300.00000000001
21
91400.0
31
0
0
LINE
8
equipment
10
132100.0
20
93700.0
30
0
11
130300.00000000001
21
93700.0
31
0
0
LINE
8
equipment
10
130199.99999999999
20
94600.0
30
0
11
130225.06999999999
21
94600.0
31
0
0
LINE
8
equipment
10
130225.06999999999
20
94600.0
30
0
11
130299.02999999998
21
94600.0
31
0
0
LINE
8
equipment
10
130299.02999999998
20
94600.0
30
0
11
130418.17
21
94600.0
31
0
0
LINE
8
equipment
10
130418.17
20
94600.0
30
0
11
130576.50999999998
21
94600.0
31
0
0
LINE
8
equipment
10
130576.50999999998
20
94600.0
30
0
11
130766.12
21
94600.0
31
0
0
LINE
8
equipment
10
130766.12
20
94600.0
30
0
11
130977.48000000001
21
94600.0
31
0
0
LINE
8
equipment
10
130977.48000000001
20
94600.0
30
0
11
131200.0
21
94600.0
31
0
0
LINE
8
equipment
10
131200.0
20
94600.0
30
0
11
131422.52
21
94600.0
31
0
0
LINE
8
equipment
10
131422.52
20
94600.0
30
0
11
131633.88
21
94600.0
31
0
0
LINE
8
equipment
10
131633.88
20
94600.0
30
0
11
131823.49
21
94600.0
31
0
0
LINE
8
equipment
10
131823.49
20
94600.0
30
0
11
131981.83000000002
21
94600.0
31
0
0
LINE
8
equipment
10
131981.83000000002
20
94600.0
30
0
11
132100.97
21
94600.0
31
0
0
LINE
8
equipment
10
132100.97
20
94600.0
30
0
11
132174.93
21
94600.0
31
0
0
LINE
8
equipment
10
132174.93
20
94600.0
30
0
11
132200.0
21
94600.0
31
0
0
LINE
8
equipment
10
130199.99999999999
20
94300.0
30
0
11
130199.99999999999
21
94600.0
31
0
0
LINE
8
equipment
10
128400.0
20
91400.0
30
0
11
128400.0
21
93700.0
31
0
0
LINE
8
equipment
10
126600.0
20
91400.0
30
0
11
126600.0
21
93700.0
31
0
0
LINE
8
equipment
10
128400.0
20
91400.0
30
0
11
126600.0
21
91400.0
31
0
0
LINE
8
equipment
10
128400.0
20
93700.0
30
0
11
126600.0
21
93700.0
31
0
0
LINE
8
equipment
10
128000.0
20
94600.0
30
0
11
128025.06999999999
21
94600.0
31
0
0
LINE
8
equipment
10
128025.06999999999
20
94600.0
30
0
11
128099.03
21
94600.0
31
0
0
LINE
8
equipment
10
128099.03
20
94600.0
30
0
11
128218.16999999998
21
94600.0
31
0
0
LINE
8
equipment
10
128218.16999999998
20
94600.0
30
0
11
128376.51
21
94600.0
31
0
0
LINE
8
equipment
10
128376.51
20
94600.0
30
0
11
128566.12000000001
21
94600.0
31
0
0
LINE
8
equipment
10
128566.12000000001
20
94600.0
30
0
11
128777.48
21
94600.0
31
0
0
LINE
8
equipment
10
128777.48
20
94600.0
30
0
11
129000.0
21
94600.0
31
0
0
LINE
8
equipment
10
129000.0
20
94600.0
30
0
11
129222.52
21
94600.0
31
0
0
LINE
8
equipment
10
129222.52
20
94600.0
30
0
11
129433.87999999999
21
94600.0
31
0
0
LINE
8
equipment
10
129433.87999999999
20
94600.0
30
0
11
129623.49
21
94600.0
31
0
0
LINE
8
equipment
10
129623.49
20
94600.0
30
0
11
129781.83000000002
21
94600.0
31
0
0
LINE
8
equipment
10
129781.83000000002
20
94600.0
30
0
11
129900.97
21
94600.0
31
0
0
LINE
8
equipment
10
129900.97
20
94600.0
30
0
11
129974.93000000001
21
94600.0
31
0
0
LINE
8
equipment
10
129974.93000000001
20
94600.0
30
0
11
130000.0
21
94600.0
31
0
0
LINE
8
equipment
10
128000.0
20
94300.0
30
0
11
128000.0
21
94600.0
31
0
0
LINE
8
equipment
10
136000.0
20
91300.0
30
0
11
136000.0
21
91380.0
31
0
0
LINE
8
equipment
10
126400.0
20
91300.0
30
0
11
126400.0
21
91380.0
31
0
0
LINE
8
equipment
10
136000.0
20
91300.0
30
0
11
126400.0
21
91300.0
31
0
0
LINE
8
equipment
10
136000.0
20
91380.0
30
0
11
126400.0
21
91380.0
31
0
0
LINE
8
equipment
10
136000.0
20
91550.0
30
0
11
136000.0
21
91630.0
31
0
0
LINE
8
equipment
10
126400.0
20
91550.0
30
0
11
126400.0
21
91630.0
31
0
0
LINE
8
equipment
10
136000.0
20
91550.0
30
0
11
135800.0
21
91550.0
31
0
0
LINE
8
equipment
10
134000.0
20
91550.0
30
0
11
132100.0
21
91550.0
31
0
0
LINE
8
equipment
10
130300.00000000001
20
91550.0
30
0
11
128400.0
21
91550.0
31
0
0
LINE
8
equipment
10
126600.0
20
91550.0
30
0
11
126400.0
21
91550.0
31
0
0
LINE
8
equipment
10
136000.0
20
91630.0
30
0
11
135800.0
21
91630.0
31
0
0
LINE
8
equipment
10
134000.0
20
91630.0
30
0
11
132100.0
21
91630.0
31
0
0
LINE
8
equipment
10
130300.00000000001
20
91630.0
30
0
11
128400.0
21
91630.0
31
0
0
LINE
8
equipment
10
126600.0
20
91630.0
30
0
11
126400.0
21
91630.0
31
0
0
LINE
8
equipment
10
136000.0
20
91800.0
30
0
11
136000.0
21
91880.0
31
0
0
LINE
8
equipment
10
126400.0
20
91800.0
30
0
11
126400.0
21
91880.0
31
0
0
LINE
8
equipment
10
136000.0
20
91800.0
30
0
11
135800.0
21
91800.0
31
0
0
LINE
8
equipment
10
134000.0
20
91800.0
30
0
11
132100.0
21
91800.0
31
0
0
LINE
8
equipment
10
130300.00000000001
20
91800.0
30
0
11
128400.0
21
91800.0
31
0
0
LINE
8
equipment
10
126600.0
20
91800.0
30
0
11
126400.0
21
91800.0
31
0
0
LINE
8
equipment
10
136000.0
20
91880.0
30
0
11
135800.0
21
91880.0
31
0
0
LINE
8
equipment
10
134000.0
20
91880.0
30
0
11
132100.0
21
91880.0
31
0
0
LINE
8
equipment
10
130300.00000000001
20
91880.0
30
0
11
128400.0
21
91880.0
31
0
0
LINE
8
equipment
10
126600.0
20
91880.0
30
0
11
126400.0
21
91880.0
31
0
0
LINE
8
equipment
10
136000.0
20
92050.0
30
0
11
136000.0
21
92130.0
31
0
0
LINE
8
equipment
10
126400.0
20
92050.0
30
0
11
126400.0
21
92130.0
31
0
0
LINE
8
equipment
10
136000.0
20
92050.0
30
0
11
135800.0
21
92050.0
31
0
0
LINE
8
equipment
10
134000.0
20
92050.0
30
0
11
132100.0
21
92050.0
31
0
0
LINE
8
equipment
10
130300.00000000001
20
92050.0
30
0
11
128400.0
21
92050.0
31
0
0
LINE
8
equipment
10
126600.0
20
92050.0
30
0
11
126400.0
21
92050.0
31
0
0
LINE
8
equipment
10
136000.0
20
92130.0
30
0
11
135800.0
21
92130.0
31
0
0
LINE
8
equipment
10
134000.0
20
92130.0
30
0
11
132100.0
21
92130.0
31
0
0
LINE
8
equipment
10
130300.00000000001
20
92130.0
30
0
11
128400.0
21
92130.0
31
0
0
LINE
8
equipment
10
126600.0
20
92130.0
30
0
11
126400.0
21
92130.0
31
0
0
LINE
8
equipment
10
136000.0
20
92300.0
30
0
11
136000.0
21
92380.0
31
0
0
LINE
8
equipment
10
126400.0
20
92300.0
30
0
11
126400.0
21
92380.0
31
0
0
LINE
8
equipment
10
136000.0
20
92300.0
30
0
11
135800.0
21
92300.0
31
0
0
LINE
8
equipment
10
134000.0
20
92300.0
30
0
11
132100.0
21
92300.0
31
0
0
LINE
8
equipment
10
130300.00000000001
20
92300.0
30
0
11
128400.0
21
92300.0
31
0
0
LINE
8
equipment
10
126600.0
20
92300.0
30
0
11
126400.0
21
92300.0
31
0
0
LINE
8
equipment
10
136000.0
20
92380.0
30
0
11
135800.0
21
92380.0
31
0
0
LINE
8
equipment
10
134000.0
20
92380.0
30
0
11
132100.0
21
92380.0
31
0
0
LINE
8
equipment
10
130300.00000000001
20
92380.0
30
0
11
128400.0
21
92380.0
31
0
0
LINE
8
equipment
10
126600.0
20
92380.0
30
0
11
126400.0
21
92380.0
31
0
0
LINE
8
equipment
10
136000.0
20
92550.0
30
0
11
136000.0
21
92630.0
31
0
0
LINE
8
equipment
10
126400.0
20
92550.0
30
0
11
126400.0
21
92630.0
31
0
0
LINE
8
equipment
10
136000.0
20
92550.0
30
0
11
135800.0
21
92550.0
31
0
0
LINE
8
equipment
10
134000.0
20
92550.0
30
0
11
132100.0
21
92550.0
31
0
0
LINE
8
equipment
10
130300.00000000001
20
92550.0
30
0
11
128400.0
21
92550.0
31
0
0
LINE
8
equipment
10
126600.0
20
92550.0
30
0
11
126400.0
21
92550.0
31
0
0
LINE
8
equipment
10
136000.0
20
92630.0
30
0
11
135800.0
21
92630.0
31
0
0
LINE
8
equipment
10
134000.0
20
92630.0
30
0
11
132100.0
21
92630.0
31
0
0
LINE
8
equipment
10
130300.00000000001
20
92630.0
30
0
11
128400.0
21
92630.0
31
0
0
LINE
8
equipment
10
126600.0
20
92630.0
30
0
11
126400.0
21
92630.0
31
0
0
LINE
8
equipment
10
136000.0
20
92800.0
30
0
11
136000.0
21
92880.0
31
0
0
LINE
8
equipment
10
126400.0
20
92800.0
30
0
11
126400.0
21
92880.0
31
0
0
LINE
8
equipment
10
136000.0
20
92800.0
30
0
11
135800.0
21
92800.0
31
0
0
LINE
8
equipment
10
134000.0
20
92800.0
30
0
11
132100.0
21
92800.0
31
0
0
LINE
8
equipment
10
130300.00000000001
20
92800.0
30
0
11
128400.0
21
92800.0
31
0
0
LINE
8
equipment
10
126600.0
20
92800.0
30
0
11
126400.0
21
92800.0
31
0
0
LINE
8
equipment
10
136000.0
20
92880.0
30
0
11
135800.0
21
92880.0
31
0
0
LINE
8
equipment
10
134000.0
20
92880.0
30
0
11
132100.0
21
92880.0
31
0
0
LINE
8
equipment
10
130300.00000000001
20
92880.0
30
0
11
128400.0
21
92880.0
31
0
0
LINE
8
equipment
10
126600.0
20
92880.0
30
0
11
126400.0
21
92880.0
31
0
0
LINE
8
equipment
10
136000.0
20
93050.0
30
0
11
136000.0
21
93130.0
31
0
0
LINE
8
equipment
10
126400.0
20
93050.0
30
0
11
126400.0
21
93130.0
31
0
0
LINE
8
equipment
10
136000.0
20
93050.0
30
0
11
135800.0
21
93050.0
31
0
0
LINE
8
equipment
10
134000.0
20
93050.0
30
0
11
132100.0
21
93050.0
31
0
0
LINE
8
equipment
10
130300.00000000001
20
93050.0
30
0
11
128400.0
21
93050.0
31
0
0
LINE
8
equipment
10
126600.0
20
93050.0
30
0
11
126400.0
21
93050.0
31
0
0
LINE
8
equipment
10
136000.0
20
93130.0
30
0
11
135800.0
21
93130.0
31
0
0
LINE
8
equipment
10
134000.0
20
93130.0
30
0
11
132100.0
21
93130.0
31
0
0
LINE
8
equipment
10
130300.00000000001
20
93130.0
30
0
11
128400.0
21
93130.0
31
0
0
LINE
8
equipment
10
126600.0
20
93130.0
30
0
11
126400.0
21
93130.0
31
0
0
LINE
8
equipment
10
136000.0
20
93300.0
30
0
11
136000.0
21
93380.0
31
0
0
LINE
8
equipment
10
126400.0
20
93300.0
30
0
11
126400.0
21
93380.0
31
0
0
LINE
8
equipment
10
136000.0
20
93300.0
30
0
11
135800.0
21
93300.0
31
0
0
LINE
8
equipment
10
134000.0
20
93300.0
30
0
11
132100.0
21
93300.0
31
0
0
LINE
8
equipment
10
130300.00000000001
20
93300.0
30
0
11
128400.0
21
93300.0
31
0
0
LINE
8
equipment
10
126600.0
20
93300.0
30
0
11
126400.0
21
93300.0
31
0
0
LINE
8
equipment
10
136000.0
20
93380.0
30
0
11
135800.0
21
93380.0
31
0
0
LINE
8
equipment
10
134000.0
20
93380.0
30
0
11
132100.0
21
93380.0
31
0
0
LINE
8
equipment
10
130300.00000000001
20
93380.0
30
0
11
128400.0
21
93380.0
31
0
0
LINE
8
equipment
10
126600.0
20
93380.0
30
0
11
126400.0
21
93380.0
31
0
0
LINE
8
equipment
10
136000.0
20
93550.0
30
0
11
136000.0
21
93630.0
31
0
0
LINE
8
equipment
10
126400.0
20
93550.0
30
0
11
126400.0
21
93630.0
31
0
0
LINE
8
equipment
10
136000.0
20
93550.0
30
0
11
135800.0
21
93550.0
31
0
0
LINE
8
equipment
10
134000.0
20
93550.0
30
0
11
132100.0
21
93550.0
31
0
0
LINE
8
equipment
10
130300.00000000001
20
93550.0
30
0
11
128400.0
21
93550.0
31
0
0
LINE
8
equipment
10
126600.0
20
93550.0
30
0
11
126400.0
21
93550.0
31
0
0
LINE
8
equipment
10
136000.0
20
93630.0
30
0
11
135800.0
21
93630.0
31
0
0
LINE
8
equipment
10
134000.0
20
93630.0
30
0
11
132100.0
21
93630.0
31
0
0
LINE
8
equipment
10
130300.00000000001
20
93630.0
30
0
11
128400.0
21
93630.0
31
0
0
LINE
8
equipment
10
126600.0
20
93630.0
30
0
11
126400.0
21
93630.0
31
0
0
LINE
8
equipment
10
107900.0
20
90500.0
30
0
11
107900.0
21
91000.0
31
0
0
LINE
8
equipment
10
97100.0
20
90500.0
30
0
11
97100.0
21
91000.0
31
0
0
LINE
8
equipment
10
107900.0
20
90500.0
30
0
11
97100.0
21
90500.0
31
0
0
LINE
8
equipment
10
107900.0
20
91000.0
30
0
11
97100.0
21
91000.0
31
0
0
LINE
8
equipment
10
107500.0
20
91000.0
30
0
11
107500.0
21
94300.0
31
0
0
LINE
8
equipment
10
97500.0
20
91000.0
30
0
11
97500.0
21
94300.0
31
0
0
LINE
8
equipment
10
107500.0
20
94300.0
30
0
11
97500.0
21
94300.0
31
0
0
LINE
8
equipment
10
107100.0
20
91400.0
30
0
11
107100.0
21
93700.0
31
0
0
LINE
8
equipment
10
105300.0
20
91400.0
30
0
11
105300.0
21
93700.0
31
0
0
LINE
8
equipment
10
107100.0
20
91400.0
30
0
11
105300.0
21
91400.0
31
0
0
LINE
8
equipment
10
107100.0
20
93700.0
30
0
11
105300.0
21
93700.0
31
0
0
LINE
8
equipment
10
103700.0
20
94600.0
30
0
11
103725.07
21
94600.0
31
0
0
LINE
8
equipment
10
103725.07
20
94600.0
30
0
11
103799.03
21
94600.0
31
0
0
LINE
8
equipment
10
103799.03
20
94600.0
30
0
11
103918.17
21
94600.0
31
0
0
LINE
8
equipment
10
103918.17
20
94600.0
30
0
11
104076.51
21
94600.0
31
0
0
LINE
8
equipment
10
104076.51
20
94600.0
30
0
11
104266.12
21
94600.0
31
0
0
LINE
8
equipment
10
104266.12
20
94600.0
30
0
11
104477.48
21
94600.0
31
0
0
LINE
8
equipment
10
104477.48
20
94600.0
30
0
11
104700.0
21
94600.0
31
0
0
LINE
8
equipment
10
104700.0
20
94600.0
30
0
11
104922.52
21
94600.0
31
0
0
LINE
8
equipment
10
104922.52
20
94600.0
30
0
11
105133.88
21
94600.0
31
0
0
LINE
8
equipment
10
105133.88
20
94600.0
30
0
11
105323.48999999999
21
94600.0
31
0
0
LINE
8
equipment
10
105323.48999999999
20
94600.0
30
0
11
105481.83
21
94600.0
31
0
0
LINE
8
equipment
10
105481.83
20
94600.0
30
0
11
105600.97
21
94600.0
31
0
0
LINE
8
equipment
10
105600.97
20
94600.0
30
0
11
105674.93000000001
21
94600.0
31
0
0
LINE
8
equipment
10
105674.93000000001
20
94600.0
30
0
11
105700.0
21
94600.0
31
0
0
LINE
8
equipment
10
103700.0
20
94300.0
30
0
11
103700.0
21
94600.0
31
0
0
LINE
8
equipment
10
103400.0
20
91400.0
30
0
11
103400.0
21
93700.0
31
0
0
LINE
8
equipment
10
101600.0
20
91400.0
30
0
11
101600.0
21
93700.0
31
0
0
LINE
8
equipment
10
103400.0
20
91400.0
30
0
11
101600.0
21
91400.0
31
0
0
LINE
8
equipment
10
103400.0
20
93700.0
30
0
11
101600.0
21
93700.0
31
0
0
LINE
8
equipment
10
101500.0
20
94600.0
30
0
11
101525.06999999999
21
94600.0
31
0
0
LINE
8
equipment
10
101525.06999999999
20
94600.0
30
0
11
101599.03
21
94600.0
31
0
0
LINE
8
equipment
10
101599.03
20
94600.0
30
0
11
101718.17
21
94600.0
31
0
0
LINE
8
equipment
10
101718.17
20
94600.0
30
0
11
101876.51
21
94600.0
31
0
0
LINE
8
equipment
10
101876.51
20
94600.0
30
0
11
102066.12
21
94600.0
31
0
0
LINE
8
equipment
10
102066.12
20
94600.0
30
0
11
102277.48
21
94600.0
31
0
0
LINE
8
equipment
10
102277.48
20
94600.0
30
0
11
102500.0
21
94600.0
31
0
0
LINE
8
equipment
10
102500.0
20
94600.0
30
0
11
102722.52
21
94600.0
31
0
0
LINE
8
equipment
10
102722.52
20
94600.0
30
0
11
102933.88
21
94600.0
31
0
0
LINE
8
equipment
10
102933.88
20
94600.0
30
0
11
103123.49
21
94600.0
31
0
0
LINE
8
equipment
10
103123.49
20
94600.0
30
0
11
103281.83
21
94600.0
31
0
0
LINE
8
equipment
10
103281.83
20
94600.0
30
0
11
103400.97
21
94600.0
31
0
0
LINE
8
equipment
10
103400.97
20
94600.0
30
0
11
103474.93000000001
21
94600.0
31
0
0
LINE
8
equipment
10
103474.93000000001
20
94600.0
30
0
11
103500.0
21
94600.0
31
0
0
LINE
8
equipment
10
101500.0
20
94300.0
30
0
11
101500.0
21
94600.0
31
0
0
LINE
8
equipment
10
99700.0
20
91400.0
30
0
11
99700.0
21
93700.0
31
0
0
LINE
8
equipment
10
97900.0
20
91400.0
30
0
11
97900.0
21
93700.0
31
0
0
LINE
8
equipment
10
99700.0
20
91400.0
30
0
11
97900.0
21
91400.0
31
0
0
LINE
8
equipment
10
99700.0
20
93700.0
30
0
11
97900.0
21
93700.0
31
0
0
LINE
8
equipment
10
99300.0
20
94600.0
30
0
11
99325.06999999999
21
94600.0
31
0
0
LINE
8
equipment
10
99325.06999999999
20
94600.0
30
0
11
99399.03
21
94600.0
31
0
0
LINE
8
equipment
10
99399.03
20
94600.0
30
0
11
99518.17
21
94600.0
31
0
0
LINE
8
equipment
10
99518.17
20
94600.0
30
0
11
99676.51000000001
21
94600.0
31
0
0
LINE
8
equipment
10
99676.51000000001
20
94600.0
30
0
11
99866.12
21
94600.0
31
0
0
LINE
8
equipment
10
99866.12
20
94600.0
30
0
11
100077.48
21
94600.0
31
0
0
LINE
8
equipment
10
100077.48
20
94600.0
30
0
11
100300.0
21
94600.0
31
0
0
LINE
8
equipment
10
100300.0
20
94600.0
30
0
11
100522.52
21
94600.0
31
0
0
LINE
8
equipment
10
100522.52
20
94600.0
30
0
11
100733.88
21
94600.0
31
0
0
LINE
8
equipment
10
100733.88
20
94600.0
30
0
11
100923.49
21
94600.0
31
0
0
LINE
8
equipment
10
100923.49
20
94600.0
30
0
11
101081.83
21
94600.0
31
0
0
LINE
8
equipment
10
101081.83
20
94600.0
30
0
11
101200.97
21
94600.0
31
0
0
LINE
8
equipment
10
101200.97
20
94600.0
30
0
11
101274.93
21
94600.0
31
0
0
LINE
8
equipment
10
101274.93
20
94600.0
30
0
11
101300.0
21
94600.0
31
0
0
LINE
8
equipment
10
99300.0
20
94300.0
30
0
11
99300.0
21
94600.0
31
0
0
LINE
8
equipment
10
107300.0
20
91300.0
30
0
11
107300.0
21
91380.0
31
0
0
LINE
8
equipment
10
97700.0
20
91300.0
30
0
11
97700.0
21
91380.0
31
0
0
LINE
8
equipment
10
107300.0
20
91300.0
30
0
11
97700.0
21
91300.0
31
0
0
LINE
8
equipment
10
107300.0
20
91380.0
30
0
11
97700.0
21
91380.0
31
0
0
LINE
8
equipment
10
107300.0
20
91550.0
30
0
11
107300.0
21
91630.0
31
0
0
LINE
8
equipment
10
97700.0
20
91550.0
30
0
11
97700.0
21
91630.0
31
0
0
LINE
8
equipment
10
107300.0
20
91550.0
30
0
11
107100.0
21
91550.0
31
0
0
LINE
8
equipment
10
105300.0
20
91550.0
30
0
11
103400.0
21
91550.0
31
0
0
LINE
8
equipment
10
101600.0
20
91550.0
30
0
11
99700.0
21
91550.0
31
0
0
LINE
8
equipment
10
97900.0
20
91550.0
30
0
11
97700.0
21
91550.0
31
0
0
LINE
8
equipment
10
107300.0
20
91630.0
30
0
11
107100.0
21
91630.0
31
0
0
LINE
8
equipment
10
105300.0
20
91630.0
30
0
11
103400.0
21
91630.0
31
0
0
LINE
8
equipment
10
101600.0
20
91630.0
30
0
11
99700.0
21
91630.0
31
0
0
LINE
8
equipment
10
97900.0
20
91630.0
30
0
11
97700.0
21
91630.0
31
0
0
LINE
8
equipment
10
107300.0
20
91800.0
30
0
11
107300.0
21
91880.0
31
0
0
LINE
8
equipment
10
97700.0
20
91800.0
30
0
11
97700.0
21
91880.0
31
0
0
LINE
8
equipment
10
107300.0
20
91800.0
30
0
11
107100.0
21
91800.0
31
0
0
LINE
8
equipment
10
105300.0
20
91800.0
30
0
11
103400.0
21
91800.0
31
0
0
LINE
8
equipment
10
101600.0
20
91800.0
30
0
11
99700.0
21
91800.0
31
0
0
LINE
8
equipment
10
97900.0
20
91800.0
30
0
11
97700.0
21
91800.0
31
0
0
LINE
8
equipment
10
107300.0
20
91880.0
30
0
11
107100.0
21
91880.0
31
0
0
LINE
8
equipment
10
105300.0
20
91880.0
30
0
11
103400.0
21
91880.0
31
0
0
LINE
8
equipment
10
101600.0
20
91880.0
30
0
11
99700.0
21
91880.0
31
0
0
LINE
8
equipment
10
97900.0
20
91880.0
30
0
11
97700.0
21
91880.0
31
0
0
LINE
8
equipment
10
107300.0
20
92050.0
30
0
11
107300.0
21
92130.0
31
0
0
LINE
8
equipment
10
97700.0
20
92050.0
30
0
11
97700.0
21
92130.0
31
0
0
LINE
8
equipment
10
107300.0
20
92050.0
30
0
11
107100.0
21
92050.0
31
0
0
LINE
8
equipment
10
105300.0
20
92050.0
30
0
11
103400.0
21
92050.0
31
0
0
LINE
8
equipment
10
101600.0
20
92050.0
30
0
11
99700.0
21
92050.0
31
0
0
LINE
8
equipment
10
97900.0
20
92050.0
30
0
11
97700.0
21
92050.0
31
0
0
LINE
8
equipment
10
107300.0
20
92130.0
30
0
11
107100.0
21
92130.0
31
0
0
LINE
8
equipment
10
105300.0
20
92130.0
30
0
11
103400.0
21
92130.0
31
0
0
LINE
8
equipment
10
101600.0
20
92130.0
30
0
11
99700.0
21
92130.0
31
0
0
LINE
8
equipment
10
97900.0
20
92130.0
30
0
11
97700.0
21
92130.0
31
0
0
LINE
8
equipment
10
107300.0
20
92300.0
30
0
11
107300.0
21
92380.0
31
0
0
LINE
8
equipment
10
97700.0
20
92300.0
30
0
11
97700.0
21
92380.0
31
0
0
LINE
8
equipment
10
107300.0
20
92300.0
30
0
11
107100.0
21
92300.0
31
0
0
LINE
8
equipment
10
105300.0
20
92300.0
30
0
11
103400.0
21
92300.0
31
0
0
LINE
8
equipment
10
101600.0
20
92300.0
30
0
11
99700.0
21
92300.0
31
0
0
LINE
8
equipment
10
97900.0
20
92300.0
30
0
11
97700.0
21
92300.0
31
0
0
LINE
8
equipment
10
107300.0
20
92380.0
30
0
11
107100.0
21
92380.0
31
0
0
LINE
8
equipment
10
105300.0
20
92380.0
30
0
11
103400.0
21
92380.0
31
0
0
LINE
8
equipment
10
101600.0
20
92380.0
30
0
11
99700.0
21
92380.0
31
0
0
LINE
8
equipment
10
97900.0
20
92380.0
30
0
11
97700.0
21
92380.0
31
0
0
LINE
8
equipment
10
107300.0
20
92550.0
30
0
11
107300.0
21
92630.0
31
0
0
LINE
8
equipment
10
97700.0
20
92550.0
30
0
11
97700.0
21
92630.0
31
0
0
LINE
8
equipment
10
107300.0
20
92550.0
30
0
11
107100.0
21
92550.0
31
0
0
LINE
8
equipment
10
105300.0
20
92550.0
30
0
11
103400.0
21
92550.0
31
0
0
LINE
8
equipment
10
101600.0
20
92550.0
30
0
11
99700.0
21
92550.0
31
0
0
LINE
8
equipment
10
97900.0
20
92550.0
30
0
11
97700.0
21
92550.0
31
0
0
LINE
8
equipment
10
107300.0
20
92630.0
30
0
11
107100.0
21
92630.0
31
0
0
LINE
8
equipment
10
105300.0
20
92630.0
30
0
11
103400.0
21
92630.0
31
0
0
LINE
8
equipment
10
101600.0
20
92630.0
30
0
11
99700.0
21
92630.0
31
0
0
LINE
8
equipment
10
97900.0
20
92630.0
30
0
11
97700.0
21
92630.0
31
0
0
LINE
8
equipment
10
107300.0
20
92800.0
30
0
11
107300.0
21
92880.0
31
0
0
LINE
8
equipment
10
97700.0
20
92800.0
30
0
11
97700.0
21
92880.0
31
0
0
LINE
8
equipment
10
107300.0
20
92800.0
30
0
11
107100.0
21
92800.0
31
0
0
LINE
8
equipment
10
105300.0
20
92800.0
30
0
11
103400.0
21
92800.0
31
0
0
LINE
8
equipment
10
101600.0
20
92800.0
30
0
11
99700.0
21
92800.0
31
0
0
LINE
8
equipment
10
97900.0
20
92800.0
30
0
11
97700.0
21
92800.0
31
0
0
LINE
8
equipment
10
107300.0
20
92880.0
30
0
11
107100.0
21
92880.0
31
0
0
LINE
8
equipment
10
105300.0
20
92880.0
30
0
11
103400.0
21
92880.0
31
0
0
LINE
8
equipment
10
101600.0
20
92880.0
30
0
11
99700.0
21
92880.0
31
0
0
LINE
8
equipment
10
97900.0
20
92880.0
30
0
11
97700.0
21
92880.0
31
0
0
LINE
8
equipment
10
107300.0
20
93050.0
30
0
11
107300.0
21
93130.0
31
0
0
LINE
8
equipment
10
97700.0
20
93050.0
30
0
11
97700.0
21
93130.0
31
0
0
LINE
8
equipment
10
107300.0
20
93050.0
30
0
11
107100.0
21
93050.0
31
0
0
LINE
8
equipment
10
105300.0
20
93050.0
30
0
11
103400.0
21
93050.0
31
0
0
LINE
8
equipment
10
101600.0
20
93050.0
30
0
11
99700.0
21
93050.0
31
0
0
LINE
8
equipment
10
97900.0
20
93050.0
30
0
11
97700.0
21
93050.0
31
0
0
LINE
8
equipment
10
107300.0
20
93130.0
30
0
11
107100.0
21
93130.0
31
0
0
LINE
8
equipment
10
105300.0
20
93130.0
30
0
11
103400.0
21
93130.0
31
0
0
LINE
8
equipment
10
101600.0
20
93130.0
30
0
11
99700.0
21
93130.0
31
0
0
LINE
8
equipment
10
97900.0
20
93130.0
30
0
11
97700.0
21
93130.0
31
0
0
LINE
8
equipment
10
107300.0
20
93300.0
30
0
11
107300.0
21
93380.0
31
0
0
LINE
8
equipment
10
97700.0
20
93300.0
30
0
11
97700.0
21
93380.0
31
0
0
LINE
8
equipment
10
107300.0
20
93300.0
30
0
11
107100.0
21
93300.0
31
0
0
LINE
8
equipment
10
105300.0
20
93300.0
30
0
11
103400.0
21
93300.0
31
0
0
LINE
8
equipment
10
101600.0
20
93300.0
30
0
11
99700.0
21
93300.0
31
0
0
LINE
8
equipment
10
97900.0
20
93300.0
30
0
11
97700.0
21
93300.0
31
0
0
LINE
8
equipment
10
107300.0
20
93380.0
30
0
11
107100.0
21
93380.0
31
0
0
LINE
8
equipment
10
105300.0
20
93380.0
30
0
11
103400.0
21
93380.0
31
0
0
LINE
8
equipment
10
101600.0
20
93380.0
30
0
11
99700.0
21
93380.0
31
0
0
LINE
8
equipment
10
97900.0
20
93380.0
30
0
11
97700.0
21
93380.0
31
0
0
LINE
8
equipment
10
107300.0
20
93550.0
30
0
11
107300.0
21
93630.0
31
0
0
LINE
8
equipment
10
97700.0
20
93550.0
30
0
11
97700.0
21
93630.0
31
0
0
LINE
8
equipment
10
107300.0
20
93550.0
30
0
11
107100.0
21
93550.0
31
0
0
LINE
8
equipment
10
105300.0
20
93550.0
30
0
11
103400.0
21
93550.0
31
0
0
LINE
8
equipment
10
101600.0
20
93550.0
30
0
11
99700.0
21
93550.0
31
0
0
LINE
8
equipment
10
97900.0
20
93550.0
30
0
11
97700.0
21
93550.0
31
0
0
LINE
8
equipment
10
107300.0
20
93630.0
30
0
11
107100.0
21
93630.0
31
0
0
LINE
8
equipment
10
105300.0
20
93630.0
30
0
11
103400.0
21
93630.0
31
0
0
LINE
8
equipment
10
101600.0
20
93630.0
30
0
11
99700.0
21
93630.0
31
0
0
LINE
8
equipment
10
97900.0
20
93630.0
30
0
11
97700.0
21
93630.0
31
0
0
LINE
8
equipment
10
79200.0
20
90500.0
30
0
11
79200.0
21
91000.0
31
0
0
LINE
8
equipment
10
68400.0
20
90500.0
30
0
11
68400.0
21
91000.0
31
0
0
LINE
8
equipment
10
79200.0
20
90500.0
30
0
11
68400.0
21
90500.0
31
0
0
LINE
8
equipment
10
79200.0
20
91000.0
30
0
11
68400.0
21
91000.0
31
0
0
LINE
8
equipment
10
78800.0
20
91000.0
30
0
11
78800.0
21
94300.0
31
0
0
LINE
8
equipment
10
68800.0
20
91000.0
30
0
11
68800.0
21
94300.0
31
0
0
LINE
8
equipment
10
78800.0
20
94300.0
30
0
11
68800.0
21
94300.0
31
0
0
LINE
8
equipment
10
78400.0
20
91400.0
30
0
11
78400.0
21
93700.0
31
0
0
LINE
8
equipment
10
76600.0
20
91400.0
30
0
11
76600.0
21
93700.0
31
0
0
LINE
8
equipment
10
78400.0
20
91400.0
30
0
11
76600.0
21
91400.0
31
0
0
LINE
8
equipment
10
78400.0
20
93700.0
30
0
11
76600.0
21
93700.0
31
0
0
LINE
8
equipment
10
75000.0
20
94600.0
30
0
11
75025.06999999999
21
94600.0
31
0
0
LINE
8
equipment
10
75025.06999999999
20
94600.0
30
0
11
75099.03
21
94600.0
31
0
0
LINE
8
equipment
10
75099.03
20
94600.0
30
0
11
75218.17
21
94600.0
31
0
0
LINE
8
equipment
10
75218.17
20
94600.0
30
0
11
75376.51
21
94600.0
31
0
0
LINE
8
equipment
10
75376.51
20
94600.0
30
0
11
75566.12
21
94600.0
31
0
0
LINE
8
equipment
10
75566.12
20
94600.0
30
0
11
75777.48
21
94600.0
31
0
0
LINE
8
equipment
10
75777.48
20
94600.0
30
0
11
76000.0
21
94600.0
31
0
0
LINE
8
equipment
10
76000.0
20
94600.0
30
0
11
76222.52
21
94600.0
31
0
0
LINE
8
equipment
10
76222.52
20
94600.0
30
0
11
76433.88
21
94600.0
31
0
0
LINE
8
equipment
10
76433.88
20
94600.0
30
0
11
76623.49
21
94600.0
31
0
0
LINE
8
equipment
10
76623.49
20
94600.0
30
0
11
76781.83
21
94600.0
31
0
0
LINE
8
equipment
10
76781.83
20
94600.0
30
0
11
76900.97
21
94600.0
31
0
0
LINE
8
equipment
10
76900.97
20
94600.0
30
0
11
76974.93000000001
21
94600.0
31
0
0
LINE
8
equipment
10
76974.93000000001
20
94600.0
30
0
11
77000.0
21
94600.0
31
0
0
LINE
8
equipment
10
75000.0
20
94300.0
30
0
11
75000.0
21
94600.0
31
0
0
LINE
8
equipment
10
74700.0
20
91400.0
30
0
11
74700.0
21
93700.0
31
0
0
LINE
8
equipment
10
72900.0
20
91400.0
30
0
11
72900.0
21
93700.0
31
0
0
LINE
8
equipment
10
74700.0
20
91400.0
30
0
11
72900.0
21
91400.0
31
0
0
LINE
8
equipment
10
74700.0
20
93700.0
30
0
11
72900.0
21
93700.0
31
0
0
LINE
8
equipment
10
72800.0
20
94600.0
30
0
11
72825.06999999999
21
94600.0
31
0
0
LINE
8
equipment
10
72825.06999999999
20
94600.0
30
0
11
72899.03
21
94600.0
31
0
0
LINE
8
equipment
10
72899.03
20
94600.0
30
0
11
73018.17
21
94600.0
31
0
0
LINE
8
equipment
10
73018.17
20
94600.0
30
0
11
73176.51
21
94600.0
31
0
0
LINE
8
equipment
10
73176.51
20
94600.0
30
0
11
73366.12
21
94600.0
31
0
0
LINE
8
equipment
10
73366.12
20
94600.0
30
0
11
73577.48000000001
21
94600.0
31
0
0
LINE
8
equipment
10
73577.48000000001
20
94600.0
30
0
11
73800.0
21
94600.0
31
0
0
LINE
8
equipment
10
73800.0
20
94600.0
30
0
11
74022.52
21
94600.0
31
0
0
LINE
8
equipment
10
74022.52
20
94600.0
30
0
11
74233.88
21
94600.0
31
0
0
LINE
8
equipment
10
74233.88
20
94600.0
30
0
11
74423.49
21
94600.0
31
0
0
LINE
8
equipment
10
74423.49
20
94600.0
30
0
11
74581.83
21
94600.0
31
0
0
LINE
8
equipment
10
74581.83
20
94600.0
30
0
11
74700.97
21
94600.0
31
0
0
LINE
8
equipment
10
74700.97
20
94600.0
30
0
11
74774.93
21
94600.0
31
0
0
LINE
8
equipment
10
74774.93
20
94600.0
30
0
11
74800.0
21
94600.0
31
0
0
LINE
8
equipment
10
72800.0
20
94300.0
30
0
11
72800.0
21
94600.0
31
0
0
LINE
8
equipment
10
71000.0
20
91400.0
30
0
11
71000.0
21
93700.0
31
0
0
LINE
8
equipment
10
69200.0
20
91400.0
30
0
11
69200.0
21
93700.0
31
0
0
LINE
8
equipment
10
71000.0
20
91400.0
30
0
11
69200.0
21
91400.0
31
0
0
LINE
8
equipment
10
71000.0
20
93700.0
30
0
11
69200.0
21
93700.0
31
0
0
LINE
8
equipment
10
70600.0
20
94600.0
30
0
11
70625.06999999999
21
94600.0
31
0
0
LINE
8
equipment
10
70625.06999999999
20
94600.0
30
0
11
70699.03
21
94600.0
31
0
0
LINE
8
equipment
10
70699.03
20
94600.0
30
0
11
70818.17
21
94600.0
31
0
0
LINE
8
equipment
10
70818.17
20
94600.0
30
0
11
70976.51
21
94600.0
31
0
0
LINE
8
equipment
10
70976.51
20
94600.0
30
0
11
71166.12000000001
21
94600.0
31
0
0
LINE
8
equipment
10
71166.12000000001
20
94600.0
30
0
11
71377.48
21
94600.0
31
0
0
LINE
8
equipment
10
71377.48
20
94600.0
30
0
11
71600.0
21
94600.0
31
0
0
LINE
8
equipment
10
71600.0
20
94600.0
30
0
11
71822.52
21
94600.0
31
0
0
LINE
8
equipment
10
71822.52
20
94600.0
30
0
11
72033.87999999999
21
94600.0
31
0
0
LINE
8
equipment
10
72033.87999999999
20
94600.0
30
0
11
72223.49
21
94600.0
31
0
0
LINE
8
equipment
10
72223.49
20
94600.0
30
0
11
72381.83
21
94600.0
31
0
0
LINE
8
equipment
10
72381.83
20
94600.0
30
0
11
72500.97
21
94600.0
31
0
0
LINE
8
equipment
10
72500.97
20
94600.0
30
0
11
72574.93
21
94600.0
31
0
0
LINE
8
equipment
10
72574.93
20
94600.0
30
0
11
72600.0
21
94600.0
31
0
0
LINE
8
equipment
10
70600.0
20
94300.0
30
0
11
70600.0
21
94600.0
31
0
0
LINE
8
equipment
10
78600.0
20
91300.0
30
0
11
78600.0
21
91380.0
31
0
0
LINE
8
equipment
10
69000.0
20
91300.0
30
0
11
69000.0
21
91380.0
31
0
0
LINE
8
equipment
10
78600.0
20
91300.0
30
0
11
69000.0
21
91300.0
31
0
0
LINE
8
equipment
10
78600.0
20
91380.0
30
0
11
69000.0
21
91380.0
31
0
0
LINE
8
equipment
10
78600.0
20
91550.0
30
0
11
78600.0
21
91630.0
31
0
0
LINE
8
equipment
10
69000.0
20
91550.0
30
0
11
69000.0
21
91630.0
31
0
0
LINE
8
equipment
10
78600.0
20
91550.0
30
0
11
78400.0
21
91550.0
31
0
0
LINE
8
equipment
10
76600.0
20
91550.0
30
0
11
74700.0
21
91550.0
31
0
0
LINE
8
equipment
10
72900.0
20
91550.0
30
0
11
71000.0
21
91550.0
31
0
0
LINE
8
equipment
10
69200.0
20
91550.0
30
0
11
69000.0
21
91550.0
31
0
0
LINE
8
equipment
10
78600.0
20
91630.0
30
0
11
78400.0
21
91630.0
31
0
0
LINE
8
equipment
10
76600.0
20
91630.0
30
0
11
74700.0
21
91630.0
31
0
0
LINE
8
equipment
10
72900.0
20
91630.0
30
0
11
71000.0
21
91630.0
31
0
0
LINE
8
equipment
10
69200.0
20
91630.0
30
0
11
69000.0
21
91630.0
31
0
0
LINE
8
equipment
10
78600.0
20
91800.0
30
0
11
78600.0
21
91880.0
31
0
0
LINE
8
equipment
10
69000.0
20
91800.0
30
0
11
69000.0
21
91880.0
31
0
0
LINE
8
equipment
10
78600.0
20
91800.0
30
0
11
78400.0
21
91800.0
31
0
0
LINE
8
equipment
10
76600.0
20
91800.0
30
0
11
74700.0
21
91800.0
31
0
0
LINE
8
equipment
10
72900.0
20
91800.0
30
0
11
71000.0
21
91800.0
31
0
0
LINE
8
equipment
10
69200.0
20
91800.0
30
0
11
69000.0
21
91800.0
31
0
0
LINE
8
equipment
10
78600.0
20
91880.0
30
0
11
78400.0
21
91880.0
31
0
0
LINE
8
equipment
10
76600.0
20
91880.0
30
0
11
74700.0
21
91880.0
31
0
0
LINE
8
equipment
10
72900.0
20
91880.0
30
0
11
71000.0
21
91880.0
31
0
0
LINE
8
equipment
10
69200.0
20
91880.0
30
0
11
69000.0
21
91880.0
31
0
0
LINE
8
equipment
10
78600.0
20
92050.0
30
0
11
78600.0
21
92130.0
31
0
0
LINE
8
equipment
10
69000.0
20
92050.0
30
0
11
69000.0
21
92130.0
31
0
0
LINE
8
equipment
10
78600.0
20
92050.0
30
0
11
78400.0
21
92050.0
31
0
0
LINE
8
equipment
10
76600.0
20
92050.0
30
0
11
74700.0
21
92050.0
31
0
0
LINE
8
equipment
10
72900.0
20
92050.0
30
0
11
71000.0
21
92050.0
31
0
0
LINE
8
equipment
10
69200.0
20
92050.0
30
0
11
69000.0
21
92050.0
31
0
0
LINE
8
equipment
10
78600.0
20
92130.0
30
0
11
78400.0
21
92130.0
31
0
0
LINE
8
equipment
10
76600.0
20
92130.0
30
0
11
74700.0
21
92130.0
31
0
0
LINE
8
equipment
10
72900.0
20
92130.0
30
0
11
71000.0
21
92130.0
31
0
0
LINE
8
equipment
10
69200.0
20
92130.0
30
0
11
69000.0
21
92130.0
31
0
0
LINE
8
equipment
10
78600.0
20
92300.0
30
0
11
78600.0
21
92380.0
31
0
0
LINE
8
equipment
10
69000.0
20
92300.0
30
0
11
69000.0
21
92380.0
31
0
0
LINE
8
equipment
10
78600.0
20
92300.0
30
0
11
78400.0
21
92300.0
31
0
0
LINE
8
equipment
10
76600.0
20
92300.0
30
0
11
74700.0
21
92300.0
31
0
0
LINE
8
equipment
10
72900.0
20
92300.0
30
0
11
71000.0
21
92300.0
31
0
0
LINE
8
equipment
10
69200.0
20
92300.0
30
0
11
69000.0
21
92300.0
31
0
0
LINE
8
equipment
10
78600.0
20
92380.0
30
0
11
78400.0
21
92380.0
31
0
0
LINE
8
equipment
10
76600.0
20
92380.0
30
0
11
74700.0
21
92380.0
31
0
0
LINE
8
equipment
10
72900.0
20
92380.0
30
0
11
71000.0
21
92380.0
31
0
0
LINE
8
equipment
10
69200.0
20
92380.0
30
0
11
69000.0
21
92380.0
31
0
0
LINE
8
equipment
10
78600.0
20
92550.0
30
0
11
78600.0
21
92630.0
31
0
0
LINE
8
equipment
10
69000.0
20
92550.0
30
0
11
69000.0
21
92630.0
31
0
0
LINE
8
equipment
10
78600.0
20
92550.0
30
0
11
78400.0
21
92550.0
31
0
0
LINE
8
equipment
10
76600.0
20
92550.0
30
0
11
74700.0
21
92550.0
31
0
0
LINE
8
equipment
10
72900.0
20
92550.0
30
0
11
71000.0
21
92550.0
31
0
0
LINE
8
equipment
10
69200.0
20
92550.0
30
0
11
69000.0
21
92550.0
31
0
0
LINE
8
equipment
10
78600.0
20
92630.0
30
0
11
78400.0
21
92630.0
31
0
0
LINE
8
equipment
10
76600.0
20
92630.0
30
0
11
74700.0
21
92630.0
31
0
0
LINE
8
equipment
10
72900.0
20
92630.0
30
0
11
71000.0
21
92630.0
31
0
0
LINE
8
equipment
10
69200.0
20
92630.0
30
0
11
69000.0
21
92630.0
31
0
0
LINE
8
equipment
10
78600.0
20
92800.0
30
0
11
78600.0
21
92880.0
31
0
0
LINE
8
equipment
10
69000.0
20
92800.0
30
0
11
69000.0
21
92880.0
31
0
0
LINE
8
equipment
10
78600.0
20
92800.0
30
0
11
78400.0
21
92800.0
31
0
0
LINE
8
equipment
10
76600.0
20
92800.0
30
0
11
74700.0
21
92800.0
31
0
0
LINE
8
equipment
10
72900.0
20
92800.0
30
0
11
71000.0
21
92800.0
31
0
0
LINE
8
equipment
10
69200.0
20
92800.0
30
0
11
69000.0
21
92800.0
31
0
0
LINE
8
equipment
10
78600.0
20
92880.0
30
0
11
78400.0
21
92880.0
31
0
0
LINE
8
equipment
10
76600.0
20
92880.0
30
0
11
74700.0
21
92880.0
31
0
0
LINE
8
equipment
10
72900.0
20
92880.0
30
0
11
71000.0
21
92880.0
31
0
0
LINE
8
equipment
10
69200.0
20
92880.0
30
0
11
69000.0
21
92880.0
31
0
0
LINE
8
equipment
10
78600.0
20
93050.0
30
0
11
78600.0
21
93130.0
31
0
0
LINE
8
equipment
10
69000.0
20
93050.0
30
0
11
69000.0
21
93130.0
31
0
0
LINE
8
equipment
10
78600.0
20
93050.0
30
0
11
78400.0
21
93050.0
31
0
0
LINE
8
equipment
10
76600.0
20
93050.0
30
0
11
74700.0
21
93050.0
31
0
0
LINE
8
equipment
10
72900.0
20
93050.0
30
0
11
71000.0
21
93050.0
31
0
0
LINE
8
equipment
10
69200.0
20
93050.0
30
0
11
69000.0
21
93050.0
31
0
0
LINE
8
equipment
10
78600.0
20
93130.0
30
0
11
78400.0
21
93130.0
31
0
0
LINE
8
equipment
10
76600.0
20
93130.0
30
0
11
74700.0
21
93130.0
31
0
0
LINE
8
equipment
10
72900.0
20
93130.0
30
0
11
71000.0
21
93130.0
31
0
0
LINE
8
equipment
10
69200.0
20
93130.0
30
0
11
69000.0
21
93130.0
31
0
0
LINE
8
equipment
10
78600.0
20
93300.0
30
0
11
78600.0
21
93380.0
31
0
0
LINE
8
equipment
10
69000.0
20
93300.0
30
0
11
69000.0
21
93380.0
31
0
0
LINE
8
equipment
10
78600.0
20
93300.0
30
0
11
78400.0
21
93300.0
31
0
0
LINE
8
equipment
10
76600.0
20
93300.0
30
0
11
74700.0
21
93300.0
31
0
0
LINE
8
equipment
10
72900.0
20
93300.0
30
0
11
71000.0
21
93300.0
31
0
0
LINE
8
equipment
10
69200.0
20
93300.0
30
0
11
69000.0
21
93300.0
31
0
0
LINE
8
equipment
10
78600.0
20
93380.0
30
0
11
78400.0
21
93380.0
31
0
0
LINE
8
equipment
10
76600.0
20
93380.0
30
0
11
74700.0
21
93380.0
31
0
0
LINE
8
equipment
10
72900.0
20
93380.0
30
0
11
71000.0
21
93380.0
31
0
0
LINE
8
equipment
10
69200.0
20
93380.0
30
0
11
69000.0
21
93380.0
31
0
0
LINE
8
equipment
10
78600.0
20
93550.0
30
0
11
78600.0
21
93630.0
31
0
0
LINE
8
equipment
10
69000.0
20
93550.0
30
0
11
69000.0
21
93630.0
31
0
0
LINE
8
equipment
10
78600.0
20
93550.0
30
0
11
78400.0
21
93550.0
31
0
0
LINE
8
equipment
10
76600.0
20
93550.0
30
0
11
74700.0
21
93550.0
31
0
0
LINE
8
equipment
10
72900.0
20
93550.0
30
0
11
71000.0
21
93550.0
31
0
0
LINE
8
equipment
10
69200.0
20
93550.0
30
0
11
69000.0
21
93550.0
31
0
0
LINE
8
equipment
10
78600.0
20
93630.0
30
0
11
78400.0
21
93630.0
31
0
0
LINE
8
equipment
10
76600.0
20
93630.0
30
0
11
74700.0
21
93630.0
31
0
0
LINE
8
equipment
10
72900.0
20
93630.0
30
0
11
71000.0
21
93630.0
31
0
0
LINE
8
equipment
10
69200.0
20
93630.0
30
0
11
69000.0
21
93630.0
31
0
0
LINE
8
equipment
10
50500.0
20
90500.0
30
0
11
50500.0
21
91000.0
31
0
0
LINE
8
equipment
10
39700.0
20
90500.0
30
0
11
39700.0
21
91000.0
31
0
0
LINE
8
equipment
10
50500.0
20
90500.0
30
0
11
39700.0
21
90500.0
31
0
0
LINE
8
equipment
10
50500.0
20
91000.0
30
0
11
39700.0
21
91000.0
31
0
0
LINE
8
equipment
10
50100.0
20
91000.0
30
0
11
50100.0
21
94300.0
31
0
0
LINE
8
equipment
10
40100.0
20
91000.0
30
0
11
40100.0
21
94300.0
31
0
0
LINE
8
equipment
10
50100.0
20
94300.0
30
0
11
40100.0
21
94300.0
31
0
0
LINE
8
equipment
10
49700.0
20
91400.0
30
0
11
49700.0
21
93700.0
31
0
0
LINE
8
equipment
10
47900.0
20
91400.0
30
0
11
47900.0
21
93700.0
31
0
0
LINE
8
equipment
10
49700.0
20
91400.0
30
0
11
47900.0
21
91400.0
31
0
0
LINE
8
equipment
10
49700.0
20
93700.0
30
0
11
47900.0
21
93700.0
31
0
0
LINE
8
equipment
10
46300.0
20
94600.0
30
0
11
46325.07
21
94600.0
31
0
0
LINE
8
equipment
10
46325.07
20
94600.0
30
0
11
46399.03
21
94600.0
31
0
0
LINE
8
equipment
10
46399.03
20
94600.0
30
0
11
46518.17
21
94600.0
31
0
0
LINE
8
equipment
10
46518.17
20
94600.0
30
0
11
46676.51
21
94600.0
31
0
0
LINE
8
equipment
10
46676.51
20
94600.0
30
0
11
46866.12
21
94600.0
31
0
0
LINE
8
equipment
10
46866.12
20
94600.0
30
0
11
47077.48
21
94600.0
31
0
0
LINE
8
equipment
10
47077.48
20
94600.0
30
0
11
47300.0
21
94600.0
31
0
0
LINE
8
equipment
10
47300.0
20
94600.0
30
0
11
47522.52
21
94600.0
31
0
0
LINE
8
equipment
10
47522.52
20
94600.0
30
0
11
47733.88
21
94600.0
31
0
0
LINE
8
equipment
10
47733.88
20
94600.0
30
0
11
47923.49
21
94600.0
31
0
0
LINE
8
equipment
10
47923.49
20
94600.0
30
0
11
48081.83
21
94600.0
31
0
0
LINE
8
equipment
10
48081.83
20
94600.0
30
0
11
48200.97
21
94600.0
31
0
0
LINE
8
equipment
10
48200.97
20
94600.0
30
0
11
48274.93
21
94600.0
31
0
0
LINE
8
equipment
10
48274.93
20
94600.0
30
0
11
48300.0
21
94600.0
31
0
0
LINE
8
equipment
10
46300.0
20
94300.0
30
0
11
46300.0
21
94600.0
31
0
0
LINE
8
equipment
10
46000.0
20
91400.0
30
0
11
46000.0
21
93700.0
31
0
0
LINE
8
equipment
10
44200.0
20
91400.0
30
0
11
44200.0
21
93700.0
31
0
0
LINE
8
equipment
10
46000.0
20
91400.0
30
0
11
44200.0
21
91400.0
31
0
0
LINE
8
equipment
10
46000.0
20
93700.0
30
0
11
44200.0
21
93700.0
31
0
0
LINE
8
equipment
10
44100.0
20
94600.0
30
0
11
44125.07
21
94600.0
31
0
0
LINE
8
equipment
10
44125.07
20
94600.0
30
0
11
44199.03
21
94600.0
31
0
0
LINE
8
equipment
10
44199.03
20
94600.0
30
0
11
44318.17
21
94600.0
31
0
0
LINE
8
equipment
10
44318.17
20
94600.0
30
0
11
44476.51
21
94600.0
31
0
0
LINE
8
equipment
10
44476.51
20
94600.0
30
0
11
44666.12
21
94600.0
31
0
0
LINE
8
equipment
10
44666.12
20
94600.0
30
0
11
44877.48
21
94600.0
31
0
0
LINE
8
equipment
10
44877.48
20
94600.0
30
0
11
45100.0
21
94600.0
31
0
0
LINE
8
equipment
10
45100.0
20
94600.0
30
0
11
45322.52
21
94600.0
31
0
0
LINE
8
equipment
10
45322.52
20
94600.0
30
0
11
45533.88
21
94600.0
31
0
0
LINE
8
equipment
10
45533.88
20
94600.0
30
0
11
45723.49
21
94600.0
31
0
0
LINE
8
equipment
10
45723.49
20
94600.0
30
0
11
45881.83
21
94600.0
31
0
0
LINE
8
equipment
10
45881.83
20
94600.0
30
0
11
46000.97
21
94600.0
31
0
0
LINE
8
equipment
10
46000.97
20
94600.0
30
0
11
46074.93
21
94600.0
31
0
0
LINE
8
equipment
10
46074.93
20
94600.0
30
0
11
46100.0
21
94600.0
31
0
0
LINE
8
equipment
10
44100.0
20
94300.0
30
0
11
44100.0
21
94600.0
31
0
0
LINE
8
equipment
10
42300.0
20
91400.0
30
0
11
42300.0
21
93700.0
31
0
0
LINE
8
equipment
10
40500.0
20
91400.0
30
0
11
40500.0
21
93700.0
31
0
0
LINE
8
equipment
10
42300.0
20
91400.0
30
0
11
40500.0
21
91400.0
31
0
0
LINE
8
equipment
10
42300.0
20
93700.0
30
0
11
40500.0
21
93700.0
31
0
0
LINE
8
equipment
10
41900.0
20
94600.0
30
0
11
41925.07
21
94600.0
31
0
0
LINE
8
equipment
10
41925.07
20
94600.0
30
0
11
41999.03
21
94600.0
31
0
0
LINE
8
equipment
10
41999.03
20
94600.0
30
0
11
42118.17
21
94600.0
31
0
0
LINE
8
equipment
10
42118.17
20
94600.0
30
0
11
42276.51
21
94600.0
31
0
0
LINE
8
equipment
10
42276.51
20
94600.0
30
0
11
42466.12
21
94600.0
31
0
0
LINE
8
equipment
10
42466.12
20
94600.0
30
0
11
42677.48
21
94600.0
31
0
0
LINE
8
equipment
10
42677.48
20
94600.0
30
0
11
42900.0
21
94600.0
31
0
0
LINE
8
equipment
10
42900.0
20
94600.0
30
0
11
43122.52
21
94600.0
31
0
0
LINE
8
equipment
10
43122.52
20
94600.0
30
0
11
43333.88
21
94600.0
31
0
0
LINE
8
equipment
10
43333.88
20
94600.0
30
0
11
43523.49
21
94600.0
31
0
0
LINE
8
equipment
10
43523.49
20
94600.0
30
0
11
43681.83
21
94600.0
31
0
0
LINE
8
equipment
10
43681.83
20
94600.0
30
0
11
43800.97
21
94600.0
31
0
0
LINE
8
equipment
10
43800.97
20
94600.0
30
0
11
43874.93
21
94600.0
31
0
0
LINE
8
equipment
10
43874.93
20
94600.0
30
0
11
43900.0
21
94600.0
31
0
0
LINE
8
equipment
10
41900.0
20
94300.0
30
0
11
41900.0
21
94600.0
31
0
0
LINE
8
equipment
10
49900.0
20
91300.0
30
0
11
49900.0
21
91380.0
31
0
0
LINE
8
equipment
10
40300.0
20
91300.0
30
0
11
40300.0
21
91380.0
31
0
0
LINE
8
equipment
10
49900.0
20
91300.0
30
0
11
40300.0
21
91300.0
31
0
0
LINE
8
equipment
10
49900.0
20
91380.0
30
0
11
40300.0
21
91380.0
31
0
0
LINE
8
equipment
10
49900.0
20
91550.0
30
0
11
49900.0
21
91630.0
31
0
0
LINE
8
equipment
10
40300.0
20
91550.0
30
0
11
40300.0
21
91630.0
31
0
0
LINE
8
equipment
10
49900.0
20
91550.0
30
0
11
49700.0
21
91550.0
31
0
0
LINE
8
equipment
10
47900.0
20
91550.0
30
0
11
46000.0
21
91550.0
31
0
0
LINE
8
equipment
10
44200.0
20
91550.0
30
0
11
42300.0
21
91550.0
31
0
0
LINE
8
equipment
10
40500.0
20
91550.0
30
0
11
40300.0
21
91550.0
31
0
0
LINE
8
equipment
10
49900.0
20
91630.0
30
0
11
49700.0
21
91630.0
31
0
0
LINE
8
equipment
10
47900.0
20
91630.0
30
0
11
46000.0
21
91630.0
31
0
0
LINE
8
equipment
10
44200.0
20
91630.0
30
0
11
42300.0
21
91630.0
31
0
0
LINE
8
equipment
10
40500.0
20
91630.0
30
0
11
40300.0
21
91630.0
31
0
0
LINE
8
equipment
10
49900.0
20
91800.0
30
0
11
49900.0
21
91880.0
31
0
0
LINE
8
equipment
10
40300.0
20
91800.0
30
0
11
40300.0
21
91880.0
31
0
0
LINE
8
equipment
10
49900.0
20
91800.0
30
0
11
49700.0
21
91800.0
31
0
0
LINE
8
equipment
10
47900.0
20
91800.0
30
0
11
46000.0
21
91800.0
31
0
0
LINE
8
equipment
10
44200.0
20
91800.0
30
0
11
42300.0
21
91800.0
31
0
0
LINE
8
equipment
10
40500.0
20
91800.0
30
0
11
40300.0
21
91800.0
31
0
0
LINE
8
equipment
10
49900.0
20
91880.0
30
0
11
49700.0
21
91880.0
31
0
0
LINE
8
equipment
10
47900.0
20
91880.0
30
0
11
46000.0
21
91880.0
31
0
0
LINE
8
equipment
10
44200.0
20
91880.0
30
0
11
42300.0
21
91880.0
31
0
0
LINE
8
equipment
10
40500.0
20
91880.0
30
0
11
40300.0
21
91880.0
31
0
0
LINE
8
equipment
10
49900.0
20
92050.0
30
0
11
49900.0
21
92130.0
31
0
0
LINE
8
equipment
10
40300.0
20
92050.0
30
0
11
40300.0
21
92130.0
31
0
0
LINE
8
equipment
10
49900.0
20
92050.0
30
0
11
49700.0
21
92050.0
31
0
0
LINE
8
equipment
10
47900.0
20
92050.0
30
0
11
46000.0
21
92050.0
31
0
0
LINE
8
equipment
10
44200.0
20
92050.0
30
0
11
42300.0
21
92050.0
31
0
0
LINE
8
equipment
10
40500.0
20
92050.0
30
0
11
40300.0
21
92050.0
31
0
0
LINE
8
equipment
10
49900.0
20
92130.0
30
0
11
49700.0
21
92130.0
31
0
0
LINE
8
equipment
10
47900.0
20
92130.0
30
0
11
46000.0
21
92130.0
31
0
0
LINE
8
equipment
10
44200.0
20
92130.0
30
0
11
42300.0
21
92130.0
31
0
0
LINE
8
equipment
10
40500.0
20
92130.0
30
0
11
40300.0
21
92130.0
31
0
0
LINE
8
equipment
10
49900.0
20
92300.0
30
0
11
49900.0
21
92380.0
31
0
0
LINE
8
equipment
10
40300.0
20
92300.0
30
0
11
40300.0
21
92380.0
31
0
0
LINE
8
equipment
10
49900.0
20
92300.0
30
0
11
49700.0
21
92300.0
31
0
0
LINE
8
equipment
10
47900.0
20
92300.0
30
0
11
46000.0
21
92300.0
31
0
0
LINE
8
equipment
10
44200.0
20
92300.0
30
0
11
42300.0
21
92300.0
31
0
0
LINE
8
equipment
10
40500.0
20
92300.0
30
0
11
40300.0
21
92300.0
31
0
0
LINE
8
equipment
10
49900.0
20
92380.0
30
0
11
49700.0
21
92380.0
31
0
0
LINE
8
equipment
10
47900.0
20
92380.0
30
0
11
46000.0
21
92380.0
31
0
0
LINE
8
equipment
10
44200.0
20
92380.0
30
0
11
42300.0
21
92380.0
31
0
0
LINE
8
equipment
10
40500.0
20
92380.0
30
0
11
40300.0
21
92380.0
31
0
0
LINE
8
equipment
10
49900.0
20
92550.0
30
0
11
49900.0
21
92630.0
31
0
0
LINE
8
equipment
10
40300.0
20
92550.0
30
0
11
40300.0
21
92630.0
31
0
0
LINE
8
equipment
10
49900.0
20
92550.0
30
0
11
49700.0
21
92550.0
31
0
0
LINE
8
equipment
10
47900.0
20
92550.0
30
0
11
46000.0
21
92550.0
31
0
0
LINE
8
equipment
10
44200.0
20
92550.0
30
0
11
42300.0
21
92550.0
31
0
0
LINE
8
equipment
10
40500.0
20
92550.0
30
0
11
40300.0
21
92550.0
31
0
0
LINE
8
equipment
10
49900.0
20
92630.0
30
0
11
49700.0
21
92630.0
31
0
0
LINE
8
equipment
10
47900.0
20
92630.0
30
0
11
46000.0
21
92630.0
31
0
0
LINE
8
equipment
10
44200.0
20
92630.0
30
0
11
42300.0
21
92630.0
31
0
0
LINE
8
equipment
10
40500.0
20
92630.0
30
0
11
40300.0
21
92630.0
31
0
0
LINE
8
equipment
10
49900.0
20
92800.0
30
0
11
49900.0
21
92880.0
31
0
0
LINE
8
equipment
10
40300.0
20
92800.0
30
0
11
40300.0
21
92880.0
31
0
0
LINE
8
equipment
10
49900.0
20
92800.0
30
0
11
49700.0
21
92800.0
31
0
0
LINE
8
equipment
10
47900.0
20
92800.0
30
0
11
46000.0
21
92800.0
31
0
0
LINE
8
equipment
10
44200.0
20
92800.0
30
0
11
42300.0
21
92800.0
31
0
0
LINE
8
equipment
10
40500.0
20
92800.0
30
0
11
40300.0
21
92800.0
31
0
0
LINE
8
equipment
10
49900.0
20
92880.0
30
0
11
49700.0
21
92880.0
31
0
0
LINE
8
equipment
10
47900.0
20
92880.0
30
0
11
46000.0
21
92880.0
31
0
0
LINE
8
equipment
10
44200.0
20
92880.0
30
0
11
42300.0
21
92880.0
31
0
0
LINE
8
equipment
10
40500.0
20
92880.0
30
0
11
40300.0
21
92880.0
31
0
0
LINE
8
equipment
10
49900.0
20
93050.0
30
0
11
49900.0
21
93130.0
31
0
0
LINE
8
equipment
10
40300.0
20
93050.0
30
0
11
40300.0
21
93130.0
31
0
0
LINE
8
equipment
10
49900.0
20
93050.0
30
0
11
49700.0
21
93050.0
31
0
0
LINE
8
equipment
10
47900.0
20
93050.0
30
0
11
46000.0
21
93050.0
31
0
0
LINE
8
equipment
10
44200.0
20
93050.0
30
0
11
42300.0
21
93050.0
31
0
0
LINE
8
equipment
10
40500.0
20
93050.0
30
0
11
40300.0
21
93050.0
31
0
0
LINE
8
equipment
10
49900.0
20
93130.0
30
0
11
49700.0
21
93130.0
31
0
0
LINE
8
equipment
10
47900.0
20
93130.0
30
0
11
46000.0
21
93130.0
31
0
0
LINE
8
equipment
10
44200.0
20
93130.0
30
0
11
42300.0
21
93130.0
31
0
0
LINE
8
equipment
10
40500.0
20
93130.0
30
0
11
40300.0
21
93130.0
31
0
0
LINE
8
equipment
10
49900.0
20
93300.0
30
0
11
49900.0
21
93380.0
31
0
0
LINE
8
equipment
10
40300.0
20
93300.0
30
0
11
40300.0
21
93380.0
31
0
0
LINE
8
equipment
10
49900.0
20
93300.0
30
0
11
49700.0
21
93300.0
31
0
0
LINE
8
equipment
10
47900.0
20
93300.0
30
0
11
46000.0
21
93300.0
31
0
0
LINE
8
equipment
10
44200.0
20
93300.0
30
0
11
42300.0
21
93300.0
31
0
0
LINE
8
equipment
10
40500.0
20
93300.0
30
0
11
40300.0
21
93300.0
31
0
0
LINE
8
equipment
10
49900.0
20
93380.0
30
0
11
49700.0
21
93380.0
31
0
0
LINE
8
equipment
10
47900.0
20
93380.0
30
0
11
46000.0
21
93380.0
31
0
0
LINE
8
equipment
10
44200.0
20
93380.0
30
0
11
42300.0
21
93380.0
31
0
0
LINE
8
equipment
10
40500.0
20
93380.0
30
0
11
40300.0
21
93380.0
31
0
0
LINE
8
equipment
10
49900.0
20
93550.0
30
0
11
49900.0
21
93630.0
31
0
0
LINE
8
equipment
10
40300.0
20
93550.0
30
0
11
40300.0
21
93630.0
31
0
0
LINE
8
equipment
10
49900.0
20
93550.0
30
0
11
49700.0
21
93550.0
31
0
0
LINE
8
equipment
10
47900.0
20
93550.0
30
0
11
46000.0
21
93550.0
31
0
0
LINE
8
equipment
10
44200.0
20
93550.0
30
0
11
42300.0
21
93550.0
31
0
0
LINE
8
equipment
10
40500.0
20
93550.0
30
0
11
40300.0
21
93550.0
31
0
0
LINE
8
equipment
10
49900.0
20
93630.0
30
0
11
49700.0
21
93630.0
31
0
0
LINE
8
equipment
10
47900.0
20
93630.0
30
0
11
46000.0
21
93630.0
31
0
0
LINE
8
equipment
10
44200.0
20
93630.0
30
0
11
42300.0
21
93630.0
31
0
0
LINE
8
equipment
10
40500.0
20
93630.0
30
0
11
40300.0
21
93630.0
31
0
0
LINE
8
equipment
10
151100.0
20
96500.0
30
0
11
151135.1
21
96500.0
31
0
0
LINE
8
equipment
10
151135.1
20
96500.0
30
0
11
151238.64
21
96500.0
31
0
0
LINE
8
equipment
10
151238.64
20
96500.0
30
0
11
151405.44
21
96500.0
31
0
0
LINE
8
equipment
10
151405.44
20
96500.0
30
0
11
151627.11000000002
21
96500.0
31
0
0
LINE
8
equipment
10
151627.11000000002
20
96500.0
30
0
11
151892.56
21
96500.0
31
0
0
LINE
8
equipment
10
151892.56
20
96500.0
30
0
11
152188.47
21
96500.0
31
0
0
LINE
8
equipment
10
152188.47
20
96500.0
30
0
11
152500.0
21
96500.0
31
0
0
LINE
8
equipment
10
152500.0
20
96500.0
30
0
11
152811.53
21
96500.0
31
0
0
LINE
8
equipment
10
152811.53
20
96500.0
30
0
11
153107.44
21
96500.0
31
0
0
LINE
8
equipment
10
153107.44
20
96500.0
30
0
11
153372.88999999998
21
96500.0
31
0
0
LINE
8
equipment
10
153372.88999999998
20
96500.0
30
0
11
153594.56
21
96500.0
31
0
0
LINE
8
equipment
10
153594.56
20
96500.0
30
0
11
153761.36
21
96500.0
31
0
0
LINE
8
equipment
10
153761.36
20
96500.0
30
0
11
153864.9
21
96500.0
31
0
0
LINE
8
equipment
10
153864.9
20
96500.0
30
0
11
153900.0
21
96500.0
31
0
0
LINE
8
equipment
10
151100.0
20
91100.0
30
0
11
151100.0
21
96500.0
31
0
0
LINE
8
equipment
10
154500.0
20
90500.0
30
0
11
154500.0
21
91100.0
31
0
0
LINE
8
equipment
10
150500.0
20
90500.0
30
0
11
150500.0
21
91100.0
31
0
0
LINE
8
equipment
10
154500.0
20
90500.0
30
0
11
150500.0
21
90500.0
31
0
0
LINE
8
equipment
10
154500.0
20
91100.0
30
0
11
150500.0
21
91100.0
31
0
0
LINE
8
equipment
10
126100.0
20
96500.0
30
0
11
126135.09999999999
21
96500.0
31
0
0
LINE
8
equipment
10
126135.09999999999
20
96500.0
30
0
11
126238.64
21
96500.0
31
0
0
LINE
8
equipment
10
126238.64
20
96500.0
30
0
11
126405.44
21
96500.0
31
0
0
LINE
8
equipment
10
126405.44
20
96500.0
30
0
11
126627.11
21
96500.0
31
0
0
LINE
8
equipment
10
126627.11
20
96500.0
30
0
11
126892.56
21
96500.0
31
0
0
LINE
8
equipment
10
126892.56
20
96500.0
30
0
11
127188.47
21
96500.0
31
0
0
LINE
8
equipment
10
127188.47
20
96500.0
30
0
11
127500.0
21
96500.0
31
0
0
LINE
8
equipment
10
127500.0
20
96500.0
30
0
11
127811.53
21
96500.0
31
0
0
LINE
8
equipment
10
127811.53
20
96500.0
30
0
11
128107.44
21
96500.0
31
0
0
LINE
8
equipment
10
128107.44
20
96500.0
30
0
11
128372.88999999998
21
96500.0
31
0
0
LINE
8
equipment
10
128372.88999999998
20
96500.0
30
0
11
128594.56
21
96500.0
31
0
0
LINE
8
equipment
10
128594.56
20
96500.0
30
0
11
128761.36
21
96500.0
31
0
0
LINE
8
equipment
10
128761.36
20
96500.0
30
0
11
128864.90000000001
21
96500.0
31
0
0
LINE
8
equipment
10
128864.90000000001
20
96500.0
30
0
11
128900.0
21
96500.0
31
0
0
LINE
8
equipment
10
126100.0
20
91100.0
30
0
11
126100.0
21
96500.0
31
0
0
LINE
8
equipment
10
129500.0
20
90500.0
30
0
11
129500.0
21
91100.0
31
0
0
LINE
8
equipment
10
125500.0
20
90500.0
30
0
11
125500.0
21
91100.0
31
0
0
LINE
8
equipment
10
129500.0
20
90500.0
30
0
11
125500.0
21
90500.0
31
0
0
LINE
8
equipment
10
129500.0
20
91100.0
30
0
11
125500.0
21
91100.0
31
0
0
LINE
8
equipment
10
101100.0
20
96500.0
30
0
11
101135.09999999999
21
96500.0
31
0
0
LINE
8
equipment
10
101135.09999999999
20
96500.0
30
0
11
101238.64
21
96500.0
31
0
0
LINE
8
equipment
10
101238.64
20
96500.0
30
0
11
101405.44
21
96500.0
31
0
0
LINE
8
equipment
10
101405.44
20
96500.0
30
0
11
101627.11
21
96500.0
31
0
0
LINE
8
equipment
10
101627.11
20
96500.0
30
0
11
101892.56
21
96500.0
31
0
0
LINE
8
equipment
10
101892.56
20
96500.0
30
0
11
102188.47
21
96500.0
31
0
0
LINE
8
equipment
10
102188.47
20
96500.0
30
0
11
102500.0
21
96500.0
31
0
0
LINE
8
equipment
10
102500.0
20
96500.0
30
0
11
102811.53
21
96500.0
31
0
0
LINE
8
equipment
10
102811.53
20
96500.0
30
0
11
103107.44
21
96500.0
31
0
0
LINE
8
equipment
10
103107.44
20
96500.0
30
0
11
103372.89
21
96500.0
31
0
0
LINE
8
equipment
10
103372.89
20
96500.0
30
0
11
103594.56
21
96500.0
31
0
0
LINE
8
equipment
10
103594.56
20
96500.0
30
0
11
103761.36
21
96500.0
31
0
0
LINE
8
equipment
10
103761.36
20
96500.0
30
0
11
103864.90000000001
21
96500.0
31
0
0
LINE
8
equipment
10
103864.90000000001
20
96500.0
30
0
11
103900.0
21
96500.0
31
0
0
LINE
8
equipment
10
101100.0
20
91100.0
30
0
11
101100.0
21
96500.0
31
0
0
LINE
8
equipment
10
104500.0
20
90500.0
30
0
11
104500.0
21
91100.0
31
0
0
LINE
8
equipment
10
100500.0
20
90500.0
30
0
11
100500.0
21
91100.0
31
0
0
LINE
8
equipment
10
104500.0
20
90500.0
30
0
11
100500.0
21
90500.0
31
0
0
LINE
8
equipment
10
104500.0
20
91100.0
30
0
11
100500.0
21
91100.0
31
0
0
LINE
8
equipment
10
76100.0
20
96500.0
30
0
11
76135.09999999999
21
96500.0
31
0
0
LINE
8
equipment
10
76135.09999999999
20
96500.0
30
0
11
76238.64
21
96500.0
31
0
0
LINE
8
equipment
10
76238.64
20
96500.0
30
0
11
76405.44
21
96500.0
31
0
0
LINE
8
equipment
10
76405.44
20
96500.0
30
0
11
76627.11
21
96500.0
31
0
0
LINE
8
equipment
10
76627.11
20
96500.0
30
0
11
76892.56
21
96500.0
31
0
0
LINE
8
equipment
10
76892.56
20
96500.0
30
0
11
77188.47
21
96500.0
31
0
0
LINE
8
equipment
10
77188.47
20
96500.0
30
0
11
77500.0
21
96500.0
31
0
0
LINE
8
equipment
10
77500.0
20
96500.0
30
0
11
77811.53
21
96500.0
31
0
0
LINE
8
equipment
10
77811.53
20
96500.0
30
0
11
78107.44
21
96500.0
31
0
0
LINE
8
equipment
10
78107.44
20
96500.0
30
0
11
78372.89
21
96500.0
31
0
0
LINE
8
equipment
10
78372.89
20
96500.0
30
0
11
78594.56
21
96500.0
31
0
0
LINE
8
equipment
10
78594.56
20
96500.0
30
0
11
78761.36
21
96500.0
31
0
0
LINE
8
equipment
10
78761.36
20
96500.0
30
0
11
78864.90000000001
21
96500.0
31
0
0
LINE
8
equipment
10
78864.90000000001
20
96500.0
30
0
11
78900.0
21
96500.0
31
0
0
LINE
8
equipment
10
76100.0
20
91100.0
30
0
11
76100.0
21
96500.0
31
0
0
LINE
8
equipment
10
79500.0
20
90500.0
30
0
11
79500.0
21
91100.0
31
0
0
LINE
8
equipment
10
75500.0
20
90500.0
30
0
11
75500.0
21
91100.0
31
0
0
LINE
8
equipment
10
79500.0
20
90500.0
30
0
11
75500.0
21
90500.0
31
0
0
LINE
8
equipment
10
79500.0
20
91100.0
30
0
11
75500.0
21
91100.0
31
0
0
LINE
8
equipment
10
51100.0
20
96500.0
30
0
11
51135.1
21
96500.0
31
0
0
LINE
8
equipment
10
51135.1
20
96500.0
30
0
11
51238.64
21
96500.0
31
0
0
LINE
8
equipment
10
51238.64
20
96500.0
30
0
11
51405.44
21
96500.0
31
0
0
LINE
8
equipment
10
51405.44
20
96500.0
30
0
11
51627.11
21
96500.0
31
0
0
LINE
8
equipment
10
51627.11
20
96500.0
30
0
11
51892.56
21
96500.0
31
0
0
LINE
8
equipment
10
51892.56
20
96500.0
30
0
11
52188.47
21
96500.0
31
0
0
LINE
8
equipment
10
52188.47
20
96500.0
30
0
11
52500.0
21
96500.0
31
0
0
LINE
8
equipment
10
52500.0
20
96500.0
30
0
11
52811.53
21
96500.0
31
0
0
LINE
8
equipment
10
52811.53
20
96500.0
30
0
11
53107.44
21
96500.0
31
0
0
LINE
8
equipment
10
53107.44
20
96500.0
30
0
11
53372.89
21
96500.0
31
0
0
LINE
8
equipment
10
53372.89
20
96500.0
30
0
11
53594.56
21
96500.0
31
0
0
LINE
8
equipment
10
53594.56
20
96500.0
30
0
11
53761.36
21
96500.0
31
0
0
LINE
8
equipment
10
53761.36
20
96500.0
30
0
11
53864.9
21
96500.0
31
0
0
LINE
8
equipment
10
53864.9
20
96500.0
30
0
11
53900.0
21
96500.0
31
0
0
LINE
8
equipment
10
51100.0
20
91100.0
30
0
11
51100.0
21
96500.0
31
0
0
LINE
8
equipment
10
54500.0
20
90500.0
30
0
11
54500.0
21
91100.0
31
0
0
LINE
8
equipment
10
50500.0
20
90500.0
30
0
11
50500.0
21
91100.0
31
0
0
LINE
8
equipment
10
54500.0
20
90500.0
30
0
11
50500.0
21
90500.0
31
0
0
LINE
8
equipment
10
54500.0
20
91100.0
30
0
11
50500.0
21
91100.0
31
0
0
LINE
8
grid
10
185650.0
20
65099.99999999999
30
0
11
193650.0
21
65099.99999999999
31
0
0
TEXT
8
annotation
10
189025.0
20
65699.99999999999
30
0
40
1250.0
1
F0 +0.00m
50
0
0
LINE
8
grid
10
185650.0
20
71350.0
30
0
11
193650.0
21
71350.0
31
0
0
TEXT
8
annotation
10
189025.0
20
71949.99999999999
30
0
40
1250.0
1
F1 +6.25m
50
0
0
LINE
8
grid
10
185650.0
20
77600.0
30
0
11
193650.0
21
77600.0
31
0
0
TEXT
8
annotation
10
188400.0
20
78199.99999999999
30
0
40
1250.0
1
F2 +12.50m
50
0
0
LINE
8
grid
10
185650.0
20
83850.0
30
0
11
193650.0
21
83850.0
31
0
0
TEXT
8
annotation
10
188400.0
20
84449.99999999999
30
0
40
1250.0
1
F3 +18.75m
50
0
0
LINE
8
grid
10
185650.0
20
90100.0
30
0
11
193650.0
21
90100.0
31
0
0
TEXT
8
annotation
10
188400.0
20
90700.0
30
0
40
1250.0
1
RF +25.00m
50
0
0
LINE
8
dimension
10
20349.999999999993
20
60000.0
30
0
11
184650.0
21
60000.0
31
0
0
LINE
8
dimension
10
19849.999999999993
20
59500.0
30
0
11
20849.999999999993
21
60500.0
31
0
0
LINE
8
dimension
10
184150.0
20
59500.0
30
0
11
185150.0
21
60500.0
31
0
0
TEXT
8
annotation
10
93875.0
20
60750.0
30
0
40
1500.0
1
164,300 mm shown extent
50
0
0
LINE
8
frame
10
7000
20
29500
30
0
11
203000
21
29500
31
0
0
TEXT
8
annotation
10
7000
20
25500
30
0
40
1750.0
1
CONCEPT DESIGN | IMAGE-INFERRED | NOT FOR CONSTRUCTION
50
0
0
TEXT
8
annotation
10
7000
20
19000.0
30
0
40
1325.0
1
Source: two campus AI images + fab1.jpg; official analogues documented in analysis/cad/.
50
0
0
TEXT
8
annotation
10
7000
20
16800.00000000001
30
0
40
1325.0
1
CAD model in mm; site coordinates X east, Y north, Z up. Internal layouts and member sizes are design estimates.
50
0
0
TEXT
8
annotation
10
7000
20
14599.999999999995
30
0
40
1325.0
1
Plans/sections are extracted from actual FreeCAD BRep. Elevations project component outlines; hidden edges omitted per component.
50
0
0
TEXT
8
annotation
10
7000
20
12400.000000000005
30
0
40
1325.0
1
Civic wing roofs and skylight may differ from the nominal building height; inspect actual geometry and parameter aliases.
50
0
0
TEXT
8
annotation
10
7000
20
10199.999999999989
30
0
40
1325.0
1
No process certification, structural verification, measured survey, or construction approval is implied.
50
0
0
TEXT
8
annotation
10
178500.0
20
5500
30
0
40
1400.0
1
2026-09-30  |  FreeCAD 1.1.4  |  mm
50
0
0
ENDSEC
0
EOF
