0
SECTION
2
HEADER
9
$ACADVER
1
AC1009
9
$INSUNITS
70
4
0
ENDSEC
0
SECTION
2
ENTITIES
0
LINE
8
frame
10
28000
20
1160000
30
0
11
1652000
21
1160000
31
0
0
LINE
8
frame
10
1652000
20
1160000
30
0
11
1652000
21
28000
31
0
0
LINE
8
frame
10
1652000
20
28000
30
0
11
28000
21
28000
31
0
0
LINE
8
frame
10
28000
20
28000
30
0
11
28000
21
1160000
31
0
0
TEXT
8
annotation
10
56000
20
1116000
30
0
40
16800.0
1
PHOENIX SCIENCE PARK
50
0
0
TEXT
8
annotation
10
56000
20
1084000
30
0
40
20000.0
1
SITE / Floor plan
50
0
0
TEXT
8
annotation
10
1540800.0
20
1116000
30
0
40
12800.0
1
A3  |  1:4000
50
0
0
TEXT
8
annotation
10
1504000.0
20
1084000
30
0
40
12000.0
1
CAD-SITE-PLAN  /  R1
50
0
0
LINE
8
frame
10
56000
20
1064000
30
0
11
1624000
21
1064000
31
0
0
LINE
8
datum
10
320000.0
20
314666.99999999994
30
0
11
1320000.0
21
314666.99999999994
31
0
0
LINE
8
datum
10
1320000.0
20
314666.99999999994
30
0
11
1320000.0
21
981333.0000000001
31
0
0
LINE
8
datum
10
1320000.0
20
981333.0000000001
30
0
11
320000.0
21
981333.0000000001
31
0
0
LINE
8
datum
10
320000.0
20
981333.0000000001
30
0
11
320000.0
21
314666.99999999994
31
0
0
LINE
8
geometry
10
723000.0
20
610000.0
30
0
11
917000.0
21
610000.0
31
0
0
LINE
8
geometry
10
917000.0
20
610000.0
30
0
11
917000.0
21
670000.0
31
0
0
LINE
8
geometry
10
917000.0
20
670000.0
30
0
11
723000.0
21
670000.0
31
0
0
LINE
8
geometry
10
723000.0
20
670000.0
30
0
11
723000.0
21
610000.0
31
0
0
LINE
8
geometry
10
953000.0
20
385000.0
30
0
11
1203000.0
21
385000.0
31
0
0
LINE
8
geometry
10
1203000.0
20
385000.0
30
0
11
1203000.0
21
475000.0
31
0
0
LINE
8
geometry
10
1203000.0
20
475000.0
30
0
11
953000.0
21
475000.0
31
0
0
LINE
8
geometry
10
953000.0
20
475000.0
30
0
11
953000.0
21
385000.0
31
0
0
LINE
8
geometry
10
437000.0
20
385000.0
30
0
11
687000.0
21
385000.0
31
0
0
LINE
8
geometry
10
687000.0
20
385000.0
30
0
11
687000.0
21
475000.0
31
0
0
LINE
8
geometry
10
687000.0
20
475000.0
30
0
11
437000.0
21
475000.0
31
0
0
LINE
8
geometry
10
437000.0
20
475000.0
30
0
11
437000.0
21
385000.0
31
0
0
LINE
8
geometry
10
1118000.0
20
582500.0
30
0
11
1282000.0
21
582500.0
31
0
0
LINE
8
geometry
10
1282000.0
20
582500.0
30
0
11
1282000.0
21
699500.0
31
0
0
LINE
8
geometry
10
1282000.0
20
699500.0
30
0
11
1118000.0
21
699500.0
31
0
0
LINE
8
geometry
10
1118000.0
20
699500.0
30
0
11
1118000.0
21
582500.0
31
0
0
LINE
8
geometry
10
358000.0
20
582500.0
30
0
11
522000.0
21
582500.0
31
0
0
LINE
8
geometry
10
522000.0
20
582500.0
30
0
11
522000.0
21
699500.0
31
0
0
LINE
8
geometry
10
522000.0
20
699500.0
30
0
11
358000.0
21
699500.0
31
0
0
LINE
8
geometry
10
358000.0
20
699500.0
30
0
11
358000.0
21
582500.0
31
0
0
LINE
8
geometry
10
761000.0
20
865000.0
30
0
11
879000.0
21
865000.0
31
0
0
LINE
8
geometry
10
879000.0
20
865000.0
30
0
11
879000.0
21
905000.0
31
0
0
LINE
8
geometry
10
879000.0
20
905000.0
30
0
11
761000.0
21
905000.0
31
0
0
LINE
8
geometry
10
761000.0
20
905000.0
30
0
11
761000.0
21
865000.0
31
0
0
LINE
8
geometry
10
1047500.0
20
767000.0
30
0
11
1108500.0
21
767000.0
31
0
0
LINE
8
geometry
10
1108500.0
20
767000.0
30
0
11
1108500.0
21
801000.0
31
0
0
LINE
8
geometry
10
1108500.0
20
801000.0
30
0
11
1047500.0
21
801000.0
31
0
0
LINE
8
geometry
10
1047500.0
20
801000.0
30
0
11
1047500.0
21
767000.0
31
0
0
LINE
8
geometry
10
531500.0
20
767000.0
30
0
11
592500.0
21
767000.0
31
0
0
LINE
8
geometry
10
592500.0
20
767000.0
30
0
11
592500.0
21
801000.0
31
0
0
LINE
8
geometry
10
592500.0
20
801000.0
30
0
11
531500.0
21
801000.0
31
0
0
LINE
8
geometry
10
531500.0
20
801000.0
30
0
11
531500.0
21
767000.0
31
0
0
LINE
8
grid
10
320000.0
20
312166.99999999994
30
0
11
320000.0
21
985833.0000000001
31
0
0
TEXT
8
annotation
10
317500.0
20
993833.0000000001
30
0
40
10000.0
1
1
50
0
0
LINE
8
grid
10
820000.0
20
312166.99999999994
30
0
11
820000.0
21
985833.0000000001
31
0
0
TEXT
8
annotation
10
817500.0
20
993833.0000000001
30
0
40
10000.0
1
2
50
0
0
LINE
8
grid
10
1320000.0
20
312166.99999999994
30
0
11
1320000.0
21
985833.0000000001
31
0
0
TEXT
8
annotation
10
1317500.0
20
993833.0000000001
30
0
40
10000.0
1
3
50
0
0
LINE
8
grid
10
316000.0
20
314666.99999999994
30
0
11
1324000.0
21
314666.99999999994
31
0
0
TEXT
8
annotation
10
303000.0
20
310666.99999999994
30
0
40
10000.0
1
A
50
0
0
LINE
8
grid
10
316000.0
20
648000.0
30
0
11
1324000.0
21
648000.0
31
0
0
TEXT
8
annotation
10
303000.0
20
644000.0
30
0
40
10000.0
1
B
50
0
0
LINE
8
grid
10
316000.0
20
981333.0000000001
30
0
11
1324000.0
21
981333.0000000001
31
0
0
TEXT
8
annotation
10
303000.0
20
977333.0000000001
30
0
40
10000.0
1
C
50
0
0
LINE
8
dimension
10
320000.0
20
266666.99999999994
30
0
11
1320000.0
21
266666.99999999994
31
0
0
LINE
8
dimension
10
316000.0
20
262666.99999999994
30
0
11
324000.0
21
270666.99999999994
31
0
0
LINE
8
dimension
10
1316000.0
20
262666.99999999994
30
0
11
1324000.0
21
270666.99999999994
31
0
0
TEXT
8
annotation
10
760000.0
20
272666.99999999994
30
0
40
12000.0
1
1,000,000 mm overall
50
0
0
LINE
8
dimension
10
1364000.0
20
981333.0000000001
30
0
11
1364000.0
21
314666.99999999994
31
0
0
TEXT
8
annotation
10
1376000.0
20
648000.0
30
0
40
12000.0
1
666,666
50
0
0
TEXT
8
annotation
10
1524000.0
20
1008000
30
0
40
16000.0
1
N
50
0
0
LINE
8
annotation
10
1528000
20
996000
30
0
11
1516000
21
960000
31
0
0
LINE
8
annotation
10
1516000
20
960000
30
0
11
1528000
21
972000
31
0
0
LINE
8
annotation
10
1528000
20
972000
30
0
11
1540000
21
960000
31
0
0
LINE
8
annotation
10
1540000
20
960000
30
0
11
1528000
21
996000
31
0
0
LINE
8
frame
10
56000
20
236000
30
0
11
1624000
21
236000
31
0
0
TEXT
8
annotation
10
56000
20
204000
30
0
40
14000.0
1
CONCEPT DESIGN | IMAGE-INFERRED | NOT FOR CONSTRUCTION
50
0
0
TEXT
8
annotation
10
56000
20
152000.0
30
0
40
10600.0
1
Source: two campus AI images + fab1.jpg; official analogues documented in analysis/cad/.
50
0
0
TEXT
8
annotation
10
56000
20
134400.0000000001
30
0
40
10600.0
1
CAD model in mm; site coordinates X east, Y north, Z up. Internal layouts and member sizes are design estimates.
50
0
0
TEXT
8
annotation
10
56000
20
116799.99999999996
30
0
40
10600.0
1
Plans/sections are extracted from actual FreeCAD BRep. Elevations project component outlines; hidden edges omitted per component.
50
0
0
TEXT
8
annotation
10
56000
20
99200.00000000004
30
0
40
10600.0
1
Civic wing roofs and skylight may differ from the nominal building height; inspect actual geometry and parameter aliases.
50
0
0
TEXT
8
annotation
10
56000
20
81599.99999999991
30
0
40
10600.0
1
No process certification, structural verification, measured survey, or construction approval is implied.
50
0
0
TEXT
8
annotation
10
1428000.0
20
44000
30
0
40
11200.0
1
2026-09-30  |  FreeCAD 1.1.4  |  mm
50
0
0
TEXT
8
annotation
10
814000.0
20
640000.0
30
0
40
12000.0
1
HQ
50
0
0
TEXT
8
annotation
10
1066000.0
20
430000.0
30
0
40
12000.0
1
FAB1
50
0
0
TEXT
8
annotation
10
550000.0
20
430000.0
30
0
40
12000.0
1
FAB2
50
0
0
TEXT
8
annotation
10
1191000.0
20
641000.0
30
0
40
12000.0
1
LAB
50
0
0
TEXT
8
annotation
10
428000.0
20
641000.0
30
0
40
12000.0
1
MASK
50
0
0
TEXT
8
annotation
10
790000.0
20
885000.0
30
0
40
12000.0
1
EXHIBITION
50
0
0
TEXT
8
annotation
10
1054000.0
20
784000.0
30
0
40
12000.0
1
DINING_E
50
0
0
TEXT
8
annotation
10
538000.0
20
784000.0
30
0
40
12000.0
1
DINING_W
50
0
0
ENDSEC
0
EOF
