0
SECTION
2
HEADER
9
$ACADVER
1
AC1015
9
$INSUNITS
70
4
0
ENDSEC
0
SECTION
2
ENTITIES
0
LINE
8
interiors
10
231000.0
20
122500.0
30
0
11
231000.0
21
149500.0
31
0
0
LINE
8
interiors
10
231000.0
20
122500.0
30
0
11
251300.0
21
122500.0
31
0
0
LINE
8
interiors
10
251300.0
20
122500.0
30
0
11
253700.0
21
122500.0
31
0
0
LINE
8
interiors
10
253700.0
20
122500.0
30
0
11
274000.0
21
122500.0
31
0
0
LINE
8
interiors
10
231000.0
20
122500.0
30
0
11
274000.0
21
122500.0
31
0
0
LINE
8
interiors
10
231000.0
20
149500.0
30
0
11
274000.0
21
149500.0
31
0
0
LINE
8
interiors
10
274000.0
20
122500.0
30
0
11
274000.0
21
149500.0
31
0
0
LINE
8
interiors
10
273880.0
20
122620.0
30
0
11
231120.0
21
122620.0
31
0
0
LINE
8
interiors
10
273880.0
20
122620.0
30
0
11
273880.0
21
149380.0
31
0
0
LINE
8
interiors
10
273880.0
20
149380.0
30
0
11
231120.0
21
149380.0
31
0
0
LINE
8
interiors
10
231120.0
20
122620.0
30
0
11
231120.0
21
149380.0
31
0
0
LINE
8
interiors
10
241320.0
20
149500.0
30
0
11
263680.0
21
149500.0
31
0
0
LINE
8
interiors
10
253700.0
20
122500.0
30
0
11
253700.0
21
122620.0
31
0
0
LINE
8
interiors
10
273880.0
20
122620.0
30
0
11
253700.0
21
122620.0
31
0
0
LINE
8
interiors
10
251300.0
20
122620.0
30
0
11
231120.0
21
122620.0
31
0
0
LINE
8
interiors
10
251300.0
20
122500.0
30
0
11
251300.0
21
122620.0
31
0
0
LINE
8
interiors
10
251300.0
20
122620.0
30
0
11
253700.0
21
122620.0
31
0
0
LINE
8
interiors
10
241320.0
20
149380.0
30
0
11
263680.0
21
149380.0
31
0
0
LINE
8
interiors
10
241320.0
20
149380.0
30
0
11
241320.0
21
149500.0
31
0
0
LINE
8
interiors
10
263680.0
20
149380.0
30
0
11
263680.0
21
149500.0
31
0
0
LINE
8
interiors
10
241320.0
20
149477.5
30
0
11
241320.0
21
149522.5
31
0
0
LINE
8
interiors
10
263680.0
20
149477.5
30
0
11
263680.0
21
149522.5
31
0
0
LINE
8
interiors
10
241320.0
20
149477.5
30
0
11
263680.0
21
149477.5
31
0
0
LINE
8
interiors
10
241320.0
20
149522.5
30
0
11
263680.0
21
149522.5
31
0
0
LINE
8
interiors
10
231125.0
20
122625.0
30
0
11
231125.0
21
149375.0
31
0
0
LINE
8
interiors
10
273875.0
20
122625.0
30
0
11
273875.0
21
149375.0
31
0
0
LINE
8
interiors
10
231125.0
20
122625.0
30
0
11
273875.0
21
122625.0
31
0
0
LINE
8
interiors
10
231125.0
20
149375.0
30
0
11
273875.0
21
149375.0
31
0
0
LINE
8
interiors
10
251345.0
20
122380.0
30
0
11
251345.0
21
122620.0
31
0
0
LINE
8
interiors
10
251415.0
20
122380.0
30
0
11
251415.0
21
122620.0
31
0
0
LINE
8
interiors
10
251345.0
20
122380.0
30
0
11
251415.0
21
122380.0
31
0
0
LINE
8
interiors
10
251345.0
20
122620.0
30
0
11
251415.0
21
122620.0
31
0
0
LINE
8
interiors
10
253585.0
20
122380.0
30
0
11
253585.0
21
122620.0
31
0
0
LINE
8
interiors
10
253655.0
20
122380.0
30
0
11
253655.0
21
122620.0
31
0
0
LINE
8
interiors
10
253585.0
20
122380.0
30
0
11
253655.0
21
122380.0
31
0
0
LINE
8
interiors
10
253585.0
20
122620.0
30
0
11
253655.0
21
122620.0
31
0
0
LINE
8
interiors
10
251350.0
20
122380.0
30
0
11
251350.0
21
122620.0
31
0
0
LINE
8
interiors
10
253650.0
20
122380.0
30
0
11
253650.0
21
122620.0
31
0
0
LINE
8
interiors
10
251350.0
20
122380.0
30
0
11
253650.0
21
122380.0
31
0
0
LINE
8
interiors
10
251350.0
20
122620.0
30
0
11
253650.0
21
122620.0
31
0
0
LINE
8
interiors
10
251430.39
20
122590.49
30
0
11
251389.61
21
122609.51
31
0
0
LINE
8
interiors
10
251886.82
20
123569.3
30
0
11
251846.04
21
123588.32
31
0
0
LINE
8
interiors
10
251430.39
20
122590.49
30
0
11
251886.82
21
123569.3
31
0
0
LINE
8
interiors
10
251389.61
20
122609.51
30
0
11
251846.04
21
123588.32
31
0
0
LINE
8
interiors
10
236780.0
20
135760.0
30
0
11
236780.0
21
136240.0
31
0
0
LINE
8
interiors
10
237260.0
20
135760.0
30
0
11
237260.0
21
136240.0
31
0
0
LINE
8
interiors
10
236780.0
20
135760.0
30
0
11
237260.0
21
135760.0
31
0
0
LINE
8
interiors
10
236780.0
20
136240.0
30
0
11
237260.0
21
136240.0
31
0
0
LINE
8
interiors
10
236780.0
20
136177.5
30
0
11
236780.0
21
136242.5
31
0
0
LINE
8
interiors
10
237260.0
20
136177.5
30
0
11
237260.0
21
136242.5
31
0
0
LINE
8
interiors
10
236780.0
20
136177.5
30
0
11
237260.0
21
136177.5
31
0
0
LINE
8
interiors
10
236780.0
20
136242.5
30
0
11
237260.0
21
136242.5
31
0
0
LINE
8
interiors
10
236812.5
20
135792.5
30
0
11
236812.5
21
135827.5
31
0
0
LINE
8
interiors
10
236847.5
20
135792.5
30
0
11
236847.5
21
135827.5
31
0
0
LINE
8
interiors
10
236812.5
20
135792.5
30
0
11
236847.5
21
135792.5
31
0
0
LINE
8
interiors
10
236812.5
20
135827.5
30
0
11
236847.5
21
135827.5
31
0
0
LINE
8
interiors
10
236812.5
20
136172.5
30
0
11
236812.5
21
136207.5
31
0
0
LINE
8
interiors
10
236847.5
20
136172.5
30
0
11
236847.5
21
136207.5
31
0
0
LINE
8
interiors
10
236812.5
20
136172.5
30
0
11
236847.5
21
136172.5
31
0
0
LINE
8
interiors
10
236812.5
20
136207.5
30
0
11
236847.5
21
136207.5
31
0
0
LINE
8
interiors
10
237192.5
20
135792.5
30
0
11
237192.5
21
135827.5
31
0
0
LINE
8
interiors
10
237227.5
20
135792.5
30
0
11
237227.5
21
135827.5
31
0
0
LINE
8
interiors
10
237192.5
20
135792.5
30
0
11
237227.5
21
135792.5
31
0
0
LINE
8
interiors
10
237192.5
20
135827.5
30
0
11
237227.5
21
135827.5
31
0
0
LINE
8
interiors
10
237192.5
20
136172.5
30
0
11
237192.5
21
136207.5
31
0
0
LINE
8
interiors
10
237227.5
20
136172.5
30
0
11
237227.5
21
136207.5
31
0
0
LINE
8
interiors
10
237192.5
20
136172.5
30
0
11
237227.5
21
136172.5
31
0
0
LINE
8
interiors
10
237192.5
20
136207.5
30
0
11
237227.5
21
136207.5
31
0
0
LINE
8
interiors
10
238020.0
20
136000.0
30
0
11
237938.12
21
136224.98
31
0
0
LINE
8
interiors
10
237938.12
20
136224.98
30
0
11
237730.78
21
136344.68
31
0
0
LINE
8
interiors
10
237730.78
20
136344.68
30
0
11
237495.0
21
136303.11
31
0
0
LINE
8
interiors
10
237495.0
20
136303.11
30
0
11
237341.11
21
136119.71
31
0
0
LINE
8
interiors
10
237341.11
20
136119.71
30
0
11
237341.11
21
135880.29
31
0
0
LINE
8
interiors
10
237341.11
20
135880.29
30
0
11
237495.0
21
135696.89
31
0
0
LINE
8
interiors
10
237495.0
20
135696.89
30
0
11
237730.78
21
135655.32
31
0
0
LINE
8
interiors
10
237730.78
20
135655.32
30
0
11
237938.12
21
135775.02
31
0
0
LINE
8
interiors
10
237938.12
20
135775.02
30
0
11
238020.0
21
136000.0
31
0
0
LINE
8
interiors
10
237710.0
20
136000.0
30
0
11
237650.0
21
136034.64
31
0
0
LINE
8
interiors
10
237650.0
20
136034.64
30
0
11
237650.0
21
135965.36
31
0
0
LINE
8
interiors
10
237650.0
20
135965.36
30
0
11
237710.0
21
136000.0
31
0
0
LINE
8
interiors
10
242972.0
20
135760.0
30
0
11
242972.0
21
136240.0
31
0
0
LINE
8
interiors
10
243452.0
20
135760.0
30
0
11
243452.0
21
136240.0
31
0
0
LINE
8
interiors
10
242972.0
20
135760.0
30
0
11
243452.0
21
135760.0
31
0
0
LINE
8
interiors
10
242972.0
20
136240.0
30
0
11
243452.0
21
136240.0
31
0
0
LINE
8
interiors
10
242972.0
20
136177.5
30
0
11
242972.0
21
136242.5
31
0
0
LINE
8
interiors
10
243452.0
20
136177.5
30
0
11
243452.0
21
136242.5
31
0
0
LINE
8
interiors
10
242972.0
20
136177.5
30
0
11
243452.0
21
136177.5
31
0
0
LINE
8
interiors
10
242972.0
20
136242.5
30
0
11
243452.0
21
136242.5
31
0
0
LINE
8
interiors
10
243004.5
20
135792.5
30
0
11
243004.5
21
135827.5
31
0
0
LINE
8
interiors
10
243039.5
20
135792.5
30
0
11
243039.5
21
135827.5
31
0
0
LINE
8
interiors
10
243004.5
20
135792.5
30
0
11
243039.5
21
135792.5
31
0
0
LINE
8
interiors
10
243004.5
20
135827.5
30
0
11
243039.5
21
135827.5
31
0
0
LINE
8
interiors
10
243004.5
20
136172.5
30
0
11
243004.5
21
136207.5
31
0
0
LINE
8
interiors
10
243039.5
20
136172.5
30
0
11
243039.5
21
136207.5
31
0
0
LINE
8
interiors
10
243004.5
20
136172.5
30
0
11
243039.5
21
136172.5
31
0
0
LINE
8
interiors
10
243004.5
20
136207.5
30
0
11
243039.5
21
136207.5
31
0
0
LINE
8
interiors
10
243384.5
20
135792.5
30
0
11
243384.5
21
135827.5
31
0
0
LINE
8
interiors
10
243419.5
20
135792.5
30
0
11
243419.5
21
135827.5
31
0
0
LINE
8
interiors
10
243384.5
20
135792.5
30
0
11
243419.5
21
135792.5
31
0
0
LINE
8
interiors
10
243384.5
20
135827.5
30
0
11
243419.5
21
135827.5
31
0
0
LINE
8
interiors
10
243384.5
20
136172.5
30
0
11
243384.5
21
136207.5
31
0
0
LINE
8
interiors
10
243419.5
20
136172.5
30
0
11
243419.5
21
136207.5
31
0
0
LINE
8
interiors
10
243384.5
20
136172.5
30
0
11
243419.5
21
136172.5
31
0
0
LINE
8
interiors
10
243384.5
20
136207.5
30
0
11
243419.5
21
136207.5
31
0
0
LINE
8
interiors
10
244212.0
20
136000.0
30
0
11
244130.12
21
136224.98
31
0
0
LINE
8
interiors
10
244130.12
20
136224.98
30
0
11
243922.78
21
136344.68
31
0
0
LINE
8
interiors
10
243922.78
20
136344.68
30
0
11
243687.0
21
136303.11
31
0
0
LINE
8
interiors
10
243687.0
20
136303.11
30
0
11
243533.11
21
136119.71
31
0
0
LINE
8
interiors
10
243533.11
20
136119.71
30
0
11
243533.11
21
135880.29
31
0
0
LINE
8
interiors
10
243533.11
20
135880.29
30
0
11
243687.0
21
135696.89
31
0
0
LINE
8
interiors
10
243687.0
20
135696.89
30
0
11
243922.78
21
135655.32
31
0
0
LINE
8
interiors
10
243922.78
20
135655.32
30
0
11
244130.12
21
135775.02
31
0
0
LINE
8
interiors
10
244130.12
20
135775.02
30
0
11
244212.0
21
136000.0
31
0
0
LINE
8
interiors
10
243902.0
20
136000.0
30
0
11
243842.0
21
136034.64
31
0
0
LINE
8
interiors
10
243842.0
20
136034.64
30
0
11
243842.0
21
135965.36
31
0
0
LINE
8
interiors
10
243842.0
20
135965.36
30
0
11
243902.0
21
136000.0
31
0
0
LINE
8
interiors
10
249164.0
20
135760.0
30
0
11
249164.0
21
136240.0
31
0
0
LINE
8
interiors
10
249644.0
20
135760.0
30
0
11
249644.0
21
136240.0
31
0
0
LINE
8
interiors
10
249164.0
20
135760.0
30
0
11
249644.0
21
135760.0
31
0
0
LINE
8
interiors
10
249164.0
20
136240.0
30
0
11
249644.0
21
136240.0
31
0
0
LINE
8
interiors
10
249164.0
20
136177.5
30
0
11
249164.0
21
136242.5
31
0
0
LINE
8
interiors
10
249644.0
20
136177.5
30
0
11
249644.0
21
136242.5
31
0
0
LINE
8
interiors
10
249164.0
20
136177.5
30
0
11
249644.0
21
136177.5
31
0
0
LINE
8
interiors
10
249164.0
20
136242.5
30
0
11
249644.0
21
136242.5
31
0
0
LINE
8
interiors
10
249196.5
20
135792.5
30
0
11
249196.5
21
135827.5
31
0
0
LINE
8
interiors
10
249231.5
20
135792.5
30
0
11
249231.5
21
135827.5
31
0
0
LINE
8
interiors
10
249196.5
20
135792.5
30
0
11
249231.5
21
135792.5
31
0
0
LINE
8
interiors
10
249196.5
20
135827.5
30
0
11
249231.5
21
135827.5
31
0
0
LINE
8
interiors
10
249196.5
20
136172.5
30
0
11
249196.5
21
136207.5
31
0
0
LINE
8
interiors
10
249231.5
20
136172.5
30
0
11
249231.5
21
136207.5
31
0
0
LINE
8
interiors
10
249196.5
20
136172.5
30
0
11
249231.5
21
136172.5
31
0
0
LINE
8
interiors
10
249196.5
20
136207.5
30
0
11
249231.5
21
136207.5
31
0
0
LINE
8
interiors
10
249576.5
20
135792.5
30
0
11
249576.5
21
135827.5
31
0
0
LINE
8
interiors
10
249611.5
20
135792.5
30
0
11
249611.5
21
135827.5
31
0
0
LINE
8
interiors
10
249576.5
20
135792.5
30
0
11
249611.5
21
135792.5
31
0
0
LINE
8
interiors
10
249576.5
20
135827.5
30
0
11
249611.5
21
135827.5
31
0
0
LINE
8
interiors
10
249576.5
20
136172.5
30
0
11
249576.5
21
136207.5
31
0
0
LINE
8
interiors
10
249611.5
20
136172.5
30
0
11
249611.5
21
136207.5
31
0
0
LINE
8
interiors
10
249576.5
20
136172.5
30
0
11
249611.5
21
136172.5
31
0
0
LINE
8
interiors
10
249576.5
20
136207.5
30
0
11
249611.5
21
136207.5
31
0
0
LINE
8
interiors
10
250404.0
20
136000.0
30
0
11
250322.12
21
136224.98
31
0
0
LINE
8
interiors
10
250322.12
20
136224.98
30
0
11
250114.78
21
136344.68
31
0
0
LINE
8
interiors
10
250114.78
20
136344.68
30
0
11
249879.0
21
136303.11
31
0
0
LINE
8
interiors
10
249879.0
20
136303.11
30
0
11
249725.11
21
136119.71
31
0
0
LINE
8
interiors
10
249725.11
20
136119.71
30
0
11
249725.11
21
135880.29
31
0
0
LINE
8
interiors
10
249725.11
20
135880.29
30
0
11
249879.0
21
135696.89
31
0
0
LINE
8
interiors
10
249879.0
20
135696.89
30
0
11
250114.78
21
135655.32
31
0
0
LINE
8
interiors
10
250114.78
20
135655.32
30
0
11
250322.12
21
135775.02
31
0
0
LINE
8
interiors
10
250322.12
20
135775.02
30
0
11
250404.0
21
136000.0
31
0
0
LINE
8
interiors
10
250094.0
20
136000.0
30
0
11
250034.0
21
136034.64
31
0
0
LINE
8
interiors
10
250034.0
20
136034.64
30
0
11
250034.0
21
135965.36
31
0
0
LINE
8
interiors
10
250034.0
20
135965.36
30
0
11
250094.0
21
136000.0
31
0
0
LINE
8
interiors
10
255356.0
20
135760.0
30
0
11
255356.0
21
136240.0
31
0
0
LINE
8
interiors
10
255836.0
20
135760.0
30
0
11
255836.0
21
136240.0
31
0
0
LINE
8
interiors
10
255356.0
20
135760.0
30
0
11
255836.0
21
135760.0
31
0
0
LINE
8
interiors
10
255356.0
20
136240.0
30
0
11
255836.0
21
136240.0
31
0
0
LINE
8
interiors
10
255356.0
20
136177.5
30
0
11
255356.0
21
136242.5
31
0
0
LINE
8
interiors
10
255836.0
20
136177.5
30
0
11
255836.0
21
136242.5
31
0
0
LINE
8
interiors
10
255356.0
20
136177.5
30
0
11
255836.0
21
136177.5
31
0
0
LINE
8
interiors
10
255356.0
20
136242.5
30
0
11
255836.0
21
136242.5
31
0
0
LINE
8
interiors
10
255388.5
20
135792.5
30
0
11
255388.5
21
135827.5
31
0
0
LINE
8
interiors
10
255423.5
20
135792.5
30
0
11
255423.5
21
135827.5
31
0
0
LINE
8
interiors
10
255388.5
20
135792.5
30
0
11
255423.5
21
135792.5
31
0
0
LINE
8
interiors
10
255388.5
20
135827.5
30
0
11
255423.5
21
135827.5
31
0
0
LINE
8
interiors
10
255388.5
20
136172.5
30
0
11
255388.5
21
136207.5
31
0
0
LINE
8
interiors
10
255423.5
20
136172.5
30
0
11
255423.5
21
136207.5
31
0
0
LINE
8
interiors
10
255388.5
20
136172.5
30
0
11
255423.5
21
136172.5
31
0
0
LINE
8
interiors
10
255388.5
20
136207.5
30
0
11
255423.5
21
136207.5
31
0
0
LINE
8
interiors
10
255768.5
20
135792.5
30
0
11
255768.5
21
135827.5
31
0
0
LINE
8
interiors
10
255803.5
20
135792.5
30
0
11
255803.5
21
135827.5
31
0
0
LINE
8
interiors
10
255768.5
20
135792.5
30
0
11
255803.5
21
135792.5
31
0
0
LINE
8
interiors
10
255768.5
20
135827.5
30
0
11
255803.5
21
135827.5
31
0
0
LINE
8
interiors
10
255768.5
20
136172.5
30
0
11
255768.5
21
136207.5
31
0
0
LINE
8
interiors
10
255803.5
20
136172.5
30
0
11
255803.5
21
136207.5
31
0
0
LINE
8
interiors
10
255768.5
20
136172.5
30
0
11
255803.5
21
136172.5
31
0
0
LINE
8
interiors
10
255768.5
20
136207.5
30
0
11
255803.5
21
136207.5
31
0
0
LINE
8
interiors
10
256596.0
20
136000.0
30
0
11
256514.12
21
136224.98
31
0
0
LINE
8
interiors
10
256514.12
20
136224.98
30
0
11
256306.78
21
136344.68
31
0
0
LINE
8
interiors
10
256306.78
20
136344.68
30
0
11
256071.0
21
136303.11
31
0
0
LINE
8
interiors
10
256071.0
20
136303.11
30
0
11
255917.11
21
136119.71
31
0
0
LINE
8
interiors
10
255917.11
20
136119.71
30
0
11
255917.11
21
135880.29
31
0
0
LINE
8
interiors
10
255917.11
20
135880.29
30
0
11
256071.0
21
135696.89
31
0
0
LINE
8
interiors
10
256071.0
20
135696.89
30
0
11
256306.78
21
135655.32
31
0
0
LINE
8
interiors
10
256306.78
20
135655.32
30
0
11
256514.12
21
135775.02
31
0
0
LINE
8
interiors
10
256514.12
20
135775.02
30
0
11
256596.0
21
136000.0
31
0
0
LINE
8
interiors
10
256286.0
20
136000.0
30
0
11
256226.0
21
136034.64
31
0
0
LINE
8
interiors
10
256226.0
20
136034.64
30
0
11
256226.0
21
135965.36
31
0
0
LINE
8
interiors
10
256226.0
20
135965.36
30
0
11
256286.0
21
136000.0
31
0
0
LINE
8
interiors
10
261548.0
20
135760.0
30
0
11
261548.0
21
136240.0
31
0
0
LINE
8
interiors
10
262028.0
20
135760.0
30
0
11
262028.0
21
136240.0
31
0
0
LINE
8
interiors
10
261548.0
20
135760.0
30
0
11
262028.0
21
135760.0
31
0
0
LINE
8
interiors
10
261548.0
20
136240.0
30
0
11
262028.0
21
136240.0
31
0
0
LINE
8
interiors
10
261548.0
20
136177.5
30
0
11
261548.0
21
136242.5
31
0
0
LINE
8
interiors
10
262028.0
20
136177.5
30
0
11
262028.0
21
136242.5
31
0
0
LINE
8
interiors
10
261548.0
20
136177.5
30
0
11
262028.0
21
136177.5
31
0
0
LINE
8
interiors
10
261548.0
20
136242.5
30
0
11
262028.0
21
136242.5
31
0
0
LINE
8
interiors
10
261580.5
20
135792.5
30
0
11
261580.5
21
135827.5
31
0
0
LINE
8
interiors
10
261615.5
20
135792.5
30
0
11
261615.5
21
135827.5
31
0
0
LINE
8
interiors
10
261580.5
20
135792.5
30
0
11
261615.5
21
135792.5
31
0
0
LINE
8
interiors
10
261580.5
20
135827.5
30
0
11
261615.5
21
135827.5
31
0
0
LINE
8
interiors
10
261580.5
20
136172.5
30
0
11
261580.5
21
136207.5
31
0
0
LINE
8
interiors
10
261615.5
20
136172.5
30
0
11
261615.5
21
136207.5
31
0
0
LINE
8
interiors
10
261580.5
20
136172.5
30
0
11
261615.5
21
136172.5
31
0
0
LINE
8
interiors
10
261580.5
20
136207.5
30
0
11
261615.5
21
136207.5
31
0
0
LINE
8
interiors
10
261960.5
20
135792.5
30
0
11
261960.5
21
135827.5
31
0
0
LINE
8
interiors
10
261995.5
20
135792.5
30
0
11
261995.5
21
135827.5
31
0
0
LINE
8
interiors
10
261960.5
20
135792.5
30
0
11
261995.5
21
135792.5
31
0
0
LINE
8
interiors
10
261960.5
20
135827.5
30
0
11
261995.5
21
135827.5
31
0
0
LINE
8
interiors
10
261960.5
20
136172.5
30
0
11
261960.5
21
136207.5
31
0
0
LINE
8
interiors
10
261995.5
20
136172.5
30
0
11
261995.5
21
136207.5
31
0
0
LINE
8
interiors
10
261960.5
20
136172.5
30
0
11
261995.5
21
136172.5
31
0
0
LINE
8
interiors
10
261960.5
20
136207.5
30
0
11
261995.5
21
136207.5
31
0
0
LINE
8
interiors
10
262788.0
20
136000.0
30
0
11
262706.12
21
136224.98
31
0
0
LINE
8
interiors
10
262706.12
20
136224.98
30
0
11
262498.78
21
136344.68
31
0
0
LINE
8
interiors
10
262498.78
20
136344.68
30
0
11
262263.0
21
136303.11
31
0
0
LINE
8
interiors
10
262263.0
20
136303.11
30
0
11
262109.11
21
136119.71
31
0
0
LINE
8
interiors
10
262109.11
20
136119.71
30
0
11
262109.11
21
135880.29
31
0
0
LINE
8
interiors
10
262109.11
20
135880.29
30
0
11
262263.0
21
135696.89
31
0
0
LINE
8
interiors
10
262263.0
20
135696.89
30
0
11
262498.78
21
135655.32
31
0
0
LINE
8
interiors
10
262498.78
20
135655.32
30
0
11
262706.12
21
135775.02
31
0
0
LINE
8
interiors
10
262706.12
20
135775.02
30
0
11
262788.0
21
136000.0
31
0
0
LINE
8
interiors
10
262478.0
20
136000.0
30
0
11
262418.0
21
136034.64
31
0
0
LINE
8
interiors
10
262418.0
20
136034.64
30
0
11
262418.0
21
135965.36
31
0
0
LINE
8
interiors
10
262418.0
20
135965.36
30
0
11
262478.0
21
136000.0
31
0
0
LINE
8
interiors
10
267740.0
20
135760.0
30
0
11
267740.0
21
136240.0
31
0
0
LINE
8
interiors
10
268220.0
20
135760.0
30
0
11
268220.0
21
136240.0
31
0
0
LINE
8
interiors
10
267740.0
20
135760.0
30
0
11
268220.0
21
135760.0
31
0
0
LINE
8
interiors
10
267740.0
20
136240.0
30
0
11
268220.0
21
136240.0
31
0
0
LINE
8
interiors
10
267740.0
20
136177.5
30
0
11
267740.0
21
136242.5
31
0
0
LINE
8
interiors
10
268220.0
20
136177.5
30
0
11
268220.0
21
136242.5
31
0
0
LINE
8
interiors
10
267740.0
20
136177.5
30
0
11
268220.0
21
136177.5
31
0
0
LINE
8
interiors
10
267740.0
20
136242.5
30
0
11
268220.0
21
136242.5
31
0
0
LINE
8
interiors
10
267772.5
20
135792.5
30
0
11
267772.5
21
135827.5
31
0
0
LINE
8
interiors
10
267807.5
20
135792.5
30
0
11
267807.5
21
135827.5
31
0
0
LINE
8
interiors
10
267772.5
20
135792.5
30
0
11
267807.5
21
135792.5
31
0
0
LINE
8
interiors
10
267772.5
20
135827.5
30
0
11
267807.5
21
135827.5
31
0
0
LINE
8
interiors
10
267772.5
20
136172.5
30
0
11
267772.5
21
136207.5
31
0
0
LINE
8
interiors
10
267807.5
20
136172.5
30
0
11
267807.5
21
136207.5
31
0
0
LINE
8
interiors
10
267772.5
20
136172.5
30
0
11
267807.5
21
136172.5
31
0
0
LINE
8
interiors
10
267772.5
20
136207.5
30
0
11
267807.5
21
136207.5
31
0
0
LINE
8
interiors
10
268152.5
20
135792.5
30
0
11
268152.5
21
135827.5
31
0
0
LINE
8
interiors
10
268187.5
20
135792.5
30
0
11
268187.5
21
135827.5
31
0
0
LINE
8
interiors
10
268152.5
20
135792.5
30
0
11
268187.5
21
135792.5
31
0
0
LINE
8
interiors
10
268152.5
20
135827.5
30
0
11
268187.5
21
135827.5
31
0
0
LINE
8
interiors
10
268152.5
20
136172.5
30
0
11
268152.5
21
136207.5
31
0
0
LINE
8
interiors
10
268187.5
20
136172.5
30
0
11
268187.5
21
136207.5
31
0
0
LINE
8
interiors
10
268152.5
20
136172.5
30
0
11
268187.5
21
136172.5
31
0
0
LINE
8
interiors
10
268152.5
20
136207.5
30
0
11
268187.5
21
136207.5
31
0
0
LINE
8
interiors
10
268980.0
20
136000.0
30
0
11
268898.12
21
136224.98
31
0
0
LINE
8
interiors
10
268898.12
20
136224.98
30
0
11
268690.78
21
136344.68
31
0
0
LINE
8
interiors
10
268690.78
20
136344.68
30
0
11
268455.0
21
136303.11
31
0
0
LINE
8
interiors
10
268455.0
20
136303.11
30
0
11
268301.11
21
136119.71
31
0
0
LINE
8
interiors
10
268301.11
20
136119.71
30
0
11
268301.11
21
135880.29
31
0
0
LINE
8
interiors
10
268301.11
20
135880.29
30
0
11
268455.0
21
135696.89
31
0
0
LINE
8
interiors
10
268455.0
20
135696.89
30
0
11
268690.78
21
135655.32
31
0
0
LINE
8
interiors
10
268690.78
20
135655.32
30
0
11
268898.12
21
135775.02
31
0
0
LINE
8
interiors
10
268898.12
20
135775.02
30
0
11
268980.0
21
136000.0
31
0
0
LINE
8
interiors
10
268670.0
20
136000.0
30
0
11
268610.0
21
136034.64
31
0
0
LINE
8
interiors
10
268610.0
20
136034.64
30
0
11
268610.0
21
135965.36
31
0
0
LINE
8
interiors
10
268610.0
20
135965.36
30
0
11
268670.0
21
136000.0
31
0
0
LINE
8
electrical
10
273275.0
20
122575.0
30
0
11
273275.0
21
122825.0
31
0
0
LINE
8
electrical
10
273825.0
20
122575.0
30
0
11
273825.0
21
122825.0
31
0
0
LINE
8
electrical
10
273275.0
20
122575.0
30
0
11
273825.0
21
122575.0
31
0
0
LINE
8
electrical
10
273275.0
20
122825.0
30
0
11
273825.0
21
122825.0
31
0
0
LINE
8
electrical
10
273315.0
20
122547.5
30
0
11
273315.0
21
122582.5
31
0
0
LINE
8
electrical
10
273785.0
20
122547.5
30
0
11
273785.0
21
122582.5
31
0
0
LINE
8
electrical
10
273315.0
20
122547.5
30
0
11
273785.0
21
122547.5
31
0
0
LINE
8
electrical
10
273315.0
20
122582.5
30
0
11
273785.0
21
122582.5
31
0
0
LINE
8
electrical
10
273362.5
20
122510.0
30
0
11
273362.5
21
122550.0
31
0
0
LINE
8
electrical
10
273462.5
20
122510.0
30
0
11
273462.5
21
122550.0
31
0
0
LINE
8
electrical
10
273362.5
20
122510.0
30
0
11
273462.5
21
122510.0
31
0
0
LINE
8
electrical
10
273362.5
20
122550.0
30
0
11
273462.5
21
122550.0
31
0
0
LINE
8
electrical
10
273500.0
20
122510.0
30
0
11
273500.0
21
122550.0
31
0
0
LINE
8
electrical
10
273600.0
20
122510.0
30
0
11
273600.0
21
122550.0
31
0
0
LINE
8
electrical
10
273500.0
20
122510.0
30
0
11
273600.0
21
122510.0
31
0
0
LINE
8
electrical
10
273500.0
20
122550.0
30
0
11
273600.0
21
122550.0
31
0
0
LINE
8
electrical
10
273637.5
20
122510.0
30
0
11
273637.5
21
122550.0
31
0
0
LINE
8
electrical
10
273737.5
20
122510.0
30
0
11
273737.5
21
122550.0
31
0
0
LINE
8
electrical
10
273637.5
20
122510.0
30
0
11
273737.5
21
122510.0
31
0
0
LINE
8
electrical
10
273637.5
20
122550.0
30
0
11
273737.5
21
122550.0
31
0
0
LINE
8
electrical
10
273412.5
20
122495.0
30
0
11
273435.88
21
122495.0
31
0
0
LINE
8
electrical
10
273435.88
20
122495.0
30
0
11
273389.12
21
122495.0
31
0
0
LINE
8
electrical
10
273389.12
20
122495.0
30
0
11
273412.5
21
122495.0
31
0
0
LINE
8
electrical
10
273412.5
20
122520.0
30
0
11
273412.5
21
122495.0
31
0
0
LINE
8
electrical
10
273412.5
20
122520.0
30
0
11
273435.88
21
122520.0
31
0
0
LINE
8
electrical
10
273435.88
20
122520.0
30
0
11
273389.12
21
122520.0
31
0
0
LINE
8
electrical
10
273389.12
20
122520.0
30
0
11
273412.5
21
122520.0
31
0
0
LINE
8
electrical
10
273550.0
20
122495.0
30
0
11
273573.38
21
122495.0
31
0
0
LINE
8
electrical
10
273573.38
20
122495.0
30
0
11
273526.62
21
122495.0
31
0
0
LINE
8
electrical
10
273526.62
20
122495.0
30
0
11
273550.0
21
122495.0
31
0
0
LINE
8
electrical
10
273550.0
20
122520.0
30
0
11
273550.0
21
122495.0
31
0
0
LINE
8
electrical
10
273550.0
20
122520.0
30
0
11
273573.38
21
122520.0
31
0
0
LINE
8
electrical
10
273573.38
20
122520.0
30
0
11
273526.62
21
122520.0
31
0
0
LINE
8
electrical
10
273526.62
20
122520.0
30
0
11
273550.0
21
122520.0
31
0
0
LINE
8
electrical
10
273687.5
20
122495.0
30
0
11
273710.88
21
122495.0
31
0
0
LINE
8
electrical
10
273710.88
20
122495.0
30
0
11
273664.12
21
122495.0
31
0
0
LINE
8
electrical
10
273664.12
20
122495.0
30
0
11
273687.5
21
122495.0
31
0
0
LINE
8
electrical
10
273687.5
20
122520.0
30
0
11
273687.5
21
122495.0
31
0
0
LINE
8
electrical
10
273687.5
20
122520.0
30
0
11
273710.88
21
122520.0
31
0
0
LINE
8
electrical
10
273710.88
20
122520.0
30
0
11
273664.12
21
122520.0
31
0
0
LINE
8
electrical
10
273664.12
20
122520.0
30
0
11
273687.5
21
122520.0
31
0
0
LINE
8
electrical
10
273550.0
20
122700.0
30
0
11
273565.59
21
122700.0
31
0
0
LINE
8
electrical
10
273565.59
20
122700.0
30
0
11
273534.41
21
122700.0
31
0
0
LINE
8
electrical
10
273534.41
20
122700.0
30
0
11
273550.0
21
122700.0
31
0
0
LINE
8
electrical
10
273550.0
20
122200.0
30
0
11
273550.0
21
122700.0
31
0
0
LINE
8
electrical
10
273550.0
20
122200.0
30
0
11
273565.59
21
122200.0
31
0
0
LINE
8
electrical
10
273565.59
20
122200.0
30
0
11
273534.41
21
122200.0
31
0
0
LINE
8
electrical
10
273534.41
20
122200.0
30
0
11
273550.0
21
122200.0
31
0
0
LINE
8
electrical
10
273532.0
20
122700.0
30
0
11
273559.0
21
122715.59
31
0
0
LINE
8
electrical
10
273559.0
20
122715.59
30
0
11
273559.0
21
122684.41
31
0
0
LINE
8
electrical
10
273559.0
20
122684.41
30
0
11
273532.0
21
122700.0
31
0
0
LINE
8
electrical
10
273550.0
20
122700.0
30
0
11
273569.44
21
122700.0
31
0
0
LINE
8
electrical
10
273569.44
20
122700.0
30
0
11
273550.0
21
122700.0
31
0
0
LINE
8
lighting
10
236700.0
20
126500.0
30
0
11
236700.0
21
127140.0
31
0
0
LINE
8
lighting
10
237340.0
20
126500.0
30
0
11
237340.0
21
127140.0
31
0
0
LINE
8
lighting
10
236700.0
20
126500.0
30
0
11
237340.0
21
126500.0
31
0
0
LINE
8
lighting
10
236700.0
20
127140.0
30
0
11
237340.0
21
127140.0
31
0
0
LINE
8
lighting
10
236740.0
20
126540.0
30
0
11
236740.0
21
127100.0
31
0
0
LINE
8
lighting
10
237300.0
20
126540.0
30
0
11
237300.0
21
127100.0
31
0
0
LINE
8
lighting
10
236740.0
20
126540.0
30
0
11
237300.0
21
126540.0
31
0
0
LINE
8
lighting
10
236740.0
20
127100.0
30
0
11
237300.0
21
127100.0
31
0
0
LINE
8
lighting
10
236774.0
20
126550.0
30
0
11
236774.0
21
127090.0
31
0
0
LINE
8
lighting
10
236786.0
20
126550.0
30
0
11
236786.0
21
127090.0
31
0
0
LINE
8
lighting
10
236774.0
20
126550.0
30
0
11
236786.0
21
126550.0
31
0
0
LINE
8
lighting
10
236774.0
20
127090.0
30
0
11
236786.0
21
127090.0
31
0
0
LINE
8
lighting
10
236854.0
20
126550.0
30
0
11
236854.0
21
127090.0
31
0
0
LINE
8
lighting
10
236866.0
20
126550.0
30
0
11
236866.0
21
127090.0
31
0
0
LINE
8
lighting
10
236854.0
20
126550.0
30
0
11
236866.0
21
126550.0
31
0
0
LINE
8
lighting
10
236854.0
20
127090.0
30
0
11
236866.0
21
127090.0
31
0
0
LINE
8
lighting
10
236934.0
20
126550.0
30
0
11
236934.0
21
127090.0
31
0
0
LINE
8
lighting
10
236946.0
20
126550.0
30
0
11
236946.0
21
127090.0
31
0
0
LINE
8
lighting
10
236934.0
20
126550.0
30
0
11
236946.0
21
126550.0
31
0
0
LINE
8
lighting
10
236934.0
20
127090.0
30
0
11
236946.0
21
127090.0
31
0
0
LINE
8
lighting
10
237014.0
20
126550.0
30
0
11
237014.0
21
127090.0
31
0
0
LINE
8
lighting
10
237026.0
20
126550.0
30
0
11
237026.0
21
127090.0
31
0
0
LINE
8
lighting
10
237014.0
20
126550.0
30
0
11
237026.0
21
126550.0
31
0
0
LINE
8
lighting
10
237014.0
20
127090.0
30
0
11
237026.0
21
127090.0
31
0
0
LINE
8
lighting
10
237094.0
20
126550.0
30
0
11
237094.0
21
127090.0
31
0
0
LINE
8
lighting
10
237106.0
20
126550.0
30
0
11
237106.0
21
127090.0
31
0
0
LINE
8
lighting
10
237094.0
20
126550.0
30
0
11
237106.0
21
126550.0
31
0
0
LINE
8
lighting
10
237094.0
20
127090.0
30
0
11
237106.0
21
127090.0
31
0
0
LINE
8
lighting
10
237174.0
20
126550.0
30
0
11
237174.0
21
127090.0
31
0
0
LINE
8
lighting
10
237186.0
20
126550.0
30
0
11
237186.0
21
127090.0
31
0
0
LINE
8
lighting
10
237174.0
20
126550.0
30
0
11
237186.0
21
126550.0
31
0
0
LINE
8
lighting
10
237174.0
20
127090.0
30
0
11
237186.0
21
127090.0
31
0
0
LINE
8
lighting
10
237254.0
20
126550.0
30
0
11
237254.0
21
127090.0
31
0
0
LINE
8
lighting
10
237266.0
20
126550.0
30
0
11
237266.0
21
127090.0
31
0
0
LINE
8
lighting
10
237254.0
20
126550.0
30
0
11
237266.0
21
126550.0
31
0
0
LINE
8
lighting
10
237254.0
20
127090.0
30
0
11
237266.0
21
127090.0
31
0
0
LINE
8
lighting
10
237029.0
20
126820.0
30
0
11
237015.5
21
126827.79
31
0
0
LINE
8
lighting
10
237015.5
20
126827.79
30
0
11
237015.5
21
126812.21
31
0
0
LINE
8
lighting
10
237015.5
20
126812.21
30
0
11
237029.0
21
126820.0
31
0
0
LINE
8
lighting
10
257340.0
20
126500.0
30
0
11
257340.0
21
127140.0
31
0
0
LINE
8
lighting
10
257980.0
20
126500.0
30
0
11
257980.0
21
127140.0
31
0
0
LINE
8
lighting
10
257340.0
20
126500.0
30
0
11
257980.0
21
126500.0
31
0
0
LINE
8
lighting
10
257340.0
20
127140.0
30
0
11
257980.0
21
127140.0
31
0
0
LINE
8
lighting
10
257380.0
20
126540.0
30
0
11
257380.0
21
127100.0
31
0
0
LINE
8
lighting
10
257940.0
20
126540.0
30
0
11
257940.0
21
127100.0
31
0
0
LINE
8
lighting
10
257380.0
20
126540.0
30
0
11
257940.0
21
126540.0
31
0
0
LINE
8
lighting
10
257380.0
20
127100.0
30
0
11
257940.0
21
127100.0
31
0
0
LINE
8
lighting
10
257414.0
20
126550.0
30
0
11
257414.0
21
127090.0
31
0
0
LINE
8
lighting
10
257426.0
20
126550.0
30
0
11
257426.0
21
127090.0
31
0
0
LINE
8
lighting
10
257414.0
20
126550.0
30
0
11
257426.0
21
126550.0
31
0
0
LINE
8
lighting
10
257414.0
20
127090.0
30
0
11
257426.0
21
127090.0
31
0
0
LINE
8
lighting
10
257494.0
20
126550.0
30
0
11
257494.0
21
127090.0
31
0
0
LINE
8
lighting
10
257506.0
20
126550.0
30
0
11
257506.0
21
127090.0
31
0
0
LINE
8
lighting
10
257494.0
20
126550.0
30
0
11
257506.0
21
126550.0
31
0
0
LINE
8
lighting
10
257494.0
20
127090.0
30
0
11
257506.0
21
127090.0
31
0
0
LINE
8
lighting
10
257574.0
20
126550.0
30
0
11
257574.0
21
127090.0
31
0
0
LINE
8
lighting
10
257586.0
20
126550.0
30
0
11
257586.0
21
127090.0
31
0
0
LINE
8
lighting
10
257574.0
20
126550.0
30
0
11
257586.0
21
126550.0
31
0
0
LINE
8
lighting
10
257574.0
20
127090.0
30
0
11
257586.0
21
127090.0
31
0
0
LINE
8
lighting
10
257654.0
20
126550.0
30
0
11
257654.0
21
127090.0
31
0
0
LINE
8
lighting
10
257666.0
20
126550.0
30
0
11
257666.0
21
127090.0
31
0
0
LINE
8
lighting
10
257654.0
20
126550.0
30
0
11
257666.0
21
126550.0
31
0
0
LINE
8
lighting
10
257654.0
20
127090.0
30
0
11
257666.0
21
127090.0
31
0
0
LINE
8
lighting
10
257734.0
20
126550.0
30
0
11
257734.0
21
127090.0
31
0
0
LINE
8
lighting
10
257746.0
20
126550.0
30
0
11
257746.0
21
127090.0
31
0
0
LINE
8
lighting
10
257734.0
20
126550.0
30
0
11
257746.0
21
126550.0
31
0
0
LINE
8
lighting
10
257734.0
20
127090.0
30
0
11
257746.0
21
127090.0
31
0
0
LINE
8
lighting
10
257814.0
20
126550.0
30
0
11
257814.0
21
127090.0
31
0
0
LINE
8
lighting
10
257826.0
20
126550.0
30
0
11
257826.0
21
127090.0
31
0
0
LINE
8
lighting
10
257814.0
20
126550.0
30
0
11
257826.0
21
126550.0
31
0
0
LINE
8
lighting
10
257814.0
20
127090.0
30
0
11
257826.0
21
127090.0
31
0
0
LINE
8
lighting
10
257894.0
20
126550.0
30
0
11
257894.0
21
127090.0
31
0
0
LINE
8
lighting
10
257906.0
20
126550.0
30
0
11
257906.0
21
127090.0
31
0
0
LINE
8
lighting
10
257894.0
20
126550.0
30
0
11
257906.0
21
126550.0
31
0
0
LINE
8
lighting
10
257894.0
20
127090.0
30
0
11
257906.0
21
127090.0
31
0
0
LINE
8
lighting
10
257669.0
20
126820.0
30
0
11
257655.5
21
126827.79
31
0
0
LINE
8
lighting
10
257655.5
20
126827.79
30
0
11
257655.5
21
126812.21
31
0
0
LINE
8
lighting
10
257655.5
20
126812.21
30
0
11
257669.0
21
126820.0
31
0
0
LINE
8
lighting
10
236700.0
20
144860.0
30
0
11
236700.0
21
145500.0
31
0
0
LINE
8
lighting
10
237340.0
20
144860.0
30
0
11
237340.0
21
145500.0
31
0
0
LINE
8
lighting
10
236700.0
20
144860.0
30
0
11
237340.0
21
144860.0
31
0
0
LINE
8
lighting
10
236700.0
20
145500.0
30
0
11
237340.0
21
145500.0
31
0
0
LINE
8
lighting
10
236740.0
20
144900.0
30
0
11
236740.0
21
145460.0
31
0
0
LINE
8
lighting
10
237300.0
20
144900.0
30
0
11
237300.0
21
145460.0
31
0
0
LINE
8
lighting
10
236740.0
20
144900.0
30
0
11
237300.0
21
144900.0
31
0
0
LINE
8
lighting
10
236740.0
20
145460.0
30
0
11
237300.0
21
145460.0
31
0
0
LINE
8
lighting
10
236774.0
20
144910.0
30
0
11
236774.0
21
145450.0
31
0
0
LINE
8
lighting
10
236786.0
20
144910.0
30
0
11
236786.0
21
145450.0
31
0
0
LINE
8
lighting
10
236774.0
20
144910.0
30
0
11
236786.0
21
144910.0
31
0
0
LINE
8
lighting
10
236774.0
20
145450.0
30
0
11
236786.0
21
145450.0
31
0
0
LINE
8
lighting
10
236854.0
20
144910.0
30
0
11
236854.0
21
145450.0
31
0
0
LINE
8
lighting
10
236866.0
20
144910.0
30
0
11
236866.0
21
145450.0
31
0
0
LINE
8
lighting
10
236854.0
20
144910.0
30
0
11
236866.0
21
144910.0
31
0
0
LINE
8
lighting
10
236854.0
20
145450.0
30
0
11
236866.0
21
145450.0
31
0
0
LINE
8
lighting
10
236934.0
20
144910.0
30
0
11
236934.0
21
145450.0
31
0
0
LINE
8
lighting
10
236946.0
20
144910.0
30
0
11
236946.0
21
145450.0
31
0
0
LINE
8
lighting
10
236934.0
20
144910.0
30
0
11
236946.0
21
144910.0
31
0
0
LINE
8
lighting
10
236934.0
20
145450.0
30
0
11
236946.0
21
145450.0
31
0
0
LINE
8
lighting
10
237014.0
20
144910.0
30
0
11
237014.0
21
145450.0
31
0
0
LINE
8
lighting
10
237026.0
20
144910.0
30
0
11
237026.0
21
145450.0
31
0
0
LINE
8
lighting
10
237014.0
20
144910.0
30
0
11
237026.0
21
144910.0
31
0
0
LINE
8
lighting
10
237014.0
20
145450.0
30
0
11
237026.0
21
145450.0
31
0
0
LINE
8
lighting
10
237094.0
20
144910.0
30
0
11
237094.0
21
145450.0
31
0
0
LINE
8
lighting
10
237106.0
20
144910.0
30
0
11
237106.0
21
145450.0
31
0
0
LINE
8
lighting
10
237094.0
20
144910.0
30
0
11
237106.0
21
144910.0
31
0
0
LINE
8
lighting
10
237094.0
20
145450.0
30
0
11
237106.0
21
145450.0
31
0
0
LINE
8
lighting
10
237174.0
20
144910.0
30
0
11
237174.0
21
145450.0
31
0
0
LINE
8
lighting
10
237186.0
20
144910.0
30
0
11
237186.0
21
145450.0
31
0
0
LINE
8
lighting
10
237174.0
20
144910.0
30
0
11
237186.0
21
144910.0
31
0
0
LINE
8
lighting
10
237174.0
20
145450.0
30
0
11
237186.0
21
145450.0
31
0
0
LINE
8
lighting
10
237254.0
20
144910.0
30
0
11
237254.0
21
145450.0
31
0
0
LINE
8
lighting
10
237266.0
20
144910.0
30
0
11
237266.0
21
145450.0
31
0
0
LINE
8
lighting
10
237254.0
20
144910.0
30
0
11
237266.0
21
144910.0
31
0
0
LINE
8
lighting
10
237254.0
20
145450.0
30
0
11
237266.0
21
145450.0
31
0
0
LINE
8
lighting
10
237029.0
20
145180.0
30
0
11
237015.5
21
145187.79
31
0
0
LINE
8
lighting
10
237015.5
20
145187.79
30
0
11
237015.5
21
145172.21
31
0
0
LINE
8
lighting
10
237015.5
20
145172.21
30
0
11
237029.0
21
145180.0
31
0
0
LINE
8
lighting
10
257340.0
20
144860.0
30
0
11
257340.0
21
145500.0
31
0
0
LINE
8
lighting
10
257980.0
20
144860.0
30
0
11
257980.0
21
145500.0
31
0
0
LINE
8
lighting
10
257340.0
20
144860.0
30
0
11
257980.0
21
144860.0
31
0
0
LINE
8
lighting
10
257340.0
20
145500.0
30
0
11
257980.0
21
145500.0
31
0
0
LINE
8
lighting
10
257380.0
20
144900.0
30
0
11
257380.0
21
145460.0
31
0
0
LINE
8
lighting
10
257940.0
20
144900.0
30
0
11
257940.0
21
145460.0
31
0
0
LINE
8
lighting
10
257380.0
20
144900.0
30
0
11
257940.0
21
144900.0
31
0
0
LINE
8
lighting
10
257380.0
20
145460.0
30
0
11
257940.0
21
145460.0
31
0
0
LINE
8
lighting
10
257414.0
20
144910.0
30
0
11
257414.0
21
145450.0
31
0
0
LINE
8
lighting
10
257426.0
20
144910.0
30
0
11
257426.0
21
145450.0
31
0
0
LINE
8
lighting
10
257414.0
20
144910.0
30
0
11
257426.0
21
144910.0
31
0
0
LINE
8
lighting
10
257414.0
20
145450.0
30
0
11
257426.0
21
145450.0
31
0
0
LINE
8
lighting
10
257494.0
20
144910.0
30
0
11
257494.0
21
145450.0
31
0
0
LINE
8
lighting
10
257506.0
20
144910.0
30
0
11
257506.0
21
145450.0
31
0
0
LINE
8
lighting
10
257494.0
20
144910.0
30
0
11
257506.0
21
144910.0
31
0
0
LINE
8
lighting
10
257494.0
20
145450.0
30
0
11
257506.0
21
145450.0
31
0
0
LINE
8
lighting
10
257574.0
20
144910.0
30
0
11
257574.0
21
145450.0
31
0
0
LINE
8
lighting
10
257586.0
20
144910.0
30
0
11
257586.0
21
145450.0
31
0
0
LINE
8
lighting
10
257574.0
20
144910.0
30
0
11
257586.0
21
144910.0
31
0
0
LINE
8
lighting
10
257574.0
20
145450.0
30
0
11
257586.0
21
145450.0
31
0
0
LINE
8
lighting
10
257654.0
20
144910.0
30
0
11
257654.0
21
145450.0
31
0
0
LINE
8
lighting
10
257666.0
20
144910.0
30
0
11
257666.0
21
145450.0
31
0
0
LINE
8
lighting
10
257654.0
20
144910.0
30
0
11
257666.0
21
144910.0
31
0
0
LINE
8
lighting
10
257654.0
20
145450.0
30
0
11
257666.0
21
145450.0
31
0
0
LINE
8
lighting
10
257734.0
20
144910.0
30
0
11
257734.0
21
145450.0
31
0
0
LINE
8
lighting
10
257746.0
20
144910.0
30
0
11
257746.0
21
145450.0
31
0
0
LINE
8
lighting
10
257734.0
20
144910.0
30
0
11
257746.0
21
144910.0
31
0
0
LINE
8
lighting
10
257734.0
20
145450.0
30
0
11
257746.0
21
145450.0
31
0
0
LINE
8
lighting
10
257814.0
20
144910.0
30
0
11
257814.0
21
145450.0
31
0
0
LINE
8
lighting
10
257826.0
20
144910.0
30
0
11
257826.0
21
145450.0
31
0
0
LINE
8
lighting
10
257814.0
20
144910.0
30
0
11
257826.0
21
144910.0
31
0
0
LINE
8
lighting
10
257814.0
20
145450.0
30
0
11
257826.0
21
145450.0
31
0
0
LINE
8
lighting
10
257894.0
20
144910.0
30
0
11
257894.0
21
145450.0
31
0
0
LINE
8
lighting
10
257906.0
20
144910.0
30
0
11
257906.0
21
145450.0
31
0
0
LINE
8
lighting
10
257894.0
20
144910.0
30
0
11
257906.0
21
144910.0
31
0
0
LINE
8
lighting
10
257894.0
20
145450.0
30
0
11
257906.0
21
145450.0
31
0
0
LINE
8
lighting
10
257669.0
20
145180.0
30
0
11
257655.5
21
145187.79
31
0
0
LINE
8
lighting
10
257655.5
20
145187.79
30
0
11
257655.5
21
145172.21
31
0
0
LINE
8
lighting
10
257655.5
20
145172.21
30
0
11
257669.0
21
145180.0
31
0
0
LINE
8
lighting
10
247020.0
20
126500.0
30
0
11
247020.0
21
127140.0
31
0
0
LINE
8
lighting
10
247660.0
20
126500.0
30
0
11
247660.0
21
127140.0
31
0
0
LINE
8
lighting
10
247020.0
20
126500.0
30
0
11
247660.0
21
126500.0
31
0
0
LINE
8
lighting
10
247020.0
20
127140.0
30
0
11
247660.0
21
127140.0
31
0
0
LINE
8
lighting
10
247060.0
20
126540.0
30
0
11
247060.0
21
127100.0
31
0
0
LINE
8
lighting
10
247620.0
20
126540.0
30
0
11
247620.0
21
127100.0
31
0
0
LINE
8
lighting
10
247060.0
20
126540.0
30
0
11
247620.0
21
126540.0
31
0
0
LINE
8
lighting
10
247060.0
20
127100.0
30
0
11
247620.0
21
127100.0
31
0
0
LINE
8
lighting
10
247094.0
20
126550.0
30
0
11
247094.0
21
127090.0
31
0
0
LINE
8
lighting
10
247106.0
20
126550.0
30
0
11
247106.0
21
127090.0
31
0
0
LINE
8
lighting
10
247094.0
20
126550.0
30
0
11
247106.0
21
126550.0
31
0
0
LINE
8
lighting
10
247094.0
20
127090.0
30
0
11
247106.0
21
127090.0
31
0
0
LINE
8
lighting
10
247174.0
20
126550.0
30
0
11
247174.0
21
127090.0
31
0
0
LINE
8
lighting
10
247186.0
20
126550.0
30
0
11
247186.0
21
127090.0
31
0
0
LINE
8
lighting
10
247174.0
20
126550.0
30
0
11
247186.0
21
126550.0
31
0
0
LINE
8
lighting
10
247174.0
20
127090.0
30
0
11
247186.0
21
127090.0
31
0
0
LINE
8
lighting
10
247254.0
20
126550.0
30
0
11
247254.0
21
127090.0
31
0
0
LINE
8
lighting
10
247266.0
20
126550.0
30
0
11
247266.0
21
127090.0
31
0
0
LINE
8
lighting
10
247254.0
20
126550.0
30
0
11
247266.0
21
126550.0
31
0
0
LINE
8
lighting
10
247254.0
20
127090.0
30
0
11
247266.0
21
127090.0
31
0
0
LINE
8
lighting
10
247334.0
20
126550.0
30
0
11
247334.0
21
127090.0
31
0
0
LINE
8
lighting
10
247346.0
20
126550.0
30
0
11
247346.0
21
127090.0
31
0
0
LINE
8
lighting
10
247334.0
20
126550.0
30
0
11
247346.0
21
126550.0
31
0
0
LINE
8
lighting
10
247334.0
20
127090.0
30
0
11
247346.0
21
127090.0
31
0
0
LINE
8
lighting
10
247414.0
20
126550.0
30
0
11
247414.0
21
127090.0
31
0
0
LINE
8
lighting
10
247426.0
20
126550.0
30
0
11
247426.0
21
127090.0
31
0
0
LINE
8
lighting
10
247414.0
20
126550.0
30
0
11
247426.0
21
126550.0
31
0
0
LINE
8
lighting
10
247414.0
20
127090.0
30
0
11
247426.0
21
127090.0
31
0
0
LINE
8
lighting
10
247494.0
20
126550.0
30
0
11
247494.0
21
127090.0
31
0
0
LINE
8
lighting
10
247506.0
20
126550.0
30
0
11
247506.0
21
127090.0
31
0
0
LINE
8
lighting
10
247494.0
20
126550.0
30
0
11
247506.0
21
126550.0
31
0
0
LINE
8
lighting
10
247494.0
20
127090.0
30
0
11
247506.0
21
127090.0
31
0
0
LINE
8
lighting
10
247574.0
20
126550.0
30
0
11
247574.0
21
127090.0
31
0
0
LINE
8
lighting
10
247586.0
20
126550.0
30
0
11
247586.0
21
127090.0
31
0
0
LINE
8
lighting
10
247574.0
20
126550.0
30
0
11
247586.0
21
126550.0
31
0
0
LINE
8
lighting
10
247574.0
20
127090.0
30
0
11
247586.0
21
127090.0
31
0
0
LINE
8
lighting
10
247349.0
20
126820.0
30
0
11
247335.5
21
126827.79
31
0
0
LINE
8
lighting
10
247335.5
20
126827.79
30
0
11
247335.5
21
126812.21
31
0
0
LINE
8
lighting
10
247335.5
20
126812.21
30
0
11
247349.0
21
126820.0
31
0
0
LINE
8
lighting
10
267660.0
20
126500.0
30
0
11
267660.0
21
127140.0
31
0
0
LINE
8
lighting
10
268300.0
20
126500.0
30
0
11
268300.0
21
127140.0
31
0
0
LINE
8
lighting
10
267660.0
20
126500.0
30
0
11
268300.0
21
126500.0
31
0
0
LINE
8
lighting
10
267660.0
20
127140.0
30
0
11
268300.0
21
127140.0
31
0
0
LINE
8
lighting
10
267700.0
20
126540.0
30
0
11
267700.0
21
127100.0
31
0
0
LINE
8
lighting
10
268260.0
20
126540.0
30
0
11
268260.0
21
127100.0
31
0
0
LINE
8
lighting
10
267700.0
20
126540.0
30
0
11
268260.0
21
126540.0
31
0
0
LINE
8
lighting
10
267700.0
20
127100.0
30
0
11
268260.0
21
127100.0
31
0
0
LINE
8
lighting
10
267734.0
20
126550.0
30
0
11
267734.0
21
127090.0
31
0
0
LINE
8
lighting
10
267746.0
20
126550.0
30
0
11
267746.0
21
127090.0
31
0
0
LINE
8
lighting
10
267734.0
20
126550.0
30
0
11
267746.0
21
126550.0
31
0
0
LINE
8
lighting
10
267734.0
20
127090.0
30
0
11
267746.0
21
127090.0
31
0
0
LINE
8
lighting
10
267814.0
20
126550.0
30
0
11
267814.0
21
127090.0
31
0
0
LINE
8
lighting
10
267826.0
20
126550.0
30
0
11
267826.0
21
127090.0
31
0
0
LINE
8
lighting
10
267814.0
20
126550.0
30
0
11
267826.0
21
126550.0
31
0
0
LINE
8
lighting
10
267814.0
20
127090.0
30
0
11
267826.0
21
127090.0
31
0
0
LINE
8
lighting
10
267894.0
20
126550.0
30
0
11
267894.0
21
127090.0
31
0
0
LINE
8
lighting
10
267906.0
20
126550.0
30
0
11
267906.0
21
127090.0
31
0
0
LINE
8
lighting
10
267894.0
20
126550.0
30
0
11
267906.0
21
126550.0
31
0
0
LINE
8
lighting
10
267894.0
20
127090.0
30
0
11
267906.0
21
127090.0
31
0
0
LINE
8
lighting
10
267974.0
20
126550.0
30
0
11
267974.0
21
127090.0
31
0
0
LINE
8
lighting
10
267986.0
20
126550.0
30
0
11
267986.0
21
127090.0
31
0
0
LINE
8
lighting
10
267974.0
20
126550.0
30
0
11
267986.0
21
126550.0
31
0
0
LINE
8
lighting
10
267974.0
20
127090.0
30
0
11
267986.0
21
127090.0
31
0
0
LINE
8
lighting
10
268054.0
20
126550.0
30
0
11
268054.0
21
127090.0
31
0
0
LINE
8
lighting
10
268066.0
20
126550.0
30
0
11
268066.0
21
127090.0
31
0
0
LINE
8
lighting
10
268054.0
20
126550.0
30
0
11
268066.0
21
126550.0
31
0
0
LINE
8
lighting
10
268054.0
20
127090.0
30
0
11
268066.0
21
127090.0
31
0
0
LINE
8
lighting
10
268134.0
20
126550.0
30
0
11
268134.0
21
127090.0
31
0
0
LINE
8
lighting
10
268146.0
20
126550.0
30
0
11
268146.0
21
127090.0
31
0
0
LINE
8
lighting
10
268134.0
20
126550.0
30
0
11
268146.0
21
126550.0
31
0
0
LINE
8
lighting
10
268134.0
20
127090.0
30
0
11
268146.0
21
127090.0
31
0
0
LINE
8
lighting
10
268214.0
20
126550.0
30
0
11
268214.0
21
127090.0
31
0
0
LINE
8
lighting
10
268226.0
20
126550.0
30
0
11
268226.0
21
127090.0
31
0
0
LINE
8
lighting
10
268214.0
20
126550.0
30
0
11
268226.0
21
126550.0
31
0
0
LINE
8
lighting
10
268214.0
20
127090.0
30
0
11
268226.0
21
127090.0
31
0
0
LINE
8
lighting
10
267989.0
20
126820.0
30
0
11
267975.5
21
126827.79
31
0
0
LINE
8
lighting
10
267975.5
20
126827.79
30
0
11
267975.5
21
126812.21
31
0
0
LINE
8
lighting
10
267975.5
20
126812.21
30
0
11
267989.0
21
126820.0
31
0
0
LINE
8
lighting
10
247020.0
20
144860.0
30
0
11
247020.0
21
145500.0
31
0
0
LINE
8
lighting
10
247660.0
20
144860.0
30
0
11
247660.0
21
145500.0
31
0
0
LINE
8
lighting
10
247020.0
20
144860.0
30
0
11
247660.0
21
144860.0
31
0
0
LINE
8
lighting
10
247020.0
20
145500.0
30
0
11
247660.0
21
145500.0
31
0
0
LINE
8
lighting
10
247060.0
20
144900.0
30
0
11
247060.0
21
145460.0
31
0
0
LINE
8
lighting
10
247620.0
20
144900.0
30
0
11
247620.0
21
145460.0
31
0
0
LINE
8
lighting
10
247060.0
20
144900.0
30
0
11
247620.0
21
144900.0
31
0
0
LINE
8
lighting
10
247060.0
20
145460.0
30
0
11
247620.0
21
145460.0
31
0
0
LINE
8
lighting
10
247094.0
20
144910.0
30
0
11
247094.0
21
145450.0
31
0
0
LINE
8
lighting
10
247106.0
20
144910.0
30
0
11
247106.0
21
145450.0
31
0
0
LINE
8
lighting
10
247094.0
20
144910.0
30
0
11
247106.0
21
144910.0
31
0
0
LINE
8
lighting
10
247094.0
20
145450.0
30
0
11
247106.0
21
145450.0
31
0
0
LINE
8
lighting
10
247174.0
20
144910.0
30
0
11
247174.0
21
145450.0
31
0
0
LINE
8
lighting
10
247186.0
20
144910.0
30
0
11
247186.0
21
145450.0
31
0
0
LINE
8
lighting
10
247174.0
20
144910.0
30
0
11
247186.0
21
144910.0
31
0
0
LINE
8
lighting
10
247174.0
20
145450.0
30
0
11
247186.0
21
145450.0
31
0
0
LINE
8
lighting
10
247254.0
20
144910.0
30
0
11
247254.0
21
145450.0
31
0
0
LINE
8
lighting
10
247266.0
20
144910.0
30
0
11
247266.0
21
145450.0
31
0
0
LINE
8
lighting
10
247254.0
20
144910.0
30
0
11
247266.0
21
144910.0
31
0
0
LINE
8
lighting
10
247254.0
20
145450.0
30
0
11
247266.0
21
145450.0
31
0
0
LINE
8
lighting
10
247334.0
20
144910.0
30
0
11
247334.0
21
145450.0
31
0
0
LINE
8
lighting
10
247346.0
20
144910.0
30
0
11
247346.0
21
145450.0
31
0
0
LINE
8
lighting
10
247334.0
20
144910.0
30
0
11
247346.0
21
144910.0
31
0
0
LINE
8
lighting
10
247334.0
20
145450.0
30
0
11
247346.0
21
145450.0
31
0
0
LINE
8
lighting
10
247414.0
20
144910.0
30
0
11
247414.0
21
145450.0
31
0
0
LINE
8
lighting
10
247426.0
20
144910.0
30
0
11
247426.0
21
145450.0
31
0
0
LINE
8
lighting
10
247414.0
20
144910.0
30
0
11
247426.0
21
144910.0
31
0
0
LINE
8
lighting
10
247414.0
20
145450.0
30
0
11
247426.0
21
145450.0
31
0
0
LINE
8
lighting
10
247494.0
20
144910.0
30
0
11
247494.0
21
145450.0
31
0
0
LINE
8
lighting
10
247506.0
20
144910.0
30
0
11
247506.0
21
145450.0
31
0
0
LINE
8
lighting
10
247494.0
20
144910.0
30
0
11
247506.0
21
144910.0
31
0
0
LINE
8
lighting
10
247494.0
20
145450.0
30
0
11
247506.0
21
145450.0
31
0
0
LINE
8
lighting
10
247574.0
20
144910.0
30
0
11
247574.0
21
145450.0
31
0
0
LINE
8
lighting
10
247586.0
20
144910.0
30
0
11
247586.0
21
145450.0
31
0
0
LINE
8
lighting
10
247574.0
20
144910.0
30
0
11
247586.0
21
144910.0
31
0
0
LINE
8
lighting
10
247574.0
20
145450.0
30
0
11
247586.0
21
145450.0
31
0
0
LINE
8
lighting
10
247349.0
20
145180.0
30
0
11
247335.5
21
145187.79
31
0
0
LINE
8
lighting
10
247335.5
20
145187.79
30
0
11
247335.5
21
145172.21
31
0
0
LINE
8
lighting
10
247335.5
20
145172.21
30
0
11
247349.0
21
145180.0
31
0
0
LINE
8
lighting
10
267660.0
20
144860.0
30
0
11
267660.0
21
145500.0
31
0
0
LINE
8
lighting
10
268300.0
20
144860.0
30
0
11
268300.0
21
145500.0
31
0
0
LINE
8
lighting
10
267660.0
20
144860.0
30
0
11
268300.0
21
144860.0
31
0
0
LINE
8
lighting
10
267660.0
20
145500.0
30
0
11
268300.0
21
145500.0
31
0
0
LINE
8
lighting
10
267700.0
20
144900.0
30
0
11
267700.0
21
145460.0
31
0
0
LINE
8
lighting
10
268260.0
20
144900.0
30
0
11
268260.0
21
145460.0
31
0
0
LINE
8
lighting
10
267700.0
20
144900.0
30
0
11
268260.0
21
144900.0
31
0
0
LINE
8
lighting
10
267700.0
20
145460.0
30
0
11
268260.0
21
145460.0
31
0
0
LINE
8
lighting
10
267734.0
20
144910.0
30
0
11
267734.0
21
145450.0
31
0
0
LINE
8
lighting
10
267746.0
20
144910.0
30
0
11
267746.0
21
145450.0
31
0
0
LINE
8
lighting
10
267734.0
20
144910.0
30
0
11
267746.0
21
144910.0
31
0
0
LINE
8
lighting
10
267734.0
20
145450.0
30
0
11
267746.0
21
145450.0
31
0
0
LINE
8
lighting
10
267814.0
20
144910.0
30
0
11
267814.0
21
145450.0
31
0
0
LINE
8
lighting
10
267826.0
20
144910.0
30
0
11
267826.0
21
145450.0
31
0
0
LINE
8
lighting
10
267814.0
20
144910.0
30
0
11
267826.0
21
144910.0
31
0
0
LINE
8
lighting
10
267814.0
20
145450.0
30
0
11
267826.0
21
145450.0
31
0
0
LINE
8
lighting
10
267894.0
20
144910.0
30
0
11
267894.0
21
145450.0
31
0
0
LINE
8
lighting
10
267906.0
20
144910.0
30
0
11
267906.0
21
145450.0
31
0
0
LINE
8
lighting
10
267894.0
20
144910.0
30
0
11
267906.0
21
144910.0
31
0
0
LINE
8
lighting
10
267894.0
20
145450.0
30
0
11
267906.0
21
145450.0
31
0
0
LINE
8
lighting
10
267974.0
20
144910.0
30
0
11
267974.0
21
145450.0
31
0
0
LINE
8
lighting
10
267986.0
20
144910.0
30
0
11
267986.0
21
145450.0
31
0
0
LINE
8
lighting
10
267974.0
20
144910.0
30
0
11
267986.0
21
144910.0
31
0
0
LINE
8
lighting
10
267974.0
20
145450.0
30
0
11
267986.0
21
145450.0
31
0
0
LINE
8
lighting
10
268054.0
20
144910.0
30
0
11
268054.0
21
145450.0
31
0
0
LINE
8
lighting
10
268066.0
20
144910.0
30
0
11
268066.0
21
145450.0
31
0
0
LINE
8
lighting
10
268054.0
20
144910.0
30
0
11
268066.0
21
144910.0
31
0
0
LINE
8
lighting
10
268054.0
20
145450.0
30
0
11
268066.0
21
145450.0
31
0
0
LINE
8
lighting
10
268134.0
20
144910.0
30
0
11
268134.0
21
145450.0
31
0
0
LINE
8
lighting
10
268146.0
20
144910.0
30
0
11
268146.0
21
145450.0
31
0
0
LINE
8
lighting
10
268134.0
20
144910.0
30
0
11
268146.0
21
144910.0
31
0
0
LINE
8
lighting
10
268134.0
20
145450.0
30
0
11
268146.0
21
145450.0
31
0
0
LINE
8
lighting
10
268214.0
20
144910.0
30
0
11
268214.0
21
145450.0
31
0
0
LINE
8
lighting
10
268226.0
20
144910.0
30
0
11
268226.0
21
145450.0
31
0
0
LINE
8
lighting
10
268214.0
20
144910.0
30
0
11
268226.0
21
144910.0
31
0
0
LINE
8
lighting
10
268214.0
20
145450.0
30
0
11
268226.0
21
145450.0
31
0
0
LINE
8
lighting
10
267989.0
20
145180.0
30
0
11
267975.5
21
145187.79
31
0
0
LINE
8
lighting
10
267975.5
20
145187.79
30
0
11
267975.5
21
145172.21
31
0
0
LINE
8
lighting
10
267975.5
20
145172.21
30
0
11
267989.0
21
145180.0
31
0
0
LINE
8
lighting
10
236700.0
20
135680.0
30
0
11
236700.0
21
136320.0
31
0
0
LINE
8
lighting
10
237340.0
20
135680.0
30
0
11
237340.0
21
136320.0
31
0
0
LINE
8
lighting
10
236700.0
20
135680.0
30
0
11
237340.0
21
135680.0
31
0
0
LINE
8
lighting
10
236700.0
20
136320.0
30
0
11
237340.0
21
136320.0
31
0
0
LINE
8
lighting
10
236740.0
20
135720.0
30
0
11
236740.0
21
136280.0
31
0
0
LINE
8
lighting
10
237300.0
20
135720.0
30
0
11
237300.0
21
136280.0
31
0
0
LINE
8
lighting
10
236740.0
20
135720.0
30
0
11
237300.0
21
135720.0
31
0
0
LINE
8
lighting
10
236740.0
20
136280.0
30
0
11
237300.0
21
136280.0
31
0
0
LINE
8
lighting
10
236774.0
20
135730.0
30
0
11
236774.0
21
136270.0
31
0
0
LINE
8
lighting
10
236786.0
20
135730.0
30
0
11
236786.0
21
136270.0
31
0
0
LINE
8
lighting
10
236774.0
20
135730.0
30
0
11
236786.0
21
135730.0
31
0
0
LINE
8
lighting
10
236774.0
20
136270.0
30
0
11
236786.0
21
136270.0
31
0
0
LINE
8
lighting
10
236854.0
20
135730.0
30
0
11
236854.0
21
136270.0
31
0
0
LINE
8
lighting
10
236866.0
20
135730.0
30
0
11
236866.0
21
136270.0
31
0
0
LINE
8
lighting
10
236854.0
20
135730.0
30
0
11
236866.0
21
135730.0
31
0
0
LINE
8
lighting
10
236854.0
20
136270.0
30
0
11
236866.0
21
136270.0
31
0
0
LINE
8
lighting
10
236934.0
20
135730.0
30
0
11
236934.0
21
136270.0
31
0
0
LINE
8
lighting
10
236946.0
20
135730.0
30
0
11
236946.0
21
136270.0
31
0
0
LINE
8
lighting
10
236934.0
20
135730.0
30
0
11
236946.0
21
135730.0
31
0
0
LINE
8
lighting
10
236934.0
20
136270.0
30
0
11
236946.0
21
136270.0
31
0
0
LINE
8
lighting
10
237014.0
20
135730.0
30
0
11
237014.0
21
136270.0
31
0
0
LINE
8
lighting
10
237026.0
20
135730.0
30
0
11
237026.0
21
136270.0
31
0
0
LINE
8
lighting
10
237014.0
20
135730.0
30
0
11
237026.0
21
135730.0
31
0
0
LINE
8
lighting
10
237014.0
20
136270.0
30
0
11
237026.0
21
136270.0
31
0
0
LINE
8
lighting
10
237094.0
20
135730.0
30
0
11
237094.0
21
136270.0
31
0
0
LINE
8
lighting
10
237106.0
20
135730.0
30
0
11
237106.0
21
136270.0
31
0
0
LINE
8
lighting
10
237094.0
20
135730.0
30
0
11
237106.0
21
135730.0
31
0
0
LINE
8
lighting
10
237094.0
20
136270.0
30
0
11
237106.0
21
136270.0
31
0
0
LINE
8
lighting
10
237174.0
20
135730.0
30
0
11
237174.0
21
136270.0
31
0
0
LINE
8
lighting
10
237186.0
20
135730.0
30
0
11
237186.0
21
136270.0
31
0
0
LINE
8
lighting
10
237174.0
20
135730.0
30
0
11
237186.0
21
135730.0
31
0
0
LINE
8
lighting
10
237174.0
20
136270.0
30
0
11
237186.0
21
136270.0
31
0
0
LINE
8
lighting
10
237254.0
20
135730.0
30
0
11
237254.0
21
136270.0
31
0
0
LINE
8
lighting
10
237266.0
20
135730.0
30
0
11
237266.0
21
136270.0
31
0
0
LINE
8
lighting
10
237254.0
20
135730.0
30
0
11
237266.0
21
135730.0
31
0
0
LINE
8
lighting
10
237254.0
20
136270.0
30
0
11
237266.0
21
136270.0
31
0
0
LINE
8
lighting
10
237029.0
20
136000.0
30
0
11
237015.5
21
136007.79
31
0
0
LINE
8
lighting
10
237015.5
20
136007.79
30
0
11
237015.5
21
135992.21
31
0
0
LINE
8
lighting
10
237015.5
20
135992.21
30
0
11
237029.0
21
136000.0
31
0
0
LINE
8
lighting
10
257340.0
20
135680.0
30
0
11
257340.0
21
136320.0
31
0
0
LINE
8
lighting
10
257980.0
20
135680.0
30
0
11
257980.0
21
136320.0
31
0
0
LINE
8
lighting
10
257340.0
20
135680.0
30
0
11
257980.0
21
135680.0
31
0
0
LINE
8
lighting
10
257340.0
20
136320.0
30
0
11
257980.0
21
136320.0
31
0
0
LINE
8
lighting
10
257380.0
20
135720.0
30
0
11
257380.0
21
136280.0
31
0
0
LINE
8
lighting
10
257940.0
20
135720.0
30
0
11
257940.0
21
136280.0
31
0
0
LINE
8
lighting
10
257380.0
20
135720.0
30
0
11
257940.0
21
135720.0
31
0
0
LINE
8
lighting
10
257380.0
20
136280.0
30
0
11
257940.0
21
136280.0
31
0
0
LINE
8
lighting
10
257414.0
20
135730.0
30
0
11
257414.0
21
136270.0
31
0
0
LINE
8
lighting
10
257426.0
20
135730.0
30
0
11
257426.0
21
136270.0
31
0
0
LINE
8
lighting
10
257414.0
20
135730.0
30
0
11
257426.0
21
135730.0
31
0
0
LINE
8
lighting
10
257414.0
20
136270.0
30
0
11
257426.0
21
136270.0
31
0
0
LINE
8
lighting
10
257494.0
20
135730.0
30
0
11
257494.0
21
136270.0
31
0
0
LINE
8
lighting
10
257506.0
20
135730.0
30
0
11
257506.0
21
136270.0
31
0
0
LINE
8
lighting
10
257494.0
20
135730.0
30
0
11
257506.0
21
135730.0
31
0
0
LINE
8
lighting
10
257494.0
20
136270.0
30
0
11
257506.0
21
136270.0
31
0
0
LINE
8
lighting
10
257574.0
20
135730.0
30
0
11
257574.0
21
136270.0
31
0
0
LINE
8
lighting
10
257586.0
20
135730.0
30
0
11
257586.0
21
136270.0
31
0
0
LINE
8
lighting
10
257574.0
20
135730.0
30
0
11
257586.0
21
135730.0
31
0
0
LINE
8
lighting
10
257574.0
20
136270.0
30
0
11
257586.0
21
136270.0
31
0
0
LINE
8
lighting
10
257654.0
20
135730.0
30
0
11
257654.0
21
136270.0
31
0
0
LINE
8
lighting
10
257666.0
20
135730.0
30
0
11
257666.0
21
136270.0
31
0
0
LINE
8
lighting
10
257654.0
20
135730.0
30
0
11
257666.0
21
135730.0
31
0
0
LINE
8
lighting
10
257654.0
20
136270.0
30
0
11
257666.0
21
136270.0
31
0
0
LINE
8
lighting
10
257734.0
20
135730.0
30
0
11
257734.0
21
136270.0
31
0
0
LINE
8
lighting
10
257746.0
20
135730.0
30
0
11
257746.0
21
136270.0
31
0
0
LINE
8
lighting
10
257734.0
20
135730.0
30
0
11
257746.0
21
135730.0
31
0
0
LINE
8
lighting
10
257734.0
20
136270.0
30
0
11
257746.0
21
136270.0
31
0
0
LINE
8
lighting
10
257814.0
20
135730.0
30
0
11
257814.0
21
136270.0
31
0
0
LINE
8
lighting
10
257826.0
20
135730.0
30
0
11
257826.0
21
136270.0
31
0
0
LINE
8
lighting
10
257814.0
20
135730.0
30
0
11
257826.0
21
135730.0
31
0
0
LINE
8
lighting
10
257814.0
20
136270.0
30
0
11
257826.0
21
136270.0
31
0
0
LINE
8
lighting
10
257894.0
20
135730.0
30
0
11
257894.0
21
136270.0
31
0
0
LINE
8
lighting
10
257906.0
20
135730.0
30
0
11
257906.0
21
136270.0
31
0
0
LINE
8
lighting
10
257894.0
20
135730.0
30
0
11
257906.0
21
135730.0
31
0
0
LINE
8
lighting
10
257894.0
20
136270.0
30
0
11
257906.0
21
136270.0
31
0
0
LINE
8
lighting
10
257669.0
20
136000.0
30
0
11
257655.5
21
136007.79
31
0
0
LINE
8
lighting
10
257655.5
20
136007.79
30
0
11
257655.5
21
135992.21
31
0
0
LINE
8
lighting
10
257655.5
20
135992.21
30
0
11
257669.0
21
136000.0
31
0
0
LINE
8
lighting
10
247020.0
20
135680.0
30
0
11
247020.0
21
136320.0
31
0
0
LINE
8
lighting
10
247660.0
20
135680.0
30
0
11
247660.0
21
136320.0
31
0
0
LINE
8
lighting
10
247020.0
20
135680.0
30
0
11
247660.0
21
135680.0
31
0
0
LINE
8
lighting
10
247020.0
20
136320.0
30
0
11
247660.0
21
136320.0
31
0
0
LINE
8
lighting
10
247060.0
20
135720.0
30
0
11
247060.0
21
136280.0
31
0
0
LINE
8
lighting
10
247620.0
20
135720.0
30
0
11
247620.0
21
136280.0
31
0
0
LINE
8
lighting
10
247060.0
20
135720.0
30
0
11
247620.0
21
135720.0
31
0
0
LINE
8
lighting
10
247060.0
20
136280.0
30
0
11
247620.0
21
136280.0
31
0
0
LINE
8
lighting
10
247094.0
20
135730.0
30
0
11
247094.0
21
136270.0
31
0
0
LINE
8
lighting
10
247106.0
20
135730.0
30
0
11
247106.0
21
136270.0
31
0
0
LINE
8
lighting
10
247094.0
20
135730.0
30
0
11
247106.0
21
135730.0
31
0
0
LINE
8
lighting
10
247094.0
20
136270.0
30
0
11
247106.0
21
136270.0
31
0
0
LINE
8
lighting
10
247174.0
20
135730.0
30
0
11
247174.0
21
136270.0
31
0
0
LINE
8
lighting
10
247186.0
20
135730.0
30
0
11
247186.0
21
136270.0
31
0
0
LINE
8
lighting
10
247174.0
20
135730.0
30
0
11
247186.0
21
135730.0
31
0
0
LINE
8
lighting
10
247174.0
20
136270.0
30
0
11
247186.0
21
136270.0
31
0
0
LINE
8
lighting
10
247254.0
20
135730.0
30
0
11
247254.0
21
136270.0
31
0
0
LINE
8
lighting
10
247266.0
20
135730.0
30
0
11
247266.0
21
136270.0
31
0
0
LINE
8
lighting
10
247254.0
20
135730.0
30
0
11
247266.0
21
135730.0
31
0
0
LINE
8
lighting
10
247254.0
20
136270.0
30
0
11
247266.0
21
136270.0
31
0
0
LINE
8
lighting
10
247334.0
20
135730.0
30
0
11
247334.0
21
136270.0
31
0
0
LINE
8
lighting
10
247346.0
20
135730.0
30
0
11
247346.0
21
136270.0
31
0
0
LINE
8
lighting
10
247334.0
20
135730.0
30
0
11
247346.0
21
135730.0
31
0
0
LINE
8
lighting
10
247334.0
20
136270.0
30
0
11
247346.0
21
136270.0
31
0
0
LINE
8
lighting
10
247414.0
20
135730.0
30
0
11
247414.0
21
136270.0
31
0
0
LINE
8
lighting
10
247426.0
20
135730.0
30
0
11
247426.0
21
136270.0
31
0
0
LINE
8
lighting
10
247414.0
20
135730.0
30
0
11
247426.0
21
135730.0
31
0
0
LINE
8
lighting
10
247414.0
20
136270.0
30
0
11
247426.0
21
136270.0
31
0
0
LINE
8
lighting
10
247494.0
20
135730.0
30
0
11
247494.0
21
136270.0
31
0
0
LINE
8
lighting
10
247506.0
20
135730.0
30
0
11
247506.0
21
136270.0
31
0
0
LINE
8
lighting
10
247494.0
20
135730.0
30
0
11
247506.0
21
135730.0
31
0
0
LINE
8
lighting
10
247494.0
20
136270.0
30
0
11
247506.0
21
136270.0
31
0
0
LINE
8
lighting
10
247574.0
20
135730.0
30
0
11
247574.0
21
136270.0
31
0
0
LINE
8
lighting
10
247586.0
20
135730.0
30
0
11
247586.0
21
136270.0
31
0
0
LINE
8
lighting
10
247574.0
20
135730.0
30
0
11
247586.0
21
135730.0
31
0
0
LINE
8
lighting
10
247574.0
20
136270.0
30
0
11
247586.0
21
136270.0
31
0
0
LINE
8
lighting
10
247349.0
20
136000.0
30
0
11
247335.5
21
136007.79
31
0
0
LINE
8
lighting
10
247335.5
20
136007.79
30
0
11
247335.5
21
135992.21
31
0
0
LINE
8
lighting
10
247335.5
20
135992.21
30
0
11
247349.0
21
136000.0
31
0
0
LINE
8
lighting
10
267660.0
20
135680.0
30
0
11
267660.0
21
136320.0
31
0
0
LINE
8
lighting
10
268300.0
20
135680.0
30
0
11
268300.0
21
136320.0
31
0
0
LINE
8
lighting
10
267660.0
20
135680.0
30
0
11
268300.0
21
135680.0
31
0
0
LINE
8
lighting
10
267660.0
20
136320.0
30
0
11
268300.0
21
136320.0
31
0
0
LINE
8
lighting
10
267700.0
20
135720.0
30
0
11
267700.0
21
136280.0
31
0
0
LINE
8
lighting
10
268260.0
20
135720.0
30
0
11
268260.0
21
136280.0
31
0
0
LINE
8
lighting
10
267700.0
20
135720.0
30
0
11
268260.0
21
135720.0
31
0
0
LINE
8
lighting
10
267700.0
20
136280.0
30
0
11
268260.0
21
136280.0
31
0
0
LINE
8
lighting
10
267734.0
20
135730.0
30
0
11
267734.0
21
136270.0
31
0
0
LINE
8
lighting
10
267746.0
20
135730.0
30
0
11
267746.0
21
136270.0
31
0
0
LINE
8
lighting
10
267734.0
20
135730.0
30
0
11
267746.0
21
135730.0
31
0
0
LINE
8
lighting
10
267734.0
20
136270.0
30
0
11
267746.0
21
136270.0
31
0
0
LINE
8
lighting
10
267814.0
20
135730.0
30
0
11
267814.0
21
136270.0
31
0
0
LINE
8
lighting
10
267826.0
20
135730.0
30
0
11
267826.0
21
136270.0
31
0
0
LINE
8
lighting
10
267814.0
20
135730.0
30
0
11
267826.0
21
135730.0
31
0
0
LINE
8
lighting
10
267814.0
20
136270.0
30
0
11
267826.0
21
136270.0
31
0
0
LINE
8
lighting
10
267894.0
20
135730.0
30
0
11
267894.0
21
136270.0
31
0
0
LINE
8
lighting
10
267906.0
20
135730.0
30
0
11
267906.0
21
136270.0
31
0
0
LINE
8
lighting
10
267894.0
20
135730.0
30
0
11
267906.0
21
135730.0
31
0
0
LINE
8
lighting
10
267894.0
20
136270.0
30
0
11
267906.0
21
136270.0
31
0
0
LINE
8
lighting
10
267974.0
20
135730.0
30
0
11
267974.0
21
136270.0
31
0
0
LINE
8
lighting
10
267986.0
20
135730.0
30
0
11
267986.0
21
136270.0
31
0
0
LINE
8
lighting
10
267974.0
20
135730.0
30
0
11
267986.0
21
135730.0
31
0
0
LINE
8
lighting
10
267974.0
20
136270.0
30
0
11
267986.0
21
136270.0
31
0
0
LINE
8
lighting
10
268054.0
20
135730.0
30
0
11
268054.0
21
136270.0
31
0
0
LINE
8
lighting
10
268066.0
20
135730.0
30
0
11
268066.0
21
136270.0
31
0
0
LINE
8
lighting
10
268054.0
20
135730.0
30
0
11
268066.0
21
135730.0
31
0
0
LINE
8
lighting
10
268054.0
20
136270.0
30
0
11
268066.0
21
136270.0
31
0
0
LINE
8
lighting
10
268134.0
20
135730.0
30
0
11
268134.0
21
136270.0
31
0
0
LINE
8
lighting
10
268146.0
20
135730.0
30
0
11
268146.0
21
136270.0
31
0
0
LINE
8
lighting
10
268134.0
20
135730.0
30
0
11
268146.0
21
135730.0
31
0
0
LINE
8
lighting
10
268134.0
20
136270.0
30
0
11
268146.0
21
136270.0
31
0
0
LINE
8
lighting
10
268214.0
20
135730.0
30
0
11
268214.0
21
136270.0
31
0
0
LINE
8
lighting
10
268226.0
20
135730.0
30
0
11
268226.0
21
136270.0
31
0
0
LINE
8
lighting
10
268214.0
20
135730.0
30
0
11
268226.0
21
135730.0
31
0
0
LINE
8
lighting
10
268214.0
20
136270.0
30
0
11
268226.0
21
136270.0
31
0
0
LINE
8
lighting
10
267989.0
20
136000.0
30
0
11
267975.5
21
136007.79
31
0
0
LINE
8
lighting
10
267975.5
20
136007.79
30
0
11
267975.5
21
135992.21
31
0
0
LINE
8
lighting
10
267975.5
20
135992.21
30
0
11
267989.0
21
136000.0
31
0
0
LINE
8
electrical
10
237020.0
20
126430.0
30
0
11
237020.0
21
126422.21
31
0
0
LINE
8
electrical
10
237020.0
20
126422.21
30
0
11
237020.0
21
126437.79
31
0
0
LINE
8
electrical
10
237020.0
20
126437.79
30
0
11
237020.0
21
126430.0
31
0
0
LINE
8
electrical
10
273550.0
20
126430.0
30
0
11
237020.0
21
126430.0
31
0
0
LINE
8
electrical
10
273550.0
20
126430.0
30
0
11
273550.0
21
126422.21
31
0
0
LINE
8
electrical
10
273550.0
20
126422.21
30
0
11
273550.0
21
126437.79
31
0
0
LINE
8
electrical
10
273550.0
20
126437.79
30
0
11
273550.0
21
126430.0
31
0
0
LINE
8
electrical
10
237020.0
20
145180.0
30
0
11
237027.79
21
145180.0
31
0
0
LINE
8
electrical
10
237027.79
20
145180.0
30
0
11
237012.21
21
145180.0
31
0
0
LINE
8
electrical
10
237012.21
20
145180.0
30
0
11
237020.0
21
145180.0
31
0
0
LINE
8
electrical
10
237020.0
20
126430.0
30
0
11
237020.0
21
145180.0
31
0
0
LINE
8
electrical
10
237020.0
20
126430.0
30
0
11
237027.79
21
126430.0
31
0
0
LINE
8
electrical
10
237027.79
20
126430.0
30
0
11
237012.21
21
126430.0
31
0
0
LINE
8
electrical
10
237012.21
20
126430.0
30
0
11
237020.0
21
126430.0
31
0
0
LINE
8
electrical
10
257660.0
20
145180.0
30
0
11
257667.79
21
145180.0
31
0
0
LINE
8
electrical
10
257667.79
20
145180.0
30
0
11
257652.21
21
145180.0
31
0
0
LINE
8
electrical
10
257652.21
20
145180.0
30
0
11
257660.0
21
145180.0
31
0
0
LINE
8
electrical
10
257660.0
20
126430.0
30
0
11
257660.0
21
145180.0
31
0
0
LINE
8
electrical
10
257660.0
20
126430.0
30
0
11
257667.79
21
126430.0
31
0
0
LINE
8
electrical
10
257667.79
20
126430.0
30
0
11
257652.21
21
126430.0
31
0
0
LINE
8
electrical
10
257652.21
20
126430.0
30
0
11
257660.0
21
126430.0
31
0
0
LINE
8
electrical
10
247340.0
20
145180.0
30
0
11
247347.79
21
145180.0
31
0
0
LINE
8
electrical
10
247347.79
20
145180.0
30
0
11
247332.21
21
145180.0
31
0
0
LINE
8
electrical
10
247332.21
20
145180.0
30
0
11
247340.0
21
145180.0
31
0
0
LINE
8
electrical
10
247340.0
20
126430.0
30
0
11
247340.0
21
145180.0
31
0
0
LINE
8
electrical
10
247340.0
20
126430.0
30
0
11
247347.79
21
126430.0
31
0
0
LINE
8
electrical
10
247347.79
20
126430.0
30
0
11
247332.21
21
126430.0
31
0
0
LINE
8
electrical
10
247332.21
20
126430.0
30
0
11
247340.0
21
126430.0
31
0
0
LINE
8
electrical
10
267980.0
20
145180.0
30
0
11
267987.79
21
145180.0
31
0
0
LINE
8
electrical
10
267987.79
20
145180.0
30
0
11
267972.21
21
145180.0
31
0
0
LINE
8
electrical
10
267972.21
20
145180.0
30
0
11
267980.0
21
145180.0
31
0
0
LINE
8
electrical
10
267980.0
20
126430.0
30
0
11
267980.0
21
145180.0
31
0
0
LINE
8
electrical
10
267980.0
20
126430.0
30
0
11
267987.79
21
126430.0
31
0
0
LINE
8
electrical
10
267987.79
20
126430.0
30
0
11
267972.21
21
126430.0
31
0
0
LINE
8
electrical
10
267972.21
20
126430.0
30
0
11
267980.0
21
126430.0
31
0
0
LINE
8
electrical
10
273563.0
20
122700.0
30
0
11
273543.5
21
122711.26
31
0
0
LINE
8
electrical
10
273543.5
20
122711.26
30
0
11
273543.5
21
122688.74
31
0
0
LINE
8
electrical
10
273543.5
20
122688.74
30
0
11
273563.0
21
122700.0
31
0
0
LINE
8
electrical
10
267543.14
20
126418.96
30
0
11
267553.43
21
126435.52
31
0
0
LINE
8
electrical
10
267553.43
20
126435.52
30
0
11
267553.43
21
126435.52
31
0
0
LINE
8
electrical
10
267553.43
20
126435.52
30
0
11
267543.14
21
126418.96
31
0
0
LINE
8
electrical
10
273543.14
20
122688.96
30
0
11
267543.14
21
126418.96
31
0
0
LINE
8
electrical
10
273543.14
20
122688.96
30
0
11
273553.43
21
122705.52
31
0
0
LINE
8
electrical
10
273553.43
20
122705.52
30
0
11
273553.43
21
122705.52
31
0
0
LINE
8
electrical
10
273553.43
20
122705.52
30
0
11
273543.14
21
122688.96
31
0
0
LINE
8
electrical
10
237450.0
20
126430.0
30
0
11
237450.0
21
126418.74
31
0
0
LINE
8
electrical
10
237450.0
20
126418.74
30
0
11
237450.0
21
126441.26
31
0
0
LINE
8
electrical
10
237450.0
20
126441.26
30
0
11
237450.0
21
126430.0
31
0
0
LINE
8
electrical
10
267550.0
20
126430.0
30
0
11
237450.0
21
126430.0
31
0
0
LINE
8
electrical
10
267550.0
20
126430.0
30
0
11
267550.0
21
126418.74
31
0
0
LINE
8
electrical
10
267550.0
20
126418.74
30
0
11
267550.0
21
126441.26
31
0
0
LINE
8
electrical
10
267550.0
20
126441.26
30
0
11
267550.0
21
126430.0
31
0
0
LINE
8
electrical
10
273550.0
20
122700.0
30
0
11
273564.04
21
122700.0
31
0
0
LINE
8
electrical
10
273564.04
20
122700.0
30
0
11
273550.0
21
122700.0
31
0
0
LINE
8
electrical
10
267550.0
20
126430.0
30
0
11
267564.04
21
126430.0
31
0
0
LINE
8
electrical
10
267564.04
20
126430.0
30
0
11
267550.0
21
126430.0
31
0
0
LINE
8
electrical
10
273563.0
20
122700.0
30
0
11
273543.5
21
122711.26
31
0
0
LINE
8
electrical
10
273543.5
20
122711.26
30
0
11
273543.5
21
122688.74
31
0
0
LINE
8
electrical
10
273543.5
20
122688.74
30
0
11
273563.0
21
122700.0
31
0
0
LINE
8
electrical
10
267542.98
20
126539.06
30
0
11
267553.51
21
126555.47
31
0
0
LINE
8
electrical
10
267553.51
20
126555.47
30
0
11
267553.51
21
126555.47
31
0
0
LINE
8
electrical
10
267553.51
20
126555.47
30
0
11
267542.98
21
126539.06
31
0
0
LINE
8
electrical
10
273542.98
20
122689.06
30
0
11
267542.98
21
126539.06
31
0
0
LINE
8
electrical
10
273542.98
20
122689.06
30
0
11
273553.51
21
122705.47
31
0
0
LINE
8
electrical
10
273553.51
20
122705.47
30
0
11
273553.51
21
122705.47
31
0
0
LINE
8
electrical
10
273553.51
20
122705.47
30
0
11
273542.98
21
122689.06
31
0
0
LINE
8
electrical
10
237450.0
20
126550.0
30
0
11
237450.0
21
126538.74
31
0
0
LINE
8
electrical
10
237450.0
20
126538.74
30
0
11
237450.0
21
126561.26
31
0
0
LINE
8
electrical
10
237450.0
20
126561.26
30
0
11
237450.0
21
126550.0
31
0
0
LINE
8
electrical
10
267550.0
20
126550.0
30
0
11
237450.0
21
126550.0
31
0
0
LINE
8
electrical
10
267550.0
20
126550.0
30
0
11
267550.0
21
126538.74
31
0
0
LINE
8
electrical
10
267550.0
20
126538.74
30
0
11
267550.0
21
126561.26
31
0
0
LINE
8
electrical
10
267550.0
20
126561.26
30
0
11
267550.0
21
126550.0
31
0
0
LINE
8
electrical
10
273550.0
20
122700.0
30
0
11
273564.04
21
122700.0
31
0
0
LINE
8
electrical
10
273564.04
20
122700.0
30
0
11
273550.0
21
122700.0
31
0
0
LINE
8
electrical
10
267550.0
20
126550.0
30
0
11
267564.04
21
126550.0
31
0
0
LINE
8
electrical
10
267564.04
20
126550.0
30
0
11
267550.0
21
126550.0
31
0
0
LINE
8
electrical
10
273563.0
20
122700.0
30
0
11
273543.5
21
122711.26
31
0
0
LINE
8
electrical
10
273543.5
20
122711.26
30
0
11
273543.5
21
122688.74
31
0
0
LINE
8
electrical
10
273543.5
20
122688.74
30
0
11
273563.0
21
122700.0
31
0
0
LINE
8
electrical
10
267542.83
20
126659.16
30
0
11
267553.59
21
126675.42
31
0
0
LINE
8
electrical
10
267553.59
20
126675.42
30
0
11
267553.59
21
126675.42
31
0
0
LINE
8
electrical
10
267553.59
20
126675.42
30
0
11
267542.83
21
126659.16
31
0
0
LINE
8
electrical
10
273542.83
20
122689.16
30
0
11
267542.83
21
126659.16
31
0
0
LINE
8
electrical
10
273542.83
20
122689.16
30
0
11
273553.59
21
122705.42
31
0
0
LINE
8
electrical
10
273553.59
20
122705.42
30
0
11
273553.59
21
122705.42
31
0
0
LINE
8
electrical
10
273553.59
20
122705.42
30
0
11
273542.83
21
122689.16
31
0
0
LINE
8
electrical
10
237450.0
20
126670.0
30
0
11
237450.0
21
126658.74
31
0
0
LINE
8
electrical
10
237450.0
20
126658.74
30
0
11
237450.0
21
126681.26
31
0
0
LINE
8
electrical
10
237450.0
20
126681.26
30
0
11
237450.0
21
126670.0
31
0
0
LINE
8
electrical
10
267550.0
20
126670.0
30
0
11
237450.0
21
126670.0
31
0
0
LINE
8
electrical
10
267550.0
20
126670.0
30
0
11
267550.0
21
126658.74
31
0
0
LINE
8
electrical
10
267550.0
20
126658.74
30
0
11
267550.0
21
126681.26
31
0
0
LINE
8
electrical
10
267550.0
20
126681.26
30
0
11
267550.0
21
126670.0
31
0
0
LINE
8
electrical
10
273550.0
20
122700.0
30
0
11
273564.04
21
122700.0
31
0
0
LINE
8
electrical
10
273564.04
20
122700.0
30
0
11
273550.0
21
122700.0
31
0
0
LINE
8
electrical
10
267550.0
20
126670.0
30
0
11
267564.04
21
126670.0
31
0
0
LINE
8
electrical
10
267564.04
20
126670.0
30
0
11
267550.0
21
126670.0
31
0
0
LINE
8
electrical
10
239535.0
20
122650.0
30
0
11
239535.0
21
122710.0
31
0
0
LINE
8
electrical
10
239665.0
20
122650.0
30
0
11
239665.0
21
122710.0
31
0
0
LINE
8
electrical
10
239535.0
20
122650.0
30
0
11
239665.0
21
122650.0
31
0
0
LINE
8
electrical
10
239535.0
20
122710.0
30
0
11
239665.0
21
122710.0
31
0
0
LINE
8
electrical
10
239609.0
20
122680.0
30
0
11
239595.5
21
122687.79
31
0
0
LINE
8
electrical
10
239595.5
20
122687.79
30
0
11
239595.5
21
122672.21
31
0
0
LINE
8
electrical
10
239595.5
20
122672.21
30
0
11
239609.0
21
122680.0
31
0
0
LINE
8
electrical
10
273550.0
20
122680.0
30
0
11
273550.0
21
122672.21
31
0
0
LINE
8
electrical
10
273550.0
20
122672.21
30
0
11
273550.0
21
122687.79
31
0
0
LINE
8
electrical
10
273550.0
20
122687.79
30
0
11
273550.0
21
122680.0
31
0
0
LINE
8
electrical
10
239600.0
20
122680.0
30
0
11
273550.0
21
122680.0
31
0
0
LINE
8
electrical
10
239600.0
20
122680.0
30
0
11
239600.0
21
122672.21
31
0
0
LINE
8
electrical
10
239600.0
20
122672.21
30
0
11
239600.0
21
122687.79
31
0
0
LINE
8
electrical
10
239600.0
20
122687.79
30
0
11
239600.0
21
122680.0
31
0
0
LINE
8
electrical
10
239600.0
20
122680.0
30
0
11
239609.72
21
122680.0
31
0
0
LINE
8
electrical
10
239609.72
20
122680.0
30
0
11
239600.0
21
122680.0
31
0
0
LINE
8
electrical
10
265335.0
20
122650.0
30
0
11
265335.0
21
122710.0
31
0
0
LINE
8
electrical
10
265465.0
20
122650.0
30
0
11
265465.0
21
122710.0
31
0
0
LINE
8
electrical
10
265335.0
20
122650.0
30
0
11
265465.0
21
122650.0
31
0
0
LINE
8
electrical
10
265335.0
20
122710.0
30
0
11
265465.0
21
122710.0
31
0
0
LINE
8
electrical
10
265409.0
20
122680.0
30
0
11
265395.5
21
122687.79
31
0
0
LINE
8
electrical
10
265395.5
20
122687.79
30
0
11
265395.5
21
122672.21
31
0
0
LINE
8
electrical
10
265395.5
20
122672.21
30
0
11
265409.0
21
122680.0
31
0
0
LINE
8
electrical
10
273550.0
20
122680.0
30
0
11
273550.0
21
122672.21
31
0
0
LINE
8
electrical
10
273550.0
20
122672.21
30
0
11
273550.0
21
122687.79
31
0
0
LINE
8
electrical
10
273550.0
20
122687.79
30
0
11
273550.0
21
122680.0
31
0
0
LINE
8
electrical
10
265400.0
20
122680.0
30
0
11
273550.0
21
122680.0
31
0
0
LINE
8
electrical
10
265400.0
20
122680.0
30
0
11
265400.0
21
122672.21
31
0
0
LINE
8
electrical
10
265400.0
20
122672.21
30
0
11
265400.0
21
122687.79
31
0
0
LINE
8
electrical
10
265400.0
20
122687.79
30
0
11
265400.0
21
122680.0
31
0
0
LINE
8
electrical
10
265400.0
20
122680.0
30
0
11
265409.72
21
122680.0
31
0
0
LINE
8
electrical
10
265409.72
20
122680.0
30
0
11
265400.0
21
122680.0
31
0
0
LINE
8
hvac
10
231475.0
20
123225.0
30
0
11
231475.0
21
123975.0
31
0
0
LINE
8
hvac
10
233125.0
20
123225.0
30
0
11
233125.0
21
123975.0
31
0
0
LINE
8
hvac
10
231475.0
20
123225.0
30
0
11
233125.0
21
123225.0
31
0
0
LINE
8
hvac
10
231475.0
20
123975.0
30
0
11
233125.0
21
123975.0
31
0
0
LINE
8
hvac
10
231575.0
20
123180.0
30
0
11
231575.0
21
123220.0
31
0
0
LINE
8
hvac
10
233025.0
20
123180.0
30
0
11
233025.0
21
123220.0
31
0
0
LINE
8
hvac
10
231575.0
20
123180.0
30
0
11
233025.0
21
123180.0
31
0
0
LINE
8
hvac
10
231575.0
20
123220.0
30
0
11
233025.0
21
123220.0
31
0
0
LINE
8
hvac
10
231640.0
20
123140.0
30
0
11
231640.0
21
123200.0
31
0
0
LINE
8
hvac
10
231680.0
20
123140.0
30
0
11
231680.0
21
123200.0
31
0
0
LINE
8
hvac
10
231640.0
20
123140.0
30
0
11
231680.0
21
123140.0
31
0
0
LINE
8
hvac
10
231640.0
20
123200.0
30
0
11
231680.0
21
123200.0
31
0
0
LINE
8
hvac
10
231800.0
20
123140.0
30
0
11
231800.0
21
123200.0
31
0
0
LINE
8
hvac
10
231840.0
20
123140.0
30
0
11
231840.0
21
123200.0
31
0
0
LINE
8
hvac
10
231800.0
20
123140.0
30
0
11
231840.0
21
123140.0
31
0
0
LINE
8
hvac
10
231800.0
20
123200.0
30
0
11
231840.0
21
123200.0
31
0
0
LINE
8
hvac
10
231960.0
20
123140.0
30
0
11
231960.0
21
123200.0
31
0
0
LINE
8
hvac
10
232000.0
20
123140.0
30
0
11
232000.0
21
123200.0
31
0
0
LINE
8
hvac
10
231960.0
20
123140.0
30
0
11
232000.0
21
123140.0
31
0
0
LINE
8
hvac
10
231960.0
20
123200.0
30
0
11
232000.0
21
123200.0
31
0
0
LINE
8
hvac
10
232120.0
20
123140.0
30
0
11
232120.0
21
123200.0
31
0
0
LINE
8
hvac
10
232160.0
20
123140.0
30
0
11
232160.0
21
123200.0
31
0
0
LINE
8
hvac
10
232120.0
20
123140.0
30
0
11
232160.0
21
123140.0
31
0
0
LINE
8
hvac
10
232120.0
20
123200.0
30
0
11
232160.0
21
123200.0
31
0
0
LINE
8
hvac
10
232280.0
20
123140.0
30
0
11
232280.0
21
123200.0
31
0
0
LINE
8
hvac
10
232320.0
20
123140.0
30
0
11
232320.0
21
123200.0
31
0
0
LINE
8
hvac
10
232280.0
20
123140.0
30
0
11
232320.0
21
123140.0
31
0
0
LINE
8
hvac
10
232280.0
20
123200.0
30
0
11
232320.0
21
123200.0
31
0
0
LINE
8
hvac
10
232440.0
20
123140.0
30
0
11
232440.0
21
123200.0
31
0
0
LINE
8
hvac
10
232480.0
20
123140.0
30
0
11
232480.0
21
123200.0
31
0
0
LINE
8
hvac
10
232440.0
20
123140.0
30
0
11
232480.0
21
123140.0
31
0
0
LINE
8
hvac
10
232440.0
20
123200.0
30
0
11
232480.0
21
123200.0
31
0
0
LINE
8
hvac
10
232600.0
20
123140.0
30
0
11
232600.0
21
123200.0
31
0
0
LINE
8
hvac
10
232640.0
20
123140.0
30
0
11
232640.0
21
123200.0
31
0
0
LINE
8
hvac
10
232600.0
20
123140.0
30
0
11
232640.0
21
123140.0
31
0
0
LINE
8
hvac
10
232600.0
20
123200.0
30
0
11
232640.0
21
123200.0
31
0
0
LINE
8
hvac
10
232760.0
20
123140.0
30
0
11
232760.0
21
123200.0
31
0
0
LINE
8
hvac
10
232800.0
20
123140.0
30
0
11
232800.0
21
123200.0
31
0
0
LINE
8
hvac
10
232760.0
20
123140.0
30
0
11
232800.0
21
123140.0
31
0
0
LINE
8
hvac
10
232760.0
20
123200.0
30
0
11
232800.0
21
123200.0
31
0
0
LINE
8
hvac
10
232920.0
20
123140.0
30
0
11
232920.0
21
123200.0
31
0
0
LINE
8
hvac
10
232960.0
20
123140.0
30
0
11
232960.0
21
123200.0
31
0
0
LINE
8
hvac
10
232920.0
20
123140.0
30
0
11
232960.0
21
123140.0
31
0
0
LINE
8
hvac
10
232920.0
20
123200.0
30
0
11
232960.0
21
123200.0
31
0
0
LINE
8
hvac
10
232075.0
20
123375.0
30
0
11
232075.0
21
123825.0
31
0
0
LINE
8
hvac
10
232525.0
20
123375.0
30
0
11
232525.0
21
123825.0
31
0
0
LINE
8
hvac
10
232075.0
20
123375.0
30
0
11
232525.0
21
123375.0
31
0
0
LINE
8
hvac
10
232075.0
20
123825.0
30
0
11
232525.0
21
123825.0
31
0
0
LINE
8
hvac
10
237450.0
20
135825.0
30
0
11
237450.0
21
136175.0
31
0
0
LINE
8
hvac
10
267550.0
20
135825.0
30
0
11
267550.0
21
136175.0
31
0
0
LINE
8
hvac
10
237450.0
20
135825.0
30
0
11
267550.0
21
135825.0
31
0
0
LINE
8
hvac
10
237450.0
20
136175.0
30
0
11
267550.0
21
136175.0
31
0
0
LINE
8
hvac
10
232125.0
20
123425.0
30
0
11
232125.0
21
123775.0
31
0
0
LINE
8
hvac
10
252675.0
20
123425.0
30
0
11
252675.0
21
123775.0
31
0
0
LINE
8
hvac
10
232125.0
20
123425.0
30
0
11
252675.0
21
123425.0
31
0
0
LINE
8
hvac
10
232125.0
20
123775.0
30
0
11
252675.0
21
123775.0
31
0
0
LINE
8
hvac
10
252325.0
20
123425.0
30
0
11
252325.0
21
136175.0
31
0
0
LINE
8
hvac
10
252675.0
20
123425.0
30
0
11
252675.0
21
136175.0
31
0
0
LINE
8
hvac
10
252325.0
20
123425.0
30
0
11
252675.0
21
123425.0
31
0
0
LINE
8
hvac
10
252325.0
20
136175.0
30
0
11
252675.0
21
136175.0
31
0
0
LINE
8
hvac
10
243550.0
20
135650.0
30
0
11
243550.0
21
136350.0
31
0
0
LINE
8
hvac
10
244250.0
20
135650.0
30
0
11
244250.0
21
136350.0
31
0
0
LINE
8
hvac
10
243550.0
20
135650.0
30
0
11
244250.0
21
135650.0
31
0
0
LINE
8
hvac
10
243550.0
20
136350.0
30
0
11
244250.0
21
136350.0
31
0
0
LINE
8
hvac
10
260750.0
20
135650.0
30
0
11
260750.0
21
136350.0
31
0
0
LINE
8
hvac
10
261450.0
20
135650.0
30
0
11
261450.0
21
136350.0
31
0
0
LINE
8
hvac
10
260750.0
20
135650.0
30
0
11
261450.0
21
135650.0
31
0
0
LINE
8
hvac
10
260750.0
20
136350.0
30
0
11
261450.0
21
136350.0
31
0
0
LINE
8
sensors
10
231040.0
20
128360.0
30
0
11
231040.0
21
128520.0
31
0
0
LINE
8
sensors
10
231140.0
20
128360.0
30
0
11
231140.0
21
128520.0
31
0
0
LINE
8
sensors
10
231040.0
20
128360.0
30
0
11
231140.0
21
128360.0
31
0
0
LINE
8
sensors
10
231040.0
20
128520.0
30
0
11
231140.0
21
128520.0
31
0
0
LINE
8
sensors
10
231145.0
20
128385.0
30
0
11
231145.0
21
128495.0
31
0
0
LINE
8
sensors
10
231165.0
20
128385.0
30
0
11
231165.0
21
128495.0
31
0
0
LINE
8
sensors
10
231145.0
20
128385.0
30
0
11
231165.0
21
128385.0
31
0
0
LINE
8
sensors
10
231145.0
20
128495.0
30
0
11
231165.0
21
128495.0
31
0
0
LINE
8
sensors
10
231040.0
20
128660.0
30
0
11
231040.0
21
128820.0
31
0
0
LINE
8
sensors
10
231140.0
20
128660.0
30
0
11
231140.0
21
128820.0
31
0
0
LINE
8
sensors
10
231040.0
20
128660.0
30
0
11
231140.0
21
128660.0
31
0
0
LINE
8
sensors
10
231040.0
20
128820.0
30
0
11
231140.0
21
128820.0
31
0
0
LINE
8
sensors
10
231145.0
20
128685.0
30
0
11
231145.0
21
128795.0
31
0
0
LINE
8
sensors
10
231165.0
20
128685.0
30
0
11
231165.0
21
128795.0
31
0
0
LINE
8
sensors
10
231145.0
20
128685.0
30
0
11
231165.0
21
128685.0
31
0
0
LINE
8
sensors
10
231145.0
20
128795.0
30
0
11
231165.0
21
128795.0
31
0
0
LINE
8
sensors
10
231040.0
20
128960.0
30
0
11
231040.0
21
129120.0
31
0
0
LINE
8
sensors
10
231140.0
20
128960.0
30
0
11
231140.0
21
129120.0
31
0
0
LINE
8
sensors
10
231040.0
20
128960.0
30
0
11
231140.0
21
128960.0
31
0
0
LINE
8
sensors
10
231040.0
20
129120.0
30
0
11
231140.0
21
129120.0
31
0
0
LINE
8
sensors
10
231145.0
20
128985.0
30
0
11
231145.0
21
129095.0
31
0
0
LINE
8
sensors
10
231165.0
20
128985.0
30
0
11
231165.0
21
129095.0
31
0
0
LINE
8
sensors
10
231145.0
20
128985.0
30
0
11
231165.0
21
128985.0
31
0
0
LINE
8
sensors
10
231145.0
20
129095.0
30
0
11
231165.0
21
129095.0
31
0
0
LINE
8
sensors
10
252580.0
20
136000.0
30
0
11
252500.0
21
136080.0
31
0
0
LINE
8
sensors
10
252500.0
20
136080.0
30
0
11
252420.0
21
136000.0
31
0
0
LINE
8
sensors
10
252420.0
20
136000.0
30
0
11
252500.0
21
135920.0
31
0
0
LINE
8
sensors
10
252500.0
20
135920.0
30
0
11
252580.0
21
136000.0
31
0
0
LINE
8
sensors
10
252500.0
20
136000.0
30
0
11
252565.0
21
136000.0
31
0
0
LINE
8
sensors
10
252565.0
20
136000.0
30
0
11
252500.0
21
136000.0
31
0
0
LINE
8
sensors
10
231040.0
20
129560.0
30
0
11
231040.0
21
129720.0
31
0
0
LINE
8
sensors
10
231140.0
20
129560.0
30
0
11
231140.0
21
129720.0
31
0
0
LINE
8
sensors
10
231040.0
20
129560.0
30
0
11
231140.0
21
129560.0
31
0
0
LINE
8
sensors
10
231040.0
20
129720.0
30
0
11
231140.0
21
129720.0
31
0
0
LINE
8
sensors
10
231145.0
20
129585.0
30
0
11
231145.0
21
129695.0
31
0
0
LINE
8
sensors
10
231165.0
20
129585.0
30
0
11
231165.0
21
129695.0
31
0
0
LINE
8
sensors
10
231145.0
20
129585.0
30
0
11
231165.0
21
129585.0
31
0
0
LINE
8
sensors
10
231145.0
20
129695.0
30
0
11
231165.0
21
129695.0
31
0
0
ENDSEC
0
EOF
