0
SECTION
2
HEADER
9
$ACADVER
1
AC1015
9
$INSUNITS
70
4
0
ENDSEC
0
SECTION
2
ENTITIES
0
LINE
8
interiors
10
276900.0
20
122500.0
30
0
11
276900.0
21
140500.0
31
0
0
LINE
8
interiors
10
276900.0
20
122500.0
30
0
11
280200.0
21
122500.0
31
0
0
LINE
8
interiors
10
280200.0
20
122500.0
30
0
11
282600.0
21
122500.0
31
0
0
LINE
8
interiors
10
282600.0
20
122500.0
30
0
11
285900.0
21
122500.0
31
0
0
LINE
8
interiors
10
276900.0
20
122500.0
30
0
11
285900.0
21
122500.0
31
0
0
LINE
8
interiors
10
276900.0
20
140500.0
30
0
11
285900.0
21
140500.0
31
0
0
LINE
8
interiors
10
285900.0
20
122500.0
30
0
11
285900.0
21
140500.0
31
0
0
LINE
8
interiors
10
285780.0
20
122620.0
30
0
11
277020.0
21
122620.0
31
0
0
LINE
8
interiors
10
285780.0
20
122620.0
30
0
11
285780.0
21
140380.0
31
0
0
LINE
8
interiors
10
285780.0
20
140380.0
30
0
11
277020.0
21
140380.0
31
0
0
LINE
8
interiors
10
277020.0
20
122620.0
30
0
11
277020.0
21
140380.0
31
0
0
LINE
8
interiors
10
279060.0
20
140500.0
30
0
11
283740.0
21
140500.0
31
0
0
LINE
8
interiors
10
282600.0
20
122500.0
30
0
11
282600.0
21
122620.0
31
0
0
LINE
8
interiors
10
285780.0
20
122620.0
30
0
11
282600.0
21
122620.0
31
0
0
LINE
8
interiors
10
280200.0
20
122620.0
30
0
11
277020.0
21
122620.0
31
0
0
LINE
8
interiors
10
280200.0
20
122500.0
30
0
11
280200.0
21
122620.0
31
0
0
LINE
8
interiors
10
280200.0
20
122620.0
30
0
11
282600.0
21
122620.0
31
0
0
LINE
8
interiors
10
279060.0
20
140380.0
30
0
11
283740.0
21
140380.0
31
0
0
LINE
8
interiors
10
279060.0
20
140380.0
30
0
11
279060.0
21
140500.0
31
0
0
LINE
8
interiors
10
283740.0
20
140380.0
30
0
11
283740.0
21
140500.0
31
0
0
LINE
8
interiors
10
279060.0
20
140477.5
30
0
11
279060.0
21
140522.5
31
0
0
LINE
8
interiors
10
283740.0
20
140477.5
30
0
11
283740.0
21
140522.5
31
0
0
LINE
8
interiors
10
279060.0
20
140477.5
30
0
11
283740.0
21
140477.5
31
0
0
LINE
8
interiors
10
279060.0
20
140522.5
30
0
11
283740.0
21
140522.5
31
0
0
LINE
8
interiors
10
277025.0
20
122625.0
30
0
11
277025.0
21
140375.0
31
0
0
LINE
8
interiors
10
285775.0
20
122625.0
30
0
11
285775.0
21
140375.0
31
0
0
LINE
8
interiors
10
277025.0
20
122625.0
30
0
11
285775.0
21
122625.0
31
0
0
LINE
8
interiors
10
277025.0
20
140375.0
30
0
11
285775.0
21
140375.0
31
0
0
LINE
8
interiors
10
280245.0
20
122380.0
30
0
11
280245.0
21
122620.0
31
0
0
LINE
8
interiors
10
280315.0
20
122380.0
30
0
11
280315.0
21
122620.0
31
0
0
LINE
8
interiors
10
280245.0
20
122380.0
30
0
11
280315.0
21
122380.0
31
0
0
LINE
8
interiors
10
280245.0
20
122620.0
30
0
11
280315.0
21
122620.0
31
0
0
LINE
8
interiors
10
282485.0
20
122380.0
30
0
11
282485.0
21
122620.0
31
0
0
LINE
8
interiors
10
282555.0
20
122380.0
30
0
11
282555.0
21
122620.0
31
0
0
LINE
8
interiors
10
282485.0
20
122380.0
30
0
11
282555.0
21
122380.0
31
0
0
LINE
8
interiors
10
282485.0
20
122620.0
30
0
11
282555.0
21
122620.0
31
0
0
LINE
8
interiors
10
280250.0
20
122380.0
30
0
11
280250.0
21
122620.0
31
0
0
LINE
8
interiors
10
282550.0
20
122380.0
30
0
11
282550.0
21
122620.0
31
0
0
LINE
8
interiors
10
280250.0
20
122380.0
30
0
11
282550.0
21
122380.0
31
0
0
LINE
8
interiors
10
280250.0
20
122620.0
30
0
11
282550.0
21
122620.0
31
0
0
LINE
8
interiors
10
280330.39
20
122590.49
30
0
11
280289.61
21
122609.51
31
0
0
LINE
8
interiors
10
280786.82
20
123569.3
30
0
11
280746.04
21
123588.32
31
0
0
LINE
8
interiors
10
280330.39
20
122590.49
30
0
11
280786.82
21
123569.3
31
0
0
LINE
8
interiors
10
280289.61
20
122609.51
30
0
11
280746.04
21
123588.32
31
0
0
LINE
8
interiors
10
278200.0
20
127760.0
30
0
11
278200.0
21
128760.0
31
0
0
LINE
8
interiors
10
281000.0
20
127760.0
30
0
11
281000.0
21
128760.0
31
0
0
LINE
8
interiors
10
278200.0
20
127760.0
30
0
11
281000.0
21
127760.0
31
0
0
LINE
8
interiors
10
278200.0
20
128760.0
30
0
11
281000.0
21
128760.0
31
0
0
LINE
8
interiors
10
278265.0
20
127825.0
30
0
11
278265.0
21
127895.0
31
0
0
LINE
8
interiors
10
278335.0
20
127825.0
30
0
11
278335.0
21
127895.0
31
0
0
LINE
8
interiors
10
278265.0
20
127825.0
30
0
11
278335.0
21
127825.0
31
0
0
LINE
8
interiors
10
278265.0
20
127895.0
30
0
11
278335.0
21
127895.0
31
0
0
LINE
8
interiors
10
278265.0
20
128625.0
30
0
11
278265.0
21
128695.0
31
0
0
LINE
8
interiors
10
278335.0
20
128625.0
30
0
11
278335.0
21
128695.0
31
0
0
LINE
8
interiors
10
278265.0
20
128625.0
30
0
11
278335.0
21
128625.0
31
0
0
LINE
8
interiors
10
278265.0
20
128695.0
30
0
11
278335.0
21
128695.0
31
0
0
LINE
8
interiors
10
280865.0
20
127825.0
30
0
11
280865.0
21
127895.0
31
0
0
LINE
8
interiors
10
280935.0
20
127825.0
30
0
11
280935.0
21
127895.0
31
0
0
LINE
8
interiors
10
280865.0
20
127825.0
30
0
11
280935.0
21
127825.0
31
0
0
LINE
8
interiors
10
280865.0
20
127895.0
30
0
11
280935.0
21
127895.0
31
0
0
LINE
8
interiors
10
280865.0
20
128625.0
30
0
11
280865.0
21
128695.0
31
0
0
LINE
8
interiors
10
280935.0
20
128625.0
30
0
11
280935.0
21
128695.0
31
0
0
LINE
8
interiors
10
280865.0
20
128625.0
30
0
11
280935.0
21
128625.0
31
0
0
LINE
8
interiors
10
280865.0
20
128695.0
30
0
11
280935.0
21
128695.0
31
0
0
LINE
8
interiors
10
278150.0
20
135650.0
30
0
11
278150.0
21
136350.0
31
0
0
LINE
8
interiors
10
280150.0
20
135650.0
30
0
11
280150.0
21
136350.0
31
0
0
LINE
8
interiors
10
278150.0
20
135650.0
30
0
11
280150.0
21
135650.0
31
0
0
LINE
8
interiors
10
278150.0
20
136350.0
30
0
11
280150.0
21
136350.0
31
0
0
LINE
8
interiors
10
278250.0
20
135627.5
30
0
11
278250.0
21
135652.5
31
0
0
LINE
8
interiors
10
280050.0
20
135627.5
30
0
11
280050.0
21
135652.5
31
0
0
LINE
8
interiors
10
278250.0
20
135627.5
30
0
11
280050.0
21
135627.5
31
0
0
LINE
8
interiors
10
278250.0
20
135652.5
30
0
11
280050.0
21
135652.5
31
0
0
LINE
8
interiors
10
281400.0
20
126860.0
30
0
11
281400.0
21
127860.0
31
0
0
LINE
8
interiors
10
283400.0
20
126860.0
30
0
11
283400.0
21
127860.0
31
0
0
LINE
8
interiors
10
281400.0
20
126860.0
30
0
11
283400.0
21
126860.0
31
0
0
LINE
8
interiors
10
281400.0
20
127860.0
30
0
11
283400.0
21
127860.0
31
0
0
LINE
8
interiors
10
282080.0
20
127110.0
30
0
11
281990.0
21
127265.88
31
0
0
LINE
8
interiors
10
281990.0
20
127265.88
30
0
11
281810.0
21
127265.88
31
0
0
LINE
8
interiors
10
281810.0
20
127265.88
30
0
11
281720.0
21
127110.0
31
0
0
LINE
8
interiors
10
281720.0
20
127110.0
30
0
11
281810.0
21
126954.12
31
0
0
LINE
8
interiors
10
281810.0
20
126954.12
30
0
11
281990.0
21
126954.12
31
0
0
LINE
8
interiors
10
281990.0
20
126954.12
30
0
11
282080.0
21
127110.0
31
0
0
LINE
8
interiors
10
282080.0
20
127610.0
30
0
11
281990.0
21
127765.88
31
0
0
LINE
8
interiors
10
281990.0
20
127765.88
30
0
11
281810.0
21
127765.88
31
0
0
LINE
8
interiors
10
281810.0
20
127765.88
30
0
11
281720.0
21
127610.0
31
0
0
LINE
8
interiors
10
281720.0
20
127610.0
30
0
11
281810.0
21
127454.12
31
0
0
LINE
8
interiors
10
281810.0
20
127454.12
30
0
11
281990.0
21
127454.12
31
0
0
LINE
8
interiors
10
281990.0
20
127454.12
30
0
11
282080.0
21
127610.0
31
0
0
LINE
8
interiors
10
283080.0
20
127110.0
30
0
11
282990.0
21
127265.88
31
0
0
LINE
8
interiors
10
282990.0
20
127265.88
30
0
11
282810.0
21
127265.88
31
0
0
LINE
8
interiors
10
282810.0
20
127265.88
30
0
11
282720.0
21
127110.0
31
0
0
LINE
8
interiors
10
282720.0
20
127110.0
30
0
11
282810.0
21
126954.12
31
0
0
LINE
8
interiors
10
282810.0
20
126954.12
30
0
11
282990.0
21
126954.12
31
0
0
LINE
8
interiors
10
282990.0
20
126954.12
30
0
11
283080.0
21
127110.0
31
0
0
LINE
8
interiors
10
283080.0
20
127610.0
30
0
11
282990.0
21
127765.88
31
0
0
LINE
8
interiors
10
282990.0
20
127765.88
30
0
11
282810.0
21
127765.88
31
0
0
LINE
8
interiors
10
282810.0
20
127765.88
30
0
11
282720.0
21
127610.0
31
0
0
LINE
8
interiors
10
282720.0
20
127610.0
30
0
11
282810.0
21
127454.12
31
0
0
LINE
8
interiors
10
282810.0
20
127454.12
30
0
11
282990.0
21
127454.12
31
0
0
LINE
8
interiors
10
282990.0
20
127454.12
30
0
11
283080.0
21
127610.0
31
0
0
LINE
8
hvac
10
281100.0
20
126660.0
30
0
11
281100.0
21
128060.0
31
0
0
LINE
8
hvac
10
283700.0
20
126660.0
30
0
11
283700.0
21
128060.0
31
0
0
LINE
8
hvac
10
281100.0
20
126660.0
30
0
11
283700.0
21
126660.0
31
0
0
LINE
8
hvac
10
281100.0
20
128060.0
30
0
11
283700.0
21
128060.0
31
0
0
LINE
8
hvac
10
282125.0
20
127085.0
30
0
11
282125.0
21
127635.0
31
0
0
LINE
8
hvac
10
282675.0
20
127085.0
30
0
11
282675.0
21
127635.0
31
0
0
LINE
8
hvac
10
282125.0
20
127085.0
30
0
11
282675.0
21
127085.0
31
0
0
LINE
8
hvac
10
282125.0
20
127635.0
30
0
11
282675.0
21
127635.0
31
0
0
LINE
8
electrical
10
285175.0
20
122575.0
30
0
11
285175.0
21
122825.0
31
0
0
LINE
8
electrical
10
285725.0
20
122575.0
30
0
11
285725.0
21
122825.0
31
0
0
LINE
8
electrical
10
285175.0
20
122575.0
30
0
11
285725.0
21
122575.0
31
0
0
LINE
8
electrical
10
285175.0
20
122825.0
30
0
11
285725.0
21
122825.0
31
0
0
LINE
8
electrical
10
285215.0
20
122547.5
30
0
11
285215.0
21
122582.5
31
0
0
LINE
8
electrical
10
285685.0
20
122547.5
30
0
11
285685.0
21
122582.5
31
0
0
LINE
8
electrical
10
285215.0
20
122547.5
30
0
11
285685.0
21
122547.5
31
0
0
LINE
8
electrical
10
285215.0
20
122582.5
30
0
11
285685.0
21
122582.5
31
0
0
LINE
8
electrical
10
285262.5
20
122510.0
30
0
11
285262.5
21
122550.0
31
0
0
LINE
8
electrical
10
285362.5
20
122510.0
30
0
11
285362.5
21
122550.0
31
0
0
LINE
8
electrical
10
285262.5
20
122510.0
30
0
11
285362.5
21
122510.0
31
0
0
LINE
8
electrical
10
285262.5
20
122550.0
30
0
11
285362.5
21
122550.0
31
0
0
LINE
8
electrical
10
285400.0
20
122510.0
30
0
11
285400.0
21
122550.0
31
0
0
LINE
8
electrical
10
285500.0
20
122510.0
30
0
11
285500.0
21
122550.0
31
0
0
LINE
8
electrical
10
285400.0
20
122510.0
30
0
11
285500.0
21
122510.0
31
0
0
LINE
8
electrical
10
285400.0
20
122550.0
30
0
11
285500.0
21
122550.0
31
0
0
LINE
8
electrical
10
285537.5
20
122510.0
30
0
11
285537.5
21
122550.0
31
0
0
LINE
8
electrical
10
285637.5
20
122510.0
30
0
11
285637.5
21
122550.0
31
0
0
LINE
8
electrical
10
285537.5
20
122510.0
30
0
11
285637.5
21
122510.0
31
0
0
LINE
8
electrical
10
285537.5
20
122550.0
30
0
11
285637.5
21
122550.0
31
0
0
LINE
8
electrical
10
285312.5
20
122495.0
30
0
11
285335.88
21
122495.0
31
0
0
LINE
8
electrical
10
285335.88
20
122495.0
30
0
11
285289.12
21
122495.0
31
0
0
LINE
8
electrical
10
285289.12
20
122495.0
30
0
11
285312.5
21
122495.0
31
0
0
LINE
8
electrical
10
285312.5
20
122520.0
30
0
11
285312.5
21
122495.0
31
0
0
LINE
8
electrical
10
285312.5
20
122520.0
30
0
11
285335.88
21
122520.0
31
0
0
LINE
8
electrical
10
285335.88
20
122520.0
30
0
11
285289.12
21
122520.0
31
0
0
LINE
8
electrical
10
285289.12
20
122520.0
30
0
11
285312.5
21
122520.0
31
0
0
LINE
8
electrical
10
285450.0
20
122495.0
30
0
11
285473.38
21
122495.0
31
0
0
LINE
8
electrical
10
285473.38
20
122495.0
30
0
11
285426.62
21
122495.0
31
0
0
LINE
8
electrical
10
285426.62
20
122495.0
30
0
11
285450.0
21
122495.0
31
0
0
LINE
8
electrical
10
285450.0
20
122520.0
30
0
11
285450.0
21
122495.0
31
0
0
LINE
8
electrical
10
285450.0
20
122520.0
30
0
11
285473.38
21
122520.0
31
0
0
LINE
8
electrical
10
285473.38
20
122520.0
30
0
11
285426.62
21
122520.0
31
0
0
LINE
8
electrical
10
285426.62
20
122520.0
30
0
11
285450.0
21
122520.0
31
0
0
LINE
8
electrical
10
285587.5
20
122495.0
30
0
11
285610.88
21
122495.0
31
0
0
LINE
8
electrical
10
285610.88
20
122495.0
30
0
11
285564.12
21
122495.0
31
0
0
LINE
8
electrical
10
285564.12
20
122495.0
30
0
11
285587.5
21
122495.0
31
0
0
LINE
8
electrical
10
285587.5
20
122520.0
30
0
11
285587.5
21
122495.0
31
0
0
LINE
8
electrical
10
285587.5
20
122520.0
30
0
11
285610.88
21
122520.0
31
0
0
LINE
8
electrical
10
285610.88
20
122520.0
30
0
11
285564.12
21
122520.0
31
0
0
LINE
8
electrical
10
285564.12
20
122520.0
30
0
11
285587.5
21
122520.0
31
0
0
LINE
8
electrical
10
285450.0
20
122700.0
30
0
11
285465.59
21
122700.0
31
0
0
LINE
8
electrical
10
285465.59
20
122700.0
30
0
11
285434.41
21
122700.0
31
0
0
LINE
8
electrical
10
285434.41
20
122700.0
30
0
11
285450.0
21
122700.0
31
0
0
LINE
8
electrical
10
285450.0
20
122200.0
30
0
11
285450.0
21
122700.0
31
0
0
LINE
8
electrical
10
285450.0
20
122200.0
30
0
11
285465.59
21
122200.0
31
0
0
LINE
8
electrical
10
285465.59
20
122200.0
30
0
11
285434.41
21
122200.0
31
0
0
LINE
8
electrical
10
285434.41
20
122200.0
30
0
11
285450.0
21
122200.0
31
0
0
LINE
8
electrical
10
285432.0
20
122700.0
30
0
11
285459.0
21
122715.59
31
0
0
LINE
8
electrical
10
285459.0
20
122715.59
30
0
11
285459.0
21
122684.41
31
0
0
LINE
8
electrical
10
285459.0
20
122684.41
30
0
11
285432.0
21
122700.0
31
0
0
LINE
8
electrical
10
285450.0
20
122700.0
30
0
11
285469.44
21
122700.0
31
0
0
LINE
8
electrical
10
285469.44
20
122700.0
30
0
11
285450.0
21
122700.0
31
0
0
LINE
8
lighting
10
277840.0
20
125060.0
30
0
11
277840.0
21
125700.0
31
0
0
LINE
8
lighting
10
278480.0
20
125060.0
30
0
11
278480.0
21
125700.0
31
0
0
LINE
8
lighting
10
277840.0
20
125060.0
30
0
11
278480.0
21
125060.0
31
0
0
LINE
8
lighting
10
277840.0
20
125700.0
30
0
11
278480.0
21
125700.0
31
0
0
LINE
8
lighting
10
277880.0
20
125100.0
30
0
11
277880.0
21
125660.0
31
0
0
LINE
8
lighting
10
278440.0
20
125100.0
30
0
11
278440.0
21
125660.0
31
0
0
LINE
8
lighting
10
277880.0
20
125100.0
30
0
11
278440.0
21
125100.0
31
0
0
LINE
8
lighting
10
277880.0
20
125660.0
30
0
11
278440.0
21
125660.0
31
0
0
LINE
8
lighting
10
277914.0
20
125110.0
30
0
11
277914.0
21
125650.0
31
0
0
LINE
8
lighting
10
277926.0
20
125110.0
30
0
11
277926.0
21
125650.0
31
0
0
LINE
8
lighting
10
277914.0
20
125110.0
30
0
11
277926.0
21
125110.0
31
0
0
LINE
8
lighting
10
277914.0
20
125650.0
30
0
11
277926.0
21
125650.0
31
0
0
LINE
8
lighting
10
277994.0
20
125110.0
30
0
11
277994.0
21
125650.0
31
0
0
LINE
8
lighting
10
278006.0
20
125110.0
30
0
11
278006.0
21
125650.0
31
0
0
LINE
8
lighting
10
277994.0
20
125110.0
30
0
11
278006.0
21
125110.0
31
0
0
LINE
8
lighting
10
277994.0
20
125650.0
30
0
11
278006.0
21
125650.0
31
0
0
LINE
8
lighting
10
278074.0
20
125110.0
30
0
11
278074.0
21
125650.0
31
0
0
LINE
8
lighting
10
278086.0
20
125110.0
30
0
11
278086.0
21
125650.0
31
0
0
LINE
8
lighting
10
278074.0
20
125110.0
30
0
11
278086.0
21
125110.0
31
0
0
LINE
8
lighting
10
278074.0
20
125650.0
30
0
11
278086.0
21
125650.0
31
0
0
LINE
8
lighting
10
278154.0
20
125110.0
30
0
11
278154.0
21
125650.0
31
0
0
LINE
8
lighting
10
278166.0
20
125110.0
30
0
11
278166.0
21
125650.0
31
0
0
LINE
8
lighting
10
278154.0
20
125110.0
30
0
11
278166.0
21
125110.0
31
0
0
LINE
8
lighting
10
278154.0
20
125650.0
30
0
11
278166.0
21
125650.0
31
0
0
LINE
8
lighting
10
278234.0
20
125110.0
30
0
11
278234.0
21
125650.0
31
0
0
LINE
8
lighting
10
278246.0
20
125110.0
30
0
11
278246.0
21
125650.0
31
0
0
LINE
8
lighting
10
278234.0
20
125110.0
30
0
11
278246.0
21
125110.0
31
0
0
LINE
8
lighting
10
278234.0
20
125650.0
30
0
11
278246.0
21
125650.0
31
0
0
LINE
8
lighting
10
278314.0
20
125110.0
30
0
11
278314.0
21
125650.0
31
0
0
LINE
8
lighting
10
278326.0
20
125110.0
30
0
11
278326.0
21
125650.0
31
0
0
LINE
8
lighting
10
278314.0
20
125110.0
30
0
11
278326.0
21
125110.0
31
0
0
LINE
8
lighting
10
278314.0
20
125650.0
30
0
11
278326.0
21
125650.0
31
0
0
LINE
8
lighting
10
278394.0
20
125110.0
30
0
11
278394.0
21
125650.0
31
0
0
LINE
8
lighting
10
278406.0
20
125110.0
30
0
11
278406.0
21
125650.0
31
0
0
LINE
8
lighting
10
278394.0
20
125110.0
30
0
11
278406.0
21
125110.0
31
0
0
LINE
8
lighting
10
278394.0
20
125650.0
30
0
11
278406.0
21
125650.0
31
0
0
LINE
8
lighting
10
278169.0
20
125380.0
30
0
11
278155.5
21
125387.79
31
0
0
LINE
8
lighting
10
278155.5
20
125387.79
30
0
11
278155.5
21
125372.21
31
0
0
LINE
8
lighting
10
278155.5
20
125372.21
30
0
11
278169.0
21
125380.0
31
0
0
LINE
8
lighting
10
284320.0
20
125060.0
30
0
11
284320.0
21
125700.0
31
0
0
LINE
8
lighting
10
284960.0
20
125060.0
30
0
11
284960.0
21
125700.0
31
0
0
LINE
8
lighting
10
284320.0
20
125060.0
30
0
11
284960.0
21
125060.0
31
0
0
LINE
8
lighting
10
284320.0
20
125700.0
30
0
11
284960.0
21
125700.0
31
0
0
LINE
8
lighting
10
284360.0
20
125100.0
30
0
11
284360.0
21
125660.0
31
0
0
LINE
8
lighting
10
284920.0
20
125100.0
30
0
11
284920.0
21
125660.0
31
0
0
LINE
8
lighting
10
284360.0
20
125100.0
30
0
11
284920.0
21
125100.0
31
0
0
LINE
8
lighting
10
284360.0
20
125660.0
30
0
11
284920.0
21
125660.0
31
0
0
LINE
8
lighting
10
284394.0
20
125110.0
30
0
11
284394.0
21
125650.0
31
0
0
LINE
8
lighting
10
284406.0
20
125110.0
30
0
11
284406.0
21
125650.0
31
0
0
LINE
8
lighting
10
284394.0
20
125110.0
30
0
11
284406.0
21
125110.0
31
0
0
LINE
8
lighting
10
284394.0
20
125650.0
30
0
11
284406.0
21
125650.0
31
0
0
LINE
8
lighting
10
284474.0
20
125110.0
30
0
11
284474.0
21
125650.0
31
0
0
LINE
8
lighting
10
284486.0
20
125110.0
30
0
11
284486.0
21
125650.0
31
0
0
LINE
8
lighting
10
284474.0
20
125110.0
30
0
11
284486.0
21
125110.0
31
0
0
LINE
8
lighting
10
284474.0
20
125650.0
30
0
11
284486.0
21
125650.0
31
0
0
LINE
8
lighting
10
284554.0
20
125110.0
30
0
11
284554.0
21
125650.0
31
0
0
LINE
8
lighting
10
284566.0
20
125110.0
30
0
11
284566.0
21
125650.0
31
0
0
LINE
8
lighting
10
284554.0
20
125110.0
30
0
11
284566.0
21
125110.0
31
0
0
LINE
8
lighting
10
284554.0
20
125650.0
30
0
11
284566.0
21
125650.0
31
0
0
LINE
8
lighting
10
284634.0
20
125110.0
30
0
11
284634.0
21
125650.0
31
0
0
LINE
8
lighting
10
284646.0
20
125110.0
30
0
11
284646.0
21
125650.0
31
0
0
LINE
8
lighting
10
284634.0
20
125110.0
30
0
11
284646.0
21
125110.0
31
0
0
LINE
8
lighting
10
284634.0
20
125650.0
30
0
11
284646.0
21
125650.0
31
0
0
LINE
8
lighting
10
284714.0
20
125110.0
30
0
11
284714.0
21
125650.0
31
0
0
LINE
8
lighting
10
284726.0
20
125110.0
30
0
11
284726.0
21
125650.0
31
0
0
LINE
8
lighting
10
284714.0
20
125110.0
30
0
11
284726.0
21
125110.0
31
0
0
LINE
8
lighting
10
284714.0
20
125650.0
30
0
11
284726.0
21
125650.0
31
0
0
LINE
8
lighting
10
284794.0
20
125110.0
30
0
11
284794.0
21
125650.0
31
0
0
LINE
8
lighting
10
284806.0
20
125110.0
30
0
11
284806.0
21
125650.0
31
0
0
LINE
8
lighting
10
284794.0
20
125110.0
30
0
11
284806.0
21
125110.0
31
0
0
LINE
8
lighting
10
284794.0
20
125650.0
30
0
11
284806.0
21
125650.0
31
0
0
LINE
8
lighting
10
284874.0
20
125110.0
30
0
11
284874.0
21
125650.0
31
0
0
LINE
8
lighting
10
284886.0
20
125110.0
30
0
11
284886.0
21
125650.0
31
0
0
LINE
8
lighting
10
284874.0
20
125110.0
30
0
11
284886.0
21
125110.0
31
0
0
LINE
8
lighting
10
284874.0
20
125650.0
30
0
11
284886.0
21
125650.0
31
0
0
LINE
8
lighting
10
284649.0
20
125380.0
30
0
11
284635.5
21
125387.79
31
0
0
LINE
8
lighting
10
284635.5
20
125387.79
30
0
11
284635.5
21
125372.21
31
0
0
LINE
8
lighting
10
284635.5
20
125372.21
30
0
11
284649.0
21
125380.0
31
0
0
LINE
8
lighting
10
277840.0
20
137300.0
30
0
11
277840.0
21
137940.0
31
0
0
LINE
8
lighting
10
278480.0
20
137300.0
30
0
11
278480.0
21
137940.0
31
0
0
LINE
8
lighting
10
277840.0
20
137300.0
30
0
11
278480.0
21
137300.0
31
0
0
LINE
8
lighting
10
277840.0
20
137940.0
30
0
11
278480.0
21
137940.0
31
0
0
LINE
8
lighting
10
277880.0
20
137340.0
30
0
11
277880.0
21
137900.0
31
0
0
LINE
8
lighting
10
278440.0
20
137340.0
30
0
11
278440.0
21
137900.0
31
0
0
LINE
8
lighting
10
277880.0
20
137340.0
30
0
11
278440.0
21
137340.0
31
0
0
LINE
8
lighting
10
277880.0
20
137900.0
30
0
11
278440.0
21
137900.0
31
0
0
LINE
8
lighting
10
277914.0
20
137350.0
30
0
11
277914.0
21
137890.0
31
0
0
LINE
8
lighting
10
277926.0
20
137350.0
30
0
11
277926.0
21
137890.0
31
0
0
LINE
8
lighting
10
277914.0
20
137350.0
30
0
11
277926.0
21
137350.0
31
0
0
LINE
8
lighting
10
277914.0
20
137890.0
30
0
11
277926.0
21
137890.0
31
0
0
LINE
8
lighting
10
277994.0
20
137350.0
30
0
11
277994.0
21
137890.0
31
0
0
LINE
8
lighting
10
278006.0
20
137350.0
30
0
11
278006.0
21
137890.0
31
0
0
LINE
8
lighting
10
277994.0
20
137350.0
30
0
11
278006.0
21
137350.0
31
0
0
LINE
8
lighting
10
277994.0
20
137890.0
30
0
11
278006.0
21
137890.0
31
0
0
LINE
8
lighting
10
278074.0
20
137350.0
30
0
11
278074.0
21
137890.0
31
0
0
LINE
8
lighting
10
278086.0
20
137350.0
30
0
11
278086.0
21
137890.0
31
0
0
LINE
8
lighting
10
278074.0
20
137350.0
30
0
11
278086.0
21
137350.0
31
0
0
LINE
8
lighting
10
278074.0
20
137890.0
30
0
11
278086.0
21
137890.0
31
0
0
LINE
8
lighting
10
278154.0
20
137350.0
30
0
11
278154.0
21
137890.0
31
0
0
LINE
8
lighting
10
278166.0
20
137350.0
30
0
11
278166.0
21
137890.0
31
0
0
LINE
8
lighting
10
278154.0
20
137350.0
30
0
11
278166.0
21
137350.0
31
0
0
LINE
8
lighting
10
278154.0
20
137890.0
30
0
11
278166.0
21
137890.0
31
0
0
LINE
8
lighting
10
278234.0
20
137350.0
30
0
11
278234.0
21
137890.0
31
0
0
LINE
8
lighting
10
278246.0
20
137350.0
30
0
11
278246.0
21
137890.0
31
0
0
LINE
8
lighting
10
278234.0
20
137350.0
30
0
11
278246.0
21
137350.0
31
0
0
LINE
8
lighting
10
278234.0
20
137890.0
30
0
11
278246.0
21
137890.0
31
0
0
LINE
8
lighting
10
278314.0
20
137350.0
30
0
11
278314.0
21
137890.0
31
0
0
LINE
8
lighting
10
278326.0
20
137350.0
30
0
11
278326.0
21
137890.0
31
0
0
LINE
8
lighting
10
278314.0
20
137350.0
30
0
11
278326.0
21
137350.0
31
0
0
LINE
8
lighting
10
278314.0
20
137890.0
30
0
11
278326.0
21
137890.0
31
0
0
LINE
8
lighting
10
278394.0
20
137350.0
30
0
11
278394.0
21
137890.0
31
0
0
LINE
8
lighting
10
278406.0
20
137350.0
30
0
11
278406.0
21
137890.0
31
0
0
LINE
8
lighting
10
278394.0
20
137350.0
30
0
11
278406.0
21
137350.0
31
0
0
LINE
8
lighting
10
278394.0
20
137890.0
30
0
11
278406.0
21
137890.0
31
0
0
LINE
8
lighting
10
278169.0
20
137620.0
30
0
11
278155.5
21
137627.79
31
0
0
LINE
8
lighting
10
278155.5
20
137627.79
30
0
11
278155.5
21
137612.21
31
0
0
LINE
8
lighting
10
278155.5
20
137612.21
30
0
11
278169.0
21
137620.0
31
0
0
LINE
8
lighting
10
284320.0
20
137300.0
30
0
11
284320.0
21
137940.0
31
0
0
LINE
8
lighting
10
284960.0
20
137300.0
30
0
11
284960.0
21
137940.0
31
0
0
LINE
8
lighting
10
284320.0
20
137300.0
30
0
11
284960.0
21
137300.0
31
0
0
LINE
8
lighting
10
284320.0
20
137940.0
30
0
11
284960.0
21
137940.0
31
0
0
LINE
8
lighting
10
284360.0
20
137340.0
30
0
11
284360.0
21
137900.0
31
0
0
LINE
8
lighting
10
284920.0
20
137340.0
30
0
11
284920.0
21
137900.0
31
0
0
LINE
8
lighting
10
284360.0
20
137340.0
30
0
11
284920.0
21
137340.0
31
0
0
LINE
8
lighting
10
284360.0
20
137900.0
30
0
11
284920.0
21
137900.0
31
0
0
LINE
8
lighting
10
284394.0
20
137350.0
30
0
11
284394.0
21
137890.0
31
0
0
LINE
8
lighting
10
284406.0
20
137350.0
30
0
11
284406.0
21
137890.0
31
0
0
LINE
8
lighting
10
284394.0
20
137350.0
30
0
11
284406.0
21
137350.0
31
0
0
LINE
8
lighting
10
284394.0
20
137890.0
30
0
11
284406.0
21
137890.0
31
0
0
LINE
8
lighting
10
284474.0
20
137350.0
30
0
11
284474.0
21
137890.0
31
0
0
LINE
8
lighting
10
284486.0
20
137350.0
30
0
11
284486.0
21
137890.0
31
0
0
LINE
8
lighting
10
284474.0
20
137350.0
30
0
11
284486.0
21
137350.0
31
0
0
LINE
8
lighting
10
284474.0
20
137890.0
30
0
11
284486.0
21
137890.0
31
0
0
LINE
8
lighting
10
284554.0
20
137350.0
30
0
11
284554.0
21
137890.0
31
0
0
LINE
8
lighting
10
284566.0
20
137350.0
30
0
11
284566.0
21
137890.0
31
0
0
LINE
8
lighting
10
284554.0
20
137350.0
30
0
11
284566.0
21
137350.0
31
0
0
LINE
8
lighting
10
284554.0
20
137890.0
30
0
11
284566.0
21
137890.0
31
0
0
LINE
8
lighting
10
284634.0
20
137350.0
30
0
11
284634.0
21
137890.0
31
0
0
LINE
8
lighting
10
284646.0
20
137350.0
30
0
11
284646.0
21
137890.0
31
0
0
LINE
8
lighting
10
284634.0
20
137350.0
30
0
11
284646.0
21
137350.0
31
0
0
LINE
8
lighting
10
284634.0
20
137890.0
30
0
11
284646.0
21
137890.0
31
0
0
LINE
8
lighting
10
284714.0
20
137350.0
30
0
11
284714.0
21
137890.0
31
0
0
LINE
8
lighting
10
284726.0
20
137350.0
30
0
11
284726.0
21
137890.0
31
0
0
LINE
8
lighting
10
284714.0
20
137350.0
30
0
11
284726.0
21
137350.0
31
0
0
LINE
8
lighting
10
284714.0
20
137890.0
30
0
11
284726.0
21
137890.0
31
0
0
LINE
8
lighting
10
284794.0
20
137350.0
30
0
11
284794.0
21
137890.0
31
0
0
LINE
8
lighting
10
284806.0
20
137350.0
30
0
11
284806.0
21
137890.0
31
0
0
LINE
8
lighting
10
284794.0
20
137350.0
30
0
11
284806.0
21
137350.0
31
0
0
LINE
8
lighting
10
284794.0
20
137890.0
30
0
11
284806.0
21
137890.0
31
0
0
LINE
8
lighting
10
284874.0
20
137350.0
30
0
11
284874.0
21
137890.0
31
0
0
LINE
8
lighting
10
284886.0
20
137350.0
30
0
11
284886.0
21
137890.0
31
0
0
LINE
8
lighting
10
284874.0
20
137350.0
30
0
11
284886.0
21
137350.0
31
0
0
LINE
8
lighting
10
284874.0
20
137890.0
30
0
11
284886.0
21
137890.0
31
0
0
LINE
8
lighting
10
284649.0
20
137620.0
30
0
11
284635.5
21
137627.79
31
0
0
LINE
8
lighting
10
284635.5
20
137627.79
30
0
11
284635.5
21
137612.21
31
0
0
LINE
8
lighting
10
284635.5
20
137612.21
30
0
11
284649.0
21
137620.0
31
0
0
LINE
8
electrical
10
278160.0
20
125080.0
30
0
11
278160.0
21
125072.21
31
0
0
LINE
8
electrical
10
278160.0
20
125072.21
30
0
11
278160.0
21
125087.79
31
0
0
LINE
8
electrical
10
278160.0
20
125087.79
30
0
11
278160.0
21
125080.0
31
0
0
LINE
8
electrical
10
285450.0
20
125080.0
30
0
11
278160.0
21
125080.0
31
0
0
LINE
8
electrical
10
285450.0
20
125080.0
30
0
11
285450.0
21
125072.21
31
0
0
LINE
8
electrical
10
285450.0
20
125072.21
30
0
11
285450.0
21
125087.79
31
0
0
LINE
8
electrical
10
285450.0
20
125087.79
30
0
11
285450.0
21
125080.0
31
0
0
LINE
8
electrical
10
278160.0
20
137620.0
30
0
11
278167.79
21
137620.0
31
0
0
LINE
8
electrical
10
278167.79
20
137620.0
30
0
11
278152.21
21
137620.0
31
0
0
LINE
8
electrical
10
278152.21
20
137620.0
30
0
11
278160.0
21
137620.0
31
0
0
LINE
8
electrical
10
278160.0
20
125080.0
30
0
11
278160.0
21
137620.0
31
0
0
LINE
8
electrical
10
278160.0
20
125080.0
30
0
11
278167.79
21
125080.0
31
0
0
LINE
8
electrical
10
278167.79
20
125080.0
30
0
11
278152.21
21
125080.0
31
0
0
LINE
8
electrical
10
278152.21
20
125080.0
30
0
11
278160.0
21
125080.0
31
0
0
LINE
8
electrical
10
284640.0
20
137620.0
30
0
11
284647.79
21
137620.0
31
0
0
LINE
8
electrical
10
284647.79
20
137620.0
30
0
11
284632.21
21
137620.0
31
0
0
LINE
8
electrical
10
284632.21
20
137620.0
30
0
11
284640.0
21
137620.0
31
0
0
LINE
8
electrical
10
284640.0
20
125080.0
30
0
11
284640.0
21
137620.0
31
0
0
LINE
8
electrical
10
284640.0
20
125080.0
30
0
11
284647.79
21
125080.0
31
0
0
LINE
8
electrical
10
284647.79
20
125080.0
30
0
11
284632.21
21
125080.0
31
0
0
LINE
8
electrical
10
284632.21
20
125080.0
30
0
11
284640.0
21
125080.0
31
0
0
LINE
8
electrical
10
285463.0
20
122700.0
30
0
11
285443.5
21
122711.26
31
0
0
LINE
8
electrical
10
285443.5
20
122711.26
30
0
11
285443.5
21
122688.74
31
0
0
LINE
8
electrical
10
285443.5
20
122688.74
30
0
11
285463.0
21
122700.0
31
0
0
LINE
8
electrical
10
284562.16
20
125084.6
30
0
11
284543.92
21
125077.7
31
0
0
LINE
8
electrical
10
284543.92
20
125077.7
30
0
11
284543.92
21
125077.7
31
0
0
LINE
8
electrical
10
284543.92
20
125077.7
30
0
11
284562.16
21
125084.6
31
0
0
LINE
8
electrical
10
285462.16
20
122704.6
30
0
11
284562.16
21
125084.6
31
0
0
LINE
8
electrical
10
285462.16
20
122704.6
30
0
11
285443.92
21
122697.7
31
0
0
LINE
8
electrical
10
285443.92
20
122697.7
30
0
11
285443.92
21
122697.7
31
0
0
LINE
8
electrical
10
285443.92
20
122697.7
30
0
11
285462.16
21
122704.6
31
0
0
LINE
8
electrical
10
278250.0
20
125080.0
30
0
11
278250.0
21
125068.74
31
0
0
LINE
8
electrical
10
278250.0
20
125068.74
30
0
11
278250.0
21
125091.26
31
0
0
LINE
8
electrical
10
278250.0
20
125091.26
30
0
11
278250.0
21
125080.0
31
0
0
LINE
8
electrical
10
284550.0
20
125080.0
30
0
11
278250.0
21
125080.0
31
0
0
LINE
8
electrical
10
284550.0
20
125080.0
30
0
11
284550.0
21
125068.74
31
0
0
LINE
8
electrical
10
284550.0
20
125068.74
30
0
11
284550.0
21
125091.26
31
0
0
LINE
8
electrical
10
284550.0
20
125091.26
30
0
11
284550.0
21
125080.0
31
0
0
LINE
8
electrical
10
285450.0
20
122700.0
30
0
11
285464.04
21
122700.0
31
0
0
LINE
8
electrical
10
285464.04
20
122700.0
30
0
11
285450.0
21
122700.0
31
0
0
LINE
8
electrical
10
284550.0
20
125080.0
30
0
11
284564.04
21
125080.0
31
0
0
LINE
8
electrical
10
284564.04
20
125080.0
30
0
11
284550.0
21
125080.0
31
0
0
LINE
8
electrical
10
285463.0
20
122700.0
30
0
11
285443.5
21
122711.26
31
0
0
LINE
8
electrical
10
285443.5
20
122711.26
30
0
11
285443.5
21
122688.74
31
0
0
LINE
8
electrical
10
285443.5
20
122688.74
30
0
11
285463.0
21
122700.0
31
0
0
LINE
8
electrical
10
284562.23
20
125204.4
30
0
11
284543.88
21
125197.8
31
0
0
LINE
8
electrical
10
284543.88
20
125197.8
30
0
11
284543.88
21
125197.8
31
0
0
LINE
8
electrical
10
284543.88
20
125197.8
30
0
11
284562.23
21
125204.4
31
0
0
LINE
8
electrical
10
285462.23
20
122704.4
30
0
11
284562.23
21
125204.4
31
0
0
LINE
8
electrical
10
285462.23
20
122704.4
30
0
11
285443.88
21
122697.8
31
0
0
LINE
8
electrical
10
285443.88
20
122697.8
30
0
11
285443.88
21
122697.8
31
0
0
LINE
8
electrical
10
285443.88
20
122697.8
30
0
11
285462.23
21
122704.4
31
0
0
LINE
8
electrical
10
278250.0
20
125200.0
30
0
11
278250.0
21
125188.74
31
0
0
LINE
8
electrical
10
278250.0
20
125188.74
30
0
11
278250.0
21
125211.26
31
0
0
LINE
8
electrical
10
278250.0
20
125211.26
30
0
11
278250.0
21
125200.0
31
0
0
LINE
8
electrical
10
284550.0
20
125200.0
30
0
11
278250.0
21
125200.0
31
0
0
LINE
8
electrical
10
284550.0
20
125200.0
30
0
11
284550.0
21
125188.74
31
0
0
LINE
8
electrical
10
284550.0
20
125188.74
30
0
11
284550.0
21
125211.26
31
0
0
LINE
8
electrical
10
284550.0
20
125211.26
30
0
11
284550.0
21
125200.0
31
0
0
LINE
8
electrical
10
285450.0
20
122700.0
30
0
11
285464.04
21
122700.0
31
0
0
LINE
8
electrical
10
285464.04
20
122700.0
30
0
11
285450.0
21
122700.0
31
0
0
LINE
8
electrical
10
284550.0
20
125200.0
30
0
11
284564.04
21
125200.0
31
0
0
LINE
8
electrical
10
284564.04
20
125200.0
30
0
11
284550.0
21
125200.0
31
0
0
LINE
8
electrical
10
285463.0
20
122700.0
30
0
11
285443.5
21
122711.26
31
0
0
LINE
8
electrical
10
285443.5
20
122711.26
30
0
11
285443.5
21
122688.74
31
0
0
LINE
8
electrical
10
285443.5
20
122688.74
30
0
11
285463.0
21
122700.0
31
0
0
LINE
8
electrical
10
284562.29
20
125324.22
30
0
11
284543.85
21
125317.89
31
0
0
LINE
8
electrical
10
284543.85
20
125317.89
30
0
11
284543.85
21
125317.89
31
0
0
LINE
8
electrical
10
284543.85
20
125317.89
30
0
11
284562.29
21
125324.22
31
0
0
LINE
8
electrical
10
285462.29
20
122704.22
30
0
11
284562.29
21
125324.22
31
0
0
LINE
8
electrical
10
285462.29
20
122704.22
30
0
11
285443.85
21
122697.89
31
0
0
LINE
8
electrical
10
285443.85
20
122697.89
30
0
11
285443.85
21
122697.89
31
0
0
LINE
8
electrical
10
285443.85
20
122697.89
30
0
11
285462.29
21
122704.22
31
0
0
LINE
8
electrical
10
278250.0
20
125320.0
30
0
11
278250.0
21
125308.74
31
0
0
LINE
8
electrical
10
278250.0
20
125308.74
30
0
11
278250.0
21
125331.26
31
0
0
LINE
8
electrical
10
278250.0
20
125331.26
30
0
11
278250.0
21
125320.0
31
0
0
LINE
8
electrical
10
284550.0
20
125320.0
30
0
11
278250.0
21
125320.0
31
0
0
LINE
8
electrical
10
284550.0
20
125320.0
30
0
11
284550.0
21
125308.74
31
0
0
LINE
8
electrical
10
284550.0
20
125308.74
30
0
11
284550.0
21
125331.26
31
0
0
LINE
8
electrical
10
284550.0
20
125331.26
30
0
11
284550.0
21
125320.0
31
0
0
LINE
8
electrical
10
285450.0
20
122700.0
30
0
11
285464.04
21
122700.0
31
0
0
LINE
8
electrical
10
285464.04
20
122700.0
30
0
11
285450.0
21
122700.0
31
0
0
LINE
8
electrical
10
284550.0
20
125320.0
30
0
11
284564.04
21
125320.0
31
0
0
LINE
8
electrical
10
284564.04
20
125320.0
30
0
11
284550.0
21
125320.0
31
0
0
LINE
8
electrical
10
278635.0
20
122650.0
30
0
11
278635.0
21
122710.0
31
0
0
LINE
8
electrical
10
278765.0
20
122650.0
30
0
11
278765.0
21
122710.0
31
0
0
LINE
8
electrical
10
278635.0
20
122650.0
30
0
11
278765.0
21
122650.0
31
0
0
LINE
8
electrical
10
278635.0
20
122710.0
30
0
11
278765.0
21
122710.0
31
0
0
LINE
8
electrical
10
278709.0
20
122680.0
30
0
11
278695.5
21
122687.79
31
0
0
LINE
8
electrical
10
278695.5
20
122687.79
30
0
11
278695.5
21
122672.21
31
0
0
LINE
8
electrical
10
278695.5
20
122672.21
30
0
11
278709.0
21
122680.0
31
0
0
LINE
8
electrical
10
285450.0
20
122680.0
30
0
11
285450.0
21
122672.21
31
0
0
LINE
8
electrical
10
285450.0
20
122672.21
30
0
11
285450.0
21
122687.79
31
0
0
LINE
8
electrical
10
285450.0
20
122687.79
30
0
11
285450.0
21
122680.0
31
0
0
LINE
8
electrical
10
278700.0
20
122680.0
30
0
11
285450.0
21
122680.0
31
0
0
LINE
8
electrical
10
278700.0
20
122680.0
30
0
11
278700.0
21
122672.21
31
0
0
LINE
8
electrical
10
278700.0
20
122672.21
30
0
11
278700.0
21
122687.79
31
0
0
LINE
8
electrical
10
278700.0
20
122687.79
30
0
11
278700.0
21
122680.0
31
0
0
LINE
8
electrical
10
278700.0
20
122680.0
30
0
11
278709.72
21
122680.0
31
0
0
LINE
8
electrical
10
278709.72
20
122680.0
30
0
11
278700.0
21
122680.0
31
0
0
LINE
8
electrical
10
284035.0
20
122650.0
30
0
11
284035.0
21
122710.0
31
0
0
LINE
8
electrical
10
284165.0
20
122650.0
30
0
11
284165.0
21
122710.0
31
0
0
LINE
8
electrical
10
284035.0
20
122650.0
30
0
11
284165.0
21
122650.0
31
0
0
LINE
8
electrical
10
284035.0
20
122710.0
30
0
11
284165.0
21
122710.0
31
0
0
LINE
8
electrical
10
284109.0
20
122680.0
30
0
11
284095.5
21
122687.79
31
0
0
LINE
8
electrical
10
284095.5
20
122687.79
30
0
11
284095.5
21
122672.21
31
0
0
LINE
8
electrical
10
284095.5
20
122672.21
30
0
11
284109.0
21
122680.0
31
0
0
LINE
8
electrical
10
285450.0
20
122680.0
30
0
11
285450.0
21
122672.21
31
0
0
LINE
8
electrical
10
285450.0
20
122672.21
30
0
11
285450.0
21
122687.79
31
0
0
LINE
8
electrical
10
285450.0
20
122687.79
30
0
11
285450.0
21
122680.0
31
0
0
LINE
8
electrical
10
284100.0
20
122680.0
30
0
11
285450.0
21
122680.0
31
0
0
LINE
8
electrical
10
284100.0
20
122680.0
30
0
11
284100.0
21
122672.21
31
0
0
LINE
8
electrical
10
284100.0
20
122672.21
30
0
11
284100.0
21
122687.79
31
0
0
LINE
8
electrical
10
284100.0
20
122687.79
30
0
11
284100.0
21
122680.0
31
0
0
LINE
8
electrical
10
284100.0
20
122680.0
30
0
11
284109.72
21
122680.0
31
0
0
LINE
8
electrical
10
284109.72
20
122680.0
30
0
11
284100.0
21
122680.0
31
0
0
LINE
8
hvac
10
277375.0
20
123225.0
30
0
11
277375.0
21
123975.0
31
0
0
LINE
8
hvac
10
279025.0
20
123225.0
30
0
11
279025.0
21
123975.0
31
0
0
LINE
8
hvac
10
277375.0
20
123225.0
30
0
11
279025.0
21
123225.0
31
0
0
LINE
8
hvac
10
277375.0
20
123975.0
30
0
11
279025.0
21
123975.0
31
0
0
LINE
8
hvac
10
277475.0
20
123180.0
30
0
11
277475.0
21
123220.0
31
0
0
LINE
8
hvac
10
278925.0
20
123180.0
30
0
11
278925.0
21
123220.0
31
0
0
LINE
8
hvac
10
277475.0
20
123180.0
30
0
11
278925.0
21
123180.0
31
0
0
LINE
8
hvac
10
277475.0
20
123220.0
30
0
11
278925.0
21
123220.0
31
0
0
LINE
8
hvac
10
277540.0
20
123140.0
30
0
11
277540.0
21
123200.0
31
0
0
LINE
8
hvac
10
277580.0
20
123140.0
30
0
11
277580.0
21
123200.0
31
0
0
LINE
8
hvac
10
277540.0
20
123140.0
30
0
11
277580.0
21
123140.0
31
0
0
LINE
8
hvac
10
277540.0
20
123200.0
30
0
11
277580.0
21
123200.0
31
0
0
LINE
8
hvac
10
277700.0
20
123140.0
30
0
11
277700.0
21
123200.0
31
0
0
LINE
8
hvac
10
277740.0
20
123140.0
30
0
11
277740.0
21
123200.0
31
0
0
LINE
8
hvac
10
277700.0
20
123140.0
30
0
11
277740.0
21
123140.0
31
0
0
LINE
8
hvac
10
277700.0
20
123200.0
30
0
11
277740.0
21
123200.0
31
0
0
LINE
8
hvac
10
277860.0
20
123140.0
30
0
11
277860.0
21
123200.0
31
0
0
LINE
8
hvac
10
277900.0
20
123140.0
30
0
11
277900.0
21
123200.0
31
0
0
LINE
8
hvac
10
277860.0
20
123140.0
30
0
11
277900.0
21
123140.0
31
0
0
LINE
8
hvac
10
277860.0
20
123200.0
30
0
11
277900.0
21
123200.0
31
0
0
LINE
8
hvac
10
278020.0
20
123140.0
30
0
11
278020.0
21
123200.0
31
0
0
LINE
8
hvac
10
278060.0
20
123140.0
30
0
11
278060.0
21
123200.0
31
0
0
LINE
8
hvac
10
278020.0
20
123140.0
30
0
11
278060.0
21
123140.0
31
0
0
LINE
8
hvac
10
278020.0
20
123200.0
30
0
11
278060.0
21
123200.0
31
0
0
LINE
8
hvac
10
278180.0
20
123140.0
30
0
11
278180.0
21
123200.0
31
0
0
LINE
8
hvac
10
278220.0
20
123140.0
30
0
11
278220.0
21
123200.0
31
0
0
LINE
8
hvac
10
278180.0
20
123140.0
30
0
11
278220.0
21
123140.0
31
0
0
LINE
8
hvac
10
278180.0
20
123200.0
30
0
11
278220.0
21
123200.0
31
0
0
LINE
8
hvac
10
278340.0
20
123140.0
30
0
11
278340.0
21
123200.0
31
0
0
LINE
8
hvac
10
278380.0
20
123140.0
30
0
11
278380.0
21
123200.0
31
0
0
LINE
8
hvac
10
278340.0
20
123140.0
30
0
11
278380.0
21
123140.0
31
0
0
LINE
8
hvac
10
278340.0
20
123200.0
30
0
11
278380.0
21
123200.0
31
0
0
LINE
8
hvac
10
278500.0
20
123140.0
30
0
11
278500.0
21
123200.0
31
0
0
LINE
8
hvac
10
278540.0
20
123140.0
30
0
11
278540.0
21
123200.0
31
0
0
LINE
8
hvac
10
278500.0
20
123140.0
30
0
11
278540.0
21
123140.0
31
0
0
LINE
8
hvac
10
278500.0
20
123200.0
30
0
11
278540.0
21
123200.0
31
0
0
LINE
8
hvac
10
278660.0
20
123140.0
30
0
11
278660.0
21
123200.0
31
0
0
LINE
8
hvac
10
278700.0
20
123140.0
30
0
11
278700.0
21
123200.0
31
0
0
LINE
8
hvac
10
278660.0
20
123140.0
30
0
11
278700.0
21
123140.0
31
0
0
LINE
8
hvac
10
278660.0
20
123200.0
30
0
11
278700.0
21
123200.0
31
0
0
LINE
8
hvac
10
278820.0
20
123140.0
30
0
11
278820.0
21
123200.0
31
0
0
LINE
8
hvac
10
278860.0
20
123140.0
30
0
11
278860.0
21
123200.0
31
0
0
LINE
8
hvac
10
278820.0
20
123140.0
30
0
11
278860.0
21
123140.0
31
0
0
LINE
8
hvac
10
278820.0
20
123200.0
30
0
11
278860.0
21
123200.0
31
0
0
LINE
8
hvac
10
277975.0
20
123375.0
30
0
11
277975.0
21
123825.0
31
0
0
LINE
8
hvac
10
278425.0
20
123375.0
30
0
11
278425.0
21
123825.0
31
0
0
LINE
8
hvac
10
277975.0
20
123375.0
30
0
11
278425.0
21
123375.0
31
0
0
LINE
8
hvac
10
277975.0
20
123825.0
30
0
11
278425.0
21
123825.0
31
0
0
LINE
8
hvac
10
278250.0
20
131325.0
30
0
11
278250.0
21
131675.0
31
0
0
LINE
8
hvac
10
284550.0
20
131325.0
30
0
11
284550.0
21
131675.0
31
0
0
LINE
8
hvac
10
278250.0
20
131325.0
30
0
11
284550.0
21
131325.0
31
0
0
LINE
8
hvac
10
278250.0
20
131675.0
30
0
11
284550.0
21
131675.0
31
0
0
LINE
8
hvac
10
278025.0
20
123425.0
30
0
11
278025.0
21
123775.0
31
0
0
LINE
8
hvac
10
281575.0
20
123425.0
30
0
11
281575.0
21
123775.0
31
0
0
LINE
8
hvac
10
278025.0
20
123425.0
30
0
11
281575.0
21
123425.0
31
0
0
LINE
8
hvac
10
278025.0
20
123775.0
30
0
11
281575.0
21
123775.0
31
0
0
LINE
8
hvac
10
281225.0
20
123425.0
30
0
11
281225.0
21
131675.0
31
0
0
LINE
8
hvac
10
281575.0
20
123425.0
30
0
11
281575.0
21
131675.0
31
0
0
LINE
8
hvac
10
281225.0
20
123425.0
30
0
11
281575.0
21
123425.0
31
0
0
LINE
8
hvac
10
281225.0
20
131675.0
30
0
11
281575.0
21
131675.0
31
0
0
LINE
8
hvac
10
279250.0
20
131150.0
30
0
11
279250.0
21
131850.0
31
0
0
LINE
8
hvac
10
279950.0
20
131150.0
30
0
11
279950.0
21
131850.0
31
0
0
LINE
8
hvac
10
279250.0
20
131150.0
30
0
11
279950.0
21
131150.0
31
0
0
LINE
8
hvac
10
279250.0
20
131850.0
30
0
11
279950.0
21
131850.0
31
0
0
LINE
8
hvac
10
282850.0
20
131150.0
30
0
11
282850.0
21
131850.0
31
0
0
LINE
8
hvac
10
283550.0
20
131150.0
30
0
11
283550.0
21
131850.0
31
0
0
LINE
8
hvac
10
282850.0
20
131150.0
30
0
11
283550.0
21
131150.0
31
0
0
LINE
8
hvac
10
282850.0
20
131850.0
30
0
11
283550.0
21
131850.0
31
0
0
LINE
8
water
10
284390.0
20
133880.0
30
0
11
284390.0
21
134520.0
31
0
0
LINE
8
water
10
285310.0
20
133880.0
30
0
11
285310.0
21
134520.0
31
0
0
LINE
8
water
10
284390.0
20
133880.0
30
0
11
285310.0
21
133880.0
31
0
0
LINE
8
water
10
284390.0
20
134520.0
30
0
11
285310.0
21
134520.0
31
0
0
LINE
8
water
10
284400.0
20
133890.0
30
0
11
284400.0
21
134510.0
31
0
0
LINE
8
water
10
284400.0
20
133890.0
30
0
11
285300.0
21
133890.0
31
0
0
LINE
8
water
10
284400.0
20
134510.0
30
0
11
285300.0
21
134510.0
31
0
0
LINE
8
water
10
285300.0
20
133890.0
30
0
11
285300.0
21
134510.0
31
0
0
LINE
8
water
10
285175.0
20
133985.0
30
0
11
284525.0
21
133985.0
31
0
0
LINE
8
water
10
285175.0
20
133985.0
30
0
11
285175.0
21
134415.0
31
0
0
LINE
8
water
10
285175.0
20
134415.0
30
0
11
284525.0
21
134415.0
31
0
0
LINE
8
water
10
284525.0
20
133985.0
30
0
11
284525.0
21
134415.0
31
0
0
LINE
8
water
10
284868.0
20
134420.0
30
0
11
284841.0
21
134435.59
31
0
0
LINE
8
water
10
284841.0
20
134435.59
30
0
11
284841.0
21
134404.41
31
0
0
LINE
8
water
10
284841.0
20
134404.41
30
0
11
284868.0
21
134420.0
31
0
0
LINE
8
water
10
284850.0
20
134200.0
30
0
11
284865.59
21
134200.0
31
0
0
LINE
8
water
10
284865.59
20
134200.0
30
0
11
284834.41
21
134200.0
31
0
0
LINE
8
water
10
284834.41
20
134200.0
30
0
11
284850.0
21
134200.0
31
0
0
LINE
8
water
10
284850.0
20
134420.0
30
0
11
284850.0
21
134200.0
31
0
0
LINE
8
water
10
284850.0
20
134420.0
30
0
11
284865.59
21
134420.0
31
0
0
LINE
8
water
10
284865.59
20
134420.0
30
0
11
284834.41
21
134420.0
31
0
0
LINE
8
water
10
284834.41
20
134420.0
30
0
11
284850.0
21
134420.0
31
0
0
LINE
8
water
10
284850.0
20
134420.0
30
0
11
284869.44
21
134420.0
31
0
0
LINE
8
water
10
284869.44
20
134420.0
30
0
11
284850.0
21
134420.0
31
0
0
LINE
8
water
10
284795.0
20
134200.0
30
0
11
284850.0
21
134255.0
31
0
0
LINE
8
water
10
284850.0
20
134255.0
30
0
11
284905.0
21
134200.0
31
0
0
LINE
8
water
10
284905.0
20
134200.0
30
0
11
284850.0
21
134145.0
31
0
0
LINE
8
water
10
284850.0
20
134145.0
30
0
11
284795.0
21
134200.0
31
0
0
LINE
8
water
10
284850.0
20
133000.0
30
0
11
284905.0
21
133000.0
31
0
0
LINE
8
water
10
284905.0
20
133000.0
30
0
11
284850.0
21
133000.0
31
0
0
LINE
8
water
10
284850.0
20
133000.0
30
0
11
284795.0
21
133000.0
31
0
0
LINE
8
water
10
284795.0
20
133000.0
30
0
11
284850.0
21
133000.0
31
0
0
LINE
8
water
10
284850.0
20
134200.0
30
0
11
284850.0
21
133000.0
31
0
0
LINE
8
water
10
284850.0
20
134200.0
30
0
11
284905.0
21
134200.0
31
0
0
LINE
8
water
10
284905.0
20
134200.0
30
0
11
284850.0
21
134200.0
31
0
0
LINE
8
water
10
284850.0
20
134200.0
30
0
11
284795.0
21
134200.0
31
0
0
LINE
8
water
10
284795.0
20
134200.0
30
0
11
284850.0
21
134200.0
31
0
0
LINE
8
water
10
284795.0
20
133000.0
30
0
11
284850.0
21
133055.0
31
0
0
LINE
8
water
10
284850.0
20
133055.0
30
0
11
284905.0
21
133000.0
31
0
0
LINE
8
water
10
284905.0
20
133000.0
30
0
11
284850.0
21
132945.0
31
0
0
LINE
8
water
10
284850.0
20
132945.0
30
0
11
284795.0
21
133000.0
31
0
0
LINE
8
water
10
284850.0
20
126500.0
30
0
11
284905.0
21
126500.0
31
0
0
LINE
8
water
10
284905.0
20
126500.0
30
0
11
284850.0
21
126500.0
31
0
0
LINE
8
water
10
284850.0
20
126500.0
30
0
11
284795.0
21
126500.0
31
0
0
LINE
8
water
10
284795.0
20
126500.0
30
0
11
284850.0
21
126500.0
31
0
0
LINE
8
water
10
284850.0
20
133000.0
30
0
11
284850.0
21
126500.0
31
0
0
LINE
8
water
10
234500.0
20
126500.0
30
0
11
234500.0
21
126445.0
31
0
0
LINE
8
water
10
234500.0
20
126445.0
30
0
11
234500.0
21
126500.0
31
0
0
LINE
8
water
10
234500.0
20
126500.0
30
0
11
234500.0
21
126555.0
31
0
0
LINE
8
water
10
234500.0
20
126555.0
30
0
11
234500.0
21
126500.0
31
0
0
LINE
8
water
10
284850.0
20
126500.0
30
0
11
234500.0
21
126500.0
31
0
0
LINE
8
water
10
284850.0
20
126500.0
30
0
11
284850.0
21
126445.0
31
0
0
LINE
8
water
10
284850.0
20
126445.0
30
0
11
284850.0
21
126500.0
31
0
0
LINE
8
water
10
284850.0
20
126500.0
30
0
11
284850.0
21
126555.0
31
0
0
LINE
8
water
10
284850.0
20
126555.0
30
0
11
284850.0
21
126500.0
31
0
0
LINE
8
water
10
284850.0
20
134200.0
30
0
11
284909.4
21
134200.0
31
0
0
LINE
8
water
10
284909.4
20
134200.0
30
0
11
284850.0
21
134200.0
31
0
0
LINE
8
water
10
284850.0
20
133000.0
30
0
11
284909.4
21
133000.0
31
0
0
LINE
8
water
10
284909.4
20
133000.0
30
0
11
284850.0
21
133000.0
31
0
0
LINE
8
water
10
284850.0
20
126500.0
30
0
11
284909.4
21
126500.0
31
0
0
LINE
8
water
10
284909.4
20
126500.0
30
0
11
284850.0
21
126500.0
31
0
0
LINE
8
water
10
284425.0
20
132675.0
30
0
11
284425.0
21
133325.0
31
0
0
LINE
8
water
10
285275.0
20
132675.0
30
0
11
285275.0
21
133325.0
31
0
0
LINE
8
water
10
284425.0
20
132675.0
30
0
11
285275.0
21
132675.0
31
0
0
LINE
8
water
10
284425.0
20
133325.0
30
0
11
285275.0
21
133325.0
31
0
0
LINE
8
water
10
285070.0
20
133000.0
30
0
11
284987.17
21
133172.0
31
0
0
LINE
8
water
10
284987.17
20
133172.0
30
0
11
284801.05
21
133214.48
31
0
0
LINE
8
water
10
284801.05
20
133214.48
30
0
11
284651.79
21
133095.45
31
0
0
LINE
8
water
10
284651.79
20
133095.45
30
0
11
284651.79
21
132904.55
31
0
0
LINE
8
water
10
284651.79
20
132904.55
30
0
11
284801.05
21
132785.52
31
0
0
LINE
8
water
10
284801.05
20
132785.52
30
0
11
284987.17
21
132828.0
31
0
0
LINE
8
water
10
284987.17
20
132828.0
30
0
11
285070.0
21
133000.0
31
0
0
LINE
8
water
10
283405.0
20
122900.0
30
0
11
283405.0
21
122825.0
31
0
0
LINE
8
water
10
283405.0
20
122825.0
30
0
11
283405.0
21
122900.0
31
0
0
LINE
8
water
10
283405.0
20
122900.0
30
0
11
283405.0
21
122975.0
31
0
0
LINE
8
water
10
283405.0
20
122975.0
30
0
11
283405.0
21
122900.0
31
0
0
LINE
8
water
10
283005.0
20
122900.0
30
0
11
283405.0
21
122900.0
31
0
0
LINE
8
water
10
283005.0
20
122900.0
30
0
11
283005.0
21
122825.0
31
0
0
LINE
8
water
10
283005.0
20
122825.0
30
0
11
283005.0
21
122900.0
31
0
0
LINE
8
water
10
283005.0
20
122900.0
30
0
11
283005.0
21
122975.0
31
0
0
LINE
8
water
10
283005.0
20
122975.0
30
0
11
283005.0
21
122900.0
31
0
0
LINE
8
water
10
283295.0
20
122900.0
30
0
11
283232.81
21
122985.6
31
0
0
LINE
8
water
10
283232.81
20
122985.6
30
0
11
283132.19
21
122952.9
31
0
0
LINE
8
water
10
283132.19
20
122952.9
30
0
11
283132.19
21
122847.1
31
0
0
LINE
8
water
10
283132.19
20
122847.1
30
0
11
283232.81
21
122814.4
31
0
0
LINE
8
water
10
283232.81
20
122814.4
30
0
11
283295.0
21
122900.0
31
0
0
LINE
8
water
10
283015.0
20
122875.0
30
0
11
283015.0
21
122925.0
31
0
0
LINE
8
water
10
283395.0
20
122875.0
30
0
11
283395.0
21
122925.0
31
0
0
LINE
8
water
10
283015.0
20
122875.0
30
0
11
283395.0
21
122875.0
31
0
0
LINE
8
water
10
283015.0
20
122925.0
30
0
11
283395.0
21
122925.0
31
0
0
LINE
8
water
10
283080.0
20
122900.0
30
0
11
283080.0
21
122795.38
31
0
0
LINE
8
water
10
283080.0
20
122795.38
30
0
11
283080.0
21
122835.34
31
0
0
LINE
8
water
10
283080.0
20
122835.34
30
0
11
283080.0
21
122964.66
31
0
0
LINE
8
water
10
283080.0
20
122964.66
30
0
11
283080.0
21
123004.62
31
0
0
LINE
8
water
10
283080.0
20
123004.62
30
0
11
283080.0
21
122900.0
31
0
0
LINE
8
water
10
283055.0
20
122900.0
30
0
11
283080.0
21
122900.0
31
0
0
LINE
8
water
10
283055.0
20
122900.0
30
0
11
283055.0
21
122795.38
31
0
0
LINE
8
water
10
283055.0
20
122795.38
30
0
11
283055.0
21
122835.34
31
0
0
LINE
8
water
10
283055.0
20
122835.34
30
0
11
283055.0
21
122964.66
31
0
0
LINE
8
water
10
283055.0
20
122964.66
30
0
11
283055.0
21
123004.62
31
0
0
LINE
8
water
10
283055.0
20
123004.62
30
0
11
283055.0
21
122900.0
31
0
0
LINE
8
water
10
283380.0
20
122900.0
30
0
11
283380.0
21
122795.38
31
0
0
LINE
8
water
10
283380.0
20
122795.38
30
0
11
283380.0
21
122835.34
31
0
0
LINE
8
water
10
283380.0
20
122835.34
30
0
11
283380.0
21
122964.66
31
0
0
LINE
8
water
10
283380.0
20
122964.66
30
0
11
283380.0
21
123004.62
31
0
0
LINE
8
water
10
283380.0
20
123004.62
30
0
11
283380.0
21
122900.0
31
0
0
LINE
8
water
10
283355.0
20
122900.0
30
0
11
283380.0
21
122900.0
31
0
0
LINE
8
water
10
283355.0
20
122900.0
30
0
11
283355.0
21
122795.38
31
0
0
LINE
8
water
10
283355.0
20
122795.38
30
0
11
283355.0
21
122835.34
31
0
0
LINE
8
water
10
283355.0
20
122835.34
30
0
11
283355.0
21
122964.66
31
0
0
LINE
8
water
10
283355.0
20
122964.66
30
0
11
283355.0
21
123004.62
31
0
0
LINE
8
water
10
283355.0
20
123004.62
30
0
11
283355.0
21
122900.0
31
0
0
LINE
8
water
10
282500.0
20
122900.0
30
0
11
282530.31
21
122900.0
31
0
0
LINE
8
water
10
282530.31
20
122900.0
30
0
11
282469.69
21
122900.0
31
0
0
LINE
8
water
10
282469.69
20
122900.0
30
0
11
282500.0
21
122900.0
31
0
0
LINE
8
water
10
282500.0
20
124000.0
30
0
11
282500.0
21
122900.0
31
0
0
LINE
8
water
10
282500.0
20
124000.0
30
0
11
282530.31
21
124000.0
31
0
0
LINE
8
water
10
282530.31
20
124000.0
30
0
11
282469.69
21
124000.0
31
0
0
LINE
8
water
10
282469.69
20
124000.0
30
0
11
282500.0
21
124000.0
31
0
0
LINE
8
water
10
284850.0
20
122900.0
30
0
11
284850.0
21
122869.69
31
0
0
LINE
8
water
10
284850.0
20
122869.69
30
0
11
284850.0
21
122930.31
31
0
0
LINE
8
water
10
284850.0
20
122930.31
30
0
11
284850.0
21
122900.0
31
0
0
LINE
8
water
10
282500.0
20
122900.0
30
0
11
284850.0
21
122900.0
31
0
0
LINE
8
water
10
282500.0
20
122900.0
30
0
11
282500.0
21
122869.69
31
0
0
LINE
8
water
10
282500.0
20
122869.69
30
0
11
282500.0
21
122930.31
31
0
0
LINE
8
water
10
282500.0
20
122930.31
30
0
11
282500.0
21
122900.0
31
0
0
LINE
8
water
10
284850.0
20
134430.0
30
0
11
284880.31
21
134430.0
31
0
0
LINE
8
water
10
284880.31
20
134430.0
30
0
11
284819.69
21
134430.0
31
0
0
LINE
8
water
10
284819.69
20
134430.0
30
0
11
284850.0
21
134430.0
31
0
0
LINE
8
water
10
284850.0
20
122900.0
30
0
11
284850.0
21
134430.0
31
0
0
LINE
8
water
10
284850.0
20
122900.0
30
0
11
284880.31
21
122900.0
31
0
0
LINE
8
water
10
284880.31
20
122900.0
30
0
11
284819.69
21
122900.0
31
0
0
LINE
8
water
10
284819.69
20
122900.0
30
0
11
284850.0
21
122900.0
31
0
0
LINE
8
water
10
284815.0
20
134430.0
30
0
11
284867.5
21
134460.31
31
0
0
LINE
8
water
10
284867.5
20
134460.31
30
0
11
284867.5
21
134399.69
31
0
0
LINE
8
water
10
284867.5
20
134399.69
30
0
11
284815.0
21
134430.0
31
0
0
LINE
8
water
10
282500.0
20
122900.0
30
0
11
282537.8
21
122900.0
31
0
0
LINE
8
water
10
282537.8
20
122900.0
30
0
11
282500.0
21
122900.0
31
0
0
LINE
8
water
10
284850.0
20
122900.0
30
0
11
284887.8
21
122900.0
31
0
0
LINE
8
water
10
284887.8
20
122900.0
30
0
11
284850.0
21
122900.0
31
0
0
LINE
8
water
10
284850.0
20
134430.0
30
0
11
284887.8
21
134430.0
31
0
0
LINE
8
water
10
284887.8
20
134430.0
30
0
11
284850.0
21
134430.0
31
0
0
LINE
8
water
10
283614.0
20
122900.0
30
0
11
283614.0
21
122825.0
31
0
0
LINE
8
water
10
283614.0
20
122825.0
30
0
11
283614.0
21
122900.0
31
0
0
LINE
8
water
10
283614.0
20
122900.0
30
0
11
283614.0
21
122975.0
31
0
0
LINE
8
water
10
283614.0
20
122975.0
30
0
11
283614.0
21
122900.0
31
0
0
LINE
8
water
10
283214.0
20
122900.0
30
0
11
283614.0
21
122900.0
31
0
0
LINE
8
water
10
283214.0
20
122900.0
30
0
11
283214.0
21
122825.0
31
0
0
LINE
8
water
10
283214.0
20
122825.0
30
0
11
283214.0
21
122900.0
31
0
0
LINE
8
water
10
283214.0
20
122900.0
30
0
11
283214.0
21
122975.0
31
0
0
LINE
8
water
10
283214.0
20
122975.0
30
0
11
283214.0
21
122900.0
31
0
0
LINE
8
water
10
283504.0
20
122900.0
30
0
11
283441.81
21
122985.6
31
0
0
LINE
8
water
10
283441.81
20
122985.6
30
0
11
283341.19
21
122952.9
31
0
0
LINE
8
water
10
283341.19
20
122952.9
30
0
11
283341.19
21
122847.1
31
0
0
LINE
8
water
10
283341.19
20
122847.1
30
0
11
283441.81
21
122814.4
31
0
0
LINE
8
water
10
283441.81
20
122814.4
30
0
11
283504.0
21
122900.0
31
0
0
LINE
8
water
10
283224.0
20
122875.0
30
0
11
283224.0
21
122925.0
31
0
0
LINE
8
water
10
283604.0
20
122875.0
30
0
11
283604.0
21
122925.0
31
0
0
LINE
8
water
10
283224.0
20
122875.0
30
0
11
283604.0
21
122875.0
31
0
0
LINE
8
water
10
283224.0
20
122925.0
30
0
11
283604.0
21
122925.0
31
0
0
LINE
8
water
10
283289.0
20
122900.0
30
0
11
283289.0
21
122795.38
31
0
0
LINE
8
water
10
283289.0
20
122795.38
30
0
11
283289.0
21
122835.34
31
0
0
LINE
8
water
10
283289.0
20
122835.34
30
0
11
283289.0
21
122964.66
31
0
0
LINE
8
water
10
283289.0
20
122964.66
30
0
11
283289.0
21
123004.62
31
0
0
LINE
8
water
10
283289.0
20
123004.62
30
0
11
283289.0
21
122900.0
31
0
0
LINE
8
water
10
283264.0
20
122900.0
30
0
11
283289.0
21
122900.0
31
0
0
LINE
8
water
10
283264.0
20
122900.0
30
0
11
283264.0
21
122795.38
31
0
0
LINE
8
water
10
283264.0
20
122795.38
30
0
11
283264.0
21
122835.34
31
0
0
LINE
8
water
10
283264.0
20
122835.34
30
0
11
283264.0
21
122964.66
31
0
0
LINE
8
water
10
283264.0
20
122964.66
30
0
11
283264.0
21
123004.62
31
0
0
LINE
8
water
10
283264.0
20
123004.62
30
0
11
283264.0
21
122900.0
31
0
0
LINE
8
water
10
283589.0
20
122900.0
30
0
11
283589.0
21
122795.38
31
0
0
LINE
8
water
10
283589.0
20
122795.38
30
0
11
283589.0
21
122835.34
31
0
0
LINE
8
water
10
283589.0
20
122835.34
30
0
11
283589.0
21
122964.66
31
0
0
LINE
8
water
10
283589.0
20
122964.66
30
0
11
283589.0
21
123004.62
31
0
0
LINE
8
water
10
283589.0
20
123004.62
30
0
11
283589.0
21
122900.0
31
0
0
LINE
8
water
10
283564.0
20
122900.0
30
0
11
283589.0
21
122900.0
31
0
0
LINE
8
water
10
283564.0
20
122900.0
30
0
11
283564.0
21
122795.38
31
0
0
LINE
8
water
10
283564.0
20
122795.38
30
0
11
283564.0
21
122835.34
31
0
0
LINE
8
water
10
283564.0
20
122835.34
30
0
11
283564.0
21
122964.66
31
0
0
LINE
8
water
10
283564.0
20
122964.66
30
0
11
283564.0
21
123004.62
31
0
0
LINE
8
water
10
283564.0
20
123004.62
30
0
11
283564.0
21
122900.0
31
0
0
LINE
8
water
10
282850.0
20
122900.0
30
0
11
282880.31
21
122900.0
31
0
0
LINE
8
water
10
282880.31
20
122900.0
30
0
11
282819.69
21
122900.0
31
0
0
LINE
8
water
10
282819.69
20
122900.0
30
0
11
282850.0
21
122900.0
31
0
0
LINE
8
water
10
282850.0
20
125000.0
30
0
11
282850.0
21
122900.0
31
0
0
LINE
8
water
10
282850.0
20
125000.0
30
0
11
282880.31
21
125000.0
31
0
0
LINE
8
water
10
282880.31
20
125000.0
30
0
11
282819.69
21
125000.0
31
0
0
LINE
8
water
10
282819.69
20
125000.0
30
0
11
282850.0
21
125000.0
31
0
0
LINE
8
water
10
284730.0
20
122900.0
30
0
11
284730.0
21
122869.69
31
0
0
LINE
8
water
10
284730.0
20
122869.69
30
0
11
284730.0
21
122930.31
31
0
0
LINE
8
water
10
284730.0
20
122930.31
30
0
11
284730.0
21
122900.0
31
0
0
LINE
8
water
10
282850.0
20
122900.0
30
0
11
284730.0
21
122900.0
31
0
0
LINE
8
water
10
282850.0
20
122900.0
30
0
11
282850.0
21
122869.69
31
0
0
LINE
8
water
10
282850.0
20
122869.69
30
0
11
282850.0
21
122930.31
31
0
0
LINE
8
water
10
282850.0
20
122930.31
30
0
11
282850.0
21
122900.0
31
0
0
LINE
8
water
10
284730.0
20
134430.0
30
0
11
284760.31
21
134430.0
31
0
0
LINE
8
water
10
284760.31
20
134430.0
30
0
11
284699.69
21
134430.0
31
0
0
LINE
8
water
10
284699.69
20
134430.0
30
0
11
284730.0
21
134430.0
31
0
0
LINE
8
water
10
284730.0
20
122900.0
30
0
11
284730.0
21
134430.0
31
0
0
LINE
8
water
10
284730.0
20
122900.0
30
0
11
284760.31
21
122900.0
31
0
0
LINE
8
water
10
284760.31
20
122900.0
30
0
11
284699.69
21
122900.0
31
0
0
LINE
8
water
10
284699.69
20
122900.0
30
0
11
284730.0
21
122900.0
31
0
0
LINE
8
water
10
284695.0
20
134430.0
30
0
11
284747.5
21
134460.31
31
0
0
LINE
8
water
10
284747.5
20
134460.31
30
0
11
284747.5
21
134399.69
31
0
0
LINE
8
water
10
284747.5
20
134399.69
30
0
11
284695.0
21
134430.0
31
0
0
LINE
8
water
10
282850.0
20
122900.0
30
0
11
282887.8
21
122900.0
31
0
0
LINE
8
water
10
282887.8
20
122900.0
30
0
11
282850.0
21
122900.0
31
0
0
LINE
8
water
10
284730.0
20
122900.0
30
0
11
284767.8
21
122900.0
31
0
0
LINE
8
water
10
284767.8
20
122900.0
30
0
11
284730.0
21
122900.0
31
0
0
LINE
8
water
10
284730.0
20
134430.0
30
0
11
284767.8
21
134430.0
31
0
0
LINE
8
water
10
284767.8
20
134430.0
30
0
11
284730.0
21
134430.0
31
0
0
LINE
8
sensors
10
276940.0
20
126380.0
30
0
11
276940.0
21
126540.0
31
0
0
LINE
8
sensors
10
277040.0
20
126380.0
30
0
11
277040.0
21
126540.0
31
0
0
LINE
8
sensors
10
276940.0
20
126380.0
30
0
11
277040.0
21
126380.0
31
0
0
LINE
8
sensors
10
276940.0
20
126540.0
30
0
11
277040.0
21
126540.0
31
0
0
LINE
8
sensors
10
277045.0
20
126405.0
30
0
11
277045.0
21
126515.0
31
0
0
LINE
8
sensors
10
277065.0
20
126405.0
30
0
11
277065.0
21
126515.0
31
0
0
LINE
8
sensors
10
277045.0
20
126405.0
30
0
11
277065.0
21
126405.0
31
0
0
LINE
8
sensors
10
277045.0
20
126515.0
30
0
11
277065.0
21
126515.0
31
0
0
LINE
8
sensors
10
276940.0
20
126680.0
30
0
11
276940.0
21
126840.0
31
0
0
LINE
8
sensors
10
277040.0
20
126680.0
30
0
11
277040.0
21
126840.0
31
0
0
LINE
8
sensors
10
276940.0
20
126680.0
30
0
11
277040.0
21
126680.0
31
0
0
LINE
8
sensors
10
276940.0
20
126840.0
30
0
11
277040.0
21
126840.0
31
0
0
LINE
8
sensors
10
277045.0
20
126705.0
30
0
11
277045.0
21
126815.0
31
0
0
LINE
8
sensors
10
277065.0
20
126705.0
30
0
11
277065.0
21
126815.0
31
0
0
LINE
8
sensors
10
277045.0
20
126705.0
30
0
11
277065.0
21
126705.0
31
0
0
LINE
8
sensors
10
277045.0
20
126815.0
30
0
11
277065.0
21
126815.0
31
0
0
LINE
8
sensors
10
276940.0
20
126980.0
30
0
11
276940.0
21
127140.0
31
0
0
LINE
8
sensors
10
277040.0
20
126980.0
30
0
11
277040.0
21
127140.0
31
0
0
LINE
8
sensors
10
276940.0
20
126980.0
30
0
11
277040.0
21
126980.0
31
0
0
LINE
8
sensors
10
276940.0
20
127140.0
30
0
11
277040.0
21
127140.0
31
0
0
LINE
8
sensors
10
277045.0
20
127005.0
30
0
11
277045.0
21
127115.0
31
0
0
LINE
8
sensors
10
277065.0
20
127005.0
30
0
11
277065.0
21
127115.0
31
0
0
LINE
8
sensors
10
277045.0
20
127005.0
30
0
11
277065.0
21
127005.0
31
0
0
LINE
8
sensors
10
277045.0
20
127115.0
30
0
11
277065.0
21
127115.0
31
0
0
LINE
8
sensors
10
281480.0
20
131500.0
30
0
11
281400.0
21
131580.0
31
0
0
LINE
8
sensors
10
281400.0
20
131580.0
30
0
11
281320.0
21
131500.0
31
0
0
LINE
8
sensors
10
281320.0
20
131500.0
30
0
11
281400.0
21
131420.0
31
0
0
LINE
8
sensors
10
281400.0
20
131420.0
30
0
11
281480.0
21
131500.0
31
0
0
LINE
8
sensors
10
281400.0
20
131500.0
30
0
11
281465.0
21
131500.0
31
0
0
LINE
8
sensors
10
281465.0
20
131500.0
30
0
11
281400.0
21
131500.0
31
0
0
LINE
8
sensors
10
276940.0
20
127580.0
30
0
11
276940.0
21
127740.0
31
0
0
LINE
8
sensors
10
277040.0
20
127580.0
30
0
11
277040.0
21
127740.0
31
0
0
LINE
8
sensors
10
276940.0
20
127580.0
30
0
11
277040.0
21
127580.0
31
0
0
LINE
8
sensors
10
276940.0
20
127740.0
30
0
11
277040.0
21
127740.0
31
0
0
LINE
8
sensors
10
277045.0
20
127605.0
30
0
11
277045.0
21
127715.0
31
0
0
LINE
8
sensors
10
277065.0
20
127605.0
30
0
11
277065.0
21
127715.0
31
0
0
LINE
8
sensors
10
277045.0
20
127605.0
30
0
11
277065.0
21
127605.0
31
0
0
LINE
8
sensors
10
277045.0
20
127715.0
30
0
11
277065.0
21
127715.0
31
0
0
LINE
8
sensors
10
284137.5
20
122900.0
30
0
11
284137.5
21
122825.0
31
0
0
LINE
8
sensors
10
284137.5
20
122825.0
30
0
11
284137.5
21
122900.0
31
0
0
LINE
8
sensors
10
284137.5
20
122900.0
30
0
11
284137.5
21
122975.0
31
0
0
LINE
8
sensors
10
284137.5
20
122975.0
30
0
11
284137.5
21
122900.0
31
0
0
LINE
8
sensors
10
283917.5
20
122900.0
30
0
11
284137.5
21
122900.0
31
0
0
LINE
8
sensors
10
283917.5
20
122900.0
30
0
11
283917.5
21
122825.0
31
0
0
LINE
8
sensors
10
283917.5
20
122825.0
30
0
11
283917.5
21
122900.0
31
0
0
LINE
8
sensors
10
283917.5
20
122900.0
30
0
11
283917.5
21
122975.0
31
0
0
LINE
8
sensors
10
283917.5
20
122975.0
30
0
11
283917.5
21
122900.0
31
0
0
LINE
8
sensors
10
283947.5
20
122830.0
30
0
11
283947.5
21
122970.0
31
0
0
LINE
8
sensors
10
284107.5
20
122830.0
30
0
11
284107.5
21
122970.0
31
0
0
LINE
8
sensors
10
283947.5
20
122830.0
30
0
11
284107.5
21
122830.0
31
0
0
LINE
8
sensors
10
283947.5
20
122970.0
30
0
11
284107.5
21
122970.0
31
0
0
LINE
8
sensors
10
284182.0
20
122900.0
30
0
11
284182.0
21
122825.0
31
0
0
LINE
8
sensors
10
284182.0
20
122825.0
30
0
11
284182.0
21
122900.0
31
0
0
LINE
8
sensors
10
284182.0
20
122900.0
30
0
11
284182.0
21
122975.0
31
0
0
LINE
8
sensors
10
284182.0
20
122975.0
30
0
11
284182.0
21
122900.0
31
0
0
LINE
8
sensors
10
283962.0
20
122900.0
30
0
11
284182.0
21
122900.0
31
0
0
LINE
8
sensors
10
283962.0
20
122900.0
30
0
11
283962.0
21
122825.0
31
0
0
LINE
8
sensors
10
283962.0
20
122825.0
30
0
11
283962.0
21
122900.0
31
0
0
LINE
8
sensors
10
283962.0
20
122900.0
30
0
11
283962.0
21
122975.0
31
0
0
LINE
8
sensors
10
283962.0
20
122975.0
30
0
11
283962.0
21
122900.0
31
0
0
LINE
8
sensors
10
283992.0
20
122830.0
30
0
11
283992.0
21
122970.0
31
0
0
LINE
8
sensors
10
284152.0
20
122830.0
30
0
11
284152.0
21
122970.0
31
0
0
LINE
8
sensors
10
283992.0
20
122830.0
30
0
11
284152.0
21
122830.0
31
0
0
LINE
8
sensors
10
283992.0
20
122970.0
30
0
11
284152.0
21
122970.0
31
0
0
ENDSEC
0
EOF
