0
SECTION
2
HEADER
9
$ACADVER
1
AC1015
9
$INSUNITS
70
4
0
ENDSEC
0
SECTION
2
ENTITIES
0
LINE
8
interiors
10
276900.0
20
143600.0
30
0
11
276900.0
21
149400.0
31
0
0
LINE
8
interiors
10
276900.0
20
143600.0
30
0
11
280200.0
21
143600.0
31
0
0
LINE
8
interiors
10
280200.0
20
143600.0
30
0
11
282600.0
21
143600.0
31
0
0
LINE
8
interiors
10
282600.0
20
143600.0
30
0
11
285900.0
21
143600.0
31
0
0
LINE
8
interiors
10
276900.0
20
143600.0
30
0
11
285900.0
21
143600.0
31
0
0
LINE
8
interiors
10
276900.0
20
149400.0
30
0
11
285900.0
21
149400.0
31
0
0
LINE
8
interiors
10
285900.0
20
143600.0
30
0
11
285900.0
21
149400.0
31
0
0
LINE
8
interiors
10
285780.0
20
143720.0
30
0
11
277020.0
21
143720.0
31
0
0
LINE
8
interiors
10
285780.0
20
143720.0
30
0
11
285780.0
21
149280.0
31
0
0
LINE
8
interiors
10
285780.0
20
149280.0
30
0
11
277020.0
21
149280.0
31
0
0
LINE
8
interiors
10
277020.0
20
143720.0
30
0
11
277020.0
21
149280.0
31
0
0
LINE
8
interiors
10
279060.0
20
149400.0
30
0
11
283740.0
21
149400.0
31
0
0
LINE
8
interiors
10
282600.0
20
143600.0
30
0
11
282600.0
21
143720.0
31
0
0
LINE
8
interiors
10
285780.0
20
143720.0
30
0
11
282600.0
21
143720.0
31
0
0
LINE
8
interiors
10
280200.0
20
143720.0
30
0
11
277020.0
21
143720.0
31
0
0
LINE
8
interiors
10
280200.0
20
143600.0
30
0
11
280200.0
21
143720.0
31
0
0
LINE
8
interiors
10
280200.0
20
143720.0
30
0
11
282600.0
21
143720.0
31
0
0
LINE
8
interiors
10
279060.0
20
149280.0
30
0
11
283740.0
21
149280.0
31
0
0
LINE
8
interiors
10
279060.0
20
149280.0
30
0
11
279060.0
21
149400.0
31
0
0
LINE
8
interiors
10
283740.0
20
149280.0
30
0
11
283740.0
21
149400.0
31
0
0
LINE
8
interiors
10
279060.0
20
149377.5
30
0
11
279060.0
21
149422.5
31
0
0
LINE
8
interiors
10
283740.0
20
149377.5
30
0
11
283740.0
21
149422.5
31
0
0
LINE
8
interiors
10
279060.0
20
149377.5
30
0
11
283740.0
21
149377.5
31
0
0
LINE
8
interiors
10
279060.0
20
149422.5
30
0
11
283740.0
21
149422.5
31
0
0
LINE
8
interiors
10
277025.0
20
143725.0
30
0
11
277025.0
21
149275.0
31
0
0
LINE
8
interiors
10
285775.0
20
143725.0
30
0
11
285775.0
21
149275.0
31
0
0
LINE
8
interiors
10
277025.0
20
143725.0
30
0
11
285775.0
21
143725.0
31
0
0
LINE
8
interiors
10
277025.0
20
149275.0
30
0
11
285775.0
21
149275.0
31
0
0
LINE
8
interiors
10
280245.0
20
143480.0
30
0
11
280245.0
21
143720.0
31
0
0
LINE
8
interiors
10
280315.0
20
143480.0
30
0
11
280315.0
21
143720.0
31
0
0
LINE
8
interiors
10
280245.0
20
143480.0
30
0
11
280315.0
21
143480.0
31
0
0
LINE
8
interiors
10
280245.0
20
143720.0
30
0
11
280315.0
21
143720.0
31
0
0
LINE
8
interiors
10
282485.0
20
143480.0
30
0
11
282485.0
21
143720.0
31
0
0
LINE
8
interiors
10
282555.0
20
143480.0
30
0
11
282555.0
21
143720.0
31
0
0
LINE
8
interiors
10
282485.0
20
143480.0
30
0
11
282555.0
21
143480.0
31
0
0
LINE
8
interiors
10
282485.0
20
143720.0
30
0
11
282555.0
21
143720.0
31
0
0
LINE
8
interiors
10
280250.0
20
143480.0
30
0
11
280250.0
21
143720.0
31
0
0
LINE
8
interiors
10
282550.0
20
143480.0
30
0
11
282550.0
21
143720.0
31
0
0
LINE
8
interiors
10
280250.0
20
143480.0
30
0
11
282550.0
21
143480.0
31
0
0
LINE
8
interiors
10
280250.0
20
143720.0
30
0
11
282550.0
21
143720.0
31
0
0
LINE
8
interiors
10
280330.39
20
143690.49
30
0
11
280289.61
21
143709.51
31
0
0
LINE
8
interiors
10
280786.82
20
144669.3
30
0
11
280746.04
21
144688.32
31
0
0
LINE
8
interiors
10
280330.39
20
143690.49
30
0
11
280786.82
21
144669.3
31
0
0
LINE
8
interiors
10
280289.61
20
143709.51
30
0
11
280746.04
21
144688.32
31
0
0
LINE
8
interiors
10
278200.0
20
144956.0
30
0
11
278200.0
21
145956.0
31
0
0
LINE
8
interiors
10
281000.0
20
144956.0
30
0
11
281000.0
21
145956.0
31
0
0
LINE
8
interiors
10
278200.0
20
144956.0
30
0
11
281000.0
21
144956.0
31
0
0
LINE
8
interiors
10
278200.0
20
145956.0
30
0
11
281000.0
21
145956.0
31
0
0
LINE
8
interiors
10
278265.0
20
145021.0
30
0
11
278265.0
21
145091.0
31
0
0
LINE
8
interiors
10
278335.0
20
145021.0
30
0
11
278335.0
21
145091.0
31
0
0
LINE
8
interiors
10
278265.0
20
145021.0
30
0
11
278335.0
21
145021.0
31
0
0
LINE
8
interiors
10
278265.0
20
145091.0
30
0
11
278335.0
21
145091.0
31
0
0
LINE
8
interiors
10
278265.0
20
145821.0
30
0
11
278265.0
21
145891.0
31
0
0
LINE
8
interiors
10
278335.0
20
145821.0
30
0
11
278335.0
21
145891.0
31
0
0
LINE
8
interiors
10
278265.0
20
145821.0
30
0
11
278335.0
21
145821.0
31
0
0
LINE
8
interiors
10
278265.0
20
145891.0
30
0
11
278335.0
21
145891.0
31
0
0
LINE
8
interiors
10
280865.0
20
145021.0
30
0
11
280865.0
21
145091.0
31
0
0
LINE
8
interiors
10
280935.0
20
145021.0
30
0
11
280935.0
21
145091.0
31
0
0
LINE
8
interiors
10
280865.0
20
145021.0
30
0
11
280935.0
21
145021.0
31
0
0
LINE
8
interiors
10
280865.0
20
145091.0
30
0
11
280935.0
21
145091.0
31
0
0
LINE
8
interiors
10
280865.0
20
145821.0
30
0
11
280865.0
21
145891.0
31
0
0
LINE
8
interiors
10
280935.0
20
145821.0
30
0
11
280935.0
21
145891.0
31
0
0
LINE
8
interiors
10
280865.0
20
145821.0
30
0
11
280935.0
21
145821.0
31
0
0
LINE
8
interiors
10
280865.0
20
145891.0
30
0
11
280935.0
21
145891.0
31
0
0
LINE
8
interiors
10
278150.0
20
147600.0
30
0
11
278150.0
21
148300.0
31
0
0
LINE
8
interiors
10
280150.0
20
147600.0
30
0
11
280150.0
21
148300.0
31
0
0
LINE
8
interiors
10
278150.0
20
147600.0
30
0
11
280150.0
21
147600.0
31
0
0
LINE
8
interiors
10
278150.0
20
148300.0
30
0
11
280150.0
21
148300.0
31
0
0
LINE
8
interiors
10
278250.0
20
147577.5
30
0
11
278250.0
21
147602.5
31
0
0
LINE
8
interiors
10
280050.0
20
147577.5
30
0
11
280050.0
21
147602.5
31
0
0
LINE
8
interiors
10
278250.0
20
147577.5
30
0
11
280050.0
21
147577.5
31
0
0
LINE
8
interiors
10
278250.0
20
147602.5
30
0
11
280050.0
21
147602.5
31
0
0
LINE
8
electrical
10
285175.0
20
143675.0
30
0
11
285175.0
21
143925.0
31
0
0
LINE
8
electrical
10
285725.0
20
143675.0
30
0
11
285725.0
21
143925.0
31
0
0
LINE
8
electrical
10
285175.0
20
143675.0
30
0
11
285725.0
21
143675.0
31
0
0
LINE
8
electrical
10
285175.0
20
143925.0
30
0
11
285725.0
21
143925.0
31
0
0
LINE
8
electrical
10
285215.0
20
143647.5
30
0
11
285215.0
21
143682.5
31
0
0
LINE
8
electrical
10
285685.0
20
143647.5
30
0
11
285685.0
21
143682.5
31
0
0
LINE
8
electrical
10
285215.0
20
143647.5
30
0
11
285685.0
21
143647.5
31
0
0
LINE
8
electrical
10
285215.0
20
143682.5
30
0
11
285685.0
21
143682.5
31
0
0
LINE
8
electrical
10
285262.5
20
143610.0
30
0
11
285262.5
21
143650.0
31
0
0
LINE
8
electrical
10
285362.5
20
143610.0
30
0
11
285362.5
21
143650.0
31
0
0
LINE
8
electrical
10
285262.5
20
143610.0
30
0
11
285362.5
21
143610.0
31
0
0
LINE
8
electrical
10
285262.5
20
143650.0
30
0
11
285362.5
21
143650.0
31
0
0
LINE
8
electrical
10
285400.0
20
143610.0
30
0
11
285400.0
21
143650.0
31
0
0
LINE
8
electrical
10
285500.0
20
143610.0
30
0
11
285500.0
21
143650.0
31
0
0
LINE
8
electrical
10
285400.0
20
143610.0
30
0
11
285500.0
21
143610.0
31
0
0
LINE
8
electrical
10
285400.0
20
143650.0
30
0
11
285500.0
21
143650.0
31
0
0
LINE
8
electrical
10
285537.5
20
143610.0
30
0
11
285537.5
21
143650.0
31
0
0
LINE
8
electrical
10
285637.5
20
143610.0
30
0
11
285637.5
21
143650.0
31
0
0
LINE
8
electrical
10
285537.5
20
143610.0
30
0
11
285637.5
21
143610.0
31
0
0
LINE
8
electrical
10
285537.5
20
143650.0
30
0
11
285637.5
21
143650.0
31
0
0
LINE
8
electrical
10
285312.5
20
143595.0
30
0
11
285335.88
21
143595.0
31
0
0
LINE
8
electrical
10
285335.88
20
143595.0
30
0
11
285289.12
21
143595.0
31
0
0
LINE
8
electrical
10
285289.12
20
143595.0
30
0
11
285312.5
21
143595.0
31
0
0
LINE
8
electrical
10
285312.5
20
143620.0
30
0
11
285312.5
21
143595.0
31
0
0
LINE
8
electrical
10
285312.5
20
143620.0
30
0
11
285335.88
21
143620.0
31
0
0
LINE
8
electrical
10
285335.88
20
143620.0
30
0
11
285289.12
21
143620.0
31
0
0
LINE
8
electrical
10
285289.12
20
143620.0
30
0
11
285312.5
21
143620.0
31
0
0
LINE
8
electrical
10
285450.0
20
143595.0
30
0
11
285473.38
21
143595.0
31
0
0
LINE
8
electrical
10
285473.38
20
143595.0
30
0
11
285426.62
21
143595.0
31
0
0
LINE
8
electrical
10
285426.62
20
143595.0
30
0
11
285450.0
21
143595.0
31
0
0
LINE
8
electrical
10
285450.0
20
143620.0
30
0
11
285450.0
21
143595.0
31
0
0
LINE
8
electrical
10
285450.0
20
143620.0
30
0
11
285473.38
21
143620.0
31
0
0
LINE
8
electrical
10
285473.38
20
143620.0
30
0
11
285426.62
21
143620.0
31
0
0
LINE
8
electrical
10
285426.62
20
143620.0
30
0
11
285450.0
21
143620.0
31
0
0
LINE
8
electrical
10
285587.5
20
143595.0
30
0
11
285610.88
21
143595.0
31
0
0
LINE
8
electrical
10
285610.88
20
143595.0
30
0
11
285564.12
21
143595.0
31
0
0
LINE
8
electrical
10
285564.12
20
143595.0
30
0
11
285587.5
21
143595.0
31
0
0
LINE
8
electrical
10
285587.5
20
143620.0
30
0
11
285587.5
21
143595.0
31
0
0
LINE
8
electrical
10
285587.5
20
143620.0
30
0
11
285610.88
21
143620.0
31
0
0
LINE
8
electrical
10
285610.88
20
143620.0
30
0
11
285564.12
21
143620.0
31
0
0
LINE
8
electrical
10
285564.12
20
143620.0
30
0
11
285587.5
21
143620.0
31
0
0
LINE
8
electrical
10
285450.0
20
143800.0
30
0
11
285465.59
21
143800.0
31
0
0
LINE
8
electrical
10
285465.59
20
143800.0
30
0
11
285434.41
21
143800.0
31
0
0
LINE
8
electrical
10
285434.41
20
143800.0
30
0
11
285450.0
21
143800.0
31
0
0
LINE
8
electrical
10
285450.0
20
122200.0
30
0
11
285450.0
21
143800.0
31
0
0
LINE
8
electrical
10
285450.0
20
122200.0
30
0
11
285465.59
21
122200.0
31
0
0
LINE
8
electrical
10
285465.59
20
122200.0
30
0
11
285434.41
21
122200.0
31
0
0
LINE
8
electrical
10
285434.41
20
122200.0
30
0
11
285450.0
21
122200.0
31
0
0
LINE
8
electrical
10
285432.0
20
143800.0
30
0
11
285459.0
21
143815.59
31
0
0
LINE
8
electrical
10
285459.0
20
143815.59
30
0
11
285459.0
21
143784.41
31
0
0
LINE
8
electrical
10
285459.0
20
143784.41
30
0
11
285432.0
21
143800.0
31
0
0
LINE
8
electrical
10
285450.0
20
143800.0
30
0
11
285469.44
21
143800.0
31
0
0
LINE
8
electrical
10
285469.44
20
143800.0
30
0
11
285450.0
21
143800.0
31
0
0
LINE
8
lighting
10
277840.0
20
144208.0
30
0
11
277840.0
21
144848.0
31
0
0
LINE
8
lighting
10
278480.0
20
144208.0
30
0
11
278480.0
21
144848.0
31
0
0
LINE
8
lighting
10
277840.0
20
144208.0
30
0
11
278480.0
21
144208.0
31
0
0
LINE
8
lighting
10
277840.0
20
144848.0
30
0
11
278480.0
21
144848.0
31
0
0
LINE
8
lighting
10
277880.0
20
144248.0
30
0
11
277880.0
21
144808.0
31
0
0
LINE
8
lighting
10
278440.0
20
144248.0
30
0
11
278440.0
21
144808.0
31
0
0
LINE
8
lighting
10
277880.0
20
144248.0
30
0
11
278440.0
21
144248.0
31
0
0
LINE
8
lighting
10
277880.0
20
144808.0
30
0
11
278440.0
21
144808.0
31
0
0
LINE
8
lighting
10
277914.0
20
144258.0
30
0
11
277914.0
21
144798.0
31
0
0
LINE
8
lighting
10
277926.0
20
144258.0
30
0
11
277926.0
21
144798.0
31
0
0
LINE
8
lighting
10
277914.0
20
144258.0
30
0
11
277926.0
21
144258.0
31
0
0
LINE
8
lighting
10
277914.0
20
144798.0
30
0
11
277926.0
21
144798.0
31
0
0
LINE
8
lighting
10
277994.0
20
144258.0
30
0
11
277994.0
21
144798.0
31
0
0
LINE
8
lighting
10
278006.0
20
144258.0
30
0
11
278006.0
21
144798.0
31
0
0
LINE
8
lighting
10
277994.0
20
144258.0
30
0
11
278006.0
21
144258.0
31
0
0
LINE
8
lighting
10
277994.0
20
144798.0
30
0
11
278006.0
21
144798.0
31
0
0
LINE
8
lighting
10
278074.0
20
144258.0
30
0
11
278074.0
21
144798.0
31
0
0
LINE
8
lighting
10
278086.0
20
144258.0
30
0
11
278086.0
21
144798.0
31
0
0
LINE
8
lighting
10
278074.0
20
144258.0
30
0
11
278086.0
21
144258.0
31
0
0
LINE
8
lighting
10
278074.0
20
144798.0
30
0
11
278086.0
21
144798.0
31
0
0
LINE
8
lighting
10
278154.0
20
144258.0
30
0
11
278154.0
21
144798.0
31
0
0
LINE
8
lighting
10
278166.0
20
144258.0
30
0
11
278166.0
21
144798.0
31
0
0
LINE
8
lighting
10
278154.0
20
144258.0
30
0
11
278166.0
21
144258.0
31
0
0
LINE
8
lighting
10
278154.0
20
144798.0
30
0
11
278166.0
21
144798.0
31
0
0
LINE
8
lighting
10
278234.0
20
144258.0
30
0
11
278234.0
21
144798.0
31
0
0
LINE
8
lighting
10
278246.0
20
144258.0
30
0
11
278246.0
21
144798.0
31
0
0
LINE
8
lighting
10
278234.0
20
144258.0
30
0
11
278246.0
21
144258.0
31
0
0
LINE
8
lighting
10
278234.0
20
144798.0
30
0
11
278246.0
21
144798.0
31
0
0
LINE
8
lighting
10
278314.0
20
144258.0
30
0
11
278314.0
21
144798.0
31
0
0
LINE
8
lighting
10
278326.0
20
144258.0
30
0
11
278326.0
21
144798.0
31
0
0
LINE
8
lighting
10
278314.0
20
144258.0
30
0
11
278326.0
21
144258.0
31
0
0
LINE
8
lighting
10
278314.0
20
144798.0
30
0
11
278326.0
21
144798.0
31
0
0
LINE
8
lighting
10
278394.0
20
144258.0
30
0
11
278394.0
21
144798.0
31
0
0
LINE
8
lighting
10
278406.0
20
144258.0
30
0
11
278406.0
21
144798.0
31
0
0
LINE
8
lighting
10
278394.0
20
144258.0
30
0
11
278406.0
21
144258.0
31
0
0
LINE
8
lighting
10
278394.0
20
144798.0
30
0
11
278406.0
21
144798.0
31
0
0
LINE
8
lighting
10
278169.0
20
144528.0
30
0
11
278155.5
21
144535.79
31
0
0
LINE
8
lighting
10
278155.5
20
144535.79
30
0
11
278155.5
21
144520.21
31
0
0
LINE
8
lighting
10
278155.5
20
144520.21
30
0
11
278169.0
21
144528.0
31
0
0
LINE
8
lighting
10
284320.0
20
144208.0
30
0
11
284320.0
21
144848.0
31
0
0
LINE
8
lighting
10
284960.0
20
144208.0
30
0
11
284960.0
21
144848.0
31
0
0
LINE
8
lighting
10
284320.0
20
144208.0
30
0
11
284960.0
21
144208.0
31
0
0
LINE
8
lighting
10
284320.0
20
144848.0
30
0
11
284960.0
21
144848.0
31
0
0
LINE
8
lighting
10
284360.0
20
144248.0
30
0
11
284360.0
21
144808.0
31
0
0
LINE
8
lighting
10
284920.0
20
144248.0
30
0
11
284920.0
21
144808.0
31
0
0
LINE
8
lighting
10
284360.0
20
144248.0
30
0
11
284920.0
21
144248.0
31
0
0
LINE
8
lighting
10
284360.0
20
144808.0
30
0
11
284920.0
21
144808.0
31
0
0
LINE
8
lighting
10
284394.0
20
144258.0
30
0
11
284394.0
21
144798.0
31
0
0
LINE
8
lighting
10
284406.0
20
144258.0
30
0
11
284406.0
21
144798.0
31
0
0
LINE
8
lighting
10
284394.0
20
144258.0
30
0
11
284406.0
21
144258.0
31
0
0
LINE
8
lighting
10
284394.0
20
144798.0
30
0
11
284406.0
21
144798.0
31
0
0
LINE
8
lighting
10
284474.0
20
144258.0
30
0
11
284474.0
21
144798.0
31
0
0
LINE
8
lighting
10
284486.0
20
144258.0
30
0
11
284486.0
21
144798.0
31
0
0
LINE
8
lighting
10
284474.0
20
144258.0
30
0
11
284486.0
21
144258.0
31
0
0
LINE
8
lighting
10
284474.0
20
144798.0
30
0
11
284486.0
21
144798.0
31
0
0
LINE
8
lighting
10
284554.0
20
144258.0
30
0
11
284554.0
21
144798.0
31
0
0
LINE
8
lighting
10
284566.0
20
144258.0
30
0
11
284566.0
21
144798.0
31
0
0
LINE
8
lighting
10
284554.0
20
144258.0
30
0
11
284566.0
21
144258.0
31
0
0
LINE
8
lighting
10
284554.0
20
144798.0
30
0
11
284566.0
21
144798.0
31
0
0
LINE
8
lighting
10
284634.0
20
144258.0
30
0
11
284634.0
21
144798.0
31
0
0
LINE
8
lighting
10
284646.0
20
144258.0
30
0
11
284646.0
21
144798.0
31
0
0
LINE
8
lighting
10
284634.0
20
144258.0
30
0
11
284646.0
21
144258.0
31
0
0
LINE
8
lighting
10
284634.0
20
144798.0
30
0
11
284646.0
21
144798.0
31
0
0
LINE
8
lighting
10
284714.0
20
144258.0
30
0
11
284714.0
21
144798.0
31
0
0
LINE
8
lighting
10
284726.0
20
144258.0
30
0
11
284726.0
21
144798.0
31
0
0
LINE
8
lighting
10
284714.0
20
144258.0
30
0
11
284726.0
21
144258.0
31
0
0
LINE
8
lighting
10
284714.0
20
144798.0
30
0
11
284726.0
21
144798.0
31
0
0
LINE
8
lighting
10
284794.0
20
144258.0
30
0
11
284794.0
21
144798.0
31
0
0
LINE
8
lighting
10
284806.0
20
144258.0
30
0
11
284806.0
21
144798.0
31
0
0
LINE
8
lighting
10
284794.0
20
144258.0
30
0
11
284806.0
21
144258.0
31
0
0
LINE
8
lighting
10
284794.0
20
144798.0
30
0
11
284806.0
21
144798.0
31
0
0
LINE
8
lighting
10
284874.0
20
144258.0
30
0
11
284874.0
21
144798.0
31
0
0
LINE
8
lighting
10
284886.0
20
144258.0
30
0
11
284886.0
21
144798.0
31
0
0
LINE
8
lighting
10
284874.0
20
144258.0
30
0
11
284886.0
21
144258.0
31
0
0
LINE
8
lighting
10
284874.0
20
144798.0
30
0
11
284886.0
21
144798.0
31
0
0
LINE
8
lighting
10
284649.0
20
144528.0
30
0
11
284635.5
21
144535.79
31
0
0
LINE
8
lighting
10
284635.5
20
144535.79
30
0
11
284635.5
21
144520.21
31
0
0
LINE
8
lighting
10
284635.5
20
144520.21
30
0
11
284649.0
21
144528.0
31
0
0
LINE
8
lighting
10
277840.0
20
148152.0
30
0
11
277840.0
21
148792.0
31
0
0
LINE
8
lighting
10
278480.0
20
148152.0
30
0
11
278480.0
21
148792.0
31
0
0
LINE
8
lighting
10
277840.0
20
148152.0
30
0
11
278480.0
21
148152.0
31
0
0
LINE
8
lighting
10
277840.0
20
148792.0
30
0
11
278480.0
21
148792.0
31
0
0
LINE
8
lighting
10
277880.0
20
148192.0
30
0
11
277880.0
21
148752.0
31
0
0
LINE
8
lighting
10
278440.0
20
148192.0
30
0
11
278440.0
21
148752.0
31
0
0
LINE
8
lighting
10
277880.0
20
148192.0
30
0
11
278440.0
21
148192.0
31
0
0
LINE
8
lighting
10
277880.0
20
148752.0
30
0
11
278440.0
21
148752.0
31
0
0
LINE
8
lighting
10
277914.0
20
148202.0
30
0
11
277914.0
21
148742.0
31
0
0
LINE
8
lighting
10
277926.0
20
148202.0
30
0
11
277926.0
21
148742.0
31
0
0
LINE
8
lighting
10
277914.0
20
148202.0
30
0
11
277926.0
21
148202.0
31
0
0
LINE
8
lighting
10
277914.0
20
148742.0
30
0
11
277926.0
21
148742.0
31
0
0
LINE
8
lighting
10
277994.0
20
148202.0
30
0
11
277994.0
21
148742.0
31
0
0
LINE
8
lighting
10
278006.0
20
148202.0
30
0
11
278006.0
21
148742.0
31
0
0
LINE
8
lighting
10
277994.0
20
148202.0
30
0
11
278006.0
21
148202.0
31
0
0
LINE
8
lighting
10
277994.0
20
148742.0
30
0
11
278006.0
21
148742.0
31
0
0
LINE
8
lighting
10
278074.0
20
148202.0
30
0
11
278074.0
21
148742.0
31
0
0
LINE
8
lighting
10
278086.0
20
148202.0
30
0
11
278086.0
21
148742.0
31
0
0
LINE
8
lighting
10
278074.0
20
148202.0
30
0
11
278086.0
21
148202.0
31
0
0
LINE
8
lighting
10
278074.0
20
148742.0
30
0
11
278086.0
21
148742.0
31
0
0
LINE
8
lighting
10
278154.0
20
148202.0
30
0
11
278154.0
21
148742.0
31
0
0
LINE
8
lighting
10
278166.0
20
148202.0
30
0
11
278166.0
21
148742.0
31
0
0
LINE
8
lighting
10
278154.0
20
148202.0
30
0
11
278166.0
21
148202.0
31
0
0
LINE
8
lighting
10
278154.0
20
148742.0
30
0
11
278166.0
21
148742.0
31
0
0
LINE
8
lighting
10
278234.0
20
148202.0
30
0
11
278234.0
21
148742.0
31
0
0
LINE
8
lighting
10
278246.0
20
148202.0
30
0
11
278246.0
21
148742.0
31
0
0
LINE
8
lighting
10
278234.0
20
148202.0
30
0
11
278246.0
21
148202.0
31
0
0
LINE
8
lighting
10
278234.0
20
148742.0
30
0
11
278246.0
21
148742.0
31
0
0
LINE
8
lighting
10
278314.0
20
148202.0
30
0
11
278314.0
21
148742.0
31
0
0
LINE
8
lighting
10
278326.0
20
148202.0
30
0
11
278326.0
21
148742.0
31
0
0
LINE
8
lighting
10
278314.0
20
148202.0
30
0
11
278326.0
21
148202.0
31
0
0
LINE
8
lighting
10
278314.0
20
148742.0
30
0
11
278326.0
21
148742.0
31
0
0
LINE
8
lighting
10
278394.0
20
148202.0
30
0
11
278394.0
21
148742.0
31
0
0
LINE
8
lighting
10
278406.0
20
148202.0
30
0
11
278406.0
21
148742.0
31
0
0
LINE
8
lighting
10
278394.0
20
148202.0
30
0
11
278406.0
21
148202.0
31
0
0
LINE
8
lighting
10
278394.0
20
148742.0
30
0
11
278406.0
21
148742.0
31
0
0
LINE
8
lighting
10
278169.0
20
148472.0
30
0
11
278155.5
21
148479.79
31
0
0
LINE
8
lighting
10
278155.5
20
148479.79
30
0
11
278155.5
21
148464.21
31
0
0
LINE
8
lighting
10
278155.5
20
148464.21
30
0
11
278169.0
21
148472.0
31
0
0
LINE
8
lighting
10
284320.0
20
148152.0
30
0
11
284320.0
21
148792.0
31
0
0
LINE
8
lighting
10
284960.0
20
148152.0
30
0
11
284960.0
21
148792.0
31
0
0
LINE
8
lighting
10
284320.0
20
148152.0
30
0
11
284960.0
21
148152.0
31
0
0
LINE
8
lighting
10
284320.0
20
148792.0
30
0
11
284960.0
21
148792.0
31
0
0
LINE
8
lighting
10
284360.0
20
148192.0
30
0
11
284360.0
21
148752.0
31
0
0
LINE
8
lighting
10
284920.0
20
148192.0
30
0
11
284920.0
21
148752.0
31
0
0
LINE
8
lighting
10
284360.0
20
148192.0
30
0
11
284920.0
21
148192.0
31
0
0
LINE
8
lighting
10
284360.0
20
148752.0
30
0
11
284920.0
21
148752.0
31
0
0
LINE
8
lighting
10
284394.0
20
148202.0
30
0
11
284394.0
21
148742.0
31
0
0
LINE
8
lighting
10
284406.0
20
148202.0
30
0
11
284406.0
21
148742.0
31
0
0
LINE
8
lighting
10
284394.0
20
148202.0
30
0
11
284406.0
21
148202.0
31
0
0
LINE
8
lighting
10
284394.0
20
148742.0
30
0
11
284406.0
21
148742.0
31
0
0
LINE
8
lighting
10
284474.0
20
148202.0
30
0
11
284474.0
21
148742.0
31
0
0
LINE
8
lighting
10
284486.0
20
148202.0
30
0
11
284486.0
21
148742.0
31
0
0
LINE
8
lighting
10
284474.0
20
148202.0
30
0
11
284486.0
21
148202.0
31
0
0
LINE
8
lighting
10
284474.0
20
148742.0
30
0
11
284486.0
21
148742.0
31
0
0
LINE
8
lighting
10
284554.0
20
148202.0
30
0
11
284554.0
21
148742.0
31
0
0
LINE
8
lighting
10
284566.0
20
148202.0
30
0
11
284566.0
21
148742.0
31
0
0
LINE
8
lighting
10
284554.0
20
148202.0
30
0
11
284566.0
21
148202.0
31
0
0
LINE
8
lighting
10
284554.0
20
148742.0
30
0
11
284566.0
21
148742.0
31
0
0
LINE
8
lighting
10
284634.0
20
148202.0
30
0
11
284634.0
21
148742.0
31
0
0
LINE
8
lighting
10
284646.0
20
148202.0
30
0
11
284646.0
21
148742.0
31
0
0
LINE
8
lighting
10
284634.0
20
148202.0
30
0
11
284646.0
21
148202.0
31
0
0
LINE
8
lighting
10
284634.0
20
148742.0
30
0
11
284646.0
21
148742.0
31
0
0
LINE
8
lighting
10
284714.0
20
148202.0
30
0
11
284714.0
21
148742.0
31
0
0
LINE
8
lighting
10
284726.0
20
148202.0
30
0
11
284726.0
21
148742.0
31
0
0
LINE
8
lighting
10
284714.0
20
148202.0
30
0
11
284726.0
21
148202.0
31
0
0
LINE
8
lighting
10
284714.0
20
148742.0
30
0
11
284726.0
21
148742.0
31
0
0
LINE
8
lighting
10
284794.0
20
148202.0
30
0
11
284794.0
21
148742.0
31
0
0
LINE
8
lighting
10
284806.0
20
148202.0
30
0
11
284806.0
21
148742.0
31
0
0
LINE
8
lighting
10
284794.0
20
148202.0
30
0
11
284806.0
21
148202.0
31
0
0
LINE
8
lighting
10
284794.0
20
148742.0
30
0
11
284806.0
21
148742.0
31
0
0
LINE
8
lighting
10
284874.0
20
148202.0
30
0
11
284874.0
21
148742.0
31
0
0
LINE
8
lighting
10
284886.0
20
148202.0
30
0
11
284886.0
21
148742.0
31
0
0
LINE
8
lighting
10
284874.0
20
148202.0
30
0
11
284886.0
21
148202.0
31
0
0
LINE
8
lighting
10
284874.0
20
148742.0
30
0
11
284886.0
21
148742.0
31
0
0
LINE
8
lighting
10
284649.0
20
148472.0
30
0
11
284635.5
21
148479.79
31
0
0
LINE
8
lighting
10
284635.5
20
148479.79
30
0
11
284635.5
21
148464.21
31
0
0
LINE
8
lighting
10
284635.5
20
148464.21
30
0
11
284649.0
21
148472.0
31
0
0
LINE
8
electrical
10
278160.0
20
144350.0
30
0
11
278160.0
21
144342.21
31
0
0
LINE
8
electrical
10
278160.0
20
144342.21
30
0
11
278160.0
21
144357.79
31
0
0
LINE
8
electrical
10
278160.0
20
144357.79
30
0
11
278160.0
21
144350.0
31
0
0
LINE
8
electrical
10
285450.0
20
144350.0
30
0
11
278160.0
21
144350.0
31
0
0
LINE
8
electrical
10
285450.0
20
144350.0
30
0
11
285450.0
21
144342.21
31
0
0
LINE
8
electrical
10
285450.0
20
144342.21
30
0
11
285450.0
21
144357.79
31
0
0
LINE
8
electrical
10
285450.0
20
144357.79
30
0
11
285450.0
21
144350.0
31
0
0
LINE
8
electrical
10
278160.0
20
148472.0
30
0
11
278167.79
21
148472.0
31
0
0
LINE
8
electrical
10
278167.79
20
148472.0
30
0
11
278152.21
21
148472.0
31
0
0
LINE
8
electrical
10
278152.21
20
148472.0
30
0
11
278160.0
21
148472.0
31
0
0
LINE
8
electrical
10
278160.0
20
144350.0
30
0
11
278160.0
21
148472.0
31
0
0
LINE
8
electrical
10
278160.0
20
144350.0
30
0
11
278167.79
21
144350.0
31
0
0
LINE
8
electrical
10
278167.79
20
144350.0
30
0
11
278152.21
21
144350.0
31
0
0
LINE
8
electrical
10
278152.21
20
144350.0
30
0
11
278160.0
21
144350.0
31
0
0
LINE
8
electrical
10
284640.0
20
148472.0
30
0
11
284647.79
21
148472.0
31
0
0
LINE
8
electrical
10
284647.79
20
148472.0
30
0
11
284632.21
21
148472.0
31
0
0
LINE
8
electrical
10
284632.21
20
148472.0
30
0
11
284640.0
21
148472.0
31
0
0
LINE
8
electrical
10
284640.0
20
144350.0
30
0
11
284640.0
21
148472.0
31
0
0
LINE
8
electrical
10
284640.0
20
144350.0
30
0
11
284647.79
21
144350.0
31
0
0
LINE
8
electrical
10
284647.79
20
144350.0
30
0
11
284632.21
21
144350.0
31
0
0
LINE
8
electrical
10
284632.21
20
144350.0
30
0
11
284640.0
21
144350.0
31
0
0
LINE
8
electrical
10
285463.0
20
143800.0
30
0
11
285443.5
21
143811.26
31
0
0
LINE
8
electrical
10
285443.5
20
143811.26
30
0
11
285443.5
21
143788.74
31
0
0
LINE
8
electrical
10
285443.5
20
143788.74
30
0
11
285463.0
21
143800.0
31
0
0
LINE
8
electrical
10
284543.22
20
144338.91
30
0
11
284553.39
21
144355.55
31
0
0
LINE
8
electrical
10
284553.39
20
144355.55
30
0
11
284553.39
21
144355.55
31
0
0
LINE
8
electrical
10
284553.39
20
144355.55
30
0
11
284543.22
21
144338.91
31
0
0
LINE
8
electrical
10
285443.22
20
143788.91
30
0
11
284543.22
21
144338.91
31
0
0
LINE
8
electrical
10
285443.22
20
143788.91
30
0
11
285453.39
21
143805.55
31
0
0
LINE
8
electrical
10
285453.39
20
143805.55
30
0
11
285453.39
21
143805.55
31
0
0
LINE
8
electrical
10
285453.39
20
143805.55
30
0
11
285443.22
21
143788.91
31
0
0
LINE
8
electrical
10
278250.0
20
144350.0
30
0
11
278250.0
21
144338.74
31
0
0
LINE
8
electrical
10
278250.0
20
144338.74
30
0
11
278250.0
21
144361.26
31
0
0
LINE
8
electrical
10
278250.0
20
144361.26
30
0
11
278250.0
21
144350.0
31
0
0
LINE
8
electrical
10
284550.0
20
144350.0
30
0
11
278250.0
21
144350.0
31
0
0
LINE
8
electrical
10
284550.0
20
144350.0
30
0
11
284550.0
21
144338.74
31
0
0
LINE
8
electrical
10
284550.0
20
144338.74
30
0
11
284550.0
21
144361.26
31
0
0
LINE
8
electrical
10
284550.0
20
144361.26
30
0
11
284550.0
21
144350.0
31
0
0
LINE
8
electrical
10
285450.0
20
143800.0
30
0
11
285464.04
21
143800.0
31
0
0
LINE
8
electrical
10
285464.04
20
143800.0
30
0
11
285450.0
21
143800.0
31
0
0
LINE
8
electrical
10
284550.0
20
144350.0
30
0
11
284564.04
21
144350.0
31
0
0
LINE
8
electrical
10
284564.04
20
144350.0
30
0
11
284550.0
21
144350.0
31
0
0
LINE
8
electrical
10
285463.0
20
143800.0
30
0
11
285443.5
21
143811.26
31
0
0
LINE
8
electrical
10
285443.5
20
143811.26
30
0
11
285443.5
21
143788.74
31
0
0
LINE
8
electrical
10
285443.5
20
143788.74
30
0
11
285463.0
21
143800.0
31
0
0
LINE
8
electrical
10
284542.24
20
144459.57
30
0
11
284553.88
21
144475.21
31
0
0
LINE
8
electrical
10
284553.88
20
144475.21
30
0
11
284553.88
21
144475.21
31
0
0
LINE
8
electrical
10
284553.88
20
144475.21
30
0
11
284542.24
21
144459.57
31
0
0
LINE
8
electrical
10
285442.24
20
143789.57
30
0
11
284542.24
21
144459.57
31
0
0
LINE
8
electrical
10
285442.24
20
143789.57
30
0
11
285453.88
21
143805.21
31
0
0
LINE
8
electrical
10
285453.88
20
143805.21
30
0
11
285453.88
21
143805.21
31
0
0
LINE
8
electrical
10
285453.88
20
143805.21
30
0
11
285442.24
21
143789.57
31
0
0
LINE
8
electrical
10
278250.0
20
144470.0
30
0
11
278250.0
21
144458.74
31
0
0
LINE
8
electrical
10
278250.0
20
144458.74
30
0
11
278250.0
21
144481.26
31
0
0
LINE
8
electrical
10
278250.0
20
144481.26
30
0
11
278250.0
21
144470.0
31
0
0
LINE
8
electrical
10
284550.0
20
144470.0
30
0
11
278250.0
21
144470.0
31
0
0
LINE
8
electrical
10
284550.0
20
144470.0
30
0
11
284550.0
21
144458.74
31
0
0
LINE
8
electrical
10
284550.0
20
144458.74
30
0
11
284550.0
21
144481.26
31
0
0
LINE
8
electrical
10
284550.0
20
144481.26
30
0
11
284550.0
21
144470.0
31
0
0
LINE
8
electrical
10
285450.0
20
143800.0
30
0
11
285464.04
21
143800.0
31
0
0
LINE
8
electrical
10
285464.04
20
143800.0
30
0
11
285450.0
21
143800.0
31
0
0
LINE
8
electrical
10
284550.0
20
144470.0
30
0
11
284564.04
21
144470.0
31
0
0
LINE
8
electrical
10
284564.04
20
144470.0
30
0
11
284550.0
21
144470.0
31
0
0
LINE
8
electrical
10
285463.0
20
143800.0
30
0
11
285443.5
21
143811.26
31
0
0
LINE
8
electrical
10
285443.5
20
143811.26
30
0
11
285443.5
21
143788.74
31
0
0
LINE
8
electrical
10
285443.5
20
143788.74
30
0
11
285463.0
21
143800.0
31
0
0
LINE
8
electrical
10
284541.42
20
144580.23
30
0
11
284554.29
21
144594.89
31
0
0
LINE
8
electrical
10
284554.29
20
144594.89
30
0
11
284554.29
21
144594.89
31
0
0
LINE
8
electrical
10
284554.29
20
144594.89
30
0
11
284541.42
21
144580.23
31
0
0
LINE
8
electrical
10
285441.42
20
143790.23
30
0
11
284541.42
21
144580.23
31
0
0
LINE
8
electrical
10
285441.42
20
143790.23
30
0
11
285454.29
21
143804.89
31
0
0
LINE
8
electrical
10
285454.29
20
143804.89
30
0
11
285454.29
21
143804.89
31
0
0
LINE
8
electrical
10
285454.29
20
143804.89
30
0
11
285441.42
21
143790.23
31
0
0
LINE
8
electrical
10
278250.0
20
144590.0
30
0
11
278250.0
21
144578.74
31
0
0
LINE
8
electrical
10
278250.0
20
144578.74
30
0
11
278250.0
21
144601.26
31
0
0
LINE
8
electrical
10
278250.0
20
144601.26
30
0
11
278250.0
21
144590.0
31
0
0
LINE
8
electrical
10
284550.0
20
144590.0
30
0
11
278250.0
21
144590.0
31
0
0
LINE
8
electrical
10
284550.0
20
144590.0
30
0
11
284550.0
21
144578.74
31
0
0
LINE
8
electrical
10
284550.0
20
144578.74
30
0
11
284550.0
21
144601.26
31
0
0
LINE
8
electrical
10
284550.0
20
144601.26
30
0
11
284550.0
21
144590.0
31
0
0
LINE
8
electrical
10
285450.0
20
143800.0
30
0
11
285464.04
21
143800.0
31
0
0
LINE
8
electrical
10
285464.04
20
143800.0
30
0
11
285450.0
21
143800.0
31
0
0
LINE
8
electrical
10
284550.0
20
144590.0
30
0
11
284564.04
21
144590.0
31
0
0
LINE
8
electrical
10
284564.04
20
144590.0
30
0
11
284550.0
21
144590.0
31
0
0
LINE
8
electrical
10
278635.0
20
143750.0
30
0
11
278635.0
21
143810.0
31
0
0
LINE
8
electrical
10
278765.0
20
143750.0
30
0
11
278765.0
21
143810.0
31
0
0
LINE
8
electrical
10
278635.0
20
143750.0
30
0
11
278765.0
21
143750.0
31
0
0
LINE
8
electrical
10
278635.0
20
143810.0
30
0
11
278765.0
21
143810.0
31
0
0
LINE
8
electrical
10
278709.0
20
143780.0
30
0
11
278695.5
21
143787.79
31
0
0
LINE
8
electrical
10
278695.5
20
143787.79
30
0
11
278695.5
21
143772.21
31
0
0
LINE
8
electrical
10
278695.5
20
143772.21
30
0
11
278709.0
21
143780.0
31
0
0
LINE
8
electrical
10
285450.0
20
143780.0
30
0
11
285450.0
21
143772.21
31
0
0
LINE
8
electrical
10
285450.0
20
143772.21
30
0
11
285450.0
21
143787.79
31
0
0
LINE
8
electrical
10
285450.0
20
143787.79
30
0
11
285450.0
21
143780.0
31
0
0
LINE
8
electrical
10
278700.0
20
143780.0
30
0
11
285450.0
21
143780.0
31
0
0
LINE
8
electrical
10
278700.0
20
143780.0
30
0
11
278700.0
21
143772.21
31
0
0
LINE
8
electrical
10
278700.0
20
143772.21
30
0
11
278700.0
21
143787.79
31
0
0
LINE
8
electrical
10
278700.0
20
143787.79
30
0
11
278700.0
21
143780.0
31
0
0
LINE
8
electrical
10
278700.0
20
143780.0
30
0
11
278709.72
21
143780.0
31
0
0
LINE
8
electrical
10
278709.72
20
143780.0
30
0
11
278700.0
21
143780.0
31
0
0
LINE
8
electrical
10
284035.0
20
143750.0
30
0
11
284035.0
21
143810.0
31
0
0
LINE
8
electrical
10
284165.0
20
143750.0
30
0
11
284165.0
21
143810.0
31
0
0
LINE
8
electrical
10
284035.0
20
143750.0
30
0
11
284165.0
21
143750.0
31
0
0
LINE
8
electrical
10
284035.0
20
143810.0
30
0
11
284165.0
21
143810.0
31
0
0
LINE
8
electrical
10
284109.0
20
143780.0
30
0
11
284095.5
21
143787.79
31
0
0
LINE
8
electrical
10
284095.5
20
143787.79
30
0
11
284095.5
21
143772.21
31
0
0
LINE
8
electrical
10
284095.5
20
143772.21
30
0
11
284109.0
21
143780.0
31
0
0
LINE
8
electrical
10
285450.0
20
143780.0
30
0
11
285450.0
21
143772.21
31
0
0
LINE
8
electrical
10
285450.0
20
143772.21
30
0
11
285450.0
21
143787.79
31
0
0
LINE
8
electrical
10
285450.0
20
143787.79
30
0
11
285450.0
21
143780.0
31
0
0
LINE
8
electrical
10
284100.0
20
143780.0
30
0
11
285450.0
21
143780.0
31
0
0
LINE
8
electrical
10
284100.0
20
143780.0
30
0
11
284100.0
21
143772.21
31
0
0
LINE
8
electrical
10
284100.0
20
143772.21
30
0
11
284100.0
21
143787.79
31
0
0
LINE
8
electrical
10
284100.0
20
143787.79
30
0
11
284100.0
21
143780.0
31
0
0
LINE
8
electrical
10
284100.0
20
143780.0
30
0
11
284109.72
21
143780.0
31
0
0
LINE
8
electrical
10
284109.72
20
143780.0
30
0
11
284100.0
21
143780.0
31
0
0
LINE
8
hvac
10
277375.0
20
144325.0
30
0
11
277375.0
21
145075.0
31
0
0
LINE
8
hvac
10
279025.0
20
144325.0
30
0
11
279025.0
21
145075.0
31
0
0
LINE
8
hvac
10
277375.0
20
144325.0
30
0
11
279025.0
21
144325.0
31
0
0
LINE
8
hvac
10
277375.0
20
145075.0
30
0
11
279025.0
21
145075.0
31
0
0
LINE
8
hvac
10
277475.0
20
144280.0
30
0
11
277475.0
21
144320.0
31
0
0
LINE
8
hvac
10
278925.0
20
144280.0
30
0
11
278925.0
21
144320.0
31
0
0
LINE
8
hvac
10
277475.0
20
144280.0
30
0
11
278925.0
21
144280.0
31
0
0
LINE
8
hvac
10
277475.0
20
144320.0
30
0
11
278925.0
21
144320.0
31
0
0
LINE
8
hvac
10
277540.0
20
144240.0
30
0
11
277540.0
21
144300.0
31
0
0
LINE
8
hvac
10
277580.0
20
144240.0
30
0
11
277580.0
21
144300.0
31
0
0
LINE
8
hvac
10
277540.0
20
144240.0
30
0
11
277580.0
21
144240.0
31
0
0
LINE
8
hvac
10
277540.0
20
144300.0
30
0
11
277580.0
21
144300.0
31
0
0
LINE
8
hvac
10
277700.0
20
144240.0
30
0
11
277700.0
21
144300.0
31
0
0
LINE
8
hvac
10
277740.0
20
144240.0
30
0
11
277740.0
21
144300.0
31
0
0
LINE
8
hvac
10
277700.0
20
144240.0
30
0
11
277740.0
21
144240.0
31
0
0
LINE
8
hvac
10
277700.0
20
144300.0
30
0
11
277740.0
21
144300.0
31
0
0
LINE
8
hvac
10
277860.0
20
144240.0
30
0
11
277860.0
21
144300.0
31
0
0
LINE
8
hvac
10
277900.0
20
144240.0
30
0
11
277900.0
21
144300.0
31
0
0
LINE
8
hvac
10
277860.0
20
144240.0
30
0
11
277900.0
21
144240.0
31
0
0
LINE
8
hvac
10
277860.0
20
144300.0
30
0
11
277900.0
21
144300.0
31
0
0
LINE
8
hvac
10
278020.0
20
144240.0
30
0
11
278020.0
21
144300.0
31
0
0
LINE
8
hvac
10
278060.0
20
144240.0
30
0
11
278060.0
21
144300.0
31
0
0
LINE
8
hvac
10
278020.0
20
144240.0
30
0
11
278060.0
21
144240.0
31
0
0
LINE
8
hvac
10
278020.0
20
144300.0
30
0
11
278060.0
21
144300.0
31
0
0
LINE
8
hvac
10
278180.0
20
144240.0
30
0
11
278180.0
21
144300.0
31
0
0
LINE
8
hvac
10
278220.0
20
144240.0
30
0
11
278220.0
21
144300.0
31
0
0
LINE
8
hvac
10
278180.0
20
144240.0
30
0
11
278220.0
21
144240.0
31
0
0
LINE
8
hvac
10
278180.0
20
144300.0
30
0
11
278220.0
21
144300.0
31
0
0
LINE
8
hvac
10
278340.0
20
144240.0
30
0
11
278340.0
21
144300.0
31
0
0
LINE
8
hvac
10
278380.0
20
144240.0
30
0
11
278380.0
21
144300.0
31
0
0
LINE
8
hvac
10
278340.0
20
144240.0
30
0
11
278380.0
21
144240.0
31
0
0
LINE
8
hvac
10
278340.0
20
144300.0
30
0
11
278380.0
21
144300.0
31
0
0
LINE
8
hvac
10
278500.0
20
144240.0
30
0
11
278500.0
21
144300.0
31
0
0
LINE
8
hvac
10
278540.0
20
144240.0
30
0
11
278540.0
21
144300.0
31
0
0
LINE
8
hvac
10
278500.0
20
144240.0
30
0
11
278540.0
21
144240.0
31
0
0
LINE
8
hvac
10
278500.0
20
144300.0
30
0
11
278540.0
21
144300.0
31
0
0
LINE
8
hvac
10
278660.0
20
144240.0
30
0
11
278660.0
21
144300.0
31
0
0
LINE
8
hvac
10
278700.0
20
144240.0
30
0
11
278700.0
21
144300.0
31
0
0
LINE
8
hvac
10
278660.0
20
144240.0
30
0
11
278700.0
21
144240.0
31
0
0
LINE
8
hvac
10
278660.0
20
144300.0
30
0
11
278700.0
21
144300.0
31
0
0
LINE
8
hvac
10
278820.0
20
144240.0
30
0
11
278820.0
21
144300.0
31
0
0
LINE
8
hvac
10
278860.0
20
144240.0
30
0
11
278860.0
21
144300.0
31
0
0
LINE
8
hvac
10
278820.0
20
144240.0
30
0
11
278860.0
21
144240.0
31
0
0
LINE
8
hvac
10
278820.0
20
144300.0
30
0
11
278860.0
21
144300.0
31
0
0
LINE
8
hvac
10
277975.0
20
144475.0
30
0
11
277975.0
21
144925.0
31
0
0
LINE
8
hvac
10
278425.0
20
144475.0
30
0
11
278425.0
21
144925.0
31
0
0
LINE
8
hvac
10
277975.0
20
144475.0
30
0
11
278425.0
21
144475.0
31
0
0
LINE
8
hvac
10
277975.0
20
144925.0
30
0
11
278425.0
21
144925.0
31
0
0
LINE
8
hvac
10
278250.0
20
146325.0
30
0
11
278250.0
21
146675.0
31
0
0
LINE
8
hvac
10
284550.0
20
146325.0
30
0
11
284550.0
21
146675.0
31
0
0
LINE
8
hvac
10
278250.0
20
146325.0
30
0
11
284550.0
21
146325.0
31
0
0
LINE
8
hvac
10
278250.0
20
146675.0
30
0
11
284550.0
21
146675.0
31
0
0
LINE
8
hvac
10
278025.0
20
144525.0
30
0
11
278025.0
21
144875.0
31
0
0
LINE
8
hvac
10
281575.0
20
144525.0
30
0
11
281575.0
21
144875.0
31
0
0
LINE
8
hvac
10
278025.0
20
144525.0
30
0
11
281575.0
21
144525.0
31
0
0
LINE
8
hvac
10
278025.0
20
144875.0
30
0
11
281575.0
21
144875.0
31
0
0
LINE
8
hvac
10
281225.0
20
144525.0
30
0
11
281225.0
21
146675.0
31
0
0
LINE
8
hvac
10
281575.0
20
144525.0
30
0
11
281575.0
21
146675.0
31
0
0
LINE
8
hvac
10
281225.0
20
144525.0
30
0
11
281575.0
21
144525.0
31
0
0
LINE
8
hvac
10
281225.0
20
146675.0
30
0
11
281575.0
21
146675.0
31
0
0
LINE
8
hvac
10
279250.0
20
146150.0
30
0
11
279250.0
21
146850.0
31
0
0
LINE
8
hvac
10
279950.0
20
146150.0
30
0
11
279950.0
21
146850.0
31
0
0
LINE
8
hvac
10
279250.0
20
146150.0
30
0
11
279950.0
21
146150.0
31
0
0
LINE
8
hvac
10
279250.0
20
146850.0
30
0
11
279950.0
21
146850.0
31
0
0
LINE
8
hvac
10
282850.0
20
146150.0
30
0
11
282850.0
21
146850.0
31
0
0
LINE
8
hvac
10
283550.0
20
146150.0
30
0
11
283550.0
21
146850.0
31
0
0
LINE
8
hvac
10
282850.0
20
146150.0
30
0
11
283550.0
21
146150.0
31
0
0
LINE
8
hvac
10
282850.0
20
146850.0
30
0
11
283550.0
21
146850.0
31
0
0
LINE
8
water
10
284390.0
20
147050.0
30
0
11
284390.0
21
147690.0
31
0
0
LINE
8
water
10
285310.0
20
147050.0
30
0
11
285310.0
21
147690.0
31
0
0
LINE
8
water
10
284390.0
20
147050.0
30
0
11
285310.0
21
147050.0
31
0
0
LINE
8
water
10
284390.0
20
147690.0
30
0
11
285310.0
21
147690.0
31
0
0
LINE
8
water
10
284400.0
20
147060.0
30
0
11
284400.0
21
147680.0
31
0
0
LINE
8
water
10
284400.0
20
147060.0
30
0
11
285300.0
21
147060.0
31
0
0
LINE
8
water
10
284400.0
20
147680.0
30
0
11
285300.0
21
147680.0
31
0
0
LINE
8
water
10
285300.0
20
147060.0
30
0
11
285300.0
21
147680.0
31
0
0
LINE
8
water
10
285175.0
20
147155.0
30
0
11
284525.0
21
147155.0
31
0
0
LINE
8
water
10
285175.0
20
147155.0
30
0
11
285175.0
21
147585.0
31
0
0
LINE
8
water
10
285175.0
20
147585.0
30
0
11
284525.0
21
147585.0
31
0
0
LINE
8
water
10
284525.0
20
147155.0
30
0
11
284525.0
21
147585.0
31
0
0
LINE
8
water
10
284868.0
20
147590.0
30
0
11
284841.0
21
147605.59
31
0
0
LINE
8
water
10
284841.0
20
147605.59
30
0
11
284841.0
21
147574.41
31
0
0
LINE
8
water
10
284841.0
20
147574.41
30
0
11
284868.0
21
147590.0
31
0
0
LINE
8
water
10
284850.0
20
147370.0
30
0
11
284865.59
21
147370.0
31
0
0
LINE
8
water
10
284865.59
20
147370.0
30
0
11
284834.41
21
147370.0
31
0
0
LINE
8
water
10
284834.41
20
147370.0
30
0
11
284850.0
21
147370.0
31
0
0
LINE
8
water
10
284850.0
20
147590.0
30
0
11
284850.0
21
147370.0
31
0
0
LINE
8
water
10
284850.0
20
147590.0
30
0
11
284865.59
21
147590.0
31
0
0
LINE
8
water
10
284865.59
20
147590.0
30
0
11
284834.41
21
147590.0
31
0
0
LINE
8
water
10
284834.41
20
147590.0
30
0
11
284850.0
21
147590.0
31
0
0
LINE
8
water
10
284850.0
20
147590.0
30
0
11
284869.44
21
147590.0
31
0
0
LINE
8
water
10
284869.44
20
147590.0
30
0
11
284850.0
21
147590.0
31
0
0
LINE
8
water
10
284795.0
20
147370.0
30
0
11
284850.0
21
147425.0
31
0
0
LINE
8
water
10
284850.0
20
147425.0
30
0
11
284905.0
21
147370.0
31
0
0
LINE
8
water
10
284905.0
20
147370.0
30
0
11
284850.0
21
147315.0
31
0
0
LINE
8
water
10
284850.0
20
147315.0
30
0
11
284795.0
21
147370.0
31
0
0
LINE
8
water
10
284850.0
20
146170.0
30
0
11
284905.0
21
146170.0
31
0
0
LINE
8
water
10
284905.0
20
146170.0
30
0
11
284850.0
21
146170.0
31
0
0
LINE
8
water
10
284850.0
20
146170.0
30
0
11
284795.0
21
146170.0
31
0
0
LINE
8
water
10
284795.0
20
146170.0
30
0
11
284850.0
21
146170.0
31
0
0
LINE
8
water
10
284850.0
20
147370.0
30
0
11
284850.0
21
146170.0
31
0
0
LINE
8
water
10
284850.0
20
147370.0
30
0
11
284905.0
21
147370.0
31
0
0
LINE
8
water
10
284905.0
20
147370.0
30
0
11
284850.0
21
147370.0
31
0
0
LINE
8
water
10
284850.0
20
147370.0
30
0
11
284795.0
21
147370.0
31
0
0
LINE
8
water
10
284795.0
20
147370.0
30
0
11
284850.0
21
147370.0
31
0
0
LINE
8
water
10
284795.0
20
146170.0
30
0
11
284850.0
21
146225.0
31
0
0
LINE
8
water
10
284850.0
20
146225.0
30
0
11
284905.0
21
146170.0
31
0
0
LINE
8
water
10
284905.0
20
146170.0
30
0
11
284850.0
21
146115.0
31
0
0
LINE
8
water
10
284850.0
20
146115.0
30
0
11
284795.0
21
146170.0
31
0
0
LINE
8
water
10
284850.0
20
126500.0
30
0
11
284905.0
21
126500.0
31
0
0
LINE
8
water
10
284905.0
20
126500.0
30
0
11
284850.0
21
126500.0
31
0
0
LINE
8
water
10
284850.0
20
126500.0
30
0
11
284795.0
21
126500.0
31
0
0
LINE
8
water
10
284795.0
20
126500.0
30
0
11
284850.0
21
126500.0
31
0
0
LINE
8
water
10
284850.0
20
146170.0
30
0
11
284850.0
21
126500.0
31
0
0
LINE
8
water
10
234500.0
20
126500.0
30
0
11
234500.0
21
126445.0
31
0
0
LINE
8
water
10
234500.0
20
126445.0
30
0
11
234500.0
21
126500.0
31
0
0
LINE
8
water
10
234500.0
20
126500.0
30
0
11
234500.0
21
126555.0
31
0
0
LINE
8
water
10
234500.0
20
126555.0
30
0
11
234500.0
21
126500.0
31
0
0
LINE
8
water
10
284850.0
20
126500.0
30
0
11
234500.0
21
126500.0
31
0
0
LINE
8
water
10
284850.0
20
126500.0
30
0
11
284850.0
21
126445.0
31
0
0
LINE
8
water
10
284850.0
20
126445.0
30
0
11
284850.0
21
126500.0
31
0
0
LINE
8
water
10
284850.0
20
126500.0
30
0
11
284850.0
21
126555.0
31
0
0
LINE
8
water
10
284850.0
20
126555.0
30
0
11
284850.0
21
126500.0
31
0
0
LINE
8
water
10
284850.0
20
147370.0
30
0
11
284909.4
21
147370.0
31
0
0
LINE
8
water
10
284909.4
20
147370.0
30
0
11
284850.0
21
147370.0
31
0
0
LINE
8
water
10
284850.0
20
146170.0
30
0
11
284909.4
21
146170.0
31
0
0
LINE
8
water
10
284909.4
20
146170.0
30
0
11
284850.0
21
146170.0
31
0
0
LINE
8
water
10
284850.0
20
126500.0
30
0
11
284909.4
21
126500.0
31
0
0
LINE
8
water
10
284909.4
20
126500.0
30
0
11
284850.0
21
126500.0
31
0
0
LINE
8
water
10
284425.0
20
145845.0
30
0
11
284425.0
21
146495.0
31
0
0
LINE
8
water
10
285275.0
20
145845.0
30
0
11
285275.0
21
146495.0
31
0
0
LINE
8
water
10
284425.0
20
145845.0
30
0
11
285275.0
21
145845.0
31
0
0
LINE
8
water
10
284425.0
20
146495.0
30
0
11
285275.0
21
146495.0
31
0
0
LINE
8
water
10
285070.0
20
146170.0
30
0
11
284987.17
21
146342.0
31
0
0
LINE
8
water
10
284987.17
20
146342.0
30
0
11
284801.05
21
146384.48
31
0
0
LINE
8
water
10
284801.05
20
146384.48
30
0
11
284651.79
21
146265.45
31
0
0
LINE
8
water
10
284651.79
20
146265.45
30
0
11
284651.79
21
146074.55
31
0
0
LINE
8
water
10
284651.79
20
146074.55
30
0
11
284801.05
21
145955.52
31
0
0
LINE
8
water
10
284801.05
20
145955.52
30
0
11
284987.17
21
145998.0
31
0
0
LINE
8
water
10
284987.17
20
145998.0
30
0
11
285070.0
21
146170.0
31
0
0
LINE
8
water
10
283405.0
20
144000.0
30
0
11
283405.0
21
143925.0
31
0
0
LINE
8
water
10
283405.0
20
143925.0
30
0
11
283405.0
21
144000.0
31
0
0
LINE
8
water
10
283405.0
20
144000.0
30
0
11
283405.0
21
144075.0
31
0
0
LINE
8
water
10
283405.0
20
144075.0
30
0
11
283405.0
21
144000.0
31
0
0
LINE
8
water
10
283005.0
20
144000.0
30
0
11
283405.0
21
144000.0
31
0
0
LINE
8
water
10
283005.0
20
144000.0
30
0
11
283005.0
21
143925.0
31
0
0
LINE
8
water
10
283005.0
20
143925.0
30
0
11
283005.0
21
144000.0
31
0
0
LINE
8
water
10
283005.0
20
144000.0
30
0
11
283005.0
21
144075.0
31
0
0
LINE
8
water
10
283005.0
20
144075.0
30
0
11
283005.0
21
144000.0
31
0
0
LINE
8
water
10
283295.0
20
144000.0
30
0
11
283232.81
21
144085.6
31
0
0
LINE
8
water
10
283232.81
20
144085.6
30
0
11
283132.19
21
144052.9
31
0
0
LINE
8
water
10
283132.19
20
144052.9
30
0
11
283132.19
21
143947.1
31
0
0
LINE
8
water
10
283132.19
20
143947.1
30
0
11
283232.81
21
143914.4
31
0
0
LINE
8
water
10
283232.81
20
143914.4
30
0
11
283295.0
21
144000.0
31
0
0
LINE
8
water
10
283015.0
20
143975.0
30
0
11
283015.0
21
144025.0
31
0
0
LINE
8
water
10
283395.0
20
143975.0
30
0
11
283395.0
21
144025.0
31
0
0
LINE
8
water
10
283015.0
20
143975.0
30
0
11
283395.0
21
143975.0
31
0
0
LINE
8
water
10
283015.0
20
144025.0
30
0
11
283395.0
21
144025.0
31
0
0
LINE
8
water
10
283080.0
20
144000.0
30
0
11
283080.0
21
143895.38
31
0
0
LINE
8
water
10
283080.0
20
143895.38
30
0
11
283080.0
21
143935.34
31
0
0
LINE
8
water
10
283080.0
20
143935.34
30
0
11
283080.0
21
144064.66
31
0
0
LINE
8
water
10
283080.0
20
144064.66
30
0
11
283080.0
21
144104.62
31
0
0
LINE
8
water
10
283080.0
20
144104.62
30
0
11
283080.0
21
144000.0
31
0
0
LINE
8
water
10
283055.0
20
144000.0
30
0
11
283080.0
21
144000.0
31
0
0
LINE
8
water
10
283055.0
20
144000.0
30
0
11
283055.0
21
143895.38
31
0
0
LINE
8
water
10
283055.0
20
143895.38
30
0
11
283055.0
21
143935.34
31
0
0
LINE
8
water
10
283055.0
20
143935.34
30
0
11
283055.0
21
144064.66
31
0
0
LINE
8
water
10
283055.0
20
144064.66
30
0
11
283055.0
21
144104.62
31
0
0
LINE
8
water
10
283055.0
20
144104.62
30
0
11
283055.0
21
144000.0
31
0
0
LINE
8
water
10
283380.0
20
144000.0
30
0
11
283380.0
21
143895.38
31
0
0
LINE
8
water
10
283380.0
20
143895.38
30
0
11
283380.0
21
143935.34
31
0
0
LINE
8
water
10
283380.0
20
143935.34
30
0
11
283380.0
21
144064.66
31
0
0
LINE
8
water
10
283380.0
20
144064.66
30
0
11
283380.0
21
144104.62
31
0
0
LINE
8
water
10
283380.0
20
144104.62
30
0
11
283380.0
21
144000.0
31
0
0
LINE
8
water
10
283355.0
20
144000.0
30
0
11
283380.0
21
144000.0
31
0
0
LINE
8
water
10
283355.0
20
144000.0
30
0
11
283355.0
21
143895.38
31
0
0
LINE
8
water
10
283355.0
20
143895.38
30
0
11
283355.0
21
143935.34
31
0
0
LINE
8
water
10
283355.0
20
143935.34
30
0
11
283355.0
21
144064.66
31
0
0
LINE
8
water
10
283355.0
20
144064.66
30
0
11
283355.0
21
144104.62
31
0
0
LINE
8
water
10
283355.0
20
144104.62
30
0
11
283355.0
21
144000.0
31
0
0
LINE
8
water
10
282500.0
20
144000.0
30
0
11
282530.31
21
144000.0
31
0
0
LINE
8
water
10
282530.31
20
144000.0
30
0
11
282469.69
21
144000.0
31
0
0
LINE
8
water
10
282469.69
20
144000.0
30
0
11
282500.0
21
144000.0
31
0
0
LINE
8
water
10
282500.0
20
124000.0
30
0
11
282500.0
21
144000.0
31
0
0
LINE
8
water
10
282500.0
20
124000.0
30
0
11
282530.31
21
124000.0
31
0
0
LINE
8
water
10
282530.31
20
124000.0
30
0
11
282469.69
21
124000.0
31
0
0
LINE
8
water
10
282469.69
20
124000.0
30
0
11
282500.0
21
124000.0
31
0
0
LINE
8
water
10
284850.0
20
144000.0
30
0
11
284850.0
21
143969.69
31
0
0
LINE
8
water
10
284850.0
20
143969.69
30
0
11
284850.0
21
144030.31
31
0
0
LINE
8
water
10
284850.0
20
144030.31
30
0
11
284850.0
21
144000.0
31
0
0
LINE
8
water
10
282500.0
20
144000.0
30
0
11
284850.0
21
144000.0
31
0
0
LINE
8
water
10
282500.0
20
144000.0
30
0
11
282500.0
21
143969.69
31
0
0
LINE
8
water
10
282500.0
20
143969.69
30
0
11
282500.0
21
144030.31
31
0
0
LINE
8
water
10
282500.0
20
144030.31
30
0
11
282500.0
21
144000.0
31
0
0
LINE
8
water
10
284850.0
20
147600.0
30
0
11
284880.31
21
147600.0
31
0
0
LINE
8
water
10
284880.31
20
147600.0
30
0
11
284819.69
21
147600.0
31
0
0
LINE
8
water
10
284819.69
20
147600.0
30
0
11
284850.0
21
147600.0
31
0
0
LINE
8
water
10
284850.0
20
144000.0
30
0
11
284850.0
21
147600.0
31
0
0
LINE
8
water
10
284850.0
20
144000.0
30
0
11
284880.31
21
144000.0
31
0
0
LINE
8
water
10
284880.31
20
144000.0
30
0
11
284819.69
21
144000.0
31
0
0
LINE
8
water
10
284819.69
20
144000.0
30
0
11
284850.0
21
144000.0
31
0
0
LINE
8
water
10
284815.0
20
147600.0
30
0
11
284867.5
21
147630.31
31
0
0
LINE
8
water
10
284867.5
20
147630.31
30
0
11
284867.5
21
147569.69
31
0
0
LINE
8
water
10
284867.5
20
147569.69
30
0
11
284815.0
21
147600.0
31
0
0
LINE
8
water
10
282500.0
20
144000.0
30
0
11
282537.8
21
144000.0
31
0
0
LINE
8
water
10
282537.8
20
144000.0
30
0
11
282500.0
21
144000.0
31
0
0
LINE
8
water
10
284850.0
20
144000.0
30
0
11
284887.8
21
144000.0
31
0
0
LINE
8
water
10
284887.8
20
144000.0
30
0
11
284850.0
21
144000.0
31
0
0
LINE
8
water
10
284850.0
20
147600.0
30
0
11
284887.8
21
147600.0
31
0
0
LINE
8
water
10
284887.8
20
147600.0
30
0
11
284850.0
21
147600.0
31
0
0
LINE
8
water
10
283614.0
20
144000.0
30
0
11
283614.0
21
143925.0
31
0
0
LINE
8
water
10
283614.0
20
143925.0
30
0
11
283614.0
21
144000.0
31
0
0
LINE
8
water
10
283614.0
20
144000.0
30
0
11
283614.0
21
144075.0
31
0
0
LINE
8
water
10
283614.0
20
144075.0
30
0
11
283614.0
21
144000.0
31
0
0
LINE
8
water
10
283214.0
20
144000.0
30
0
11
283614.0
21
144000.0
31
0
0
LINE
8
water
10
283214.0
20
144000.0
30
0
11
283214.0
21
143925.0
31
0
0
LINE
8
water
10
283214.0
20
143925.0
30
0
11
283214.0
21
144000.0
31
0
0
LINE
8
water
10
283214.0
20
144000.0
30
0
11
283214.0
21
144075.0
31
0
0
LINE
8
water
10
283214.0
20
144075.0
30
0
11
283214.0
21
144000.0
31
0
0
LINE
8
water
10
283504.0
20
144000.0
30
0
11
283441.81
21
144085.6
31
0
0
LINE
8
water
10
283441.81
20
144085.6
30
0
11
283341.19
21
144052.9
31
0
0
LINE
8
water
10
283341.19
20
144052.9
30
0
11
283341.19
21
143947.1
31
0
0
LINE
8
water
10
283341.19
20
143947.1
30
0
11
283441.81
21
143914.4
31
0
0
LINE
8
water
10
283441.81
20
143914.4
30
0
11
283504.0
21
144000.0
31
0
0
LINE
8
water
10
283224.0
20
143975.0
30
0
11
283224.0
21
144025.0
31
0
0
LINE
8
water
10
283604.0
20
143975.0
30
0
11
283604.0
21
144025.0
31
0
0
LINE
8
water
10
283224.0
20
143975.0
30
0
11
283604.0
21
143975.0
31
0
0
LINE
8
water
10
283224.0
20
144025.0
30
0
11
283604.0
21
144025.0
31
0
0
LINE
8
water
10
283289.0
20
144000.0
30
0
11
283289.0
21
143895.38
31
0
0
LINE
8
water
10
283289.0
20
143895.38
30
0
11
283289.0
21
143935.34
31
0
0
LINE
8
water
10
283289.0
20
143935.34
30
0
11
283289.0
21
144064.66
31
0
0
LINE
8
water
10
283289.0
20
144064.66
30
0
11
283289.0
21
144104.62
31
0
0
LINE
8
water
10
283289.0
20
144104.62
30
0
11
283289.0
21
144000.0
31
0
0
LINE
8
water
10
283264.0
20
144000.0
30
0
11
283289.0
21
144000.0
31
0
0
LINE
8
water
10
283264.0
20
144000.0
30
0
11
283264.0
21
143895.38
31
0
0
LINE
8
water
10
283264.0
20
143895.38
30
0
11
283264.0
21
143935.34
31
0
0
LINE
8
water
10
283264.0
20
143935.34
30
0
11
283264.0
21
144064.66
31
0
0
LINE
8
water
10
283264.0
20
144064.66
30
0
11
283264.0
21
144104.62
31
0
0
LINE
8
water
10
283264.0
20
144104.62
30
0
11
283264.0
21
144000.0
31
0
0
LINE
8
water
10
283589.0
20
144000.0
30
0
11
283589.0
21
143895.38
31
0
0
LINE
8
water
10
283589.0
20
143895.38
30
0
11
283589.0
21
143935.34
31
0
0
LINE
8
water
10
283589.0
20
143935.34
30
0
11
283589.0
21
144064.66
31
0
0
LINE
8
water
10
283589.0
20
144064.66
30
0
11
283589.0
21
144104.62
31
0
0
LINE
8
water
10
283589.0
20
144104.62
30
0
11
283589.0
21
144000.0
31
0
0
LINE
8
water
10
283564.0
20
144000.0
30
0
11
283589.0
21
144000.0
31
0
0
LINE
8
water
10
283564.0
20
144000.0
30
0
11
283564.0
21
143895.38
31
0
0
LINE
8
water
10
283564.0
20
143895.38
30
0
11
283564.0
21
143935.34
31
0
0
LINE
8
water
10
283564.0
20
143935.34
30
0
11
283564.0
21
144064.66
31
0
0
LINE
8
water
10
283564.0
20
144064.66
30
0
11
283564.0
21
144104.62
31
0
0
LINE
8
water
10
283564.0
20
144104.62
30
0
11
283564.0
21
144000.0
31
0
0
LINE
8
water
10
282850.0
20
144000.0
30
0
11
282880.31
21
144000.0
31
0
0
LINE
8
water
10
282880.31
20
144000.0
30
0
11
282819.69
21
144000.0
31
0
0
LINE
8
water
10
282819.69
20
144000.0
30
0
11
282850.0
21
144000.0
31
0
0
LINE
8
water
10
282850.0
20
125000.0
30
0
11
282850.0
21
144000.0
31
0
0
LINE
8
water
10
282850.0
20
125000.0
30
0
11
282880.31
21
125000.0
31
0
0
LINE
8
water
10
282880.31
20
125000.0
30
0
11
282819.69
21
125000.0
31
0
0
LINE
8
water
10
282819.69
20
125000.0
30
0
11
282850.0
21
125000.0
31
0
0
LINE
8
water
10
284730.0
20
144000.0
30
0
11
284730.0
21
143969.69
31
0
0
LINE
8
water
10
284730.0
20
143969.69
30
0
11
284730.0
21
144030.31
31
0
0
LINE
8
water
10
284730.0
20
144030.31
30
0
11
284730.0
21
144000.0
31
0
0
LINE
8
water
10
282850.0
20
144000.0
30
0
11
284730.0
21
144000.0
31
0
0
LINE
8
water
10
282850.0
20
144000.0
30
0
11
282850.0
21
143969.69
31
0
0
LINE
8
water
10
282850.0
20
143969.69
30
0
11
282850.0
21
144030.31
31
0
0
LINE
8
water
10
282850.0
20
144030.31
30
0
11
282850.0
21
144000.0
31
0
0
LINE
8
water
10
284730.0
20
147600.0
30
0
11
284760.31
21
147600.0
31
0
0
LINE
8
water
10
284760.31
20
147600.0
30
0
11
284699.69
21
147600.0
31
0
0
LINE
8
water
10
284699.69
20
147600.0
30
0
11
284730.0
21
147600.0
31
0
0
LINE
8
water
10
284730.0
20
144000.0
30
0
11
284730.0
21
147600.0
31
0
0
LINE
8
water
10
284730.0
20
144000.0
30
0
11
284760.31
21
144000.0
31
0
0
LINE
8
water
10
284760.31
20
144000.0
30
0
11
284699.69
21
144000.0
31
0
0
LINE
8
water
10
284699.69
20
144000.0
30
0
11
284730.0
21
144000.0
31
0
0
LINE
8
water
10
284695.0
20
147600.0
30
0
11
284747.5
21
147630.31
31
0
0
LINE
8
water
10
284747.5
20
147630.31
30
0
11
284747.5
21
147569.69
31
0
0
LINE
8
water
10
284747.5
20
147569.69
30
0
11
284695.0
21
147600.0
31
0
0
LINE
8
water
10
282850.0
20
144000.0
30
0
11
282887.8
21
144000.0
31
0
0
LINE
8
water
10
282887.8
20
144000.0
30
0
11
282850.0
21
144000.0
31
0
0
LINE
8
water
10
284730.0
20
144000.0
30
0
11
284767.8
21
144000.0
31
0
0
LINE
8
water
10
284767.8
20
144000.0
30
0
11
284730.0
21
144000.0
31
0
0
LINE
8
water
10
284730.0
20
147600.0
30
0
11
284767.8
21
147600.0
31
0
0
LINE
8
water
10
284767.8
20
147600.0
30
0
11
284730.0
21
147600.0
31
0
0
LINE
8
sensors
10
276940.0
20
144796.0
30
0
11
276940.0
21
144956.0
31
0
0
LINE
8
sensors
10
277040.0
20
144796.0
30
0
11
277040.0
21
144956.0
31
0
0
LINE
8
sensors
10
276940.0
20
144796.0
30
0
11
277040.0
21
144796.0
31
0
0
LINE
8
sensors
10
276940.0
20
144956.0
30
0
11
277040.0
21
144956.0
31
0
0
LINE
8
sensors
10
277045.0
20
144821.0
30
0
11
277045.0
21
144931.0
31
0
0
LINE
8
sensors
10
277065.0
20
144821.0
30
0
11
277065.0
21
144931.0
31
0
0
LINE
8
sensors
10
277045.0
20
144821.0
30
0
11
277065.0
21
144821.0
31
0
0
LINE
8
sensors
10
277045.0
20
144931.0
30
0
11
277065.0
21
144931.0
31
0
0
LINE
8
sensors
10
276940.0
20
145096.0
30
0
11
276940.0
21
145256.0
31
0
0
LINE
8
sensors
10
277040.0
20
145096.0
30
0
11
277040.0
21
145256.0
31
0
0
LINE
8
sensors
10
276940.0
20
145096.0
30
0
11
277040.0
21
145096.0
31
0
0
LINE
8
sensors
10
276940.0
20
145256.0
30
0
11
277040.0
21
145256.0
31
0
0
LINE
8
sensors
10
277045.0
20
145121.0
30
0
11
277045.0
21
145231.0
31
0
0
LINE
8
sensors
10
277065.0
20
145121.0
30
0
11
277065.0
21
145231.0
31
0
0
LINE
8
sensors
10
277045.0
20
145121.0
30
0
11
277065.0
21
145121.0
31
0
0
LINE
8
sensors
10
277045.0
20
145231.0
30
0
11
277065.0
21
145231.0
31
0
0
LINE
8
sensors
10
276940.0
20
145396.0
30
0
11
276940.0
21
145556.0
31
0
0
LINE
8
sensors
10
277040.0
20
145396.0
30
0
11
277040.0
21
145556.0
31
0
0
LINE
8
sensors
10
276940.0
20
145396.0
30
0
11
277040.0
21
145396.0
31
0
0
LINE
8
sensors
10
276940.0
20
145556.0
30
0
11
277040.0
21
145556.0
31
0
0
LINE
8
sensors
10
277045.0
20
145421.0
30
0
11
277045.0
21
145531.0
31
0
0
LINE
8
sensors
10
277065.0
20
145421.0
30
0
11
277065.0
21
145531.0
31
0
0
LINE
8
sensors
10
277045.0
20
145421.0
30
0
11
277065.0
21
145421.0
31
0
0
LINE
8
sensors
10
277045.0
20
145531.0
30
0
11
277065.0
21
145531.0
31
0
0
LINE
8
sensors
10
281480.0
20
146500.0
30
0
11
281400.0
21
146580.0
31
0
0
LINE
8
sensors
10
281400.0
20
146580.0
30
0
11
281320.0
21
146500.0
31
0
0
LINE
8
sensors
10
281320.0
20
146500.0
30
0
11
281400.0
21
146420.0
31
0
0
LINE
8
sensors
10
281400.0
20
146420.0
30
0
11
281480.0
21
146500.0
31
0
0
LINE
8
sensors
10
281400.0
20
146500.0
30
0
11
281465.0
21
146500.0
31
0
0
LINE
8
sensors
10
281465.0
20
146500.0
30
0
11
281400.0
21
146500.0
31
0
0
LINE
8
sensors
10
276940.0
20
145996.0
30
0
11
276940.0
21
146156.0
31
0
0
LINE
8
sensors
10
277040.0
20
145996.0
30
0
11
277040.0
21
146156.0
31
0
0
LINE
8
sensors
10
276940.0
20
145996.0
30
0
11
277040.0
21
145996.0
31
0
0
LINE
8
sensors
10
276940.0
20
146156.0
30
0
11
277040.0
21
146156.0
31
0
0
LINE
8
sensors
10
277045.0
20
146021.0
30
0
11
277045.0
21
146131.0
31
0
0
LINE
8
sensors
10
277065.0
20
146021.0
30
0
11
277065.0
21
146131.0
31
0
0
LINE
8
sensors
10
277045.0
20
146021.0
30
0
11
277065.0
21
146021.0
31
0
0
LINE
8
sensors
10
277045.0
20
146131.0
30
0
11
277065.0
21
146131.0
31
0
0
LINE
8
sensors
10
284137.5
20
144000.0
30
0
11
284137.5
21
143925.0
31
0
0
LINE
8
sensors
10
284137.5
20
143925.0
30
0
11
284137.5
21
144000.0
31
0
0
LINE
8
sensors
10
284137.5
20
144000.0
30
0
11
284137.5
21
144075.0
31
0
0
LINE
8
sensors
10
284137.5
20
144075.0
30
0
11
284137.5
21
144000.0
31
0
0
LINE
8
sensors
10
283917.5
20
144000.0
30
0
11
284137.5
21
144000.0
31
0
0
LINE
8
sensors
10
283917.5
20
144000.0
30
0
11
283917.5
21
143925.0
31
0
0
LINE
8
sensors
10
283917.5
20
143925.0
30
0
11
283917.5
21
144000.0
31
0
0
LINE
8
sensors
10
283917.5
20
144000.0
30
0
11
283917.5
21
144075.0
31
0
0
LINE
8
sensors
10
283917.5
20
144075.0
30
0
11
283917.5
21
144000.0
31
0
0
LINE
8
sensors
10
283947.5
20
143930.0
30
0
11
283947.5
21
144070.0
31
0
0
LINE
8
sensors
10
284107.5
20
143930.0
30
0
11
284107.5
21
144070.0
31
0
0
LINE
8
sensors
10
283947.5
20
143930.0
30
0
11
284107.5
21
143930.0
31
0
0
LINE
8
sensors
10
283947.5
20
144070.0
30
0
11
284107.5
21
144070.0
31
0
0
LINE
8
sensors
10
284182.0
20
144000.0
30
0
11
284182.0
21
143925.0
31
0
0
LINE
8
sensors
10
284182.0
20
143925.0
30
0
11
284182.0
21
144000.0
31
0
0
LINE
8
sensors
10
284182.0
20
144000.0
30
0
11
284182.0
21
144075.0
31
0
0
LINE
8
sensors
10
284182.0
20
144075.0
30
0
11
284182.0
21
144000.0
31
0
0
LINE
8
sensors
10
283962.0
20
144000.0
30
0
11
284182.0
21
144000.0
31
0
0
LINE
8
sensors
10
283962.0
20
144000.0
30
0
11
283962.0
21
143925.0
31
0
0
LINE
8
sensors
10
283962.0
20
143925.0
30
0
11
283962.0
21
144000.0
31
0
0
LINE
8
sensors
10
283962.0
20
144000.0
30
0
11
283962.0
21
144075.0
31
0
0
LINE
8
sensors
10
283962.0
20
144075.0
30
0
11
283962.0
21
144000.0
31
0
0
LINE
8
sensors
10
283992.0
20
143930.0
30
0
11
283992.0
21
144070.0
31
0
0
LINE
8
sensors
10
284152.0
20
143930.0
30
0
11
284152.0
21
144070.0
31
0
0
LINE
8
sensors
10
283992.0
20
143930.0
30
0
11
284152.0
21
143930.0
31
0
0
LINE
8
sensors
10
283992.0
20
144070.0
30
0
11
284152.0
21
144070.0
31
0
0
ENDSEC
0
EOF
