0
SECTION
2
HEADER
9
$ACADVER
1
AC1015
9
$INSUNITS
70
4
0
ENDSEC
0
SECTION
2
ENTITIES
0
LINE
8
interiors
10
-239100.0
20
143600.0
30
0
11
-239100.0
21
149400.0
31
0
0
LINE
8
interiors
10
-239100.0
20
143600.0
30
0
11
-235800.0
21
143600.0
31
0
0
LINE
8
interiors
10
-235800.0
20
143600.0
30
0
11
-233400.0
21
143600.0
31
0
0
LINE
8
interiors
10
-233400.0
20
143600.0
30
0
11
-230100.0
21
143600.0
31
0
0
LINE
8
interiors
10
-239100.0
20
143600.0
30
0
11
-230100.0
21
143600.0
31
0
0
LINE
8
interiors
10
-239100.0
20
149400.0
30
0
11
-230100.0
21
149400.0
31
0
0
LINE
8
interiors
10
-230100.0
20
143600.0
30
0
11
-230100.0
21
149400.0
31
0
0
LINE
8
interiors
10
-230220.0
20
143720.0
30
0
11
-238980.0
21
143720.0
31
0
0
LINE
8
interiors
10
-230220.0
20
143720.0
30
0
11
-230220.0
21
149280.0
31
0
0
LINE
8
interiors
10
-230220.0
20
149280.0
30
0
11
-238980.0
21
149280.0
31
0
0
LINE
8
interiors
10
-238980.0
20
143720.0
30
0
11
-238980.0
21
149280.0
31
0
0
LINE
8
interiors
10
-236940.0
20
149400.0
30
0
11
-232260.0
21
149400.0
31
0
0
LINE
8
interiors
10
-233400.0
20
143600.0
30
0
11
-233400.0
21
143720.0
31
0
0
LINE
8
interiors
10
-230220.0
20
143720.0
30
0
11
-233400.0
21
143720.0
31
0
0
LINE
8
interiors
10
-235800.0
20
143720.0
30
0
11
-238980.0
21
143720.0
31
0
0
LINE
8
interiors
10
-235800.0
20
143600.0
30
0
11
-235800.0
21
143720.0
31
0
0
LINE
8
interiors
10
-235800.0
20
143720.0
30
0
11
-233400.0
21
143720.0
31
0
0
LINE
8
interiors
10
-236940.0
20
149280.0
30
0
11
-232260.0
21
149280.0
31
0
0
LINE
8
interiors
10
-236940.0
20
149280.0
30
0
11
-236940.0
21
149400.0
31
0
0
LINE
8
interiors
10
-232260.0
20
149280.0
30
0
11
-232260.0
21
149400.0
31
0
0
LINE
8
interiors
10
-236940.0
20
149377.5
30
0
11
-236940.0
21
149422.5
31
0
0
LINE
8
interiors
10
-232260.0
20
149377.5
30
0
11
-232260.0
21
149422.5
31
0
0
LINE
8
interiors
10
-236940.0
20
149377.5
30
0
11
-232260.0
21
149377.5
31
0
0
LINE
8
interiors
10
-236940.0
20
149422.5
30
0
11
-232260.0
21
149422.5
31
0
0
LINE
8
interiors
10
-238975.0
20
143725.0
30
0
11
-238975.0
21
149275.0
31
0
0
LINE
8
interiors
10
-230225.0
20
143725.0
30
0
11
-230225.0
21
149275.0
31
0
0
LINE
8
interiors
10
-238975.0
20
143725.0
30
0
11
-230225.0
21
143725.0
31
0
0
LINE
8
interiors
10
-238975.0
20
149275.0
30
0
11
-230225.0
21
149275.0
31
0
0
LINE
8
interiors
10
-235755.0
20
143480.0
30
0
11
-235755.0
21
143720.0
31
0
0
LINE
8
interiors
10
-235685.0
20
143480.0
30
0
11
-235685.0
21
143720.0
31
0
0
LINE
8
interiors
10
-235755.0
20
143480.0
30
0
11
-235685.0
21
143480.0
31
0
0
LINE
8
interiors
10
-235755.0
20
143720.0
30
0
11
-235685.0
21
143720.0
31
0
0
LINE
8
interiors
10
-233515.0
20
143480.0
30
0
11
-233515.0
21
143720.0
31
0
0
LINE
8
interiors
10
-233445.0
20
143480.0
30
0
11
-233445.0
21
143720.0
31
0
0
LINE
8
interiors
10
-233515.0
20
143480.0
30
0
11
-233445.0
21
143480.0
31
0
0
LINE
8
interiors
10
-233515.0
20
143720.0
30
0
11
-233445.0
21
143720.0
31
0
0
LINE
8
interiors
10
-235750.0
20
143480.0
30
0
11
-235750.0
21
143720.0
31
0
0
LINE
8
interiors
10
-233450.0
20
143480.0
30
0
11
-233450.0
21
143720.0
31
0
0
LINE
8
interiors
10
-235750.0
20
143480.0
30
0
11
-233450.0
21
143480.0
31
0
0
LINE
8
interiors
10
-235750.0
20
143720.0
30
0
11
-233450.0
21
143720.0
31
0
0
LINE
8
interiors
10
-235669.61
20
143690.49
30
0
11
-235710.39
21
143709.51
31
0
0
LINE
8
interiors
10
-235213.18
20
144669.3
30
0
11
-235253.96
21
144688.32
31
0
0
LINE
8
interiors
10
-235669.61
20
143690.49
30
0
11
-235213.18
21
144669.3
31
0
0
LINE
8
interiors
10
-235710.39
20
143709.51
30
0
11
-235253.96
21
144688.32
31
0
0
LINE
8
interiors
10
-237800.0
20
144956.0
30
0
11
-237800.0
21
145956.0
31
0
0
LINE
8
interiors
10
-235000.0
20
144956.0
30
0
11
-235000.0
21
145956.0
31
0
0
LINE
8
interiors
10
-237800.0
20
144956.0
30
0
11
-235000.0
21
144956.0
31
0
0
LINE
8
interiors
10
-237800.0
20
145956.0
30
0
11
-235000.0
21
145956.0
31
0
0
LINE
8
interiors
10
-237735.0
20
145021.0
30
0
11
-237735.0
21
145091.0
31
0
0
LINE
8
interiors
10
-237665.0
20
145021.0
30
0
11
-237665.0
21
145091.0
31
0
0
LINE
8
interiors
10
-237735.0
20
145021.0
30
0
11
-237665.0
21
145021.0
31
0
0
LINE
8
interiors
10
-237735.0
20
145091.0
30
0
11
-237665.0
21
145091.0
31
0
0
LINE
8
interiors
10
-237735.0
20
145821.0
30
0
11
-237735.0
21
145891.0
31
0
0
LINE
8
interiors
10
-237665.0
20
145821.0
30
0
11
-237665.0
21
145891.0
31
0
0
LINE
8
interiors
10
-237735.0
20
145821.0
30
0
11
-237665.0
21
145821.0
31
0
0
LINE
8
interiors
10
-237735.0
20
145891.0
30
0
11
-237665.0
21
145891.0
31
0
0
LINE
8
interiors
10
-235135.0
20
145021.0
30
0
11
-235135.0
21
145091.0
31
0
0
LINE
8
interiors
10
-235065.0
20
145021.0
30
0
11
-235065.0
21
145091.0
31
0
0
LINE
8
interiors
10
-235135.0
20
145021.0
30
0
11
-235065.0
21
145021.0
31
0
0
LINE
8
interiors
10
-235135.0
20
145091.0
30
0
11
-235065.0
21
145091.0
31
0
0
LINE
8
interiors
10
-235135.0
20
145821.0
30
0
11
-235135.0
21
145891.0
31
0
0
LINE
8
interiors
10
-235065.0
20
145821.0
30
0
11
-235065.0
21
145891.0
31
0
0
LINE
8
interiors
10
-235135.0
20
145821.0
30
0
11
-235065.0
21
145821.0
31
0
0
LINE
8
interiors
10
-235135.0
20
145891.0
30
0
11
-235065.0
21
145891.0
31
0
0
LINE
8
interiors
10
-237850.0
20
147600.0
30
0
11
-237850.0
21
148300.0
31
0
0
LINE
8
interiors
10
-235850.0
20
147600.0
30
0
11
-235850.0
21
148300.0
31
0
0
LINE
8
interiors
10
-237850.0
20
147600.0
30
0
11
-235850.0
21
147600.0
31
0
0
LINE
8
interiors
10
-237850.0
20
148300.0
30
0
11
-235850.0
21
148300.0
31
0
0
LINE
8
interiors
10
-237750.0
20
147577.5
30
0
11
-237750.0
21
147602.5
31
0
0
LINE
8
interiors
10
-235950.0
20
147577.5
30
0
11
-235950.0
21
147602.5
31
0
0
LINE
8
interiors
10
-237750.0
20
147577.5
30
0
11
-235950.0
21
147577.5
31
0
0
LINE
8
interiors
10
-237750.0
20
147602.5
30
0
11
-235950.0
21
147602.5
31
0
0
LINE
8
electrical
10
-230825.0
20
143675.0
30
0
11
-230825.0
21
143925.0
31
0
0
LINE
8
electrical
10
-230275.0
20
143675.0
30
0
11
-230275.0
21
143925.0
31
0
0
LINE
8
electrical
10
-230825.0
20
143675.0
30
0
11
-230275.0
21
143675.0
31
0
0
LINE
8
electrical
10
-230825.0
20
143925.0
30
0
11
-230275.0
21
143925.0
31
0
0
LINE
8
electrical
10
-230785.0
20
143647.5
30
0
11
-230785.0
21
143682.5
31
0
0
LINE
8
electrical
10
-230315.0
20
143647.5
30
0
11
-230315.0
21
143682.5
31
0
0
LINE
8
electrical
10
-230785.0
20
143647.5
30
0
11
-230315.0
21
143647.5
31
0
0
LINE
8
electrical
10
-230785.0
20
143682.5
30
0
11
-230315.0
21
143682.5
31
0
0
LINE
8
electrical
10
-230737.5
20
143610.0
30
0
11
-230737.5
21
143650.0
31
0
0
LINE
8
electrical
10
-230637.5
20
143610.0
30
0
11
-230637.5
21
143650.0
31
0
0
LINE
8
electrical
10
-230737.5
20
143610.0
30
0
11
-230637.5
21
143610.0
31
0
0
LINE
8
electrical
10
-230737.5
20
143650.0
30
0
11
-230637.5
21
143650.0
31
0
0
LINE
8
electrical
10
-230600.0
20
143610.0
30
0
11
-230600.0
21
143650.0
31
0
0
LINE
8
electrical
10
-230500.0
20
143610.0
30
0
11
-230500.0
21
143650.0
31
0
0
LINE
8
electrical
10
-230600.0
20
143610.0
30
0
11
-230500.0
21
143610.0
31
0
0
LINE
8
electrical
10
-230600.0
20
143650.0
30
0
11
-230500.0
21
143650.0
31
0
0
LINE
8
electrical
10
-230462.5
20
143610.0
30
0
11
-230462.5
21
143650.0
31
0
0
LINE
8
electrical
10
-230362.5
20
143610.0
30
0
11
-230362.5
21
143650.0
31
0
0
LINE
8
electrical
10
-230462.5
20
143610.0
30
0
11
-230362.5
21
143610.0
31
0
0
LINE
8
electrical
10
-230462.5
20
143650.0
30
0
11
-230362.5
21
143650.0
31
0
0
LINE
8
electrical
10
-230687.5
20
143595.0
30
0
11
-230664.12
21
143595.0
31
0
0
LINE
8
electrical
10
-230664.12
20
143595.0
30
0
11
-230710.88
21
143595.0
31
0
0
LINE
8
electrical
10
-230710.88
20
143595.0
30
0
11
-230687.5
21
143595.0
31
0
0
LINE
8
electrical
10
-230687.5
20
143620.0
30
0
11
-230687.5
21
143595.0
31
0
0
LINE
8
electrical
10
-230687.5
20
143620.0
30
0
11
-230664.12
21
143620.0
31
0
0
LINE
8
electrical
10
-230664.12
20
143620.0
30
0
11
-230710.88
21
143620.0
31
0
0
LINE
8
electrical
10
-230710.88
20
143620.0
30
0
11
-230687.5
21
143620.0
31
0
0
LINE
8
electrical
10
-230550.0
20
143595.0
30
0
11
-230526.62
21
143595.0
31
0
0
LINE
8
electrical
10
-230526.62
20
143595.0
30
0
11
-230573.38
21
143595.0
31
0
0
LINE
8
electrical
10
-230573.38
20
143595.0
30
0
11
-230550.0
21
143595.0
31
0
0
LINE
8
electrical
10
-230550.0
20
143620.0
30
0
11
-230550.0
21
143595.0
31
0
0
LINE
8
electrical
10
-230550.0
20
143620.0
30
0
11
-230526.62
21
143620.0
31
0
0
LINE
8
electrical
10
-230526.62
20
143620.0
30
0
11
-230573.38
21
143620.0
31
0
0
LINE
8
electrical
10
-230573.38
20
143620.0
30
0
11
-230550.0
21
143620.0
31
0
0
LINE
8
electrical
10
-230412.5
20
143595.0
30
0
11
-230389.12
21
143595.0
31
0
0
LINE
8
electrical
10
-230389.12
20
143595.0
30
0
11
-230435.88
21
143595.0
31
0
0
LINE
8
electrical
10
-230435.88
20
143595.0
30
0
11
-230412.5
21
143595.0
31
0
0
LINE
8
electrical
10
-230412.5
20
143620.0
30
0
11
-230412.5
21
143595.0
31
0
0
LINE
8
electrical
10
-230412.5
20
143620.0
30
0
11
-230389.12
21
143620.0
31
0
0
LINE
8
electrical
10
-230389.12
20
143620.0
30
0
11
-230435.88
21
143620.0
31
0
0
LINE
8
electrical
10
-230435.88
20
143620.0
30
0
11
-230412.5
21
143620.0
31
0
0
LINE
8
electrical
10
-230550.0
20
143800.0
30
0
11
-230534.41
21
143800.0
31
0
0
LINE
8
electrical
10
-230534.41
20
143800.0
30
0
11
-230565.59
21
143800.0
31
0
0
LINE
8
electrical
10
-230565.59
20
143800.0
30
0
11
-230550.0
21
143800.0
31
0
0
LINE
8
electrical
10
-230550.0
20
122200.0
30
0
11
-230550.0
21
143800.0
31
0
0
LINE
8
electrical
10
-230550.0
20
122200.0
30
0
11
-230534.41
21
122200.0
31
0
0
LINE
8
electrical
10
-230534.41
20
122200.0
30
0
11
-230565.59
21
122200.0
31
0
0
LINE
8
electrical
10
-230565.59
20
122200.0
30
0
11
-230550.0
21
122200.0
31
0
0
LINE
8
electrical
10
-230568.0
20
143800.0
30
0
11
-230541.0
21
143815.59
31
0
0
LINE
8
electrical
10
-230541.0
20
143815.59
30
0
11
-230541.0
21
143784.41
31
0
0
LINE
8
electrical
10
-230541.0
20
143784.41
30
0
11
-230568.0
21
143800.0
31
0
0
LINE
8
electrical
10
-230550.0
20
143800.0
30
0
11
-230530.56
21
143800.0
31
0
0
LINE
8
electrical
10
-230530.56
20
143800.0
30
0
11
-230550.0
21
143800.0
31
0
0
LINE
8
lighting
10
-238160.0
20
144208.0
30
0
11
-238160.0
21
144848.0
31
0
0
LINE
8
lighting
10
-237520.0
20
144208.0
30
0
11
-237520.0
21
144848.0
31
0
0
LINE
8
lighting
10
-238160.0
20
144208.0
30
0
11
-237520.0
21
144208.0
31
0
0
LINE
8
lighting
10
-238160.0
20
144848.0
30
0
11
-237520.0
21
144848.0
31
0
0
LINE
8
lighting
10
-238120.0
20
144248.0
30
0
11
-238120.0
21
144808.0
31
0
0
LINE
8
lighting
10
-237560.0
20
144248.0
30
0
11
-237560.0
21
144808.0
31
0
0
LINE
8
lighting
10
-238120.0
20
144248.0
30
0
11
-237560.0
21
144248.0
31
0
0
LINE
8
lighting
10
-238120.0
20
144808.0
30
0
11
-237560.0
21
144808.0
31
0
0
LINE
8
lighting
10
-238086.0
20
144258.0
30
0
11
-238086.0
21
144798.0
31
0
0
LINE
8
lighting
10
-238074.0
20
144258.0
30
0
11
-238074.0
21
144798.0
31
0
0
LINE
8
lighting
10
-238086.0
20
144258.0
30
0
11
-238074.0
21
144258.0
31
0
0
LINE
8
lighting
10
-238086.0
20
144798.0
30
0
11
-238074.0
21
144798.0
31
0
0
LINE
8
lighting
10
-238006.0
20
144258.0
30
0
11
-238006.0
21
144798.0
31
0
0
LINE
8
lighting
10
-237994.0
20
144258.0
30
0
11
-237994.0
21
144798.0
31
0
0
LINE
8
lighting
10
-238006.0
20
144258.0
30
0
11
-237994.0
21
144258.0
31
0
0
LINE
8
lighting
10
-238006.0
20
144798.0
30
0
11
-237994.0
21
144798.0
31
0
0
LINE
8
lighting
10
-237926.0
20
144258.0
30
0
11
-237926.0
21
144798.0
31
0
0
LINE
8
lighting
10
-237914.0
20
144258.0
30
0
11
-237914.0
21
144798.0
31
0
0
LINE
8
lighting
10
-237926.0
20
144258.0
30
0
11
-237914.0
21
144258.0
31
0
0
LINE
8
lighting
10
-237926.0
20
144798.0
30
0
11
-237914.0
21
144798.0
31
0
0
LINE
8
lighting
10
-237846.0
20
144258.0
30
0
11
-237846.0
21
144798.0
31
0
0
LINE
8
lighting
10
-237834.0
20
144258.0
30
0
11
-237834.0
21
144798.0
31
0
0
LINE
8
lighting
10
-237846.0
20
144258.0
30
0
11
-237834.0
21
144258.0
31
0
0
LINE
8
lighting
10
-237846.0
20
144798.0
30
0
11
-237834.0
21
144798.0
31
0
0
LINE
8
lighting
10
-237766.0
20
144258.0
30
0
11
-237766.0
21
144798.0
31
0
0
LINE
8
lighting
10
-237754.0
20
144258.0
30
0
11
-237754.0
21
144798.0
31
0
0
LINE
8
lighting
10
-237766.0
20
144258.0
30
0
11
-237754.0
21
144258.0
31
0
0
LINE
8
lighting
10
-237766.0
20
144798.0
30
0
11
-237754.0
21
144798.0
31
0
0
LINE
8
lighting
10
-237686.0
20
144258.0
30
0
11
-237686.0
21
144798.0
31
0
0
LINE
8
lighting
10
-237674.0
20
144258.0
30
0
11
-237674.0
21
144798.0
31
0
0
LINE
8
lighting
10
-237686.0
20
144258.0
30
0
11
-237674.0
21
144258.0
31
0
0
LINE
8
lighting
10
-237686.0
20
144798.0
30
0
11
-237674.0
21
144798.0
31
0
0
LINE
8
lighting
10
-237606.0
20
144258.0
30
0
11
-237606.0
21
144798.0
31
0
0
LINE
8
lighting
10
-237594.0
20
144258.0
30
0
11
-237594.0
21
144798.0
31
0
0
LINE
8
lighting
10
-237606.0
20
144258.0
30
0
11
-237594.0
21
144258.0
31
0
0
LINE
8
lighting
10
-237606.0
20
144798.0
30
0
11
-237594.0
21
144798.0
31
0
0
LINE
8
lighting
10
-237831.0
20
144528.0
30
0
11
-237844.5
21
144535.79
31
0
0
LINE
8
lighting
10
-237844.5
20
144535.79
30
0
11
-237844.5
21
144520.21
31
0
0
LINE
8
lighting
10
-237844.5
20
144520.21
30
0
11
-237831.0
21
144528.0
31
0
0
LINE
8
lighting
10
-231680.0
20
144208.0
30
0
11
-231680.0
21
144848.0
31
0
0
LINE
8
lighting
10
-231040.0
20
144208.0
30
0
11
-231040.0
21
144848.0
31
0
0
LINE
8
lighting
10
-231680.0
20
144208.0
30
0
11
-231040.0
21
144208.0
31
0
0
LINE
8
lighting
10
-231680.0
20
144848.0
30
0
11
-231040.0
21
144848.0
31
0
0
LINE
8
lighting
10
-231640.0
20
144248.0
30
0
11
-231640.0
21
144808.0
31
0
0
LINE
8
lighting
10
-231080.0
20
144248.0
30
0
11
-231080.0
21
144808.0
31
0
0
LINE
8
lighting
10
-231640.0
20
144248.0
30
0
11
-231080.0
21
144248.0
31
0
0
LINE
8
lighting
10
-231640.0
20
144808.0
30
0
11
-231080.0
21
144808.0
31
0
0
LINE
8
lighting
10
-231606.0
20
144258.0
30
0
11
-231606.0
21
144798.0
31
0
0
LINE
8
lighting
10
-231594.0
20
144258.0
30
0
11
-231594.0
21
144798.0
31
0
0
LINE
8
lighting
10
-231606.0
20
144258.0
30
0
11
-231594.0
21
144258.0
31
0
0
LINE
8
lighting
10
-231606.0
20
144798.0
30
0
11
-231594.0
21
144798.0
31
0
0
LINE
8
lighting
10
-231526.0
20
144258.0
30
0
11
-231526.0
21
144798.0
31
0
0
LINE
8
lighting
10
-231514.0
20
144258.0
30
0
11
-231514.0
21
144798.0
31
0
0
LINE
8
lighting
10
-231526.0
20
144258.0
30
0
11
-231514.0
21
144258.0
31
0
0
LINE
8
lighting
10
-231526.0
20
144798.0
30
0
11
-231514.0
21
144798.0
31
0
0
LINE
8
lighting
10
-231446.0
20
144258.0
30
0
11
-231446.0
21
144798.0
31
0
0
LINE
8
lighting
10
-231434.0
20
144258.0
30
0
11
-231434.0
21
144798.0
31
0
0
LINE
8
lighting
10
-231446.0
20
144258.0
30
0
11
-231434.0
21
144258.0
31
0
0
LINE
8
lighting
10
-231446.0
20
144798.0
30
0
11
-231434.0
21
144798.0
31
0
0
LINE
8
lighting
10
-231366.0
20
144258.0
30
0
11
-231366.0
21
144798.0
31
0
0
LINE
8
lighting
10
-231354.0
20
144258.0
30
0
11
-231354.0
21
144798.0
31
0
0
LINE
8
lighting
10
-231366.0
20
144258.0
30
0
11
-231354.0
21
144258.0
31
0
0
LINE
8
lighting
10
-231366.0
20
144798.0
30
0
11
-231354.0
21
144798.0
31
0
0
LINE
8
lighting
10
-231286.0
20
144258.0
30
0
11
-231286.0
21
144798.0
31
0
0
LINE
8
lighting
10
-231274.0
20
144258.0
30
0
11
-231274.0
21
144798.0
31
0
0
LINE
8
lighting
10
-231286.0
20
144258.0
30
0
11
-231274.0
21
144258.0
31
0
0
LINE
8
lighting
10
-231286.0
20
144798.0
30
0
11
-231274.0
21
144798.0
31
0
0
LINE
8
lighting
10
-231206.0
20
144258.0
30
0
11
-231206.0
21
144798.0
31
0
0
LINE
8
lighting
10
-231194.0
20
144258.0
30
0
11
-231194.0
21
144798.0
31
0
0
LINE
8
lighting
10
-231206.0
20
144258.0
30
0
11
-231194.0
21
144258.0
31
0
0
LINE
8
lighting
10
-231206.0
20
144798.0
30
0
11
-231194.0
21
144798.0
31
0
0
LINE
8
lighting
10
-231126.0
20
144258.0
30
0
11
-231126.0
21
144798.0
31
0
0
LINE
8
lighting
10
-231114.0
20
144258.0
30
0
11
-231114.0
21
144798.0
31
0
0
LINE
8
lighting
10
-231126.0
20
144258.0
30
0
11
-231114.0
21
144258.0
31
0
0
LINE
8
lighting
10
-231126.0
20
144798.0
30
0
11
-231114.0
21
144798.0
31
0
0
LINE
8
lighting
10
-231351.0
20
144528.0
30
0
11
-231364.5
21
144535.79
31
0
0
LINE
8
lighting
10
-231364.5
20
144535.79
30
0
11
-231364.5
21
144520.21
31
0
0
LINE
8
lighting
10
-231364.5
20
144520.21
30
0
11
-231351.0
21
144528.0
31
0
0
LINE
8
lighting
10
-238160.0
20
148152.0
30
0
11
-238160.0
21
148792.0
31
0
0
LINE
8
lighting
10
-237520.0
20
148152.0
30
0
11
-237520.0
21
148792.0
31
0
0
LINE
8
lighting
10
-238160.0
20
148152.0
30
0
11
-237520.0
21
148152.0
31
0
0
LINE
8
lighting
10
-238160.0
20
148792.0
30
0
11
-237520.0
21
148792.0
31
0
0
LINE
8
lighting
10
-238120.0
20
148192.0
30
0
11
-238120.0
21
148752.0
31
0
0
LINE
8
lighting
10
-237560.0
20
148192.0
30
0
11
-237560.0
21
148752.0
31
0
0
LINE
8
lighting
10
-238120.0
20
148192.0
30
0
11
-237560.0
21
148192.0
31
0
0
LINE
8
lighting
10
-238120.0
20
148752.0
30
0
11
-237560.0
21
148752.0
31
0
0
LINE
8
lighting
10
-238086.0
20
148202.0
30
0
11
-238086.0
21
148742.0
31
0
0
LINE
8
lighting
10
-238074.0
20
148202.0
30
0
11
-238074.0
21
148742.0
31
0
0
LINE
8
lighting
10
-238086.0
20
148202.0
30
0
11
-238074.0
21
148202.0
31
0
0
LINE
8
lighting
10
-238086.0
20
148742.0
30
0
11
-238074.0
21
148742.0
31
0
0
LINE
8
lighting
10
-238006.0
20
148202.0
30
0
11
-238006.0
21
148742.0
31
0
0
LINE
8
lighting
10
-237994.0
20
148202.0
30
0
11
-237994.0
21
148742.0
31
0
0
LINE
8
lighting
10
-238006.0
20
148202.0
30
0
11
-237994.0
21
148202.0
31
0
0
LINE
8
lighting
10
-238006.0
20
148742.0
30
0
11
-237994.0
21
148742.0
31
0
0
LINE
8
lighting
10
-237926.0
20
148202.0
30
0
11
-237926.0
21
148742.0
31
0
0
LINE
8
lighting
10
-237914.0
20
148202.0
30
0
11
-237914.0
21
148742.0
31
0
0
LINE
8
lighting
10
-237926.0
20
148202.0
30
0
11
-237914.0
21
148202.0
31
0
0
LINE
8
lighting
10
-237926.0
20
148742.0
30
0
11
-237914.0
21
148742.0
31
0
0
LINE
8
lighting
10
-237846.0
20
148202.0
30
0
11
-237846.0
21
148742.0
31
0
0
LINE
8
lighting
10
-237834.0
20
148202.0
30
0
11
-237834.0
21
148742.0
31
0
0
LINE
8
lighting
10
-237846.0
20
148202.0
30
0
11
-237834.0
21
148202.0
31
0
0
LINE
8
lighting
10
-237846.0
20
148742.0
30
0
11
-237834.0
21
148742.0
31
0
0
LINE
8
lighting
10
-237766.0
20
148202.0
30
0
11
-237766.0
21
148742.0
31
0
0
LINE
8
lighting
10
-237754.0
20
148202.0
30
0
11
-237754.0
21
148742.0
31
0
0
LINE
8
lighting
10
-237766.0
20
148202.0
30
0
11
-237754.0
21
148202.0
31
0
0
LINE
8
lighting
10
-237766.0
20
148742.0
30
0
11
-237754.0
21
148742.0
31
0
0
LINE
8
lighting
10
-237686.0
20
148202.0
30
0
11
-237686.0
21
148742.0
31
0
0
LINE
8
lighting
10
-237674.0
20
148202.0
30
0
11
-237674.0
21
148742.0
31
0
0
LINE
8
lighting
10
-237686.0
20
148202.0
30
0
11
-237674.0
21
148202.0
31
0
0
LINE
8
lighting
10
-237686.0
20
148742.0
30
0
11
-237674.0
21
148742.0
31
0
0
LINE
8
lighting
10
-237606.0
20
148202.0
30
0
11
-237606.0
21
148742.0
31
0
0
LINE
8
lighting
10
-237594.0
20
148202.0
30
0
11
-237594.0
21
148742.0
31
0
0
LINE
8
lighting
10
-237606.0
20
148202.0
30
0
11
-237594.0
21
148202.0
31
0
0
LINE
8
lighting
10
-237606.0
20
148742.0
30
0
11
-237594.0
21
148742.0
31
0
0
LINE
8
lighting
10
-237831.0
20
148472.0
30
0
11
-237844.5
21
148479.79
31
0
0
LINE
8
lighting
10
-237844.5
20
148479.79
30
0
11
-237844.5
21
148464.21
31
0
0
LINE
8
lighting
10
-237844.5
20
148464.21
30
0
11
-237831.0
21
148472.0
31
0
0
LINE
8
lighting
10
-231680.0
20
148152.0
30
0
11
-231680.0
21
148792.0
31
0
0
LINE
8
lighting
10
-231040.0
20
148152.0
30
0
11
-231040.0
21
148792.0
31
0
0
LINE
8
lighting
10
-231680.0
20
148152.0
30
0
11
-231040.0
21
148152.0
31
0
0
LINE
8
lighting
10
-231680.0
20
148792.0
30
0
11
-231040.0
21
148792.0
31
0
0
LINE
8
lighting
10
-231640.0
20
148192.0
30
0
11
-231640.0
21
148752.0
31
0
0
LINE
8
lighting
10
-231080.0
20
148192.0
30
0
11
-231080.0
21
148752.0
31
0
0
LINE
8
lighting
10
-231640.0
20
148192.0
30
0
11
-231080.0
21
148192.0
31
0
0
LINE
8
lighting
10
-231640.0
20
148752.0
30
0
11
-231080.0
21
148752.0
31
0
0
LINE
8
lighting
10
-231606.0
20
148202.0
30
0
11
-231606.0
21
148742.0
31
0
0
LINE
8
lighting
10
-231594.0
20
148202.0
30
0
11
-231594.0
21
148742.0
31
0
0
LINE
8
lighting
10
-231606.0
20
148202.0
30
0
11
-231594.0
21
148202.0
31
0
0
LINE
8
lighting
10
-231606.0
20
148742.0
30
0
11
-231594.0
21
148742.0
31
0
0
LINE
8
lighting
10
-231526.0
20
148202.0
30
0
11
-231526.0
21
148742.0
31
0
0
LINE
8
lighting
10
-231514.0
20
148202.0
30
0
11
-231514.0
21
148742.0
31
0
0
LINE
8
lighting
10
-231526.0
20
148202.0
30
0
11
-231514.0
21
148202.0
31
0
0
LINE
8
lighting
10
-231526.0
20
148742.0
30
0
11
-231514.0
21
148742.0
31
0
0
LINE
8
lighting
10
-231446.0
20
148202.0
30
0
11
-231446.0
21
148742.0
31
0
0
LINE
8
lighting
10
-231434.0
20
148202.0
30
0
11
-231434.0
21
148742.0
31
0
0
LINE
8
lighting
10
-231446.0
20
148202.0
30
0
11
-231434.0
21
148202.0
31
0
0
LINE
8
lighting
10
-231446.0
20
148742.0
30
0
11
-231434.0
21
148742.0
31
0
0
LINE
8
lighting
10
-231366.0
20
148202.0
30
0
11
-231366.0
21
148742.0
31
0
0
LINE
8
lighting
10
-231354.0
20
148202.0
30
0
11
-231354.0
21
148742.0
31
0
0
LINE
8
lighting
10
-231366.0
20
148202.0
30
0
11
-231354.0
21
148202.0
31
0
0
LINE
8
lighting
10
-231366.0
20
148742.0
30
0
11
-231354.0
21
148742.0
31
0
0
LINE
8
lighting
10
-231286.0
20
148202.0
30
0
11
-231286.0
21
148742.0
31
0
0
LINE
8
lighting
10
-231274.0
20
148202.0
30
0
11
-231274.0
21
148742.0
31
0
0
LINE
8
lighting
10
-231286.0
20
148202.0
30
0
11
-231274.0
21
148202.0
31
0
0
LINE
8
lighting
10
-231286.0
20
148742.0
30
0
11
-231274.0
21
148742.0
31
0
0
LINE
8
lighting
10
-231206.0
20
148202.0
30
0
11
-231206.0
21
148742.0
31
0
0
LINE
8
lighting
10
-231194.0
20
148202.0
30
0
11
-231194.0
21
148742.0
31
0
0
LINE
8
lighting
10
-231206.0
20
148202.0
30
0
11
-231194.0
21
148202.0
31
0
0
LINE
8
lighting
10
-231206.0
20
148742.0
30
0
11
-231194.0
21
148742.0
31
0
0
LINE
8
lighting
10
-231126.0
20
148202.0
30
0
11
-231126.0
21
148742.0
31
0
0
LINE
8
lighting
10
-231114.0
20
148202.0
30
0
11
-231114.0
21
148742.0
31
0
0
LINE
8
lighting
10
-231126.0
20
148202.0
30
0
11
-231114.0
21
148202.0
31
0
0
LINE
8
lighting
10
-231126.0
20
148742.0
30
0
11
-231114.0
21
148742.0
31
0
0
LINE
8
lighting
10
-231351.0
20
148472.0
30
0
11
-231364.5
21
148479.79
31
0
0
LINE
8
lighting
10
-231364.5
20
148479.79
30
0
11
-231364.5
21
148464.21
31
0
0
LINE
8
lighting
10
-231364.5
20
148464.21
30
0
11
-231351.0
21
148472.0
31
0
0
LINE
8
electrical
10
-237840.0
20
144350.0
30
0
11
-237840.0
21
144342.21
31
0
0
LINE
8
electrical
10
-237840.0
20
144342.21
30
0
11
-237840.0
21
144357.79
31
0
0
LINE
8
electrical
10
-237840.0
20
144357.79
30
0
11
-237840.0
21
144350.0
31
0
0
LINE
8
electrical
10
-230550.0
20
144350.0
30
0
11
-237840.0
21
144350.0
31
0
0
LINE
8
electrical
10
-230550.0
20
144350.0
30
0
11
-230550.0
21
144342.21
31
0
0
LINE
8
electrical
10
-230550.0
20
144342.21
30
0
11
-230550.0
21
144357.79
31
0
0
LINE
8
electrical
10
-230550.0
20
144357.79
30
0
11
-230550.0
21
144350.0
31
0
0
LINE
8
electrical
10
-237840.0
20
148472.0
30
0
11
-237832.21
21
148472.0
31
0
0
LINE
8
electrical
10
-237832.21
20
148472.0
30
0
11
-237847.79
21
148472.0
31
0
0
LINE
8
electrical
10
-237847.79
20
148472.0
30
0
11
-237840.0
21
148472.0
31
0
0
LINE
8
electrical
10
-237840.0
20
144350.0
30
0
11
-237840.0
21
148472.0
31
0
0
LINE
8
electrical
10
-237840.0
20
144350.0
30
0
11
-237832.21
21
144350.0
31
0
0
LINE
8
electrical
10
-237832.21
20
144350.0
30
0
11
-237847.79
21
144350.0
31
0
0
LINE
8
electrical
10
-237847.79
20
144350.0
30
0
11
-237840.0
21
144350.0
31
0
0
LINE
8
electrical
10
-231360.0
20
148472.0
30
0
11
-231352.21
21
148472.0
31
0
0
LINE
8
electrical
10
-231352.21
20
148472.0
30
0
11
-231367.79
21
148472.0
31
0
0
LINE
8
electrical
10
-231367.79
20
148472.0
30
0
11
-231360.0
21
148472.0
31
0
0
LINE
8
electrical
10
-231360.0
20
144350.0
30
0
11
-231360.0
21
148472.0
31
0
0
LINE
8
electrical
10
-231360.0
20
144350.0
30
0
11
-231352.21
21
144350.0
31
0
0
LINE
8
electrical
10
-231352.21
20
144350.0
30
0
11
-231367.79
21
144350.0
31
0
0
LINE
8
electrical
10
-231367.79
20
144350.0
30
0
11
-231360.0
21
144350.0
31
0
0
LINE
8
electrical
10
-230537.0
20
143800.0
30
0
11
-230556.5
21
143811.26
31
0
0
LINE
8
electrical
10
-230556.5
20
143811.26
30
0
11
-230556.5
21
143788.74
31
0
0
LINE
8
electrical
10
-230556.5
20
143788.74
30
0
11
-230537.0
21
143800.0
31
0
0
LINE
8
electrical
10
-231456.78
20
144338.91
30
0
11
-231446.61
21
144355.55
31
0
0
LINE
8
electrical
10
-231446.61
20
144355.55
30
0
11
-231446.61
21
144355.55
31
0
0
LINE
8
electrical
10
-231446.61
20
144355.55
30
0
11
-231456.78
21
144338.91
31
0
0
LINE
8
electrical
10
-230556.78
20
143788.91
30
0
11
-231456.78
21
144338.91
31
0
0
LINE
8
electrical
10
-230556.78
20
143788.91
30
0
11
-230546.61
21
143805.55
31
0
0
LINE
8
electrical
10
-230546.61
20
143805.55
30
0
11
-230546.61
21
143805.55
31
0
0
LINE
8
electrical
10
-230546.61
20
143805.55
30
0
11
-230556.78
21
143788.91
31
0
0
LINE
8
electrical
10
-237750.0
20
144350.0
30
0
11
-237750.0
21
144338.74
31
0
0
LINE
8
electrical
10
-237750.0
20
144338.74
30
0
11
-237750.0
21
144361.26
31
0
0
LINE
8
electrical
10
-237750.0
20
144361.26
30
0
11
-237750.0
21
144350.0
31
0
0
LINE
8
electrical
10
-231450.0
20
144350.0
30
0
11
-237750.0
21
144350.0
31
0
0
LINE
8
electrical
10
-231450.0
20
144350.0
30
0
11
-231450.0
21
144338.74
31
0
0
LINE
8
electrical
10
-231450.0
20
144338.74
30
0
11
-231450.0
21
144361.26
31
0
0
LINE
8
electrical
10
-231450.0
20
144361.26
30
0
11
-231450.0
21
144350.0
31
0
0
LINE
8
electrical
10
-230550.0
20
143800.0
30
0
11
-230535.96
21
143800.0
31
0
0
LINE
8
electrical
10
-230535.96
20
143800.0
30
0
11
-230550.0
21
143800.0
31
0
0
LINE
8
electrical
10
-231450.0
20
144350.0
30
0
11
-231435.96
21
144350.0
31
0
0
LINE
8
electrical
10
-231435.96
20
144350.0
30
0
11
-231450.0
21
144350.0
31
0
0
LINE
8
electrical
10
-230537.0
20
143800.0
30
0
11
-230556.5
21
143811.26
31
0
0
LINE
8
electrical
10
-230556.5
20
143811.26
30
0
11
-230556.5
21
143788.74
31
0
0
LINE
8
electrical
10
-230556.5
20
143788.74
30
0
11
-230537.0
21
143800.0
31
0
0
LINE
8
electrical
10
-231457.76
20
144459.57
30
0
11
-231446.12
21
144475.21
31
0
0
LINE
8
electrical
10
-231446.12
20
144475.21
30
0
11
-231446.12
21
144475.21
31
0
0
LINE
8
electrical
10
-231446.12
20
144475.21
30
0
11
-231457.76
21
144459.57
31
0
0
LINE
8
electrical
10
-230557.76
20
143789.57
30
0
11
-231457.76
21
144459.57
31
0
0
LINE
8
electrical
10
-230557.76
20
143789.57
30
0
11
-230546.12
21
143805.21
31
0
0
LINE
8
electrical
10
-230546.12
20
143805.21
30
0
11
-230546.12
21
143805.21
31
0
0
LINE
8
electrical
10
-230546.12
20
143805.21
30
0
11
-230557.76
21
143789.57
31
0
0
LINE
8
electrical
10
-237750.0
20
144470.0
30
0
11
-237750.0
21
144458.74
31
0
0
LINE
8
electrical
10
-237750.0
20
144458.74
30
0
11
-237750.0
21
144481.26
31
0
0
LINE
8
electrical
10
-237750.0
20
144481.26
30
0
11
-237750.0
21
144470.0
31
0
0
LINE
8
electrical
10
-231450.0
20
144470.0
30
0
11
-237750.0
21
144470.0
31
0
0
LINE
8
electrical
10
-231450.0
20
144470.0
30
0
11
-231450.0
21
144458.74
31
0
0
LINE
8
electrical
10
-231450.0
20
144458.74
30
0
11
-231450.0
21
144481.26
31
0
0
LINE
8
electrical
10
-231450.0
20
144481.26
30
0
11
-231450.0
21
144470.0
31
0
0
LINE
8
electrical
10
-230550.0
20
143800.0
30
0
11
-230535.96
21
143800.0
31
0
0
LINE
8
electrical
10
-230535.96
20
143800.0
30
0
11
-230550.0
21
143800.0
31
0
0
LINE
8
electrical
10
-231450.0
20
144470.0
30
0
11
-231435.96
21
144470.0
31
0
0
LINE
8
electrical
10
-231435.96
20
144470.0
30
0
11
-231450.0
21
144470.0
31
0
0
LINE
8
electrical
10
-230537.0
20
143800.0
30
0
11
-230556.5
21
143811.26
31
0
0
LINE
8
electrical
10
-230556.5
20
143811.26
30
0
11
-230556.5
21
143788.74
31
0
0
LINE
8
electrical
10
-230556.5
20
143788.74
30
0
11
-230537.0
21
143800.0
31
0
0
LINE
8
electrical
10
-231458.58
20
144580.23
30
0
11
-231445.71
21
144594.89
31
0
0
LINE
8
electrical
10
-231445.71
20
144594.89
30
0
11
-231445.71
21
144594.89
31
0
0
LINE
8
electrical
10
-231445.71
20
144594.89
30
0
11
-231458.58
21
144580.23
31
0
0
LINE
8
electrical
10
-230558.58
20
143790.23
30
0
11
-231458.58
21
144580.23
31
0
0
LINE
8
electrical
10
-230558.58
20
143790.23
30
0
11
-230545.71
21
143804.89
31
0
0
LINE
8
electrical
10
-230545.71
20
143804.89
30
0
11
-230545.71
21
143804.89
31
0
0
LINE
8
electrical
10
-230545.71
20
143804.89
30
0
11
-230558.58
21
143790.23
31
0
0
LINE
8
electrical
10
-237750.0
20
144590.0
30
0
11
-237750.0
21
144578.74
31
0
0
LINE
8
electrical
10
-237750.0
20
144578.74
30
0
11
-237750.0
21
144601.26
31
0
0
LINE
8
electrical
10
-237750.0
20
144601.26
30
0
11
-237750.0
21
144590.0
31
0
0
LINE
8
electrical
10
-231450.0
20
144590.0
30
0
11
-237750.0
21
144590.0
31
0
0
LINE
8
electrical
10
-231450.0
20
144590.0
30
0
11
-231450.0
21
144578.74
31
0
0
LINE
8
electrical
10
-231450.0
20
144578.74
30
0
11
-231450.0
21
144601.26
31
0
0
LINE
8
electrical
10
-231450.0
20
144601.26
30
0
11
-231450.0
21
144590.0
31
0
0
LINE
8
electrical
10
-230550.0
20
143800.0
30
0
11
-230535.96
21
143800.0
31
0
0
LINE
8
electrical
10
-230535.96
20
143800.0
30
0
11
-230550.0
21
143800.0
31
0
0
LINE
8
electrical
10
-231450.0
20
144590.0
30
0
11
-231435.96
21
144590.0
31
0
0
LINE
8
electrical
10
-231435.96
20
144590.0
30
0
11
-231450.0
21
144590.0
31
0
0
LINE
8
electrical
10
-237365.0
20
143750.0
30
0
11
-237365.0
21
143810.0
31
0
0
LINE
8
electrical
10
-237235.0
20
143750.0
30
0
11
-237235.0
21
143810.0
31
0
0
LINE
8
electrical
10
-237365.0
20
143750.0
30
0
11
-237235.0
21
143750.0
31
0
0
LINE
8
electrical
10
-237365.0
20
143810.0
30
0
11
-237235.0
21
143810.0
31
0
0
LINE
8
electrical
10
-237291.0
20
143780.0
30
0
11
-237304.5
21
143787.79
31
0
0
LINE
8
electrical
10
-237304.5
20
143787.79
30
0
11
-237304.5
21
143772.21
31
0
0
LINE
8
electrical
10
-237304.5
20
143772.21
30
0
11
-237291.0
21
143780.0
31
0
0
LINE
8
electrical
10
-230550.0
20
143780.0
30
0
11
-230550.0
21
143772.21
31
0
0
LINE
8
electrical
10
-230550.0
20
143772.21
30
0
11
-230550.0
21
143787.79
31
0
0
LINE
8
electrical
10
-230550.0
20
143787.79
30
0
11
-230550.0
21
143780.0
31
0
0
LINE
8
electrical
10
-237300.0
20
143780.0
30
0
11
-230550.0
21
143780.0
31
0
0
LINE
8
electrical
10
-237300.0
20
143780.0
30
0
11
-237300.0
21
143772.21
31
0
0
LINE
8
electrical
10
-237300.0
20
143772.21
30
0
11
-237300.0
21
143787.79
31
0
0
LINE
8
electrical
10
-237300.0
20
143787.79
30
0
11
-237300.0
21
143780.0
31
0
0
LINE
8
electrical
10
-237300.0
20
143780.0
30
0
11
-237290.28
21
143780.0
31
0
0
LINE
8
electrical
10
-237290.28
20
143780.0
30
0
11
-237300.0
21
143780.0
31
0
0
LINE
8
electrical
10
-231965.0
20
143750.0
30
0
11
-231965.0
21
143810.0
31
0
0
LINE
8
electrical
10
-231835.0
20
143750.0
30
0
11
-231835.0
21
143810.0
31
0
0
LINE
8
electrical
10
-231965.0
20
143750.0
30
0
11
-231835.0
21
143750.0
31
0
0
LINE
8
electrical
10
-231965.0
20
143810.0
30
0
11
-231835.0
21
143810.0
31
0
0
LINE
8
electrical
10
-231891.0
20
143780.0
30
0
11
-231904.5
21
143787.79
31
0
0
LINE
8
electrical
10
-231904.5
20
143787.79
30
0
11
-231904.5
21
143772.21
31
0
0
LINE
8
electrical
10
-231904.5
20
143772.21
30
0
11
-231891.0
21
143780.0
31
0
0
LINE
8
electrical
10
-230550.0
20
143780.0
30
0
11
-230550.0
21
143772.21
31
0
0
LINE
8
electrical
10
-230550.0
20
143772.21
30
0
11
-230550.0
21
143787.79
31
0
0
LINE
8
electrical
10
-230550.0
20
143787.79
30
0
11
-230550.0
21
143780.0
31
0
0
LINE
8
electrical
10
-231900.0
20
143780.0
30
0
11
-230550.0
21
143780.0
31
0
0
LINE
8
electrical
10
-231900.0
20
143780.0
30
0
11
-231900.0
21
143772.21
31
0
0
LINE
8
electrical
10
-231900.0
20
143772.21
30
0
11
-231900.0
21
143787.79
31
0
0
LINE
8
electrical
10
-231900.0
20
143787.79
30
0
11
-231900.0
21
143780.0
31
0
0
LINE
8
electrical
10
-231900.0
20
143780.0
30
0
11
-231890.28
21
143780.0
31
0
0
LINE
8
electrical
10
-231890.28
20
143780.0
30
0
11
-231900.0
21
143780.0
31
0
0
LINE
8
hvac
10
-238625.0
20
144325.0
30
0
11
-238625.0
21
145075.0
31
0
0
LINE
8
hvac
10
-236975.0
20
144325.0
30
0
11
-236975.0
21
145075.0
31
0
0
LINE
8
hvac
10
-238625.0
20
144325.0
30
0
11
-236975.0
21
144325.0
31
0
0
LINE
8
hvac
10
-238625.0
20
145075.0
30
0
11
-236975.0
21
145075.0
31
0
0
LINE
8
hvac
10
-238525.0
20
144280.0
30
0
11
-238525.0
21
144320.0
31
0
0
LINE
8
hvac
10
-237075.0
20
144280.0
30
0
11
-237075.0
21
144320.0
31
0
0
LINE
8
hvac
10
-238525.0
20
144280.0
30
0
11
-237075.0
21
144280.0
31
0
0
LINE
8
hvac
10
-238525.0
20
144320.0
30
0
11
-237075.0
21
144320.0
31
0
0
LINE
8
hvac
10
-238460.0
20
144240.0
30
0
11
-238460.0
21
144300.0
31
0
0
LINE
8
hvac
10
-238420.0
20
144240.0
30
0
11
-238420.0
21
144300.0
31
0
0
LINE
8
hvac
10
-238460.0
20
144240.0
30
0
11
-238420.0
21
144240.0
31
0
0
LINE
8
hvac
10
-238460.0
20
144300.0
30
0
11
-238420.0
21
144300.0
31
0
0
LINE
8
hvac
10
-238300.0
20
144240.0
30
0
11
-238300.0
21
144300.0
31
0
0
LINE
8
hvac
10
-238260.0
20
144240.0
30
0
11
-238260.0
21
144300.0
31
0
0
LINE
8
hvac
10
-238300.0
20
144240.0
30
0
11
-238260.0
21
144240.0
31
0
0
LINE
8
hvac
10
-238300.0
20
144300.0
30
0
11
-238260.0
21
144300.0
31
0
0
LINE
8
hvac
10
-238140.0
20
144240.0
30
0
11
-238140.0
21
144300.0
31
0
0
LINE
8
hvac
10
-238100.0
20
144240.0
30
0
11
-238100.0
21
144300.0
31
0
0
LINE
8
hvac
10
-238140.0
20
144240.0
30
0
11
-238100.0
21
144240.0
31
0
0
LINE
8
hvac
10
-238140.0
20
144300.0
30
0
11
-238100.0
21
144300.0
31
0
0
LINE
8
hvac
10
-237980.0
20
144240.0
30
0
11
-237980.0
21
144300.0
31
0
0
LINE
8
hvac
10
-237940.0
20
144240.0
30
0
11
-237940.0
21
144300.0
31
0
0
LINE
8
hvac
10
-237980.0
20
144240.0
30
0
11
-237940.0
21
144240.0
31
0
0
LINE
8
hvac
10
-237980.0
20
144300.0
30
0
11
-237940.0
21
144300.0
31
0
0
LINE
8
hvac
10
-237820.0
20
144240.0
30
0
11
-237820.0
21
144300.0
31
0
0
LINE
8
hvac
10
-237780.0
20
144240.0
30
0
11
-237780.0
21
144300.0
31
0
0
LINE
8
hvac
10
-237820.0
20
144240.0
30
0
11
-237780.0
21
144240.0
31
0
0
LINE
8
hvac
10
-237820.0
20
144300.0
30
0
11
-237780.0
21
144300.0
31
0
0
LINE
8
hvac
10
-237660.0
20
144240.0
30
0
11
-237660.0
21
144300.0
31
0
0
LINE
8
hvac
10
-237620.0
20
144240.0
30
0
11
-237620.0
21
144300.0
31
0
0
LINE
8
hvac
10
-237660.0
20
144240.0
30
0
11
-237620.0
21
144240.0
31
0
0
LINE
8
hvac
10
-237660.0
20
144300.0
30
0
11
-237620.0
21
144300.0
31
0
0
LINE
8
hvac
10
-237500.0
20
144240.0
30
0
11
-237500.0
21
144300.0
31
0
0
LINE
8
hvac
10
-237460.0
20
144240.0
30
0
11
-237460.0
21
144300.0
31
0
0
LINE
8
hvac
10
-237500.0
20
144240.0
30
0
11
-237460.0
21
144240.0
31
0
0
LINE
8
hvac
10
-237500.0
20
144300.0
30
0
11
-237460.0
21
144300.0
31
0
0
LINE
8
hvac
10
-237340.0
20
144240.0
30
0
11
-237340.0
21
144300.0
31
0
0
LINE
8
hvac
10
-237300.0
20
144240.0
30
0
11
-237300.0
21
144300.0
31
0
0
LINE
8
hvac
10
-237340.0
20
144240.0
30
0
11
-237300.0
21
144240.0
31
0
0
LINE
8
hvac
10
-237340.0
20
144300.0
30
0
11
-237300.0
21
144300.0
31
0
0
LINE
8
hvac
10
-237180.0
20
144240.0
30
0
11
-237180.0
21
144300.0
31
0
0
LINE
8
hvac
10
-237140.0
20
144240.0
30
0
11
-237140.0
21
144300.0
31
0
0
LINE
8
hvac
10
-237180.0
20
144240.0
30
0
11
-237140.0
21
144240.0
31
0
0
LINE
8
hvac
10
-237180.0
20
144300.0
30
0
11
-237140.0
21
144300.0
31
0
0
LINE
8
hvac
10
-238025.0
20
144475.0
30
0
11
-238025.0
21
144925.0
31
0
0
LINE
8
hvac
10
-237575.0
20
144475.0
30
0
11
-237575.0
21
144925.0
31
0
0
LINE
8
hvac
10
-238025.0
20
144475.0
30
0
11
-237575.0
21
144475.0
31
0
0
LINE
8
hvac
10
-238025.0
20
144925.0
30
0
11
-237575.0
21
144925.0
31
0
0
LINE
8
hvac
10
-237750.0
20
146325.0
30
0
11
-237750.0
21
146675.0
31
0
0
LINE
8
hvac
10
-231450.0
20
146325.0
30
0
11
-231450.0
21
146675.0
31
0
0
LINE
8
hvac
10
-237750.0
20
146325.0
30
0
11
-231450.0
21
146325.0
31
0
0
LINE
8
hvac
10
-237750.0
20
146675.0
30
0
11
-231450.0
21
146675.0
31
0
0
LINE
8
hvac
10
-237975.0
20
144525.0
30
0
11
-237975.0
21
144875.0
31
0
0
LINE
8
hvac
10
-234425.0
20
144525.0
30
0
11
-234425.0
21
144875.0
31
0
0
LINE
8
hvac
10
-237975.0
20
144525.0
30
0
11
-234425.0
21
144525.0
31
0
0
LINE
8
hvac
10
-237975.0
20
144875.0
30
0
11
-234425.0
21
144875.0
31
0
0
LINE
8
hvac
10
-234775.0
20
144525.0
30
0
11
-234775.0
21
146675.0
31
0
0
LINE
8
hvac
10
-234425.0
20
144525.0
30
0
11
-234425.0
21
146675.0
31
0
0
LINE
8
hvac
10
-234775.0
20
144525.0
30
0
11
-234425.0
21
144525.0
31
0
0
LINE
8
hvac
10
-234775.0
20
146675.0
30
0
11
-234425.0
21
146675.0
31
0
0
LINE
8
hvac
10
-236750.0
20
146150.0
30
0
11
-236750.0
21
146850.0
31
0
0
LINE
8
hvac
10
-236050.0
20
146150.0
30
0
11
-236050.0
21
146850.0
31
0
0
LINE
8
hvac
10
-236750.0
20
146150.0
30
0
11
-236050.0
21
146150.0
31
0
0
LINE
8
hvac
10
-236750.0
20
146850.0
30
0
11
-236050.0
21
146850.0
31
0
0
LINE
8
hvac
10
-233150.0
20
146150.0
30
0
11
-233150.0
21
146850.0
31
0
0
LINE
8
hvac
10
-232450.0
20
146150.0
30
0
11
-232450.0
21
146850.0
31
0
0
LINE
8
hvac
10
-233150.0
20
146150.0
30
0
11
-232450.0
21
146150.0
31
0
0
LINE
8
hvac
10
-233150.0
20
146850.0
30
0
11
-232450.0
21
146850.0
31
0
0
LINE
8
water
10
-231610.0
20
147050.0
30
0
11
-231610.0
21
147690.0
31
0
0
LINE
8
water
10
-230690.0
20
147050.0
30
0
11
-230690.0
21
147690.0
31
0
0
LINE
8
water
10
-231610.0
20
147050.0
30
0
11
-230690.0
21
147050.0
31
0
0
LINE
8
water
10
-231610.0
20
147690.0
30
0
11
-230690.0
21
147690.0
31
0
0
LINE
8
water
10
-231600.0
20
147060.0
30
0
11
-231600.0
21
147680.0
31
0
0
LINE
8
water
10
-231600.0
20
147060.0
30
0
11
-230700.0
21
147060.0
31
0
0
LINE
8
water
10
-231600.0
20
147680.0
30
0
11
-230700.0
21
147680.0
31
0
0
LINE
8
water
10
-230700.0
20
147060.0
30
0
11
-230700.0
21
147680.0
31
0
0
LINE
8
water
10
-230825.0
20
147155.0
30
0
11
-231475.0
21
147155.0
31
0
0
LINE
8
water
10
-230825.0
20
147155.0
30
0
11
-230825.0
21
147585.0
31
0
0
LINE
8
water
10
-230825.0
20
147585.0
30
0
11
-231475.0
21
147585.0
31
0
0
LINE
8
water
10
-231475.0
20
147155.0
30
0
11
-231475.0
21
147585.0
31
0
0
LINE
8
water
10
-231132.0
20
147590.0
30
0
11
-231159.0
21
147605.59
31
0
0
LINE
8
water
10
-231159.0
20
147605.59
30
0
11
-231159.0
21
147574.41
31
0
0
LINE
8
water
10
-231159.0
20
147574.41
30
0
11
-231132.0
21
147590.0
31
0
0
LINE
8
water
10
-231150.0
20
147370.0
30
0
11
-231134.41
21
147370.0
31
0
0
LINE
8
water
10
-231134.41
20
147370.0
30
0
11
-231165.59
21
147370.0
31
0
0
LINE
8
water
10
-231165.59
20
147370.0
30
0
11
-231150.0
21
147370.0
31
0
0
LINE
8
water
10
-231150.0
20
147590.0
30
0
11
-231150.0
21
147370.0
31
0
0
LINE
8
water
10
-231150.0
20
147590.0
30
0
11
-231134.41
21
147590.0
31
0
0
LINE
8
water
10
-231134.41
20
147590.0
30
0
11
-231165.59
21
147590.0
31
0
0
LINE
8
water
10
-231165.59
20
147590.0
30
0
11
-231150.0
21
147590.0
31
0
0
LINE
8
water
10
-231150.0
20
147590.0
30
0
11
-231130.56
21
147590.0
31
0
0
LINE
8
water
10
-231130.56
20
147590.0
30
0
11
-231150.0
21
147590.0
31
0
0
LINE
8
water
10
-231205.0
20
147370.0
30
0
11
-231150.0
21
147425.0
31
0
0
LINE
8
water
10
-231150.0
20
147425.0
30
0
11
-231095.0
21
147370.0
31
0
0
LINE
8
water
10
-231095.0
20
147370.0
30
0
11
-231150.0
21
147315.0
31
0
0
LINE
8
water
10
-231150.0
20
147315.0
30
0
11
-231205.0
21
147370.0
31
0
0
LINE
8
water
10
-231150.0
20
146170.0
30
0
11
-231095.0
21
146170.0
31
0
0
LINE
8
water
10
-231095.0
20
146170.0
30
0
11
-231150.0
21
146170.0
31
0
0
LINE
8
water
10
-231150.0
20
146170.0
30
0
11
-231205.0
21
146170.0
31
0
0
LINE
8
water
10
-231205.0
20
146170.0
30
0
11
-231150.0
21
146170.0
31
0
0
LINE
8
water
10
-231150.0
20
147370.0
30
0
11
-231150.0
21
146170.0
31
0
0
LINE
8
water
10
-231150.0
20
147370.0
30
0
11
-231095.0
21
147370.0
31
0
0
LINE
8
water
10
-231095.0
20
147370.0
30
0
11
-231150.0
21
147370.0
31
0
0
LINE
8
water
10
-231150.0
20
147370.0
30
0
11
-231205.0
21
147370.0
31
0
0
LINE
8
water
10
-231205.0
20
147370.0
30
0
11
-231150.0
21
147370.0
31
0
0
LINE
8
water
10
-231205.0
20
146170.0
30
0
11
-231150.0
21
146225.0
31
0
0
LINE
8
water
10
-231150.0
20
146225.0
30
0
11
-231095.0
21
146170.0
31
0
0
LINE
8
water
10
-231095.0
20
146170.0
30
0
11
-231150.0
21
146115.0
31
0
0
LINE
8
water
10
-231150.0
20
146115.0
30
0
11
-231205.0
21
146170.0
31
0
0
LINE
8
water
10
-231150.0
20
126500.0
30
0
11
-231095.0
21
126500.0
31
0
0
LINE
8
water
10
-231095.0
20
126500.0
30
0
11
-231150.0
21
126500.0
31
0
0
LINE
8
water
10
-231150.0
20
126500.0
30
0
11
-231205.0
21
126500.0
31
0
0
LINE
8
water
10
-231205.0
20
126500.0
30
0
11
-231150.0
21
126500.0
31
0
0
LINE
8
water
10
-231150.0
20
146170.0
30
0
11
-231150.0
21
126500.0
31
0
0
LINE
8
water
10
-281500.0
20
126500.0
30
0
11
-281500.0
21
126445.0
31
0
0
LINE
8
water
10
-281500.0
20
126445.0
30
0
11
-281500.0
21
126500.0
31
0
0
LINE
8
water
10
-281500.0
20
126500.0
30
0
11
-281500.0
21
126555.0
31
0
0
LINE
8
water
10
-281500.0
20
126555.0
30
0
11
-281500.0
21
126500.0
31
0
0
LINE
8
water
10
-231150.0
20
126500.0
30
0
11
-281500.0
21
126500.0
31
0
0
LINE
8
water
10
-231150.0
20
126500.0
30
0
11
-231150.0
21
126445.0
31
0
0
LINE
8
water
10
-231150.0
20
126445.0
30
0
11
-231150.0
21
126500.0
31
0
0
LINE
8
water
10
-231150.0
20
126500.0
30
0
11
-231150.0
21
126555.0
31
0
0
LINE
8
water
10
-231150.0
20
126555.0
30
0
11
-231150.0
21
126500.0
31
0
0
LINE
8
water
10
-231150.0
20
147370.0
30
0
11
-231090.6
21
147370.0
31
0
0
LINE
8
water
10
-231090.6
20
147370.0
30
0
11
-231150.0
21
147370.0
31
0
0
LINE
8
water
10
-231150.0
20
146170.0
30
0
11
-231090.6
21
146170.0
31
0
0
LINE
8
water
10
-231090.6
20
146170.0
30
0
11
-231150.0
21
146170.0
31
0
0
LINE
8
water
10
-231150.0
20
126500.0
30
0
11
-231090.6
21
126500.0
31
0
0
LINE
8
water
10
-231090.6
20
126500.0
30
0
11
-231150.0
21
126500.0
31
0
0
LINE
8
water
10
-231575.0
20
145845.0
30
0
11
-231575.0
21
146495.0
31
0
0
LINE
8
water
10
-230725.0
20
145845.0
30
0
11
-230725.0
21
146495.0
31
0
0
LINE
8
water
10
-231575.0
20
145845.0
30
0
11
-230725.0
21
145845.0
31
0
0
LINE
8
water
10
-231575.0
20
146495.0
30
0
11
-230725.0
21
146495.0
31
0
0
LINE
8
water
10
-230930.0
20
146170.0
30
0
11
-231012.83
21
146342.0
31
0
0
LINE
8
water
10
-231012.83
20
146342.0
30
0
11
-231198.95
21
146384.48
31
0
0
LINE
8
water
10
-231198.95
20
146384.48
30
0
11
-231348.21
21
146265.45
31
0
0
LINE
8
water
10
-231348.21
20
146265.45
30
0
11
-231348.21
21
146074.55
31
0
0
LINE
8
water
10
-231348.21
20
146074.55
30
0
11
-231198.95
21
145955.52
31
0
0
LINE
8
water
10
-231198.95
20
145955.52
30
0
11
-231012.83
21
145998.0
31
0
0
LINE
8
water
10
-231012.83
20
145998.0
30
0
11
-230930.0
21
146170.0
31
0
0
LINE
8
water
10
-232595.0
20
144000.0
30
0
11
-232595.0
21
143925.0
31
0
0
LINE
8
water
10
-232595.0
20
143925.0
30
0
11
-232595.0
21
144000.0
31
0
0
LINE
8
water
10
-232595.0
20
144000.0
30
0
11
-232595.0
21
144075.0
31
0
0
LINE
8
water
10
-232595.0
20
144075.0
30
0
11
-232595.0
21
144000.0
31
0
0
LINE
8
water
10
-232995.0
20
144000.0
30
0
11
-232595.0
21
144000.0
31
0
0
LINE
8
water
10
-232995.0
20
144000.0
30
0
11
-232995.0
21
143925.0
31
0
0
LINE
8
water
10
-232995.0
20
143925.0
30
0
11
-232995.0
21
144000.0
31
0
0
LINE
8
water
10
-232995.0
20
144000.0
30
0
11
-232995.0
21
144075.0
31
0
0
LINE
8
water
10
-232995.0
20
144075.0
30
0
11
-232995.0
21
144000.0
31
0
0
LINE
8
water
10
-232705.0
20
144000.0
30
0
11
-232767.19
21
144085.6
31
0
0
LINE
8
water
10
-232767.19
20
144085.6
30
0
11
-232867.81
21
144052.9
31
0
0
LINE
8
water
10
-232867.81
20
144052.9
30
0
11
-232867.81
21
143947.1
31
0
0
LINE
8
water
10
-232867.81
20
143947.1
30
0
11
-232767.19
21
143914.4
31
0
0
LINE
8
water
10
-232767.19
20
143914.4
30
0
11
-232705.0
21
144000.0
31
0
0
LINE
8
water
10
-232985.0
20
143975.0
30
0
11
-232985.0
21
144025.0
31
0
0
LINE
8
water
10
-232605.0
20
143975.0
30
0
11
-232605.0
21
144025.0
31
0
0
LINE
8
water
10
-232985.0
20
143975.0
30
0
11
-232605.0
21
143975.0
31
0
0
LINE
8
water
10
-232985.0
20
144025.0
30
0
11
-232605.0
21
144025.0
31
0
0
LINE
8
water
10
-232920.0
20
144000.0
30
0
11
-232920.0
21
143895.38
31
0
0
LINE
8
water
10
-232920.0
20
143895.38
30
0
11
-232920.0
21
143935.34
31
0
0
LINE
8
water
10
-232920.0
20
143935.34
30
0
11
-232920.0
21
144064.66
31
0
0
LINE
8
water
10
-232920.0
20
144064.66
30
0
11
-232920.0
21
144104.62
31
0
0
LINE
8
water
10
-232920.0
20
144104.62
30
0
11
-232920.0
21
144000.0
31
0
0
LINE
8
water
10
-232945.0
20
144000.0
30
0
11
-232920.0
21
144000.0
31
0
0
LINE
8
water
10
-232945.0
20
144000.0
30
0
11
-232945.0
21
143895.38
31
0
0
LINE
8
water
10
-232945.0
20
143895.38
30
0
11
-232945.0
21
143935.34
31
0
0
LINE
8
water
10
-232945.0
20
143935.34
30
0
11
-232945.0
21
144064.66
31
0
0
LINE
8
water
10
-232945.0
20
144064.66
30
0
11
-232945.0
21
144104.62
31
0
0
LINE
8
water
10
-232945.0
20
144104.62
30
0
11
-232945.0
21
144000.0
31
0
0
LINE
8
water
10
-232620.0
20
144000.0
30
0
11
-232620.0
21
143895.38
31
0
0
LINE
8
water
10
-232620.0
20
143895.38
30
0
11
-232620.0
21
143935.34
31
0
0
LINE
8
water
10
-232620.0
20
143935.34
30
0
11
-232620.0
21
144064.66
31
0
0
LINE
8
water
10
-232620.0
20
144064.66
30
0
11
-232620.0
21
144104.62
31
0
0
LINE
8
water
10
-232620.0
20
144104.62
30
0
11
-232620.0
21
144000.0
31
0
0
LINE
8
water
10
-232645.0
20
144000.0
30
0
11
-232620.0
21
144000.0
31
0
0
LINE
8
water
10
-232645.0
20
144000.0
30
0
11
-232645.0
21
143895.38
31
0
0
LINE
8
water
10
-232645.0
20
143895.38
30
0
11
-232645.0
21
143935.34
31
0
0
LINE
8
water
10
-232645.0
20
143935.34
30
0
11
-232645.0
21
144064.66
31
0
0
LINE
8
water
10
-232645.0
20
144064.66
30
0
11
-232645.0
21
144104.62
31
0
0
LINE
8
water
10
-232645.0
20
144104.62
30
0
11
-232645.0
21
144000.0
31
0
0
LINE
8
water
10
-233500.0
20
144000.0
30
0
11
-233469.69
21
144000.0
31
0
0
LINE
8
water
10
-233469.69
20
144000.0
30
0
11
-233530.31
21
144000.0
31
0
0
LINE
8
water
10
-233530.31
20
144000.0
30
0
11
-233500.0
21
144000.0
31
0
0
LINE
8
water
10
-233500.0
20
124000.0
30
0
11
-233500.0
21
144000.0
31
0
0
LINE
8
water
10
-233500.0
20
124000.0
30
0
11
-233469.69
21
124000.0
31
0
0
LINE
8
water
10
-233469.69
20
124000.0
30
0
11
-233530.31
21
124000.0
31
0
0
LINE
8
water
10
-233530.31
20
124000.0
30
0
11
-233500.0
21
124000.0
31
0
0
LINE
8
water
10
-231150.0
20
144000.0
30
0
11
-231150.0
21
143969.69
31
0
0
LINE
8
water
10
-231150.0
20
143969.69
30
0
11
-231150.0
21
144030.31
31
0
0
LINE
8
water
10
-231150.0
20
144030.31
30
0
11
-231150.0
21
144000.0
31
0
0
LINE
8
water
10
-233500.0
20
144000.0
30
0
11
-231150.0
21
144000.0
31
0
0
LINE
8
water
10
-233500.0
20
144000.0
30
0
11
-233500.0
21
143969.69
31
0
0
LINE
8
water
10
-233500.0
20
143969.69
30
0
11
-233500.0
21
144030.31
31
0
0
LINE
8
water
10
-233500.0
20
144030.31
30
0
11
-233500.0
21
144000.0
31
0
0
LINE
8
water
10
-231150.0
20
147600.0
30
0
11
-231119.69
21
147600.0
31
0
0
LINE
8
water
10
-231119.69
20
147600.0
30
0
11
-231180.31
21
147600.0
31
0
0
LINE
8
water
10
-231180.31
20
147600.0
30
0
11
-231150.0
21
147600.0
31
0
0
LINE
8
water
10
-231150.0
20
144000.0
30
0
11
-231150.0
21
147600.0
31
0
0
LINE
8
water
10
-231150.0
20
144000.0
30
0
11
-231119.69
21
144000.0
31
0
0
LINE
8
water
10
-231119.69
20
144000.0
30
0
11
-231180.31
21
144000.0
31
0
0
LINE
8
water
10
-231180.31
20
144000.0
30
0
11
-231150.0
21
144000.0
31
0
0
LINE
8
water
10
-231185.0
20
147600.0
30
0
11
-231132.5
21
147630.31
31
0
0
LINE
8
water
10
-231132.5
20
147630.31
30
0
11
-231132.5
21
147569.69
31
0
0
LINE
8
water
10
-231132.5
20
147569.69
30
0
11
-231185.0
21
147600.0
31
0
0
LINE
8
water
10
-233500.0
20
144000.0
30
0
11
-233462.2
21
144000.0
31
0
0
LINE
8
water
10
-233462.2
20
144000.0
30
0
11
-233500.0
21
144000.0
31
0
0
LINE
8
water
10
-231150.0
20
144000.0
30
0
11
-231112.2
21
144000.0
31
0
0
LINE
8
water
10
-231112.2
20
144000.0
30
0
11
-231150.0
21
144000.0
31
0
0
LINE
8
water
10
-231150.0
20
147600.0
30
0
11
-231112.2
21
147600.0
31
0
0
LINE
8
water
10
-231112.2
20
147600.0
30
0
11
-231150.0
21
147600.0
31
0
0
LINE
8
water
10
-232386.0
20
144000.0
30
0
11
-232386.0
21
143925.0
31
0
0
LINE
8
water
10
-232386.0
20
143925.0
30
0
11
-232386.0
21
144000.0
31
0
0
LINE
8
water
10
-232386.0
20
144000.0
30
0
11
-232386.0
21
144075.0
31
0
0
LINE
8
water
10
-232386.0
20
144075.0
30
0
11
-232386.0
21
144000.0
31
0
0
LINE
8
water
10
-232786.0
20
144000.0
30
0
11
-232386.0
21
144000.0
31
0
0
LINE
8
water
10
-232786.0
20
144000.0
30
0
11
-232786.0
21
143925.0
31
0
0
LINE
8
water
10
-232786.0
20
143925.0
30
0
11
-232786.0
21
144000.0
31
0
0
LINE
8
water
10
-232786.0
20
144000.0
30
0
11
-232786.0
21
144075.0
31
0
0
LINE
8
water
10
-232786.0
20
144075.0
30
0
11
-232786.0
21
144000.0
31
0
0
LINE
8
water
10
-232496.0
20
144000.0
30
0
11
-232558.19
21
144085.6
31
0
0
LINE
8
water
10
-232558.19
20
144085.6
30
0
11
-232658.81
21
144052.9
31
0
0
LINE
8
water
10
-232658.81
20
144052.9
30
0
11
-232658.81
21
143947.1
31
0
0
LINE
8
water
10
-232658.81
20
143947.1
30
0
11
-232558.19
21
143914.4
31
0
0
LINE
8
water
10
-232558.19
20
143914.4
30
0
11
-232496.0
21
144000.0
31
0
0
LINE
8
water
10
-232776.0
20
143975.0
30
0
11
-232776.0
21
144025.0
31
0
0
LINE
8
water
10
-232396.0
20
143975.0
30
0
11
-232396.0
21
144025.0
31
0
0
LINE
8
water
10
-232776.0
20
143975.0
30
0
11
-232396.0
21
143975.0
31
0
0
LINE
8
water
10
-232776.0
20
144025.0
30
0
11
-232396.0
21
144025.0
31
0
0
LINE
8
water
10
-232711.0
20
144000.0
30
0
11
-232711.0
21
143895.38
31
0
0
LINE
8
water
10
-232711.0
20
143895.38
30
0
11
-232711.0
21
143935.34
31
0
0
LINE
8
water
10
-232711.0
20
143935.34
30
0
11
-232711.0
21
144064.66
31
0
0
LINE
8
water
10
-232711.0
20
144064.66
30
0
11
-232711.0
21
144104.62
31
0
0
LINE
8
water
10
-232711.0
20
144104.62
30
0
11
-232711.0
21
144000.0
31
0
0
LINE
8
water
10
-232736.0
20
144000.0
30
0
11
-232711.0
21
144000.0
31
0
0
LINE
8
water
10
-232736.0
20
144000.0
30
0
11
-232736.0
21
143895.38
31
0
0
LINE
8
water
10
-232736.0
20
143895.38
30
0
11
-232736.0
21
143935.34
31
0
0
LINE
8
water
10
-232736.0
20
143935.34
30
0
11
-232736.0
21
144064.66
31
0
0
LINE
8
water
10
-232736.0
20
144064.66
30
0
11
-232736.0
21
144104.62
31
0
0
LINE
8
water
10
-232736.0
20
144104.62
30
0
11
-232736.0
21
144000.0
31
0
0
LINE
8
water
10
-232411.0
20
144000.0
30
0
11
-232411.0
21
143895.38
31
0
0
LINE
8
water
10
-232411.0
20
143895.38
30
0
11
-232411.0
21
143935.34
31
0
0
LINE
8
water
10
-232411.0
20
143935.34
30
0
11
-232411.0
21
144064.66
31
0
0
LINE
8
water
10
-232411.0
20
144064.66
30
0
11
-232411.0
21
144104.62
31
0
0
LINE
8
water
10
-232411.0
20
144104.62
30
0
11
-232411.0
21
144000.0
31
0
0
LINE
8
water
10
-232436.0
20
144000.0
30
0
11
-232411.0
21
144000.0
31
0
0
LINE
8
water
10
-232436.0
20
144000.0
30
0
11
-232436.0
21
143895.38
31
0
0
LINE
8
water
10
-232436.0
20
143895.38
30
0
11
-232436.0
21
143935.34
31
0
0
LINE
8
water
10
-232436.0
20
143935.34
30
0
11
-232436.0
21
144064.66
31
0
0
LINE
8
water
10
-232436.0
20
144064.66
30
0
11
-232436.0
21
144104.62
31
0
0
LINE
8
water
10
-232436.0
20
144104.62
30
0
11
-232436.0
21
144000.0
31
0
0
LINE
8
water
10
-233150.0
20
144000.0
30
0
11
-233119.69
21
144000.0
31
0
0
LINE
8
water
10
-233119.69
20
144000.0
30
0
11
-233180.31
21
144000.0
31
0
0
LINE
8
water
10
-233180.31
20
144000.0
30
0
11
-233150.0
21
144000.0
31
0
0
LINE
8
water
10
-233150.0
20
125000.0
30
0
11
-233150.0
21
144000.0
31
0
0
LINE
8
water
10
-233150.0
20
125000.0
30
0
11
-233119.69
21
125000.0
31
0
0
LINE
8
water
10
-233119.69
20
125000.0
30
0
11
-233180.31
21
125000.0
31
0
0
LINE
8
water
10
-233180.31
20
125000.0
30
0
11
-233150.0
21
125000.0
31
0
0
LINE
8
water
10
-231270.0
20
144000.0
30
0
11
-231270.0
21
143969.69
31
0
0
LINE
8
water
10
-231270.0
20
143969.69
30
0
11
-231270.0
21
144030.31
31
0
0
LINE
8
water
10
-231270.0
20
144030.31
30
0
11
-231270.0
21
144000.0
31
0
0
LINE
8
water
10
-233150.0
20
144000.0
30
0
11
-231270.0
21
144000.0
31
0
0
LINE
8
water
10
-233150.0
20
144000.0
30
0
11
-233150.0
21
143969.69
31
0
0
LINE
8
water
10
-233150.0
20
143969.69
30
0
11
-233150.0
21
144030.31
31
0
0
LINE
8
water
10
-233150.0
20
144030.31
30
0
11
-233150.0
21
144000.0
31
0
0
LINE
8
water
10
-231270.0
20
147600.0
30
0
11
-231239.69
21
147600.0
31
0
0
LINE
8
water
10
-231239.69
20
147600.0
30
0
11
-231300.31
21
147600.0
31
0
0
LINE
8
water
10
-231300.31
20
147600.0
30
0
11
-231270.0
21
147600.0
31
0
0
LINE
8
water
10
-231270.0
20
144000.0
30
0
11
-231270.0
21
147600.0
31
0
0
LINE
8
water
10
-231270.0
20
144000.0
30
0
11
-231239.69
21
144000.0
31
0
0
LINE
8
water
10
-231239.69
20
144000.0
30
0
11
-231300.31
21
144000.0
31
0
0
LINE
8
water
10
-231300.31
20
144000.0
30
0
11
-231270.0
21
144000.0
31
0
0
LINE
8
water
10
-231305.0
20
147600.0
30
0
11
-231252.5
21
147630.31
31
0
0
LINE
8
water
10
-231252.5
20
147630.31
30
0
11
-231252.5
21
147569.69
31
0
0
LINE
8
water
10
-231252.5
20
147569.69
30
0
11
-231305.0
21
147600.0
31
0
0
LINE
8
water
10
-233150.0
20
144000.0
30
0
11
-233112.2
21
144000.0
31
0
0
LINE
8
water
10
-233112.2
20
144000.0
30
0
11
-233150.0
21
144000.0
31
0
0
LINE
8
water
10
-231270.0
20
144000.0
30
0
11
-231232.2
21
144000.0
31
0
0
LINE
8
water
10
-231232.2
20
144000.0
30
0
11
-231270.0
21
144000.0
31
0
0
LINE
8
water
10
-231270.0
20
147600.0
30
0
11
-231232.2
21
147600.0
31
0
0
LINE
8
water
10
-231232.2
20
147600.0
30
0
11
-231270.0
21
147600.0
31
0
0
LINE
8
sensors
10
-239060.0
20
144796.0
30
0
11
-239060.0
21
144956.0
31
0
0
LINE
8
sensors
10
-238960.0
20
144796.0
30
0
11
-238960.0
21
144956.0
31
0
0
LINE
8
sensors
10
-239060.0
20
144796.0
30
0
11
-238960.0
21
144796.0
31
0
0
LINE
8
sensors
10
-239060.0
20
144956.0
30
0
11
-238960.0
21
144956.0
31
0
0
LINE
8
sensors
10
-238955.0
20
144821.0
30
0
11
-238955.0
21
144931.0
31
0
0
LINE
8
sensors
10
-238935.0
20
144821.0
30
0
11
-238935.0
21
144931.0
31
0
0
LINE
8
sensors
10
-238955.0
20
144821.0
30
0
11
-238935.0
21
144821.0
31
0
0
LINE
8
sensors
10
-238955.0
20
144931.0
30
0
11
-238935.0
21
144931.0
31
0
0
LINE
8
sensors
10
-239060.0
20
145096.0
30
0
11
-239060.0
21
145256.0
31
0
0
LINE
8
sensors
10
-238960.0
20
145096.0
30
0
11
-238960.0
21
145256.0
31
0
0
LINE
8
sensors
10
-239060.0
20
145096.0
30
0
11
-238960.0
21
145096.0
31
0
0
LINE
8
sensors
10
-239060.0
20
145256.0
30
0
11
-238960.0
21
145256.0
31
0
0
LINE
8
sensors
10
-238955.0
20
145121.0
30
0
11
-238955.0
21
145231.0
31
0
0
LINE
8
sensors
10
-238935.0
20
145121.0
30
0
11
-238935.0
21
145231.0
31
0
0
LINE
8
sensors
10
-238955.0
20
145121.0
30
0
11
-238935.0
21
145121.0
31
0
0
LINE
8
sensors
10
-238955.0
20
145231.0
30
0
11
-238935.0
21
145231.0
31
0
0
LINE
8
sensors
10
-239060.0
20
145396.0
30
0
11
-239060.0
21
145556.0
31
0
0
LINE
8
sensors
10
-238960.0
20
145396.0
30
0
11
-238960.0
21
145556.0
31
0
0
LINE
8
sensors
10
-239060.0
20
145396.0
30
0
11
-238960.0
21
145396.0
31
0
0
LINE
8
sensors
10
-239060.0
20
145556.0
30
0
11
-238960.0
21
145556.0
31
0
0
LINE
8
sensors
10
-238955.0
20
145421.0
30
0
11
-238955.0
21
145531.0
31
0
0
LINE
8
sensors
10
-238935.0
20
145421.0
30
0
11
-238935.0
21
145531.0
31
0
0
LINE
8
sensors
10
-238955.0
20
145421.0
30
0
11
-238935.0
21
145421.0
31
0
0
LINE
8
sensors
10
-238955.0
20
145531.0
30
0
11
-238935.0
21
145531.0
31
0
0
LINE
8
sensors
10
-234520.0
20
146500.0
30
0
11
-234600.0
21
146580.0
31
0
0
LINE
8
sensors
10
-234600.0
20
146580.0
30
0
11
-234680.0
21
146500.0
31
0
0
LINE
8
sensors
10
-234680.0
20
146500.0
30
0
11
-234600.0
21
146420.0
31
0
0
LINE
8
sensors
10
-234600.0
20
146420.0
30
0
11
-234520.0
21
146500.0
31
0
0
LINE
8
sensors
10
-234600.0
20
146500.0
30
0
11
-234535.0
21
146500.0
31
0
0
LINE
8
sensors
10
-234535.0
20
146500.0
30
0
11
-234600.0
21
146500.0
31
0
0
LINE
8
sensors
10
-239060.0
20
145996.0
30
0
11
-239060.0
21
146156.0
31
0
0
LINE
8
sensors
10
-238960.0
20
145996.0
30
0
11
-238960.0
21
146156.0
31
0
0
LINE
8
sensors
10
-239060.0
20
145996.0
30
0
11
-238960.0
21
145996.0
31
0
0
LINE
8
sensors
10
-239060.0
20
146156.0
30
0
11
-238960.0
21
146156.0
31
0
0
LINE
8
sensors
10
-238955.0
20
146021.0
30
0
11
-238955.0
21
146131.0
31
0
0
LINE
8
sensors
10
-238935.0
20
146021.0
30
0
11
-238935.0
21
146131.0
31
0
0
LINE
8
sensors
10
-238955.0
20
146021.0
30
0
11
-238935.0
21
146021.0
31
0
0
LINE
8
sensors
10
-238955.0
20
146131.0
30
0
11
-238935.0
21
146131.0
31
0
0
LINE
8
sensors
10
-231862.5
20
144000.0
30
0
11
-231862.5
21
143925.0
31
0
0
LINE
8
sensors
10
-231862.5
20
143925.0
30
0
11
-231862.5
21
144000.0
31
0
0
LINE
8
sensors
10
-231862.5
20
144000.0
30
0
11
-231862.5
21
144075.0
31
0
0
LINE
8
sensors
10
-231862.5
20
144075.0
30
0
11
-231862.5
21
144000.0
31
0
0
LINE
8
sensors
10
-232082.5
20
144000.0
30
0
11
-231862.5
21
144000.0
31
0
0
LINE
8
sensors
10
-232082.5
20
144000.0
30
0
11
-232082.5
21
143925.0
31
0
0
LINE
8
sensors
10
-232082.5
20
143925.0
30
0
11
-232082.5
21
144000.0
31
0
0
LINE
8
sensors
10
-232082.5
20
144000.0
30
0
11
-232082.5
21
144075.0
31
0
0
LINE
8
sensors
10
-232082.5
20
144075.0
30
0
11
-232082.5
21
144000.0
31
0
0
LINE
8
sensors
10
-232052.5
20
143930.0
30
0
11
-232052.5
21
144070.0
31
0
0
LINE
8
sensors
10
-231892.5
20
143930.0
30
0
11
-231892.5
21
144070.0
31
0
0
LINE
8
sensors
10
-232052.5
20
143930.0
30
0
11
-231892.5
21
143930.0
31
0
0
LINE
8
sensors
10
-232052.5
20
144070.0
30
0
11
-231892.5
21
144070.0
31
0
0
LINE
8
sensors
10
-231818.0
20
144000.0
30
0
11
-231818.0
21
143925.0
31
0
0
LINE
8
sensors
10
-231818.0
20
143925.0
30
0
11
-231818.0
21
144000.0
31
0
0
LINE
8
sensors
10
-231818.0
20
144000.0
30
0
11
-231818.0
21
144075.0
31
0
0
LINE
8
sensors
10
-231818.0
20
144075.0
30
0
11
-231818.0
21
144000.0
31
0
0
LINE
8
sensors
10
-232038.0
20
144000.0
30
0
11
-231818.0
21
144000.0
31
0
0
LINE
8
sensors
10
-232038.0
20
144000.0
30
0
11
-232038.0
21
143925.0
31
0
0
LINE
8
sensors
10
-232038.0
20
143925.0
30
0
11
-232038.0
21
144000.0
31
0
0
LINE
8
sensors
10
-232038.0
20
144000.0
30
0
11
-232038.0
21
144075.0
31
0
0
LINE
8
sensors
10
-232038.0
20
144075.0
30
0
11
-232038.0
21
144000.0
31
0
0
LINE
8
sensors
10
-232008.0
20
143930.0
30
0
11
-232008.0
21
144070.0
31
0
0
LINE
8
sensors
10
-231848.0
20
143930.0
30
0
11
-231848.0
21
144070.0
31
0
0
LINE
8
sensors
10
-232008.0
20
143930.0
30
0
11
-231848.0
21
143930.0
31
0
0
LINE
8
sensors
10
-232008.0
20
144070.0
30
0
11
-231848.0
21
144070.0
31
0
0
ENDSEC
0
EOF
