0
SECTION
2
HEADER
9
$ACADVER
1
AC1015
9
$INSUNITS
70
4
0
ENDSEC
0
SECTION
2
ENTITIES
0
LINE
8
interiors
10
-279000.0
20
126000.0
30
0
11
-279000.0
21
146000.0
31
0
0
LINE
8
interiors
10
-279000.0
20
126000.0
30
0
11
-265200.0
21
126000.0
31
0
0
LINE
8
interiors
10
-265200.0
20
126000.0
30
0
11
-262800.0
21
126000.0
31
0
0
LINE
8
interiors
10
-262800.0
20
126000.0
30
0
11
-249000.0
21
126000.0
31
0
0
LINE
8
interiors
10
-279000.0
20
126000.0
30
0
11
-249000.0
21
126000.0
31
0
0
LINE
8
interiors
10
-279000.0
20
146000.0
30
0
11
-249000.0
21
146000.0
31
0
0
LINE
8
interiors
10
-249000.0
20
126000.0
30
0
11
-249000.0
21
146000.0
31
0
0
LINE
8
interiors
10
-249120.0
20
126120.0
30
0
11
-278880.0
21
126120.0
31
0
0
LINE
8
interiors
10
-249120.0
20
126120.0
30
0
11
-249120.0
21
145880.0
31
0
0
LINE
8
interiors
10
-249120.0
20
145880.0
30
0
11
-278880.0
21
145880.0
31
0
0
LINE
8
interiors
10
-278880.0
20
126120.0
30
0
11
-278880.0
21
145880.0
31
0
0
LINE
8
interiors
10
-271800.0
20
146000.0
30
0
11
-256200.0
21
146000.0
31
0
0
LINE
8
interiors
10
-262800.0
20
126000.0
30
0
11
-262800.0
21
126120.0
31
0
0
LINE
8
interiors
10
-249120.0
20
126120.0
30
0
11
-262800.0
21
126120.0
31
0
0
LINE
8
interiors
10
-265200.0
20
126120.0
30
0
11
-278880.0
21
126120.0
31
0
0
LINE
8
interiors
10
-265200.0
20
126000.0
30
0
11
-265200.0
21
126120.0
31
0
0
LINE
8
interiors
10
-265200.0
20
126120.0
30
0
11
-262800.0
21
126120.0
31
0
0
LINE
8
interiors
10
-271800.0
20
145880.0
30
0
11
-256200.0
21
145880.0
31
0
0
LINE
8
interiors
10
-271800.0
20
145880.0
30
0
11
-271800.0
21
146000.0
31
0
0
LINE
8
interiors
10
-256200.0
20
145880.0
30
0
11
-256200.0
21
146000.0
31
0
0
LINE
8
interiors
10
-271800.0
20
145977.5
30
0
11
-271800.0
21
146022.5
31
0
0
LINE
8
interiors
10
-256200.0
20
145977.5
30
0
11
-256200.0
21
146022.5
31
0
0
LINE
8
interiors
10
-271800.0
20
145977.5
30
0
11
-256200.0
21
145977.5
31
0
0
LINE
8
interiors
10
-271800.0
20
146022.5
30
0
11
-256200.0
21
146022.5
31
0
0
LINE
8
interiors
10
-278875.0
20
126125.0
30
0
11
-278875.0
21
145875.0
31
0
0
LINE
8
interiors
10
-249125.0
20
126125.0
30
0
11
-249125.0
21
145875.0
31
0
0
LINE
8
interiors
10
-278875.0
20
126125.0
30
0
11
-249125.0
21
126125.0
31
0
0
LINE
8
interiors
10
-278875.0
20
145875.0
30
0
11
-249125.0
21
145875.0
31
0
0
LINE
8
interiors
10
-265155.0
20
125880.0
30
0
11
-265155.0
21
126120.0
31
0
0
LINE
8
interiors
10
-265085.0
20
125880.0
30
0
11
-265085.0
21
126120.0
31
0
0
LINE
8
interiors
10
-265155.0
20
125880.0
30
0
11
-265085.0
21
125880.0
31
0
0
LINE
8
interiors
10
-265155.0
20
126120.0
30
0
11
-265085.0
21
126120.0
31
0
0
LINE
8
interiors
10
-262915.0
20
125880.0
30
0
11
-262915.0
21
126120.0
31
0
0
LINE
8
interiors
10
-262845.0
20
125880.0
30
0
11
-262845.0
21
126120.0
31
0
0
LINE
8
interiors
10
-262915.0
20
125880.0
30
0
11
-262845.0
21
125880.0
31
0
0
LINE
8
interiors
10
-262915.0
20
126120.0
30
0
11
-262845.0
21
126120.0
31
0
0
LINE
8
interiors
10
-265150.0
20
125880.0
30
0
11
-265150.0
21
126120.0
31
0
0
LINE
8
interiors
10
-262850.0
20
125880.0
30
0
11
-262850.0
21
126120.0
31
0
0
LINE
8
interiors
10
-265150.0
20
125880.0
30
0
11
-262850.0
21
125880.0
31
0
0
LINE
8
interiors
10
-265150.0
20
126120.0
30
0
11
-262850.0
21
126120.0
31
0
0
LINE
8
interiors
10
-265069.61
20
126090.49
30
0
11
-265110.39
21
126109.51
31
0
0
LINE
8
interiors
10
-264613.18
20
127069.3
30
0
11
-264653.96
21
127088.32
31
0
0
LINE
8
interiors
10
-265069.61
20
126090.49
30
0
11
-264613.18
21
127069.3
31
0
0
LINE
8
interiors
10
-265110.39
20
126109.51
30
0
11
-264653.96
21
127088.32
31
0
0
LINE
8
interiors
10
-274040.0
20
135760.0
30
0
11
-274040.0
21
136240.0
31
0
0
LINE
8
interiors
10
-273560.0
20
135760.0
30
0
11
-273560.0
21
136240.0
31
0
0
LINE
8
interiors
10
-274040.0
20
135760.0
30
0
11
-273560.0
21
135760.0
31
0
0
LINE
8
interiors
10
-274040.0
20
136240.0
30
0
11
-273560.0
21
136240.0
31
0
0
LINE
8
interiors
10
-274040.0
20
136177.5
30
0
11
-274040.0
21
136242.5
31
0
0
LINE
8
interiors
10
-273560.0
20
136177.5
30
0
11
-273560.0
21
136242.5
31
0
0
LINE
8
interiors
10
-274040.0
20
136177.5
30
0
11
-273560.0
21
136177.5
31
0
0
LINE
8
interiors
10
-274040.0
20
136242.5
30
0
11
-273560.0
21
136242.5
31
0
0
LINE
8
interiors
10
-274007.5
20
135792.5
30
0
11
-274007.5
21
135827.5
31
0
0
LINE
8
interiors
10
-273972.5
20
135792.5
30
0
11
-273972.5
21
135827.5
31
0
0
LINE
8
interiors
10
-274007.5
20
135792.5
30
0
11
-273972.5
21
135792.5
31
0
0
LINE
8
interiors
10
-274007.5
20
135827.5
30
0
11
-273972.5
21
135827.5
31
0
0
LINE
8
interiors
10
-274007.5
20
136172.5
30
0
11
-274007.5
21
136207.5
31
0
0
LINE
8
interiors
10
-273972.5
20
136172.5
30
0
11
-273972.5
21
136207.5
31
0
0
LINE
8
interiors
10
-274007.5
20
136172.5
30
0
11
-273972.5
21
136172.5
31
0
0
LINE
8
interiors
10
-274007.5
20
136207.5
30
0
11
-273972.5
21
136207.5
31
0
0
LINE
8
interiors
10
-273627.5
20
135792.5
30
0
11
-273627.5
21
135827.5
31
0
0
LINE
8
interiors
10
-273592.5
20
135792.5
30
0
11
-273592.5
21
135827.5
31
0
0
LINE
8
interiors
10
-273627.5
20
135792.5
30
0
11
-273592.5
21
135792.5
31
0
0
LINE
8
interiors
10
-273627.5
20
135827.5
30
0
11
-273592.5
21
135827.5
31
0
0
LINE
8
interiors
10
-273627.5
20
136172.5
30
0
11
-273627.5
21
136207.5
31
0
0
LINE
8
interiors
10
-273592.5
20
136172.5
30
0
11
-273592.5
21
136207.5
31
0
0
LINE
8
interiors
10
-273627.5
20
136172.5
30
0
11
-273592.5
21
136172.5
31
0
0
LINE
8
interiors
10
-273627.5
20
136207.5
30
0
11
-273592.5
21
136207.5
31
0
0
LINE
8
interiors
10
-272800.0
20
136000.0
30
0
11
-272881.88
21
136224.98
31
0
0
LINE
8
interiors
10
-272881.88
20
136224.98
30
0
11
-273089.22
21
136344.68
31
0
0
LINE
8
interiors
10
-273089.22
20
136344.68
30
0
11
-273325.0
21
136303.11
31
0
0
LINE
8
interiors
10
-273325.0
20
136303.11
30
0
11
-273478.89
21
136119.71
31
0
0
LINE
8
interiors
10
-273478.89
20
136119.71
30
0
11
-273478.89
21
135880.29
31
0
0
LINE
8
interiors
10
-273478.89
20
135880.29
30
0
11
-273325.0
21
135696.89
31
0
0
LINE
8
interiors
10
-273325.0
20
135696.89
30
0
11
-273089.22
21
135655.32
31
0
0
LINE
8
interiors
10
-273089.22
20
135655.32
30
0
11
-272881.88
21
135775.02
31
0
0
LINE
8
interiors
10
-272881.88
20
135775.02
30
0
11
-272800.0
21
136000.0
31
0
0
LINE
8
interiors
10
-273110.0
20
136000.0
30
0
11
-273170.0
21
136034.64
31
0
0
LINE
8
interiors
10
-273170.0
20
136034.64
30
0
11
-273170.0
21
135965.36
31
0
0
LINE
8
interiors
10
-273170.0
20
135965.36
30
0
11
-273110.0
21
136000.0
31
0
0
LINE
8
interiors
10
-270720.0
20
135760.0
30
0
11
-270720.0
21
136240.0
31
0
0
LINE
8
interiors
10
-270240.0
20
135760.0
30
0
11
-270240.0
21
136240.0
31
0
0
LINE
8
interiors
10
-270720.0
20
135760.0
30
0
11
-270240.0
21
135760.0
31
0
0
LINE
8
interiors
10
-270720.0
20
136240.0
30
0
11
-270240.0
21
136240.0
31
0
0
LINE
8
interiors
10
-270720.0
20
136177.5
30
0
11
-270720.0
21
136242.5
31
0
0
LINE
8
interiors
10
-270240.0
20
136177.5
30
0
11
-270240.0
21
136242.5
31
0
0
LINE
8
interiors
10
-270720.0
20
136177.5
30
0
11
-270240.0
21
136177.5
31
0
0
LINE
8
interiors
10
-270720.0
20
136242.5
30
0
11
-270240.0
21
136242.5
31
0
0
LINE
8
interiors
10
-270687.5
20
135792.5
30
0
11
-270687.5
21
135827.5
31
0
0
LINE
8
interiors
10
-270652.5
20
135792.5
30
0
11
-270652.5
21
135827.5
31
0
0
LINE
8
interiors
10
-270687.5
20
135792.5
30
0
11
-270652.5
21
135792.5
31
0
0
LINE
8
interiors
10
-270687.5
20
135827.5
30
0
11
-270652.5
21
135827.5
31
0
0
LINE
8
interiors
10
-270687.5
20
136172.5
30
0
11
-270687.5
21
136207.5
31
0
0
LINE
8
interiors
10
-270652.5
20
136172.5
30
0
11
-270652.5
21
136207.5
31
0
0
LINE
8
interiors
10
-270687.5
20
136172.5
30
0
11
-270652.5
21
136172.5
31
0
0
LINE
8
interiors
10
-270687.5
20
136207.5
30
0
11
-270652.5
21
136207.5
31
0
0
LINE
8
interiors
10
-270307.5
20
135792.5
30
0
11
-270307.5
21
135827.5
31
0
0
LINE
8
interiors
10
-270272.5
20
135792.5
30
0
11
-270272.5
21
135827.5
31
0
0
LINE
8
interiors
10
-270307.5
20
135792.5
30
0
11
-270272.5
21
135792.5
31
0
0
LINE
8
interiors
10
-270307.5
20
135827.5
30
0
11
-270272.5
21
135827.5
31
0
0
LINE
8
interiors
10
-270307.5
20
136172.5
30
0
11
-270307.5
21
136207.5
31
0
0
LINE
8
interiors
10
-270272.5
20
136172.5
30
0
11
-270272.5
21
136207.5
31
0
0
LINE
8
interiors
10
-270307.5
20
136172.5
30
0
11
-270272.5
21
136172.5
31
0
0
LINE
8
interiors
10
-270307.5
20
136207.5
30
0
11
-270272.5
21
136207.5
31
0
0
LINE
8
interiors
10
-269480.0
20
136000.0
30
0
11
-269561.88
21
136224.98
31
0
0
LINE
8
interiors
10
-269561.88
20
136224.98
30
0
11
-269769.22
21
136344.68
31
0
0
LINE
8
interiors
10
-269769.22
20
136344.68
30
0
11
-270005.0
21
136303.11
31
0
0
LINE
8
interiors
10
-270005.0
20
136303.11
30
0
11
-270158.89
21
136119.71
31
0
0
LINE
8
interiors
10
-270158.89
20
136119.71
30
0
11
-270158.89
21
135880.29
31
0
0
LINE
8
interiors
10
-270158.89
20
135880.29
30
0
11
-270005.0
21
135696.89
31
0
0
LINE
8
interiors
10
-270005.0
20
135696.89
30
0
11
-269769.22
21
135655.32
31
0
0
LINE
8
interiors
10
-269769.22
20
135655.32
30
0
11
-269561.88
21
135775.02
31
0
0
LINE
8
interiors
10
-269561.88
20
135775.02
30
0
11
-269480.0
21
136000.0
31
0
0
LINE
8
interiors
10
-269790.0
20
136000.0
30
0
11
-269850.0
21
136034.64
31
0
0
LINE
8
interiors
10
-269850.0
20
136034.64
30
0
11
-269850.0
21
135965.36
31
0
0
LINE
8
interiors
10
-269850.0
20
135965.36
30
0
11
-269790.0
21
136000.0
31
0
0
LINE
8
interiors
10
-266400.0
20
135760.0
30
0
11
-266400.0
21
136240.0
31
0
0
LINE
8
interiors
10
-265920.0
20
135760.0
30
0
11
-265920.0
21
136240.0
31
0
0
LINE
8
interiors
10
-266400.0
20
135760.0
30
0
11
-265920.0
21
135760.0
31
0
0
LINE
8
interiors
10
-266400.0
20
136240.0
30
0
11
-265920.0
21
136240.0
31
0
0
LINE
8
interiors
10
-266400.0
20
136177.5
30
0
11
-266400.0
21
136242.5
31
0
0
LINE
8
interiors
10
-265920.0
20
136177.5
30
0
11
-265920.0
21
136242.5
31
0
0
LINE
8
interiors
10
-266400.0
20
136177.5
30
0
11
-265920.0
21
136177.5
31
0
0
LINE
8
interiors
10
-266400.0
20
136242.5
30
0
11
-265920.0
21
136242.5
31
0
0
LINE
8
interiors
10
-266367.5
20
135792.5
30
0
11
-266367.5
21
135827.5
31
0
0
LINE
8
interiors
10
-266332.5
20
135792.5
30
0
11
-266332.5
21
135827.5
31
0
0
LINE
8
interiors
10
-266367.5
20
135792.5
30
0
11
-266332.5
21
135792.5
31
0
0
LINE
8
interiors
10
-266367.5
20
135827.5
30
0
11
-266332.5
21
135827.5
31
0
0
LINE
8
interiors
10
-266367.5
20
136172.5
30
0
11
-266367.5
21
136207.5
31
0
0
LINE
8
interiors
10
-266332.5
20
136172.5
30
0
11
-266332.5
21
136207.5
31
0
0
LINE
8
interiors
10
-266367.5
20
136172.5
30
0
11
-266332.5
21
136172.5
31
0
0
LINE
8
interiors
10
-266367.5
20
136207.5
30
0
11
-266332.5
21
136207.5
31
0
0
LINE
8
interiors
10
-265987.5
20
135792.5
30
0
11
-265987.5
21
135827.5
31
0
0
LINE
8
interiors
10
-265952.5
20
135792.5
30
0
11
-265952.5
21
135827.5
31
0
0
LINE
8
interiors
10
-265987.5
20
135792.5
30
0
11
-265952.5
21
135792.5
31
0
0
LINE
8
interiors
10
-265987.5
20
135827.5
30
0
11
-265952.5
21
135827.5
31
0
0
LINE
8
interiors
10
-265987.5
20
136172.5
30
0
11
-265987.5
21
136207.5
31
0
0
LINE
8
interiors
10
-265952.5
20
136172.5
30
0
11
-265952.5
21
136207.5
31
0
0
LINE
8
interiors
10
-265987.5
20
136172.5
30
0
11
-265952.5
21
136172.5
31
0
0
LINE
8
interiors
10
-265987.5
20
136207.5
30
0
11
-265952.5
21
136207.5
31
0
0
LINE
8
interiors
10
-265160.0
20
136000.0
30
0
11
-265241.88
21
136224.98
31
0
0
LINE
8
interiors
10
-265241.88
20
136224.98
30
0
11
-265449.22
21
136344.68
31
0
0
LINE
8
interiors
10
-265449.22
20
136344.68
30
0
11
-265685.0
21
136303.11
31
0
0
LINE
8
interiors
10
-265685.0
20
136303.11
30
0
11
-265838.89
21
136119.71
31
0
0
LINE
8
interiors
10
-265838.89
20
136119.71
30
0
11
-265838.89
21
135880.29
31
0
0
LINE
8
interiors
10
-265838.89
20
135880.29
30
0
11
-265685.0
21
135696.89
31
0
0
LINE
8
interiors
10
-265685.0
20
135696.89
30
0
11
-265449.22
21
135655.32
31
0
0
LINE
8
interiors
10
-265449.22
20
135655.32
30
0
11
-265241.88
21
135775.02
31
0
0
LINE
8
interiors
10
-265241.88
20
135775.02
30
0
11
-265160.0
21
136000.0
31
0
0
LINE
8
interiors
10
-265470.0
20
136000.0
30
0
11
-265530.0
21
136034.64
31
0
0
LINE
8
interiors
10
-265530.0
20
136034.64
30
0
11
-265530.0
21
135965.36
31
0
0
LINE
8
interiors
10
-265530.0
20
135965.36
30
0
11
-265470.0
21
136000.0
31
0
0
LINE
8
interiors
10
-262080.0
20
135760.0
30
0
11
-262080.0
21
136240.0
31
0
0
LINE
8
interiors
10
-261600.0
20
135760.0
30
0
11
-261600.0
21
136240.0
31
0
0
LINE
8
interiors
10
-262080.0
20
135760.0
30
0
11
-261600.0
21
135760.0
31
0
0
LINE
8
interiors
10
-262080.0
20
136240.0
30
0
11
-261600.0
21
136240.0
31
0
0
LINE
8
interiors
10
-262080.0
20
136177.5
30
0
11
-262080.0
21
136242.5
31
0
0
LINE
8
interiors
10
-261600.0
20
136177.5
30
0
11
-261600.0
21
136242.5
31
0
0
LINE
8
interiors
10
-262080.0
20
136177.5
30
0
11
-261600.0
21
136177.5
31
0
0
LINE
8
interiors
10
-262080.0
20
136242.5
30
0
11
-261600.0
21
136242.5
31
0
0
LINE
8
interiors
10
-262047.5
20
135792.5
30
0
11
-262047.5
21
135827.5
31
0
0
LINE
8
interiors
10
-262012.5
20
135792.5
30
0
11
-262012.5
21
135827.5
31
0
0
LINE
8
interiors
10
-262047.5
20
135792.5
30
0
11
-262012.5
21
135792.5
31
0
0
LINE
8
interiors
10
-262047.5
20
135827.5
30
0
11
-262012.5
21
135827.5
31
0
0
LINE
8
interiors
10
-262047.5
20
136172.5
30
0
11
-262047.5
21
136207.5
31
0
0
LINE
8
interiors
10
-262012.5
20
136172.5
30
0
11
-262012.5
21
136207.5
31
0
0
LINE
8
interiors
10
-262047.5
20
136172.5
30
0
11
-262012.5
21
136172.5
31
0
0
LINE
8
interiors
10
-262047.5
20
136207.5
30
0
11
-262012.5
21
136207.5
31
0
0
LINE
8
interiors
10
-261667.5
20
135792.5
30
0
11
-261667.5
21
135827.5
31
0
0
LINE
8
interiors
10
-261632.5
20
135792.5
30
0
11
-261632.5
21
135827.5
31
0
0
LINE
8
interiors
10
-261667.5
20
135792.5
30
0
11
-261632.5
21
135792.5
31
0
0
LINE
8
interiors
10
-261667.5
20
135827.5
30
0
11
-261632.5
21
135827.5
31
0
0
LINE
8
interiors
10
-261667.5
20
136172.5
30
0
11
-261667.5
21
136207.5
31
0
0
LINE
8
interiors
10
-261632.5
20
136172.5
30
0
11
-261632.5
21
136207.5
31
0
0
LINE
8
interiors
10
-261667.5
20
136172.5
30
0
11
-261632.5
21
136172.5
31
0
0
LINE
8
interiors
10
-261667.5
20
136207.5
30
0
11
-261632.5
21
136207.5
31
0
0
LINE
8
interiors
10
-260840.0
20
136000.0
30
0
11
-260921.88
21
136224.98
31
0
0
LINE
8
interiors
10
-260921.88
20
136224.98
30
0
11
-261129.22
21
136344.68
31
0
0
LINE
8
interiors
10
-261129.22
20
136344.68
30
0
11
-261365.0
21
136303.11
31
0
0
LINE
8
interiors
10
-261365.0
20
136303.11
30
0
11
-261518.89
21
136119.71
31
0
0
LINE
8
interiors
10
-261518.89
20
136119.71
30
0
11
-261518.89
21
135880.29
31
0
0
LINE
8
interiors
10
-261518.89
20
135880.29
30
0
11
-261365.0
21
135696.89
31
0
0
LINE
8
interiors
10
-261365.0
20
135696.89
30
0
11
-261129.22
21
135655.32
31
0
0
LINE
8
interiors
10
-261129.22
20
135655.32
30
0
11
-260921.88
21
135775.02
31
0
0
LINE
8
interiors
10
-260921.88
20
135775.02
30
0
11
-260840.0
21
136000.0
31
0
0
LINE
8
interiors
10
-261150.0
20
136000.0
30
0
11
-261210.0
21
136034.64
31
0
0
LINE
8
interiors
10
-261210.0
20
136034.64
30
0
11
-261210.0
21
135965.36
31
0
0
LINE
8
interiors
10
-261210.0
20
135965.36
30
0
11
-261150.0
21
136000.0
31
0
0
LINE
8
interiors
10
-257760.0
20
135760.0
30
0
11
-257760.0
21
136240.0
31
0
0
LINE
8
interiors
10
-257280.0
20
135760.0
30
0
11
-257280.0
21
136240.0
31
0
0
LINE
8
interiors
10
-257760.0
20
135760.0
30
0
11
-257280.0
21
135760.0
31
0
0
LINE
8
interiors
10
-257760.0
20
136240.0
30
0
11
-257280.0
21
136240.0
31
0
0
LINE
8
interiors
10
-257760.0
20
136177.5
30
0
11
-257760.0
21
136242.5
31
0
0
LINE
8
interiors
10
-257280.0
20
136177.5
30
0
11
-257280.0
21
136242.5
31
0
0
LINE
8
interiors
10
-257760.0
20
136177.5
30
0
11
-257280.0
21
136177.5
31
0
0
LINE
8
interiors
10
-257760.0
20
136242.5
30
0
11
-257280.0
21
136242.5
31
0
0
LINE
8
interiors
10
-257727.5
20
135792.5
30
0
11
-257727.5
21
135827.5
31
0
0
LINE
8
interiors
10
-257692.5
20
135792.5
30
0
11
-257692.5
21
135827.5
31
0
0
LINE
8
interiors
10
-257727.5
20
135792.5
30
0
11
-257692.5
21
135792.5
31
0
0
LINE
8
interiors
10
-257727.5
20
135827.5
30
0
11
-257692.5
21
135827.5
31
0
0
LINE
8
interiors
10
-257727.5
20
136172.5
30
0
11
-257727.5
21
136207.5
31
0
0
LINE
8
interiors
10
-257692.5
20
136172.5
30
0
11
-257692.5
21
136207.5
31
0
0
LINE
8
interiors
10
-257727.5
20
136172.5
30
0
11
-257692.5
21
136172.5
31
0
0
LINE
8
interiors
10
-257727.5
20
136207.5
30
0
11
-257692.5
21
136207.5
31
0
0
LINE
8
interiors
10
-257347.5
20
135792.5
30
0
11
-257347.5
21
135827.5
31
0
0
LINE
8
interiors
10
-257312.5
20
135792.5
30
0
11
-257312.5
21
135827.5
31
0
0
LINE
8
interiors
10
-257347.5
20
135792.5
30
0
11
-257312.5
21
135792.5
31
0
0
LINE
8
interiors
10
-257347.5
20
135827.5
30
0
11
-257312.5
21
135827.5
31
0
0
LINE
8
interiors
10
-257347.5
20
136172.5
30
0
11
-257347.5
21
136207.5
31
0
0
LINE
8
interiors
10
-257312.5
20
136172.5
30
0
11
-257312.5
21
136207.5
31
0
0
LINE
8
interiors
10
-257347.5
20
136172.5
30
0
11
-257312.5
21
136172.5
31
0
0
LINE
8
interiors
10
-257347.5
20
136207.5
30
0
11
-257312.5
21
136207.5
31
0
0
LINE
8
interiors
10
-256520.0
20
136000.0
30
0
11
-256601.88
21
136224.98
31
0
0
LINE
8
interiors
10
-256601.88
20
136224.98
30
0
11
-256809.22
21
136344.68
31
0
0
LINE
8
interiors
10
-256809.22
20
136344.68
30
0
11
-257045.0
21
136303.11
31
0
0
LINE
8
interiors
10
-257045.0
20
136303.11
30
0
11
-257198.89
21
136119.71
31
0
0
LINE
8
interiors
10
-257198.89
20
136119.71
30
0
11
-257198.89
21
135880.29
31
0
0
LINE
8
interiors
10
-257198.89
20
135880.29
30
0
11
-257045.0
21
135696.89
31
0
0
LINE
8
interiors
10
-257045.0
20
135696.89
30
0
11
-256809.22
21
135655.32
31
0
0
LINE
8
interiors
10
-256809.22
20
135655.32
30
0
11
-256601.88
21
135775.02
31
0
0
LINE
8
interiors
10
-256601.88
20
135775.02
30
0
11
-256520.0
21
136000.0
31
0
0
LINE
8
interiors
10
-256830.0
20
136000.0
30
0
11
-256890.0
21
136034.64
31
0
0
LINE
8
interiors
10
-256890.0
20
136034.64
30
0
11
-256890.0
21
135965.36
31
0
0
LINE
8
interiors
10
-256890.0
20
135965.36
30
0
11
-256830.0
21
136000.0
31
0
0
LINE
8
interiors
10
-254440.0
20
135760.0
30
0
11
-254440.0
21
136240.0
31
0
0
LINE
8
interiors
10
-253960.0
20
135760.0
30
0
11
-253960.0
21
136240.0
31
0
0
LINE
8
interiors
10
-254440.0
20
135760.0
30
0
11
-253960.0
21
135760.0
31
0
0
LINE
8
interiors
10
-254440.0
20
136240.0
30
0
11
-253960.0
21
136240.0
31
0
0
LINE
8
interiors
10
-254440.0
20
136177.5
30
0
11
-254440.0
21
136242.5
31
0
0
LINE
8
interiors
10
-253960.0
20
136177.5
30
0
11
-253960.0
21
136242.5
31
0
0
LINE
8
interiors
10
-254440.0
20
136177.5
30
0
11
-253960.0
21
136177.5
31
0
0
LINE
8
interiors
10
-254440.0
20
136242.5
30
0
11
-253960.0
21
136242.5
31
0
0
LINE
8
interiors
10
-254407.5
20
135792.5
30
0
11
-254407.5
21
135827.5
31
0
0
LINE
8
interiors
10
-254372.5
20
135792.5
30
0
11
-254372.5
21
135827.5
31
0
0
LINE
8
interiors
10
-254407.5
20
135792.5
30
0
11
-254372.5
21
135792.5
31
0
0
LINE
8
interiors
10
-254407.5
20
135827.5
30
0
11
-254372.5
21
135827.5
31
0
0
LINE
8
interiors
10
-254407.5
20
136172.5
30
0
11
-254407.5
21
136207.5
31
0
0
LINE
8
interiors
10
-254372.5
20
136172.5
30
0
11
-254372.5
21
136207.5
31
0
0
LINE
8
interiors
10
-254407.5
20
136172.5
30
0
11
-254372.5
21
136172.5
31
0
0
LINE
8
interiors
10
-254407.5
20
136207.5
30
0
11
-254372.5
21
136207.5
31
0
0
LINE
8
interiors
10
-254027.5
20
135792.5
30
0
11
-254027.5
21
135827.5
31
0
0
LINE
8
interiors
10
-253992.5
20
135792.5
30
0
11
-253992.5
21
135827.5
31
0
0
LINE
8
interiors
10
-254027.5
20
135792.5
30
0
11
-253992.5
21
135792.5
31
0
0
LINE
8
interiors
10
-254027.5
20
135827.5
30
0
11
-253992.5
21
135827.5
31
0
0
LINE
8
interiors
10
-254027.5
20
136172.5
30
0
11
-254027.5
21
136207.5
31
0
0
LINE
8
interiors
10
-253992.5
20
136172.5
30
0
11
-253992.5
21
136207.5
31
0
0
LINE
8
interiors
10
-254027.5
20
136172.5
30
0
11
-253992.5
21
136172.5
31
0
0
LINE
8
interiors
10
-254027.5
20
136207.5
30
0
11
-253992.5
21
136207.5
31
0
0
LINE
8
interiors
10
-253200.0
20
136000.0
30
0
11
-253281.88
21
136224.98
31
0
0
LINE
8
interiors
10
-253281.88
20
136224.98
30
0
11
-253489.22
21
136344.68
31
0
0
LINE
8
interiors
10
-253489.22
20
136344.68
30
0
11
-253725.0
21
136303.11
31
0
0
LINE
8
interiors
10
-253725.0
20
136303.11
30
0
11
-253878.89
21
136119.71
31
0
0
LINE
8
interiors
10
-253878.89
20
136119.71
30
0
11
-253878.89
21
135880.29
31
0
0
LINE
8
interiors
10
-253878.89
20
135880.29
30
0
11
-253725.0
21
135696.89
31
0
0
LINE
8
interiors
10
-253725.0
20
135696.89
30
0
11
-253489.22
21
135655.32
31
0
0
LINE
8
interiors
10
-253489.22
20
135655.32
30
0
11
-253281.88
21
135775.02
31
0
0
LINE
8
interiors
10
-253281.88
20
135775.02
30
0
11
-253200.0
21
136000.0
31
0
0
LINE
8
interiors
10
-253510.0
20
136000.0
30
0
11
-253570.0
21
136034.64
31
0
0
LINE
8
interiors
10
-253570.0
20
136034.64
30
0
11
-253570.0
21
135965.36
31
0
0
LINE
8
interiors
10
-253570.0
20
135965.36
30
0
11
-253510.0
21
136000.0
31
0
0
LINE
8
electrical
10
-249725.0
20
126075.0
30
0
11
-249725.0
21
126325.0
31
0
0
LINE
8
electrical
10
-249175.0
20
126075.0
30
0
11
-249175.0
21
126325.0
31
0
0
LINE
8
electrical
10
-249725.0
20
126075.0
30
0
11
-249175.0
21
126075.0
31
0
0
LINE
8
electrical
10
-249725.0
20
126325.0
30
0
11
-249175.0
21
126325.0
31
0
0
LINE
8
electrical
10
-249685.0
20
126047.5
30
0
11
-249685.0
21
126082.5
31
0
0
LINE
8
electrical
10
-249215.0
20
126047.5
30
0
11
-249215.0
21
126082.5
31
0
0
LINE
8
electrical
10
-249685.0
20
126047.5
30
0
11
-249215.0
21
126047.5
31
0
0
LINE
8
electrical
10
-249685.0
20
126082.5
30
0
11
-249215.0
21
126082.5
31
0
0
LINE
8
electrical
10
-249637.5
20
126010.0
30
0
11
-249637.5
21
126050.0
31
0
0
LINE
8
electrical
10
-249537.5
20
126010.0
30
0
11
-249537.5
21
126050.0
31
0
0
LINE
8
electrical
10
-249637.5
20
126010.0
30
0
11
-249537.5
21
126010.0
31
0
0
LINE
8
electrical
10
-249637.5
20
126050.0
30
0
11
-249537.5
21
126050.0
31
0
0
LINE
8
electrical
10
-249500.0
20
126010.0
30
0
11
-249500.0
21
126050.0
31
0
0
LINE
8
electrical
10
-249400.0
20
126010.0
30
0
11
-249400.0
21
126050.0
31
0
0
LINE
8
electrical
10
-249500.0
20
126010.0
30
0
11
-249400.0
21
126010.0
31
0
0
LINE
8
electrical
10
-249500.0
20
126050.0
30
0
11
-249400.0
21
126050.0
31
0
0
LINE
8
electrical
10
-249362.5
20
126010.0
30
0
11
-249362.5
21
126050.0
31
0
0
LINE
8
electrical
10
-249262.5
20
126010.0
30
0
11
-249262.5
21
126050.0
31
0
0
LINE
8
electrical
10
-249362.5
20
126010.0
30
0
11
-249262.5
21
126010.0
31
0
0
LINE
8
electrical
10
-249362.5
20
126050.0
30
0
11
-249262.5
21
126050.0
31
0
0
LINE
8
electrical
10
-249587.5
20
125995.0
30
0
11
-249564.12
21
125995.0
31
0
0
LINE
8
electrical
10
-249564.12
20
125995.0
30
0
11
-249610.88
21
125995.0
31
0
0
LINE
8
electrical
10
-249610.88
20
125995.0
30
0
11
-249587.5
21
125995.0
31
0
0
LINE
8
electrical
10
-249587.5
20
126020.0
30
0
11
-249587.5
21
125995.0
31
0
0
LINE
8
electrical
10
-249587.5
20
126020.0
30
0
11
-249564.12
21
126020.0
31
0
0
LINE
8
electrical
10
-249564.12
20
126020.0
30
0
11
-249610.88
21
126020.0
31
0
0
LINE
8
electrical
10
-249610.88
20
126020.0
30
0
11
-249587.5
21
126020.0
31
0
0
LINE
8
electrical
10
-249450.0
20
125995.0
30
0
11
-249426.62
21
125995.0
31
0
0
LINE
8
electrical
10
-249426.62
20
125995.0
30
0
11
-249473.38
21
125995.0
31
0
0
LINE
8
electrical
10
-249473.38
20
125995.0
30
0
11
-249450.0
21
125995.0
31
0
0
LINE
8
electrical
10
-249450.0
20
126020.0
30
0
11
-249450.0
21
125995.0
31
0
0
LINE
8
electrical
10
-249450.0
20
126020.0
30
0
11
-249426.62
21
126020.0
31
0
0
LINE
8
electrical
10
-249426.62
20
126020.0
30
0
11
-249473.38
21
126020.0
31
0
0
LINE
8
electrical
10
-249473.38
20
126020.0
30
0
11
-249450.0
21
126020.0
31
0
0
LINE
8
electrical
10
-249312.5
20
125995.0
30
0
11
-249289.12
21
125995.0
31
0
0
LINE
8
electrical
10
-249289.12
20
125995.0
30
0
11
-249335.88
21
125995.0
31
0
0
LINE
8
electrical
10
-249335.88
20
125995.0
30
0
11
-249312.5
21
125995.0
31
0
0
LINE
8
electrical
10
-249312.5
20
126020.0
30
0
11
-249312.5
21
125995.0
31
0
0
LINE
8
electrical
10
-249312.5
20
126020.0
30
0
11
-249289.12
21
126020.0
31
0
0
LINE
8
electrical
10
-249289.12
20
126020.0
30
0
11
-249335.88
21
126020.0
31
0
0
LINE
8
electrical
10
-249335.88
20
126020.0
30
0
11
-249312.5
21
126020.0
31
0
0
LINE
8
electrical
10
-249450.0
20
126200.0
30
0
11
-249434.41
21
126200.0
31
0
0
LINE
8
electrical
10
-249434.41
20
126200.0
30
0
11
-249465.59
21
126200.0
31
0
0
LINE
8
electrical
10
-249465.59
20
126200.0
30
0
11
-249450.0
21
126200.0
31
0
0
LINE
8
electrical
10
-249450.0
20
122200.0
30
0
11
-249450.0
21
126200.0
31
0
0
LINE
8
electrical
10
-249450.0
20
122200.0
30
0
11
-249434.41
21
122200.0
31
0
0
LINE
8
electrical
10
-249434.41
20
122200.0
30
0
11
-249465.59
21
122200.0
31
0
0
LINE
8
electrical
10
-249465.59
20
122200.0
30
0
11
-249450.0
21
122200.0
31
0
0
LINE
8
electrical
10
-249468.0
20
126200.0
30
0
11
-249441.0
21
126215.59
31
0
0
LINE
8
electrical
10
-249441.0
20
126215.59
30
0
11
-249441.0
21
126184.41
31
0
0
LINE
8
electrical
10
-249441.0
20
126184.41
30
0
11
-249468.0
21
126200.0
31
0
0
LINE
8
electrical
10
-249450.0
20
126200.0
30
0
11
-249430.56
21
126200.0
31
0
0
LINE
8
electrical
10
-249430.56
20
126200.0
30
0
11
-249450.0
21
126200.0
31
0
0
LINE
8
lighting
10
-275120.0
20
128880.0
30
0
11
-275120.0
21
129520.0
31
0
0
LINE
8
lighting
10
-274480.0
20
128880.0
30
0
11
-274480.0
21
129520.0
31
0
0
LINE
8
lighting
10
-275120.0
20
128880.0
30
0
11
-274480.0
21
128880.0
31
0
0
LINE
8
lighting
10
-275120.0
20
129520.0
30
0
11
-274480.0
21
129520.0
31
0
0
LINE
8
lighting
10
-275080.0
20
128920.0
30
0
11
-275080.0
21
129480.0
31
0
0
LINE
8
lighting
10
-274520.0
20
128920.0
30
0
11
-274520.0
21
129480.0
31
0
0
LINE
8
lighting
10
-275080.0
20
128920.0
30
0
11
-274520.0
21
128920.0
31
0
0
LINE
8
lighting
10
-275080.0
20
129480.0
30
0
11
-274520.0
21
129480.0
31
0
0
LINE
8
lighting
10
-275046.0
20
128930.0
30
0
11
-275046.0
21
129470.0
31
0
0
LINE
8
lighting
10
-275034.0
20
128930.0
30
0
11
-275034.0
21
129470.0
31
0
0
LINE
8
lighting
10
-275046.0
20
128930.0
30
0
11
-275034.0
21
128930.0
31
0
0
LINE
8
lighting
10
-275046.0
20
129470.0
30
0
11
-275034.0
21
129470.0
31
0
0
LINE
8
lighting
10
-274966.0
20
128930.0
30
0
11
-274966.0
21
129470.0
31
0
0
LINE
8
lighting
10
-274954.0
20
128930.0
30
0
11
-274954.0
21
129470.0
31
0
0
LINE
8
lighting
10
-274966.0
20
128930.0
30
0
11
-274954.0
21
128930.0
31
0
0
LINE
8
lighting
10
-274966.0
20
129470.0
30
0
11
-274954.0
21
129470.0
31
0
0
LINE
8
lighting
10
-274886.0
20
128930.0
30
0
11
-274886.0
21
129470.0
31
0
0
LINE
8
lighting
10
-274874.0
20
128930.0
30
0
11
-274874.0
21
129470.0
31
0
0
LINE
8
lighting
10
-274886.0
20
128930.0
30
0
11
-274874.0
21
128930.0
31
0
0
LINE
8
lighting
10
-274886.0
20
129470.0
30
0
11
-274874.0
21
129470.0
31
0
0
LINE
8
lighting
10
-274806.0
20
128930.0
30
0
11
-274806.0
21
129470.0
31
0
0
LINE
8
lighting
10
-274794.0
20
128930.0
30
0
11
-274794.0
21
129470.0
31
0
0
LINE
8
lighting
10
-274806.0
20
128930.0
30
0
11
-274794.0
21
128930.0
31
0
0
LINE
8
lighting
10
-274806.0
20
129470.0
30
0
11
-274794.0
21
129470.0
31
0
0
LINE
8
lighting
10
-274726.0
20
128930.0
30
0
11
-274726.0
21
129470.0
31
0
0
LINE
8
lighting
10
-274714.0
20
128930.0
30
0
11
-274714.0
21
129470.0
31
0
0
LINE
8
lighting
10
-274726.0
20
128930.0
30
0
11
-274714.0
21
128930.0
31
0
0
LINE
8
lighting
10
-274726.0
20
129470.0
30
0
11
-274714.0
21
129470.0
31
0
0
LINE
8
lighting
10
-274646.0
20
128930.0
30
0
11
-274646.0
21
129470.0
31
0
0
LINE
8
lighting
10
-274634.0
20
128930.0
30
0
11
-274634.0
21
129470.0
31
0
0
LINE
8
lighting
10
-274646.0
20
128930.0
30
0
11
-274634.0
21
128930.0
31
0
0
LINE
8
lighting
10
-274646.0
20
129470.0
30
0
11
-274634.0
21
129470.0
31
0
0
LINE
8
lighting
10
-274566.0
20
128930.0
30
0
11
-274566.0
21
129470.0
31
0
0
LINE
8
lighting
10
-274554.0
20
128930.0
30
0
11
-274554.0
21
129470.0
31
0
0
LINE
8
lighting
10
-274566.0
20
128930.0
30
0
11
-274554.0
21
128930.0
31
0
0
LINE
8
lighting
10
-274566.0
20
129470.0
30
0
11
-274554.0
21
129470.0
31
0
0
LINE
8
lighting
10
-274791.0
20
129200.0
30
0
11
-274804.5
21
129207.79
31
0
0
LINE
8
lighting
10
-274804.5
20
129207.79
30
0
11
-274804.5
21
129192.21
31
0
0
LINE
8
lighting
10
-274804.5
20
129192.21
30
0
11
-274791.0
21
129200.0
31
0
0
LINE
8
lighting
10
-253520.0
20
128880.0
30
0
11
-253520.0
21
129520.0
31
0
0
LINE
8
lighting
10
-252880.0
20
128880.0
30
0
11
-252880.0
21
129520.0
31
0
0
LINE
8
lighting
10
-253520.0
20
128880.0
30
0
11
-252880.0
21
128880.0
31
0
0
LINE
8
lighting
10
-253520.0
20
129520.0
30
0
11
-252880.0
21
129520.0
31
0
0
LINE
8
lighting
10
-253480.0
20
128920.0
30
0
11
-253480.0
21
129480.0
31
0
0
LINE
8
lighting
10
-252920.0
20
128920.0
30
0
11
-252920.0
21
129480.0
31
0
0
LINE
8
lighting
10
-253480.0
20
128920.0
30
0
11
-252920.0
21
128920.0
31
0
0
LINE
8
lighting
10
-253480.0
20
129480.0
30
0
11
-252920.0
21
129480.0
31
0
0
LINE
8
lighting
10
-253446.0
20
128930.0
30
0
11
-253446.0
21
129470.0
31
0
0
LINE
8
lighting
10
-253434.0
20
128930.0
30
0
11
-253434.0
21
129470.0
31
0
0
LINE
8
lighting
10
-253446.0
20
128930.0
30
0
11
-253434.0
21
128930.0
31
0
0
LINE
8
lighting
10
-253446.0
20
129470.0
30
0
11
-253434.0
21
129470.0
31
0
0
LINE
8
lighting
10
-253366.0
20
128930.0
30
0
11
-253366.0
21
129470.0
31
0
0
LINE
8
lighting
10
-253354.0
20
128930.0
30
0
11
-253354.0
21
129470.0
31
0
0
LINE
8
lighting
10
-253366.0
20
128930.0
30
0
11
-253354.0
21
128930.0
31
0
0
LINE
8
lighting
10
-253366.0
20
129470.0
30
0
11
-253354.0
21
129470.0
31
0
0
LINE
8
lighting
10
-253286.0
20
128930.0
30
0
11
-253286.0
21
129470.0
31
0
0
LINE
8
lighting
10
-253274.0
20
128930.0
30
0
11
-253274.0
21
129470.0
31
0
0
LINE
8
lighting
10
-253286.0
20
128930.0
30
0
11
-253274.0
21
128930.0
31
0
0
LINE
8
lighting
10
-253286.0
20
129470.0
30
0
11
-253274.0
21
129470.0
31
0
0
LINE
8
lighting
10
-253206.0
20
128930.0
30
0
11
-253206.0
21
129470.0
31
0
0
LINE
8
lighting
10
-253194.0
20
128930.0
30
0
11
-253194.0
21
129470.0
31
0
0
LINE
8
lighting
10
-253206.0
20
128930.0
30
0
11
-253194.0
21
128930.0
31
0
0
LINE
8
lighting
10
-253206.0
20
129470.0
30
0
11
-253194.0
21
129470.0
31
0
0
LINE
8
lighting
10
-253126.0
20
128930.0
30
0
11
-253126.0
21
129470.0
31
0
0
LINE
8
lighting
10
-253114.0
20
128930.0
30
0
11
-253114.0
21
129470.0
31
0
0
LINE
8
lighting
10
-253126.0
20
128930.0
30
0
11
-253114.0
21
128930.0
31
0
0
LINE
8
lighting
10
-253126.0
20
129470.0
30
0
11
-253114.0
21
129470.0
31
0
0
LINE
8
lighting
10
-253046.0
20
128930.0
30
0
11
-253046.0
21
129470.0
31
0
0
LINE
8
lighting
10
-253034.0
20
128930.0
30
0
11
-253034.0
21
129470.0
31
0
0
LINE
8
lighting
10
-253046.0
20
128930.0
30
0
11
-253034.0
21
128930.0
31
0
0
LINE
8
lighting
10
-253046.0
20
129470.0
30
0
11
-253034.0
21
129470.0
31
0
0
LINE
8
lighting
10
-252966.0
20
128930.0
30
0
11
-252966.0
21
129470.0
31
0
0
LINE
8
lighting
10
-252954.0
20
128930.0
30
0
11
-252954.0
21
129470.0
31
0
0
LINE
8
lighting
10
-252966.0
20
128930.0
30
0
11
-252954.0
21
128930.0
31
0
0
LINE
8
lighting
10
-252966.0
20
129470.0
30
0
11
-252954.0
21
129470.0
31
0
0
LINE
8
lighting
10
-253191.0
20
129200.0
30
0
11
-253204.5
21
129207.79
31
0
0
LINE
8
lighting
10
-253204.5
20
129207.79
30
0
11
-253204.5
21
129192.21
31
0
0
LINE
8
lighting
10
-253204.5
20
129192.21
30
0
11
-253191.0
21
129200.0
31
0
0
LINE
8
lighting
10
-264320.0
20
128880.0
30
0
11
-264320.0
21
129520.0
31
0
0
LINE
8
lighting
10
-263680.0
20
128880.0
30
0
11
-263680.0
21
129520.0
31
0
0
LINE
8
lighting
10
-264320.0
20
128880.0
30
0
11
-263680.0
21
128880.0
31
0
0
LINE
8
lighting
10
-264320.0
20
129520.0
30
0
11
-263680.0
21
129520.0
31
0
0
LINE
8
lighting
10
-264280.0
20
128920.0
30
0
11
-264280.0
21
129480.0
31
0
0
LINE
8
lighting
10
-263720.0
20
128920.0
30
0
11
-263720.0
21
129480.0
31
0
0
LINE
8
lighting
10
-264280.0
20
128920.0
30
0
11
-263720.0
21
128920.0
31
0
0
LINE
8
lighting
10
-264280.0
20
129480.0
30
0
11
-263720.0
21
129480.0
31
0
0
LINE
8
lighting
10
-264246.0
20
128930.0
30
0
11
-264246.0
21
129470.0
31
0
0
LINE
8
lighting
10
-264234.0
20
128930.0
30
0
11
-264234.0
21
129470.0
31
0
0
LINE
8
lighting
10
-264246.0
20
128930.0
30
0
11
-264234.0
21
128930.0
31
0
0
LINE
8
lighting
10
-264246.0
20
129470.0
30
0
11
-264234.0
21
129470.0
31
0
0
LINE
8
lighting
10
-264166.0
20
128930.0
30
0
11
-264166.0
21
129470.0
31
0
0
LINE
8
lighting
10
-264154.0
20
128930.0
30
0
11
-264154.0
21
129470.0
31
0
0
LINE
8
lighting
10
-264166.0
20
128930.0
30
0
11
-264154.0
21
128930.0
31
0
0
LINE
8
lighting
10
-264166.0
20
129470.0
30
0
11
-264154.0
21
129470.0
31
0
0
LINE
8
lighting
10
-264086.0
20
128930.0
30
0
11
-264086.0
21
129470.0
31
0
0
LINE
8
lighting
10
-264074.0
20
128930.0
30
0
11
-264074.0
21
129470.0
31
0
0
LINE
8
lighting
10
-264086.0
20
128930.0
30
0
11
-264074.0
21
128930.0
31
0
0
LINE
8
lighting
10
-264086.0
20
129470.0
30
0
11
-264074.0
21
129470.0
31
0
0
LINE
8
lighting
10
-264006.0
20
128930.0
30
0
11
-264006.0
21
129470.0
31
0
0
LINE
8
lighting
10
-263994.0
20
128930.0
30
0
11
-263994.0
21
129470.0
31
0
0
LINE
8
lighting
10
-264006.0
20
128930.0
30
0
11
-263994.0
21
128930.0
31
0
0
LINE
8
lighting
10
-264006.0
20
129470.0
30
0
11
-263994.0
21
129470.0
31
0
0
LINE
8
lighting
10
-263926.0
20
128930.0
30
0
11
-263926.0
21
129470.0
31
0
0
LINE
8
lighting
10
-263914.0
20
128930.0
30
0
11
-263914.0
21
129470.0
31
0
0
LINE
8
lighting
10
-263926.0
20
128930.0
30
0
11
-263914.0
21
128930.0
31
0
0
LINE
8
lighting
10
-263926.0
20
129470.0
30
0
11
-263914.0
21
129470.0
31
0
0
LINE
8
lighting
10
-263846.0
20
128930.0
30
0
11
-263846.0
21
129470.0
31
0
0
LINE
8
lighting
10
-263834.0
20
128930.0
30
0
11
-263834.0
21
129470.0
31
0
0
LINE
8
lighting
10
-263846.0
20
128930.0
30
0
11
-263834.0
21
128930.0
31
0
0
LINE
8
lighting
10
-263846.0
20
129470.0
30
0
11
-263834.0
21
129470.0
31
0
0
LINE
8
lighting
10
-263766.0
20
128930.0
30
0
11
-263766.0
21
129470.0
31
0
0
LINE
8
lighting
10
-263754.0
20
128930.0
30
0
11
-263754.0
21
129470.0
31
0
0
LINE
8
lighting
10
-263766.0
20
128930.0
30
0
11
-263754.0
21
128930.0
31
0
0
LINE
8
lighting
10
-263766.0
20
129470.0
30
0
11
-263754.0
21
129470.0
31
0
0
LINE
8
lighting
10
-263991.0
20
129200.0
30
0
11
-264004.5
21
129207.79
31
0
0
LINE
8
lighting
10
-264004.5
20
129207.79
30
0
11
-264004.5
21
129192.21
31
0
0
LINE
8
lighting
10
-264004.5
20
129192.21
30
0
11
-263991.0
21
129200.0
31
0
0
LINE
8
lighting
10
-275120.0
20
142480.0
30
0
11
-275120.0
21
143120.0
31
0
0
LINE
8
lighting
10
-274480.0
20
142480.0
30
0
11
-274480.0
21
143120.0
31
0
0
LINE
8
lighting
10
-275120.0
20
142480.0
30
0
11
-274480.0
21
142480.0
31
0
0
LINE
8
lighting
10
-275120.0
20
143120.0
30
0
11
-274480.0
21
143120.0
31
0
0
LINE
8
lighting
10
-275080.0
20
142520.0
30
0
11
-275080.0
21
143080.0
31
0
0
LINE
8
lighting
10
-274520.0
20
142520.0
30
0
11
-274520.0
21
143080.0
31
0
0
LINE
8
lighting
10
-275080.0
20
142520.0
30
0
11
-274520.0
21
142520.0
31
0
0
LINE
8
lighting
10
-275080.0
20
143080.0
30
0
11
-274520.0
21
143080.0
31
0
0
LINE
8
lighting
10
-275046.0
20
142530.0
30
0
11
-275046.0
21
143070.0
31
0
0
LINE
8
lighting
10
-275034.0
20
142530.0
30
0
11
-275034.0
21
143070.0
31
0
0
LINE
8
lighting
10
-275046.0
20
142530.0
30
0
11
-275034.0
21
142530.0
31
0
0
LINE
8
lighting
10
-275046.0
20
143070.0
30
0
11
-275034.0
21
143070.0
31
0
0
LINE
8
lighting
10
-274966.0
20
142530.0
30
0
11
-274966.0
21
143070.0
31
0
0
LINE
8
lighting
10
-274954.0
20
142530.0
30
0
11
-274954.0
21
143070.0
31
0
0
LINE
8
lighting
10
-274966.0
20
142530.0
30
0
11
-274954.0
21
142530.0
31
0
0
LINE
8
lighting
10
-274966.0
20
143070.0
30
0
11
-274954.0
21
143070.0
31
0
0
LINE
8
lighting
10
-274886.0
20
142530.0
30
0
11
-274886.0
21
143070.0
31
0
0
LINE
8
lighting
10
-274874.0
20
142530.0
30
0
11
-274874.0
21
143070.0
31
0
0
LINE
8
lighting
10
-274886.0
20
142530.0
30
0
11
-274874.0
21
142530.0
31
0
0
LINE
8
lighting
10
-274886.0
20
143070.0
30
0
11
-274874.0
21
143070.0
31
0
0
LINE
8
lighting
10
-274806.0
20
142530.0
30
0
11
-274806.0
21
143070.0
31
0
0
LINE
8
lighting
10
-274794.0
20
142530.0
30
0
11
-274794.0
21
143070.0
31
0
0
LINE
8
lighting
10
-274806.0
20
142530.0
30
0
11
-274794.0
21
142530.0
31
0
0
LINE
8
lighting
10
-274806.0
20
143070.0
30
0
11
-274794.0
21
143070.0
31
0
0
LINE
8
lighting
10
-274726.0
20
142530.0
30
0
11
-274726.0
21
143070.0
31
0
0
LINE
8
lighting
10
-274714.0
20
142530.0
30
0
11
-274714.0
21
143070.0
31
0
0
LINE
8
lighting
10
-274726.0
20
142530.0
30
0
11
-274714.0
21
142530.0
31
0
0
LINE
8
lighting
10
-274726.0
20
143070.0
30
0
11
-274714.0
21
143070.0
31
0
0
LINE
8
lighting
10
-274646.0
20
142530.0
30
0
11
-274646.0
21
143070.0
31
0
0
LINE
8
lighting
10
-274634.0
20
142530.0
30
0
11
-274634.0
21
143070.0
31
0
0
LINE
8
lighting
10
-274646.0
20
142530.0
30
0
11
-274634.0
21
142530.0
31
0
0
LINE
8
lighting
10
-274646.0
20
143070.0
30
0
11
-274634.0
21
143070.0
31
0
0
LINE
8
lighting
10
-274566.0
20
142530.0
30
0
11
-274566.0
21
143070.0
31
0
0
LINE
8
lighting
10
-274554.0
20
142530.0
30
0
11
-274554.0
21
143070.0
31
0
0
LINE
8
lighting
10
-274566.0
20
142530.0
30
0
11
-274554.0
21
142530.0
31
0
0
LINE
8
lighting
10
-274566.0
20
143070.0
30
0
11
-274554.0
21
143070.0
31
0
0
LINE
8
lighting
10
-274791.0
20
142800.0
30
0
11
-274804.5
21
142807.79
31
0
0
LINE
8
lighting
10
-274804.5
20
142807.79
30
0
11
-274804.5
21
142792.21
31
0
0
LINE
8
lighting
10
-274804.5
20
142792.21
30
0
11
-274791.0
21
142800.0
31
0
0
LINE
8
lighting
10
-253520.0
20
142480.0
30
0
11
-253520.0
21
143120.0
31
0
0
LINE
8
lighting
10
-252880.0
20
142480.0
30
0
11
-252880.0
21
143120.0
31
0
0
LINE
8
lighting
10
-253520.0
20
142480.0
30
0
11
-252880.0
21
142480.0
31
0
0
LINE
8
lighting
10
-253520.0
20
143120.0
30
0
11
-252880.0
21
143120.0
31
0
0
LINE
8
lighting
10
-253480.0
20
142520.0
30
0
11
-253480.0
21
143080.0
31
0
0
LINE
8
lighting
10
-252920.0
20
142520.0
30
0
11
-252920.0
21
143080.0
31
0
0
LINE
8
lighting
10
-253480.0
20
142520.0
30
0
11
-252920.0
21
142520.0
31
0
0
LINE
8
lighting
10
-253480.0
20
143080.0
30
0
11
-252920.0
21
143080.0
31
0
0
LINE
8
lighting
10
-253446.0
20
142530.0
30
0
11
-253446.0
21
143070.0
31
0
0
LINE
8
lighting
10
-253434.0
20
142530.0
30
0
11
-253434.0
21
143070.0
31
0
0
LINE
8
lighting
10
-253446.0
20
142530.0
30
0
11
-253434.0
21
142530.0
31
0
0
LINE
8
lighting
10
-253446.0
20
143070.0
30
0
11
-253434.0
21
143070.0
31
0
0
LINE
8
lighting
10
-253366.0
20
142530.0
30
0
11
-253366.0
21
143070.0
31
0
0
LINE
8
lighting
10
-253354.0
20
142530.0
30
0
11
-253354.0
21
143070.0
31
0
0
LINE
8
lighting
10
-253366.0
20
142530.0
30
0
11
-253354.0
21
142530.0
31
0
0
LINE
8
lighting
10
-253366.0
20
143070.0
30
0
11
-253354.0
21
143070.0
31
0
0
LINE
8
lighting
10
-253286.0
20
142530.0
30
0
11
-253286.0
21
143070.0
31
0
0
LINE
8
lighting
10
-253274.0
20
142530.0
30
0
11
-253274.0
21
143070.0
31
0
0
LINE
8
lighting
10
-253286.0
20
142530.0
30
0
11
-253274.0
21
142530.0
31
0
0
LINE
8
lighting
10
-253286.0
20
143070.0
30
0
11
-253274.0
21
143070.0
31
0
0
LINE
8
lighting
10
-253206.0
20
142530.0
30
0
11
-253206.0
21
143070.0
31
0
0
LINE
8
lighting
10
-253194.0
20
142530.0
30
0
11
-253194.0
21
143070.0
31
0
0
LINE
8
lighting
10
-253206.0
20
142530.0
30
0
11
-253194.0
21
142530.0
31
0
0
LINE
8
lighting
10
-253206.0
20
143070.0
30
0
11
-253194.0
21
143070.0
31
0
0
LINE
8
lighting
10
-253126.0
20
142530.0
30
0
11
-253126.0
21
143070.0
31
0
0
LINE
8
lighting
10
-253114.0
20
142530.0
30
0
11
-253114.0
21
143070.0
31
0
0
LINE
8
lighting
10
-253126.0
20
142530.0
30
0
11
-253114.0
21
142530.0
31
0
0
LINE
8
lighting
10
-253126.0
20
143070.0
30
0
11
-253114.0
21
143070.0
31
0
0
LINE
8
lighting
10
-253046.0
20
142530.0
30
0
11
-253046.0
21
143070.0
31
0
0
LINE
8
lighting
10
-253034.0
20
142530.0
30
0
11
-253034.0
21
143070.0
31
0
0
LINE
8
lighting
10
-253046.0
20
142530.0
30
0
11
-253034.0
21
142530.0
31
0
0
LINE
8
lighting
10
-253046.0
20
143070.0
30
0
11
-253034.0
21
143070.0
31
0
0
LINE
8
lighting
10
-252966.0
20
142530.0
30
0
11
-252966.0
21
143070.0
31
0
0
LINE
8
lighting
10
-252954.0
20
142530.0
30
0
11
-252954.0
21
143070.0
31
0
0
LINE
8
lighting
10
-252966.0
20
142530.0
30
0
11
-252954.0
21
142530.0
31
0
0
LINE
8
lighting
10
-252966.0
20
143070.0
30
0
11
-252954.0
21
143070.0
31
0
0
LINE
8
lighting
10
-253191.0
20
142800.0
30
0
11
-253204.5
21
142807.79
31
0
0
LINE
8
lighting
10
-253204.5
20
142807.79
30
0
11
-253204.5
21
142792.21
31
0
0
LINE
8
lighting
10
-253204.5
20
142792.21
30
0
11
-253191.0
21
142800.0
31
0
0
LINE
8
lighting
10
-264320.0
20
142480.0
30
0
11
-264320.0
21
143120.0
31
0
0
LINE
8
lighting
10
-263680.0
20
142480.0
30
0
11
-263680.0
21
143120.0
31
0
0
LINE
8
lighting
10
-264320.0
20
142480.0
30
0
11
-263680.0
21
142480.0
31
0
0
LINE
8
lighting
10
-264320.0
20
143120.0
30
0
11
-263680.0
21
143120.0
31
0
0
LINE
8
lighting
10
-264280.0
20
142520.0
30
0
11
-264280.0
21
143080.0
31
0
0
LINE
8
lighting
10
-263720.0
20
142520.0
30
0
11
-263720.0
21
143080.0
31
0
0
LINE
8
lighting
10
-264280.0
20
142520.0
30
0
11
-263720.0
21
142520.0
31
0
0
LINE
8
lighting
10
-264280.0
20
143080.0
30
0
11
-263720.0
21
143080.0
31
0
0
LINE
8
lighting
10
-264246.0
20
142530.0
30
0
11
-264246.0
21
143070.0
31
0
0
LINE
8
lighting
10
-264234.0
20
142530.0
30
0
11
-264234.0
21
143070.0
31
0
0
LINE
8
lighting
10
-264246.0
20
142530.0
30
0
11
-264234.0
21
142530.0
31
0
0
LINE
8
lighting
10
-264246.0
20
143070.0
30
0
11
-264234.0
21
143070.0
31
0
0
LINE
8
lighting
10
-264166.0
20
142530.0
30
0
11
-264166.0
21
143070.0
31
0
0
LINE
8
lighting
10
-264154.0
20
142530.0
30
0
11
-264154.0
21
143070.0
31
0
0
LINE
8
lighting
10
-264166.0
20
142530.0
30
0
11
-264154.0
21
142530.0
31
0
0
LINE
8
lighting
10
-264166.0
20
143070.0
30
0
11
-264154.0
21
143070.0
31
0
0
LINE
8
lighting
10
-264086.0
20
142530.0
30
0
11
-264086.0
21
143070.0
31
0
0
LINE
8
lighting
10
-264074.0
20
142530.0
30
0
11
-264074.0
21
143070.0
31
0
0
LINE
8
lighting
10
-264086.0
20
142530.0
30
0
11
-264074.0
21
142530.0
31
0
0
LINE
8
lighting
10
-264086.0
20
143070.0
30
0
11
-264074.0
21
143070.0
31
0
0
LINE
8
lighting
10
-264006.0
20
142530.0
30
0
11
-264006.0
21
143070.0
31
0
0
LINE
8
lighting
10
-263994.0
20
142530.0
30
0
11
-263994.0
21
143070.0
31
0
0
LINE
8
lighting
10
-264006.0
20
142530.0
30
0
11
-263994.0
21
142530.0
31
0
0
LINE
8
lighting
10
-264006.0
20
143070.0
30
0
11
-263994.0
21
143070.0
31
0
0
LINE
8
lighting
10
-263926.0
20
142530.0
30
0
11
-263926.0
21
143070.0
31
0
0
LINE
8
lighting
10
-263914.0
20
142530.0
30
0
11
-263914.0
21
143070.0
31
0
0
LINE
8
lighting
10
-263926.0
20
142530.0
30
0
11
-263914.0
21
142530.0
31
0
0
LINE
8
lighting
10
-263926.0
20
143070.0
30
0
11
-263914.0
21
143070.0
31
0
0
LINE
8
lighting
10
-263846.0
20
142530.0
30
0
11
-263846.0
21
143070.0
31
0
0
LINE
8
lighting
10
-263834.0
20
142530.0
30
0
11
-263834.0
21
143070.0
31
0
0
LINE
8
lighting
10
-263846.0
20
142530.0
30
0
11
-263834.0
21
142530.0
31
0
0
LINE
8
lighting
10
-263846.0
20
143070.0
30
0
11
-263834.0
21
143070.0
31
0
0
LINE
8
lighting
10
-263766.0
20
142530.0
30
0
11
-263766.0
21
143070.0
31
0
0
LINE
8
lighting
10
-263754.0
20
142530.0
30
0
11
-263754.0
21
143070.0
31
0
0
LINE
8
lighting
10
-263766.0
20
142530.0
30
0
11
-263754.0
21
142530.0
31
0
0
LINE
8
lighting
10
-263766.0
20
143070.0
30
0
11
-263754.0
21
143070.0
31
0
0
LINE
8
lighting
10
-263991.0
20
142800.0
30
0
11
-264004.5
21
142807.79
31
0
0
LINE
8
lighting
10
-264004.5
20
142807.79
30
0
11
-264004.5
21
142792.21
31
0
0
LINE
8
lighting
10
-264004.5
20
142792.21
30
0
11
-263991.0
21
142800.0
31
0
0
LINE
8
electrical
10
-274800.0
20
128880.0
30
0
11
-274800.0
21
128872.21
31
0
0
LINE
8
electrical
10
-274800.0
20
128872.21
30
0
11
-274800.0
21
128887.79
31
0
0
LINE
8
electrical
10
-274800.0
20
128887.79
30
0
11
-274800.0
21
128880.0
31
0
0
LINE
8
electrical
10
-249450.0
20
128880.0
30
0
11
-274800.0
21
128880.0
31
0
0
LINE
8
electrical
10
-249450.0
20
128880.0
30
0
11
-249450.0
21
128872.21
31
0
0
LINE
8
electrical
10
-249450.0
20
128872.21
30
0
11
-249450.0
21
128887.79
31
0
0
LINE
8
electrical
10
-249450.0
20
128887.79
30
0
11
-249450.0
21
128880.0
31
0
0
LINE
8
electrical
10
-274800.0
20
142800.0
30
0
11
-274792.21
21
142800.0
31
0
0
LINE
8
electrical
10
-274792.21
20
142800.0
30
0
11
-274807.79
21
142800.0
31
0
0
LINE
8
electrical
10
-274807.79
20
142800.0
30
0
11
-274800.0
21
142800.0
31
0
0
LINE
8
electrical
10
-274800.0
20
128880.0
30
0
11
-274800.0
21
142800.0
31
0
0
LINE
8
electrical
10
-274800.0
20
128880.0
30
0
11
-274792.21
21
128880.0
31
0
0
LINE
8
electrical
10
-274792.21
20
128880.0
30
0
11
-274807.79
21
128880.0
31
0
0
LINE
8
electrical
10
-274807.79
20
128880.0
30
0
11
-274800.0
21
128880.0
31
0
0
LINE
8
electrical
10
-253200.0
20
142800.0
30
0
11
-253192.21
21
142800.0
31
0
0
LINE
8
electrical
10
-253192.21
20
142800.0
30
0
11
-253207.79
21
142800.0
31
0
0
LINE
8
electrical
10
-253207.79
20
142800.0
30
0
11
-253200.0
21
142800.0
31
0
0
LINE
8
electrical
10
-253200.0
20
128880.0
30
0
11
-253200.0
21
142800.0
31
0
0
LINE
8
electrical
10
-253200.0
20
128880.0
30
0
11
-253192.21
21
128880.0
31
0
0
LINE
8
electrical
10
-253192.21
20
128880.0
30
0
11
-253207.79
21
128880.0
31
0
0
LINE
8
electrical
10
-253207.79
20
128880.0
30
0
11
-253200.0
21
128880.0
31
0
0
LINE
8
electrical
10
-264000.0
20
142800.0
30
0
11
-263992.21
21
142800.0
31
0
0
LINE
8
electrical
10
-263992.21
20
142800.0
30
0
11
-264007.79
21
142800.0
31
0
0
LINE
8
electrical
10
-264007.79
20
142800.0
30
0
11
-264000.0
21
142800.0
31
0
0
LINE
8
electrical
10
-264000.0
20
128880.0
30
0
11
-264000.0
21
142800.0
31
0
0
LINE
8
electrical
10
-264000.0
20
128880.0
30
0
11
-263992.21
21
128880.0
31
0
0
LINE
8
electrical
10
-263992.21
20
128880.0
30
0
11
-264007.79
21
128880.0
31
0
0
LINE
8
electrical
10
-264007.79
20
128880.0
30
0
11
-264000.0
21
128880.0
31
0
0
LINE
8
electrical
10
-249437.0
20
126200.0
30
0
11
-249456.5
21
126211.26
31
0
0
LINE
8
electrical
10
-249456.5
20
126211.26
30
0
11
-249456.5
21
126188.74
31
0
0
LINE
8
electrical
10
-249456.5
20
126188.74
30
0
11
-249437.0
21
126200.0
31
0
0
LINE
8
electrical
10
-253507.17
20
128869.16
30
0
11
-253496.41
21
128885.42
31
0
0
LINE
8
electrical
10
-253496.41
20
128885.42
30
0
11
-253496.41
21
128885.42
31
0
0
LINE
8
electrical
10
-253496.41
20
128885.42
30
0
11
-253507.17
21
128869.16
31
0
0
LINE
8
electrical
10
-249457.17
20
126189.16
30
0
11
-253507.17
21
128869.16
31
0
0
LINE
8
electrical
10
-249457.17
20
126189.16
30
0
11
-249446.41
21
126205.42
31
0
0
LINE
8
electrical
10
-249446.41
20
126205.42
30
0
11
-249446.41
21
126205.42
31
0
0
LINE
8
electrical
10
-249446.41
20
126205.42
30
0
11
-249457.17
21
126189.16
31
0
0
LINE
8
electrical
10
-274500.0
20
128880.0
30
0
11
-274500.0
21
128868.74
31
0
0
LINE
8
electrical
10
-274500.0
20
128868.74
30
0
11
-274500.0
21
128891.26
31
0
0
LINE
8
electrical
10
-274500.0
20
128891.26
30
0
11
-274500.0
21
128880.0
31
0
0
LINE
8
electrical
10
-253500.0
20
128880.0
30
0
11
-274500.0
21
128880.0
31
0
0
LINE
8
electrical
10
-253500.0
20
128880.0
30
0
11
-253500.0
21
128868.74
31
0
0
LINE
8
electrical
10
-253500.0
20
128868.74
30
0
11
-253500.0
21
128891.26
31
0
0
LINE
8
electrical
10
-253500.0
20
128891.26
30
0
11
-253500.0
21
128880.0
31
0
0
LINE
8
electrical
10
-249450.0
20
126200.0
30
0
11
-249435.96
21
126200.0
31
0
0
LINE
8
electrical
10
-249435.96
20
126200.0
30
0
11
-249450.0
21
126200.0
31
0
0
LINE
8
electrical
10
-253500.0
20
128880.0
30
0
11
-253485.96
21
128880.0
31
0
0
LINE
8
electrical
10
-253485.96
20
128880.0
30
0
11
-253500.0
21
128880.0
31
0
0
LINE
8
electrical
10
-249437.0
20
126200.0
30
0
11
-249456.5
21
126211.26
31
0
0
LINE
8
electrical
10
-249456.5
20
126211.26
30
0
11
-249456.5
21
126188.74
31
0
0
LINE
8
electrical
10
-249456.5
20
126188.74
30
0
11
-249437.0
21
126200.0
31
0
0
LINE
8
electrical
10
-253507.39
20
128989.31
30
0
11
-253496.3
21
129005.35
31
0
0
LINE
8
electrical
10
-253496.3
20
129005.35
30
0
11
-253496.3
21
129005.35
31
0
0
LINE
8
electrical
10
-253496.3
20
129005.35
30
0
11
-253507.39
21
128989.31
31
0
0
LINE
8
electrical
10
-249457.39
20
126189.31
30
0
11
-253507.39
21
128989.31
31
0
0
LINE
8
electrical
10
-249457.39
20
126189.31
30
0
11
-249446.3
21
126205.35
31
0
0
LINE
8
electrical
10
-249446.3
20
126205.35
30
0
11
-249446.3
21
126205.35
31
0
0
LINE
8
electrical
10
-249446.3
20
126205.35
30
0
11
-249457.39
21
126189.31
31
0
0
LINE
8
electrical
10
-274500.0
20
129000.0
30
0
11
-274500.0
21
128988.74
31
0
0
LINE
8
electrical
10
-274500.0
20
128988.74
30
0
11
-274500.0
21
129011.26
31
0
0
LINE
8
electrical
10
-274500.0
20
129011.26
30
0
11
-274500.0
21
129000.0
31
0
0
LINE
8
electrical
10
-253500.0
20
129000.0
30
0
11
-274500.0
21
129000.0
31
0
0
LINE
8
electrical
10
-253500.0
20
129000.0
30
0
11
-253500.0
21
128988.74
31
0
0
LINE
8
electrical
10
-253500.0
20
128988.74
30
0
11
-253500.0
21
129011.26
31
0
0
LINE
8
electrical
10
-253500.0
20
129011.26
30
0
11
-253500.0
21
129000.0
31
0
0
LINE
8
electrical
10
-249450.0
20
126200.0
30
0
11
-249435.96
21
126200.0
31
0
0
LINE
8
electrical
10
-249435.96
20
126200.0
30
0
11
-249450.0
21
126200.0
31
0
0
LINE
8
electrical
10
-253500.0
20
129000.0
30
0
11
-253485.96
21
129000.0
31
0
0
LINE
8
electrical
10
-253485.96
20
129000.0
30
0
11
-253500.0
21
129000.0
31
0
0
LINE
8
electrical
10
-249437.0
20
126200.0
30
0
11
-249456.5
21
126211.26
31
0
0
LINE
8
electrical
10
-249456.5
20
126211.26
30
0
11
-249456.5
21
126188.74
31
0
0
LINE
8
electrical
10
-249456.5
20
126188.74
30
0
11
-249437.0
21
126200.0
31
0
0
LINE
8
electrical
10
-253507.6
20
129109.45
30
0
11
-253496.2
21
129125.27
31
0
0
LINE
8
electrical
10
-253496.2
20
129125.27
30
0
11
-253496.2
21
129125.27
31
0
0
LINE
8
electrical
10
-253496.2
20
129125.27
30
0
11
-253507.6
21
129109.45
31
0
0
LINE
8
electrical
10
-249457.6
20
126189.45
30
0
11
-253507.6
21
129109.45
31
0
0
LINE
8
electrical
10
-249457.6
20
126189.45
30
0
11
-249446.2
21
126205.27
31
0
0
LINE
8
electrical
10
-249446.2
20
126205.27
30
0
11
-249446.2
21
126205.27
31
0
0
LINE
8
electrical
10
-249446.2
20
126205.27
30
0
11
-249457.6
21
126189.45
31
0
0
LINE
8
electrical
10
-274500.0
20
129120.0
30
0
11
-274500.0
21
129108.74
31
0
0
LINE
8
electrical
10
-274500.0
20
129108.74
30
0
11
-274500.0
21
129131.26
31
0
0
LINE
8
electrical
10
-274500.0
20
129131.26
30
0
11
-274500.0
21
129120.0
31
0
0
LINE
8
electrical
10
-253500.0
20
129120.0
30
0
11
-274500.0
21
129120.0
31
0
0
LINE
8
electrical
10
-253500.0
20
129120.0
30
0
11
-253500.0
21
129108.74
31
0
0
LINE
8
electrical
10
-253500.0
20
129108.74
30
0
11
-253500.0
21
129131.26
31
0
0
LINE
8
electrical
10
-253500.0
20
129131.26
30
0
11
-253500.0
21
129120.0
31
0
0
LINE
8
electrical
10
-249450.0
20
126200.0
30
0
11
-249435.96
21
126200.0
31
0
0
LINE
8
electrical
10
-249435.96
20
126200.0
30
0
11
-249450.0
21
126200.0
31
0
0
LINE
8
electrical
10
-253500.0
20
129120.0
30
0
11
-253485.96
21
129120.0
31
0
0
LINE
8
electrical
10
-253485.96
20
129120.0
30
0
11
-253500.0
21
129120.0
31
0
0
LINE
8
electrical
10
-273065.0
20
126150.0
30
0
11
-273065.0
21
126210.0
31
0
0
LINE
8
electrical
10
-272935.0
20
126150.0
30
0
11
-272935.0
21
126210.0
31
0
0
LINE
8
electrical
10
-273065.0
20
126150.0
30
0
11
-272935.0
21
126150.0
31
0
0
LINE
8
electrical
10
-273065.0
20
126210.0
30
0
11
-272935.0
21
126210.0
31
0
0
LINE
8
electrical
10
-272991.0
20
126180.0
30
0
11
-273004.5
21
126187.79
31
0
0
LINE
8
electrical
10
-273004.5
20
126187.79
30
0
11
-273004.5
21
126172.21
31
0
0
LINE
8
electrical
10
-273004.5
20
126172.21
30
0
11
-272991.0
21
126180.0
31
0
0
LINE
8
electrical
10
-249450.0
20
126180.0
30
0
11
-249450.0
21
126172.21
31
0
0
LINE
8
electrical
10
-249450.0
20
126172.21
30
0
11
-249450.0
21
126187.79
31
0
0
LINE
8
electrical
10
-249450.0
20
126187.79
30
0
11
-249450.0
21
126180.0
31
0
0
LINE
8
electrical
10
-273000.0
20
126180.0
30
0
11
-249450.0
21
126180.0
31
0
0
LINE
8
electrical
10
-273000.0
20
126180.0
30
0
11
-273000.0
21
126172.21
31
0
0
LINE
8
electrical
10
-273000.0
20
126172.21
30
0
11
-273000.0
21
126187.79
31
0
0
LINE
8
electrical
10
-273000.0
20
126187.79
30
0
11
-273000.0
21
126180.0
31
0
0
LINE
8
electrical
10
-273000.0
20
126180.0
30
0
11
-272990.28
21
126180.0
31
0
0
LINE
8
electrical
10
-272990.28
20
126180.0
30
0
11
-273000.0
21
126180.0
31
0
0
LINE
8
electrical
10
-255065.0
20
126150.0
30
0
11
-255065.0
21
126210.0
31
0
0
LINE
8
electrical
10
-254935.0
20
126150.0
30
0
11
-254935.0
21
126210.0
31
0
0
LINE
8
electrical
10
-255065.0
20
126150.0
30
0
11
-254935.0
21
126150.0
31
0
0
LINE
8
electrical
10
-255065.0
20
126210.0
30
0
11
-254935.0
21
126210.0
31
0
0
LINE
8
electrical
10
-254991.0
20
126180.0
30
0
11
-255004.5
21
126187.79
31
0
0
LINE
8
electrical
10
-255004.5
20
126187.79
30
0
11
-255004.5
21
126172.21
31
0
0
LINE
8
electrical
10
-255004.5
20
126172.21
30
0
11
-254991.0
21
126180.0
31
0
0
LINE
8
electrical
10
-249450.0
20
126180.0
30
0
11
-249450.0
21
126172.21
31
0
0
LINE
8
electrical
10
-249450.0
20
126172.21
30
0
11
-249450.0
21
126187.79
31
0
0
LINE
8
electrical
10
-249450.0
20
126187.79
30
0
11
-249450.0
21
126180.0
31
0
0
LINE
8
electrical
10
-255000.0
20
126180.0
30
0
11
-249450.0
21
126180.0
31
0
0
LINE
8
electrical
10
-255000.0
20
126180.0
30
0
11
-255000.0
21
126172.21
31
0
0
LINE
8
electrical
10
-255000.0
20
126172.21
30
0
11
-255000.0
21
126187.79
31
0
0
LINE
8
electrical
10
-255000.0
20
126187.79
30
0
11
-255000.0
21
126180.0
31
0
0
LINE
8
electrical
10
-255000.0
20
126180.0
30
0
11
-254990.28
21
126180.0
31
0
0
LINE
8
electrical
10
-254990.28
20
126180.0
30
0
11
-255000.0
21
126180.0
31
0
0
LINE
8
hvac
10
-278525.0
20
126725.0
30
0
11
-278525.0
21
127475.0
31
0
0
LINE
8
hvac
10
-276875.0
20
126725.0
30
0
11
-276875.0
21
127475.0
31
0
0
LINE
8
hvac
10
-278525.0
20
126725.0
30
0
11
-276875.0
21
126725.0
31
0
0
LINE
8
hvac
10
-278525.0
20
127475.0
30
0
11
-276875.0
21
127475.0
31
0
0
LINE
8
hvac
10
-278425.0
20
126680.0
30
0
11
-278425.0
21
126720.0
31
0
0
LINE
8
hvac
10
-276975.0
20
126680.0
30
0
11
-276975.0
21
126720.0
31
0
0
LINE
8
hvac
10
-278425.0
20
126680.0
30
0
11
-276975.0
21
126680.0
31
0
0
LINE
8
hvac
10
-278425.0
20
126720.0
30
0
11
-276975.0
21
126720.0
31
0
0
LINE
8
hvac
10
-278360.0
20
126640.0
30
0
11
-278360.0
21
126700.0
31
0
0
LINE
8
hvac
10
-278320.0
20
126640.0
30
0
11
-278320.0
21
126700.0
31
0
0
LINE
8
hvac
10
-278360.0
20
126640.0
30
0
11
-278320.0
21
126640.0
31
0
0
LINE
8
hvac
10
-278360.0
20
126700.0
30
0
11
-278320.0
21
126700.0
31
0
0
LINE
8
hvac
10
-278200.0
20
126640.0
30
0
11
-278200.0
21
126700.0
31
0
0
LINE
8
hvac
10
-278160.0
20
126640.0
30
0
11
-278160.0
21
126700.0
31
0
0
LINE
8
hvac
10
-278200.0
20
126640.0
30
0
11
-278160.0
21
126640.0
31
0
0
LINE
8
hvac
10
-278200.0
20
126700.0
30
0
11
-278160.0
21
126700.0
31
0
0
LINE
8
hvac
10
-278040.0
20
126640.0
30
0
11
-278040.0
21
126700.0
31
0
0
LINE
8
hvac
10
-278000.0
20
126640.0
30
0
11
-278000.0
21
126700.0
31
0
0
LINE
8
hvac
10
-278040.0
20
126640.0
30
0
11
-278000.0
21
126640.0
31
0
0
LINE
8
hvac
10
-278040.0
20
126700.0
30
0
11
-278000.0
21
126700.0
31
0
0
LINE
8
hvac
10
-277880.0
20
126640.0
30
0
11
-277880.0
21
126700.0
31
0
0
LINE
8
hvac
10
-277840.0
20
126640.0
30
0
11
-277840.0
21
126700.0
31
0
0
LINE
8
hvac
10
-277880.0
20
126640.0
30
0
11
-277840.0
21
126640.0
31
0
0
LINE
8
hvac
10
-277880.0
20
126700.0
30
0
11
-277840.0
21
126700.0
31
0
0
LINE
8
hvac
10
-277720.0
20
126640.0
30
0
11
-277720.0
21
126700.0
31
0
0
LINE
8
hvac
10
-277680.0
20
126640.0
30
0
11
-277680.0
21
126700.0
31
0
0
LINE
8
hvac
10
-277720.0
20
126640.0
30
0
11
-277680.0
21
126640.0
31
0
0
LINE
8
hvac
10
-277720.0
20
126700.0
30
0
11
-277680.0
21
126700.0
31
0
0
LINE
8
hvac
10
-277560.0
20
126640.0
30
0
11
-277560.0
21
126700.0
31
0
0
LINE
8
hvac
10
-277520.0
20
126640.0
30
0
11
-277520.0
21
126700.0
31
0
0
LINE
8
hvac
10
-277560.0
20
126640.0
30
0
11
-277520.0
21
126640.0
31
0
0
LINE
8
hvac
10
-277560.0
20
126700.0
30
0
11
-277520.0
21
126700.0
31
0
0
LINE
8
hvac
10
-277400.0
20
126640.0
30
0
11
-277400.0
21
126700.0
31
0
0
LINE
8
hvac
10
-277360.0
20
126640.0
30
0
11
-277360.0
21
126700.0
31
0
0
LINE
8
hvac
10
-277400.0
20
126640.0
30
0
11
-277360.0
21
126640.0
31
0
0
LINE
8
hvac
10
-277400.0
20
126700.0
30
0
11
-277360.0
21
126700.0
31
0
0
LINE
8
hvac
10
-277240.0
20
126640.0
30
0
11
-277240.0
21
126700.0
31
0
0
LINE
8
hvac
10
-277200.0
20
126640.0
30
0
11
-277200.0
21
126700.0
31
0
0
LINE
8
hvac
10
-277240.0
20
126640.0
30
0
11
-277200.0
21
126640.0
31
0
0
LINE
8
hvac
10
-277240.0
20
126700.0
30
0
11
-277200.0
21
126700.0
31
0
0
LINE
8
hvac
10
-277080.0
20
126640.0
30
0
11
-277080.0
21
126700.0
31
0
0
LINE
8
hvac
10
-277040.0
20
126640.0
30
0
11
-277040.0
21
126700.0
31
0
0
LINE
8
hvac
10
-277080.0
20
126640.0
30
0
11
-277040.0
21
126640.0
31
0
0
LINE
8
hvac
10
-277080.0
20
126700.0
30
0
11
-277040.0
21
126700.0
31
0
0
LINE
8
hvac
10
-277925.0
20
126875.0
30
0
11
-277925.0
21
127325.0
31
0
0
LINE
8
hvac
10
-277475.0
20
126875.0
30
0
11
-277475.0
21
127325.0
31
0
0
LINE
8
hvac
10
-277925.0
20
126875.0
30
0
11
-277475.0
21
126875.0
31
0
0
LINE
8
hvac
10
-277925.0
20
127325.0
30
0
11
-277475.0
21
127325.0
31
0
0
LINE
8
hvac
10
-274500.0
20
135825.0
30
0
11
-274500.0
21
136175.0
31
0
0
LINE
8
hvac
10
-253500.0
20
135825.0
30
0
11
-253500.0
21
136175.0
31
0
0
LINE
8
hvac
10
-274500.0
20
135825.0
30
0
11
-253500.0
21
135825.0
31
0
0
LINE
8
hvac
10
-274500.0
20
136175.0
30
0
11
-253500.0
21
136175.0
31
0
0
LINE
8
hvac
10
-277875.0
20
126925.0
30
0
11
-277875.0
21
127275.0
31
0
0
LINE
8
hvac
10
-263825.0
20
126925.0
30
0
11
-263825.0
21
127275.0
31
0
0
LINE
8
hvac
10
-277875.0
20
126925.0
30
0
11
-263825.0
21
126925.0
31
0
0
LINE
8
hvac
10
-277875.0
20
127275.0
30
0
11
-263825.0
21
127275.0
31
0
0
LINE
8
hvac
10
-264175.0
20
126925.0
30
0
11
-264175.0
21
136175.0
31
0
0
LINE
8
hvac
10
-263825.0
20
126925.0
30
0
11
-263825.0
21
136175.0
31
0
0
LINE
8
hvac
10
-264175.0
20
126925.0
30
0
11
-263825.0
21
126925.0
31
0
0
LINE
8
hvac
10
-264175.0
20
136175.0
30
0
11
-263825.0
21
136175.0
31
0
0
LINE
8
hvac
10
-270350.0
20
135650.0
30
0
11
-270350.0
21
136350.0
31
0
0
LINE
8
hvac
10
-269650.0
20
135650.0
30
0
11
-269650.0
21
136350.0
31
0
0
LINE
8
hvac
10
-270350.0
20
135650.0
30
0
11
-269650.0
21
135650.0
31
0
0
LINE
8
hvac
10
-270350.0
20
136350.0
30
0
11
-269650.0
21
136350.0
31
0
0
LINE
8
hvac
10
-258350.0
20
135650.0
30
0
11
-258350.0
21
136350.0
31
0
0
LINE
8
hvac
10
-257650.0
20
135650.0
30
0
11
-257650.0
21
136350.0
31
0
0
LINE
8
hvac
10
-258350.0
20
135650.0
30
0
11
-257650.0
21
135650.0
31
0
0
LINE
8
hvac
10
-258350.0
20
136350.0
30
0
11
-257650.0
21
136350.0
31
0
0
LINE
8
sensors
10
-278960.0
20
130320.0
30
0
11
-278960.0
21
130480.0
31
0
0
LINE
8
sensors
10
-278860.0
20
130320.0
30
0
11
-278860.0
21
130480.0
31
0
0
LINE
8
sensors
10
-278960.0
20
130320.0
30
0
11
-278860.0
21
130320.0
31
0
0
LINE
8
sensors
10
-278960.0
20
130480.0
30
0
11
-278860.0
21
130480.0
31
0
0
LINE
8
sensors
10
-278855.0
20
130345.0
30
0
11
-278855.0
21
130455.0
31
0
0
LINE
8
sensors
10
-278835.0
20
130345.0
30
0
11
-278835.0
21
130455.0
31
0
0
LINE
8
sensors
10
-278855.0
20
130345.0
30
0
11
-278835.0
21
130345.0
31
0
0
LINE
8
sensors
10
-278855.0
20
130455.0
30
0
11
-278835.0
21
130455.0
31
0
0
LINE
8
sensors
10
-278960.0
20
130620.0
30
0
11
-278960.0
21
130780.0
31
0
0
LINE
8
sensors
10
-278860.0
20
130620.0
30
0
11
-278860.0
21
130780.0
31
0
0
LINE
8
sensors
10
-278960.0
20
130620.0
30
0
11
-278860.0
21
130620.0
31
0
0
LINE
8
sensors
10
-278960.0
20
130780.0
30
0
11
-278860.0
21
130780.0
31
0
0
LINE
8
sensors
10
-278855.0
20
130645.0
30
0
11
-278855.0
21
130755.0
31
0
0
LINE
8
sensors
10
-278835.0
20
130645.0
30
0
11
-278835.0
21
130755.0
31
0
0
LINE
8
sensors
10
-278855.0
20
130645.0
30
0
11
-278835.0
21
130645.0
31
0
0
LINE
8
sensors
10
-278855.0
20
130755.0
30
0
11
-278835.0
21
130755.0
31
0
0
LINE
8
sensors
10
-278960.0
20
130920.0
30
0
11
-278960.0
21
131080.0
31
0
0
LINE
8
sensors
10
-278860.0
20
130920.0
30
0
11
-278860.0
21
131080.0
31
0
0
LINE
8
sensors
10
-278960.0
20
130920.0
30
0
11
-278860.0
21
130920.0
31
0
0
LINE
8
sensors
10
-278960.0
20
131080.0
30
0
11
-278860.0
21
131080.0
31
0
0
LINE
8
sensors
10
-278855.0
20
130945.0
30
0
11
-278855.0
21
131055.0
31
0
0
LINE
8
sensors
10
-278835.0
20
130945.0
30
0
11
-278835.0
21
131055.0
31
0
0
LINE
8
sensors
10
-278855.0
20
130945.0
30
0
11
-278835.0
21
130945.0
31
0
0
LINE
8
sensors
10
-278855.0
20
131055.0
30
0
11
-278835.0
21
131055.0
31
0
0
LINE
8
sensors
10
-263920.0
20
136000.0
30
0
11
-264000.0
21
136080.0
31
0
0
LINE
8
sensors
10
-264000.0
20
136080.0
30
0
11
-264080.0
21
136000.0
31
0
0
LINE
8
sensors
10
-264080.0
20
136000.0
30
0
11
-264000.0
21
135920.0
31
0
0
LINE
8
sensors
10
-264000.0
20
135920.0
30
0
11
-263920.0
21
136000.0
31
0
0
LINE
8
sensors
10
-264000.0
20
136000.0
30
0
11
-263935.0
21
136000.0
31
0
0
LINE
8
sensors
10
-263935.0
20
136000.0
30
0
11
-264000.0
21
136000.0
31
0
0
LINE
8
sensors
10
-278960.0
20
131520.0
30
0
11
-278960.0
21
131680.0
31
0
0
LINE
8
sensors
10
-278860.0
20
131520.0
30
0
11
-278860.0
21
131680.0
31
0
0
LINE
8
sensors
10
-278960.0
20
131520.0
30
0
11
-278860.0
21
131520.0
31
0
0
LINE
8
sensors
10
-278960.0
20
131680.0
30
0
11
-278860.0
21
131680.0
31
0
0
LINE
8
sensors
10
-278855.0
20
131545.0
30
0
11
-278855.0
21
131655.0
31
0
0
LINE
8
sensors
10
-278835.0
20
131545.0
30
0
11
-278835.0
21
131655.0
31
0
0
LINE
8
sensors
10
-278855.0
20
131545.0
30
0
11
-278835.0
21
131545.0
31
0
0
LINE
8
sensors
10
-278855.0
20
131655.0
30
0
11
-278835.0
21
131655.0
31
0
0
ENDSEC
0
EOF
