0
SECTION
2
HEADER
9
$ACADVER
1
AC1015
9
$INSUNITS
70
4
0
ENDSEC
0
SECTION
2
ENTITIES
0
LINE
8
interiors
10
-239100.0
20
122500.0
30
0
11
-239100.0
21
140500.0
31
0
0
LINE
8
interiors
10
-239100.0
20
122500.0
30
0
11
-235800.0
21
122500.0
31
0
0
LINE
8
interiors
10
-235800.0
20
122500.0
30
0
11
-233400.0
21
122500.0
31
0
0
LINE
8
interiors
10
-233400.0
20
122500.0
30
0
11
-230100.0
21
122500.0
31
0
0
LINE
8
interiors
10
-239100.0
20
122500.0
30
0
11
-230100.0
21
122500.0
31
0
0
LINE
8
interiors
10
-239100.0
20
140500.0
30
0
11
-230100.0
21
140500.0
31
0
0
LINE
8
interiors
10
-230100.0
20
122500.0
30
0
11
-230100.0
21
140500.0
31
0
0
LINE
8
interiors
10
-230220.0
20
122620.0
30
0
11
-238980.0
21
122620.0
31
0
0
LINE
8
interiors
10
-230220.0
20
122620.0
30
0
11
-230220.0
21
140380.0
31
0
0
LINE
8
interiors
10
-230220.0
20
140380.0
30
0
11
-238980.0
21
140380.0
31
0
0
LINE
8
interiors
10
-238980.0
20
122620.0
30
0
11
-238980.0
21
140380.0
31
0
0
LINE
8
interiors
10
-236940.0
20
140500.0
30
0
11
-232260.0
21
140500.0
31
0
0
LINE
8
interiors
10
-233400.0
20
122500.0
30
0
11
-233400.0
21
122620.0
31
0
0
LINE
8
interiors
10
-230220.0
20
122620.0
30
0
11
-233400.0
21
122620.0
31
0
0
LINE
8
interiors
10
-235800.0
20
122620.0
30
0
11
-238980.0
21
122620.0
31
0
0
LINE
8
interiors
10
-235800.0
20
122500.0
30
0
11
-235800.0
21
122620.0
31
0
0
LINE
8
interiors
10
-235800.0
20
122620.0
30
0
11
-233400.0
21
122620.0
31
0
0
LINE
8
interiors
10
-236940.0
20
140380.0
30
0
11
-232260.0
21
140380.0
31
0
0
LINE
8
interiors
10
-236940.0
20
140380.0
30
0
11
-236940.0
21
140500.0
31
0
0
LINE
8
interiors
10
-232260.0
20
140380.0
30
0
11
-232260.0
21
140500.0
31
0
0
LINE
8
interiors
10
-236940.0
20
140477.5
30
0
11
-236940.0
21
140522.5
31
0
0
LINE
8
interiors
10
-232260.0
20
140477.5
30
0
11
-232260.0
21
140522.5
31
0
0
LINE
8
interiors
10
-236940.0
20
140477.5
30
0
11
-232260.0
21
140477.5
31
0
0
LINE
8
interiors
10
-236940.0
20
140522.5
30
0
11
-232260.0
21
140522.5
31
0
0
LINE
8
interiors
10
-238975.0
20
122625.0
30
0
11
-238975.0
21
140375.0
31
0
0
LINE
8
interiors
10
-230225.0
20
122625.0
30
0
11
-230225.0
21
140375.0
31
0
0
LINE
8
interiors
10
-238975.0
20
122625.0
30
0
11
-230225.0
21
122625.0
31
0
0
LINE
8
interiors
10
-238975.0
20
140375.0
30
0
11
-230225.0
21
140375.0
31
0
0
LINE
8
interiors
10
-235755.0
20
122380.0
30
0
11
-235755.0
21
122620.0
31
0
0
LINE
8
interiors
10
-235685.0
20
122380.0
30
0
11
-235685.0
21
122620.0
31
0
0
LINE
8
interiors
10
-235755.0
20
122380.0
30
0
11
-235685.0
21
122380.0
31
0
0
LINE
8
interiors
10
-235755.0
20
122620.0
30
0
11
-235685.0
21
122620.0
31
0
0
LINE
8
interiors
10
-233515.0
20
122380.0
30
0
11
-233515.0
21
122620.0
31
0
0
LINE
8
interiors
10
-233445.0
20
122380.0
30
0
11
-233445.0
21
122620.0
31
0
0
LINE
8
interiors
10
-233515.0
20
122380.0
30
0
11
-233445.0
21
122380.0
31
0
0
LINE
8
interiors
10
-233515.0
20
122620.0
30
0
11
-233445.0
21
122620.0
31
0
0
LINE
8
interiors
10
-235750.0
20
122380.0
30
0
11
-235750.0
21
122620.0
31
0
0
LINE
8
interiors
10
-233450.0
20
122380.0
30
0
11
-233450.0
21
122620.0
31
0
0
LINE
8
interiors
10
-235750.0
20
122380.0
30
0
11
-233450.0
21
122380.0
31
0
0
LINE
8
interiors
10
-235750.0
20
122620.0
30
0
11
-233450.0
21
122620.0
31
0
0
LINE
8
interiors
10
-235669.61
20
122590.49
30
0
11
-235710.39
21
122609.51
31
0
0
LINE
8
interiors
10
-235213.18
20
123569.3
30
0
11
-235253.96
21
123588.32
31
0
0
LINE
8
interiors
10
-235669.61
20
122590.49
30
0
11
-235213.18
21
123569.3
31
0
0
LINE
8
interiors
10
-235710.39
20
122609.51
30
0
11
-235253.96
21
123588.32
31
0
0
LINE
8
interiors
10
-237800.0
20
127760.0
30
0
11
-237800.0
21
128760.0
31
0
0
LINE
8
interiors
10
-235000.0
20
127760.0
30
0
11
-235000.0
21
128760.0
31
0
0
LINE
8
interiors
10
-237800.0
20
127760.0
30
0
11
-235000.0
21
127760.0
31
0
0
LINE
8
interiors
10
-237800.0
20
128760.0
30
0
11
-235000.0
21
128760.0
31
0
0
LINE
8
interiors
10
-237735.0
20
127825.0
30
0
11
-237735.0
21
127895.0
31
0
0
LINE
8
interiors
10
-237665.0
20
127825.0
30
0
11
-237665.0
21
127895.0
31
0
0
LINE
8
interiors
10
-237735.0
20
127825.0
30
0
11
-237665.0
21
127825.0
31
0
0
LINE
8
interiors
10
-237735.0
20
127895.0
30
0
11
-237665.0
21
127895.0
31
0
0
LINE
8
interiors
10
-237735.0
20
128625.0
30
0
11
-237735.0
21
128695.0
31
0
0
LINE
8
interiors
10
-237665.0
20
128625.0
30
0
11
-237665.0
21
128695.0
31
0
0
LINE
8
interiors
10
-237735.0
20
128625.0
30
0
11
-237665.0
21
128625.0
31
0
0
LINE
8
interiors
10
-237735.0
20
128695.0
30
0
11
-237665.0
21
128695.0
31
0
0
LINE
8
interiors
10
-235135.0
20
127825.0
30
0
11
-235135.0
21
127895.0
31
0
0
LINE
8
interiors
10
-235065.0
20
127825.0
30
0
11
-235065.0
21
127895.0
31
0
0
LINE
8
interiors
10
-235135.0
20
127825.0
30
0
11
-235065.0
21
127825.0
31
0
0
LINE
8
interiors
10
-235135.0
20
127895.0
30
0
11
-235065.0
21
127895.0
31
0
0
LINE
8
interiors
10
-235135.0
20
128625.0
30
0
11
-235135.0
21
128695.0
31
0
0
LINE
8
interiors
10
-235065.0
20
128625.0
30
0
11
-235065.0
21
128695.0
31
0
0
LINE
8
interiors
10
-235135.0
20
128625.0
30
0
11
-235065.0
21
128625.0
31
0
0
LINE
8
interiors
10
-235135.0
20
128695.0
30
0
11
-235065.0
21
128695.0
31
0
0
LINE
8
interiors
10
-237850.0
20
135650.0
30
0
11
-237850.0
21
136350.0
31
0
0
LINE
8
interiors
10
-235850.0
20
135650.0
30
0
11
-235850.0
21
136350.0
31
0
0
LINE
8
interiors
10
-237850.0
20
135650.0
30
0
11
-235850.0
21
135650.0
31
0
0
LINE
8
interiors
10
-237850.0
20
136350.0
30
0
11
-235850.0
21
136350.0
31
0
0
LINE
8
interiors
10
-237750.0
20
135627.5
30
0
11
-237750.0
21
135652.5
31
0
0
LINE
8
interiors
10
-235950.0
20
135627.5
30
0
11
-235950.0
21
135652.5
31
0
0
LINE
8
interiors
10
-237750.0
20
135627.5
30
0
11
-235950.0
21
135627.5
31
0
0
LINE
8
interiors
10
-237750.0
20
135652.5
30
0
11
-235950.0
21
135652.5
31
0
0
LINE
8
interiors
10
-234600.0
20
126860.0
30
0
11
-234600.0
21
127860.0
31
0
0
LINE
8
interiors
10
-232600.0
20
126860.0
30
0
11
-232600.0
21
127860.0
31
0
0
LINE
8
interiors
10
-234600.0
20
126860.0
30
0
11
-232600.0
21
126860.0
31
0
0
LINE
8
interiors
10
-234600.0
20
127860.0
30
0
11
-232600.0
21
127860.0
31
0
0
LINE
8
interiors
10
-233920.0
20
127110.0
30
0
11
-234010.0
21
127265.88
31
0
0
LINE
8
interiors
10
-234010.0
20
127265.88
30
0
11
-234190.0
21
127265.88
31
0
0
LINE
8
interiors
10
-234190.0
20
127265.88
30
0
11
-234280.0
21
127110.0
31
0
0
LINE
8
interiors
10
-234280.0
20
127110.0
30
0
11
-234190.0
21
126954.12
31
0
0
LINE
8
interiors
10
-234190.0
20
126954.12
30
0
11
-234010.0
21
126954.12
31
0
0
LINE
8
interiors
10
-234010.0
20
126954.12
30
0
11
-233920.0
21
127110.0
31
0
0
LINE
8
interiors
10
-233920.0
20
127610.0
30
0
11
-234010.0
21
127765.88
31
0
0
LINE
8
interiors
10
-234010.0
20
127765.88
30
0
11
-234190.0
21
127765.88
31
0
0
LINE
8
interiors
10
-234190.0
20
127765.88
30
0
11
-234280.0
21
127610.0
31
0
0
LINE
8
interiors
10
-234280.0
20
127610.0
30
0
11
-234190.0
21
127454.12
31
0
0
LINE
8
interiors
10
-234190.0
20
127454.12
30
0
11
-234010.0
21
127454.12
31
0
0
LINE
8
interiors
10
-234010.0
20
127454.12
30
0
11
-233920.0
21
127610.0
31
0
0
LINE
8
interiors
10
-232920.0
20
127110.0
30
0
11
-233010.0
21
127265.88
31
0
0
LINE
8
interiors
10
-233010.0
20
127265.88
30
0
11
-233190.0
21
127265.88
31
0
0
LINE
8
interiors
10
-233190.0
20
127265.88
30
0
11
-233280.0
21
127110.0
31
0
0
LINE
8
interiors
10
-233280.0
20
127110.0
30
0
11
-233190.0
21
126954.12
31
0
0
LINE
8
interiors
10
-233190.0
20
126954.12
30
0
11
-233010.0
21
126954.12
31
0
0
LINE
8
interiors
10
-233010.0
20
126954.12
30
0
11
-232920.0
21
127110.0
31
0
0
LINE
8
interiors
10
-232920.0
20
127610.0
30
0
11
-233010.0
21
127765.88
31
0
0
LINE
8
interiors
10
-233010.0
20
127765.88
30
0
11
-233190.0
21
127765.88
31
0
0
LINE
8
interiors
10
-233190.0
20
127765.88
30
0
11
-233280.0
21
127610.0
31
0
0
LINE
8
interiors
10
-233280.0
20
127610.0
30
0
11
-233190.0
21
127454.12
31
0
0
LINE
8
interiors
10
-233190.0
20
127454.12
30
0
11
-233010.0
21
127454.12
31
0
0
LINE
8
interiors
10
-233010.0
20
127454.12
30
0
11
-232920.0
21
127610.0
31
0
0
LINE
8
hvac
10
-234900.0
20
126660.0
30
0
11
-234900.0
21
128060.0
31
0
0
LINE
8
hvac
10
-232300.0
20
126660.0
30
0
11
-232300.0
21
128060.0
31
0
0
LINE
8
hvac
10
-234900.0
20
126660.0
30
0
11
-232300.0
21
126660.0
31
0
0
LINE
8
hvac
10
-234900.0
20
128060.0
30
0
11
-232300.0
21
128060.0
31
0
0
LINE
8
hvac
10
-233875.0
20
127085.0
30
0
11
-233875.0
21
127635.0
31
0
0
LINE
8
hvac
10
-233325.0
20
127085.0
30
0
11
-233325.0
21
127635.0
31
0
0
LINE
8
hvac
10
-233875.0
20
127085.0
30
0
11
-233325.0
21
127085.0
31
0
0
LINE
8
hvac
10
-233875.0
20
127635.0
30
0
11
-233325.0
21
127635.0
31
0
0
LINE
8
electrical
10
-230825.0
20
122575.0
30
0
11
-230825.0
21
122825.0
31
0
0
LINE
8
electrical
10
-230275.0
20
122575.0
30
0
11
-230275.0
21
122825.0
31
0
0
LINE
8
electrical
10
-230825.0
20
122575.0
30
0
11
-230275.0
21
122575.0
31
0
0
LINE
8
electrical
10
-230825.0
20
122825.0
30
0
11
-230275.0
21
122825.0
31
0
0
LINE
8
electrical
10
-230785.0
20
122547.5
30
0
11
-230785.0
21
122582.5
31
0
0
LINE
8
electrical
10
-230315.0
20
122547.5
30
0
11
-230315.0
21
122582.5
31
0
0
LINE
8
electrical
10
-230785.0
20
122547.5
30
0
11
-230315.0
21
122547.5
31
0
0
LINE
8
electrical
10
-230785.0
20
122582.5
30
0
11
-230315.0
21
122582.5
31
0
0
LINE
8
electrical
10
-230737.5
20
122510.0
30
0
11
-230737.5
21
122550.0
31
0
0
LINE
8
electrical
10
-230637.5
20
122510.0
30
0
11
-230637.5
21
122550.0
31
0
0
LINE
8
electrical
10
-230737.5
20
122510.0
30
0
11
-230637.5
21
122510.0
31
0
0
LINE
8
electrical
10
-230737.5
20
122550.0
30
0
11
-230637.5
21
122550.0
31
0
0
LINE
8
electrical
10
-230600.0
20
122510.0
30
0
11
-230600.0
21
122550.0
31
0
0
LINE
8
electrical
10
-230500.0
20
122510.0
30
0
11
-230500.0
21
122550.0
31
0
0
LINE
8
electrical
10
-230600.0
20
122510.0
30
0
11
-230500.0
21
122510.0
31
0
0
LINE
8
electrical
10
-230600.0
20
122550.0
30
0
11
-230500.0
21
122550.0
31
0
0
LINE
8
electrical
10
-230462.5
20
122510.0
30
0
11
-230462.5
21
122550.0
31
0
0
LINE
8
electrical
10
-230362.5
20
122510.0
30
0
11
-230362.5
21
122550.0
31
0
0
LINE
8
electrical
10
-230462.5
20
122510.0
30
0
11
-230362.5
21
122510.0
31
0
0
LINE
8
electrical
10
-230462.5
20
122550.0
30
0
11
-230362.5
21
122550.0
31
0
0
LINE
8
electrical
10
-230687.5
20
122495.0
30
0
11
-230664.12
21
122495.0
31
0
0
LINE
8
electrical
10
-230664.12
20
122495.0
30
0
11
-230710.88
21
122495.0
31
0
0
LINE
8
electrical
10
-230710.88
20
122495.0
30
0
11
-230687.5
21
122495.0
31
0
0
LINE
8
electrical
10
-230687.5
20
122520.0
30
0
11
-230687.5
21
122495.0
31
0
0
LINE
8
electrical
10
-230687.5
20
122520.0
30
0
11
-230664.12
21
122520.0
31
0
0
LINE
8
electrical
10
-230664.12
20
122520.0
30
0
11
-230710.88
21
122520.0
31
0
0
LINE
8
electrical
10
-230710.88
20
122520.0
30
0
11
-230687.5
21
122520.0
31
0
0
LINE
8
electrical
10
-230550.0
20
122495.0
30
0
11
-230526.62
21
122495.0
31
0
0
LINE
8
electrical
10
-230526.62
20
122495.0
30
0
11
-230573.38
21
122495.0
31
0
0
LINE
8
electrical
10
-230573.38
20
122495.0
30
0
11
-230550.0
21
122495.0
31
0
0
LINE
8
electrical
10
-230550.0
20
122520.0
30
0
11
-230550.0
21
122495.0
31
0
0
LINE
8
electrical
10
-230550.0
20
122520.0
30
0
11
-230526.62
21
122520.0
31
0
0
LINE
8
electrical
10
-230526.62
20
122520.0
30
0
11
-230573.38
21
122520.0
31
0
0
LINE
8
electrical
10
-230573.38
20
122520.0
30
0
11
-230550.0
21
122520.0
31
0
0
LINE
8
electrical
10
-230412.5
20
122495.0
30
0
11
-230389.12
21
122495.0
31
0
0
LINE
8
electrical
10
-230389.12
20
122495.0
30
0
11
-230435.88
21
122495.0
31
0
0
LINE
8
electrical
10
-230435.88
20
122495.0
30
0
11
-230412.5
21
122495.0
31
0
0
LINE
8
electrical
10
-230412.5
20
122520.0
30
0
11
-230412.5
21
122495.0
31
0
0
LINE
8
electrical
10
-230412.5
20
122520.0
30
0
11
-230389.12
21
122520.0
31
0
0
LINE
8
electrical
10
-230389.12
20
122520.0
30
0
11
-230435.88
21
122520.0
31
0
0
LINE
8
electrical
10
-230435.88
20
122520.0
30
0
11
-230412.5
21
122520.0
31
0
0
LINE
8
electrical
10
-230550.0
20
122700.0
30
0
11
-230534.41
21
122700.0
31
0
0
LINE
8
electrical
10
-230534.41
20
122700.0
30
0
11
-230565.59
21
122700.0
31
0
0
LINE
8
electrical
10
-230565.59
20
122700.0
30
0
11
-230550.0
21
122700.0
31
0
0
LINE
8
electrical
10
-230550.0
20
122200.0
30
0
11
-230550.0
21
122700.0
31
0
0
LINE
8
electrical
10
-230550.0
20
122200.0
30
0
11
-230534.41
21
122200.0
31
0
0
LINE
8
electrical
10
-230534.41
20
122200.0
30
0
11
-230565.59
21
122200.0
31
0
0
LINE
8
electrical
10
-230565.59
20
122200.0
30
0
11
-230550.0
21
122200.0
31
0
0
LINE
8
electrical
10
-230568.0
20
122700.0
30
0
11
-230541.0
21
122715.59
31
0
0
LINE
8
electrical
10
-230541.0
20
122715.59
30
0
11
-230541.0
21
122684.41
31
0
0
LINE
8
electrical
10
-230541.0
20
122684.41
30
0
11
-230568.0
21
122700.0
31
0
0
LINE
8
electrical
10
-230550.0
20
122700.0
30
0
11
-230530.56
21
122700.0
31
0
0
LINE
8
electrical
10
-230530.56
20
122700.0
30
0
11
-230550.0
21
122700.0
31
0
0
LINE
8
lighting
10
-238160.0
20
125060.0
30
0
11
-238160.0
21
125700.0
31
0
0
LINE
8
lighting
10
-237520.0
20
125060.0
30
0
11
-237520.0
21
125700.0
31
0
0
LINE
8
lighting
10
-238160.0
20
125060.0
30
0
11
-237520.0
21
125060.0
31
0
0
LINE
8
lighting
10
-238160.0
20
125700.0
30
0
11
-237520.0
21
125700.0
31
0
0
LINE
8
lighting
10
-238120.0
20
125100.0
30
0
11
-238120.0
21
125660.0
31
0
0
LINE
8
lighting
10
-237560.0
20
125100.0
30
0
11
-237560.0
21
125660.0
31
0
0
LINE
8
lighting
10
-238120.0
20
125100.0
30
0
11
-237560.0
21
125100.0
31
0
0
LINE
8
lighting
10
-238120.0
20
125660.0
30
0
11
-237560.0
21
125660.0
31
0
0
LINE
8
lighting
10
-238086.0
20
125110.0
30
0
11
-238086.0
21
125650.0
31
0
0
LINE
8
lighting
10
-238074.0
20
125110.0
30
0
11
-238074.0
21
125650.0
31
0
0
LINE
8
lighting
10
-238086.0
20
125110.0
30
0
11
-238074.0
21
125110.0
31
0
0
LINE
8
lighting
10
-238086.0
20
125650.0
30
0
11
-238074.0
21
125650.0
31
0
0
LINE
8
lighting
10
-238006.0
20
125110.0
30
0
11
-238006.0
21
125650.0
31
0
0
LINE
8
lighting
10
-237994.0
20
125110.0
30
0
11
-237994.0
21
125650.0
31
0
0
LINE
8
lighting
10
-238006.0
20
125110.0
30
0
11
-237994.0
21
125110.0
31
0
0
LINE
8
lighting
10
-238006.0
20
125650.0
30
0
11
-237994.0
21
125650.0
31
0
0
LINE
8
lighting
10
-237926.0
20
125110.0
30
0
11
-237926.0
21
125650.0
31
0
0
LINE
8
lighting
10
-237914.0
20
125110.0
30
0
11
-237914.0
21
125650.0
31
0
0
LINE
8
lighting
10
-237926.0
20
125110.0
30
0
11
-237914.0
21
125110.0
31
0
0
LINE
8
lighting
10
-237926.0
20
125650.0
30
0
11
-237914.0
21
125650.0
31
0
0
LINE
8
lighting
10
-237846.0
20
125110.0
30
0
11
-237846.0
21
125650.0
31
0
0
LINE
8
lighting
10
-237834.0
20
125110.0
30
0
11
-237834.0
21
125650.0
31
0
0
LINE
8
lighting
10
-237846.0
20
125110.0
30
0
11
-237834.0
21
125110.0
31
0
0
LINE
8
lighting
10
-237846.0
20
125650.0
30
0
11
-237834.0
21
125650.0
31
0
0
LINE
8
lighting
10
-237766.0
20
125110.0
30
0
11
-237766.0
21
125650.0
31
0
0
LINE
8
lighting
10
-237754.0
20
125110.0
30
0
11
-237754.0
21
125650.0
31
0
0
LINE
8
lighting
10
-237766.0
20
125110.0
30
0
11
-237754.0
21
125110.0
31
0
0
LINE
8
lighting
10
-237766.0
20
125650.0
30
0
11
-237754.0
21
125650.0
31
0
0
LINE
8
lighting
10
-237686.0
20
125110.0
30
0
11
-237686.0
21
125650.0
31
0
0
LINE
8
lighting
10
-237674.0
20
125110.0
30
0
11
-237674.0
21
125650.0
31
0
0
LINE
8
lighting
10
-237686.0
20
125110.0
30
0
11
-237674.0
21
125110.0
31
0
0
LINE
8
lighting
10
-237686.0
20
125650.0
30
0
11
-237674.0
21
125650.0
31
0
0
LINE
8
lighting
10
-237606.0
20
125110.0
30
0
11
-237606.0
21
125650.0
31
0
0
LINE
8
lighting
10
-237594.0
20
125110.0
30
0
11
-237594.0
21
125650.0
31
0
0
LINE
8
lighting
10
-237606.0
20
125110.0
30
0
11
-237594.0
21
125110.0
31
0
0
LINE
8
lighting
10
-237606.0
20
125650.0
30
0
11
-237594.0
21
125650.0
31
0
0
LINE
8
lighting
10
-237831.0
20
125380.0
30
0
11
-237844.5
21
125387.79
31
0
0
LINE
8
lighting
10
-237844.5
20
125387.79
30
0
11
-237844.5
21
125372.21
31
0
0
LINE
8
lighting
10
-237844.5
20
125372.21
30
0
11
-237831.0
21
125380.0
31
0
0
LINE
8
lighting
10
-231680.0
20
125060.0
30
0
11
-231680.0
21
125700.0
31
0
0
LINE
8
lighting
10
-231040.0
20
125060.0
30
0
11
-231040.0
21
125700.0
31
0
0
LINE
8
lighting
10
-231680.0
20
125060.0
30
0
11
-231040.0
21
125060.0
31
0
0
LINE
8
lighting
10
-231680.0
20
125700.0
30
0
11
-231040.0
21
125700.0
31
0
0
LINE
8
lighting
10
-231640.0
20
125100.0
30
0
11
-231640.0
21
125660.0
31
0
0
LINE
8
lighting
10
-231080.0
20
125100.0
30
0
11
-231080.0
21
125660.0
31
0
0
LINE
8
lighting
10
-231640.0
20
125100.0
30
0
11
-231080.0
21
125100.0
31
0
0
LINE
8
lighting
10
-231640.0
20
125660.0
30
0
11
-231080.0
21
125660.0
31
0
0
LINE
8
lighting
10
-231606.0
20
125110.0
30
0
11
-231606.0
21
125650.0
31
0
0
LINE
8
lighting
10
-231594.0
20
125110.0
30
0
11
-231594.0
21
125650.0
31
0
0
LINE
8
lighting
10
-231606.0
20
125110.0
30
0
11
-231594.0
21
125110.0
31
0
0
LINE
8
lighting
10
-231606.0
20
125650.0
30
0
11
-231594.0
21
125650.0
31
0
0
LINE
8
lighting
10
-231526.0
20
125110.0
30
0
11
-231526.0
21
125650.0
31
0
0
LINE
8
lighting
10
-231514.0
20
125110.0
30
0
11
-231514.0
21
125650.0
31
0
0
LINE
8
lighting
10
-231526.0
20
125110.0
30
0
11
-231514.0
21
125110.0
31
0
0
LINE
8
lighting
10
-231526.0
20
125650.0
30
0
11
-231514.0
21
125650.0
31
0
0
LINE
8
lighting
10
-231446.0
20
125110.0
30
0
11
-231446.0
21
125650.0
31
0
0
LINE
8
lighting
10
-231434.0
20
125110.0
30
0
11
-231434.0
21
125650.0
31
0
0
LINE
8
lighting
10
-231446.0
20
125110.0
30
0
11
-231434.0
21
125110.0
31
0
0
LINE
8
lighting
10
-231446.0
20
125650.0
30
0
11
-231434.0
21
125650.0
31
0
0
LINE
8
lighting
10
-231366.0
20
125110.0
30
0
11
-231366.0
21
125650.0
31
0
0
LINE
8
lighting
10
-231354.0
20
125110.0
30
0
11
-231354.0
21
125650.0
31
0
0
LINE
8
lighting
10
-231366.0
20
125110.0
30
0
11
-231354.0
21
125110.0
31
0
0
LINE
8
lighting
10
-231366.0
20
125650.0
30
0
11
-231354.0
21
125650.0
31
0
0
LINE
8
lighting
10
-231286.0
20
125110.0
30
0
11
-231286.0
21
125650.0
31
0
0
LINE
8
lighting
10
-231274.0
20
125110.0
30
0
11
-231274.0
21
125650.0
31
0
0
LINE
8
lighting
10
-231286.0
20
125110.0
30
0
11
-231274.0
21
125110.0
31
0
0
LINE
8
lighting
10
-231286.0
20
125650.0
30
0
11
-231274.0
21
125650.0
31
0
0
LINE
8
lighting
10
-231206.0
20
125110.0
30
0
11
-231206.0
21
125650.0
31
0
0
LINE
8
lighting
10
-231194.0
20
125110.0
30
0
11
-231194.0
21
125650.0
31
0
0
LINE
8
lighting
10
-231206.0
20
125110.0
30
0
11
-231194.0
21
125110.0
31
0
0
LINE
8
lighting
10
-231206.0
20
125650.0
30
0
11
-231194.0
21
125650.0
31
0
0
LINE
8
lighting
10
-231126.0
20
125110.0
30
0
11
-231126.0
21
125650.0
31
0
0
LINE
8
lighting
10
-231114.0
20
125110.0
30
0
11
-231114.0
21
125650.0
31
0
0
LINE
8
lighting
10
-231126.0
20
125110.0
30
0
11
-231114.0
21
125110.0
31
0
0
LINE
8
lighting
10
-231126.0
20
125650.0
30
0
11
-231114.0
21
125650.0
31
0
0
LINE
8
lighting
10
-231351.0
20
125380.0
30
0
11
-231364.5
21
125387.79
31
0
0
LINE
8
lighting
10
-231364.5
20
125387.79
30
0
11
-231364.5
21
125372.21
31
0
0
LINE
8
lighting
10
-231364.5
20
125372.21
30
0
11
-231351.0
21
125380.0
31
0
0
LINE
8
lighting
10
-238160.0
20
137300.0
30
0
11
-238160.0
21
137940.0
31
0
0
LINE
8
lighting
10
-237520.0
20
137300.0
30
0
11
-237520.0
21
137940.0
31
0
0
LINE
8
lighting
10
-238160.0
20
137300.0
30
0
11
-237520.0
21
137300.0
31
0
0
LINE
8
lighting
10
-238160.0
20
137940.0
30
0
11
-237520.0
21
137940.0
31
0
0
LINE
8
lighting
10
-238120.0
20
137340.0
30
0
11
-238120.0
21
137900.0
31
0
0
LINE
8
lighting
10
-237560.0
20
137340.0
30
0
11
-237560.0
21
137900.0
31
0
0
LINE
8
lighting
10
-238120.0
20
137340.0
30
0
11
-237560.0
21
137340.0
31
0
0
LINE
8
lighting
10
-238120.0
20
137900.0
30
0
11
-237560.0
21
137900.0
31
0
0
LINE
8
lighting
10
-238086.0
20
137350.0
30
0
11
-238086.0
21
137890.0
31
0
0
LINE
8
lighting
10
-238074.0
20
137350.0
30
0
11
-238074.0
21
137890.0
31
0
0
LINE
8
lighting
10
-238086.0
20
137350.0
30
0
11
-238074.0
21
137350.0
31
0
0
LINE
8
lighting
10
-238086.0
20
137890.0
30
0
11
-238074.0
21
137890.0
31
0
0
LINE
8
lighting
10
-238006.0
20
137350.0
30
0
11
-238006.0
21
137890.0
31
0
0
LINE
8
lighting
10
-237994.0
20
137350.0
30
0
11
-237994.0
21
137890.0
31
0
0
LINE
8
lighting
10
-238006.0
20
137350.0
30
0
11
-237994.0
21
137350.0
31
0
0
LINE
8
lighting
10
-238006.0
20
137890.0
30
0
11
-237994.0
21
137890.0
31
0
0
LINE
8
lighting
10
-237926.0
20
137350.0
30
0
11
-237926.0
21
137890.0
31
0
0
LINE
8
lighting
10
-237914.0
20
137350.0
30
0
11
-237914.0
21
137890.0
31
0
0
LINE
8
lighting
10
-237926.0
20
137350.0
30
0
11
-237914.0
21
137350.0
31
0
0
LINE
8
lighting
10
-237926.0
20
137890.0
30
0
11
-237914.0
21
137890.0
31
0
0
LINE
8
lighting
10
-237846.0
20
137350.0
30
0
11
-237846.0
21
137890.0
31
0
0
LINE
8
lighting
10
-237834.0
20
137350.0
30
0
11
-237834.0
21
137890.0
31
0
0
LINE
8
lighting
10
-237846.0
20
137350.0
30
0
11
-237834.0
21
137350.0
31
0
0
LINE
8
lighting
10
-237846.0
20
137890.0
30
0
11
-237834.0
21
137890.0
31
0
0
LINE
8
lighting
10
-237766.0
20
137350.0
30
0
11
-237766.0
21
137890.0
31
0
0
LINE
8
lighting
10
-237754.0
20
137350.0
30
0
11
-237754.0
21
137890.0
31
0
0
LINE
8
lighting
10
-237766.0
20
137350.0
30
0
11
-237754.0
21
137350.0
31
0
0
LINE
8
lighting
10
-237766.0
20
137890.0
30
0
11
-237754.0
21
137890.0
31
0
0
LINE
8
lighting
10
-237686.0
20
137350.0
30
0
11
-237686.0
21
137890.0
31
0
0
LINE
8
lighting
10
-237674.0
20
137350.0
30
0
11
-237674.0
21
137890.0
31
0
0
LINE
8
lighting
10
-237686.0
20
137350.0
30
0
11
-237674.0
21
137350.0
31
0
0
LINE
8
lighting
10
-237686.0
20
137890.0
30
0
11
-237674.0
21
137890.0
31
0
0
LINE
8
lighting
10
-237606.0
20
137350.0
30
0
11
-237606.0
21
137890.0
31
0
0
LINE
8
lighting
10
-237594.0
20
137350.0
30
0
11
-237594.0
21
137890.0
31
0
0
LINE
8
lighting
10
-237606.0
20
137350.0
30
0
11
-237594.0
21
137350.0
31
0
0
LINE
8
lighting
10
-237606.0
20
137890.0
30
0
11
-237594.0
21
137890.0
31
0
0
LINE
8
lighting
10
-237831.0
20
137620.0
30
0
11
-237844.5
21
137627.79
31
0
0
LINE
8
lighting
10
-237844.5
20
137627.79
30
0
11
-237844.5
21
137612.21
31
0
0
LINE
8
lighting
10
-237844.5
20
137612.21
30
0
11
-237831.0
21
137620.0
31
0
0
LINE
8
lighting
10
-231680.0
20
137300.0
30
0
11
-231680.0
21
137940.0
31
0
0
LINE
8
lighting
10
-231040.0
20
137300.0
30
0
11
-231040.0
21
137940.0
31
0
0
LINE
8
lighting
10
-231680.0
20
137300.0
30
0
11
-231040.0
21
137300.0
31
0
0
LINE
8
lighting
10
-231680.0
20
137940.0
30
0
11
-231040.0
21
137940.0
31
0
0
LINE
8
lighting
10
-231640.0
20
137340.0
30
0
11
-231640.0
21
137900.0
31
0
0
LINE
8
lighting
10
-231080.0
20
137340.0
30
0
11
-231080.0
21
137900.0
31
0
0
LINE
8
lighting
10
-231640.0
20
137340.0
30
0
11
-231080.0
21
137340.0
31
0
0
LINE
8
lighting
10
-231640.0
20
137900.0
30
0
11
-231080.0
21
137900.0
31
0
0
LINE
8
lighting
10
-231606.0
20
137350.0
30
0
11
-231606.0
21
137890.0
31
0
0
LINE
8
lighting
10
-231594.0
20
137350.0
30
0
11
-231594.0
21
137890.0
31
0
0
LINE
8
lighting
10
-231606.0
20
137350.0
30
0
11
-231594.0
21
137350.0
31
0
0
LINE
8
lighting
10
-231606.0
20
137890.0
30
0
11
-231594.0
21
137890.0
31
0
0
LINE
8
lighting
10
-231526.0
20
137350.0
30
0
11
-231526.0
21
137890.0
31
0
0
LINE
8
lighting
10
-231514.0
20
137350.0
30
0
11
-231514.0
21
137890.0
31
0
0
LINE
8
lighting
10
-231526.0
20
137350.0
30
0
11
-231514.0
21
137350.0
31
0
0
LINE
8
lighting
10
-231526.0
20
137890.0
30
0
11
-231514.0
21
137890.0
31
0
0
LINE
8
lighting
10
-231446.0
20
137350.0
30
0
11
-231446.0
21
137890.0
31
0
0
LINE
8
lighting
10
-231434.0
20
137350.0
30
0
11
-231434.0
21
137890.0
31
0
0
LINE
8
lighting
10
-231446.0
20
137350.0
30
0
11
-231434.0
21
137350.0
31
0
0
LINE
8
lighting
10
-231446.0
20
137890.0
30
0
11
-231434.0
21
137890.0
31
0
0
LINE
8
lighting
10
-231366.0
20
137350.0
30
0
11
-231366.0
21
137890.0
31
0
0
LINE
8
lighting
10
-231354.0
20
137350.0
30
0
11
-231354.0
21
137890.0
31
0
0
LINE
8
lighting
10
-231366.0
20
137350.0
30
0
11
-231354.0
21
137350.0
31
0
0
LINE
8
lighting
10
-231366.0
20
137890.0
30
0
11
-231354.0
21
137890.0
31
0
0
LINE
8
lighting
10
-231286.0
20
137350.0
30
0
11
-231286.0
21
137890.0
31
0
0
LINE
8
lighting
10
-231274.0
20
137350.0
30
0
11
-231274.0
21
137890.0
31
0
0
LINE
8
lighting
10
-231286.0
20
137350.0
30
0
11
-231274.0
21
137350.0
31
0
0
LINE
8
lighting
10
-231286.0
20
137890.0
30
0
11
-231274.0
21
137890.0
31
0
0
LINE
8
lighting
10
-231206.0
20
137350.0
30
0
11
-231206.0
21
137890.0
31
0
0
LINE
8
lighting
10
-231194.0
20
137350.0
30
0
11
-231194.0
21
137890.0
31
0
0
LINE
8
lighting
10
-231206.0
20
137350.0
30
0
11
-231194.0
21
137350.0
31
0
0
LINE
8
lighting
10
-231206.0
20
137890.0
30
0
11
-231194.0
21
137890.0
31
0
0
LINE
8
lighting
10
-231126.0
20
137350.0
30
0
11
-231126.0
21
137890.0
31
0
0
LINE
8
lighting
10
-231114.0
20
137350.0
30
0
11
-231114.0
21
137890.0
31
0
0
LINE
8
lighting
10
-231126.0
20
137350.0
30
0
11
-231114.0
21
137350.0
31
0
0
LINE
8
lighting
10
-231126.0
20
137890.0
30
0
11
-231114.0
21
137890.0
31
0
0
LINE
8
lighting
10
-231351.0
20
137620.0
30
0
11
-231364.5
21
137627.79
31
0
0
LINE
8
lighting
10
-231364.5
20
137627.79
30
0
11
-231364.5
21
137612.21
31
0
0
LINE
8
lighting
10
-231364.5
20
137612.21
30
0
11
-231351.0
21
137620.0
31
0
0
LINE
8
electrical
10
-237840.0
20
125080.0
30
0
11
-237840.0
21
125072.21
31
0
0
LINE
8
electrical
10
-237840.0
20
125072.21
30
0
11
-237840.0
21
125087.79
31
0
0
LINE
8
electrical
10
-237840.0
20
125087.79
30
0
11
-237840.0
21
125080.0
31
0
0
LINE
8
electrical
10
-230550.0
20
125080.0
30
0
11
-237840.0
21
125080.0
31
0
0
LINE
8
electrical
10
-230550.0
20
125080.0
30
0
11
-230550.0
21
125072.21
31
0
0
LINE
8
electrical
10
-230550.0
20
125072.21
30
0
11
-230550.0
21
125087.79
31
0
0
LINE
8
electrical
10
-230550.0
20
125087.79
30
0
11
-230550.0
21
125080.0
31
0
0
LINE
8
electrical
10
-237840.0
20
137620.0
30
0
11
-237832.21
21
137620.0
31
0
0
LINE
8
electrical
10
-237832.21
20
137620.0
30
0
11
-237847.79
21
137620.0
31
0
0
LINE
8
electrical
10
-237847.79
20
137620.0
30
0
11
-237840.0
21
137620.0
31
0
0
LINE
8
electrical
10
-237840.0
20
125080.0
30
0
11
-237840.0
21
137620.0
31
0
0
LINE
8
electrical
10
-237840.0
20
125080.0
30
0
11
-237832.21
21
125080.0
31
0
0
LINE
8
electrical
10
-237832.21
20
125080.0
30
0
11
-237847.79
21
125080.0
31
0
0
LINE
8
electrical
10
-237847.79
20
125080.0
30
0
11
-237840.0
21
125080.0
31
0
0
LINE
8
electrical
10
-231360.0
20
137620.0
30
0
11
-231352.21
21
137620.0
31
0
0
LINE
8
electrical
10
-231352.21
20
137620.0
30
0
11
-231367.79
21
137620.0
31
0
0
LINE
8
electrical
10
-231367.79
20
137620.0
30
0
11
-231360.0
21
137620.0
31
0
0
LINE
8
electrical
10
-231360.0
20
125080.0
30
0
11
-231360.0
21
137620.0
31
0
0
LINE
8
electrical
10
-231360.0
20
125080.0
30
0
11
-231352.21
21
125080.0
31
0
0
LINE
8
electrical
10
-231352.21
20
125080.0
30
0
11
-231367.79
21
125080.0
31
0
0
LINE
8
electrical
10
-231367.79
20
125080.0
30
0
11
-231360.0
21
125080.0
31
0
0
LINE
8
electrical
10
-230537.0
20
122700.0
30
0
11
-230556.5
21
122711.26
31
0
0
LINE
8
electrical
10
-230556.5
20
122711.26
30
0
11
-230556.5
21
122688.74
31
0
0
LINE
8
electrical
10
-230556.5
20
122688.74
30
0
11
-230537.0
21
122700.0
31
0
0
LINE
8
electrical
10
-231437.84
20
125084.6
30
0
11
-231456.08
21
125077.7
31
0
0
LINE
8
electrical
10
-231456.08
20
125077.7
30
0
11
-231456.08
21
125077.7
31
0
0
LINE
8
electrical
10
-231456.08
20
125077.7
30
0
11
-231437.84
21
125084.6
31
0
0
LINE
8
electrical
10
-230537.84
20
122704.6
30
0
11
-231437.84
21
125084.6
31
0
0
LINE
8
electrical
10
-230537.84
20
122704.6
30
0
11
-230556.08
21
122697.7
31
0
0
LINE
8
electrical
10
-230556.08
20
122697.7
30
0
11
-230556.08
21
122697.7
31
0
0
LINE
8
electrical
10
-230556.08
20
122697.7
30
0
11
-230537.84
21
122704.6
31
0
0
LINE
8
electrical
10
-237750.0
20
125080.0
30
0
11
-237750.0
21
125068.74
31
0
0
LINE
8
electrical
10
-237750.0
20
125068.74
30
0
11
-237750.0
21
125091.26
31
0
0
LINE
8
electrical
10
-237750.0
20
125091.26
30
0
11
-237750.0
21
125080.0
31
0
0
LINE
8
electrical
10
-231450.0
20
125080.0
30
0
11
-237750.0
21
125080.0
31
0
0
LINE
8
electrical
10
-231450.0
20
125080.0
30
0
11
-231450.0
21
125068.74
31
0
0
LINE
8
electrical
10
-231450.0
20
125068.74
30
0
11
-231450.0
21
125091.26
31
0
0
LINE
8
electrical
10
-231450.0
20
125091.26
30
0
11
-231450.0
21
125080.0
31
0
0
LINE
8
electrical
10
-230550.0
20
122700.0
30
0
11
-230535.96
21
122700.0
31
0
0
LINE
8
electrical
10
-230535.96
20
122700.0
30
0
11
-230550.0
21
122700.0
31
0
0
LINE
8
electrical
10
-231450.0
20
125080.0
30
0
11
-231435.96
21
125080.0
31
0
0
LINE
8
electrical
10
-231435.96
20
125080.0
30
0
11
-231450.0
21
125080.0
31
0
0
LINE
8
electrical
10
-230537.0
20
122700.0
30
0
11
-230556.5
21
122711.26
31
0
0
LINE
8
electrical
10
-230556.5
20
122711.26
30
0
11
-230556.5
21
122688.74
31
0
0
LINE
8
electrical
10
-230556.5
20
122688.74
30
0
11
-230537.0
21
122700.0
31
0
0
LINE
8
electrical
10
-231437.77
20
125204.4
30
0
11
-231456.12
21
125197.8
31
0
0
LINE
8
electrical
10
-231456.12
20
125197.8
30
0
11
-231456.12
21
125197.8
31
0
0
LINE
8
electrical
10
-231456.12
20
125197.8
30
0
11
-231437.77
21
125204.4
31
0
0
LINE
8
electrical
10
-230537.77
20
122704.4
30
0
11
-231437.77
21
125204.4
31
0
0
LINE
8
electrical
10
-230537.77
20
122704.4
30
0
11
-230556.12
21
122697.8
31
0
0
LINE
8
electrical
10
-230556.12
20
122697.8
30
0
11
-230556.12
21
122697.8
31
0
0
LINE
8
electrical
10
-230556.12
20
122697.8
30
0
11
-230537.77
21
122704.4
31
0
0
LINE
8
electrical
10
-237750.0
20
125200.0
30
0
11
-237750.0
21
125188.74
31
0
0
LINE
8
electrical
10
-237750.0
20
125188.74
30
0
11
-237750.0
21
125211.26
31
0
0
LINE
8
electrical
10
-237750.0
20
125211.26
30
0
11
-237750.0
21
125200.0
31
0
0
LINE
8
electrical
10
-231450.0
20
125200.0
30
0
11
-237750.0
21
125200.0
31
0
0
LINE
8
electrical
10
-231450.0
20
125200.0
30
0
11
-231450.0
21
125188.74
31
0
0
LINE
8
electrical
10
-231450.0
20
125188.74
30
0
11
-231450.0
21
125211.26
31
0
0
LINE
8
electrical
10
-231450.0
20
125211.26
30
0
11
-231450.0
21
125200.0
31
0
0
LINE
8
electrical
10
-230550.0
20
122700.0
30
0
11
-230535.96
21
122700.0
31
0
0
LINE
8
electrical
10
-230535.96
20
122700.0
30
0
11
-230550.0
21
122700.0
31
0
0
LINE
8
electrical
10
-231450.0
20
125200.0
30
0
11
-231435.96
21
125200.0
31
0
0
LINE
8
electrical
10
-231435.96
20
125200.0
30
0
11
-231450.0
21
125200.0
31
0
0
LINE
8
electrical
10
-230537.0
20
122700.0
30
0
11
-230556.5
21
122711.26
31
0
0
LINE
8
electrical
10
-230556.5
20
122711.26
30
0
11
-230556.5
21
122688.74
31
0
0
LINE
8
electrical
10
-230556.5
20
122688.74
30
0
11
-230537.0
21
122700.0
31
0
0
LINE
8
electrical
10
-231437.71
20
125324.22
30
0
11
-231456.15
21
125317.89
31
0
0
LINE
8
electrical
10
-231456.15
20
125317.89
30
0
11
-231456.15
21
125317.89
31
0
0
LINE
8
electrical
10
-231456.15
20
125317.89
30
0
11
-231437.71
21
125324.22
31
0
0
LINE
8
electrical
10
-230537.71
20
122704.22
30
0
11
-231437.71
21
125324.22
31
0
0
LINE
8
electrical
10
-230537.71
20
122704.22
30
0
11
-230556.15
21
122697.89
31
0
0
LINE
8
electrical
10
-230556.15
20
122697.89
30
0
11
-230556.15
21
122697.89
31
0
0
LINE
8
electrical
10
-230556.15
20
122697.89
30
0
11
-230537.71
21
122704.22
31
0
0
LINE
8
electrical
10
-237750.0
20
125320.0
30
0
11
-237750.0
21
125308.74
31
0
0
LINE
8
electrical
10
-237750.0
20
125308.74
30
0
11
-237750.0
21
125331.26
31
0
0
LINE
8
electrical
10
-237750.0
20
125331.26
30
0
11
-237750.0
21
125320.0
31
0
0
LINE
8
electrical
10
-231450.0
20
125320.0
30
0
11
-237750.0
21
125320.0
31
0
0
LINE
8
electrical
10
-231450.0
20
125320.0
30
0
11
-231450.0
21
125308.74
31
0
0
LINE
8
electrical
10
-231450.0
20
125308.74
30
0
11
-231450.0
21
125331.26
31
0
0
LINE
8
electrical
10
-231450.0
20
125331.26
30
0
11
-231450.0
21
125320.0
31
0
0
LINE
8
electrical
10
-230550.0
20
122700.0
30
0
11
-230535.96
21
122700.0
31
0
0
LINE
8
electrical
10
-230535.96
20
122700.0
30
0
11
-230550.0
21
122700.0
31
0
0
LINE
8
electrical
10
-231450.0
20
125320.0
30
0
11
-231435.96
21
125320.0
31
0
0
LINE
8
electrical
10
-231435.96
20
125320.0
30
0
11
-231450.0
21
125320.0
31
0
0
LINE
8
electrical
10
-237365.0
20
122650.0
30
0
11
-237365.0
21
122710.0
31
0
0
LINE
8
electrical
10
-237235.0
20
122650.0
30
0
11
-237235.0
21
122710.0
31
0
0
LINE
8
electrical
10
-237365.0
20
122650.0
30
0
11
-237235.0
21
122650.0
31
0
0
LINE
8
electrical
10
-237365.0
20
122710.0
30
0
11
-237235.0
21
122710.0
31
0
0
LINE
8
electrical
10
-237291.0
20
122680.0
30
0
11
-237304.5
21
122687.79
31
0
0
LINE
8
electrical
10
-237304.5
20
122687.79
30
0
11
-237304.5
21
122672.21
31
0
0
LINE
8
electrical
10
-237304.5
20
122672.21
30
0
11
-237291.0
21
122680.0
31
0
0
LINE
8
electrical
10
-230550.0
20
122680.0
30
0
11
-230550.0
21
122672.21
31
0
0
LINE
8
electrical
10
-230550.0
20
122672.21
30
0
11
-230550.0
21
122687.79
31
0
0
LINE
8
electrical
10
-230550.0
20
122687.79
30
0
11
-230550.0
21
122680.0
31
0
0
LINE
8
electrical
10
-237300.0
20
122680.0
30
0
11
-230550.0
21
122680.0
31
0
0
LINE
8
electrical
10
-237300.0
20
122680.0
30
0
11
-237300.0
21
122672.21
31
0
0
LINE
8
electrical
10
-237300.0
20
122672.21
30
0
11
-237300.0
21
122687.79
31
0
0
LINE
8
electrical
10
-237300.0
20
122687.79
30
0
11
-237300.0
21
122680.0
31
0
0
LINE
8
electrical
10
-237300.0
20
122680.0
30
0
11
-237290.28
21
122680.0
31
0
0
LINE
8
electrical
10
-237290.28
20
122680.0
30
0
11
-237300.0
21
122680.0
31
0
0
LINE
8
electrical
10
-231965.0
20
122650.0
30
0
11
-231965.0
21
122710.0
31
0
0
LINE
8
electrical
10
-231835.0
20
122650.0
30
0
11
-231835.0
21
122710.0
31
0
0
LINE
8
electrical
10
-231965.0
20
122650.0
30
0
11
-231835.0
21
122650.0
31
0
0
LINE
8
electrical
10
-231965.0
20
122710.0
30
0
11
-231835.0
21
122710.0
31
0
0
LINE
8
electrical
10
-231891.0
20
122680.0
30
0
11
-231904.5
21
122687.79
31
0
0
LINE
8
electrical
10
-231904.5
20
122687.79
30
0
11
-231904.5
21
122672.21
31
0
0
LINE
8
electrical
10
-231904.5
20
122672.21
30
0
11
-231891.0
21
122680.0
31
0
0
LINE
8
electrical
10
-230550.0
20
122680.0
30
0
11
-230550.0
21
122672.21
31
0
0
LINE
8
electrical
10
-230550.0
20
122672.21
30
0
11
-230550.0
21
122687.79
31
0
0
LINE
8
electrical
10
-230550.0
20
122687.79
30
0
11
-230550.0
21
122680.0
31
0
0
LINE
8
electrical
10
-231900.0
20
122680.0
30
0
11
-230550.0
21
122680.0
31
0
0
LINE
8
electrical
10
-231900.0
20
122680.0
30
0
11
-231900.0
21
122672.21
31
0
0
LINE
8
electrical
10
-231900.0
20
122672.21
30
0
11
-231900.0
21
122687.79
31
0
0
LINE
8
electrical
10
-231900.0
20
122687.79
30
0
11
-231900.0
21
122680.0
31
0
0
LINE
8
electrical
10
-231900.0
20
122680.0
30
0
11
-231890.28
21
122680.0
31
0
0
LINE
8
electrical
10
-231890.28
20
122680.0
30
0
11
-231900.0
21
122680.0
31
0
0
LINE
8
hvac
10
-238625.0
20
123225.0
30
0
11
-238625.0
21
123975.0
31
0
0
LINE
8
hvac
10
-236975.0
20
123225.0
30
0
11
-236975.0
21
123975.0
31
0
0
LINE
8
hvac
10
-238625.0
20
123225.0
30
0
11
-236975.0
21
123225.0
31
0
0
LINE
8
hvac
10
-238625.0
20
123975.0
30
0
11
-236975.0
21
123975.0
31
0
0
LINE
8
hvac
10
-238525.0
20
123180.0
30
0
11
-238525.0
21
123220.0
31
0
0
LINE
8
hvac
10
-237075.0
20
123180.0
30
0
11
-237075.0
21
123220.0
31
0
0
LINE
8
hvac
10
-238525.0
20
123180.0
30
0
11
-237075.0
21
123180.0
31
0
0
LINE
8
hvac
10
-238525.0
20
123220.0
30
0
11
-237075.0
21
123220.0
31
0
0
LINE
8
hvac
10
-238460.0
20
123140.0
30
0
11
-238460.0
21
123200.0
31
0
0
LINE
8
hvac
10
-238420.0
20
123140.0
30
0
11
-238420.0
21
123200.0
31
0
0
LINE
8
hvac
10
-238460.0
20
123140.0
30
0
11
-238420.0
21
123140.0
31
0
0
LINE
8
hvac
10
-238460.0
20
123200.0
30
0
11
-238420.0
21
123200.0
31
0
0
LINE
8
hvac
10
-238300.0
20
123140.0
30
0
11
-238300.0
21
123200.0
31
0
0
LINE
8
hvac
10
-238260.0
20
123140.0
30
0
11
-238260.0
21
123200.0
31
0
0
LINE
8
hvac
10
-238300.0
20
123140.0
30
0
11
-238260.0
21
123140.0
31
0
0
LINE
8
hvac
10
-238300.0
20
123200.0
30
0
11
-238260.0
21
123200.0
31
0
0
LINE
8
hvac
10
-238140.0
20
123140.0
30
0
11
-238140.0
21
123200.0
31
0
0
LINE
8
hvac
10
-238100.0
20
123140.0
30
0
11
-238100.0
21
123200.0
31
0
0
LINE
8
hvac
10
-238140.0
20
123140.0
30
0
11
-238100.0
21
123140.0
31
0
0
LINE
8
hvac
10
-238140.0
20
123200.0
30
0
11
-238100.0
21
123200.0
31
0
0
LINE
8
hvac
10
-237980.0
20
123140.0
30
0
11
-237980.0
21
123200.0
31
0
0
LINE
8
hvac
10
-237940.0
20
123140.0
30
0
11
-237940.0
21
123200.0
31
0
0
LINE
8
hvac
10
-237980.0
20
123140.0
30
0
11
-237940.0
21
123140.0
31
0
0
LINE
8
hvac
10
-237980.0
20
123200.0
30
0
11
-237940.0
21
123200.0
31
0
0
LINE
8
hvac
10
-237820.0
20
123140.0
30
0
11
-237820.0
21
123200.0
31
0
0
LINE
8
hvac
10
-237780.0
20
123140.0
30
0
11
-237780.0
21
123200.0
31
0
0
LINE
8
hvac
10
-237820.0
20
123140.0
30
0
11
-237780.0
21
123140.0
31
0
0
LINE
8
hvac
10
-237820.0
20
123200.0
30
0
11
-237780.0
21
123200.0
31
0
0
LINE
8
hvac
10
-237660.0
20
123140.0
30
0
11
-237660.0
21
123200.0
31
0
0
LINE
8
hvac
10
-237620.0
20
123140.0
30
0
11
-237620.0
21
123200.0
31
0
0
LINE
8
hvac
10
-237660.0
20
123140.0
30
0
11
-237620.0
21
123140.0
31
0
0
LINE
8
hvac
10
-237660.0
20
123200.0
30
0
11
-237620.0
21
123200.0
31
0
0
LINE
8
hvac
10
-237500.0
20
123140.0
30
0
11
-237500.0
21
123200.0
31
0
0
LINE
8
hvac
10
-237460.0
20
123140.0
30
0
11
-237460.0
21
123200.0
31
0
0
LINE
8
hvac
10
-237500.0
20
123140.0
30
0
11
-237460.0
21
123140.0
31
0
0
LINE
8
hvac
10
-237500.0
20
123200.0
30
0
11
-237460.0
21
123200.0
31
0
0
LINE
8
hvac
10
-237340.0
20
123140.0
30
0
11
-237340.0
21
123200.0
31
0
0
LINE
8
hvac
10
-237300.0
20
123140.0
30
0
11
-237300.0
21
123200.0
31
0
0
LINE
8
hvac
10
-237340.0
20
123140.0
30
0
11
-237300.0
21
123140.0
31
0
0
LINE
8
hvac
10
-237340.0
20
123200.0
30
0
11
-237300.0
21
123200.0
31
0
0
LINE
8
hvac
10
-237180.0
20
123140.0
30
0
11
-237180.0
21
123200.0
31
0
0
LINE
8
hvac
10
-237140.0
20
123140.0
30
0
11
-237140.0
21
123200.0
31
0
0
LINE
8
hvac
10
-237180.0
20
123140.0
30
0
11
-237140.0
21
123140.0
31
0
0
LINE
8
hvac
10
-237180.0
20
123200.0
30
0
11
-237140.0
21
123200.0
31
0
0
LINE
8
hvac
10
-238025.0
20
123375.0
30
0
11
-238025.0
21
123825.0
31
0
0
LINE
8
hvac
10
-237575.0
20
123375.0
30
0
11
-237575.0
21
123825.0
31
0
0
LINE
8
hvac
10
-238025.0
20
123375.0
30
0
11
-237575.0
21
123375.0
31
0
0
LINE
8
hvac
10
-238025.0
20
123825.0
30
0
11
-237575.0
21
123825.0
31
0
0
LINE
8
hvac
10
-237750.0
20
131325.0
30
0
11
-237750.0
21
131675.0
31
0
0
LINE
8
hvac
10
-231450.0
20
131325.0
30
0
11
-231450.0
21
131675.0
31
0
0
LINE
8
hvac
10
-237750.0
20
131325.0
30
0
11
-231450.0
21
131325.0
31
0
0
LINE
8
hvac
10
-237750.0
20
131675.0
30
0
11
-231450.0
21
131675.0
31
0
0
LINE
8
hvac
10
-237975.0
20
123425.0
30
0
11
-237975.0
21
123775.0
31
0
0
LINE
8
hvac
10
-234425.0
20
123425.0
30
0
11
-234425.0
21
123775.0
31
0
0
LINE
8
hvac
10
-237975.0
20
123425.0
30
0
11
-234425.0
21
123425.0
31
0
0
LINE
8
hvac
10
-237975.0
20
123775.0
30
0
11
-234425.0
21
123775.0
31
0
0
LINE
8
hvac
10
-234775.0
20
123425.0
30
0
11
-234775.0
21
131675.0
31
0
0
LINE
8
hvac
10
-234425.0
20
123425.0
30
0
11
-234425.0
21
131675.0
31
0
0
LINE
8
hvac
10
-234775.0
20
123425.0
30
0
11
-234425.0
21
123425.0
31
0
0
LINE
8
hvac
10
-234775.0
20
131675.0
30
0
11
-234425.0
21
131675.0
31
0
0
LINE
8
hvac
10
-236750.0
20
131150.0
30
0
11
-236750.0
21
131850.0
31
0
0
LINE
8
hvac
10
-236050.0
20
131150.0
30
0
11
-236050.0
21
131850.0
31
0
0
LINE
8
hvac
10
-236750.0
20
131150.0
30
0
11
-236050.0
21
131150.0
31
0
0
LINE
8
hvac
10
-236750.0
20
131850.0
30
0
11
-236050.0
21
131850.0
31
0
0
LINE
8
hvac
10
-233150.0
20
131150.0
30
0
11
-233150.0
21
131850.0
31
0
0
LINE
8
hvac
10
-232450.0
20
131150.0
30
0
11
-232450.0
21
131850.0
31
0
0
LINE
8
hvac
10
-233150.0
20
131150.0
30
0
11
-232450.0
21
131150.0
31
0
0
LINE
8
hvac
10
-233150.0
20
131850.0
30
0
11
-232450.0
21
131850.0
31
0
0
LINE
8
water
10
-231610.0
20
133880.0
30
0
11
-231610.0
21
134520.0
31
0
0
LINE
8
water
10
-230690.0
20
133880.0
30
0
11
-230690.0
21
134520.0
31
0
0
LINE
8
water
10
-231610.0
20
133880.0
30
0
11
-230690.0
21
133880.0
31
0
0
LINE
8
water
10
-231610.0
20
134520.0
30
0
11
-230690.0
21
134520.0
31
0
0
LINE
8
water
10
-231600.0
20
133890.0
30
0
11
-231600.0
21
134510.0
31
0
0
LINE
8
water
10
-231600.0
20
133890.0
30
0
11
-230700.0
21
133890.0
31
0
0
LINE
8
water
10
-231600.0
20
134510.0
30
0
11
-230700.0
21
134510.0
31
0
0
LINE
8
water
10
-230700.0
20
133890.0
30
0
11
-230700.0
21
134510.0
31
0
0
LINE
8
water
10
-230825.0
20
133985.0
30
0
11
-231475.0
21
133985.0
31
0
0
LINE
8
water
10
-230825.0
20
133985.0
30
0
11
-230825.0
21
134415.0
31
0
0
LINE
8
water
10
-230825.0
20
134415.0
30
0
11
-231475.0
21
134415.0
31
0
0
LINE
8
water
10
-231475.0
20
133985.0
30
0
11
-231475.0
21
134415.0
31
0
0
LINE
8
water
10
-231132.0
20
134420.0
30
0
11
-231159.0
21
134435.59
31
0
0
LINE
8
water
10
-231159.0
20
134435.59
30
0
11
-231159.0
21
134404.41
31
0
0
LINE
8
water
10
-231159.0
20
134404.41
30
0
11
-231132.0
21
134420.0
31
0
0
LINE
8
water
10
-231150.0
20
134200.0
30
0
11
-231134.41
21
134200.0
31
0
0
LINE
8
water
10
-231134.41
20
134200.0
30
0
11
-231165.59
21
134200.0
31
0
0
LINE
8
water
10
-231165.59
20
134200.0
30
0
11
-231150.0
21
134200.0
31
0
0
LINE
8
water
10
-231150.0
20
134420.0
30
0
11
-231150.0
21
134200.0
31
0
0
LINE
8
water
10
-231150.0
20
134420.0
30
0
11
-231134.41
21
134420.0
31
0
0
LINE
8
water
10
-231134.41
20
134420.0
30
0
11
-231165.59
21
134420.0
31
0
0
LINE
8
water
10
-231165.59
20
134420.0
30
0
11
-231150.0
21
134420.0
31
0
0
LINE
8
water
10
-231150.0
20
134420.0
30
0
11
-231130.56
21
134420.0
31
0
0
LINE
8
water
10
-231130.56
20
134420.0
30
0
11
-231150.0
21
134420.0
31
0
0
LINE
8
water
10
-231205.0
20
134200.0
30
0
11
-231150.0
21
134255.0
31
0
0
LINE
8
water
10
-231150.0
20
134255.0
30
0
11
-231095.0
21
134200.0
31
0
0
LINE
8
water
10
-231095.0
20
134200.0
30
0
11
-231150.0
21
134145.0
31
0
0
LINE
8
water
10
-231150.0
20
134145.0
30
0
11
-231205.0
21
134200.0
31
0
0
LINE
8
water
10
-231150.0
20
133000.0
30
0
11
-231095.0
21
133000.0
31
0
0
LINE
8
water
10
-231095.0
20
133000.0
30
0
11
-231150.0
21
133000.0
31
0
0
LINE
8
water
10
-231150.0
20
133000.0
30
0
11
-231205.0
21
133000.0
31
0
0
LINE
8
water
10
-231205.0
20
133000.0
30
0
11
-231150.0
21
133000.0
31
0
0
LINE
8
water
10
-231150.0
20
134200.0
30
0
11
-231150.0
21
133000.0
31
0
0
LINE
8
water
10
-231150.0
20
134200.0
30
0
11
-231095.0
21
134200.0
31
0
0
LINE
8
water
10
-231095.0
20
134200.0
30
0
11
-231150.0
21
134200.0
31
0
0
LINE
8
water
10
-231150.0
20
134200.0
30
0
11
-231205.0
21
134200.0
31
0
0
LINE
8
water
10
-231205.0
20
134200.0
30
0
11
-231150.0
21
134200.0
31
0
0
LINE
8
water
10
-231205.0
20
133000.0
30
0
11
-231150.0
21
133055.0
31
0
0
LINE
8
water
10
-231150.0
20
133055.0
30
0
11
-231095.0
21
133000.0
31
0
0
LINE
8
water
10
-231095.0
20
133000.0
30
0
11
-231150.0
21
132945.0
31
0
0
LINE
8
water
10
-231150.0
20
132945.0
30
0
11
-231205.0
21
133000.0
31
0
0
LINE
8
water
10
-231150.0
20
126500.0
30
0
11
-231095.0
21
126500.0
31
0
0
LINE
8
water
10
-231095.0
20
126500.0
30
0
11
-231150.0
21
126500.0
31
0
0
LINE
8
water
10
-231150.0
20
126500.0
30
0
11
-231205.0
21
126500.0
31
0
0
LINE
8
water
10
-231205.0
20
126500.0
30
0
11
-231150.0
21
126500.0
31
0
0
LINE
8
water
10
-231150.0
20
133000.0
30
0
11
-231150.0
21
126500.0
31
0
0
LINE
8
water
10
-281500.0
20
126500.0
30
0
11
-281500.0
21
126445.0
31
0
0
LINE
8
water
10
-281500.0
20
126445.0
30
0
11
-281500.0
21
126500.0
31
0
0
LINE
8
water
10
-281500.0
20
126500.0
30
0
11
-281500.0
21
126555.0
31
0
0
LINE
8
water
10
-281500.0
20
126555.0
30
0
11
-281500.0
21
126500.0
31
0
0
LINE
8
water
10
-231150.0
20
126500.0
30
0
11
-281500.0
21
126500.0
31
0
0
LINE
8
water
10
-231150.0
20
126500.0
30
0
11
-231150.0
21
126445.0
31
0
0
LINE
8
water
10
-231150.0
20
126445.0
30
0
11
-231150.0
21
126500.0
31
0
0
LINE
8
water
10
-231150.0
20
126500.0
30
0
11
-231150.0
21
126555.0
31
0
0
LINE
8
water
10
-231150.0
20
126555.0
30
0
11
-231150.0
21
126500.0
31
0
0
LINE
8
water
10
-231150.0
20
134200.0
30
0
11
-231090.6
21
134200.0
31
0
0
LINE
8
water
10
-231090.6
20
134200.0
30
0
11
-231150.0
21
134200.0
31
0
0
LINE
8
water
10
-231150.0
20
133000.0
30
0
11
-231090.6
21
133000.0
31
0
0
LINE
8
water
10
-231090.6
20
133000.0
30
0
11
-231150.0
21
133000.0
31
0
0
LINE
8
water
10
-231150.0
20
126500.0
30
0
11
-231090.6
21
126500.0
31
0
0
LINE
8
water
10
-231090.6
20
126500.0
30
0
11
-231150.0
21
126500.0
31
0
0
LINE
8
water
10
-231575.0
20
132675.0
30
0
11
-231575.0
21
133325.0
31
0
0
LINE
8
water
10
-230725.0
20
132675.0
30
0
11
-230725.0
21
133325.0
31
0
0
LINE
8
water
10
-231575.0
20
132675.0
30
0
11
-230725.0
21
132675.0
31
0
0
LINE
8
water
10
-231575.0
20
133325.0
30
0
11
-230725.0
21
133325.0
31
0
0
LINE
8
water
10
-230930.0
20
133000.0
30
0
11
-231012.83
21
133172.0
31
0
0
LINE
8
water
10
-231012.83
20
133172.0
30
0
11
-231198.95
21
133214.48
31
0
0
LINE
8
water
10
-231198.95
20
133214.48
30
0
11
-231348.21
21
133095.45
31
0
0
LINE
8
water
10
-231348.21
20
133095.45
30
0
11
-231348.21
21
132904.55
31
0
0
LINE
8
water
10
-231348.21
20
132904.55
30
0
11
-231198.95
21
132785.52
31
0
0
LINE
8
water
10
-231198.95
20
132785.52
30
0
11
-231012.83
21
132828.0
31
0
0
LINE
8
water
10
-231012.83
20
132828.0
30
0
11
-230930.0
21
133000.0
31
0
0
LINE
8
water
10
-232595.0
20
122900.0
30
0
11
-232595.0
21
122825.0
31
0
0
LINE
8
water
10
-232595.0
20
122825.0
30
0
11
-232595.0
21
122900.0
31
0
0
LINE
8
water
10
-232595.0
20
122900.0
30
0
11
-232595.0
21
122975.0
31
0
0
LINE
8
water
10
-232595.0
20
122975.0
30
0
11
-232595.0
21
122900.0
31
0
0
LINE
8
water
10
-232995.0
20
122900.0
30
0
11
-232595.0
21
122900.0
31
0
0
LINE
8
water
10
-232995.0
20
122900.0
30
0
11
-232995.0
21
122825.0
31
0
0
LINE
8
water
10
-232995.0
20
122825.0
30
0
11
-232995.0
21
122900.0
31
0
0
LINE
8
water
10
-232995.0
20
122900.0
30
0
11
-232995.0
21
122975.0
31
0
0
LINE
8
water
10
-232995.0
20
122975.0
30
0
11
-232995.0
21
122900.0
31
0
0
LINE
8
water
10
-232705.0
20
122900.0
30
0
11
-232767.19
21
122985.6
31
0
0
LINE
8
water
10
-232767.19
20
122985.6
30
0
11
-232867.81
21
122952.9
31
0
0
LINE
8
water
10
-232867.81
20
122952.9
30
0
11
-232867.81
21
122847.1
31
0
0
LINE
8
water
10
-232867.81
20
122847.1
30
0
11
-232767.19
21
122814.4
31
0
0
LINE
8
water
10
-232767.19
20
122814.4
30
0
11
-232705.0
21
122900.0
31
0
0
LINE
8
water
10
-232985.0
20
122875.0
30
0
11
-232985.0
21
122925.0
31
0
0
LINE
8
water
10
-232605.0
20
122875.0
30
0
11
-232605.0
21
122925.0
31
0
0
LINE
8
water
10
-232985.0
20
122875.0
30
0
11
-232605.0
21
122875.0
31
0
0
LINE
8
water
10
-232985.0
20
122925.0
30
0
11
-232605.0
21
122925.0
31
0
0
LINE
8
water
10
-232920.0
20
122900.0
30
0
11
-232920.0
21
122795.38
31
0
0
LINE
8
water
10
-232920.0
20
122795.38
30
0
11
-232920.0
21
122835.34
31
0
0
LINE
8
water
10
-232920.0
20
122835.34
30
0
11
-232920.0
21
122964.66
31
0
0
LINE
8
water
10
-232920.0
20
122964.66
30
0
11
-232920.0
21
123004.62
31
0
0
LINE
8
water
10
-232920.0
20
123004.62
30
0
11
-232920.0
21
122900.0
31
0
0
LINE
8
water
10
-232945.0
20
122900.0
30
0
11
-232920.0
21
122900.0
31
0
0
LINE
8
water
10
-232945.0
20
122900.0
30
0
11
-232945.0
21
122795.38
31
0
0
LINE
8
water
10
-232945.0
20
122795.38
30
0
11
-232945.0
21
122835.34
31
0
0
LINE
8
water
10
-232945.0
20
122835.34
30
0
11
-232945.0
21
122964.66
31
0
0
LINE
8
water
10
-232945.0
20
122964.66
30
0
11
-232945.0
21
123004.62
31
0
0
LINE
8
water
10
-232945.0
20
123004.62
30
0
11
-232945.0
21
122900.0
31
0
0
LINE
8
water
10
-232620.0
20
122900.0
30
0
11
-232620.0
21
122795.38
31
0
0
LINE
8
water
10
-232620.0
20
122795.38
30
0
11
-232620.0
21
122835.34
31
0
0
LINE
8
water
10
-232620.0
20
122835.34
30
0
11
-232620.0
21
122964.66
31
0
0
LINE
8
water
10
-232620.0
20
122964.66
30
0
11
-232620.0
21
123004.62
31
0
0
LINE
8
water
10
-232620.0
20
123004.62
30
0
11
-232620.0
21
122900.0
31
0
0
LINE
8
water
10
-232645.0
20
122900.0
30
0
11
-232620.0
21
122900.0
31
0
0
LINE
8
water
10
-232645.0
20
122900.0
30
0
11
-232645.0
21
122795.38
31
0
0
LINE
8
water
10
-232645.0
20
122795.38
30
0
11
-232645.0
21
122835.34
31
0
0
LINE
8
water
10
-232645.0
20
122835.34
30
0
11
-232645.0
21
122964.66
31
0
0
LINE
8
water
10
-232645.0
20
122964.66
30
0
11
-232645.0
21
123004.62
31
0
0
LINE
8
water
10
-232645.0
20
123004.62
30
0
11
-232645.0
21
122900.0
31
0
0
LINE
8
water
10
-233500.0
20
122900.0
30
0
11
-233469.69
21
122900.0
31
0
0
LINE
8
water
10
-233469.69
20
122900.0
30
0
11
-233530.31
21
122900.0
31
0
0
LINE
8
water
10
-233530.31
20
122900.0
30
0
11
-233500.0
21
122900.0
31
0
0
LINE
8
water
10
-233500.0
20
124000.0
30
0
11
-233500.0
21
122900.0
31
0
0
LINE
8
water
10
-233500.0
20
124000.0
30
0
11
-233469.69
21
124000.0
31
0
0
LINE
8
water
10
-233469.69
20
124000.0
30
0
11
-233530.31
21
124000.0
31
0
0
LINE
8
water
10
-233530.31
20
124000.0
30
0
11
-233500.0
21
124000.0
31
0
0
LINE
8
water
10
-231150.0
20
122900.0
30
0
11
-231150.0
21
122869.69
31
0
0
LINE
8
water
10
-231150.0
20
122869.69
30
0
11
-231150.0
21
122930.31
31
0
0
LINE
8
water
10
-231150.0
20
122930.31
30
0
11
-231150.0
21
122900.0
31
0
0
LINE
8
water
10
-233500.0
20
122900.0
30
0
11
-231150.0
21
122900.0
31
0
0
LINE
8
water
10
-233500.0
20
122900.0
30
0
11
-233500.0
21
122869.69
31
0
0
LINE
8
water
10
-233500.0
20
122869.69
30
0
11
-233500.0
21
122930.31
31
0
0
LINE
8
water
10
-233500.0
20
122930.31
30
0
11
-233500.0
21
122900.0
31
0
0
LINE
8
water
10
-231150.0
20
134430.0
30
0
11
-231119.69
21
134430.0
31
0
0
LINE
8
water
10
-231119.69
20
134430.0
30
0
11
-231180.31
21
134430.0
31
0
0
LINE
8
water
10
-231180.31
20
134430.0
30
0
11
-231150.0
21
134430.0
31
0
0
LINE
8
water
10
-231150.0
20
122900.0
30
0
11
-231150.0
21
134430.0
31
0
0
LINE
8
water
10
-231150.0
20
122900.0
30
0
11
-231119.69
21
122900.0
31
0
0
LINE
8
water
10
-231119.69
20
122900.0
30
0
11
-231180.31
21
122900.0
31
0
0
LINE
8
water
10
-231180.31
20
122900.0
30
0
11
-231150.0
21
122900.0
31
0
0
LINE
8
water
10
-231185.0
20
134430.0
30
0
11
-231132.5
21
134460.31
31
0
0
LINE
8
water
10
-231132.5
20
134460.31
30
0
11
-231132.5
21
134399.69
31
0
0
LINE
8
water
10
-231132.5
20
134399.69
30
0
11
-231185.0
21
134430.0
31
0
0
LINE
8
water
10
-233500.0
20
122900.0
30
0
11
-233462.2
21
122900.0
31
0
0
LINE
8
water
10
-233462.2
20
122900.0
30
0
11
-233500.0
21
122900.0
31
0
0
LINE
8
water
10
-231150.0
20
122900.0
30
0
11
-231112.2
21
122900.0
31
0
0
LINE
8
water
10
-231112.2
20
122900.0
30
0
11
-231150.0
21
122900.0
31
0
0
LINE
8
water
10
-231150.0
20
134430.0
30
0
11
-231112.2
21
134430.0
31
0
0
LINE
8
water
10
-231112.2
20
134430.0
30
0
11
-231150.0
21
134430.0
31
0
0
LINE
8
water
10
-232386.0
20
122900.0
30
0
11
-232386.0
21
122825.0
31
0
0
LINE
8
water
10
-232386.0
20
122825.0
30
0
11
-232386.0
21
122900.0
31
0
0
LINE
8
water
10
-232386.0
20
122900.0
30
0
11
-232386.0
21
122975.0
31
0
0
LINE
8
water
10
-232386.0
20
122975.0
30
0
11
-232386.0
21
122900.0
31
0
0
LINE
8
water
10
-232786.0
20
122900.0
30
0
11
-232386.0
21
122900.0
31
0
0
LINE
8
water
10
-232786.0
20
122900.0
30
0
11
-232786.0
21
122825.0
31
0
0
LINE
8
water
10
-232786.0
20
122825.0
30
0
11
-232786.0
21
122900.0
31
0
0
LINE
8
water
10
-232786.0
20
122900.0
30
0
11
-232786.0
21
122975.0
31
0
0
LINE
8
water
10
-232786.0
20
122975.0
30
0
11
-232786.0
21
122900.0
31
0
0
LINE
8
water
10
-232496.0
20
122900.0
30
0
11
-232558.19
21
122985.6
31
0
0
LINE
8
water
10
-232558.19
20
122985.6
30
0
11
-232658.81
21
122952.9
31
0
0
LINE
8
water
10
-232658.81
20
122952.9
30
0
11
-232658.81
21
122847.1
31
0
0
LINE
8
water
10
-232658.81
20
122847.1
30
0
11
-232558.19
21
122814.4
31
0
0
LINE
8
water
10
-232558.19
20
122814.4
30
0
11
-232496.0
21
122900.0
31
0
0
LINE
8
water
10
-232776.0
20
122875.0
30
0
11
-232776.0
21
122925.0
31
0
0
LINE
8
water
10
-232396.0
20
122875.0
30
0
11
-232396.0
21
122925.0
31
0
0
LINE
8
water
10
-232776.0
20
122875.0
30
0
11
-232396.0
21
122875.0
31
0
0
LINE
8
water
10
-232776.0
20
122925.0
30
0
11
-232396.0
21
122925.0
31
0
0
LINE
8
water
10
-232711.0
20
122900.0
30
0
11
-232711.0
21
122795.38
31
0
0
LINE
8
water
10
-232711.0
20
122795.38
30
0
11
-232711.0
21
122835.34
31
0
0
LINE
8
water
10
-232711.0
20
122835.34
30
0
11
-232711.0
21
122964.66
31
0
0
LINE
8
water
10
-232711.0
20
122964.66
30
0
11
-232711.0
21
123004.62
31
0
0
LINE
8
water
10
-232711.0
20
123004.62
30
0
11
-232711.0
21
122900.0
31
0
0
LINE
8
water
10
-232736.0
20
122900.0
30
0
11
-232711.0
21
122900.0
31
0
0
LINE
8
water
10
-232736.0
20
122900.0
30
0
11
-232736.0
21
122795.38
31
0
0
LINE
8
water
10
-232736.0
20
122795.38
30
0
11
-232736.0
21
122835.34
31
0
0
LINE
8
water
10
-232736.0
20
122835.34
30
0
11
-232736.0
21
122964.66
31
0
0
LINE
8
water
10
-232736.0
20
122964.66
30
0
11
-232736.0
21
123004.62
31
0
0
LINE
8
water
10
-232736.0
20
123004.62
30
0
11
-232736.0
21
122900.0
31
0
0
LINE
8
water
10
-232411.0
20
122900.0
30
0
11
-232411.0
21
122795.38
31
0
0
LINE
8
water
10
-232411.0
20
122795.38
30
0
11
-232411.0
21
122835.34
31
0
0
LINE
8
water
10
-232411.0
20
122835.34
30
0
11
-232411.0
21
122964.66
31
0
0
LINE
8
water
10
-232411.0
20
122964.66
30
0
11
-232411.0
21
123004.62
31
0
0
LINE
8
water
10
-232411.0
20
123004.62
30
0
11
-232411.0
21
122900.0
31
0
0
LINE
8
water
10
-232436.0
20
122900.0
30
0
11
-232411.0
21
122900.0
31
0
0
LINE
8
water
10
-232436.0
20
122900.0
30
0
11
-232436.0
21
122795.38
31
0
0
LINE
8
water
10
-232436.0
20
122795.38
30
0
11
-232436.0
21
122835.34
31
0
0
LINE
8
water
10
-232436.0
20
122835.34
30
0
11
-232436.0
21
122964.66
31
0
0
LINE
8
water
10
-232436.0
20
122964.66
30
0
11
-232436.0
21
123004.62
31
0
0
LINE
8
water
10
-232436.0
20
123004.62
30
0
11
-232436.0
21
122900.0
31
0
0
LINE
8
water
10
-233150.0
20
122900.0
30
0
11
-233119.69
21
122900.0
31
0
0
LINE
8
water
10
-233119.69
20
122900.0
30
0
11
-233180.31
21
122900.0
31
0
0
LINE
8
water
10
-233180.31
20
122900.0
30
0
11
-233150.0
21
122900.0
31
0
0
LINE
8
water
10
-233150.0
20
125000.0
30
0
11
-233150.0
21
122900.0
31
0
0
LINE
8
water
10
-233150.0
20
125000.0
30
0
11
-233119.69
21
125000.0
31
0
0
LINE
8
water
10
-233119.69
20
125000.0
30
0
11
-233180.31
21
125000.0
31
0
0
LINE
8
water
10
-233180.31
20
125000.0
30
0
11
-233150.0
21
125000.0
31
0
0
LINE
8
water
10
-231270.0
20
122900.0
30
0
11
-231270.0
21
122869.69
31
0
0
LINE
8
water
10
-231270.0
20
122869.69
30
0
11
-231270.0
21
122930.31
31
0
0
LINE
8
water
10
-231270.0
20
122930.31
30
0
11
-231270.0
21
122900.0
31
0
0
LINE
8
water
10
-233150.0
20
122900.0
30
0
11
-231270.0
21
122900.0
31
0
0
LINE
8
water
10
-233150.0
20
122900.0
30
0
11
-233150.0
21
122869.69
31
0
0
LINE
8
water
10
-233150.0
20
122869.69
30
0
11
-233150.0
21
122930.31
31
0
0
LINE
8
water
10
-233150.0
20
122930.31
30
0
11
-233150.0
21
122900.0
31
0
0
LINE
8
water
10
-231270.0
20
134430.0
30
0
11
-231239.69
21
134430.0
31
0
0
LINE
8
water
10
-231239.69
20
134430.0
30
0
11
-231300.31
21
134430.0
31
0
0
LINE
8
water
10
-231300.31
20
134430.0
30
0
11
-231270.0
21
134430.0
31
0
0
LINE
8
water
10
-231270.0
20
122900.0
30
0
11
-231270.0
21
134430.0
31
0
0
LINE
8
water
10
-231270.0
20
122900.0
30
0
11
-231239.69
21
122900.0
31
0
0
LINE
8
water
10
-231239.69
20
122900.0
30
0
11
-231300.31
21
122900.0
31
0
0
LINE
8
water
10
-231300.31
20
122900.0
30
0
11
-231270.0
21
122900.0
31
0
0
LINE
8
water
10
-231305.0
20
134430.0
30
0
11
-231252.5
21
134460.31
31
0
0
LINE
8
water
10
-231252.5
20
134460.31
30
0
11
-231252.5
21
134399.69
31
0
0
LINE
8
water
10
-231252.5
20
134399.69
30
0
11
-231305.0
21
134430.0
31
0
0
LINE
8
water
10
-233150.0
20
122900.0
30
0
11
-233112.2
21
122900.0
31
0
0
LINE
8
water
10
-233112.2
20
122900.0
30
0
11
-233150.0
21
122900.0
31
0
0
LINE
8
water
10
-231270.0
20
122900.0
30
0
11
-231232.2
21
122900.0
31
0
0
LINE
8
water
10
-231232.2
20
122900.0
30
0
11
-231270.0
21
122900.0
31
0
0
LINE
8
water
10
-231270.0
20
134430.0
30
0
11
-231232.2
21
134430.0
31
0
0
LINE
8
water
10
-231232.2
20
134430.0
30
0
11
-231270.0
21
134430.0
31
0
0
LINE
8
sensors
10
-239060.0
20
126380.0
30
0
11
-239060.0
21
126540.0
31
0
0
LINE
8
sensors
10
-238960.0
20
126380.0
30
0
11
-238960.0
21
126540.0
31
0
0
LINE
8
sensors
10
-239060.0
20
126380.0
30
0
11
-238960.0
21
126380.0
31
0
0
LINE
8
sensors
10
-239060.0
20
126540.0
30
0
11
-238960.0
21
126540.0
31
0
0
LINE
8
sensors
10
-238955.0
20
126405.0
30
0
11
-238955.0
21
126515.0
31
0
0
LINE
8
sensors
10
-238935.0
20
126405.0
30
0
11
-238935.0
21
126515.0
31
0
0
LINE
8
sensors
10
-238955.0
20
126405.0
30
0
11
-238935.0
21
126405.0
31
0
0
LINE
8
sensors
10
-238955.0
20
126515.0
30
0
11
-238935.0
21
126515.0
31
0
0
LINE
8
sensors
10
-239060.0
20
126680.0
30
0
11
-239060.0
21
126840.0
31
0
0
LINE
8
sensors
10
-238960.0
20
126680.0
30
0
11
-238960.0
21
126840.0
31
0
0
LINE
8
sensors
10
-239060.0
20
126680.0
30
0
11
-238960.0
21
126680.0
31
0
0
LINE
8
sensors
10
-239060.0
20
126840.0
30
0
11
-238960.0
21
126840.0
31
0
0
LINE
8
sensors
10
-238955.0
20
126705.0
30
0
11
-238955.0
21
126815.0
31
0
0
LINE
8
sensors
10
-238935.0
20
126705.0
30
0
11
-238935.0
21
126815.0
31
0
0
LINE
8
sensors
10
-238955.0
20
126705.0
30
0
11
-238935.0
21
126705.0
31
0
0
LINE
8
sensors
10
-238955.0
20
126815.0
30
0
11
-238935.0
21
126815.0
31
0
0
LINE
8
sensors
10
-239060.0
20
126980.0
30
0
11
-239060.0
21
127140.0
31
0
0
LINE
8
sensors
10
-238960.0
20
126980.0
30
0
11
-238960.0
21
127140.0
31
0
0
LINE
8
sensors
10
-239060.0
20
126980.0
30
0
11
-238960.0
21
126980.0
31
0
0
LINE
8
sensors
10
-239060.0
20
127140.0
30
0
11
-238960.0
21
127140.0
31
0
0
LINE
8
sensors
10
-238955.0
20
127005.0
30
0
11
-238955.0
21
127115.0
31
0
0
LINE
8
sensors
10
-238935.0
20
127005.0
30
0
11
-238935.0
21
127115.0
31
0
0
LINE
8
sensors
10
-238955.0
20
127005.0
30
0
11
-238935.0
21
127005.0
31
0
0
LINE
8
sensors
10
-238955.0
20
127115.0
30
0
11
-238935.0
21
127115.0
31
0
0
LINE
8
sensors
10
-234520.0
20
131500.0
30
0
11
-234600.0
21
131580.0
31
0
0
LINE
8
sensors
10
-234600.0
20
131580.0
30
0
11
-234680.0
21
131500.0
31
0
0
LINE
8
sensors
10
-234680.0
20
131500.0
30
0
11
-234600.0
21
131420.0
31
0
0
LINE
8
sensors
10
-234600.0
20
131420.0
30
0
11
-234520.0
21
131500.0
31
0
0
LINE
8
sensors
10
-234600.0
20
131500.0
30
0
11
-234535.0
21
131500.0
31
0
0
LINE
8
sensors
10
-234535.0
20
131500.0
30
0
11
-234600.0
21
131500.0
31
0
0
LINE
8
sensors
10
-239060.0
20
127580.0
30
0
11
-239060.0
21
127740.0
31
0
0
LINE
8
sensors
10
-238960.0
20
127580.0
30
0
11
-238960.0
21
127740.0
31
0
0
LINE
8
sensors
10
-239060.0
20
127580.0
30
0
11
-238960.0
21
127580.0
31
0
0
LINE
8
sensors
10
-239060.0
20
127740.0
30
0
11
-238960.0
21
127740.0
31
0
0
LINE
8
sensors
10
-238955.0
20
127605.0
30
0
11
-238955.0
21
127715.0
31
0
0
LINE
8
sensors
10
-238935.0
20
127605.0
30
0
11
-238935.0
21
127715.0
31
0
0
LINE
8
sensors
10
-238955.0
20
127605.0
30
0
11
-238935.0
21
127605.0
31
0
0
LINE
8
sensors
10
-238955.0
20
127715.0
30
0
11
-238935.0
21
127715.0
31
0
0
LINE
8
sensors
10
-231862.5
20
122900.0
30
0
11
-231862.5
21
122825.0
31
0
0
LINE
8
sensors
10
-231862.5
20
122825.0
30
0
11
-231862.5
21
122900.0
31
0
0
LINE
8
sensors
10
-231862.5
20
122900.0
30
0
11
-231862.5
21
122975.0
31
0
0
LINE
8
sensors
10
-231862.5
20
122975.0
30
0
11
-231862.5
21
122900.0
31
0
0
LINE
8
sensors
10
-232082.5
20
122900.0
30
0
11
-231862.5
21
122900.0
31
0
0
LINE
8
sensors
10
-232082.5
20
122900.0
30
0
11
-232082.5
21
122825.0
31
0
0
LINE
8
sensors
10
-232082.5
20
122825.0
30
0
11
-232082.5
21
122900.0
31
0
0
LINE
8
sensors
10
-232082.5
20
122900.0
30
0
11
-232082.5
21
122975.0
31
0
0
LINE
8
sensors
10
-232082.5
20
122975.0
30
0
11
-232082.5
21
122900.0
31
0
0
LINE
8
sensors
10
-232052.5
20
122830.0
30
0
11
-232052.5
21
122970.0
31
0
0
LINE
8
sensors
10
-231892.5
20
122830.0
30
0
11
-231892.5
21
122970.0
31
0
0
LINE
8
sensors
10
-232052.5
20
122830.0
30
0
11
-231892.5
21
122830.0
31
0
0
LINE
8
sensors
10
-232052.5
20
122970.0
30
0
11
-231892.5
21
122970.0
31
0
0
LINE
8
sensors
10
-231818.0
20
122900.0
30
0
11
-231818.0
21
122825.0
31
0
0
LINE
8
sensors
10
-231818.0
20
122825.0
30
0
11
-231818.0
21
122900.0
31
0
0
LINE
8
sensors
10
-231818.0
20
122900.0
30
0
11
-231818.0
21
122975.0
31
0
0
LINE
8
sensors
10
-231818.0
20
122975.0
30
0
11
-231818.0
21
122900.0
31
0
0
LINE
8
sensors
10
-232038.0
20
122900.0
30
0
11
-231818.0
21
122900.0
31
0
0
LINE
8
sensors
10
-232038.0
20
122900.0
30
0
11
-232038.0
21
122825.0
31
0
0
LINE
8
sensors
10
-232038.0
20
122825.0
30
0
11
-232038.0
21
122900.0
31
0
0
LINE
8
sensors
10
-232038.0
20
122900.0
30
0
11
-232038.0
21
122975.0
31
0
0
LINE
8
sensors
10
-232038.0
20
122975.0
30
0
11
-232038.0
21
122900.0
31
0
0
LINE
8
sensors
10
-232008.0
20
122830.0
30
0
11
-232008.0
21
122970.0
31
0
0
LINE
8
sensors
10
-231848.0
20
122830.0
30
0
11
-231848.0
21
122970.0
31
0
0
LINE
8
sensors
10
-232008.0
20
122830.0
30
0
11
-231848.0
21
122830.0
31
0
0
LINE
8
sensors
10
-232008.0
20
122970.0
30
0
11
-231848.0
21
122970.0
31
0
0
ENDSEC
0
EOF
