0
SECTION
2
HEADER
9
$ACADVER
1
AC1015
9
$INSUNITS
70
4
0
ENDSEC
0
SECTION
2
ENTITIES
0
LINE
8
interiors
10
-285000.0
20
122500.0
30
0
11
-285000.0
21
149500.0
31
0
0
LINE
8
interiors
10
-285000.0
20
122500.0
30
0
11
-264700.0
21
122500.0
31
0
0
LINE
8
interiors
10
-264700.0
20
122500.0
30
0
11
-262300.0
21
122500.0
31
0
0
LINE
8
interiors
10
-262300.0
20
122500.0
30
0
11
-242000.0
21
122500.0
31
0
0
LINE
8
interiors
10
-285000.0
20
122500.0
30
0
11
-242000.0
21
122500.0
31
0
0
LINE
8
interiors
10
-285000.0
20
149500.0
30
0
11
-242000.0
21
149500.0
31
0
0
LINE
8
interiors
10
-242000.0
20
122500.0
30
0
11
-242000.0
21
149500.0
31
0
0
LINE
8
interiors
10
-242120.0
20
122620.0
30
0
11
-284880.0
21
122620.0
31
0
0
LINE
8
interiors
10
-242120.0
20
122620.0
30
0
11
-242120.0
21
149380.0
31
0
0
LINE
8
interiors
10
-242120.0
20
149380.0
30
0
11
-284880.0
21
149380.0
31
0
0
LINE
8
interiors
10
-284880.0
20
122620.0
30
0
11
-284880.0
21
149380.0
31
0
0
LINE
8
interiors
10
-274680.0
20
149500.0
30
0
11
-252320.0
21
149500.0
31
0
0
LINE
8
interiors
10
-262300.0
20
122500.0
30
0
11
-262300.0
21
122620.0
31
0
0
LINE
8
interiors
10
-242120.0
20
122620.0
30
0
11
-262300.0
21
122620.0
31
0
0
LINE
8
interiors
10
-264700.0
20
122620.0
30
0
11
-284880.0
21
122620.0
31
0
0
LINE
8
interiors
10
-264700.0
20
122500.0
30
0
11
-264700.0
21
122620.0
31
0
0
LINE
8
interiors
10
-264700.0
20
122620.0
30
0
11
-262300.0
21
122620.0
31
0
0
LINE
8
interiors
10
-274680.0
20
149380.0
30
0
11
-252320.0
21
149380.0
31
0
0
LINE
8
interiors
10
-274680.0
20
149380.0
30
0
11
-274680.0
21
149500.0
31
0
0
LINE
8
interiors
10
-252320.0
20
149380.0
30
0
11
-252320.0
21
149500.0
31
0
0
LINE
8
interiors
10
-274680.0
20
149477.5
30
0
11
-274680.0
21
149522.5
31
0
0
LINE
8
interiors
10
-252320.0
20
149477.5
30
0
11
-252320.0
21
149522.5
31
0
0
LINE
8
interiors
10
-274680.0
20
149477.5
30
0
11
-252320.0
21
149477.5
31
0
0
LINE
8
interiors
10
-274680.0
20
149522.5
30
0
11
-252320.0
21
149522.5
31
0
0
LINE
8
interiors
10
-284875.0
20
122625.0
30
0
11
-284875.0
21
149375.0
31
0
0
LINE
8
interiors
10
-242125.0
20
122625.0
30
0
11
-242125.0
21
149375.0
31
0
0
LINE
8
interiors
10
-284875.0
20
122625.0
30
0
11
-242125.0
21
122625.0
31
0
0
LINE
8
interiors
10
-284875.0
20
149375.0
30
0
11
-242125.0
21
149375.0
31
0
0
LINE
8
interiors
10
-264655.0
20
122380.0
30
0
11
-264655.0
21
122620.0
31
0
0
LINE
8
interiors
10
-264585.0
20
122380.0
30
0
11
-264585.0
21
122620.0
31
0
0
LINE
8
interiors
10
-264655.0
20
122380.0
30
0
11
-264585.0
21
122380.0
31
0
0
LINE
8
interiors
10
-264655.0
20
122620.0
30
0
11
-264585.0
21
122620.0
31
0
0
LINE
8
interiors
10
-262415.0
20
122380.0
30
0
11
-262415.0
21
122620.0
31
0
0
LINE
8
interiors
10
-262345.0
20
122380.0
30
0
11
-262345.0
21
122620.0
31
0
0
LINE
8
interiors
10
-262415.0
20
122380.0
30
0
11
-262345.0
21
122380.0
31
0
0
LINE
8
interiors
10
-262415.0
20
122620.0
30
0
11
-262345.0
21
122620.0
31
0
0
LINE
8
interiors
10
-264650.0
20
122380.0
30
0
11
-264650.0
21
122620.0
31
0
0
LINE
8
interiors
10
-262350.0
20
122380.0
30
0
11
-262350.0
21
122620.0
31
0
0
LINE
8
interiors
10
-264650.0
20
122380.0
30
0
11
-262350.0
21
122380.0
31
0
0
LINE
8
interiors
10
-264650.0
20
122620.0
30
0
11
-262350.0
21
122620.0
31
0
0
LINE
8
interiors
10
-264569.61
20
122590.49
30
0
11
-264610.39
21
122609.51
31
0
0
LINE
8
interiors
10
-264113.18
20
123569.3
30
0
11
-264153.96
21
123588.32
31
0
0
LINE
8
interiors
10
-264569.61
20
122590.49
30
0
11
-264113.18
21
123569.3
31
0
0
LINE
8
interiors
10
-264610.39
20
122609.51
30
0
11
-264153.96
21
123588.32
31
0
0
LINE
8
interiors
10
-279220.0
20
135760.0
30
0
11
-279220.0
21
136240.0
31
0
0
LINE
8
interiors
10
-278740.0
20
135760.0
30
0
11
-278740.0
21
136240.0
31
0
0
LINE
8
interiors
10
-279220.0
20
135760.0
30
0
11
-278740.0
21
135760.0
31
0
0
LINE
8
interiors
10
-279220.0
20
136240.0
30
0
11
-278740.0
21
136240.0
31
0
0
LINE
8
interiors
10
-279220.0
20
136177.5
30
0
11
-279220.0
21
136242.5
31
0
0
LINE
8
interiors
10
-278740.0
20
136177.5
30
0
11
-278740.0
21
136242.5
31
0
0
LINE
8
interiors
10
-279220.0
20
136177.5
30
0
11
-278740.0
21
136177.5
31
0
0
LINE
8
interiors
10
-279220.0
20
136242.5
30
0
11
-278740.0
21
136242.5
31
0
0
LINE
8
interiors
10
-279187.5
20
135792.5
30
0
11
-279187.5
21
135827.5
31
0
0
LINE
8
interiors
10
-279152.5
20
135792.5
30
0
11
-279152.5
21
135827.5
31
0
0
LINE
8
interiors
10
-279187.5
20
135792.5
30
0
11
-279152.5
21
135792.5
31
0
0
LINE
8
interiors
10
-279187.5
20
135827.5
30
0
11
-279152.5
21
135827.5
31
0
0
LINE
8
interiors
10
-279187.5
20
136172.5
30
0
11
-279187.5
21
136207.5
31
0
0
LINE
8
interiors
10
-279152.5
20
136172.5
30
0
11
-279152.5
21
136207.5
31
0
0
LINE
8
interiors
10
-279187.5
20
136172.5
30
0
11
-279152.5
21
136172.5
31
0
0
LINE
8
interiors
10
-279187.5
20
136207.5
30
0
11
-279152.5
21
136207.5
31
0
0
LINE
8
interiors
10
-278807.5
20
135792.5
30
0
11
-278807.5
21
135827.5
31
0
0
LINE
8
interiors
10
-278772.5
20
135792.5
30
0
11
-278772.5
21
135827.5
31
0
0
LINE
8
interiors
10
-278807.5
20
135792.5
30
0
11
-278772.5
21
135792.5
31
0
0
LINE
8
interiors
10
-278807.5
20
135827.5
30
0
11
-278772.5
21
135827.5
31
0
0
LINE
8
interiors
10
-278807.5
20
136172.5
30
0
11
-278807.5
21
136207.5
31
0
0
LINE
8
interiors
10
-278772.5
20
136172.5
30
0
11
-278772.5
21
136207.5
31
0
0
LINE
8
interiors
10
-278807.5
20
136172.5
30
0
11
-278772.5
21
136172.5
31
0
0
LINE
8
interiors
10
-278807.5
20
136207.5
30
0
11
-278772.5
21
136207.5
31
0
0
LINE
8
interiors
10
-277980.0
20
136000.0
30
0
11
-278061.88
21
136224.98
31
0
0
LINE
8
interiors
10
-278061.88
20
136224.98
30
0
11
-278269.22
21
136344.68
31
0
0
LINE
8
interiors
10
-278269.22
20
136344.68
30
0
11
-278505.0
21
136303.11
31
0
0
LINE
8
interiors
10
-278505.0
20
136303.11
30
0
11
-278658.89
21
136119.71
31
0
0
LINE
8
interiors
10
-278658.89
20
136119.71
30
0
11
-278658.89
21
135880.29
31
0
0
LINE
8
interiors
10
-278658.89
20
135880.29
30
0
11
-278505.0
21
135696.89
31
0
0
LINE
8
interiors
10
-278505.0
20
135696.89
30
0
11
-278269.22
21
135655.32
31
0
0
LINE
8
interiors
10
-278269.22
20
135655.32
30
0
11
-278061.88
21
135775.02
31
0
0
LINE
8
interiors
10
-278061.88
20
135775.02
30
0
11
-277980.0
21
136000.0
31
0
0
LINE
8
interiors
10
-278290.0
20
136000.0
30
0
11
-278350.0
21
136034.64
31
0
0
LINE
8
interiors
10
-278350.0
20
136034.64
30
0
11
-278350.0
21
135965.36
31
0
0
LINE
8
interiors
10
-278350.0
20
135965.36
30
0
11
-278290.0
21
136000.0
31
0
0
LINE
8
interiors
10
-273028.0
20
135760.0
30
0
11
-273028.0
21
136240.0
31
0
0
LINE
8
interiors
10
-272548.0
20
135760.0
30
0
11
-272548.0
21
136240.0
31
0
0
LINE
8
interiors
10
-273028.0
20
135760.0
30
0
11
-272548.0
21
135760.0
31
0
0
LINE
8
interiors
10
-273028.0
20
136240.0
30
0
11
-272548.0
21
136240.0
31
0
0
LINE
8
interiors
10
-273028.0
20
136177.5
30
0
11
-273028.0
21
136242.5
31
0
0
LINE
8
interiors
10
-272548.0
20
136177.5
30
0
11
-272548.0
21
136242.5
31
0
0
LINE
8
interiors
10
-273028.0
20
136177.5
30
0
11
-272548.0
21
136177.5
31
0
0
LINE
8
interiors
10
-273028.0
20
136242.5
30
0
11
-272548.0
21
136242.5
31
0
0
LINE
8
interiors
10
-272995.5
20
135792.5
30
0
11
-272995.5
21
135827.5
31
0
0
LINE
8
interiors
10
-272960.5
20
135792.5
30
0
11
-272960.5
21
135827.5
31
0
0
LINE
8
interiors
10
-272995.5
20
135792.5
30
0
11
-272960.5
21
135792.5
31
0
0
LINE
8
interiors
10
-272995.5
20
135827.5
30
0
11
-272960.5
21
135827.5
31
0
0
LINE
8
interiors
10
-272995.5
20
136172.5
30
0
11
-272995.5
21
136207.5
31
0
0
LINE
8
interiors
10
-272960.5
20
136172.5
30
0
11
-272960.5
21
136207.5
31
0
0
LINE
8
interiors
10
-272995.5
20
136172.5
30
0
11
-272960.5
21
136172.5
31
0
0
LINE
8
interiors
10
-272995.5
20
136207.5
30
0
11
-272960.5
21
136207.5
31
0
0
LINE
8
interiors
10
-272615.5
20
135792.5
30
0
11
-272615.5
21
135827.5
31
0
0
LINE
8
interiors
10
-272580.5
20
135792.5
30
0
11
-272580.5
21
135827.5
31
0
0
LINE
8
interiors
10
-272615.5
20
135792.5
30
0
11
-272580.5
21
135792.5
31
0
0
LINE
8
interiors
10
-272615.5
20
135827.5
30
0
11
-272580.5
21
135827.5
31
0
0
LINE
8
interiors
10
-272615.5
20
136172.5
30
0
11
-272615.5
21
136207.5
31
0
0
LINE
8
interiors
10
-272580.5
20
136172.5
30
0
11
-272580.5
21
136207.5
31
0
0
LINE
8
interiors
10
-272615.5
20
136172.5
30
0
11
-272580.5
21
136172.5
31
0
0
LINE
8
interiors
10
-272615.5
20
136207.5
30
0
11
-272580.5
21
136207.5
31
0
0
LINE
8
interiors
10
-271788.0
20
136000.0
30
0
11
-271869.88
21
136224.98
31
0
0
LINE
8
interiors
10
-271869.88
20
136224.98
30
0
11
-272077.22
21
136344.68
31
0
0
LINE
8
interiors
10
-272077.22
20
136344.68
30
0
11
-272313.0
21
136303.11
31
0
0
LINE
8
interiors
10
-272313.0
20
136303.11
30
0
11
-272466.89
21
136119.71
31
0
0
LINE
8
interiors
10
-272466.89
20
136119.71
30
0
11
-272466.89
21
135880.29
31
0
0
LINE
8
interiors
10
-272466.89
20
135880.29
30
0
11
-272313.0
21
135696.89
31
0
0
LINE
8
interiors
10
-272313.0
20
135696.89
30
0
11
-272077.22
21
135655.32
31
0
0
LINE
8
interiors
10
-272077.22
20
135655.32
30
0
11
-271869.88
21
135775.02
31
0
0
LINE
8
interiors
10
-271869.88
20
135775.02
30
0
11
-271788.0
21
136000.0
31
0
0
LINE
8
interiors
10
-272098.0
20
136000.0
30
0
11
-272158.0
21
136034.64
31
0
0
LINE
8
interiors
10
-272158.0
20
136034.64
30
0
11
-272158.0
21
135965.36
31
0
0
LINE
8
interiors
10
-272158.0
20
135965.36
30
0
11
-272098.0
21
136000.0
31
0
0
LINE
8
interiors
10
-266836.0
20
135760.0
30
0
11
-266836.0
21
136240.0
31
0
0
LINE
8
interiors
10
-266356.0
20
135760.0
30
0
11
-266356.0
21
136240.0
31
0
0
LINE
8
interiors
10
-266836.0
20
135760.0
30
0
11
-266356.0
21
135760.0
31
0
0
LINE
8
interiors
10
-266836.0
20
136240.0
30
0
11
-266356.0
21
136240.0
31
0
0
LINE
8
interiors
10
-266836.0
20
136177.5
30
0
11
-266836.0
21
136242.5
31
0
0
LINE
8
interiors
10
-266356.0
20
136177.5
30
0
11
-266356.0
21
136242.5
31
0
0
LINE
8
interiors
10
-266836.0
20
136177.5
30
0
11
-266356.0
21
136177.5
31
0
0
LINE
8
interiors
10
-266836.0
20
136242.5
30
0
11
-266356.0
21
136242.5
31
0
0
LINE
8
interiors
10
-266803.5
20
135792.5
30
0
11
-266803.5
21
135827.5
31
0
0
LINE
8
interiors
10
-266768.5
20
135792.5
30
0
11
-266768.5
21
135827.5
31
0
0
LINE
8
interiors
10
-266803.5
20
135792.5
30
0
11
-266768.5
21
135792.5
31
0
0
LINE
8
interiors
10
-266803.5
20
135827.5
30
0
11
-266768.5
21
135827.5
31
0
0
LINE
8
interiors
10
-266803.5
20
136172.5
30
0
11
-266803.5
21
136207.5
31
0
0
LINE
8
interiors
10
-266768.5
20
136172.5
30
0
11
-266768.5
21
136207.5
31
0
0
LINE
8
interiors
10
-266803.5
20
136172.5
30
0
11
-266768.5
21
136172.5
31
0
0
LINE
8
interiors
10
-266803.5
20
136207.5
30
0
11
-266768.5
21
136207.5
31
0
0
LINE
8
interiors
10
-266423.5
20
135792.5
30
0
11
-266423.5
21
135827.5
31
0
0
LINE
8
interiors
10
-266388.5
20
135792.5
30
0
11
-266388.5
21
135827.5
31
0
0
LINE
8
interiors
10
-266423.5
20
135792.5
30
0
11
-266388.5
21
135792.5
31
0
0
LINE
8
interiors
10
-266423.5
20
135827.5
30
0
11
-266388.5
21
135827.5
31
0
0
LINE
8
interiors
10
-266423.5
20
136172.5
30
0
11
-266423.5
21
136207.5
31
0
0
LINE
8
interiors
10
-266388.5
20
136172.5
30
0
11
-266388.5
21
136207.5
31
0
0
LINE
8
interiors
10
-266423.5
20
136172.5
30
0
11
-266388.5
21
136172.5
31
0
0
LINE
8
interiors
10
-266423.5
20
136207.5
30
0
11
-266388.5
21
136207.5
31
0
0
LINE
8
interiors
10
-265596.0
20
136000.0
30
0
11
-265677.88
21
136224.98
31
0
0
LINE
8
interiors
10
-265677.88
20
136224.98
30
0
11
-265885.22
21
136344.68
31
0
0
LINE
8
interiors
10
-265885.22
20
136344.68
30
0
11
-266121.0
21
136303.11
31
0
0
LINE
8
interiors
10
-266121.0
20
136303.11
30
0
11
-266274.89
21
136119.71
31
0
0
LINE
8
interiors
10
-266274.89
20
136119.71
30
0
11
-266274.89
21
135880.29
31
0
0
LINE
8
interiors
10
-266274.89
20
135880.29
30
0
11
-266121.0
21
135696.89
31
0
0
LINE
8
interiors
10
-266121.0
20
135696.89
30
0
11
-265885.22
21
135655.32
31
0
0
LINE
8
interiors
10
-265885.22
20
135655.32
30
0
11
-265677.88
21
135775.02
31
0
0
LINE
8
interiors
10
-265677.88
20
135775.02
30
0
11
-265596.0
21
136000.0
31
0
0
LINE
8
interiors
10
-265906.0
20
136000.0
30
0
11
-265966.0
21
136034.64
31
0
0
LINE
8
interiors
10
-265966.0
20
136034.64
30
0
11
-265966.0
21
135965.36
31
0
0
LINE
8
interiors
10
-265966.0
20
135965.36
30
0
11
-265906.0
21
136000.0
31
0
0
LINE
8
interiors
10
-260644.0
20
135760.0
30
0
11
-260644.0
21
136240.0
31
0
0
LINE
8
interiors
10
-260164.0
20
135760.0
30
0
11
-260164.0
21
136240.0
31
0
0
LINE
8
interiors
10
-260644.0
20
135760.0
30
0
11
-260164.0
21
135760.0
31
0
0
LINE
8
interiors
10
-260644.0
20
136240.0
30
0
11
-260164.0
21
136240.0
31
0
0
LINE
8
interiors
10
-260644.0
20
136177.5
30
0
11
-260644.0
21
136242.5
31
0
0
LINE
8
interiors
10
-260164.0
20
136177.5
30
0
11
-260164.0
21
136242.5
31
0
0
LINE
8
interiors
10
-260644.0
20
136177.5
30
0
11
-260164.0
21
136177.5
31
0
0
LINE
8
interiors
10
-260644.0
20
136242.5
30
0
11
-260164.0
21
136242.5
31
0
0
LINE
8
interiors
10
-260611.5
20
135792.5
30
0
11
-260611.5
21
135827.5
31
0
0
LINE
8
interiors
10
-260576.5
20
135792.5
30
0
11
-260576.5
21
135827.5
31
0
0
LINE
8
interiors
10
-260611.5
20
135792.5
30
0
11
-260576.5
21
135792.5
31
0
0
LINE
8
interiors
10
-260611.5
20
135827.5
30
0
11
-260576.5
21
135827.5
31
0
0
LINE
8
interiors
10
-260611.5
20
136172.5
30
0
11
-260611.5
21
136207.5
31
0
0
LINE
8
interiors
10
-260576.5
20
136172.5
30
0
11
-260576.5
21
136207.5
31
0
0
LINE
8
interiors
10
-260611.5
20
136172.5
30
0
11
-260576.5
21
136172.5
31
0
0
LINE
8
interiors
10
-260611.5
20
136207.5
30
0
11
-260576.5
21
136207.5
31
0
0
LINE
8
interiors
10
-260231.5
20
135792.5
30
0
11
-260231.5
21
135827.5
31
0
0
LINE
8
interiors
10
-260196.5
20
135792.5
30
0
11
-260196.5
21
135827.5
31
0
0
LINE
8
interiors
10
-260231.5
20
135792.5
30
0
11
-260196.5
21
135792.5
31
0
0
LINE
8
interiors
10
-260231.5
20
135827.5
30
0
11
-260196.5
21
135827.5
31
0
0
LINE
8
interiors
10
-260231.5
20
136172.5
30
0
11
-260231.5
21
136207.5
31
0
0
LINE
8
interiors
10
-260196.5
20
136172.5
30
0
11
-260196.5
21
136207.5
31
0
0
LINE
8
interiors
10
-260231.5
20
136172.5
30
0
11
-260196.5
21
136172.5
31
0
0
LINE
8
interiors
10
-260231.5
20
136207.5
30
0
11
-260196.5
21
136207.5
31
0
0
LINE
8
interiors
10
-259404.0
20
136000.0
30
0
11
-259485.88
21
136224.98
31
0
0
LINE
8
interiors
10
-259485.88
20
136224.98
30
0
11
-259693.22
21
136344.68
31
0
0
LINE
8
interiors
10
-259693.22
20
136344.68
30
0
11
-259929.0
21
136303.11
31
0
0
LINE
8
interiors
10
-259929.0
20
136303.11
30
0
11
-260082.89
21
136119.71
31
0
0
LINE
8
interiors
10
-260082.89
20
136119.71
30
0
11
-260082.89
21
135880.29
31
0
0
LINE
8
interiors
10
-260082.89
20
135880.29
30
0
11
-259929.0
21
135696.89
31
0
0
LINE
8
interiors
10
-259929.0
20
135696.89
30
0
11
-259693.22
21
135655.32
31
0
0
LINE
8
interiors
10
-259693.22
20
135655.32
30
0
11
-259485.88
21
135775.02
31
0
0
LINE
8
interiors
10
-259485.88
20
135775.02
30
0
11
-259404.0
21
136000.0
31
0
0
LINE
8
interiors
10
-259714.0
20
136000.0
30
0
11
-259774.0
21
136034.64
31
0
0
LINE
8
interiors
10
-259774.0
20
136034.64
30
0
11
-259774.0
21
135965.36
31
0
0
LINE
8
interiors
10
-259774.0
20
135965.36
30
0
11
-259714.0
21
136000.0
31
0
0
LINE
8
interiors
10
-254452.0
20
135760.0
30
0
11
-254452.0
21
136240.0
31
0
0
LINE
8
interiors
10
-253972.0
20
135760.0
30
0
11
-253972.0
21
136240.0
31
0
0
LINE
8
interiors
10
-254452.0
20
135760.0
30
0
11
-253972.0
21
135760.0
31
0
0
LINE
8
interiors
10
-254452.0
20
136240.0
30
0
11
-253972.0
21
136240.0
31
0
0
LINE
8
interiors
10
-254452.0
20
136177.5
30
0
11
-254452.0
21
136242.5
31
0
0
LINE
8
interiors
10
-253972.0
20
136177.5
30
0
11
-253972.0
21
136242.5
31
0
0
LINE
8
interiors
10
-254452.0
20
136177.5
30
0
11
-253972.0
21
136177.5
31
0
0
LINE
8
interiors
10
-254452.0
20
136242.5
30
0
11
-253972.0
21
136242.5
31
0
0
LINE
8
interiors
10
-254419.5
20
135792.5
30
0
11
-254419.5
21
135827.5
31
0
0
LINE
8
interiors
10
-254384.5
20
135792.5
30
0
11
-254384.5
21
135827.5
31
0
0
LINE
8
interiors
10
-254419.5
20
135792.5
30
0
11
-254384.5
21
135792.5
31
0
0
LINE
8
interiors
10
-254419.5
20
135827.5
30
0
11
-254384.5
21
135827.5
31
0
0
LINE
8
interiors
10
-254419.5
20
136172.5
30
0
11
-254419.5
21
136207.5
31
0
0
LINE
8
interiors
10
-254384.5
20
136172.5
30
0
11
-254384.5
21
136207.5
31
0
0
LINE
8
interiors
10
-254419.5
20
136172.5
30
0
11
-254384.5
21
136172.5
31
0
0
LINE
8
interiors
10
-254419.5
20
136207.5
30
0
11
-254384.5
21
136207.5
31
0
0
LINE
8
interiors
10
-254039.5
20
135792.5
30
0
11
-254039.5
21
135827.5
31
0
0
LINE
8
interiors
10
-254004.5
20
135792.5
30
0
11
-254004.5
21
135827.5
31
0
0
LINE
8
interiors
10
-254039.5
20
135792.5
30
0
11
-254004.5
21
135792.5
31
0
0
LINE
8
interiors
10
-254039.5
20
135827.5
30
0
11
-254004.5
21
135827.5
31
0
0
LINE
8
interiors
10
-254039.5
20
136172.5
30
0
11
-254039.5
21
136207.5
31
0
0
LINE
8
interiors
10
-254004.5
20
136172.5
30
0
11
-254004.5
21
136207.5
31
0
0
LINE
8
interiors
10
-254039.5
20
136172.5
30
0
11
-254004.5
21
136172.5
31
0
0
LINE
8
interiors
10
-254039.5
20
136207.5
30
0
11
-254004.5
21
136207.5
31
0
0
LINE
8
interiors
10
-253212.0
20
136000.0
30
0
11
-253293.88
21
136224.98
31
0
0
LINE
8
interiors
10
-253293.88
20
136224.98
30
0
11
-253501.22
21
136344.68
31
0
0
LINE
8
interiors
10
-253501.22
20
136344.68
30
0
11
-253737.0
21
136303.11
31
0
0
LINE
8
interiors
10
-253737.0
20
136303.11
30
0
11
-253890.89
21
136119.71
31
0
0
LINE
8
interiors
10
-253890.89
20
136119.71
30
0
11
-253890.89
21
135880.29
31
0
0
LINE
8
interiors
10
-253890.89
20
135880.29
30
0
11
-253737.0
21
135696.89
31
0
0
LINE
8
interiors
10
-253737.0
20
135696.89
30
0
11
-253501.22
21
135655.32
31
0
0
LINE
8
interiors
10
-253501.22
20
135655.32
30
0
11
-253293.88
21
135775.02
31
0
0
LINE
8
interiors
10
-253293.88
20
135775.02
30
0
11
-253212.0
21
136000.0
31
0
0
LINE
8
interiors
10
-253522.0
20
136000.0
30
0
11
-253582.0
21
136034.64
31
0
0
LINE
8
interiors
10
-253582.0
20
136034.64
30
0
11
-253582.0
21
135965.36
31
0
0
LINE
8
interiors
10
-253582.0
20
135965.36
30
0
11
-253522.0
21
136000.0
31
0
0
LINE
8
interiors
10
-248260.0
20
135760.0
30
0
11
-248260.0
21
136240.0
31
0
0
LINE
8
interiors
10
-247780.0
20
135760.0
30
0
11
-247780.0
21
136240.0
31
0
0
LINE
8
interiors
10
-248260.0
20
135760.0
30
0
11
-247780.0
21
135760.0
31
0
0
LINE
8
interiors
10
-248260.0
20
136240.0
30
0
11
-247780.0
21
136240.0
31
0
0
LINE
8
interiors
10
-248260.0
20
136177.5
30
0
11
-248260.0
21
136242.5
31
0
0
LINE
8
interiors
10
-247780.0
20
136177.5
30
0
11
-247780.0
21
136242.5
31
0
0
LINE
8
interiors
10
-248260.0
20
136177.5
30
0
11
-247780.0
21
136177.5
31
0
0
LINE
8
interiors
10
-248260.0
20
136242.5
30
0
11
-247780.0
21
136242.5
31
0
0
LINE
8
interiors
10
-248227.5
20
135792.5
30
0
11
-248227.5
21
135827.5
31
0
0
LINE
8
interiors
10
-248192.5
20
135792.5
30
0
11
-248192.5
21
135827.5
31
0
0
LINE
8
interiors
10
-248227.5
20
135792.5
30
0
11
-248192.5
21
135792.5
31
0
0
LINE
8
interiors
10
-248227.5
20
135827.5
30
0
11
-248192.5
21
135827.5
31
0
0
LINE
8
interiors
10
-248227.5
20
136172.5
30
0
11
-248227.5
21
136207.5
31
0
0
LINE
8
interiors
10
-248192.5
20
136172.5
30
0
11
-248192.5
21
136207.5
31
0
0
LINE
8
interiors
10
-248227.5
20
136172.5
30
0
11
-248192.5
21
136172.5
31
0
0
LINE
8
interiors
10
-248227.5
20
136207.5
30
0
11
-248192.5
21
136207.5
31
0
0
LINE
8
interiors
10
-247847.5
20
135792.5
30
0
11
-247847.5
21
135827.5
31
0
0
LINE
8
interiors
10
-247812.5
20
135792.5
30
0
11
-247812.5
21
135827.5
31
0
0
LINE
8
interiors
10
-247847.5
20
135792.5
30
0
11
-247812.5
21
135792.5
31
0
0
LINE
8
interiors
10
-247847.5
20
135827.5
30
0
11
-247812.5
21
135827.5
31
0
0
LINE
8
interiors
10
-247847.5
20
136172.5
30
0
11
-247847.5
21
136207.5
31
0
0
LINE
8
interiors
10
-247812.5
20
136172.5
30
0
11
-247812.5
21
136207.5
31
0
0
LINE
8
interiors
10
-247847.5
20
136172.5
30
0
11
-247812.5
21
136172.5
31
0
0
LINE
8
interiors
10
-247847.5
20
136207.5
30
0
11
-247812.5
21
136207.5
31
0
0
LINE
8
interiors
10
-247020.0
20
136000.0
30
0
11
-247101.88
21
136224.98
31
0
0
LINE
8
interiors
10
-247101.88
20
136224.98
30
0
11
-247309.22
21
136344.68
31
0
0
LINE
8
interiors
10
-247309.22
20
136344.68
30
0
11
-247545.0
21
136303.11
31
0
0
LINE
8
interiors
10
-247545.0
20
136303.11
30
0
11
-247698.89
21
136119.71
31
0
0
LINE
8
interiors
10
-247698.89
20
136119.71
30
0
11
-247698.89
21
135880.29
31
0
0
LINE
8
interiors
10
-247698.89
20
135880.29
30
0
11
-247545.0
21
135696.89
31
0
0
LINE
8
interiors
10
-247545.0
20
135696.89
30
0
11
-247309.22
21
135655.32
31
0
0
LINE
8
interiors
10
-247309.22
20
135655.32
30
0
11
-247101.88
21
135775.02
31
0
0
LINE
8
interiors
10
-247101.88
20
135775.02
30
0
11
-247020.0
21
136000.0
31
0
0
LINE
8
interiors
10
-247330.0
20
136000.0
30
0
11
-247390.0
21
136034.64
31
0
0
LINE
8
interiors
10
-247390.0
20
136034.64
30
0
11
-247390.0
21
135965.36
31
0
0
LINE
8
interiors
10
-247390.0
20
135965.36
30
0
11
-247330.0
21
136000.0
31
0
0
LINE
8
interiors
10
-277500.0
20
127400.0
30
0
11
-277500.0
21
128400.0
31
0
0
LINE
8
interiors
10
-275300.0
20
127400.0
30
0
11
-275300.0
21
128400.0
31
0
0
LINE
8
interiors
10
-277500.0
20
127400.0
30
0
11
-275300.0
21
127400.0
31
0
0
LINE
8
interiors
10
-277500.0
20
128400.0
30
0
11
-275300.0
21
128400.0
31
0
0
LINE
8
interiors
10
-276350.0
20
127625.0
30
0
11
-276350.0
21
128175.0
31
0
0
LINE
8
interiors
10
-275650.0
20
127625.0
30
0
11
-275650.0
21
128175.0
31
0
0
LINE
8
interiors
10
-276350.0
20
127625.0
30
0
11
-275650.0
21
127625.0
31
0
0
LINE
8
interiors
10
-276350.0
20
128175.0
30
0
11
-275650.0
21
128175.0
31
0
0
LINE
8
interiors
10
-276850.0
20
127900.0
30
0
11
-276925.3
21
128056.37
31
0
0
LINE
8
interiors
10
-276925.3
20
128056.37
30
0
11
-277094.5
21
128094.99
31
0
0
LINE
8
interiors
10
-277094.5
20
128094.99
30
0
11
-277230.19
21
127986.78
31
0
0
LINE
8
interiors
10
-277230.19
20
127986.78
30
0
11
-277230.19
21
127813.22
31
0
0
LINE
8
interiors
10
-277230.19
20
127813.22
30
0
11
-277094.5
21
127705.01
31
0
0
LINE
8
interiors
10
-277094.5
20
127705.01
30
0
11
-276925.3
21
127743.63
31
0
0
LINE
8
interiors
10
-276925.3
20
127743.63
30
0
11
-276850.0
21
127900.0
31
0
0
LINE
8
electrical
10
-242725.0
20
122575.0
30
0
11
-242725.0
21
122825.0
31
0
0
LINE
8
electrical
10
-242175.0
20
122575.0
30
0
11
-242175.0
21
122825.0
31
0
0
LINE
8
electrical
10
-242725.0
20
122575.0
30
0
11
-242175.0
21
122575.0
31
0
0
LINE
8
electrical
10
-242725.0
20
122825.0
30
0
11
-242175.0
21
122825.0
31
0
0
LINE
8
electrical
10
-242685.0
20
122547.5
30
0
11
-242685.0
21
122582.5
31
0
0
LINE
8
electrical
10
-242215.0
20
122547.5
30
0
11
-242215.0
21
122582.5
31
0
0
LINE
8
electrical
10
-242685.0
20
122547.5
30
0
11
-242215.0
21
122547.5
31
0
0
LINE
8
electrical
10
-242685.0
20
122582.5
30
0
11
-242215.0
21
122582.5
31
0
0
LINE
8
electrical
10
-242637.5
20
122510.0
30
0
11
-242637.5
21
122550.0
31
0
0
LINE
8
electrical
10
-242537.5
20
122510.0
30
0
11
-242537.5
21
122550.0
31
0
0
LINE
8
electrical
10
-242637.5
20
122510.0
30
0
11
-242537.5
21
122510.0
31
0
0
LINE
8
electrical
10
-242637.5
20
122550.0
30
0
11
-242537.5
21
122550.0
31
0
0
LINE
8
electrical
10
-242500.0
20
122510.0
30
0
11
-242500.0
21
122550.0
31
0
0
LINE
8
electrical
10
-242400.0
20
122510.0
30
0
11
-242400.0
21
122550.0
31
0
0
LINE
8
electrical
10
-242500.0
20
122510.0
30
0
11
-242400.0
21
122510.0
31
0
0
LINE
8
electrical
10
-242500.0
20
122550.0
30
0
11
-242400.0
21
122550.0
31
0
0
LINE
8
electrical
10
-242362.5
20
122510.0
30
0
11
-242362.5
21
122550.0
31
0
0
LINE
8
electrical
10
-242262.5
20
122510.0
30
0
11
-242262.5
21
122550.0
31
0
0
LINE
8
electrical
10
-242362.5
20
122510.0
30
0
11
-242262.5
21
122510.0
31
0
0
LINE
8
electrical
10
-242362.5
20
122550.0
30
0
11
-242262.5
21
122550.0
31
0
0
LINE
8
electrical
10
-242587.5
20
122495.0
30
0
11
-242564.12
21
122495.0
31
0
0
LINE
8
electrical
10
-242564.12
20
122495.0
30
0
11
-242610.88
21
122495.0
31
0
0
LINE
8
electrical
10
-242610.88
20
122495.0
30
0
11
-242587.5
21
122495.0
31
0
0
LINE
8
electrical
10
-242587.5
20
122520.0
30
0
11
-242587.5
21
122495.0
31
0
0
LINE
8
electrical
10
-242587.5
20
122520.0
30
0
11
-242564.12
21
122520.0
31
0
0
LINE
8
electrical
10
-242564.12
20
122520.0
30
0
11
-242610.88
21
122520.0
31
0
0
LINE
8
electrical
10
-242610.88
20
122520.0
30
0
11
-242587.5
21
122520.0
31
0
0
LINE
8
electrical
10
-242450.0
20
122495.0
30
0
11
-242426.62
21
122495.0
31
0
0
LINE
8
electrical
10
-242426.62
20
122495.0
30
0
11
-242473.38
21
122495.0
31
0
0
LINE
8
electrical
10
-242473.38
20
122495.0
30
0
11
-242450.0
21
122495.0
31
0
0
LINE
8
electrical
10
-242450.0
20
122520.0
30
0
11
-242450.0
21
122495.0
31
0
0
LINE
8
electrical
10
-242450.0
20
122520.0
30
0
11
-242426.62
21
122520.0
31
0
0
LINE
8
electrical
10
-242426.62
20
122520.0
30
0
11
-242473.38
21
122520.0
31
0
0
LINE
8
electrical
10
-242473.38
20
122520.0
30
0
11
-242450.0
21
122520.0
31
0
0
LINE
8
electrical
10
-242312.5
20
122495.0
30
0
11
-242289.12
21
122495.0
31
0
0
LINE
8
electrical
10
-242289.12
20
122495.0
30
0
11
-242335.88
21
122495.0
31
0
0
LINE
8
electrical
10
-242335.88
20
122495.0
30
0
11
-242312.5
21
122495.0
31
0
0
LINE
8
electrical
10
-242312.5
20
122520.0
30
0
11
-242312.5
21
122495.0
31
0
0
LINE
8
electrical
10
-242312.5
20
122520.0
30
0
11
-242289.12
21
122520.0
31
0
0
LINE
8
electrical
10
-242289.12
20
122520.0
30
0
11
-242335.88
21
122520.0
31
0
0
LINE
8
electrical
10
-242335.88
20
122520.0
30
0
11
-242312.5
21
122520.0
31
0
0
LINE
8
electrical
10
-242450.0
20
122700.0
30
0
11
-242434.41
21
122700.0
31
0
0
LINE
8
electrical
10
-242434.41
20
122700.0
30
0
11
-242465.59
21
122700.0
31
0
0
LINE
8
electrical
10
-242465.59
20
122700.0
30
0
11
-242450.0
21
122700.0
31
0
0
LINE
8
electrical
10
-242450.0
20
122200.0
30
0
11
-242450.0
21
122700.0
31
0
0
LINE
8
electrical
10
-242450.0
20
122200.0
30
0
11
-242434.41
21
122200.0
31
0
0
LINE
8
electrical
10
-242434.41
20
122200.0
30
0
11
-242465.59
21
122200.0
31
0
0
LINE
8
electrical
10
-242465.59
20
122200.0
30
0
11
-242450.0
21
122200.0
31
0
0
LINE
8
electrical
10
-242468.0
20
122700.0
30
0
11
-242441.0
21
122715.59
31
0
0
LINE
8
electrical
10
-242441.0
20
122715.59
30
0
11
-242441.0
21
122684.41
31
0
0
LINE
8
electrical
10
-242441.0
20
122684.41
30
0
11
-242468.0
21
122700.0
31
0
0
LINE
8
electrical
10
-242450.0
20
122700.0
30
0
11
-242430.56
21
122700.0
31
0
0
LINE
8
electrical
10
-242430.56
20
122700.0
30
0
11
-242450.0
21
122700.0
31
0
0
LINE
8
lighting
10
-279300.0
20
126500.0
30
0
11
-279300.0
21
127140.0
31
0
0
LINE
8
lighting
10
-278660.0
20
126500.0
30
0
11
-278660.0
21
127140.0
31
0
0
LINE
8
lighting
10
-279300.0
20
126500.0
30
0
11
-278660.0
21
126500.0
31
0
0
LINE
8
lighting
10
-279300.0
20
127140.0
30
0
11
-278660.0
21
127140.0
31
0
0
LINE
8
lighting
10
-279260.0
20
126540.0
30
0
11
-279260.0
21
127100.0
31
0
0
LINE
8
lighting
10
-278700.0
20
126540.0
30
0
11
-278700.0
21
127100.0
31
0
0
LINE
8
lighting
10
-279260.0
20
126540.0
30
0
11
-278700.0
21
126540.0
31
0
0
LINE
8
lighting
10
-279260.0
20
127100.0
30
0
11
-278700.0
21
127100.0
31
0
0
LINE
8
lighting
10
-279226.0
20
126550.0
30
0
11
-279226.0
21
127090.0
31
0
0
LINE
8
lighting
10
-279214.0
20
126550.0
30
0
11
-279214.0
21
127090.0
31
0
0
LINE
8
lighting
10
-279226.0
20
126550.0
30
0
11
-279214.0
21
126550.0
31
0
0
LINE
8
lighting
10
-279226.0
20
127090.0
30
0
11
-279214.0
21
127090.0
31
0
0
LINE
8
lighting
10
-279146.0
20
126550.0
30
0
11
-279146.0
21
127090.0
31
0
0
LINE
8
lighting
10
-279134.0
20
126550.0
30
0
11
-279134.0
21
127090.0
31
0
0
LINE
8
lighting
10
-279146.0
20
126550.0
30
0
11
-279134.0
21
126550.0
31
0
0
LINE
8
lighting
10
-279146.0
20
127090.0
30
0
11
-279134.0
21
127090.0
31
0
0
LINE
8
lighting
10
-279066.0
20
126550.0
30
0
11
-279066.0
21
127090.0
31
0
0
LINE
8
lighting
10
-279054.0
20
126550.0
30
0
11
-279054.0
21
127090.0
31
0
0
LINE
8
lighting
10
-279066.0
20
126550.0
30
0
11
-279054.0
21
126550.0
31
0
0
LINE
8
lighting
10
-279066.0
20
127090.0
30
0
11
-279054.0
21
127090.0
31
0
0
LINE
8
lighting
10
-278986.0
20
126550.0
30
0
11
-278986.0
21
127090.0
31
0
0
LINE
8
lighting
10
-278974.0
20
126550.0
30
0
11
-278974.0
21
127090.0
31
0
0
LINE
8
lighting
10
-278986.0
20
126550.0
30
0
11
-278974.0
21
126550.0
31
0
0
LINE
8
lighting
10
-278986.0
20
127090.0
30
0
11
-278974.0
21
127090.0
31
0
0
LINE
8
lighting
10
-278906.0
20
126550.0
30
0
11
-278906.0
21
127090.0
31
0
0
LINE
8
lighting
10
-278894.0
20
126550.0
30
0
11
-278894.0
21
127090.0
31
0
0
LINE
8
lighting
10
-278906.0
20
126550.0
30
0
11
-278894.0
21
126550.0
31
0
0
LINE
8
lighting
10
-278906.0
20
127090.0
30
0
11
-278894.0
21
127090.0
31
0
0
LINE
8
lighting
10
-278826.0
20
126550.0
30
0
11
-278826.0
21
127090.0
31
0
0
LINE
8
lighting
10
-278814.0
20
126550.0
30
0
11
-278814.0
21
127090.0
31
0
0
LINE
8
lighting
10
-278826.0
20
126550.0
30
0
11
-278814.0
21
126550.0
31
0
0
LINE
8
lighting
10
-278826.0
20
127090.0
30
0
11
-278814.0
21
127090.0
31
0
0
LINE
8
lighting
10
-278746.0
20
126550.0
30
0
11
-278746.0
21
127090.0
31
0
0
LINE
8
lighting
10
-278734.0
20
126550.0
30
0
11
-278734.0
21
127090.0
31
0
0
LINE
8
lighting
10
-278746.0
20
126550.0
30
0
11
-278734.0
21
126550.0
31
0
0
LINE
8
lighting
10
-278746.0
20
127090.0
30
0
11
-278734.0
21
127090.0
31
0
0
LINE
8
lighting
10
-278971.0
20
126820.0
30
0
11
-278984.5
21
126827.79
31
0
0
LINE
8
lighting
10
-278984.5
20
126827.79
30
0
11
-278984.5
21
126812.21
31
0
0
LINE
8
lighting
10
-278984.5
20
126812.21
30
0
11
-278971.0
21
126820.0
31
0
0
LINE
8
lighting
10
-258660.0
20
126500.0
30
0
11
-258660.0
21
127140.0
31
0
0
LINE
8
lighting
10
-258020.0
20
126500.0
30
0
11
-258020.0
21
127140.0
31
0
0
LINE
8
lighting
10
-258660.0
20
126500.0
30
0
11
-258020.0
21
126500.0
31
0
0
LINE
8
lighting
10
-258660.0
20
127140.0
30
0
11
-258020.0
21
127140.0
31
0
0
LINE
8
lighting
10
-258620.0
20
126540.0
30
0
11
-258620.0
21
127100.0
31
0
0
LINE
8
lighting
10
-258060.0
20
126540.0
30
0
11
-258060.0
21
127100.0
31
0
0
LINE
8
lighting
10
-258620.0
20
126540.0
30
0
11
-258060.0
21
126540.0
31
0
0
LINE
8
lighting
10
-258620.0
20
127100.0
30
0
11
-258060.0
21
127100.0
31
0
0
LINE
8
lighting
10
-258586.0
20
126550.0
30
0
11
-258586.0
21
127090.0
31
0
0
LINE
8
lighting
10
-258574.0
20
126550.0
30
0
11
-258574.0
21
127090.0
31
0
0
LINE
8
lighting
10
-258586.0
20
126550.0
30
0
11
-258574.0
21
126550.0
31
0
0
LINE
8
lighting
10
-258586.0
20
127090.0
30
0
11
-258574.0
21
127090.0
31
0
0
LINE
8
lighting
10
-258506.0
20
126550.0
30
0
11
-258506.0
21
127090.0
31
0
0
LINE
8
lighting
10
-258494.0
20
126550.0
30
0
11
-258494.0
21
127090.0
31
0
0
LINE
8
lighting
10
-258506.0
20
126550.0
30
0
11
-258494.0
21
126550.0
31
0
0
LINE
8
lighting
10
-258506.0
20
127090.0
30
0
11
-258494.0
21
127090.0
31
0
0
LINE
8
lighting
10
-258426.0
20
126550.0
30
0
11
-258426.0
21
127090.0
31
0
0
LINE
8
lighting
10
-258414.0
20
126550.0
30
0
11
-258414.0
21
127090.0
31
0
0
LINE
8
lighting
10
-258426.0
20
126550.0
30
0
11
-258414.0
21
126550.0
31
0
0
LINE
8
lighting
10
-258426.0
20
127090.0
30
0
11
-258414.0
21
127090.0
31
0
0
LINE
8
lighting
10
-258346.0
20
126550.0
30
0
11
-258346.0
21
127090.0
31
0
0
LINE
8
lighting
10
-258334.0
20
126550.0
30
0
11
-258334.0
21
127090.0
31
0
0
LINE
8
lighting
10
-258346.0
20
126550.0
30
0
11
-258334.0
21
126550.0
31
0
0
LINE
8
lighting
10
-258346.0
20
127090.0
30
0
11
-258334.0
21
127090.0
31
0
0
LINE
8
lighting
10
-258266.0
20
126550.0
30
0
11
-258266.0
21
127090.0
31
0
0
LINE
8
lighting
10
-258254.0
20
126550.0
30
0
11
-258254.0
21
127090.0
31
0
0
LINE
8
lighting
10
-258266.0
20
126550.0
30
0
11
-258254.0
21
126550.0
31
0
0
LINE
8
lighting
10
-258266.0
20
127090.0
30
0
11
-258254.0
21
127090.0
31
0
0
LINE
8
lighting
10
-258186.0
20
126550.0
30
0
11
-258186.0
21
127090.0
31
0
0
LINE
8
lighting
10
-258174.0
20
126550.0
30
0
11
-258174.0
21
127090.0
31
0
0
LINE
8
lighting
10
-258186.0
20
126550.0
30
0
11
-258174.0
21
126550.0
31
0
0
LINE
8
lighting
10
-258186.0
20
127090.0
30
0
11
-258174.0
21
127090.0
31
0
0
LINE
8
lighting
10
-258106.0
20
126550.0
30
0
11
-258106.0
21
127090.0
31
0
0
LINE
8
lighting
10
-258094.0
20
126550.0
30
0
11
-258094.0
21
127090.0
31
0
0
LINE
8
lighting
10
-258106.0
20
126550.0
30
0
11
-258094.0
21
126550.0
31
0
0
LINE
8
lighting
10
-258106.0
20
127090.0
30
0
11
-258094.0
21
127090.0
31
0
0
LINE
8
lighting
10
-258331.0
20
126820.0
30
0
11
-258344.5
21
126827.79
31
0
0
LINE
8
lighting
10
-258344.5
20
126827.79
30
0
11
-258344.5
21
126812.21
31
0
0
LINE
8
lighting
10
-258344.5
20
126812.21
30
0
11
-258331.0
21
126820.0
31
0
0
LINE
8
lighting
10
-279300.0
20
144860.0
30
0
11
-279300.0
21
145500.0
31
0
0
LINE
8
lighting
10
-278660.0
20
144860.0
30
0
11
-278660.0
21
145500.0
31
0
0
LINE
8
lighting
10
-279300.0
20
144860.0
30
0
11
-278660.0
21
144860.0
31
0
0
LINE
8
lighting
10
-279300.0
20
145500.0
30
0
11
-278660.0
21
145500.0
31
0
0
LINE
8
lighting
10
-279260.0
20
144900.0
30
0
11
-279260.0
21
145460.0
31
0
0
LINE
8
lighting
10
-278700.0
20
144900.0
30
0
11
-278700.0
21
145460.0
31
0
0
LINE
8
lighting
10
-279260.0
20
144900.0
30
0
11
-278700.0
21
144900.0
31
0
0
LINE
8
lighting
10
-279260.0
20
145460.0
30
0
11
-278700.0
21
145460.0
31
0
0
LINE
8
lighting
10
-279226.0
20
144910.0
30
0
11
-279226.0
21
145450.0
31
0
0
LINE
8
lighting
10
-279214.0
20
144910.0
30
0
11
-279214.0
21
145450.0
31
0
0
LINE
8
lighting
10
-279226.0
20
144910.0
30
0
11
-279214.0
21
144910.0
31
0
0
LINE
8
lighting
10
-279226.0
20
145450.0
30
0
11
-279214.0
21
145450.0
31
0
0
LINE
8
lighting
10
-279146.0
20
144910.0
30
0
11
-279146.0
21
145450.0
31
0
0
LINE
8
lighting
10
-279134.0
20
144910.0
30
0
11
-279134.0
21
145450.0
31
0
0
LINE
8
lighting
10
-279146.0
20
144910.0
30
0
11
-279134.0
21
144910.0
31
0
0
LINE
8
lighting
10
-279146.0
20
145450.0
30
0
11
-279134.0
21
145450.0
31
0
0
LINE
8
lighting
10
-279066.0
20
144910.0
30
0
11
-279066.0
21
145450.0
31
0
0
LINE
8
lighting
10
-279054.0
20
144910.0
30
0
11
-279054.0
21
145450.0
31
0
0
LINE
8
lighting
10
-279066.0
20
144910.0
30
0
11
-279054.0
21
144910.0
31
0
0
LINE
8
lighting
10
-279066.0
20
145450.0
30
0
11
-279054.0
21
145450.0
31
0
0
LINE
8
lighting
10
-278986.0
20
144910.0
30
0
11
-278986.0
21
145450.0
31
0
0
LINE
8
lighting
10
-278974.0
20
144910.0
30
0
11
-278974.0
21
145450.0
31
0
0
LINE
8
lighting
10
-278986.0
20
144910.0
30
0
11
-278974.0
21
144910.0
31
0
0
LINE
8
lighting
10
-278986.0
20
145450.0
30
0
11
-278974.0
21
145450.0
31
0
0
LINE
8
lighting
10
-278906.0
20
144910.0
30
0
11
-278906.0
21
145450.0
31
0
0
LINE
8
lighting
10
-278894.0
20
144910.0
30
0
11
-278894.0
21
145450.0
31
0
0
LINE
8
lighting
10
-278906.0
20
144910.0
30
0
11
-278894.0
21
144910.0
31
0
0
LINE
8
lighting
10
-278906.0
20
145450.0
30
0
11
-278894.0
21
145450.0
31
0
0
LINE
8
lighting
10
-278826.0
20
144910.0
30
0
11
-278826.0
21
145450.0
31
0
0
LINE
8
lighting
10
-278814.0
20
144910.0
30
0
11
-278814.0
21
145450.0
31
0
0
LINE
8
lighting
10
-278826.0
20
144910.0
30
0
11
-278814.0
21
144910.0
31
0
0
LINE
8
lighting
10
-278826.0
20
145450.0
30
0
11
-278814.0
21
145450.0
31
0
0
LINE
8
lighting
10
-278746.0
20
144910.0
30
0
11
-278746.0
21
145450.0
31
0
0
LINE
8
lighting
10
-278734.0
20
144910.0
30
0
11
-278734.0
21
145450.0
31
0
0
LINE
8
lighting
10
-278746.0
20
144910.0
30
0
11
-278734.0
21
144910.0
31
0
0
LINE
8
lighting
10
-278746.0
20
145450.0
30
0
11
-278734.0
21
145450.0
31
0
0
LINE
8
lighting
10
-278971.0
20
145180.0
30
0
11
-278984.5
21
145187.79
31
0
0
LINE
8
lighting
10
-278984.5
20
145187.79
30
0
11
-278984.5
21
145172.21
31
0
0
LINE
8
lighting
10
-278984.5
20
145172.21
30
0
11
-278971.0
21
145180.0
31
0
0
LINE
8
lighting
10
-258660.0
20
144860.0
30
0
11
-258660.0
21
145500.0
31
0
0
LINE
8
lighting
10
-258020.0
20
144860.0
30
0
11
-258020.0
21
145500.0
31
0
0
LINE
8
lighting
10
-258660.0
20
144860.0
30
0
11
-258020.0
21
144860.0
31
0
0
LINE
8
lighting
10
-258660.0
20
145500.0
30
0
11
-258020.0
21
145500.0
31
0
0
LINE
8
lighting
10
-258620.0
20
144900.0
30
0
11
-258620.0
21
145460.0
31
0
0
LINE
8
lighting
10
-258060.0
20
144900.0
30
0
11
-258060.0
21
145460.0
31
0
0
LINE
8
lighting
10
-258620.0
20
144900.0
30
0
11
-258060.0
21
144900.0
31
0
0
LINE
8
lighting
10
-258620.0
20
145460.0
30
0
11
-258060.0
21
145460.0
31
0
0
LINE
8
lighting
10
-258586.0
20
144910.0
30
0
11
-258586.0
21
145450.0
31
0
0
LINE
8
lighting
10
-258574.0
20
144910.0
30
0
11
-258574.0
21
145450.0
31
0
0
LINE
8
lighting
10
-258586.0
20
144910.0
30
0
11
-258574.0
21
144910.0
31
0
0
LINE
8
lighting
10
-258586.0
20
145450.0
30
0
11
-258574.0
21
145450.0
31
0
0
LINE
8
lighting
10
-258506.0
20
144910.0
30
0
11
-258506.0
21
145450.0
31
0
0
LINE
8
lighting
10
-258494.0
20
144910.0
30
0
11
-258494.0
21
145450.0
31
0
0
LINE
8
lighting
10
-258506.0
20
144910.0
30
0
11
-258494.0
21
144910.0
31
0
0
LINE
8
lighting
10
-258506.0
20
145450.0
30
0
11
-258494.0
21
145450.0
31
0
0
LINE
8
lighting
10
-258426.0
20
144910.0
30
0
11
-258426.0
21
145450.0
31
0
0
LINE
8
lighting
10
-258414.0
20
144910.0
30
0
11
-258414.0
21
145450.0
31
0
0
LINE
8
lighting
10
-258426.0
20
144910.0
30
0
11
-258414.0
21
144910.0
31
0
0
LINE
8
lighting
10
-258426.0
20
145450.0
30
0
11
-258414.0
21
145450.0
31
0
0
LINE
8
lighting
10
-258346.0
20
144910.0
30
0
11
-258346.0
21
145450.0
31
0
0
LINE
8
lighting
10
-258334.0
20
144910.0
30
0
11
-258334.0
21
145450.0
31
0
0
LINE
8
lighting
10
-258346.0
20
144910.0
30
0
11
-258334.0
21
144910.0
31
0
0
LINE
8
lighting
10
-258346.0
20
145450.0
30
0
11
-258334.0
21
145450.0
31
0
0
LINE
8
lighting
10
-258266.0
20
144910.0
30
0
11
-258266.0
21
145450.0
31
0
0
LINE
8
lighting
10
-258254.0
20
144910.0
30
0
11
-258254.0
21
145450.0
31
0
0
LINE
8
lighting
10
-258266.0
20
144910.0
30
0
11
-258254.0
21
144910.0
31
0
0
LINE
8
lighting
10
-258266.0
20
145450.0
30
0
11
-258254.0
21
145450.0
31
0
0
LINE
8
lighting
10
-258186.0
20
144910.0
30
0
11
-258186.0
21
145450.0
31
0
0
LINE
8
lighting
10
-258174.0
20
144910.0
30
0
11
-258174.0
21
145450.0
31
0
0
LINE
8
lighting
10
-258186.0
20
144910.0
30
0
11
-258174.0
21
144910.0
31
0
0
LINE
8
lighting
10
-258186.0
20
145450.0
30
0
11
-258174.0
21
145450.0
31
0
0
LINE
8
lighting
10
-258106.0
20
144910.0
30
0
11
-258106.0
21
145450.0
31
0
0
LINE
8
lighting
10
-258094.0
20
144910.0
30
0
11
-258094.0
21
145450.0
31
0
0
LINE
8
lighting
10
-258106.0
20
144910.0
30
0
11
-258094.0
21
144910.0
31
0
0
LINE
8
lighting
10
-258106.0
20
145450.0
30
0
11
-258094.0
21
145450.0
31
0
0
LINE
8
lighting
10
-258331.0
20
145180.0
30
0
11
-258344.5
21
145187.79
31
0
0
LINE
8
lighting
10
-258344.5
20
145187.79
30
0
11
-258344.5
21
145172.21
31
0
0
LINE
8
lighting
10
-258344.5
20
145172.21
30
0
11
-258331.0
21
145180.0
31
0
0
LINE
8
lighting
10
-268980.0
20
126500.0
30
0
11
-268980.0
21
127140.0
31
0
0
LINE
8
lighting
10
-268340.0
20
126500.0
30
0
11
-268340.0
21
127140.0
31
0
0
LINE
8
lighting
10
-268980.0
20
126500.0
30
0
11
-268340.0
21
126500.0
31
0
0
LINE
8
lighting
10
-268980.0
20
127140.0
30
0
11
-268340.0
21
127140.0
31
0
0
LINE
8
lighting
10
-268940.0
20
126540.0
30
0
11
-268940.0
21
127100.0
31
0
0
LINE
8
lighting
10
-268380.0
20
126540.0
30
0
11
-268380.0
21
127100.0
31
0
0
LINE
8
lighting
10
-268940.0
20
126540.0
30
0
11
-268380.0
21
126540.0
31
0
0
LINE
8
lighting
10
-268940.0
20
127100.0
30
0
11
-268380.0
21
127100.0
31
0
0
LINE
8
lighting
10
-268906.0
20
126550.0
30
0
11
-268906.0
21
127090.0
31
0
0
LINE
8
lighting
10
-268894.0
20
126550.0
30
0
11
-268894.0
21
127090.0
31
0
0
LINE
8
lighting
10
-268906.0
20
126550.0
30
0
11
-268894.0
21
126550.0
31
0
0
LINE
8
lighting
10
-268906.0
20
127090.0
30
0
11
-268894.0
21
127090.0
31
0
0
LINE
8
lighting
10
-268826.0
20
126550.0
30
0
11
-268826.0
21
127090.0
31
0
0
LINE
8
lighting
10
-268814.0
20
126550.0
30
0
11
-268814.0
21
127090.0
31
0
0
LINE
8
lighting
10
-268826.0
20
126550.0
30
0
11
-268814.0
21
126550.0
31
0
0
LINE
8
lighting
10
-268826.0
20
127090.0
30
0
11
-268814.0
21
127090.0
31
0
0
LINE
8
lighting
10
-268746.0
20
126550.0
30
0
11
-268746.0
21
127090.0
31
0
0
LINE
8
lighting
10
-268734.0
20
126550.0
30
0
11
-268734.0
21
127090.0
31
0
0
LINE
8
lighting
10
-268746.0
20
126550.0
30
0
11
-268734.0
21
126550.0
31
0
0
LINE
8
lighting
10
-268746.0
20
127090.0
30
0
11
-268734.0
21
127090.0
31
0
0
LINE
8
lighting
10
-268666.0
20
126550.0
30
0
11
-268666.0
21
127090.0
31
0
0
LINE
8
lighting
10
-268654.0
20
126550.0
30
0
11
-268654.0
21
127090.0
31
0
0
LINE
8
lighting
10
-268666.0
20
126550.0
30
0
11
-268654.0
21
126550.0
31
0
0
LINE
8
lighting
10
-268666.0
20
127090.0
30
0
11
-268654.0
21
127090.0
31
0
0
LINE
8
lighting
10
-268586.0
20
126550.0
30
0
11
-268586.0
21
127090.0
31
0
0
LINE
8
lighting
10
-268574.0
20
126550.0
30
0
11
-268574.0
21
127090.0
31
0
0
LINE
8
lighting
10
-268586.0
20
126550.0
30
0
11
-268574.0
21
126550.0
31
0
0
LINE
8
lighting
10
-268586.0
20
127090.0
30
0
11
-268574.0
21
127090.0
31
0
0
LINE
8
lighting
10
-268506.0
20
126550.0
30
0
11
-268506.0
21
127090.0
31
0
0
LINE
8
lighting
10
-268494.0
20
126550.0
30
0
11
-268494.0
21
127090.0
31
0
0
LINE
8
lighting
10
-268506.0
20
126550.0
30
0
11
-268494.0
21
126550.0
31
0
0
LINE
8
lighting
10
-268506.0
20
127090.0
30
0
11
-268494.0
21
127090.0
31
0
0
LINE
8
lighting
10
-268426.0
20
126550.0
30
0
11
-268426.0
21
127090.0
31
0
0
LINE
8
lighting
10
-268414.0
20
126550.0
30
0
11
-268414.0
21
127090.0
31
0
0
LINE
8
lighting
10
-268426.0
20
126550.0
30
0
11
-268414.0
21
126550.0
31
0
0
LINE
8
lighting
10
-268426.0
20
127090.0
30
0
11
-268414.0
21
127090.0
31
0
0
LINE
8
lighting
10
-268651.0
20
126820.0
30
0
11
-268664.5
21
126827.79
31
0
0
LINE
8
lighting
10
-268664.5
20
126827.79
30
0
11
-268664.5
21
126812.21
31
0
0
LINE
8
lighting
10
-268664.5
20
126812.21
30
0
11
-268651.0
21
126820.0
31
0
0
LINE
8
lighting
10
-248340.0
20
126500.0
30
0
11
-248340.0
21
127140.0
31
0
0
LINE
8
lighting
10
-247700.0
20
126500.0
30
0
11
-247700.0
21
127140.0
31
0
0
LINE
8
lighting
10
-248340.0
20
126500.0
30
0
11
-247700.0
21
126500.0
31
0
0
LINE
8
lighting
10
-248340.0
20
127140.0
30
0
11
-247700.0
21
127140.0
31
0
0
LINE
8
lighting
10
-248300.0
20
126540.0
30
0
11
-248300.0
21
127100.0
31
0
0
LINE
8
lighting
10
-247740.0
20
126540.0
30
0
11
-247740.0
21
127100.0
31
0
0
LINE
8
lighting
10
-248300.0
20
126540.0
30
0
11
-247740.0
21
126540.0
31
0
0
LINE
8
lighting
10
-248300.0
20
127100.0
30
0
11
-247740.0
21
127100.0
31
0
0
LINE
8
lighting
10
-248266.0
20
126550.0
30
0
11
-248266.0
21
127090.0
31
0
0
LINE
8
lighting
10
-248254.0
20
126550.0
30
0
11
-248254.0
21
127090.0
31
0
0
LINE
8
lighting
10
-248266.0
20
126550.0
30
0
11
-248254.0
21
126550.0
31
0
0
LINE
8
lighting
10
-248266.0
20
127090.0
30
0
11
-248254.0
21
127090.0
31
0
0
LINE
8
lighting
10
-248186.0
20
126550.0
30
0
11
-248186.0
21
127090.0
31
0
0
LINE
8
lighting
10
-248174.0
20
126550.0
30
0
11
-248174.0
21
127090.0
31
0
0
LINE
8
lighting
10
-248186.0
20
126550.0
30
0
11
-248174.0
21
126550.0
31
0
0
LINE
8
lighting
10
-248186.0
20
127090.0
30
0
11
-248174.0
21
127090.0
31
0
0
LINE
8
lighting
10
-248106.0
20
126550.0
30
0
11
-248106.0
21
127090.0
31
0
0
LINE
8
lighting
10
-248094.0
20
126550.0
30
0
11
-248094.0
21
127090.0
31
0
0
LINE
8
lighting
10
-248106.0
20
126550.0
30
0
11
-248094.0
21
126550.0
31
0
0
LINE
8
lighting
10
-248106.0
20
127090.0
30
0
11
-248094.0
21
127090.0
31
0
0
LINE
8
lighting
10
-248026.0
20
126550.0
30
0
11
-248026.0
21
127090.0
31
0
0
LINE
8
lighting
10
-248014.0
20
126550.0
30
0
11
-248014.0
21
127090.0
31
0
0
LINE
8
lighting
10
-248026.0
20
126550.0
30
0
11
-248014.0
21
126550.0
31
0
0
LINE
8
lighting
10
-248026.0
20
127090.0
30
0
11
-248014.0
21
127090.0
31
0
0
LINE
8
lighting
10
-247946.0
20
126550.0
30
0
11
-247946.0
21
127090.0
31
0
0
LINE
8
lighting
10
-247934.0
20
126550.0
30
0
11
-247934.0
21
127090.0
31
0
0
LINE
8
lighting
10
-247946.0
20
126550.0
30
0
11
-247934.0
21
126550.0
31
0
0
LINE
8
lighting
10
-247946.0
20
127090.0
30
0
11
-247934.0
21
127090.0
31
0
0
LINE
8
lighting
10
-247866.0
20
126550.0
30
0
11
-247866.0
21
127090.0
31
0
0
LINE
8
lighting
10
-247854.0
20
126550.0
30
0
11
-247854.0
21
127090.0
31
0
0
LINE
8
lighting
10
-247866.0
20
126550.0
30
0
11
-247854.0
21
126550.0
31
0
0
LINE
8
lighting
10
-247866.0
20
127090.0
30
0
11
-247854.0
21
127090.0
31
0
0
LINE
8
lighting
10
-247786.0
20
126550.0
30
0
11
-247786.0
21
127090.0
31
0
0
LINE
8
lighting
10
-247774.0
20
126550.0
30
0
11
-247774.0
21
127090.0
31
0
0
LINE
8
lighting
10
-247786.0
20
126550.0
30
0
11
-247774.0
21
126550.0
31
0
0
LINE
8
lighting
10
-247786.0
20
127090.0
30
0
11
-247774.0
21
127090.0
31
0
0
LINE
8
lighting
10
-248011.0
20
126820.0
30
0
11
-248024.5
21
126827.79
31
0
0
LINE
8
lighting
10
-248024.5
20
126827.79
30
0
11
-248024.5
21
126812.21
31
0
0
LINE
8
lighting
10
-248024.5
20
126812.21
30
0
11
-248011.0
21
126820.0
31
0
0
LINE
8
lighting
10
-268980.0
20
144860.0
30
0
11
-268980.0
21
145500.0
31
0
0
LINE
8
lighting
10
-268340.0
20
144860.0
30
0
11
-268340.0
21
145500.0
31
0
0
LINE
8
lighting
10
-268980.0
20
144860.0
30
0
11
-268340.0
21
144860.0
31
0
0
LINE
8
lighting
10
-268980.0
20
145500.0
30
0
11
-268340.0
21
145500.0
31
0
0
LINE
8
lighting
10
-268940.0
20
144900.0
30
0
11
-268940.0
21
145460.0
31
0
0
LINE
8
lighting
10
-268380.0
20
144900.0
30
0
11
-268380.0
21
145460.0
31
0
0
LINE
8
lighting
10
-268940.0
20
144900.0
30
0
11
-268380.0
21
144900.0
31
0
0
LINE
8
lighting
10
-268940.0
20
145460.0
30
0
11
-268380.0
21
145460.0
31
0
0
LINE
8
lighting
10
-268906.0
20
144910.0
30
0
11
-268906.0
21
145450.0
31
0
0
LINE
8
lighting
10
-268894.0
20
144910.0
30
0
11
-268894.0
21
145450.0
31
0
0
LINE
8
lighting
10
-268906.0
20
144910.0
30
0
11
-268894.0
21
144910.0
31
0
0
LINE
8
lighting
10
-268906.0
20
145450.0
30
0
11
-268894.0
21
145450.0
31
0
0
LINE
8
lighting
10
-268826.0
20
144910.0
30
0
11
-268826.0
21
145450.0
31
0
0
LINE
8
lighting
10
-268814.0
20
144910.0
30
0
11
-268814.0
21
145450.0
31
0
0
LINE
8
lighting
10
-268826.0
20
144910.0
30
0
11
-268814.0
21
144910.0
31
0
0
LINE
8
lighting
10
-268826.0
20
145450.0
30
0
11
-268814.0
21
145450.0
31
0
0
LINE
8
lighting
10
-268746.0
20
144910.0
30
0
11
-268746.0
21
145450.0
31
0
0
LINE
8
lighting
10
-268734.0
20
144910.0
30
0
11
-268734.0
21
145450.0
31
0
0
LINE
8
lighting
10
-268746.0
20
144910.0
30
0
11
-268734.0
21
144910.0
31
0
0
LINE
8
lighting
10
-268746.0
20
145450.0
30
0
11
-268734.0
21
145450.0
31
0
0
LINE
8
lighting
10
-268666.0
20
144910.0
30
0
11
-268666.0
21
145450.0
31
0
0
LINE
8
lighting
10
-268654.0
20
144910.0
30
0
11
-268654.0
21
145450.0
31
0
0
LINE
8
lighting
10
-268666.0
20
144910.0
30
0
11
-268654.0
21
144910.0
31
0
0
LINE
8
lighting
10
-268666.0
20
145450.0
30
0
11
-268654.0
21
145450.0
31
0
0
LINE
8
lighting
10
-268586.0
20
144910.0
30
0
11
-268586.0
21
145450.0
31
0
0
LINE
8
lighting
10
-268574.0
20
144910.0
30
0
11
-268574.0
21
145450.0
31
0
0
LINE
8
lighting
10
-268586.0
20
144910.0
30
0
11
-268574.0
21
144910.0
31
0
0
LINE
8
lighting
10
-268586.0
20
145450.0
30
0
11
-268574.0
21
145450.0
31
0
0
LINE
8
lighting
10
-268506.0
20
144910.0
30
0
11
-268506.0
21
145450.0
31
0
0
LINE
8
lighting
10
-268494.0
20
144910.0
30
0
11
-268494.0
21
145450.0
31
0
0
LINE
8
lighting
10
-268506.0
20
144910.0
30
0
11
-268494.0
21
144910.0
31
0
0
LINE
8
lighting
10
-268506.0
20
145450.0
30
0
11
-268494.0
21
145450.0
31
0
0
LINE
8
lighting
10
-268426.0
20
144910.0
30
0
11
-268426.0
21
145450.0
31
0
0
LINE
8
lighting
10
-268414.0
20
144910.0
30
0
11
-268414.0
21
145450.0
31
0
0
LINE
8
lighting
10
-268426.0
20
144910.0
30
0
11
-268414.0
21
144910.0
31
0
0
LINE
8
lighting
10
-268426.0
20
145450.0
30
0
11
-268414.0
21
145450.0
31
0
0
LINE
8
lighting
10
-268651.0
20
145180.0
30
0
11
-268664.5
21
145187.79
31
0
0
LINE
8
lighting
10
-268664.5
20
145187.79
30
0
11
-268664.5
21
145172.21
31
0
0
LINE
8
lighting
10
-268664.5
20
145172.21
30
0
11
-268651.0
21
145180.0
31
0
0
LINE
8
lighting
10
-248340.0
20
144860.0
30
0
11
-248340.0
21
145500.0
31
0
0
LINE
8
lighting
10
-247700.0
20
144860.0
30
0
11
-247700.0
21
145500.0
31
0
0
LINE
8
lighting
10
-248340.0
20
144860.0
30
0
11
-247700.0
21
144860.0
31
0
0
LINE
8
lighting
10
-248340.0
20
145500.0
30
0
11
-247700.0
21
145500.0
31
0
0
LINE
8
lighting
10
-248300.0
20
144900.0
30
0
11
-248300.0
21
145460.0
31
0
0
LINE
8
lighting
10
-247740.0
20
144900.0
30
0
11
-247740.0
21
145460.0
31
0
0
LINE
8
lighting
10
-248300.0
20
144900.0
30
0
11
-247740.0
21
144900.0
31
0
0
LINE
8
lighting
10
-248300.0
20
145460.0
30
0
11
-247740.0
21
145460.0
31
0
0
LINE
8
lighting
10
-248266.0
20
144910.0
30
0
11
-248266.0
21
145450.0
31
0
0
LINE
8
lighting
10
-248254.0
20
144910.0
30
0
11
-248254.0
21
145450.0
31
0
0
LINE
8
lighting
10
-248266.0
20
144910.0
30
0
11
-248254.0
21
144910.0
31
0
0
LINE
8
lighting
10
-248266.0
20
145450.0
30
0
11
-248254.0
21
145450.0
31
0
0
LINE
8
lighting
10
-248186.0
20
144910.0
30
0
11
-248186.0
21
145450.0
31
0
0
LINE
8
lighting
10
-248174.0
20
144910.0
30
0
11
-248174.0
21
145450.0
31
0
0
LINE
8
lighting
10
-248186.0
20
144910.0
30
0
11
-248174.0
21
144910.0
31
0
0
LINE
8
lighting
10
-248186.0
20
145450.0
30
0
11
-248174.0
21
145450.0
31
0
0
LINE
8
lighting
10
-248106.0
20
144910.0
30
0
11
-248106.0
21
145450.0
31
0
0
LINE
8
lighting
10
-248094.0
20
144910.0
30
0
11
-248094.0
21
145450.0
31
0
0
LINE
8
lighting
10
-248106.0
20
144910.0
30
0
11
-248094.0
21
144910.0
31
0
0
LINE
8
lighting
10
-248106.0
20
145450.0
30
0
11
-248094.0
21
145450.0
31
0
0
LINE
8
lighting
10
-248026.0
20
144910.0
30
0
11
-248026.0
21
145450.0
31
0
0
LINE
8
lighting
10
-248014.0
20
144910.0
30
0
11
-248014.0
21
145450.0
31
0
0
LINE
8
lighting
10
-248026.0
20
144910.0
30
0
11
-248014.0
21
144910.0
31
0
0
LINE
8
lighting
10
-248026.0
20
145450.0
30
0
11
-248014.0
21
145450.0
31
0
0
LINE
8
lighting
10
-247946.0
20
144910.0
30
0
11
-247946.0
21
145450.0
31
0
0
LINE
8
lighting
10
-247934.0
20
144910.0
30
0
11
-247934.0
21
145450.0
31
0
0
LINE
8
lighting
10
-247946.0
20
144910.0
30
0
11
-247934.0
21
144910.0
31
0
0
LINE
8
lighting
10
-247946.0
20
145450.0
30
0
11
-247934.0
21
145450.0
31
0
0
LINE
8
lighting
10
-247866.0
20
144910.0
30
0
11
-247866.0
21
145450.0
31
0
0
LINE
8
lighting
10
-247854.0
20
144910.0
30
0
11
-247854.0
21
145450.0
31
0
0
LINE
8
lighting
10
-247866.0
20
144910.0
30
0
11
-247854.0
21
144910.0
31
0
0
LINE
8
lighting
10
-247866.0
20
145450.0
30
0
11
-247854.0
21
145450.0
31
0
0
LINE
8
lighting
10
-247786.0
20
144910.0
30
0
11
-247786.0
21
145450.0
31
0
0
LINE
8
lighting
10
-247774.0
20
144910.0
30
0
11
-247774.0
21
145450.0
31
0
0
LINE
8
lighting
10
-247786.0
20
144910.0
30
0
11
-247774.0
21
144910.0
31
0
0
LINE
8
lighting
10
-247786.0
20
145450.0
30
0
11
-247774.0
21
145450.0
31
0
0
LINE
8
lighting
10
-248011.0
20
145180.0
30
0
11
-248024.5
21
145187.79
31
0
0
LINE
8
lighting
10
-248024.5
20
145187.79
30
0
11
-248024.5
21
145172.21
31
0
0
LINE
8
lighting
10
-248024.5
20
145172.21
30
0
11
-248011.0
21
145180.0
31
0
0
LINE
8
lighting
10
-279300.0
20
135680.0
30
0
11
-279300.0
21
136320.0
31
0
0
LINE
8
lighting
10
-278660.0
20
135680.0
30
0
11
-278660.0
21
136320.0
31
0
0
LINE
8
lighting
10
-279300.0
20
135680.0
30
0
11
-278660.0
21
135680.0
31
0
0
LINE
8
lighting
10
-279300.0
20
136320.0
30
0
11
-278660.0
21
136320.0
31
0
0
LINE
8
lighting
10
-279260.0
20
135720.0
30
0
11
-279260.0
21
136280.0
31
0
0
LINE
8
lighting
10
-278700.0
20
135720.0
30
0
11
-278700.0
21
136280.0
31
0
0
LINE
8
lighting
10
-279260.0
20
135720.0
30
0
11
-278700.0
21
135720.0
31
0
0
LINE
8
lighting
10
-279260.0
20
136280.0
30
0
11
-278700.0
21
136280.0
31
0
0
LINE
8
lighting
10
-279226.0
20
135730.0
30
0
11
-279226.0
21
136270.0
31
0
0
LINE
8
lighting
10
-279214.0
20
135730.0
30
0
11
-279214.0
21
136270.0
31
0
0
LINE
8
lighting
10
-279226.0
20
135730.0
30
0
11
-279214.0
21
135730.0
31
0
0
LINE
8
lighting
10
-279226.0
20
136270.0
30
0
11
-279214.0
21
136270.0
31
0
0
LINE
8
lighting
10
-279146.0
20
135730.0
30
0
11
-279146.0
21
136270.0
31
0
0
LINE
8
lighting
10
-279134.0
20
135730.0
30
0
11
-279134.0
21
136270.0
31
0
0
LINE
8
lighting
10
-279146.0
20
135730.0
30
0
11
-279134.0
21
135730.0
31
0
0
LINE
8
lighting
10
-279146.0
20
136270.0
30
0
11
-279134.0
21
136270.0
31
0
0
LINE
8
lighting
10
-279066.0
20
135730.0
30
0
11
-279066.0
21
136270.0
31
0
0
LINE
8
lighting
10
-279054.0
20
135730.0
30
0
11
-279054.0
21
136270.0
31
0
0
LINE
8
lighting
10
-279066.0
20
135730.0
30
0
11
-279054.0
21
135730.0
31
0
0
LINE
8
lighting
10
-279066.0
20
136270.0
30
0
11
-279054.0
21
136270.0
31
0
0
LINE
8
lighting
10
-278986.0
20
135730.0
30
0
11
-278986.0
21
136270.0
31
0
0
LINE
8
lighting
10
-278974.0
20
135730.0
30
0
11
-278974.0
21
136270.0
31
0
0
LINE
8
lighting
10
-278986.0
20
135730.0
30
0
11
-278974.0
21
135730.0
31
0
0
LINE
8
lighting
10
-278986.0
20
136270.0
30
0
11
-278974.0
21
136270.0
31
0
0
LINE
8
lighting
10
-278906.0
20
135730.0
30
0
11
-278906.0
21
136270.0
31
0
0
LINE
8
lighting
10
-278894.0
20
135730.0
30
0
11
-278894.0
21
136270.0
31
0
0
LINE
8
lighting
10
-278906.0
20
135730.0
30
0
11
-278894.0
21
135730.0
31
0
0
LINE
8
lighting
10
-278906.0
20
136270.0
30
0
11
-278894.0
21
136270.0
31
0
0
LINE
8
lighting
10
-278826.0
20
135730.0
30
0
11
-278826.0
21
136270.0
31
0
0
LINE
8
lighting
10
-278814.0
20
135730.0
30
0
11
-278814.0
21
136270.0
31
0
0
LINE
8
lighting
10
-278826.0
20
135730.0
30
0
11
-278814.0
21
135730.0
31
0
0
LINE
8
lighting
10
-278826.0
20
136270.0
30
0
11
-278814.0
21
136270.0
31
0
0
LINE
8
lighting
10
-278746.0
20
135730.0
30
0
11
-278746.0
21
136270.0
31
0
0
LINE
8
lighting
10
-278734.0
20
135730.0
30
0
11
-278734.0
21
136270.0
31
0
0
LINE
8
lighting
10
-278746.0
20
135730.0
30
0
11
-278734.0
21
135730.0
31
0
0
LINE
8
lighting
10
-278746.0
20
136270.0
30
0
11
-278734.0
21
136270.0
31
0
0
LINE
8
lighting
10
-278971.0
20
136000.0
30
0
11
-278984.5
21
136007.79
31
0
0
LINE
8
lighting
10
-278984.5
20
136007.79
30
0
11
-278984.5
21
135992.21
31
0
0
LINE
8
lighting
10
-278984.5
20
135992.21
30
0
11
-278971.0
21
136000.0
31
0
0
LINE
8
lighting
10
-258660.0
20
135680.0
30
0
11
-258660.0
21
136320.0
31
0
0
LINE
8
lighting
10
-258020.0
20
135680.0
30
0
11
-258020.0
21
136320.0
31
0
0
LINE
8
lighting
10
-258660.0
20
135680.0
30
0
11
-258020.0
21
135680.0
31
0
0
LINE
8
lighting
10
-258660.0
20
136320.0
30
0
11
-258020.0
21
136320.0
31
0
0
LINE
8
lighting
10
-258620.0
20
135720.0
30
0
11
-258620.0
21
136280.0
31
0
0
LINE
8
lighting
10
-258060.0
20
135720.0
30
0
11
-258060.0
21
136280.0
31
0
0
LINE
8
lighting
10
-258620.0
20
135720.0
30
0
11
-258060.0
21
135720.0
31
0
0
LINE
8
lighting
10
-258620.0
20
136280.0
30
0
11
-258060.0
21
136280.0
31
0
0
LINE
8
lighting
10
-258586.0
20
135730.0
30
0
11
-258586.0
21
136270.0
31
0
0
LINE
8
lighting
10
-258574.0
20
135730.0
30
0
11
-258574.0
21
136270.0
31
0
0
LINE
8
lighting
10
-258586.0
20
135730.0
30
0
11
-258574.0
21
135730.0
31
0
0
LINE
8
lighting
10
-258586.0
20
136270.0
30
0
11
-258574.0
21
136270.0
31
0
0
LINE
8
lighting
10
-258506.0
20
135730.0
30
0
11
-258506.0
21
136270.0
31
0
0
LINE
8
lighting
10
-258494.0
20
135730.0
30
0
11
-258494.0
21
136270.0
31
0
0
LINE
8
lighting
10
-258506.0
20
135730.0
30
0
11
-258494.0
21
135730.0
31
0
0
LINE
8
lighting
10
-258506.0
20
136270.0
30
0
11
-258494.0
21
136270.0
31
0
0
LINE
8
lighting
10
-258426.0
20
135730.0
30
0
11
-258426.0
21
136270.0
31
0
0
LINE
8
lighting
10
-258414.0
20
135730.0
30
0
11
-258414.0
21
136270.0
31
0
0
LINE
8
lighting
10
-258426.0
20
135730.0
30
0
11
-258414.0
21
135730.0
31
0
0
LINE
8
lighting
10
-258426.0
20
136270.0
30
0
11
-258414.0
21
136270.0
31
0
0
LINE
8
lighting
10
-258346.0
20
135730.0
30
0
11
-258346.0
21
136270.0
31
0
0
LINE
8
lighting
10
-258334.0
20
135730.0
30
0
11
-258334.0
21
136270.0
31
0
0
LINE
8
lighting
10
-258346.0
20
135730.0
30
0
11
-258334.0
21
135730.0
31
0
0
LINE
8
lighting
10
-258346.0
20
136270.0
30
0
11
-258334.0
21
136270.0
31
0
0
LINE
8
lighting
10
-258266.0
20
135730.0
30
0
11
-258266.0
21
136270.0
31
0
0
LINE
8
lighting
10
-258254.0
20
135730.0
30
0
11
-258254.0
21
136270.0
31
0
0
LINE
8
lighting
10
-258266.0
20
135730.0
30
0
11
-258254.0
21
135730.0
31
0
0
LINE
8
lighting
10
-258266.0
20
136270.0
30
0
11
-258254.0
21
136270.0
31
0
0
LINE
8
lighting
10
-258186.0
20
135730.0
30
0
11
-258186.0
21
136270.0
31
0
0
LINE
8
lighting
10
-258174.0
20
135730.0
30
0
11
-258174.0
21
136270.0
31
0
0
LINE
8
lighting
10
-258186.0
20
135730.0
30
0
11
-258174.0
21
135730.0
31
0
0
LINE
8
lighting
10
-258186.0
20
136270.0
30
0
11
-258174.0
21
136270.0
31
0
0
LINE
8
lighting
10
-258106.0
20
135730.0
30
0
11
-258106.0
21
136270.0
31
0
0
LINE
8
lighting
10
-258094.0
20
135730.0
30
0
11
-258094.0
21
136270.0
31
0
0
LINE
8
lighting
10
-258106.0
20
135730.0
30
0
11
-258094.0
21
135730.0
31
0
0
LINE
8
lighting
10
-258106.0
20
136270.0
30
0
11
-258094.0
21
136270.0
31
0
0
LINE
8
lighting
10
-258331.0
20
136000.0
30
0
11
-258344.5
21
136007.79
31
0
0
LINE
8
lighting
10
-258344.5
20
136007.79
30
0
11
-258344.5
21
135992.21
31
0
0
LINE
8
lighting
10
-258344.5
20
135992.21
30
0
11
-258331.0
21
136000.0
31
0
0
LINE
8
lighting
10
-268980.0
20
135680.0
30
0
11
-268980.0
21
136320.0
31
0
0
LINE
8
lighting
10
-268340.0
20
135680.0
30
0
11
-268340.0
21
136320.0
31
0
0
LINE
8
lighting
10
-268980.0
20
135680.0
30
0
11
-268340.0
21
135680.0
31
0
0
LINE
8
lighting
10
-268980.0
20
136320.0
30
0
11
-268340.0
21
136320.0
31
0
0
LINE
8
lighting
10
-268940.0
20
135720.0
30
0
11
-268940.0
21
136280.0
31
0
0
LINE
8
lighting
10
-268380.0
20
135720.0
30
0
11
-268380.0
21
136280.0
31
0
0
LINE
8
lighting
10
-268940.0
20
135720.0
30
0
11
-268380.0
21
135720.0
31
0
0
LINE
8
lighting
10
-268940.0
20
136280.0
30
0
11
-268380.0
21
136280.0
31
0
0
LINE
8
lighting
10
-268906.0
20
135730.0
30
0
11
-268906.0
21
136270.0
31
0
0
LINE
8
lighting
10
-268894.0
20
135730.0
30
0
11
-268894.0
21
136270.0
31
0
0
LINE
8
lighting
10
-268906.0
20
135730.0
30
0
11
-268894.0
21
135730.0
31
0
0
LINE
8
lighting
10
-268906.0
20
136270.0
30
0
11
-268894.0
21
136270.0
31
0
0
LINE
8
lighting
10
-268826.0
20
135730.0
30
0
11
-268826.0
21
136270.0
31
0
0
LINE
8
lighting
10
-268814.0
20
135730.0
30
0
11
-268814.0
21
136270.0
31
0
0
LINE
8
lighting
10
-268826.0
20
135730.0
30
0
11
-268814.0
21
135730.0
31
0
0
LINE
8
lighting
10
-268826.0
20
136270.0
30
0
11
-268814.0
21
136270.0
31
0
0
LINE
8
lighting
10
-268746.0
20
135730.0
30
0
11
-268746.0
21
136270.0
31
0
0
LINE
8
lighting
10
-268734.0
20
135730.0
30
0
11
-268734.0
21
136270.0
31
0
0
LINE
8
lighting
10
-268746.0
20
135730.0
30
0
11
-268734.0
21
135730.0
31
0
0
LINE
8
lighting
10
-268746.0
20
136270.0
30
0
11
-268734.0
21
136270.0
31
0
0
LINE
8
lighting
10
-268666.0
20
135730.0
30
0
11
-268666.0
21
136270.0
31
0
0
LINE
8
lighting
10
-268654.0
20
135730.0
30
0
11
-268654.0
21
136270.0
31
0
0
LINE
8
lighting
10
-268666.0
20
135730.0
30
0
11
-268654.0
21
135730.0
31
0
0
LINE
8
lighting
10
-268666.0
20
136270.0
30
0
11
-268654.0
21
136270.0
31
0
0
LINE
8
lighting
10
-268586.0
20
135730.0
30
0
11
-268586.0
21
136270.0
31
0
0
LINE
8
lighting
10
-268574.0
20
135730.0
30
0
11
-268574.0
21
136270.0
31
0
0
LINE
8
lighting
10
-268586.0
20
135730.0
30
0
11
-268574.0
21
135730.0
31
0
0
LINE
8
lighting
10
-268586.0
20
136270.0
30
0
11
-268574.0
21
136270.0
31
0
0
LINE
8
lighting
10
-268506.0
20
135730.0
30
0
11
-268506.0
21
136270.0
31
0
0
LINE
8
lighting
10
-268494.0
20
135730.0
30
0
11
-268494.0
21
136270.0
31
0
0
LINE
8
lighting
10
-268506.0
20
135730.0
30
0
11
-268494.0
21
135730.0
31
0
0
LINE
8
lighting
10
-268506.0
20
136270.0
30
0
11
-268494.0
21
136270.0
31
0
0
LINE
8
lighting
10
-268426.0
20
135730.0
30
0
11
-268426.0
21
136270.0
31
0
0
LINE
8
lighting
10
-268414.0
20
135730.0
30
0
11
-268414.0
21
136270.0
31
0
0
LINE
8
lighting
10
-268426.0
20
135730.0
30
0
11
-268414.0
21
135730.0
31
0
0
LINE
8
lighting
10
-268426.0
20
136270.0
30
0
11
-268414.0
21
136270.0
31
0
0
LINE
8
lighting
10
-268651.0
20
136000.0
30
0
11
-268664.5
21
136007.79
31
0
0
LINE
8
lighting
10
-268664.5
20
136007.79
30
0
11
-268664.5
21
135992.21
31
0
0
LINE
8
lighting
10
-268664.5
20
135992.21
30
0
11
-268651.0
21
136000.0
31
0
0
LINE
8
lighting
10
-248340.0
20
135680.0
30
0
11
-248340.0
21
136320.0
31
0
0
LINE
8
lighting
10
-247700.0
20
135680.0
30
0
11
-247700.0
21
136320.0
31
0
0
LINE
8
lighting
10
-248340.0
20
135680.0
30
0
11
-247700.0
21
135680.0
31
0
0
LINE
8
lighting
10
-248340.0
20
136320.0
30
0
11
-247700.0
21
136320.0
31
0
0
LINE
8
lighting
10
-248300.0
20
135720.0
30
0
11
-248300.0
21
136280.0
31
0
0
LINE
8
lighting
10
-247740.0
20
135720.0
30
0
11
-247740.0
21
136280.0
31
0
0
LINE
8
lighting
10
-248300.0
20
135720.0
30
0
11
-247740.0
21
135720.0
31
0
0
LINE
8
lighting
10
-248300.0
20
136280.0
30
0
11
-247740.0
21
136280.0
31
0
0
LINE
8
lighting
10
-248266.0
20
135730.0
30
0
11
-248266.0
21
136270.0
31
0
0
LINE
8
lighting
10
-248254.0
20
135730.0
30
0
11
-248254.0
21
136270.0
31
0
0
LINE
8
lighting
10
-248266.0
20
135730.0
30
0
11
-248254.0
21
135730.0
31
0
0
LINE
8
lighting
10
-248266.0
20
136270.0
30
0
11
-248254.0
21
136270.0
31
0
0
LINE
8
lighting
10
-248186.0
20
135730.0
30
0
11
-248186.0
21
136270.0
31
0
0
LINE
8
lighting
10
-248174.0
20
135730.0
30
0
11
-248174.0
21
136270.0
31
0
0
LINE
8
lighting
10
-248186.0
20
135730.0
30
0
11
-248174.0
21
135730.0
31
0
0
LINE
8
lighting
10
-248186.0
20
136270.0
30
0
11
-248174.0
21
136270.0
31
0
0
LINE
8
lighting
10
-248106.0
20
135730.0
30
0
11
-248106.0
21
136270.0
31
0
0
LINE
8
lighting
10
-248094.0
20
135730.0
30
0
11
-248094.0
21
136270.0
31
0
0
LINE
8
lighting
10
-248106.0
20
135730.0
30
0
11
-248094.0
21
135730.0
31
0
0
LINE
8
lighting
10
-248106.0
20
136270.0
30
0
11
-248094.0
21
136270.0
31
0
0
LINE
8
lighting
10
-248026.0
20
135730.0
30
0
11
-248026.0
21
136270.0
31
0
0
LINE
8
lighting
10
-248014.0
20
135730.0
30
0
11
-248014.0
21
136270.0
31
0
0
LINE
8
lighting
10
-248026.0
20
135730.0
30
0
11
-248014.0
21
135730.0
31
0
0
LINE
8
lighting
10
-248026.0
20
136270.0
30
0
11
-248014.0
21
136270.0
31
0
0
LINE
8
lighting
10
-247946.0
20
135730.0
30
0
11
-247946.0
21
136270.0
31
0
0
LINE
8
lighting
10
-247934.0
20
135730.0
30
0
11
-247934.0
21
136270.0
31
0
0
LINE
8
lighting
10
-247946.0
20
135730.0
30
0
11
-247934.0
21
135730.0
31
0
0
LINE
8
lighting
10
-247946.0
20
136270.0
30
0
11
-247934.0
21
136270.0
31
0
0
LINE
8
lighting
10
-247866.0
20
135730.0
30
0
11
-247866.0
21
136270.0
31
0
0
LINE
8
lighting
10
-247854.0
20
135730.0
30
0
11
-247854.0
21
136270.0
31
0
0
LINE
8
lighting
10
-247866.0
20
135730.0
30
0
11
-247854.0
21
135730.0
31
0
0
LINE
8
lighting
10
-247866.0
20
136270.0
30
0
11
-247854.0
21
136270.0
31
0
0
LINE
8
lighting
10
-247786.0
20
135730.0
30
0
11
-247786.0
21
136270.0
31
0
0
LINE
8
lighting
10
-247774.0
20
135730.0
30
0
11
-247774.0
21
136270.0
31
0
0
LINE
8
lighting
10
-247786.0
20
135730.0
30
0
11
-247774.0
21
135730.0
31
0
0
LINE
8
lighting
10
-247786.0
20
136270.0
30
0
11
-247774.0
21
136270.0
31
0
0
LINE
8
lighting
10
-248011.0
20
136000.0
30
0
11
-248024.5
21
136007.79
31
0
0
LINE
8
lighting
10
-248024.5
20
136007.79
30
0
11
-248024.5
21
135992.21
31
0
0
LINE
8
lighting
10
-248024.5
20
135992.21
30
0
11
-248011.0
21
136000.0
31
0
0
LINE
8
electrical
10
-278980.0
20
126430.0
30
0
11
-278980.0
21
126422.21
31
0
0
LINE
8
electrical
10
-278980.0
20
126422.21
30
0
11
-278980.0
21
126437.79
31
0
0
LINE
8
electrical
10
-278980.0
20
126437.79
30
0
11
-278980.0
21
126430.0
31
0
0
LINE
8
electrical
10
-242450.0
20
126430.0
30
0
11
-278980.0
21
126430.0
31
0
0
LINE
8
electrical
10
-242450.0
20
126430.0
30
0
11
-242450.0
21
126422.21
31
0
0
LINE
8
electrical
10
-242450.0
20
126422.21
30
0
11
-242450.0
21
126437.79
31
0
0
LINE
8
electrical
10
-242450.0
20
126437.79
30
0
11
-242450.0
21
126430.0
31
0
0
LINE
8
electrical
10
-278980.0
20
145180.0
30
0
11
-278972.21
21
145180.0
31
0
0
LINE
8
electrical
10
-278972.21
20
145180.0
30
0
11
-278987.79
21
145180.0
31
0
0
LINE
8
electrical
10
-278987.79
20
145180.0
30
0
11
-278980.0
21
145180.0
31
0
0
LINE
8
electrical
10
-278980.0
20
126430.0
30
0
11
-278980.0
21
145180.0
31
0
0
LINE
8
electrical
10
-278980.0
20
126430.0
30
0
11
-278972.21
21
126430.0
31
0
0
LINE
8
electrical
10
-278972.21
20
126430.0
30
0
11
-278987.79
21
126430.0
31
0
0
LINE
8
electrical
10
-278987.79
20
126430.0
30
0
11
-278980.0
21
126430.0
31
0
0
LINE
8
electrical
10
-258340.0
20
145180.0
30
0
11
-258332.21
21
145180.0
31
0
0
LINE
8
electrical
10
-258332.21
20
145180.0
30
0
11
-258347.79
21
145180.0
31
0
0
LINE
8
electrical
10
-258347.79
20
145180.0
30
0
11
-258340.0
21
145180.0
31
0
0
LINE
8
electrical
10
-258340.0
20
126430.0
30
0
11
-258340.0
21
145180.0
31
0
0
LINE
8
electrical
10
-258340.0
20
126430.0
30
0
11
-258332.21
21
126430.0
31
0
0
LINE
8
electrical
10
-258332.21
20
126430.0
30
0
11
-258347.79
21
126430.0
31
0
0
LINE
8
electrical
10
-258347.79
20
126430.0
30
0
11
-258340.0
21
126430.0
31
0
0
LINE
8
electrical
10
-268660.0
20
145180.0
30
0
11
-268652.21
21
145180.0
31
0
0
LINE
8
electrical
10
-268652.21
20
145180.0
30
0
11
-268667.79
21
145180.0
31
0
0
LINE
8
electrical
10
-268667.79
20
145180.0
30
0
11
-268660.0
21
145180.0
31
0
0
LINE
8
electrical
10
-268660.0
20
126430.0
30
0
11
-268660.0
21
145180.0
31
0
0
LINE
8
electrical
10
-268660.0
20
126430.0
30
0
11
-268652.21
21
126430.0
31
0
0
LINE
8
electrical
10
-268652.21
20
126430.0
30
0
11
-268667.79
21
126430.0
31
0
0
LINE
8
electrical
10
-268667.79
20
126430.0
30
0
11
-268660.0
21
126430.0
31
0
0
LINE
8
electrical
10
-248020.0
20
145180.0
30
0
11
-248012.21
21
145180.0
31
0
0
LINE
8
electrical
10
-248012.21
20
145180.0
30
0
11
-248027.79
21
145180.0
31
0
0
LINE
8
electrical
10
-248027.79
20
145180.0
30
0
11
-248020.0
21
145180.0
31
0
0
LINE
8
electrical
10
-248020.0
20
126430.0
30
0
11
-248020.0
21
145180.0
31
0
0
LINE
8
electrical
10
-248020.0
20
126430.0
30
0
11
-248012.21
21
126430.0
31
0
0
LINE
8
electrical
10
-248012.21
20
126430.0
30
0
11
-248027.79
21
126430.0
31
0
0
LINE
8
electrical
10
-248027.79
20
126430.0
30
0
11
-248020.0
21
126430.0
31
0
0
LINE
8
electrical
10
-242437.0
20
122700.0
30
0
11
-242456.5
21
122711.26
31
0
0
LINE
8
electrical
10
-242456.5
20
122711.26
30
0
11
-242456.5
21
122688.74
31
0
0
LINE
8
electrical
10
-242456.5
20
122688.74
30
0
11
-242437.0
21
122700.0
31
0
0
LINE
8
electrical
10
-248456.86
20
126418.96
30
0
11
-248446.57
21
126435.52
31
0
0
LINE
8
electrical
10
-248446.57
20
126435.52
30
0
11
-248446.57
21
126435.52
31
0
0
LINE
8
electrical
10
-248446.57
20
126435.52
30
0
11
-248456.86
21
126418.96
31
0
0
LINE
8
electrical
10
-242456.86
20
122688.96
30
0
11
-248456.86
21
126418.96
31
0
0
LINE
8
electrical
10
-242456.86
20
122688.96
30
0
11
-242446.57
21
122705.52
31
0
0
LINE
8
electrical
10
-242446.57
20
122705.52
30
0
11
-242446.57
21
122705.52
31
0
0
LINE
8
electrical
10
-242446.57
20
122705.52
30
0
11
-242456.86
21
122688.96
31
0
0
LINE
8
electrical
10
-278550.0
20
126430.0
30
0
11
-278550.0
21
126418.74
31
0
0
LINE
8
electrical
10
-278550.0
20
126418.74
30
0
11
-278550.0
21
126441.26
31
0
0
LINE
8
electrical
10
-278550.0
20
126441.26
30
0
11
-278550.0
21
126430.0
31
0
0
LINE
8
electrical
10
-248450.0
20
126430.0
30
0
11
-278550.0
21
126430.0
31
0
0
LINE
8
electrical
10
-248450.0
20
126430.0
30
0
11
-248450.0
21
126418.74
31
0
0
LINE
8
electrical
10
-248450.0
20
126418.74
30
0
11
-248450.0
21
126441.26
31
0
0
LINE
8
electrical
10
-248450.0
20
126441.26
30
0
11
-248450.0
21
126430.0
31
0
0
LINE
8
electrical
10
-242450.0
20
122700.0
30
0
11
-242435.96
21
122700.0
31
0
0
LINE
8
electrical
10
-242435.96
20
122700.0
30
0
11
-242450.0
21
122700.0
31
0
0
LINE
8
electrical
10
-248450.0
20
126430.0
30
0
11
-248435.96
21
126430.0
31
0
0
LINE
8
electrical
10
-248435.96
20
126430.0
30
0
11
-248450.0
21
126430.0
31
0
0
LINE
8
electrical
10
-242437.0
20
122700.0
30
0
11
-242456.5
21
122711.26
31
0
0
LINE
8
electrical
10
-242456.5
20
122711.26
30
0
11
-242456.5
21
122688.74
31
0
0
LINE
8
electrical
10
-242456.5
20
122688.74
30
0
11
-242437.0
21
122700.0
31
0
0
LINE
8
electrical
10
-248457.02
20
126539.06
30
0
11
-248446.49
21
126555.47
31
0
0
LINE
8
electrical
10
-248446.49
20
126555.47
30
0
11
-248446.49
21
126555.47
31
0
0
LINE
8
electrical
10
-248446.49
20
126555.47
30
0
11
-248457.02
21
126539.06
31
0
0
LINE
8
electrical
10
-242457.02
20
122689.06
30
0
11
-248457.02
21
126539.06
31
0
0
LINE
8
electrical
10
-242457.02
20
122689.06
30
0
11
-242446.49
21
122705.47
31
0
0
LINE
8
electrical
10
-242446.49
20
122705.47
30
0
11
-242446.49
21
122705.47
31
0
0
LINE
8
electrical
10
-242446.49
20
122705.47
30
0
11
-242457.02
21
122689.06
31
0
0
LINE
8
electrical
10
-278550.0
20
126550.0
30
0
11
-278550.0
21
126538.74
31
0
0
LINE
8
electrical
10
-278550.0
20
126538.74
30
0
11
-278550.0
21
126561.26
31
0
0
LINE
8
electrical
10
-278550.0
20
126561.26
30
0
11
-278550.0
21
126550.0
31
0
0
LINE
8
electrical
10
-248450.0
20
126550.0
30
0
11
-278550.0
21
126550.0
31
0
0
LINE
8
electrical
10
-248450.0
20
126550.0
30
0
11
-248450.0
21
126538.74
31
0
0
LINE
8
electrical
10
-248450.0
20
126538.74
30
0
11
-248450.0
21
126561.26
31
0
0
LINE
8
electrical
10
-248450.0
20
126561.26
30
0
11
-248450.0
21
126550.0
31
0
0
LINE
8
electrical
10
-242450.0
20
122700.0
30
0
11
-242435.96
21
122700.0
31
0
0
LINE
8
electrical
10
-242435.96
20
122700.0
30
0
11
-242450.0
21
122700.0
31
0
0
LINE
8
electrical
10
-248450.0
20
126550.0
30
0
11
-248435.96
21
126550.0
31
0
0
LINE
8
electrical
10
-248435.96
20
126550.0
30
0
11
-248450.0
21
126550.0
31
0
0
LINE
8
electrical
10
-242437.0
20
122700.0
30
0
11
-242456.5
21
122711.26
31
0
0
LINE
8
electrical
10
-242456.5
20
122711.26
30
0
11
-242456.5
21
122688.74
31
0
0
LINE
8
electrical
10
-242456.5
20
122688.74
30
0
11
-242437.0
21
122700.0
31
0
0
LINE
8
electrical
10
-248457.17
20
126659.16
30
0
11
-248446.41
21
126675.42
31
0
0
LINE
8
electrical
10
-248446.41
20
126675.42
30
0
11
-248446.41
21
126675.42
31
0
0
LINE
8
electrical
10
-248446.41
20
126675.42
30
0
11
-248457.17
21
126659.16
31
0
0
LINE
8
electrical
10
-242457.17
20
122689.16
30
0
11
-248457.17
21
126659.16
31
0
0
LINE
8
electrical
10
-242457.17
20
122689.16
30
0
11
-242446.41
21
122705.42
31
0
0
LINE
8
electrical
10
-242446.41
20
122705.42
30
0
11
-242446.41
21
122705.42
31
0
0
LINE
8
electrical
10
-242446.41
20
122705.42
30
0
11
-242457.17
21
122689.16
31
0
0
LINE
8
electrical
10
-278550.0
20
126670.0
30
0
11
-278550.0
21
126658.74
31
0
0
LINE
8
electrical
10
-278550.0
20
126658.74
30
0
11
-278550.0
21
126681.26
31
0
0
LINE
8
electrical
10
-278550.0
20
126681.26
30
0
11
-278550.0
21
126670.0
31
0
0
LINE
8
electrical
10
-248450.0
20
126670.0
30
0
11
-278550.0
21
126670.0
31
0
0
LINE
8
electrical
10
-248450.0
20
126670.0
30
0
11
-248450.0
21
126658.74
31
0
0
LINE
8
electrical
10
-248450.0
20
126658.74
30
0
11
-248450.0
21
126681.26
31
0
0
LINE
8
electrical
10
-248450.0
20
126681.26
30
0
11
-248450.0
21
126670.0
31
0
0
LINE
8
electrical
10
-242450.0
20
122700.0
30
0
11
-242435.96
21
122700.0
31
0
0
LINE
8
electrical
10
-242435.96
20
122700.0
30
0
11
-242450.0
21
122700.0
31
0
0
LINE
8
electrical
10
-248450.0
20
126670.0
30
0
11
-248435.96
21
126670.0
31
0
0
LINE
8
electrical
10
-248435.96
20
126670.0
30
0
11
-248450.0
21
126670.0
31
0
0
LINE
8
electrical
10
-276465.0
20
122650.0
30
0
11
-276465.0
21
122710.0
31
0
0
LINE
8
electrical
10
-276335.0
20
122650.0
30
0
11
-276335.0
21
122710.0
31
0
0
LINE
8
electrical
10
-276465.0
20
122650.0
30
0
11
-276335.0
21
122650.0
31
0
0
LINE
8
electrical
10
-276465.0
20
122710.0
30
0
11
-276335.0
21
122710.0
31
0
0
LINE
8
electrical
10
-276391.0
20
122680.0
30
0
11
-276404.5
21
122687.79
31
0
0
LINE
8
electrical
10
-276404.5
20
122687.79
30
0
11
-276404.5
21
122672.21
31
0
0
LINE
8
electrical
10
-276404.5
20
122672.21
30
0
11
-276391.0
21
122680.0
31
0
0
LINE
8
electrical
10
-242450.0
20
122680.0
30
0
11
-242450.0
21
122672.21
31
0
0
LINE
8
electrical
10
-242450.0
20
122672.21
30
0
11
-242450.0
21
122687.79
31
0
0
LINE
8
electrical
10
-242450.0
20
122687.79
30
0
11
-242450.0
21
122680.0
31
0
0
LINE
8
electrical
10
-276400.0
20
122680.0
30
0
11
-242450.0
21
122680.0
31
0
0
LINE
8
electrical
10
-276400.0
20
122680.0
30
0
11
-276400.0
21
122672.21
31
0
0
LINE
8
electrical
10
-276400.0
20
122672.21
30
0
11
-276400.0
21
122687.79
31
0
0
LINE
8
electrical
10
-276400.0
20
122687.79
30
0
11
-276400.0
21
122680.0
31
0
0
LINE
8
electrical
10
-276400.0
20
122680.0
30
0
11
-276390.28
21
122680.0
31
0
0
LINE
8
electrical
10
-276390.28
20
122680.0
30
0
11
-276400.0
21
122680.0
31
0
0
LINE
8
electrical
10
-250665.0
20
122650.0
30
0
11
-250665.0
21
122710.0
31
0
0
LINE
8
electrical
10
-250535.0
20
122650.0
30
0
11
-250535.0
21
122710.0
31
0
0
LINE
8
electrical
10
-250665.0
20
122650.0
30
0
11
-250535.0
21
122650.0
31
0
0
LINE
8
electrical
10
-250665.0
20
122710.0
30
0
11
-250535.0
21
122710.0
31
0
0
LINE
8
electrical
10
-250591.0
20
122680.0
30
0
11
-250604.5
21
122687.79
31
0
0
LINE
8
electrical
10
-250604.5
20
122687.79
30
0
11
-250604.5
21
122672.21
31
0
0
LINE
8
electrical
10
-250604.5
20
122672.21
30
0
11
-250591.0
21
122680.0
31
0
0
LINE
8
electrical
10
-242450.0
20
122680.0
30
0
11
-242450.0
21
122672.21
31
0
0
LINE
8
electrical
10
-242450.0
20
122672.21
30
0
11
-242450.0
21
122687.79
31
0
0
LINE
8
electrical
10
-242450.0
20
122687.79
30
0
11
-242450.0
21
122680.0
31
0
0
LINE
8
electrical
10
-250600.0
20
122680.0
30
0
11
-242450.0
21
122680.0
31
0
0
LINE
8
electrical
10
-250600.0
20
122680.0
30
0
11
-250600.0
21
122672.21
31
0
0
LINE
8
electrical
10
-250600.0
20
122672.21
30
0
11
-250600.0
21
122687.79
31
0
0
LINE
8
electrical
10
-250600.0
20
122687.79
30
0
11
-250600.0
21
122680.0
31
0
0
LINE
8
electrical
10
-250600.0
20
122680.0
30
0
11
-250590.28
21
122680.0
31
0
0
LINE
8
electrical
10
-250590.28
20
122680.0
30
0
11
-250600.0
21
122680.0
31
0
0
LINE
8
hvac
10
-284525.0
20
123225.0
30
0
11
-284525.0
21
123975.0
31
0
0
LINE
8
hvac
10
-282875.0
20
123225.0
30
0
11
-282875.0
21
123975.0
31
0
0
LINE
8
hvac
10
-284525.0
20
123225.0
30
0
11
-282875.0
21
123225.0
31
0
0
LINE
8
hvac
10
-284525.0
20
123975.0
30
0
11
-282875.0
21
123975.0
31
0
0
LINE
8
hvac
10
-284425.0
20
123180.0
30
0
11
-284425.0
21
123220.0
31
0
0
LINE
8
hvac
10
-282975.0
20
123180.0
30
0
11
-282975.0
21
123220.0
31
0
0
LINE
8
hvac
10
-284425.0
20
123180.0
30
0
11
-282975.0
21
123180.0
31
0
0
LINE
8
hvac
10
-284425.0
20
123220.0
30
0
11
-282975.0
21
123220.0
31
0
0
LINE
8
hvac
10
-284360.0
20
123140.0
30
0
11
-284360.0
21
123200.0
31
0
0
LINE
8
hvac
10
-284320.0
20
123140.0
30
0
11
-284320.0
21
123200.0
31
0
0
LINE
8
hvac
10
-284360.0
20
123140.0
30
0
11
-284320.0
21
123140.0
31
0
0
LINE
8
hvac
10
-284360.0
20
123200.0
30
0
11
-284320.0
21
123200.0
31
0
0
LINE
8
hvac
10
-284200.0
20
123140.0
30
0
11
-284200.0
21
123200.0
31
0
0
LINE
8
hvac
10
-284160.0
20
123140.0
30
0
11
-284160.0
21
123200.0
31
0
0
LINE
8
hvac
10
-284200.0
20
123140.0
30
0
11
-284160.0
21
123140.0
31
0
0
LINE
8
hvac
10
-284200.0
20
123200.0
30
0
11
-284160.0
21
123200.0
31
0
0
LINE
8
hvac
10
-284040.0
20
123140.0
30
0
11
-284040.0
21
123200.0
31
0
0
LINE
8
hvac
10
-284000.0
20
123140.0
30
0
11
-284000.0
21
123200.0
31
0
0
LINE
8
hvac
10
-284040.0
20
123140.0
30
0
11
-284000.0
21
123140.0
31
0
0
LINE
8
hvac
10
-284040.0
20
123200.0
30
0
11
-284000.0
21
123200.0
31
0
0
LINE
8
hvac
10
-283880.0
20
123140.0
30
0
11
-283880.0
21
123200.0
31
0
0
LINE
8
hvac
10
-283840.0
20
123140.0
30
0
11
-283840.0
21
123200.0
31
0
0
LINE
8
hvac
10
-283880.0
20
123140.0
30
0
11
-283840.0
21
123140.0
31
0
0
LINE
8
hvac
10
-283880.0
20
123200.0
30
0
11
-283840.0
21
123200.0
31
0
0
LINE
8
hvac
10
-283720.0
20
123140.0
30
0
11
-283720.0
21
123200.0
31
0
0
LINE
8
hvac
10
-283680.0
20
123140.0
30
0
11
-283680.0
21
123200.0
31
0
0
LINE
8
hvac
10
-283720.0
20
123140.0
30
0
11
-283680.0
21
123140.0
31
0
0
LINE
8
hvac
10
-283720.0
20
123200.0
30
0
11
-283680.0
21
123200.0
31
0
0
LINE
8
hvac
10
-283560.0
20
123140.0
30
0
11
-283560.0
21
123200.0
31
0
0
LINE
8
hvac
10
-283520.0
20
123140.0
30
0
11
-283520.0
21
123200.0
31
0
0
LINE
8
hvac
10
-283560.0
20
123140.0
30
0
11
-283520.0
21
123140.0
31
0
0
LINE
8
hvac
10
-283560.0
20
123200.0
30
0
11
-283520.0
21
123200.0
31
0
0
LINE
8
hvac
10
-283400.0
20
123140.0
30
0
11
-283400.0
21
123200.0
31
0
0
LINE
8
hvac
10
-283360.0
20
123140.0
30
0
11
-283360.0
21
123200.0
31
0
0
LINE
8
hvac
10
-283400.0
20
123140.0
30
0
11
-283360.0
21
123140.0
31
0
0
LINE
8
hvac
10
-283400.0
20
123200.0
30
0
11
-283360.0
21
123200.0
31
0
0
LINE
8
hvac
10
-283240.0
20
123140.0
30
0
11
-283240.0
21
123200.0
31
0
0
LINE
8
hvac
10
-283200.0
20
123140.0
30
0
11
-283200.0
21
123200.0
31
0
0
LINE
8
hvac
10
-283240.0
20
123140.0
30
0
11
-283200.0
21
123140.0
31
0
0
LINE
8
hvac
10
-283240.0
20
123200.0
30
0
11
-283200.0
21
123200.0
31
0
0
LINE
8
hvac
10
-283080.0
20
123140.0
30
0
11
-283080.0
21
123200.0
31
0
0
LINE
8
hvac
10
-283040.0
20
123140.0
30
0
11
-283040.0
21
123200.0
31
0
0
LINE
8
hvac
10
-283080.0
20
123140.0
30
0
11
-283040.0
21
123140.0
31
0
0
LINE
8
hvac
10
-283080.0
20
123200.0
30
0
11
-283040.0
21
123200.0
31
0
0
LINE
8
hvac
10
-283925.0
20
123375.0
30
0
11
-283925.0
21
123825.0
31
0
0
LINE
8
hvac
10
-283475.0
20
123375.0
30
0
11
-283475.0
21
123825.0
31
0
0
LINE
8
hvac
10
-283925.0
20
123375.0
30
0
11
-283475.0
21
123375.0
31
0
0
LINE
8
hvac
10
-283925.0
20
123825.0
30
0
11
-283475.0
21
123825.0
31
0
0
LINE
8
hvac
10
-278550.0
20
135825.0
30
0
11
-278550.0
21
136175.0
31
0
0
LINE
8
hvac
10
-248450.0
20
135825.0
30
0
11
-248450.0
21
136175.0
31
0
0
LINE
8
hvac
10
-278550.0
20
135825.0
30
0
11
-248450.0
21
135825.0
31
0
0
LINE
8
hvac
10
-278550.0
20
136175.0
30
0
11
-248450.0
21
136175.0
31
0
0
LINE
8
hvac
10
-283875.0
20
123425.0
30
0
11
-283875.0
21
123775.0
31
0
0
LINE
8
hvac
10
-263325.0
20
123425.0
30
0
11
-263325.0
21
123775.0
31
0
0
LINE
8
hvac
10
-283875.0
20
123425.0
30
0
11
-263325.0
21
123425.0
31
0
0
LINE
8
hvac
10
-283875.0
20
123775.0
30
0
11
-263325.0
21
123775.0
31
0
0
LINE
8
hvac
10
-263675.0
20
123425.0
30
0
11
-263675.0
21
136175.0
31
0
0
LINE
8
hvac
10
-263325.0
20
123425.0
30
0
11
-263325.0
21
136175.0
31
0
0
LINE
8
hvac
10
-263675.0
20
123425.0
30
0
11
-263325.0
21
123425.0
31
0
0
LINE
8
hvac
10
-263675.0
20
136175.0
30
0
11
-263325.0
21
136175.0
31
0
0
LINE
8
hvac
10
-272450.0
20
135650.0
30
0
11
-272450.0
21
136350.0
31
0
0
LINE
8
hvac
10
-271750.0
20
135650.0
30
0
11
-271750.0
21
136350.0
31
0
0
LINE
8
hvac
10
-272450.0
20
135650.0
30
0
11
-271750.0
21
135650.0
31
0
0
LINE
8
hvac
10
-272450.0
20
136350.0
30
0
11
-271750.0
21
136350.0
31
0
0
LINE
8
hvac
10
-255250.0
20
135650.0
30
0
11
-255250.0
21
136350.0
31
0
0
LINE
8
hvac
10
-254550.0
20
135650.0
30
0
11
-254550.0
21
136350.0
31
0
0
LINE
8
hvac
10
-255250.0
20
135650.0
30
0
11
-254550.0
21
135650.0
31
0
0
LINE
8
hvac
10
-255250.0
20
136350.0
30
0
11
-254550.0
21
136350.0
31
0
0
LINE
8
sensors
10
-284960.0
20
128360.0
30
0
11
-284960.0
21
128520.0
31
0
0
LINE
8
sensors
10
-284860.0
20
128360.0
30
0
11
-284860.0
21
128520.0
31
0
0
LINE
8
sensors
10
-284960.0
20
128360.0
30
0
11
-284860.0
21
128360.0
31
0
0
LINE
8
sensors
10
-284960.0
20
128520.0
30
0
11
-284860.0
21
128520.0
31
0
0
LINE
8
sensors
10
-284855.0
20
128385.0
30
0
11
-284855.0
21
128495.0
31
0
0
LINE
8
sensors
10
-284835.0
20
128385.0
30
0
11
-284835.0
21
128495.0
31
0
0
LINE
8
sensors
10
-284855.0
20
128385.0
30
0
11
-284835.0
21
128385.0
31
0
0
LINE
8
sensors
10
-284855.0
20
128495.0
30
0
11
-284835.0
21
128495.0
31
0
0
LINE
8
sensors
10
-284960.0
20
128660.0
30
0
11
-284960.0
21
128820.0
31
0
0
LINE
8
sensors
10
-284860.0
20
128660.0
30
0
11
-284860.0
21
128820.0
31
0
0
LINE
8
sensors
10
-284960.0
20
128660.0
30
0
11
-284860.0
21
128660.0
31
0
0
LINE
8
sensors
10
-284960.0
20
128820.0
30
0
11
-284860.0
21
128820.0
31
0
0
LINE
8
sensors
10
-284855.0
20
128685.0
30
0
11
-284855.0
21
128795.0
31
0
0
LINE
8
sensors
10
-284835.0
20
128685.0
30
0
11
-284835.0
21
128795.0
31
0
0
LINE
8
sensors
10
-284855.0
20
128685.0
30
0
11
-284835.0
21
128685.0
31
0
0
LINE
8
sensors
10
-284855.0
20
128795.0
30
0
11
-284835.0
21
128795.0
31
0
0
LINE
8
sensors
10
-284960.0
20
128960.0
30
0
11
-284960.0
21
129120.0
31
0
0
LINE
8
sensors
10
-284860.0
20
128960.0
30
0
11
-284860.0
21
129120.0
31
0
0
LINE
8
sensors
10
-284960.0
20
128960.0
30
0
11
-284860.0
21
128960.0
31
0
0
LINE
8
sensors
10
-284960.0
20
129120.0
30
0
11
-284860.0
21
129120.0
31
0
0
LINE
8
sensors
10
-284855.0
20
128985.0
30
0
11
-284855.0
21
129095.0
31
0
0
LINE
8
sensors
10
-284835.0
20
128985.0
30
0
11
-284835.0
21
129095.0
31
0
0
LINE
8
sensors
10
-284855.0
20
128985.0
30
0
11
-284835.0
21
128985.0
31
0
0
LINE
8
sensors
10
-284855.0
20
129095.0
30
0
11
-284835.0
21
129095.0
31
0
0
LINE
8
sensors
10
-263420.0
20
136000.0
30
0
11
-263500.0
21
136080.0
31
0
0
LINE
8
sensors
10
-263500.0
20
136080.0
30
0
11
-263580.0
21
136000.0
31
0
0
LINE
8
sensors
10
-263580.0
20
136000.0
30
0
11
-263500.0
21
135920.0
31
0
0
LINE
8
sensors
10
-263500.0
20
135920.0
30
0
11
-263420.0
21
136000.0
31
0
0
LINE
8
sensors
10
-263500.0
20
136000.0
30
0
11
-263435.0
21
136000.0
31
0
0
LINE
8
sensors
10
-263435.0
20
136000.0
30
0
11
-263500.0
21
136000.0
31
0
0
LINE
8
sensors
10
-284960.0
20
129560.0
30
0
11
-284960.0
21
129720.0
31
0
0
LINE
8
sensors
10
-284860.0
20
129560.0
30
0
11
-284860.0
21
129720.0
31
0
0
LINE
8
sensors
10
-284960.0
20
129560.0
30
0
11
-284860.0
21
129560.0
31
0
0
LINE
8
sensors
10
-284960.0
20
129720.0
30
0
11
-284860.0
21
129720.0
31
0
0
LINE
8
sensors
10
-284855.0
20
129585.0
30
0
11
-284855.0
21
129695.0
31
0
0
LINE
8
sensors
10
-284835.0
20
129585.0
30
0
11
-284835.0
21
129695.0
31
0
0
LINE
8
sensors
10
-284855.0
20
129585.0
30
0
11
-284835.0
21
129585.0
31
0
0
LINE
8
sensors
10
-284855.0
20
129695.0
30
0
11
-284835.0
21
129695.0
31
0
0
ENDSEC
0
EOF
