0
SECTION
2
HEADER
9
$ACADVER
1
AC1015
9
$INSUNITS
70
4
0
ENDSEC
0
SECTION
2
ENTITIES
0
LINE
8
interiors
10
-49000.0
20
227000.0
30
0
11
-49000.0
21
247000.0
31
0
0
LINE
8
interiors
10
-49000.0
20
227000.0
30
0
11
-45200.0
21
227000.0
31
0
0
LINE
8
interiors
10
-45200.0
20
227000.0
30
0
11
-42800.0
21
227000.0
31
0
0
LINE
8
interiors
10
-42800.0
20
227000.0
30
0
11
-39000.0
21
227000.0
31
0
0
LINE
8
interiors
10
-49000.0
20
227000.0
30
0
11
-39000.0
21
227000.0
31
0
0
LINE
8
interiors
10
-49000.0
20
247000.0
30
0
11
-39000.0
21
247000.0
31
0
0
LINE
8
interiors
10
-39000.0
20
227000.0
30
0
11
-39000.0
21
247000.0
31
0
0
LINE
8
interiors
10
-39120.0
20
227120.0
30
0
11
-48880.0
21
227120.0
31
0
0
LINE
8
interiors
10
-39120.0
20
227120.0
30
0
11
-39120.0
21
246880.0
31
0
0
LINE
8
interiors
10
-39120.0
20
246880.0
30
0
11
-48880.0
21
246880.0
31
0
0
LINE
8
interiors
10
-48880.0
20
227120.0
30
0
11
-48880.0
21
246880.0
31
0
0
LINE
8
interiors
10
-46600.0
20
247000.0
30
0
11
-41400.0
21
247000.0
31
0
0
LINE
8
interiors
10
-42800.0
20
227000.0
30
0
11
-42800.0
21
227120.0
31
0
0
LINE
8
interiors
10
-39120.0
20
227120.0
30
0
11
-42800.0
21
227120.0
31
0
0
LINE
8
interiors
10
-45200.0
20
227120.0
30
0
11
-48880.0
21
227120.0
31
0
0
LINE
8
interiors
10
-45200.0
20
227000.0
30
0
11
-45200.0
21
227120.0
31
0
0
LINE
8
interiors
10
-45200.0
20
227120.0
30
0
11
-42800.0
21
227120.0
31
0
0
LINE
8
interiors
10
-46600.0
20
246880.0
30
0
11
-41400.0
21
246880.0
31
0
0
LINE
8
interiors
10
-46600.0
20
246880.0
30
0
11
-46600.0
21
247000.0
31
0
0
LINE
8
interiors
10
-41400.0
20
246880.0
30
0
11
-41400.0
21
247000.0
31
0
0
LINE
8
interiors
10
-46600.0
20
246977.5
30
0
11
-46600.0
21
247022.5
31
0
0
LINE
8
interiors
10
-41400.0
20
246977.5
30
0
11
-41400.0
21
247022.5
31
0
0
LINE
8
interiors
10
-46600.0
20
246977.5
30
0
11
-41400.0
21
246977.5
31
0
0
LINE
8
interiors
10
-46600.0
20
247022.5
30
0
11
-41400.0
21
247022.5
31
0
0
LINE
8
interiors
10
-48875.0
20
227125.0
30
0
11
-48875.0
21
246875.0
31
0
0
LINE
8
interiors
10
-39125.0
20
227125.0
30
0
11
-39125.0
21
246875.0
31
0
0
LINE
8
interiors
10
-48875.0
20
227125.0
30
0
11
-39125.0
21
227125.0
31
0
0
LINE
8
interiors
10
-48875.0
20
246875.0
30
0
11
-39125.0
21
246875.0
31
0
0
LINE
8
interiors
10
-45155.0
20
226880.0
30
0
11
-45155.0
21
227120.0
31
0
0
LINE
8
interiors
10
-45085.0
20
226880.0
30
0
11
-45085.0
21
227120.0
31
0
0
LINE
8
interiors
10
-45155.0
20
226880.0
30
0
11
-45085.0
21
226880.0
31
0
0
LINE
8
interiors
10
-45155.0
20
227120.0
30
0
11
-45085.0
21
227120.0
31
0
0
LINE
8
interiors
10
-42915.0
20
226880.0
30
0
11
-42915.0
21
227120.0
31
0
0
LINE
8
interiors
10
-42845.0
20
226880.0
30
0
11
-42845.0
21
227120.0
31
0
0
LINE
8
interiors
10
-42915.0
20
226880.0
30
0
11
-42845.0
21
226880.0
31
0
0
LINE
8
interiors
10
-42915.0
20
227120.0
30
0
11
-42845.0
21
227120.0
31
0
0
LINE
8
interiors
10
-45150.0
20
226880.0
30
0
11
-45150.0
21
227120.0
31
0
0
LINE
8
interiors
10
-42850.0
20
226880.0
30
0
11
-42850.0
21
227120.0
31
0
0
LINE
8
interiors
10
-45150.0
20
226880.0
30
0
11
-42850.0
21
226880.0
31
0
0
LINE
8
interiors
10
-45150.0
20
227120.0
30
0
11
-42850.0
21
227120.0
31
0
0
LINE
8
interiors
10
-45069.61
20
227090.49
30
0
11
-45110.39
21
227109.51
31
0
0
LINE
8
interiors
10
-44613.18
20
228069.3
30
0
11
-44653.96
21
228088.32
31
0
0
LINE
8
interiors
10
-45069.61
20
227090.49
30
0
11
-44613.18
21
228069.3
31
0
0
LINE
8
interiors
10
-45110.39
20
227109.51
30
0
11
-44653.96
21
228088.32
31
0
0
LINE
8
interiors
10
-45750.0
20
233400.0
30
0
11
-45750.0
21
234600.0
31
0
0
LINE
8
interiors
10
-42250.0
20
233400.0
30
0
11
-42250.0
21
234600.0
31
0
0
LINE
8
interiors
10
-45750.0
20
233400.0
30
0
11
-42250.0
21
233400.0
31
0
0
LINE
8
interiors
10
-45750.0
20
234600.0
30
0
11
-42250.0
21
234600.0
31
0
0
LINE
8
interiors
10
-44300.0
20
233970.0
30
0
11
-44300.0
21
234030.0
31
0
0
LINE
8
interiors
10
-43700.0
20
233970.0
30
0
11
-43700.0
21
234030.0
31
0
0
LINE
8
interiors
10
-44300.0
20
233970.0
30
0
11
-43700.0
21
233970.0
31
0
0
LINE
8
interiors
10
-44300.0
20
234030.0
30
0
11
-43700.0
21
234030.0
31
0
0
LINE
8
interiors
10
-44030.0
20
233965.0
30
0
11
-44030.0
21
234035.0
31
0
0
LINE
8
interiors
10
-43970.0
20
233965.0
30
0
11
-43970.0
21
234035.0
31
0
0
LINE
8
interiors
10
-44030.0
20
233965.0
30
0
11
-43970.0
21
233965.0
31
0
0
LINE
8
interiors
10
-44030.0
20
234035.0
30
0
11
-43970.0
21
234035.0
31
0
0
LINE
8
interiors
10
-44150.0
20
233890.0
30
0
11
-44150.0
21
234110.0
31
0
0
LINE
8
interiors
10
-43850.0
20
233890.0
30
0
11
-43850.0
21
234110.0
31
0
0
LINE
8
interiors
10
-44150.0
20
233890.0
30
0
11
-43850.0
21
233890.0
31
0
0
LINE
8
interiors
10
-44150.0
20
234110.0
30
0
11
-43850.0
21
234110.0
31
0
0
LINE
8
electrical
10
-39725.0
20
227075.0
30
0
11
-39725.0
21
227325.0
31
0
0
LINE
8
electrical
10
-39175.0
20
227075.0
30
0
11
-39175.0
21
227325.0
31
0
0
LINE
8
electrical
10
-39725.0
20
227075.0
30
0
11
-39175.0
21
227075.0
31
0
0
LINE
8
electrical
10
-39725.0
20
227325.0
30
0
11
-39175.0
21
227325.0
31
0
0
LINE
8
electrical
10
-39685.0
20
227047.5
30
0
11
-39685.0
21
227082.5
31
0
0
LINE
8
electrical
10
-39215.0
20
227047.5
30
0
11
-39215.0
21
227082.5
31
0
0
LINE
8
electrical
10
-39685.0
20
227047.5
30
0
11
-39215.0
21
227047.5
31
0
0
LINE
8
electrical
10
-39685.0
20
227082.5
30
0
11
-39215.0
21
227082.5
31
0
0
LINE
8
electrical
10
-39637.5
20
227010.0
30
0
11
-39637.5
21
227050.0
31
0
0
LINE
8
electrical
10
-39537.5
20
227010.0
30
0
11
-39537.5
21
227050.0
31
0
0
LINE
8
electrical
10
-39637.5
20
227010.0
30
0
11
-39537.5
21
227010.0
31
0
0
LINE
8
electrical
10
-39637.5
20
227050.0
30
0
11
-39537.5
21
227050.0
31
0
0
LINE
8
electrical
10
-39500.0
20
227010.0
30
0
11
-39500.0
21
227050.0
31
0
0
LINE
8
electrical
10
-39400.0
20
227010.0
30
0
11
-39400.0
21
227050.0
31
0
0
LINE
8
electrical
10
-39500.0
20
227010.0
30
0
11
-39400.0
21
227010.0
31
0
0
LINE
8
electrical
10
-39500.0
20
227050.0
30
0
11
-39400.0
21
227050.0
31
0
0
LINE
8
electrical
10
-39362.5
20
227010.0
30
0
11
-39362.5
21
227050.0
31
0
0
LINE
8
electrical
10
-39262.5
20
227010.0
30
0
11
-39262.5
21
227050.0
31
0
0
LINE
8
electrical
10
-39362.5
20
227010.0
30
0
11
-39262.5
21
227010.0
31
0
0
LINE
8
electrical
10
-39362.5
20
227050.0
30
0
11
-39262.5
21
227050.0
31
0
0
LINE
8
electrical
10
-39587.5
20
226995.0
30
0
11
-39564.12
21
226995.0
31
0
0
LINE
8
electrical
10
-39564.12
20
226995.0
30
0
11
-39610.88
21
226995.0
31
0
0
LINE
8
electrical
10
-39610.88
20
226995.0
30
0
11
-39587.5
21
226995.0
31
0
0
LINE
8
electrical
10
-39587.5
20
227020.0
30
0
11
-39587.5
21
226995.0
31
0
0
LINE
8
electrical
10
-39587.5
20
227020.0
30
0
11
-39564.12
21
227020.0
31
0
0
LINE
8
electrical
10
-39564.12
20
227020.0
30
0
11
-39610.88
21
227020.0
31
0
0
LINE
8
electrical
10
-39610.88
20
227020.0
30
0
11
-39587.5
21
227020.0
31
0
0
LINE
8
electrical
10
-39450.0
20
226995.0
30
0
11
-39426.62
21
226995.0
31
0
0
LINE
8
electrical
10
-39426.62
20
226995.0
30
0
11
-39473.38
21
226995.0
31
0
0
LINE
8
electrical
10
-39473.38
20
226995.0
30
0
11
-39450.0
21
226995.0
31
0
0
LINE
8
electrical
10
-39450.0
20
227020.0
30
0
11
-39450.0
21
226995.0
31
0
0
LINE
8
electrical
10
-39450.0
20
227020.0
30
0
11
-39426.62
21
227020.0
31
0
0
LINE
8
electrical
10
-39426.62
20
227020.0
30
0
11
-39473.38
21
227020.0
31
0
0
LINE
8
electrical
10
-39473.38
20
227020.0
30
0
11
-39450.0
21
227020.0
31
0
0
LINE
8
electrical
10
-39312.5
20
226995.0
30
0
11
-39289.12
21
226995.0
31
0
0
LINE
8
electrical
10
-39289.12
20
226995.0
30
0
11
-39335.88
21
226995.0
31
0
0
LINE
8
electrical
10
-39335.88
20
226995.0
30
0
11
-39312.5
21
226995.0
31
0
0
LINE
8
electrical
10
-39312.5
20
227020.0
30
0
11
-39312.5
21
226995.0
31
0
0
LINE
8
electrical
10
-39312.5
20
227020.0
30
0
11
-39289.12
21
227020.0
31
0
0
LINE
8
electrical
10
-39289.12
20
227020.0
30
0
11
-39335.88
21
227020.0
31
0
0
LINE
8
electrical
10
-39335.88
20
227020.0
30
0
11
-39312.5
21
227020.0
31
0
0
LINE
8
electrical
10
-39450.0
20
227200.0
30
0
11
-39434.41
21
227200.0
31
0
0
LINE
8
electrical
10
-39434.41
20
227200.0
30
0
11
-39465.59
21
227200.0
31
0
0
LINE
8
electrical
10
-39465.59
20
227200.0
30
0
11
-39450.0
21
227200.0
31
0
0
LINE
8
electrical
10
-39450.0
20
220200.0
30
0
11
-39450.0
21
227200.0
31
0
0
LINE
8
electrical
10
-39450.0
20
220200.0
30
0
11
-39434.41
21
220200.0
31
0
0
LINE
8
electrical
10
-39434.41
20
220200.0
30
0
11
-39465.59
21
220200.0
31
0
0
LINE
8
electrical
10
-39465.59
20
220200.0
30
0
11
-39450.0
21
220200.0
31
0
0
LINE
8
electrical
10
-39468.0
20
227200.0
30
0
11
-39441.0
21
227215.59
31
0
0
LINE
8
electrical
10
-39441.0
20
227215.59
30
0
11
-39441.0
21
227184.41
31
0
0
LINE
8
electrical
10
-39441.0
20
227184.41
30
0
11
-39468.0
21
227200.0
31
0
0
LINE
8
electrical
10
-39450.0
20
227200.0
30
0
11
-39430.56
21
227200.0
31
0
0
LINE
8
electrical
10
-39430.56
20
227200.0
30
0
11
-39450.0
21
227200.0
31
0
0
LINE
8
lighting
10
-48500.0
20
230172.5
30
0
11
-48500.0
21
230227.5
31
0
0
LINE
8
lighting
10
-46700.0
20
230172.5
30
0
11
-46700.0
21
230227.5
31
0
0
LINE
8
lighting
10
-48500.0
20
230172.5
30
0
11
-46700.0
21
230172.5
31
0
0
LINE
8
lighting
10
-48500.0
20
230227.5
30
0
11
-46700.0
21
230227.5
31
0
0
LINE
8
lighting
10
-48150.0
20
230450.0
30
0
11
-48064.4
21
230450.0
31
0
0
LINE
8
lighting
10
-48064.4
20
230450.0
30
0
11
-48097.1
21
230450.0
31
0
0
LINE
8
lighting
10
-48097.1
20
230450.0
30
0
11
-48202.9
21
230450.0
31
0
0
LINE
8
lighting
10
-48202.9
20
230450.0
30
0
11
-48235.6
21
230450.0
31
0
0
LINE
8
lighting
10
-48235.6
20
230450.0
30
0
11
-48150.0
21
230450.0
31
0
0
LINE
8
lighting
10
-48150.0
20
230200.0
30
0
11
-48150.0
21
230450.0
31
0
0
LINE
8
lighting
10
-48150.0
20
230200.0
30
0
11
-48064.4
21
230200.0
31
0
0
LINE
8
lighting
10
-48064.4
20
230200.0
30
0
11
-48097.1
21
230200.0
31
0
0
LINE
8
lighting
10
-48097.1
20
230200.0
30
0
11
-48202.9
21
230200.0
31
0
0
LINE
8
lighting
10
-48202.9
20
230200.0
30
0
11
-48235.6
21
230200.0
31
0
0
LINE
8
lighting
10
-48235.6
20
230200.0
30
0
11
-48150.0
21
230200.0
31
0
0
LINE
8
lighting
10
-47050.0
20
229950.0
30
0
11
-46964.4
21
229950.0
31
0
0
LINE
8
lighting
10
-46964.4
20
229950.0
30
0
11
-46997.1
21
229950.0
31
0
0
LINE
8
lighting
10
-46997.1
20
229950.0
30
0
11
-47102.9
21
229950.0
31
0
0
LINE
8
lighting
10
-47102.9
20
229950.0
30
0
11
-47135.6
21
229950.0
31
0
0
LINE
8
lighting
10
-47135.6
20
229950.0
30
0
11
-47050.0
21
229950.0
31
0
0
LINE
8
lighting
10
-47050.0
20
230200.0
30
0
11
-47050.0
21
229950.0
31
0
0
LINE
8
lighting
10
-47050.0
20
230200.0
30
0
11
-46964.4
21
230200.0
31
0
0
LINE
8
lighting
10
-46964.4
20
230200.0
30
0
11
-46997.1
21
230200.0
31
0
0
LINE
8
lighting
10
-46997.1
20
230200.0
30
0
11
-47102.9
21
230200.0
31
0
0
LINE
8
lighting
10
-47102.9
20
230200.0
30
0
11
-47135.6
21
230200.0
31
0
0
LINE
8
lighting
10
-47135.6
20
230200.0
30
0
11
-47050.0
21
230200.0
31
0
0
LINE
8
lighting
10
-47591.0
20
230200.0
30
0
11
-47604.5
21
230207.79
31
0
0
LINE
8
lighting
10
-47604.5
20
230207.79
30
0
11
-47604.5
21
230192.21
31
0
0
LINE
8
lighting
10
-47604.5
20
230192.21
30
0
11
-47591.0
21
230200.0
31
0
0
LINE
8
lighting
10
-41300.0
20
230172.5
30
0
11
-41300.0
21
230227.5
31
0
0
LINE
8
lighting
10
-39500.0
20
230172.5
30
0
11
-39500.0
21
230227.5
31
0
0
LINE
8
lighting
10
-41300.0
20
230172.5
30
0
11
-39500.0
21
230172.5
31
0
0
LINE
8
lighting
10
-41300.0
20
230227.5
30
0
11
-39500.0
21
230227.5
31
0
0
LINE
8
lighting
10
-40950.0
20
230450.0
30
0
11
-40864.4
21
230450.0
31
0
0
LINE
8
lighting
10
-40864.4
20
230450.0
30
0
11
-40897.1
21
230450.0
31
0
0
LINE
8
lighting
10
-40897.1
20
230450.0
30
0
11
-41002.9
21
230450.0
31
0
0
LINE
8
lighting
10
-41002.9
20
230450.0
30
0
11
-41035.6
21
230450.0
31
0
0
LINE
8
lighting
10
-41035.6
20
230450.0
30
0
11
-40950.0
21
230450.0
31
0
0
LINE
8
lighting
10
-40950.0
20
230200.0
30
0
11
-40950.0
21
230450.0
31
0
0
LINE
8
lighting
10
-40950.0
20
230200.0
30
0
11
-40864.4
21
230200.0
31
0
0
LINE
8
lighting
10
-40864.4
20
230200.0
30
0
11
-40897.1
21
230200.0
31
0
0
LINE
8
lighting
10
-40897.1
20
230200.0
30
0
11
-41002.9
21
230200.0
31
0
0
LINE
8
lighting
10
-41002.9
20
230200.0
30
0
11
-41035.6
21
230200.0
31
0
0
LINE
8
lighting
10
-41035.6
20
230200.0
30
0
11
-40950.0
21
230200.0
31
0
0
LINE
8
lighting
10
-39850.0
20
229950.0
30
0
11
-39764.4
21
229950.0
31
0
0
LINE
8
lighting
10
-39764.4
20
229950.0
30
0
11
-39797.1
21
229950.0
31
0
0
LINE
8
lighting
10
-39797.1
20
229950.0
30
0
11
-39902.9
21
229950.0
31
0
0
LINE
8
lighting
10
-39902.9
20
229950.0
30
0
11
-39935.6
21
229950.0
31
0
0
LINE
8
lighting
10
-39935.6
20
229950.0
30
0
11
-39850.0
21
229950.0
31
0
0
LINE
8
lighting
10
-39850.0
20
230200.0
30
0
11
-39850.0
21
229950.0
31
0
0
LINE
8
lighting
10
-39850.0
20
230200.0
30
0
11
-39764.4
21
230200.0
31
0
0
LINE
8
lighting
10
-39764.4
20
230200.0
30
0
11
-39797.1
21
230200.0
31
0
0
LINE
8
lighting
10
-39797.1
20
230200.0
30
0
11
-39902.9
21
230200.0
31
0
0
LINE
8
lighting
10
-39902.9
20
230200.0
30
0
11
-39935.6
21
230200.0
31
0
0
LINE
8
lighting
10
-39935.6
20
230200.0
30
0
11
-39850.0
21
230200.0
31
0
0
LINE
8
lighting
10
-40391.0
20
230200.0
30
0
11
-40404.5
21
230207.79
31
0
0
LINE
8
lighting
10
-40404.5
20
230207.79
30
0
11
-40404.5
21
230192.21
31
0
0
LINE
8
lighting
10
-40404.5
20
230192.21
30
0
11
-40391.0
21
230200.0
31
0
0
LINE
8
lighting
10
-48500.0
20
243772.5
30
0
11
-48500.0
21
243827.5
31
0
0
LINE
8
lighting
10
-46700.0
20
243772.5
30
0
11
-46700.0
21
243827.5
31
0
0
LINE
8
lighting
10
-48500.0
20
243772.5
30
0
11
-46700.0
21
243772.5
31
0
0
LINE
8
lighting
10
-48500.0
20
243827.5
30
0
11
-46700.0
21
243827.5
31
0
0
LINE
8
lighting
10
-48150.0
20
244050.0
30
0
11
-48064.4
21
244050.0
31
0
0
LINE
8
lighting
10
-48064.4
20
244050.0
30
0
11
-48097.1
21
244050.0
31
0
0
LINE
8
lighting
10
-48097.1
20
244050.0
30
0
11
-48202.9
21
244050.0
31
0
0
LINE
8
lighting
10
-48202.9
20
244050.0
30
0
11
-48235.6
21
244050.0
31
0
0
LINE
8
lighting
10
-48235.6
20
244050.0
30
0
11
-48150.0
21
244050.0
31
0
0
LINE
8
lighting
10
-48150.0
20
243800.0
30
0
11
-48150.0
21
244050.0
31
0
0
LINE
8
lighting
10
-48150.0
20
243800.0
30
0
11
-48064.4
21
243800.0
31
0
0
LINE
8
lighting
10
-48064.4
20
243800.0
30
0
11
-48097.1
21
243800.0
31
0
0
LINE
8
lighting
10
-48097.1
20
243800.0
30
0
11
-48202.9
21
243800.0
31
0
0
LINE
8
lighting
10
-48202.9
20
243800.0
30
0
11
-48235.6
21
243800.0
31
0
0
LINE
8
lighting
10
-48235.6
20
243800.0
30
0
11
-48150.0
21
243800.0
31
0
0
LINE
8
lighting
10
-47050.0
20
243550.0
30
0
11
-46964.4
21
243550.0
31
0
0
LINE
8
lighting
10
-46964.4
20
243550.0
30
0
11
-46997.1
21
243550.0
31
0
0
LINE
8
lighting
10
-46997.1
20
243550.0
30
0
11
-47102.9
21
243550.0
31
0
0
LINE
8
lighting
10
-47102.9
20
243550.0
30
0
11
-47135.6
21
243550.0
31
0
0
LINE
8
lighting
10
-47135.6
20
243550.0
30
0
11
-47050.0
21
243550.0
31
0
0
LINE
8
lighting
10
-47050.0
20
243800.0
30
0
11
-47050.0
21
243550.0
31
0
0
LINE
8
lighting
10
-47050.0
20
243800.0
30
0
11
-46964.4
21
243800.0
31
0
0
LINE
8
lighting
10
-46964.4
20
243800.0
30
0
11
-46997.1
21
243800.0
31
0
0
LINE
8
lighting
10
-46997.1
20
243800.0
30
0
11
-47102.9
21
243800.0
31
0
0
LINE
8
lighting
10
-47102.9
20
243800.0
30
0
11
-47135.6
21
243800.0
31
0
0
LINE
8
lighting
10
-47135.6
20
243800.0
30
0
11
-47050.0
21
243800.0
31
0
0
LINE
8
lighting
10
-47591.0
20
243800.0
30
0
11
-47604.5
21
243807.79
31
0
0
LINE
8
lighting
10
-47604.5
20
243807.79
30
0
11
-47604.5
21
243792.21
31
0
0
LINE
8
lighting
10
-47604.5
20
243792.21
30
0
11
-47591.0
21
243800.0
31
0
0
LINE
8
lighting
10
-41300.0
20
243772.5
30
0
11
-41300.0
21
243827.5
31
0
0
LINE
8
lighting
10
-39500.0
20
243772.5
30
0
11
-39500.0
21
243827.5
31
0
0
LINE
8
lighting
10
-41300.0
20
243772.5
30
0
11
-39500.0
21
243772.5
31
0
0
LINE
8
lighting
10
-41300.0
20
243827.5
30
0
11
-39500.0
21
243827.5
31
0
0
LINE
8
lighting
10
-40950.0
20
244050.0
30
0
11
-40864.4
21
244050.0
31
0
0
LINE
8
lighting
10
-40864.4
20
244050.0
30
0
11
-40897.1
21
244050.0
31
0
0
LINE
8
lighting
10
-40897.1
20
244050.0
30
0
11
-41002.9
21
244050.0
31
0
0
LINE
8
lighting
10
-41002.9
20
244050.0
30
0
11
-41035.6
21
244050.0
31
0
0
LINE
8
lighting
10
-41035.6
20
244050.0
30
0
11
-40950.0
21
244050.0
31
0
0
LINE
8
lighting
10
-40950.0
20
243800.0
30
0
11
-40950.0
21
244050.0
31
0
0
LINE
8
lighting
10
-40950.0
20
243800.0
30
0
11
-40864.4
21
243800.0
31
0
0
LINE
8
lighting
10
-40864.4
20
243800.0
30
0
11
-40897.1
21
243800.0
31
0
0
LINE
8
lighting
10
-40897.1
20
243800.0
30
0
11
-41002.9
21
243800.0
31
0
0
LINE
8
lighting
10
-41002.9
20
243800.0
30
0
11
-41035.6
21
243800.0
31
0
0
LINE
8
lighting
10
-41035.6
20
243800.0
30
0
11
-40950.0
21
243800.0
31
0
0
LINE
8
lighting
10
-39850.0
20
243550.0
30
0
11
-39764.4
21
243550.0
31
0
0
LINE
8
lighting
10
-39764.4
20
243550.0
30
0
11
-39797.1
21
243550.0
31
0
0
LINE
8
lighting
10
-39797.1
20
243550.0
30
0
11
-39902.9
21
243550.0
31
0
0
LINE
8
lighting
10
-39902.9
20
243550.0
30
0
11
-39935.6
21
243550.0
31
0
0
LINE
8
lighting
10
-39935.6
20
243550.0
30
0
11
-39850.0
21
243550.0
31
0
0
LINE
8
lighting
10
-39850.0
20
243800.0
30
0
11
-39850.0
21
243550.0
31
0
0
LINE
8
lighting
10
-39850.0
20
243800.0
30
0
11
-39764.4
21
243800.0
31
0
0
LINE
8
lighting
10
-39764.4
20
243800.0
30
0
11
-39797.1
21
243800.0
31
0
0
LINE
8
lighting
10
-39797.1
20
243800.0
30
0
11
-39902.9
21
243800.0
31
0
0
LINE
8
lighting
10
-39902.9
20
243800.0
30
0
11
-39935.6
21
243800.0
31
0
0
LINE
8
lighting
10
-39935.6
20
243800.0
30
0
11
-39850.0
21
243800.0
31
0
0
LINE
8
lighting
10
-40391.0
20
243800.0
30
0
11
-40404.5
21
243807.79
31
0
0
LINE
8
lighting
10
-40404.5
20
243807.79
30
0
11
-40404.5
21
243792.21
31
0
0
LINE
8
lighting
10
-40404.5
20
243792.21
30
0
11
-40391.0
21
243800.0
31
0
0
LINE
8
electrical
10
-47600.0
20
229880.0
30
0
11
-47600.0
21
229872.21
31
0
0
LINE
8
electrical
10
-47600.0
20
229872.21
30
0
11
-47600.0
21
229887.79
31
0
0
LINE
8
electrical
10
-47600.0
20
229887.79
30
0
11
-47600.0
21
229880.0
31
0
0
LINE
8
electrical
10
-39450.0
20
229880.0
30
0
11
-47600.0
21
229880.0
31
0
0
LINE
8
electrical
10
-39450.0
20
229880.0
30
0
11
-39450.0
21
229872.21
31
0
0
LINE
8
electrical
10
-39450.0
20
229872.21
30
0
11
-39450.0
21
229887.79
31
0
0
LINE
8
electrical
10
-39450.0
20
229887.79
30
0
11
-39450.0
21
229880.0
31
0
0
LINE
8
electrical
10
-47600.0
20
243800.0
30
0
11
-47592.21
21
243800.0
31
0
0
LINE
8
electrical
10
-47592.21
20
243800.0
30
0
11
-47607.79
21
243800.0
31
0
0
LINE
8
electrical
10
-47607.79
20
243800.0
30
0
11
-47600.0
21
243800.0
31
0
0
LINE
8
electrical
10
-47600.0
20
229880.0
30
0
11
-47600.0
21
243800.0
31
0
0
LINE
8
electrical
10
-47600.0
20
229880.0
30
0
11
-47592.21
21
229880.0
31
0
0
LINE
8
electrical
10
-47592.21
20
229880.0
30
0
11
-47607.79
21
229880.0
31
0
0
LINE
8
electrical
10
-47607.79
20
229880.0
30
0
11
-47600.0
21
229880.0
31
0
0
LINE
8
electrical
10
-40400.0
20
243800.0
30
0
11
-40392.21
21
243800.0
31
0
0
LINE
8
electrical
10
-40392.21
20
243800.0
30
0
11
-40407.79
21
243800.0
31
0
0
LINE
8
electrical
10
-40407.79
20
243800.0
30
0
11
-40400.0
21
243800.0
31
0
0
LINE
8
electrical
10
-40400.0
20
229880.0
30
0
11
-40400.0
21
243800.0
31
0
0
LINE
8
electrical
10
-40400.0
20
229880.0
30
0
11
-40392.21
21
229880.0
31
0
0
LINE
8
electrical
10
-40392.21
20
229880.0
30
0
11
-40407.79
21
229880.0
31
0
0
LINE
8
electrical
10
-40407.79
20
229880.0
30
0
11
-40400.0
21
229880.0
31
0
0
LINE
8
electrical
10
-39437.0
20
227200.0
30
0
11
-39456.5
21
227211.26
31
0
0
LINE
8
electrical
10
-39456.5
20
227211.26
30
0
11
-39456.5
21
227188.74
31
0
0
LINE
8
electrical
10
-39456.5
20
227188.74
30
0
11
-39437.0
21
227200.0
31
0
0
LINE
8
electrical
10
-40487.9
20
229884.74
30
0
11
-40506.05
21
229877.63
31
0
0
LINE
8
electrical
10
-40506.05
20
229877.63
30
0
11
-40506.05
21
229877.63
31
0
0
LINE
8
electrical
10
-40506.05
20
229877.63
30
0
11
-40487.9
21
229884.74
31
0
0
LINE
8
electrical
10
-39437.9
20
227204.74
30
0
11
-40487.9
21
229884.74
31
0
0
LINE
8
electrical
10
-39437.9
20
227204.74
30
0
11
-39456.05
21
227197.63
31
0
0
LINE
8
electrical
10
-39456.05
20
227197.63
30
0
11
-39456.05
21
227197.63
31
0
0
LINE
8
electrical
10
-39456.05
20
227197.63
30
0
11
-39437.9
21
227204.74
31
0
0
LINE
8
electrical
10
-47500.0
20
229880.0
30
0
11
-47500.0
21
229868.74
31
0
0
LINE
8
electrical
10
-47500.0
20
229868.74
30
0
11
-47500.0
21
229891.26
31
0
0
LINE
8
electrical
10
-47500.0
20
229891.26
30
0
11
-47500.0
21
229880.0
31
0
0
LINE
8
electrical
10
-40500.0
20
229880.0
30
0
11
-47500.0
21
229880.0
31
0
0
LINE
8
electrical
10
-40500.0
20
229880.0
30
0
11
-40500.0
21
229868.74
31
0
0
LINE
8
electrical
10
-40500.0
20
229868.74
30
0
11
-40500.0
21
229891.26
31
0
0
LINE
8
electrical
10
-40500.0
20
229891.26
30
0
11
-40500.0
21
229880.0
31
0
0
LINE
8
electrical
10
-39450.0
20
227200.0
30
0
11
-39435.96
21
227200.0
31
0
0
LINE
8
electrical
10
-39435.96
20
227200.0
30
0
11
-39450.0
21
227200.0
31
0
0
LINE
8
electrical
10
-40500.0
20
229880.0
30
0
11
-40485.96
21
229880.0
31
0
0
LINE
8
electrical
10
-40485.96
20
229880.0
30
0
11
-40500.0
21
229880.0
31
0
0
LINE
8
electrical
10
-39437.0
20
227200.0
30
0
11
-39456.5
21
227211.26
31
0
0
LINE
8
electrical
10
-39456.5
20
227211.26
30
0
11
-39456.5
21
227188.74
31
0
0
LINE
8
electrical
10
-39456.5
20
227188.74
30
0
11
-39437.0
21
227200.0
31
0
0
LINE
8
electrical
10
-40487.83
20
230004.56
30
0
11
-40506.09
21
229997.72
31
0
0
LINE
8
electrical
10
-40506.09
20
229997.72
30
0
11
-40506.09
21
229997.72
31
0
0
LINE
8
electrical
10
-40506.09
20
229997.72
30
0
11
-40487.83
21
230004.56
31
0
0
LINE
8
electrical
10
-39437.83
20
227204.56
30
0
11
-40487.83
21
230004.56
31
0
0
LINE
8
electrical
10
-39437.83
20
227204.56
30
0
11
-39456.09
21
227197.72
31
0
0
LINE
8
electrical
10
-39456.09
20
227197.72
30
0
11
-39456.09
21
227197.72
31
0
0
LINE
8
electrical
10
-39456.09
20
227197.72
30
0
11
-39437.83
21
227204.56
31
0
0
LINE
8
electrical
10
-47500.0
20
230000.0
30
0
11
-47500.0
21
229988.74
31
0
0
LINE
8
electrical
10
-47500.0
20
229988.74
30
0
11
-47500.0
21
230011.26
31
0
0
LINE
8
electrical
10
-47500.0
20
230011.26
30
0
11
-47500.0
21
230000.0
31
0
0
LINE
8
electrical
10
-40500.0
20
230000.0
30
0
11
-47500.0
21
230000.0
31
0
0
LINE
8
electrical
10
-40500.0
20
230000.0
30
0
11
-40500.0
21
229988.74
31
0
0
LINE
8
electrical
10
-40500.0
20
229988.74
30
0
11
-40500.0
21
230011.26
31
0
0
LINE
8
electrical
10
-40500.0
20
230011.26
30
0
11
-40500.0
21
230000.0
31
0
0
LINE
8
electrical
10
-39450.0
20
227200.0
30
0
11
-39435.96
21
227200.0
31
0
0
LINE
8
electrical
10
-39435.96
20
227200.0
30
0
11
-39450.0
21
227200.0
31
0
0
LINE
8
electrical
10
-40500.0
20
230000.0
30
0
11
-40485.96
21
230000.0
31
0
0
LINE
8
electrical
10
-40485.96
20
230000.0
30
0
11
-40500.0
21
230000.0
31
0
0
LINE
8
electrical
10
-39437.0
20
227200.0
30
0
11
-39456.5
21
227211.26
31
0
0
LINE
8
electrical
10
-39456.5
20
227211.26
30
0
11
-39456.5
21
227188.74
31
0
0
LINE
8
electrical
10
-39456.5
20
227188.74
30
0
11
-39437.0
21
227200.0
31
0
0
LINE
8
electrical
10
-40487.77
20
230124.4
30
0
11
-40506.12
21
230117.8
31
0
0
LINE
8
electrical
10
-40506.12
20
230117.8
30
0
11
-40506.12
21
230117.8
31
0
0
LINE
8
electrical
10
-40506.12
20
230117.8
30
0
11
-40487.77
21
230124.4
31
0
0
LINE
8
electrical
10
-39437.77
20
227204.4
30
0
11
-40487.77
21
230124.4
31
0
0
LINE
8
electrical
10
-39437.77
20
227204.4
30
0
11
-39456.12
21
227197.8
31
0
0
LINE
8
electrical
10
-39456.12
20
227197.8
30
0
11
-39456.12
21
227197.8
31
0
0
LINE
8
electrical
10
-39456.12
20
227197.8
30
0
11
-39437.77
21
227204.4
31
0
0
LINE
8
electrical
10
-47500.0
20
230120.0
30
0
11
-47500.0
21
230108.74
31
0
0
LINE
8
electrical
10
-47500.0
20
230108.74
30
0
11
-47500.0
21
230131.26
31
0
0
LINE
8
electrical
10
-47500.0
20
230131.26
30
0
11
-47500.0
21
230120.0
31
0
0
LINE
8
electrical
10
-40500.0
20
230120.0
30
0
11
-47500.0
21
230120.0
31
0
0
LINE
8
electrical
10
-40500.0
20
230120.0
30
0
11
-40500.0
21
230108.74
31
0
0
LINE
8
electrical
10
-40500.0
20
230108.74
30
0
11
-40500.0
21
230131.26
31
0
0
LINE
8
electrical
10
-40500.0
20
230131.26
30
0
11
-40500.0
21
230120.0
31
0
0
LINE
8
electrical
10
-39450.0
20
227200.0
30
0
11
-39435.96
21
227200.0
31
0
0
LINE
8
electrical
10
-39435.96
20
227200.0
30
0
11
-39450.0
21
227200.0
31
0
0
LINE
8
electrical
10
-40500.0
20
230120.0
30
0
11
-40485.96
21
230120.0
31
0
0
LINE
8
electrical
10
-40485.96
20
230120.0
30
0
11
-40500.0
21
230120.0
31
0
0
LINE
8
electrical
10
-47065.0
20
227150.0
30
0
11
-47065.0
21
227210.0
31
0
0
LINE
8
electrical
10
-46935.0
20
227150.0
30
0
11
-46935.0
21
227210.0
31
0
0
LINE
8
electrical
10
-47065.0
20
227150.0
30
0
11
-46935.0
21
227150.0
31
0
0
LINE
8
electrical
10
-47065.0
20
227210.0
30
0
11
-46935.0
21
227210.0
31
0
0
LINE
8
electrical
10
-46991.0
20
227180.0
30
0
11
-47004.5
21
227187.79
31
0
0
LINE
8
electrical
10
-47004.5
20
227187.79
30
0
11
-47004.5
21
227172.21
31
0
0
LINE
8
electrical
10
-47004.5
20
227172.21
30
0
11
-46991.0
21
227180.0
31
0
0
LINE
8
electrical
10
-39450.0
20
227180.0
30
0
11
-39450.0
21
227172.21
31
0
0
LINE
8
electrical
10
-39450.0
20
227172.21
30
0
11
-39450.0
21
227187.79
31
0
0
LINE
8
electrical
10
-39450.0
20
227187.79
30
0
11
-39450.0
21
227180.0
31
0
0
LINE
8
electrical
10
-47000.0
20
227180.0
30
0
11
-39450.0
21
227180.0
31
0
0
LINE
8
electrical
10
-47000.0
20
227180.0
30
0
11
-47000.0
21
227172.21
31
0
0
LINE
8
electrical
10
-47000.0
20
227172.21
30
0
11
-47000.0
21
227187.79
31
0
0
LINE
8
electrical
10
-47000.0
20
227187.79
30
0
11
-47000.0
21
227180.0
31
0
0
LINE
8
electrical
10
-47000.0
20
227180.0
30
0
11
-46990.28
21
227180.0
31
0
0
LINE
8
electrical
10
-46990.28
20
227180.0
30
0
11
-47000.0
21
227180.0
31
0
0
LINE
8
electrical
10
-41065.0
20
227150.0
30
0
11
-41065.0
21
227210.0
31
0
0
LINE
8
electrical
10
-40935.0
20
227150.0
30
0
11
-40935.0
21
227210.0
31
0
0
LINE
8
electrical
10
-41065.0
20
227150.0
30
0
11
-40935.0
21
227150.0
31
0
0
LINE
8
electrical
10
-41065.0
20
227210.0
30
0
11
-40935.0
21
227210.0
31
0
0
LINE
8
electrical
10
-40991.0
20
227180.0
30
0
11
-41004.5
21
227187.79
31
0
0
LINE
8
electrical
10
-41004.5
20
227187.79
30
0
11
-41004.5
21
227172.21
31
0
0
LINE
8
electrical
10
-41004.5
20
227172.21
30
0
11
-40991.0
21
227180.0
31
0
0
LINE
8
electrical
10
-39450.0
20
227180.0
30
0
11
-39450.0
21
227172.21
31
0
0
LINE
8
electrical
10
-39450.0
20
227172.21
30
0
11
-39450.0
21
227187.79
31
0
0
LINE
8
electrical
10
-39450.0
20
227187.79
30
0
11
-39450.0
21
227180.0
31
0
0
LINE
8
electrical
10
-41000.0
20
227180.0
30
0
11
-39450.0
21
227180.0
31
0
0
LINE
8
electrical
10
-41000.0
20
227180.0
30
0
11
-41000.0
21
227172.21
31
0
0
LINE
8
electrical
10
-41000.0
20
227172.21
30
0
11
-41000.0
21
227187.79
31
0
0
LINE
8
electrical
10
-41000.0
20
227187.79
30
0
11
-41000.0
21
227180.0
31
0
0
LINE
8
electrical
10
-41000.0
20
227180.0
30
0
11
-40990.28
21
227180.0
31
0
0
LINE
8
electrical
10
-40990.28
20
227180.0
30
0
11
-41000.0
21
227180.0
31
0
0
LINE
8
hvac
10
-48525.0
20
227725.0
30
0
11
-48525.0
21
228475.0
31
0
0
LINE
8
hvac
10
-46875.0
20
227725.0
30
0
11
-46875.0
21
228475.0
31
0
0
LINE
8
hvac
10
-48525.0
20
227725.0
30
0
11
-46875.0
21
227725.0
31
0
0
LINE
8
hvac
10
-48525.0
20
228475.0
30
0
11
-46875.0
21
228475.0
31
0
0
LINE
8
hvac
10
-48425.0
20
227680.0
30
0
11
-48425.0
21
227720.0
31
0
0
LINE
8
hvac
10
-46975.0
20
227680.0
30
0
11
-46975.0
21
227720.0
31
0
0
LINE
8
hvac
10
-48425.0
20
227680.0
30
0
11
-46975.0
21
227680.0
31
0
0
LINE
8
hvac
10
-48425.0
20
227720.0
30
0
11
-46975.0
21
227720.0
31
0
0
LINE
8
hvac
10
-48360.0
20
227640.0
30
0
11
-48360.0
21
227700.0
31
0
0
LINE
8
hvac
10
-48320.0
20
227640.0
30
0
11
-48320.0
21
227700.0
31
0
0
LINE
8
hvac
10
-48360.0
20
227640.0
30
0
11
-48320.0
21
227640.0
31
0
0
LINE
8
hvac
10
-48360.0
20
227700.0
30
0
11
-48320.0
21
227700.0
31
0
0
LINE
8
hvac
10
-48200.0
20
227640.0
30
0
11
-48200.0
21
227700.0
31
0
0
LINE
8
hvac
10
-48160.0
20
227640.0
30
0
11
-48160.0
21
227700.0
31
0
0
LINE
8
hvac
10
-48200.0
20
227640.0
30
0
11
-48160.0
21
227640.0
31
0
0
LINE
8
hvac
10
-48200.0
20
227700.0
30
0
11
-48160.0
21
227700.0
31
0
0
LINE
8
hvac
10
-48040.0
20
227640.0
30
0
11
-48040.0
21
227700.0
31
0
0
LINE
8
hvac
10
-48000.0
20
227640.0
30
0
11
-48000.0
21
227700.0
31
0
0
LINE
8
hvac
10
-48040.0
20
227640.0
30
0
11
-48000.0
21
227640.0
31
0
0
LINE
8
hvac
10
-48040.0
20
227700.0
30
0
11
-48000.0
21
227700.0
31
0
0
LINE
8
hvac
10
-47880.0
20
227640.0
30
0
11
-47880.0
21
227700.0
31
0
0
LINE
8
hvac
10
-47840.0
20
227640.0
30
0
11
-47840.0
21
227700.0
31
0
0
LINE
8
hvac
10
-47880.0
20
227640.0
30
0
11
-47840.0
21
227640.0
31
0
0
LINE
8
hvac
10
-47880.0
20
227700.0
30
0
11
-47840.0
21
227700.0
31
0
0
LINE
8
hvac
10
-47720.0
20
227640.0
30
0
11
-47720.0
21
227700.0
31
0
0
LINE
8
hvac
10
-47680.0
20
227640.0
30
0
11
-47680.0
21
227700.0
31
0
0
LINE
8
hvac
10
-47720.0
20
227640.0
30
0
11
-47680.0
21
227640.0
31
0
0
LINE
8
hvac
10
-47720.0
20
227700.0
30
0
11
-47680.0
21
227700.0
31
0
0
LINE
8
hvac
10
-47560.0
20
227640.0
30
0
11
-47560.0
21
227700.0
31
0
0
LINE
8
hvac
10
-47520.0
20
227640.0
30
0
11
-47520.0
21
227700.0
31
0
0
LINE
8
hvac
10
-47560.0
20
227640.0
30
0
11
-47520.0
21
227640.0
31
0
0
LINE
8
hvac
10
-47560.0
20
227700.0
30
0
11
-47520.0
21
227700.0
31
0
0
LINE
8
hvac
10
-47400.0
20
227640.0
30
0
11
-47400.0
21
227700.0
31
0
0
LINE
8
hvac
10
-47360.0
20
227640.0
30
0
11
-47360.0
21
227700.0
31
0
0
LINE
8
hvac
10
-47400.0
20
227640.0
30
0
11
-47360.0
21
227640.0
31
0
0
LINE
8
hvac
10
-47400.0
20
227700.0
30
0
11
-47360.0
21
227700.0
31
0
0
LINE
8
hvac
10
-47240.0
20
227640.0
30
0
11
-47240.0
21
227700.0
31
0
0
LINE
8
hvac
10
-47200.0
20
227640.0
30
0
11
-47200.0
21
227700.0
31
0
0
LINE
8
hvac
10
-47240.0
20
227640.0
30
0
11
-47200.0
21
227640.0
31
0
0
LINE
8
hvac
10
-47240.0
20
227700.0
30
0
11
-47200.0
21
227700.0
31
0
0
LINE
8
hvac
10
-47080.0
20
227640.0
30
0
11
-47080.0
21
227700.0
31
0
0
LINE
8
hvac
10
-47040.0
20
227640.0
30
0
11
-47040.0
21
227700.0
31
0
0
LINE
8
hvac
10
-47080.0
20
227640.0
30
0
11
-47040.0
21
227640.0
31
0
0
LINE
8
hvac
10
-47080.0
20
227700.0
30
0
11
-47040.0
21
227700.0
31
0
0
LINE
8
hvac
10
-47925.0
20
227875.0
30
0
11
-47925.0
21
228325.0
31
0
0
LINE
8
hvac
10
-47475.0
20
227875.0
30
0
11
-47475.0
21
228325.0
31
0
0
LINE
8
hvac
10
-47925.0
20
227875.0
30
0
11
-47475.0
21
227875.0
31
0
0
LINE
8
hvac
10
-47925.0
20
228325.0
30
0
11
-47475.0
21
228325.0
31
0
0
LINE
8
hvac
10
-47500.0
20
236825.0
30
0
11
-47500.0
21
237175.0
31
0
0
LINE
8
hvac
10
-40500.0
20
236825.0
30
0
11
-40500.0
21
237175.0
31
0
0
LINE
8
hvac
10
-47500.0
20
236825.0
30
0
11
-40500.0
21
236825.0
31
0
0
LINE
8
hvac
10
-47500.0
20
237175.0
30
0
11
-40500.0
21
237175.0
31
0
0
LINE
8
hvac
10
-47875.0
20
227925.0
30
0
11
-47875.0
21
228275.0
31
0
0
LINE
8
hvac
10
-43825.0
20
227925.0
30
0
11
-43825.0
21
228275.0
31
0
0
LINE
8
hvac
10
-47875.0
20
227925.0
30
0
11
-43825.0
21
227925.0
31
0
0
LINE
8
hvac
10
-47875.0
20
228275.0
30
0
11
-43825.0
21
228275.0
31
0
0
LINE
8
hvac
10
-44175.0
20
227925.0
30
0
11
-44175.0
21
237175.0
31
0
0
LINE
8
hvac
10
-43825.0
20
227925.0
30
0
11
-43825.0
21
237175.0
31
0
0
LINE
8
hvac
10
-44175.0
20
227925.0
30
0
11
-43825.0
21
227925.0
31
0
0
LINE
8
hvac
10
-44175.0
20
237175.0
30
0
11
-43825.0
21
237175.0
31
0
0
LINE
8
hvac
10
-46350.0
20
236650.0
30
0
11
-46350.0
21
237350.0
31
0
0
LINE
8
hvac
10
-45650.0
20
236650.0
30
0
11
-45650.0
21
237350.0
31
0
0
LINE
8
hvac
10
-46350.0
20
236650.0
30
0
11
-45650.0
21
236650.0
31
0
0
LINE
8
hvac
10
-46350.0
20
237350.0
30
0
11
-45650.0
21
237350.0
31
0
0
LINE
8
hvac
10
-42350.0
20
236650.0
30
0
11
-42350.0
21
237350.0
31
0
0
LINE
8
hvac
10
-41650.0
20
236650.0
30
0
11
-41650.0
21
237350.0
31
0
0
LINE
8
hvac
10
-42350.0
20
236650.0
30
0
11
-41650.0
21
236650.0
31
0
0
LINE
8
hvac
10
-42350.0
20
237350.0
30
0
11
-41650.0
21
237350.0
31
0
0
LINE
8
sensors
10
-48960.0
20
231320.0
30
0
11
-48960.0
21
231480.0
31
0
0
LINE
8
sensors
10
-48860.0
20
231320.0
30
0
11
-48860.0
21
231480.0
31
0
0
LINE
8
sensors
10
-48960.0
20
231320.0
30
0
11
-48860.0
21
231320.0
31
0
0
LINE
8
sensors
10
-48960.0
20
231480.0
30
0
11
-48860.0
21
231480.0
31
0
0
LINE
8
sensors
10
-48855.0
20
231345.0
30
0
11
-48855.0
21
231455.0
31
0
0
LINE
8
sensors
10
-48835.0
20
231345.0
30
0
11
-48835.0
21
231455.0
31
0
0
LINE
8
sensors
10
-48855.0
20
231345.0
30
0
11
-48835.0
21
231345.0
31
0
0
LINE
8
sensors
10
-48855.0
20
231455.0
30
0
11
-48835.0
21
231455.0
31
0
0
LINE
8
sensors
10
-48960.0
20
231620.0
30
0
11
-48960.0
21
231780.0
31
0
0
LINE
8
sensors
10
-48860.0
20
231620.0
30
0
11
-48860.0
21
231780.0
31
0
0
LINE
8
sensors
10
-48960.0
20
231620.0
30
0
11
-48860.0
21
231620.0
31
0
0
LINE
8
sensors
10
-48960.0
20
231780.0
30
0
11
-48860.0
21
231780.0
31
0
0
LINE
8
sensors
10
-48855.0
20
231645.0
30
0
11
-48855.0
21
231755.0
31
0
0
LINE
8
sensors
10
-48835.0
20
231645.0
30
0
11
-48835.0
21
231755.0
31
0
0
LINE
8
sensors
10
-48855.0
20
231645.0
30
0
11
-48835.0
21
231645.0
31
0
0
LINE
8
sensors
10
-48855.0
20
231755.0
30
0
11
-48835.0
21
231755.0
31
0
0
LINE
8
sensors
10
-48960.0
20
231920.0
30
0
11
-48960.0
21
232080.0
31
0
0
LINE
8
sensors
10
-48860.0
20
231920.0
30
0
11
-48860.0
21
232080.0
31
0
0
LINE
8
sensors
10
-48960.0
20
231920.0
30
0
11
-48860.0
21
231920.0
31
0
0
LINE
8
sensors
10
-48960.0
20
232080.0
30
0
11
-48860.0
21
232080.0
31
0
0
LINE
8
sensors
10
-48855.0
20
231945.0
30
0
11
-48855.0
21
232055.0
31
0
0
LINE
8
sensors
10
-48835.0
20
231945.0
30
0
11
-48835.0
21
232055.0
31
0
0
LINE
8
sensors
10
-48855.0
20
231945.0
30
0
11
-48835.0
21
231945.0
31
0
0
LINE
8
sensors
10
-48855.0
20
232055.0
30
0
11
-48835.0
21
232055.0
31
0
0
LINE
8
sensors
10
-43920.0
20
237000.0
30
0
11
-44000.0
21
237080.0
31
0
0
LINE
8
sensors
10
-44000.0
20
237080.0
30
0
11
-44080.0
21
237000.0
31
0
0
LINE
8
sensors
10
-44080.0
20
237000.0
30
0
11
-44000.0
21
236920.0
31
0
0
LINE
8
sensors
10
-44000.0
20
236920.0
30
0
11
-43920.0
21
237000.0
31
0
0
LINE
8
sensors
10
-44000.0
20
237000.0
30
0
11
-43935.0
21
237000.0
31
0
0
LINE
8
sensors
10
-43935.0
20
237000.0
30
0
11
-44000.0
21
237000.0
31
0
0
LINE
8
sensors
10
-48960.0
20
232520.0
30
0
11
-48960.0
21
232680.0
31
0
0
LINE
8
sensors
10
-48860.0
20
232520.0
30
0
11
-48860.0
21
232680.0
31
0
0
LINE
8
sensors
10
-48960.0
20
232520.0
30
0
11
-48860.0
21
232520.0
31
0
0
LINE
8
sensors
10
-48960.0
20
232680.0
30
0
11
-48860.0
21
232680.0
31
0
0
LINE
8
sensors
10
-48855.0
20
232545.0
30
0
11
-48855.0
21
232655.0
31
0
0
LINE
8
sensors
10
-48835.0
20
232545.0
30
0
11
-48835.0
21
232655.0
31
0
0
LINE
8
sensors
10
-48855.0
20
232545.0
30
0
11
-48835.0
21
232545.0
31
0
0
LINE
8
sensors
10
-48855.0
20
232655.0
30
0
11
-48835.0
21
232655.0
31
0
0
ENDSEC
0
EOF
