0
SECTION
2
HEADER
9
$ACADVER
1
AC1015
9
$INSUNITS
70
4
0
ENDSEC
0
SECTION
2
ENTITIES
0
LINE
8
interiors
10
-10000.0
20
225000.0
30
0
11
-10000.0
21
249000.0
31
0
0
LINE
8
interiors
10
-10000.0
20
225000.0
30
0
11
-1200.0
21
225000.0
31
0
0
LINE
8
interiors
10
-1200.0
20
225000.0
30
0
11
1200.0
21
225000.0
31
0
0
LINE
8
interiors
10
1200.0
20
225000.0
30
0
11
10000.0
21
225000.0
31
0
0
LINE
8
interiors
10
-10000.0
20
225000.0
30
0
11
10000.0
21
225000.0
31
0
0
LINE
8
interiors
10
-10000.0
20
249000.0
30
0
11
10000.0
21
249000.0
31
0
0
LINE
8
interiors
10
10000.0
20
225000.0
30
0
11
10000.0
21
249000.0
31
0
0
LINE
8
interiors
10
9880.0
20
225120.0
30
0
11
-9880.0
21
225120.0
31
0
0
LINE
8
interiors
10
9880.0
20
225120.0
30
0
11
9880.0
21
248880.0
31
0
0
LINE
8
interiors
10
9880.0
20
248880.0
30
0
11
-9880.0
21
248880.0
31
0
0
LINE
8
interiors
10
-9880.0
20
225120.0
30
0
11
-9880.0
21
248880.0
31
0
0
LINE
8
interiors
10
-5200.0
20
249000.0
30
0
11
5200.0
21
249000.0
31
0
0
LINE
8
interiors
10
1200.0
20
225000.0
30
0
11
1200.0
21
225120.0
31
0
0
LINE
8
interiors
10
9880.0
20
225120.0
30
0
11
1200.0
21
225120.0
31
0
0
LINE
8
interiors
10
-1200.0
20
225120.0
30
0
11
-9880.0
21
225120.0
31
0
0
LINE
8
interiors
10
-1200.0
20
225000.0
30
0
11
-1200.0
21
225120.0
31
0
0
LINE
8
interiors
10
-1200.0
20
225120.0
30
0
11
1200.0
21
225120.0
31
0
0
LINE
8
interiors
10
-5200.0
20
248880.0
30
0
11
5200.0
21
248880.0
31
0
0
LINE
8
interiors
10
-5200.0
20
248880.0
30
0
11
-5200.0
21
249000.0
31
0
0
LINE
8
interiors
10
5200.0
20
248880.0
30
0
11
5200.0
21
249000.0
31
0
0
LINE
8
interiors
10
-5200.0
20
248977.5
30
0
11
-5200.0
21
249022.5
31
0
0
LINE
8
interiors
10
5200.0
20
248977.5
30
0
11
5200.0
21
249022.5
31
0
0
LINE
8
interiors
10
-5200.0
20
248977.5
30
0
11
5200.0
21
248977.5
31
0
0
LINE
8
interiors
10
-5200.0
20
249022.5
30
0
11
5200.0
21
249022.5
31
0
0
LINE
8
interiors
10
-9875.0
20
225125.0
30
0
11
-9875.0
21
248875.0
31
0
0
LINE
8
interiors
10
9875.0
20
225125.0
30
0
11
9875.0
21
248875.0
31
0
0
LINE
8
interiors
10
-9875.0
20
225125.0
30
0
11
9875.0
21
225125.0
31
0
0
LINE
8
interiors
10
-9875.0
20
248875.0
30
0
11
9875.0
21
248875.0
31
0
0
LINE
8
interiors
10
-1155.0
20
224880.0
30
0
11
-1155.0
21
225120.0
31
0
0
LINE
8
interiors
10
-1085.0
20
224880.0
30
0
11
-1085.0
21
225120.0
31
0
0
LINE
8
interiors
10
-1155.0
20
224880.0
30
0
11
-1085.0
21
224880.0
31
0
0
LINE
8
interiors
10
-1155.0
20
225120.0
30
0
11
-1085.0
21
225120.0
31
0
0
LINE
8
interiors
10
1085.0
20
224880.0
30
0
11
1085.0
21
225120.0
31
0
0
LINE
8
interiors
10
1155.0
20
224880.0
30
0
11
1155.0
21
225120.0
31
0
0
LINE
8
interiors
10
1085.0
20
224880.0
30
0
11
1155.0
21
224880.0
31
0
0
LINE
8
interiors
10
1085.0
20
225120.0
30
0
11
1155.0
21
225120.0
31
0
0
LINE
8
interiors
10
-1150.0
20
224880.0
30
0
11
-1150.0
21
225120.0
31
0
0
LINE
8
interiors
10
1150.0
20
224880.0
30
0
11
1150.0
21
225120.0
31
0
0
LINE
8
interiors
10
-1150.0
20
224880.0
30
0
11
1150.0
21
224880.0
31
0
0
LINE
8
interiors
10
-1150.0
20
225120.0
30
0
11
1150.0
21
225120.0
31
0
0
LINE
8
interiors
10
-1069.61
20
225090.49
30
0
11
-1110.39
21
225109.51
31
0
0
LINE
8
interiors
10
-613.18
20
226069.3
30
0
11
-653.96
21
226088.32
31
0
0
LINE
8
interiors
10
-1069.61
20
225090.49
30
0
11
-613.18
21
226069.3
31
0
0
LINE
8
interiors
10
-1110.39
20
225109.51
30
0
11
-653.96
21
226088.32
31
0
0
LINE
8
interiors
10
-5200.0
20
230440.0
30
0
11
-5200.0
21
232040.0
31
0
0
LINE
8
interiors
10
-3600.0
20
230440.0
30
0
11
-3600.0
21
232040.0
31
0
0
LINE
8
interiors
10
-5200.0
20
230440.0
30
0
11
-3600.0
21
230440.0
31
0
0
LINE
8
interiors
10
-5200.0
20
232040.0
30
0
11
-3600.0
21
232040.0
31
0
0
LINE
8
interiors
10
-3980.0
20
231240.0
30
0
11
-4060.21
21
231486.87
31
0
0
LINE
8
interiors
10
-4060.21
20
231486.87
30
0
11
-4270.21
21
231639.44
31
0
0
LINE
8
interiors
10
-4270.21
20
231639.44
30
0
11
-4529.79
21
231639.44
31
0
0
LINE
8
interiors
10
-4529.79
20
231639.44
30
0
11
-4739.79
21
231486.87
31
0
0
LINE
8
interiors
10
-4739.79
20
231486.87
30
0
11
-4820.0
21
231240.0
31
0
0
LINE
8
interiors
10
-4820.0
20
231240.0
30
0
11
-4739.79
21
230993.13
31
0
0
LINE
8
interiors
10
-4739.79
20
230993.13
30
0
11
-4529.79
21
230840.56
31
0
0
LINE
8
interiors
10
-4529.79
20
230840.56
30
0
11
-4270.21
21
230840.56
31
0
0
LINE
8
interiors
10
-4270.21
20
230840.56
30
0
11
-4060.21
21
230993.13
31
0
0
LINE
8
interiors
10
-4060.21
20
230993.13
30
0
11
-3980.0
21
231240.0
31
0
0
LINE
8
interiors
10
3600.0
20
230440.0
30
0
11
3600.0
21
232040.0
31
0
0
LINE
8
interiors
10
5200.0
20
230440.0
30
0
11
5200.0
21
232040.0
31
0
0
LINE
8
interiors
10
3600.0
20
230440.0
30
0
11
5200.0
21
230440.0
31
0
0
LINE
8
interiors
10
3600.0
20
232040.0
30
0
11
5200.0
21
232040.0
31
0
0
LINE
8
interiors
10
4820.0
20
231240.0
30
0
11
4739.79
21
231486.87
31
0
0
LINE
8
interiors
10
4739.79
20
231486.87
30
0
11
4529.79
21
231639.44
31
0
0
LINE
8
interiors
10
4529.79
20
231639.44
30
0
11
4270.21
21
231639.44
31
0
0
LINE
8
interiors
10
4270.21
20
231639.44
30
0
11
4060.21
21
231486.87
31
0
0
LINE
8
interiors
10
4060.21
20
231486.87
30
0
11
3980.0
21
231240.0
31
0
0
LINE
8
interiors
10
3980.0
20
231240.0
30
0
11
4060.21
21
230993.13
31
0
0
LINE
8
interiors
10
4060.21
20
230993.13
30
0
11
4270.21
21
230840.56
31
0
0
LINE
8
interiors
10
4270.21
20
230840.56
30
0
11
4529.79
21
230840.56
31
0
0
LINE
8
interiors
10
4529.79
20
230840.56
30
0
11
4739.79
21
230993.13
31
0
0
LINE
8
interiors
10
4739.79
20
230993.13
30
0
11
4820.0
21
231240.0
31
0
0
LINE
8
interiors
10
-5200.0
20
241960.0
30
0
11
-5200.0
21
243560.0
31
0
0
LINE
8
interiors
10
-3600.0
20
241960.0
30
0
11
-3600.0
21
243560.0
31
0
0
LINE
8
interiors
10
-5200.0
20
241960.0
30
0
11
-3600.0
21
241960.0
31
0
0
LINE
8
interiors
10
-5200.0
20
243560.0
30
0
11
-3600.0
21
243560.0
31
0
0
LINE
8
interiors
10
-3980.0
20
242760.0
30
0
11
-4060.21
21
243006.87
31
0
0
LINE
8
interiors
10
-4060.21
20
243006.87
30
0
11
-4270.21
21
243159.44
31
0
0
LINE
8
interiors
10
-4270.21
20
243159.44
30
0
11
-4529.79
21
243159.44
31
0
0
LINE
8
interiors
10
-4529.79
20
243159.44
30
0
11
-4739.79
21
243006.87
31
0
0
LINE
8
interiors
10
-4739.79
20
243006.87
30
0
11
-4820.0
21
242760.0
31
0
0
LINE
8
interiors
10
-4820.0
20
242760.0
30
0
11
-4739.79
21
242513.13
31
0
0
LINE
8
interiors
10
-4739.79
20
242513.13
30
0
11
-4529.79
21
242360.56
31
0
0
LINE
8
interiors
10
-4529.79
20
242360.56
30
0
11
-4270.21
21
242360.56
31
0
0
LINE
8
interiors
10
-4270.21
20
242360.56
30
0
11
-4060.21
21
242513.13
31
0
0
LINE
8
interiors
10
-4060.21
20
242513.13
30
0
11
-3980.0
21
242760.0
31
0
0
LINE
8
interiors
10
3600.0
20
241960.0
30
0
11
3600.0
21
243560.0
31
0
0
LINE
8
interiors
10
5200.0
20
241960.0
30
0
11
5200.0
21
243560.0
31
0
0
LINE
8
interiors
10
3600.0
20
241960.0
30
0
11
5200.0
21
241960.0
31
0
0
LINE
8
interiors
10
3600.0
20
243560.0
30
0
11
5200.0
21
243560.0
31
0
0
LINE
8
interiors
10
4820.0
20
242760.0
30
0
11
4739.79
21
243006.87
31
0
0
LINE
8
interiors
10
4739.79
20
243006.87
30
0
11
4529.79
21
243159.44
31
0
0
LINE
8
interiors
10
4529.79
20
243159.44
30
0
11
4270.21
21
243159.44
31
0
0
LINE
8
interiors
10
4270.21
20
243159.44
30
0
11
4060.21
21
243006.87
31
0
0
LINE
8
interiors
10
4060.21
20
243006.87
30
0
11
3980.0
21
242760.0
31
0
0
LINE
8
interiors
10
3980.0
20
242760.0
30
0
11
4060.21
21
242513.13
31
0
0
LINE
8
interiors
10
4060.21
20
242513.13
30
0
11
4270.21
21
242360.56
31
0
0
LINE
8
interiors
10
4270.21
20
242360.56
30
0
11
4529.79
21
242360.56
31
0
0
LINE
8
interiors
10
4529.79
20
242360.56
30
0
11
4739.79
21
242513.13
31
0
0
LINE
8
interiors
10
4739.79
20
242513.13
30
0
11
4820.0
21
242760.0
31
0
0
LINE
8
electrical
10
9275.0
20
225075.0
30
0
11
9275.0
21
225325.0
31
0
0
LINE
8
electrical
10
9825.0
20
225075.0
30
0
11
9825.0
21
225325.0
31
0
0
LINE
8
electrical
10
9275.0
20
225075.0
30
0
11
9825.0
21
225075.0
31
0
0
LINE
8
electrical
10
9275.0
20
225325.0
30
0
11
9825.0
21
225325.0
31
0
0
LINE
8
electrical
10
9315.0
20
225047.5
30
0
11
9315.0
21
225082.5
31
0
0
LINE
8
electrical
10
9785.0
20
225047.5
30
0
11
9785.0
21
225082.5
31
0
0
LINE
8
electrical
10
9315.0
20
225047.5
30
0
11
9785.0
21
225047.5
31
0
0
LINE
8
electrical
10
9315.0
20
225082.5
30
0
11
9785.0
21
225082.5
31
0
0
LINE
8
electrical
10
9362.5
20
225010.0
30
0
11
9362.5
21
225050.0
31
0
0
LINE
8
electrical
10
9462.5
20
225010.0
30
0
11
9462.5
21
225050.0
31
0
0
LINE
8
electrical
10
9362.5
20
225010.0
30
0
11
9462.5
21
225010.0
31
0
0
LINE
8
electrical
10
9362.5
20
225050.0
30
0
11
9462.5
21
225050.0
31
0
0
LINE
8
electrical
10
9500.0
20
225010.0
30
0
11
9500.0
21
225050.0
31
0
0
LINE
8
electrical
10
9600.0
20
225010.0
30
0
11
9600.0
21
225050.0
31
0
0
LINE
8
electrical
10
9500.0
20
225010.0
30
0
11
9600.0
21
225010.0
31
0
0
LINE
8
electrical
10
9500.0
20
225050.0
30
0
11
9600.0
21
225050.0
31
0
0
LINE
8
electrical
10
9637.5
20
225010.0
30
0
11
9637.5
21
225050.0
31
0
0
LINE
8
electrical
10
9737.5
20
225010.0
30
0
11
9737.5
21
225050.0
31
0
0
LINE
8
electrical
10
9637.5
20
225010.0
30
0
11
9737.5
21
225010.0
31
0
0
LINE
8
electrical
10
9637.5
20
225050.0
30
0
11
9737.5
21
225050.0
31
0
0
LINE
8
electrical
10
9412.5
20
224995.0
30
0
11
9435.88
21
224995.0
31
0
0
LINE
8
electrical
10
9435.88
20
224995.0
30
0
11
9389.12
21
224995.0
31
0
0
LINE
8
electrical
10
9389.12
20
224995.0
30
0
11
9412.5
21
224995.0
31
0
0
LINE
8
electrical
10
9412.5
20
225020.0
30
0
11
9412.5
21
224995.0
31
0
0
LINE
8
electrical
10
9412.5
20
225020.0
30
0
11
9435.88
21
225020.0
31
0
0
LINE
8
electrical
10
9435.88
20
225020.0
30
0
11
9389.12
21
225020.0
31
0
0
LINE
8
electrical
10
9389.12
20
225020.0
30
0
11
9412.5
21
225020.0
31
0
0
LINE
8
electrical
10
9550.0
20
224995.0
30
0
11
9573.38
21
224995.0
31
0
0
LINE
8
electrical
10
9573.38
20
224995.0
30
0
11
9526.62
21
224995.0
31
0
0
LINE
8
electrical
10
9526.62
20
224995.0
30
0
11
9550.0
21
224995.0
31
0
0
LINE
8
electrical
10
9550.0
20
225020.0
30
0
11
9550.0
21
224995.0
31
0
0
LINE
8
electrical
10
9550.0
20
225020.0
30
0
11
9573.38
21
225020.0
31
0
0
LINE
8
electrical
10
9573.38
20
225020.0
30
0
11
9526.62
21
225020.0
31
0
0
LINE
8
electrical
10
9526.62
20
225020.0
30
0
11
9550.0
21
225020.0
31
0
0
LINE
8
electrical
10
9687.5
20
224995.0
30
0
11
9710.88
21
224995.0
31
0
0
LINE
8
electrical
10
9710.88
20
224995.0
30
0
11
9664.12
21
224995.0
31
0
0
LINE
8
electrical
10
9664.12
20
224995.0
30
0
11
9687.5
21
224995.0
31
0
0
LINE
8
electrical
10
9687.5
20
225020.0
30
0
11
9687.5
21
224995.0
31
0
0
LINE
8
electrical
10
9687.5
20
225020.0
30
0
11
9710.88
21
225020.0
31
0
0
LINE
8
electrical
10
9710.88
20
225020.0
30
0
11
9664.12
21
225020.0
31
0
0
LINE
8
electrical
10
9664.12
20
225020.0
30
0
11
9687.5
21
225020.0
31
0
0
LINE
8
electrical
10
9550.0
20
225200.0
30
0
11
9565.59
21
225200.0
31
0
0
LINE
8
electrical
10
9565.59
20
225200.0
30
0
11
9534.41
21
225200.0
31
0
0
LINE
8
electrical
10
9534.41
20
225200.0
30
0
11
9550.0
21
225200.0
31
0
0
LINE
8
electrical
10
9550.0
20
220200.0
30
0
11
9550.0
21
225200.0
31
0
0
LINE
8
electrical
10
9550.0
20
220200.0
30
0
11
9565.59
21
220200.0
31
0
0
LINE
8
electrical
10
9565.59
20
220200.0
30
0
11
9534.41
21
220200.0
31
0
0
LINE
8
electrical
10
9534.41
20
220200.0
30
0
11
9550.0
21
220200.0
31
0
0
LINE
8
electrical
10
9532.0
20
225200.0
30
0
11
9559.0
21
225215.59
31
0
0
LINE
8
electrical
10
9559.0
20
225215.59
30
0
11
9559.0
21
225184.41
31
0
0
LINE
8
electrical
10
9559.0
20
225184.41
30
0
11
9532.0
21
225200.0
31
0
0
LINE
8
electrical
10
9550.0
20
225200.0
30
0
11
9569.44
21
225200.0
31
0
0
LINE
8
electrical
10
9569.44
20
225200.0
30
0
11
9550.0
21
225200.0
31
0
0
LINE
8
lighting
10
-8100.0
20
228812.5
30
0
11
-8100.0
21
228867.5
31
0
0
LINE
8
lighting
10
-6300.0
20
228812.5
30
0
11
-6300.0
21
228867.5
31
0
0
LINE
8
lighting
10
-8100.0
20
228812.5
30
0
11
-6300.0
21
228812.5
31
0
0
LINE
8
lighting
10
-8100.0
20
228867.5
30
0
11
-6300.0
21
228867.5
31
0
0
LINE
8
lighting
10
-7750.0
20
229090.0
30
0
11
-7664.4
21
229090.0
31
0
0
LINE
8
lighting
10
-7664.4
20
229090.0
30
0
11
-7697.1
21
229090.0
31
0
0
LINE
8
lighting
10
-7697.1
20
229090.0
30
0
11
-7802.9
21
229090.0
31
0
0
LINE
8
lighting
10
-7802.9
20
229090.0
30
0
11
-7835.6
21
229090.0
31
0
0
LINE
8
lighting
10
-7835.6
20
229090.0
30
0
11
-7750.0
21
229090.0
31
0
0
LINE
8
lighting
10
-7750.0
20
228840.0
30
0
11
-7750.0
21
229090.0
31
0
0
LINE
8
lighting
10
-7750.0
20
228840.0
30
0
11
-7664.4
21
228840.0
31
0
0
LINE
8
lighting
10
-7664.4
20
228840.0
30
0
11
-7697.1
21
228840.0
31
0
0
LINE
8
lighting
10
-7697.1
20
228840.0
30
0
11
-7802.9
21
228840.0
31
0
0
LINE
8
lighting
10
-7802.9
20
228840.0
30
0
11
-7835.6
21
228840.0
31
0
0
LINE
8
lighting
10
-7835.6
20
228840.0
30
0
11
-7750.0
21
228840.0
31
0
0
LINE
8
lighting
10
-6650.0
20
228590.0
30
0
11
-6564.4
21
228590.0
31
0
0
LINE
8
lighting
10
-6564.4
20
228590.0
30
0
11
-6597.1
21
228590.0
31
0
0
LINE
8
lighting
10
-6597.1
20
228590.0
30
0
11
-6702.9
21
228590.0
31
0
0
LINE
8
lighting
10
-6702.9
20
228590.0
30
0
11
-6735.6
21
228590.0
31
0
0
LINE
8
lighting
10
-6735.6
20
228590.0
30
0
11
-6650.0
21
228590.0
31
0
0
LINE
8
lighting
10
-6650.0
20
228840.0
30
0
11
-6650.0
21
228590.0
31
0
0
LINE
8
lighting
10
-6650.0
20
228840.0
30
0
11
-6564.4
21
228840.0
31
0
0
LINE
8
lighting
10
-6564.4
20
228840.0
30
0
11
-6597.1
21
228840.0
31
0
0
LINE
8
lighting
10
-6597.1
20
228840.0
30
0
11
-6702.9
21
228840.0
31
0
0
LINE
8
lighting
10
-6702.9
20
228840.0
30
0
11
-6735.6
21
228840.0
31
0
0
LINE
8
lighting
10
-6735.6
20
228840.0
30
0
11
-6650.0
21
228840.0
31
0
0
LINE
8
lighting
10
-7191.0
20
228840.0
30
0
11
-7204.5
21
228847.79
31
0
0
LINE
8
lighting
10
-7204.5
20
228847.79
30
0
11
-7204.5
21
228832.21
31
0
0
LINE
8
lighting
10
-7204.5
20
228832.21
30
0
11
-7191.0
21
228840.0
31
0
0
LINE
8
lighting
10
-8100.0
20
245132.5
30
0
11
-8100.0
21
245187.5
31
0
0
LINE
8
lighting
10
-6300.0
20
245132.5
30
0
11
-6300.0
21
245187.5
31
0
0
LINE
8
lighting
10
-8100.0
20
245132.5
30
0
11
-6300.0
21
245132.5
31
0
0
LINE
8
lighting
10
-8100.0
20
245187.5
30
0
11
-6300.0
21
245187.5
31
0
0
LINE
8
lighting
10
-7750.0
20
245410.0
30
0
11
-7664.4
21
245410.0
31
0
0
LINE
8
lighting
10
-7664.4
20
245410.0
30
0
11
-7697.1
21
245410.0
31
0
0
LINE
8
lighting
10
-7697.1
20
245410.0
30
0
11
-7802.9
21
245410.0
31
0
0
LINE
8
lighting
10
-7802.9
20
245410.0
30
0
11
-7835.6
21
245410.0
31
0
0
LINE
8
lighting
10
-7835.6
20
245410.0
30
0
11
-7750.0
21
245410.0
31
0
0
LINE
8
lighting
10
-7750.0
20
245160.0
30
0
11
-7750.0
21
245410.0
31
0
0
LINE
8
lighting
10
-7750.0
20
245160.0
30
0
11
-7664.4
21
245160.0
31
0
0
LINE
8
lighting
10
-7664.4
20
245160.0
30
0
11
-7697.1
21
245160.0
31
0
0
LINE
8
lighting
10
-7697.1
20
245160.0
30
0
11
-7802.9
21
245160.0
31
0
0
LINE
8
lighting
10
-7802.9
20
245160.0
30
0
11
-7835.6
21
245160.0
31
0
0
LINE
8
lighting
10
-7835.6
20
245160.0
30
0
11
-7750.0
21
245160.0
31
0
0
LINE
8
lighting
10
-6650.0
20
244910.0
30
0
11
-6564.4
21
244910.0
31
0
0
LINE
8
lighting
10
-6564.4
20
244910.0
30
0
11
-6597.1
21
244910.0
31
0
0
LINE
8
lighting
10
-6597.1
20
244910.0
30
0
11
-6702.9
21
244910.0
31
0
0
LINE
8
lighting
10
-6702.9
20
244910.0
30
0
11
-6735.6
21
244910.0
31
0
0
LINE
8
lighting
10
-6735.6
20
244910.0
30
0
11
-6650.0
21
244910.0
31
0
0
LINE
8
lighting
10
-6650.0
20
245160.0
30
0
11
-6650.0
21
244910.0
31
0
0
LINE
8
lighting
10
-6650.0
20
245160.0
30
0
11
-6564.4
21
245160.0
31
0
0
LINE
8
lighting
10
-6564.4
20
245160.0
30
0
11
-6597.1
21
245160.0
31
0
0
LINE
8
lighting
10
-6597.1
20
245160.0
30
0
11
-6702.9
21
245160.0
31
0
0
LINE
8
lighting
10
-6702.9
20
245160.0
30
0
11
-6735.6
21
245160.0
31
0
0
LINE
8
lighting
10
-6735.6
20
245160.0
30
0
11
-6650.0
21
245160.0
31
0
0
LINE
8
lighting
10
-7191.0
20
245160.0
30
0
11
-7204.5
21
245167.79
31
0
0
LINE
8
lighting
10
-7204.5
20
245167.79
30
0
11
-7204.5
21
245152.21
31
0
0
LINE
8
lighting
10
-7204.5
20
245152.21
30
0
11
-7191.0
21
245160.0
31
0
0
LINE
8
lighting
10
6300.0
20
228812.5
30
0
11
6300.0
21
228867.5
31
0
0
LINE
8
lighting
10
8100.0
20
228812.5
30
0
11
8100.0
21
228867.5
31
0
0
LINE
8
lighting
10
6300.0
20
228812.5
30
0
11
8100.0
21
228812.5
31
0
0
LINE
8
lighting
10
6300.0
20
228867.5
30
0
11
8100.0
21
228867.5
31
0
0
LINE
8
lighting
10
6650.0
20
229090.0
30
0
11
6735.6
21
229090.0
31
0
0
LINE
8
lighting
10
6735.6
20
229090.0
30
0
11
6702.9
21
229090.0
31
0
0
LINE
8
lighting
10
6702.9
20
229090.0
30
0
11
6597.1
21
229090.0
31
0
0
LINE
8
lighting
10
6597.1
20
229090.0
30
0
11
6564.4
21
229090.0
31
0
0
LINE
8
lighting
10
6564.4
20
229090.0
30
0
11
6650.0
21
229090.0
31
0
0
LINE
8
lighting
10
6650.0
20
228840.0
30
0
11
6650.0
21
229090.0
31
0
0
LINE
8
lighting
10
6650.0
20
228840.0
30
0
11
6735.6
21
228840.0
31
0
0
LINE
8
lighting
10
6735.6
20
228840.0
30
0
11
6702.9
21
228840.0
31
0
0
LINE
8
lighting
10
6702.9
20
228840.0
30
0
11
6597.1
21
228840.0
31
0
0
LINE
8
lighting
10
6597.1
20
228840.0
30
0
11
6564.4
21
228840.0
31
0
0
LINE
8
lighting
10
6564.4
20
228840.0
30
0
11
6650.0
21
228840.0
31
0
0
LINE
8
lighting
10
7750.0
20
228590.0
30
0
11
7835.6
21
228590.0
31
0
0
LINE
8
lighting
10
7835.6
20
228590.0
30
0
11
7802.9
21
228590.0
31
0
0
LINE
8
lighting
10
7802.9
20
228590.0
30
0
11
7697.1
21
228590.0
31
0
0
LINE
8
lighting
10
7697.1
20
228590.0
30
0
11
7664.4
21
228590.0
31
0
0
LINE
8
lighting
10
7664.4
20
228590.0
30
0
11
7750.0
21
228590.0
31
0
0
LINE
8
lighting
10
7750.0
20
228840.0
30
0
11
7750.0
21
228590.0
31
0
0
LINE
8
lighting
10
7750.0
20
228840.0
30
0
11
7835.6
21
228840.0
31
0
0
LINE
8
lighting
10
7835.6
20
228840.0
30
0
11
7802.9
21
228840.0
31
0
0
LINE
8
lighting
10
7802.9
20
228840.0
30
0
11
7697.1
21
228840.0
31
0
0
LINE
8
lighting
10
7697.1
20
228840.0
30
0
11
7664.4
21
228840.0
31
0
0
LINE
8
lighting
10
7664.4
20
228840.0
30
0
11
7750.0
21
228840.0
31
0
0
LINE
8
lighting
10
7209.0
20
228840.0
30
0
11
7195.5
21
228847.79
31
0
0
LINE
8
lighting
10
7195.5
20
228847.79
30
0
11
7195.5
21
228832.21
31
0
0
LINE
8
lighting
10
7195.5
20
228832.21
30
0
11
7209.0
21
228840.0
31
0
0
LINE
8
lighting
10
6300.0
20
245132.5
30
0
11
6300.0
21
245187.5
31
0
0
LINE
8
lighting
10
8100.0
20
245132.5
30
0
11
8100.0
21
245187.5
31
0
0
LINE
8
lighting
10
6300.0
20
245132.5
30
0
11
8100.0
21
245132.5
31
0
0
LINE
8
lighting
10
6300.0
20
245187.5
30
0
11
8100.0
21
245187.5
31
0
0
LINE
8
lighting
10
6650.0
20
245410.0
30
0
11
6735.6
21
245410.0
31
0
0
LINE
8
lighting
10
6735.6
20
245410.0
30
0
11
6702.9
21
245410.0
31
0
0
LINE
8
lighting
10
6702.9
20
245410.0
30
0
11
6597.1
21
245410.0
31
0
0
LINE
8
lighting
10
6597.1
20
245410.0
30
0
11
6564.4
21
245410.0
31
0
0
LINE
8
lighting
10
6564.4
20
245410.0
30
0
11
6650.0
21
245410.0
31
0
0
LINE
8
lighting
10
6650.0
20
245160.0
30
0
11
6650.0
21
245410.0
31
0
0
LINE
8
lighting
10
6650.0
20
245160.0
30
0
11
6735.6
21
245160.0
31
0
0
LINE
8
lighting
10
6735.6
20
245160.0
30
0
11
6702.9
21
245160.0
31
0
0
LINE
8
lighting
10
6702.9
20
245160.0
30
0
11
6597.1
21
245160.0
31
0
0
LINE
8
lighting
10
6597.1
20
245160.0
30
0
11
6564.4
21
245160.0
31
0
0
LINE
8
lighting
10
6564.4
20
245160.0
30
0
11
6650.0
21
245160.0
31
0
0
LINE
8
lighting
10
7750.0
20
244910.0
30
0
11
7835.6
21
244910.0
31
0
0
LINE
8
lighting
10
7835.6
20
244910.0
30
0
11
7802.9
21
244910.0
31
0
0
LINE
8
lighting
10
7802.9
20
244910.0
30
0
11
7697.1
21
244910.0
31
0
0
LINE
8
lighting
10
7697.1
20
244910.0
30
0
11
7664.4
21
244910.0
31
0
0
LINE
8
lighting
10
7664.4
20
244910.0
30
0
11
7750.0
21
244910.0
31
0
0
LINE
8
lighting
10
7750.0
20
245160.0
30
0
11
7750.0
21
244910.0
31
0
0
LINE
8
lighting
10
7750.0
20
245160.0
30
0
11
7835.6
21
245160.0
31
0
0
LINE
8
lighting
10
7835.6
20
245160.0
30
0
11
7802.9
21
245160.0
31
0
0
LINE
8
lighting
10
7802.9
20
245160.0
30
0
11
7697.1
21
245160.0
31
0
0
LINE
8
lighting
10
7697.1
20
245160.0
30
0
11
7664.4
21
245160.0
31
0
0
LINE
8
lighting
10
7664.4
20
245160.0
30
0
11
7750.0
21
245160.0
31
0
0
LINE
8
lighting
10
7209.0
20
245160.0
30
0
11
7195.5
21
245167.79
31
0
0
LINE
8
lighting
10
7195.5
20
245167.79
30
0
11
7195.5
21
245152.21
31
0
0
LINE
8
lighting
10
7195.5
20
245152.21
30
0
11
7209.0
21
245160.0
31
0
0
LINE
8
lighting
10
-8100.0
20
236972.5
30
0
11
-8100.0
21
237027.5
31
0
0
LINE
8
lighting
10
-6300.0
20
236972.5
30
0
11
-6300.0
21
237027.5
31
0
0
LINE
8
lighting
10
-8100.0
20
236972.5
30
0
11
-6300.0
21
236972.5
31
0
0
LINE
8
lighting
10
-8100.0
20
237027.5
30
0
11
-6300.0
21
237027.5
31
0
0
LINE
8
lighting
10
-7750.0
20
237250.0
30
0
11
-7664.4
21
237250.0
31
0
0
LINE
8
lighting
10
-7664.4
20
237250.0
30
0
11
-7697.1
21
237250.0
31
0
0
LINE
8
lighting
10
-7697.1
20
237250.0
30
0
11
-7802.9
21
237250.0
31
0
0
LINE
8
lighting
10
-7802.9
20
237250.0
30
0
11
-7835.6
21
237250.0
31
0
0
LINE
8
lighting
10
-7835.6
20
237250.0
30
0
11
-7750.0
21
237250.0
31
0
0
LINE
8
lighting
10
-7750.0
20
237000.0
30
0
11
-7750.0
21
237250.0
31
0
0
LINE
8
lighting
10
-7750.0
20
237000.0
30
0
11
-7664.4
21
237000.0
31
0
0
LINE
8
lighting
10
-7664.4
20
237000.0
30
0
11
-7697.1
21
237000.0
31
0
0
LINE
8
lighting
10
-7697.1
20
237000.0
30
0
11
-7802.9
21
237000.0
31
0
0
LINE
8
lighting
10
-7802.9
20
237000.0
30
0
11
-7835.6
21
237000.0
31
0
0
LINE
8
lighting
10
-7835.6
20
237000.0
30
0
11
-7750.0
21
237000.0
31
0
0
LINE
8
lighting
10
-6650.0
20
236750.0
30
0
11
-6564.4
21
236750.0
31
0
0
LINE
8
lighting
10
-6564.4
20
236750.0
30
0
11
-6597.1
21
236750.0
31
0
0
LINE
8
lighting
10
-6597.1
20
236750.0
30
0
11
-6702.9
21
236750.0
31
0
0
LINE
8
lighting
10
-6702.9
20
236750.0
30
0
11
-6735.6
21
236750.0
31
0
0
LINE
8
lighting
10
-6735.6
20
236750.0
30
0
11
-6650.0
21
236750.0
31
0
0
LINE
8
lighting
10
-6650.0
20
237000.0
30
0
11
-6650.0
21
236750.0
31
0
0
LINE
8
lighting
10
-6650.0
20
237000.0
30
0
11
-6564.4
21
237000.0
31
0
0
LINE
8
lighting
10
-6564.4
20
237000.0
30
0
11
-6597.1
21
237000.0
31
0
0
LINE
8
lighting
10
-6597.1
20
237000.0
30
0
11
-6702.9
21
237000.0
31
0
0
LINE
8
lighting
10
-6702.9
20
237000.0
30
0
11
-6735.6
21
237000.0
31
0
0
LINE
8
lighting
10
-6735.6
20
237000.0
30
0
11
-6650.0
21
237000.0
31
0
0
LINE
8
lighting
10
-7191.0
20
237000.0
30
0
11
-7204.5
21
237007.79
31
0
0
LINE
8
lighting
10
-7204.5
20
237007.79
30
0
11
-7204.5
21
236992.21
31
0
0
LINE
8
lighting
10
-7204.5
20
236992.21
30
0
11
-7191.0
21
237000.0
31
0
0
LINE
8
lighting
10
6300.0
20
236972.5
30
0
11
6300.0
21
237027.5
31
0
0
LINE
8
lighting
10
8100.0
20
236972.5
30
0
11
8100.0
21
237027.5
31
0
0
LINE
8
lighting
10
6300.0
20
236972.5
30
0
11
8100.0
21
236972.5
31
0
0
LINE
8
lighting
10
6300.0
20
237027.5
30
0
11
8100.0
21
237027.5
31
0
0
LINE
8
lighting
10
6650.0
20
237250.0
30
0
11
6735.6
21
237250.0
31
0
0
LINE
8
lighting
10
6735.6
20
237250.0
30
0
11
6702.9
21
237250.0
31
0
0
LINE
8
lighting
10
6702.9
20
237250.0
30
0
11
6597.1
21
237250.0
31
0
0
LINE
8
lighting
10
6597.1
20
237250.0
30
0
11
6564.4
21
237250.0
31
0
0
LINE
8
lighting
10
6564.4
20
237250.0
30
0
11
6650.0
21
237250.0
31
0
0
LINE
8
lighting
10
6650.0
20
237000.0
30
0
11
6650.0
21
237250.0
31
0
0
LINE
8
lighting
10
6650.0
20
237000.0
30
0
11
6735.6
21
237000.0
31
0
0
LINE
8
lighting
10
6735.6
20
237000.0
30
0
11
6702.9
21
237000.0
31
0
0
LINE
8
lighting
10
6702.9
20
237000.0
30
0
11
6597.1
21
237000.0
31
0
0
LINE
8
lighting
10
6597.1
20
237000.0
30
0
11
6564.4
21
237000.0
31
0
0
LINE
8
lighting
10
6564.4
20
237000.0
30
0
11
6650.0
21
237000.0
31
0
0
LINE
8
lighting
10
7750.0
20
236750.0
30
0
11
7835.6
21
236750.0
31
0
0
LINE
8
lighting
10
7835.6
20
236750.0
30
0
11
7802.9
21
236750.0
31
0
0
LINE
8
lighting
10
7802.9
20
236750.0
30
0
11
7697.1
21
236750.0
31
0
0
LINE
8
lighting
10
7697.1
20
236750.0
30
0
11
7664.4
21
236750.0
31
0
0
LINE
8
lighting
10
7664.4
20
236750.0
30
0
11
7750.0
21
236750.0
31
0
0
LINE
8
lighting
10
7750.0
20
237000.0
30
0
11
7750.0
21
236750.0
31
0
0
LINE
8
lighting
10
7750.0
20
237000.0
30
0
11
7835.6
21
237000.0
31
0
0
LINE
8
lighting
10
7835.6
20
237000.0
30
0
11
7802.9
21
237000.0
31
0
0
LINE
8
lighting
10
7802.9
20
237000.0
30
0
11
7697.1
21
237000.0
31
0
0
LINE
8
lighting
10
7697.1
20
237000.0
30
0
11
7664.4
21
237000.0
31
0
0
LINE
8
lighting
10
7664.4
20
237000.0
30
0
11
7750.0
21
237000.0
31
0
0
LINE
8
lighting
10
7209.0
20
237000.0
30
0
11
7195.5
21
237007.79
31
0
0
LINE
8
lighting
10
7195.5
20
237007.79
30
0
11
7195.5
21
236992.21
31
0
0
LINE
8
lighting
10
7195.5
20
236992.21
30
0
11
7209.0
21
237000.0
31
0
0
LINE
8
electrical
10
-7200.0
20
228480.0
30
0
11
-7200.0
21
228472.21
31
0
0
LINE
8
electrical
10
-7200.0
20
228472.21
30
0
11
-7200.0
21
228487.79
31
0
0
LINE
8
electrical
10
-7200.0
20
228487.79
30
0
11
-7200.0
21
228480.0
31
0
0
LINE
8
electrical
10
9550.0
20
228480.0
30
0
11
-7200.0
21
228480.0
31
0
0
LINE
8
electrical
10
9550.0
20
228480.0
30
0
11
9550.0
21
228472.21
31
0
0
LINE
8
electrical
10
9550.0
20
228472.21
30
0
11
9550.0
21
228487.79
31
0
0
LINE
8
electrical
10
9550.0
20
228487.79
30
0
11
9550.0
21
228480.0
31
0
0
LINE
8
electrical
10
-7200.0
20
245160.0
30
0
11
-7192.21
21
245160.0
31
0
0
LINE
8
electrical
10
-7192.21
20
245160.0
30
0
11
-7207.79
21
245160.0
31
0
0
LINE
8
electrical
10
-7207.79
20
245160.0
30
0
11
-7200.0
21
245160.0
31
0
0
LINE
8
electrical
10
-7200.0
20
228480.0
30
0
11
-7200.0
21
245160.0
31
0
0
LINE
8
electrical
10
-7200.0
20
228480.0
30
0
11
-7192.21
21
228480.0
31
0
0
LINE
8
electrical
10
-7192.21
20
228480.0
30
0
11
-7207.79
21
228480.0
31
0
0
LINE
8
electrical
10
-7207.79
20
228480.0
30
0
11
-7200.0
21
228480.0
31
0
0
LINE
8
electrical
10
7200.0
20
245160.0
30
0
11
7207.79
21
245160.0
31
0
0
LINE
8
electrical
10
7207.79
20
245160.0
30
0
11
7192.21
21
245160.0
31
0
0
LINE
8
electrical
10
7192.21
20
245160.0
30
0
11
7200.0
21
245160.0
31
0
0
LINE
8
electrical
10
7200.0
20
228480.0
30
0
11
7200.0
21
245160.0
31
0
0
LINE
8
electrical
10
7200.0
20
228480.0
30
0
11
7207.79
21
228480.0
31
0
0
LINE
8
electrical
10
7207.79
20
228480.0
30
0
11
7192.21
21
228480.0
31
0
0
LINE
8
electrical
10
7192.21
20
228480.0
30
0
11
7200.0
21
228480.0
31
0
0
LINE
8
electrical
10
9563.0
20
225200.0
30
0
11
9543.5
21
225211.26
31
0
0
LINE
8
electrical
10
9543.5
20
225211.26
30
0
11
9543.5
21
225188.74
31
0
0
LINE
8
electrical
10
9543.5
20
225188.74
30
0
11
9563.0
21
225200.0
31
0
0
LINE
8
electrical
10
7010.26
20
228487.98
30
0
11
6994.87
21
228476.01
31
0
0
LINE
8
electrical
10
6994.87
20
228476.01
30
0
11
6994.87
21
228476.01
31
0
0
LINE
8
electrical
10
6994.87
20
228476.01
30
0
11
7010.26
21
228487.98
31
0
0
LINE
8
electrical
10
9560.26
20
225207.98
30
0
11
7010.26
21
228487.98
31
0
0
LINE
8
electrical
10
9560.26
20
225207.98
30
0
11
9544.87
21
225196.01
31
0
0
LINE
8
electrical
10
9544.87
20
225196.01
30
0
11
9544.87
21
225196.01
31
0
0
LINE
8
electrical
10
9544.87
20
225196.01
30
0
11
9560.26
21
225207.98
31
0
0
LINE
8
electrical
10
-7000.0
20
228480.0
30
0
11
-7000.0
21
228468.74
31
0
0
LINE
8
electrical
10
-7000.0
20
228468.74
30
0
11
-7000.0
21
228491.26
31
0
0
LINE
8
electrical
10
-7000.0
20
228491.26
30
0
11
-7000.0
21
228480.0
31
0
0
LINE
8
electrical
10
7000.0
20
228480.0
30
0
11
-7000.0
21
228480.0
31
0
0
LINE
8
electrical
10
7000.0
20
228480.0
30
0
11
7000.0
21
228468.74
31
0
0
LINE
8
electrical
10
7000.0
20
228468.74
30
0
11
7000.0
21
228491.26
31
0
0
LINE
8
electrical
10
7000.0
20
228491.26
30
0
11
7000.0
21
228480.0
31
0
0
LINE
8
electrical
10
9550.0
20
225200.0
30
0
11
9564.04
21
225200.0
31
0
0
LINE
8
electrical
10
9564.04
20
225200.0
30
0
11
9550.0
21
225200.0
31
0
0
LINE
8
electrical
10
7000.0
20
228480.0
30
0
11
7014.04
21
228480.0
31
0
0
LINE
8
electrical
10
7014.04
20
228480.0
30
0
11
7000.0
21
228480.0
31
0
0
LINE
8
electrical
10
9563.0
20
225200.0
30
0
11
9543.5
21
225211.26
31
0
0
LINE
8
electrical
10
9543.5
20
225211.26
30
0
11
9543.5
21
225188.74
31
0
0
LINE
8
electrical
10
9543.5
20
225188.74
30
0
11
9563.0
21
225200.0
31
0
0
LINE
8
electrical
10
7010.4
20
228607.8
30
0
11
6994.8
21
228596.1
31
0
0
LINE
8
electrical
10
6994.8
20
228596.1
30
0
11
6994.8
21
228596.1
31
0
0
LINE
8
electrical
10
6994.8
20
228596.1
30
0
11
7010.4
21
228607.8
31
0
0
LINE
8
electrical
10
9560.4
20
225207.8
30
0
11
7010.4
21
228607.8
31
0
0
LINE
8
electrical
10
9560.4
20
225207.8
30
0
11
9544.8
21
225196.1
31
0
0
LINE
8
electrical
10
9544.8
20
225196.1
30
0
11
9544.8
21
225196.1
31
0
0
LINE
8
electrical
10
9544.8
20
225196.1
30
0
11
9560.4
21
225207.8
31
0
0
LINE
8
electrical
10
-7000.0
20
228600.0
30
0
11
-7000.0
21
228588.74
31
0
0
LINE
8
electrical
10
-7000.0
20
228588.74
30
0
11
-7000.0
21
228611.26
31
0
0
LINE
8
electrical
10
-7000.0
20
228611.26
30
0
11
-7000.0
21
228600.0
31
0
0
LINE
8
electrical
10
7000.0
20
228600.0
30
0
11
-7000.0
21
228600.0
31
0
0
LINE
8
electrical
10
7000.0
20
228600.0
30
0
11
7000.0
21
228588.74
31
0
0
LINE
8
electrical
10
7000.0
20
228588.74
30
0
11
7000.0
21
228611.26
31
0
0
LINE
8
electrical
10
7000.0
20
228611.26
30
0
11
7000.0
21
228600.0
31
0
0
LINE
8
electrical
10
9550.0
20
225200.0
30
0
11
9564.04
21
225200.0
31
0
0
LINE
8
electrical
10
9564.04
20
225200.0
30
0
11
9550.0
21
225200.0
31
0
0
LINE
8
electrical
10
7000.0
20
228600.0
30
0
11
7014.04
21
228600.0
31
0
0
LINE
8
electrical
10
7014.04
20
228600.0
30
0
11
7000.0
21
228600.0
31
0
0
LINE
8
electrical
10
9563.0
20
225200.0
30
0
11
9543.5
21
225211.26
31
0
0
LINE
8
electrical
10
9543.5
20
225211.26
30
0
11
9543.5
21
225188.74
31
0
0
LINE
8
electrical
10
9543.5
20
225188.74
30
0
11
9563.0
21
225200.0
31
0
0
LINE
8
electrical
10
7010.53
20
228727.63
30
0
11
6994.74
21
228716.19
31
0
0
LINE
8
electrical
10
6994.74
20
228716.19
30
0
11
6994.74
21
228716.19
31
0
0
LINE
8
electrical
10
6994.74
20
228716.19
30
0
11
7010.53
21
228727.63
31
0
0
LINE
8
electrical
10
9560.53
20
225207.63
30
0
11
7010.53
21
228727.63
31
0
0
LINE
8
electrical
10
9560.53
20
225207.63
30
0
11
9544.74
21
225196.19
31
0
0
LINE
8
electrical
10
9544.74
20
225196.19
30
0
11
9544.74
21
225196.19
31
0
0
LINE
8
electrical
10
9544.74
20
225196.19
30
0
11
9560.53
21
225207.63
31
0
0
LINE
8
electrical
10
-7000.0
20
228720.0
30
0
11
-7000.0
21
228708.74
31
0
0
LINE
8
electrical
10
-7000.0
20
228708.74
30
0
11
-7000.0
21
228731.26
31
0
0
LINE
8
electrical
10
-7000.0
20
228731.26
30
0
11
-7000.0
21
228720.0
31
0
0
LINE
8
electrical
10
7000.0
20
228720.0
30
0
11
-7000.0
21
228720.0
31
0
0
LINE
8
electrical
10
7000.0
20
228720.0
30
0
11
7000.0
21
228708.74
31
0
0
LINE
8
electrical
10
7000.0
20
228708.74
30
0
11
7000.0
21
228731.26
31
0
0
LINE
8
electrical
10
7000.0
20
228731.26
30
0
11
7000.0
21
228720.0
31
0
0
LINE
8
electrical
10
9550.0
20
225200.0
30
0
11
9564.04
21
225200.0
31
0
0
LINE
8
electrical
10
9564.04
20
225200.0
30
0
11
9550.0
21
225200.0
31
0
0
LINE
8
electrical
10
7000.0
20
228720.0
30
0
11
7014.04
21
228720.0
31
0
0
LINE
8
electrical
10
7014.04
20
228720.0
30
0
11
7000.0
21
228720.0
31
0
0
LINE
8
electrical
10
-6065.0
20
225150.0
30
0
11
-6065.0
21
225210.0
31
0
0
LINE
8
electrical
10
-5935.0
20
225150.0
30
0
11
-5935.0
21
225210.0
31
0
0
LINE
8
electrical
10
-6065.0
20
225150.0
30
0
11
-5935.0
21
225150.0
31
0
0
LINE
8
electrical
10
-6065.0
20
225210.0
30
0
11
-5935.0
21
225210.0
31
0
0
LINE
8
electrical
10
-5991.0
20
225180.0
30
0
11
-6004.5
21
225187.79
31
0
0
LINE
8
electrical
10
-6004.5
20
225187.79
30
0
11
-6004.5
21
225172.21
31
0
0
LINE
8
electrical
10
-6004.5
20
225172.21
30
0
11
-5991.0
21
225180.0
31
0
0
LINE
8
electrical
10
9550.0
20
225180.0
30
0
11
9550.0
21
225172.21
31
0
0
LINE
8
electrical
10
9550.0
20
225172.21
30
0
11
9550.0
21
225187.79
31
0
0
LINE
8
electrical
10
9550.0
20
225187.79
30
0
11
9550.0
21
225180.0
31
0
0
LINE
8
electrical
10
-6000.0
20
225180.0
30
0
11
9550.0
21
225180.0
31
0
0
LINE
8
electrical
10
-6000.0
20
225180.0
30
0
11
-6000.0
21
225172.21
31
0
0
LINE
8
electrical
10
-6000.0
20
225172.21
30
0
11
-6000.0
21
225187.79
31
0
0
LINE
8
electrical
10
-6000.0
20
225187.79
30
0
11
-6000.0
21
225180.0
31
0
0
LINE
8
electrical
10
-6000.0
20
225180.0
30
0
11
-5990.28
21
225180.0
31
0
0
LINE
8
electrical
10
-5990.28
20
225180.0
30
0
11
-6000.0
21
225180.0
31
0
0
LINE
8
electrical
10
5935.0
20
225150.0
30
0
11
5935.0
21
225210.0
31
0
0
LINE
8
electrical
10
6065.0
20
225150.0
30
0
11
6065.0
21
225210.0
31
0
0
LINE
8
electrical
10
5935.0
20
225150.0
30
0
11
6065.0
21
225150.0
31
0
0
LINE
8
electrical
10
5935.0
20
225210.0
30
0
11
6065.0
21
225210.0
31
0
0
LINE
8
electrical
10
6009.0
20
225180.0
30
0
11
5995.5
21
225187.79
31
0
0
LINE
8
electrical
10
5995.5
20
225187.79
30
0
11
5995.5
21
225172.21
31
0
0
LINE
8
electrical
10
5995.5
20
225172.21
30
0
11
6009.0
21
225180.0
31
0
0
LINE
8
electrical
10
9550.0
20
225180.0
30
0
11
9550.0
21
225172.21
31
0
0
LINE
8
electrical
10
9550.0
20
225172.21
30
0
11
9550.0
21
225187.79
31
0
0
LINE
8
electrical
10
9550.0
20
225187.79
30
0
11
9550.0
21
225180.0
31
0
0
LINE
8
electrical
10
6000.0
20
225180.0
30
0
11
9550.0
21
225180.0
31
0
0
LINE
8
electrical
10
6000.0
20
225180.0
30
0
11
6000.0
21
225172.21
31
0
0
LINE
8
electrical
10
6000.0
20
225172.21
30
0
11
6000.0
21
225187.79
31
0
0
LINE
8
electrical
10
6000.0
20
225187.79
30
0
11
6000.0
21
225180.0
31
0
0
LINE
8
electrical
10
6000.0
20
225180.0
30
0
11
6009.72
21
225180.0
31
0
0
LINE
8
electrical
10
6009.72
20
225180.0
30
0
11
6000.0
21
225180.0
31
0
0
LINE
8
hvac
10
-9525.0
20
225725.0
30
0
11
-9525.0
21
226475.0
31
0
0
LINE
8
hvac
10
-7875.0
20
225725.0
30
0
11
-7875.0
21
226475.0
31
0
0
LINE
8
hvac
10
-9525.0
20
225725.0
30
0
11
-7875.0
21
225725.0
31
0
0
LINE
8
hvac
10
-9525.0
20
226475.0
30
0
11
-7875.0
21
226475.0
31
0
0
LINE
8
hvac
10
-9425.0
20
225680.0
30
0
11
-9425.0
21
225720.0
31
0
0
LINE
8
hvac
10
-7975.0
20
225680.0
30
0
11
-7975.0
21
225720.0
31
0
0
LINE
8
hvac
10
-9425.0
20
225680.0
30
0
11
-7975.0
21
225680.0
31
0
0
LINE
8
hvac
10
-9425.0
20
225720.0
30
0
11
-7975.0
21
225720.0
31
0
0
LINE
8
hvac
10
-9360.0
20
225640.0
30
0
11
-9360.0
21
225700.0
31
0
0
LINE
8
hvac
10
-9320.0
20
225640.0
30
0
11
-9320.0
21
225700.0
31
0
0
LINE
8
hvac
10
-9360.0
20
225640.0
30
0
11
-9320.0
21
225640.0
31
0
0
LINE
8
hvac
10
-9360.0
20
225700.0
30
0
11
-9320.0
21
225700.0
31
0
0
LINE
8
hvac
10
-9200.0
20
225640.0
30
0
11
-9200.0
21
225700.0
31
0
0
LINE
8
hvac
10
-9160.0
20
225640.0
30
0
11
-9160.0
21
225700.0
31
0
0
LINE
8
hvac
10
-9200.0
20
225640.0
30
0
11
-9160.0
21
225640.0
31
0
0
LINE
8
hvac
10
-9200.0
20
225700.0
30
0
11
-9160.0
21
225700.0
31
0
0
LINE
8
hvac
10
-9040.0
20
225640.0
30
0
11
-9040.0
21
225700.0
31
0
0
LINE
8
hvac
10
-9000.0
20
225640.0
30
0
11
-9000.0
21
225700.0
31
0
0
LINE
8
hvac
10
-9040.0
20
225640.0
30
0
11
-9000.0
21
225640.0
31
0
0
LINE
8
hvac
10
-9040.0
20
225700.0
30
0
11
-9000.0
21
225700.0
31
0
0
LINE
8
hvac
10
-8880.0
20
225640.0
30
0
11
-8880.0
21
225700.0
31
0
0
LINE
8
hvac
10
-8840.0
20
225640.0
30
0
11
-8840.0
21
225700.0
31
0
0
LINE
8
hvac
10
-8880.0
20
225640.0
30
0
11
-8840.0
21
225640.0
31
0
0
LINE
8
hvac
10
-8880.0
20
225700.0
30
0
11
-8840.0
21
225700.0
31
0
0
LINE
8
hvac
10
-8720.0
20
225640.0
30
0
11
-8720.0
21
225700.0
31
0
0
LINE
8
hvac
10
-8680.0
20
225640.0
30
0
11
-8680.0
21
225700.0
31
0
0
LINE
8
hvac
10
-8720.0
20
225640.0
30
0
11
-8680.0
21
225640.0
31
0
0
LINE
8
hvac
10
-8720.0
20
225700.0
30
0
11
-8680.0
21
225700.0
31
0
0
LINE
8
hvac
10
-8560.0
20
225640.0
30
0
11
-8560.0
21
225700.0
31
0
0
LINE
8
hvac
10
-8520.0
20
225640.0
30
0
11
-8520.0
21
225700.0
31
0
0
LINE
8
hvac
10
-8560.0
20
225640.0
30
0
11
-8520.0
21
225640.0
31
0
0
LINE
8
hvac
10
-8560.0
20
225700.0
30
0
11
-8520.0
21
225700.0
31
0
0
LINE
8
hvac
10
-8400.0
20
225640.0
30
0
11
-8400.0
21
225700.0
31
0
0
LINE
8
hvac
10
-8360.0
20
225640.0
30
0
11
-8360.0
21
225700.0
31
0
0
LINE
8
hvac
10
-8400.0
20
225640.0
30
0
11
-8360.0
21
225640.0
31
0
0
LINE
8
hvac
10
-8400.0
20
225700.0
30
0
11
-8360.0
21
225700.0
31
0
0
LINE
8
hvac
10
-8240.0
20
225640.0
30
0
11
-8240.0
21
225700.0
31
0
0
LINE
8
hvac
10
-8200.0
20
225640.0
30
0
11
-8200.0
21
225700.0
31
0
0
LINE
8
hvac
10
-8240.0
20
225640.0
30
0
11
-8200.0
21
225640.0
31
0
0
LINE
8
hvac
10
-8240.0
20
225700.0
30
0
11
-8200.0
21
225700.0
31
0
0
LINE
8
hvac
10
-8080.0
20
225640.0
30
0
11
-8080.0
21
225700.0
31
0
0
LINE
8
hvac
10
-8040.0
20
225640.0
30
0
11
-8040.0
21
225700.0
31
0
0
LINE
8
hvac
10
-8080.0
20
225640.0
30
0
11
-8040.0
21
225640.0
31
0
0
LINE
8
hvac
10
-8080.0
20
225700.0
30
0
11
-8040.0
21
225700.0
31
0
0
LINE
8
hvac
10
-8925.0
20
225875.0
30
0
11
-8925.0
21
226325.0
31
0
0
LINE
8
hvac
10
-8475.0
20
225875.0
30
0
11
-8475.0
21
226325.0
31
0
0
LINE
8
hvac
10
-8925.0
20
225875.0
30
0
11
-8475.0
21
225875.0
31
0
0
LINE
8
hvac
10
-8925.0
20
226325.0
30
0
11
-8475.0
21
226325.0
31
0
0
LINE
8
hvac
10
-7000.0
20
236825.0
30
0
11
-7000.0
21
237175.0
31
0
0
LINE
8
hvac
10
7000.0
20
236825.0
30
0
11
7000.0
21
237175.0
31
0
0
LINE
8
hvac
10
-7000.0
20
236825.0
30
0
11
7000.0
21
236825.0
31
0
0
LINE
8
hvac
10
-7000.0
20
237175.0
30
0
11
7000.0
21
237175.0
31
0
0
LINE
8
hvac
10
-8875.0
20
225925.0
30
0
11
-8875.0
21
226275.0
31
0
0
LINE
8
hvac
10
175.0
20
225925.0
30
0
11
175.0
21
226275.0
31
0
0
LINE
8
hvac
10
-8875.0
20
225925.0
30
0
11
175.0
21
225925.0
31
0
0
LINE
8
hvac
10
-8875.0
20
226275.0
30
0
11
175.0
21
226275.0
31
0
0
LINE
8
hvac
10
-175.0
20
225925.0
30
0
11
-175.0
21
237175.0
31
0
0
LINE
8
hvac
10
175.0
20
225925.0
30
0
11
175.0
21
237175.0
31
0
0
LINE
8
hvac
10
-175.0
20
225925.0
30
0
11
175.0
21
225925.0
31
0
0
LINE
8
hvac
10
-175.0
20
237175.0
30
0
11
175.0
21
237175.0
31
0
0
LINE
8
hvac
10
-4350.0
20
236650.0
30
0
11
-4350.0
21
237350.0
31
0
0
LINE
8
hvac
10
-3650.0
20
236650.0
30
0
11
-3650.0
21
237350.0
31
0
0
LINE
8
hvac
10
-4350.0
20
236650.0
30
0
11
-3650.0
21
236650.0
31
0
0
LINE
8
hvac
10
-4350.0
20
237350.0
30
0
11
-3650.0
21
237350.0
31
0
0
LINE
8
hvac
10
3650.0
20
236650.0
30
0
11
3650.0
21
237350.0
31
0
0
LINE
8
hvac
10
4350.0
20
236650.0
30
0
11
4350.0
21
237350.0
31
0
0
LINE
8
hvac
10
3650.0
20
236650.0
30
0
11
4350.0
21
236650.0
31
0
0
LINE
8
hvac
10
3650.0
20
237350.0
30
0
11
4350.0
21
237350.0
31
0
0
LINE
8
sensors
10
-9960.0
20
230200.0
30
0
11
-9960.0
21
230360.0
31
0
0
LINE
8
sensors
10
-9860.0
20
230200.0
30
0
11
-9860.0
21
230360.0
31
0
0
LINE
8
sensors
10
-9960.0
20
230200.0
30
0
11
-9860.0
21
230200.0
31
0
0
LINE
8
sensors
10
-9960.0
20
230360.0
30
0
11
-9860.0
21
230360.0
31
0
0
LINE
8
sensors
10
-9855.0
20
230225.0
30
0
11
-9855.0
21
230335.0
31
0
0
LINE
8
sensors
10
-9835.0
20
230225.0
30
0
11
-9835.0
21
230335.0
31
0
0
LINE
8
sensors
10
-9855.0
20
230225.0
30
0
11
-9835.0
21
230225.0
31
0
0
LINE
8
sensors
10
-9855.0
20
230335.0
30
0
11
-9835.0
21
230335.0
31
0
0
LINE
8
sensors
10
-9960.0
20
230500.0
30
0
11
-9960.0
21
230660.0
31
0
0
LINE
8
sensors
10
-9860.0
20
230500.0
30
0
11
-9860.0
21
230660.0
31
0
0
LINE
8
sensors
10
-9960.0
20
230500.0
30
0
11
-9860.0
21
230500.0
31
0
0
LINE
8
sensors
10
-9960.0
20
230660.0
30
0
11
-9860.0
21
230660.0
31
0
0
LINE
8
sensors
10
-9855.0
20
230525.0
30
0
11
-9855.0
21
230635.0
31
0
0
LINE
8
sensors
10
-9835.0
20
230525.0
30
0
11
-9835.0
21
230635.0
31
0
0
LINE
8
sensors
10
-9855.0
20
230525.0
30
0
11
-9835.0
21
230525.0
31
0
0
LINE
8
sensors
10
-9855.0
20
230635.0
30
0
11
-9835.0
21
230635.0
31
0
0
LINE
8
sensors
10
-9960.0
20
230800.0
30
0
11
-9960.0
21
230960.0
31
0
0
LINE
8
sensors
10
-9860.0
20
230800.0
30
0
11
-9860.0
21
230960.0
31
0
0
LINE
8
sensors
10
-9960.0
20
230800.0
30
0
11
-9860.0
21
230800.0
31
0
0
LINE
8
sensors
10
-9960.0
20
230960.0
30
0
11
-9860.0
21
230960.0
31
0
0
LINE
8
sensors
10
-9855.0
20
230825.0
30
0
11
-9855.0
21
230935.0
31
0
0
LINE
8
sensors
10
-9835.0
20
230825.0
30
0
11
-9835.0
21
230935.0
31
0
0
LINE
8
sensors
10
-9855.0
20
230825.0
30
0
11
-9835.0
21
230825.0
31
0
0
LINE
8
sensors
10
-9855.0
20
230935.0
30
0
11
-9835.0
21
230935.0
31
0
0
LINE
8
sensors
10
80.0
20
237000.0
30
0
11
0.0
21
237080.0
31
0
0
LINE
8
sensors
10
0.0
20
237080.0
30
0
11
-80.0
21
237000.0
31
0
0
LINE
8
sensors
10
-80.0
20
237000.0
30
0
11
-0.0
21
236920.0
31
0
0
LINE
8
sensors
10
-0.0
20
236920.0
30
0
11
80.0
21
237000.0
31
0
0
LINE
8
sensors
10
-0.0
20
237000.0
30
0
11
65.0
21
237000.0
31
0
0
LINE
8
sensors
10
65.0
20
237000.0
30
0
11
0.0
21
237000.0
31
0
0
LINE
8
sensors
10
-9960.0
20
231400.0
30
0
11
-9960.0
21
231560.0
31
0
0
LINE
8
sensors
10
-9860.0
20
231400.0
30
0
11
-9860.0
21
231560.0
31
0
0
LINE
8
sensors
10
-9960.0
20
231400.0
30
0
11
-9860.0
21
231400.0
31
0
0
LINE
8
sensors
10
-9960.0
20
231560.0
30
0
11
-9860.0
21
231560.0
31
0
0
LINE
8
sensors
10
-9855.0
20
231425.0
30
0
11
-9855.0
21
231535.0
31
0
0
LINE
8
sensors
10
-9835.0
20
231425.0
30
0
11
-9835.0
21
231535.0
31
0
0
LINE
8
sensors
10
-9855.0
20
231425.0
30
0
11
-9835.0
21
231425.0
31
0
0
LINE
8
sensors
10
-9855.0
20
231535.0
30
0
11
-9835.0
21
231535.0
31
0
0
ENDSEC
0
EOF
