0
SECTION
2
HEADER
9
$ACADVER
1
AC1015
9
$INSUNITS
70
4
0
ENDSEC
0
SECTION
2
ENTITIES
0
LINE
8
interiors
10
-58250.0
20
232000.0
30
0
11
-58250.0
21
242000.0
31
0
0
LINE
8
interiors
10
-58250.0
20
232000.0
30
0
11
-55700.0
21
232000.0
31
0
0
LINE
8
interiors
10
-55700.0
20
232000.0
30
0
11
-53300.0
21
232000.0
31
0
0
LINE
8
interiors
10
-53300.0
20
232000.0
30
0
11
-50750.0
21
232000.0
31
0
0
LINE
8
interiors
10
-58250.0
20
232000.0
30
0
11
-50750.0
21
232000.0
31
0
0
LINE
8
interiors
10
-58250.0
20
242000.0
30
0
11
-50750.0
21
242000.0
31
0
0
LINE
8
interiors
10
-50750.0
20
232000.0
30
0
11
-50750.0
21
242000.0
31
0
0
LINE
8
interiors
10
-50870.0
20
232120.0
30
0
11
-58130.0
21
232120.0
31
0
0
LINE
8
interiors
10
-50870.0
20
232120.0
30
0
11
-50870.0
21
241880.0
31
0
0
LINE
8
interiors
10
-50870.0
20
241880.0
30
0
11
-58130.0
21
241880.0
31
0
0
LINE
8
interiors
10
-58130.0
20
232120.0
30
0
11
-58130.0
21
241880.0
31
0
0
LINE
8
interiors
10
-56450.0
20
242000.0
30
0
11
-52550.0
21
242000.0
31
0
0
LINE
8
interiors
10
-53300.0
20
232000.0
30
0
11
-53300.0
21
232120.0
31
0
0
LINE
8
interiors
10
-50870.0
20
232120.0
30
0
11
-53300.0
21
232120.0
31
0
0
LINE
8
interiors
10
-55700.0
20
232120.0
30
0
11
-58130.0
21
232120.0
31
0
0
LINE
8
interiors
10
-55700.0
20
232000.0
30
0
11
-55700.0
21
232120.0
31
0
0
LINE
8
interiors
10
-55700.0
20
232120.0
30
0
11
-53300.0
21
232120.0
31
0
0
LINE
8
interiors
10
-56450.0
20
241880.0
30
0
11
-52550.0
21
241880.0
31
0
0
LINE
8
interiors
10
-56450.0
20
241880.0
30
0
11
-56450.0
21
242000.0
31
0
0
LINE
8
interiors
10
-52550.0
20
241880.0
30
0
11
-52550.0
21
242000.0
31
0
0
LINE
8
interiors
10
-56450.0
20
241977.5
30
0
11
-56450.0
21
242022.5
31
0
0
LINE
8
interiors
10
-52550.0
20
241977.5
30
0
11
-52550.0
21
242022.5
31
0
0
LINE
8
interiors
10
-56450.0
20
241977.5
30
0
11
-52550.0
21
241977.5
31
0
0
LINE
8
interiors
10
-56450.0
20
242022.5
30
0
11
-52550.0
21
242022.5
31
0
0
LINE
8
interiors
10
-58125.0
20
232125.0
30
0
11
-58125.0
21
241875.0
31
0
0
LINE
8
interiors
10
-50875.0
20
232125.0
30
0
11
-50875.0
21
241875.0
31
0
0
LINE
8
interiors
10
-58125.0
20
232125.0
30
0
11
-50875.0
21
232125.0
31
0
0
LINE
8
interiors
10
-58125.0
20
241875.0
30
0
11
-50875.0
21
241875.0
31
0
0
LINE
8
interiors
10
-55655.0
20
231880.0
30
0
11
-55655.0
21
232120.0
31
0
0
LINE
8
interiors
10
-55585.0
20
231880.0
30
0
11
-55585.0
21
232120.0
31
0
0
LINE
8
interiors
10
-55655.0
20
231880.0
30
0
11
-55585.0
21
231880.0
31
0
0
LINE
8
interiors
10
-55655.0
20
232120.0
30
0
11
-55585.0
21
232120.0
31
0
0
LINE
8
interiors
10
-53415.0
20
231880.0
30
0
11
-53415.0
21
232120.0
31
0
0
LINE
8
interiors
10
-53345.0
20
231880.0
30
0
11
-53345.0
21
232120.0
31
0
0
LINE
8
interiors
10
-53415.0
20
231880.0
30
0
11
-53345.0
21
231880.0
31
0
0
LINE
8
interiors
10
-53415.0
20
232120.0
30
0
11
-53345.0
21
232120.0
31
0
0
LINE
8
interiors
10
-55650.0
20
231880.0
30
0
11
-55650.0
21
232120.0
31
0
0
LINE
8
interiors
10
-53350.0
20
231880.0
30
0
11
-53350.0
21
232120.0
31
0
0
LINE
8
interiors
10
-55650.0
20
231880.0
30
0
11
-53350.0
21
231880.0
31
0
0
LINE
8
interiors
10
-55650.0
20
232120.0
30
0
11
-53350.0
21
232120.0
31
0
0
LINE
8
interiors
10
-55569.61
20
232090.49
30
0
11
-55610.39
21
232109.51
31
0
0
LINE
8
interiors
10
-55113.18
20
233069.3
30
0
11
-55153.96
21
233088.32
31
0
0
LINE
8
interiors
10
-55569.61
20
232090.49
30
0
11
-55113.18
21
233069.3
31
0
0
LINE
8
interiors
10
-55610.39
20
232109.51
30
0
11
-55153.96
21
233088.32
31
0
0
LINE
8
interiors
10
-57050.0
20
234350.0
30
0
11
-57050.0
21
235250.0
31
0
0
LINE
8
interiors
10
-55250.0
20
234350.0
30
0
11
-55250.0
21
235250.0
31
0
0
LINE
8
interiors
10
-57050.0
20
234350.0
30
0
11
-55250.0
21
234350.0
31
0
0
LINE
8
interiors
10
-57050.0
20
235250.0
30
0
11
-55250.0
21
235250.0
31
0
0
LINE
8
interiors
10
-56985.0
20
234415.0
30
0
11
-56985.0
21
234485.0
31
0
0
LINE
8
interiors
10
-56915.0
20
234415.0
30
0
11
-56915.0
21
234485.0
31
0
0
LINE
8
interiors
10
-56985.0
20
234415.0
30
0
11
-56915.0
21
234415.0
31
0
0
LINE
8
interiors
10
-56985.0
20
234485.0
30
0
11
-56915.0
21
234485.0
31
0
0
LINE
8
interiors
10
-56985.0
20
235115.0
30
0
11
-56985.0
21
235185.0
31
0
0
LINE
8
interiors
10
-56915.0
20
235115.0
30
0
11
-56915.0
21
235185.0
31
0
0
LINE
8
interiors
10
-56985.0
20
235115.0
30
0
11
-56915.0
21
235115.0
31
0
0
LINE
8
interiors
10
-56985.0
20
235185.0
30
0
11
-56915.0
21
235185.0
31
0
0
LINE
8
interiors
10
-55385.0
20
234415.0
30
0
11
-55385.0
21
234485.0
31
0
0
LINE
8
interiors
10
-55315.0
20
234415.0
30
0
11
-55315.0
21
234485.0
31
0
0
LINE
8
interiors
10
-55385.0
20
234415.0
30
0
11
-55315.0
21
234415.0
31
0
0
LINE
8
interiors
10
-55385.0
20
234485.0
30
0
11
-55315.0
21
234485.0
31
0
0
LINE
8
interiors
10
-55385.0
20
235115.0
30
0
11
-55385.0
21
235185.0
31
0
0
LINE
8
interiors
10
-55315.0
20
235115.0
30
0
11
-55315.0
21
235185.0
31
0
0
LINE
8
interiors
10
-55385.0
20
235115.0
30
0
11
-55315.0
21
235115.0
31
0
0
LINE
8
interiors
10
-55385.0
20
235185.0
30
0
11
-55315.0
21
235185.0
31
0
0
LINE
8
interiors
10
-56390.0
20
233810.0
30
0
11
-56390.0
21
234290.0
31
0
0
LINE
8
interiors
10
-55910.0
20
233810.0
30
0
11
-55910.0
21
234290.0
31
0
0
LINE
8
interiors
10
-56390.0
20
233810.0
30
0
11
-55910.0
21
233810.0
31
0
0
LINE
8
interiors
10
-56390.0
20
234290.0
30
0
11
-55910.0
21
234290.0
31
0
0
LINE
8
interiors
10
-56390.0
20
234227.5
30
0
11
-56390.0
21
234292.5
31
0
0
LINE
8
interiors
10
-55910.0
20
234227.5
30
0
11
-55910.0
21
234292.5
31
0
0
LINE
8
interiors
10
-56390.0
20
234227.5
30
0
11
-55910.0
21
234227.5
31
0
0
LINE
8
interiors
10
-56390.0
20
234292.5
30
0
11
-55910.0
21
234292.5
31
0
0
LINE
8
interiors
10
-56357.5
20
233842.5
30
0
11
-56357.5
21
233877.5
31
0
0
LINE
8
interiors
10
-56322.5
20
233842.5
30
0
11
-56322.5
21
233877.5
31
0
0
LINE
8
interiors
10
-56357.5
20
233842.5
30
0
11
-56322.5
21
233842.5
31
0
0
LINE
8
interiors
10
-56357.5
20
233877.5
30
0
11
-56322.5
21
233877.5
31
0
0
LINE
8
interiors
10
-56357.5
20
234222.5
30
0
11
-56357.5
21
234257.5
31
0
0
LINE
8
interiors
10
-56322.5
20
234222.5
30
0
11
-56322.5
21
234257.5
31
0
0
LINE
8
interiors
10
-56357.5
20
234222.5
30
0
11
-56322.5
21
234222.5
31
0
0
LINE
8
interiors
10
-56357.5
20
234257.5
30
0
11
-56322.5
21
234257.5
31
0
0
LINE
8
interiors
10
-55977.5
20
233842.5
30
0
11
-55977.5
21
233877.5
31
0
0
LINE
8
interiors
10
-55942.5
20
233842.5
30
0
11
-55942.5
21
233877.5
31
0
0
LINE
8
interiors
10
-55977.5
20
233842.5
30
0
11
-55942.5
21
233842.5
31
0
0
LINE
8
interiors
10
-55977.5
20
233877.5
30
0
11
-55942.5
21
233877.5
31
0
0
LINE
8
interiors
10
-55977.5
20
234222.5
30
0
11
-55977.5
21
234257.5
31
0
0
LINE
8
interiors
10
-55942.5
20
234222.5
30
0
11
-55942.5
21
234257.5
31
0
0
LINE
8
interiors
10
-55977.5
20
234222.5
30
0
11
-55942.5
21
234222.5
31
0
0
LINE
8
interiors
10
-55977.5
20
234257.5
30
0
11
-55942.5
21
234257.5
31
0
0
LINE
8
interiors
10
-56450.0
20
234990.0
30
0
11
-56450.0
21
235050.0
31
0
0
LINE
8
interiors
10
-55850.0
20
234990.0
30
0
11
-55850.0
21
235050.0
31
0
0
LINE
8
interiors
10
-56450.0
20
234990.0
30
0
11
-55850.0
21
234990.0
31
0
0
LINE
8
interiors
10
-56450.0
20
235050.0
30
0
11
-55850.0
21
235050.0
31
0
0
LINE
8
interiors
10
-56180.0
20
234985.0
30
0
11
-56180.0
21
235055.0
31
0
0
LINE
8
interiors
10
-56120.0
20
234985.0
30
0
11
-56120.0
21
235055.0
31
0
0
LINE
8
interiors
10
-56180.0
20
234985.0
30
0
11
-56120.0
21
234985.0
31
0
0
LINE
8
interiors
10
-56180.0
20
235055.0
30
0
11
-56120.0
21
235055.0
31
0
0
LINE
8
interiors
10
-56300.0
20
234910.0
30
0
11
-56300.0
21
235130.0
31
0
0
LINE
8
interiors
10
-56000.0
20
234910.0
30
0
11
-56000.0
21
235130.0
31
0
0
LINE
8
interiors
10
-56300.0
20
234910.0
30
0
11
-56000.0
21
234910.0
31
0
0
LINE
8
interiors
10
-56300.0
20
235130.0
30
0
11
-56000.0
21
235130.0
31
0
0
LINE
8
interiors
10
-53750.0
20
234350.0
30
0
11
-53750.0
21
235250.0
31
0
0
LINE
8
interiors
10
-51950.0
20
234350.0
30
0
11
-51950.0
21
235250.0
31
0
0
LINE
8
interiors
10
-53750.0
20
234350.0
30
0
11
-51950.0
21
234350.0
31
0
0
LINE
8
interiors
10
-53750.0
20
235250.0
30
0
11
-51950.0
21
235250.0
31
0
0
LINE
8
interiors
10
-53685.0
20
234415.0
30
0
11
-53685.0
21
234485.0
31
0
0
LINE
8
interiors
10
-53615.0
20
234415.0
30
0
11
-53615.0
21
234485.0
31
0
0
LINE
8
interiors
10
-53685.0
20
234415.0
30
0
11
-53615.0
21
234415.0
31
0
0
LINE
8
interiors
10
-53685.0
20
234485.0
30
0
11
-53615.0
21
234485.0
31
0
0
LINE
8
interiors
10
-53685.0
20
235115.0
30
0
11
-53685.0
21
235185.0
31
0
0
LINE
8
interiors
10
-53615.0
20
235115.0
30
0
11
-53615.0
21
235185.0
31
0
0
LINE
8
interiors
10
-53685.0
20
235115.0
30
0
11
-53615.0
21
235115.0
31
0
0
LINE
8
interiors
10
-53685.0
20
235185.0
30
0
11
-53615.0
21
235185.0
31
0
0
LINE
8
interiors
10
-52085.0
20
234415.0
30
0
11
-52085.0
21
234485.0
31
0
0
LINE
8
interiors
10
-52015.0
20
234415.0
30
0
11
-52015.0
21
234485.0
31
0
0
LINE
8
interiors
10
-52085.0
20
234415.0
30
0
11
-52015.0
21
234415.0
31
0
0
LINE
8
interiors
10
-52085.0
20
234485.0
30
0
11
-52015.0
21
234485.0
31
0
0
LINE
8
interiors
10
-52085.0
20
235115.0
30
0
11
-52085.0
21
235185.0
31
0
0
LINE
8
interiors
10
-52015.0
20
235115.0
30
0
11
-52015.0
21
235185.0
31
0
0
LINE
8
interiors
10
-52085.0
20
235115.0
30
0
11
-52015.0
21
235115.0
31
0
0
LINE
8
interiors
10
-52085.0
20
235185.0
30
0
11
-52015.0
21
235185.0
31
0
0
LINE
8
interiors
10
-53090.0
20
233810.0
30
0
11
-53090.0
21
234290.0
31
0
0
LINE
8
interiors
10
-52610.0
20
233810.0
30
0
11
-52610.0
21
234290.0
31
0
0
LINE
8
interiors
10
-53090.0
20
233810.0
30
0
11
-52610.0
21
233810.0
31
0
0
LINE
8
interiors
10
-53090.0
20
234290.0
30
0
11
-52610.0
21
234290.0
31
0
0
LINE
8
interiors
10
-53090.0
20
234227.5
30
0
11
-53090.0
21
234292.5
31
0
0
LINE
8
interiors
10
-52610.0
20
234227.5
30
0
11
-52610.0
21
234292.5
31
0
0
LINE
8
interiors
10
-53090.0
20
234227.5
30
0
11
-52610.0
21
234227.5
31
0
0
LINE
8
interiors
10
-53090.0
20
234292.5
30
0
11
-52610.0
21
234292.5
31
0
0
LINE
8
interiors
10
-53057.5
20
233842.5
30
0
11
-53057.5
21
233877.5
31
0
0
LINE
8
interiors
10
-53022.5
20
233842.5
30
0
11
-53022.5
21
233877.5
31
0
0
LINE
8
interiors
10
-53057.5
20
233842.5
30
0
11
-53022.5
21
233842.5
31
0
0
LINE
8
interiors
10
-53057.5
20
233877.5
30
0
11
-53022.5
21
233877.5
31
0
0
LINE
8
interiors
10
-53057.5
20
234222.5
30
0
11
-53057.5
21
234257.5
31
0
0
LINE
8
interiors
10
-53022.5
20
234222.5
30
0
11
-53022.5
21
234257.5
31
0
0
LINE
8
interiors
10
-53057.5
20
234222.5
30
0
11
-53022.5
21
234222.5
31
0
0
LINE
8
interiors
10
-53057.5
20
234257.5
30
0
11
-53022.5
21
234257.5
31
0
0
LINE
8
interiors
10
-52677.5
20
233842.5
30
0
11
-52677.5
21
233877.5
31
0
0
LINE
8
interiors
10
-52642.5
20
233842.5
30
0
11
-52642.5
21
233877.5
31
0
0
LINE
8
interiors
10
-52677.5
20
233842.5
30
0
11
-52642.5
21
233842.5
31
0
0
LINE
8
interiors
10
-52677.5
20
233877.5
30
0
11
-52642.5
21
233877.5
31
0
0
LINE
8
interiors
10
-52677.5
20
234222.5
30
0
11
-52677.5
21
234257.5
31
0
0
LINE
8
interiors
10
-52642.5
20
234222.5
30
0
11
-52642.5
21
234257.5
31
0
0
LINE
8
interiors
10
-52677.5
20
234222.5
30
0
11
-52642.5
21
234222.5
31
0
0
LINE
8
interiors
10
-52677.5
20
234257.5
30
0
11
-52642.5
21
234257.5
31
0
0
LINE
8
interiors
10
-53150.0
20
234990.0
30
0
11
-53150.0
21
235050.0
31
0
0
LINE
8
interiors
10
-52550.0
20
234990.0
30
0
11
-52550.0
21
235050.0
31
0
0
LINE
8
interiors
10
-53150.0
20
234990.0
30
0
11
-52550.0
21
234990.0
31
0
0
LINE
8
interiors
10
-53150.0
20
235050.0
30
0
11
-52550.0
21
235050.0
31
0
0
LINE
8
interiors
10
-52880.0
20
234985.0
30
0
11
-52880.0
21
235055.0
31
0
0
LINE
8
interiors
10
-52820.0
20
234985.0
30
0
11
-52820.0
21
235055.0
31
0
0
LINE
8
interiors
10
-52880.0
20
234985.0
30
0
11
-52820.0
21
234985.0
31
0
0
LINE
8
interiors
10
-52880.0
20
235055.0
30
0
11
-52820.0
21
235055.0
31
0
0
LINE
8
interiors
10
-53000.0
20
234910.0
30
0
11
-53000.0
21
235130.0
31
0
0
LINE
8
interiors
10
-52700.0
20
234910.0
30
0
11
-52700.0
21
235130.0
31
0
0
LINE
8
interiors
10
-53000.0
20
234910.0
30
0
11
-52700.0
21
234910.0
31
0
0
LINE
8
interiors
10
-53000.0
20
235130.0
30
0
11
-52700.0
21
235130.0
31
0
0
LINE
8
interiors
10
-57050.0
20
238750.0
30
0
11
-57050.0
21
239650.0
31
0
0
LINE
8
interiors
10
-55250.0
20
238750.0
30
0
11
-55250.0
21
239650.0
31
0
0
LINE
8
interiors
10
-57050.0
20
238750.0
30
0
11
-55250.0
21
238750.0
31
0
0
LINE
8
interiors
10
-57050.0
20
239650.0
30
0
11
-55250.0
21
239650.0
31
0
0
LINE
8
interiors
10
-56985.0
20
238815.0
30
0
11
-56985.0
21
238885.0
31
0
0
LINE
8
interiors
10
-56915.0
20
238815.0
30
0
11
-56915.0
21
238885.0
31
0
0
LINE
8
interiors
10
-56985.0
20
238815.0
30
0
11
-56915.0
21
238815.0
31
0
0
LINE
8
interiors
10
-56985.0
20
238885.0
30
0
11
-56915.0
21
238885.0
31
0
0
LINE
8
interiors
10
-56985.0
20
239515.0
30
0
11
-56985.0
21
239585.0
31
0
0
LINE
8
interiors
10
-56915.0
20
239515.0
30
0
11
-56915.0
21
239585.0
31
0
0
LINE
8
interiors
10
-56985.0
20
239515.0
30
0
11
-56915.0
21
239515.0
31
0
0
LINE
8
interiors
10
-56985.0
20
239585.0
30
0
11
-56915.0
21
239585.0
31
0
0
LINE
8
interiors
10
-55385.0
20
238815.0
30
0
11
-55385.0
21
238885.0
31
0
0
LINE
8
interiors
10
-55315.0
20
238815.0
30
0
11
-55315.0
21
238885.0
31
0
0
LINE
8
interiors
10
-55385.0
20
238815.0
30
0
11
-55315.0
21
238815.0
31
0
0
LINE
8
interiors
10
-55385.0
20
238885.0
30
0
11
-55315.0
21
238885.0
31
0
0
LINE
8
interiors
10
-55385.0
20
239515.0
30
0
11
-55385.0
21
239585.0
31
0
0
LINE
8
interiors
10
-55315.0
20
239515.0
30
0
11
-55315.0
21
239585.0
31
0
0
LINE
8
interiors
10
-55385.0
20
239515.0
30
0
11
-55315.0
21
239515.0
31
0
0
LINE
8
interiors
10
-55385.0
20
239585.0
30
0
11
-55315.0
21
239585.0
31
0
0
LINE
8
interiors
10
-56390.0
20
238210.0
30
0
11
-56390.0
21
238690.0
31
0
0
LINE
8
interiors
10
-55910.0
20
238210.0
30
0
11
-55910.0
21
238690.0
31
0
0
LINE
8
interiors
10
-56390.0
20
238210.0
30
0
11
-55910.0
21
238210.0
31
0
0
LINE
8
interiors
10
-56390.0
20
238690.0
30
0
11
-55910.0
21
238690.0
31
0
0
LINE
8
interiors
10
-56390.0
20
238627.5
30
0
11
-56390.0
21
238692.5
31
0
0
LINE
8
interiors
10
-55910.0
20
238627.5
30
0
11
-55910.0
21
238692.5
31
0
0
LINE
8
interiors
10
-56390.0
20
238627.5
30
0
11
-55910.0
21
238627.5
31
0
0
LINE
8
interiors
10
-56390.0
20
238692.5
30
0
11
-55910.0
21
238692.5
31
0
0
LINE
8
interiors
10
-56357.5
20
238242.5
30
0
11
-56357.5
21
238277.5
31
0
0
LINE
8
interiors
10
-56322.5
20
238242.5
30
0
11
-56322.5
21
238277.5
31
0
0
LINE
8
interiors
10
-56357.5
20
238242.5
30
0
11
-56322.5
21
238242.5
31
0
0
LINE
8
interiors
10
-56357.5
20
238277.5
30
0
11
-56322.5
21
238277.5
31
0
0
LINE
8
interiors
10
-56357.5
20
238622.5
30
0
11
-56357.5
21
238657.5
31
0
0
LINE
8
interiors
10
-56322.5
20
238622.5
30
0
11
-56322.5
21
238657.5
31
0
0
LINE
8
interiors
10
-56357.5
20
238622.5
30
0
11
-56322.5
21
238622.5
31
0
0
LINE
8
interiors
10
-56357.5
20
238657.5
30
0
11
-56322.5
21
238657.5
31
0
0
LINE
8
interiors
10
-55977.5
20
238242.5
30
0
11
-55977.5
21
238277.5
31
0
0
LINE
8
interiors
10
-55942.5
20
238242.5
30
0
11
-55942.5
21
238277.5
31
0
0
LINE
8
interiors
10
-55977.5
20
238242.5
30
0
11
-55942.5
21
238242.5
31
0
0
LINE
8
interiors
10
-55977.5
20
238277.5
30
0
11
-55942.5
21
238277.5
31
0
0
LINE
8
interiors
10
-55977.5
20
238622.5
30
0
11
-55977.5
21
238657.5
31
0
0
LINE
8
interiors
10
-55942.5
20
238622.5
30
0
11
-55942.5
21
238657.5
31
0
0
LINE
8
interiors
10
-55977.5
20
238622.5
30
0
11
-55942.5
21
238622.5
31
0
0
LINE
8
interiors
10
-55977.5
20
238657.5
30
0
11
-55942.5
21
238657.5
31
0
0
LINE
8
interiors
10
-56450.0
20
239390.0
30
0
11
-56450.0
21
239450.0
31
0
0
LINE
8
interiors
10
-55850.0
20
239390.0
30
0
11
-55850.0
21
239450.0
31
0
0
LINE
8
interiors
10
-56450.0
20
239390.0
30
0
11
-55850.0
21
239390.0
31
0
0
LINE
8
interiors
10
-56450.0
20
239450.0
30
0
11
-55850.0
21
239450.0
31
0
0
LINE
8
interiors
10
-56180.0
20
239385.0
30
0
11
-56180.0
21
239455.0
31
0
0
LINE
8
interiors
10
-56120.0
20
239385.0
30
0
11
-56120.0
21
239455.0
31
0
0
LINE
8
interiors
10
-56180.0
20
239385.0
30
0
11
-56120.0
21
239385.0
31
0
0
LINE
8
interiors
10
-56180.0
20
239455.0
30
0
11
-56120.0
21
239455.0
31
0
0
LINE
8
interiors
10
-56300.0
20
239310.0
30
0
11
-56300.0
21
239530.0
31
0
0
LINE
8
interiors
10
-56000.0
20
239310.0
30
0
11
-56000.0
21
239530.0
31
0
0
LINE
8
interiors
10
-56300.0
20
239310.0
30
0
11
-56000.0
21
239310.0
31
0
0
LINE
8
interiors
10
-56300.0
20
239530.0
30
0
11
-56000.0
21
239530.0
31
0
0
LINE
8
interiors
10
-53750.0
20
238750.0
30
0
11
-53750.0
21
239650.0
31
0
0
LINE
8
interiors
10
-51950.0
20
238750.0
30
0
11
-51950.0
21
239650.0
31
0
0
LINE
8
interiors
10
-53750.0
20
238750.0
30
0
11
-51950.0
21
238750.0
31
0
0
LINE
8
interiors
10
-53750.0
20
239650.0
30
0
11
-51950.0
21
239650.0
31
0
0
LINE
8
interiors
10
-53685.0
20
238815.0
30
0
11
-53685.0
21
238885.0
31
0
0
LINE
8
interiors
10
-53615.0
20
238815.0
30
0
11
-53615.0
21
238885.0
31
0
0
LINE
8
interiors
10
-53685.0
20
238815.0
30
0
11
-53615.0
21
238815.0
31
0
0
LINE
8
interiors
10
-53685.0
20
238885.0
30
0
11
-53615.0
21
238885.0
31
0
0
LINE
8
interiors
10
-53685.0
20
239515.0
30
0
11
-53685.0
21
239585.0
31
0
0
LINE
8
interiors
10
-53615.0
20
239515.0
30
0
11
-53615.0
21
239585.0
31
0
0
LINE
8
interiors
10
-53685.0
20
239515.0
30
0
11
-53615.0
21
239515.0
31
0
0
LINE
8
interiors
10
-53685.0
20
239585.0
30
0
11
-53615.0
21
239585.0
31
0
0
LINE
8
interiors
10
-52085.0
20
238815.0
30
0
11
-52085.0
21
238885.0
31
0
0
LINE
8
interiors
10
-52015.0
20
238815.0
30
0
11
-52015.0
21
238885.0
31
0
0
LINE
8
interiors
10
-52085.0
20
238815.0
30
0
11
-52015.0
21
238815.0
31
0
0
LINE
8
interiors
10
-52085.0
20
238885.0
30
0
11
-52015.0
21
238885.0
31
0
0
LINE
8
interiors
10
-52085.0
20
239515.0
30
0
11
-52085.0
21
239585.0
31
0
0
LINE
8
interiors
10
-52015.0
20
239515.0
30
0
11
-52015.0
21
239585.0
31
0
0
LINE
8
interiors
10
-52085.0
20
239515.0
30
0
11
-52015.0
21
239515.0
31
0
0
LINE
8
interiors
10
-52085.0
20
239585.0
30
0
11
-52015.0
21
239585.0
31
0
0
LINE
8
interiors
10
-53090.0
20
238210.0
30
0
11
-53090.0
21
238690.0
31
0
0
LINE
8
interiors
10
-52610.0
20
238210.0
30
0
11
-52610.0
21
238690.0
31
0
0
LINE
8
interiors
10
-53090.0
20
238210.0
30
0
11
-52610.0
21
238210.0
31
0
0
LINE
8
interiors
10
-53090.0
20
238690.0
30
0
11
-52610.0
21
238690.0
31
0
0
LINE
8
interiors
10
-53090.0
20
238627.5
30
0
11
-53090.0
21
238692.5
31
0
0
LINE
8
interiors
10
-52610.0
20
238627.5
30
0
11
-52610.0
21
238692.5
31
0
0
LINE
8
interiors
10
-53090.0
20
238627.5
30
0
11
-52610.0
21
238627.5
31
0
0
LINE
8
interiors
10
-53090.0
20
238692.5
30
0
11
-52610.0
21
238692.5
31
0
0
LINE
8
interiors
10
-53057.5
20
238242.5
30
0
11
-53057.5
21
238277.5
31
0
0
LINE
8
interiors
10
-53022.5
20
238242.5
30
0
11
-53022.5
21
238277.5
31
0
0
LINE
8
interiors
10
-53057.5
20
238242.5
30
0
11
-53022.5
21
238242.5
31
0
0
LINE
8
interiors
10
-53057.5
20
238277.5
30
0
11
-53022.5
21
238277.5
31
0
0
LINE
8
interiors
10
-53057.5
20
238622.5
30
0
11
-53057.5
21
238657.5
31
0
0
LINE
8
interiors
10
-53022.5
20
238622.5
30
0
11
-53022.5
21
238657.5
31
0
0
LINE
8
interiors
10
-53057.5
20
238622.5
30
0
11
-53022.5
21
238622.5
31
0
0
LINE
8
interiors
10
-53057.5
20
238657.5
30
0
11
-53022.5
21
238657.5
31
0
0
LINE
8
interiors
10
-52677.5
20
238242.5
30
0
11
-52677.5
21
238277.5
31
0
0
LINE
8
interiors
10
-52642.5
20
238242.5
30
0
11
-52642.5
21
238277.5
31
0
0
LINE
8
interiors
10
-52677.5
20
238242.5
30
0
11
-52642.5
21
238242.5
31
0
0
LINE
8
interiors
10
-52677.5
20
238277.5
30
0
11
-52642.5
21
238277.5
31
0
0
LINE
8
interiors
10
-52677.5
20
238622.5
30
0
11
-52677.5
21
238657.5
31
0
0
LINE
8
interiors
10
-52642.5
20
238622.5
30
0
11
-52642.5
21
238657.5
31
0
0
LINE
8
interiors
10
-52677.5
20
238622.5
30
0
11
-52642.5
21
238622.5
31
0
0
LINE
8
interiors
10
-52677.5
20
238657.5
30
0
11
-52642.5
21
238657.5
31
0
0
LINE
8
interiors
10
-53150.0
20
239390.0
30
0
11
-53150.0
21
239450.0
31
0
0
LINE
8
interiors
10
-52550.0
20
239390.0
30
0
11
-52550.0
21
239450.0
31
0
0
LINE
8
interiors
10
-53150.0
20
239390.0
30
0
11
-52550.0
21
239390.0
31
0
0
LINE
8
interiors
10
-53150.0
20
239450.0
30
0
11
-52550.0
21
239450.0
31
0
0
LINE
8
interiors
10
-52880.0
20
239385.0
30
0
11
-52880.0
21
239455.0
31
0
0
LINE
8
interiors
10
-52820.0
20
239385.0
30
0
11
-52820.0
21
239455.0
31
0
0
LINE
8
interiors
10
-52880.0
20
239385.0
30
0
11
-52820.0
21
239385.0
31
0
0
LINE
8
interiors
10
-52880.0
20
239455.0
30
0
11
-52820.0
21
239455.0
31
0
0
LINE
8
interiors
10
-53000.0
20
239310.0
30
0
11
-53000.0
21
239530.0
31
0
0
LINE
8
interiors
10
-52700.0
20
239310.0
30
0
11
-52700.0
21
239530.0
31
0
0
LINE
8
interiors
10
-53000.0
20
239310.0
30
0
11
-52700.0
21
239310.0
31
0
0
LINE
8
interiors
10
-53000.0
20
239530.0
30
0
11
-52700.0
21
239530.0
31
0
0
LINE
8
electrical
10
-51475.0
20
232075.0
30
0
11
-51475.0
21
232325.0
31
0
0
LINE
8
electrical
10
-50925.0
20
232075.0
30
0
11
-50925.0
21
232325.0
31
0
0
LINE
8
electrical
10
-51475.0
20
232075.0
30
0
11
-50925.0
21
232075.0
31
0
0
LINE
8
electrical
10
-51475.0
20
232325.0
30
0
11
-50925.0
21
232325.0
31
0
0
LINE
8
electrical
10
-51435.0
20
232047.5
30
0
11
-51435.0
21
232082.5
31
0
0
LINE
8
electrical
10
-50965.0
20
232047.5
30
0
11
-50965.0
21
232082.5
31
0
0
LINE
8
electrical
10
-51435.0
20
232047.5
30
0
11
-50965.0
21
232047.5
31
0
0
LINE
8
electrical
10
-51435.0
20
232082.5
30
0
11
-50965.0
21
232082.5
31
0
0
LINE
8
electrical
10
-51387.5
20
232010.0
30
0
11
-51387.5
21
232050.0
31
0
0
LINE
8
electrical
10
-51287.5
20
232010.0
30
0
11
-51287.5
21
232050.0
31
0
0
LINE
8
electrical
10
-51387.5
20
232010.0
30
0
11
-51287.5
21
232010.0
31
0
0
LINE
8
electrical
10
-51387.5
20
232050.0
30
0
11
-51287.5
21
232050.0
31
0
0
LINE
8
electrical
10
-51250.0
20
232010.0
30
0
11
-51250.0
21
232050.0
31
0
0
LINE
8
electrical
10
-51150.0
20
232010.0
30
0
11
-51150.0
21
232050.0
31
0
0
LINE
8
electrical
10
-51250.0
20
232010.0
30
0
11
-51150.0
21
232010.0
31
0
0
LINE
8
electrical
10
-51250.0
20
232050.0
30
0
11
-51150.0
21
232050.0
31
0
0
LINE
8
electrical
10
-51112.5
20
232010.0
30
0
11
-51112.5
21
232050.0
31
0
0
LINE
8
electrical
10
-51012.5
20
232010.0
30
0
11
-51012.5
21
232050.0
31
0
0
LINE
8
electrical
10
-51112.5
20
232010.0
30
0
11
-51012.5
21
232010.0
31
0
0
LINE
8
electrical
10
-51112.5
20
232050.0
30
0
11
-51012.5
21
232050.0
31
0
0
LINE
8
electrical
10
-51337.5
20
231995.0
30
0
11
-51314.12
21
231995.0
31
0
0
LINE
8
electrical
10
-51314.12
20
231995.0
30
0
11
-51360.88
21
231995.0
31
0
0
LINE
8
electrical
10
-51360.88
20
231995.0
30
0
11
-51337.5
21
231995.0
31
0
0
LINE
8
electrical
10
-51337.5
20
232020.0
30
0
11
-51337.5
21
231995.0
31
0
0
LINE
8
electrical
10
-51337.5
20
232020.0
30
0
11
-51314.12
21
232020.0
31
0
0
LINE
8
electrical
10
-51314.12
20
232020.0
30
0
11
-51360.88
21
232020.0
31
0
0
LINE
8
electrical
10
-51360.88
20
232020.0
30
0
11
-51337.5
21
232020.0
31
0
0
LINE
8
electrical
10
-51200.0
20
231995.0
30
0
11
-51176.62
21
231995.0
31
0
0
LINE
8
electrical
10
-51176.62
20
231995.0
30
0
11
-51223.38
21
231995.0
31
0
0
LINE
8
electrical
10
-51223.38
20
231995.0
30
0
11
-51200.0
21
231995.0
31
0
0
LINE
8
electrical
10
-51200.0
20
232020.0
30
0
11
-51200.0
21
231995.0
31
0
0
LINE
8
electrical
10
-51200.0
20
232020.0
30
0
11
-51176.62
21
232020.0
31
0
0
LINE
8
electrical
10
-51176.62
20
232020.0
30
0
11
-51223.38
21
232020.0
31
0
0
LINE
8
electrical
10
-51223.38
20
232020.0
30
0
11
-51200.0
21
232020.0
31
0
0
LINE
8
electrical
10
-51062.5
20
231995.0
30
0
11
-51039.12
21
231995.0
31
0
0
LINE
8
electrical
10
-51039.12
20
231995.0
30
0
11
-51085.88
21
231995.0
31
0
0
LINE
8
electrical
10
-51085.88
20
231995.0
30
0
11
-51062.5
21
231995.0
31
0
0
LINE
8
electrical
10
-51062.5
20
232020.0
30
0
11
-51062.5
21
231995.0
31
0
0
LINE
8
electrical
10
-51062.5
20
232020.0
30
0
11
-51039.12
21
232020.0
31
0
0
LINE
8
electrical
10
-51039.12
20
232020.0
30
0
11
-51085.88
21
232020.0
31
0
0
LINE
8
electrical
10
-51085.88
20
232020.0
30
0
11
-51062.5
21
232020.0
31
0
0
LINE
8
electrical
10
-51200.0
20
232200.0
30
0
11
-51184.41
21
232200.0
31
0
0
LINE
8
electrical
10
-51184.41
20
232200.0
30
0
11
-51215.59
21
232200.0
31
0
0
LINE
8
electrical
10
-51215.59
20
232200.0
30
0
11
-51200.0
21
232200.0
31
0
0
LINE
8
electrical
10
-51200.0
20
220200.0
30
0
11
-51200.0
21
232200.0
31
0
0
LINE
8
electrical
10
-51200.0
20
220200.0
30
0
11
-51184.41
21
220200.0
31
0
0
LINE
8
electrical
10
-51184.41
20
220200.0
30
0
11
-51215.59
21
220200.0
31
0
0
LINE
8
electrical
10
-51215.59
20
220200.0
30
0
11
-51200.0
21
220200.0
31
0
0
LINE
8
electrical
10
-51218.0
20
232200.0
30
0
11
-51191.0
21
232215.59
31
0
0
LINE
8
electrical
10
-51191.0
20
232215.59
30
0
11
-51191.0
21
232184.41
31
0
0
LINE
8
electrical
10
-51191.0
20
232184.41
30
0
11
-51218.0
21
232200.0
31
0
0
LINE
8
electrical
10
-51200.0
20
232200.0
30
0
11
-51180.56
21
232200.0
31
0
0
LINE
8
electrical
10
-51180.56
20
232200.0
30
0
11
-51200.0
21
232200.0
31
0
0
LINE
8
lighting
10
-57520.0
20
233280.0
30
0
11
-57520.0
21
233920.0
31
0
0
LINE
8
lighting
10
-56880.0
20
233280.0
30
0
11
-56880.0
21
233920.0
31
0
0
LINE
8
lighting
10
-57520.0
20
233280.0
30
0
11
-56880.0
21
233280.0
31
0
0
LINE
8
lighting
10
-57520.0
20
233920.0
30
0
11
-56880.0
21
233920.0
31
0
0
LINE
8
lighting
10
-57480.0
20
233320.0
30
0
11
-57480.0
21
233880.0
31
0
0
LINE
8
lighting
10
-56920.0
20
233320.0
30
0
11
-56920.0
21
233880.0
31
0
0
LINE
8
lighting
10
-57480.0
20
233320.0
30
0
11
-56920.0
21
233320.0
31
0
0
LINE
8
lighting
10
-57480.0
20
233880.0
30
0
11
-56920.0
21
233880.0
31
0
0
LINE
8
lighting
10
-57446.0
20
233330.0
30
0
11
-57446.0
21
233870.0
31
0
0
LINE
8
lighting
10
-57434.0
20
233330.0
30
0
11
-57434.0
21
233870.0
31
0
0
LINE
8
lighting
10
-57446.0
20
233330.0
30
0
11
-57434.0
21
233330.0
31
0
0
LINE
8
lighting
10
-57446.0
20
233870.0
30
0
11
-57434.0
21
233870.0
31
0
0
LINE
8
lighting
10
-57366.0
20
233330.0
30
0
11
-57366.0
21
233870.0
31
0
0
LINE
8
lighting
10
-57354.0
20
233330.0
30
0
11
-57354.0
21
233870.0
31
0
0
LINE
8
lighting
10
-57366.0
20
233330.0
30
0
11
-57354.0
21
233330.0
31
0
0
LINE
8
lighting
10
-57366.0
20
233870.0
30
0
11
-57354.0
21
233870.0
31
0
0
LINE
8
lighting
10
-57286.0
20
233330.0
30
0
11
-57286.0
21
233870.0
31
0
0
LINE
8
lighting
10
-57274.0
20
233330.0
30
0
11
-57274.0
21
233870.0
31
0
0
LINE
8
lighting
10
-57286.0
20
233330.0
30
0
11
-57274.0
21
233330.0
31
0
0
LINE
8
lighting
10
-57286.0
20
233870.0
30
0
11
-57274.0
21
233870.0
31
0
0
LINE
8
lighting
10
-57206.0
20
233330.0
30
0
11
-57206.0
21
233870.0
31
0
0
LINE
8
lighting
10
-57194.0
20
233330.0
30
0
11
-57194.0
21
233870.0
31
0
0
LINE
8
lighting
10
-57206.0
20
233330.0
30
0
11
-57194.0
21
233330.0
31
0
0
LINE
8
lighting
10
-57206.0
20
233870.0
30
0
11
-57194.0
21
233870.0
31
0
0
LINE
8
lighting
10
-57126.0
20
233330.0
30
0
11
-57126.0
21
233870.0
31
0
0
LINE
8
lighting
10
-57114.0
20
233330.0
30
0
11
-57114.0
21
233870.0
31
0
0
LINE
8
lighting
10
-57126.0
20
233330.0
30
0
11
-57114.0
21
233330.0
31
0
0
LINE
8
lighting
10
-57126.0
20
233870.0
30
0
11
-57114.0
21
233870.0
31
0
0
LINE
8
lighting
10
-57046.0
20
233330.0
30
0
11
-57046.0
21
233870.0
31
0
0
LINE
8
lighting
10
-57034.0
20
233330.0
30
0
11
-57034.0
21
233870.0
31
0
0
LINE
8
lighting
10
-57046.0
20
233330.0
30
0
11
-57034.0
21
233330.0
31
0
0
LINE
8
lighting
10
-57046.0
20
233870.0
30
0
11
-57034.0
21
233870.0
31
0
0
LINE
8
lighting
10
-56966.0
20
233330.0
30
0
11
-56966.0
21
233870.0
31
0
0
LINE
8
lighting
10
-56954.0
20
233330.0
30
0
11
-56954.0
21
233870.0
31
0
0
LINE
8
lighting
10
-56966.0
20
233330.0
30
0
11
-56954.0
21
233330.0
31
0
0
LINE
8
lighting
10
-56966.0
20
233870.0
30
0
11
-56954.0
21
233870.0
31
0
0
LINE
8
lighting
10
-57191.0
20
233600.0
30
0
11
-57204.5
21
233607.79
31
0
0
LINE
8
lighting
10
-57204.5
20
233607.79
30
0
11
-57204.5
21
233592.21
31
0
0
LINE
8
lighting
10
-57204.5
20
233592.21
30
0
11
-57191.0
21
233600.0
31
0
0
LINE
8
lighting
10
-52120.0
20
233280.0
30
0
11
-52120.0
21
233920.0
31
0
0
LINE
8
lighting
10
-51480.0
20
233280.0
30
0
11
-51480.0
21
233920.0
31
0
0
LINE
8
lighting
10
-52120.0
20
233280.0
30
0
11
-51480.0
21
233280.0
31
0
0
LINE
8
lighting
10
-52120.0
20
233920.0
30
0
11
-51480.0
21
233920.0
31
0
0
LINE
8
lighting
10
-52080.0
20
233320.0
30
0
11
-52080.0
21
233880.0
31
0
0
LINE
8
lighting
10
-51520.0
20
233320.0
30
0
11
-51520.0
21
233880.0
31
0
0
LINE
8
lighting
10
-52080.0
20
233320.0
30
0
11
-51520.0
21
233320.0
31
0
0
LINE
8
lighting
10
-52080.0
20
233880.0
30
0
11
-51520.0
21
233880.0
31
0
0
LINE
8
lighting
10
-52046.0
20
233330.0
30
0
11
-52046.0
21
233870.0
31
0
0
LINE
8
lighting
10
-52034.0
20
233330.0
30
0
11
-52034.0
21
233870.0
31
0
0
LINE
8
lighting
10
-52046.0
20
233330.0
30
0
11
-52034.0
21
233330.0
31
0
0
LINE
8
lighting
10
-52046.0
20
233870.0
30
0
11
-52034.0
21
233870.0
31
0
0
LINE
8
lighting
10
-51966.0
20
233330.0
30
0
11
-51966.0
21
233870.0
31
0
0
LINE
8
lighting
10
-51954.0
20
233330.0
30
0
11
-51954.0
21
233870.0
31
0
0
LINE
8
lighting
10
-51966.0
20
233330.0
30
0
11
-51954.0
21
233330.0
31
0
0
LINE
8
lighting
10
-51966.0
20
233870.0
30
0
11
-51954.0
21
233870.0
31
0
0
LINE
8
lighting
10
-51886.0
20
233330.0
30
0
11
-51886.0
21
233870.0
31
0
0
LINE
8
lighting
10
-51874.0
20
233330.0
30
0
11
-51874.0
21
233870.0
31
0
0
LINE
8
lighting
10
-51886.0
20
233330.0
30
0
11
-51874.0
21
233330.0
31
0
0
LINE
8
lighting
10
-51886.0
20
233870.0
30
0
11
-51874.0
21
233870.0
31
0
0
LINE
8
lighting
10
-51806.0
20
233330.0
30
0
11
-51806.0
21
233870.0
31
0
0
LINE
8
lighting
10
-51794.0
20
233330.0
30
0
11
-51794.0
21
233870.0
31
0
0
LINE
8
lighting
10
-51806.0
20
233330.0
30
0
11
-51794.0
21
233330.0
31
0
0
LINE
8
lighting
10
-51806.0
20
233870.0
30
0
11
-51794.0
21
233870.0
31
0
0
LINE
8
lighting
10
-51726.0
20
233330.0
30
0
11
-51726.0
21
233870.0
31
0
0
LINE
8
lighting
10
-51714.0
20
233330.0
30
0
11
-51714.0
21
233870.0
31
0
0
LINE
8
lighting
10
-51726.0
20
233330.0
30
0
11
-51714.0
21
233330.0
31
0
0
LINE
8
lighting
10
-51726.0
20
233870.0
30
0
11
-51714.0
21
233870.0
31
0
0
LINE
8
lighting
10
-51646.0
20
233330.0
30
0
11
-51646.0
21
233870.0
31
0
0
LINE
8
lighting
10
-51634.0
20
233330.0
30
0
11
-51634.0
21
233870.0
31
0
0
LINE
8
lighting
10
-51646.0
20
233330.0
30
0
11
-51634.0
21
233330.0
31
0
0
LINE
8
lighting
10
-51646.0
20
233870.0
30
0
11
-51634.0
21
233870.0
31
0
0
LINE
8
lighting
10
-51566.0
20
233330.0
30
0
11
-51566.0
21
233870.0
31
0
0
LINE
8
lighting
10
-51554.0
20
233330.0
30
0
11
-51554.0
21
233870.0
31
0
0
LINE
8
lighting
10
-51566.0
20
233330.0
30
0
11
-51554.0
21
233330.0
31
0
0
LINE
8
lighting
10
-51566.0
20
233870.0
30
0
11
-51554.0
21
233870.0
31
0
0
LINE
8
lighting
10
-51791.0
20
233600.0
30
0
11
-51804.5
21
233607.79
31
0
0
LINE
8
lighting
10
-51804.5
20
233607.79
30
0
11
-51804.5
21
233592.21
31
0
0
LINE
8
lighting
10
-51804.5
20
233592.21
30
0
11
-51791.0
21
233600.0
31
0
0
LINE
8
lighting
10
-57520.0
20
240080.0
30
0
11
-57520.0
21
240720.0
31
0
0
LINE
8
lighting
10
-56880.0
20
240080.0
30
0
11
-56880.0
21
240720.0
31
0
0
LINE
8
lighting
10
-57520.0
20
240080.0
30
0
11
-56880.0
21
240080.0
31
0
0
LINE
8
lighting
10
-57520.0
20
240720.0
30
0
11
-56880.0
21
240720.0
31
0
0
LINE
8
lighting
10
-57480.0
20
240120.0
30
0
11
-57480.0
21
240680.0
31
0
0
LINE
8
lighting
10
-56920.0
20
240120.0
30
0
11
-56920.0
21
240680.0
31
0
0
LINE
8
lighting
10
-57480.0
20
240120.0
30
0
11
-56920.0
21
240120.0
31
0
0
LINE
8
lighting
10
-57480.0
20
240680.0
30
0
11
-56920.0
21
240680.0
31
0
0
LINE
8
lighting
10
-57446.0
20
240130.0
30
0
11
-57446.0
21
240670.0
31
0
0
LINE
8
lighting
10
-57434.0
20
240130.0
30
0
11
-57434.0
21
240670.0
31
0
0
LINE
8
lighting
10
-57446.0
20
240130.0
30
0
11
-57434.0
21
240130.0
31
0
0
LINE
8
lighting
10
-57446.0
20
240670.0
30
0
11
-57434.0
21
240670.0
31
0
0
LINE
8
lighting
10
-57366.0
20
240130.0
30
0
11
-57366.0
21
240670.0
31
0
0
LINE
8
lighting
10
-57354.0
20
240130.0
30
0
11
-57354.0
21
240670.0
31
0
0
LINE
8
lighting
10
-57366.0
20
240130.0
30
0
11
-57354.0
21
240130.0
31
0
0
LINE
8
lighting
10
-57366.0
20
240670.0
30
0
11
-57354.0
21
240670.0
31
0
0
LINE
8
lighting
10
-57286.0
20
240130.0
30
0
11
-57286.0
21
240670.0
31
0
0
LINE
8
lighting
10
-57274.0
20
240130.0
30
0
11
-57274.0
21
240670.0
31
0
0
LINE
8
lighting
10
-57286.0
20
240130.0
30
0
11
-57274.0
21
240130.0
31
0
0
LINE
8
lighting
10
-57286.0
20
240670.0
30
0
11
-57274.0
21
240670.0
31
0
0
LINE
8
lighting
10
-57206.0
20
240130.0
30
0
11
-57206.0
21
240670.0
31
0
0
LINE
8
lighting
10
-57194.0
20
240130.0
30
0
11
-57194.0
21
240670.0
31
0
0
LINE
8
lighting
10
-57206.0
20
240130.0
30
0
11
-57194.0
21
240130.0
31
0
0
LINE
8
lighting
10
-57206.0
20
240670.0
30
0
11
-57194.0
21
240670.0
31
0
0
LINE
8
lighting
10
-57126.0
20
240130.0
30
0
11
-57126.0
21
240670.0
31
0
0
LINE
8
lighting
10
-57114.0
20
240130.0
30
0
11
-57114.0
21
240670.0
31
0
0
LINE
8
lighting
10
-57126.0
20
240130.0
30
0
11
-57114.0
21
240130.0
31
0
0
LINE
8
lighting
10
-57126.0
20
240670.0
30
0
11
-57114.0
21
240670.0
31
0
0
LINE
8
lighting
10
-57046.0
20
240130.0
30
0
11
-57046.0
21
240670.0
31
0
0
LINE
8
lighting
10
-57034.0
20
240130.0
30
0
11
-57034.0
21
240670.0
31
0
0
LINE
8
lighting
10
-57046.0
20
240130.0
30
0
11
-57034.0
21
240130.0
31
0
0
LINE
8
lighting
10
-57046.0
20
240670.0
30
0
11
-57034.0
21
240670.0
31
0
0
LINE
8
lighting
10
-56966.0
20
240130.0
30
0
11
-56966.0
21
240670.0
31
0
0
LINE
8
lighting
10
-56954.0
20
240130.0
30
0
11
-56954.0
21
240670.0
31
0
0
LINE
8
lighting
10
-56966.0
20
240130.0
30
0
11
-56954.0
21
240130.0
31
0
0
LINE
8
lighting
10
-56966.0
20
240670.0
30
0
11
-56954.0
21
240670.0
31
0
0
LINE
8
lighting
10
-57191.0
20
240400.0
30
0
11
-57204.5
21
240407.79
31
0
0
LINE
8
lighting
10
-57204.5
20
240407.79
30
0
11
-57204.5
21
240392.21
31
0
0
LINE
8
lighting
10
-57204.5
20
240392.21
30
0
11
-57191.0
21
240400.0
31
0
0
LINE
8
lighting
10
-52120.0
20
240080.0
30
0
11
-52120.0
21
240720.0
31
0
0
LINE
8
lighting
10
-51480.0
20
240080.0
30
0
11
-51480.0
21
240720.0
31
0
0
LINE
8
lighting
10
-52120.0
20
240080.0
30
0
11
-51480.0
21
240080.0
31
0
0
LINE
8
lighting
10
-52120.0
20
240720.0
30
0
11
-51480.0
21
240720.0
31
0
0
LINE
8
lighting
10
-52080.0
20
240120.0
30
0
11
-52080.0
21
240680.0
31
0
0
LINE
8
lighting
10
-51520.0
20
240120.0
30
0
11
-51520.0
21
240680.0
31
0
0
LINE
8
lighting
10
-52080.0
20
240120.0
30
0
11
-51520.0
21
240120.0
31
0
0
LINE
8
lighting
10
-52080.0
20
240680.0
30
0
11
-51520.0
21
240680.0
31
0
0
LINE
8
lighting
10
-52046.0
20
240130.0
30
0
11
-52046.0
21
240670.0
31
0
0
LINE
8
lighting
10
-52034.0
20
240130.0
30
0
11
-52034.0
21
240670.0
31
0
0
LINE
8
lighting
10
-52046.0
20
240130.0
30
0
11
-52034.0
21
240130.0
31
0
0
LINE
8
lighting
10
-52046.0
20
240670.0
30
0
11
-52034.0
21
240670.0
31
0
0
LINE
8
lighting
10
-51966.0
20
240130.0
30
0
11
-51966.0
21
240670.0
31
0
0
LINE
8
lighting
10
-51954.0
20
240130.0
30
0
11
-51954.0
21
240670.0
31
0
0
LINE
8
lighting
10
-51966.0
20
240130.0
30
0
11
-51954.0
21
240130.0
31
0
0
LINE
8
lighting
10
-51966.0
20
240670.0
30
0
11
-51954.0
21
240670.0
31
0
0
LINE
8
lighting
10
-51886.0
20
240130.0
30
0
11
-51886.0
21
240670.0
31
0
0
LINE
8
lighting
10
-51874.0
20
240130.0
30
0
11
-51874.0
21
240670.0
31
0
0
LINE
8
lighting
10
-51886.0
20
240130.0
30
0
11
-51874.0
21
240130.0
31
0
0
LINE
8
lighting
10
-51886.0
20
240670.0
30
0
11
-51874.0
21
240670.0
31
0
0
LINE
8
lighting
10
-51806.0
20
240130.0
30
0
11
-51806.0
21
240670.0
31
0
0
LINE
8
lighting
10
-51794.0
20
240130.0
30
0
11
-51794.0
21
240670.0
31
0
0
LINE
8
lighting
10
-51806.0
20
240130.0
30
0
11
-51794.0
21
240130.0
31
0
0
LINE
8
lighting
10
-51806.0
20
240670.0
30
0
11
-51794.0
21
240670.0
31
0
0
LINE
8
lighting
10
-51726.0
20
240130.0
30
0
11
-51726.0
21
240670.0
31
0
0
LINE
8
lighting
10
-51714.0
20
240130.0
30
0
11
-51714.0
21
240670.0
31
0
0
LINE
8
lighting
10
-51726.0
20
240130.0
30
0
11
-51714.0
21
240130.0
31
0
0
LINE
8
lighting
10
-51726.0
20
240670.0
30
0
11
-51714.0
21
240670.0
31
0
0
LINE
8
lighting
10
-51646.0
20
240130.0
30
0
11
-51646.0
21
240670.0
31
0
0
LINE
8
lighting
10
-51634.0
20
240130.0
30
0
11
-51634.0
21
240670.0
31
0
0
LINE
8
lighting
10
-51646.0
20
240130.0
30
0
11
-51634.0
21
240130.0
31
0
0
LINE
8
lighting
10
-51646.0
20
240670.0
30
0
11
-51634.0
21
240670.0
31
0
0
LINE
8
lighting
10
-51566.0
20
240130.0
30
0
11
-51566.0
21
240670.0
31
0
0
LINE
8
lighting
10
-51554.0
20
240130.0
30
0
11
-51554.0
21
240670.0
31
0
0
LINE
8
lighting
10
-51566.0
20
240130.0
30
0
11
-51554.0
21
240130.0
31
0
0
LINE
8
lighting
10
-51566.0
20
240670.0
30
0
11
-51554.0
21
240670.0
31
0
0
LINE
8
lighting
10
-51791.0
20
240400.0
30
0
11
-51804.5
21
240407.79
31
0
0
LINE
8
lighting
10
-51804.5
20
240407.79
30
0
11
-51804.5
21
240392.21
31
0
0
LINE
8
lighting
10
-51804.5
20
240392.21
30
0
11
-51791.0
21
240400.0
31
0
0
LINE
8
electrical
10
-57200.0
20
233380.0
30
0
11
-57200.0
21
233372.21
31
0
0
LINE
8
electrical
10
-57200.0
20
233372.21
30
0
11
-57200.0
21
233387.79
31
0
0
LINE
8
electrical
10
-57200.0
20
233387.79
30
0
11
-57200.0
21
233380.0
31
0
0
LINE
8
electrical
10
-51200.0
20
233380.0
30
0
11
-57200.0
21
233380.0
31
0
0
LINE
8
electrical
10
-51200.0
20
233380.0
30
0
11
-51200.0
21
233372.21
31
0
0
LINE
8
electrical
10
-51200.0
20
233372.21
30
0
11
-51200.0
21
233387.79
31
0
0
LINE
8
electrical
10
-51200.0
20
233387.79
30
0
11
-51200.0
21
233380.0
31
0
0
LINE
8
electrical
10
-57200.0
20
240400.0
30
0
11
-57192.21
21
240400.0
31
0
0
LINE
8
electrical
10
-57192.21
20
240400.0
30
0
11
-57207.79
21
240400.0
31
0
0
LINE
8
electrical
10
-57207.79
20
240400.0
30
0
11
-57200.0
21
240400.0
31
0
0
LINE
8
electrical
10
-57200.0
20
233380.0
30
0
11
-57200.0
21
240400.0
31
0
0
LINE
8
electrical
10
-57200.0
20
233380.0
30
0
11
-57192.21
21
233380.0
31
0
0
LINE
8
electrical
10
-57192.21
20
233380.0
30
0
11
-57207.79
21
233380.0
31
0
0
LINE
8
electrical
10
-57207.79
20
233380.0
30
0
11
-57200.0
21
233380.0
31
0
0
LINE
8
electrical
10
-51800.0
20
240400.0
30
0
11
-51792.21
21
240400.0
31
0
0
LINE
8
electrical
10
-51792.21
20
240400.0
30
0
11
-51807.79
21
240400.0
31
0
0
LINE
8
electrical
10
-51807.79
20
240400.0
30
0
11
-51800.0
21
240400.0
31
0
0
LINE
8
electrical
10
-51800.0
20
233380.0
30
0
11
-51800.0
21
240400.0
31
0
0
LINE
8
electrical
10
-51800.0
20
233380.0
30
0
11
-51792.21
21
233380.0
31
0
0
LINE
8
electrical
10
-51792.21
20
233380.0
30
0
11
-51807.79
21
233380.0
31
0
0
LINE
8
electrical
10
-51807.79
20
233380.0
30
0
11
-51800.0
21
233380.0
31
0
0
LINE
8
electrical
10
-51187.0
20
232200.0
30
0
11
-51206.5
21
232211.26
31
0
0
LINE
8
electrical
10
-51206.5
20
232211.26
30
0
11
-51206.5
21
232188.74
31
0
0
LINE
8
electrical
10
-51206.5
20
232188.74
30
0
11
-51187.0
21
232200.0
31
0
0
LINE
8
electrical
10
-51863.72
20
233386.45
30
0
11
-51880.64
21
233376.77
31
0
0
LINE
8
electrical
10
-51880.64
20
233376.77
30
0
11
-51880.64
21
233376.77
31
0
0
LINE
8
electrical
10
-51880.64
20
233376.77
30
0
11
-51863.72
21
233386.45
31
0
0
LINE
8
electrical
10
-51188.72
20
232206.45
30
0
11
-51863.72
21
233386.45
31
0
0
LINE
8
electrical
10
-51188.72
20
232206.45
30
0
11
-51205.64
21
232196.77
31
0
0
LINE
8
electrical
10
-51205.64
20
232196.77
30
0
11
-51205.64
21
232196.77
31
0
0
LINE
8
electrical
10
-51205.64
20
232196.77
30
0
11
-51188.72
21
232206.45
31
0
0
LINE
8
electrical
10
-57125.0
20
233380.0
30
0
11
-57125.0
21
233368.74
31
0
0
LINE
8
electrical
10
-57125.0
20
233368.74
30
0
11
-57125.0
21
233391.26
31
0
0
LINE
8
electrical
10
-57125.0
20
233391.26
30
0
11
-57125.0
21
233380.0
31
0
0
LINE
8
electrical
10
-51875.0
20
233380.0
30
0
11
-57125.0
21
233380.0
31
0
0
LINE
8
electrical
10
-51875.0
20
233380.0
30
0
11
-51875.0
21
233368.74
31
0
0
LINE
8
electrical
10
-51875.0
20
233368.74
30
0
11
-51875.0
21
233391.26
31
0
0
LINE
8
electrical
10
-51875.0
20
233391.26
30
0
11
-51875.0
21
233380.0
31
0
0
LINE
8
electrical
10
-51200.0
20
232200.0
30
0
11
-51185.96
21
232200.0
31
0
0
LINE
8
electrical
10
-51185.96
20
232200.0
30
0
11
-51200.0
21
232200.0
31
0
0
LINE
8
electrical
10
-51875.0
20
233380.0
30
0
11
-51860.96
21
233380.0
31
0
0
LINE
8
electrical
10
-51860.96
20
233380.0
30
0
11
-51875.0
21
233380.0
31
0
0
LINE
8
electrical
10
-51187.0
20
232200.0
30
0
11
-51206.5
21
232211.26
31
0
0
LINE
8
electrical
10
-51206.5
20
232211.26
30
0
11
-51206.5
21
232188.74
31
0
0
LINE
8
electrical
10
-51206.5
20
232188.74
30
0
11
-51187.0
21
232200.0
31
0
0
LINE
8
electrical
10
-51863.46
20
233505.99
30
0
11
-51880.77
21
233497.0
31
0
0
LINE
8
electrical
10
-51880.77
20
233497.0
30
0
11
-51880.77
21
233497.0
31
0
0
LINE
8
electrical
10
-51880.77
20
233497.0
30
0
11
-51863.46
21
233505.99
31
0
0
LINE
8
electrical
10
-51188.46
20
232205.99
30
0
11
-51863.46
21
233505.99
31
0
0
LINE
8
electrical
10
-51188.46
20
232205.99
30
0
11
-51205.77
21
232197.0
31
0
0
LINE
8
electrical
10
-51205.77
20
232197.0
30
0
11
-51205.77
21
232197.0
31
0
0
LINE
8
electrical
10
-51205.77
20
232197.0
30
0
11
-51188.46
21
232205.99
31
0
0
LINE
8
electrical
10
-57125.0
20
233500.0
30
0
11
-57125.0
21
233488.74
31
0
0
LINE
8
electrical
10
-57125.0
20
233488.74
30
0
11
-57125.0
21
233511.26
31
0
0
LINE
8
electrical
10
-57125.0
20
233511.26
30
0
11
-57125.0
21
233500.0
31
0
0
LINE
8
electrical
10
-51875.0
20
233500.0
30
0
11
-57125.0
21
233500.0
31
0
0
LINE
8
electrical
10
-51875.0
20
233500.0
30
0
11
-51875.0
21
233488.74
31
0
0
LINE
8
electrical
10
-51875.0
20
233488.74
30
0
11
-51875.0
21
233511.26
31
0
0
LINE
8
electrical
10
-51875.0
20
233511.26
30
0
11
-51875.0
21
233500.0
31
0
0
LINE
8
electrical
10
-51200.0
20
232200.0
30
0
11
-51185.96
21
232200.0
31
0
0
LINE
8
electrical
10
-51185.96
20
232200.0
30
0
11
-51200.0
21
232200.0
31
0
0
LINE
8
electrical
10
-51875.0
20
233500.0
30
0
11
-51860.96
21
233500.0
31
0
0
LINE
8
electrical
10
-51860.96
20
233500.0
30
0
11
-51875.0
21
233500.0
31
0
0
LINE
8
electrical
10
-51187.0
20
232200.0
30
0
11
-51206.5
21
232211.26
31
0
0
LINE
8
electrical
10
-51206.5
20
232211.26
30
0
11
-51206.5
21
232188.74
31
0
0
LINE
8
electrical
10
-51206.5
20
232188.74
30
0
11
-51187.0
21
232200.0
31
0
0
LINE
8
electrical
10
-51863.26
20
233625.58
30
0
11
-51880.87
21
233617.21
31
0
0
LINE
8
electrical
10
-51880.87
20
233617.21
30
0
11
-51880.87
21
233617.21
31
0
0
LINE
8
electrical
10
-51880.87
20
233617.21
30
0
11
-51863.26
21
233625.58
31
0
0
LINE
8
electrical
10
-51188.26
20
232205.58
30
0
11
-51863.26
21
233625.58
31
0
0
LINE
8
electrical
10
-51188.26
20
232205.58
30
0
11
-51205.87
21
232197.21
31
0
0
LINE
8
electrical
10
-51205.87
20
232197.21
30
0
11
-51205.87
21
232197.21
31
0
0
LINE
8
electrical
10
-51205.87
20
232197.21
30
0
11
-51188.26
21
232205.58
31
0
0
LINE
8
electrical
10
-57125.0
20
233620.0
30
0
11
-57125.0
21
233608.74
31
0
0
LINE
8
electrical
10
-57125.0
20
233608.74
30
0
11
-57125.0
21
233631.26
31
0
0
LINE
8
electrical
10
-57125.0
20
233631.26
30
0
11
-57125.0
21
233620.0
31
0
0
LINE
8
electrical
10
-51875.0
20
233620.0
30
0
11
-57125.0
21
233620.0
31
0
0
LINE
8
electrical
10
-51875.0
20
233620.0
30
0
11
-51875.0
21
233608.74
31
0
0
LINE
8
electrical
10
-51875.0
20
233608.74
30
0
11
-51875.0
21
233631.26
31
0
0
LINE
8
electrical
10
-51875.0
20
233631.26
30
0
11
-51875.0
21
233620.0
31
0
0
LINE
8
electrical
10
-51200.0
20
232200.0
30
0
11
-51185.96
21
232200.0
31
0
0
LINE
8
electrical
10
-51185.96
20
232200.0
30
0
11
-51200.0
21
232200.0
31
0
0
LINE
8
electrical
10
-51875.0
20
233620.0
30
0
11
-51860.96
21
233620.0
31
0
0
LINE
8
electrical
10
-51860.96
20
233620.0
30
0
11
-51875.0
21
233620.0
31
0
0
LINE
8
electrical
10
-56815.0
20
232150.0
30
0
11
-56815.0
21
232210.0
31
0
0
LINE
8
electrical
10
-56685.0
20
232150.0
30
0
11
-56685.0
21
232210.0
31
0
0
LINE
8
electrical
10
-56815.0
20
232150.0
30
0
11
-56685.0
21
232150.0
31
0
0
LINE
8
electrical
10
-56815.0
20
232210.0
30
0
11
-56685.0
21
232210.0
31
0
0
LINE
8
electrical
10
-56741.0
20
232180.0
30
0
11
-56754.5
21
232187.79
31
0
0
LINE
8
electrical
10
-56754.5
20
232187.79
30
0
11
-56754.5
21
232172.21
31
0
0
LINE
8
electrical
10
-56754.5
20
232172.21
30
0
11
-56741.0
21
232180.0
31
0
0
LINE
8
electrical
10
-51200.0
20
232180.0
30
0
11
-51200.0
21
232172.21
31
0
0
LINE
8
electrical
10
-51200.0
20
232172.21
30
0
11
-51200.0
21
232187.79
31
0
0
LINE
8
electrical
10
-51200.0
20
232187.79
30
0
11
-51200.0
21
232180.0
31
0
0
LINE
8
electrical
10
-56750.0
20
232180.0
30
0
11
-51200.0
21
232180.0
31
0
0
LINE
8
electrical
10
-56750.0
20
232180.0
30
0
11
-56750.0
21
232172.21
31
0
0
LINE
8
electrical
10
-56750.0
20
232172.21
30
0
11
-56750.0
21
232187.79
31
0
0
LINE
8
electrical
10
-56750.0
20
232187.79
30
0
11
-56750.0
21
232180.0
31
0
0
LINE
8
electrical
10
-56750.0
20
232180.0
30
0
11
-56740.28
21
232180.0
31
0
0
LINE
8
electrical
10
-56740.28
20
232180.0
30
0
11
-56750.0
21
232180.0
31
0
0
LINE
8
electrical
10
-52315.0
20
232150.0
30
0
11
-52315.0
21
232210.0
31
0
0
LINE
8
electrical
10
-52185.0
20
232150.0
30
0
11
-52185.0
21
232210.0
31
0
0
LINE
8
electrical
10
-52315.0
20
232150.0
30
0
11
-52185.0
21
232150.0
31
0
0
LINE
8
electrical
10
-52315.0
20
232210.0
30
0
11
-52185.0
21
232210.0
31
0
0
LINE
8
electrical
10
-52241.0
20
232180.0
30
0
11
-52254.5
21
232187.79
31
0
0
LINE
8
electrical
10
-52254.5
20
232187.79
30
0
11
-52254.5
21
232172.21
31
0
0
LINE
8
electrical
10
-52254.5
20
232172.21
30
0
11
-52241.0
21
232180.0
31
0
0
LINE
8
electrical
10
-51200.0
20
232180.0
30
0
11
-51200.0
21
232172.21
31
0
0
LINE
8
electrical
10
-51200.0
20
232172.21
30
0
11
-51200.0
21
232187.79
31
0
0
LINE
8
electrical
10
-51200.0
20
232187.79
30
0
11
-51200.0
21
232180.0
31
0
0
LINE
8
electrical
10
-52250.0
20
232180.0
30
0
11
-51200.0
21
232180.0
31
0
0
LINE
8
electrical
10
-52250.0
20
232180.0
30
0
11
-52250.0
21
232172.21
31
0
0
LINE
8
electrical
10
-52250.0
20
232172.21
30
0
11
-52250.0
21
232187.79
31
0
0
LINE
8
electrical
10
-52250.0
20
232187.79
30
0
11
-52250.0
21
232180.0
31
0
0
LINE
8
electrical
10
-52250.0
20
232180.0
30
0
11
-52240.28
21
232180.0
31
0
0
LINE
8
electrical
10
-52240.28
20
232180.0
30
0
11
-52250.0
21
232180.0
31
0
0
LINE
8
hvac
10
-57775.0
20
232725.0
30
0
11
-57775.0
21
233475.0
31
0
0
LINE
8
hvac
10
-56125.0
20
232725.0
30
0
11
-56125.0
21
233475.0
31
0
0
LINE
8
hvac
10
-57775.0
20
232725.0
30
0
11
-56125.0
21
232725.0
31
0
0
LINE
8
hvac
10
-57775.0
20
233475.0
30
0
11
-56125.0
21
233475.0
31
0
0
LINE
8
hvac
10
-57675.0
20
232680.0
30
0
11
-57675.0
21
232720.0
31
0
0
LINE
8
hvac
10
-56225.0
20
232680.0
30
0
11
-56225.0
21
232720.0
31
0
0
LINE
8
hvac
10
-57675.0
20
232680.0
30
0
11
-56225.0
21
232680.0
31
0
0
LINE
8
hvac
10
-57675.0
20
232720.0
30
0
11
-56225.0
21
232720.0
31
0
0
LINE
8
hvac
10
-57610.0
20
232640.0
30
0
11
-57610.0
21
232700.0
31
0
0
LINE
8
hvac
10
-57570.0
20
232640.0
30
0
11
-57570.0
21
232700.0
31
0
0
LINE
8
hvac
10
-57610.0
20
232640.0
30
0
11
-57570.0
21
232640.0
31
0
0
LINE
8
hvac
10
-57610.0
20
232700.0
30
0
11
-57570.0
21
232700.0
31
0
0
LINE
8
hvac
10
-57450.0
20
232640.0
30
0
11
-57450.0
21
232700.0
31
0
0
LINE
8
hvac
10
-57410.0
20
232640.0
30
0
11
-57410.0
21
232700.0
31
0
0
LINE
8
hvac
10
-57450.0
20
232640.0
30
0
11
-57410.0
21
232640.0
31
0
0
LINE
8
hvac
10
-57450.0
20
232700.0
30
0
11
-57410.0
21
232700.0
31
0
0
LINE
8
hvac
10
-57290.0
20
232640.0
30
0
11
-57290.0
21
232700.0
31
0
0
LINE
8
hvac
10
-57250.0
20
232640.0
30
0
11
-57250.0
21
232700.0
31
0
0
LINE
8
hvac
10
-57290.0
20
232640.0
30
0
11
-57250.0
21
232640.0
31
0
0
LINE
8
hvac
10
-57290.0
20
232700.0
30
0
11
-57250.0
21
232700.0
31
0
0
LINE
8
hvac
10
-57130.0
20
232640.0
30
0
11
-57130.0
21
232700.0
31
0
0
LINE
8
hvac
10
-57090.0
20
232640.0
30
0
11
-57090.0
21
232700.0
31
0
0
LINE
8
hvac
10
-57130.0
20
232640.0
30
0
11
-57090.0
21
232640.0
31
0
0
LINE
8
hvac
10
-57130.0
20
232700.0
30
0
11
-57090.0
21
232700.0
31
0
0
LINE
8
hvac
10
-56970.0
20
232640.0
30
0
11
-56970.0
21
232700.0
31
0
0
LINE
8
hvac
10
-56930.0
20
232640.0
30
0
11
-56930.0
21
232700.0
31
0
0
LINE
8
hvac
10
-56970.0
20
232640.0
30
0
11
-56930.0
21
232640.0
31
0
0
LINE
8
hvac
10
-56970.0
20
232700.0
30
0
11
-56930.0
21
232700.0
31
0
0
LINE
8
hvac
10
-56810.0
20
232640.0
30
0
11
-56810.0
21
232700.0
31
0
0
LINE
8
hvac
10
-56770.0
20
232640.0
30
0
11
-56770.0
21
232700.0
31
0
0
LINE
8
hvac
10
-56810.0
20
232640.0
30
0
11
-56770.0
21
232640.0
31
0
0
LINE
8
hvac
10
-56810.0
20
232700.0
30
0
11
-56770.0
21
232700.0
31
0
0
LINE
8
hvac
10
-56650.0
20
232640.0
30
0
11
-56650.0
21
232700.0
31
0
0
LINE
8
hvac
10
-56610.0
20
232640.0
30
0
11
-56610.0
21
232700.0
31
0
0
LINE
8
hvac
10
-56650.0
20
232640.0
30
0
11
-56610.0
21
232640.0
31
0
0
LINE
8
hvac
10
-56650.0
20
232700.0
30
0
11
-56610.0
21
232700.0
31
0
0
LINE
8
hvac
10
-56490.0
20
232640.0
30
0
11
-56490.0
21
232700.0
31
0
0
LINE
8
hvac
10
-56450.0
20
232640.0
30
0
11
-56450.0
21
232700.0
31
0
0
LINE
8
hvac
10
-56490.0
20
232640.0
30
0
11
-56450.0
21
232640.0
31
0
0
LINE
8
hvac
10
-56490.0
20
232700.0
30
0
11
-56450.0
21
232700.0
31
0
0
LINE
8
hvac
10
-56330.0
20
232640.0
30
0
11
-56330.0
21
232700.0
31
0
0
LINE
8
hvac
10
-56290.0
20
232640.0
30
0
11
-56290.0
21
232700.0
31
0
0
LINE
8
hvac
10
-56330.0
20
232640.0
30
0
11
-56290.0
21
232640.0
31
0
0
LINE
8
hvac
10
-56330.0
20
232700.0
30
0
11
-56290.0
21
232700.0
31
0
0
LINE
8
hvac
10
-57175.0
20
232875.0
30
0
11
-57175.0
21
233325.0
31
0
0
LINE
8
hvac
10
-56725.0
20
232875.0
30
0
11
-56725.0
21
233325.0
31
0
0
LINE
8
hvac
10
-57175.0
20
232875.0
30
0
11
-56725.0
21
232875.0
31
0
0
LINE
8
hvac
10
-57175.0
20
233325.0
30
0
11
-56725.0
21
233325.0
31
0
0
LINE
8
hvac
10
-57125.0
20
236825.0
30
0
11
-57125.0
21
237175.0
31
0
0
LINE
8
hvac
10
-51875.0
20
236825.0
30
0
11
-51875.0
21
237175.0
31
0
0
LINE
8
hvac
10
-57125.0
20
236825.0
30
0
11
-51875.0
21
236825.0
31
0
0
LINE
8
hvac
10
-57125.0
20
237175.0
30
0
11
-51875.0
21
237175.0
31
0
0
LINE
8
hvac
10
-57125.0
20
232925.0
30
0
11
-57125.0
21
233275.0
31
0
0
LINE
8
hvac
10
-54325.0
20
232925.0
30
0
11
-54325.0
21
233275.0
31
0
0
LINE
8
hvac
10
-57125.0
20
232925.0
30
0
11
-54325.0
21
232925.0
31
0
0
LINE
8
hvac
10
-57125.0
20
233275.0
30
0
11
-54325.0
21
233275.0
31
0
0
LINE
8
hvac
10
-54675.0
20
232925.0
30
0
11
-54675.0
21
237175.0
31
0
0
LINE
8
hvac
10
-54325.0
20
232925.0
30
0
11
-54325.0
21
237175.0
31
0
0
LINE
8
hvac
10
-54675.0
20
232925.0
30
0
11
-54325.0
21
232925.0
31
0
0
LINE
8
hvac
10
-54675.0
20
237175.0
30
0
11
-54325.0
21
237175.0
31
0
0
LINE
8
hvac
10
-56350.0
20
236650.0
30
0
11
-56350.0
21
237350.0
31
0
0
LINE
8
hvac
10
-55650.0
20
236650.0
30
0
11
-55650.0
21
237350.0
31
0
0
LINE
8
hvac
10
-56350.0
20
236650.0
30
0
11
-55650.0
21
236650.0
31
0
0
LINE
8
hvac
10
-56350.0
20
237350.0
30
0
11
-55650.0
21
237350.0
31
0
0
LINE
8
hvac
10
-53350.0
20
236650.0
30
0
11
-53350.0
21
237350.0
31
0
0
LINE
8
hvac
10
-52650.0
20
236650.0
30
0
11
-52650.0
21
237350.0
31
0
0
LINE
8
hvac
10
-53350.0
20
236650.0
30
0
11
-52650.0
21
236650.0
31
0
0
LINE
8
hvac
10
-53350.0
20
237350.0
30
0
11
-52650.0
21
237350.0
31
0
0
LINE
8
sensors
10
-58210.0
20
234120.0
30
0
11
-58210.0
21
234280.0
31
0
0
LINE
8
sensors
10
-58110.0
20
234120.0
30
0
11
-58110.0
21
234280.0
31
0
0
LINE
8
sensors
10
-58210.0
20
234120.0
30
0
11
-58110.0
21
234120.0
31
0
0
LINE
8
sensors
10
-58210.0
20
234280.0
30
0
11
-58110.0
21
234280.0
31
0
0
LINE
8
sensors
10
-58105.0
20
234145.0
30
0
11
-58105.0
21
234255.0
31
0
0
LINE
8
sensors
10
-58085.0
20
234145.0
30
0
11
-58085.0
21
234255.0
31
0
0
LINE
8
sensors
10
-58105.0
20
234145.0
30
0
11
-58085.0
21
234145.0
31
0
0
LINE
8
sensors
10
-58105.0
20
234255.0
30
0
11
-58085.0
21
234255.0
31
0
0
LINE
8
sensors
10
-58210.0
20
234420.0
30
0
11
-58210.0
21
234580.0
31
0
0
LINE
8
sensors
10
-58110.0
20
234420.0
30
0
11
-58110.0
21
234580.0
31
0
0
LINE
8
sensors
10
-58210.0
20
234420.0
30
0
11
-58110.0
21
234420.0
31
0
0
LINE
8
sensors
10
-58210.0
20
234580.0
30
0
11
-58110.0
21
234580.0
31
0
0
LINE
8
sensors
10
-58105.0
20
234445.0
30
0
11
-58105.0
21
234555.0
31
0
0
LINE
8
sensors
10
-58085.0
20
234445.0
30
0
11
-58085.0
21
234555.0
31
0
0
LINE
8
sensors
10
-58105.0
20
234445.0
30
0
11
-58085.0
21
234445.0
31
0
0
LINE
8
sensors
10
-58105.0
20
234555.0
30
0
11
-58085.0
21
234555.0
31
0
0
LINE
8
sensors
10
-58210.0
20
234720.0
30
0
11
-58210.0
21
234880.0
31
0
0
LINE
8
sensors
10
-58110.0
20
234720.0
30
0
11
-58110.0
21
234880.0
31
0
0
LINE
8
sensors
10
-58210.0
20
234720.0
30
0
11
-58110.0
21
234720.0
31
0
0
LINE
8
sensors
10
-58210.0
20
234880.0
30
0
11
-58110.0
21
234880.0
31
0
0
LINE
8
sensors
10
-58105.0
20
234745.0
30
0
11
-58105.0
21
234855.0
31
0
0
LINE
8
sensors
10
-58085.0
20
234745.0
30
0
11
-58085.0
21
234855.0
31
0
0
LINE
8
sensors
10
-58105.0
20
234745.0
30
0
11
-58085.0
21
234745.0
31
0
0
LINE
8
sensors
10
-58105.0
20
234855.0
30
0
11
-58085.0
21
234855.0
31
0
0
LINE
8
sensors
10
-54420.0
20
237000.0
30
0
11
-54500.0
21
237080.0
31
0
0
LINE
8
sensors
10
-54500.0
20
237080.0
30
0
11
-54580.0
21
237000.0
31
0
0
LINE
8
sensors
10
-54580.0
20
237000.0
30
0
11
-54500.0
21
236920.0
31
0
0
LINE
8
sensors
10
-54500.0
20
236920.0
30
0
11
-54420.0
21
237000.0
31
0
0
LINE
8
sensors
10
-54500.0
20
237000.0
30
0
11
-54435.0
21
237000.0
31
0
0
LINE
8
sensors
10
-54435.0
20
237000.0
30
0
11
-54500.0
21
237000.0
31
0
0
LINE
8
sensors
10
-58210.0
20
235320.0
30
0
11
-58210.0
21
235480.0
31
0
0
LINE
8
sensors
10
-58110.0
20
235320.0
30
0
11
-58110.0
21
235480.0
31
0
0
LINE
8
sensors
10
-58210.0
20
235320.0
30
0
11
-58110.0
21
235320.0
31
0
0
LINE
8
sensors
10
-58210.0
20
235480.0
30
0
11
-58110.0
21
235480.0
31
0
0
LINE
8
sensors
10
-58105.0
20
235345.0
30
0
11
-58105.0
21
235455.0
31
0
0
LINE
8
sensors
10
-58085.0
20
235345.0
30
0
11
-58085.0
21
235455.0
31
0
0
LINE
8
sensors
10
-58105.0
20
235345.0
30
0
11
-58085.0
21
235345.0
31
0
0
LINE
8
sensors
10
-58105.0
20
235455.0
30
0
11
-58085.0
21
235455.0
31
0
0
ENDSEC
0
EOF
