0
SECTION
2
HEADER
9
$ACADVER
1
AC1015
9
$INSUNITS
70
4
0
ENDSEC
0
SECTION
2
ENTITIES
0
LINE
8
interiors
10
39000.0
20
227000.0
30
0
11
39000.0
21
247000.0
31
0
0
LINE
8
interiors
10
39000.0
20
227000.0
30
0
11
42800.0
21
227000.0
31
0
0
LINE
8
interiors
10
42800.0
20
227000.0
30
0
11
45200.0
21
227000.0
31
0
0
LINE
8
interiors
10
45200.0
20
227000.0
30
0
11
49000.0
21
227000.0
31
0
0
LINE
8
interiors
10
39000.0
20
227000.0
30
0
11
49000.0
21
227000.0
31
0
0
LINE
8
interiors
10
39000.0
20
247000.0
30
0
11
49000.0
21
247000.0
31
0
0
LINE
8
interiors
10
49000.0
20
227000.0
30
0
11
49000.0
21
247000.0
31
0
0
LINE
8
interiors
10
48880.0
20
227120.0
30
0
11
39120.0
21
227120.0
31
0
0
LINE
8
interiors
10
48880.0
20
227120.0
30
0
11
48880.0
21
246880.0
31
0
0
LINE
8
interiors
10
48880.0
20
246880.0
30
0
11
39120.0
21
246880.0
31
0
0
LINE
8
interiors
10
39120.0
20
227120.0
30
0
11
39120.0
21
246880.0
31
0
0
LINE
8
interiors
10
41400.0
20
247000.0
30
0
11
46600.0
21
247000.0
31
0
0
LINE
8
interiors
10
45200.0
20
227000.0
30
0
11
45200.0
21
227120.0
31
0
0
LINE
8
interiors
10
48880.0
20
227120.0
30
0
11
45200.0
21
227120.0
31
0
0
LINE
8
interiors
10
42800.0
20
227120.0
30
0
11
39120.0
21
227120.0
31
0
0
LINE
8
interiors
10
42800.0
20
227000.0
30
0
11
42800.0
21
227120.0
31
0
0
LINE
8
interiors
10
42800.0
20
227120.0
30
0
11
45200.0
21
227120.0
31
0
0
LINE
8
interiors
10
41400.0
20
246880.0
30
0
11
46600.0
21
246880.0
31
0
0
LINE
8
interiors
10
41400.0
20
246880.0
30
0
11
41400.0
21
247000.0
31
0
0
LINE
8
interiors
10
46600.0
20
246880.0
30
0
11
46600.0
21
247000.0
31
0
0
LINE
8
interiors
10
41400.0
20
246977.5
30
0
11
41400.0
21
247022.5
31
0
0
LINE
8
interiors
10
46600.0
20
246977.5
30
0
11
46600.0
21
247022.5
31
0
0
LINE
8
interiors
10
41400.0
20
246977.5
30
0
11
46600.0
21
246977.5
31
0
0
LINE
8
interiors
10
41400.0
20
247022.5
30
0
11
46600.0
21
247022.5
31
0
0
LINE
8
interiors
10
39125.0
20
227125.0
30
0
11
39125.0
21
246875.0
31
0
0
LINE
8
interiors
10
48875.0
20
227125.0
30
0
11
48875.0
21
246875.0
31
0
0
LINE
8
interiors
10
39125.0
20
227125.0
30
0
11
48875.0
21
227125.0
31
0
0
LINE
8
interiors
10
39125.0
20
246875.0
30
0
11
48875.0
21
246875.0
31
0
0
LINE
8
interiors
10
42845.0
20
226880.0
30
0
11
42845.0
21
227120.0
31
0
0
LINE
8
interiors
10
42915.0
20
226880.0
30
0
11
42915.0
21
227120.0
31
0
0
LINE
8
interiors
10
42845.0
20
226880.0
30
0
11
42915.0
21
226880.0
31
0
0
LINE
8
interiors
10
42845.0
20
227120.0
30
0
11
42915.0
21
227120.0
31
0
0
LINE
8
interiors
10
45085.0
20
226880.0
30
0
11
45085.0
21
227120.0
31
0
0
LINE
8
interiors
10
45155.0
20
226880.0
30
0
11
45155.0
21
227120.0
31
0
0
LINE
8
interiors
10
45085.0
20
226880.0
30
0
11
45155.0
21
226880.0
31
0
0
LINE
8
interiors
10
45085.0
20
227120.0
30
0
11
45155.0
21
227120.0
31
0
0
LINE
8
interiors
10
42850.0
20
226880.0
30
0
11
42850.0
21
227120.0
31
0
0
LINE
8
interiors
10
45150.0
20
226880.0
30
0
11
45150.0
21
227120.0
31
0
0
LINE
8
interiors
10
42850.0
20
226880.0
30
0
11
45150.0
21
226880.0
31
0
0
LINE
8
interiors
10
42850.0
20
227120.0
30
0
11
45150.0
21
227120.0
31
0
0
LINE
8
interiors
10
42930.39
20
227090.49
30
0
11
42889.61
21
227109.51
31
0
0
LINE
8
interiors
10
43386.82
20
228069.3
30
0
11
43346.04
21
228088.32
31
0
0
LINE
8
interiors
10
42930.39
20
227090.49
30
0
11
43386.82
21
228069.3
31
0
0
LINE
8
interiors
10
42889.61
20
227109.51
30
0
11
43346.04
21
228088.32
31
0
0
LINE
8
interiors
10
41000.0
20
231400.0
30
0
11
41000.0
21
233000.0
31
0
0
LINE
8
interiors
10
42600.0
20
231400.0
30
0
11
42600.0
21
233000.0
31
0
0
LINE
8
interiors
10
41000.0
20
231400.0
30
0
11
42600.0
21
231400.0
31
0
0
LINE
8
interiors
10
41000.0
20
233000.0
30
0
11
42600.0
21
233000.0
31
0
0
LINE
8
interiors
10
42220.0
20
232200.0
30
0
11
42139.79
21
232446.87
31
0
0
LINE
8
interiors
10
42139.79
20
232446.87
30
0
11
41929.79
21
232599.44
31
0
0
LINE
8
interiors
10
41929.79
20
232599.44
30
0
11
41670.21
21
232599.44
31
0
0
LINE
8
interiors
10
41670.21
20
232599.44
30
0
11
41460.21
21
232446.87
31
0
0
LINE
8
interiors
10
41460.21
20
232446.87
30
0
11
41380.0
21
232200.0
31
0
0
LINE
8
interiors
10
41380.0
20
232200.0
30
0
11
41460.21
21
231953.13
31
0
0
LINE
8
interiors
10
41460.21
20
231953.13
30
0
11
41670.21
21
231800.56
31
0
0
LINE
8
interiors
10
41670.21
20
231800.56
30
0
11
41929.79
21
231800.56
31
0
0
LINE
8
interiors
10
41929.79
20
231800.56
30
0
11
42139.79
21
231953.13
31
0
0
LINE
8
interiors
10
42139.79
20
231953.13
30
0
11
42220.0
21
232200.0
31
0
0
LINE
8
interiors
10
41400.0
20
231570.0
30
0
11
41400.0
21
231630.0
31
0
0
LINE
8
interiors
10
42200.0
20
231570.0
30
0
11
42200.0
21
231630.0
31
0
0
LINE
8
interiors
10
41400.0
20
231570.0
30
0
11
42200.0
21
231570.0
31
0
0
LINE
8
interiors
10
41400.0
20
231630.0
30
0
11
42200.0
21
231630.0
31
0
0
LINE
8
interiors
10
41770.0
20
231565.0
30
0
11
41770.0
21
231635.0
31
0
0
LINE
8
interiors
10
41830.0
20
231565.0
30
0
11
41830.0
21
231635.0
31
0
0
LINE
8
interiors
10
41770.0
20
231565.0
30
0
11
41830.0
21
231565.0
31
0
0
LINE
8
interiors
10
41770.0
20
231635.0
30
0
11
41830.0
21
231635.0
31
0
0
LINE
8
interiors
10
41650.0
20
231490.0
30
0
11
41650.0
21
231710.0
31
0
0
LINE
8
interiors
10
41950.0
20
231490.0
30
0
11
41950.0
21
231710.0
31
0
0
LINE
8
interiors
10
41650.0
20
231490.0
30
0
11
41950.0
21
231490.0
31
0
0
LINE
8
interiors
10
41650.0
20
231710.0
30
0
11
41950.0
21
231710.0
31
0
0
LINE
8
interiors
10
45400.0
20
231400.0
30
0
11
45400.0
21
233000.0
31
0
0
LINE
8
interiors
10
47000.0
20
231400.0
30
0
11
47000.0
21
233000.0
31
0
0
LINE
8
interiors
10
45400.0
20
231400.0
30
0
11
47000.0
21
231400.0
31
0
0
LINE
8
interiors
10
45400.0
20
233000.0
30
0
11
47000.0
21
233000.0
31
0
0
LINE
8
interiors
10
46620.0
20
232200.0
30
0
11
46539.79
21
232446.87
31
0
0
LINE
8
interiors
10
46539.79
20
232446.87
30
0
11
46329.79
21
232599.44
31
0
0
LINE
8
interiors
10
46329.79
20
232599.44
30
0
11
46070.21
21
232599.44
31
0
0
LINE
8
interiors
10
46070.21
20
232599.44
30
0
11
45860.21
21
232446.87
31
0
0
LINE
8
interiors
10
45860.21
20
232446.87
30
0
11
45780.0
21
232200.0
31
0
0
LINE
8
interiors
10
45780.0
20
232200.0
30
0
11
45860.21
21
231953.13
31
0
0
LINE
8
interiors
10
45860.21
20
231953.13
30
0
11
46070.21
21
231800.56
31
0
0
LINE
8
interiors
10
46070.21
20
231800.56
30
0
11
46329.79
21
231800.56
31
0
0
LINE
8
interiors
10
46329.79
20
231800.56
30
0
11
46539.79
21
231953.13
31
0
0
LINE
8
interiors
10
46539.79
20
231953.13
30
0
11
46620.0
21
232200.0
31
0
0
LINE
8
interiors
10
45800.0
20
231570.0
30
0
11
45800.0
21
231630.0
31
0
0
LINE
8
interiors
10
46600.0
20
231570.0
30
0
11
46600.0
21
231630.0
31
0
0
LINE
8
interiors
10
45800.0
20
231570.0
30
0
11
46600.0
21
231570.0
31
0
0
LINE
8
interiors
10
45800.0
20
231630.0
30
0
11
46600.0
21
231630.0
31
0
0
LINE
8
interiors
10
46170.0
20
231565.0
30
0
11
46170.0
21
231635.0
31
0
0
LINE
8
interiors
10
46230.0
20
231565.0
30
0
11
46230.0
21
231635.0
31
0
0
LINE
8
interiors
10
46170.0
20
231565.0
30
0
11
46230.0
21
231565.0
31
0
0
LINE
8
interiors
10
46170.0
20
231635.0
30
0
11
46230.0
21
231635.0
31
0
0
LINE
8
interiors
10
46050.0
20
231490.0
30
0
11
46050.0
21
231710.0
31
0
0
LINE
8
interiors
10
46350.0
20
231490.0
30
0
11
46350.0
21
231710.0
31
0
0
LINE
8
interiors
10
46050.0
20
231490.0
30
0
11
46350.0
21
231490.0
31
0
0
LINE
8
interiors
10
46050.0
20
231710.0
30
0
11
46350.0
21
231710.0
31
0
0
LINE
8
interiors
10
41000.0
20
241000.0
30
0
11
41000.0
21
242600.0
31
0
0
LINE
8
interiors
10
42600.0
20
241000.0
30
0
11
42600.0
21
242600.0
31
0
0
LINE
8
interiors
10
41000.0
20
241000.0
30
0
11
42600.0
21
241000.0
31
0
0
LINE
8
interiors
10
41000.0
20
242600.0
30
0
11
42600.0
21
242600.0
31
0
0
LINE
8
interiors
10
42220.0
20
241800.0
30
0
11
42139.79
21
242046.87
31
0
0
LINE
8
interiors
10
42139.79
20
242046.87
30
0
11
41929.79
21
242199.44
31
0
0
LINE
8
interiors
10
41929.79
20
242199.44
30
0
11
41670.21
21
242199.44
31
0
0
LINE
8
interiors
10
41670.21
20
242199.44
30
0
11
41460.21
21
242046.87
31
0
0
LINE
8
interiors
10
41460.21
20
242046.87
30
0
11
41380.0
21
241800.0
31
0
0
LINE
8
interiors
10
41380.0
20
241800.0
30
0
11
41460.21
21
241553.13
31
0
0
LINE
8
interiors
10
41460.21
20
241553.13
30
0
11
41670.21
21
241400.56
31
0
0
LINE
8
interiors
10
41670.21
20
241400.56
30
0
11
41929.79
21
241400.56
31
0
0
LINE
8
interiors
10
41929.79
20
241400.56
30
0
11
42139.79
21
241553.13
31
0
0
LINE
8
interiors
10
42139.79
20
241553.13
30
0
11
42220.0
21
241800.0
31
0
0
LINE
8
interiors
10
41400.0
20
241170.0
30
0
11
41400.0
21
241230.0
31
0
0
LINE
8
interiors
10
42200.0
20
241170.0
30
0
11
42200.0
21
241230.0
31
0
0
LINE
8
interiors
10
41400.0
20
241170.0
30
0
11
42200.0
21
241170.0
31
0
0
LINE
8
interiors
10
41400.0
20
241230.0
30
0
11
42200.0
21
241230.0
31
0
0
LINE
8
interiors
10
41770.0
20
241165.0
30
0
11
41770.0
21
241235.0
31
0
0
LINE
8
interiors
10
41830.0
20
241165.0
30
0
11
41830.0
21
241235.0
31
0
0
LINE
8
interiors
10
41770.0
20
241165.0
30
0
11
41830.0
21
241165.0
31
0
0
LINE
8
interiors
10
41770.0
20
241235.0
30
0
11
41830.0
21
241235.0
31
0
0
LINE
8
interiors
10
41650.0
20
241090.0
30
0
11
41650.0
21
241310.0
31
0
0
LINE
8
interiors
10
41950.0
20
241090.0
30
0
11
41950.0
21
241310.0
31
0
0
LINE
8
interiors
10
41650.0
20
241090.0
30
0
11
41950.0
21
241090.0
31
0
0
LINE
8
interiors
10
41650.0
20
241310.0
30
0
11
41950.0
21
241310.0
31
0
0
LINE
8
interiors
10
45400.0
20
241000.0
30
0
11
45400.0
21
242600.0
31
0
0
LINE
8
interiors
10
47000.0
20
241000.0
30
0
11
47000.0
21
242600.0
31
0
0
LINE
8
interiors
10
45400.0
20
241000.0
30
0
11
47000.0
21
241000.0
31
0
0
LINE
8
interiors
10
45400.0
20
242600.0
30
0
11
47000.0
21
242600.0
31
0
0
LINE
8
interiors
10
46620.0
20
241800.0
30
0
11
46539.79
21
242046.87
31
0
0
LINE
8
interiors
10
46539.79
20
242046.87
30
0
11
46329.79
21
242199.44
31
0
0
LINE
8
interiors
10
46329.79
20
242199.44
30
0
11
46070.21
21
242199.44
31
0
0
LINE
8
interiors
10
46070.21
20
242199.44
30
0
11
45860.21
21
242046.87
31
0
0
LINE
8
interiors
10
45860.21
20
242046.87
30
0
11
45780.0
21
241800.0
31
0
0
LINE
8
interiors
10
45780.0
20
241800.0
30
0
11
45860.21
21
241553.13
31
0
0
LINE
8
interiors
10
45860.21
20
241553.13
30
0
11
46070.21
21
241400.56
31
0
0
LINE
8
interiors
10
46070.21
20
241400.56
30
0
11
46329.79
21
241400.56
31
0
0
LINE
8
interiors
10
46329.79
20
241400.56
30
0
11
46539.79
21
241553.13
31
0
0
LINE
8
interiors
10
46539.79
20
241553.13
30
0
11
46620.0
21
241800.0
31
0
0
LINE
8
interiors
10
45800.0
20
241170.0
30
0
11
45800.0
21
241230.0
31
0
0
LINE
8
interiors
10
46600.0
20
241170.0
30
0
11
46600.0
21
241230.0
31
0
0
LINE
8
interiors
10
45800.0
20
241170.0
30
0
11
46600.0
21
241170.0
31
0
0
LINE
8
interiors
10
45800.0
20
241230.0
30
0
11
46600.0
21
241230.0
31
0
0
LINE
8
interiors
10
46170.0
20
241165.0
30
0
11
46170.0
21
241235.0
31
0
0
LINE
8
interiors
10
46230.0
20
241165.0
30
0
11
46230.0
21
241235.0
31
0
0
LINE
8
interiors
10
46170.0
20
241165.0
30
0
11
46230.0
21
241165.0
31
0
0
LINE
8
interiors
10
46170.0
20
241235.0
30
0
11
46230.0
21
241235.0
31
0
0
LINE
8
interiors
10
46050.0
20
241090.0
30
0
11
46050.0
21
241310.0
31
0
0
LINE
8
interiors
10
46350.0
20
241090.0
30
0
11
46350.0
21
241310.0
31
0
0
LINE
8
interiors
10
46050.0
20
241090.0
30
0
11
46350.0
21
241090.0
31
0
0
LINE
8
interiors
10
46050.0
20
241310.0
30
0
11
46350.0
21
241310.0
31
0
0
LINE
8
electrical
10
48275.0
20
227075.0
30
0
11
48275.0
21
227325.0
31
0
0
LINE
8
electrical
10
48825.0
20
227075.0
30
0
11
48825.0
21
227325.0
31
0
0
LINE
8
electrical
10
48275.0
20
227075.0
30
0
11
48825.0
21
227075.0
31
0
0
LINE
8
electrical
10
48275.0
20
227325.0
30
0
11
48825.0
21
227325.0
31
0
0
LINE
8
electrical
10
48315.0
20
227047.5
30
0
11
48315.0
21
227082.5
31
0
0
LINE
8
electrical
10
48785.0
20
227047.5
30
0
11
48785.0
21
227082.5
31
0
0
LINE
8
electrical
10
48315.0
20
227047.5
30
0
11
48785.0
21
227047.5
31
0
0
LINE
8
electrical
10
48315.0
20
227082.5
30
0
11
48785.0
21
227082.5
31
0
0
LINE
8
electrical
10
48362.5
20
227010.0
30
0
11
48362.5
21
227050.0
31
0
0
LINE
8
electrical
10
48462.5
20
227010.0
30
0
11
48462.5
21
227050.0
31
0
0
LINE
8
electrical
10
48362.5
20
227010.0
30
0
11
48462.5
21
227010.0
31
0
0
LINE
8
electrical
10
48362.5
20
227050.0
30
0
11
48462.5
21
227050.0
31
0
0
LINE
8
electrical
10
48500.0
20
227010.0
30
0
11
48500.0
21
227050.0
31
0
0
LINE
8
electrical
10
48600.0
20
227010.0
30
0
11
48600.0
21
227050.0
31
0
0
LINE
8
electrical
10
48500.0
20
227010.0
30
0
11
48600.0
21
227010.0
31
0
0
LINE
8
electrical
10
48500.0
20
227050.0
30
0
11
48600.0
21
227050.0
31
0
0
LINE
8
electrical
10
48637.5
20
227010.0
30
0
11
48637.5
21
227050.0
31
0
0
LINE
8
electrical
10
48737.5
20
227010.0
30
0
11
48737.5
21
227050.0
31
0
0
LINE
8
electrical
10
48637.5
20
227010.0
30
0
11
48737.5
21
227010.0
31
0
0
LINE
8
electrical
10
48637.5
20
227050.0
30
0
11
48737.5
21
227050.0
31
0
0
LINE
8
electrical
10
48412.5
20
226995.0
30
0
11
48435.88
21
226995.0
31
0
0
LINE
8
electrical
10
48435.88
20
226995.0
30
0
11
48389.12
21
226995.0
31
0
0
LINE
8
electrical
10
48389.12
20
226995.0
30
0
11
48412.5
21
226995.0
31
0
0
LINE
8
electrical
10
48412.5
20
227020.0
30
0
11
48412.5
21
226995.0
31
0
0
LINE
8
electrical
10
48412.5
20
227020.0
30
0
11
48435.88
21
227020.0
31
0
0
LINE
8
electrical
10
48435.88
20
227020.0
30
0
11
48389.12
21
227020.0
31
0
0
LINE
8
electrical
10
48389.12
20
227020.0
30
0
11
48412.5
21
227020.0
31
0
0
LINE
8
electrical
10
48550.0
20
226995.0
30
0
11
48573.38
21
226995.0
31
0
0
LINE
8
electrical
10
48573.38
20
226995.0
30
0
11
48526.62
21
226995.0
31
0
0
LINE
8
electrical
10
48526.62
20
226995.0
30
0
11
48550.0
21
226995.0
31
0
0
LINE
8
electrical
10
48550.0
20
227020.0
30
0
11
48550.0
21
226995.0
31
0
0
LINE
8
electrical
10
48550.0
20
227020.0
30
0
11
48573.38
21
227020.0
31
0
0
LINE
8
electrical
10
48573.38
20
227020.0
30
0
11
48526.62
21
227020.0
31
0
0
LINE
8
electrical
10
48526.62
20
227020.0
30
0
11
48550.0
21
227020.0
31
0
0
LINE
8
electrical
10
48687.5
20
226995.0
30
0
11
48710.88
21
226995.0
31
0
0
LINE
8
electrical
10
48710.88
20
226995.0
30
0
11
48664.12
21
226995.0
31
0
0
LINE
8
electrical
10
48664.12
20
226995.0
30
0
11
48687.5
21
226995.0
31
0
0
LINE
8
electrical
10
48687.5
20
227020.0
30
0
11
48687.5
21
226995.0
31
0
0
LINE
8
electrical
10
48687.5
20
227020.0
30
0
11
48710.88
21
227020.0
31
0
0
LINE
8
electrical
10
48710.88
20
227020.0
30
0
11
48664.12
21
227020.0
31
0
0
LINE
8
electrical
10
48664.12
20
227020.0
30
0
11
48687.5
21
227020.0
31
0
0
LINE
8
electrical
10
48550.0
20
227200.0
30
0
11
48565.59
21
227200.0
31
0
0
LINE
8
electrical
10
48565.59
20
227200.0
30
0
11
48534.41
21
227200.0
31
0
0
LINE
8
electrical
10
48534.41
20
227200.0
30
0
11
48550.0
21
227200.0
31
0
0
LINE
8
electrical
10
48550.0
20
220200.0
30
0
11
48550.0
21
227200.0
31
0
0
LINE
8
electrical
10
48550.0
20
220200.0
30
0
11
48565.59
21
220200.0
31
0
0
LINE
8
electrical
10
48565.59
20
220200.0
30
0
11
48534.41
21
220200.0
31
0
0
LINE
8
electrical
10
48534.41
20
220200.0
30
0
11
48550.0
21
220200.0
31
0
0
LINE
8
electrical
10
48532.0
20
227200.0
30
0
11
48559.0
21
227215.59
31
0
0
LINE
8
electrical
10
48559.0
20
227215.59
30
0
11
48559.0
21
227184.41
31
0
0
LINE
8
electrical
10
48559.0
20
227184.41
30
0
11
48532.0
21
227200.0
31
0
0
LINE
8
electrical
10
48550.0
20
227200.0
30
0
11
48569.44
21
227200.0
31
0
0
LINE
8
electrical
10
48569.44
20
227200.0
30
0
11
48550.0
21
227200.0
31
0
0
LINE
8
lighting
10
39500.0
20
230172.5
30
0
11
39500.0
21
230227.5
31
0
0
LINE
8
lighting
10
41300.0
20
230172.5
30
0
11
41300.0
21
230227.5
31
0
0
LINE
8
lighting
10
39500.0
20
230172.5
30
0
11
41300.0
21
230172.5
31
0
0
LINE
8
lighting
10
39500.0
20
230227.5
30
0
11
41300.0
21
230227.5
31
0
0
LINE
8
lighting
10
39850.0
20
230450.0
30
0
11
39935.6
21
230450.0
31
0
0
LINE
8
lighting
10
39935.6
20
230450.0
30
0
11
39902.9
21
230450.0
31
0
0
LINE
8
lighting
10
39902.9
20
230450.0
30
0
11
39797.1
21
230450.0
31
0
0
LINE
8
lighting
10
39797.1
20
230450.0
30
0
11
39764.4
21
230450.0
31
0
0
LINE
8
lighting
10
39764.4
20
230450.0
30
0
11
39850.0
21
230450.0
31
0
0
LINE
8
lighting
10
39850.0
20
230200.0
30
0
11
39850.0
21
230450.0
31
0
0
LINE
8
lighting
10
39850.0
20
230200.0
30
0
11
39935.6
21
230200.0
31
0
0
LINE
8
lighting
10
39935.6
20
230200.0
30
0
11
39902.9
21
230200.0
31
0
0
LINE
8
lighting
10
39902.9
20
230200.0
30
0
11
39797.1
21
230200.0
31
0
0
LINE
8
lighting
10
39797.1
20
230200.0
30
0
11
39764.4
21
230200.0
31
0
0
LINE
8
lighting
10
39764.4
20
230200.0
30
0
11
39850.0
21
230200.0
31
0
0
LINE
8
lighting
10
40950.0
20
229950.0
30
0
11
41035.6
21
229950.0
31
0
0
LINE
8
lighting
10
41035.6
20
229950.0
30
0
11
41002.9
21
229950.0
31
0
0
LINE
8
lighting
10
41002.9
20
229950.0
30
0
11
40897.1
21
229950.0
31
0
0
LINE
8
lighting
10
40897.1
20
229950.0
30
0
11
40864.4
21
229950.0
31
0
0
LINE
8
lighting
10
40864.4
20
229950.0
30
0
11
40950.0
21
229950.0
31
0
0
LINE
8
lighting
10
40950.0
20
230200.0
30
0
11
40950.0
21
229950.0
31
0
0
LINE
8
lighting
10
40950.0
20
230200.0
30
0
11
41035.6
21
230200.0
31
0
0
LINE
8
lighting
10
41035.6
20
230200.0
30
0
11
41002.9
21
230200.0
31
0
0
LINE
8
lighting
10
41002.9
20
230200.0
30
0
11
40897.1
21
230200.0
31
0
0
LINE
8
lighting
10
40897.1
20
230200.0
30
0
11
40864.4
21
230200.0
31
0
0
LINE
8
lighting
10
40864.4
20
230200.0
30
0
11
40950.0
21
230200.0
31
0
0
LINE
8
lighting
10
40409.0
20
230200.0
30
0
11
40395.5
21
230207.79
31
0
0
LINE
8
lighting
10
40395.5
20
230207.79
30
0
11
40395.5
21
230192.21
31
0
0
LINE
8
lighting
10
40395.5
20
230192.21
30
0
11
40409.0
21
230200.0
31
0
0
LINE
8
lighting
10
46700.0
20
230172.5
30
0
11
46700.0
21
230227.5
31
0
0
LINE
8
lighting
10
48500.0
20
230172.5
30
0
11
48500.0
21
230227.5
31
0
0
LINE
8
lighting
10
46700.0
20
230172.5
30
0
11
48500.0
21
230172.5
31
0
0
LINE
8
lighting
10
46700.0
20
230227.5
30
0
11
48500.0
21
230227.5
31
0
0
LINE
8
lighting
10
47050.0
20
230450.0
30
0
11
47135.6
21
230450.0
31
0
0
LINE
8
lighting
10
47135.6
20
230450.0
30
0
11
47102.9
21
230450.0
31
0
0
LINE
8
lighting
10
47102.9
20
230450.0
30
0
11
46997.1
21
230450.0
31
0
0
LINE
8
lighting
10
46997.1
20
230450.0
30
0
11
46964.4
21
230450.0
31
0
0
LINE
8
lighting
10
46964.4
20
230450.0
30
0
11
47050.0
21
230450.0
31
0
0
LINE
8
lighting
10
47050.0
20
230200.0
30
0
11
47050.0
21
230450.0
31
0
0
LINE
8
lighting
10
47050.0
20
230200.0
30
0
11
47135.6
21
230200.0
31
0
0
LINE
8
lighting
10
47135.6
20
230200.0
30
0
11
47102.9
21
230200.0
31
0
0
LINE
8
lighting
10
47102.9
20
230200.0
30
0
11
46997.1
21
230200.0
31
0
0
LINE
8
lighting
10
46997.1
20
230200.0
30
0
11
46964.4
21
230200.0
31
0
0
LINE
8
lighting
10
46964.4
20
230200.0
30
0
11
47050.0
21
230200.0
31
0
0
LINE
8
lighting
10
48150.0
20
229950.0
30
0
11
48235.6
21
229950.0
31
0
0
LINE
8
lighting
10
48235.6
20
229950.0
30
0
11
48202.9
21
229950.0
31
0
0
LINE
8
lighting
10
48202.9
20
229950.0
30
0
11
48097.1
21
229950.0
31
0
0
LINE
8
lighting
10
48097.1
20
229950.0
30
0
11
48064.4
21
229950.0
31
0
0
LINE
8
lighting
10
48064.4
20
229950.0
30
0
11
48150.0
21
229950.0
31
0
0
LINE
8
lighting
10
48150.0
20
230200.0
30
0
11
48150.0
21
229950.0
31
0
0
LINE
8
lighting
10
48150.0
20
230200.0
30
0
11
48235.6
21
230200.0
31
0
0
LINE
8
lighting
10
48235.6
20
230200.0
30
0
11
48202.9
21
230200.0
31
0
0
LINE
8
lighting
10
48202.9
20
230200.0
30
0
11
48097.1
21
230200.0
31
0
0
LINE
8
lighting
10
48097.1
20
230200.0
30
0
11
48064.4
21
230200.0
31
0
0
LINE
8
lighting
10
48064.4
20
230200.0
30
0
11
48150.0
21
230200.0
31
0
0
LINE
8
lighting
10
47609.0
20
230200.0
30
0
11
47595.5
21
230207.79
31
0
0
LINE
8
lighting
10
47595.5
20
230207.79
30
0
11
47595.5
21
230192.21
31
0
0
LINE
8
lighting
10
47595.5
20
230192.21
30
0
11
47609.0
21
230200.0
31
0
0
LINE
8
lighting
10
39500.0
20
243772.5
30
0
11
39500.0
21
243827.5
31
0
0
LINE
8
lighting
10
41300.0
20
243772.5
30
0
11
41300.0
21
243827.5
31
0
0
LINE
8
lighting
10
39500.0
20
243772.5
30
0
11
41300.0
21
243772.5
31
0
0
LINE
8
lighting
10
39500.0
20
243827.5
30
0
11
41300.0
21
243827.5
31
0
0
LINE
8
lighting
10
39850.0
20
244050.0
30
0
11
39935.6
21
244050.0
31
0
0
LINE
8
lighting
10
39935.6
20
244050.0
30
0
11
39902.9
21
244050.0
31
0
0
LINE
8
lighting
10
39902.9
20
244050.0
30
0
11
39797.1
21
244050.0
31
0
0
LINE
8
lighting
10
39797.1
20
244050.0
30
0
11
39764.4
21
244050.0
31
0
0
LINE
8
lighting
10
39764.4
20
244050.0
30
0
11
39850.0
21
244050.0
31
0
0
LINE
8
lighting
10
39850.0
20
243800.0
30
0
11
39850.0
21
244050.0
31
0
0
LINE
8
lighting
10
39850.0
20
243800.0
30
0
11
39935.6
21
243800.0
31
0
0
LINE
8
lighting
10
39935.6
20
243800.0
30
0
11
39902.9
21
243800.0
31
0
0
LINE
8
lighting
10
39902.9
20
243800.0
30
0
11
39797.1
21
243800.0
31
0
0
LINE
8
lighting
10
39797.1
20
243800.0
30
0
11
39764.4
21
243800.0
31
0
0
LINE
8
lighting
10
39764.4
20
243800.0
30
0
11
39850.0
21
243800.0
31
0
0
LINE
8
lighting
10
40950.0
20
243550.0
30
0
11
41035.6
21
243550.0
31
0
0
LINE
8
lighting
10
41035.6
20
243550.0
30
0
11
41002.9
21
243550.0
31
0
0
LINE
8
lighting
10
41002.9
20
243550.0
30
0
11
40897.1
21
243550.0
31
0
0
LINE
8
lighting
10
40897.1
20
243550.0
30
0
11
40864.4
21
243550.0
31
0
0
LINE
8
lighting
10
40864.4
20
243550.0
30
0
11
40950.0
21
243550.0
31
0
0
LINE
8
lighting
10
40950.0
20
243800.0
30
0
11
40950.0
21
243550.0
31
0
0
LINE
8
lighting
10
40950.0
20
243800.0
30
0
11
41035.6
21
243800.0
31
0
0
LINE
8
lighting
10
41035.6
20
243800.0
30
0
11
41002.9
21
243800.0
31
0
0
LINE
8
lighting
10
41002.9
20
243800.0
30
0
11
40897.1
21
243800.0
31
0
0
LINE
8
lighting
10
40897.1
20
243800.0
30
0
11
40864.4
21
243800.0
31
0
0
LINE
8
lighting
10
40864.4
20
243800.0
30
0
11
40950.0
21
243800.0
31
0
0
LINE
8
lighting
10
40409.0
20
243800.0
30
0
11
40395.5
21
243807.79
31
0
0
LINE
8
lighting
10
40395.5
20
243807.79
30
0
11
40395.5
21
243792.21
31
0
0
LINE
8
lighting
10
40395.5
20
243792.21
30
0
11
40409.0
21
243800.0
31
0
0
LINE
8
lighting
10
46700.0
20
243772.5
30
0
11
46700.0
21
243827.5
31
0
0
LINE
8
lighting
10
48500.0
20
243772.5
30
0
11
48500.0
21
243827.5
31
0
0
LINE
8
lighting
10
46700.0
20
243772.5
30
0
11
48500.0
21
243772.5
31
0
0
LINE
8
lighting
10
46700.0
20
243827.5
30
0
11
48500.0
21
243827.5
31
0
0
LINE
8
lighting
10
47050.0
20
244050.0
30
0
11
47135.6
21
244050.0
31
0
0
LINE
8
lighting
10
47135.6
20
244050.0
30
0
11
47102.9
21
244050.0
31
0
0
LINE
8
lighting
10
47102.9
20
244050.0
30
0
11
46997.1
21
244050.0
31
0
0
LINE
8
lighting
10
46997.1
20
244050.0
30
0
11
46964.4
21
244050.0
31
0
0
LINE
8
lighting
10
46964.4
20
244050.0
30
0
11
47050.0
21
244050.0
31
0
0
LINE
8
lighting
10
47050.0
20
243800.0
30
0
11
47050.0
21
244050.0
31
0
0
LINE
8
lighting
10
47050.0
20
243800.0
30
0
11
47135.6
21
243800.0
31
0
0
LINE
8
lighting
10
47135.6
20
243800.0
30
0
11
47102.9
21
243800.0
31
0
0
LINE
8
lighting
10
47102.9
20
243800.0
30
0
11
46997.1
21
243800.0
31
0
0
LINE
8
lighting
10
46997.1
20
243800.0
30
0
11
46964.4
21
243800.0
31
0
0
LINE
8
lighting
10
46964.4
20
243800.0
30
0
11
47050.0
21
243800.0
31
0
0
LINE
8
lighting
10
48150.0
20
243550.0
30
0
11
48235.6
21
243550.0
31
0
0
LINE
8
lighting
10
48235.6
20
243550.0
30
0
11
48202.9
21
243550.0
31
0
0
LINE
8
lighting
10
48202.9
20
243550.0
30
0
11
48097.1
21
243550.0
31
0
0
LINE
8
lighting
10
48097.1
20
243550.0
30
0
11
48064.4
21
243550.0
31
0
0
LINE
8
lighting
10
48064.4
20
243550.0
30
0
11
48150.0
21
243550.0
31
0
0
LINE
8
lighting
10
48150.0
20
243800.0
30
0
11
48150.0
21
243550.0
31
0
0
LINE
8
lighting
10
48150.0
20
243800.0
30
0
11
48235.6
21
243800.0
31
0
0
LINE
8
lighting
10
48235.6
20
243800.0
30
0
11
48202.9
21
243800.0
31
0
0
LINE
8
lighting
10
48202.9
20
243800.0
30
0
11
48097.1
21
243800.0
31
0
0
LINE
8
lighting
10
48097.1
20
243800.0
30
0
11
48064.4
21
243800.0
31
0
0
LINE
8
lighting
10
48064.4
20
243800.0
30
0
11
48150.0
21
243800.0
31
0
0
LINE
8
lighting
10
47609.0
20
243800.0
30
0
11
47595.5
21
243807.79
31
0
0
LINE
8
lighting
10
47595.5
20
243807.79
30
0
11
47595.5
21
243792.21
31
0
0
LINE
8
lighting
10
47595.5
20
243792.21
30
0
11
47609.0
21
243800.0
31
0
0
LINE
8
electrical
10
40400.0
20
229880.0
30
0
11
40400.0
21
229872.21
31
0
0
LINE
8
electrical
10
40400.0
20
229872.21
30
0
11
40400.0
21
229887.79
31
0
0
LINE
8
electrical
10
40400.0
20
229887.79
30
0
11
40400.0
21
229880.0
31
0
0
LINE
8
electrical
10
48550.0
20
229880.0
30
0
11
40400.0
21
229880.0
31
0
0
LINE
8
electrical
10
48550.0
20
229880.0
30
0
11
48550.0
21
229872.21
31
0
0
LINE
8
electrical
10
48550.0
20
229872.21
30
0
11
48550.0
21
229887.79
31
0
0
LINE
8
electrical
10
48550.0
20
229887.79
30
0
11
48550.0
21
229880.0
31
0
0
LINE
8
electrical
10
40400.0
20
243800.0
30
0
11
40407.79
21
243800.0
31
0
0
LINE
8
electrical
10
40407.79
20
243800.0
30
0
11
40392.21
21
243800.0
31
0
0
LINE
8
electrical
10
40392.21
20
243800.0
30
0
11
40400.0
21
243800.0
31
0
0
LINE
8
electrical
10
40400.0
20
229880.0
30
0
11
40400.0
21
243800.0
31
0
0
LINE
8
electrical
10
40400.0
20
229880.0
30
0
11
40407.79
21
229880.0
31
0
0
LINE
8
electrical
10
40407.79
20
229880.0
30
0
11
40392.21
21
229880.0
31
0
0
LINE
8
electrical
10
40392.21
20
229880.0
30
0
11
40400.0
21
229880.0
31
0
0
LINE
8
electrical
10
47600.0
20
243800.0
30
0
11
47607.79
21
243800.0
31
0
0
LINE
8
electrical
10
47607.79
20
243800.0
30
0
11
47592.21
21
243800.0
31
0
0
LINE
8
electrical
10
47592.21
20
243800.0
30
0
11
47600.0
21
243800.0
31
0
0
LINE
8
electrical
10
47600.0
20
229880.0
30
0
11
47600.0
21
243800.0
31
0
0
LINE
8
electrical
10
47600.0
20
229880.0
30
0
11
47607.79
21
229880.0
31
0
0
LINE
8
electrical
10
47607.79
20
229880.0
30
0
11
47592.21
21
229880.0
31
0
0
LINE
8
electrical
10
47592.21
20
229880.0
30
0
11
47600.0
21
229880.0
31
0
0
LINE
8
electrical
10
48563.0
20
227200.0
30
0
11
48543.5
21
227211.26
31
0
0
LINE
8
electrical
10
48543.5
20
227211.26
30
0
11
48543.5
21
227188.74
31
0
0
LINE
8
electrical
10
48543.5
20
227188.74
30
0
11
48563.0
21
227200.0
31
0
0
LINE
8
electrical
10
47512.1
20
229884.74
30
0
11
47493.95
21
229877.63
31
0
0
LINE
8
electrical
10
47493.95
20
229877.63
30
0
11
47493.95
21
229877.63
31
0
0
LINE
8
electrical
10
47493.95
20
229877.63
30
0
11
47512.1
21
229884.74
31
0
0
LINE
8
electrical
10
48562.1
20
227204.74
30
0
11
47512.1
21
229884.74
31
0
0
LINE
8
electrical
10
48562.1
20
227204.74
30
0
11
48543.95
21
227197.63
31
0
0
LINE
8
electrical
10
48543.95
20
227197.63
30
0
11
48543.95
21
227197.63
31
0
0
LINE
8
electrical
10
48543.95
20
227197.63
30
0
11
48562.1
21
227204.74
31
0
0
LINE
8
electrical
10
40500.0
20
229880.0
30
0
11
40500.0
21
229868.74
31
0
0
LINE
8
electrical
10
40500.0
20
229868.74
30
0
11
40500.0
21
229891.26
31
0
0
LINE
8
electrical
10
40500.0
20
229891.26
30
0
11
40500.0
21
229880.0
31
0
0
LINE
8
electrical
10
47500.0
20
229880.0
30
0
11
40500.0
21
229880.0
31
0
0
LINE
8
electrical
10
47500.0
20
229880.0
30
0
11
47500.0
21
229868.74
31
0
0
LINE
8
electrical
10
47500.0
20
229868.74
30
0
11
47500.0
21
229891.26
31
0
0
LINE
8
electrical
10
47500.0
20
229891.26
30
0
11
47500.0
21
229880.0
31
0
0
LINE
8
electrical
10
48550.0
20
227200.0
30
0
11
48564.04
21
227200.0
31
0
0
LINE
8
electrical
10
48564.04
20
227200.0
30
0
11
48550.0
21
227200.0
31
0
0
LINE
8
electrical
10
47500.0
20
229880.0
30
0
11
47514.04
21
229880.0
31
0
0
LINE
8
electrical
10
47514.04
20
229880.0
30
0
11
47500.0
21
229880.0
31
0
0
LINE
8
electrical
10
48563.0
20
227200.0
30
0
11
48543.5
21
227211.26
31
0
0
LINE
8
electrical
10
48543.5
20
227211.26
30
0
11
48543.5
21
227188.74
31
0
0
LINE
8
electrical
10
48543.5
20
227188.74
30
0
11
48563.0
21
227200.0
31
0
0
LINE
8
electrical
10
47512.17
20
230004.56
30
0
11
47493.91
21
229997.72
31
0
0
LINE
8
electrical
10
47493.91
20
229997.72
30
0
11
47493.91
21
229997.72
31
0
0
LINE
8
electrical
10
47493.91
20
229997.72
30
0
11
47512.17
21
230004.56
31
0
0
LINE
8
electrical
10
48562.17
20
227204.56
30
0
11
47512.17
21
230004.56
31
0
0
LINE
8
electrical
10
48562.17
20
227204.56
30
0
11
48543.91
21
227197.72
31
0
0
LINE
8
electrical
10
48543.91
20
227197.72
30
0
11
48543.91
21
227197.72
31
0
0
LINE
8
electrical
10
48543.91
20
227197.72
30
0
11
48562.17
21
227204.56
31
0
0
LINE
8
electrical
10
40500.0
20
230000.0
30
0
11
40500.0
21
229988.74
31
0
0
LINE
8
electrical
10
40500.0
20
229988.74
30
0
11
40500.0
21
230011.26
31
0
0
LINE
8
electrical
10
40500.0
20
230011.26
30
0
11
40500.0
21
230000.0
31
0
0
LINE
8
electrical
10
47500.0
20
230000.0
30
0
11
40500.0
21
230000.0
31
0
0
LINE
8
electrical
10
47500.0
20
230000.0
30
0
11
47500.0
21
229988.74
31
0
0
LINE
8
electrical
10
47500.0
20
229988.74
30
0
11
47500.0
21
230011.26
31
0
0
LINE
8
electrical
10
47500.0
20
230011.26
30
0
11
47500.0
21
230000.0
31
0
0
LINE
8
electrical
10
48550.0
20
227200.0
30
0
11
48564.04
21
227200.0
31
0
0
LINE
8
electrical
10
48564.04
20
227200.0
30
0
11
48550.0
21
227200.0
31
0
0
LINE
8
electrical
10
47500.0
20
230000.0
30
0
11
47514.04
21
230000.0
31
0
0
LINE
8
electrical
10
47514.04
20
230000.0
30
0
11
47500.0
21
230000.0
31
0
0
LINE
8
electrical
10
48563.0
20
227200.0
30
0
11
48543.5
21
227211.26
31
0
0
LINE
8
electrical
10
48543.5
20
227211.26
30
0
11
48543.5
21
227188.74
31
0
0
LINE
8
electrical
10
48543.5
20
227188.74
30
0
11
48563.0
21
227200.0
31
0
0
LINE
8
electrical
10
47512.23
20
230124.4
30
0
11
47493.88
21
230117.8
31
0
0
LINE
8
electrical
10
47493.88
20
230117.8
30
0
11
47493.88
21
230117.8
31
0
0
LINE
8
electrical
10
47493.88
20
230117.8
30
0
11
47512.23
21
230124.4
31
0
0
LINE
8
electrical
10
48562.23
20
227204.4
30
0
11
47512.23
21
230124.4
31
0
0
LINE
8
electrical
10
48562.23
20
227204.4
30
0
11
48543.88
21
227197.8
31
0
0
LINE
8
electrical
10
48543.88
20
227197.8
30
0
11
48543.88
21
227197.8
31
0
0
LINE
8
electrical
10
48543.88
20
227197.8
30
0
11
48562.23
21
227204.4
31
0
0
LINE
8
electrical
10
40500.0
20
230120.0
30
0
11
40500.0
21
230108.74
31
0
0
LINE
8
electrical
10
40500.0
20
230108.74
30
0
11
40500.0
21
230131.26
31
0
0
LINE
8
electrical
10
40500.0
20
230131.26
30
0
11
40500.0
21
230120.0
31
0
0
LINE
8
electrical
10
47500.0
20
230120.0
30
0
11
40500.0
21
230120.0
31
0
0
LINE
8
electrical
10
47500.0
20
230120.0
30
0
11
47500.0
21
230108.74
31
0
0
LINE
8
electrical
10
47500.0
20
230108.74
30
0
11
47500.0
21
230131.26
31
0
0
LINE
8
electrical
10
47500.0
20
230131.26
30
0
11
47500.0
21
230120.0
31
0
0
LINE
8
electrical
10
48550.0
20
227200.0
30
0
11
48564.04
21
227200.0
31
0
0
LINE
8
electrical
10
48564.04
20
227200.0
30
0
11
48550.0
21
227200.0
31
0
0
LINE
8
electrical
10
47500.0
20
230120.0
30
0
11
47514.04
21
230120.0
31
0
0
LINE
8
electrical
10
47514.04
20
230120.0
30
0
11
47500.0
21
230120.0
31
0
0
LINE
8
electrical
10
40935.0
20
227150.0
30
0
11
40935.0
21
227210.0
31
0
0
LINE
8
electrical
10
41065.0
20
227150.0
30
0
11
41065.0
21
227210.0
31
0
0
LINE
8
electrical
10
40935.0
20
227150.0
30
0
11
41065.0
21
227150.0
31
0
0
LINE
8
electrical
10
40935.0
20
227210.0
30
0
11
41065.0
21
227210.0
31
0
0
LINE
8
electrical
10
41009.0
20
227180.0
30
0
11
40995.5
21
227187.79
31
0
0
LINE
8
electrical
10
40995.5
20
227187.79
30
0
11
40995.5
21
227172.21
31
0
0
LINE
8
electrical
10
40995.5
20
227172.21
30
0
11
41009.0
21
227180.0
31
0
0
LINE
8
electrical
10
48550.0
20
227180.0
30
0
11
48550.0
21
227172.21
31
0
0
LINE
8
electrical
10
48550.0
20
227172.21
30
0
11
48550.0
21
227187.79
31
0
0
LINE
8
electrical
10
48550.0
20
227187.79
30
0
11
48550.0
21
227180.0
31
0
0
LINE
8
electrical
10
41000.0
20
227180.0
30
0
11
48550.0
21
227180.0
31
0
0
LINE
8
electrical
10
41000.0
20
227180.0
30
0
11
41000.0
21
227172.21
31
0
0
LINE
8
electrical
10
41000.0
20
227172.21
30
0
11
41000.0
21
227187.79
31
0
0
LINE
8
electrical
10
41000.0
20
227187.79
30
0
11
41000.0
21
227180.0
31
0
0
LINE
8
electrical
10
41000.0
20
227180.0
30
0
11
41009.72
21
227180.0
31
0
0
LINE
8
electrical
10
41009.72
20
227180.0
30
0
11
41000.0
21
227180.0
31
0
0
LINE
8
electrical
10
46935.0
20
227150.0
30
0
11
46935.0
21
227210.0
31
0
0
LINE
8
electrical
10
47065.0
20
227150.0
30
0
11
47065.0
21
227210.0
31
0
0
LINE
8
electrical
10
46935.0
20
227150.0
30
0
11
47065.0
21
227150.0
31
0
0
LINE
8
electrical
10
46935.0
20
227210.0
30
0
11
47065.0
21
227210.0
31
0
0
LINE
8
electrical
10
47009.0
20
227180.0
30
0
11
46995.5
21
227187.79
31
0
0
LINE
8
electrical
10
46995.5
20
227187.79
30
0
11
46995.5
21
227172.21
31
0
0
LINE
8
electrical
10
46995.5
20
227172.21
30
0
11
47009.0
21
227180.0
31
0
0
LINE
8
electrical
10
48550.0
20
227180.0
30
0
11
48550.0
21
227172.21
31
0
0
LINE
8
electrical
10
48550.0
20
227172.21
30
0
11
48550.0
21
227187.79
31
0
0
LINE
8
electrical
10
48550.0
20
227187.79
30
0
11
48550.0
21
227180.0
31
0
0
LINE
8
electrical
10
47000.0
20
227180.0
30
0
11
48550.0
21
227180.0
31
0
0
LINE
8
electrical
10
47000.0
20
227180.0
30
0
11
47000.0
21
227172.21
31
0
0
LINE
8
electrical
10
47000.0
20
227172.21
30
0
11
47000.0
21
227187.79
31
0
0
LINE
8
electrical
10
47000.0
20
227187.79
30
0
11
47000.0
21
227180.0
31
0
0
LINE
8
electrical
10
47000.0
20
227180.0
30
0
11
47009.72
21
227180.0
31
0
0
LINE
8
electrical
10
47009.72
20
227180.0
30
0
11
47000.0
21
227180.0
31
0
0
LINE
8
hvac
10
39475.0
20
227725.0
30
0
11
39475.0
21
228475.0
31
0
0
LINE
8
hvac
10
41125.0
20
227725.0
30
0
11
41125.0
21
228475.0
31
0
0
LINE
8
hvac
10
39475.0
20
227725.0
30
0
11
41125.0
21
227725.0
31
0
0
LINE
8
hvac
10
39475.0
20
228475.0
30
0
11
41125.0
21
228475.0
31
0
0
LINE
8
hvac
10
39575.0
20
227680.0
30
0
11
39575.0
21
227720.0
31
0
0
LINE
8
hvac
10
41025.0
20
227680.0
30
0
11
41025.0
21
227720.0
31
0
0
LINE
8
hvac
10
39575.0
20
227680.0
30
0
11
41025.0
21
227680.0
31
0
0
LINE
8
hvac
10
39575.0
20
227720.0
30
0
11
41025.0
21
227720.0
31
0
0
LINE
8
hvac
10
39640.0
20
227640.0
30
0
11
39640.0
21
227700.0
31
0
0
LINE
8
hvac
10
39680.0
20
227640.0
30
0
11
39680.0
21
227700.0
31
0
0
LINE
8
hvac
10
39640.0
20
227640.0
30
0
11
39680.0
21
227640.0
31
0
0
LINE
8
hvac
10
39640.0
20
227700.0
30
0
11
39680.0
21
227700.0
31
0
0
LINE
8
hvac
10
39800.0
20
227640.0
30
0
11
39800.0
21
227700.0
31
0
0
LINE
8
hvac
10
39840.0
20
227640.0
30
0
11
39840.0
21
227700.0
31
0
0
LINE
8
hvac
10
39800.0
20
227640.0
30
0
11
39840.0
21
227640.0
31
0
0
LINE
8
hvac
10
39800.0
20
227700.0
30
0
11
39840.0
21
227700.0
31
0
0
LINE
8
hvac
10
39960.0
20
227640.0
30
0
11
39960.0
21
227700.0
31
0
0
LINE
8
hvac
10
40000.0
20
227640.0
30
0
11
40000.0
21
227700.0
31
0
0
LINE
8
hvac
10
39960.0
20
227640.0
30
0
11
40000.0
21
227640.0
31
0
0
LINE
8
hvac
10
39960.0
20
227700.0
30
0
11
40000.0
21
227700.0
31
0
0
LINE
8
hvac
10
40120.0
20
227640.0
30
0
11
40120.0
21
227700.0
31
0
0
LINE
8
hvac
10
40160.0
20
227640.0
30
0
11
40160.0
21
227700.0
31
0
0
LINE
8
hvac
10
40120.0
20
227640.0
30
0
11
40160.0
21
227640.0
31
0
0
LINE
8
hvac
10
40120.0
20
227700.0
30
0
11
40160.0
21
227700.0
31
0
0
LINE
8
hvac
10
40280.0
20
227640.0
30
0
11
40280.0
21
227700.0
31
0
0
LINE
8
hvac
10
40320.0
20
227640.0
30
0
11
40320.0
21
227700.0
31
0
0
LINE
8
hvac
10
40280.0
20
227640.0
30
0
11
40320.0
21
227640.0
31
0
0
LINE
8
hvac
10
40280.0
20
227700.0
30
0
11
40320.0
21
227700.0
31
0
0
LINE
8
hvac
10
40440.0
20
227640.0
30
0
11
40440.0
21
227700.0
31
0
0
LINE
8
hvac
10
40480.0
20
227640.0
30
0
11
40480.0
21
227700.0
31
0
0
LINE
8
hvac
10
40440.0
20
227640.0
30
0
11
40480.0
21
227640.0
31
0
0
LINE
8
hvac
10
40440.0
20
227700.0
30
0
11
40480.0
21
227700.0
31
0
0
LINE
8
hvac
10
40600.0
20
227640.0
30
0
11
40600.0
21
227700.0
31
0
0
LINE
8
hvac
10
40640.0
20
227640.0
30
0
11
40640.0
21
227700.0
31
0
0
LINE
8
hvac
10
40600.0
20
227640.0
30
0
11
40640.0
21
227640.0
31
0
0
LINE
8
hvac
10
40600.0
20
227700.0
30
0
11
40640.0
21
227700.0
31
0
0
LINE
8
hvac
10
40760.0
20
227640.0
30
0
11
40760.0
21
227700.0
31
0
0
LINE
8
hvac
10
40800.0
20
227640.0
30
0
11
40800.0
21
227700.0
31
0
0
LINE
8
hvac
10
40760.0
20
227640.0
30
0
11
40800.0
21
227640.0
31
0
0
LINE
8
hvac
10
40760.0
20
227700.0
30
0
11
40800.0
21
227700.0
31
0
0
LINE
8
hvac
10
40920.0
20
227640.0
30
0
11
40920.0
21
227700.0
31
0
0
LINE
8
hvac
10
40960.0
20
227640.0
30
0
11
40960.0
21
227700.0
31
0
0
LINE
8
hvac
10
40920.0
20
227640.0
30
0
11
40960.0
21
227640.0
31
0
0
LINE
8
hvac
10
40920.0
20
227700.0
30
0
11
40960.0
21
227700.0
31
0
0
LINE
8
hvac
10
40075.0
20
227875.0
30
0
11
40075.0
21
228325.0
31
0
0
LINE
8
hvac
10
40525.0
20
227875.0
30
0
11
40525.0
21
228325.0
31
0
0
LINE
8
hvac
10
40075.0
20
227875.0
30
0
11
40525.0
21
227875.0
31
0
0
LINE
8
hvac
10
40075.0
20
228325.0
30
0
11
40525.0
21
228325.0
31
0
0
LINE
8
hvac
10
40500.0
20
236825.0
30
0
11
40500.0
21
237175.0
31
0
0
LINE
8
hvac
10
47500.0
20
236825.0
30
0
11
47500.0
21
237175.0
31
0
0
LINE
8
hvac
10
40500.0
20
236825.0
30
0
11
47500.0
21
236825.0
31
0
0
LINE
8
hvac
10
40500.0
20
237175.0
30
0
11
47500.0
21
237175.0
31
0
0
LINE
8
hvac
10
40125.0
20
227925.0
30
0
11
40125.0
21
228275.0
31
0
0
LINE
8
hvac
10
44175.0
20
227925.0
30
0
11
44175.0
21
228275.0
31
0
0
LINE
8
hvac
10
40125.0
20
227925.0
30
0
11
44175.0
21
227925.0
31
0
0
LINE
8
hvac
10
40125.0
20
228275.0
30
0
11
44175.0
21
228275.0
31
0
0
LINE
8
hvac
10
43825.0
20
227925.0
30
0
11
43825.0
21
237175.0
31
0
0
LINE
8
hvac
10
44175.0
20
227925.0
30
0
11
44175.0
21
237175.0
31
0
0
LINE
8
hvac
10
43825.0
20
227925.0
30
0
11
44175.0
21
227925.0
31
0
0
LINE
8
hvac
10
43825.0
20
237175.0
30
0
11
44175.0
21
237175.0
31
0
0
LINE
8
hvac
10
41650.0
20
236650.0
30
0
11
41650.0
21
237350.0
31
0
0
LINE
8
hvac
10
42350.0
20
236650.0
30
0
11
42350.0
21
237350.0
31
0
0
LINE
8
hvac
10
41650.0
20
236650.0
30
0
11
42350.0
21
236650.0
31
0
0
LINE
8
hvac
10
41650.0
20
237350.0
30
0
11
42350.0
21
237350.0
31
0
0
LINE
8
hvac
10
45650.0
20
236650.0
30
0
11
45650.0
21
237350.0
31
0
0
LINE
8
hvac
10
46350.0
20
236650.0
30
0
11
46350.0
21
237350.0
31
0
0
LINE
8
hvac
10
45650.0
20
236650.0
30
0
11
46350.0
21
236650.0
31
0
0
LINE
8
hvac
10
45650.0
20
237350.0
30
0
11
46350.0
21
237350.0
31
0
0
LINE
8
sensors
10
39040.0
20
231320.0
30
0
11
39040.0
21
231480.0
31
0
0
LINE
8
sensors
10
39140.0
20
231320.0
30
0
11
39140.0
21
231480.0
31
0
0
LINE
8
sensors
10
39040.0
20
231320.0
30
0
11
39140.0
21
231320.0
31
0
0
LINE
8
sensors
10
39040.0
20
231480.0
30
0
11
39140.0
21
231480.0
31
0
0
LINE
8
sensors
10
39145.0
20
231345.0
30
0
11
39145.0
21
231455.0
31
0
0
LINE
8
sensors
10
39165.0
20
231345.0
30
0
11
39165.0
21
231455.0
31
0
0
LINE
8
sensors
10
39145.0
20
231345.0
30
0
11
39165.0
21
231345.0
31
0
0
LINE
8
sensors
10
39145.0
20
231455.0
30
0
11
39165.0
21
231455.0
31
0
0
LINE
8
sensors
10
39040.0
20
231620.0
30
0
11
39040.0
21
231780.0
31
0
0
LINE
8
sensors
10
39140.0
20
231620.0
30
0
11
39140.0
21
231780.0
31
0
0
LINE
8
sensors
10
39040.0
20
231620.0
30
0
11
39140.0
21
231620.0
31
0
0
LINE
8
sensors
10
39040.0
20
231780.0
30
0
11
39140.0
21
231780.0
31
0
0
LINE
8
sensors
10
39145.0
20
231645.0
30
0
11
39145.0
21
231755.0
31
0
0
LINE
8
sensors
10
39165.0
20
231645.0
30
0
11
39165.0
21
231755.0
31
0
0
LINE
8
sensors
10
39145.0
20
231645.0
30
0
11
39165.0
21
231645.0
31
0
0
LINE
8
sensors
10
39145.0
20
231755.0
30
0
11
39165.0
21
231755.0
31
0
0
LINE
8
sensors
10
39040.0
20
231920.0
30
0
11
39040.0
21
232080.0
31
0
0
LINE
8
sensors
10
39140.0
20
231920.0
30
0
11
39140.0
21
232080.0
31
0
0
LINE
8
sensors
10
39040.0
20
231920.0
30
0
11
39140.0
21
231920.0
31
0
0
LINE
8
sensors
10
39040.0
20
232080.0
30
0
11
39140.0
21
232080.0
31
0
0
LINE
8
sensors
10
39145.0
20
231945.0
30
0
11
39145.0
21
232055.0
31
0
0
LINE
8
sensors
10
39165.0
20
231945.0
30
0
11
39165.0
21
232055.0
31
0
0
LINE
8
sensors
10
39145.0
20
231945.0
30
0
11
39165.0
21
231945.0
31
0
0
LINE
8
sensors
10
39145.0
20
232055.0
30
0
11
39165.0
21
232055.0
31
0
0
LINE
8
sensors
10
44080.0
20
237000.0
30
0
11
44000.0
21
237080.0
31
0
0
LINE
8
sensors
10
44000.0
20
237080.0
30
0
11
43920.0
21
237000.0
31
0
0
LINE
8
sensors
10
43920.0
20
237000.0
30
0
11
44000.0
21
236920.0
31
0
0
LINE
8
sensors
10
44000.0
20
236920.0
30
0
11
44080.0
21
237000.0
31
0
0
LINE
8
sensors
10
44000.0
20
237000.0
30
0
11
44065.0
21
237000.0
31
0
0
LINE
8
sensors
10
44065.0
20
237000.0
30
0
11
44000.0
21
237000.0
31
0
0
LINE
8
sensors
10
39040.0
20
232520.0
30
0
11
39040.0
21
232680.0
31
0
0
LINE
8
sensors
10
39140.0
20
232520.0
30
0
11
39140.0
21
232680.0
31
0
0
LINE
8
sensors
10
39040.0
20
232520.0
30
0
11
39140.0
21
232520.0
31
0
0
LINE
8
sensors
10
39040.0
20
232680.0
30
0
11
39140.0
21
232680.0
31
0
0
LINE
8
sensors
10
39145.0
20
232545.0
30
0
11
39145.0
21
232655.0
31
0
0
LINE
8
sensors
10
39165.0
20
232545.0
30
0
11
39165.0
21
232655.0
31
0
0
LINE
8
sensors
10
39145.0
20
232545.0
30
0
11
39165.0
21
232545.0
31
0
0
LINE
8
sensors
10
39145.0
20
232655.0
30
0
11
39165.0
21
232655.0
31
0
0
ENDSEC
0
EOF
