<svg xmlns="http://www.w3.org/2000/svg" width="1400" height="1000" viewBox="0 0 1400 1000" style="width:100%;height:auto">
<rect width="1400" height="1000" fill="#fafcf8"/>
<g font-family="Segoe UI,Microsoft YaHei,sans-serif">
<rect x="22" y="22" width="1356" height="956" fill="none" stroke="#547773"/>
<text x="44" y="57" font-size="15" fill="#294d56" text-anchor="start">PHOENIX / CONCEPT MEP</text>
<text x="44" y="88" font-size="27" fill="#294d56" text-anchor="start">展示中心 / 接待服务</text>
<text x="1350" y="52" font-size="12" fill="#294d56" text-anchor="end">FreeCAD BRep 平面投影 · 毫米源模型</text>
<text x="1350" y="77" font-size="12" fill="#294d56" text-anchor="end">EXHIBITION_R01_plan / V4</text>
<path d="M44 104H1350 M44 562H1350" stroke="#b0c3bd"/>
<defs><clipPath id="plan-area"><rect x="42" y="110" width="1310" height="424"/></clipPath></defs><g clip-path="url(#plan-area)">
<path d="M610.26,489.49 L610.26,130.51 M610.26,489.49 L678.46,489.49 M678.46,489.49 L721.54,489.49 M721.54,489.49 L789.74,489.49 M610.26,489.49 L789.74,489.49 M610.26,130.51 L789.74,130.51 M789.74,489.49 L789.74,130.51 M787.59,487.33 L612.41,487.33 M787.59,487.33 L787.59,132.67 M787.59,132.67 L612.41,132.67 M612.41,487.33 L612.41,132.67 M653.33,130.51 L746.67,130.51 M721.54,489.49 L721.54,487.33 M787.59,487.33 L721.54,487.33 M678.46,487.33 L612.41,487.33 M678.46,489.49 L678.46,487.33 M678.46,487.33 L721.54,487.33 M653.33,132.67 L746.67,132.67 M653.33,132.67 L653.33,130.51 M746.67,132.67 L746.67,130.51" fill="none" stroke="#71837d" stroke-width="0.7" opacity=".83"/>
<path d="M653.33,130.92 L653.33,130.11 M746.67,130.92 L746.67,130.11 M653.33,130.92 L746.67,130.92 M653.33,130.11 L746.67,130.11" fill="none" stroke="#71837d" stroke-width="0.7" opacity=".83"/>
<path d="M612.50,487.24 L612.50,132.76 M787.50,487.24 L787.50,132.76 M612.50,487.24 L787.50,487.24 M612.50,132.76 L787.50,132.76" fill="none" stroke="#71837d" stroke-width="0.7" opacity=".83"/>
<path d="M679.27,491.64 L679.27,487.33 M680.53,491.64 L680.53,487.33 M679.27,491.64 L680.53,491.64 M679.27,487.33 L680.53,487.33 M719.47,491.64 L719.47,487.33 M720.73,491.64 L720.73,487.33 M719.47,491.64 L720.73,491.64 M719.47,487.33 L720.73,487.33 M679.36,491.64 L679.36,487.33 M720.64,491.64 L720.64,487.33 M679.36,491.64 L720.64,491.64 M679.36,487.33 L720.64,487.33 M680.80,487.86 L680.07,487.52 M688.99,470.29 L688.26,469.95 M680.80,487.86 L688.99,470.29 M680.07,487.52 L688.26,469.95" fill="none" stroke="#71837d" stroke-width="0.7" opacity=".83"/>
<path d="M668.59,374.62 L668.59,353.08 M731.41,374.62 L731.41,353.08 M668.59,374.62 L731.41,374.62 M668.59,353.08 L731.41,353.08 M694.62,364.38 L694.62,363.31 M705.38,364.38 L705.38,363.31 M694.62,364.38 L705.38,364.38 M694.62,363.31 L705.38,363.31 M699.46,364.47 L699.46,363.22 M700.54,364.47 L700.54,363.22 M699.46,364.47 L700.54,364.47 M699.46,363.22 L700.54,363.22 M697.31,365.82 L697.31,361.87 M702.69,365.82 L702.69,361.87 M697.31,365.82 L702.69,365.82 M697.31,361.87 L702.69,361.87" fill="none" stroke="#71837d" stroke-width="0.7" opacity=".83"/>
<path d="M776.73,488.14 L776.73,483.65 M786.60,488.14 L786.60,483.65 M776.73,488.14 L786.60,488.14 M776.73,483.65 L786.60,483.65 M777.45,488.63 L777.45,488.01 M785.88,488.63 L785.88,488.01 M777.45,488.63 L785.88,488.63 M777.45,488.01 L785.88,488.01 M778.30,489.31 L778.30,488.59 M780.10,489.31 L780.10,488.59 M778.30,489.31 L780.10,489.31 M778.30,488.59 L780.10,488.59 M780.77,489.31 L780.77,488.59 M782.56,489.31 L782.56,488.59 M780.77,489.31 L782.56,489.31 M780.77,488.59 L782.56,488.59 M783.24,489.31 L783.24,488.59 M785.03,489.31 L785.03,488.59 M783.24,489.31 L785.03,489.31 M783.24,488.59 L785.03,488.59 M779.20,489.58 L779.62,489.58 L778.78,489.58 L779.20,489.58 M779.20,489.13 L779.20,489.58 M779.20,489.13 L779.62,489.13 L778.78,489.13 L779.20,489.13 M781.67,489.58 L782.09,489.58 L781.25,489.58 L781.67,489.58 M781.67,489.13 L781.67,489.58 M781.67,489.13 L782.09,489.13 L781.25,489.13 L781.67,489.13 M784.13,489.58 L784.55,489.58 L783.71,489.58 L784.13,489.58 M784.13,489.13 L784.13,489.58 M784.13,489.13 L784.55,489.13 L783.71,489.13 L784.13,489.13" fill="none" stroke="#bd893d" stroke-width="0.85" opacity=".83"/>
<path d="M781.67,485.90 L781.95,485.90 L781.39,485.90 L781.67,485.90 M781.67,611.54 L781.67,485.90 M781.34,485.90 L781.83,485.62 L781.83,486.18 L781.34,485.90 M781.67,485.90 L782.02,485.90 L781.67,485.90" fill="none" stroke="#bd893d" stroke-width="0.85" opacity=".83"/>
<path d="M619.23,432.54 L619.23,431.56 M651.54,432.54 L651.54,431.56 M619.23,432.54 L651.54,432.54 M619.23,431.56 L651.54,431.56 M625.51,427.56 L627.05,427.56 L626.46,427.56 L624.56,427.56 L623.98,427.56 L625.51,427.56 M625.51,432.05 L625.51,427.56 M625.51,432.05 L627.05,432.05 L626.46,432.05 L624.56,432.05 L623.98,432.05 L625.51,432.05 M645.26,436.54 L646.79,436.54 L646.21,436.54 L644.31,436.54 L643.72,436.54 L645.26,436.54 M645.26,432.05 L645.26,436.54 M645.26,432.05 L646.79,432.05 L646.21,432.05 L644.31,432.05 L643.72,432.05 L645.26,432.05 M635.55,432.05 L635.30,431.91 L635.30,432.19 L635.55,432.05" fill="none" stroke="#cf9a23" stroke-width="0.85" opacity=".83"/>
<path d="M748.46,432.54 L748.46,431.56 M780.77,432.54 L780.77,431.56 M748.46,432.54 L780.77,432.54 M748.46,431.56 L780.77,431.56 M754.74,427.56 L756.28,427.56 L755.69,427.56 L753.79,427.56 L753.21,427.56 L754.74,427.56 M754.74,432.05 L754.74,427.56 M754.74,432.05 L756.28,432.05 L755.69,432.05 L753.79,432.05 L753.21,432.05 L754.74,432.05 M774.49,436.54 L776.02,436.54 L775.44,436.54 L773.54,436.54 L772.95,436.54 L774.49,436.54 M774.49,432.05 L774.49,436.54 M774.49,432.05 L776.02,432.05 L775.44,432.05 L773.54,432.05 L772.95,432.05 L774.49,432.05 M764.78,432.05 L764.53,431.91 L764.53,432.19 L764.78,432.05" fill="none" stroke="#cf9a23" stroke-width="0.85" opacity=".83"/>
<path d="M619.23,188.44 L619.23,187.46 M651.54,188.44 L651.54,187.46 M619.23,188.44 L651.54,188.44 M619.23,187.46 L651.54,187.46 M625.51,183.46 L627.05,183.46 L626.46,183.46 L624.56,183.46 L623.98,183.46 L625.51,183.46 M625.51,187.95 L625.51,183.46 M625.51,187.95 L627.05,187.95 L626.46,187.95 L624.56,187.95 L623.98,187.95 L625.51,187.95 M645.26,192.44 L646.79,192.44 L646.21,192.44 L644.31,192.44 L643.72,192.44 L645.26,192.44 M645.26,187.95 L645.26,192.44 M645.26,187.95 L646.79,187.95 L646.21,187.95 L644.31,187.95 L643.72,187.95 L645.26,187.95 M635.55,187.95 L635.30,187.81 L635.30,188.09 L635.55,187.95" fill="none" stroke="#cf9a23" stroke-width="0.85" opacity=".83"/>
<path d="M748.46,188.44 L748.46,187.46 M780.77,188.44 L780.77,187.46 M748.46,188.44 L780.77,188.44 M748.46,187.46 L780.77,187.46 M754.74,183.46 L756.28,183.46 L755.69,183.46 L753.79,183.46 L753.21,183.46 L754.74,183.46 M754.74,187.95 L754.74,183.46 M754.74,187.95 L756.28,187.95 L755.69,187.95 L753.79,187.95 L753.21,187.95 L754.74,187.95 M774.49,192.44 L776.02,192.44 L775.44,192.44 L773.54,192.44 L772.95,192.44 L774.49,192.44 M774.49,187.95 L774.49,192.44 M774.49,187.95 L776.02,187.95 L775.44,187.95 L773.54,187.95 L772.95,187.95 L774.49,187.95 M764.78,187.95 L764.53,187.81 L764.53,188.09 L764.78,187.95" fill="none" stroke="#cf9a23" stroke-width="0.85" opacity=".83"/>
<path d="M635.38,437.79 L635.38,437.93 L635.38,437.66 L635.38,437.79 M781.67,437.79 L635.38,437.79 M781.67,437.79 L781.67,437.93 L781.67,437.66 L781.67,437.79 M635.38,187.95 L635.52,187.95 L635.24,187.95 L635.38,187.95 M635.38,437.79 L635.38,187.95 M635.38,437.79 L635.52,437.79 L635.24,437.79 L635.38,437.79 M764.62,187.95 L764.76,187.95 L764.48,187.95 L764.62,187.95 M764.62,437.79 L764.62,187.95 M764.62,437.79 L764.76,437.79 L764.48,437.79 L764.62,437.79" fill="none" stroke="#bd893d" stroke-width="0.85" opacity=".83"/>
<path d="M781.90,485.90 L781.55,485.70 L781.55,486.10 L781.90,485.90 M763.04,437.71 L762.71,437.84 L762.71,437.84 L763.04,437.71 M781.88,485.81 L763.04,437.71 M781.88,485.81 L781.56,485.94 L781.56,485.94 L781.88,485.81 M637.18,437.79 L637.18,438.00 L637.18,437.59 L637.18,437.79 M762.82,437.79 L637.18,437.79 M762.82,437.79 L762.82,438.00 L762.82,437.59 L762.82,437.79 M781.67,485.90 L781.92,485.90 L781.67,485.90 M762.82,437.79 L763.07,437.79 L762.82,437.79" fill="none" stroke="#bd893d" stroke-width="0.85" opacity=".83"/>
<path d="M781.90,485.90 L781.55,485.70 L781.55,486.10 L781.90,485.90 M763.04,435.56 L762.71,435.68 L762.71,435.68 L763.04,435.56 M781.89,485.82 L763.04,435.56 M781.89,485.82 L781.56,485.94 L781.56,485.94 L781.89,485.82 M637.18,435.64 L637.18,435.84 L637.18,435.44 L637.18,435.64 M762.82,435.64 L637.18,435.64 M762.82,435.64 L762.82,435.84 L762.82,435.44 L762.82,435.64 M781.67,485.90 L781.92,485.90 L781.67,485.90 M762.82,435.64 L763.07,435.64 L762.82,435.64" fill="none" stroke="#bd893d" stroke-width="0.85" opacity=".83"/>
<path d="M781.90,485.90 L781.55,485.70 L781.55,486.10 L781.90,485.90 M763.04,433.41 L762.71,433.53 L762.71,433.53 L763.04,433.41 M781.89,485.82 L763.04,433.41 M781.89,485.82 L781.56,485.94 L781.56,485.94 L781.89,485.82 M637.18,433.49 L637.18,433.69 L637.18,433.29 L637.18,433.49 M762.82,433.49 L637.18,433.49 M762.82,433.49 L762.82,433.69 L762.82,433.29 L762.82,433.49 M781.67,485.90 L781.92,485.90 L781.67,485.90 M762.82,433.49 L763.07,433.49 L762.82,433.49" fill="none" stroke="#bd893d" stroke-width="0.85" opacity=".83"/>
<path d="M644.99,486.79 L644.99,485.72 M647.32,486.79 L647.32,485.72 M644.99,486.79 L647.32,486.79 M644.99,485.72 L647.32,485.72 M646.32,486.26 L646.07,486.12 L646.07,486.40 L646.32,486.26 M781.67,486.26 L781.67,486.40 L781.67,486.12 L781.67,486.26 M646.15,486.26 L781.67,486.26 M646.15,486.26 L646.15,486.40 L646.15,486.12 L646.15,486.26 M646.15,486.26 L646.33,486.26 L646.15,486.26" fill="none" stroke="#bd893d" stroke-width="0.85" opacity=".83"/>
<path d="M752.68,486.79 L752.68,485.72 M755.01,486.79 L755.01,485.72 M752.68,486.79 L755.01,486.79 M752.68,485.72 L755.01,485.72 M754.01,486.26 L753.77,486.12 L753.77,486.40 L754.01,486.26 M781.67,486.26 L781.67,486.40 L781.67,486.12 L781.67,486.26 M753.85,486.26 L781.67,486.26 M753.85,486.26 L753.85,486.40 L753.85,486.12 L753.85,486.26 M753.85,486.26 L754.02,486.26 L753.85,486.26" fill="none" stroke="#bd893d" stroke-width="0.85" opacity=".83"/>
<path d="M618.78,476.47 L618.78,463.01 M648.40,476.47 L648.40,463.01 M618.78,476.47 L648.40,476.47 M618.78,463.01 L648.40,463.01 M620.58,477.28 L620.58,476.56 M646.60,477.28 L646.60,476.56 M620.58,477.28 L646.60,477.28 M620.58,476.56 L646.60,476.56 M621.74,478.00 L621.74,476.92 M622.46,478.00 L622.46,476.92 M621.74,478.00 L622.46,478.00 M621.74,476.92 L622.46,476.92 M624.62,478.00 L624.62,476.92 M625.33,478.00 L625.33,476.92 M624.62,478.00 L625.33,478.00 M624.62,476.92 L625.33,476.92 M627.49,478.00 L627.49,476.92 M628.21,478.00 L628.21,476.92 M627.49,478.00 L628.21,478.00 M627.49,476.92 L628.21,476.92 M630.36,478.00 L630.36,476.92 M631.08,478.00 L631.08,476.92 M630.36,478.00 L631.08,478.00 M630.36,476.92 L631.08,476.92 M633.23,478.00 L633.23,476.92 M633.95,478.00 L633.95,476.92 M633.23,478.00 L633.95,478.00 M633.23,476.92 L633.95,476.92 M636.10,478.00 L636.10,476.92 M636.82,478.00 L636.82,476.92 M636.10,478.00 L636.82,478.00 M636.10,476.92 L636.82,476.92 M638.97,478.00 L638.97,476.92 M639.69,478.00 L639.69,476.92 M638.97,478.00 L639.69,478.00 M638.97,476.92 L639.69,476.92 M641.85,478.00 L641.85,476.92 M642.56,478.00 L642.56,476.92 M641.85,478.00 L642.56,478.00 M641.85,476.92 L642.56,476.92 M644.72,478.00 L644.72,476.92 M645.44,478.00 L645.44,476.92 M644.72,478.00 L645.44,478.00 M644.72,476.92 L645.44,476.92 M629.55,473.78 L629.55,465.71 M637.63,473.78 L637.63,465.71 M629.55,473.78 L637.63,473.78 M629.55,465.71 L637.63,465.71 M637.18,313.14 L637.18,306.86 M762.82,313.14 L762.82,306.86 M637.18,313.14 L762.82,313.14 M637.18,306.86 L762.82,306.86 M630.45,472.88 L630.45,466.60 M703.14,472.88 L703.14,466.60 M630.45,472.88 L703.14,472.88 M630.45,466.60 L703.14,466.60 M696.86,472.88 L696.86,306.86 M703.14,472.88 L703.14,306.86 M696.86,472.88 L703.14,472.88 M696.86,306.86 L703.14,306.86 M657.82,316.28 L657.82,303.72 M670.38,316.28 L670.38,303.72 M657.82,316.28 L670.38,316.28 M657.82,303.72 L670.38,303.72 M729.62,316.28 L729.62,303.72 M742.18,316.28 L742.18,303.72 M729.62,316.28 L742.18,316.28 M729.62,303.72 L742.18,303.72" fill="none" stroke="#629379" stroke-width="0.85" opacity=".83"/>
<path d="M610.97,411.95 L610.97,409.08 M612.77,411.95 L612.77,409.08 M610.97,411.95 L612.77,411.95 M610.97,409.08 L612.77,409.08 M612.86,411.50 L612.86,409.53 M613.22,411.50 L613.22,409.53 M612.86,411.50 L613.22,411.50 M612.86,409.53 L613.22,409.53" fill="none" stroke="#9d5c81" stroke-width="0.85" opacity=".83"/>
<path d="M610.97,406.56 L610.97,403.69 M612.77,406.56 L612.77,403.69 M610.97,406.56 L612.77,406.56 M610.97,403.69 L612.77,403.69 M612.86,406.12 L612.86,404.14 M613.22,406.12 L613.22,404.14 M612.86,406.12 L613.22,406.12 M612.86,404.14 L613.22,404.14" fill="none" stroke="#9d5c81" stroke-width="0.85" opacity=".83"/>
<path d="M610.97,401.18 L610.97,398.31 M612.77,401.18 L612.77,398.31 M610.97,401.18 L612.77,401.18 M610.97,398.31 L612.77,398.31 M612.86,400.73 L612.86,398.76 M613.22,400.73 L613.22,398.76 M612.86,400.73 L613.22,400.73 M612.86,398.76 L613.22,398.76" fill="none" stroke="#9d5c81" stroke-width="0.85" opacity=".83"/>
<path d="M701.44,310.00 L700.00,308.56 L698.56,310.00 L700.00,311.44 L701.44,310.00 M700.00,310.00 L701.17,310.00 L700.00,310.00" fill="none" stroke="#9d5c81" stroke-width="0.85" opacity=".83"/>
<path d="M610.97,390.41 L610.97,387.54 M612.77,390.41 L612.77,387.54 M610.97,390.41 L612.77,390.41 M610.97,387.54 L612.77,387.54 M612.86,389.96 L612.86,387.99 M613.22,389.96 L613.22,387.99 M612.86,389.96 L613.22,389.96 M612.86,387.99 L613.22,387.99" fill="none" stroke="#9d5c81" stroke-width="0.85" opacity=".83"/>
<rect x="640.0" y="297.0" width="120" height="34" fill="#fafcf8" opacity=".9"/>
<text x="700.0" y="310.0" font-size="12" fill="#294d56" text-anchor="middle">接待服务</text>
<text x="700.0" y="325.0" font-size="10" fill="#294d56" text-anchor="middle">EXHIBITION_R01 / F0 / +1.6m</text>
</g>
<text x="1320" y="147" font-size="17" fill="#294d56" text-anchor="middle">N</text>
<path d="M1320 182V155 M1314 165L1320 155 1326 165" fill="none" stroke="#355f63" stroke-width="2"/>
<text x="44" y="549" font-size="12" fill="#294d56" text-anchor="start">灰：室内构件   黄：电气与照明   蓝：水路   绿：通风   紫：传感器；隐藏管线一并投影，层叠处请结合三维检视。</text>
<text x="44" y="594" font-size="18" fill="#294d56" text-anchor="start">控制依赖与系统边界（非比例系统图）</text>
<rect x="45" y="613" width="230" height="52" rx="4" fill="#edf3ee" stroke="#357577"/>
<text x="57" y="634" font-size="13" fill="#294d56" text-anchor="start">本楼主配电柜</text>
<text x="57" y="653" font-size="10" fill="#294d56" text-anchor="start">V4_EXHIBITION_MDB</text>
<path d="M275 639H316l-7 -4m7 4l-7 4" fill="none" stroke="#638580"/>
<rect x="317" y="613" width="245" height="52" rx="4" fill="#edf3ee" stroke="#357577"/>
<text x="329" y="634" font-size="13" fill="#294d56" text-anchor="start">房间配电 / 分路开关</text>
<text x="329" y="653" font-size="10" fill="#294d56" text-anchor="start">EXHIBITION_R01_C_LIGHT / POWER / HVAC</text>
<path d="M562 639H605l-7 -4m7 4l-7 4" fill="none" stroke="#638580"/>
<rect x="606" y="613" width="310" height="52" rx="4" fill="#edf3ee" stroke="#357577"/>
<text x="618" y="634" font-size="13" fill="#294d56" text-anchor="start">灯具、插座负载、空调与泵</text>
<text x="618" y="653" font-size="10" fill="#294d56" text-anchor="start">断开上游 → 下游反馈与功率变化</text>
<path d="M916 639H958l-7 -4m7 4l-7 4" fill="none" stroke="#638580"/>
<rect x="959" y="613" width="385" height="52" rx="4" fill="#edf3ee" stroke="#357577"/>
<text x="971" y="634" font-size="13" fill="#294d56" text-anchor="start">状态 / 功率 / 环境传感器</text>
<text x="971" y="653" font-size="10" fill="#294d56" text-anchor="start">遥测回传 → 回执、趋势、告警</text>
<rect x="45" y="691" width="230" height="52" rx="4" fill="#edf3ee" stroke="#378ba2"/>
<text x="57" y="712" font-size="13" fill="#294d56" text-anchor="start">生活给水边界</text>
<text x="57" y="731" font-size="10" fill="#294d56" text-anchor="start">EXHIBITION_W_COLD_MAIN</text>
<path d="M275 717H316l-7 -4m7 4l-7 4" fill="none" stroke="#638580"/>
<rect x="317" y="691" width="245" height="52" rx="4" fill="#edf3ee" stroke="#378ba2"/>
<text x="329" y="712" font-size="13" fill="#294d56" text-anchor="start">冷 / 热水支路阀</text>
<text x="329" y="731" font-size="10" fill="#294d56" text-anchor="start">房间阀门 → 终端用水</text>
<path d="M562 717H605l-7 -4m7 4l-7 4" fill="none" stroke="#638580"/>
<rect x="606" y="691" width="310" height="52" rx="4" fill="#edf3ee" stroke="#378ba2"/>
<text x="618" y="712" font-size="13" fill="#294d56" text-anchor="start">洗槽 / 卫生 / 厨房用水</text>
<text x="618" y="731" font-size="10" fill="#294d56" text-anchor="start">热水独立回水管与循环泵</text>
<path d="M916 717H958l-7 -4m7 4l-7 4" fill="none" stroke="#638580"/>
<rect x="959" y="691" width="385" height="52" rx="4" fill="#edf3ee" stroke="#378ba2"/>
<text x="971" y="712" font-size="13" fill="#294d56" text-anchor="start">排水分开收集</text>
<text x="971" y="731" font-size="10" fill="#294d56" text-anchor="start">卫生 / 实验废水 / 厨房隔油；不接PCW</text>
<text x="46" y="795" font-size="13" fill="#294d56" text-anchor="start">本楼采用生活冷 / 热水与热回水示意；未增设无用途的工艺冷却系统。</text>
<text x="45" y="896" font-size="14" fill="#294d56" text-anchor="start">推定依据：三张AI概念图 + 外部真实建筑 / 机电资料。仅详设代表房间与服务区，不是全部楼层精装。</text>
<text x="45" y="922" font-size="12" fill="#294d56" text-anchor="start">图中家具、设备与线路来源于原生FreeCAD实体。尺寸 / 设备选型 / 管径 / 保护整定 / 套管与检修需专项设计。</text>
<text x="45" y="948" font-size="12" fill="#294d56" text-anchor="start">所有控制和读数仅为本地模拟；详见 analysis/v4/interior-mep-reference.md 与同编号资产清单。</text>
</g>
</svg>