0
SECTION
2
HEADER
9
$ACADVER
1
AC1015
9
$INSUNITS
70
4
0
ENDSEC
0
SECTION
2
ENTITIES
0
LINE
8
interiors
10
50750.0
20
232000.0
30
0
11
50750.0
21
242000.0
31
0
0
LINE
8
interiors
10
50750.0
20
232000.0
30
0
11
53300.0
21
232000.0
31
0
0
LINE
8
interiors
10
53300.0
20
232000.0
30
0
11
55700.0
21
232000.0
31
0
0
LINE
8
interiors
10
55700.0
20
232000.0
30
0
11
58250.0
21
232000.0
31
0
0
LINE
8
interiors
10
50750.0
20
232000.0
30
0
11
58250.0
21
232000.0
31
0
0
LINE
8
interiors
10
50750.0
20
242000.0
30
0
11
58250.0
21
242000.0
31
0
0
LINE
8
interiors
10
58250.0
20
232000.0
30
0
11
58250.0
21
242000.0
31
0
0
LINE
8
interiors
10
58130.0
20
232120.0
30
0
11
50870.0
21
232120.0
31
0
0
LINE
8
interiors
10
58130.0
20
232120.0
30
0
11
58130.0
21
241880.0
31
0
0
LINE
8
interiors
10
58130.0
20
241880.0
30
0
11
50870.0
21
241880.0
31
0
0
LINE
8
interiors
10
50870.0
20
232120.0
30
0
11
50870.0
21
241880.0
31
0
0
LINE
8
interiors
10
52550.0
20
242000.0
30
0
11
56450.0
21
242000.0
31
0
0
LINE
8
interiors
10
55700.0
20
232000.0
30
0
11
55700.0
21
232120.0
31
0
0
LINE
8
interiors
10
58130.0
20
232120.0
30
0
11
55700.0
21
232120.0
31
0
0
LINE
8
interiors
10
53300.0
20
232120.0
30
0
11
50870.0
21
232120.0
31
0
0
LINE
8
interiors
10
53300.0
20
232000.0
30
0
11
53300.0
21
232120.0
31
0
0
LINE
8
interiors
10
53300.0
20
232120.0
30
0
11
55700.0
21
232120.0
31
0
0
LINE
8
interiors
10
52550.0
20
241880.0
30
0
11
56450.0
21
241880.0
31
0
0
LINE
8
interiors
10
52550.0
20
241880.0
30
0
11
52550.0
21
242000.0
31
0
0
LINE
8
interiors
10
56450.0
20
241880.0
30
0
11
56450.0
21
242000.0
31
0
0
LINE
8
interiors
10
52550.0
20
241977.5
30
0
11
52550.0
21
242022.5
31
0
0
LINE
8
interiors
10
56450.0
20
241977.5
30
0
11
56450.0
21
242022.5
31
0
0
LINE
8
interiors
10
52550.0
20
241977.5
30
0
11
56450.0
21
241977.5
31
0
0
LINE
8
interiors
10
52550.0
20
242022.5
30
0
11
56450.0
21
242022.5
31
0
0
LINE
8
interiors
10
50875.0
20
232125.0
30
0
11
50875.0
21
241875.0
31
0
0
LINE
8
interiors
10
58125.0
20
232125.0
30
0
11
58125.0
21
241875.0
31
0
0
LINE
8
interiors
10
50875.0
20
232125.0
30
0
11
58125.0
21
232125.0
31
0
0
LINE
8
interiors
10
50875.0
20
241875.0
30
0
11
58125.0
21
241875.0
31
0
0
LINE
8
interiors
10
53345.0
20
231880.0
30
0
11
53345.0
21
232120.0
31
0
0
LINE
8
interiors
10
53415.0
20
231880.0
30
0
11
53415.0
21
232120.0
31
0
0
LINE
8
interiors
10
53345.0
20
231880.0
30
0
11
53415.0
21
231880.0
31
0
0
LINE
8
interiors
10
53345.0
20
232120.0
30
0
11
53415.0
21
232120.0
31
0
0
LINE
8
interiors
10
55585.0
20
231880.0
30
0
11
55585.0
21
232120.0
31
0
0
LINE
8
interiors
10
55655.0
20
231880.0
30
0
11
55655.0
21
232120.0
31
0
0
LINE
8
interiors
10
55585.0
20
231880.0
30
0
11
55655.0
21
231880.0
31
0
0
LINE
8
interiors
10
55585.0
20
232120.0
30
0
11
55655.0
21
232120.0
31
0
0
LINE
8
interiors
10
53350.0
20
231880.0
30
0
11
53350.0
21
232120.0
31
0
0
LINE
8
interiors
10
55650.0
20
231880.0
30
0
11
55650.0
21
232120.0
31
0
0
LINE
8
interiors
10
53350.0
20
231880.0
30
0
11
55650.0
21
231880.0
31
0
0
LINE
8
interiors
10
53350.0
20
232120.0
30
0
11
55650.0
21
232120.0
31
0
0
LINE
8
interiors
10
53430.39
20
232090.49
30
0
11
53389.61
21
232109.51
31
0
0
LINE
8
interiors
10
53886.82
20
233069.3
30
0
11
53846.04
21
233088.32
31
0
0
LINE
8
interiors
10
53430.39
20
232090.49
30
0
11
53886.82
21
233069.3
31
0
0
LINE
8
interiors
10
53389.61
20
232109.51
30
0
11
53846.04
21
233088.32
31
0
0
LINE
8
electrical
10
57525.0
20
232075.0
30
0
11
57525.0
21
232325.0
31
0
0
LINE
8
electrical
10
58075.0
20
232075.0
30
0
11
58075.0
21
232325.0
31
0
0
LINE
8
electrical
10
57525.0
20
232075.0
30
0
11
58075.0
21
232075.0
31
0
0
LINE
8
electrical
10
57525.0
20
232325.0
30
0
11
58075.0
21
232325.0
31
0
0
LINE
8
electrical
10
57565.0
20
232047.5
30
0
11
57565.0
21
232082.5
31
0
0
LINE
8
electrical
10
58035.0
20
232047.5
30
0
11
58035.0
21
232082.5
31
0
0
LINE
8
electrical
10
57565.0
20
232047.5
30
0
11
58035.0
21
232047.5
31
0
0
LINE
8
electrical
10
57565.0
20
232082.5
30
0
11
58035.0
21
232082.5
31
0
0
LINE
8
electrical
10
57612.5
20
232010.0
30
0
11
57612.5
21
232050.0
31
0
0
LINE
8
electrical
10
57712.5
20
232010.0
30
0
11
57712.5
21
232050.0
31
0
0
LINE
8
electrical
10
57612.5
20
232010.0
30
0
11
57712.5
21
232010.0
31
0
0
LINE
8
electrical
10
57612.5
20
232050.0
30
0
11
57712.5
21
232050.0
31
0
0
LINE
8
electrical
10
57750.0
20
232010.0
30
0
11
57750.0
21
232050.0
31
0
0
LINE
8
electrical
10
57850.0
20
232010.0
30
0
11
57850.0
21
232050.0
31
0
0
LINE
8
electrical
10
57750.0
20
232010.0
30
0
11
57850.0
21
232010.0
31
0
0
LINE
8
electrical
10
57750.0
20
232050.0
30
0
11
57850.0
21
232050.0
31
0
0
LINE
8
electrical
10
57887.5
20
232010.0
30
0
11
57887.5
21
232050.0
31
0
0
LINE
8
electrical
10
57987.5
20
232010.0
30
0
11
57987.5
21
232050.0
31
0
0
LINE
8
electrical
10
57887.5
20
232010.0
30
0
11
57987.5
21
232010.0
31
0
0
LINE
8
electrical
10
57887.5
20
232050.0
30
0
11
57987.5
21
232050.0
31
0
0
LINE
8
electrical
10
57662.5
20
231995.0
30
0
11
57685.88
21
231995.0
31
0
0
LINE
8
electrical
10
57685.88
20
231995.0
30
0
11
57639.12
21
231995.0
31
0
0
LINE
8
electrical
10
57639.12
20
231995.0
30
0
11
57662.5
21
231995.0
31
0
0
LINE
8
electrical
10
57662.5
20
232020.0
30
0
11
57662.5
21
231995.0
31
0
0
LINE
8
electrical
10
57662.5
20
232020.0
30
0
11
57685.88
21
232020.0
31
0
0
LINE
8
electrical
10
57685.88
20
232020.0
30
0
11
57639.12
21
232020.0
31
0
0
LINE
8
electrical
10
57639.12
20
232020.0
30
0
11
57662.5
21
232020.0
31
0
0
LINE
8
electrical
10
57800.0
20
231995.0
30
0
11
57823.38
21
231995.0
31
0
0
LINE
8
electrical
10
57823.38
20
231995.0
30
0
11
57776.62
21
231995.0
31
0
0
LINE
8
electrical
10
57776.62
20
231995.0
30
0
11
57800.0
21
231995.0
31
0
0
LINE
8
electrical
10
57800.0
20
232020.0
30
0
11
57800.0
21
231995.0
31
0
0
LINE
8
electrical
10
57800.0
20
232020.0
30
0
11
57823.38
21
232020.0
31
0
0
LINE
8
electrical
10
57823.38
20
232020.0
30
0
11
57776.62
21
232020.0
31
0
0
LINE
8
electrical
10
57776.62
20
232020.0
30
0
11
57800.0
21
232020.0
31
0
0
LINE
8
electrical
10
57937.5
20
231995.0
30
0
11
57960.88
21
231995.0
31
0
0
LINE
8
electrical
10
57960.88
20
231995.0
30
0
11
57914.12
21
231995.0
31
0
0
LINE
8
electrical
10
57914.12
20
231995.0
30
0
11
57937.5
21
231995.0
31
0
0
LINE
8
electrical
10
57937.5
20
232020.0
30
0
11
57937.5
21
231995.0
31
0
0
LINE
8
electrical
10
57937.5
20
232020.0
30
0
11
57960.88
21
232020.0
31
0
0
LINE
8
electrical
10
57960.88
20
232020.0
30
0
11
57914.12
21
232020.0
31
0
0
LINE
8
electrical
10
57914.12
20
232020.0
30
0
11
57937.5
21
232020.0
31
0
0
LINE
8
electrical
10
57800.0
20
232200.0
30
0
11
57815.59
21
232200.0
31
0
0
LINE
8
electrical
10
57815.59
20
232200.0
30
0
11
57784.41
21
232200.0
31
0
0
LINE
8
electrical
10
57784.41
20
232200.0
30
0
11
57800.0
21
232200.0
31
0
0
LINE
8
electrical
10
57800.0
20
220200.0
30
0
11
57800.0
21
232200.0
31
0
0
LINE
8
electrical
10
57800.0
20
220200.0
30
0
11
57815.59
21
220200.0
31
0
0
LINE
8
electrical
10
57815.59
20
220200.0
30
0
11
57784.41
21
220200.0
31
0
0
LINE
8
electrical
10
57784.41
20
220200.0
30
0
11
57800.0
21
220200.0
31
0
0
LINE
8
electrical
10
57782.0
20
232200.0
30
0
11
57809.0
21
232215.59
31
0
0
LINE
8
electrical
10
57809.0
20
232215.59
30
0
11
57809.0
21
232184.41
31
0
0
LINE
8
electrical
10
57809.0
20
232184.41
30
0
11
57782.0
21
232200.0
31
0
0
LINE
8
electrical
10
57800.0
20
232200.0
30
0
11
57819.44
21
232200.0
31
0
0
LINE
8
electrical
10
57819.44
20
232200.0
30
0
11
57800.0
21
232200.0
31
0
0
LINE
8
lighting
10
51480.0
20
233280.0
30
0
11
51480.0
21
233920.0
31
0
0
LINE
8
lighting
10
52120.0
20
233280.0
30
0
11
52120.0
21
233920.0
31
0
0
LINE
8
lighting
10
51480.0
20
233280.0
30
0
11
52120.0
21
233280.0
31
0
0
LINE
8
lighting
10
51480.0
20
233920.0
30
0
11
52120.0
21
233920.0
31
0
0
LINE
8
lighting
10
51520.0
20
233320.0
30
0
11
51520.0
21
233880.0
31
0
0
LINE
8
lighting
10
52080.0
20
233320.0
30
0
11
52080.0
21
233880.0
31
0
0
LINE
8
lighting
10
51520.0
20
233320.0
30
0
11
52080.0
21
233320.0
31
0
0
LINE
8
lighting
10
51520.0
20
233880.0
30
0
11
52080.0
21
233880.0
31
0
0
LINE
8
lighting
10
51554.0
20
233330.0
30
0
11
51554.0
21
233870.0
31
0
0
LINE
8
lighting
10
51566.0
20
233330.0
30
0
11
51566.0
21
233870.0
31
0
0
LINE
8
lighting
10
51554.0
20
233330.0
30
0
11
51566.0
21
233330.0
31
0
0
LINE
8
lighting
10
51554.0
20
233870.0
30
0
11
51566.0
21
233870.0
31
0
0
LINE
8
lighting
10
51634.0
20
233330.0
30
0
11
51634.0
21
233870.0
31
0
0
LINE
8
lighting
10
51646.0
20
233330.0
30
0
11
51646.0
21
233870.0
31
0
0
LINE
8
lighting
10
51634.0
20
233330.0
30
0
11
51646.0
21
233330.0
31
0
0
LINE
8
lighting
10
51634.0
20
233870.0
30
0
11
51646.0
21
233870.0
31
0
0
LINE
8
lighting
10
51714.0
20
233330.0
30
0
11
51714.0
21
233870.0
31
0
0
LINE
8
lighting
10
51726.0
20
233330.0
30
0
11
51726.0
21
233870.0
31
0
0
LINE
8
lighting
10
51714.0
20
233330.0
30
0
11
51726.0
21
233330.0
31
0
0
LINE
8
lighting
10
51714.0
20
233870.0
30
0
11
51726.0
21
233870.0
31
0
0
LINE
8
lighting
10
51794.0
20
233330.0
30
0
11
51794.0
21
233870.0
31
0
0
LINE
8
lighting
10
51806.0
20
233330.0
30
0
11
51806.0
21
233870.0
31
0
0
LINE
8
lighting
10
51794.0
20
233330.0
30
0
11
51806.0
21
233330.0
31
0
0
LINE
8
lighting
10
51794.0
20
233870.0
30
0
11
51806.0
21
233870.0
31
0
0
LINE
8
lighting
10
51874.0
20
233330.0
30
0
11
51874.0
21
233870.0
31
0
0
LINE
8
lighting
10
51886.0
20
233330.0
30
0
11
51886.0
21
233870.0
31
0
0
LINE
8
lighting
10
51874.0
20
233330.0
30
0
11
51886.0
21
233330.0
31
0
0
LINE
8
lighting
10
51874.0
20
233870.0
30
0
11
51886.0
21
233870.0
31
0
0
LINE
8
lighting
10
51954.0
20
233330.0
30
0
11
51954.0
21
233870.0
31
0
0
LINE
8
lighting
10
51966.0
20
233330.0
30
0
11
51966.0
21
233870.0
31
0
0
LINE
8
lighting
10
51954.0
20
233330.0
30
0
11
51966.0
21
233330.0
31
0
0
LINE
8
lighting
10
51954.0
20
233870.0
30
0
11
51966.0
21
233870.0
31
0
0
LINE
8
lighting
10
52034.0
20
233330.0
30
0
11
52034.0
21
233870.0
31
0
0
LINE
8
lighting
10
52046.0
20
233330.0
30
0
11
52046.0
21
233870.0
31
0
0
LINE
8
lighting
10
52034.0
20
233330.0
30
0
11
52046.0
21
233330.0
31
0
0
LINE
8
lighting
10
52034.0
20
233870.0
30
0
11
52046.0
21
233870.0
31
0
0
LINE
8
lighting
10
51809.0
20
233600.0
30
0
11
51795.5
21
233607.79
31
0
0
LINE
8
lighting
10
51795.5
20
233607.79
30
0
11
51795.5
21
233592.21
31
0
0
LINE
8
lighting
10
51795.5
20
233592.21
30
0
11
51809.0
21
233600.0
31
0
0
LINE
8
lighting
10
56880.0
20
233280.0
30
0
11
56880.0
21
233920.0
31
0
0
LINE
8
lighting
10
57520.0
20
233280.0
30
0
11
57520.0
21
233920.0
31
0
0
LINE
8
lighting
10
56880.0
20
233280.0
30
0
11
57520.0
21
233280.0
31
0
0
LINE
8
lighting
10
56880.0
20
233920.0
30
0
11
57520.0
21
233920.0
31
0
0
LINE
8
lighting
10
56920.0
20
233320.0
30
0
11
56920.0
21
233880.0
31
0
0
LINE
8
lighting
10
57480.0
20
233320.0
30
0
11
57480.0
21
233880.0
31
0
0
LINE
8
lighting
10
56920.0
20
233320.0
30
0
11
57480.0
21
233320.0
31
0
0
LINE
8
lighting
10
56920.0
20
233880.0
30
0
11
57480.0
21
233880.0
31
0
0
LINE
8
lighting
10
56954.0
20
233330.0
30
0
11
56954.0
21
233870.0
31
0
0
LINE
8
lighting
10
56966.0
20
233330.0
30
0
11
56966.0
21
233870.0
31
0
0
LINE
8
lighting
10
56954.0
20
233330.0
30
0
11
56966.0
21
233330.0
31
0
0
LINE
8
lighting
10
56954.0
20
233870.0
30
0
11
56966.0
21
233870.0
31
0
0
LINE
8
lighting
10
57034.0
20
233330.0
30
0
11
57034.0
21
233870.0
31
0
0
LINE
8
lighting
10
57046.0
20
233330.0
30
0
11
57046.0
21
233870.0
31
0
0
LINE
8
lighting
10
57034.0
20
233330.0
30
0
11
57046.0
21
233330.0
31
0
0
LINE
8
lighting
10
57034.0
20
233870.0
30
0
11
57046.0
21
233870.0
31
0
0
LINE
8
lighting
10
57114.0
20
233330.0
30
0
11
57114.0
21
233870.0
31
0
0
LINE
8
lighting
10
57126.0
20
233330.0
30
0
11
57126.0
21
233870.0
31
0
0
LINE
8
lighting
10
57114.0
20
233330.0
30
0
11
57126.0
21
233330.0
31
0
0
LINE
8
lighting
10
57114.0
20
233870.0
30
0
11
57126.0
21
233870.0
31
0
0
LINE
8
lighting
10
57194.0
20
233330.0
30
0
11
57194.0
21
233870.0
31
0
0
LINE
8
lighting
10
57206.0
20
233330.0
30
0
11
57206.0
21
233870.0
31
0
0
LINE
8
lighting
10
57194.0
20
233330.0
30
0
11
57206.0
21
233330.0
31
0
0
LINE
8
lighting
10
57194.0
20
233870.0
30
0
11
57206.0
21
233870.0
31
0
0
LINE
8
lighting
10
57274.0
20
233330.0
30
0
11
57274.0
21
233870.0
31
0
0
LINE
8
lighting
10
57286.0
20
233330.0
30
0
11
57286.0
21
233870.0
31
0
0
LINE
8
lighting
10
57274.0
20
233330.0
30
0
11
57286.0
21
233330.0
31
0
0
LINE
8
lighting
10
57274.0
20
233870.0
30
0
11
57286.0
21
233870.0
31
0
0
LINE
8
lighting
10
57354.0
20
233330.0
30
0
11
57354.0
21
233870.0
31
0
0
LINE
8
lighting
10
57366.0
20
233330.0
30
0
11
57366.0
21
233870.0
31
0
0
LINE
8
lighting
10
57354.0
20
233330.0
30
0
11
57366.0
21
233330.0
31
0
0
LINE
8
lighting
10
57354.0
20
233870.0
30
0
11
57366.0
21
233870.0
31
0
0
LINE
8
lighting
10
57434.0
20
233330.0
30
0
11
57434.0
21
233870.0
31
0
0
LINE
8
lighting
10
57446.0
20
233330.0
30
0
11
57446.0
21
233870.0
31
0
0
LINE
8
lighting
10
57434.0
20
233330.0
30
0
11
57446.0
21
233330.0
31
0
0
LINE
8
lighting
10
57434.0
20
233870.0
30
0
11
57446.0
21
233870.0
31
0
0
LINE
8
lighting
10
57209.0
20
233600.0
30
0
11
57195.5
21
233607.79
31
0
0
LINE
8
lighting
10
57195.5
20
233607.79
30
0
11
57195.5
21
233592.21
31
0
0
LINE
8
lighting
10
57195.5
20
233592.21
30
0
11
57209.0
21
233600.0
31
0
0
LINE
8
lighting
10
51480.0
20
240080.0
30
0
11
51480.0
21
240720.0
31
0
0
LINE
8
lighting
10
52120.0
20
240080.0
30
0
11
52120.0
21
240720.0
31
0
0
LINE
8
lighting
10
51480.0
20
240080.0
30
0
11
52120.0
21
240080.0
31
0
0
LINE
8
lighting
10
51480.0
20
240720.0
30
0
11
52120.0
21
240720.0
31
0
0
LINE
8
lighting
10
51520.0
20
240120.0
30
0
11
51520.0
21
240680.0
31
0
0
LINE
8
lighting
10
52080.0
20
240120.0
30
0
11
52080.0
21
240680.0
31
0
0
LINE
8
lighting
10
51520.0
20
240120.0
30
0
11
52080.0
21
240120.0
31
0
0
LINE
8
lighting
10
51520.0
20
240680.0
30
0
11
52080.0
21
240680.0
31
0
0
LINE
8
lighting
10
51554.0
20
240130.0
30
0
11
51554.0
21
240670.0
31
0
0
LINE
8
lighting
10
51566.0
20
240130.0
30
0
11
51566.0
21
240670.0
31
0
0
LINE
8
lighting
10
51554.0
20
240130.0
30
0
11
51566.0
21
240130.0
31
0
0
LINE
8
lighting
10
51554.0
20
240670.0
30
0
11
51566.0
21
240670.0
31
0
0
LINE
8
lighting
10
51634.0
20
240130.0
30
0
11
51634.0
21
240670.0
31
0
0
LINE
8
lighting
10
51646.0
20
240130.0
30
0
11
51646.0
21
240670.0
31
0
0
LINE
8
lighting
10
51634.0
20
240130.0
30
0
11
51646.0
21
240130.0
31
0
0
LINE
8
lighting
10
51634.0
20
240670.0
30
0
11
51646.0
21
240670.0
31
0
0
LINE
8
lighting
10
51714.0
20
240130.0
30
0
11
51714.0
21
240670.0
31
0
0
LINE
8
lighting
10
51726.0
20
240130.0
30
0
11
51726.0
21
240670.0
31
0
0
LINE
8
lighting
10
51714.0
20
240130.0
30
0
11
51726.0
21
240130.0
31
0
0
LINE
8
lighting
10
51714.0
20
240670.0
30
0
11
51726.0
21
240670.0
31
0
0
LINE
8
lighting
10
51794.0
20
240130.0
30
0
11
51794.0
21
240670.0
31
0
0
LINE
8
lighting
10
51806.0
20
240130.0
30
0
11
51806.0
21
240670.0
31
0
0
LINE
8
lighting
10
51794.0
20
240130.0
30
0
11
51806.0
21
240130.0
31
0
0
LINE
8
lighting
10
51794.0
20
240670.0
30
0
11
51806.0
21
240670.0
31
0
0
LINE
8
lighting
10
51874.0
20
240130.0
30
0
11
51874.0
21
240670.0
31
0
0
LINE
8
lighting
10
51886.0
20
240130.0
30
0
11
51886.0
21
240670.0
31
0
0
LINE
8
lighting
10
51874.0
20
240130.0
30
0
11
51886.0
21
240130.0
31
0
0
LINE
8
lighting
10
51874.0
20
240670.0
30
0
11
51886.0
21
240670.0
31
0
0
LINE
8
lighting
10
51954.0
20
240130.0
30
0
11
51954.0
21
240670.0
31
0
0
LINE
8
lighting
10
51966.0
20
240130.0
30
0
11
51966.0
21
240670.0
31
0
0
LINE
8
lighting
10
51954.0
20
240130.0
30
0
11
51966.0
21
240130.0
31
0
0
LINE
8
lighting
10
51954.0
20
240670.0
30
0
11
51966.0
21
240670.0
31
0
0
LINE
8
lighting
10
52034.0
20
240130.0
30
0
11
52034.0
21
240670.0
31
0
0
LINE
8
lighting
10
52046.0
20
240130.0
30
0
11
52046.0
21
240670.0
31
0
0
LINE
8
lighting
10
52034.0
20
240130.0
30
0
11
52046.0
21
240130.0
31
0
0
LINE
8
lighting
10
52034.0
20
240670.0
30
0
11
52046.0
21
240670.0
31
0
0
LINE
8
lighting
10
51809.0
20
240400.0
30
0
11
51795.5
21
240407.79
31
0
0
LINE
8
lighting
10
51795.5
20
240407.79
30
0
11
51795.5
21
240392.21
31
0
0
LINE
8
lighting
10
51795.5
20
240392.21
30
0
11
51809.0
21
240400.0
31
0
0
LINE
8
lighting
10
56880.0
20
240080.0
30
0
11
56880.0
21
240720.0
31
0
0
LINE
8
lighting
10
57520.0
20
240080.0
30
0
11
57520.0
21
240720.0
31
0
0
LINE
8
lighting
10
56880.0
20
240080.0
30
0
11
57520.0
21
240080.0
31
0
0
LINE
8
lighting
10
56880.0
20
240720.0
30
0
11
57520.0
21
240720.0
31
0
0
LINE
8
lighting
10
56920.0
20
240120.0
30
0
11
56920.0
21
240680.0
31
0
0
LINE
8
lighting
10
57480.0
20
240120.0
30
0
11
57480.0
21
240680.0
31
0
0
LINE
8
lighting
10
56920.0
20
240120.0
30
0
11
57480.0
21
240120.0
31
0
0
LINE
8
lighting
10
56920.0
20
240680.0
30
0
11
57480.0
21
240680.0
31
0
0
LINE
8
lighting
10
56954.0
20
240130.0
30
0
11
56954.0
21
240670.0
31
0
0
LINE
8
lighting
10
56966.0
20
240130.0
30
0
11
56966.0
21
240670.0
31
0
0
LINE
8
lighting
10
56954.0
20
240130.0
30
0
11
56966.0
21
240130.0
31
0
0
LINE
8
lighting
10
56954.0
20
240670.0
30
0
11
56966.0
21
240670.0
31
0
0
LINE
8
lighting
10
57034.0
20
240130.0
30
0
11
57034.0
21
240670.0
31
0
0
LINE
8
lighting
10
57046.0
20
240130.0
30
0
11
57046.0
21
240670.0
31
0
0
LINE
8
lighting
10
57034.0
20
240130.0
30
0
11
57046.0
21
240130.0
31
0
0
LINE
8
lighting
10
57034.0
20
240670.0
30
0
11
57046.0
21
240670.0
31
0
0
LINE
8
lighting
10
57114.0
20
240130.0
30
0
11
57114.0
21
240670.0
31
0
0
LINE
8
lighting
10
57126.0
20
240130.0
30
0
11
57126.0
21
240670.0
31
0
0
LINE
8
lighting
10
57114.0
20
240130.0
30
0
11
57126.0
21
240130.0
31
0
0
LINE
8
lighting
10
57114.0
20
240670.0
30
0
11
57126.0
21
240670.0
31
0
0
LINE
8
lighting
10
57194.0
20
240130.0
30
0
11
57194.0
21
240670.0
31
0
0
LINE
8
lighting
10
57206.0
20
240130.0
30
0
11
57206.0
21
240670.0
31
0
0
LINE
8
lighting
10
57194.0
20
240130.0
30
0
11
57206.0
21
240130.0
31
0
0
LINE
8
lighting
10
57194.0
20
240670.0
30
0
11
57206.0
21
240670.0
31
0
0
LINE
8
lighting
10
57274.0
20
240130.0
30
0
11
57274.0
21
240670.0
31
0
0
LINE
8
lighting
10
57286.0
20
240130.0
30
0
11
57286.0
21
240670.0
31
0
0
LINE
8
lighting
10
57274.0
20
240130.0
30
0
11
57286.0
21
240130.0
31
0
0
LINE
8
lighting
10
57274.0
20
240670.0
30
0
11
57286.0
21
240670.0
31
0
0
LINE
8
lighting
10
57354.0
20
240130.0
30
0
11
57354.0
21
240670.0
31
0
0
LINE
8
lighting
10
57366.0
20
240130.0
30
0
11
57366.0
21
240670.0
31
0
0
LINE
8
lighting
10
57354.0
20
240130.0
30
0
11
57366.0
21
240130.0
31
0
0
LINE
8
lighting
10
57354.0
20
240670.0
30
0
11
57366.0
21
240670.0
31
0
0
LINE
8
lighting
10
57434.0
20
240130.0
30
0
11
57434.0
21
240670.0
31
0
0
LINE
8
lighting
10
57446.0
20
240130.0
30
0
11
57446.0
21
240670.0
31
0
0
LINE
8
lighting
10
57434.0
20
240130.0
30
0
11
57446.0
21
240130.0
31
0
0
LINE
8
lighting
10
57434.0
20
240670.0
30
0
11
57446.0
21
240670.0
31
0
0
LINE
8
lighting
10
57209.0
20
240400.0
30
0
11
57195.5
21
240407.79
31
0
0
LINE
8
lighting
10
57195.5
20
240407.79
30
0
11
57195.5
21
240392.21
31
0
0
LINE
8
lighting
10
57195.5
20
240392.21
30
0
11
57209.0
21
240400.0
31
0
0
LINE
8
electrical
10
51800.0
20
233380.0
30
0
11
51800.0
21
233372.21
31
0
0
LINE
8
electrical
10
51800.0
20
233372.21
30
0
11
51800.0
21
233387.79
31
0
0
LINE
8
electrical
10
51800.0
20
233387.79
30
0
11
51800.0
21
233380.0
31
0
0
LINE
8
electrical
10
57800.0
20
233380.0
30
0
11
51800.0
21
233380.0
31
0
0
LINE
8
electrical
10
57800.0
20
233380.0
30
0
11
57800.0
21
233372.21
31
0
0
LINE
8
electrical
10
57800.0
20
233372.21
30
0
11
57800.0
21
233387.79
31
0
0
LINE
8
electrical
10
57800.0
20
233387.79
30
0
11
57800.0
21
233380.0
31
0
0
LINE
8
electrical
10
51800.0
20
240400.0
30
0
11
51807.79
21
240400.0
31
0
0
LINE
8
electrical
10
51807.79
20
240400.0
30
0
11
51792.21
21
240400.0
31
0
0
LINE
8
electrical
10
51792.21
20
240400.0
30
0
11
51800.0
21
240400.0
31
0
0
LINE
8
electrical
10
51800.0
20
233380.0
30
0
11
51800.0
21
240400.0
31
0
0
LINE
8
electrical
10
51800.0
20
233380.0
30
0
11
51807.79
21
233380.0
31
0
0
LINE
8
electrical
10
51807.79
20
233380.0
30
0
11
51792.21
21
233380.0
31
0
0
LINE
8
electrical
10
51792.21
20
233380.0
30
0
11
51800.0
21
233380.0
31
0
0
LINE
8
electrical
10
57200.0
20
240400.0
30
0
11
57207.79
21
240400.0
31
0
0
LINE
8
electrical
10
57207.79
20
240400.0
30
0
11
57192.21
21
240400.0
31
0
0
LINE
8
electrical
10
57192.21
20
240400.0
30
0
11
57200.0
21
240400.0
31
0
0
LINE
8
electrical
10
57200.0
20
233380.0
30
0
11
57200.0
21
240400.0
31
0
0
LINE
8
electrical
10
57200.0
20
233380.0
30
0
11
57207.79
21
233380.0
31
0
0
LINE
8
electrical
10
57207.79
20
233380.0
30
0
11
57192.21
21
233380.0
31
0
0
LINE
8
electrical
10
57192.21
20
233380.0
30
0
11
57200.0
21
233380.0
31
0
0
LINE
8
electrical
10
57813.0
20
232200.0
30
0
11
57793.5
21
232211.26
31
0
0
LINE
8
electrical
10
57793.5
20
232211.26
30
0
11
57793.5
21
232188.74
31
0
0
LINE
8
electrical
10
57793.5
20
232188.74
30
0
11
57813.0
21
232200.0
31
0
0
LINE
8
electrical
10
57136.28
20
233386.45
30
0
11
57119.36
21
233376.77
31
0
0
LINE
8
electrical
10
57119.36
20
233376.77
30
0
11
57119.36
21
233376.77
31
0
0
LINE
8
electrical
10
57119.36
20
233376.77
30
0
11
57136.28
21
233386.45
31
0
0
LINE
8
electrical
10
57811.28
20
232206.45
30
0
11
57136.28
21
233386.45
31
0
0
LINE
8
electrical
10
57811.28
20
232206.45
30
0
11
57794.36
21
232196.77
31
0
0
LINE
8
electrical
10
57794.36
20
232196.77
30
0
11
57794.36
21
232196.77
31
0
0
LINE
8
electrical
10
57794.36
20
232196.77
30
0
11
57811.28
21
232206.45
31
0
0
LINE
8
electrical
10
51875.0
20
233380.0
30
0
11
51875.0
21
233368.74
31
0
0
LINE
8
electrical
10
51875.0
20
233368.74
30
0
11
51875.0
21
233391.26
31
0
0
LINE
8
electrical
10
51875.0
20
233391.26
30
0
11
51875.0
21
233380.0
31
0
0
LINE
8
electrical
10
57125.0
20
233380.0
30
0
11
51875.0
21
233380.0
31
0
0
LINE
8
electrical
10
57125.0
20
233380.0
30
0
11
57125.0
21
233368.74
31
0
0
LINE
8
electrical
10
57125.0
20
233368.74
30
0
11
57125.0
21
233391.26
31
0
0
LINE
8
electrical
10
57125.0
20
233391.26
30
0
11
57125.0
21
233380.0
31
0
0
LINE
8
electrical
10
57800.0
20
232200.0
30
0
11
57814.04
21
232200.0
31
0
0
LINE
8
electrical
10
57814.04
20
232200.0
30
0
11
57800.0
21
232200.0
31
0
0
LINE
8
electrical
10
57125.0
20
233380.0
30
0
11
57139.04
21
233380.0
31
0
0
LINE
8
electrical
10
57139.04
20
233380.0
30
0
11
57125.0
21
233380.0
31
0
0
LINE
8
electrical
10
57813.0
20
232200.0
30
0
11
57793.5
21
232211.26
31
0
0
LINE
8
electrical
10
57793.5
20
232211.26
30
0
11
57793.5
21
232188.74
31
0
0
LINE
8
electrical
10
57793.5
20
232188.74
30
0
11
57813.0
21
232200.0
31
0
0
LINE
8
electrical
10
57136.54
20
233505.99
30
0
11
57119.23
21
233497.0
31
0
0
LINE
8
electrical
10
57119.23
20
233497.0
30
0
11
57119.23
21
233497.0
31
0
0
LINE
8
electrical
10
57119.23
20
233497.0
30
0
11
57136.54
21
233505.99
31
0
0
LINE
8
electrical
10
57811.54
20
232205.99
30
0
11
57136.54
21
233505.99
31
0
0
LINE
8
electrical
10
57811.54
20
232205.99
30
0
11
57794.23
21
232197.0
31
0
0
LINE
8
electrical
10
57794.23
20
232197.0
30
0
11
57794.23
21
232197.0
31
0
0
LINE
8
electrical
10
57794.23
20
232197.0
30
0
11
57811.54
21
232205.99
31
0
0
LINE
8
electrical
10
51875.0
20
233500.0
30
0
11
51875.0
21
233488.74
31
0
0
LINE
8
electrical
10
51875.0
20
233488.74
30
0
11
51875.0
21
233511.26
31
0
0
LINE
8
electrical
10
51875.0
20
233511.26
30
0
11
51875.0
21
233500.0
31
0
0
LINE
8
electrical
10
57125.0
20
233500.0
30
0
11
51875.0
21
233500.0
31
0
0
LINE
8
electrical
10
57125.0
20
233500.0
30
0
11
57125.0
21
233488.74
31
0
0
LINE
8
electrical
10
57125.0
20
233488.74
30
0
11
57125.0
21
233511.26
31
0
0
LINE
8
electrical
10
57125.0
20
233511.26
30
0
11
57125.0
21
233500.0
31
0
0
LINE
8
electrical
10
57800.0
20
232200.0
30
0
11
57814.04
21
232200.0
31
0
0
LINE
8
electrical
10
57814.04
20
232200.0
30
0
11
57800.0
21
232200.0
31
0
0
LINE
8
electrical
10
57125.0
20
233500.0
30
0
11
57139.04
21
233500.0
31
0
0
LINE
8
electrical
10
57139.04
20
233500.0
30
0
11
57125.0
21
233500.0
31
0
0
LINE
8
electrical
10
57813.0
20
232200.0
30
0
11
57793.5
21
232211.26
31
0
0
LINE
8
electrical
10
57793.5
20
232211.26
30
0
11
57793.5
21
232188.74
31
0
0
LINE
8
electrical
10
57793.5
20
232188.74
30
0
11
57813.0
21
232200.0
31
0
0
LINE
8
electrical
10
57136.74
20
233625.58
30
0
11
57119.13
21
233617.21
31
0
0
LINE
8
electrical
10
57119.13
20
233617.21
30
0
11
57119.13
21
233617.21
31
0
0
LINE
8
electrical
10
57119.13
20
233617.21
30
0
11
57136.74
21
233625.58
31
0
0
LINE
8
electrical
10
57811.74
20
232205.58
30
0
11
57136.74
21
233625.58
31
0
0
LINE
8
electrical
10
57811.74
20
232205.58
30
0
11
57794.13
21
232197.21
31
0
0
LINE
8
electrical
10
57794.13
20
232197.21
30
0
11
57794.13
21
232197.21
31
0
0
LINE
8
electrical
10
57794.13
20
232197.21
30
0
11
57811.74
21
232205.58
31
0
0
LINE
8
electrical
10
51875.0
20
233620.0
30
0
11
51875.0
21
233608.74
31
0
0
LINE
8
electrical
10
51875.0
20
233608.74
30
0
11
51875.0
21
233631.26
31
0
0
LINE
8
electrical
10
51875.0
20
233631.26
30
0
11
51875.0
21
233620.0
31
0
0
LINE
8
electrical
10
57125.0
20
233620.0
30
0
11
51875.0
21
233620.0
31
0
0
LINE
8
electrical
10
57125.0
20
233620.0
30
0
11
57125.0
21
233608.74
31
0
0
LINE
8
electrical
10
57125.0
20
233608.74
30
0
11
57125.0
21
233631.26
31
0
0
LINE
8
electrical
10
57125.0
20
233631.26
30
0
11
57125.0
21
233620.0
31
0
0
LINE
8
electrical
10
57800.0
20
232200.0
30
0
11
57814.04
21
232200.0
31
0
0
LINE
8
electrical
10
57814.04
20
232200.0
30
0
11
57800.0
21
232200.0
31
0
0
LINE
8
electrical
10
57125.0
20
233620.0
30
0
11
57139.04
21
233620.0
31
0
0
LINE
8
electrical
10
57139.04
20
233620.0
30
0
11
57125.0
21
233620.0
31
0
0
LINE
8
electrical
10
52185.0
20
232150.0
30
0
11
52185.0
21
232210.0
31
0
0
LINE
8
electrical
10
52315.0
20
232150.0
30
0
11
52315.0
21
232210.0
31
0
0
LINE
8
electrical
10
52185.0
20
232150.0
30
0
11
52315.0
21
232150.0
31
0
0
LINE
8
electrical
10
52185.0
20
232210.0
30
0
11
52315.0
21
232210.0
31
0
0
LINE
8
electrical
10
52259.0
20
232180.0
30
0
11
52245.5
21
232187.79
31
0
0
LINE
8
electrical
10
52245.5
20
232187.79
30
0
11
52245.5
21
232172.21
31
0
0
LINE
8
electrical
10
52245.5
20
232172.21
30
0
11
52259.0
21
232180.0
31
0
0
LINE
8
electrical
10
57800.0
20
232180.0
30
0
11
57800.0
21
232172.21
31
0
0
LINE
8
electrical
10
57800.0
20
232172.21
30
0
11
57800.0
21
232187.79
31
0
0
LINE
8
electrical
10
57800.0
20
232187.79
30
0
11
57800.0
21
232180.0
31
0
0
LINE
8
electrical
10
52250.0
20
232180.0
30
0
11
57800.0
21
232180.0
31
0
0
LINE
8
electrical
10
52250.0
20
232180.0
30
0
11
52250.0
21
232172.21
31
0
0
LINE
8
electrical
10
52250.0
20
232172.21
30
0
11
52250.0
21
232187.79
31
0
0
LINE
8
electrical
10
52250.0
20
232187.79
30
0
11
52250.0
21
232180.0
31
0
0
LINE
8
electrical
10
52250.0
20
232180.0
30
0
11
52259.72
21
232180.0
31
0
0
LINE
8
electrical
10
52259.72
20
232180.0
30
0
11
52250.0
21
232180.0
31
0
0
LINE
8
electrical
10
56685.0
20
232150.0
30
0
11
56685.0
21
232210.0
31
0
0
LINE
8
electrical
10
56815.0
20
232150.0
30
0
11
56815.0
21
232210.0
31
0
0
LINE
8
electrical
10
56685.0
20
232150.0
30
0
11
56815.0
21
232150.0
31
0
0
LINE
8
electrical
10
56685.0
20
232210.0
30
0
11
56815.0
21
232210.0
31
0
0
LINE
8
electrical
10
56759.0
20
232180.0
30
0
11
56745.5
21
232187.79
31
0
0
LINE
8
electrical
10
56745.5
20
232187.79
30
0
11
56745.5
21
232172.21
31
0
0
LINE
8
electrical
10
56745.5
20
232172.21
30
0
11
56759.0
21
232180.0
31
0
0
LINE
8
electrical
10
57800.0
20
232180.0
30
0
11
57800.0
21
232172.21
31
0
0
LINE
8
electrical
10
57800.0
20
232172.21
30
0
11
57800.0
21
232187.79
31
0
0
LINE
8
electrical
10
57800.0
20
232187.79
30
0
11
57800.0
21
232180.0
31
0
0
LINE
8
electrical
10
56750.0
20
232180.0
30
0
11
57800.0
21
232180.0
31
0
0
LINE
8
electrical
10
56750.0
20
232180.0
30
0
11
56750.0
21
232172.21
31
0
0
LINE
8
electrical
10
56750.0
20
232172.21
30
0
11
56750.0
21
232187.79
31
0
0
LINE
8
electrical
10
56750.0
20
232187.79
30
0
11
56750.0
21
232180.0
31
0
0
LINE
8
electrical
10
56750.0
20
232180.0
30
0
11
56759.72
21
232180.0
31
0
0
LINE
8
electrical
10
56759.72
20
232180.0
30
0
11
56750.0
21
232180.0
31
0
0
LINE
8
hvac
10
51225.0
20
232725.0
30
0
11
51225.0
21
233475.0
31
0
0
LINE
8
hvac
10
52875.0
20
232725.0
30
0
11
52875.0
21
233475.0
31
0
0
LINE
8
hvac
10
51225.0
20
232725.0
30
0
11
52875.0
21
232725.0
31
0
0
LINE
8
hvac
10
51225.0
20
233475.0
30
0
11
52875.0
21
233475.0
31
0
0
LINE
8
hvac
10
51325.0
20
232680.0
30
0
11
51325.0
21
232720.0
31
0
0
LINE
8
hvac
10
52775.0
20
232680.0
30
0
11
52775.0
21
232720.0
31
0
0
LINE
8
hvac
10
51325.0
20
232680.0
30
0
11
52775.0
21
232680.0
31
0
0
LINE
8
hvac
10
51325.0
20
232720.0
30
0
11
52775.0
21
232720.0
31
0
0
LINE
8
hvac
10
51390.0
20
232640.0
30
0
11
51390.0
21
232700.0
31
0
0
LINE
8
hvac
10
51430.0
20
232640.0
30
0
11
51430.0
21
232700.0
31
0
0
LINE
8
hvac
10
51390.0
20
232640.0
30
0
11
51430.0
21
232640.0
31
0
0
LINE
8
hvac
10
51390.0
20
232700.0
30
0
11
51430.0
21
232700.0
31
0
0
LINE
8
hvac
10
51550.0
20
232640.0
30
0
11
51550.0
21
232700.0
31
0
0
LINE
8
hvac
10
51590.0
20
232640.0
30
0
11
51590.0
21
232700.0
31
0
0
LINE
8
hvac
10
51550.0
20
232640.0
30
0
11
51590.0
21
232640.0
31
0
0
LINE
8
hvac
10
51550.0
20
232700.0
30
0
11
51590.0
21
232700.0
31
0
0
LINE
8
hvac
10
51710.0
20
232640.0
30
0
11
51710.0
21
232700.0
31
0
0
LINE
8
hvac
10
51750.0
20
232640.0
30
0
11
51750.0
21
232700.0
31
0
0
LINE
8
hvac
10
51710.0
20
232640.0
30
0
11
51750.0
21
232640.0
31
0
0
LINE
8
hvac
10
51710.0
20
232700.0
30
0
11
51750.0
21
232700.0
31
0
0
LINE
8
hvac
10
51870.0
20
232640.0
30
0
11
51870.0
21
232700.0
31
0
0
LINE
8
hvac
10
51910.0
20
232640.0
30
0
11
51910.0
21
232700.0
31
0
0
LINE
8
hvac
10
51870.0
20
232640.0
30
0
11
51910.0
21
232640.0
31
0
0
LINE
8
hvac
10
51870.0
20
232700.0
30
0
11
51910.0
21
232700.0
31
0
0
LINE
8
hvac
10
52030.0
20
232640.0
30
0
11
52030.0
21
232700.0
31
0
0
LINE
8
hvac
10
52070.0
20
232640.0
30
0
11
52070.0
21
232700.0
31
0
0
LINE
8
hvac
10
52030.0
20
232640.0
30
0
11
52070.0
21
232640.0
31
0
0
LINE
8
hvac
10
52030.0
20
232700.0
30
0
11
52070.0
21
232700.0
31
0
0
LINE
8
hvac
10
52190.0
20
232640.0
30
0
11
52190.0
21
232700.0
31
0
0
LINE
8
hvac
10
52230.0
20
232640.0
30
0
11
52230.0
21
232700.0
31
0
0
LINE
8
hvac
10
52190.0
20
232640.0
30
0
11
52230.0
21
232640.0
31
0
0
LINE
8
hvac
10
52190.0
20
232700.0
30
0
11
52230.0
21
232700.0
31
0
0
LINE
8
hvac
10
52350.0
20
232640.0
30
0
11
52350.0
21
232700.0
31
0
0
LINE
8
hvac
10
52390.0
20
232640.0
30
0
11
52390.0
21
232700.0
31
0
0
LINE
8
hvac
10
52350.0
20
232640.0
30
0
11
52390.0
21
232640.0
31
0
0
LINE
8
hvac
10
52350.0
20
232700.0
30
0
11
52390.0
21
232700.0
31
0
0
LINE
8
hvac
10
52510.0
20
232640.0
30
0
11
52510.0
21
232700.0
31
0
0
LINE
8
hvac
10
52550.0
20
232640.0
30
0
11
52550.0
21
232700.0
31
0
0
LINE
8
hvac
10
52510.0
20
232640.0
30
0
11
52550.0
21
232640.0
31
0
0
LINE
8
hvac
10
52510.0
20
232700.0
30
0
11
52550.0
21
232700.0
31
0
0
LINE
8
hvac
10
52670.0
20
232640.0
30
0
11
52670.0
21
232700.0
31
0
0
LINE
8
hvac
10
52710.0
20
232640.0
30
0
11
52710.0
21
232700.0
31
0
0
LINE
8
hvac
10
52670.0
20
232640.0
30
0
11
52710.0
21
232640.0
31
0
0
LINE
8
hvac
10
52670.0
20
232700.0
30
0
11
52710.0
21
232700.0
31
0
0
LINE
8
hvac
10
51825.0
20
232875.0
30
0
11
51825.0
21
233325.0
31
0
0
LINE
8
hvac
10
52275.0
20
232875.0
30
0
11
52275.0
21
233325.0
31
0
0
LINE
8
hvac
10
51825.0
20
232875.0
30
0
11
52275.0
21
232875.0
31
0
0
LINE
8
hvac
10
51825.0
20
233325.0
30
0
11
52275.0
21
233325.0
31
0
0
LINE
8
hvac
10
51875.0
20
236825.0
30
0
11
51875.0
21
237175.0
31
0
0
LINE
8
hvac
10
57125.0
20
236825.0
30
0
11
57125.0
21
237175.0
31
0
0
LINE
8
hvac
10
51875.0
20
236825.0
30
0
11
57125.0
21
236825.0
31
0
0
LINE
8
hvac
10
51875.0
20
237175.0
30
0
11
57125.0
21
237175.0
31
0
0
LINE
8
hvac
10
51875.0
20
232925.0
30
0
11
51875.0
21
233275.0
31
0
0
LINE
8
hvac
10
54675.0
20
232925.0
30
0
11
54675.0
21
233275.0
31
0
0
LINE
8
hvac
10
51875.0
20
232925.0
30
0
11
54675.0
21
232925.0
31
0
0
LINE
8
hvac
10
51875.0
20
233275.0
30
0
11
54675.0
21
233275.0
31
0
0
LINE
8
hvac
10
54325.0
20
232925.0
30
0
11
54325.0
21
237175.0
31
0
0
LINE
8
hvac
10
54675.0
20
232925.0
30
0
11
54675.0
21
237175.0
31
0
0
LINE
8
hvac
10
54325.0
20
232925.0
30
0
11
54675.0
21
232925.0
31
0
0
LINE
8
hvac
10
54325.0
20
237175.0
30
0
11
54675.0
21
237175.0
31
0
0
LINE
8
hvac
10
52650.0
20
236650.0
30
0
11
52650.0
21
237350.0
31
0
0
LINE
8
hvac
10
53350.0
20
236650.0
30
0
11
53350.0
21
237350.0
31
0
0
LINE
8
hvac
10
52650.0
20
236650.0
30
0
11
53350.0
21
236650.0
31
0
0
LINE
8
hvac
10
52650.0
20
237350.0
30
0
11
53350.0
21
237350.0
31
0
0
LINE
8
hvac
10
55650.0
20
236650.0
30
0
11
55650.0
21
237350.0
31
0
0
LINE
8
hvac
10
56350.0
20
236650.0
30
0
11
56350.0
21
237350.0
31
0
0
LINE
8
hvac
10
55650.0
20
236650.0
30
0
11
56350.0
21
236650.0
31
0
0
LINE
8
hvac
10
55650.0
20
237350.0
30
0
11
56350.0
21
237350.0
31
0
0
LINE
8
water
10
56740.0
20
238180.0
30
0
11
56740.0
21
238820.0
31
0
0
LINE
8
water
10
57660.0
20
238180.0
30
0
11
57660.0
21
238820.0
31
0
0
LINE
8
water
10
56740.0
20
238180.0
30
0
11
57660.0
21
238180.0
31
0
0
LINE
8
water
10
56740.0
20
238820.0
30
0
11
57660.0
21
238820.0
31
0
0
LINE
8
water
10
56750.0
20
238190.0
30
0
11
56750.0
21
238810.0
31
0
0
LINE
8
water
10
56750.0
20
238190.0
30
0
11
57650.0
21
238190.0
31
0
0
LINE
8
water
10
56750.0
20
238810.0
30
0
11
57650.0
21
238810.0
31
0
0
LINE
8
water
10
57650.0
20
238190.0
30
0
11
57650.0
21
238810.0
31
0
0
LINE
8
water
10
57525.0
20
238285.0
30
0
11
56875.0
21
238285.0
31
0
0
LINE
8
water
10
57525.0
20
238285.0
30
0
11
57525.0
21
238715.0
31
0
0
LINE
8
water
10
57525.0
20
238715.0
30
0
11
56875.0
21
238715.0
31
0
0
LINE
8
water
10
56875.0
20
238285.0
30
0
11
56875.0
21
238715.0
31
0
0
LINE
8
water
10
57218.0
20
238720.0
30
0
11
57191.0
21
238735.59
31
0
0
LINE
8
water
10
57191.0
20
238735.59
30
0
11
57191.0
21
238704.41
31
0
0
LINE
8
water
10
57191.0
20
238704.41
30
0
11
57218.0
21
238720.0
31
0
0
LINE
8
water
10
57200.0
20
238500.0
30
0
11
57215.59
21
238500.0
31
0
0
LINE
8
water
10
57215.59
20
238500.0
30
0
11
57184.41
21
238500.0
31
0
0
LINE
8
water
10
57184.41
20
238500.0
30
0
11
57200.0
21
238500.0
31
0
0
LINE
8
water
10
57200.0
20
238720.0
30
0
11
57200.0
21
238500.0
31
0
0
LINE
8
water
10
57200.0
20
238720.0
30
0
11
57215.59
21
238720.0
31
0
0
LINE
8
water
10
57215.59
20
238720.0
30
0
11
57184.41
21
238720.0
31
0
0
LINE
8
water
10
57184.41
20
238720.0
30
0
11
57200.0
21
238720.0
31
0
0
LINE
8
water
10
57200.0
20
238720.0
30
0
11
57219.44
21
238720.0
31
0
0
LINE
8
water
10
57219.44
20
238720.0
30
0
11
57200.0
21
238720.0
31
0
0
LINE
8
water
10
52450.0
20
238575.0
30
0
11
52450.0
21
239425.0
31
0
0
LINE
8
water
10
53100.0
20
238575.0
30
0
11
53100.0
21
239425.0
31
0
0
LINE
8
water
10
52450.0
20
238575.0
30
0
11
53100.0
21
238575.0
31
0
0
LINE
8
water
10
52450.0
20
239425.0
30
0
11
53100.0
21
239425.0
31
0
0
LINE
8
water
10
53025.0
20
239000.0
30
0
11
52930.87
21
239195.46
31
0
0
LINE
8
water
10
52930.87
20
239195.46
30
0
11
52719.37
21
239243.73
31
0
0
LINE
8
water
10
52719.37
20
239243.73
30
0
11
52549.76
21
239108.47
31
0
0
LINE
8
water
10
52549.76
20
239108.47
30
0
11
52549.76
21
238891.53
31
0
0
LINE
8
water
10
52549.76
20
238891.53
30
0
11
52719.37
21
238756.27
31
0
0
LINE
8
water
10
52719.37
20
238756.27
30
0
11
52930.87
21
238804.54
31
0
0
LINE
8
water
10
52930.87
20
238804.54
30
0
11
53025.0
21
239000.0
31
0
0
LINE
8
water
10
52475.0
20
239350.0
30
0
11
52475.0
21
239550.0
31
0
0
LINE
8
water
10
53075.0
20
239350.0
30
0
11
53075.0
21
239550.0
31
0
0
LINE
8
water
10
52475.0
20
239350.0
30
0
11
53075.0
21
239350.0
31
0
0
LINE
8
water
10
52475.0
20
239550.0
30
0
11
53075.0
21
239550.0
31
0
0
LINE
8
water
10
57145.0
20
238500.0
30
0
11
57200.0
21
238555.0
31
0
0
LINE
8
water
10
57200.0
20
238555.0
30
0
11
57255.0
21
238500.0
31
0
0
LINE
8
water
10
57255.0
20
238500.0
30
0
11
57200.0
21
238445.0
31
0
0
LINE
8
water
10
57200.0
20
238445.0
30
0
11
57145.0
21
238500.0
31
0
0
LINE
8
water
10
57200.0
20
224500.0
30
0
11
57255.0
21
224500.0
31
0
0
LINE
8
water
10
57255.0
20
224500.0
30
0
11
57200.0
21
224500.0
31
0
0
LINE
8
water
10
57200.0
20
224500.0
30
0
11
57145.0
21
224500.0
31
0
0
LINE
8
water
10
57145.0
20
224500.0
30
0
11
57200.0
21
224500.0
31
0
0
LINE
8
water
10
57200.0
20
238500.0
30
0
11
57200.0
21
224500.0
31
0
0
LINE
8
water
10
57200.0
20
238500.0
30
0
11
57255.0
21
238500.0
31
0
0
LINE
8
water
10
57255.0
20
238500.0
30
0
11
57200.0
21
238500.0
31
0
0
LINE
8
water
10
57200.0
20
238500.0
30
0
11
57145.0
21
238500.0
31
0
0
LINE
8
water
10
57145.0
20
238500.0
30
0
11
57200.0
21
238500.0
31
0
0
LINE
8
water
10
-52000.0
20
224500.0
30
0
11
-52000.0
21
224445.0
31
0
0
LINE
8
water
10
-52000.0
20
224445.0
30
0
11
-52000.0
21
224500.0
31
0
0
LINE
8
water
10
-52000.0
20
224500.0
30
0
11
-52000.0
21
224555.0
31
0
0
LINE
8
water
10
-52000.0
20
224555.0
30
0
11
-52000.0
21
224500.0
31
0
0
LINE
8
water
10
57200.0
20
224500.0
30
0
11
-52000.0
21
224500.0
31
0
0
LINE
8
water
10
57200.0
20
224500.0
30
0
11
57200.0
21
224445.0
31
0
0
LINE
8
water
10
57200.0
20
224445.0
30
0
11
57200.0
21
224500.0
31
0
0
LINE
8
water
10
57200.0
20
224500.0
30
0
11
57200.0
21
224555.0
31
0
0
LINE
8
water
10
57200.0
20
224555.0
30
0
11
57200.0
21
224500.0
31
0
0
LINE
8
water
10
57200.0
20
238500.0
30
0
11
57259.4
21
238500.0
31
0
0
LINE
8
water
10
57259.4
20
238500.0
30
0
11
57200.0
21
238500.0
31
0
0
LINE
8
water
10
57200.0
20
224500.0
30
0
11
57259.4
21
224500.0
31
0
0
LINE
8
water
10
57259.4
20
224500.0
30
0
11
57200.0
21
224500.0
31
0
0
LINE
8
water
10
56280.0
20
232400.0
30
0
11
56280.0
21
232325.0
31
0
0
LINE
8
water
10
56280.0
20
232325.0
30
0
11
56280.0
21
232400.0
31
0
0
LINE
8
water
10
56280.0
20
232400.0
30
0
11
56280.0
21
232475.0
31
0
0
LINE
8
water
10
56280.0
20
232475.0
30
0
11
56280.0
21
232400.0
31
0
0
LINE
8
water
10
55880.0
20
232400.0
30
0
11
56280.0
21
232400.0
31
0
0
LINE
8
water
10
55880.0
20
232400.0
30
0
11
55880.0
21
232325.0
31
0
0
LINE
8
water
10
55880.0
20
232325.0
30
0
11
55880.0
21
232400.0
31
0
0
LINE
8
water
10
55880.0
20
232400.0
30
0
11
55880.0
21
232475.0
31
0
0
LINE
8
water
10
55880.0
20
232475.0
30
0
11
55880.0
21
232400.0
31
0
0
LINE
8
water
10
56170.0
20
232400.0
30
0
11
56107.81
21
232485.6
31
0
0
LINE
8
water
10
56107.81
20
232485.6
30
0
11
56007.19
21
232452.9
31
0
0
LINE
8
water
10
56007.19
20
232452.9
30
0
11
56007.19
21
232347.1
31
0
0
LINE
8
water
10
56007.19
20
232347.1
30
0
11
56107.81
21
232314.4
31
0
0
LINE
8
water
10
56107.81
20
232314.4
30
0
11
56170.0
21
232400.0
31
0
0
LINE
8
water
10
55890.0
20
232375.0
30
0
11
55890.0
21
232425.0
31
0
0
LINE
8
water
10
56270.0
20
232375.0
30
0
11
56270.0
21
232425.0
31
0
0
LINE
8
water
10
55890.0
20
232375.0
30
0
11
56270.0
21
232375.0
31
0
0
LINE
8
water
10
55890.0
20
232425.0
30
0
11
56270.0
21
232425.0
31
0
0
LINE
8
water
10
55955.0
20
232400.0
30
0
11
55955.0
21
232295.38
31
0
0
LINE
8
water
10
55955.0
20
232295.38
30
0
11
55955.0
21
232335.34
31
0
0
LINE
8
water
10
55955.0
20
232335.34
30
0
11
55955.0
21
232464.66
31
0
0
LINE
8
water
10
55955.0
20
232464.66
30
0
11
55955.0
21
232504.62
31
0
0
LINE
8
water
10
55955.0
20
232504.62
30
0
11
55955.0
21
232400.0
31
0
0
LINE
8
water
10
55930.0
20
232400.0
30
0
11
55955.0
21
232400.0
31
0
0
LINE
8
water
10
55930.0
20
232400.0
30
0
11
55930.0
21
232295.38
31
0
0
LINE
8
water
10
55930.0
20
232295.38
30
0
11
55930.0
21
232335.34
31
0
0
LINE
8
water
10
55930.0
20
232335.34
30
0
11
55930.0
21
232464.66
31
0
0
LINE
8
water
10
55930.0
20
232464.66
30
0
11
55930.0
21
232504.62
31
0
0
LINE
8
water
10
55930.0
20
232504.62
30
0
11
55930.0
21
232400.0
31
0
0
LINE
8
water
10
56255.0
20
232400.0
30
0
11
56255.0
21
232295.38
31
0
0
LINE
8
water
10
56255.0
20
232295.38
30
0
11
56255.0
21
232335.34
31
0
0
LINE
8
water
10
56255.0
20
232335.34
30
0
11
56255.0
21
232464.66
31
0
0
LINE
8
water
10
56255.0
20
232464.66
30
0
11
56255.0
21
232504.62
31
0
0
LINE
8
water
10
56255.0
20
232504.62
30
0
11
56255.0
21
232400.0
31
0
0
LINE
8
water
10
56230.0
20
232400.0
30
0
11
56255.0
21
232400.0
31
0
0
LINE
8
water
10
56230.0
20
232400.0
30
0
11
56230.0
21
232295.38
31
0
0
LINE
8
water
10
56230.0
20
232295.38
30
0
11
56230.0
21
232335.34
31
0
0
LINE
8
water
10
56230.0
20
232335.34
30
0
11
56230.0
21
232464.66
31
0
0
LINE
8
water
10
56230.0
20
232464.66
30
0
11
56230.0
21
232504.62
31
0
0
LINE
8
water
10
56230.0
20
232504.62
30
0
11
56230.0
21
232400.0
31
0
0
LINE
8
water
10
55600.0
20
232400.0
30
0
11
55630.31
21
232400.0
31
0
0
LINE
8
water
10
55630.31
20
232400.0
30
0
11
55569.69
21
232400.0
31
0
0
LINE
8
water
10
55569.69
20
232400.0
30
0
11
55600.0
21
232400.0
31
0
0
LINE
8
water
10
55600.0
20
222000.0
30
0
11
55600.0
21
232400.0
31
0
0
LINE
8
water
10
55600.0
20
222000.0
30
0
11
55630.31
21
222000.0
31
0
0
LINE
8
water
10
55630.31
20
222000.0
30
0
11
55569.69
21
222000.0
31
0
0
LINE
8
water
10
55569.69
20
222000.0
30
0
11
55600.0
21
222000.0
31
0
0
LINE
8
water
10
57200.0
20
232400.0
30
0
11
57200.0
21
232369.69
31
0
0
LINE
8
water
10
57200.0
20
232369.69
30
0
11
57200.0
21
232430.31
31
0
0
LINE
8
water
10
57200.0
20
232430.31
30
0
11
57200.0
21
232400.0
31
0
0
LINE
8
water
10
55600.0
20
232400.0
30
0
11
57200.0
21
232400.0
31
0
0
LINE
8
water
10
55600.0
20
232400.0
30
0
11
55600.0
21
232369.69
31
0
0
LINE
8
water
10
55600.0
20
232369.69
30
0
11
55600.0
21
232430.31
31
0
0
LINE
8
water
10
55600.0
20
232430.31
30
0
11
55600.0
21
232400.0
31
0
0
LINE
8
water
10
57200.0
20
238730.0
30
0
11
57230.31
21
238730.0
31
0
0
LINE
8
water
10
57230.31
20
238730.0
30
0
11
57169.69
21
238730.0
31
0
0
LINE
8
water
10
57169.69
20
238730.0
30
0
11
57200.0
21
238730.0
31
0
0
LINE
8
water
10
57200.0
20
232400.0
30
0
11
57200.0
21
238730.0
31
0
0
LINE
8
water
10
57200.0
20
232400.0
30
0
11
57230.31
21
232400.0
31
0
0
LINE
8
water
10
57230.31
20
232400.0
30
0
11
57169.69
21
232400.0
31
0
0
LINE
8
water
10
57169.69
20
232400.0
30
0
11
57200.0
21
232400.0
31
0
0
LINE
8
water
10
57165.0
20
238730.0
30
0
11
57217.5
21
238760.31
31
0
0
LINE
8
water
10
57217.5
20
238760.31
30
0
11
57217.5
21
238699.69
31
0
0
LINE
8
water
10
57217.5
20
238699.69
30
0
11
57165.0
21
238730.0
31
0
0
LINE
8
water
10
55600.0
20
232400.0
30
0
11
55637.8
21
232400.0
31
0
0
LINE
8
water
10
55637.8
20
232400.0
30
0
11
55600.0
21
232400.0
31
0
0
LINE
8
water
10
57200.0
20
232400.0
30
0
11
57237.8
21
232400.0
31
0
0
LINE
8
water
10
57237.8
20
232400.0
30
0
11
57200.0
21
232400.0
31
0
0
LINE
8
water
10
57200.0
20
238730.0
30
0
11
57237.8
21
238730.0
31
0
0
LINE
8
water
10
57237.8
20
238730.0
30
0
11
57200.0
21
238730.0
31
0
0
LINE
8
water
10
56489.0
20
232400.0
30
0
11
56489.0
21
232325.0
31
0
0
LINE
8
water
10
56489.0
20
232325.0
30
0
11
56489.0
21
232400.0
31
0
0
LINE
8
water
10
56489.0
20
232400.0
30
0
11
56489.0
21
232475.0
31
0
0
LINE
8
water
10
56489.0
20
232475.0
30
0
11
56489.0
21
232400.0
31
0
0
LINE
8
water
10
56089.0
20
232400.0
30
0
11
56489.0
21
232400.0
31
0
0
LINE
8
water
10
56089.0
20
232400.0
30
0
11
56089.0
21
232325.0
31
0
0
LINE
8
water
10
56089.0
20
232325.0
30
0
11
56089.0
21
232400.0
31
0
0
LINE
8
water
10
56089.0
20
232400.0
30
0
11
56089.0
21
232475.0
31
0
0
LINE
8
water
10
56089.0
20
232475.0
30
0
11
56089.0
21
232400.0
31
0
0
LINE
8
water
10
56379.0
20
232400.0
30
0
11
56316.81
21
232485.6
31
0
0
LINE
8
water
10
56316.81
20
232485.6
30
0
11
56216.19
21
232452.9
31
0
0
LINE
8
water
10
56216.19
20
232452.9
30
0
11
56216.19
21
232347.1
31
0
0
LINE
8
water
10
56216.19
20
232347.1
30
0
11
56316.81
21
232314.4
31
0
0
LINE
8
water
10
56316.81
20
232314.4
30
0
11
56379.0
21
232400.0
31
0
0
LINE
8
water
10
56099.0
20
232375.0
30
0
11
56099.0
21
232425.0
31
0
0
LINE
8
water
10
56479.0
20
232375.0
30
0
11
56479.0
21
232425.0
31
0
0
LINE
8
water
10
56099.0
20
232375.0
30
0
11
56479.0
21
232375.0
31
0
0
LINE
8
water
10
56099.0
20
232425.0
30
0
11
56479.0
21
232425.0
31
0
0
LINE
8
water
10
56164.0
20
232400.0
30
0
11
56164.0
21
232295.38
31
0
0
LINE
8
water
10
56164.0
20
232295.38
30
0
11
56164.0
21
232335.34
31
0
0
LINE
8
water
10
56164.0
20
232335.34
30
0
11
56164.0
21
232464.66
31
0
0
LINE
8
water
10
56164.0
20
232464.66
30
0
11
56164.0
21
232504.62
31
0
0
LINE
8
water
10
56164.0
20
232504.62
30
0
11
56164.0
21
232400.0
31
0
0
LINE
8
water
10
56139.0
20
232400.0
30
0
11
56164.0
21
232400.0
31
0
0
LINE
8
water
10
56139.0
20
232400.0
30
0
11
56139.0
21
232295.38
31
0
0
LINE
8
water
10
56139.0
20
232295.38
30
0
11
56139.0
21
232335.34
31
0
0
LINE
8
water
10
56139.0
20
232335.34
30
0
11
56139.0
21
232464.66
31
0
0
LINE
8
water
10
56139.0
20
232464.66
30
0
11
56139.0
21
232504.62
31
0
0
LINE
8
water
10
56139.0
20
232504.62
30
0
11
56139.0
21
232400.0
31
0
0
LINE
8
water
10
56464.0
20
232400.0
30
0
11
56464.0
21
232295.38
31
0
0
LINE
8
water
10
56464.0
20
232295.38
30
0
11
56464.0
21
232335.34
31
0
0
LINE
8
water
10
56464.0
20
232335.34
30
0
11
56464.0
21
232464.66
31
0
0
LINE
8
water
10
56464.0
20
232464.66
30
0
11
56464.0
21
232504.62
31
0
0
LINE
8
water
10
56464.0
20
232504.62
30
0
11
56464.0
21
232400.0
31
0
0
LINE
8
water
10
56439.0
20
232400.0
30
0
11
56464.0
21
232400.0
31
0
0
LINE
8
water
10
56439.0
20
232400.0
30
0
11
56439.0
21
232295.38
31
0
0
LINE
8
water
10
56439.0
20
232295.38
30
0
11
56439.0
21
232335.34
31
0
0
LINE
8
water
10
56439.0
20
232335.34
30
0
11
56439.0
21
232464.66
31
0
0
LINE
8
water
10
56439.0
20
232464.66
30
0
11
56439.0
21
232504.62
31
0
0
LINE
8
water
10
56439.0
20
232504.62
30
0
11
56439.0
21
232400.0
31
0
0
LINE
8
water
10
55950.0
20
232400.0
30
0
11
55980.31
21
232400.0
31
0
0
LINE
8
water
10
55980.31
20
232400.0
30
0
11
55919.69
21
232400.0
31
0
0
LINE
8
water
10
55919.69
20
232400.0
30
0
11
55950.0
21
232400.0
31
0
0
LINE
8
water
10
55950.0
20
223000.0
30
0
11
55950.0
21
232400.0
31
0
0
LINE
8
water
10
55950.0
20
223000.0
30
0
11
55980.31
21
223000.0
31
0
0
LINE
8
water
10
55980.31
20
223000.0
30
0
11
55919.69
21
223000.0
31
0
0
LINE
8
water
10
55919.69
20
223000.0
30
0
11
55950.0
21
223000.0
31
0
0
LINE
8
water
10
57080.0
20
232400.0
30
0
11
57080.0
21
232369.69
31
0
0
LINE
8
water
10
57080.0
20
232369.69
30
0
11
57080.0
21
232430.31
31
0
0
LINE
8
water
10
57080.0
20
232430.31
30
0
11
57080.0
21
232400.0
31
0
0
LINE
8
water
10
55950.0
20
232400.0
30
0
11
57080.0
21
232400.0
31
0
0
LINE
8
water
10
55950.0
20
232400.0
30
0
11
55950.0
21
232369.69
31
0
0
LINE
8
water
10
55950.0
20
232369.69
30
0
11
55950.0
21
232430.31
31
0
0
LINE
8
water
10
55950.0
20
232430.31
30
0
11
55950.0
21
232400.0
31
0
0
LINE
8
water
10
57080.0
20
238730.0
30
0
11
57110.31
21
238730.0
31
0
0
LINE
8
water
10
57110.31
20
238730.0
30
0
11
57049.69
21
238730.0
31
0
0
LINE
8
water
10
57049.69
20
238730.0
30
0
11
57080.0
21
238730.0
31
0
0
LINE
8
water
10
57080.0
20
232400.0
30
0
11
57080.0
21
238730.0
31
0
0
LINE
8
water
10
57080.0
20
232400.0
30
0
11
57110.31
21
232400.0
31
0
0
LINE
8
water
10
57110.31
20
232400.0
30
0
11
57049.69
21
232400.0
31
0
0
LINE
8
water
10
57049.69
20
232400.0
30
0
11
57080.0
21
232400.0
31
0
0
LINE
8
water
10
57045.0
20
238730.0
30
0
11
57097.5
21
238760.31
31
0
0
LINE
8
water
10
57097.5
20
238760.31
30
0
11
57097.5
21
238699.69
31
0
0
LINE
8
water
10
57097.5
20
238699.69
30
0
11
57045.0
21
238730.0
31
0
0
LINE
8
water
10
55950.0
20
232400.0
30
0
11
55987.8
21
232400.0
31
0
0
LINE
8
water
10
55987.8
20
232400.0
30
0
11
55950.0
21
232400.0
31
0
0
LINE
8
water
10
57080.0
20
232400.0
30
0
11
57117.8
21
232400.0
31
0
0
LINE
8
water
10
57117.8
20
232400.0
30
0
11
57080.0
21
232400.0
31
0
0
LINE
8
water
10
57080.0
20
238730.0
30
0
11
57117.8
21
238730.0
31
0
0
LINE
8
water
10
57117.8
20
238730.0
30
0
11
57080.0
21
238730.0
31
0
0
LINE
8
sensors
10
50790.0
20
234120.0
30
0
11
50790.0
21
234280.0
31
0
0
LINE
8
sensors
10
50890.0
20
234120.0
30
0
11
50890.0
21
234280.0
31
0
0
LINE
8
sensors
10
50790.0
20
234120.0
30
0
11
50890.0
21
234120.0
31
0
0
LINE
8
sensors
10
50790.0
20
234280.0
30
0
11
50890.0
21
234280.0
31
0
0
LINE
8
sensors
10
50895.0
20
234145.0
30
0
11
50895.0
21
234255.0
31
0
0
LINE
8
sensors
10
50915.0
20
234145.0
30
0
11
50915.0
21
234255.0
31
0
0
LINE
8
sensors
10
50895.0
20
234145.0
30
0
11
50915.0
21
234145.0
31
0
0
LINE
8
sensors
10
50895.0
20
234255.0
30
0
11
50915.0
21
234255.0
31
0
0
LINE
8
sensors
10
50790.0
20
234420.0
30
0
11
50790.0
21
234580.0
31
0
0
LINE
8
sensors
10
50890.0
20
234420.0
30
0
11
50890.0
21
234580.0
31
0
0
LINE
8
sensors
10
50790.0
20
234420.0
30
0
11
50890.0
21
234420.0
31
0
0
LINE
8
sensors
10
50790.0
20
234580.0
30
0
11
50890.0
21
234580.0
31
0
0
LINE
8
sensors
10
50895.0
20
234445.0
30
0
11
50895.0
21
234555.0
31
0
0
LINE
8
sensors
10
50915.0
20
234445.0
30
0
11
50915.0
21
234555.0
31
0
0
LINE
8
sensors
10
50895.0
20
234445.0
30
0
11
50915.0
21
234445.0
31
0
0
LINE
8
sensors
10
50895.0
20
234555.0
30
0
11
50915.0
21
234555.0
31
0
0
LINE
8
sensors
10
50790.0
20
234720.0
30
0
11
50790.0
21
234880.0
31
0
0
LINE
8
sensors
10
50890.0
20
234720.0
30
0
11
50890.0
21
234880.0
31
0
0
LINE
8
sensors
10
50790.0
20
234720.0
30
0
11
50890.0
21
234720.0
31
0
0
LINE
8
sensors
10
50790.0
20
234880.0
30
0
11
50890.0
21
234880.0
31
0
0
LINE
8
sensors
10
50895.0
20
234745.0
30
0
11
50895.0
21
234855.0
31
0
0
LINE
8
sensors
10
50915.0
20
234745.0
30
0
11
50915.0
21
234855.0
31
0
0
LINE
8
sensors
10
50895.0
20
234745.0
30
0
11
50915.0
21
234745.0
31
0
0
LINE
8
sensors
10
50895.0
20
234855.0
30
0
11
50915.0
21
234855.0
31
0
0
LINE
8
sensors
10
54580.0
20
237000.0
30
0
11
54500.0
21
237080.0
31
0
0
LINE
8
sensors
10
54500.0
20
237080.0
30
0
11
54420.0
21
237000.0
31
0
0
LINE
8
sensors
10
54420.0
20
237000.0
30
0
11
54500.0
21
236920.0
31
0
0
LINE
8
sensors
10
54500.0
20
236920.0
30
0
11
54580.0
21
237000.0
31
0
0
LINE
8
sensors
10
54500.0
20
237000.0
30
0
11
54565.0
21
237000.0
31
0
0
LINE
8
sensors
10
54565.0
20
237000.0
30
0
11
54500.0
21
237000.0
31
0
0
LINE
8
sensors
10
50790.0
20
235320.0
30
0
11
50790.0
21
235480.0
31
0
0
LINE
8
sensors
10
50890.0
20
235320.0
30
0
11
50890.0
21
235480.0
31
0
0
LINE
8
sensors
10
50790.0
20
235320.0
30
0
11
50890.0
21
235320.0
31
0
0
LINE
8
sensors
10
50790.0
20
235480.0
30
0
11
50890.0
21
235480.0
31
0
0
LINE
8
sensors
10
50895.0
20
235345.0
30
0
11
50895.0
21
235455.0
31
0
0
LINE
8
sensors
10
50915.0
20
235345.0
30
0
11
50915.0
21
235455.0
31
0
0
LINE
8
sensors
10
50895.0
20
235345.0
30
0
11
50915.0
21
235345.0
31
0
0
LINE
8
sensors
10
50895.0
20
235455.0
30
0
11
50915.0
21
235455.0
31
0
0
LINE
8
sensors
10
56750.0
20
232400.0
30
0
11
56750.0
21
232325.0
31
0
0
LINE
8
sensors
10
56750.0
20
232325.0
30
0
11
56750.0
21
232400.0
31
0
0
LINE
8
sensors
10
56750.0
20
232400.0
30
0
11
56750.0
21
232475.0
31
0
0
LINE
8
sensors
10
56750.0
20
232475.0
30
0
11
56750.0
21
232400.0
31
0
0
LINE
8
sensors
10
56530.0
20
232400.0
30
0
11
56750.0
21
232400.0
31
0
0
LINE
8
sensors
10
56530.0
20
232400.0
30
0
11
56530.0
21
232325.0
31
0
0
LINE
8
sensors
10
56530.0
20
232325.0
30
0
11
56530.0
21
232400.0
31
0
0
LINE
8
sensors
10
56530.0
20
232400.0
30
0
11
56530.0
21
232475.0
31
0
0
LINE
8
sensors
10
56530.0
20
232475.0
30
0
11
56530.0
21
232400.0
31
0
0
LINE
8
sensors
10
56560.0
20
232330.0
30
0
11
56560.0
21
232470.0
31
0
0
LINE
8
sensors
10
56720.0
20
232330.0
30
0
11
56720.0
21
232470.0
31
0
0
LINE
8
sensors
10
56560.0
20
232330.0
30
0
11
56720.0
21
232330.0
31
0
0
LINE
8
sensors
10
56560.0
20
232470.0
30
0
11
56720.0
21
232470.0
31
0
0
LINE
8
sensors
10
56794.5
20
232400.0
30
0
11
56794.5
21
232325.0
31
0
0
LINE
8
sensors
10
56794.5
20
232325.0
30
0
11
56794.5
21
232400.0
31
0
0
LINE
8
sensors
10
56794.5
20
232400.0
30
0
11
56794.5
21
232475.0
31
0
0
LINE
8
sensors
10
56794.5
20
232475.0
30
0
11
56794.5
21
232400.0
31
0
0
LINE
8
sensors
10
56574.5
20
232400.0
30
0
11
56794.5
21
232400.0
31
0
0
LINE
8
sensors
10
56574.5
20
232400.0
30
0
11
56574.5
21
232325.0
31
0
0
LINE
8
sensors
10
56574.5
20
232325.0
30
0
11
56574.5
21
232400.0
31
0
0
LINE
8
sensors
10
56574.5
20
232400.0
30
0
11
56574.5
21
232475.0
31
0
0
LINE
8
sensors
10
56574.5
20
232475.0
30
0
11
56574.5
21
232400.0
31
0
0
LINE
8
sensors
10
56604.5
20
232330.0
30
0
11
56604.5
21
232470.0
31
0
0
LINE
8
sensors
10
56764.5
20
232330.0
30
0
11
56764.5
21
232470.0
31
0
0
LINE
8
sensors
10
56604.5
20
232330.0
30
0
11
56764.5
21
232330.0
31
0
0
LINE
8
sensors
10
56604.5
20
232470.0
30
0
11
56764.5
21
232470.0
31
0
0
ENDSEC
0
EOF
