0
SECTION
2
HEADER
9
$ACADVER
1
AC1015
9
$INSUNITS
70
4
0
ENDSEC
0
SECTION
2
ENTITIES
0
LINE
8
interiors
10
315500.0
20
-193500.0
30
0
11
315500.0
21
-178500.0
31
0
0
LINE
8
interiors
10
315500.0
20
-193500.0
30
0
11
326800.0
21
-193500.0
31
0
0
LINE
8
interiors
10
326800.0
20
-193500.0
30
0
11
329200.0
21
-193500.0
31
0
0
LINE
8
interiors
10
329200.0
20
-193500.0
30
0
11
340500.0
21
-193500.0
31
0
0
LINE
8
interiors
10
315500.0
20
-193500.0
30
0
11
340500.0
21
-193500.0
31
0
0
LINE
8
interiors
10
315500.0
20
-178500.0
30
0
11
340500.0
21
-178500.0
31
0
0
LINE
8
interiors
10
340500.0
20
-193500.0
30
0
11
340500.0
21
-178500.0
31
0
0
LINE
8
interiors
10
340380.0
20
-193380.0
30
0
11
315620.0
21
-193380.0
31
0
0
LINE
8
interiors
10
340380.0
20
-193380.0
30
0
11
340380.0
21
-178620.0
31
0
0
LINE
8
interiors
10
340380.0
20
-178620.0
30
0
11
315620.0
21
-178620.0
31
0
0
LINE
8
interiors
10
315620.0
20
-193380.0
30
0
11
315620.0
21
-178620.0
31
0
0
LINE
8
interiors
10
321500.0
20
-178500.0
30
0
11
334500.0
21
-178500.0
31
0
0
LINE
8
interiors
10
329200.0
20
-193500.0
30
0
11
329200.0
21
-193380.0
31
0
0
LINE
8
interiors
10
340380.0
20
-193380.0
30
0
11
329200.0
21
-193380.0
31
0
0
LINE
8
interiors
10
326800.0
20
-193380.0
30
0
11
315620.0
21
-193380.0
31
0
0
LINE
8
interiors
10
326800.0
20
-193500.0
30
0
11
326800.0
21
-193380.0
31
0
0
LINE
8
interiors
10
326800.0
20
-193380.0
30
0
11
329200.0
21
-193380.0
31
0
0
LINE
8
interiors
10
321500.0
20
-178620.0
30
0
11
334500.0
21
-178620.0
31
0
0
LINE
8
interiors
10
321500.0
20
-178620.0
30
0
11
321500.0
21
-178500.0
31
0
0
LINE
8
interiors
10
334500.0
20
-178620.0
30
0
11
334500.0
21
-178500.0
31
0
0
LINE
8
interiors
10
321500.0
20
-178522.5
30
0
11
321500.0
21
-178477.5
31
0
0
LINE
8
interiors
10
334500.0
20
-178522.5
30
0
11
334500.0
21
-178477.5
31
0
0
LINE
8
interiors
10
321500.0
20
-178522.5
30
0
11
334500.0
21
-178522.5
31
0
0
LINE
8
interiors
10
321500.0
20
-178477.5
30
0
11
334500.0
21
-178477.5
31
0
0
LINE
8
interiors
10
315625.0
20
-193375.0
30
0
11
315625.0
21
-178625.0
31
0
0
LINE
8
interiors
10
340375.0
20
-193375.0
30
0
11
340375.0
21
-178625.0
31
0
0
LINE
8
interiors
10
315625.0
20
-193375.0
30
0
11
340375.0
21
-193375.0
31
0
0
LINE
8
interiors
10
315625.0
20
-178625.0
30
0
11
340375.0
21
-178625.0
31
0
0
LINE
8
interiors
10
326845.0
20
-193620.0
30
0
11
326845.0
21
-193380.0
31
0
0
LINE
8
interiors
10
326915.0
20
-193620.0
30
0
11
326915.0
21
-193380.0
31
0
0
LINE
8
interiors
10
326845.0
20
-193620.0
30
0
11
326915.0
21
-193620.0
31
0
0
LINE
8
interiors
10
326845.0
20
-193380.0
30
0
11
326915.0
21
-193380.0
31
0
0
LINE
8
interiors
10
329085.0
20
-193620.0
30
0
11
329085.0
21
-193380.0
31
0
0
LINE
8
interiors
10
329155.0
20
-193620.0
30
0
11
329155.0
21
-193380.0
31
0
0
LINE
8
interiors
10
329085.0
20
-193620.0
30
0
11
329155.0
21
-193620.0
31
0
0
LINE
8
interiors
10
329085.0
20
-193380.0
30
0
11
329155.0
21
-193380.0
31
0
0
LINE
8
interiors
10
326850.0
20
-193620.0
30
0
11
326850.0
21
-193380.0
31
0
0
LINE
8
interiors
10
329150.0
20
-193620.0
30
0
11
329150.0
21
-193380.0
31
0
0
LINE
8
interiors
10
326850.0
20
-193620.0
30
0
11
329150.0
21
-193620.0
31
0
0
LINE
8
interiors
10
326850.0
20
-193380.0
30
0
11
329150.0
21
-193380.0
31
0
0
LINE
8
interiors
10
326930.39
20
-193409.51
30
0
11
326889.61
21
-193390.49
31
0
0
LINE
8
interiors
10
327386.82
20
-192430.7
30
0
11
327346.04
21
-192411.68
31
0
0
LINE
8
interiors
10
326930.39
20
-193409.51
30
0
11
327386.82
21
-192430.7
31
0
0
LINE
8
interiors
10
326889.61
20
-193390.49
30
0
11
327346.04
21
-192411.68
31
0
0
LINE
8
interiors
10
321600.0
20
-189750.0
30
0
11
321600.0
21
-188850.0
31
0
0
LINE
8
interiors
10
323400.0
20
-189750.0
30
0
11
323400.0
21
-188850.0
31
0
0
LINE
8
interiors
10
321600.0
20
-189750.0
30
0
11
323400.0
21
-189750.0
31
0
0
LINE
8
interiors
10
321600.0
20
-188850.0
30
0
11
323400.0
21
-188850.0
31
0
0
LINE
8
interiors
10
321665.0
20
-189685.0
30
0
11
321665.0
21
-189615.0
31
0
0
LINE
8
interiors
10
321735.0
20
-189685.0
30
0
11
321735.0
21
-189615.0
31
0
0
LINE
8
interiors
10
321665.0
20
-189685.0
30
0
11
321735.0
21
-189685.0
31
0
0
LINE
8
interiors
10
321665.0
20
-189615.0
30
0
11
321735.0
21
-189615.0
31
0
0
LINE
8
interiors
10
321665.0
20
-188985.0
30
0
11
321665.0
21
-188915.0
31
0
0
LINE
8
interiors
10
321735.0
20
-188985.0
30
0
11
321735.0
21
-188915.0
31
0
0
LINE
8
interiors
10
321665.0
20
-188985.0
30
0
11
321735.0
21
-188985.0
31
0
0
LINE
8
interiors
10
321665.0
20
-188915.0
30
0
11
321735.0
21
-188915.0
31
0
0
LINE
8
interiors
10
323265.0
20
-189685.0
30
0
11
323265.0
21
-189615.0
31
0
0
LINE
8
interiors
10
323335.0
20
-189685.0
30
0
11
323335.0
21
-189615.0
31
0
0
LINE
8
interiors
10
323265.0
20
-189685.0
30
0
11
323335.0
21
-189685.0
31
0
0
LINE
8
interiors
10
323265.0
20
-189615.0
30
0
11
323335.0
21
-189615.0
31
0
0
LINE
8
interiors
10
323265.0
20
-188985.0
30
0
11
323265.0
21
-188915.0
31
0
0
LINE
8
interiors
10
323335.0
20
-188985.0
30
0
11
323335.0
21
-188915.0
31
0
0
LINE
8
interiors
10
323265.0
20
-188985.0
30
0
11
323335.0
21
-188985.0
31
0
0
LINE
8
interiors
10
323265.0
20
-188915.0
30
0
11
323335.0
21
-188915.0
31
0
0
LINE
8
interiors
10
322260.0
20
-190290.0
30
0
11
322260.0
21
-189810.0
31
0
0
LINE
8
interiors
10
322740.0
20
-190290.0
30
0
11
322740.0
21
-189810.0
31
0
0
LINE
8
interiors
10
322260.0
20
-190290.0
30
0
11
322740.0
21
-190290.0
31
0
0
LINE
8
interiors
10
322260.0
20
-189810.0
30
0
11
322740.0
21
-189810.0
31
0
0
LINE
8
interiors
10
322260.0
20
-189872.5
30
0
11
322260.0
21
-189807.5
31
0
0
LINE
8
interiors
10
322740.0
20
-189872.5
30
0
11
322740.0
21
-189807.5
31
0
0
LINE
8
interiors
10
322260.0
20
-189872.5
30
0
11
322740.0
21
-189872.5
31
0
0
LINE
8
interiors
10
322260.0
20
-189807.5
30
0
11
322740.0
21
-189807.5
31
0
0
LINE
8
interiors
10
322292.5
20
-190257.5
30
0
11
322292.5
21
-190222.5
31
0
0
LINE
8
interiors
10
322327.5
20
-190257.5
30
0
11
322327.5
21
-190222.5
31
0
0
LINE
8
interiors
10
322292.5
20
-190257.5
30
0
11
322327.5
21
-190257.5
31
0
0
LINE
8
interiors
10
322292.5
20
-190222.5
30
0
11
322327.5
21
-190222.5
31
0
0
LINE
8
interiors
10
322292.5
20
-189877.5
30
0
11
322292.5
21
-189842.5
31
0
0
LINE
8
interiors
10
322327.5
20
-189877.5
30
0
11
322327.5
21
-189842.5
31
0
0
LINE
8
interiors
10
322292.5
20
-189877.5
30
0
11
322327.5
21
-189877.5
31
0
0
LINE
8
interiors
10
322292.5
20
-189842.5
30
0
11
322327.5
21
-189842.5
31
0
0
LINE
8
interiors
10
322672.5
20
-190257.5
30
0
11
322672.5
21
-190222.5
31
0
0
LINE
8
interiors
10
322707.5
20
-190257.5
30
0
11
322707.5
21
-190222.5
31
0
0
LINE
8
interiors
10
322672.5
20
-190257.5
30
0
11
322707.5
21
-190257.5
31
0
0
LINE
8
interiors
10
322672.5
20
-190222.5
30
0
11
322707.5
21
-190222.5
31
0
0
LINE
8
interiors
10
322672.5
20
-189877.5
30
0
11
322672.5
21
-189842.5
31
0
0
LINE
8
interiors
10
322707.5
20
-189877.5
30
0
11
322707.5
21
-189842.5
31
0
0
LINE
8
interiors
10
322672.5
20
-189877.5
30
0
11
322707.5
21
-189877.5
31
0
0
LINE
8
interiors
10
322672.5
20
-189842.5
30
0
11
322707.5
21
-189842.5
31
0
0
LINE
8
interiors
10
322200.0
20
-189110.0
30
0
11
322200.0
21
-189050.0
31
0
0
LINE
8
interiors
10
322800.0
20
-189110.0
30
0
11
322800.0
21
-189050.0
31
0
0
LINE
8
interiors
10
322200.0
20
-189110.0
30
0
11
322800.0
21
-189110.0
31
0
0
LINE
8
interiors
10
322200.0
20
-189050.0
30
0
11
322800.0
21
-189050.0
31
0
0
LINE
8
interiors
10
322470.0
20
-189115.0
30
0
11
322470.0
21
-189045.0
31
0
0
LINE
8
interiors
10
322530.0
20
-189115.0
30
0
11
322530.0
21
-189045.0
31
0
0
LINE
8
interiors
10
322470.0
20
-189115.0
30
0
11
322530.0
21
-189115.0
31
0
0
LINE
8
interiors
10
322470.0
20
-189045.0
30
0
11
322530.0
21
-189045.0
31
0
0
LINE
8
interiors
10
322350.0
20
-189190.0
30
0
11
322350.0
21
-188970.0
31
0
0
LINE
8
interiors
10
322650.0
20
-189190.0
30
0
11
322650.0
21
-188970.0
31
0
0
LINE
8
interiors
10
322350.0
20
-189190.0
30
0
11
322650.0
21
-189190.0
31
0
0
LINE
8
interiors
10
322350.0
20
-188970.0
30
0
11
322650.0
21
-188970.0
31
0
0
LINE
8
interiors
10
332600.0
20
-189750.0
30
0
11
332600.0
21
-188850.0
31
0
0
LINE
8
interiors
10
334400.0
20
-189750.0
30
0
11
334400.0
21
-188850.0
31
0
0
LINE
8
interiors
10
332600.0
20
-189750.0
30
0
11
334400.0
21
-189750.0
31
0
0
LINE
8
interiors
10
332600.0
20
-188850.0
30
0
11
334400.0
21
-188850.0
31
0
0
LINE
8
interiors
10
332665.0
20
-189685.0
30
0
11
332665.0
21
-189615.0
31
0
0
LINE
8
interiors
10
332735.0
20
-189685.0
30
0
11
332735.0
21
-189615.0
31
0
0
LINE
8
interiors
10
332665.0
20
-189685.0
30
0
11
332735.0
21
-189685.0
31
0
0
LINE
8
interiors
10
332665.0
20
-189615.0
30
0
11
332735.0
21
-189615.0
31
0
0
LINE
8
interiors
10
332665.0
20
-188985.0
30
0
11
332665.0
21
-188915.0
31
0
0
LINE
8
interiors
10
332735.0
20
-188985.0
30
0
11
332735.0
21
-188915.0
31
0
0
LINE
8
interiors
10
332665.0
20
-188985.0
30
0
11
332735.0
21
-188985.0
31
0
0
LINE
8
interiors
10
332665.0
20
-188915.0
30
0
11
332735.0
21
-188915.0
31
0
0
LINE
8
interiors
10
334265.0
20
-189685.0
30
0
11
334265.0
21
-189615.0
31
0
0
LINE
8
interiors
10
334335.0
20
-189685.0
30
0
11
334335.0
21
-189615.0
31
0
0
LINE
8
interiors
10
334265.0
20
-189685.0
30
0
11
334335.0
21
-189685.0
31
0
0
LINE
8
interiors
10
334265.0
20
-189615.0
30
0
11
334335.0
21
-189615.0
31
0
0
LINE
8
interiors
10
334265.0
20
-188985.0
30
0
11
334265.0
21
-188915.0
31
0
0
LINE
8
interiors
10
334335.0
20
-188985.0
30
0
11
334335.0
21
-188915.0
31
0
0
LINE
8
interiors
10
334265.0
20
-188985.0
30
0
11
334335.0
21
-188985.0
31
0
0
LINE
8
interiors
10
334265.0
20
-188915.0
30
0
11
334335.0
21
-188915.0
31
0
0
LINE
8
interiors
10
333260.0
20
-190290.0
30
0
11
333260.0
21
-189810.0
31
0
0
LINE
8
interiors
10
333740.0
20
-190290.0
30
0
11
333740.0
21
-189810.0
31
0
0
LINE
8
interiors
10
333260.0
20
-190290.0
30
0
11
333740.0
21
-190290.0
31
0
0
LINE
8
interiors
10
333260.0
20
-189810.0
30
0
11
333740.0
21
-189810.0
31
0
0
LINE
8
interiors
10
333260.0
20
-189872.5
30
0
11
333260.0
21
-189807.5
31
0
0
LINE
8
interiors
10
333740.0
20
-189872.5
30
0
11
333740.0
21
-189807.5
31
0
0
LINE
8
interiors
10
333260.0
20
-189872.5
30
0
11
333740.0
21
-189872.5
31
0
0
LINE
8
interiors
10
333260.0
20
-189807.5
30
0
11
333740.0
21
-189807.5
31
0
0
LINE
8
interiors
10
333292.5
20
-190257.5
30
0
11
333292.5
21
-190222.5
31
0
0
LINE
8
interiors
10
333327.5
20
-190257.5
30
0
11
333327.5
21
-190222.5
31
0
0
LINE
8
interiors
10
333292.5
20
-190257.5
30
0
11
333327.5
21
-190257.5
31
0
0
LINE
8
interiors
10
333292.5
20
-190222.5
30
0
11
333327.5
21
-190222.5
31
0
0
LINE
8
interiors
10
333292.5
20
-189877.5
30
0
11
333292.5
21
-189842.5
31
0
0
LINE
8
interiors
10
333327.5
20
-189877.5
30
0
11
333327.5
21
-189842.5
31
0
0
LINE
8
interiors
10
333292.5
20
-189877.5
30
0
11
333327.5
21
-189877.5
31
0
0
LINE
8
interiors
10
333292.5
20
-189842.5
30
0
11
333327.5
21
-189842.5
31
0
0
LINE
8
interiors
10
333672.5
20
-190257.5
30
0
11
333672.5
21
-190222.5
31
0
0
LINE
8
interiors
10
333707.5
20
-190257.5
30
0
11
333707.5
21
-190222.5
31
0
0
LINE
8
interiors
10
333672.5
20
-190257.5
30
0
11
333707.5
21
-190257.5
31
0
0
LINE
8
interiors
10
333672.5
20
-190222.5
30
0
11
333707.5
21
-190222.5
31
0
0
LINE
8
interiors
10
333672.5
20
-189877.5
30
0
11
333672.5
21
-189842.5
31
0
0
LINE
8
interiors
10
333707.5
20
-189877.5
30
0
11
333707.5
21
-189842.5
31
0
0
LINE
8
interiors
10
333672.5
20
-189877.5
30
0
11
333707.5
21
-189877.5
31
0
0
LINE
8
interiors
10
333672.5
20
-189842.5
30
0
11
333707.5
21
-189842.5
31
0
0
LINE
8
interiors
10
333200.0
20
-189110.0
30
0
11
333200.0
21
-189050.0
31
0
0
LINE
8
interiors
10
333800.0
20
-189110.0
30
0
11
333800.0
21
-189050.0
31
0
0
LINE
8
interiors
10
333200.0
20
-189110.0
30
0
11
333800.0
21
-189110.0
31
0
0
LINE
8
interiors
10
333200.0
20
-189050.0
30
0
11
333800.0
21
-189050.0
31
0
0
LINE
8
interiors
10
333470.0
20
-189115.0
30
0
11
333470.0
21
-189045.0
31
0
0
LINE
8
interiors
10
333530.0
20
-189115.0
30
0
11
333530.0
21
-189045.0
31
0
0
LINE
8
interiors
10
333470.0
20
-189115.0
30
0
11
333530.0
21
-189115.0
31
0
0
LINE
8
interiors
10
333470.0
20
-189045.0
30
0
11
333530.0
21
-189045.0
31
0
0
LINE
8
interiors
10
333350.0
20
-189190.0
30
0
11
333350.0
21
-188970.0
31
0
0
LINE
8
interiors
10
333650.0
20
-189190.0
30
0
11
333650.0
21
-188970.0
31
0
0
LINE
8
interiors
10
333350.0
20
-189190.0
30
0
11
333650.0
21
-189190.0
31
0
0
LINE
8
interiors
10
333350.0
20
-188970.0
30
0
11
333650.0
21
-188970.0
31
0
0
LINE
8
interiors
10
321600.0
20
-183150.0
30
0
11
321600.0
21
-182250.0
31
0
0
LINE
8
interiors
10
323400.0
20
-183150.0
30
0
11
323400.0
21
-182250.0
31
0
0
LINE
8
interiors
10
321600.0
20
-183150.0
30
0
11
323400.0
21
-183150.0
31
0
0
LINE
8
interiors
10
321600.0
20
-182250.0
30
0
11
323400.0
21
-182250.0
31
0
0
LINE
8
interiors
10
321665.0
20
-183085.0
30
0
11
321665.0
21
-183015.0
31
0
0
LINE
8
interiors
10
321735.0
20
-183085.0
30
0
11
321735.0
21
-183015.0
31
0
0
LINE
8
interiors
10
321665.0
20
-183085.0
30
0
11
321735.0
21
-183085.0
31
0
0
LINE
8
interiors
10
321665.0
20
-183015.0
30
0
11
321735.0
21
-183015.0
31
0
0
LINE
8
interiors
10
321665.0
20
-182385.0
30
0
11
321665.0
21
-182315.0
31
0
0
LINE
8
interiors
10
321735.0
20
-182385.0
30
0
11
321735.0
21
-182315.0
31
0
0
LINE
8
interiors
10
321665.0
20
-182385.0
30
0
11
321735.0
21
-182385.0
31
0
0
LINE
8
interiors
10
321665.0
20
-182315.0
30
0
11
321735.0
21
-182315.0
31
0
0
LINE
8
interiors
10
323265.0
20
-183085.0
30
0
11
323265.0
21
-183015.0
31
0
0
LINE
8
interiors
10
323335.0
20
-183085.0
30
0
11
323335.0
21
-183015.0
31
0
0
LINE
8
interiors
10
323265.0
20
-183085.0
30
0
11
323335.0
21
-183085.0
31
0
0
LINE
8
interiors
10
323265.0
20
-183015.0
30
0
11
323335.0
21
-183015.0
31
0
0
LINE
8
interiors
10
323265.0
20
-182385.0
30
0
11
323265.0
21
-182315.0
31
0
0
LINE
8
interiors
10
323335.0
20
-182385.0
30
0
11
323335.0
21
-182315.0
31
0
0
LINE
8
interiors
10
323265.0
20
-182385.0
30
0
11
323335.0
21
-182385.0
31
0
0
LINE
8
interiors
10
323265.0
20
-182315.0
30
0
11
323335.0
21
-182315.0
31
0
0
LINE
8
interiors
10
322260.0
20
-183690.0
30
0
11
322260.0
21
-183210.0
31
0
0
LINE
8
interiors
10
322740.0
20
-183690.0
30
0
11
322740.0
21
-183210.0
31
0
0
LINE
8
interiors
10
322260.0
20
-183690.0
30
0
11
322740.0
21
-183690.0
31
0
0
LINE
8
interiors
10
322260.0
20
-183210.0
30
0
11
322740.0
21
-183210.0
31
0
0
LINE
8
interiors
10
322260.0
20
-183272.5
30
0
11
322260.0
21
-183207.5
31
0
0
LINE
8
interiors
10
322740.0
20
-183272.5
30
0
11
322740.0
21
-183207.5
31
0
0
LINE
8
interiors
10
322260.0
20
-183272.5
30
0
11
322740.0
21
-183272.5
31
0
0
LINE
8
interiors
10
322260.0
20
-183207.5
30
0
11
322740.0
21
-183207.5
31
0
0
LINE
8
interiors
10
322292.5
20
-183657.5
30
0
11
322292.5
21
-183622.5
31
0
0
LINE
8
interiors
10
322327.5
20
-183657.5
30
0
11
322327.5
21
-183622.5
31
0
0
LINE
8
interiors
10
322292.5
20
-183657.5
30
0
11
322327.5
21
-183657.5
31
0
0
LINE
8
interiors
10
322292.5
20
-183622.5
30
0
11
322327.5
21
-183622.5
31
0
0
LINE
8
interiors
10
322292.5
20
-183277.5
30
0
11
322292.5
21
-183242.5
31
0
0
LINE
8
interiors
10
322327.5
20
-183277.5
30
0
11
322327.5
21
-183242.5
31
0
0
LINE
8
interiors
10
322292.5
20
-183277.5
30
0
11
322327.5
21
-183277.5
31
0
0
LINE
8
interiors
10
322292.5
20
-183242.5
30
0
11
322327.5
21
-183242.5
31
0
0
LINE
8
interiors
10
322672.5
20
-183657.5
30
0
11
322672.5
21
-183622.5
31
0
0
LINE
8
interiors
10
322707.5
20
-183657.5
30
0
11
322707.5
21
-183622.5
31
0
0
LINE
8
interiors
10
322672.5
20
-183657.5
30
0
11
322707.5
21
-183657.5
31
0
0
LINE
8
interiors
10
322672.5
20
-183622.5
30
0
11
322707.5
21
-183622.5
31
0
0
LINE
8
interiors
10
322672.5
20
-183277.5
30
0
11
322672.5
21
-183242.5
31
0
0
LINE
8
interiors
10
322707.5
20
-183277.5
30
0
11
322707.5
21
-183242.5
31
0
0
LINE
8
interiors
10
322672.5
20
-183277.5
30
0
11
322707.5
21
-183277.5
31
0
0
LINE
8
interiors
10
322672.5
20
-183242.5
30
0
11
322707.5
21
-183242.5
31
0
0
LINE
8
interiors
10
322200.0
20
-182510.0
30
0
11
322200.0
21
-182450.0
31
0
0
LINE
8
interiors
10
322800.0
20
-182510.0
30
0
11
322800.0
21
-182450.0
31
0
0
LINE
8
interiors
10
322200.0
20
-182510.0
30
0
11
322800.0
21
-182510.0
31
0
0
LINE
8
interiors
10
322200.0
20
-182450.0
30
0
11
322800.0
21
-182450.0
31
0
0
LINE
8
interiors
10
322470.0
20
-182515.0
30
0
11
322470.0
21
-182445.0
31
0
0
LINE
8
interiors
10
322530.0
20
-182515.0
30
0
11
322530.0
21
-182445.0
31
0
0
LINE
8
interiors
10
322470.0
20
-182515.0
30
0
11
322530.0
21
-182515.0
31
0
0
LINE
8
interiors
10
322470.0
20
-182445.0
30
0
11
322530.0
21
-182445.0
31
0
0
LINE
8
interiors
10
322350.0
20
-182590.0
30
0
11
322350.0
21
-182370.0
31
0
0
LINE
8
interiors
10
322650.0
20
-182590.0
30
0
11
322650.0
21
-182370.0
31
0
0
LINE
8
interiors
10
322350.0
20
-182590.0
30
0
11
322650.0
21
-182590.0
31
0
0
LINE
8
interiors
10
322350.0
20
-182370.0
30
0
11
322650.0
21
-182370.0
31
0
0
LINE
8
interiors
10
332600.0
20
-183150.0
30
0
11
332600.0
21
-182250.0
31
0
0
LINE
8
interiors
10
334400.0
20
-183150.0
30
0
11
334400.0
21
-182250.0
31
0
0
LINE
8
interiors
10
332600.0
20
-183150.0
30
0
11
334400.0
21
-183150.0
31
0
0
LINE
8
interiors
10
332600.0
20
-182250.0
30
0
11
334400.0
21
-182250.0
31
0
0
LINE
8
interiors
10
332665.0
20
-183085.0
30
0
11
332665.0
21
-183015.0
31
0
0
LINE
8
interiors
10
332735.0
20
-183085.0
30
0
11
332735.0
21
-183015.0
31
0
0
LINE
8
interiors
10
332665.0
20
-183085.0
30
0
11
332735.0
21
-183085.0
31
0
0
LINE
8
interiors
10
332665.0
20
-183015.0
30
0
11
332735.0
21
-183015.0
31
0
0
LINE
8
interiors
10
332665.0
20
-182385.0
30
0
11
332665.0
21
-182315.0
31
0
0
LINE
8
interiors
10
332735.0
20
-182385.0
30
0
11
332735.0
21
-182315.0
31
0
0
LINE
8
interiors
10
332665.0
20
-182385.0
30
0
11
332735.0
21
-182385.0
31
0
0
LINE
8
interiors
10
332665.0
20
-182315.0
30
0
11
332735.0
21
-182315.0
31
0
0
LINE
8
interiors
10
334265.0
20
-183085.0
30
0
11
334265.0
21
-183015.0
31
0
0
LINE
8
interiors
10
334335.0
20
-183085.0
30
0
11
334335.0
21
-183015.0
31
0
0
LINE
8
interiors
10
334265.0
20
-183085.0
30
0
11
334335.0
21
-183085.0
31
0
0
LINE
8
interiors
10
334265.0
20
-183015.0
30
0
11
334335.0
21
-183015.0
31
0
0
LINE
8
interiors
10
334265.0
20
-182385.0
30
0
11
334265.0
21
-182315.0
31
0
0
LINE
8
interiors
10
334335.0
20
-182385.0
30
0
11
334335.0
21
-182315.0
31
0
0
LINE
8
interiors
10
334265.0
20
-182385.0
30
0
11
334335.0
21
-182385.0
31
0
0
LINE
8
interiors
10
334265.0
20
-182315.0
30
0
11
334335.0
21
-182315.0
31
0
0
LINE
8
interiors
10
333260.0
20
-183690.0
30
0
11
333260.0
21
-183210.0
31
0
0
LINE
8
interiors
10
333740.0
20
-183690.0
30
0
11
333740.0
21
-183210.0
31
0
0
LINE
8
interiors
10
333260.0
20
-183690.0
30
0
11
333740.0
21
-183690.0
31
0
0
LINE
8
interiors
10
333260.0
20
-183210.0
30
0
11
333740.0
21
-183210.0
31
0
0
LINE
8
interiors
10
333260.0
20
-183272.5
30
0
11
333260.0
21
-183207.5
31
0
0
LINE
8
interiors
10
333740.0
20
-183272.5
30
0
11
333740.0
21
-183207.5
31
0
0
LINE
8
interiors
10
333260.0
20
-183272.5
30
0
11
333740.0
21
-183272.5
31
0
0
LINE
8
interiors
10
333260.0
20
-183207.5
30
0
11
333740.0
21
-183207.5
31
0
0
LINE
8
interiors
10
333292.5
20
-183657.5
30
0
11
333292.5
21
-183622.5
31
0
0
LINE
8
interiors
10
333327.5
20
-183657.5
30
0
11
333327.5
21
-183622.5
31
0
0
LINE
8
interiors
10
333292.5
20
-183657.5
30
0
11
333327.5
21
-183657.5
31
0
0
LINE
8
interiors
10
333292.5
20
-183622.5
30
0
11
333327.5
21
-183622.5
31
0
0
LINE
8
interiors
10
333292.5
20
-183277.5
30
0
11
333292.5
21
-183242.5
31
0
0
LINE
8
interiors
10
333327.5
20
-183277.5
30
0
11
333327.5
21
-183242.5
31
0
0
LINE
8
interiors
10
333292.5
20
-183277.5
30
0
11
333327.5
21
-183277.5
31
0
0
LINE
8
interiors
10
333292.5
20
-183242.5
30
0
11
333327.5
21
-183242.5
31
0
0
LINE
8
interiors
10
333672.5
20
-183657.5
30
0
11
333672.5
21
-183622.5
31
0
0
LINE
8
interiors
10
333707.5
20
-183657.5
30
0
11
333707.5
21
-183622.5
31
0
0
LINE
8
interiors
10
333672.5
20
-183657.5
30
0
11
333707.5
21
-183657.5
31
0
0
LINE
8
interiors
10
333672.5
20
-183622.5
30
0
11
333707.5
21
-183622.5
31
0
0
LINE
8
interiors
10
333672.5
20
-183277.5
30
0
11
333672.5
21
-183242.5
31
0
0
LINE
8
interiors
10
333707.5
20
-183277.5
30
0
11
333707.5
21
-183242.5
31
0
0
LINE
8
interiors
10
333672.5
20
-183277.5
30
0
11
333707.5
21
-183277.5
31
0
0
LINE
8
interiors
10
333672.5
20
-183242.5
30
0
11
333707.5
21
-183242.5
31
0
0
LINE
8
interiors
10
333200.0
20
-182510.0
30
0
11
333200.0
21
-182450.0
31
0
0
LINE
8
interiors
10
333800.0
20
-182510.0
30
0
11
333800.0
21
-182450.0
31
0
0
LINE
8
interiors
10
333200.0
20
-182510.0
30
0
11
333800.0
21
-182510.0
31
0
0
LINE
8
interiors
10
333200.0
20
-182450.0
30
0
11
333800.0
21
-182450.0
31
0
0
LINE
8
interiors
10
333470.0
20
-182515.0
30
0
11
333470.0
21
-182445.0
31
0
0
LINE
8
interiors
10
333530.0
20
-182515.0
30
0
11
333530.0
21
-182445.0
31
0
0
LINE
8
interiors
10
333470.0
20
-182515.0
30
0
11
333530.0
21
-182515.0
31
0
0
LINE
8
interiors
10
333470.0
20
-182445.0
30
0
11
333530.0
21
-182445.0
31
0
0
LINE
8
interiors
10
333350.0
20
-182590.0
30
0
11
333350.0
21
-182370.0
31
0
0
LINE
8
interiors
10
333650.0
20
-182590.0
30
0
11
333650.0
21
-182370.0
31
0
0
LINE
8
interiors
10
333350.0
20
-182590.0
30
0
11
333650.0
21
-182590.0
31
0
0
LINE
8
interiors
10
333350.0
20
-182370.0
30
0
11
333650.0
21
-182370.0
31
0
0
LINE
8
electrical
10
339775.0
20
-193425.0
30
0
11
339775.0
21
-193175.0
31
0
0
LINE
8
electrical
10
340325.0
20
-193425.0
30
0
11
340325.0
21
-193175.0
31
0
0
LINE
8
electrical
10
339775.0
20
-193425.0
30
0
11
340325.0
21
-193425.0
31
0
0
LINE
8
electrical
10
339775.0
20
-193175.0
30
0
11
340325.0
21
-193175.0
31
0
0
LINE
8
electrical
10
339815.0
20
-193452.5
30
0
11
339815.0
21
-193417.5
31
0
0
LINE
8
electrical
10
340285.0
20
-193452.5
30
0
11
340285.0
21
-193417.5
31
0
0
LINE
8
electrical
10
339815.0
20
-193452.5
30
0
11
340285.0
21
-193452.5
31
0
0
LINE
8
electrical
10
339815.0
20
-193417.5
30
0
11
340285.0
21
-193417.5
31
0
0
LINE
8
electrical
10
339862.5
20
-193490.0
30
0
11
339862.5
21
-193450.0
31
0
0
LINE
8
electrical
10
339962.5
20
-193490.0
30
0
11
339962.5
21
-193450.0
31
0
0
LINE
8
electrical
10
339862.5
20
-193490.0
30
0
11
339962.5
21
-193490.0
31
0
0
LINE
8
electrical
10
339862.5
20
-193450.0
30
0
11
339962.5
21
-193450.0
31
0
0
LINE
8
electrical
10
340000.0
20
-193490.0
30
0
11
340000.0
21
-193450.0
31
0
0
LINE
8
electrical
10
340100.0
20
-193490.0
30
0
11
340100.0
21
-193450.0
31
0
0
LINE
8
electrical
10
340000.0
20
-193490.0
30
0
11
340100.0
21
-193490.0
31
0
0
LINE
8
electrical
10
340000.0
20
-193450.0
30
0
11
340100.0
21
-193450.0
31
0
0
LINE
8
electrical
10
340137.5
20
-193490.0
30
0
11
340137.5
21
-193450.0
31
0
0
LINE
8
electrical
10
340237.5
20
-193490.0
30
0
11
340237.5
21
-193450.0
31
0
0
LINE
8
electrical
10
340137.5
20
-193490.0
30
0
11
340237.5
21
-193490.0
31
0
0
LINE
8
electrical
10
340137.5
20
-193450.0
30
0
11
340237.5
21
-193450.0
31
0
0
LINE
8
electrical
10
339912.5
20
-193505.0
30
0
11
339935.88
21
-193505.0
31
0
0
LINE
8
electrical
10
339935.88
20
-193505.0
30
0
11
339889.12
21
-193505.0
31
0
0
LINE
8
electrical
10
339889.12
20
-193505.0
30
0
11
339912.5
21
-193505.0
31
0
0
LINE
8
electrical
10
339912.5
20
-193480.0
30
0
11
339912.5
21
-193505.0
31
0
0
LINE
8
electrical
10
339912.5
20
-193480.0
30
0
11
339935.88
21
-193480.0
31
0
0
LINE
8
electrical
10
339935.88
20
-193480.0
30
0
11
339889.12
21
-193480.0
31
0
0
LINE
8
electrical
10
339889.12
20
-193480.0
30
0
11
339912.5
21
-193480.0
31
0
0
LINE
8
electrical
10
340050.0
20
-193505.0
30
0
11
340073.38
21
-193505.0
31
0
0
LINE
8
electrical
10
340073.38
20
-193505.0
30
0
11
340026.62
21
-193505.0
31
0
0
LINE
8
electrical
10
340026.62
20
-193505.0
30
0
11
340050.0
21
-193505.0
31
0
0
LINE
8
electrical
10
340050.0
20
-193480.0
30
0
11
340050.0
21
-193505.0
31
0
0
LINE
8
electrical
10
340050.0
20
-193480.0
30
0
11
340073.38
21
-193480.0
31
0
0
LINE
8
electrical
10
340073.38
20
-193480.0
30
0
11
340026.62
21
-193480.0
31
0
0
LINE
8
electrical
10
340026.62
20
-193480.0
30
0
11
340050.0
21
-193480.0
31
0
0
LINE
8
electrical
10
340187.5
20
-193505.0
30
0
11
340210.88
21
-193505.0
31
0
0
LINE
8
electrical
10
340210.88
20
-193505.0
30
0
11
340164.12
21
-193505.0
31
0
0
LINE
8
electrical
10
340164.12
20
-193505.0
30
0
11
340187.5
21
-193505.0
31
0
0
LINE
8
electrical
10
340187.5
20
-193480.0
30
0
11
340187.5
21
-193505.0
31
0
0
LINE
8
electrical
10
340187.5
20
-193480.0
30
0
11
340210.88
21
-193480.0
31
0
0
LINE
8
electrical
10
340210.88
20
-193480.0
30
0
11
340164.12
21
-193480.0
31
0
0
LINE
8
electrical
10
340164.12
20
-193480.0
30
0
11
340187.5
21
-193480.0
31
0
0
LINE
8
electrical
10
340050.0
20
-193300.0
30
0
11
340065.59
21
-193300.0
31
0
0
LINE
8
electrical
10
340065.59
20
-193300.0
30
0
11
340034.41
21
-193300.0
31
0
0
LINE
8
electrical
10
340034.41
20
-193300.0
30
0
11
340050.0
21
-193300.0
31
0
0
LINE
8
electrical
10
340050.0
20
-226300.0
30
0
11
340050.0
21
-193300.0
31
0
0
LINE
8
electrical
10
340050.0
20
-226300.0
30
0
11
340065.59
21
-226300.0
31
0
0
LINE
8
electrical
10
340065.59
20
-226300.0
30
0
11
340034.41
21
-226300.0
31
0
0
LINE
8
electrical
10
340034.41
20
-226300.0
30
0
11
340050.0
21
-226300.0
31
0
0
LINE
8
electrical
10
340032.0
20
-193300.0
30
0
11
340059.0
21
-193284.41
31
0
0
LINE
8
electrical
10
340059.0
20
-193284.41
30
0
11
340059.0
21
-193315.59
31
0
0
LINE
8
electrical
10
340059.0
20
-193315.59
30
0
11
340032.0
21
-193300.0
31
0
0
LINE
8
electrical
10
340050.0
20
-193300.0
30
0
11
340069.44
21
-193300.0
31
0
0
LINE
8
electrical
10
340069.44
20
-193300.0
30
0
11
340050.0
21
-193300.0
31
0
0
LINE
8
lighting
10
318680.0
20
-191420.0
30
0
11
318680.0
21
-190780.0
31
0
0
LINE
8
lighting
10
319320.0
20
-191420.0
30
0
11
319320.0
21
-190780.0
31
0
0
LINE
8
lighting
10
318680.0
20
-191420.0
30
0
11
319320.0
21
-191420.0
31
0
0
LINE
8
lighting
10
318680.0
20
-190780.0
30
0
11
319320.0
21
-190780.0
31
0
0
LINE
8
lighting
10
318720.0
20
-191380.0
30
0
11
318720.0
21
-190820.0
31
0
0
LINE
8
lighting
10
319280.0
20
-191380.0
30
0
11
319280.0
21
-190820.0
31
0
0
LINE
8
lighting
10
318720.0
20
-191380.0
30
0
11
319280.0
21
-191380.0
31
0
0
LINE
8
lighting
10
318720.0
20
-190820.0
30
0
11
319280.0
21
-190820.0
31
0
0
LINE
8
lighting
10
318754.0
20
-191370.0
30
0
11
318754.0
21
-190830.0
31
0
0
LINE
8
lighting
10
318766.0
20
-191370.0
30
0
11
318766.0
21
-190830.0
31
0
0
LINE
8
lighting
10
318754.0
20
-191370.0
30
0
11
318766.0
21
-191370.0
31
0
0
LINE
8
lighting
10
318754.0
20
-190830.0
30
0
11
318766.0
21
-190830.0
31
0
0
LINE
8
lighting
10
318834.0
20
-191370.0
30
0
11
318834.0
21
-190830.0
31
0
0
LINE
8
lighting
10
318846.0
20
-191370.0
30
0
11
318846.0
21
-190830.0
31
0
0
LINE
8
lighting
10
318834.0
20
-191370.0
30
0
11
318846.0
21
-191370.0
31
0
0
LINE
8
lighting
10
318834.0
20
-190830.0
30
0
11
318846.0
21
-190830.0
31
0
0
LINE
8
lighting
10
318914.0
20
-191370.0
30
0
11
318914.0
21
-190830.0
31
0
0
LINE
8
lighting
10
318926.0
20
-191370.0
30
0
11
318926.0
21
-190830.0
31
0
0
LINE
8
lighting
10
318914.0
20
-191370.0
30
0
11
318926.0
21
-191370.0
31
0
0
LINE
8
lighting
10
318914.0
20
-190830.0
30
0
11
318926.0
21
-190830.0
31
0
0
LINE
8
lighting
10
318994.0
20
-191370.0
30
0
11
318994.0
21
-190830.0
31
0
0
LINE
8
lighting
10
319006.0
20
-191370.0
30
0
11
319006.0
21
-190830.0
31
0
0
LINE
8
lighting
10
318994.0
20
-191370.0
30
0
11
319006.0
21
-191370.0
31
0
0
LINE
8
lighting
10
318994.0
20
-190830.0
30
0
11
319006.0
21
-190830.0
31
0
0
LINE
8
lighting
10
319074.0
20
-191370.0
30
0
11
319074.0
21
-190830.0
31
0
0
LINE
8
lighting
10
319086.0
20
-191370.0
30
0
11
319086.0
21
-190830.0
31
0
0
LINE
8
lighting
10
319074.0
20
-191370.0
30
0
11
319086.0
21
-191370.0
31
0
0
LINE
8
lighting
10
319074.0
20
-190830.0
30
0
11
319086.0
21
-190830.0
31
0
0
LINE
8
lighting
10
319154.0
20
-191370.0
30
0
11
319154.0
21
-190830.0
31
0
0
LINE
8
lighting
10
319166.0
20
-191370.0
30
0
11
319166.0
21
-190830.0
31
0
0
LINE
8
lighting
10
319154.0
20
-191370.0
30
0
11
319166.0
21
-191370.0
31
0
0
LINE
8
lighting
10
319154.0
20
-190830.0
30
0
11
319166.0
21
-190830.0
31
0
0
LINE
8
lighting
10
319234.0
20
-191370.0
30
0
11
319234.0
21
-190830.0
31
0
0
LINE
8
lighting
10
319246.0
20
-191370.0
30
0
11
319246.0
21
-190830.0
31
0
0
LINE
8
lighting
10
319234.0
20
-191370.0
30
0
11
319246.0
21
-191370.0
31
0
0
LINE
8
lighting
10
319234.0
20
-190830.0
30
0
11
319246.0
21
-190830.0
31
0
0
LINE
8
lighting
10
319009.0
20
-191100.0
30
0
11
318995.5
21
-191092.21
31
0
0
LINE
8
lighting
10
318995.5
20
-191092.21
30
0
11
318995.5
21
-191107.79
31
0
0
LINE
8
lighting
10
318995.5
20
-191107.79
30
0
11
319009.0
21
-191100.0
31
0
0
LINE
8
lighting
10
336680.0
20
-191420.0
30
0
11
336680.0
21
-190780.0
31
0
0
LINE
8
lighting
10
337320.0
20
-191420.0
30
0
11
337320.0
21
-190780.0
31
0
0
LINE
8
lighting
10
336680.0
20
-191420.0
30
0
11
337320.0
21
-191420.0
31
0
0
LINE
8
lighting
10
336680.0
20
-190780.0
30
0
11
337320.0
21
-190780.0
31
0
0
LINE
8
lighting
10
336720.0
20
-191380.0
30
0
11
336720.0
21
-190820.0
31
0
0
LINE
8
lighting
10
337280.0
20
-191380.0
30
0
11
337280.0
21
-190820.0
31
0
0
LINE
8
lighting
10
336720.0
20
-191380.0
30
0
11
337280.0
21
-191380.0
31
0
0
LINE
8
lighting
10
336720.0
20
-190820.0
30
0
11
337280.0
21
-190820.0
31
0
0
LINE
8
lighting
10
336754.0
20
-191370.0
30
0
11
336754.0
21
-190830.0
31
0
0
LINE
8
lighting
10
336766.0
20
-191370.0
30
0
11
336766.0
21
-190830.0
31
0
0
LINE
8
lighting
10
336754.0
20
-191370.0
30
0
11
336766.0
21
-191370.0
31
0
0
LINE
8
lighting
10
336754.0
20
-190830.0
30
0
11
336766.0
21
-190830.0
31
0
0
LINE
8
lighting
10
336834.0
20
-191370.0
30
0
11
336834.0
21
-190830.0
31
0
0
LINE
8
lighting
10
336846.0
20
-191370.0
30
0
11
336846.0
21
-190830.0
31
0
0
LINE
8
lighting
10
336834.0
20
-191370.0
30
0
11
336846.0
21
-191370.0
31
0
0
LINE
8
lighting
10
336834.0
20
-190830.0
30
0
11
336846.0
21
-190830.0
31
0
0
LINE
8
lighting
10
336914.0
20
-191370.0
30
0
11
336914.0
21
-190830.0
31
0
0
LINE
8
lighting
10
336926.0
20
-191370.0
30
0
11
336926.0
21
-190830.0
31
0
0
LINE
8
lighting
10
336914.0
20
-191370.0
30
0
11
336926.0
21
-191370.0
31
0
0
LINE
8
lighting
10
336914.0
20
-190830.0
30
0
11
336926.0
21
-190830.0
31
0
0
LINE
8
lighting
10
336994.0
20
-191370.0
30
0
11
336994.0
21
-190830.0
31
0
0
LINE
8
lighting
10
337006.0
20
-191370.0
30
0
11
337006.0
21
-190830.0
31
0
0
LINE
8
lighting
10
336994.0
20
-191370.0
30
0
11
337006.0
21
-191370.0
31
0
0
LINE
8
lighting
10
336994.0
20
-190830.0
30
0
11
337006.0
21
-190830.0
31
0
0
LINE
8
lighting
10
337074.0
20
-191370.0
30
0
11
337074.0
21
-190830.0
31
0
0
LINE
8
lighting
10
337086.0
20
-191370.0
30
0
11
337086.0
21
-190830.0
31
0
0
LINE
8
lighting
10
337074.0
20
-191370.0
30
0
11
337086.0
21
-191370.0
31
0
0
LINE
8
lighting
10
337074.0
20
-190830.0
30
0
11
337086.0
21
-190830.0
31
0
0
LINE
8
lighting
10
337154.0
20
-191370.0
30
0
11
337154.0
21
-190830.0
31
0
0
LINE
8
lighting
10
337166.0
20
-191370.0
30
0
11
337166.0
21
-190830.0
31
0
0
LINE
8
lighting
10
337154.0
20
-191370.0
30
0
11
337166.0
21
-191370.0
31
0
0
LINE
8
lighting
10
337154.0
20
-190830.0
30
0
11
337166.0
21
-190830.0
31
0
0
LINE
8
lighting
10
337234.0
20
-191370.0
30
0
11
337234.0
21
-190830.0
31
0
0
LINE
8
lighting
10
337246.0
20
-191370.0
30
0
11
337246.0
21
-190830.0
31
0
0
LINE
8
lighting
10
337234.0
20
-191370.0
30
0
11
337246.0
21
-191370.0
31
0
0
LINE
8
lighting
10
337234.0
20
-190830.0
30
0
11
337246.0
21
-190830.0
31
0
0
LINE
8
lighting
10
337009.0
20
-191100.0
30
0
11
336995.5
21
-191092.21
31
0
0
LINE
8
lighting
10
336995.5
20
-191092.21
30
0
11
336995.5
21
-191107.79
31
0
0
LINE
8
lighting
10
336995.5
20
-191107.79
30
0
11
337009.0
21
-191100.0
31
0
0
LINE
8
lighting
10
327680.0
20
-191420.0
30
0
11
327680.0
21
-190780.0
31
0
0
LINE
8
lighting
10
328320.0
20
-191420.0
30
0
11
328320.0
21
-190780.0
31
0
0
LINE
8
lighting
10
327680.0
20
-191420.0
30
0
11
328320.0
21
-191420.0
31
0
0
LINE
8
lighting
10
327680.0
20
-190780.0
30
0
11
328320.0
21
-190780.0
31
0
0
LINE
8
lighting
10
327720.0
20
-191380.0
30
0
11
327720.0
21
-190820.0
31
0
0
LINE
8
lighting
10
328280.0
20
-191380.0
30
0
11
328280.0
21
-190820.0
31
0
0
LINE
8
lighting
10
327720.0
20
-191380.0
30
0
11
328280.0
21
-191380.0
31
0
0
LINE
8
lighting
10
327720.0
20
-190820.0
30
0
11
328280.0
21
-190820.0
31
0
0
LINE
8
lighting
10
327754.0
20
-191370.0
30
0
11
327754.0
21
-190830.0
31
0
0
LINE
8
lighting
10
327766.0
20
-191370.0
30
0
11
327766.0
21
-190830.0
31
0
0
LINE
8
lighting
10
327754.0
20
-191370.0
30
0
11
327766.0
21
-191370.0
31
0
0
LINE
8
lighting
10
327754.0
20
-190830.0
30
0
11
327766.0
21
-190830.0
31
0
0
LINE
8
lighting
10
327834.0
20
-191370.0
30
0
11
327834.0
21
-190830.0
31
0
0
LINE
8
lighting
10
327846.0
20
-191370.0
30
0
11
327846.0
21
-190830.0
31
0
0
LINE
8
lighting
10
327834.0
20
-191370.0
30
0
11
327846.0
21
-191370.0
31
0
0
LINE
8
lighting
10
327834.0
20
-190830.0
30
0
11
327846.0
21
-190830.0
31
0
0
LINE
8
lighting
10
327914.0
20
-191370.0
30
0
11
327914.0
21
-190830.0
31
0
0
LINE
8
lighting
10
327926.0
20
-191370.0
30
0
11
327926.0
21
-190830.0
31
0
0
LINE
8
lighting
10
327914.0
20
-191370.0
30
0
11
327926.0
21
-191370.0
31
0
0
LINE
8
lighting
10
327914.0
20
-190830.0
30
0
11
327926.0
21
-190830.0
31
0
0
LINE
8
lighting
10
327994.0
20
-191370.0
30
0
11
327994.0
21
-190830.0
31
0
0
LINE
8
lighting
10
328006.0
20
-191370.0
30
0
11
328006.0
21
-190830.0
31
0
0
LINE
8
lighting
10
327994.0
20
-191370.0
30
0
11
328006.0
21
-191370.0
31
0
0
LINE
8
lighting
10
327994.0
20
-190830.0
30
0
11
328006.0
21
-190830.0
31
0
0
LINE
8
lighting
10
328074.0
20
-191370.0
30
0
11
328074.0
21
-190830.0
31
0
0
LINE
8
lighting
10
328086.0
20
-191370.0
30
0
11
328086.0
21
-190830.0
31
0
0
LINE
8
lighting
10
328074.0
20
-191370.0
30
0
11
328086.0
21
-191370.0
31
0
0
LINE
8
lighting
10
328074.0
20
-190830.0
30
0
11
328086.0
21
-190830.0
31
0
0
LINE
8
lighting
10
328154.0
20
-191370.0
30
0
11
328154.0
21
-190830.0
31
0
0
LINE
8
lighting
10
328166.0
20
-191370.0
30
0
11
328166.0
21
-190830.0
31
0
0
LINE
8
lighting
10
328154.0
20
-191370.0
30
0
11
328166.0
21
-191370.0
31
0
0
LINE
8
lighting
10
328154.0
20
-190830.0
30
0
11
328166.0
21
-190830.0
31
0
0
LINE
8
lighting
10
328234.0
20
-191370.0
30
0
11
328234.0
21
-190830.0
31
0
0
LINE
8
lighting
10
328246.0
20
-191370.0
30
0
11
328246.0
21
-190830.0
31
0
0
LINE
8
lighting
10
328234.0
20
-191370.0
30
0
11
328246.0
21
-191370.0
31
0
0
LINE
8
lighting
10
328234.0
20
-190830.0
30
0
11
328246.0
21
-190830.0
31
0
0
LINE
8
lighting
10
328009.0
20
-191100.0
30
0
11
327995.5
21
-191092.21
31
0
0
LINE
8
lighting
10
327995.5
20
-191092.21
30
0
11
327995.5
21
-191107.79
31
0
0
LINE
8
lighting
10
327995.5
20
-191107.79
30
0
11
328009.0
21
-191100.0
31
0
0
LINE
8
lighting
10
318680.0
20
-181220.0
30
0
11
318680.0
21
-180580.0
31
0
0
LINE
8
lighting
10
319320.0
20
-181220.0
30
0
11
319320.0
21
-180580.0
31
0
0
LINE
8
lighting
10
318680.0
20
-181220.0
30
0
11
319320.0
21
-181220.0
31
0
0
LINE
8
lighting
10
318680.0
20
-180580.0
30
0
11
319320.0
21
-180580.0
31
0
0
LINE
8
lighting
10
318720.0
20
-181180.0
30
0
11
318720.0
21
-180620.0
31
0
0
LINE
8
lighting
10
319280.0
20
-181180.0
30
0
11
319280.0
21
-180620.0
31
0
0
LINE
8
lighting
10
318720.0
20
-181180.0
30
0
11
319280.0
21
-181180.0
31
0
0
LINE
8
lighting
10
318720.0
20
-180620.0
30
0
11
319280.0
21
-180620.0
31
0
0
LINE
8
lighting
10
318754.0
20
-181170.0
30
0
11
318754.0
21
-180630.0
31
0
0
LINE
8
lighting
10
318766.0
20
-181170.0
30
0
11
318766.0
21
-180630.0
31
0
0
LINE
8
lighting
10
318754.0
20
-181170.0
30
0
11
318766.0
21
-181170.0
31
0
0
LINE
8
lighting
10
318754.0
20
-180630.0
30
0
11
318766.0
21
-180630.0
31
0
0
LINE
8
lighting
10
318834.0
20
-181170.0
30
0
11
318834.0
21
-180630.0
31
0
0
LINE
8
lighting
10
318846.0
20
-181170.0
30
0
11
318846.0
21
-180630.0
31
0
0
LINE
8
lighting
10
318834.0
20
-181170.0
30
0
11
318846.0
21
-181170.0
31
0
0
LINE
8
lighting
10
318834.0
20
-180630.0
30
0
11
318846.0
21
-180630.0
31
0
0
LINE
8
lighting
10
318914.0
20
-181170.0
30
0
11
318914.0
21
-180630.0
31
0
0
LINE
8
lighting
10
318926.0
20
-181170.0
30
0
11
318926.0
21
-180630.0
31
0
0
LINE
8
lighting
10
318914.0
20
-181170.0
30
0
11
318926.0
21
-181170.0
31
0
0
LINE
8
lighting
10
318914.0
20
-180630.0
30
0
11
318926.0
21
-180630.0
31
0
0
LINE
8
lighting
10
318994.0
20
-181170.0
30
0
11
318994.0
21
-180630.0
31
0
0
LINE
8
lighting
10
319006.0
20
-181170.0
30
0
11
319006.0
21
-180630.0
31
0
0
LINE
8
lighting
10
318994.0
20
-181170.0
30
0
11
319006.0
21
-181170.0
31
0
0
LINE
8
lighting
10
318994.0
20
-180630.0
30
0
11
319006.0
21
-180630.0
31
0
0
LINE
8
lighting
10
319074.0
20
-181170.0
30
0
11
319074.0
21
-180630.0
31
0
0
LINE
8
lighting
10
319086.0
20
-181170.0
30
0
11
319086.0
21
-180630.0
31
0
0
LINE
8
lighting
10
319074.0
20
-181170.0
30
0
11
319086.0
21
-181170.0
31
0
0
LINE
8
lighting
10
319074.0
20
-180630.0
30
0
11
319086.0
21
-180630.0
31
0
0
LINE
8
lighting
10
319154.0
20
-181170.0
30
0
11
319154.0
21
-180630.0
31
0
0
LINE
8
lighting
10
319166.0
20
-181170.0
30
0
11
319166.0
21
-180630.0
31
0
0
LINE
8
lighting
10
319154.0
20
-181170.0
30
0
11
319166.0
21
-181170.0
31
0
0
LINE
8
lighting
10
319154.0
20
-180630.0
30
0
11
319166.0
21
-180630.0
31
0
0
LINE
8
lighting
10
319234.0
20
-181170.0
30
0
11
319234.0
21
-180630.0
31
0
0
LINE
8
lighting
10
319246.0
20
-181170.0
30
0
11
319246.0
21
-180630.0
31
0
0
LINE
8
lighting
10
319234.0
20
-181170.0
30
0
11
319246.0
21
-181170.0
31
0
0
LINE
8
lighting
10
319234.0
20
-180630.0
30
0
11
319246.0
21
-180630.0
31
0
0
LINE
8
lighting
10
319009.0
20
-180900.0
30
0
11
318995.5
21
-180892.21
31
0
0
LINE
8
lighting
10
318995.5
20
-180892.21
30
0
11
318995.5
21
-180907.79
31
0
0
LINE
8
lighting
10
318995.5
20
-180907.79
30
0
11
319009.0
21
-180900.0
31
0
0
LINE
8
lighting
10
336680.0
20
-181220.0
30
0
11
336680.0
21
-180580.0
31
0
0
LINE
8
lighting
10
337320.0
20
-181220.0
30
0
11
337320.0
21
-180580.0
31
0
0
LINE
8
lighting
10
336680.0
20
-181220.0
30
0
11
337320.0
21
-181220.0
31
0
0
LINE
8
lighting
10
336680.0
20
-180580.0
30
0
11
337320.0
21
-180580.0
31
0
0
LINE
8
lighting
10
336720.0
20
-181180.0
30
0
11
336720.0
21
-180620.0
31
0
0
LINE
8
lighting
10
337280.0
20
-181180.0
30
0
11
337280.0
21
-180620.0
31
0
0
LINE
8
lighting
10
336720.0
20
-181180.0
30
0
11
337280.0
21
-181180.0
31
0
0
LINE
8
lighting
10
336720.0
20
-180620.0
30
0
11
337280.0
21
-180620.0
31
0
0
LINE
8
lighting
10
336754.0
20
-181170.0
30
0
11
336754.0
21
-180630.0
31
0
0
LINE
8
lighting
10
336766.0
20
-181170.0
30
0
11
336766.0
21
-180630.0
31
0
0
LINE
8
lighting
10
336754.0
20
-181170.0
30
0
11
336766.0
21
-181170.0
31
0
0
LINE
8
lighting
10
336754.0
20
-180630.0
30
0
11
336766.0
21
-180630.0
31
0
0
LINE
8
lighting
10
336834.0
20
-181170.0
30
0
11
336834.0
21
-180630.0
31
0
0
LINE
8
lighting
10
336846.0
20
-181170.0
30
0
11
336846.0
21
-180630.0
31
0
0
LINE
8
lighting
10
336834.0
20
-181170.0
30
0
11
336846.0
21
-181170.0
31
0
0
LINE
8
lighting
10
336834.0
20
-180630.0
30
0
11
336846.0
21
-180630.0
31
0
0
LINE
8
lighting
10
336914.0
20
-181170.0
30
0
11
336914.0
21
-180630.0
31
0
0
LINE
8
lighting
10
336926.0
20
-181170.0
30
0
11
336926.0
21
-180630.0
31
0
0
LINE
8
lighting
10
336914.0
20
-181170.0
30
0
11
336926.0
21
-181170.0
31
0
0
LINE
8
lighting
10
336914.0
20
-180630.0
30
0
11
336926.0
21
-180630.0
31
0
0
LINE
8
lighting
10
336994.0
20
-181170.0
30
0
11
336994.0
21
-180630.0
31
0
0
LINE
8
lighting
10
337006.0
20
-181170.0
30
0
11
337006.0
21
-180630.0
31
0
0
LINE
8
lighting
10
336994.0
20
-181170.0
30
0
11
337006.0
21
-181170.0
31
0
0
LINE
8
lighting
10
336994.0
20
-180630.0
30
0
11
337006.0
21
-180630.0
31
0
0
LINE
8
lighting
10
337074.0
20
-181170.0
30
0
11
337074.0
21
-180630.0
31
0
0
LINE
8
lighting
10
337086.0
20
-181170.0
30
0
11
337086.0
21
-180630.0
31
0
0
LINE
8
lighting
10
337074.0
20
-181170.0
30
0
11
337086.0
21
-181170.0
31
0
0
LINE
8
lighting
10
337074.0
20
-180630.0
30
0
11
337086.0
21
-180630.0
31
0
0
LINE
8
lighting
10
337154.0
20
-181170.0
30
0
11
337154.0
21
-180630.0
31
0
0
LINE
8
lighting
10
337166.0
20
-181170.0
30
0
11
337166.0
21
-180630.0
31
0
0
LINE
8
lighting
10
337154.0
20
-181170.0
30
0
11
337166.0
21
-181170.0
31
0
0
LINE
8
lighting
10
337154.0
20
-180630.0
30
0
11
337166.0
21
-180630.0
31
0
0
LINE
8
lighting
10
337234.0
20
-181170.0
30
0
11
337234.0
21
-180630.0
31
0
0
LINE
8
lighting
10
337246.0
20
-181170.0
30
0
11
337246.0
21
-180630.0
31
0
0
LINE
8
lighting
10
337234.0
20
-181170.0
30
0
11
337246.0
21
-181170.0
31
0
0
LINE
8
lighting
10
337234.0
20
-180630.0
30
0
11
337246.0
21
-180630.0
31
0
0
LINE
8
lighting
10
337009.0
20
-180900.0
30
0
11
336995.5
21
-180892.21
31
0
0
LINE
8
lighting
10
336995.5
20
-180892.21
30
0
11
336995.5
21
-180907.79
31
0
0
LINE
8
lighting
10
336995.5
20
-180907.79
30
0
11
337009.0
21
-180900.0
31
0
0
LINE
8
lighting
10
327680.0
20
-181220.0
30
0
11
327680.0
21
-180580.0
31
0
0
LINE
8
lighting
10
328320.0
20
-181220.0
30
0
11
328320.0
21
-180580.0
31
0
0
LINE
8
lighting
10
327680.0
20
-181220.0
30
0
11
328320.0
21
-181220.0
31
0
0
LINE
8
lighting
10
327680.0
20
-180580.0
30
0
11
328320.0
21
-180580.0
31
0
0
LINE
8
lighting
10
327720.0
20
-181180.0
30
0
11
327720.0
21
-180620.0
31
0
0
LINE
8
lighting
10
328280.0
20
-181180.0
30
0
11
328280.0
21
-180620.0
31
0
0
LINE
8
lighting
10
327720.0
20
-181180.0
30
0
11
328280.0
21
-181180.0
31
0
0
LINE
8
lighting
10
327720.0
20
-180620.0
30
0
11
328280.0
21
-180620.0
31
0
0
LINE
8
lighting
10
327754.0
20
-181170.0
30
0
11
327754.0
21
-180630.0
31
0
0
LINE
8
lighting
10
327766.0
20
-181170.0
30
0
11
327766.0
21
-180630.0
31
0
0
LINE
8
lighting
10
327754.0
20
-181170.0
30
0
11
327766.0
21
-181170.0
31
0
0
LINE
8
lighting
10
327754.0
20
-180630.0
30
0
11
327766.0
21
-180630.0
31
0
0
LINE
8
lighting
10
327834.0
20
-181170.0
30
0
11
327834.0
21
-180630.0
31
0
0
LINE
8
lighting
10
327846.0
20
-181170.0
30
0
11
327846.0
21
-180630.0
31
0
0
LINE
8
lighting
10
327834.0
20
-181170.0
30
0
11
327846.0
21
-181170.0
31
0
0
LINE
8
lighting
10
327834.0
20
-180630.0
30
0
11
327846.0
21
-180630.0
31
0
0
LINE
8
lighting
10
327914.0
20
-181170.0
30
0
11
327914.0
21
-180630.0
31
0
0
LINE
8
lighting
10
327926.0
20
-181170.0
30
0
11
327926.0
21
-180630.0
31
0
0
LINE
8
lighting
10
327914.0
20
-181170.0
30
0
11
327926.0
21
-181170.0
31
0
0
LINE
8
lighting
10
327914.0
20
-180630.0
30
0
11
327926.0
21
-180630.0
31
0
0
LINE
8
lighting
10
327994.0
20
-181170.0
30
0
11
327994.0
21
-180630.0
31
0
0
LINE
8
lighting
10
328006.0
20
-181170.0
30
0
11
328006.0
21
-180630.0
31
0
0
LINE
8
lighting
10
327994.0
20
-181170.0
30
0
11
328006.0
21
-181170.0
31
0
0
LINE
8
lighting
10
327994.0
20
-180630.0
30
0
11
328006.0
21
-180630.0
31
0
0
LINE
8
lighting
10
328074.0
20
-181170.0
30
0
11
328074.0
21
-180630.0
31
0
0
LINE
8
lighting
10
328086.0
20
-181170.0
30
0
11
328086.0
21
-180630.0
31
0
0
LINE
8
lighting
10
328074.0
20
-181170.0
30
0
11
328086.0
21
-181170.0
31
0
0
LINE
8
lighting
10
328074.0
20
-180630.0
30
0
11
328086.0
21
-180630.0
31
0
0
LINE
8
lighting
10
328154.0
20
-181170.0
30
0
11
328154.0
21
-180630.0
31
0
0
LINE
8
lighting
10
328166.0
20
-181170.0
30
0
11
328166.0
21
-180630.0
31
0
0
LINE
8
lighting
10
328154.0
20
-181170.0
30
0
11
328166.0
21
-181170.0
31
0
0
LINE
8
lighting
10
328154.0
20
-180630.0
30
0
11
328166.0
21
-180630.0
31
0
0
LINE
8
lighting
10
328234.0
20
-181170.0
30
0
11
328234.0
21
-180630.0
31
0
0
LINE
8
lighting
10
328246.0
20
-181170.0
30
0
11
328246.0
21
-180630.0
31
0
0
LINE
8
lighting
10
328234.0
20
-181170.0
30
0
11
328246.0
21
-181170.0
31
0
0
LINE
8
lighting
10
328234.0
20
-180630.0
30
0
11
328246.0
21
-180630.0
31
0
0
LINE
8
lighting
10
328009.0
20
-180900.0
30
0
11
327995.5
21
-180892.21
31
0
0
LINE
8
lighting
10
327995.5
20
-180892.21
30
0
11
327995.5
21
-180907.79
31
0
0
LINE
8
lighting
10
327995.5
20
-180907.79
30
0
11
328009.0
21
-180900.0
31
0
0
LINE
8
electrical
10
319000.0
20
-191370.0
30
0
11
319000.0
21
-191377.79
31
0
0
LINE
8
electrical
10
319000.0
20
-191377.79
30
0
11
319000.0
21
-191362.21
31
0
0
LINE
8
electrical
10
319000.0
20
-191362.21
30
0
11
319000.0
21
-191370.0
31
0
0
LINE
8
electrical
10
340050.0
20
-191370.0
30
0
11
319000.0
21
-191370.0
31
0
0
LINE
8
electrical
10
340050.0
20
-191370.0
30
0
11
340050.0
21
-191377.79
31
0
0
LINE
8
electrical
10
340050.0
20
-191377.79
30
0
11
340050.0
21
-191362.21
31
0
0
LINE
8
electrical
10
340050.0
20
-191362.21
30
0
11
340050.0
21
-191370.0
31
0
0
LINE
8
electrical
10
319000.0
20
-180900.0
30
0
11
319007.79
21
-180900.0
31
0
0
LINE
8
electrical
10
319007.79
20
-180900.0
30
0
11
318992.21
21
-180900.0
31
0
0
LINE
8
electrical
10
318992.21
20
-180900.0
30
0
11
319000.0
21
-180900.0
31
0
0
LINE
8
electrical
10
319000.0
20
-191370.0
30
0
11
319000.0
21
-180900.0
31
0
0
LINE
8
electrical
10
319000.0
20
-191370.0
30
0
11
319007.79
21
-191370.0
31
0
0
LINE
8
electrical
10
319007.79
20
-191370.0
30
0
11
318992.21
21
-191370.0
31
0
0
LINE
8
electrical
10
318992.21
20
-191370.0
30
0
11
319000.0
21
-191370.0
31
0
0
LINE
8
electrical
10
337000.0
20
-180900.0
30
0
11
337007.79
21
-180900.0
31
0
0
LINE
8
electrical
10
337007.79
20
-180900.0
30
0
11
336992.21
21
-180900.0
31
0
0
LINE
8
electrical
10
336992.21
20
-180900.0
30
0
11
337000.0
21
-180900.0
31
0
0
LINE
8
electrical
10
337000.0
20
-191370.0
30
0
11
337000.0
21
-180900.0
31
0
0
LINE
8
electrical
10
337000.0
20
-191370.0
30
0
11
337007.79
21
-191370.0
31
0
0
LINE
8
electrical
10
337007.79
20
-191370.0
30
0
11
336992.21
21
-191370.0
31
0
0
LINE
8
electrical
10
336992.21
20
-191370.0
30
0
11
337000.0
21
-191370.0
31
0
0
LINE
8
electrical
10
328000.0
20
-180900.0
30
0
11
328007.79
21
-180900.0
31
0
0
LINE
8
electrical
10
328007.79
20
-180900.0
30
0
11
327992.21
21
-180900.0
31
0
0
LINE
8
electrical
10
327992.21
20
-180900.0
30
0
11
328000.0
21
-180900.0
31
0
0
LINE
8
electrical
10
328000.0
20
-191370.0
30
0
11
328000.0
21
-180900.0
31
0
0
LINE
8
electrical
10
328000.0
20
-191370.0
30
0
11
328007.79
21
-191370.0
31
0
0
LINE
8
electrical
10
328007.79
20
-191370.0
30
0
11
327992.21
21
-191370.0
31
0
0
LINE
8
electrical
10
327992.21
20
-191370.0
30
0
11
328000.0
21
-191370.0
31
0
0
LINE
8
electrical
10
340063.0
20
-193300.0
30
0
11
340043.5
21
-193288.74
31
0
0
LINE
8
electrical
10
340043.5
20
-193288.74
30
0
11
340043.5
21
-193311.26
31
0
0
LINE
8
electrical
10
340043.5
20
-193311.26
30
0
11
340063.0
21
-193300.0
31
0
0
LINE
8
electrical
10
336743.44
20
-191381.22
30
0
11
336753.28
21
-191364.39
31
0
0
LINE
8
electrical
10
336753.28
20
-191364.39
30
0
11
336753.28
21
-191364.39
31
0
0
LINE
8
electrical
10
336753.28
20
-191364.39
30
0
11
336743.44
21
-191381.22
31
0
0
LINE
8
electrical
10
340043.44
20
-193311.22
30
0
11
336743.44
21
-191381.22
31
0
0
LINE
8
electrical
10
340043.44
20
-193311.22
30
0
11
340053.28
21
-193294.39
31
0
0
LINE
8
electrical
10
340053.28
20
-193294.39
30
0
11
340053.28
21
-193294.39
31
0
0
LINE
8
electrical
10
340053.28
20
-193294.39
30
0
11
340043.44
21
-193311.22
31
0
0
LINE
8
electrical
10
319250.0
20
-191370.0
30
0
11
319250.0
21
-191381.26
31
0
0
LINE
8
electrical
10
319250.0
20
-191381.26
30
0
11
319250.0
21
-191358.74
31
0
0
LINE
8
electrical
10
319250.0
20
-191358.74
30
0
11
319250.0
21
-191370.0
31
0
0
LINE
8
electrical
10
336750.0
20
-191370.0
30
0
11
319250.0
21
-191370.0
31
0
0
LINE
8
electrical
10
336750.0
20
-191370.0
30
0
11
336750.0
21
-191381.26
31
0
0
LINE
8
electrical
10
336750.0
20
-191381.26
30
0
11
336750.0
21
-191358.74
31
0
0
LINE
8
electrical
10
336750.0
20
-191358.74
30
0
11
336750.0
21
-191370.0
31
0
0
LINE
8
electrical
10
340050.0
20
-193300.0
30
0
11
340064.04
21
-193300.0
31
0
0
LINE
8
electrical
10
340064.04
20
-193300.0
30
0
11
340050.0
21
-193300.0
31
0
0
LINE
8
electrical
10
336750.0
20
-191370.0
30
0
11
336764.04
21
-191370.0
31
0
0
LINE
8
electrical
10
336764.04
20
-191370.0
30
0
11
336750.0
21
-191370.0
31
0
0
LINE
8
electrical
10
340063.0
20
-193300.0
30
0
11
340043.5
21
-193288.74
31
0
0
LINE
8
electrical
10
340043.5
20
-193288.74
30
0
11
340043.5
21
-193311.26
31
0
0
LINE
8
electrical
10
340043.5
20
-193311.26
30
0
11
340063.0
21
-193300.0
31
0
0
LINE
8
electrical
10
336743.14
20
-191261.04
30
0
11
336753.43
21
-191244.48
31
0
0
LINE
8
electrical
10
336753.43
20
-191244.48
30
0
11
336753.43
21
-191244.48
31
0
0
LINE
8
electrical
10
336753.43
20
-191244.48
30
0
11
336743.14
21
-191261.04
31
0
0
LINE
8
electrical
10
340043.14
20
-193311.04
30
0
11
336743.14
21
-191261.04
31
0
0
LINE
8
electrical
10
340043.14
20
-193311.04
30
0
11
340053.43
21
-193294.48
31
0
0
LINE
8
electrical
10
340053.43
20
-193294.48
30
0
11
340053.43
21
-193294.48
31
0
0
LINE
8
electrical
10
340053.43
20
-193294.48
30
0
11
340043.14
21
-193311.04
31
0
0
LINE
8
electrical
10
319250.0
20
-191250.0
30
0
11
319250.0
21
-191261.26
31
0
0
LINE
8
electrical
10
319250.0
20
-191261.26
30
0
11
319250.0
21
-191238.74
31
0
0
LINE
8
electrical
10
319250.0
20
-191238.74
30
0
11
319250.0
21
-191250.0
31
0
0
LINE
8
electrical
10
336750.0
20
-191250.0
30
0
11
319250.0
21
-191250.0
31
0
0
LINE
8
electrical
10
336750.0
20
-191250.0
30
0
11
336750.0
21
-191261.26
31
0
0
LINE
8
electrical
10
336750.0
20
-191261.26
30
0
11
336750.0
21
-191238.74
31
0
0
LINE
8
electrical
10
336750.0
20
-191238.74
30
0
11
336750.0
21
-191250.0
31
0
0
LINE
8
electrical
10
340050.0
20
-193300.0
30
0
11
340064.04
21
-193300.0
31
0
0
LINE
8
electrical
10
340064.04
20
-193300.0
30
0
11
340050.0
21
-193300.0
31
0
0
LINE
8
electrical
10
336750.0
20
-191250.0
30
0
11
336764.04
21
-191250.0
31
0
0
LINE
8
electrical
10
336764.04
20
-191250.0
30
0
11
336750.0
21
-191250.0
31
0
0
LINE
8
electrical
10
340063.0
20
-193300.0
30
0
11
340043.5
21
-193288.74
31
0
0
LINE
8
electrical
10
340043.5
20
-193288.74
30
0
11
340043.5
21
-193311.26
31
0
0
LINE
8
electrical
10
340043.5
20
-193311.26
30
0
11
340063.0
21
-193300.0
31
0
0
LINE
8
electrical
10
336742.86
20
-191140.86
30
0
11
336753.57
21
-191124.57
31
0
0
LINE
8
electrical
10
336753.57
20
-191124.57
30
0
11
336753.57
21
-191124.57
31
0
0
LINE
8
electrical
10
336753.57
20
-191124.57
30
0
11
336742.86
21
-191140.86
31
0
0
LINE
8
electrical
10
340042.86
20
-193310.86
30
0
11
336742.86
21
-191140.86
31
0
0
LINE
8
electrical
10
340042.86
20
-193310.86
30
0
11
340053.57
21
-193294.57
31
0
0
LINE
8
electrical
10
340053.57
20
-193294.57
30
0
11
340053.57
21
-193294.57
31
0
0
LINE
8
electrical
10
340053.57
20
-193294.57
30
0
11
340042.86
21
-193310.86
31
0
0
LINE
8
electrical
10
319250.0
20
-191130.0
30
0
11
319250.0
21
-191141.26
31
0
0
LINE
8
electrical
10
319250.0
20
-191141.26
30
0
11
319250.0
21
-191118.74
31
0
0
LINE
8
electrical
10
319250.0
20
-191118.74
30
0
11
319250.0
21
-191130.0
31
0
0
LINE
8
electrical
10
336750.0
20
-191130.0
30
0
11
319250.0
21
-191130.0
31
0
0
LINE
8
electrical
10
336750.0
20
-191130.0
30
0
11
336750.0
21
-191141.26
31
0
0
LINE
8
electrical
10
336750.0
20
-191141.26
30
0
11
336750.0
21
-191118.74
31
0
0
LINE
8
electrical
10
336750.0
20
-191118.74
30
0
11
336750.0
21
-191130.0
31
0
0
LINE
8
electrical
10
340050.0
20
-193300.0
30
0
11
340064.04
21
-193300.0
31
0
0
LINE
8
electrical
10
340064.04
20
-193300.0
30
0
11
340050.0
21
-193300.0
31
0
0
LINE
8
electrical
10
336750.0
20
-191130.0
30
0
11
336764.04
21
-191130.0
31
0
0
LINE
8
electrical
10
336764.04
20
-191130.0
30
0
11
336750.0
21
-191130.0
31
0
0
LINE
8
electrical
10
320435.0
20
-193350.0
30
0
11
320435.0
21
-193290.0
31
0
0
LINE
8
electrical
10
320565.0
20
-193350.0
30
0
11
320565.0
21
-193290.0
31
0
0
LINE
8
electrical
10
320435.0
20
-193350.0
30
0
11
320565.0
21
-193350.0
31
0
0
LINE
8
electrical
10
320435.0
20
-193290.0
30
0
11
320565.0
21
-193290.0
31
0
0
LINE
8
electrical
10
320509.0
20
-193320.0
30
0
11
320495.5
21
-193312.21
31
0
0
LINE
8
electrical
10
320495.5
20
-193312.21
30
0
11
320495.5
21
-193327.79
31
0
0
LINE
8
electrical
10
320495.5
20
-193327.79
30
0
11
320509.0
21
-193320.0
31
0
0
LINE
8
electrical
10
340050.0
20
-193320.0
30
0
11
340050.0
21
-193327.79
31
0
0
LINE
8
electrical
10
340050.0
20
-193327.79
30
0
11
340050.0
21
-193312.21
31
0
0
LINE
8
electrical
10
340050.0
20
-193312.21
30
0
11
340050.0
21
-193320.0
31
0
0
LINE
8
electrical
10
320500.0
20
-193320.0
30
0
11
340050.0
21
-193320.0
31
0
0
LINE
8
electrical
10
320500.0
20
-193320.0
30
0
11
320500.0
21
-193327.79
31
0
0
LINE
8
electrical
10
320500.0
20
-193327.79
30
0
11
320500.0
21
-193312.21
31
0
0
LINE
8
electrical
10
320500.0
20
-193312.21
30
0
11
320500.0
21
-193320.0
31
0
0
LINE
8
electrical
10
320500.0
20
-193320.0
30
0
11
320509.72
21
-193320.0
31
0
0
LINE
8
electrical
10
320509.72
20
-193320.0
30
0
11
320500.0
21
-193320.0
31
0
0
LINE
8
electrical
10
335435.0
20
-193350.0
30
0
11
335435.0
21
-193290.0
31
0
0
LINE
8
electrical
10
335565.0
20
-193350.0
30
0
11
335565.0
21
-193290.0
31
0
0
LINE
8
electrical
10
335435.0
20
-193350.0
30
0
11
335565.0
21
-193350.0
31
0
0
LINE
8
electrical
10
335435.0
20
-193290.0
30
0
11
335565.0
21
-193290.0
31
0
0
LINE
8
electrical
10
335509.0
20
-193320.0
30
0
11
335495.5
21
-193312.21
31
0
0
LINE
8
electrical
10
335495.5
20
-193312.21
30
0
11
335495.5
21
-193327.79
31
0
0
LINE
8
electrical
10
335495.5
20
-193327.79
30
0
11
335509.0
21
-193320.0
31
0
0
LINE
8
electrical
10
340050.0
20
-193320.0
30
0
11
340050.0
21
-193327.79
31
0
0
LINE
8
electrical
10
340050.0
20
-193327.79
30
0
11
340050.0
21
-193312.21
31
0
0
LINE
8
electrical
10
340050.0
20
-193312.21
30
0
11
340050.0
21
-193320.0
31
0
0
LINE
8
electrical
10
335500.0
20
-193320.0
30
0
11
340050.0
21
-193320.0
31
0
0
LINE
8
electrical
10
335500.0
20
-193320.0
30
0
11
335500.0
21
-193327.79
31
0
0
LINE
8
electrical
10
335500.0
20
-193327.79
30
0
11
335500.0
21
-193312.21
31
0
0
LINE
8
electrical
10
335500.0
20
-193312.21
30
0
11
335500.0
21
-193320.0
31
0
0
LINE
8
electrical
10
335500.0
20
-193320.0
30
0
11
335509.72
21
-193320.0
31
0
0
LINE
8
electrical
10
335509.72
20
-193320.0
30
0
11
335500.0
21
-193320.0
31
0
0
LINE
8
hvac
10
315975.0
20
-192775.0
30
0
11
315975.0
21
-192025.0
31
0
0
LINE
8
hvac
10
317625.0
20
-192775.0
30
0
11
317625.0
21
-192025.0
31
0
0
LINE
8
hvac
10
315975.0
20
-192775.0
30
0
11
317625.0
21
-192775.0
31
0
0
LINE
8
hvac
10
315975.0
20
-192025.0
30
0
11
317625.0
21
-192025.0
31
0
0
LINE
8
hvac
10
316075.0
20
-192820.0
30
0
11
316075.0
21
-192780.0
31
0
0
LINE
8
hvac
10
317525.0
20
-192820.0
30
0
11
317525.0
21
-192780.0
31
0
0
LINE
8
hvac
10
316075.0
20
-192820.0
30
0
11
317525.0
21
-192820.0
31
0
0
LINE
8
hvac
10
316075.0
20
-192780.0
30
0
11
317525.0
21
-192780.0
31
0
0
LINE
8
hvac
10
316140.0
20
-192860.0
30
0
11
316140.0
21
-192800.0
31
0
0
LINE
8
hvac
10
316180.0
20
-192860.0
30
0
11
316180.0
21
-192800.0
31
0
0
LINE
8
hvac
10
316140.0
20
-192860.0
30
0
11
316180.0
21
-192860.0
31
0
0
LINE
8
hvac
10
316140.0
20
-192800.0
30
0
11
316180.0
21
-192800.0
31
0
0
LINE
8
hvac
10
316300.0
20
-192860.0
30
0
11
316300.0
21
-192800.0
31
0
0
LINE
8
hvac
10
316340.0
20
-192860.0
30
0
11
316340.0
21
-192800.0
31
0
0
LINE
8
hvac
10
316300.0
20
-192860.0
30
0
11
316340.0
21
-192860.0
31
0
0
LINE
8
hvac
10
316300.0
20
-192800.0
30
0
11
316340.0
21
-192800.0
31
0
0
LINE
8
hvac
10
316460.0
20
-192860.0
30
0
11
316460.0
21
-192800.0
31
0
0
LINE
8
hvac
10
316500.0
20
-192860.0
30
0
11
316500.0
21
-192800.0
31
0
0
LINE
8
hvac
10
316460.0
20
-192860.0
30
0
11
316500.0
21
-192860.0
31
0
0
LINE
8
hvac
10
316460.0
20
-192800.0
30
0
11
316500.0
21
-192800.0
31
0
0
LINE
8
hvac
10
316620.0
20
-192860.0
30
0
11
316620.0
21
-192800.0
31
0
0
LINE
8
hvac
10
316660.0
20
-192860.0
30
0
11
316660.0
21
-192800.0
31
0
0
LINE
8
hvac
10
316620.0
20
-192860.0
30
0
11
316660.0
21
-192860.0
31
0
0
LINE
8
hvac
10
316620.0
20
-192800.0
30
0
11
316660.0
21
-192800.0
31
0
0
LINE
8
hvac
10
316780.0
20
-192860.0
30
0
11
316780.0
21
-192800.0
31
0
0
LINE
8
hvac
10
316820.0
20
-192860.0
30
0
11
316820.0
21
-192800.0
31
0
0
LINE
8
hvac
10
316780.0
20
-192860.0
30
0
11
316820.0
21
-192860.0
31
0
0
LINE
8
hvac
10
316780.0
20
-192800.0
30
0
11
316820.0
21
-192800.0
31
0
0
LINE
8
hvac
10
316940.0
20
-192860.0
30
0
11
316940.0
21
-192800.0
31
0
0
LINE
8
hvac
10
316980.0
20
-192860.0
30
0
11
316980.0
21
-192800.0
31
0
0
LINE
8
hvac
10
316940.0
20
-192860.0
30
0
11
316980.0
21
-192860.0
31
0
0
LINE
8
hvac
10
316940.0
20
-192800.0
30
0
11
316980.0
21
-192800.0
31
0
0
LINE
8
hvac
10
317100.0
20
-192860.0
30
0
11
317100.0
21
-192800.0
31
0
0
LINE
8
hvac
10
317140.0
20
-192860.0
30
0
11
317140.0
21
-192800.0
31
0
0
LINE
8
hvac
10
317100.0
20
-192860.0
30
0
11
317140.0
21
-192860.0
31
0
0
LINE
8
hvac
10
317100.0
20
-192800.0
30
0
11
317140.0
21
-192800.0
31
0
0
LINE
8
hvac
10
317260.0
20
-192860.0
30
0
11
317260.0
21
-192800.0
31
0
0
LINE
8
hvac
10
317300.0
20
-192860.0
30
0
11
317300.0
21
-192800.0
31
0
0
LINE
8
hvac
10
317260.0
20
-192860.0
30
0
11
317300.0
21
-192860.0
31
0
0
LINE
8
hvac
10
317260.0
20
-192800.0
30
0
11
317300.0
21
-192800.0
31
0
0
LINE
8
hvac
10
317420.0
20
-192860.0
30
0
11
317420.0
21
-192800.0
31
0
0
LINE
8
hvac
10
317460.0
20
-192860.0
30
0
11
317460.0
21
-192800.0
31
0
0
LINE
8
hvac
10
317420.0
20
-192860.0
30
0
11
317460.0
21
-192860.0
31
0
0
LINE
8
hvac
10
317420.0
20
-192800.0
30
0
11
317460.0
21
-192800.0
31
0
0
LINE
8
hvac
10
316575.0
20
-192625.0
30
0
11
316575.0
21
-192175.0
31
0
0
LINE
8
hvac
10
317025.0
20
-192625.0
30
0
11
317025.0
21
-192175.0
31
0
0
LINE
8
hvac
10
316575.0
20
-192625.0
30
0
11
317025.0
21
-192625.0
31
0
0
LINE
8
hvac
10
316575.0
20
-192175.0
30
0
11
317025.0
21
-192175.0
31
0
0
LINE
8
hvac
10
319250.0
20
-186175.0
30
0
11
319250.0
21
-185825.0
31
0
0
LINE
8
hvac
10
336750.0
20
-186175.0
30
0
11
336750.0
21
-185825.0
31
0
0
LINE
8
hvac
10
319250.0
20
-186175.0
30
0
11
336750.0
21
-186175.0
31
0
0
LINE
8
hvac
10
319250.0
20
-185825.0
30
0
11
336750.0
21
-185825.0
31
0
0
LINE
8
hvac
10
316625.0
20
-192575.0
30
0
11
316625.0
21
-192225.0
31
0
0
LINE
8
hvac
10
328175.0
20
-192575.0
30
0
11
328175.0
21
-192225.0
31
0
0
LINE
8
hvac
10
316625.0
20
-192575.0
30
0
11
328175.0
21
-192575.0
31
0
0
LINE
8
hvac
10
316625.0
20
-192225.0
30
0
11
328175.0
21
-192225.0
31
0
0
LINE
8
hvac
10
327825.0
20
-192575.0
30
0
11
327825.0
21
-185825.0
31
0
0
LINE
8
hvac
10
328175.0
20
-192575.0
30
0
11
328175.0
21
-185825.0
31
0
0
LINE
8
hvac
10
327825.0
20
-192575.0
30
0
11
328175.0
21
-192575.0
31
0
0
LINE
8
hvac
10
327825.0
20
-185825.0
30
0
11
328175.0
21
-185825.0
31
0
0
LINE
8
hvac
10
322650.0
20
-186350.0
30
0
11
322650.0
21
-185650.0
31
0
0
LINE
8
hvac
10
323350.0
20
-186350.0
30
0
11
323350.0
21
-185650.0
31
0
0
LINE
8
hvac
10
322650.0
20
-186350.0
30
0
11
323350.0
21
-186350.0
31
0
0
LINE
8
hvac
10
322650.0
20
-185650.0
30
0
11
323350.0
21
-185650.0
31
0
0
LINE
8
hvac
10
332650.0
20
-186350.0
30
0
11
332650.0
21
-185650.0
31
0
0
LINE
8
hvac
10
333350.0
20
-186350.0
30
0
11
333350.0
21
-185650.0
31
0
0
LINE
8
hvac
10
332650.0
20
-186350.0
30
0
11
333350.0
21
-186350.0
31
0
0
LINE
8
hvac
10
332650.0
20
-185650.0
30
0
11
333350.0
21
-185650.0
31
0
0
LINE
8
sensors
10
315540.0
20
-190280.0
30
0
11
315540.0
21
-190120.0
31
0
0
LINE
8
sensors
10
315640.0
20
-190280.0
30
0
11
315640.0
21
-190120.0
31
0
0
LINE
8
sensors
10
315540.0
20
-190280.0
30
0
11
315640.0
21
-190280.0
31
0
0
LINE
8
sensors
10
315540.0
20
-190120.0
30
0
11
315640.0
21
-190120.0
31
0
0
LINE
8
sensors
10
315645.0
20
-190255.0
30
0
11
315645.0
21
-190145.0
31
0
0
LINE
8
sensors
10
315665.0
20
-190255.0
30
0
11
315665.0
21
-190145.0
31
0
0
LINE
8
sensors
10
315645.0
20
-190255.0
30
0
11
315665.0
21
-190255.0
31
0
0
LINE
8
sensors
10
315645.0
20
-190145.0
30
0
11
315665.0
21
-190145.0
31
0
0
LINE
8
sensors
10
315540.0
20
-189980.0
30
0
11
315540.0
21
-189820.0
31
0
0
LINE
8
sensors
10
315640.0
20
-189980.0
30
0
11
315640.0
21
-189820.0
31
0
0
LINE
8
sensors
10
315540.0
20
-189980.0
30
0
11
315640.0
21
-189980.0
31
0
0
LINE
8
sensors
10
315540.0
20
-189820.0
30
0
11
315640.0
21
-189820.0
31
0
0
LINE
8
sensors
10
315645.0
20
-189955.0
30
0
11
315645.0
21
-189845.0
31
0
0
LINE
8
sensors
10
315665.0
20
-189955.0
30
0
11
315665.0
21
-189845.0
31
0
0
LINE
8
sensors
10
315645.0
20
-189955.0
30
0
11
315665.0
21
-189955.0
31
0
0
LINE
8
sensors
10
315645.0
20
-189845.0
30
0
11
315665.0
21
-189845.0
31
0
0
LINE
8
sensors
10
315540.0
20
-189680.0
30
0
11
315540.0
21
-189520.0
31
0
0
LINE
8
sensors
10
315640.0
20
-189680.0
30
0
11
315640.0
21
-189520.0
31
0
0
LINE
8
sensors
10
315540.0
20
-189680.0
30
0
11
315640.0
21
-189680.0
31
0
0
LINE
8
sensors
10
315540.0
20
-189520.0
30
0
11
315640.0
21
-189520.0
31
0
0
LINE
8
sensors
10
315645.0
20
-189655.0
30
0
11
315645.0
21
-189545.0
31
0
0
LINE
8
sensors
10
315665.0
20
-189655.0
30
0
11
315665.0
21
-189545.0
31
0
0
LINE
8
sensors
10
315645.0
20
-189655.0
30
0
11
315665.0
21
-189655.0
31
0
0
LINE
8
sensors
10
315645.0
20
-189545.0
30
0
11
315665.0
21
-189545.0
31
0
0
LINE
8
sensors
10
328080.0
20
-186000.0
30
0
11
328000.0
21
-185920.0
31
0
0
LINE
8
sensors
10
328000.0
20
-185920.0
30
0
11
327920.0
21
-186000.0
31
0
0
LINE
8
sensors
10
327920.0
20
-186000.0
30
0
11
328000.0
21
-186080.0
31
0
0
LINE
8
sensors
10
328000.0
20
-186080.0
30
0
11
328080.0
21
-186000.0
31
0
0
LINE
8
sensors
10
328000.0
20
-186000.0
30
0
11
328065.0
21
-186000.0
31
0
0
LINE
8
sensors
10
328065.0
20
-186000.0
30
0
11
328000.0
21
-186000.0
31
0
0
LINE
8
sensors
10
315540.0
20
-189080.0
30
0
11
315540.0
21
-188920.0
31
0
0
LINE
8
sensors
10
315640.0
20
-189080.0
30
0
11
315640.0
21
-188920.0
31
0
0
LINE
8
sensors
10
315540.0
20
-189080.0
30
0
11
315640.0
21
-189080.0
31
0
0
LINE
8
sensors
10
315540.0
20
-188920.0
30
0
11
315640.0
21
-188920.0
31
0
0
LINE
8
sensors
10
315645.0
20
-189055.0
30
0
11
315645.0
21
-188945.0
31
0
0
LINE
8
sensors
10
315665.0
20
-189055.0
30
0
11
315665.0
21
-188945.0
31
0
0
LINE
8
sensors
10
315645.0
20
-189055.0
30
0
11
315665.0
21
-189055.0
31
0
0
LINE
8
sensors
10
315645.0
20
-188945.0
30
0
11
315665.0
21
-188945.0
31
0
0
ENDSEC
0
EOF
