0
SECTION
2
HEADER
9
$ACADVER
1
AC1015
9
$INSUNITS
70
4
0
ENDSEC
0
SECTION
2
ENTITIES
0
LINE
8
interiors
10
230500.0
20
-228000.0
30
0
11
230500.0
21
-208000.0
31
0
0
LINE
8
interiors
10
230500.0
20
-228000.0
30
0
11
256800.0
21
-228000.0
31
0
0
LINE
8
interiors
10
256800.0
20
-228000.0
30
0
11
259200.0
21
-228000.0
31
0
0
LINE
8
interiors
10
259200.0
20
-228000.0
30
0
11
285500.0
21
-228000.0
31
0
0
LINE
8
interiors
10
230500.0
20
-228000.0
30
0
11
285500.0
21
-228000.0
31
0
0
LINE
8
interiors
10
230500.0
20
-208000.0
30
0
11
285500.0
21
-208000.0
31
0
0
LINE
8
interiors
10
285500.0
20
-228000.0
30
0
11
285500.0
21
-208000.0
31
0
0
LINE
8
interiors
10
285380.0
20
-227880.0
30
0
11
230620.0
21
-227880.0
31
0
0
LINE
8
interiors
10
285380.0
20
-227880.0
30
0
11
285380.0
21
-208120.0
31
0
0
LINE
8
interiors
10
285380.0
20
-208120.0
30
0
11
230620.0
21
-208120.0
31
0
0
LINE
8
interiors
10
230620.0
20
-227880.0
30
0
11
230620.0
21
-208120.0
31
0
0
LINE
8
interiors
10
243700.0
20
-208000.0
30
0
11
272300.0
21
-208000.0
31
0
0
LINE
8
interiors
10
259200.0
20
-228000.0
30
0
11
259200.0
21
-227880.0
31
0
0
LINE
8
interiors
10
285380.0
20
-227880.0
30
0
11
259200.0
21
-227880.0
31
0
0
LINE
8
interiors
10
256800.0
20
-227880.0
30
0
11
230620.0
21
-227880.0
31
0
0
LINE
8
interiors
10
256800.0
20
-228000.0
30
0
11
256800.0
21
-227880.0
31
0
0
LINE
8
interiors
10
256800.0
20
-227880.0
30
0
11
259200.0
21
-227880.0
31
0
0
LINE
8
interiors
10
243700.0
20
-208120.0
30
0
11
272300.0
21
-208120.0
31
0
0
LINE
8
interiors
10
243700.0
20
-208120.0
30
0
11
243700.0
21
-208000.0
31
0
0
LINE
8
interiors
10
272300.0
20
-208120.0
30
0
11
272300.0
21
-208000.0
31
0
0
LINE
8
interiors
10
243700.0
20
-208022.5
30
0
11
243700.0
21
-207977.5
31
0
0
LINE
8
interiors
10
272300.0
20
-208022.5
30
0
11
272300.0
21
-207977.5
31
0
0
LINE
8
interiors
10
243700.0
20
-208022.5
30
0
11
272300.0
21
-208022.5
31
0
0
LINE
8
interiors
10
243700.0
20
-207977.5
30
0
11
272300.0
21
-207977.5
31
0
0
LINE
8
interiors
10
230625.0
20
-227875.0
30
0
11
230625.0
21
-208125.0
31
0
0
LINE
8
interiors
10
285375.0
20
-227875.0
30
0
11
285375.0
21
-208125.0
31
0
0
LINE
8
interiors
10
230625.0
20
-227875.0
30
0
11
285375.0
21
-227875.0
31
0
0
LINE
8
interiors
10
230625.0
20
-208125.0
30
0
11
285375.0
21
-208125.0
31
0
0
LINE
8
interiors
10
256845.0
20
-228120.0
30
0
11
256845.0
21
-227880.0
31
0
0
LINE
8
interiors
10
256915.0
20
-228120.0
30
0
11
256915.0
21
-227880.0
31
0
0
LINE
8
interiors
10
256845.0
20
-228120.0
30
0
11
256915.0
21
-228120.0
31
0
0
LINE
8
interiors
10
256845.0
20
-227880.0
30
0
11
256915.0
21
-227880.0
31
0
0
LINE
8
interiors
10
259085.0
20
-228120.0
30
0
11
259085.0
21
-227880.0
31
0
0
LINE
8
interiors
10
259155.0
20
-228120.0
30
0
11
259155.0
21
-227880.0
31
0
0
LINE
8
interiors
10
259085.0
20
-228120.0
30
0
11
259155.0
21
-228120.0
31
0
0
LINE
8
interiors
10
259085.0
20
-227880.0
30
0
11
259155.0
21
-227880.0
31
0
0
LINE
8
interiors
10
256850.0
20
-228120.0
30
0
11
256850.0
21
-227880.0
31
0
0
LINE
8
interiors
10
259150.0
20
-228120.0
30
0
11
259150.0
21
-227880.0
31
0
0
LINE
8
interiors
10
256850.0
20
-228120.0
30
0
11
259150.0
21
-228120.0
31
0
0
LINE
8
interiors
10
256850.0
20
-227880.0
30
0
11
259150.0
21
-227880.0
31
0
0
LINE
8
interiors
10
256930.39
20
-227909.51
30
0
11
256889.61
21
-227890.49
31
0
0
LINE
8
interiors
10
257386.82
20
-226930.7
30
0
11
257346.04
21
-226911.68
31
0
0
LINE
8
interiors
10
256930.39
20
-227909.51
30
0
11
257386.82
21
-226930.7
31
0
0
LINE
8
interiors
10
256889.61
20
-227890.49
30
0
11
257346.04
21
-226911.68
31
0
0
LINE
8
interiors
10
242100.0
20
-213350.0
30
0
11
242100.0
21
-212650.0
31
0
0
LINE
8
interiors
10
243100.0
20
-213350.0
30
0
11
243100.0
21
-212650.0
31
0
0
LINE
8
interiors
10
242100.0
20
-213350.0
30
0
11
243100.0
21
-213350.0
31
0
0
LINE
8
interiors
10
242100.0
20
-212650.0
30
0
11
243100.0
21
-212650.0
31
0
0
LINE
8
interiors
10
242300.0
20
-213430.0
30
0
11
242300.0
21
-213370.0
31
0
0
LINE
8
interiors
10
242900.0
20
-213430.0
30
0
11
242900.0
21
-213370.0
31
0
0
LINE
8
interiors
10
242300.0
20
-213430.0
30
0
11
242900.0
21
-213430.0
31
0
0
LINE
8
interiors
10
242300.0
20
-213370.0
30
0
11
242900.0
21
-213370.0
31
0
0
LINE
8
interiors
10
242570.0
20
-213435.0
30
0
11
242570.0
21
-213365.0
31
0
0
LINE
8
interiors
10
242630.0
20
-213435.0
30
0
11
242630.0
21
-213365.0
31
0
0
LINE
8
interiors
10
242570.0
20
-213435.0
30
0
11
242630.0
21
-213435.0
31
0
0
LINE
8
interiors
10
242570.0
20
-213365.0
30
0
11
242630.0
21
-213365.0
31
0
0
LINE
8
interiors
10
242450.0
20
-213510.0
30
0
11
242450.0
21
-213290.0
31
0
0
LINE
8
interiors
10
242750.0
20
-213510.0
30
0
11
242750.0
21
-213290.0
31
0
0
LINE
8
interiors
10
242450.0
20
-213510.0
30
0
11
242750.0
21
-213510.0
31
0
0
LINE
8
interiors
10
242450.0
20
-213290.0
30
0
11
242750.0
21
-213290.0
31
0
0
LINE
8
electrical
10
284775.0
20
-227925.0
30
0
11
284775.0
21
-227675.0
31
0
0
LINE
8
electrical
10
285325.0
20
-227925.0
30
0
11
285325.0
21
-227675.0
31
0
0
LINE
8
electrical
10
284775.0
20
-227925.0
30
0
11
285325.0
21
-227925.0
31
0
0
LINE
8
electrical
10
284775.0
20
-227675.0
30
0
11
285325.0
21
-227675.0
31
0
0
LINE
8
electrical
10
284815.0
20
-227952.5
30
0
11
284815.0
21
-227917.5
31
0
0
LINE
8
electrical
10
285285.0
20
-227952.5
30
0
11
285285.0
21
-227917.5
31
0
0
LINE
8
electrical
10
284815.0
20
-227952.5
30
0
11
285285.0
21
-227952.5
31
0
0
LINE
8
electrical
10
284815.0
20
-227917.5
30
0
11
285285.0
21
-227917.5
31
0
0
LINE
8
electrical
10
284862.5
20
-227990.0
30
0
11
284862.5
21
-227950.0
31
0
0
LINE
8
electrical
10
284962.5
20
-227990.0
30
0
11
284962.5
21
-227950.0
31
0
0
LINE
8
electrical
10
284862.5
20
-227990.0
30
0
11
284962.5
21
-227990.0
31
0
0
LINE
8
electrical
10
284862.5
20
-227950.0
30
0
11
284962.5
21
-227950.0
31
0
0
LINE
8
electrical
10
285000.0
20
-227990.0
30
0
11
285000.0
21
-227950.0
31
0
0
LINE
8
electrical
10
285100.0
20
-227990.0
30
0
11
285100.0
21
-227950.0
31
0
0
LINE
8
electrical
10
285000.0
20
-227990.0
30
0
11
285100.0
21
-227990.0
31
0
0
LINE
8
electrical
10
285000.0
20
-227950.0
30
0
11
285100.0
21
-227950.0
31
0
0
LINE
8
electrical
10
285137.5
20
-227990.0
30
0
11
285137.5
21
-227950.0
31
0
0
LINE
8
electrical
10
285237.5
20
-227990.0
30
0
11
285237.5
21
-227950.0
31
0
0
LINE
8
electrical
10
285137.5
20
-227990.0
30
0
11
285237.5
21
-227990.0
31
0
0
LINE
8
electrical
10
285137.5
20
-227950.0
30
0
11
285237.5
21
-227950.0
31
0
0
LINE
8
electrical
10
284912.5
20
-228005.0
30
0
11
284935.88
21
-228005.0
31
0
0
LINE
8
electrical
10
284935.88
20
-228005.0
30
0
11
284889.12
21
-228005.0
31
0
0
LINE
8
electrical
10
284889.12
20
-228005.0
30
0
11
284912.5
21
-228005.0
31
0
0
LINE
8
electrical
10
284912.5
20
-227980.0
30
0
11
284912.5
21
-228005.0
31
0
0
LINE
8
electrical
10
284912.5
20
-227980.0
30
0
11
284935.88
21
-227980.0
31
0
0
LINE
8
electrical
10
284935.88
20
-227980.0
30
0
11
284889.12
21
-227980.0
31
0
0
LINE
8
electrical
10
284889.12
20
-227980.0
30
0
11
284912.5
21
-227980.0
31
0
0
LINE
8
electrical
10
285050.0
20
-228005.0
30
0
11
285073.38
21
-228005.0
31
0
0
LINE
8
electrical
10
285073.38
20
-228005.0
30
0
11
285026.62
21
-228005.0
31
0
0
LINE
8
electrical
10
285026.62
20
-228005.0
30
0
11
285050.0
21
-228005.0
31
0
0
LINE
8
electrical
10
285050.0
20
-227980.0
30
0
11
285050.0
21
-228005.0
31
0
0
LINE
8
electrical
10
285050.0
20
-227980.0
30
0
11
285073.38
21
-227980.0
31
0
0
LINE
8
electrical
10
285073.38
20
-227980.0
30
0
11
285026.62
21
-227980.0
31
0
0
LINE
8
electrical
10
285026.62
20
-227980.0
30
0
11
285050.0
21
-227980.0
31
0
0
LINE
8
electrical
10
285187.5
20
-228005.0
30
0
11
285210.88
21
-228005.0
31
0
0
LINE
8
electrical
10
285210.88
20
-228005.0
30
0
11
285164.12
21
-228005.0
31
0
0
LINE
8
electrical
10
285164.12
20
-228005.0
30
0
11
285187.5
21
-228005.0
31
0
0
LINE
8
electrical
10
285187.5
20
-227980.0
30
0
11
285187.5
21
-228005.0
31
0
0
LINE
8
electrical
10
285187.5
20
-227980.0
30
0
11
285210.88
21
-227980.0
31
0
0
LINE
8
electrical
10
285210.88
20
-227980.0
30
0
11
285164.12
21
-227980.0
31
0
0
LINE
8
electrical
10
285164.12
20
-227980.0
30
0
11
285187.5
21
-227980.0
31
0
0
LINE
8
electrical
10
285050.0
20
-227800.0
30
0
11
285065.59
21
-227800.0
31
0
0
LINE
8
electrical
10
285065.59
20
-227800.0
30
0
11
285034.41
21
-227800.0
31
0
0
LINE
8
electrical
10
285034.41
20
-227800.0
30
0
11
285050.0
21
-227800.0
31
0
0
LINE
8
electrical
10
285050.0
20
-226300.0
30
0
11
285050.0
21
-227800.0
31
0
0
LINE
8
electrical
10
285050.0
20
-226300.0
30
0
11
285065.59
21
-226300.0
31
0
0
LINE
8
electrical
10
285065.59
20
-226300.0
30
0
11
285034.41
21
-226300.0
31
0
0
LINE
8
electrical
10
285034.41
20
-226300.0
30
0
11
285050.0
21
-226300.0
31
0
0
LINE
8
electrical
10
285032.0
20
-227800.0
30
0
11
285059.0
21
-227784.41
31
0
0
LINE
8
electrical
10
285059.0
20
-227784.41
30
0
11
285059.0
21
-227815.59
31
0
0
LINE
8
electrical
10
285059.0
20
-227815.59
30
0
11
285032.0
21
-227800.0
31
0
0
LINE
8
electrical
10
285050.0
20
-227800.0
30
0
11
285069.44
21
-227800.0
31
0
0
LINE
8
electrical
10
285069.44
20
-227800.0
30
0
11
285050.0
21
-227800.0
31
0
0
LINE
8
lighting
10
237880.0
20
-225120.0
30
0
11
237880.0
21
-224480.0
31
0
0
LINE
8
lighting
10
238520.0
20
-225120.0
30
0
11
238520.0
21
-224480.0
31
0
0
LINE
8
lighting
10
237880.0
20
-225120.0
30
0
11
238520.0
21
-225120.0
31
0
0
LINE
8
lighting
10
237880.0
20
-224480.0
30
0
11
238520.0
21
-224480.0
31
0
0
LINE
8
lighting
10
237920.0
20
-225080.0
30
0
11
237920.0
21
-224520.0
31
0
0
LINE
8
lighting
10
238480.0
20
-225080.0
30
0
11
238480.0
21
-224520.0
31
0
0
LINE
8
lighting
10
237920.0
20
-225080.0
30
0
11
238480.0
21
-225080.0
31
0
0
LINE
8
lighting
10
237920.0
20
-224520.0
30
0
11
238480.0
21
-224520.0
31
0
0
LINE
8
lighting
10
237954.0
20
-225070.0
30
0
11
237954.0
21
-224530.0
31
0
0
LINE
8
lighting
10
237966.0
20
-225070.0
30
0
11
237966.0
21
-224530.0
31
0
0
LINE
8
lighting
10
237954.0
20
-225070.0
30
0
11
237966.0
21
-225070.0
31
0
0
LINE
8
lighting
10
237954.0
20
-224530.0
30
0
11
237966.0
21
-224530.0
31
0
0
LINE
8
lighting
10
238034.0
20
-225070.0
30
0
11
238034.0
21
-224530.0
31
0
0
LINE
8
lighting
10
238046.0
20
-225070.0
30
0
11
238046.0
21
-224530.0
31
0
0
LINE
8
lighting
10
238034.0
20
-225070.0
30
0
11
238046.0
21
-225070.0
31
0
0
LINE
8
lighting
10
238034.0
20
-224530.0
30
0
11
238046.0
21
-224530.0
31
0
0
LINE
8
lighting
10
238114.0
20
-225070.0
30
0
11
238114.0
21
-224530.0
31
0
0
LINE
8
lighting
10
238126.0
20
-225070.0
30
0
11
238126.0
21
-224530.0
31
0
0
LINE
8
lighting
10
238114.0
20
-225070.0
30
0
11
238126.0
21
-225070.0
31
0
0
LINE
8
lighting
10
238114.0
20
-224530.0
30
0
11
238126.0
21
-224530.0
31
0
0
LINE
8
lighting
10
238194.0
20
-225070.0
30
0
11
238194.0
21
-224530.0
31
0
0
LINE
8
lighting
10
238206.0
20
-225070.0
30
0
11
238206.0
21
-224530.0
31
0
0
LINE
8
lighting
10
238194.0
20
-225070.0
30
0
11
238206.0
21
-225070.0
31
0
0
LINE
8
lighting
10
238194.0
20
-224530.0
30
0
11
238206.0
21
-224530.0
31
0
0
LINE
8
lighting
10
238274.0
20
-225070.0
30
0
11
238274.0
21
-224530.0
31
0
0
LINE
8
lighting
10
238286.0
20
-225070.0
30
0
11
238286.0
21
-224530.0
31
0
0
LINE
8
lighting
10
238274.0
20
-225070.0
30
0
11
238286.0
21
-225070.0
31
0
0
LINE
8
lighting
10
238274.0
20
-224530.0
30
0
11
238286.0
21
-224530.0
31
0
0
LINE
8
lighting
10
238354.0
20
-225070.0
30
0
11
238354.0
21
-224530.0
31
0
0
LINE
8
lighting
10
238366.0
20
-225070.0
30
0
11
238366.0
21
-224530.0
31
0
0
LINE
8
lighting
10
238354.0
20
-225070.0
30
0
11
238366.0
21
-225070.0
31
0
0
LINE
8
lighting
10
238354.0
20
-224530.0
30
0
11
238366.0
21
-224530.0
31
0
0
LINE
8
lighting
10
238434.0
20
-225070.0
30
0
11
238434.0
21
-224530.0
31
0
0
LINE
8
lighting
10
238446.0
20
-225070.0
30
0
11
238446.0
21
-224530.0
31
0
0
LINE
8
lighting
10
238434.0
20
-225070.0
30
0
11
238446.0
21
-225070.0
31
0
0
LINE
8
lighting
10
238434.0
20
-224530.0
30
0
11
238446.0
21
-224530.0
31
0
0
LINE
8
lighting
10
238209.0
20
-224800.0
30
0
11
238195.5
21
-224792.21
31
0
0
LINE
8
lighting
10
238195.5
20
-224792.21
30
0
11
238195.5
21
-224807.79
31
0
0
LINE
8
lighting
10
238195.5
20
-224807.79
30
0
11
238209.0
21
-224800.0
31
0
0
LINE
8
lighting
10
257680.0
20
-225120.0
30
0
11
257680.0
21
-224480.0
31
0
0
LINE
8
lighting
10
258320.0
20
-225120.0
30
0
11
258320.0
21
-224480.0
31
0
0
LINE
8
lighting
10
257680.0
20
-225120.0
30
0
11
258320.0
21
-225120.0
31
0
0
LINE
8
lighting
10
257680.0
20
-224480.0
30
0
11
258320.0
21
-224480.0
31
0
0
LINE
8
lighting
10
257720.0
20
-225080.0
30
0
11
257720.0
21
-224520.0
31
0
0
LINE
8
lighting
10
258280.0
20
-225080.0
30
0
11
258280.0
21
-224520.0
31
0
0
LINE
8
lighting
10
257720.0
20
-225080.0
30
0
11
258280.0
21
-225080.0
31
0
0
LINE
8
lighting
10
257720.0
20
-224520.0
30
0
11
258280.0
21
-224520.0
31
0
0
LINE
8
lighting
10
257754.0
20
-225070.0
30
0
11
257754.0
21
-224530.0
31
0
0
LINE
8
lighting
10
257766.0
20
-225070.0
30
0
11
257766.0
21
-224530.0
31
0
0
LINE
8
lighting
10
257754.0
20
-225070.0
30
0
11
257766.0
21
-225070.0
31
0
0
LINE
8
lighting
10
257754.0
20
-224530.0
30
0
11
257766.0
21
-224530.0
31
0
0
LINE
8
lighting
10
257834.0
20
-225070.0
30
0
11
257834.0
21
-224530.0
31
0
0
LINE
8
lighting
10
257846.0
20
-225070.0
30
0
11
257846.0
21
-224530.0
31
0
0
LINE
8
lighting
10
257834.0
20
-225070.0
30
0
11
257846.0
21
-225070.0
31
0
0
LINE
8
lighting
10
257834.0
20
-224530.0
30
0
11
257846.0
21
-224530.0
31
0
0
LINE
8
lighting
10
257914.0
20
-225070.0
30
0
11
257914.0
21
-224530.0
31
0
0
LINE
8
lighting
10
257926.0
20
-225070.0
30
0
11
257926.0
21
-224530.0
31
0
0
LINE
8
lighting
10
257914.0
20
-225070.0
30
0
11
257926.0
21
-225070.0
31
0
0
LINE
8
lighting
10
257914.0
20
-224530.0
30
0
11
257926.0
21
-224530.0
31
0
0
LINE
8
lighting
10
257994.0
20
-225070.0
30
0
11
257994.0
21
-224530.0
31
0
0
LINE
8
lighting
10
258006.0
20
-225070.0
30
0
11
258006.0
21
-224530.0
31
0
0
LINE
8
lighting
10
257994.0
20
-225070.0
30
0
11
258006.0
21
-225070.0
31
0
0
LINE
8
lighting
10
257994.0
20
-224530.0
30
0
11
258006.0
21
-224530.0
31
0
0
LINE
8
lighting
10
258074.0
20
-225070.0
30
0
11
258074.0
21
-224530.0
31
0
0
LINE
8
lighting
10
258086.0
20
-225070.0
30
0
11
258086.0
21
-224530.0
31
0
0
LINE
8
lighting
10
258074.0
20
-225070.0
30
0
11
258086.0
21
-225070.0
31
0
0
LINE
8
lighting
10
258074.0
20
-224530.0
30
0
11
258086.0
21
-224530.0
31
0
0
LINE
8
lighting
10
258154.0
20
-225070.0
30
0
11
258154.0
21
-224530.0
31
0
0
LINE
8
lighting
10
258166.0
20
-225070.0
30
0
11
258166.0
21
-224530.0
31
0
0
LINE
8
lighting
10
258154.0
20
-225070.0
30
0
11
258166.0
21
-225070.0
31
0
0
LINE
8
lighting
10
258154.0
20
-224530.0
30
0
11
258166.0
21
-224530.0
31
0
0
LINE
8
lighting
10
258234.0
20
-225070.0
30
0
11
258234.0
21
-224530.0
31
0
0
LINE
8
lighting
10
258246.0
20
-225070.0
30
0
11
258246.0
21
-224530.0
31
0
0
LINE
8
lighting
10
258234.0
20
-225070.0
30
0
11
258246.0
21
-225070.0
31
0
0
LINE
8
lighting
10
258234.0
20
-224530.0
30
0
11
258246.0
21
-224530.0
31
0
0
LINE
8
lighting
10
258009.0
20
-224800.0
30
0
11
257995.5
21
-224792.21
31
0
0
LINE
8
lighting
10
257995.5
20
-224792.21
30
0
11
257995.5
21
-224807.79
31
0
0
LINE
8
lighting
10
257995.5
20
-224807.79
30
0
11
258009.0
21
-224800.0
31
0
0
LINE
8
lighting
10
277480.0
20
-225120.0
30
0
11
277480.0
21
-224480.0
31
0
0
LINE
8
lighting
10
278120.0
20
-225120.0
30
0
11
278120.0
21
-224480.0
31
0
0
LINE
8
lighting
10
277480.0
20
-225120.0
30
0
11
278120.0
21
-225120.0
31
0
0
LINE
8
lighting
10
277480.0
20
-224480.0
30
0
11
278120.0
21
-224480.0
31
0
0
LINE
8
lighting
10
277520.0
20
-225080.0
30
0
11
277520.0
21
-224520.0
31
0
0
LINE
8
lighting
10
278080.0
20
-225080.0
30
0
11
278080.0
21
-224520.0
31
0
0
LINE
8
lighting
10
277520.0
20
-225080.0
30
0
11
278080.0
21
-225080.0
31
0
0
LINE
8
lighting
10
277520.0
20
-224520.0
30
0
11
278080.0
21
-224520.0
31
0
0
LINE
8
lighting
10
277554.0
20
-225070.0
30
0
11
277554.0
21
-224530.0
31
0
0
LINE
8
lighting
10
277566.0
20
-225070.0
30
0
11
277566.0
21
-224530.0
31
0
0
LINE
8
lighting
10
277554.0
20
-225070.0
30
0
11
277566.0
21
-225070.0
31
0
0
LINE
8
lighting
10
277554.0
20
-224530.0
30
0
11
277566.0
21
-224530.0
31
0
0
LINE
8
lighting
10
277634.0
20
-225070.0
30
0
11
277634.0
21
-224530.0
31
0
0
LINE
8
lighting
10
277646.0
20
-225070.0
30
0
11
277646.0
21
-224530.0
31
0
0
LINE
8
lighting
10
277634.0
20
-225070.0
30
0
11
277646.0
21
-225070.0
31
0
0
LINE
8
lighting
10
277634.0
20
-224530.0
30
0
11
277646.0
21
-224530.0
31
0
0
LINE
8
lighting
10
277714.0
20
-225070.0
30
0
11
277714.0
21
-224530.0
31
0
0
LINE
8
lighting
10
277726.0
20
-225070.0
30
0
11
277726.0
21
-224530.0
31
0
0
LINE
8
lighting
10
277714.0
20
-225070.0
30
0
11
277726.0
21
-225070.0
31
0
0
LINE
8
lighting
10
277714.0
20
-224530.0
30
0
11
277726.0
21
-224530.0
31
0
0
LINE
8
lighting
10
277794.0
20
-225070.0
30
0
11
277794.0
21
-224530.0
31
0
0
LINE
8
lighting
10
277806.0
20
-225070.0
30
0
11
277806.0
21
-224530.0
31
0
0
LINE
8
lighting
10
277794.0
20
-225070.0
30
0
11
277806.0
21
-225070.0
31
0
0
LINE
8
lighting
10
277794.0
20
-224530.0
30
0
11
277806.0
21
-224530.0
31
0
0
LINE
8
lighting
10
277874.0
20
-225070.0
30
0
11
277874.0
21
-224530.0
31
0
0
LINE
8
lighting
10
277886.0
20
-225070.0
30
0
11
277886.0
21
-224530.0
31
0
0
LINE
8
lighting
10
277874.0
20
-225070.0
30
0
11
277886.0
21
-225070.0
31
0
0
LINE
8
lighting
10
277874.0
20
-224530.0
30
0
11
277886.0
21
-224530.0
31
0
0
LINE
8
lighting
10
277954.0
20
-225070.0
30
0
11
277954.0
21
-224530.0
31
0
0
LINE
8
lighting
10
277966.0
20
-225070.0
30
0
11
277966.0
21
-224530.0
31
0
0
LINE
8
lighting
10
277954.0
20
-225070.0
30
0
11
277966.0
21
-225070.0
31
0
0
LINE
8
lighting
10
277954.0
20
-224530.0
30
0
11
277966.0
21
-224530.0
31
0
0
LINE
8
lighting
10
278034.0
20
-225070.0
30
0
11
278034.0
21
-224530.0
31
0
0
LINE
8
lighting
10
278046.0
20
-225070.0
30
0
11
278046.0
21
-224530.0
31
0
0
LINE
8
lighting
10
278034.0
20
-225070.0
30
0
11
278046.0
21
-225070.0
31
0
0
LINE
8
lighting
10
278034.0
20
-224530.0
30
0
11
278046.0
21
-224530.0
31
0
0
LINE
8
lighting
10
277809.0
20
-224800.0
30
0
11
277795.5
21
-224792.21
31
0
0
LINE
8
lighting
10
277795.5
20
-224792.21
30
0
11
277795.5
21
-224807.79
31
0
0
LINE
8
lighting
10
277795.5
20
-224807.79
30
0
11
277809.0
21
-224800.0
31
0
0
LINE
8
lighting
10
247780.0
20
-225120.0
30
0
11
247780.0
21
-224480.0
31
0
0
LINE
8
lighting
10
248420.0
20
-225120.0
30
0
11
248420.0
21
-224480.0
31
0
0
LINE
8
lighting
10
247780.0
20
-225120.0
30
0
11
248420.0
21
-225120.0
31
0
0
LINE
8
lighting
10
247780.0
20
-224480.0
30
0
11
248420.0
21
-224480.0
31
0
0
LINE
8
lighting
10
247820.0
20
-225080.0
30
0
11
247820.0
21
-224520.0
31
0
0
LINE
8
lighting
10
248380.0
20
-225080.0
30
0
11
248380.0
21
-224520.0
31
0
0
LINE
8
lighting
10
247820.0
20
-225080.0
30
0
11
248380.0
21
-225080.0
31
0
0
LINE
8
lighting
10
247820.0
20
-224520.0
30
0
11
248380.0
21
-224520.0
31
0
0
LINE
8
lighting
10
247854.0
20
-225070.0
30
0
11
247854.0
21
-224530.0
31
0
0
LINE
8
lighting
10
247866.0
20
-225070.0
30
0
11
247866.0
21
-224530.0
31
0
0
LINE
8
lighting
10
247854.0
20
-225070.0
30
0
11
247866.0
21
-225070.0
31
0
0
LINE
8
lighting
10
247854.0
20
-224530.0
30
0
11
247866.0
21
-224530.0
31
0
0
LINE
8
lighting
10
247934.0
20
-225070.0
30
0
11
247934.0
21
-224530.0
31
0
0
LINE
8
lighting
10
247946.0
20
-225070.0
30
0
11
247946.0
21
-224530.0
31
0
0
LINE
8
lighting
10
247934.0
20
-225070.0
30
0
11
247946.0
21
-225070.0
31
0
0
LINE
8
lighting
10
247934.0
20
-224530.0
30
0
11
247946.0
21
-224530.0
31
0
0
LINE
8
lighting
10
248014.0
20
-225070.0
30
0
11
248014.0
21
-224530.0
31
0
0
LINE
8
lighting
10
248026.0
20
-225070.0
30
0
11
248026.0
21
-224530.0
31
0
0
LINE
8
lighting
10
248014.0
20
-225070.0
30
0
11
248026.0
21
-225070.0
31
0
0
LINE
8
lighting
10
248014.0
20
-224530.0
30
0
11
248026.0
21
-224530.0
31
0
0
LINE
8
lighting
10
248094.0
20
-225070.0
30
0
11
248094.0
21
-224530.0
31
0
0
LINE
8
lighting
10
248106.0
20
-225070.0
30
0
11
248106.0
21
-224530.0
31
0
0
LINE
8
lighting
10
248094.0
20
-225070.0
30
0
11
248106.0
21
-225070.0
31
0
0
LINE
8
lighting
10
248094.0
20
-224530.0
30
0
11
248106.0
21
-224530.0
31
0
0
LINE
8
lighting
10
248174.0
20
-225070.0
30
0
11
248174.0
21
-224530.0
31
0
0
LINE
8
lighting
10
248186.0
20
-225070.0
30
0
11
248186.0
21
-224530.0
31
0
0
LINE
8
lighting
10
248174.0
20
-225070.0
30
0
11
248186.0
21
-225070.0
31
0
0
LINE
8
lighting
10
248174.0
20
-224530.0
30
0
11
248186.0
21
-224530.0
31
0
0
LINE
8
lighting
10
248254.0
20
-225070.0
30
0
11
248254.0
21
-224530.0
31
0
0
LINE
8
lighting
10
248266.0
20
-225070.0
30
0
11
248266.0
21
-224530.0
31
0
0
LINE
8
lighting
10
248254.0
20
-225070.0
30
0
11
248266.0
21
-225070.0
31
0
0
LINE
8
lighting
10
248254.0
20
-224530.0
30
0
11
248266.0
21
-224530.0
31
0
0
LINE
8
lighting
10
248334.0
20
-225070.0
30
0
11
248334.0
21
-224530.0
31
0
0
LINE
8
lighting
10
248346.0
20
-225070.0
30
0
11
248346.0
21
-224530.0
31
0
0
LINE
8
lighting
10
248334.0
20
-225070.0
30
0
11
248346.0
21
-225070.0
31
0
0
LINE
8
lighting
10
248334.0
20
-224530.0
30
0
11
248346.0
21
-224530.0
31
0
0
LINE
8
lighting
10
248109.0
20
-224800.0
30
0
11
248095.5
21
-224792.21
31
0
0
LINE
8
lighting
10
248095.5
20
-224792.21
30
0
11
248095.5
21
-224807.79
31
0
0
LINE
8
lighting
10
248095.5
20
-224807.79
30
0
11
248109.0
21
-224800.0
31
0
0
LINE
8
lighting
10
267580.0
20
-225120.0
30
0
11
267580.0
21
-224480.0
31
0
0
LINE
8
lighting
10
268220.0
20
-225120.0
30
0
11
268220.0
21
-224480.0
31
0
0
LINE
8
lighting
10
267580.0
20
-225120.0
30
0
11
268220.0
21
-225120.0
31
0
0
LINE
8
lighting
10
267580.0
20
-224480.0
30
0
11
268220.0
21
-224480.0
31
0
0
LINE
8
lighting
10
267620.0
20
-225080.0
30
0
11
267620.0
21
-224520.0
31
0
0
LINE
8
lighting
10
268180.0
20
-225080.0
30
0
11
268180.0
21
-224520.0
31
0
0
LINE
8
lighting
10
267620.0
20
-225080.0
30
0
11
268180.0
21
-225080.0
31
0
0
LINE
8
lighting
10
267620.0
20
-224520.0
30
0
11
268180.0
21
-224520.0
31
0
0
LINE
8
lighting
10
267654.0
20
-225070.0
30
0
11
267654.0
21
-224530.0
31
0
0
LINE
8
lighting
10
267666.0
20
-225070.0
30
0
11
267666.0
21
-224530.0
31
0
0
LINE
8
lighting
10
267654.0
20
-225070.0
30
0
11
267666.0
21
-225070.0
31
0
0
LINE
8
lighting
10
267654.0
20
-224530.0
30
0
11
267666.0
21
-224530.0
31
0
0
LINE
8
lighting
10
267734.0
20
-225070.0
30
0
11
267734.0
21
-224530.0
31
0
0
LINE
8
lighting
10
267746.0
20
-225070.0
30
0
11
267746.0
21
-224530.0
31
0
0
LINE
8
lighting
10
267734.0
20
-225070.0
30
0
11
267746.0
21
-225070.0
31
0
0
LINE
8
lighting
10
267734.0
20
-224530.0
30
0
11
267746.0
21
-224530.0
31
0
0
LINE
8
lighting
10
267814.0
20
-225070.0
30
0
11
267814.0
21
-224530.0
31
0
0
LINE
8
lighting
10
267826.0
20
-225070.0
30
0
11
267826.0
21
-224530.0
31
0
0
LINE
8
lighting
10
267814.0
20
-225070.0
30
0
11
267826.0
21
-225070.0
31
0
0
LINE
8
lighting
10
267814.0
20
-224530.0
30
0
11
267826.0
21
-224530.0
31
0
0
LINE
8
lighting
10
267894.0
20
-225070.0
30
0
11
267894.0
21
-224530.0
31
0
0
LINE
8
lighting
10
267906.0
20
-225070.0
30
0
11
267906.0
21
-224530.0
31
0
0
LINE
8
lighting
10
267894.0
20
-225070.0
30
0
11
267906.0
21
-225070.0
31
0
0
LINE
8
lighting
10
267894.0
20
-224530.0
30
0
11
267906.0
21
-224530.0
31
0
0
LINE
8
lighting
10
267974.0
20
-225070.0
30
0
11
267974.0
21
-224530.0
31
0
0
LINE
8
lighting
10
267986.0
20
-225070.0
30
0
11
267986.0
21
-224530.0
31
0
0
LINE
8
lighting
10
267974.0
20
-225070.0
30
0
11
267986.0
21
-225070.0
31
0
0
LINE
8
lighting
10
267974.0
20
-224530.0
30
0
11
267986.0
21
-224530.0
31
0
0
LINE
8
lighting
10
268054.0
20
-225070.0
30
0
11
268054.0
21
-224530.0
31
0
0
LINE
8
lighting
10
268066.0
20
-225070.0
30
0
11
268066.0
21
-224530.0
31
0
0
LINE
8
lighting
10
268054.0
20
-225070.0
30
0
11
268066.0
21
-225070.0
31
0
0
LINE
8
lighting
10
268054.0
20
-224530.0
30
0
11
268066.0
21
-224530.0
31
0
0
LINE
8
lighting
10
268134.0
20
-225070.0
30
0
11
268134.0
21
-224530.0
31
0
0
LINE
8
lighting
10
268146.0
20
-225070.0
30
0
11
268146.0
21
-224530.0
31
0
0
LINE
8
lighting
10
268134.0
20
-225070.0
30
0
11
268146.0
21
-225070.0
31
0
0
LINE
8
lighting
10
268134.0
20
-224530.0
30
0
11
268146.0
21
-224530.0
31
0
0
LINE
8
lighting
10
267909.0
20
-224800.0
30
0
11
267895.5
21
-224792.21
31
0
0
LINE
8
lighting
10
267895.5
20
-224792.21
30
0
11
267895.5
21
-224807.79
31
0
0
LINE
8
lighting
10
267895.5
20
-224807.79
30
0
11
267909.0
21
-224800.0
31
0
0
LINE
8
lighting
10
237880.0
20
-211520.0
30
0
11
237880.0
21
-210880.0
31
0
0
LINE
8
lighting
10
238520.0
20
-211520.0
30
0
11
238520.0
21
-210880.0
31
0
0
LINE
8
lighting
10
237880.0
20
-211520.0
30
0
11
238520.0
21
-211520.0
31
0
0
LINE
8
lighting
10
237880.0
20
-210880.0
30
0
11
238520.0
21
-210880.0
31
0
0
LINE
8
lighting
10
237920.0
20
-211480.0
30
0
11
237920.0
21
-210920.0
31
0
0
LINE
8
lighting
10
238480.0
20
-211480.0
30
0
11
238480.0
21
-210920.0
31
0
0
LINE
8
lighting
10
237920.0
20
-211480.0
30
0
11
238480.0
21
-211480.0
31
0
0
LINE
8
lighting
10
237920.0
20
-210920.0
30
0
11
238480.0
21
-210920.0
31
0
0
LINE
8
lighting
10
237954.0
20
-211470.0
30
0
11
237954.0
21
-210930.0
31
0
0
LINE
8
lighting
10
237966.0
20
-211470.0
30
0
11
237966.0
21
-210930.0
31
0
0
LINE
8
lighting
10
237954.0
20
-211470.0
30
0
11
237966.0
21
-211470.0
31
0
0
LINE
8
lighting
10
237954.0
20
-210930.0
30
0
11
237966.0
21
-210930.0
31
0
0
LINE
8
lighting
10
238034.0
20
-211470.0
30
0
11
238034.0
21
-210930.0
31
0
0
LINE
8
lighting
10
238046.0
20
-211470.0
30
0
11
238046.0
21
-210930.0
31
0
0
LINE
8
lighting
10
238034.0
20
-211470.0
30
0
11
238046.0
21
-211470.0
31
0
0
LINE
8
lighting
10
238034.0
20
-210930.0
30
0
11
238046.0
21
-210930.0
31
0
0
LINE
8
lighting
10
238114.0
20
-211470.0
30
0
11
238114.0
21
-210930.0
31
0
0
LINE
8
lighting
10
238126.0
20
-211470.0
30
0
11
238126.0
21
-210930.0
31
0
0
LINE
8
lighting
10
238114.0
20
-211470.0
30
0
11
238126.0
21
-211470.0
31
0
0
LINE
8
lighting
10
238114.0
20
-210930.0
30
0
11
238126.0
21
-210930.0
31
0
0
LINE
8
lighting
10
238194.0
20
-211470.0
30
0
11
238194.0
21
-210930.0
31
0
0
LINE
8
lighting
10
238206.0
20
-211470.0
30
0
11
238206.0
21
-210930.0
31
0
0
LINE
8
lighting
10
238194.0
20
-211470.0
30
0
11
238206.0
21
-211470.0
31
0
0
LINE
8
lighting
10
238194.0
20
-210930.0
30
0
11
238206.0
21
-210930.0
31
0
0
LINE
8
lighting
10
238274.0
20
-211470.0
30
0
11
238274.0
21
-210930.0
31
0
0
LINE
8
lighting
10
238286.0
20
-211470.0
30
0
11
238286.0
21
-210930.0
31
0
0
LINE
8
lighting
10
238274.0
20
-211470.0
30
0
11
238286.0
21
-211470.0
31
0
0
LINE
8
lighting
10
238274.0
20
-210930.0
30
0
11
238286.0
21
-210930.0
31
0
0
LINE
8
lighting
10
238354.0
20
-211470.0
30
0
11
238354.0
21
-210930.0
31
0
0
LINE
8
lighting
10
238366.0
20
-211470.0
30
0
11
238366.0
21
-210930.0
31
0
0
LINE
8
lighting
10
238354.0
20
-211470.0
30
0
11
238366.0
21
-211470.0
31
0
0
LINE
8
lighting
10
238354.0
20
-210930.0
30
0
11
238366.0
21
-210930.0
31
0
0
LINE
8
lighting
10
238434.0
20
-211470.0
30
0
11
238434.0
21
-210930.0
31
0
0
LINE
8
lighting
10
238446.0
20
-211470.0
30
0
11
238446.0
21
-210930.0
31
0
0
LINE
8
lighting
10
238434.0
20
-211470.0
30
0
11
238446.0
21
-211470.0
31
0
0
LINE
8
lighting
10
238434.0
20
-210930.0
30
0
11
238446.0
21
-210930.0
31
0
0
LINE
8
lighting
10
238209.0
20
-211200.0
30
0
11
238195.5
21
-211192.21
31
0
0
LINE
8
lighting
10
238195.5
20
-211192.21
30
0
11
238195.5
21
-211207.79
31
0
0
LINE
8
lighting
10
238195.5
20
-211207.79
30
0
11
238209.0
21
-211200.0
31
0
0
LINE
8
lighting
10
257680.0
20
-211520.0
30
0
11
257680.0
21
-210880.0
31
0
0
LINE
8
lighting
10
258320.0
20
-211520.0
30
0
11
258320.0
21
-210880.0
31
0
0
LINE
8
lighting
10
257680.0
20
-211520.0
30
0
11
258320.0
21
-211520.0
31
0
0
LINE
8
lighting
10
257680.0
20
-210880.0
30
0
11
258320.0
21
-210880.0
31
0
0
LINE
8
lighting
10
257720.0
20
-211480.0
30
0
11
257720.0
21
-210920.0
31
0
0
LINE
8
lighting
10
258280.0
20
-211480.0
30
0
11
258280.0
21
-210920.0
31
0
0
LINE
8
lighting
10
257720.0
20
-211480.0
30
0
11
258280.0
21
-211480.0
31
0
0
LINE
8
lighting
10
257720.0
20
-210920.0
30
0
11
258280.0
21
-210920.0
31
0
0
LINE
8
lighting
10
257754.0
20
-211470.0
30
0
11
257754.0
21
-210930.0
31
0
0
LINE
8
lighting
10
257766.0
20
-211470.0
30
0
11
257766.0
21
-210930.0
31
0
0
LINE
8
lighting
10
257754.0
20
-211470.0
30
0
11
257766.0
21
-211470.0
31
0
0
LINE
8
lighting
10
257754.0
20
-210930.0
30
0
11
257766.0
21
-210930.0
31
0
0
LINE
8
lighting
10
257834.0
20
-211470.0
30
0
11
257834.0
21
-210930.0
31
0
0
LINE
8
lighting
10
257846.0
20
-211470.0
30
0
11
257846.0
21
-210930.0
31
0
0
LINE
8
lighting
10
257834.0
20
-211470.0
30
0
11
257846.0
21
-211470.0
31
0
0
LINE
8
lighting
10
257834.0
20
-210930.0
30
0
11
257846.0
21
-210930.0
31
0
0
LINE
8
lighting
10
257914.0
20
-211470.0
30
0
11
257914.0
21
-210930.0
31
0
0
LINE
8
lighting
10
257926.0
20
-211470.0
30
0
11
257926.0
21
-210930.0
31
0
0
LINE
8
lighting
10
257914.0
20
-211470.0
30
0
11
257926.0
21
-211470.0
31
0
0
LINE
8
lighting
10
257914.0
20
-210930.0
30
0
11
257926.0
21
-210930.0
31
0
0
LINE
8
lighting
10
257994.0
20
-211470.0
30
0
11
257994.0
21
-210930.0
31
0
0
LINE
8
lighting
10
258006.0
20
-211470.0
30
0
11
258006.0
21
-210930.0
31
0
0
LINE
8
lighting
10
257994.0
20
-211470.0
30
0
11
258006.0
21
-211470.0
31
0
0
LINE
8
lighting
10
257994.0
20
-210930.0
30
0
11
258006.0
21
-210930.0
31
0
0
LINE
8
lighting
10
258074.0
20
-211470.0
30
0
11
258074.0
21
-210930.0
31
0
0
LINE
8
lighting
10
258086.0
20
-211470.0
30
0
11
258086.0
21
-210930.0
31
0
0
LINE
8
lighting
10
258074.0
20
-211470.0
30
0
11
258086.0
21
-211470.0
31
0
0
LINE
8
lighting
10
258074.0
20
-210930.0
30
0
11
258086.0
21
-210930.0
31
0
0
LINE
8
lighting
10
258154.0
20
-211470.0
30
0
11
258154.0
21
-210930.0
31
0
0
LINE
8
lighting
10
258166.0
20
-211470.0
30
0
11
258166.0
21
-210930.0
31
0
0
LINE
8
lighting
10
258154.0
20
-211470.0
30
0
11
258166.0
21
-211470.0
31
0
0
LINE
8
lighting
10
258154.0
20
-210930.0
30
0
11
258166.0
21
-210930.0
31
0
0
LINE
8
lighting
10
258234.0
20
-211470.0
30
0
11
258234.0
21
-210930.0
31
0
0
LINE
8
lighting
10
258246.0
20
-211470.0
30
0
11
258246.0
21
-210930.0
31
0
0
LINE
8
lighting
10
258234.0
20
-211470.0
30
0
11
258246.0
21
-211470.0
31
0
0
LINE
8
lighting
10
258234.0
20
-210930.0
30
0
11
258246.0
21
-210930.0
31
0
0
LINE
8
lighting
10
258009.0
20
-211200.0
30
0
11
257995.5
21
-211192.21
31
0
0
LINE
8
lighting
10
257995.5
20
-211192.21
30
0
11
257995.5
21
-211207.79
31
0
0
LINE
8
lighting
10
257995.5
20
-211207.79
30
0
11
258009.0
21
-211200.0
31
0
0
LINE
8
lighting
10
277480.0
20
-211520.0
30
0
11
277480.0
21
-210880.0
31
0
0
LINE
8
lighting
10
278120.0
20
-211520.0
30
0
11
278120.0
21
-210880.0
31
0
0
LINE
8
lighting
10
277480.0
20
-211520.0
30
0
11
278120.0
21
-211520.0
31
0
0
LINE
8
lighting
10
277480.0
20
-210880.0
30
0
11
278120.0
21
-210880.0
31
0
0
LINE
8
lighting
10
277520.0
20
-211480.0
30
0
11
277520.0
21
-210920.0
31
0
0
LINE
8
lighting
10
278080.0
20
-211480.0
30
0
11
278080.0
21
-210920.0
31
0
0
LINE
8
lighting
10
277520.0
20
-211480.0
30
0
11
278080.0
21
-211480.0
31
0
0
LINE
8
lighting
10
277520.0
20
-210920.0
30
0
11
278080.0
21
-210920.0
31
0
0
LINE
8
lighting
10
277554.0
20
-211470.0
30
0
11
277554.0
21
-210930.0
31
0
0
LINE
8
lighting
10
277566.0
20
-211470.0
30
0
11
277566.0
21
-210930.0
31
0
0
LINE
8
lighting
10
277554.0
20
-211470.0
30
0
11
277566.0
21
-211470.0
31
0
0
LINE
8
lighting
10
277554.0
20
-210930.0
30
0
11
277566.0
21
-210930.0
31
0
0
LINE
8
lighting
10
277634.0
20
-211470.0
30
0
11
277634.0
21
-210930.0
31
0
0
LINE
8
lighting
10
277646.0
20
-211470.0
30
0
11
277646.0
21
-210930.0
31
0
0
LINE
8
lighting
10
277634.0
20
-211470.0
30
0
11
277646.0
21
-211470.0
31
0
0
LINE
8
lighting
10
277634.0
20
-210930.0
30
0
11
277646.0
21
-210930.0
31
0
0
LINE
8
lighting
10
277714.0
20
-211470.0
30
0
11
277714.0
21
-210930.0
31
0
0
LINE
8
lighting
10
277726.0
20
-211470.0
30
0
11
277726.0
21
-210930.0
31
0
0
LINE
8
lighting
10
277714.0
20
-211470.0
30
0
11
277726.0
21
-211470.0
31
0
0
LINE
8
lighting
10
277714.0
20
-210930.0
30
0
11
277726.0
21
-210930.0
31
0
0
LINE
8
lighting
10
277794.0
20
-211470.0
30
0
11
277794.0
21
-210930.0
31
0
0
LINE
8
lighting
10
277806.0
20
-211470.0
30
0
11
277806.0
21
-210930.0
31
0
0
LINE
8
lighting
10
277794.0
20
-211470.0
30
0
11
277806.0
21
-211470.0
31
0
0
LINE
8
lighting
10
277794.0
20
-210930.0
30
0
11
277806.0
21
-210930.0
31
0
0
LINE
8
lighting
10
277874.0
20
-211470.0
30
0
11
277874.0
21
-210930.0
31
0
0
LINE
8
lighting
10
277886.0
20
-211470.0
30
0
11
277886.0
21
-210930.0
31
0
0
LINE
8
lighting
10
277874.0
20
-211470.0
30
0
11
277886.0
21
-211470.0
31
0
0
LINE
8
lighting
10
277874.0
20
-210930.0
30
0
11
277886.0
21
-210930.0
31
0
0
LINE
8
lighting
10
277954.0
20
-211470.0
30
0
11
277954.0
21
-210930.0
31
0
0
LINE
8
lighting
10
277966.0
20
-211470.0
30
0
11
277966.0
21
-210930.0
31
0
0
LINE
8
lighting
10
277954.0
20
-211470.0
30
0
11
277966.0
21
-211470.0
31
0
0
LINE
8
lighting
10
277954.0
20
-210930.0
30
0
11
277966.0
21
-210930.0
31
0
0
LINE
8
lighting
10
278034.0
20
-211470.0
30
0
11
278034.0
21
-210930.0
31
0
0
LINE
8
lighting
10
278046.0
20
-211470.0
30
0
11
278046.0
21
-210930.0
31
0
0
LINE
8
lighting
10
278034.0
20
-211470.0
30
0
11
278046.0
21
-211470.0
31
0
0
LINE
8
lighting
10
278034.0
20
-210930.0
30
0
11
278046.0
21
-210930.0
31
0
0
LINE
8
lighting
10
277809.0
20
-211200.0
30
0
11
277795.5
21
-211192.21
31
0
0
LINE
8
lighting
10
277795.5
20
-211192.21
30
0
11
277795.5
21
-211207.79
31
0
0
LINE
8
lighting
10
277795.5
20
-211207.79
30
0
11
277809.0
21
-211200.0
31
0
0
LINE
8
lighting
10
247780.0
20
-211520.0
30
0
11
247780.0
21
-210880.0
31
0
0
LINE
8
lighting
10
248420.0
20
-211520.0
30
0
11
248420.0
21
-210880.0
31
0
0
LINE
8
lighting
10
247780.0
20
-211520.0
30
0
11
248420.0
21
-211520.0
31
0
0
LINE
8
lighting
10
247780.0
20
-210880.0
30
0
11
248420.0
21
-210880.0
31
0
0
LINE
8
lighting
10
247820.0
20
-211480.0
30
0
11
247820.0
21
-210920.0
31
0
0
LINE
8
lighting
10
248380.0
20
-211480.0
30
0
11
248380.0
21
-210920.0
31
0
0
LINE
8
lighting
10
247820.0
20
-211480.0
30
0
11
248380.0
21
-211480.0
31
0
0
LINE
8
lighting
10
247820.0
20
-210920.0
30
0
11
248380.0
21
-210920.0
31
0
0
LINE
8
lighting
10
247854.0
20
-211470.0
30
0
11
247854.0
21
-210930.0
31
0
0
LINE
8
lighting
10
247866.0
20
-211470.0
30
0
11
247866.0
21
-210930.0
31
0
0
LINE
8
lighting
10
247854.0
20
-211470.0
30
0
11
247866.0
21
-211470.0
31
0
0
LINE
8
lighting
10
247854.0
20
-210930.0
30
0
11
247866.0
21
-210930.0
31
0
0
LINE
8
lighting
10
247934.0
20
-211470.0
30
0
11
247934.0
21
-210930.0
31
0
0
LINE
8
lighting
10
247946.0
20
-211470.0
30
0
11
247946.0
21
-210930.0
31
0
0
LINE
8
lighting
10
247934.0
20
-211470.0
30
0
11
247946.0
21
-211470.0
31
0
0
LINE
8
lighting
10
247934.0
20
-210930.0
30
0
11
247946.0
21
-210930.0
31
0
0
LINE
8
lighting
10
248014.0
20
-211470.0
30
0
11
248014.0
21
-210930.0
31
0
0
LINE
8
lighting
10
248026.0
20
-211470.0
30
0
11
248026.0
21
-210930.0
31
0
0
LINE
8
lighting
10
248014.0
20
-211470.0
30
0
11
248026.0
21
-211470.0
31
0
0
LINE
8
lighting
10
248014.0
20
-210930.0
30
0
11
248026.0
21
-210930.0
31
0
0
LINE
8
lighting
10
248094.0
20
-211470.0
30
0
11
248094.0
21
-210930.0
31
0
0
LINE
8
lighting
10
248106.0
20
-211470.0
30
0
11
248106.0
21
-210930.0
31
0
0
LINE
8
lighting
10
248094.0
20
-211470.0
30
0
11
248106.0
21
-211470.0
31
0
0
LINE
8
lighting
10
248094.0
20
-210930.0
30
0
11
248106.0
21
-210930.0
31
0
0
LINE
8
lighting
10
248174.0
20
-211470.0
30
0
11
248174.0
21
-210930.0
31
0
0
LINE
8
lighting
10
248186.0
20
-211470.0
30
0
11
248186.0
21
-210930.0
31
0
0
LINE
8
lighting
10
248174.0
20
-211470.0
30
0
11
248186.0
21
-211470.0
31
0
0
LINE
8
lighting
10
248174.0
20
-210930.0
30
0
11
248186.0
21
-210930.0
31
0
0
LINE
8
lighting
10
248254.0
20
-211470.0
30
0
11
248254.0
21
-210930.0
31
0
0
LINE
8
lighting
10
248266.0
20
-211470.0
30
0
11
248266.0
21
-210930.0
31
0
0
LINE
8
lighting
10
248254.0
20
-211470.0
30
0
11
248266.0
21
-211470.0
31
0
0
LINE
8
lighting
10
248254.0
20
-210930.0
30
0
11
248266.0
21
-210930.0
31
0
0
LINE
8
lighting
10
248334.0
20
-211470.0
30
0
11
248334.0
21
-210930.0
31
0
0
LINE
8
lighting
10
248346.0
20
-211470.0
30
0
11
248346.0
21
-210930.0
31
0
0
LINE
8
lighting
10
248334.0
20
-211470.0
30
0
11
248346.0
21
-211470.0
31
0
0
LINE
8
lighting
10
248334.0
20
-210930.0
30
0
11
248346.0
21
-210930.0
31
0
0
LINE
8
lighting
10
248109.0
20
-211200.0
30
0
11
248095.5
21
-211192.21
31
0
0
LINE
8
lighting
10
248095.5
20
-211192.21
30
0
11
248095.5
21
-211207.79
31
0
0
LINE
8
lighting
10
248095.5
20
-211207.79
30
0
11
248109.0
21
-211200.0
31
0
0
LINE
8
lighting
10
267580.0
20
-211520.0
30
0
11
267580.0
21
-210880.0
31
0
0
LINE
8
lighting
10
268220.0
20
-211520.0
30
0
11
268220.0
21
-210880.0
31
0
0
LINE
8
lighting
10
267580.0
20
-211520.0
30
0
11
268220.0
21
-211520.0
31
0
0
LINE
8
lighting
10
267580.0
20
-210880.0
30
0
11
268220.0
21
-210880.0
31
0
0
LINE
8
lighting
10
267620.0
20
-211480.0
30
0
11
267620.0
21
-210920.0
31
0
0
LINE
8
lighting
10
268180.0
20
-211480.0
30
0
11
268180.0
21
-210920.0
31
0
0
LINE
8
lighting
10
267620.0
20
-211480.0
30
0
11
268180.0
21
-211480.0
31
0
0
LINE
8
lighting
10
267620.0
20
-210920.0
30
0
11
268180.0
21
-210920.0
31
0
0
LINE
8
lighting
10
267654.0
20
-211470.0
30
0
11
267654.0
21
-210930.0
31
0
0
LINE
8
lighting
10
267666.0
20
-211470.0
30
0
11
267666.0
21
-210930.0
31
0
0
LINE
8
lighting
10
267654.0
20
-211470.0
30
0
11
267666.0
21
-211470.0
31
0
0
LINE
8
lighting
10
267654.0
20
-210930.0
30
0
11
267666.0
21
-210930.0
31
0
0
LINE
8
lighting
10
267734.0
20
-211470.0
30
0
11
267734.0
21
-210930.0
31
0
0
LINE
8
lighting
10
267746.0
20
-211470.0
30
0
11
267746.0
21
-210930.0
31
0
0
LINE
8
lighting
10
267734.0
20
-211470.0
30
0
11
267746.0
21
-211470.0
31
0
0
LINE
8
lighting
10
267734.0
20
-210930.0
30
0
11
267746.0
21
-210930.0
31
0
0
LINE
8
lighting
10
267814.0
20
-211470.0
30
0
11
267814.0
21
-210930.0
31
0
0
LINE
8
lighting
10
267826.0
20
-211470.0
30
0
11
267826.0
21
-210930.0
31
0
0
LINE
8
lighting
10
267814.0
20
-211470.0
30
0
11
267826.0
21
-211470.0
31
0
0
LINE
8
lighting
10
267814.0
20
-210930.0
30
0
11
267826.0
21
-210930.0
31
0
0
LINE
8
lighting
10
267894.0
20
-211470.0
30
0
11
267894.0
21
-210930.0
31
0
0
LINE
8
lighting
10
267906.0
20
-211470.0
30
0
11
267906.0
21
-210930.0
31
0
0
LINE
8
lighting
10
267894.0
20
-211470.0
30
0
11
267906.0
21
-211470.0
31
0
0
LINE
8
lighting
10
267894.0
20
-210930.0
30
0
11
267906.0
21
-210930.0
31
0
0
LINE
8
lighting
10
267974.0
20
-211470.0
30
0
11
267974.0
21
-210930.0
31
0
0
LINE
8
lighting
10
267986.0
20
-211470.0
30
0
11
267986.0
21
-210930.0
31
0
0
LINE
8
lighting
10
267974.0
20
-211470.0
30
0
11
267986.0
21
-211470.0
31
0
0
LINE
8
lighting
10
267974.0
20
-210930.0
30
0
11
267986.0
21
-210930.0
31
0
0
LINE
8
lighting
10
268054.0
20
-211470.0
30
0
11
268054.0
21
-210930.0
31
0
0
LINE
8
lighting
10
268066.0
20
-211470.0
30
0
11
268066.0
21
-210930.0
31
0
0
LINE
8
lighting
10
268054.0
20
-211470.0
30
0
11
268066.0
21
-211470.0
31
0
0
LINE
8
lighting
10
268054.0
20
-210930.0
30
0
11
268066.0
21
-210930.0
31
0
0
LINE
8
lighting
10
268134.0
20
-211470.0
30
0
11
268134.0
21
-210930.0
31
0
0
LINE
8
lighting
10
268146.0
20
-211470.0
30
0
11
268146.0
21
-210930.0
31
0
0
LINE
8
lighting
10
268134.0
20
-211470.0
30
0
11
268146.0
21
-211470.0
31
0
0
LINE
8
lighting
10
268134.0
20
-210930.0
30
0
11
268146.0
21
-210930.0
31
0
0
LINE
8
lighting
10
267909.0
20
-211200.0
30
0
11
267895.5
21
-211192.21
31
0
0
LINE
8
lighting
10
267895.5
20
-211192.21
30
0
11
267895.5
21
-211207.79
31
0
0
LINE
8
lighting
10
267895.5
20
-211207.79
30
0
11
267909.0
21
-211200.0
31
0
0
LINE
8
electrical
10
238200.0
20
-225120.0
30
0
11
238200.0
21
-225127.79
31
0
0
LINE
8
electrical
10
238200.0
20
-225127.79
30
0
11
238200.0
21
-225112.21
31
0
0
LINE
8
electrical
10
238200.0
20
-225112.21
30
0
11
238200.0
21
-225120.0
31
0
0
LINE
8
electrical
10
285050.0
20
-225120.0
30
0
11
238200.0
21
-225120.0
31
0
0
LINE
8
electrical
10
285050.0
20
-225120.0
30
0
11
285050.0
21
-225127.79
31
0
0
LINE
8
electrical
10
285050.0
20
-225127.79
30
0
11
285050.0
21
-225112.21
31
0
0
LINE
8
electrical
10
285050.0
20
-225112.21
30
0
11
285050.0
21
-225120.0
31
0
0
LINE
8
electrical
10
238200.0
20
-211200.0
30
0
11
238207.79
21
-211200.0
31
0
0
LINE
8
electrical
10
238207.79
20
-211200.0
30
0
11
238192.21
21
-211200.0
31
0
0
LINE
8
electrical
10
238192.21
20
-211200.0
30
0
11
238200.0
21
-211200.0
31
0
0
LINE
8
electrical
10
238200.0
20
-225120.0
30
0
11
238200.0
21
-211200.0
31
0
0
LINE
8
electrical
10
238200.0
20
-225120.0
30
0
11
238207.79
21
-225120.0
31
0
0
LINE
8
electrical
10
238207.79
20
-225120.0
30
0
11
238192.21
21
-225120.0
31
0
0
LINE
8
electrical
10
238192.21
20
-225120.0
30
0
11
238200.0
21
-225120.0
31
0
0
LINE
8
electrical
10
258000.0
20
-211200.0
30
0
11
258007.79
21
-211200.0
31
0
0
LINE
8
electrical
10
258007.79
20
-211200.0
30
0
11
257992.21
21
-211200.0
31
0
0
LINE
8
electrical
10
257992.21
20
-211200.0
30
0
11
258000.0
21
-211200.0
31
0
0
LINE
8
electrical
10
258000.0
20
-225120.0
30
0
11
258000.0
21
-211200.0
31
0
0
LINE
8
electrical
10
258000.0
20
-225120.0
30
0
11
258007.79
21
-225120.0
31
0
0
LINE
8
electrical
10
258007.79
20
-225120.0
30
0
11
257992.21
21
-225120.0
31
0
0
LINE
8
electrical
10
257992.21
20
-225120.0
30
0
11
258000.0
21
-225120.0
31
0
0
LINE
8
electrical
10
277800.0
20
-211200.0
30
0
11
277807.79
21
-211200.0
31
0
0
LINE
8
electrical
10
277807.79
20
-211200.0
30
0
11
277792.21
21
-211200.0
31
0
0
LINE
8
electrical
10
277792.21
20
-211200.0
30
0
11
277800.0
21
-211200.0
31
0
0
LINE
8
electrical
10
277800.0
20
-225120.0
30
0
11
277800.0
21
-211200.0
31
0
0
LINE
8
electrical
10
277800.0
20
-225120.0
30
0
11
277807.79
21
-225120.0
31
0
0
LINE
8
electrical
10
277807.79
20
-225120.0
30
0
11
277792.21
21
-225120.0
31
0
0
LINE
8
electrical
10
277792.21
20
-225120.0
30
0
11
277800.0
21
-225120.0
31
0
0
LINE
8
electrical
10
248100.0
20
-211200.0
30
0
11
248107.79
21
-211200.0
31
0
0
LINE
8
electrical
10
248107.79
20
-211200.0
30
0
11
248092.21
21
-211200.0
31
0
0
LINE
8
electrical
10
248092.21
20
-211200.0
30
0
11
248100.0
21
-211200.0
31
0
0
LINE
8
electrical
10
248100.0
20
-225120.0
30
0
11
248100.0
21
-211200.0
31
0
0
LINE
8
electrical
10
248100.0
20
-225120.0
30
0
11
248107.79
21
-225120.0
31
0
0
LINE
8
electrical
10
248107.79
20
-225120.0
30
0
11
248092.21
21
-225120.0
31
0
0
LINE
8
electrical
10
248092.21
20
-225120.0
30
0
11
248100.0
21
-225120.0
31
0
0
LINE
8
electrical
10
267900.0
20
-211200.0
30
0
11
267907.79
21
-211200.0
31
0
0
LINE
8
electrical
10
267907.79
20
-211200.0
30
0
11
267892.21
21
-211200.0
31
0
0
LINE
8
electrical
10
267892.21
20
-211200.0
30
0
11
267900.0
21
-211200.0
31
0
0
LINE
8
electrical
10
267900.0
20
-225120.0
30
0
11
267900.0
21
-211200.0
31
0
0
LINE
8
electrical
10
267900.0
20
-225120.0
30
0
11
267907.79
21
-225120.0
31
0
0
LINE
8
electrical
10
267907.79
20
-225120.0
30
0
11
267892.21
21
-225120.0
31
0
0
LINE
8
electrical
10
267892.21
20
-225120.0
30
0
11
267900.0
21
-225120.0
31
0
0
LINE
8
electrical
10
285063.0
20
-227800.0
30
0
11
285043.5
21
-227788.74
31
0
0
LINE
8
electrical
10
285043.5
20
-227788.74
30
0
11
285043.5
21
-227811.26
31
0
0
LINE
8
electrical
10
285043.5
20
-227811.26
30
0
11
285063.0
21
-227800.0
31
0
0
LINE
8
electrical
10
277245.78
20
-225132.29
30
0
11
277252.11
21
-225113.85
31
0
0
LINE
8
electrical
10
277252.11
20
-225113.85
30
0
11
277252.11
21
-225113.85
31
0
0
LINE
8
electrical
10
277252.11
20
-225113.85
30
0
11
277245.78
21
-225132.29
31
0
0
LINE
8
electrical
10
285045.78
20
-227812.29
30
0
11
277245.78
21
-225132.29
31
0
0
LINE
8
electrical
10
285045.78
20
-227812.29
30
0
11
285052.11
21
-227793.85
31
0
0
LINE
8
electrical
10
285052.11
20
-227793.85
30
0
11
285052.11
21
-227793.85
31
0
0
LINE
8
electrical
10
285052.11
20
-227793.85
30
0
11
285045.78
21
-227812.29
31
0
0
LINE
8
electrical
10
238750.0
20
-225120.0
30
0
11
238750.0
21
-225131.26
31
0
0
LINE
8
electrical
10
238750.0
20
-225131.26
30
0
11
238750.0
21
-225108.74
31
0
0
LINE
8
electrical
10
238750.0
20
-225108.74
30
0
11
238750.0
21
-225120.0
31
0
0
LINE
8
electrical
10
277250.0
20
-225120.0
30
0
11
238750.0
21
-225120.0
31
0
0
LINE
8
electrical
10
277250.0
20
-225120.0
30
0
11
277250.0
21
-225131.26
31
0
0
LINE
8
electrical
10
277250.0
20
-225131.26
30
0
11
277250.0
21
-225108.74
31
0
0
LINE
8
electrical
10
277250.0
20
-225108.74
30
0
11
277250.0
21
-225120.0
31
0
0
LINE
8
electrical
10
285050.0
20
-227800.0
30
0
11
285064.04
21
-227800.0
31
0
0
LINE
8
electrical
10
285064.04
20
-227800.0
30
0
11
285050.0
21
-227800.0
31
0
0
LINE
8
electrical
10
277250.0
20
-225120.0
30
0
11
277264.04
21
-225120.0
31
0
0
LINE
8
electrical
10
277264.04
20
-225120.0
30
0
11
277250.0
21
-225120.0
31
0
0
LINE
8
electrical
10
285063.0
20
-227800.0
30
0
11
285043.5
21
-227788.74
31
0
0
LINE
8
electrical
10
285043.5
20
-227788.74
30
0
11
285043.5
21
-227811.26
31
0
0
LINE
8
electrical
10
285043.5
20
-227811.26
30
0
11
285063.0
21
-227800.0
31
0
0
LINE
8
electrical
10
277245.61
20
-225012.24
30
0
11
277252.2
21
-224993.88
31
0
0
LINE
8
electrical
10
277252.2
20
-224993.88
30
0
11
277252.2
21
-224993.88
31
0
0
LINE
8
electrical
10
277252.2
20
-224993.88
30
0
11
277245.61
21
-225012.24
31
0
0
LINE
8
electrical
10
285045.61
20
-227812.24
30
0
11
277245.61
21
-225012.24
31
0
0
LINE
8
electrical
10
285045.61
20
-227812.24
30
0
11
285052.2
21
-227793.88
31
0
0
LINE
8
electrical
10
285052.2
20
-227793.88
30
0
11
285052.2
21
-227793.88
31
0
0
LINE
8
electrical
10
285052.2
20
-227793.88
30
0
11
285045.61
21
-227812.24
31
0
0
LINE
8
electrical
10
238750.0
20
-225000.0
30
0
11
238750.0
21
-225011.26
31
0
0
LINE
8
electrical
10
238750.0
20
-225011.26
30
0
11
238750.0
21
-224988.74
31
0
0
LINE
8
electrical
10
238750.0
20
-224988.74
30
0
11
238750.0
21
-225000.0
31
0
0
LINE
8
electrical
10
277250.0
20
-225000.0
30
0
11
238750.0
21
-225000.0
31
0
0
LINE
8
electrical
10
277250.0
20
-225000.0
30
0
11
277250.0
21
-225011.26
31
0
0
LINE
8
electrical
10
277250.0
20
-225011.26
30
0
11
277250.0
21
-224988.74
31
0
0
LINE
8
electrical
10
277250.0
20
-224988.74
30
0
11
277250.0
21
-225000.0
31
0
0
LINE
8
electrical
10
285050.0
20
-227800.0
30
0
11
285064.04
21
-227800.0
31
0
0
LINE
8
electrical
10
285064.04
20
-227800.0
30
0
11
285050.0
21
-227800.0
31
0
0
LINE
8
electrical
10
277250.0
20
-225000.0
30
0
11
277264.04
21
-225000.0
31
0
0
LINE
8
electrical
10
277264.04
20
-225000.0
30
0
11
277250.0
21
-225000.0
31
0
0
LINE
8
electrical
10
285063.0
20
-227800.0
30
0
11
285043.5
21
-227788.74
31
0
0
LINE
8
electrical
10
285043.5
20
-227788.74
30
0
11
285043.5
21
-227811.26
31
0
0
LINE
8
electrical
10
285043.5
20
-227811.26
30
0
11
285063.0
21
-227800.0
31
0
0
LINE
8
electrical
10
277245.44
20
-224892.17
30
0
11
277252.28
21
-224873.91
31
0
0
LINE
8
electrical
10
277252.28
20
-224873.91
30
0
11
277252.28
21
-224873.91
31
0
0
LINE
8
electrical
10
277252.28
20
-224873.91
30
0
11
277245.44
21
-224892.17
31
0
0
LINE
8
electrical
10
285045.44
20
-227812.17
30
0
11
277245.44
21
-224892.17
31
0
0
LINE
8
electrical
10
285045.44
20
-227812.17
30
0
11
285052.28
21
-227793.91
31
0
0
LINE
8
electrical
10
285052.28
20
-227793.91
30
0
11
285052.28
21
-227793.91
31
0
0
LINE
8
electrical
10
285052.28
20
-227793.91
30
0
11
285045.44
21
-227812.17
31
0
0
LINE
8
electrical
10
238750.0
20
-224880.0
30
0
11
238750.0
21
-224891.26
31
0
0
LINE
8
electrical
10
238750.0
20
-224891.26
30
0
11
238750.0
21
-224868.74
31
0
0
LINE
8
electrical
10
238750.0
20
-224868.74
30
0
11
238750.0
21
-224880.0
31
0
0
LINE
8
electrical
10
277250.0
20
-224880.0
30
0
11
238750.0
21
-224880.0
31
0
0
LINE
8
electrical
10
277250.0
20
-224880.0
30
0
11
277250.0
21
-224891.26
31
0
0
LINE
8
electrical
10
277250.0
20
-224891.26
30
0
11
277250.0
21
-224868.74
31
0
0
LINE
8
electrical
10
277250.0
20
-224868.74
30
0
11
277250.0
21
-224880.0
31
0
0
LINE
8
electrical
10
285050.0
20
-227800.0
30
0
11
285064.04
21
-227800.0
31
0
0
LINE
8
electrical
10
285064.04
20
-227800.0
30
0
11
285050.0
21
-227800.0
31
0
0
LINE
8
electrical
10
277250.0
20
-224880.0
30
0
11
277264.04
21
-224880.0
31
0
0
LINE
8
electrical
10
277264.04
20
-224880.0
30
0
11
277250.0
21
-224880.0
31
0
0
LINE
8
electrical
10
241435.0
20
-227850.0
30
0
11
241435.0
21
-227790.0
31
0
0
LINE
8
electrical
10
241565.0
20
-227850.0
30
0
11
241565.0
21
-227790.0
31
0
0
LINE
8
electrical
10
241435.0
20
-227850.0
30
0
11
241565.0
21
-227850.0
31
0
0
LINE
8
electrical
10
241435.0
20
-227790.0
30
0
11
241565.0
21
-227790.0
31
0
0
LINE
8
electrical
10
241509.0
20
-227820.0
30
0
11
241495.5
21
-227812.21
31
0
0
LINE
8
electrical
10
241495.5
20
-227812.21
30
0
11
241495.5
21
-227827.79
31
0
0
LINE
8
electrical
10
241495.5
20
-227827.79
30
0
11
241509.0
21
-227820.0
31
0
0
LINE
8
electrical
10
285050.0
20
-227820.0
30
0
11
285050.0
21
-227827.79
31
0
0
LINE
8
electrical
10
285050.0
20
-227827.79
30
0
11
285050.0
21
-227812.21
31
0
0
LINE
8
electrical
10
285050.0
20
-227812.21
30
0
11
285050.0
21
-227820.0
31
0
0
LINE
8
electrical
10
241500.0
20
-227820.0
30
0
11
285050.0
21
-227820.0
31
0
0
LINE
8
electrical
10
241500.0
20
-227820.0
30
0
11
241500.0
21
-227827.79
31
0
0
LINE
8
electrical
10
241500.0
20
-227827.79
30
0
11
241500.0
21
-227812.21
31
0
0
LINE
8
electrical
10
241500.0
20
-227812.21
30
0
11
241500.0
21
-227820.0
31
0
0
LINE
8
electrical
10
241500.0
20
-227820.0
30
0
11
241509.72
21
-227820.0
31
0
0
LINE
8
electrical
10
241509.72
20
-227820.0
30
0
11
241500.0
21
-227820.0
31
0
0
LINE
8
electrical
10
274435.0
20
-227850.0
30
0
11
274435.0
21
-227790.0
31
0
0
LINE
8
electrical
10
274565.0
20
-227850.0
30
0
11
274565.0
21
-227790.0
31
0
0
LINE
8
electrical
10
274435.0
20
-227850.0
30
0
11
274565.0
21
-227850.0
31
0
0
LINE
8
electrical
10
274435.0
20
-227790.0
30
0
11
274565.0
21
-227790.0
31
0
0
LINE
8
electrical
10
274509.0
20
-227820.0
30
0
11
274495.5
21
-227812.21
31
0
0
LINE
8
electrical
10
274495.5
20
-227812.21
30
0
11
274495.5
21
-227827.79
31
0
0
LINE
8
electrical
10
274495.5
20
-227827.79
30
0
11
274509.0
21
-227820.0
31
0
0
LINE
8
electrical
10
285050.0
20
-227820.0
30
0
11
285050.0
21
-227827.79
31
0
0
LINE
8
electrical
10
285050.0
20
-227827.79
30
0
11
285050.0
21
-227812.21
31
0
0
LINE
8
electrical
10
285050.0
20
-227812.21
30
0
11
285050.0
21
-227820.0
31
0
0
LINE
8
electrical
10
274500.0
20
-227820.0
30
0
11
285050.0
21
-227820.0
31
0
0
LINE
8
electrical
10
274500.0
20
-227820.0
30
0
11
274500.0
21
-227827.79
31
0
0
LINE
8
electrical
10
274500.0
20
-227827.79
30
0
11
274500.0
21
-227812.21
31
0
0
LINE
8
electrical
10
274500.0
20
-227812.21
30
0
11
274500.0
21
-227820.0
31
0
0
LINE
8
electrical
10
274500.0
20
-227820.0
30
0
11
274509.72
21
-227820.0
31
0
0
LINE
8
electrical
10
274509.72
20
-227820.0
30
0
11
274500.0
21
-227820.0
31
0
0
LINE
8
hvac
10
230975.0
20
-227275.0
30
0
11
230975.0
21
-226525.0
31
0
0
LINE
8
hvac
10
232625.0
20
-227275.0
30
0
11
232625.0
21
-226525.0
31
0
0
LINE
8
hvac
10
230975.0
20
-227275.0
30
0
11
232625.0
21
-227275.0
31
0
0
LINE
8
hvac
10
230975.0
20
-226525.0
30
0
11
232625.0
21
-226525.0
31
0
0
LINE
8
hvac
10
231075.0
20
-227320.0
30
0
11
231075.0
21
-227280.0
31
0
0
LINE
8
hvac
10
232525.0
20
-227320.0
30
0
11
232525.0
21
-227280.0
31
0
0
LINE
8
hvac
10
231075.0
20
-227320.0
30
0
11
232525.0
21
-227320.0
31
0
0
LINE
8
hvac
10
231075.0
20
-227280.0
30
0
11
232525.0
21
-227280.0
31
0
0
LINE
8
hvac
10
231140.0
20
-227360.0
30
0
11
231140.0
21
-227300.0
31
0
0
LINE
8
hvac
10
231180.0
20
-227360.0
30
0
11
231180.0
21
-227300.0
31
0
0
LINE
8
hvac
10
231140.0
20
-227360.0
30
0
11
231180.0
21
-227360.0
31
0
0
LINE
8
hvac
10
231140.0
20
-227300.0
30
0
11
231180.0
21
-227300.0
31
0
0
LINE
8
hvac
10
231300.0
20
-227360.0
30
0
11
231300.0
21
-227300.0
31
0
0
LINE
8
hvac
10
231340.0
20
-227360.0
30
0
11
231340.0
21
-227300.0
31
0
0
LINE
8
hvac
10
231300.0
20
-227360.0
30
0
11
231340.0
21
-227360.0
31
0
0
LINE
8
hvac
10
231300.0
20
-227300.0
30
0
11
231340.0
21
-227300.0
31
0
0
LINE
8
hvac
10
231460.0
20
-227360.0
30
0
11
231460.0
21
-227300.0
31
0
0
LINE
8
hvac
10
231500.0
20
-227360.0
30
0
11
231500.0
21
-227300.0
31
0
0
LINE
8
hvac
10
231460.0
20
-227360.0
30
0
11
231500.0
21
-227360.0
31
0
0
LINE
8
hvac
10
231460.0
20
-227300.0
30
0
11
231500.0
21
-227300.0
31
0
0
LINE
8
hvac
10
231620.0
20
-227360.0
30
0
11
231620.0
21
-227300.0
31
0
0
LINE
8
hvac
10
231660.0
20
-227360.0
30
0
11
231660.0
21
-227300.0
31
0
0
LINE
8
hvac
10
231620.0
20
-227360.0
30
0
11
231660.0
21
-227360.0
31
0
0
LINE
8
hvac
10
231620.0
20
-227300.0
30
0
11
231660.0
21
-227300.0
31
0
0
LINE
8
hvac
10
231780.0
20
-227360.0
30
0
11
231780.0
21
-227300.0
31
0
0
LINE
8
hvac
10
231820.0
20
-227360.0
30
0
11
231820.0
21
-227300.0
31
0
0
LINE
8
hvac
10
231780.0
20
-227360.0
30
0
11
231820.0
21
-227360.0
31
0
0
LINE
8
hvac
10
231780.0
20
-227300.0
30
0
11
231820.0
21
-227300.0
31
0
0
LINE
8
hvac
10
231940.0
20
-227360.0
30
0
11
231940.0
21
-227300.0
31
0
0
LINE
8
hvac
10
231980.0
20
-227360.0
30
0
11
231980.0
21
-227300.0
31
0
0
LINE
8
hvac
10
231940.0
20
-227360.0
30
0
11
231980.0
21
-227360.0
31
0
0
LINE
8
hvac
10
231940.0
20
-227300.0
30
0
11
231980.0
21
-227300.0
31
0
0
LINE
8
hvac
10
232100.0
20
-227360.0
30
0
11
232100.0
21
-227300.0
31
0
0
LINE
8
hvac
10
232140.0
20
-227360.0
30
0
11
232140.0
21
-227300.0
31
0
0
LINE
8
hvac
10
232100.0
20
-227360.0
30
0
11
232140.0
21
-227360.0
31
0
0
LINE
8
hvac
10
232100.0
20
-227300.0
30
0
11
232140.0
21
-227300.0
31
0
0
LINE
8
hvac
10
232260.0
20
-227360.0
30
0
11
232260.0
21
-227300.0
31
0
0
LINE
8
hvac
10
232300.0
20
-227360.0
30
0
11
232300.0
21
-227300.0
31
0
0
LINE
8
hvac
10
232260.0
20
-227360.0
30
0
11
232300.0
21
-227360.0
31
0
0
LINE
8
hvac
10
232260.0
20
-227300.0
30
0
11
232300.0
21
-227300.0
31
0
0
LINE
8
hvac
10
232420.0
20
-227360.0
30
0
11
232420.0
21
-227300.0
31
0
0
LINE
8
hvac
10
232460.0
20
-227360.0
30
0
11
232460.0
21
-227300.0
31
0
0
LINE
8
hvac
10
232420.0
20
-227360.0
30
0
11
232460.0
21
-227360.0
31
0
0
LINE
8
hvac
10
232420.0
20
-227300.0
30
0
11
232460.0
21
-227300.0
31
0
0
LINE
8
hvac
10
231575.0
20
-227125.0
30
0
11
231575.0
21
-226675.0
31
0
0
LINE
8
hvac
10
232025.0
20
-227125.0
30
0
11
232025.0
21
-226675.0
31
0
0
LINE
8
hvac
10
231575.0
20
-227125.0
30
0
11
232025.0
21
-227125.0
31
0
0
LINE
8
hvac
10
231575.0
20
-226675.0
30
0
11
232025.0
21
-226675.0
31
0
0
LINE
8
hvac
10
238750.0
20
-218175.0
30
0
11
238750.0
21
-217825.0
31
0
0
LINE
8
hvac
10
277250.0
20
-218175.0
30
0
11
277250.0
21
-217825.0
31
0
0
LINE
8
hvac
10
238750.0
20
-218175.0
30
0
11
277250.0
21
-218175.0
31
0
0
LINE
8
hvac
10
238750.0
20
-217825.0
30
0
11
277250.0
21
-217825.0
31
0
0
LINE
8
hvac
10
231625.0
20
-227075.0
30
0
11
231625.0
21
-226725.0
31
0
0
LINE
8
hvac
10
258175.0
20
-227075.0
30
0
11
258175.0
21
-226725.0
31
0
0
LINE
8
hvac
10
231625.0
20
-227075.0
30
0
11
258175.0
21
-227075.0
31
0
0
LINE
8
hvac
10
231625.0
20
-226725.0
30
0
11
258175.0
21
-226725.0
31
0
0
LINE
8
hvac
10
257825.0
20
-227075.0
30
0
11
257825.0
21
-217825.0
31
0
0
LINE
8
hvac
10
258175.0
20
-227075.0
30
0
11
258175.0
21
-217825.0
31
0
0
LINE
8
hvac
10
257825.0
20
-227075.0
30
0
11
258175.0
21
-227075.0
31
0
0
LINE
8
hvac
10
257825.0
20
-217825.0
30
0
11
258175.0
21
-217825.0
31
0
0
LINE
8
hvac
10
246650.0
20
-218350.0
30
0
11
246650.0
21
-217650.0
31
0
0
LINE
8
hvac
10
247350.0
20
-218350.0
30
0
11
247350.0
21
-217650.0
31
0
0
LINE
8
hvac
10
246650.0
20
-218350.0
30
0
11
247350.0
21
-218350.0
31
0
0
LINE
8
hvac
10
246650.0
20
-217650.0
30
0
11
247350.0
21
-217650.0
31
0
0
LINE
8
hvac
10
268650.0
20
-218350.0
30
0
11
268650.0
21
-217650.0
31
0
0
LINE
8
hvac
10
269350.0
20
-218350.0
30
0
11
269350.0
21
-217650.0
31
0
0
LINE
8
hvac
10
268650.0
20
-218350.0
30
0
11
269350.0
21
-218350.0
31
0
0
LINE
8
hvac
10
268650.0
20
-217650.0
30
0
11
269350.0
21
-217650.0
31
0
0
LINE
8
water
10
283990.0
20
-215320.0
30
0
11
283990.0
21
-214680.0
31
0
0
LINE
8
water
10
284910.0
20
-215320.0
30
0
11
284910.0
21
-214680.0
31
0
0
LINE
8
water
10
283990.0
20
-215320.0
30
0
11
284910.0
21
-215320.0
31
0
0
LINE
8
water
10
283990.0
20
-214680.0
30
0
11
284910.0
21
-214680.0
31
0
0
LINE
8
water
10
284000.0
20
-215310.0
30
0
11
284000.0
21
-214690.0
31
0
0
LINE
8
water
10
284000.0
20
-215310.0
30
0
11
284900.0
21
-215310.0
31
0
0
LINE
8
water
10
284000.0
20
-214690.0
30
0
11
284900.0
21
-214690.0
31
0
0
LINE
8
water
10
284900.0
20
-215310.0
30
0
11
284900.0
21
-214690.0
31
0
0
LINE
8
water
10
284775.0
20
-215215.0
30
0
11
284125.0
21
-215215.0
31
0
0
LINE
8
water
10
284775.0
20
-215215.0
30
0
11
284775.0
21
-214785.0
31
0
0
LINE
8
water
10
284775.0
20
-214785.0
30
0
11
284125.0
21
-214785.0
31
0
0
LINE
8
water
10
284125.0
20
-215215.0
30
0
11
284125.0
21
-214785.0
31
0
0
LINE
8
water
10
284468.0
20
-214780.0
30
0
11
284441.0
21
-214764.41
31
0
0
LINE
8
water
10
284441.0
20
-214764.41
30
0
11
284441.0
21
-214795.59
31
0
0
LINE
8
water
10
284441.0
20
-214795.59
30
0
11
284468.0
21
-214780.0
31
0
0
LINE
8
water
10
284450.0
20
-215000.0
30
0
11
284465.59
21
-215000.0
31
0
0
LINE
8
water
10
284465.59
20
-215000.0
30
0
11
284434.41
21
-215000.0
31
0
0
LINE
8
water
10
284434.41
20
-215000.0
30
0
11
284450.0
21
-215000.0
31
0
0
LINE
8
water
10
284450.0
20
-214780.0
30
0
11
284450.0
21
-215000.0
31
0
0
LINE
8
water
10
284450.0
20
-214780.0
30
0
11
284465.59
21
-214780.0
31
0
0
LINE
8
water
10
284465.59
20
-214780.0
30
0
11
284434.41
21
-214780.0
31
0
0
LINE
8
water
10
284434.41
20
-214780.0
30
0
11
284450.0
21
-214780.0
31
0
0
LINE
8
water
10
284450.0
20
-214780.0
30
0
11
284469.44
21
-214780.0
31
0
0
LINE
8
water
10
284469.44
20
-214780.0
30
0
11
284450.0
21
-214780.0
31
0
0
LINE
8
water
10
284395.0
20
-215000.0
30
0
11
284450.0
21
-214945.0
31
0
0
LINE
8
water
10
284450.0
20
-214945.0
30
0
11
284505.0
21
-215000.0
31
0
0
LINE
8
water
10
284505.0
20
-215000.0
30
0
11
284450.0
21
-215055.0
31
0
0
LINE
8
water
10
284450.0
20
-215055.0
30
0
11
284395.0
21
-215000.0
31
0
0
LINE
8
water
10
284450.0
20
-222000.0
30
0
11
284505.0
21
-222000.0
31
0
0
LINE
8
water
10
284505.0
20
-222000.0
30
0
11
284450.0
21
-222000.0
31
0
0
LINE
8
water
10
284450.0
20
-222000.0
30
0
11
284395.0
21
-222000.0
31
0
0
LINE
8
water
10
284395.0
20
-222000.0
30
0
11
284450.0
21
-222000.0
31
0
0
LINE
8
water
10
284450.0
20
-215000.0
30
0
11
284450.0
21
-222000.0
31
0
0
LINE
8
water
10
284450.0
20
-215000.0
30
0
11
284505.0
21
-215000.0
31
0
0
LINE
8
water
10
284505.0
20
-215000.0
30
0
11
284450.0
21
-215000.0
31
0
0
LINE
8
water
10
284450.0
20
-215000.0
30
0
11
284395.0
21
-215000.0
31
0
0
LINE
8
water
10
284395.0
20
-215000.0
30
0
11
284450.0
21
-215000.0
31
0
0
LINE
8
water
10
235000.0
20
-222000.0
30
0
11
235000.0
21
-222055.0
31
0
0
LINE
8
water
10
235000.0
20
-222055.0
30
0
11
235000.0
21
-222000.0
31
0
0
LINE
8
water
10
235000.0
20
-222000.0
30
0
11
235000.0
21
-221945.0
31
0
0
LINE
8
water
10
235000.0
20
-221945.0
30
0
11
235000.0
21
-222000.0
31
0
0
LINE
8
water
10
284450.0
20
-222000.0
30
0
11
235000.0
21
-222000.0
31
0
0
LINE
8
water
10
284450.0
20
-222000.0
30
0
11
284450.0
21
-222055.0
31
0
0
LINE
8
water
10
284450.0
20
-222055.0
30
0
11
284450.0
21
-222000.0
31
0
0
LINE
8
water
10
284450.0
20
-222000.0
30
0
11
284450.0
21
-221945.0
31
0
0
LINE
8
water
10
284450.0
20
-221945.0
30
0
11
284450.0
21
-222000.0
31
0
0
LINE
8
water
10
284450.0
20
-215000.0
30
0
11
284509.4
21
-215000.0
31
0
0
LINE
8
water
10
284509.4
20
-215000.0
30
0
11
284450.0
21
-215000.0
31
0
0
LINE
8
water
10
284450.0
20
-222000.0
30
0
11
284509.4
21
-222000.0
31
0
0
LINE
8
water
10
284509.4
20
-222000.0
30
0
11
284450.0
21
-222000.0
31
0
0
LINE
8
water
10
266905.0
20
-227600.0
30
0
11
266905.0
21
-227675.0
31
0
0
LINE
8
water
10
266905.0
20
-227675.0
30
0
11
266905.0
21
-227600.0
31
0
0
LINE
8
water
10
266905.0
20
-227600.0
30
0
11
266905.0
21
-227525.0
31
0
0
LINE
8
water
10
266905.0
20
-227525.0
30
0
11
266905.0
21
-227600.0
31
0
0
LINE
8
water
10
266505.0
20
-227600.0
30
0
11
266905.0
21
-227600.0
31
0
0
LINE
8
water
10
266505.0
20
-227600.0
30
0
11
266505.0
21
-227675.0
31
0
0
LINE
8
water
10
266505.0
20
-227675.0
30
0
11
266505.0
21
-227600.0
31
0
0
LINE
8
water
10
266505.0
20
-227600.0
30
0
11
266505.0
21
-227525.0
31
0
0
LINE
8
water
10
266505.0
20
-227525.0
30
0
11
266505.0
21
-227600.0
31
0
0
LINE
8
water
10
266795.0
20
-227600.0
30
0
11
266732.81
21
-227514.4
31
0
0
LINE
8
water
10
266732.81
20
-227514.4
30
0
11
266632.19
21
-227547.1
31
0
0
LINE
8
water
10
266632.19
20
-227547.1
30
0
11
266632.19
21
-227652.9
31
0
0
LINE
8
water
10
266632.19
20
-227652.9
30
0
11
266732.81
21
-227685.6
31
0
0
LINE
8
water
10
266732.81
20
-227685.6
30
0
11
266795.0
21
-227600.0
31
0
0
LINE
8
water
10
266515.0
20
-227625.0
30
0
11
266515.0
21
-227575.0
31
0
0
LINE
8
water
10
266895.0
20
-227625.0
30
0
11
266895.0
21
-227575.0
31
0
0
LINE
8
water
10
266515.0
20
-227625.0
30
0
11
266895.0
21
-227625.0
31
0
0
LINE
8
water
10
266515.0
20
-227575.0
30
0
11
266895.0
21
-227575.0
31
0
0
LINE
8
water
10
266580.0
20
-227600.0
30
0
11
266580.0
21
-227704.62
31
0
0
LINE
8
water
10
266580.0
20
-227704.62
30
0
11
266580.0
21
-227664.66
31
0
0
LINE
8
water
10
266580.0
20
-227664.66
30
0
11
266580.0
21
-227535.34
31
0
0
LINE
8
water
10
266580.0
20
-227535.34
30
0
11
266580.0
21
-227495.38
31
0
0
LINE
8
water
10
266580.0
20
-227495.38
30
0
11
266580.0
21
-227600.0
31
0
0
LINE
8
water
10
266555.0
20
-227600.0
30
0
11
266580.0
21
-227600.0
31
0
0
LINE
8
water
10
266555.0
20
-227600.0
30
0
11
266555.0
21
-227704.62
31
0
0
LINE
8
water
10
266555.0
20
-227704.62
30
0
11
266555.0
21
-227664.66
31
0
0
LINE
8
water
10
266555.0
20
-227664.66
30
0
11
266555.0
21
-227535.34
31
0
0
LINE
8
water
10
266555.0
20
-227535.34
30
0
11
266555.0
21
-227495.38
31
0
0
LINE
8
water
10
266555.0
20
-227495.38
30
0
11
266555.0
21
-227600.0
31
0
0
LINE
8
water
10
266880.0
20
-227600.0
30
0
11
266880.0
21
-227704.62
31
0
0
LINE
8
water
10
266880.0
20
-227704.62
30
0
11
266880.0
21
-227664.66
31
0
0
LINE
8
water
10
266880.0
20
-227664.66
30
0
11
266880.0
21
-227535.34
31
0
0
LINE
8
water
10
266880.0
20
-227535.34
30
0
11
266880.0
21
-227495.38
31
0
0
LINE
8
water
10
266880.0
20
-227495.38
30
0
11
266880.0
21
-227600.0
31
0
0
LINE
8
water
10
266855.0
20
-227600.0
30
0
11
266880.0
21
-227600.0
31
0
0
LINE
8
water
10
266855.0
20
-227600.0
30
0
11
266855.0
21
-227704.62
31
0
0
LINE
8
water
10
266855.0
20
-227704.62
30
0
11
266855.0
21
-227664.66
31
0
0
LINE
8
water
10
266855.0
20
-227664.66
30
0
11
266855.0
21
-227535.34
31
0
0
LINE
8
water
10
266855.0
20
-227535.34
30
0
11
266855.0
21
-227495.38
31
0
0
LINE
8
water
10
266855.0
20
-227495.38
30
0
11
266855.0
21
-227600.0
31
0
0
LINE
8
water
10
259100.0
20
-227600.0
30
0
11
259130.31
21
-227600.0
31
0
0
LINE
8
water
10
259130.31
20
-227600.0
30
0
11
259069.69
21
-227600.0
31
0
0
LINE
8
water
10
259069.69
20
-227600.0
30
0
11
259100.0
21
-227600.0
31
0
0
LINE
8
water
10
259100.0
20
-224500.0
30
0
11
259100.0
21
-227600.0
31
0
0
LINE
8
water
10
259100.0
20
-224500.0
30
0
11
259130.31
21
-224500.0
31
0
0
LINE
8
water
10
259130.31
20
-224500.0
30
0
11
259069.69
21
-224500.0
31
0
0
LINE
8
water
10
259069.69
20
-224500.0
30
0
11
259100.0
21
-224500.0
31
0
0
LINE
8
water
10
284450.0
20
-227600.0
30
0
11
284450.0
21
-227630.31
31
0
0
LINE
8
water
10
284450.0
20
-227630.31
30
0
11
284450.0
21
-227569.69
31
0
0
LINE
8
water
10
284450.0
20
-227569.69
30
0
11
284450.0
21
-227600.0
31
0
0
LINE
8
water
10
259100.0
20
-227600.0
30
0
11
284450.0
21
-227600.0
31
0
0
LINE
8
water
10
259100.0
20
-227600.0
30
0
11
259100.0
21
-227630.31
31
0
0
LINE
8
water
10
259100.0
20
-227630.31
30
0
11
259100.0
21
-227569.69
31
0
0
LINE
8
water
10
259100.0
20
-227569.69
30
0
11
259100.0
21
-227600.0
31
0
0
LINE
8
water
10
284450.0
20
-214770.0
30
0
11
284480.31
21
-214770.0
31
0
0
LINE
8
water
10
284480.31
20
-214770.0
30
0
11
284419.69
21
-214770.0
31
0
0
LINE
8
water
10
284419.69
20
-214770.0
30
0
11
284450.0
21
-214770.0
31
0
0
LINE
8
water
10
284450.0
20
-227600.0
30
0
11
284450.0
21
-214770.0
31
0
0
LINE
8
water
10
284450.0
20
-227600.0
30
0
11
284480.31
21
-227600.0
31
0
0
LINE
8
water
10
284480.31
20
-227600.0
30
0
11
284419.69
21
-227600.0
31
0
0
LINE
8
water
10
284419.69
20
-227600.0
30
0
11
284450.0
21
-227600.0
31
0
0
LINE
8
water
10
284415.0
20
-214770.0
30
0
11
284467.5
21
-214739.69
31
0
0
LINE
8
water
10
284467.5
20
-214739.69
30
0
11
284467.5
21
-214800.31
31
0
0
LINE
8
water
10
284467.5
20
-214800.31
30
0
11
284415.0
21
-214770.0
31
0
0
LINE
8
water
10
259100.0
20
-227600.0
30
0
11
259137.8
21
-227600.0
31
0
0
LINE
8
water
10
259137.8
20
-227600.0
30
0
11
259100.0
21
-227600.0
31
0
0
LINE
8
water
10
284450.0
20
-227600.0
30
0
11
284487.8
21
-227600.0
31
0
0
LINE
8
water
10
284487.8
20
-227600.0
30
0
11
284450.0
21
-227600.0
31
0
0
LINE
8
water
10
284450.0
20
-214770.0
30
0
11
284487.8
21
-214770.0
31
0
0
LINE
8
water
10
284487.8
20
-214770.0
30
0
11
284450.0
21
-214770.0
31
0
0
LINE
8
water
10
267114.0
20
-227600.0
30
0
11
267114.0
21
-227675.0
31
0
0
LINE
8
water
10
267114.0
20
-227675.0
30
0
11
267114.0
21
-227600.0
31
0
0
LINE
8
water
10
267114.0
20
-227600.0
30
0
11
267114.0
21
-227525.0
31
0
0
LINE
8
water
10
267114.0
20
-227525.0
30
0
11
267114.0
21
-227600.0
31
0
0
LINE
8
water
10
266714.0
20
-227600.0
30
0
11
267114.0
21
-227600.0
31
0
0
LINE
8
water
10
266714.0
20
-227600.0
30
0
11
266714.0
21
-227675.0
31
0
0
LINE
8
water
10
266714.0
20
-227675.0
30
0
11
266714.0
21
-227600.0
31
0
0
LINE
8
water
10
266714.0
20
-227600.0
30
0
11
266714.0
21
-227525.0
31
0
0
LINE
8
water
10
266714.0
20
-227525.0
30
0
11
266714.0
21
-227600.0
31
0
0
LINE
8
water
10
267004.0
20
-227600.0
30
0
11
266941.81
21
-227514.4
31
0
0
LINE
8
water
10
266941.81
20
-227514.4
30
0
11
266841.19
21
-227547.1
31
0
0
LINE
8
water
10
266841.19
20
-227547.1
30
0
11
266841.19
21
-227652.9
31
0
0
LINE
8
water
10
266841.19
20
-227652.9
30
0
11
266941.81
21
-227685.6
31
0
0
LINE
8
water
10
266941.81
20
-227685.6
30
0
11
267004.0
21
-227600.0
31
0
0
LINE
8
water
10
266724.0
20
-227625.0
30
0
11
266724.0
21
-227575.0
31
0
0
LINE
8
water
10
267104.0
20
-227625.0
30
0
11
267104.0
21
-227575.0
31
0
0
LINE
8
water
10
266724.0
20
-227625.0
30
0
11
267104.0
21
-227625.0
31
0
0
LINE
8
water
10
266724.0
20
-227575.0
30
0
11
267104.0
21
-227575.0
31
0
0
LINE
8
water
10
266789.0
20
-227600.0
30
0
11
266789.0
21
-227704.62
31
0
0
LINE
8
water
10
266789.0
20
-227704.62
30
0
11
266789.0
21
-227664.66
31
0
0
LINE
8
water
10
266789.0
20
-227664.66
30
0
11
266789.0
21
-227535.34
31
0
0
LINE
8
water
10
266789.0
20
-227535.34
30
0
11
266789.0
21
-227495.38
31
0
0
LINE
8
water
10
266789.0
20
-227495.38
30
0
11
266789.0
21
-227600.0
31
0
0
LINE
8
water
10
266764.0
20
-227600.0
30
0
11
266789.0
21
-227600.0
31
0
0
LINE
8
water
10
266764.0
20
-227600.0
30
0
11
266764.0
21
-227704.62
31
0
0
LINE
8
water
10
266764.0
20
-227704.62
30
0
11
266764.0
21
-227664.66
31
0
0
LINE
8
water
10
266764.0
20
-227664.66
30
0
11
266764.0
21
-227535.34
31
0
0
LINE
8
water
10
266764.0
20
-227535.34
30
0
11
266764.0
21
-227495.38
31
0
0
LINE
8
water
10
266764.0
20
-227495.38
30
0
11
266764.0
21
-227600.0
31
0
0
LINE
8
water
10
267089.0
20
-227600.0
30
0
11
267089.0
21
-227704.62
31
0
0
LINE
8
water
10
267089.0
20
-227704.62
30
0
11
267089.0
21
-227664.66
31
0
0
LINE
8
water
10
267089.0
20
-227664.66
30
0
11
267089.0
21
-227535.34
31
0
0
LINE
8
water
10
267089.0
20
-227535.34
30
0
11
267089.0
21
-227495.38
31
0
0
LINE
8
water
10
267089.0
20
-227495.38
30
0
11
267089.0
21
-227600.0
31
0
0
LINE
8
water
10
267064.0
20
-227600.0
30
0
11
267089.0
21
-227600.0
31
0
0
LINE
8
water
10
267064.0
20
-227600.0
30
0
11
267064.0
21
-227704.62
31
0
0
LINE
8
water
10
267064.0
20
-227704.62
30
0
11
267064.0
21
-227664.66
31
0
0
LINE
8
water
10
267064.0
20
-227664.66
30
0
11
267064.0
21
-227535.34
31
0
0
LINE
8
water
10
267064.0
20
-227535.34
30
0
11
267064.0
21
-227495.38
31
0
0
LINE
8
water
10
267064.0
20
-227495.38
30
0
11
267064.0
21
-227600.0
31
0
0
LINE
8
water
10
259450.0
20
-227600.0
30
0
11
259480.31
21
-227600.0
31
0
0
LINE
8
water
10
259480.31
20
-227600.0
30
0
11
259419.69
21
-227600.0
31
0
0
LINE
8
water
10
259419.69
20
-227600.0
30
0
11
259450.0
21
-227600.0
31
0
0
LINE
8
water
10
259450.0
20
-223500.0
30
0
11
259450.0
21
-227600.0
31
0
0
LINE
8
water
10
259450.0
20
-223500.0
30
0
11
259480.31
21
-223500.0
31
0
0
LINE
8
water
10
259480.31
20
-223500.0
30
0
11
259419.69
21
-223500.0
31
0
0
LINE
8
water
10
259419.69
20
-223500.0
30
0
11
259450.0
21
-223500.0
31
0
0
LINE
8
water
10
284330.0
20
-227600.0
30
0
11
284330.0
21
-227630.31
31
0
0
LINE
8
water
10
284330.0
20
-227630.31
30
0
11
284330.0
21
-227569.69
31
0
0
LINE
8
water
10
284330.0
20
-227569.69
30
0
11
284330.0
21
-227600.0
31
0
0
LINE
8
water
10
259450.0
20
-227600.0
30
0
11
284330.0
21
-227600.0
31
0
0
LINE
8
water
10
259450.0
20
-227600.0
30
0
11
259450.0
21
-227630.31
31
0
0
LINE
8
water
10
259450.0
20
-227630.31
30
0
11
259450.0
21
-227569.69
31
0
0
LINE
8
water
10
259450.0
20
-227569.69
30
0
11
259450.0
21
-227600.0
31
0
0
LINE
8
water
10
284330.0
20
-214770.0
30
0
11
284360.31
21
-214770.0
31
0
0
LINE
8
water
10
284360.31
20
-214770.0
30
0
11
284299.69
21
-214770.0
31
0
0
LINE
8
water
10
284299.69
20
-214770.0
30
0
11
284330.0
21
-214770.0
31
0
0
LINE
8
water
10
284330.0
20
-227600.0
30
0
11
284330.0
21
-214770.0
31
0
0
LINE
8
water
10
284330.0
20
-227600.0
30
0
11
284360.31
21
-227600.0
31
0
0
LINE
8
water
10
284360.31
20
-227600.0
30
0
11
284299.69
21
-227600.0
31
0
0
LINE
8
water
10
284299.69
20
-227600.0
30
0
11
284330.0
21
-227600.0
31
0
0
LINE
8
water
10
284295.0
20
-214770.0
30
0
11
284347.5
21
-214739.69
31
0
0
LINE
8
water
10
284347.5
20
-214739.69
30
0
11
284347.5
21
-214800.31
31
0
0
LINE
8
water
10
284347.5
20
-214800.31
30
0
11
284295.0
21
-214770.0
31
0
0
LINE
8
water
10
259450.0
20
-227600.0
30
0
11
259487.8
21
-227600.0
31
0
0
LINE
8
water
10
259487.8
20
-227600.0
30
0
11
259450.0
21
-227600.0
31
0
0
LINE
8
water
10
284330.0
20
-227600.0
30
0
11
284367.8
21
-227600.0
31
0
0
LINE
8
water
10
284367.8
20
-227600.0
30
0
11
284330.0
21
-227600.0
31
0
0
LINE
8
water
10
284330.0
20
-214770.0
30
0
11
284367.8
21
-214770.0
31
0
0
LINE
8
water
10
284367.8
20
-214770.0
30
0
11
284330.0
21
-214770.0
31
0
0
LINE
8
sensors
10
230540.0
20
-223680.0
30
0
11
230540.0
21
-223520.0
31
0
0
LINE
8
sensors
10
230640.0
20
-223680.0
30
0
11
230640.0
21
-223520.0
31
0
0
LINE
8
sensors
10
230540.0
20
-223680.0
30
0
11
230640.0
21
-223680.0
31
0
0
LINE
8
sensors
10
230540.0
20
-223520.0
30
0
11
230640.0
21
-223520.0
31
0
0
LINE
8
sensors
10
230645.0
20
-223655.0
30
0
11
230645.0
21
-223545.0
31
0
0
LINE
8
sensors
10
230665.0
20
-223655.0
30
0
11
230665.0
21
-223545.0
31
0
0
LINE
8
sensors
10
230645.0
20
-223655.0
30
0
11
230665.0
21
-223655.0
31
0
0
LINE
8
sensors
10
230645.0
20
-223545.0
30
0
11
230665.0
21
-223545.0
31
0
0
LINE
8
sensors
10
230540.0
20
-223380.0
30
0
11
230540.0
21
-223220.0
31
0
0
LINE
8
sensors
10
230640.0
20
-223380.0
30
0
11
230640.0
21
-223220.0
31
0
0
LINE
8
sensors
10
230540.0
20
-223380.0
30
0
11
230640.0
21
-223380.0
31
0
0
LINE
8
sensors
10
230540.0
20
-223220.0
30
0
11
230640.0
21
-223220.0
31
0
0
LINE
8
sensors
10
230645.0
20
-223355.0
30
0
11
230645.0
21
-223245.0
31
0
0
LINE
8
sensors
10
230665.0
20
-223355.0
30
0
11
230665.0
21
-223245.0
31
0
0
LINE
8
sensors
10
230645.0
20
-223355.0
30
0
11
230665.0
21
-223355.0
31
0
0
LINE
8
sensors
10
230645.0
20
-223245.0
30
0
11
230665.0
21
-223245.0
31
0
0
LINE
8
sensors
10
230540.0
20
-223080.0
30
0
11
230540.0
21
-222920.0
31
0
0
LINE
8
sensors
10
230640.0
20
-223080.0
30
0
11
230640.0
21
-222920.0
31
0
0
LINE
8
sensors
10
230540.0
20
-223080.0
30
0
11
230640.0
21
-223080.0
31
0
0
LINE
8
sensors
10
230540.0
20
-222920.0
30
0
11
230640.0
21
-222920.0
31
0
0
LINE
8
sensors
10
230645.0
20
-223055.0
30
0
11
230645.0
21
-222945.0
31
0
0
LINE
8
sensors
10
230665.0
20
-223055.0
30
0
11
230665.0
21
-222945.0
31
0
0
LINE
8
sensors
10
230645.0
20
-223055.0
30
0
11
230665.0
21
-223055.0
31
0
0
LINE
8
sensors
10
230645.0
20
-222945.0
30
0
11
230665.0
21
-222945.0
31
0
0
LINE
8
sensors
10
258080.0
20
-218000.0
30
0
11
258000.0
21
-217920.0
31
0
0
LINE
8
sensors
10
258000.0
20
-217920.0
30
0
11
257920.0
21
-218000.0
31
0
0
LINE
8
sensors
10
257920.0
20
-218000.0
30
0
11
258000.0
21
-218080.0
31
0
0
LINE
8
sensors
10
258000.0
20
-218080.0
30
0
11
258080.0
21
-218000.0
31
0
0
LINE
8
sensors
10
258000.0
20
-218000.0
30
0
11
258065.0
21
-218000.0
31
0
0
LINE
8
sensors
10
258065.0
20
-218000.0
30
0
11
258000.0
21
-218000.0
31
0
0
LINE
8
sensors
10
230540.0
20
-222480.0
30
0
11
230540.0
21
-222320.0
31
0
0
LINE
8
sensors
10
230640.0
20
-222480.0
30
0
11
230640.0
21
-222320.0
31
0
0
LINE
8
sensors
10
230540.0
20
-222480.0
30
0
11
230640.0
21
-222480.0
31
0
0
LINE
8
sensors
10
230540.0
20
-222320.0
30
0
11
230640.0
21
-222320.0
31
0
0
LINE
8
sensors
10
230645.0
20
-222455.0
30
0
11
230645.0
21
-222345.0
31
0
0
LINE
8
sensors
10
230665.0
20
-222455.0
30
0
11
230665.0
21
-222345.0
31
0
0
LINE
8
sensors
10
230645.0
20
-222455.0
30
0
11
230665.0
21
-222455.0
31
0
0
LINE
8
sensors
10
230645.0
20
-222345.0
30
0
11
230665.0
21
-222345.0
31
0
0
LINE
8
sensors
10
275687.5
20
-227600.0
30
0
11
275687.5
21
-227675.0
31
0
0
LINE
8
sensors
10
275687.5
20
-227675.0
30
0
11
275687.5
21
-227600.0
31
0
0
LINE
8
sensors
10
275687.5
20
-227600.0
30
0
11
275687.5
21
-227525.0
31
0
0
LINE
8
sensors
10
275687.5
20
-227525.0
30
0
11
275687.5
21
-227600.0
31
0
0
LINE
8
sensors
10
275467.5
20
-227600.0
30
0
11
275687.5
21
-227600.0
31
0
0
LINE
8
sensors
10
275467.5
20
-227600.0
30
0
11
275467.5
21
-227675.0
31
0
0
LINE
8
sensors
10
275467.5
20
-227675.0
30
0
11
275467.5
21
-227600.0
31
0
0
LINE
8
sensors
10
275467.5
20
-227600.0
30
0
11
275467.5
21
-227525.0
31
0
0
LINE
8
sensors
10
275467.5
20
-227525.0
30
0
11
275467.5
21
-227600.0
31
0
0
LINE
8
sensors
10
275497.5
20
-227670.0
30
0
11
275497.5
21
-227530.0
31
0
0
LINE
8
sensors
10
275657.5
20
-227670.0
30
0
11
275657.5
21
-227530.0
31
0
0
LINE
8
sensors
10
275497.5
20
-227670.0
30
0
11
275657.5
21
-227670.0
31
0
0
LINE
8
sensors
10
275497.5
20
-227530.0
30
0
11
275657.5
21
-227530.0
31
0
0
LINE
8
sensors
10
275732.0
20
-227600.0
30
0
11
275732.0
21
-227675.0
31
0
0
LINE
8
sensors
10
275732.0
20
-227675.0
30
0
11
275732.0
21
-227600.0
31
0
0
LINE
8
sensors
10
275732.0
20
-227600.0
30
0
11
275732.0
21
-227525.0
31
0
0
LINE
8
sensors
10
275732.0
20
-227525.0
30
0
11
275732.0
21
-227600.0
31
0
0
LINE
8
sensors
10
275512.0
20
-227600.0
30
0
11
275732.0
21
-227600.0
31
0
0
LINE
8
sensors
10
275512.0
20
-227600.0
30
0
11
275512.0
21
-227675.0
31
0
0
LINE
8
sensors
10
275512.0
20
-227675.0
30
0
11
275512.0
21
-227600.0
31
0
0
LINE
8
sensors
10
275512.0
20
-227600.0
30
0
11
275512.0
21
-227525.0
31
0
0
LINE
8
sensors
10
275512.0
20
-227525.0
30
0
11
275512.0
21
-227600.0
31
0
0
LINE
8
sensors
10
275542.0
20
-227670.0
30
0
11
275542.0
21
-227530.0
31
0
0
LINE
8
sensors
10
275702.0
20
-227670.0
30
0
11
275702.0
21
-227530.0
31
0
0
LINE
8
sensors
10
275542.0
20
-227670.0
30
0
11
275702.0
21
-227670.0
31
0
0
LINE
8
sensors
10
275542.0
20
-227530.0
30
0
11
275702.0
21
-227530.0
31
0
0
ENDSEC
0
EOF
