0
SECTION
2
HEADER
9
$ACADVER
1
AC1015
9
$INSUNITS
70
4
0
ENDSEC
0
SECTION
2
ENTITIES
0
LINE
8
interiors
10
208000.0
20
-193500.0
30
0
11
208000.0
21
-178500.0
31
0
0
LINE
8
interiors
10
208000.0
20
-193500.0
30
0
11
256800.0
21
-193500.0
31
0
0
LINE
8
interiors
10
256800.0
20
-193500.0
30
0
11
259200.0
21
-193500.0
31
0
0
LINE
8
interiors
10
259200.0
20
-193500.0
30
0
11
308000.0
21
-193500.0
31
0
0
LINE
8
interiors
10
208000.0
20
-193500.0
30
0
11
308000.0
21
-193500.0
31
0
0
LINE
8
interiors
10
208000.0
20
-178500.0
30
0
11
308000.0
21
-178500.0
31
0
0
LINE
8
interiors
10
308000.0
20
-193500.0
30
0
11
308000.0
21
-178500.0
31
0
0
LINE
8
interiors
10
307880.0
20
-193380.0
30
0
11
208120.0
21
-193380.0
31
0
0
LINE
8
interiors
10
307880.0
20
-193380.0
30
0
11
307880.0
21
-178620.0
31
0
0
LINE
8
interiors
10
307880.0
20
-178620.0
30
0
11
208120.0
21
-178620.0
31
0
0
LINE
8
interiors
10
208120.0
20
-193380.0
30
0
11
208120.0
21
-178620.0
31
0
0
LINE
8
interiors
10
232000.0
20
-178500.0
30
0
11
284000.0
21
-178500.0
31
0
0
LINE
8
interiors
10
259200.0
20
-193500.0
30
0
11
259200.0
21
-193380.0
31
0
0
LINE
8
interiors
10
307880.0
20
-193380.0
30
0
11
259200.0
21
-193380.0
31
0
0
LINE
8
interiors
10
256800.0
20
-193380.0
30
0
11
208120.0
21
-193380.0
31
0
0
LINE
8
interiors
10
256800.0
20
-193500.0
30
0
11
256800.0
21
-193380.0
31
0
0
LINE
8
interiors
10
256800.0
20
-193380.0
30
0
11
259200.0
21
-193380.0
31
0
0
LINE
8
interiors
10
232000.0
20
-178620.0
30
0
11
284000.0
21
-178620.0
31
0
0
LINE
8
interiors
10
232000.0
20
-178620.0
30
0
11
232000.0
21
-178500.0
31
0
0
LINE
8
interiors
10
284000.0
20
-178620.0
30
0
11
284000.0
21
-178500.0
31
0
0
LINE
8
interiors
10
232000.0
20
-178522.5
30
0
11
232000.0
21
-178477.5
31
0
0
LINE
8
interiors
10
284000.0
20
-178522.5
30
0
11
284000.0
21
-178477.5
31
0
0
LINE
8
interiors
10
232000.0
20
-178522.5
30
0
11
284000.0
21
-178522.5
31
0
0
LINE
8
interiors
10
232000.0
20
-178477.5
30
0
11
284000.0
21
-178477.5
31
0
0
LINE
8
interiors
10
208125.0
20
-193375.0
30
0
11
208125.0
21
-178625.0
31
0
0
LINE
8
interiors
10
307875.0
20
-193375.0
30
0
11
307875.0
21
-178625.0
31
0
0
LINE
8
interiors
10
208125.0
20
-193375.0
30
0
11
307875.0
21
-193375.0
31
0
0
LINE
8
interiors
10
208125.0
20
-178625.0
30
0
11
307875.0
21
-178625.0
31
0
0
LINE
8
interiors
10
256845.0
20
-193620.0
30
0
11
256845.0
21
-193380.0
31
0
0
LINE
8
interiors
10
256915.0
20
-193620.0
30
0
11
256915.0
21
-193380.0
31
0
0
LINE
8
interiors
10
256845.0
20
-193620.0
30
0
11
256915.0
21
-193620.0
31
0
0
LINE
8
interiors
10
256845.0
20
-193380.0
30
0
11
256915.0
21
-193380.0
31
0
0
LINE
8
interiors
10
259085.0
20
-193620.0
30
0
11
259085.0
21
-193380.0
31
0
0
LINE
8
interiors
10
259155.0
20
-193620.0
30
0
11
259155.0
21
-193380.0
31
0
0
LINE
8
interiors
10
259085.0
20
-193620.0
30
0
11
259155.0
21
-193620.0
31
0
0
LINE
8
interiors
10
259085.0
20
-193380.0
30
0
11
259155.0
21
-193380.0
31
0
0
LINE
8
interiors
10
256850.0
20
-193620.0
30
0
11
256850.0
21
-193380.0
31
0
0
LINE
8
interiors
10
259150.0
20
-193620.0
30
0
11
259150.0
21
-193380.0
31
0
0
LINE
8
interiors
10
256850.0
20
-193620.0
30
0
11
259150.0
21
-193620.0
31
0
0
LINE
8
interiors
10
256850.0
20
-193380.0
30
0
11
259150.0
21
-193380.0
31
0
0
LINE
8
interiors
10
256930.39
20
-193409.51
30
0
11
256889.61
21
-193390.49
31
0
0
LINE
8
interiors
10
257386.82
20
-192430.7
30
0
11
257346.04
21
-192411.68
31
0
0
LINE
8
interiors
10
256930.39
20
-193409.51
30
0
11
257386.82
21
-192430.7
31
0
0
LINE
8
interiors
10
256889.61
20
-193390.49
30
0
11
257346.04
21
-192411.68
31
0
0
LINE
8
interiors
10
235100.0
20
-189750.0
30
0
11
235100.0
21
-188850.0
31
0
0
LINE
8
interiors
10
236900.0
20
-189750.0
30
0
11
236900.0
21
-188850.0
31
0
0
LINE
8
interiors
10
235100.0
20
-189750.0
30
0
11
236900.0
21
-189750.0
31
0
0
LINE
8
interiors
10
235100.0
20
-188850.0
30
0
11
236900.0
21
-188850.0
31
0
0
LINE
8
interiors
10
235165.0
20
-189685.0
30
0
11
235165.0
21
-189615.0
31
0
0
LINE
8
interiors
10
235235.0
20
-189685.0
30
0
11
235235.0
21
-189615.0
31
0
0
LINE
8
interiors
10
235165.0
20
-189685.0
30
0
11
235235.0
21
-189685.0
31
0
0
LINE
8
interiors
10
235165.0
20
-189615.0
30
0
11
235235.0
21
-189615.0
31
0
0
LINE
8
interiors
10
235165.0
20
-188985.0
30
0
11
235165.0
21
-188915.0
31
0
0
LINE
8
interiors
10
235235.0
20
-188985.0
30
0
11
235235.0
21
-188915.0
31
0
0
LINE
8
interiors
10
235165.0
20
-188985.0
30
0
11
235235.0
21
-188985.0
31
0
0
LINE
8
interiors
10
235165.0
20
-188915.0
30
0
11
235235.0
21
-188915.0
31
0
0
LINE
8
interiors
10
236765.0
20
-189685.0
30
0
11
236765.0
21
-189615.0
31
0
0
LINE
8
interiors
10
236835.0
20
-189685.0
30
0
11
236835.0
21
-189615.0
31
0
0
LINE
8
interiors
10
236765.0
20
-189685.0
30
0
11
236835.0
21
-189685.0
31
0
0
LINE
8
interiors
10
236765.0
20
-189615.0
30
0
11
236835.0
21
-189615.0
31
0
0
LINE
8
interiors
10
236765.0
20
-188985.0
30
0
11
236765.0
21
-188915.0
31
0
0
LINE
8
interiors
10
236835.0
20
-188985.0
30
0
11
236835.0
21
-188915.0
31
0
0
LINE
8
interiors
10
236765.0
20
-188985.0
30
0
11
236835.0
21
-188985.0
31
0
0
LINE
8
interiors
10
236765.0
20
-188915.0
30
0
11
236835.0
21
-188915.0
31
0
0
LINE
8
interiors
10
235760.0
20
-190290.0
30
0
11
235760.0
21
-189810.0
31
0
0
LINE
8
interiors
10
236240.0
20
-190290.0
30
0
11
236240.0
21
-189810.0
31
0
0
LINE
8
interiors
10
235760.0
20
-190290.0
30
0
11
236240.0
21
-190290.0
31
0
0
LINE
8
interiors
10
235760.0
20
-189810.0
30
0
11
236240.0
21
-189810.0
31
0
0
LINE
8
interiors
10
235760.0
20
-189872.5
30
0
11
235760.0
21
-189807.5
31
0
0
LINE
8
interiors
10
236240.0
20
-189872.5
30
0
11
236240.0
21
-189807.5
31
0
0
LINE
8
interiors
10
235760.0
20
-189872.5
30
0
11
236240.0
21
-189872.5
31
0
0
LINE
8
interiors
10
235760.0
20
-189807.5
30
0
11
236240.0
21
-189807.5
31
0
0
LINE
8
interiors
10
235792.5
20
-190257.5
30
0
11
235792.5
21
-190222.5
31
0
0
LINE
8
interiors
10
235827.5
20
-190257.5
30
0
11
235827.5
21
-190222.5
31
0
0
LINE
8
interiors
10
235792.5
20
-190257.5
30
0
11
235827.5
21
-190257.5
31
0
0
LINE
8
interiors
10
235792.5
20
-190222.5
30
0
11
235827.5
21
-190222.5
31
0
0
LINE
8
interiors
10
235792.5
20
-189877.5
30
0
11
235792.5
21
-189842.5
31
0
0
LINE
8
interiors
10
235827.5
20
-189877.5
30
0
11
235827.5
21
-189842.5
31
0
0
LINE
8
interiors
10
235792.5
20
-189877.5
30
0
11
235827.5
21
-189877.5
31
0
0
LINE
8
interiors
10
235792.5
20
-189842.5
30
0
11
235827.5
21
-189842.5
31
0
0
LINE
8
interiors
10
236172.5
20
-190257.5
30
0
11
236172.5
21
-190222.5
31
0
0
LINE
8
interiors
10
236207.5
20
-190257.5
30
0
11
236207.5
21
-190222.5
31
0
0
LINE
8
interiors
10
236172.5
20
-190257.5
30
0
11
236207.5
21
-190257.5
31
0
0
LINE
8
interiors
10
236172.5
20
-190222.5
30
0
11
236207.5
21
-190222.5
31
0
0
LINE
8
interiors
10
236172.5
20
-189877.5
30
0
11
236172.5
21
-189842.5
31
0
0
LINE
8
interiors
10
236207.5
20
-189877.5
30
0
11
236207.5
21
-189842.5
31
0
0
LINE
8
interiors
10
236172.5
20
-189877.5
30
0
11
236207.5
21
-189877.5
31
0
0
LINE
8
interiors
10
236172.5
20
-189842.5
30
0
11
236207.5
21
-189842.5
31
0
0
LINE
8
interiors
10
235700.0
20
-189110.0
30
0
11
235700.0
21
-189050.0
31
0
0
LINE
8
interiors
10
236300.0
20
-189110.0
30
0
11
236300.0
21
-189050.0
31
0
0
LINE
8
interiors
10
235700.0
20
-189110.0
30
0
11
236300.0
21
-189110.0
31
0
0
LINE
8
interiors
10
235700.0
20
-189050.0
30
0
11
236300.0
21
-189050.0
31
0
0
LINE
8
interiors
10
235970.0
20
-189115.0
30
0
11
235970.0
21
-189045.0
31
0
0
LINE
8
interiors
10
236030.0
20
-189115.0
30
0
11
236030.0
21
-189045.0
31
0
0
LINE
8
interiors
10
235970.0
20
-189115.0
30
0
11
236030.0
21
-189115.0
31
0
0
LINE
8
interiors
10
235970.0
20
-189045.0
30
0
11
236030.0
21
-189045.0
31
0
0
LINE
8
interiors
10
235850.0
20
-189190.0
30
0
11
235850.0
21
-188970.0
31
0
0
LINE
8
interiors
10
236150.0
20
-189190.0
30
0
11
236150.0
21
-188970.0
31
0
0
LINE
8
interiors
10
235850.0
20
-189190.0
30
0
11
236150.0
21
-189190.0
31
0
0
LINE
8
interiors
10
235850.0
20
-188970.0
30
0
11
236150.0
21
-188970.0
31
0
0
LINE
8
interiors
10
279100.0
20
-189750.0
30
0
11
279100.0
21
-188850.0
31
0
0
LINE
8
interiors
10
280900.0
20
-189750.0
30
0
11
280900.0
21
-188850.0
31
0
0
LINE
8
interiors
10
279100.0
20
-189750.0
30
0
11
280900.0
21
-189750.0
31
0
0
LINE
8
interiors
10
279100.0
20
-188850.0
30
0
11
280900.0
21
-188850.0
31
0
0
LINE
8
interiors
10
279165.0
20
-189685.0
30
0
11
279165.0
21
-189615.0
31
0
0
LINE
8
interiors
10
279235.0
20
-189685.0
30
0
11
279235.0
21
-189615.0
31
0
0
LINE
8
interiors
10
279165.0
20
-189685.0
30
0
11
279235.0
21
-189685.0
31
0
0
LINE
8
interiors
10
279165.0
20
-189615.0
30
0
11
279235.0
21
-189615.0
31
0
0
LINE
8
interiors
10
279165.0
20
-188985.0
30
0
11
279165.0
21
-188915.0
31
0
0
LINE
8
interiors
10
279235.0
20
-188985.0
30
0
11
279235.0
21
-188915.0
31
0
0
LINE
8
interiors
10
279165.0
20
-188985.0
30
0
11
279235.0
21
-188985.0
31
0
0
LINE
8
interiors
10
279165.0
20
-188915.0
30
0
11
279235.0
21
-188915.0
31
0
0
LINE
8
interiors
10
280765.0
20
-189685.0
30
0
11
280765.0
21
-189615.0
31
0
0
LINE
8
interiors
10
280835.0
20
-189685.0
30
0
11
280835.0
21
-189615.0
31
0
0
LINE
8
interiors
10
280765.0
20
-189685.0
30
0
11
280835.0
21
-189685.0
31
0
0
LINE
8
interiors
10
280765.0
20
-189615.0
30
0
11
280835.0
21
-189615.0
31
0
0
LINE
8
interiors
10
280765.0
20
-188985.0
30
0
11
280765.0
21
-188915.0
31
0
0
LINE
8
interiors
10
280835.0
20
-188985.0
30
0
11
280835.0
21
-188915.0
31
0
0
LINE
8
interiors
10
280765.0
20
-188985.0
30
0
11
280835.0
21
-188985.0
31
0
0
LINE
8
interiors
10
280765.0
20
-188915.0
30
0
11
280835.0
21
-188915.0
31
0
0
LINE
8
interiors
10
279760.0
20
-190290.0
30
0
11
279760.0
21
-189810.0
31
0
0
LINE
8
interiors
10
280240.0
20
-190290.0
30
0
11
280240.0
21
-189810.0
31
0
0
LINE
8
interiors
10
279760.0
20
-190290.0
30
0
11
280240.0
21
-190290.0
31
0
0
LINE
8
interiors
10
279760.0
20
-189810.0
30
0
11
280240.0
21
-189810.0
31
0
0
LINE
8
interiors
10
279760.0
20
-189872.5
30
0
11
279760.0
21
-189807.5
31
0
0
LINE
8
interiors
10
280240.0
20
-189872.5
30
0
11
280240.0
21
-189807.5
31
0
0
LINE
8
interiors
10
279760.0
20
-189872.5
30
0
11
280240.0
21
-189872.5
31
0
0
LINE
8
interiors
10
279760.0
20
-189807.5
30
0
11
280240.0
21
-189807.5
31
0
0
LINE
8
interiors
10
279792.5
20
-190257.5
30
0
11
279792.5
21
-190222.5
31
0
0
LINE
8
interiors
10
279827.5
20
-190257.5
30
0
11
279827.5
21
-190222.5
31
0
0
LINE
8
interiors
10
279792.5
20
-190257.5
30
0
11
279827.5
21
-190257.5
31
0
0
LINE
8
interiors
10
279792.5
20
-190222.5
30
0
11
279827.5
21
-190222.5
31
0
0
LINE
8
interiors
10
279792.5
20
-189877.5
30
0
11
279792.5
21
-189842.5
31
0
0
LINE
8
interiors
10
279827.5
20
-189877.5
30
0
11
279827.5
21
-189842.5
31
0
0
LINE
8
interiors
10
279792.5
20
-189877.5
30
0
11
279827.5
21
-189877.5
31
0
0
LINE
8
interiors
10
279792.5
20
-189842.5
30
0
11
279827.5
21
-189842.5
31
0
0
LINE
8
interiors
10
280172.5
20
-190257.5
30
0
11
280172.5
21
-190222.5
31
0
0
LINE
8
interiors
10
280207.5
20
-190257.5
30
0
11
280207.5
21
-190222.5
31
0
0
LINE
8
interiors
10
280172.5
20
-190257.5
30
0
11
280207.5
21
-190257.5
31
0
0
LINE
8
interiors
10
280172.5
20
-190222.5
30
0
11
280207.5
21
-190222.5
31
0
0
LINE
8
interiors
10
280172.5
20
-189877.5
30
0
11
280172.5
21
-189842.5
31
0
0
LINE
8
interiors
10
280207.5
20
-189877.5
30
0
11
280207.5
21
-189842.5
31
0
0
LINE
8
interiors
10
280172.5
20
-189877.5
30
0
11
280207.5
21
-189877.5
31
0
0
LINE
8
interiors
10
280172.5
20
-189842.5
30
0
11
280207.5
21
-189842.5
31
0
0
LINE
8
interiors
10
279700.0
20
-189110.0
30
0
11
279700.0
21
-189050.0
31
0
0
LINE
8
interiors
10
280300.0
20
-189110.0
30
0
11
280300.0
21
-189050.0
31
0
0
LINE
8
interiors
10
279700.0
20
-189110.0
30
0
11
280300.0
21
-189110.0
31
0
0
LINE
8
interiors
10
279700.0
20
-189050.0
30
0
11
280300.0
21
-189050.0
31
0
0
LINE
8
interiors
10
279970.0
20
-189115.0
30
0
11
279970.0
21
-189045.0
31
0
0
LINE
8
interiors
10
280030.0
20
-189115.0
30
0
11
280030.0
21
-189045.0
31
0
0
LINE
8
interiors
10
279970.0
20
-189115.0
30
0
11
280030.0
21
-189115.0
31
0
0
LINE
8
interiors
10
279970.0
20
-189045.0
30
0
11
280030.0
21
-189045.0
31
0
0
LINE
8
interiors
10
279850.0
20
-189190.0
30
0
11
279850.0
21
-188970.0
31
0
0
LINE
8
interiors
10
280150.0
20
-189190.0
30
0
11
280150.0
21
-188970.0
31
0
0
LINE
8
interiors
10
279850.0
20
-189190.0
30
0
11
280150.0
21
-189190.0
31
0
0
LINE
8
interiors
10
279850.0
20
-188970.0
30
0
11
280150.0
21
-188970.0
31
0
0
LINE
8
interiors
10
235100.0
20
-183150.0
30
0
11
235100.0
21
-182250.0
31
0
0
LINE
8
interiors
10
236900.0
20
-183150.0
30
0
11
236900.0
21
-182250.0
31
0
0
LINE
8
interiors
10
235100.0
20
-183150.0
30
0
11
236900.0
21
-183150.0
31
0
0
LINE
8
interiors
10
235100.0
20
-182250.0
30
0
11
236900.0
21
-182250.0
31
0
0
LINE
8
interiors
10
235165.0
20
-183085.0
30
0
11
235165.0
21
-183015.0
31
0
0
LINE
8
interiors
10
235235.0
20
-183085.0
30
0
11
235235.0
21
-183015.0
31
0
0
LINE
8
interiors
10
235165.0
20
-183085.0
30
0
11
235235.0
21
-183085.0
31
0
0
LINE
8
interiors
10
235165.0
20
-183015.0
30
0
11
235235.0
21
-183015.0
31
0
0
LINE
8
interiors
10
235165.0
20
-182385.0
30
0
11
235165.0
21
-182315.0
31
0
0
LINE
8
interiors
10
235235.0
20
-182385.0
30
0
11
235235.0
21
-182315.0
31
0
0
LINE
8
interiors
10
235165.0
20
-182385.0
30
0
11
235235.0
21
-182385.0
31
0
0
LINE
8
interiors
10
235165.0
20
-182315.0
30
0
11
235235.0
21
-182315.0
31
0
0
LINE
8
interiors
10
236765.0
20
-183085.0
30
0
11
236765.0
21
-183015.0
31
0
0
LINE
8
interiors
10
236835.0
20
-183085.0
30
0
11
236835.0
21
-183015.0
31
0
0
LINE
8
interiors
10
236765.0
20
-183085.0
30
0
11
236835.0
21
-183085.0
31
0
0
LINE
8
interiors
10
236765.0
20
-183015.0
30
0
11
236835.0
21
-183015.0
31
0
0
LINE
8
interiors
10
236765.0
20
-182385.0
30
0
11
236765.0
21
-182315.0
31
0
0
LINE
8
interiors
10
236835.0
20
-182385.0
30
0
11
236835.0
21
-182315.0
31
0
0
LINE
8
interiors
10
236765.0
20
-182385.0
30
0
11
236835.0
21
-182385.0
31
0
0
LINE
8
interiors
10
236765.0
20
-182315.0
30
0
11
236835.0
21
-182315.0
31
0
0
LINE
8
interiors
10
235760.0
20
-183690.0
30
0
11
235760.0
21
-183210.0
31
0
0
LINE
8
interiors
10
236240.0
20
-183690.0
30
0
11
236240.0
21
-183210.0
31
0
0
LINE
8
interiors
10
235760.0
20
-183690.0
30
0
11
236240.0
21
-183690.0
31
0
0
LINE
8
interiors
10
235760.0
20
-183210.0
30
0
11
236240.0
21
-183210.0
31
0
0
LINE
8
interiors
10
235760.0
20
-183272.5
30
0
11
235760.0
21
-183207.5
31
0
0
LINE
8
interiors
10
236240.0
20
-183272.5
30
0
11
236240.0
21
-183207.5
31
0
0
LINE
8
interiors
10
235760.0
20
-183272.5
30
0
11
236240.0
21
-183272.5
31
0
0
LINE
8
interiors
10
235760.0
20
-183207.5
30
0
11
236240.0
21
-183207.5
31
0
0
LINE
8
interiors
10
235792.5
20
-183657.5
30
0
11
235792.5
21
-183622.5
31
0
0
LINE
8
interiors
10
235827.5
20
-183657.5
30
0
11
235827.5
21
-183622.5
31
0
0
LINE
8
interiors
10
235792.5
20
-183657.5
30
0
11
235827.5
21
-183657.5
31
0
0
LINE
8
interiors
10
235792.5
20
-183622.5
30
0
11
235827.5
21
-183622.5
31
0
0
LINE
8
interiors
10
235792.5
20
-183277.5
30
0
11
235792.5
21
-183242.5
31
0
0
LINE
8
interiors
10
235827.5
20
-183277.5
30
0
11
235827.5
21
-183242.5
31
0
0
LINE
8
interiors
10
235792.5
20
-183277.5
30
0
11
235827.5
21
-183277.5
31
0
0
LINE
8
interiors
10
235792.5
20
-183242.5
30
0
11
235827.5
21
-183242.5
31
0
0
LINE
8
interiors
10
236172.5
20
-183657.5
30
0
11
236172.5
21
-183622.5
31
0
0
LINE
8
interiors
10
236207.5
20
-183657.5
30
0
11
236207.5
21
-183622.5
31
0
0
LINE
8
interiors
10
236172.5
20
-183657.5
30
0
11
236207.5
21
-183657.5
31
0
0
LINE
8
interiors
10
236172.5
20
-183622.5
30
0
11
236207.5
21
-183622.5
31
0
0
LINE
8
interiors
10
236172.5
20
-183277.5
30
0
11
236172.5
21
-183242.5
31
0
0
LINE
8
interiors
10
236207.5
20
-183277.5
30
0
11
236207.5
21
-183242.5
31
0
0
LINE
8
interiors
10
236172.5
20
-183277.5
30
0
11
236207.5
21
-183277.5
31
0
0
LINE
8
interiors
10
236172.5
20
-183242.5
30
0
11
236207.5
21
-183242.5
31
0
0
LINE
8
interiors
10
235700.0
20
-182510.0
30
0
11
235700.0
21
-182450.0
31
0
0
LINE
8
interiors
10
236300.0
20
-182510.0
30
0
11
236300.0
21
-182450.0
31
0
0
LINE
8
interiors
10
235700.0
20
-182510.0
30
0
11
236300.0
21
-182510.0
31
0
0
LINE
8
interiors
10
235700.0
20
-182450.0
30
0
11
236300.0
21
-182450.0
31
0
0
LINE
8
interiors
10
235970.0
20
-182515.0
30
0
11
235970.0
21
-182445.0
31
0
0
LINE
8
interiors
10
236030.0
20
-182515.0
30
0
11
236030.0
21
-182445.0
31
0
0
LINE
8
interiors
10
235970.0
20
-182515.0
30
0
11
236030.0
21
-182515.0
31
0
0
LINE
8
interiors
10
235970.0
20
-182445.0
30
0
11
236030.0
21
-182445.0
31
0
0
LINE
8
interiors
10
235850.0
20
-182590.0
30
0
11
235850.0
21
-182370.0
31
0
0
LINE
8
interiors
10
236150.0
20
-182590.0
30
0
11
236150.0
21
-182370.0
31
0
0
LINE
8
interiors
10
235850.0
20
-182590.0
30
0
11
236150.0
21
-182590.0
31
0
0
LINE
8
interiors
10
235850.0
20
-182370.0
30
0
11
236150.0
21
-182370.0
31
0
0
LINE
8
interiors
10
279100.0
20
-183150.0
30
0
11
279100.0
21
-182250.0
31
0
0
LINE
8
interiors
10
280900.0
20
-183150.0
30
0
11
280900.0
21
-182250.0
31
0
0
LINE
8
interiors
10
279100.0
20
-183150.0
30
0
11
280900.0
21
-183150.0
31
0
0
LINE
8
interiors
10
279100.0
20
-182250.0
30
0
11
280900.0
21
-182250.0
31
0
0
LINE
8
interiors
10
279165.0
20
-183085.0
30
0
11
279165.0
21
-183015.0
31
0
0
LINE
8
interiors
10
279235.0
20
-183085.0
30
0
11
279235.0
21
-183015.0
31
0
0
LINE
8
interiors
10
279165.0
20
-183085.0
30
0
11
279235.0
21
-183085.0
31
0
0
LINE
8
interiors
10
279165.0
20
-183015.0
30
0
11
279235.0
21
-183015.0
31
0
0
LINE
8
interiors
10
279165.0
20
-182385.0
30
0
11
279165.0
21
-182315.0
31
0
0
LINE
8
interiors
10
279235.0
20
-182385.0
30
0
11
279235.0
21
-182315.0
31
0
0
LINE
8
interiors
10
279165.0
20
-182385.0
30
0
11
279235.0
21
-182385.0
31
0
0
LINE
8
interiors
10
279165.0
20
-182315.0
30
0
11
279235.0
21
-182315.0
31
0
0
LINE
8
interiors
10
280765.0
20
-183085.0
30
0
11
280765.0
21
-183015.0
31
0
0
LINE
8
interiors
10
280835.0
20
-183085.0
30
0
11
280835.0
21
-183015.0
31
0
0
LINE
8
interiors
10
280765.0
20
-183085.0
30
0
11
280835.0
21
-183085.0
31
0
0
LINE
8
interiors
10
280765.0
20
-183015.0
30
0
11
280835.0
21
-183015.0
31
0
0
LINE
8
interiors
10
280765.0
20
-182385.0
30
0
11
280765.0
21
-182315.0
31
0
0
LINE
8
interiors
10
280835.0
20
-182385.0
30
0
11
280835.0
21
-182315.0
31
0
0
LINE
8
interiors
10
280765.0
20
-182385.0
30
0
11
280835.0
21
-182385.0
31
0
0
LINE
8
interiors
10
280765.0
20
-182315.0
30
0
11
280835.0
21
-182315.0
31
0
0
LINE
8
interiors
10
279760.0
20
-183690.0
30
0
11
279760.0
21
-183210.0
31
0
0
LINE
8
interiors
10
280240.0
20
-183690.0
30
0
11
280240.0
21
-183210.0
31
0
0
LINE
8
interiors
10
279760.0
20
-183690.0
30
0
11
280240.0
21
-183690.0
31
0
0
LINE
8
interiors
10
279760.0
20
-183210.0
30
0
11
280240.0
21
-183210.0
31
0
0
LINE
8
interiors
10
279760.0
20
-183272.5
30
0
11
279760.0
21
-183207.5
31
0
0
LINE
8
interiors
10
280240.0
20
-183272.5
30
0
11
280240.0
21
-183207.5
31
0
0
LINE
8
interiors
10
279760.0
20
-183272.5
30
0
11
280240.0
21
-183272.5
31
0
0
LINE
8
interiors
10
279760.0
20
-183207.5
30
0
11
280240.0
21
-183207.5
31
0
0
LINE
8
interiors
10
279792.5
20
-183657.5
30
0
11
279792.5
21
-183622.5
31
0
0
LINE
8
interiors
10
279827.5
20
-183657.5
30
0
11
279827.5
21
-183622.5
31
0
0
LINE
8
interiors
10
279792.5
20
-183657.5
30
0
11
279827.5
21
-183657.5
31
0
0
LINE
8
interiors
10
279792.5
20
-183622.5
30
0
11
279827.5
21
-183622.5
31
0
0
LINE
8
interiors
10
279792.5
20
-183277.5
30
0
11
279792.5
21
-183242.5
31
0
0
LINE
8
interiors
10
279827.5
20
-183277.5
30
0
11
279827.5
21
-183242.5
31
0
0
LINE
8
interiors
10
279792.5
20
-183277.5
30
0
11
279827.5
21
-183277.5
31
0
0
LINE
8
interiors
10
279792.5
20
-183242.5
30
0
11
279827.5
21
-183242.5
31
0
0
LINE
8
interiors
10
280172.5
20
-183657.5
30
0
11
280172.5
21
-183622.5
31
0
0
LINE
8
interiors
10
280207.5
20
-183657.5
30
0
11
280207.5
21
-183622.5
31
0
0
LINE
8
interiors
10
280172.5
20
-183657.5
30
0
11
280207.5
21
-183657.5
31
0
0
LINE
8
interiors
10
280172.5
20
-183622.5
30
0
11
280207.5
21
-183622.5
31
0
0
LINE
8
interiors
10
280172.5
20
-183277.5
30
0
11
280172.5
21
-183242.5
31
0
0
LINE
8
interiors
10
280207.5
20
-183277.5
30
0
11
280207.5
21
-183242.5
31
0
0
LINE
8
interiors
10
280172.5
20
-183277.5
30
0
11
280207.5
21
-183277.5
31
0
0
LINE
8
interiors
10
280172.5
20
-183242.5
30
0
11
280207.5
21
-183242.5
31
0
0
LINE
8
interiors
10
279700.0
20
-182510.0
30
0
11
279700.0
21
-182450.0
31
0
0
LINE
8
interiors
10
280300.0
20
-182510.0
30
0
11
280300.0
21
-182450.0
31
0
0
LINE
8
interiors
10
279700.0
20
-182510.0
30
0
11
280300.0
21
-182510.0
31
0
0
LINE
8
interiors
10
279700.0
20
-182450.0
30
0
11
280300.0
21
-182450.0
31
0
0
LINE
8
interiors
10
279970.0
20
-182515.0
30
0
11
279970.0
21
-182445.0
31
0
0
LINE
8
interiors
10
280030.0
20
-182515.0
30
0
11
280030.0
21
-182445.0
31
0
0
LINE
8
interiors
10
279970.0
20
-182515.0
30
0
11
280030.0
21
-182515.0
31
0
0
LINE
8
interiors
10
279970.0
20
-182445.0
30
0
11
280030.0
21
-182445.0
31
0
0
LINE
8
interiors
10
279850.0
20
-182590.0
30
0
11
279850.0
21
-182370.0
31
0
0
LINE
8
interiors
10
280150.0
20
-182590.0
30
0
11
280150.0
21
-182370.0
31
0
0
LINE
8
interiors
10
279850.0
20
-182590.0
30
0
11
280150.0
21
-182590.0
31
0
0
LINE
8
interiors
10
279850.0
20
-182370.0
30
0
11
280150.0
21
-182370.0
31
0
0
LINE
8
electrical
10
307275.0
20
-193425.0
30
0
11
307275.0
21
-193175.0
31
0
0
LINE
8
electrical
10
307825.0
20
-193425.0
30
0
11
307825.0
21
-193175.0
31
0
0
LINE
8
electrical
10
307275.0
20
-193425.0
30
0
11
307825.0
21
-193425.0
31
0
0
LINE
8
electrical
10
307275.0
20
-193175.0
30
0
11
307825.0
21
-193175.0
31
0
0
LINE
8
electrical
10
307315.0
20
-193452.5
30
0
11
307315.0
21
-193417.5
31
0
0
LINE
8
electrical
10
307785.0
20
-193452.5
30
0
11
307785.0
21
-193417.5
31
0
0
LINE
8
electrical
10
307315.0
20
-193452.5
30
0
11
307785.0
21
-193452.5
31
0
0
LINE
8
electrical
10
307315.0
20
-193417.5
30
0
11
307785.0
21
-193417.5
31
0
0
LINE
8
electrical
10
307362.5
20
-193490.0
30
0
11
307362.5
21
-193450.0
31
0
0
LINE
8
electrical
10
307462.5
20
-193490.0
30
0
11
307462.5
21
-193450.0
31
0
0
LINE
8
electrical
10
307362.5
20
-193490.0
30
0
11
307462.5
21
-193490.0
31
0
0
LINE
8
electrical
10
307362.5
20
-193450.0
30
0
11
307462.5
21
-193450.0
31
0
0
LINE
8
electrical
10
307500.0
20
-193490.0
30
0
11
307500.0
21
-193450.0
31
0
0
LINE
8
electrical
10
307600.0
20
-193490.0
30
0
11
307600.0
21
-193450.0
31
0
0
LINE
8
electrical
10
307500.0
20
-193490.0
30
0
11
307600.0
21
-193490.0
31
0
0
LINE
8
electrical
10
307500.0
20
-193450.0
30
0
11
307600.0
21
-193450.0
31
0
0
LINE
8
electrical
10
307637.5
20
-193490.0
30
0
11
307637.5
21
-193450.0
31
0
0
LINE
8
electrical
10
307737.5
20
-193490.0
30
0
11
307737.5
21
-193450.0
31
0
0
LINE
8
electrical
10
307637.5
20
-193490.0
30
0
11
307737.5
21
-193490.0
31
0
0
LINE
8
electrical
10
307637.5
20
-193450.0
30
0
11
307737.5
21
-193450.0
31
0
0
LINE
8
electrical
10
307412.5
20
-193505.0
30
0
11
307435.88
21
-193505.0
31
0
0
LINE
8
electrical
10
307435.88
20
-193505.0
30
0
11
307389.12
21
-193505.0
31
0
0
LINE
8
electrical
10
307389.12
20
-193505.0
30
0
11
307412.5
21
-193505.0
31
0
0
LINE
8
electrical
10
307412.5
20
-193480.0
30
0
11
307412.5
21
-193505.0
31
0
0
LINE
8
electrical
10
307412.5
20
-193480.0
30
0
11
307435.88
21
-193480.0
31
0
0
LINE
8
electrical
10
307435.88
20
-193480.0
30
0
11
307389.12
21
-193480.0
31
0
0
LINE
8
electrical
10
307389.12
20
-193480.0
30
0
11
307412.5
21
-193480.0
31
0
0
LINE
8
electrical
10
307550.0
20
-193505.0
30
0
11
307573.38
21
-193505.0
31
0
0
LINE
8
electrical
10
307573.38
20
-193505.0
30
0
11
307526.62
21
-193505.0
31
0
0
LINE
8
electrical
10
307526.62
20
-193505.0
30
0
11
307550.0
21
-193505.0
31
0
0
LINE
8
electrical
10
307550.0
20
-193480.0
30
0
11
307550.0
21
-193505.0
31
0
0
LINE
8
electrical
10
307550.0
20
-193480.0
30
0
11
307573.38
21
-193480.0
31
0
0
LINE
8
electrical
10
307573.38
20
-193480.0
30
0
11
307526.62
21
-193480.0
31
0
0
LINE
8
electrical
10
307526.62
20
-193480.0
30
0
11
307550.0
21
-193480.0
31
0
0
LINE
8
electrical
10
307687.5
20
-193505.0
30
0
11
307710.88
21
-193505.0
31
0
0
LINE
8
electrical
10
307710.88
20
-193505.0
30
0
11
307664.12
21
-193505.0
31
0
0
LINE
8
electrical
10
307664.12
20
-193505.0
30
0
11
307687.5
21
-193505.0
31
0
0
LINE
8
electrical
10
307687.5
20
-193480.0
30
0
11
307687.5
21
-193505.0
31
0
0
LINE
8
electrical
10
307687.5
20
-193480.0
30
0
11
307710.88
21
-193480.0
31
0
0
LINE
8
electrical
10
307710.88
20
-193480.0
30
0
11
307664.12
21
-193480.0
31
0
0
LINE
8
electrical
10
307664.12
20
-193480.0
30
0
11
307687.5
21
-193480.0
31
0
0
LINE
8
electrical
10
307550.0
20
-193300.0
30
0
11
307565.59
21
-193300.0
31
0
0
LINE
8
electrical
10
307565.59
20
-193300.0
30
0
11
307534.41
21
-193300.0
31
0
0
LINE
8
electrical
10
307534.41
20
-193300.0
30
0
11
307550.0
21
-193300.0
31
0
0
LINE
8
electrical
10
307550.0
20
-226300.0
30
0
11
307550.0
21
-193300.0
31
0
0
LINE
8
electrical
10
307550.0
20
-226300.0
30
0
11
307565.59
21
-226300.0
31
0
0
LINE
8
electrical
10
307565.59
20
-226300.0
30
0
11
307534.41
21
-226300.0
31
0
0
LINE
8
electrical
10
307534.41
20
-226300.0
30
0
11
307550.0
21
-226300.0
31
0
0
LINE
8
electrical
10
307532.0
20
-193300.0
30
0
11
307559.0
21
-193284.41
31
0
0
LINE
8
electrical
10
307559.0
20
-193284.41
30
0
11
307559.0
21
-193315.59
31
0
0
LINE
8
electrical
10
307559.0
20
-193315.59
30
0
11
307532.0
21
-193300.0
31
0
0
LINE
8
electrical
10
307550.0
20
-193300.0
30
0
11
307569.44
21
-193300.0
31
0
0
LINE
8
electrical
10
307569.44
20
-193300.0
30
0
11
307550.0
21
-193300.0
31
0
0
LINE
8
lighting
10
221680.0
20
-191420.0
30
0
11
221680.0
21
-190780.0
31
0
0
LINE
8
lighting
10
222320.0
20
-191420.0
30
0
11
222320.0
21
-190780.0
31
0
0
LINE
8
lighting
10
221680.0
20
-191420.0
30
0
11
222320.0
21
-191420.0
31
0
0
LINE
8
lighting
10
221680.0
20
-190780.0
30
0
11
222320.0
21
-190780.0
31
0
0
LINE
8
lighting
10
221720.0
20
-191380.0
30
0
11
221720.0
21
-190820.0
31
0
0
LINE
8
lighting
10
222280.0
20
-191380.0
30
0
11
222280.0
21
-190820.0
31
0
0
LINE
8
lighting
10
221720.0
20
-191380.0
30
0
11
222280.0
21
-191380.0
31
0
0
LINE
8
lighting
10
221720.0
20
-190820.0
30
0
11
222280.0
21
-190820.0
31
0
0
LINE
8
lighting
10
221754.0
20
-191370.0
30
0
11
221754.0
21
-190830.0
31
0
0
LINE
8
lighting
10
221766.0
20
-191370.0
30
0
11
221766.0
21
-190830.0
31
0
0
LINE
8
lighting
10
221754.0
20
-191370.0
30
0
11
221766.0
21
-191370.0
31
0
0
LINE
8
lighting
10
221754.0
20
-190830.0
30
0
11
221766.0
21
-190830.0
31
0
0
LINE
8
lighting
10
221834.0
20
-191370.0
30
0
11
221834.0
21
-190830.0
31
0
0
LINE
8
lighting
10
221846.0
20
-191370.0
30
0
11
221846.0
21
-190830.0
31
0
0
LINE
8
lighting
10
221834.0
20
-191370.0
30
0
11
221846.0
21
-191370.0
31
0
0
LINE
8
lighting
10
221834.0
20
-190830.0
30
0
11
221846.0
21
-190830.0
31
0
0
LINE
8
lighting
10
221914.0
20
-191370.0
30
0
11
221914.0
21
-190830.0
31
0
0
LINE
8
lighting
10
221926.0
20
-191370.0
30
0
11
221926.0
21
-190830.0
31
0
0
LINE
8
lighting
10
221914.0
20
-191370.0
30
0
11
221926.0
21
-191370.0
31
0
0
LINE
8
lighting
10
221914.0
20
-190830.0
30
0
11
221926.0
21
-190830.0
31
0
0
LINE
8
lighting
10
221994.0
20
-191370.0
30
0
11
221994.0
21
-190830.0
31
0
0
LINE
8
lighting
10
222006.0
20
-191370.0
30
0
11
222006.0
21
-190830.0
31
0
0
LINE
8
lighting
10
221994.0
20
-191370.0
30
0
11
222006.0
21
-191370.0
31
0
0
LINE
8
lighting
10
221994.0
20
-190830.0
30
0
11
222006.0
21
-190830.0
31
0
0
LINE
8
lighting
10
222074.0
20
-191370.0
30
0
11
222074.0
21
-190830.0
31
0
0
LINE
8
lighting
10
222086.0
20
-191370.0
30
0
11
222086.0
21
-190830.0
31
0
0
LINE
8
lighting
10
222074.0
20
-191370.0
30
0
11
222086.0
21
-191370.0
31
0
0
LINE
8
lighting
10
222074.0
20
-190830.0
30
0
11
222086.0
21
-190830.0
31
0
0
LINE
8
lighting
10
222154.0
20
-191370.0
30
0
11
222154.0
21
-190830.0
31
0
0
LINE
8
lighting
10
222166.0
20
-191370.0
30
0
11
222166.0
21
-190830.0
31
0
0
LINE
8
lighting
10
222154.0
20
-191370.0
30
0
11
222166.0
21
-191370.0
31
0
0
LINE
8
lighting
10
222154.0
20
-190830.0
30
0
11
222166.0
21
-190830.0
31
0
0
LINE
8
lighting
10
222234.0
20
-191370.0
30
0
11
222234.0
21
-190830.0
31
0
0
LINE
8
lighting
10
222246.0
20
-191370.0
30
0
11
222246.0
21
-190830.0
31
0
0
LINE
8
lighting
10
222234.0
20
-191370.0
30
0
11
222246.0
21
-191370.0
31
0
0
LINE
8
lighting
10
222234.0
20
-190830.0
30
0
11
222246.0
21
-190830.0
31
0
0
LINE
8
lighting
10
222009.0
20
-191100.0
30
0
11
221995.5
21
-191092.21
31
0
0
LINE
8
lighting
10
221995.5
20
-191092.21
30
0
11
221995.5
21
-191107.79
31
0
0
LINE
8
lighting
10
221995.5
20
-191107.79
30
0
11
222009.0
21
-191100.0
31
0
0
LINE
8
lighting
10
239680.0
20
-191420.0
30
0
11
239680.0
21
-190780.0
31
0
0
LINE
8
lighting
10
240320.0
20
-191420.0
30
0
11
240320.0
21
-190780.0
31
0
0
LINE
8
lighting
10
239680.0
20
-191420.0
30
0
11
240320.0
21
-191420.0
31
0
0
LINE
8
lighting
10
239680.0
20
-190780.0
30
0
11
240320.0
21
-190780.0
31
0
0
LINE
8
lighting
10
239720.0
20
-191380.0
30
0
11
239720.0
21
-190820.0
31
0
0
LINE
8
lighting
10
240280.0
20
-191380.0
30
0
11
240280.0
21
-190820.0
31
0
0
LINE
8
lighting
10
239720.0
20
-191380.0
30
0
11
240280.0
21
-191380.0
31
0
0
LINE
8
lighting
10
239720.0
20
-190820.0
30
0
11
240280.0
21
-190820.0
31
0
0
LINE
8
lighting
10
239754.0
20
-191370.0
30
0
11
239754.0
21
-190830.0
31
0
0
LINE
8
lighting
10
239766.0
20
-191370.0
30
0
11
239766.0
21
-190830.0
31
0
0
LINE
8
lighting
10
239754.0
20
-191370.0
30
0
11
239766.0
21
-191370.0
31
0
0
LINE
8
lighting
10
239754.0
20
-190830.0
30
0
11
239766.0
21
-190830.0
31
0
0
LINE
8
lighting
10
239834.0
20
-191370.0
30
0
11
239834.0
21
-190830.0
31
0
0
LINE
8
lighting
10
239846.0
20
-191370.0
30
0
11
239846.0
21
-190830.0
31
0
0
LINE
8
lighting
10
239834.0
20
-191370.0
30
0
11
239846.0
21
-191370.0
31
0
0
LINE
8
lighting
10
239834.0
20
-190830.0
30
0
11
239846.0
21
-190830.0
31
0
0
LINE
8
lighting
10
239914.0
20
-191370.0
30
0
11
239914.0
21
-190830.0
31
0
0
LINE
8
lighting
10
239926.0
20
-191370.0
30
0
11
239926.0
21
-190830.0
31
0
0
LINE
8
lighting
10
239914.0
20
-191370.0
30
0
11
239926.0
21
-191370.0
31
0
0
LINE
8
lighting
10
239914.0
20
-190830.0
30
0
11
239926.0
21
-190830.0
31
0
0
LINE
8
lighting
10
239994.0
20
-191370.0
30
0
11
239994.0
21
-190830.0
31
0
0
LINE
8
lighting
10
240006.0
20
-191370.0
30
0
11
240006.0
21
-190830.0
31
0
0
LINE
8
lighting
10
239994.0
20
-191370.0
30
0
11
240006.0
21
-191370.0
31
0
0
LINE
8
lighting
10
239994.0
20
-190830.0
30
0
11
240006.0
21
-190830.0
31
0
0
LINE
8
lighting
10
240074.0
20
-191370.0
30
0
11
240074.0
21
-190830.0
31
0
0
LINE
8
lighting
10
240086.0
20
-191370.0
30
0
11
240086.0
21
-190830.0
31
0
0
LINE
8
lighting
10
240074.0
20
-191370.0
30
0
11
240086.0
21
-191370.0
31
0
0
LINE
8
lighting
10
240074.0
20
-190830.0
30
0
11
240086.0
21
-190830.0
31
0
0
LINE
8
lighting
10
240154.0
20
-191370.0
30
0
11
240154.0
21
-190830.0
31
0
0
LINE
8
lighting
10
240166.0
20
-191370.0
30
0
11
240166.0
21
-190830.0
31
0
0
LINE
8
lighting
10
240154.0
20
-191370.0
30
0
11
240166.0
21
-191370.0
31
0
0
LINE
8
lighting
10
240154.0
20
-190830.0
30
0
11
240166.0
21
-190830.0
31
0
0
LINE
8
lighting
10
240234.0
20
-191370.0
30
0
11
240234.0
21
-190830.0
31
0
0
LINE
8
lighting
10
240246.0
20
-191370.0
30
0
11
240246.0
21
-190830.0
31
0
0
LINE
8
lighting
10
240234.0
20
-191370.0
30
0
11
240246.0
21
-191370.0
31
0
0
LINE
8
lighting
10
240234.0
20
-190830.0
30
0
11
240246.0
21
-190830.0
31
0
0
LINE
8
lighting
10
240009.0
20
-191100.0
30
0
11
239995.5
21
-191092.21
31
0
0
LINE
8
lighting
10
239995.5
20
-191092.21
30
0
11
239995.5
21
-191107.79
31
0
0
LINE
8
lighting
10
239995.5
20
-191107.79
30
0
11
240009.0
21
-191100.0
31
0
0
LINE
8
lighting
10
257680.0
20
-191420.0
30
0
11
257680.0
21
-190780.0
31
0
0
LINE
8
lighting
10
258320.0
20
-191420.0
30
0
11
258320.0
21
-190780.0
31
0
0
LINE
8
lighting
10
257680.0
20
-191420.0
30
0
11
258320.0
21
-191420.0
31
0
0
LINE
8
lighting
10
257680.0
20
-190780.0
30
0
11
258320.0
21
-190780.0
31
0
0
LINE
8
lighting
10
257720.0
20
-191380.0
30
0
11
257720.0
21
-190820.0
31
0
0
LINE
8
lighting
10
258280.0
20
-191380.0
30
0
11
258280.0
21
-190820.0
31
0
0
LINE
8
lighting
10
257720.0
20
-191380.0
30
0
11
258280.0
21
-191380.0
31
0
0
LINE
8
lighting
10
257720.0
20
-190820.0
30
0
11
258280.0
21
-190820.0
31
0
0
LINE
8
lighting
10
257754.0
20
-191370.0
30
0
11
257754.0
21
-190830.0
31
0
0
LINE
8
lighting
10
257766.0
20
-191370.0
30
0
11
257766.0
21
-190830.0
31
0
0
LINE
8
lighting
10
257754.0
20
-191370.0
30
0
11
257766.0
21
-191370.0
31
0
0
LINE
8
lighting
10
257754.0
20
-190830.0
30
0
11
257766.0
21
-190830.0
31
0
0
LINE
8
lighting
10
257834.0
20
-191370.0
30
0
11
257834.0
21
-190830.0
31
0
0
LINE
8
lighting
10
257846.0
20
-191370.0
30
0
11
257846.0
21
-190830.0
31
0
0
LINE
8
lighting
10
257834.0
20
-191370.0
30
0
11
257846.0
21
-191370.0
31
0
0
LINE
8
lighting
10
257834.0
20
-190830.0
30
0
11
257846.0
21
-190830.0
31
0
0
LINE
8
lighting
10
257914.0
20
-191370.0
30
0
11
257914.0
21
-190830.0
31
0
0
LINE
8
lighting
10
257926.0
20
-191370.0
30
0
11
257926.0
21
-190830.0
31
0
0
LINE
8
lighting
10
257914.0
20
-191370.0
30
0
11
257926.0
21
-191370.0
31
0
0
LINE
8
lighting
10
257914.0
20
-190830.0
30
0
11
257926.0
21
-190830.0
31
0
0
LINE
8
lighting
10
257994.0
20
-191370.0
30
0
11
257994.0
21
-190830.0
31
0
0
LINE
8
lighting
10
258006.0
20
-191370.0
30
0
11
258006.0
21
-190830.0
31
0
0
LINE
8
lighting
10
257994.0
20
-191370.0
30
0
11
258006.0
21
-191370.0
31
0
0
LINE
8
lighting
10
257994.0
20
-190830.0
30
0
11
258006.0
21
-190830.0
31
0
0
LINE
8
lighting
10
258074.0
20
-191370.0
30
0
11
258074.0
21
-190830.0
31
0
0
LINE
8
lighting
10
258086.0
20
-191370.0
30
0
11
258086.0
21
-190830.0
31
0
0
LINE
8
lighting
10
258074.0
20
-191370.0
30
0
11
258086.0
21
-191370.0
31
0
0
LINE
8
lighting
10
258074.0
20
-190830.0
30
0
11
258086.0
21
-190830.0
31
0
0
LINE
8
lighting
10
258154.0
20
-191370.0
30
0
11
258154.0
21
-190830.0
31
0
0
LINE
8
lighting
10
258166.0
20
-191370.0
30
0
11
258166.0
21
-190830.0
31
0
0
LINE
8
lighting
10
258154.0
20
-191370.0
30
0
11
258166.0
21
-191370.0
31
0
0
LINE
8
lighting
10
258154.0
20
-190830.0
30
0
11
258166.0
21
-190830.0
31
0
0
LINE
8
lighting
10
258234.0
20
-191370.0
30
0
11
258234.0
21
-190830.0
31
0
0
LINE
8
lighting
10
258246.0
20
-191370.0
30
0
11
258246.0
21
-190830.0
31
0
0
LINE
8
lighting
10
258234.0
20
-191370.0
30
0
11
258246.0
21
-191370.0
31
0
0
LINE
8
lighting
10
258234.0
20
-190830.0
30
0
11
258246.0
21
-190830.0
31
0
0
LINE
8
lighting
10
258009.0
20
-191100.0
30
0
11
257995.5
21
-191092.21
31
0
0
LINE
8
lighting
10
257995.5
20
-191092.21
30
0
11
257995.5
21
-191107.79
31
0
0
LINE
8
lighting
10
257995.5
20
-191107.79
30
0
11
258009.0
21
-191100.0
31
0
0
LINE
8
lighting
10
275680.0
20
-191420.0
30
0
11
275680.0
21
-190780.0
31
0
0
LINE
8
lighting
10
276320.0
20
-191420.0
30
0
11
276320.0
21
-190780.0
31
0
0
LINE
8
lighting
10
275680.0
20
-191420.0
30
0
11
276320.0
21
-191420.0
31
0
0
LINE
8
lighting
10
275680.0
20
-190780.0
30
0
11
276320.0
21
-190780.0
31
0
0
LINE
8
lighting
10
275720.0
20
-191380.0
30
0
11
275720.0
21
-190820.0
31
0
0
LINE
8
lighting
10
276280.0
20
-191380.0
30
0
11
276280.0
21
-190820.0
31
0
0
LINE
8
lighting
10
275720.0
20
-191380.0
30
0
11
276280.0
21
-191380.0
31
0
0
LINE
8
lighting
10
275720.0
20
-190820.0
30
0
11
276280.0
21
-190820.0
31
0
0
LINE
8
lighting
10
275754.0
20
-191370.0
30
0
11
275754.0
21
-190830.0
31
0
0
LINE
8
lighting
10
275766.0
20
-191370.0
30
0
11
275766.0
21
-190830.0
31
0
0
LINE
8
lighting
10
275754.0
20
-191370.0
30
0
11
275766.0
21
-191370.0
31
0
0
LINE
8
lighting
10
275754.0
20
-190830.0
30
0
11
275766.0
21
-190830.0
31
0
0
LINE
8
lighting
10
275834.0
20
-191370.0
30
0
11
275834.0
21
-190830.0
31
0
0
LINE
8
lighting
10
275846.0
20
-191370.0
30
0
11
275846.0
21
-190830.0
31
0
0
LINE
8
lighting
10
275834.0
20
-191370.0
30
0
11
275846.0
21
-191370.0
31
0
0
LINE
8
lighting
10
275834.0
20
-190830.0
30
0
11
275846.0
21
-190830.0
31
0
0
LINE
8
lighting
10
275914.0
20
-191370.0
30
0
11
275914.0
21
-190830.0
31
0
0
LINE
8
lighting
10
275926.0
20
-191370.0
30
0
11
275926.0
21
-190830.0
31
0
0
LINE
8
lighting
10
275914.0
20
-191370.0
30
0
11
275926.0
21
-191370.0
31
0
0
LINE
8
lighting
10
275914.0
20
-190830.0
30
0
11
275926.0
21
-190830.0
31
0
0
LINE
8
lighting
10
275994.0
20
-191370.0
30
0
11
275994.0
21
-190830.0
31
0
0
LINE
8
lighting
10
276006.0
20
-191370.0
30
0
11
276006.0
21
-190830.0
31
0
0
LINE
8
lighting
10
275994.0
20
-191370.0
30
0
11
276006.0
21
-191370.0
31
0
0
LINE
8
lighting
10
275994.0
20
-190830.0
30
0
11
276006.0
21
-190830.0
31
0
0
LINE
8
lighting
10
276074.0
20
-191370.0
30
0
11
276074.0
21
-190830.0
31
0
0
LINE
8
lighting
10
276086.0
20
-191370.0
30
0
11
276086.0
21
-190830.0
31
0
0
LINE
8
lighting
10
276074.0
20
-191370.0
30
0
11
276086.0
21
-191370.0
31
0
0
LINE
8
lighting
10
276074.0
20
-190830.0
30
0
11
276086.0
21
-190830.0
31
0
0
LINE
8
lighting
10
276154.0
20
-191370.0
30
0
11
276154.0
21
-190830.0
31
0
0
LINE
8
lighting
10
276166.0
20
-191370.0
30
0
11
276166.0
21
-190830.0
31
0
0
LINE
8
lighting
10
276154.0
20
-191370.0
30
0
11
276166.0
21
-191370.0
31
0
0
LINE
8
lighting
10
276154.0
20
-190830.0
30
0
11
276166.0
21
-190830.0
31
0
0
LINE
8
lighting
10
276234.0
20
-191370.0
30
0
11
276234.0
21
-190830.0
31
0
0
LINE
8
lighting
10
276246.0
20
-191370.0
30
0
11
276246.0
21
-190830.0
31
0
0
LINE
8
lighting
10
276234.0
20
-191370.0
30
0
11
276246.0
21
-191370.0
31
0
0
LINE
8
lighting
10
276234.0
20
-190830.0
30
0
11
276246.0
21
-190830.0
31
0
0
LINE
8
lighting
10
276009.0
20
-191100.0
30
0
11
275995.5
21
-191092.21
31
0
0
LINE
8
lighting
10
275995.5
20
-191092.21
30
0
11
275995.5
21
-191107.79
31
0
0
LINE
8
lighting
10
275995.5
20
-191107.79
30
0
11
276009.0
21
-191100.0
31
0
0
LINE
8
lighting
10
293680.0
20
-191420.0
30
0
11
293680.0
21
-190780.0
31
0
0
LINE
8
lighting
10
294320.0
20
-191420.0
30
0
11
294320.0
21
-190780.0
31
0
0
LINE
8
lighting
10
293680.0
20
-191420.0
30
0
11
294320.0
21
-191420.0
31
0
0
LINE
8
lighting
10
293680.0
20
-190780.0
30
0
11
294320.0
21
-190780.0
31
0
0
LINE
8
lighting
10
293720.0
20
-191380.0
30
0
11
293720.0
21
-190820.0
31
0
0
LINE
8
lighting
10
294280.0
20
-191380.0
30
0
11
294280.0
21
-190820.0
31
0
0
LINE
8
lighting
10
293720.0
20
-191380.0
30
0
11
294280.0
21
-191380.0
31
0
0
LINE
8
lighting
10
293720.0
20
-190820.0
30
0
11
294280.0
21
-190820.0
31
0
0
LINE
8
lighting
10
293754.0
20
-191370.0
30
0
11
293754.0
21
-190830.0
31
0
0
LINE
8
lighting
10
293766.0
20
-191370.0
30
0
11
293766.0
21
-190830.0
31
0
0
LINE
8
lighting
10
293754.0
20
-191370.0
30
0
11
293766.0
21
-191370.0
31
0
0
LINE
8
lighting
10
293754.0
20
-190830.0
30
0
11
293766.0
21
-190830.0
31
0
0
LINE
8
lighting
10
293834.0
20
-191370.0
30
0
11
293834.0
21
-190830.0
31
0
0
LINE
8
lighting
10
293846.0
20
-191370.0
30
0
11
293846.0
21
-190830.0
31
0
0
LINE
8
lighting
10
293834.0
20
-191370.0
30
0
11
293846.0
21
-191370.0
31
0
0
LINE
8
lighting
10
293834.0
20
-190830.0
30
0
11
293846.0
21
-190830.0
31
0
0
LINE
8
lighting
10
293914.0
20
-191370.0
30
0
11
293914.0
21
-190830.0
31
0
0
LINE
8
lighting
10
293926.0
20
-191370.0
30
0
11
293926.0
21
-190830.0
31
0
0
LINE
8
lighting
10
293914.0
20
-191370.0
30
0
11
293926.0
21
-191370.0
31
0
0
LINE
8
lighting
10
293914.0
20
-190830.0
30
0
11
293926.0
21
-190830.0
31
0
0
LINE
8
lighting
10
293994.0
20
-191370.0
30
0
11
293994.0
21
-190830.0
31
0
0
LINE
8
lighting
10
294006.0
20
-191370.0
30
0
11
294006.0
21
-190830.0
31
0
0
LINE
8
lighting
10
293994.0
20
-191370.0
30
0
11
294006.0
21
-191370.0
31
0
0
LINE
8
lighting
10
293994.0
20
-190830.0
30
0
11
294006.0
21
-190830.0
31
0
0
LINE
8
lighting
10
294074.0
20
-191370.0
30
0
11
294074.0
21
-190830.0
31
0
0
LINE
8
lighting
10
294086.0
20
-191370.0
30
0
11
294086.0
21
-190830.0
31
0
0
LINE
8
lighting
10
294074.0
20
-191370.0
30
0
11
294086.0
21
-191370.0
31
0
0
LINE
8
lighting
10
294074.0
20
-190830.0
30
0
11
294086.0
21
-190830.0
31
0
0
LINE
8
lighting
10
294154.0
20
-191370.0
30
0
11
294154.0
21
-190830.0
31
0
0
LINE
8
lighting
10
294166.0
20
-191370.0
30
0
11
294166.0
21
-190830.0
31
0
0
LINE
8
lighting
10
294154.0
20
-191370.0
30
0
11
294166.0
21
-191370.0
31
0
0
LINE
8
lighting
10
294154.0
20
-190830.0
30
0
11
294166.0
21
-190830.0
31
0
0
LINE
8
lighting
10
294234.0
20
-191370.0
30
0
11
294234.0
21
-190830.0
31
0
0
LINE
8
lighting
10
294246.0
20
-191370.0
30
0
11
294246.0
21
-190830.0
31
0
0
LINE
8
lighting
10
294234.0
20
-191370.0
30
0
11
294246.0
21
-191370.0
31
0
0
LINE
8
lighting
10
294234.0
20
-190830.0
30
0
11
294246.0
21
-190830.0
31
0
0
LINE
8
lighting
10
294009.0
20
-191100.0
30
0
11
293995.5
21
-191092.21
31
0
0
LINE
8
lighting
10
293995.5
20
-191092.21
30
0
11
293995.5
21
-191107.79
31
0
0
LINE
8
lighting
10
293995.5
20
-191107.79
30
0
11
294009.0
21
-191100.0
31
0
0
LINE
8
lighting
10
230680.0
20
-191420.0
30
0
11
230680.0
21
-190780.0
31
0
0
LINE
8
lighting
10
231320.0
20
-191420.0
30
0
11
231320.0
21
-190780.0
31
0
0
LINE
8
lighting
10
230680.0
20
-191420.0
30
0
11
231320.0
21
-191420.0
31
0
0
LINE
8
lighting
10
230680.0
20
-190780.0
30
0
11
231320.0
21
-190780.0
31
0
0
LINE
8
lighting
10
230720.0
20
-191380.0
30
0
11
230720.0
21
-190820.0
31
0
0
LINE
8
lighting
10
231280.0
20
-191380.0
30
0
11
231280.0
21
-190820.0
31
0
0
LINE
8
lighting
10
230720.0
20
-191380.0
30
0
11
231280.0
21
-191380.0
31
0
0
LINE
8
lighting
10
230720.0
20
-190820.0
30
0
11
231280.0
21
-190820.0
31
0
0
LINE
8
lighting
10
230754.0
20
-191370.0
30
0
11
230754.0
21
-190830.0
31
0
0
LINE
8
lighting
10
230766.0
20
-191370.0
30
0
11
230766.0
21
-190830.0
31
0
0
LINE
8
lighting
10
230754.0
20
-191370.0
30
0
11
230766.0
21
-191370.0
31
0
0
LINE
8
lighting
10
230754.0
20
-190830.0
30
0
11
230766.0
21
-190830.0
31
0
0
LINE
8
lighting
10
230834.0
20
-191370.0
30
0
11
230834.0
21
-190830.0
31
0
0
LINE
8
lighting
10
230846.0
20
-191370.0
30
0
11
230846.0
21
-190830.0
31
0
0
LINE
8
lighting
10
230834.0
20
-191370.0
30
0
11
230846.0
21
-191370.0
31
0
0
LINE
8
lighting
10
230834.0
20
-190830.0
30
0
11
230846.0
21
-190830.0
31
0
0
LINE
8
lighting
10
230914.0
20
-191370.0
30
0
11
230914.0
21
-190830.0
31
0
0
LINE
8
lighting
10
230926.0
20
-191370.0
30
0
11
230926.0
21
-190830.0
31
0
0
LINE
8
lighting
10
230914.0
20
-191370.0
30
0
11
230926.0
21
-191370.0
31
0
0
LINE
8
lighting
10
230914.0
20
-190830.0
30
0
11
230926.0
21
-190830.0
31
0
0
LINE
8
lighting
10
230994.0
20
-191370.0
30
0
11
230994.0
21
-190830.0
31
0
0
LINE
8
lighting
10
231006.0
20
-191370.0
30
0
11
231006.0
21
-190830.0
31
0
0
LINE
8
lighting
10
230994.0
20
-191370.0
30
0
11
231006.0
21
-191370.0
31
0
0
LINE
8
lighting
10
230994.0
20
-190830.0
30
0
11
231006.0
21
-190830.0
31
0
0
LINE
8
lighting
10
231074.0
20
-191370.0
30
0
11
231074.0
21
-190830.0
31
0
0
LINE
8
lighting
10
231086.0
20
-191370.0
30
0
11
231086.0
21
-190830.0
31
0
0
LINE
8
lighting
10
231074.0
20
-191370.0
30
0
11
231086.0
21
-191370.0
31
0
0
LINE
8
lighting
10
231074.0
20
-190830.0
30
0
11
231086.0
21
-190830.0
31
0
0
LINE
8
lighting
10
231154.0
20
-191370.0
30
0
11
231154.0
21
-190830.0
31
0
0
LINE
8
lighting
10
231166.0
20
-191370.0
30
0
11
231166.0
21
-190830.0
31
0
0
LINE
8
lighting
10
231154.0
20
-191370.0
30
0
11
231166.0
21
-191370.0
31
0
0
LINE
8
lighting
10
231154.0
20
-190830.0
30
0
11
231166.0
21
-190830.0
31
0
0
LINE
8
lighting
10
231234.0
20
-191370.0
30
0
11
231234.0
21
-190830.0
31
0
0
LINE
8
lighting
10
231246.0
20
-191370.0
30
0
11
231246.0
21
-190830.0
31
0
0
LINE
8
lighting
10
231234.0
20
-191370.0
30
0
11
231246.0
21
-191370.0
31
0
0
LINE
8
lighting
10
231234.0
20
-190830.0
30
0
11
231246.0
21
-190830.0
31
0
0
LINE
8
lighting
10
231009.0
20
-191100.0
30
0
11
230995.5
21
-191092.21
31
0
0
LINE
8
lighting
10
230995.5
20
-191092.21
30
0
11
230995.5
21
-191107.79
31
0
0
LINE
8
lighting
10
230995.5
20
-191107.79
30
0
11
231009.0
21
-191100.0
31
0
0
LINE
8
lighting
10
248680.0
20
-191420.0
30
0
11
248680.0
21
-190780.0
31
0
0
LINE
8
lighting
10
249320.0
20
-191420.0
30
0
11
249320.0
21
-190780.0
31
0
0
LINE
8
lighting
10
248680.0
20
-191420.0
30
0
11
249320.0
21
-191420.0
31
0
0
LINE
8
lighting
10
248680.0
20
-190780.0
30
0
11
249320.0
21
-190780.0
31
0
0
LINE
8
lighting
10
248720.0
20
-191380.0
30
0
11
248720.0
21
-190820.0
31
0
0
LINE
8
lighting
10
249280.0
20
-191380.0
30
0
11
249280.0
21
-190820.0
31
0
0
LINE
8
lighting
10
248720.0
20
-191380.0
30
0
11
249280.0
21
-191380.0
31
0
0
LINE
8
lighting
10
248720.0
20
-190820.0
30
0
11
249280.0
21
-190820.0
31
0
0
LINE
8
lighting
10
248754.0
20
-191370.0
30
0
11
248754.0
21
-190830.0
31
0
0
LINE
8
lighting
10
248766.0
20
-191370.0
30
0
11
248766.0
21
-190830.0
31
0
0
LINE
8
lighting
10
248754.0
20
-191370.0
30
0
11
248766.0
21
-191370.0
31
0
0
LINE
8
lighting
10
248754.0
20
-190830.0
30
0
11
248766.0
21
-190830.0
31
0
0
LINE
8
lighting
10
248834.0
20
-191370.0
30
0
11
248834.0
21
-190830.0
31
0
0
LINE
8
lighting
10
248846.0
20
-191370.0
30
0
11
248846.0
21
-190830.0
31
0
0
LINE
8
lighting
10
248834.0
20
-191370.0
30
0
11
248846.0
21
-191370.0
31
0
0
LINE
8
lighting
10
248834.0
20
-190830.0
30
0
11
248846.0
21
-190830.0
31
0
0
LINE
8
lighting
10
248914.0
20
-191370.0
30
0
11
248914.0
21
-190830.0
31
0
0
LINE
8
lighting
10
248926.0
20
-191370.0
30
0
11
248926.0
21
-190830.0
31
0
0
LINE
8
lighting
10
248914.0
20
-191370.0
30
0
11
248926.0
21
-191370.0
31
0
0
LINE
8
lighting
10
248914.0
20
-190830.0
30
0
11
248926.0
21
-190830.0
31
0
0
LINE
8
lighting
10
248994.0
20
-191370.0
30
0
11
248994.0
21
-190830.0
31
0
0
LINE
8
lighting
10
249006.0
20
-191370.0
30
0
11
249006.0
21
-190830.0
31
0
0
LINE
8
lighting
10
248994.0
20
-191370.0
30
0
11
249006.0
21
-191370.0
31
0
0
LINE
8
lighting
10
248994.0
20
-190830.0
30
0
11
249006.0
21
-190830.0
31
0
0
LINE
8
lighting
10
249074.0
20
-191370.0
30
0
11
249074.0
21
-190830.0
31
0
0
LINE
8
lighting
10
249086.0
20
-191370.0
30
0
11
249086.0
21
-190830.0
31
0
0
LINE
8
lighting
10
249074.0
20
-191370.0
30
0
11
249086.0
21
-191370.0
31
0
0
LINE
8
lighting
10
249074.0
20
-190830.0
30
0
11
249086.0
21
-190830.0
31
0
0
LINE
8
lighting
10
249154.0
20
-191370.0
30
0
11
249154.0
21
-190830.0
31
0
0
LINE
8
lighting
10
249166.0
20
-191370.0
30
0
11
249166.0
21
-190830.0
31
0
0
LINE
8
lighting
10
249154.0
20
-191370.0
30
0
11
249166.0
21
-191370.0
31
0
0
LINE
8
lighting
10
249154.0
20
-190830.0
30
0
11
249166.0
21
-190830.0
31
0
0
LINE
8
lighting
10
249234.0
20
-191370.0
30
0
11
249234.0
21
-190830.0
31
0
0
LINE
8
lighting
10
249246.0
20
-191370.0
30
0
11
249246.0
21
-190830.0
31
0
0
LINE
8
lighting
10
249234.0
20
-191370.0
30
0
11
249246.0
21
-191370.0
31
0
0
LINE
8
lighting
10
249234.0
20
-190830.0
30
0
11
249246.0
21
-190830.0
31
0
0
LINE
8
lighting
10
249009.0
20
-191100.0
30
0
11
248995.5
21
-191092.21
31
0
0
LINE
8
lighting
10
248995.5
20
-191092.21
30
0
11
248995.5
21
-191107.79
31
0
0
LINE
8
lighting
10
248995.5
20
-191107.79
30
0
11
249009.0
21
-191100.0
31
0
0
LINE
8
lighting
10
266680.0
20
-191420.0
30
0
11
266680.0
21
-190780.0
31
0
0
LINE
8
lighting
10
267320.0
20
-191420.0
30
0
11
267320.0
21
-190780.0
31
0
0
LINE
8
lighting
10
266680.0
20
-191420.0
30
0
11
267320.0
21
-191420.0
31
0
0
LINE
8
lighting
10
266680.0
20
-190780.0
30
0
11
267320.0
21
-190780.0
31
0
0
LINE
8
lighting
10
266720.0
20
-191380.0
30
0
11
266720.0
21
-190820.0
31
0
0
LINE
8
lighting
10
267280.0
20
-191380.0
30
0
11
267280.0
21
-190820.0
31
0
0
LINE
8
lighting
10
266720.0
20
-191380.0
30
0
11
267280.0
21
-191380.0
31
0
0
LINE
8
lighting
10
266720.0
20
-190820.0
30
0
11
267280.0
21
-190820.0
31
0
0
LINE
8
lighting
10
266754.0
20
-191370.0
30
0
11
266754.0
21
-190830.0
31
0
0
LINE
8
lighting
10
266766.0
20
-191370.0
30
0
11
266766.0
21
-190830.0
31
0
0
LINE
8
lighting
10
266754.0
20
-191370.0
30
0
11
266766.0
21
-191370.0
31
0
0
LINE
8
lighting
10
266754.0
20
-190830.0
30
0
11
266766.0
21
-190830.0
31
0
0
LINE
8
lighting
10
266834.0
20
-191370.0
30
0
11
266834.0
21
-190830.0
31
0
0
LINE
8
lighting
10
266846.0
20
-191370.0
30
0
11
266846.0
21
-190830.0
31
0
0
LINE
8
lighting
10
266834.0
20
-191370.0
30
0
11
266846.0
21
-191370.0
31
0
0
LINE
8
lighting
10
266834.0
20
-190830.0
30
0
11
266846.0
21
-190830.0
31
0
0
LINE
8
lighting
10
266914.0
20
-191370.0
30
0
11
266914.0
21
-190830.0
31
0
0
LINE
8
lighting
10
266926.0
20
-191370.0
30
0
11
266926.0
21
-190830.0
31
0
0
LINE
8
lighting
10
266914.0
20
-191370.0
30
0
11
266926.0
21
-191370.0
31
0
0
LINE
8
lighting
10
266914.0
20
-190830.0
30
0
11
266926.0
21
-190830.0
31
0
0
LINE
8
lighting
10
266994.0
20
-191370.0
30
0
11
266994.0
21
-190830.0
31
0
0
LINE
8
lighting
10
267006.0
20
-191370.0
30
0
11
267006.0
21
-190830.0
31
0
0
LINE
8
lighting
10
266994.0
20
-191370.0
30
0
11
267006.0
21
-191370.0
31
0
0
LINE
8
lighting
10
266994.0
20
-190830.0
30
0
11
267006.0
21
-190830.0
31
0
0
LINE
8
lighting
10
267074.0
20
-191370.0
30
0
11
267074.0
21
-190830.0
31
0
0
LINE
8
lighting
10
267086.0
20
-191370.0
30
0
11
267086.0
21
-190830.0
31
0
0
LINE
8
lighting
10
267074.0
20
-191370.0
30
0
11
267086.0
21
-191370.0
31
0
0
LINE
8
lighting
10
267074.0
20
-190830.0
30
0
11
267086.0
21
-190830.0
31
0
0
LINE
8
lighting
10
267154.0
20
-191370.0
30
0
11
267154.0
21
-190830.0
31
0
0
LINE
8
lighting
10
267166.0
20
-191370.0
30
0
11
267166.0
21
-190830.0
31
0
0
LINE
8
lighting
10
267154.0
20
-191370.0
30
0
11
267166.0
21
-191370.0
31
0
0
LINE
8
lighting
10
267154.0
20
-190830.0
30
0
11
267166.0
21
-190830.0
31
0
0
LINE
8
lighting
10
267234.0
20
-191370.0
30
0
11
267234.0
21
-190830.0
31
0
0
LINE
8
lighting
10
267246.0
20
-191370.0
30
0
11
267246.0
21
-190830.0
31
0
0
LINE
8
lighting
10
267234.0
20
-191370.0
30
0
11
267246.0
21
-191370.0
31
0
0
LINE
8
lighting
10
267234.0
20
-190830.0
30
0
11
267246.0
21
-190830.0
31
0
0
LINE
8
lighting
10
267009.0
20
-191100.0
30
0
11
266995.5
21
-191092.21
31
0
0
LINE
8
lighting
10
266995.5
20
-191092.21
30
0
11
266995.5
21
-191107.79
31
0
0
LINE
8
lighting
10
266995.5
20
-191107.79
30
0
11
267009.0
21
-191100.0
31
0
0
LINE
8
lighting
10
284680.0
20
-191420.0
30
0
11
284680.0
21
-190780.0
31
0
0
LINE
8
lighting
10
285320.0
20
-191420.0
30
0
11
285320.0
21
-190780.0
31
0
0
LINE
8
lighting
10
284680.0
20
-191420.0
30
0
11
285320.0
21
-191420.0
31
0
0
LINE
8
lighting
10
284680.0
20
-190780.0
30
0
11
285320.0
21
-190780.0
31
0
0
LINE
8
lighting
10
284720.0
20
-191380.0
30
0
11
284720.0
21
-190820.0
31
0
0
LINE
8
lighting
10
285280.0
20
-191380.0
30
0
11
285280.0
21
-190820.0
31
0
0
LINE
8
lighting
10
284720.0
20
-191380.0
30
0
11
285280.0
21
-191380.0
31
0
0
LINE
8
lighting
10
284720.0
20
-190820.0
30
0
11
285280.0
21
-190820.0
31
0
0
LINE
8
lighting
10
284754.0
20
-191370.0
30
0
11
284754.0
21
-190830.0
31
0
0
LINE
8
lighting
10
284766.0
20
-191370.0
30
0
11
284766.0
21
-190830.0
31
0
0
LINE
8
lighting
10
284754.0
20
-191370.0
30
0
11
284766.0
21
-191370.0
31
0
0
LINE
8
lighting
10
284754.0
20
-190830.0
30
0
11
284766.0
21
-190830.0
31
0
0
LINE
8
lighting
10
284834.0
20
-191370.0
30
0
11
284834.0
21
-190830.0
31
0
0
LINE
8
lighting
10
284846.0
20
-191370.0
30
0
11
284846.0
21
-190830.0
31
0
0
LINE
8
lighting
10
284834.0
20
-191370.0
30
0
11
284846.0
21
-191370.0
31
0
0
LINE
8
lighting
10
284834.0
20
-190830.0
30
0
11
284846.0
21
-190830.0
31
0
0
LINE
8
lighting
10
284914.0
20
-191370.0
30
0
11
284914.0
21
-190830.0
31
0
0
LINE
8
lighting
10
284926.0
20
-191370.0
30
0
11
284926.0
21
-190830.0
31
0
0
LINE
8
lighting
10
284914.0
20
-191370.0
30
0
11
284926.0
21
-191370.0
31
0
0
LINE
8
lighting
10
284914.0
20
-190830.0
30
0
11
284926.0
21
-190830.0
31
0
0
LINE
8
lighting
10
284994.0
20
-191370.0
30
0
11
284994.0
21
-190830.0
31
0
0
LINE
8
lighting
10
285006.0
20
-191370.0
30
0
11
285006.0
21
-190830.0
31
0
0
LINE
8
lighting
10
284994.0
20
-191370.0
30
0
11
285006.0
21
-191370.0
31
0
0
LINE
8
lighting
10
284994.0
20
-190830.0
30
0
11
285006.0
21
-190830.0
31
0
0
LINE
8
lighting
10
285074.0
20
-191370.0
30
0
11
285074.0
21
-190830.0
31
0
0
LINE
8
lighting
10
285086.0
20
-191370.0
30
0
11
285086.0
21
-190830.0
31
0
0
LINE
8
lighting
10
285074.0
20
-191370.0
30
0
11
285086.0
21
-191370.0
31
0
0
LINE
8
lighting
10
285074.0
20
-190830.0
30
0
11
285086.0
21
-190830.0
31
0
0
LINE
8
lighting
10
285154.0
20
-191370.0
30
0
11
285154.0
21
-190830.0
31
0
0
LINE
8
lighting
10
285166.0
20
-191370.0
30
0
11
285166.0
21
-190830.0
31
0
0
LINE
8
lighting
10
285154.0
20
-191370.0
30
0
11
285166.0
21
-191370.0
31
0
0
LINE
8
lighting
10
285154.0
20
-190830.0
30
0
11
285166.0
21
-190830.0
31
0
0
LINE
8
lighting
10
285234.0
20
-191370.0
30
0
11
285234.0
21
-190830.0
31
0
0
LINE
8
lighting
10
285246.0
20
-191370.0
30
0
11
285246.0
21
-190830.0
31
0
0
LINE
8
lighting
10
285234.0
20
-191370.0
30
0
11
285246.0
21
-191370.0
31
0
0
LINE
8
lighting
10
285234.0
20
-190830.0
30
0
11
285246.0
21
-190830.0
31
0
0
LINE
8
lighting
10
285009.0
20
-191100.0
30
0
11
284995.5
21
-191092.21
31
0
0
LINE
8
lighting
10
284995.5
20
-191092.21
30
0
11
284995.5
21
-191107.79
31
0
0
LINE
8
lighting
10
284995.5
20
-191107.79
30
0
11
285009.0
21
-191100.0
31
0
0
LINE
8
lighting
10
221680.0
20
-181220.0
30
0
11
221680.0
21
-180580.0
31
0
0
LINE
8
lighting
10
222320.0
20
-181220.0
30
0
11
222320.0
21
-180580.0
31
0
0
LINE
8
lighting
10
221680.0
20
-181220.0
30
0
11
222320.0
21
-181220.0
31
0
0
LINE
8
lighting
10
221680.0
20
-180580.0
30
0
11
222320.0
21
-180580.0
31
0
0
LINE
8
lighting
10
221720.0
20
-181180.0
30
0
11
221720.0
21
-180620.0
31
0
0
LINE
8
lighting
10
222280.0
20
-181180.0
30
0
11
222280.0
21
-180620.0
31
0
0
LINE
8
lighting
10
221720.0
20
-181180.0
30
0
11
222280.0
21
-181180.0
31
0
0
LINE
8
lighting
10
221720.0
20
-180620.0
30
0
11
222280.0
21
-180620.0
31
0
0
LINE
8
lighting
10
221754.0
20
-181170.0
30
0
11
221754.0
21
-180630.0
31
0
0
LINE
8
lighting
10
221766.0
20
-181170.0
30
0
11
221766.0
21
-180630.0
31
0
0
LINE
8
lighting
10
221754.0
20
-181170.0
30
0
11
221766.0
21
-181170.0
31
0
0
LINE
8
lighting
10
221754.0
20
-180630.0
30
0
11
221766.0
21
-180630.0
31
0
0
LINE
8
lighting
10
221834.0
20
-181170.0
30
0
11
221834.0
21
-180630.0
31
0
0
LINE
8
lighting
10
221846.0
20
-181170.0
30
0
11
221846.0
21
-180630.0
31
0
0
LINE
8
lighting
10
221834.0
20
-181170.0
30
0
11
221846.0
21
-181170.0
31
0
0
LINE
8
lighting
10
221834.0
20
-180630.0
30
0
11
221846.0
21
-180630.0
31
0
0
LINE
8
lighting
10
221914.0
20
-181170.0
30
0
11
221914.0
21
-180630.0
31
0
0
LINE
8
lighting
10
221926.0
20
-181170.0
30
0
11
221926.0
21
-180630.0
31
0
0
LINE
8
lighting
10
221914.0
20
-181170.0
30
0
11
221926.0
21
-181170.0
31
0
0
LINE
8
lighting
10
221914.0
20
-180630.0
30
0
11
221926.0
21
-180630.0
31
0
0
LINE
8
lighting
10
221994.0
20
-181170.0
30
0
11
221994.0
21
-180630.0
31
0
0
LINE
8
lighting
10
222006.0
20
-181170.0
30
0
11
222006.0
21
-180630.0
31
0
0
LINE
8
lighting
10
221994.0
20
-181170.0
30
0
11
222006.0
21
-181170.0
31
0
0
LINE
8
lighting
10
221994.0
20
-180630.0
30
0
11
222006.0
21
-180630.0
31
0
0
LINE
8
lighting
10
222074.0
20
-181170.0
30
0
11
222074.0
21
-180630.0
31
0
0
LINE
8
lighting
10
222086.0
20
-181170.0
30
0
11
222086.0
21
-180630.0
31
0
0
LINE
8
lighting
10
222074.0
20
-181170.0
30
0
11
222086.0
21
-181170.0
31
0
0
LINE
8
lighting
10
222074.0
20
-180630.0
30
0
11
222086.0
21
-180630.0
31
0
0
LINE
8
lighting
10
222154.0
20
-181170.0
30
0
11
222154.0
21
-180630.0
31
0
0
LINE
8
lighting
10
222166.0
20
-181170.0
30
0
11
222166.0
21
-180630.0
31
0
0
LINE
8
lighting
10
222154.0
20
-181170.0
30
0
11
222166.0
21
-181170.0
31
0
0
LINE
8
lighting
10
222154.0
20
-180630.0
30
0
11
222166.0
21
-180630.0
31
0
0
LINE
8
lighting
10
222234.0
20
-181170.0
30
0
11
222234.0
21
-180630.0
31
0
0
LINE
8
lighting
10
222246.0
20
-181170.0
30
0
11
222246.0
21
-180630.0
31
0
0
LINE
8
lighting
10
222234.0
20
-181170.0
30
0
11
222246.0
21
-181170.0
31
0
0
LINE
8
lighting
10
222234.0
20
-180630.0
30
0
11
222246.0
21
-180630.0
31
0
0
LINE
8
lighting
10
222009.0
20
-180900.0
30
0
11
221995.5
21
-180892.21
31
0
0
LINE
8
lighting
10
221995.5
20
-180892.21
30
0
11
221995.5
21
-180907.79
31
0
0
LINE
8
lighting
10
221995.5
20
-180907.79
30
0
11
222009.0
21
-180900.0
31
0
0
LINE
8
lighting
10
239680.0
20
-181220.0
30
0
11
239680.0
21
-180580.0
31
0
0
LINE
8
lighting
10
240320.0
20
-181220.0
30
0
11
240320.0
21
-180580.0
31
0
0
LINE
8
lighting
10
239680.0
20
-181220.0
30
0
11
240320.0
21
-181220.0
31
0
0
LINE
8
lighting
10
239680.0
20
-180580.0
30
0
11
240320.0
21
-180580.0
31
0
0
LINE
8
lighting
10
239720.0
20
-181180.0
30
0
11
239720.0
21
-180620.0
31
0
0
LINE
8
lighting
10
240280.0
20
-181180.0
30
0
11
240280.0
21
-180620.0
31
0
0
LINE
8
lighting
10
239720.0
20
-181180.0
30
0
11
240280.0
21
-181180.0
31
0
0
LINE
8
lighting
10
239720.0
20
-180620.0
30
0
11
240280.0
21
-180620.0
31
0
0
LINE
8
lighting
10
239754.0
20
-181170.0
30
0
11
239754.0
21
-180630.0
31
0
0
LINE
8
lighting
10
239766.0
20
-181170.0
30
0
11
239766.0
21
-180630.0
31
0
0
LINE
8
lighting
10
239754.0
20
-181170.0
30
0
11
239766.0
21
-181170.0
31
0
0
LINE
8
lighting
10
239754.0
20
-180630.0
30
0
11
239766.0
21
-180630.0
31
0
0
LINE
8
lighting
10
239834.0
20
-181170.0
30
0
11
239834.0
21
-180630.0
31
0
0
LINE
8
lighting
10
239846.0
20
-181170.0
30
0
11
239846.0
21
-180630.0
31
0
0
LINE
8
lighting
10
239834.0
20
-181170.0
30
0
11
239846.0
21
-181170.0
31
0
0
LINE
8
lighting
10
239834.0
20
-180630.0
30
0
11
239846.0
21
-180630.0
31
0
0
LINE
8
lighting
10
239914.0
20
-181170.0
30
0
11
239914.0
21
-180630.0
31
0
0
LINE
8
lighting
10
239926.0
20
-181170.0
30
0
11
239926.0
21
-180630.0
31
0
0
LINE
8
lighting
10
239914.0
20
-181170.0
30
0
11
239926.0
21
-181170.0
31
0
0
LINE
8
lighting
10
239914.0
20
-180630.0
30
0
11
239926.0
21
-180630.0
31
0
0
LINE
8
lighting
10
239994.0
20
-181170.0
30
0
11
239994.0
21
-180630.0
31
0
0
LINE
8
lighting
10
240006.0
20
-181170.0
30
0
11
240006.0
21
-180630.0
31
0
0
LINE
8
lighting
10
239994.0
20
-181170.0
30
0
11
240006.0
21
-181170.0
31
0
0
LINE
8
lighting
10
239994.0
20
-180630.0
30
0
11
240006.0
21
-180630.0
31
0
0
LINE
8
lighting
10
240074.0
20
-181170.0
30
0
11
240074.0
21
-180630.0
31
0
0
LINE
8
lighting
10
240086.0
20
-181170.0
30
0
11
240086.0
21
-180630.0
31
0
0
LINE
8
lighting
10
240074.0
20
-181170.0
30
0
11
240086.0
21
-181170.0
31
0
0
LINE
8
lighting
10
240074.0
20
-180630.0
30
0
11
240086.0
21
-180630.0
31
0
0
LINE
8
lighting
10
240154.0
20
-181170.0
30
0
11
240154.0
21
-180630.0
31
0
0
LINE
8
lighting
10
240166.0
20
-181170.0
30
0
11
240166.0
21
-180630.0
31
0
0
LINE
8
lighting
10
240154.0
20
-181170.0
30
0
11
240166.0
21
-181170.0
31
0
0
LINE
8
lighting
10
240154.0
20
-180630.0
30
0
11
240166.0
21
-180630.0
31
0
0
LINE
8
lighting
10
240234.0
20
-181170.0
30
0
11
240234.0
21
-180630.0
31
0
0
LINE
8
lighting
10
240246.0
20
-181170.0
30
0
11
240246.0
21
-180630.0
31
0
0
LINE
8
lighting
10
240234.0
20
-181170.0
30
0
11
240246.0
21
-181170.0
31
0
0
LINE
8
lighting
10
240234.0
20
-180630.0
30
0
11
240246.0
21
-180630.0
31
0
0
LINE
8
lighting
10
240009.0
20
-180900.0
30
0
11
239995.5
21
-180892.21
31
0
0
LINE
8
lighting
10
239995.5
20
-180892.21
30
0
11
239995.5
21
-180907.79
31
0
0
LINE
8
lighting
10
239995.5
20
-180907.79
30
0
11
240009.0
21
-180900.0
31
0
0
LINE
8
lighting
10
257680.0
20
-181220.0
30
0
11
257680.0
21
-180580.0
31
0
0
LINE
8
lighting
10
258320.0
20
-181220.0
30
0
11
258320.0
21
-180580.0
31
0
0
LINE
8
lighting
10
257680.0
20
-181220.0
30
0
11
258320.0
21
-181220.0
31
0
0
LINE
8
lighting
10
257680.0
20
-180580.0
30
0
11
258320.0
21
-180580.0
31
0
0
LINE
8
lighting
10
257720.0
20
-181180.0
30
0
11
257720.0
21
-180620.0
31
0
0
LINE
8
lighting
10
258280.0
20
-181180.0
30
0
11
258280.0
21
-180620.0
31
0
0
LINE
8
lighting
10
257720.0
20
-181180.0
30
0
11
258280.0
21
-181180.0
31
0
0
LINE
8
lighting
10
257720.0
20
-180620.0
30
0
11
258280.0
21
-180620.0
31
0
0
LINE
8
lighting
10
257754.0
20
-181170.0
30
0
11
257754.0
21
-180630.0
31
0
0
LINE
8
lighting
10
257766.0
20
-181170.0
30
0
11
257766.0
21
-180630.0
31
0
0
LINE
8
lighting
10
257754.0
20
-181170.0
30
0
11
257766.0
21
-181170.0
31
0
0
LINE
8
lighting
10
257754.0
20
-180630.0
30
0
11
257766.0
21
-180630.0
31
0
0
LINE
8
lighting
10
257834.0
20
-181170.0
30
0
11
257834.0
21
-180630.0
31
0
0
LINE
8
lighting
10
257846.0
20
-181170.0
30
0
11
257846.0
21
-180630.0
31
0
0
LINE
8
lighting
10
257834.0
20
-181170.0
30
0
11
257846.0
21
-181170.0
31
0
0
LINE
8
lighting
10
257834.0
20
-180630.0
30
0
11
257846.0
21
-180630.0
31
0
0
LINE
8
lighting
10
257914.0
20
-181170.0
30
0
11
257914.0
21
-180630.0
31
0
0
LINE
8
lighting
10
257926.0
20
-181170.0
30
0
11
257926.0
21
-180630.0
31
0
0
LINE
8
lighting
10
257914.0
20
-181170.0
30
0
11
257926.0
21
-181170.0
31
0
0
LINE
8
lighting
10
257914.0
20
-180630.0
30
0
11
257926.0
21
-180630.0
31
0
0
LINE
8
lighting
10
257994.0
20
-181170.0
30
0
11
257994.0
21
-180630.0
31
0
0
LINE
8
lighting
10
258006.0
20
-181170.0
30
0
11
258006.0
21
-180630.0
31
0
0
LINE
8
lighting
10
257994.0
20
-181170.0
30
0
11
258006.0
21
-181170.0
31
0
0
LINE
8
lighting
10
257994.0
20
-180630.0
30
0
11
258006.0
21
-180630.0
31
0
0
LINE
8
lighting
10
258074.0
20
-181170.0
30
0
11
258074.0
21
-180630.0
31
0
0
LINE
8
lighting
10
258086.0
20
-181170.0
30
0
11
258086.0
21
-180630.0
31
0
0
LINE
8
lighting
10
258074.0
20
-181170.0
30
0
11
258086.0
21
-181170.0
31
0
0
LINE
8
lighting
10
258074.0
20
-180630.0
30
0
11
258086.0
21
-180630.0
31
0
0
LINE
8
lighting
10
258154.0
20
-181170.0
30
0
11
258154.0
21
-180630.0
31
0
0
LINE
8
lighting
10
258166.0
20
-181170.0
30
0
11
258166.0
21
-180630.0
31
0
0
LINE
8
lighting
10
258154.0
20
-181170.0
30
0
11
258166.0
21
-181170.0
31
0
0
LINE
8
lighting
10
258154.0
20
-180630.0
30
0
11
258166.0
21
-180630.0
31
0
0
LINE
8
lighting
10
258234.0
20
-181170.0
30
0
11
258234.0
21
-180630.0
31
0
0
LINE
8
lighting
10
258246.0
20
-181170.0
30
0
11
258246.0
21
-180630.0
31
0
0
LINE
8
lighting
10
258234.0
20
-181170.0
30
0
11
258246.0
21
-181170.0
31
0
0
LINE
8
lighting
10
258234.0
20
-180630.0
30
0
11
258246.0
21
-180630.0
31
0
0
LINE
8
lighting
10
258009.0
20
-180900.0
30
0
11
257995.5
21
-180892.21
31
0
0
LINE
8
lighting
10
257995.5
20
-180892.21
30
0
11
257995.5
21
-180907.79
31
0
0
LINE
8
lighting
10
257995.5
20
-180907.79
30
0
11
258009.0
21
-180900.0
31
0
0
LINE
8
lighting
10
275680.0
20
-181220.0
30
0
11
275680.0
21
-180580.0
31
0
0
LINE
8
lighting
10
276320.0
20
-181220.0
30
0
11
276320.0
21
-180580.0
31
0
0
LINE
8
lighting
10
275680.0
20
-181220.0
30
0
11
276320.0
21
-181220.0
31
0
0
LINE
8
lighting
10
275680.0
20
-180580.0
30
0
11
276320.0
21
-180580.0
31
0
0
LINE
8
lighting
10
275720.0
20
-181180.0
30
0
11
275720.0
21
-180620.0
31
0
0
LINE
8
lighting
10
276280.0
20
-181180.0
30
0
11
276280.0
21
-180620.0
31
0
0
LINE
8
lighting
10
275720.0
20
-181180.0
30
0
11
276280.0
21
-181180.0
31
0
0
LINE
8
lighting
10
275720.0
20
-180620.0
30
0
11
276280.0
21
-180620.0
31
0
0
LINE
8
lighting
10
275754.0
20
-181170.0
30
0
11
275754.0
21
-180630.0
31
0
0
LINE
8
lighting
10
275766.0
20
-181170.0
30
0
11
275766.0
21
-180630.0
31
0
0
LINE
8
lighting
10
275754.0
20
-181170.0
30
0
11
275766.0
21
-181170.0
31
0
0
LINE
8
lighting
10
275754.0
20
-180630.0
30
0
11
275766.0
21
-180630.0
31
0
0
LINE
8
lighting
10
275834.0
20
-181170.0
30
0
11
275834.0
21
-180630.0
31
0
0
LINE
8
lighting
10
275846.0
20
-181170.0
30
0
11
275846.0
21
-180630.0
31
0
0
LINE
8
lighting
10
275834.0
20
-181170.0
30
0
11
275846.0
21
-181170.0
31
0
0
LINE
8
lighting
10
275834.0
20
-180630.0
30
0
11
275846.0
21
-180630.0
31
0
0
LINE
8
lighting
10
275914.0
20
-181170.0
30
0
11
275914.0
21
-180630.0
31
0
0
LINE
8
lighting
10
275926.0
20
-181170.0
30
0
11
275926.0
21
-180630.0
31
0
0
LINE
8
lighting
10
275914.0
20
-181170.0
30
0
11
275926.0
21
-181170.0
31
0
0
LINE
8
lighting
10
275914.0
20
-180630.0
30
0
11
275926.0
21
-180630.0
31
0
0
LINE
8
lighting
10
275994.0
20
-181170.0
30
0
11
275994.0
21
-180630.0
31
0
0
LINE
8
lighting
10
276006.0
20
-181170.0
30
0
11
276006.0
21
-180630.0
31
0
0
LINE
8
lighting
10
275994.0
20
-181170.0
30
0
11
276006.0
21
-181170.0
31
0
0
LINE
8
lighting
10
275994.0
20
-180630.0
30
0
11
276006.0
21
-180630.0
31
0
0
LINE
8
lighting
10
276074.0
20
-181170.0
30
0
11
276074.0
21
-180630.0
31
0
0
LINE
8
lighting
10
276086.0
20
-181170.0
30
0
11
276086.0
21
-180630.0
31
0
0
LINE
8
lighting
10
276074.0
20
-181170.0
30
0
11
276086.0
21
-181170.0
31
0
0
LINE
8
lighting
10
276074.0
20
-180630.0
30
0
11
276086.0
21
-180630.0
31
0
0
LINE
8
lighting
10
276154.0
20
-181170.0
30
0
11
276154.0
21
-180630.0
31
0
0
LINE
8
lighting
10
276166.0
20
-181170.0
30
0
11
276166.0
21
-180630.0
31
0
0
LINE
8
lighting
10
276154.0
20
-181170.0
30
0
11
276166.0
21
-181170.0
31
0
0
LINE
8
lighting
10
276154.0
20
-180630.0
30
0
11
276166.0
21
-180630.0
31
0
0
LINE
8
lighting
10
276234.0
20
-181170.0
30
0
11
276234.0
21
-180630.0
31
0
0
LINE
8
lighting
10
276246.0
20
-181170.0
30
0
11
276246.0
21
-180630.0
31
0
0
LINE
8
lighting
10
276234.0
20
-181170.0
30
0
11
276246.0
21
-181170.0
31
0
0
LINE
8
lighting
10
276234.0
20
-180630.0
30
0
11
276246.0
21
-180630.0
31
0
0
LINE
8
lighting
10
276009.0
20
-180900.0
30
0
11
275995.5
21
-180892.21
31
0
0
LINE
8
lighting
10
275995.5
20
-180892.21
30
0
11
275995.5
21
-180907.79
31
0
0
LINE
8
lighting
10
275995.5
20
-180907.79
30
0
11
276009.0
21
-180900.0
31
0
0
LINE
8
lighting
10
293680.0
20
-181220.0
30
0
11
293680.0
21
-180580.0
31
0
0
LINE
8
lighting
10
294320.0
20
-181220.0
30
0
11
294320.0
21
-180580.0
31
0
0
LINE
8
lighting
10
293680.0
20
-181220.0
30
0
11
294320.0
21
-181220.0
31
0
0
LINE
8
lighting
10
293680.0
20
-180580.0
30
0
11
294320.0
21
-180580.0
31
0
0
LINE
8
lighting
10
293720.0
20
-181180.0
30
0
11
293720.0
21
-180620.0
31
0
0
LINE
8
lighting
10
294280.0
20
-181180.0
30
0
11
294280.0
21
-180620.0
31
0
0
LINE
8
lighting
10
293720.0
20
-181180.0
30
0
11
294280.0
21
-181180.0
31
0
0
LINE
8
lighting
10
293720.0
20
-180620.0
30
0
11
294280.0
21
-180620.0
31
0
0
LINE
8
lighting
10
293754.0
20
-181170.0
30
0
11
293754.0
21
-180630.0
31
0
0
LINE
8
lighting
10
293766.0
20
-181170.0
30
0
11
293766.0
21
-180630.0
31
0
0
LINE
8
lighting
10
293754.0
20
-181170.0
30
0
11
293766.0
21
-181170.0
31
0
0
LINE
8
lighting
10
293754.0
20
-180630.0
30
0
11
293766.0
21
-180630.0
31
0
0
LINE
8
lighting
10
293834.0
20
-181170.0
30
0
11
293834.0
21
-180630.0
31
0
0
LINE
8
lighting
10
293846.0
20
-181170.0
30
0
11
293846.0
21
-180630.0
31
0
0
LINE
8
lighting
10
293834.0
20
-181170.0
30
0
11
293846.0
21
-181170.0
31
0
0
LINE
8
lighting
10
293834.0
20
-180630.0
30
0
11
293846.0
21
-180630.0
31
0
0
LINE
8
lighting
10
293914.0
20
-181170.0
30
0
11
293914.0
21
-180630.0
31
0
0
LINE
8
lighting
10
293926.0
20
-181170.0
30
0
11
293926.0
21
-180630.0
31
0
0
LINE
8
lighting
10
293914.0
20
-181170.0
30
0
11
293926.0
21
-181170.0
31
0
0
LINE
8
lighting
10
293914.0
20
-180630.0
30
0
11
293926.0
21
-180630.0
31
0
0
LINE
8
lighting
10
293994.0
20
-181170.0
30
0
11
293994.0
21
-180630.0
31
0
0
LINE
8
lighting
10
294006.0
20
-181170.0
30
0
11
294006.0
21
-180630.0
31
0
0
LINE
8
lighting
10
293994.0
20
-181170.0
30
0
11
294006.0
21
-181170.0
31
0
0
LINE
8
lighting
10
293994.0
20
-180630.0
30
0
11
294006.0
21
-180630.0
31
0
0
LINE
8
lighting
10
294074.0
20
-181170.0
30
0
11
294074.0
21
-180630.0
31
0
0
LINE
8
lighting
10
294086.0
20
-181170.0
30
0
11
294086.0
21
-180630.0
31
0
0
LINE
8
lighting
10
294074.0
20
-181170.0
30
0
11
294086.0
21
-181170.0
31
0
0
LINE
8
lighting
10
294074.0
20
-180630.0
30
0
11
294086.0
21
-180630.0
31
0
0
LINE
8
lighting
10
294154.0
20
-181170.0
30
0
11
294154.0
21
-180630.0
31
0
0
LINE
8
lighting
10
294166.0
20
-181170.0
30
0
11
294166.0
21
-180630.0
31
0
0
LINE
8
lighting
10
294154.0
20
-181170.0
30
0
11
294166.0
21
-181170.0
31
0
0
LINE
8
lighting
10
294154.0
20
-180630.0
30
0
11
294166.0
21
-180630.0
31
0
0
LINE
8
lighting
10
294234.0
20
-181170.0
30
0
11
294234.0
21
-180630.0
31
0
0
LINE
8
lighting
10
294246.0
20
-181170.0
30
0
11
294246.0
21
-180630.0
31
0
0
LINE
8
lighting
10
294234.0
20
-181170.0
30
0
11
294246.0
21
-181170.0
31
0
0
LINE
8
lighting
10
294234.0
20
-180630.0
30
0
11
294246.0
21
-180630.0
31
0
0
LINE
8
lighting
10
294009.0
20
-180900.0
30
0
11
293995.5
21
-180892.21
31
0
0
LINE
8
lighting
10
293995.5
20
-180892.21
30
0
11
293995.5
21
-180907.79
31
0
0
LINE
8
lighting
10
293995.5
20
-180907.79
30
0
11
294009.0
21
-180900.0
31
0
0
LINE
8
lighting
10
230680.0
20
-181220.0
30
0
11
230680.0
21
-180580.0
31
0
0
LINE
8
lighting
10
231320.0
20
-181220.0
30
0
11
231320.0
21
-180580.0
31
0
0
LINE
8
lighting
10
230680.0
20
-181220.0
30
0
11
231320.0
21
-181220.0
31
0
0
LINE
8
lighting
10
230680.0
20
-180580.0
30
0
11
231320.0
21
-180580.0
31
0
0
LINE
8
lighting
10
230720.0
20
-181180.0
30
0
11
230720.0
21
-180620.0
31
0
0
LINE
8
lighting
10
231280.0
20
-181180.0
30
0
11
231280.0
21
-180620.0
31
0
0
LINE
8
lighting
10
230720.0
20
-181180.0
30
0
11
231280.0
21
-181180.0
31
0
0
LINE
8
lighting
10
230720.0
20
-180620.0
30
0
11
231280.0
21
-180620.0
31
0
0
LINE
8
lighting
10
230754.0
20
-181170.0
30
0
11
230754.0
21
-180630.0
31
0
0
LINE
8
lighting
10
230766.0
20
-181170.0
30
0
11
230766.0
21
-180630.0
31
0
0
LINE
8
lighting
10
230754.0
20
-181170.0
30
0
11
230766.0
21
-181170.0
31
0
0
LINE
8
lighting
10
230754.0
20
-180630.0
30
0
11
230766.0
21
-180630.0
31
0
0
LINE
8
lighting
10
230834.0
20
-181170.0
30
0
11
230834.0
21
-180630.0
31
0
0
LINE
8
lighting
10
230846.0
20
-181170.0
30
0
11
230846.0
21
-180630.0
31
0
0
LINE
8
lighting
10
230834.0
20
-181170.0
30
0
11
230846.0
21
-181170.0
31
0
0
LINE
8
lighting
10
230834.0
20
-180630.0
30
0
11
230846.0
21
-180630.0
31
0
0
LINE
8
lighting
10
230914.0
20
-181170.0
30
0
11
230914.0
21
-180630.0
31
0
0
LINE
8
lighting
10
230926.0
20
-181170.0
30
0
11
230926.0
21
-180630.0
31
0
0
LINE
8
lighting
10
230914.0
20
-181170.0
30
0
11
230926.0
21
-181170.0
31
0
0
LINE
8
lighting
10
230914.0
20
-180630.0
30
0
11
230926.0
21
-180630.0
31
0
0
LINE
8
lighting
10
230994.0
20
-181170.0
30
0
11
230994.0
21
-180630.0
31
0
0
LINE
8
lighting
10
231006.0
20
-181170.0
30
0
11
231006.0
21
-180630.0
31
0
0
LINE
8
lighting
10
230994.0
20
-181170.0
30
0
11
231006.0
21
-181170.0
31
0
0
LINE
8
lighting
10
230994.0
20
-180630.0
30
0
11
231006.0
21
-180630.0
31
0
0
LINE
8
lighting
10
231074.0
20
-181170.0
30
0
11
231074.0
21
-180630.0
31
0
0
LINE
8
lighting
10
231086.0
20
-181170.0
30
0
11
231086.0
21
-180630.0
31
0
0
LINE
8
lighting
10
231074.0
20
-181170.0
30
0
11
231086.0
21
-181170.0
31
0
0
LINE
8
lighting
10
231074.0
20
-180630.0
30
0
11
231086.0
21
-180630.0
31
0
0
LINE
8
lighting
10
231154.0
20
-181170.0
30
0
11
231154.0
21
-180630.0
31
0
0
LINE
8
lighting
10
231166.0
20
-181170.0
30
0
11
231166.0
21
-180630.0
31
0
0
LINE
8
lighting
10
231154.0
20
-181170.0
30
0
11
231166.0
21
-181170.0
31
0
0
LINE
8
lighting
10
231154.0
20
-180630.0
30
0
11
231166.0
21
-180630.0
31
0
0
LINE
8
lighting
10
231234.0
20
-181170.0
30
0
11
231234.0
21
-180630.0
31
0
0
LINE
8
lighting
10
231246.0
20
-181170.0
30
0
11
231246.0
21
-180630.0
31
0
0
LINE
8
lighting
10
231234.0
20
-181170.0
30
0
11
231246.0
21
-181170.0
31
0
0
LINE
8
lighting
10
231234.0
20
-180630.0
30
0
11
231246.0
21
-180630.0
31
0
0
LINE
8
lighting
10
231009.0
20
-180900.0
30
0
11
230995.5
21
-180892.21
31
0
0
LINE
8
lighting
10
230995.5
20
-180892.21
30
0
11
230995.5
21
-180907.79
31
0
0
LINE
8
lighting
10
230995.5
20
-180907.79
30
0
11
231009.0
21
-180900.0
31
0
0
LINE
8
lighting
10
248680.0
20
-181220.0
30
0
11
248680.0
21
-180580.0
31
0
0
LINE
8
lighting
10
249320.0
20
-181220.0
30
0
11
249320.0
21
-180580.0
31
0
0
LINE
8
lighting
10
248680.0
20
-181220.0
30
0
11
249320.0
21
-181220.0
31
0
0
LINE
8
lighting
10
248680.0
20
-180580.0
30
0
11
249320.0
21
-180580.0
31
0
0
LINE
8
lighting
10
248720.0
20
-181180.0
30
0
11
248720.0
21
-180620.0
31
0
0
LINE
8
lighting
10
249280.0
20
-181180.0
30
0
11
249280.0
21
-180620.0
31
0
0
LINE
8
lighting
10
248720.0
20
-181180.0
30
0
11
249280.0
21
-181180.0
31
0
0
LINE
8
lighting
10
248720.0
20
-180620.0
30
0
11
249280.0
21
-180620.0
31
0
0
LINE
8
lighting
10
248754.0
20
-181170.0
30
0
11
248754.0
21
-180630.0
31
0
0
LINE
8
lighting
10
248766.0
20
-181170.0
30
0
11
248766.0
21
-180630.0
31
0
0
LINE
8
lighting
10
248754.0
20
-181170.0
30
0
11
248766.0
21
-181170.0
31
0
0
LINE
8
lighting
10
248754.0
20
-180630.0
30
0
11
248766.0
21
-180630.0
31
0
0
LINE
8
lighting
10
248834.0
20
-181170.0
30
0
11
248834.0
21
-180630.0
31
0
0
LINE
8
lighting
10
248846.0
20
-181170.0
30
0
11
248846.0
21
-180630.0
31
0
0
LINE
8
lighting
10
248834.0
20
-181170.0
30
0
11
248846.0
21
-181170.0
31
0
0
LINE
8
lighting
10
248834.0
20
-180630.0
30
0
11
248846.0
21
-180630.0
31
0
0
LINE
8
lighting
10
248914.0
20
-181170.0
30
0
11
248914.0
21
-180630.0
31
0
0
LINE
8
lighting
10
248926.0
20
-181170.0
30
0
11
248926.0
21
-180630.0
31
0
0
LINE
8
lighting
10
248914.0
20
-181170.0
30
0
11
248926.0
21
-181170.0
31
0
0
LINE
8
lighting
10
248914.0
20
-180630.0
30
0
11
248926.0
21
-180630.0
31
0
0
LINE
8
lighting
10
248994.0
20
-181170.0
30
0
11
248994.0
21
-180630.0
31
0
0
LINE
8
lighting
10
249006.0
20
-181170.0
30
0
11
249006.0
21
-180630.0
31
0
0
LINE
8
lighting
10
248994.0
20
-181170.0
30
0
11
249006.0
21
-181170.0
31
0
0
LINE
8
lighting
10
248994.0
20
-180630.0
30
0
11
249006.0
21
-180630.0
31
0
0
LINE
8
lighting
10
249074.0
20
-181170.0
30
0
11
249074.0
21
-180630.0
31
0
0
LINE
8
lighting
10
249086.0
20
-181170.0
30
0
11
249086.0
21
-180630.0
31
0
0
LINE
8
lighting
10
249074.0
20
-181170.0
30
0
11
249086.0
21
-181170.0
31
0
0
LINE
8
lighting
10
249074.0
20
-180630.0
30
0
11
249086.0
21
-180630.0
31
0
0
LINE
8
lighting
10
249154.0
20
-181170.0
30
0
11
249154.0
21
-180630.0
31
0
0
LINE
8
lighting
10
249166.0
20
-181170.0
30
0
11
249166.0
21
-180630.0
31
0
0
LINE
8
lighting
10
249154.0
20
-181170.0
30
0
11
249166.0
21
-181170.0
31
0
0
LINE
8
lighting
10
249154.0
20
-180630.0
30
0
11
249166.0
21
-180630.0
31
0
0
LINE
8
lighting
10
249234.0
20
-181170.0
30
0
11
249234.0
21
-180630.0
31
0
0
LINE
8
lighting
10
249246.0
20
-181170.0
30
0
11
249246.0
21
-180630.0
31
0
0
LINE
8
lighting
10
249234.0
20
-181170.0
30
0
11
249246.0
21
-181170.0
31
0
0
LINE
8
lighting
10
249234.0
20
-180630.0
30
0
11
249246.0
21
-180630.0
31
0
0
LINE
8
lighting
10
249009.0
20
-180900.0
30
0
11
248995.5
21
-180892.21
31
0
0
LINE
8
lighting
10
248995.5
20
-180892.21
30
0
11
248995.5
21
-180907.79
31
0
0
LINE
8
lighting
10
248995.5
20
-180907.79
30
0
11
249009.0
21
-180900.0
31
0
0
LINE
8
lighting
10
266680.0
20
-181220.0
30
0
11
266680.0
21
-180580.0
31
0
0
LINE
8
lighting
10
267320.0
20
-181220.0
30
0
11
267320.0
21
-180580.0
31
0
0
LINE
8
lighting
10
266680.0
20
-181220.0
30
0
11
267320.0
21
-181220.0
31
0
0
LINE
8
lighting
10
266680.0
20
-180580.0
30
0
11
267320.0
21
-180580.0
31
0
0
LINE
8
lighting
10
266720.0
20
-181180.0
30
0
11
266720.0
21
-180620.0
31
0
0
LINE
8
lighting
10
267280.0
20
-181180.0
30
0
11
267280.0
21
-180620.0
31
0
0
LINE
8
lighting
10
266720.0
20
-181180.0
30
0
11
267280.0
21
-181180.0
31
0
0
LINE
8
lighting
10
266720.0
20
-180620.0
30
0
11
267280.0
21
-180620.0
31
0
0
LINE
8
lighting
10
266754.0
20
-181170.0
30
0
11
266754.0
21
-180630.0
31
0
0
LINE
8
lighting
10
266766.0
20
-181170.0
30
0
11
266766.0
21
-180630.0
31
0
0
LINE
8
lighting
10
266754.0
20
-181170.0
30
0
11
266766.0
21
-181170.0
31
0
0
LINE
8
lighting
10
266754.0
20
-180630.0
30
0
11
266766.0
21
-180630.0
31
0
0
LINE
8
lighting
10
266834.0
20
-181170.0
30
0
11
266834.0
21
-180630.0
31
0
0
LINE
8
lighting
10
266846.0
20
-181170.0
30
0
11
266846.0
21
-180630.0
31
0
0
LINE
8
lighting
10
266834.0
20
-181170.0
30
0
11
266846.0
21
-181170.0
31
0
0
LINE
8
lighting
10
266834.0
20
-180630.0
30
0
11
266846.0
21
-180630.0
31
0
0
LINE
8
lighting
10
266914.0
20
-181170.0
30
0
11
266914.0
21
-180630.0
31
0
0
LINE
8
lighting
10
266926.0
20
-181170.0
30
0
11
266926.0
21
-180630.0
31
0
0
LINE
8
lighting
10
266914.0
20
-181170.0
30
0
11
266926.0
21
-181170.0
31
0
0
LINE
8
lighting
10
266914.0
20
-180630.0
30
0
11
266926.0
21
-180630.0
31
0
0
LINE
8
lighting
10
266994.0
20
-181170.0
30
0
11
266994.0
21
-180630.0
31
0
0
LINE
8
lighting
10
267006.0
20
-181170.0
30
0
11
267006.0
21
-180630.0
31
0
0
LINE
8
lighting
10
266994.0
20
-181170.0
30
0
11
267006.0
21
-181170.0
31
0
0
LINE
8
lighting
10
266994.0
20
-180630.0
30
0
11
267006.0
21
-180630.0
31
0
0
LINE
8
lighting
10
267074.0
20
-181170.0
30
0
11
267074.0
21
-180630.0
31
0
0
LINE
8
lighting
10
267086.0
20
-181170.0
30
0
11
267086.0
21
-180630.0
31
0
0
LINE
8
lighting
10
267074.0
20
-181170.0
30
0
11
267086.0
21
-181170.0
31
0
0
LINE
8
lighting
10
267074.0
20
-180630.0
30
0
11
267086.0
21
-180630.0
31
0
0
LINE
8
lighting
10
267154.0
20
-181170.0
30
0
11
267154.0
21
-180630.0
31
0
0
LINE
8
lighting
10
267166.0
20
-181170.0
30
0
11
267166.0
21
-180630.0
31
0
0
LINE
8
lighting
10
267154.0
20
-181170.0
30
0
11
267166.0
21
-181170.0
31
0
0
LINE
8
lighting
10
267154.0
20
-180630.0
30
0
11
267166.0
21
-180630.0
31
0
0
LINE
8
lighting
10
267234.0
20
-181170.0
30
0
11
267234.0
21
-180630.0
31
0
0
LINE
8
lighting
10
267246.0
20
-181170.0
30
0
11
267246.0
21
-180630.0
31
0
0
LINE
8
lighting
10
267234.0
20
-181170.0
30
0
11
267246.0
21
-181170.0
31
0
0
LINE
8
lighting
10
267234.0
20
-180630.0
30
0
11
267246.0
21
-180630.0
31
0
0
LINE
8
lighting
10
267009.0
20
-180900.0
30
0
11
266995.5
21
-180892.21
31
0
0
LINE
8
lighting
10
266995.5
20
-180892.21
30
0
11
266995.5
21
-180907.79
31
0
0
LINE
8
lighting
10
266995.5
20
-180907.79
30
0
11
267009.0
21
-180900.0
31
0
0
LINE
8
lighting
10
284680.0
20
-181220.0
30
0
11
284680.0
21
-180580.0
31
0
0
LINE
8
lighting
10
285320.0
20
-181220.0
30
0
11
285320.0
21
-180580.0
31
0
0
LINE
8
lighting
10
284680.0
20
-181220.0
30
0
11
285320.0
21
-181220.0
31
0
0
LINE
8
lighting
10
284680.0
20
-180580.0
30
0
11
285320.0
21
-180580.0
31
0
0
LINE
8
lighting
10
284720.0
20
-181180.0
30
0
11
284720.0
21
-180620.0
31
0
0
LINE
8
lighting
10
285280.0
20
-181180.0
30
0
11
285280.0
21
-180620.0
31
0
0
LINE
8
lighting
10
284720.0
20
-181180.0
30
0
11
285280.0
21
-181180.0
31
0
0
LINE
8
lighting
10
284720.0
20
-180620.0
30
0
11
285280.0
21
-180620.0
31
0
0
LINE
8
lighting
10
284754.0
20
-181170.0
30
0
11
284754.0
21
-180630.0
31
0
0
LINE
8
lighting
10
284766.0
20
-181170.0
30
0
11
284766.0
21
-180630.0
31
0
0
LINE
8
lighting
10
284754.0
20
-181170.0
30
0
11
284766.0
21
-181170.0
31
0
0
LINE
8
lighting
10
284754.0
20
-180630.0
30
0
11
284766.0
21
-180630.0
31
0
0
LINE
8
lighting
10
284834.0
20
-181170.0
30
0
11
284834.0
21
-180630.0
31
0
0
LINE
8
lighting
10
284846.0
20
-181170.0
30
0
11
284846.0
21
-180630.0
31
0
0
LINE
8
lighting
10
284834.0
20
-181170.0
30
0
11
284846.0
21
-181170.0
31
0
0
LINE
8
lighting
10
284834.0
20
-180630.0
30
0
11
284846.0
21
-180630.0
31
0
0
LINE
8
lighting
10
284914.0
20
-181170.0
30
0
11
284914.0
21
-180630.0
31
0
0
LINE
8
lighting
10
284926.0
20
-181170.0
30
0
11
284926.0
21
-180630.0
31
0
0
LINE
8
lighting
10
284914.0
20
-181170.0
30
0
11
284926.0
21
-181170.0
31
0
0
LINE
8
lighting
10
284914.0
20
-180630.0
30
0
11
284926.0
21
-180630.0
31
0
0
LINE
8
lighting
10
284994.0
20
-181170.0
30
0
11
284994.0
21
-180630.0
31
0
0
LINE
8
lighting
10
285006.0
20
-181170.0
30
0
11
285006.0
21
-180630.0
31
0
0
LINE
8
lighting
10
284994.0
20
-181170.0
30
0
11
285006.0
21
-181170.0
31
0
0
LINE
8
lighting
10
284994.0
20
-180630.0
30
0
11
285006.0
21
-180630.0
31
0
0
LINE
8
lighting
10
285074.0
20
-181170.0
30
0
11
285074.0
21
-180630.0
31
0
0
LINE
8
lighting
10
285086.0
20
-181170.0
30
0
11
285086.0
21
-180630.0
31
0
0
LINE
8
lighting
10
285074.0
20
-181170.0
30
0
11
285086.0
21
-181170.0
31
0
0
LINE
8
lighting
10
285074.0
20
-180630.0
30
0
11
285086.0
21
-180630.0
31
0
0
LINE
8
lighting
10
285154.0
20
-181170.0
30
0
11
285154.0
21
-180630.0
31
0
0
LINE
8
lighting
10
285166.0
20
-181170.0
30
0
11
285166.0
21
-180630.0
31
0
0
LINE
8
lighting
10
285154.0
20
-181170.0
30
0
11
285166.0
21
-181170.0
31
0
0
LINE
8
lighting
10
285154.0
20
-180630.0
30
0
11
285166.0
21
-180630.0
31
0
0
LINE
8
lighting
10
285234.0
20
-181170.0
30
0
11
285234.0
21
-180630.0
31
0
0
LINE
8
lighting
10
285246.0
20
-181170.0
30
0
11
285246.0
21
-180630.0
31
0
0
LINE
8
lighting
10
285234.0
20
-181170.0
30
0
11
285246.0
21
-181170.0
31
0
0
LINE
8
lighting
10
285234.0
20
-180630.0
30
0
11
285246.0
21
-180630.0
31
0
0
LINE
8
lighting
10
285009.0
20
-180900.0
30
0
11
284995.5
21
-180892.21
31
0
0
LINE
8
lighting
10
284995.5
20
-180892.21
30
0
11
284995.5
21
-180907.79
31
0
0
LINE
8
lighting
10
284995.5
20
-180907.79
30
0
11
285009.0
21
-180900.0
31
0
0
LINE
8
electrical
10
222000.0
20
-191370.0
30
0
11
222000.0
21
-191377.79
31
0
0
LINE
8
electrical
10
222000.0
20
-191377.79
30
0
11
222000.0
21
-191362.21
31
0
0
LINE
8
electrical
10
222000.0
20
-191362.21
30
0
11
222000.0
21
-191370.0
31
0
0
LINE
8
electrical
10
307550.0
20
-191370.0
30
0
11
222000.0
21
-191370.0
31
0
0
LINE
8
electrical
10
307550.0
20
-191370.0
30
0
11
307550.0
21
-191377.79
31
0
0
LINE
8
electrical
10
307550.0
20
-191377.79
30
0
11
307550.0
21
-191362.21
31
0
0
LINE
8
electrical
10
307550.0
20
-191362.21
30
0
11
307550.0
21
-191370.0
31
0
0
LINE
8
electrical
10
222000.0
20
-180900.0
30
0
11
222007.79
21
-180900.0
31
0
0
LINE
8
electrical
10
222007.79
20
-180900.0
30
0
11
221992.21
21
-180900.0
31
0
0
LINE
8
electrical
10
221992.21
20
-180900.0
30
0
11
222000.0
21
-180900.0
31
0
0
LINE
8
electrical
10
222000.0
20
-191370.0
30
0
11
222000.0
21
-180900.0
31
0
0
LINE
8
electrical
10
222000.0
20
-191370.0
30
0
11
222007.79
21
-191370.0
31
0
0
LINE
8
electrical
10
222007.79
20
-191370.0
30
0
11
221992.21
21
-191370.0
31
0
0
LINE
8
electrical
10
221992.21
20
-191370.0
30
0
11
222000.0
21
-191370.0
31
0
0
LINE
8
electrical
10
240000.0
20
-180900.0
30
0
11
240007.79
21
-180900.0
31
0
0
LINE
8
electrical
10
240007.79
20
-180900.0
30
0
11
239992.21
21
-180900.0
31
0
0
LINE
8
electrical
10
239992.21
20
-180900.0
30
0
11
240000.0
21
-180900.0
31
0
0
LINE
8
electrical
10
240000.0
20
-191370.0
30
0
11
240000.0
21
-180900.0
31
0
0
LINE
8
electrical
10
240000.0
20
-191370.0
30
0
11
240007.79
21
-191370.0
31
0
0
LINE
8
electrical
10
240007.79
20
-191370.0
30
0
11
239992.21
21
-191370.0
31
0
0
LINE
8
electrical
10
239992.21
20
-191370.0
30
0
11
240000.0
21
-191370.0
31
0
0
LINE
8
electrical
10
258000.0
20
-180900.0
30
0
11
258007.79
21
-180900.0
31
0
0
LINE
8
electrical
10
258007.79
20
-180900.0
30
0
11
257992.21
21
-180900.0
31
0
0
LINE
8
electrical
10
257992.21
20
-180900.0
30
0
11
258000.0
21
-180900.0
31
0
0
LINE
8
electrical
10
258000.0
20
-191370.0
30
0
11
258000.0
21
-180900.0
31
0
0
LINE
8
electrical
10
258000.0
20
-191370.0
30
0
11
258007.79
21
-191370.0
31
0
0
LINE
8
electrical
10
258007.79
20
-191370.0
30
0
11
257992.21
21
-191370.0
31
0
0
LINE
8
electrical
10
257992.21
20
-191370.0
30
0
11
258000.0
21
-191370.0
31
0
0
LINE
8
electrical
10
276000.0
20
-180900.0
30
0
11
276007.79
21
-180900.0
31
0
0
LINE
8
electrical
10
276007.79
20
-180900.0
30
0
11
275992.21
21
-180900.0
31
0
0
LINE
8
electrical
10
275992.21
20
-180900.0
30
0
11
276000.0
21
-180900.0
31
0
0
LINE
8
electrical
10
276000.0
20
-191370.0
30
0
11
276000.0
21
-180900.0
31
0
0
LINE
8
electrical
10
276000.0
20
-191370.0
30
0
11
276007.79
21
-191370.0
31
0
0
LINE
8
electrical
10
276007.79
20
-191370.0
30
0
11
275992.21
21
-191370.0
31
0
0
LINE
8
electrical
10
275992.21
20
-191370.0
30
0
11
276000.0
21
-191370.0
31
0
0
LINE
8
electrical
10
294000.0
20
-180900.0
30
0
11
294007.79
21
-180900.0
31
0
0
LINE
8
electrical
10
294007.79
20
-180900.0
30
0
11
293992.21
21
-180900.0
31
0
0
LINE
8
electrical
10
293992.21
20
-180900.0
30
0
11
294000.0
21
-180900.0
31
0
0
LINE
8
electrical
10
294000.0
20
-191370.0
30
0
11
294000.0
21
-180900.0
31
0
0
LINE
8
electrical
10
294000.0
20
-191370.0
30
0
11
294007.79
21
-191370.0
31
0
0
LINE
8
electrical
10
294007.79
20
-191370.0
30
0
11
293992.21
21
-191370.0
31
0
0
LINE
8
electrical
10
293992.21
20
-191370.0
30
0
11
294000.0
21
-191370.0
31
0
0
LINE
8
electrical
10
231000.0
20
-180900.0
30
0
11
231007.79
21
-180900.0
31
0
0
LINE
8
electrical
10
231007.79
20
-180900.0
30
0
11
230992.21
21
-180900.0
31
0
0
LINE
8
electrical
10
230992.21
20
-180900.0
30
0
11
231000.0
21
-180900.0
31
0
0
LINE
8
electrical
10
231000.0
20
-191370.0
30
0
11
231000.0
21
-180900.0
31
0
0
LINE
8
electrical
10
231000.0
20
-191370.0
30
0
11
231007.79
21
-191370.0
31
0
0
LINE
8
electrical
10
231007.79
20
-191370.0
30
0
11
230992.21
21
-191370.0
31
0
0
LINE
8
electrical
10
230992.21
20
-191370.0
30
0
11
231000.0
21
-191370.0
31
0
0
LINE
8
electrical
10
249000.0
20
-180900.0
30
0
11
249007.79
21
-180900.0
31
0
0
LINE
8
electrical
10
249007.79
20
-180900.0
30
0
11
248992.21
21
-180900.0
31
0
0
LINE
8
electrical
10
248992.21
20
-180900.0
30
0
11
249000.0
21
-180900.0
31
0
0
LINE
8
electrical
10
249000.0
20
-191370.0
30
0
11
249000.0
21
-180900.0
31
0
0
LINE
8
electrical
10
249000.0
20
-191370.0
30
0
11
249007.79
21
-191370.0
31
0
0
LINE
8
electrical
10
249007.79
20
-191370.0
30
0
11
248992.21
21
-191370.0
31
0
0
LINE
8
electrical
10
248992.21
20
-191370.0
30
0
11
249000.0
21
-191370.0
31
0
0
LINE
8
electrical
10
267000.0
20
-180900.0
30
0
11
267007.79
21
-180900.0
31
0
0
LINE
8
electrical
10
267007.79
20
-180900.0
30
0
11
266992.21
21
-180900.0
31
0
0
LINE
8
electrical
10
266992.21
20
-180900.0
30
0
11
267000.0
21
-180900.0
31
0
0
LINE
8
electrical
10
267000.0
20
-191370.0
30
0
11
267000.0
21
-180900.0
31
0
0
LINE
8
electrical
10
267000.0
20
-191370.0
30
0
11
267007.79
21
-191370.0
31
0
0
LINE
8
electrical
10
267007.79
20
-191370.0
30
0
11
266992.21
21
-191370.0
31
0
0
LINE
8
electrical
10
266992.21
20
-191370.0
30
0
11
267000.0
21
-191370.0
31
0
0
LINE
8
electrical
10
285000.0
20
-180900.0
30
0
11
285007.79
21
-180900.0
31
0
0
LINE
8
electrical
10
285007.79
20
-180900.0
30
0
11
284992.21
21
-180900.0
31
0
0
LINE
8
electrical
10
284992.21
20
-180900.0
30
0
11
285000.0
21
-180900.0
31
0
0
LINE
8
electrical
10
285000.0
20
-191370.0
30
0
11
285000.0
21
-180900.0
31
0
0
LINE
8
electrical
10
285000.0
20
-191370.0
30
0
11
285007.79
21
-191370.0
31
0
0
LINE
8
electrical
10
285007.79
20
-191370.0
30
0
11
284992.21
21
-191370.0
31
0
0
LINE
8
electrical
10
284992.21
20
-191370.0
30
0
11
285000.0
21
-191370.0
31
0
0
LINE
8
electrical
10
307563.0
20
-193300.0
30
0
11
307543.5
21
-193288.74
31
0
0
LINE
8
electrical
10
307543.5
20
-193288.74
30
0
11
307543.5
21
-193311.26
31
0
0
LINE
8
electrical
10
307543.5
20
-193311.26
30
0
11
307563.0
21
-193300.0
31
0
0
LINE
8
electrical
10
292998.29
20
-191382.89
30
0
11
293000.85
21
-191363.56
31
0
0
LINE
8
electrical
10
293000.85
20
-191363.56
30
0
11
293000.85
21
-191363.56
31
0
0
LINE
8
electrical
10
293000.85
20
-191363.56
30
0
11
292998.29
21
-191382.89
31
0
0
LINE
8
electrical
10
307548.29
20
-193312.89
30
0
11
292998.29
21
-191382.89
31
0
0
LINE
8
electrical
10
307548.29
20
-193312.89
30
0
11
307550.85
21
-193293.56
31
0
0
LINE
8
electrical
10
307550.85
20
-193293.56
30
0
11
307550.85
21
-193293.56
31
0
0
LINE
8
electrical
10
307550.85
20
-193293.56
30
0
11
307548.29
21
-193312.89
31
0
0
LINE
8
electrical
10
223000.0
20
-191370.0
30
0
11
223000.0
21
-191381.26
31
0
0
LINE
8
electrical
10
223000.0
20
-191381.26
30
0
11
223000.0
21
-191358.74
31
0
0
LINE
8
electrical
10
223000.0
20
-191358.74
30
0
11
223000.0
21
-191370.0
31
0
0
LINE
8
electrical
10
293000.0
20
-191370.0
30
0
11
223000.0
21
-191370.0
31
0
0
LINE
8
electrical
10
293000.0
20
-191370.0
30
0
11
293000.0
21
-191381.26
31
0
0
LINE
8
electrical
10
293000.0
20
-191381.26
30
0
11
293000.0
21
-191358.74
31
0
0
LINE
8
electrical
10
293000.0
20
-191358.74
30
0
11
293000.0
21
-191370.0
31
0
0
LINE
8
electrical
10
307550.0
20
-193300.0
30
0
11
307564.04
21
-193300.0
31
0
0
LINE
8
electrical
10
307564.04
20
-193300.0
30
0
11
307550.0
21
-193300.0
31
0
0
LINE
8
electrical
10
293000.0
20
-191370.0
30
0
11
293014.04
21
-191370.0
31
0
0
LINE
8
electrical
10
293014.04
20
-191370.0
30
0
11
293000.0
21
-191370.0
31
0
0
LINE
8
electrical
10
307563.0
20
-193300.0
30
0
11
307543.5
21
-193288.74
31
0
0
LINE
8
electrical
10
307543.5
20
-193288.74
30
0
11
307543.5
21
-193311.26
31
0
0
LINE
8
electrical
10
307543.5
20
-193311.26
30
0
11
307563.0
21
-193300.0
31
0
0
LINE
8
electrical
10
292998.19
20
-191262.87
30
0
11
293000.91
21
-191243.56
31
0
0
LINE
8
electrical
10
293000.91
20
-191243.56
30
0
11
293000.91
21
-191243.56
31
0
0
LINE
8
electrical
10
293000.91
20
-191243.56
30
0
11
292998.19
21
-191262.87
31
0
0
LINE
8
electrical
10
307548.19
20
-193312.87
30
0
11
292998.19
21
-191262.87
31
0
0
LINE
8
electrical
10
307548.19
20
-193312.87
30
0
11
307550.91
21
-193293.56
31
0
0
LINE
8
electrical
10
307550.91
20
-193293.56
30
0
11
307550.91
21
-193293.56
31
0
0
LINE
8
electrical
10
307550.91
20
-193293.56
30
0
11
307548.19
21
-193312.87
31
0
0
LINE
8
electrical
10
223000.0
20
-191250.0
30
0
11
223000.0
21
-191261.26
31
0
0
LINE
8
electrical
10
223000.0
20
-191261.26
30
0
11
223000.0
21
-191238.74
31
0
0
LINE
8
electrical
10
223000.0
20
-191238.74
30
0
11
223000.0
21
-191250.0
31
0
0
LINE
8
electrical
10
293000.0
20
-191250.0
30
0
11
223000.0
21
-191250.0
31
0
0
LINE
8
electrical
10
293000.0
20
-191250.0
30
0
11
293000.0
21
-191261.26
31
0
0
LINE
8
electrical
10
293000.0
20
-191261.26
30
0
11
293000.0
21
-191238.74
31
0
0
LINE
8
electrical
10
293000.0
20
-191238.74
30
0
11
293000.0
21
-191250.0
31
0
0
LINE
8
electrical
10
307550.0
20
-193300.0
30
0
11
307564.04
21
-193300.0
31
0
0
LINE
8
electrical
10
307564.04
20
-193300.0
30
0
11
307550.0
21
-193300.0
31
0
0
LINE
8
electrical
10
293000.0
20
-191250.0
30
0
11
293014.04
21
-191250.0
31
0
0
LINE
8
electrical
10
293014.04
20
-191250.0
30
0
11
293000.0
21
-191250.0
31
0
0
LINE
8
electrical
10
307563.0
20
-193300.0
30
0
11
307543.5
21
-193288.74
31
0
0
LINE
8
electrical
10
307543.5
20
-193288.74
30
0
11
307543.5
21
-193311.26
31
0
0
LINE
8
electrical
10
307543.5
20
-193311.26
30
0
11
307563.0
21
-193300.0
31
0
0
LINE
8
electrical
10
292998.08
20
-191142.86
30
0
11
293000.96
21
-191123.57
31
0
0
LINE
8
electrical
10
293000.96
20
-191123.57
30
0
11
293000.96
21
-191123.57
31
0
0
LINE
8
electrical
10
293000.96
20
-191123.57
30
0
11
292998.08
21
-191142.86
31
0
0
LINE
8
electrical
10
307548.08
20
-193312.86
30
0
11
292998.08
21
-191142.86
31
0
0
LINE
8
electrical
10
307548.08
20
-193312.86
30
0
11
307550.96
21
-193293.57
31
0
0
LINE
8
electrical
10
307550.96
20
-193293.57
30
0
11
307550.96
21
-193293.57
31
0
0
LINE
8
electrical
10
307550.96
20
-193293.57
30
0
11
307548.08
21
-193312.86
31
0
0
LINE
8
electrical
10
223000.0
20
-191130.0
30
0
11
223000.0
21
-191141.26
31
0
0
LINE
8
electrical
10
223000.0
20
-191141.26
30
0
11
223000.0
21
-191118.74
31
0
0
LINE
8
electrical
10
223000.0
20
-191118.74
30
0
11
223000.0
21
-191130.0
31
0
0
LINE
8
electrical
10
293000.0
20
-191130.0
30
0
11
223000.0
21
-191130.0
31
0
0
LINE
8
electrical
10
293000.0
20
-191130.0
30
0
11
293000.0
21
-191141.26
31
0
0
LINE
8
electrical
10
293000.0
20
-191141.26
30
0
11
293000.0
21
-191118.74
31
0
0
LINE
8
electrical
10
293000.0
20
-191118.74
30
0
11
293000.0
21
-191130.0
31
0
0
LINE
8
electrical
10
307550.0
20
-193300.0
30
0
11
307564.04
21
-193300.0
31
0
0
LINE
8
electrical
10
307564.04
20
-193300.0
30
0
11
307550.0
21
-193300.0
31
0
0
LINE
8
electrical
10
293000.0
20
-191130.0
30
0
11
293014.04
21
-191130.0
31
0
0
LINE
8
electrical
10
293014.04
20
-191130.0
30
0
11
293000.0
21
-191130.0
31
0
0
LINE
8
electrical
10
227935.0
20
-193350.0
30
0
11
227935.0
21
-193290.0
31
0
0
LINE
8
electrical
10
228065.0
20
-193350.0
30
0
11
228065.0
21
-193290.0
31
0
0
LINE
8
electrical
10
227935.0
20
-193350.0
30
0
11
228065.0
21
-193350.0
31
0
0
LINE
8
electrical
10
227935.0
20
-193290.0
30
0
11
228065.0
21
-193290.0
31
0
0
LINE
8
electrical
10
228009.0
20
-193320.0
30
0
11
227995.5
21
-193312.21
31
0
0
LINE
8
electrical
10
227995.5
20
-193312.21
30
0
11
227995.5
21
-193327.79
31
0
0
LINE
8
electrical
10
227995.5
20
-193327.79
30
0
11
228009.0
21
-193320.0
31
0
0
LINE
8
electrical
10
307550.0
20
-193320.0
30
0
11
307550.0
21
-193327.79
31
0
0
LINE
8
electrical
10
307550.0
20
-193327.79
30
0
11
307550.0
21
-193312.21
31
0
0
LINE
8
electrical
10
307550.0
20
-193312.21
30
0
11
307550.0
21
-193320.0
31
0
0
LINE
8
electrical
10
228000.0
20
-193320.0
30
0
11
307550.0
21
-193320.0
31
0
0
LINE
8
electrical
10
228000.0
20
-193320.0
30
0
11
228000.0
21
-193327.79
31
0
0
LINE
8
electrical
10
228000.0
20
-193327.79
30
0
11
228000.0
21
-193312.21
31
0
0
LINE
8
electrical
10
228000.0
20
-193312.21
30
0
11
228000.0
21
-193320.0
31
0
0
LINE
8
electrical
10
228000.0
20
-193320.0
30
0
11
228009.72
21
-193320.0
31
0
0
LINE
8
electrical
10
228009.72
20
-193320.0
30
0
11
228000.0
21
-193320.0
31
0
0
LINE
8
electrical
10
287935.0
20
-193350.0
30
0
11
287935.0
21
-193290.0
31
0
0
LINE
8
electrical
10
288065.0
20
-193350.0
30
0
11
288065.0
21
-193290.0
31
0
0
LINE
8
electrical
10
287935.0
20
-193350.0
30
0
11
288065.0
21
-193350.0
31
0
0
LINE
8
electrical
10
287935.0
20
-193290.0
30
0
11
288065.0
21
-193290.0
31
0
0
LINE
8
electrical
10
288009.0
20
-193320.0
30
0
11
287995.5
21
-193312.21
31
0
0
LINE
8
electrical
10
287995.5
20
-193312.21
30
0
11
287995.5
21
-193327.79
31
0
0
LINE
8
electrical
10
287995.5
20
-193327.79
30
0
11
288009.0
21
-193320.0
31
0
0
LINE
8
electrical
10
307550.0
20
-193320.0
30
0
11
307550.0
21
-193327.79
31
0
0
LINE
8
electrical
10
307550.0
20
-193327.79
30
0
11
307550.0
21
-193312.21
31
0
0
LINE
8
electrical
10
307550.0
20
-193312.21
30
0
11
307550.0
21
-193320.0
31
0
0
LINE
8
electrical
10
288000.0
20
-193320.0
30
0
11
307550.0
21
-193320.0
31
0
0
LINE
8
electrical
10
288000.0
20
-193320.0
30
0
11
288000.0
21
-193327.79
31
0
0
LINE
8
electrical
10
288000.0
20
-193327.79
30
0
11
288000.0
21
-193312.21
31
0
0
LINE
8
electrical
10
288000.0
20
-193312.21
30
0
11
288000.0
21
-193320.0
31
0
0
LINE
8
electrical
10
288000.0
20
-193320.0
30
0
11
288009.72
21
-193320.0
31
0
0
LINE
8
electrical
10
288009.72
20
-193320.0
30
0
11
288000.0
21
-193320.0
31
0
0
LINE
8
hvac
10
208475.0
20
-192775.0
30
0
11
208475.0
21
-192025.0
31
0
0
LINE
8
hvac
10
210125.0
20
-192775.0
30
0
11
210125.0
21
-192025.0
31
0
0
LINE
8
hvac
10
208475.0
20
-192775.0
30
0
11
210125.0
21
-192775.0
31
0
0
LINE
8
hvac
10
208475.0
20
-192025.0
30
0
11
210125.0
21
-192025.0
31
0
0
LINE
8
hvac
10
208575.0
20
-192820.0
30
0
11
208575.0
21
-192780.0
31
0
0
LINE
8
hvac
10
210025.0
20
-192820.0
30
0
11
210025.0
21
-192780.0
31
0
0
LINE
8
hvac
10
208575.0
20
-192820.0
30
0
11
210025.0
21
-192820.0
31
0
0
LINE
8
hvac
10
208575.0
20
-192780.0
30
0
11
210025.0
21
-192780.0
31
0
0
LINE
8
hvac
10
208640.0
20
-192860.0
30
0
11
208640.0
21
-192800.0
31
0
0
LINE
8
hvac
10
208680.0
20
-192860.0
30
0
11
208680.0
21
-192800.0
31
0
0
LINE
8
hvac
10
208640.0
20
-192860.0
30
0
11
208680.0
21
-192860.0
31
0
0
LINE
8
hvac
10
208640.0
20
-192800.0
30
0
11
208680.0
21
-192800.0
31
0
0
LINE
8
hvac
10
208800.0
20
-192860.0
30
0
11
208800.0
21
-192800.0
31
0
0
LINE
8
hvac
10
208840.0
20
-192860.0
30
0
11
208840.0
21
-192800.0
31
0
0
LINE
8
hvac
10
208800.0
20
-192860.0
30
0
11
208840.0
21
-192860.0
31
0
0
LINE
8
hvac
10
208800.0
20
-192800.0
30
0
11
208840.0
21
-192800.0
31
0
0
LINE
8
hvac
10
208960.0
20
-192860.0
30
0
11
208960.0
21
-192800.0
31
0
0
LINE
8
hvac
10
209000.0
20
-192860.0
30
0
11
209000.0
21
-192800.0
31
0
0
LINE
8
hvac
10
208960.0
20
-192860.0
30
0
11
209000.0
21
-192860.0
31
0
0
LINE
8
hvac
10
208960.0
20
-192800.0
30
0
11
209000.0
21
-192800.0
31
0
0
LINE
8
hvac
10
209120.0
20
-192860.0
30
0
11
209120.0
21
-192800.0
31
0
0
LINE
8
hvac
10
209160.0
20
-192860.0
30
0
11
209160.0
21
-192800.0
31
0
0
LINE
8
hvac
10
209120.0
20
-192860.0
30
0
11
209160.0
21
-192860.0
31
0
0
LINE
8
hvac
10
209120.0
20
-192800.0
30
0
11
209160.0
21
-192800.0
31
0
0
LINE
8
hvac
10
209280.0
20
-192860.0
30
0
11
209280.0
21
-192800.0
31
0
0
LINE
8
hvac
10
209320.0
20
-192860.0
30
0
11
209320.0
21
-192800.0
31
0
0
LINE
8
hvac
10
209280.0
20
-192860.0
30
0
11
209320.0
21
-192860.0
31
0
0
LINE
8
hvac
10
209280.0
20
-192800.0
30
0
11
209320.0
21
-192800.0
31
0
0
LINE
8
hvac
10
209440.0
20
-192860.0
30
0
11
209440.0
21
-192800.0
31
0
0
LINE
8
hvac
10
209480.0
20
-192860.0
30
0
11
209480.0
21
-192800.0
31
0
0
LINE
8
hvac
10
209440.0
20
-192860.0
30
0
11
209480.0
21
-192860.0
31
0
0
LINE
8
hvac
10
209440.0
20
-192800.0
30
0
11
209480.0
21
-192800.0
31
0
0
LINE
8
hvac
10
209600.0
20
-192860.0
30
0
11
209600.0
21
-192800.0
31
0
0
LINE
8
hvac
10
209640.0
20
-192860.0
30
0
11
209640.0
21
-192800.0
31
0
0
LINE
8
hvac
10
209600.0
20
-192860.0
30
0
11
209640.0
21
-192860.0
31
0
0
LINE
8
hvac
10
209600.0
20
-192800.0
30
0
11
209640.0
21
-192800.0
31
0
0
LINE
8
hvac
10
209760.0
20
-192860.0
30
0
11
209760.0
21
-192800.0
31
0
0
LINE
8
hvac
10
209800.0
20
-192860.0
30
0
11
209800.0
21
-192800.0
31
0
0
LINE
8
hvac
10
209760.0
20
-192860.0
30
0
11
209800.0
21
-192860.0
31
0
0
LINE
8
hvac
10
209760.0
20
-192800.0
30
0
11
209800.0
21
-192800.0
31
0
0
LINE
8
hvac
10
209920.0
20
-192860.0
30
0
11
209920.0
21
-192800.0
31
0
0
LINE
8
hvac
10
209960.0
20
-192860.0
30
0
11
209960.0
21
-192800.0
31
0
0
LINE
8
hvac
10
209920.0
20
-192860.0
30
0
11
209960.0
21
-192860.0
31
0
0
LINE
8
hvac
10
209920.0
20
-192800.0
30
0
11
209960.0
21
-192800.0
31
0
0
LINE
8
hvac
10
209075.0
20
-192625.0
30
0
11
209075.0
21
-192175.0
31
0
0
LINE
8
hvac
10
209525.0
20
-192625.0
30
0
11
209525.0
21
-192175.0
31
0
0
LINE
8
hvac
10
209075.0
20
-192625.0
30
0
11
209525.0
21
-192625.0
31
0
0
LINE
8
hvac
10
209075.0
20
-192175.0
30
0
11
209525.0
21
-192175.0
31
0
0
LINE
8
hvac
10
223000.0
20
-186175.0
30
0
11
223000.0
21
-185825.0
31
0
0
LINE
8
hvac
10
293000.0
20
-186175.0
30
0
11
293000.0
21
-185825.0
31
0
0
LINE
8
hvac
10
223000.0
20
-186175.0
30
0
11
293000.0
21
-186175.0
31
0
0
LINE
8
hvac
10
223000.0
20
-185825.0
30
0
11
293000.0
21
-185825.0
31
0
0
LINE
8
hvac
10
209125.0
20
-192575.0
30
0
11
209125.0
21
-192225.0
31
0
0
LINE
8
hvac
10
258175.0
20
-192575.0
30
0
11
258175.0
21
-192225.0
31
0
0
LINE
8
hvac
10
209125.0
20
-192575.0
30
0
11
258175.0
21
-192575.0
31
0
0
LINE
8
hvac
10
209125.0
20
-192225.0
30
0
11
258175.0
21
-192225.0
31
0
0
LINE
8
hvac
10
257825.0
20
-192575.0
30
0
11
257825.0
21
-185825.0
31
0
0
LINE
8
hvac
10
258175.0
20
-192575.0
30
0
11
258175.0
21
-185825.0
31
0
0
LINE
8
hvac
10
257825.0
20
-192575.0
30
0
11
258175.0
21
-192575.0
31
0
0
LINE
8
hvac
10
257825.0
20
-185825.0
30
0
11
258175.0
21
-185825.0
31
0
0
LINE
8
hvac
10
237650.0
20
-186350.0
30
0
11
237650.0
21
-185650.0
31
0
0
LINE
8
hvac
10
238350.0
20
-186350.0
30
0
11
238350.0
21
-185650.0
31
0
0
LINE
8
hvac
10
237650.0
20
-186350.0
30
0
11
238350.0
21
-186350.0
31
0
0
LINE
8
hvac
10
237650.0
20
-185650.0
30
0
11
238350.0
21
-185650.0
31
0
0
LINE
8
hvac
10
277650.0
20
-186350.0
30
0
11
277650.0
21
-185650.0
31
0
0
LINE
8
hvac
10
278350.0
20
-186350.0
30
0
11
278350.0
21
-185650.0
31
0
0
LINE
8
hvac
10
277650.0
20
-186350.0
30
0
11
278350.0
21
-186350.0
31
0
0
LINE
8
hvac
10
277650.0
20
-185650.0
30
0
11
278350.0
21
-185650.0
31
0
0
LINE
8
water
10
251060.0
20
-193100.0
30
0
11
251060.0
21
-193175.0
31
0
0
LINE
8
water
10
251060.0
20
-193175.0
30
0
11
251060.0
21
-193100.0
31
0
0
LINE
8
water
10
251060.0
20
-193100.0
30
0
11
251060.0
21
-193025.0
31
0
0
LINE
8
water
10
251060.0
20
-193025.0
30
0
11
251060.0
21
-193100.0
31
0
0
LINE
8
water
10
250660.0
20
-193100.0
30
0
11
251060.0
21
-193100.0
31
0
0
LINE
8
water
10
250660.0
20
-193100.0
30
0
11
250660.0
21
-193175.0
31
0
0
LINE
8
water
10
250660.0
20
-193175.0
30
0
11
250660.0
21
-193100.0
31
0
0
LINE
8
water
10
250660.0
20
-193100.0
30
0
11
250660.0
21
-193025.0
31
0
0
LINE
8
water
10
250660.0
20
-193025.0
30
0
11
250660.0
21
-193100.0
31
0
0
LINE
8
water
10
250950.0
20
-193100.0
30
0
11
250887.81
21
-193014.4
31
0
0
LINE
8
water
10
250887.81
20
-193014.4
30
0
11
250787.19
21
-193047.1
31
0
0
LINE
8
water
10
250787.19
20
-193047.1
30
0
11
250787.19
21
-193152.9
31
0
0
LINE
8
water
10
250787.19
20
-193152.9
30
0
11
250887.81
21
-193185.6
31
0
0
LINE
8
water
10
250887.81
20
-193185.6
30
0
11
250950.0
21
-193100.0
31
0
0
LINE
8
water
10
250670.0
20
-193125.0
30
0
11
250670.0
21
-193075.0
31
0
0
LINE
8
water
10
251050.0
20
-193125.0
30
0
11
251050.0
21
-193075.0
31
0
0
LINE
8
water
10
250670.0
20
-193125.0
30
0
11
251050.0
21
-193125.0
31
0
0
LINE
8
water
10
250670.0
20
-193075.0
30
0
11
251050.0
21
-193075.0
31
0
0
LINE
8
water
10
250735.0
20
-193100.0
30
0
11
250735.0
21
-193204.62
31
0
0
LINE
8
water
10
250735.0
20
-193204.62
30
0
11
250735.0
21
-193164.66
31
0
0
LINE
8
water
10
250735.0
20
-193164.66
30
0
11
250735.0
21
-193035.34
31
0
0
LINE
8
water
10
250735.0
20
-193035.34
30
0
11
250735.0
21
-192995.38
31
0
0
LINE
8
water
10
250735.0
20
-192995.38
30
0
11
250735.0
21
-193100.0
31
0
0
LINE
8
water
10
250710.0
20
-193100.0
30
0
11
250735.0
21
-193100.0
31
0
0
LINE
8
water
10
250710.0
20
-193100.0
30
0
11
250710.0
21
-193204.62
31
0
0
LINE
8
water
10
250710.0
20
-193204.62
30
0
11
250710.0
21
-193164.66
31
0
0
LINE
8
water
10
250710.0
20
-193164.66
30
0
11
250710.0
21
-193035.34
31
0
0
LINE
8
water
10
250710.0
20
-193035.34
30
0
11
250710.0
21
-192995.38
31
0
0
LINE
8
water
10
250710.0
20
-192995.38
30
0
11
250710.0
21
-193100.0
31
0
0
LINE
8
water
10
251035.0
20
-193100.0
30
0
11
251035.0
21
-193204.62
31
0
0
LINE
8
water
10
251035.0
20
-193204.62
30
0
11
251035.0
21
-193164.66
31
0
0
LINE
8
water
10
251035.0
20
-193164.66
30
0
11
251035.0
21
-193035.34
31
0
0
LINE
8
water
10
251035.0
20
-193035.34
30
0
11
251035.0
21
-192995.38
31
0
0
LINE
8
water
10
251035.0
20
-192995.38
30
0
11
251035.0
21
-193100.0
31
0
0
LINE
8
water
10
251010.0
20
-193100.0
30
0
11
251035.0
21
-193100.0
31
0
0
LINE
8
water
10
251010.0
20
-193100.0
30
0
11
251010.0
21
-193204.62
31
0
0
LINE
8
water
10
251010.0
20
-193204.62
30
0
11
251010.0
21
-193164.66
31
0
0
LINE
8
water
10
251010.0
20
-193164.66
30
0
11
251010.0
21
-193035.34
31
0
0
LINE
8
water
10
251010.0
20
-193035.34
30
0
11
251010.0
21
-192995.38
31
0
0
LINE
8
water
10
251010.0
20
-192995.38
30
0
11
251010.0
21
-193100.0
31
0
0
LINE
8
water
10
259800.0
20
-193100.0
30
0
11
259843.3
21
-193100.0
31
0
0
LINE
8
water
10
259843.3
20
-193100.0
30
0
11
259756.7
21
-193100.0
31
0
0
LINE
8
water
10
259756.7
20
-193100.0
30
0
11
259800.0
21
-193100.0
31
0
0
LINE
8
water
10
259800.0
20
-221500.0
30
0
11
259800.0
21
-193100.0
31
0
0
LINE
8
water
10
259800.0
20
-221500.0
30
0
11
259843.3
21
-221500.0
31
0
0
LINE
8
water
10
259843.3
20
-221500.0
30
0
11
259756.7
21
-221500.0
31
0
0
LINE
8
water
10
259756.7
20
-221500.0
30
0
11
259800.0
21
-221500.0
31
0
0
LINE
8
water
10
230000.0
20
-193100.0
30
0
11
230000.0
21
-193143.3
31
0
0
LINE
8
water
10
230000.0
20
-193143.3
30
0
11
230000.0
21
-193056.7
31
0
0
LINE
8
water
10
230000.0
20
-193056.7
30
0
11
230000.0
21
-193100.0
31
0
0
LINE
8
water
10
259800.0
20
-193100.0
30
0
11
230000.0
21
-193100.0
31
0
0
LINE
8
water
10
259800.0
20
-193100.0
30
0
11
259800.0
21
-193143.3
31
0
0
LINE
8
water
10
259800.0
20
-193143.3
30
0
11
259800.0
21
-193056.7
31
0
0
LINE
8
water
10
259800.0
20
-193056.7
30
0
11
259800.0
21
-193100.0
31
0
0
LINE
8
water
10
230000.0
20
-182550.0
30
0
11
230043.3
21
-182550.0
31
0
0
LINE
8
water
10
230043.3
20
-182550.0
30
0
11
229956.7
21
-182550.0
31
0
0
LINE
8
water
10
229956.7
20
-182550.0
30
0
11
230000.0
21
-182550.0
31
0
0
LINE
8
water
10
230000.0
20
-193100.0
30
0
11
230000.0
21
-182550.0
31
0
0
LINE
8
water
10
230000.0
20
-193100.0
30
0
11
230043.3
21
-193100.0
31
0
0
LINE
8
water
10
230043.3
20
-193100.0
30
0
11
229956.7
21
-193100.0
31
0
0
LINE
8
water
10
229956.7
20
-193100.0
30
0
11
230000.0
21
-193100.0
31
0
0
LINE
8
water
10
229950.0
20
-182550.0
30
0
11
230025.0
21
-182506.7
31
0
0
LINE
8
water
10
230025.0
20
-182506.7
30
0
11
230025.0
21
-182593.3
31
0
0
LINE
8
water
10
230025.0
20
-182593.3
30
0
11
229950.0
21
-182550.0
31
0
0
LINE
8
water
10
259800.0
20
-193100.0
30
0
11
259854.0
21
-193100.0
31
0
0
LINE
8
water
10
259854.0
20
-193100.0
30
0
11
259800.0
21
-193100.0
31
0
0
LINE
8
water
10
230000.0
20
-193100.0
30
0
11
230054.0
21
-193100.0
31
0
0
LINE
8
water
10
230054.0
20
-193100.0
30
0
11
230000.0
21
-193100.0
31
0
0
LINE
8
water
10
230000.0
20
-182550.0
30
0
11
230054.0
21
-182550.0
31
0
0
LINE
8
water
10
230054.0
20
-182550.0
30
0
11
230000.0
21
-182550.0
31
0
0
LINE
8
water
10
229300.0
20
-182950.0
30
0
11
229300.0
21
-182150.0
31
0
0
LINE
8
water
10
230700.0
20
-182950.0
30
0
11
230700.0
21
-182150.0
31
0
0
LINE
8
water
10
229300.0
20
-182950.0
30
0
11
230700.0
21
-182950.0
31
0
0
LINE
8
water
10
229300.0
20
-182150.0
30
0
11
230700.0
21
-182150.0
31
0
0
LINE
8
water
10
229625.0
20
-182875.0
30
0
11
229625.0
21
-182225.0
31
0
0
LINE
8
water
10
230375.0
20
-182875.0
30
0
11
230375.0
21
-182225.0
31
0
0
LINE
8
water
10
229625.0
20
-182875.0
30
0
11
230375.0
21
-182875.0
31
0
0
LINE
8
water
10
229625.0
20
-182225.0
30
0
11
230375.0
21
-182225.0
31
0
0
LINE
8
water
10
230050.0
20
-182550.0
30
0
11
230050.0
21
-182645.11
31
0
0
LINE
8
water
10
230050.0
20
-182645.11
30
0
11
230050.0
21
-182608.78
31
0
0
LINE
8
water
10
230050.0
20
-182608.78
30
0
11
230050.0
21
-182491.22
31
0
0
LINE
8
water
10
230050.0
20
-182491.22
30
0
11
230050.0
21
-182454.89
31
0
0
LINE
8
water
10
230050.0
20
-182454.89
30
0
11
230050.0
21
-182550.0
31
0
0
LINE
8
water
10
229600.0
20
-182550.0
30
0
11
230050.0
21
-182550.0
31
0
0
LINE
8
water
10
229600.0
20
-182550.0
30
0
11
229600.0
21
-182645.11
31
0
0
LINE
8
water
10
229600.0
20
-182645.11
30
0
11
229600.0
21
-182608.78
31
0
0
LINE
8
water
10
229600.0
20
-182608.78
30
0
11
229600.0
21
-182491.22
31
0
0
LINE
8
water
10
229600.0
20
-182491.22
30
0
11
229600.0
21
-182454.89
31
0
0
LINE
8
water
10
229600.0
20
-182454.89
30
0
11
229600.0
21
-182550.0
31
0
0
LINE
8
water
10
230400.0
20
-182550.0
30
0
11
230325.0
21
-182506.7
31
0
0
LINE
8
water
10
230325.0
20
-182506.7
30
0
11
230325.0
21
-182593.3
31
0
0
LINE
8
water
10
230325.0
20
-182593.3
30
0
11
230400.0
21
-182550.0
31
0
0
LINE
8
water
10
260250.0
20
-182550.0
30
0
11
260250.0
21
-182593.3
31
0
0
LINE
8
water
10
260250.0
20
-182593.3
30
0
11
260250.0
21
-182506.7
31
0
0
LINE
8
water
10
260250.0
20
-182506.7
30
0
11
260250.0
21
-182550.0
31
0
0
LINE
8
water
10
230350.0
20
-182550.0
30
0
11
260250.0
21
-182550.0
31
0
0
LINE
8
water
10
230350.0
20
-182550.0
30
0
11
230350.0
21
-182593.3
31
0
0
LINE
8
water
10
230350.0
20
-182593.3
30
0
11
230350.0
21
-182506.7
31
0
0
LINE
8
water
10
230350.0
20
-182506.7
30
0
11
230350.0
21
-182550.0
31
0
0
LINE
8
water
10
260250.0
20
-220500.0
30
0
11
260293.3
21
-220500.0
31
0
0
LINE
8
water
10
260293.3
20
-220500.0
30
0
11
260206.7
21
-220500.0
31
0
0
LINE
8
water
10
260206.7
20
-220500.0
30
0
11
260250.0
21
-220500.0
31
0
0
LINE
8
water
10
260250.0
20
-182550.0
30
0
11
260250.0
21
-220500.0
31
0
0
LINE
8
water
10
260250.0
20
-182550.0
30
0
11
260293.3
21
-182550.0
31
0
0
LINE
8
water
10
260293.3
20
-182550.0
30
0
11
260206.7
21
-182550.0
31
0
0
LINE
8
water
10
260206.7
20
-182550.0
30
0
11
260250.0
21
-182550.0
31
0
0
LINE
8
water
10
260300.0
20
-220500.0
30
0
11
260225.0
21
-220456.7
31
0
0
LINE
8
water
10
260225.0
20
-220456.7
30
0
11
260225.0
21
-220543.3
31
0
0
LINE
8
water
10
260225.0
20
-220543.3
30
0
11
260300.0
21
-220500.0
31
0
0
LINE
8
water
10
230350.0
20
-182550.0
30
0
11
230404.0
21
-182550.0
31
0
0
LINE
8
water
10
230404.0
20
-182550.0
30
0
11
230350.0
21
-182550.0
31
0
0
LINE
8
water
10
260250.0
20
-182550.0
30
0
11
260304.0
21
-182550.0
31
0
0
LINE
8
water
10
260304.0
20
-182550.0
30
0
11
260250.0
21
-182550.0
31
0
0
LINE
8
water
10
260250.0
20
-220500.0
30
0
11
260304.0
21
-220500.0
31
0
0
LINE
8
water
10
260304.0
20
-220500.0
30
0
11
260250.0
21
-220500.0
31
0
0
LINE
8
sensors
10
208040.0
20
-190280.0
30
0
11
208040.0
21
-190120.0
31
0
0
LINE
8
sensors
10
208140.0
20
-190280.0
30
0
11
208140.0
21
-190120.0
31
0
0
LINE
8
sensors
10
208040.0
20
-190280.0
30
0
11
208140.0
21
-190280.0
31
0
0
LINE
8
sensors
10
208040.0
20
-190120.0
30
0
11
208140.0
21
-190120.0
31
0
0
LINE
8
sensors
10
208145.0
20
-190255.0
30
0
11
208145.0
21
-190145.0
31
0
0
LINE
8
sensors
10
208165.0
20
-190255.0
30
0
11
208165.0
21
-190145.0
31
0
0
LINE
8
sensors
10
208145.0
20
-190255.0
30
0
11
208165.0
21
-190255.0
31
0
0
LINE
8
sensors
10
208145.0
20
-190145.0
30
0
11
208165.0
21
-190145.0
31
0
0
LINE
8
sensors
10
208040.0
20
-189980.0
30
0
11
208040.0
21
-189820.0
31
0
0
LINE
8
sensors
10
208140.0
20
-189980.0
30
0
11
208140.0
21
-189820.0
31
0
0
LINE
8
sensors
10
208040.0
20
-189980.0
30
0
11
208140.0
21
-189980.0
31
0
0
LINE
8
sensors
10
208040.0
20
-189820.0
30
0
11
208140.0
21
-189820.0
31
0
0
LINE
8
sensors
10
208145.0
20
-189955.0
30
0
11
208145.0
21
-189845.0
31
0
0
LINE
8
sensors
10
208165.0
20
-189955.0
30
0
11
208165.0
21
-189845.0
31
0
0
LINE
8
sensors
10
208145.0
20
-189955.0
30
0
11
208165.0
21
-189955.0
31
0
0
LINE
8
sensors
10
208145.0
20
-189845.0
30
0
11
208165.0
21
-189845.0
31
0
0
LINE
8
sensors
10
208040.0
20
-189680.0
30
0
11
208040.0
21
-189520.0
31
0
0
LINE
8
sensors
10
208140.0
20
-189680.0
30
0
11
208140.0
21
-189520.0
31
0
0
LINE
8
sensors
10
208040.0
20
-189680.0
30
0
11
208140.0
21
-189680.0
31
0
0
LINE
8
sensors
10
208040.0
20
-189520.0
30
0
11
208140.0
21
-189520.0
31
0
0
LINE
8
sensors
10
208145.0
20
-189655.0
30
0
11
208145.0
21
-189545.0
31
0
0
LINE
8
sensors
10
208165.0
20
-189655.0
30
0
11
208165.0
21
-189545.0
31
0
0
LINE
8
sensors
10
208145.0
20
-189655.0
30
0
11
208165.0
21
-189655.0
31
0
0
LINE
8
sensors
10
208145.0
20
-189545.0
30
0
11
208165.0
21
-189545.0
31
0
0
LINE
8
sensors
10
258080.0
20
-186000.0
30
0
11
258000.0
21
-185920.0
31
0
0
LINE
8
sensors
10
258000.0
20
-185920.0
30
0
11
257920.0
21
-186000.0
31
0
0
LINE
8
sensors
10
257920.0
20
-186000.0
30
0
11
258000.0
21
-186080.0
31
0
0
LINE
8
sensors
10
258000.0
20
-186080.0
30
0
11
258080.0
21
-186000.0
31
0
0
LINE
8
sensors
10
258000.0
20
-186000.0
30
0
11
258065.0
21
-186000.0
31
0
0
LINE
8
sensors
10
258065.0
20
-186000.0
30
0
11
258000.0
21
-186000.0
31
0
0
LINE
8
sensors
10
208040.0
20
-189080.0
30
0
11
208040.0
21
-188920.0
31
0
0
LINE
8
sensors
10
208140.0
20
-189080.0
30
0
11
208140.0
21
-188920.0
31
0
0
LINE
8
sensors
10
208040.0
20
-189080.0
30
0
11
208140.0
21
-189080.0
31
0
0
LINE
8
sensors
10
208040.0
20
-188920.0
30
0
11
208140.0
21
-188920.0
31
0
0
LINE
8
sensors
10
208145.0
20
-189055.0
30
0
11
208145.0
21
-188945.0
31
0
0
LINE
8
sensors
10
208165.0
20
-189055.0
30
0
11
208165.0
21
-188945.0
31
0
0
LINE
8
sensors
10
208145.0
20
-189055.0
30
0
11
208165.0
21
-189055.0
31
0
0
LINE
8
sensors
10
208145.0
20
-188945.0
30
0
11
208165.0
21
-188945.0
31
0
0
LINE
8
sensors
10
240540.0
20
-193100.0
30
0
11
240540.0
21
-193175.0
31
0
0
LINE
8
sensors
10
240540.0
20
-193175.0
30
0
11
240540.0
21
-193100.0
31
0
0
LINE
8
sensors
10
240540.0
20
-193100.0
30
0
11
240540.0
21
-193025.0
31
0
0
LINE
8
sensors
10
240540.0
20
-193025.0
30
0
11
240540.0
21
-193100.0
31
0
0
LINE
8
sensors
10
240320.0
20
-193100.0
30
0
11
240540.0
21
-193100.0
31
0
0
LINE
8
sensors
10
240320.0
20
-193100.0
30
0
11
240320.0
21
-193175.0
31
0
0
LINE
8
sensors
10
240320.0
20
-193175.0
30
0
11
240320.0
21
-193100.0
31
0
0
LINE
8
sensors
10
240320.0
20
-193100.0
30
0
11
240320.0
21
-193025.0
31
0
0
LINE
8
sensors
10
240320.0
20
-193025.0
30
0
11
240320.0
21
-193100.0
31
0
0
LINE
8
sensors
10
240350.0
20
-193170.0
30
0
11
240350.0
21
-193030.0
31
0
0
LINE
8
sensors
10
240510.0
20
-193170.0
30
0
11
240510.0
21
-193030.0
31
0
0
LINE
8
sensors
10
240350.0
20
-193170.0
30
0
11
240510.0
21
-193170.0
31
0
0
LINE
8
sensors
10
240350.0
20
-193030.0
30
0
11
240510.0
21
-193030.0
31
0
0
ENDSEC
0
EOF
