0
SECTION
2
HEADER
9
$ACADVER
1
AC1015
9
$INSUNITS
70
4
0
ENDSEC
0
SECTION
2
ENTITIES
0
LINE
8
interiors
10
165500.0
20
-193500.0
30
0
11
165500.0
21
-178500.0
31
0
0
LINE
8
interiors
10
165500.0
20
-193500.0
30
0
11
176800.0
21
-193500.0
31
0
0
LINE
8
interiors
10
176800.0
20
-193500.0
30
0
11
179200.0
21
-193500.0
31
0
0
LINE
8
interiors
10
179200.0
20
-193500.0
30
0
11
190500.0
21
-193500.0
31
0
0
LINE
8
interiors
10
165500.0
20
-193500.0
30
0
11
190500.0
21
-193500.0
31
0
0
LINE
8
interiors
10
165500.0
20
-178500.0
30
0
11
190500.0
21
-178500.0
31
0
0
LINE
8
interiors
10
190500.0
20
-193500.0
30
0
11
190500.0
21
-178500.0
31
0
0
LINE
8
interiors
10
190380.0
20
-193380.0
30
0
11
165620.0
21
-193380.0
31
0
0
LINE
8
interiors
10
190380.0
20
-193380.0
30
0
11
190380.0
21
-178620.0
31
0
0
LINE
8
interiors
10
190380.0
20
-178620.0
30
0
11
165620.0
21
-178620.0
31
0
0
LINE
8
interiors
10
165620.0
20
-193380.0
30
0
11
165620.0
21
-178620.0
31
0
0
LINE
8
interiors
10
171500.0
20
-178500.0
30
0
11
184500.0
21
-178500.0
31
0
0
LINE
8
interiors
10
179200.0
20
-193500.0
30
0
11
179200.0
21
-193380.0
31
0
0
LINE
8
interiors
10
190380.0
20
-193380.0
30
0
11
179200.0
21
-193380.0
31
0
0
LINE
8
interiors
10
176800.0
20
-193380.0
30
0
11
165620.0
21
-193380.0
31
0
0
LINE
8
interiors
10
176800.0
20
-193500.0
30
0
11
176800.0
21
-193380.0
31
0
0
LINE
8
interiors
10
176800.0
20
-193380.0
30
0
11
179200.0
21
-193380.0
31
0
0
LINE
8
interiors
10
171500.0
20
-178620.0
30
0
11
184500.0
21
-178620.0
31
0
0
LINE
8
interiors
10
171500.0
20
-178620.0
30
0
11
171500.0
21
-178500.0
31
0
0
LINE
8
interiors
10
184500.0
20
-178620.0
30
0
11
184500.0
21
-178500.0
31
0
0
LINE
8
interiors
10
171500.0
20
-178522.5
30
0
11
171500.0
21
-178477.5
31
0
0
LINE
8
interiors
10
184500.0
20
-178522.5
30
0
11
184500.0
21
-178477.5
31
0
0
LINE
8
interiors
10
171500.0
20
-178522.5
30
0
11
184500.0
21
-178522.5
31
0
0
LINE
8
interiors
10
171500.0
20
-178477.5
30
0
11
184500.0
21
-178477.5
31
0
0
LINE
8
interiors
10
165625.0
20
-193375.0
30
0
11
165625.0
21
-178625.0
31
0
0
LINE
8
interiors
10
190375.0
20
-193375.0
30
0
11
190375.0
21
-178625.0
31
0
0
LINE
8
interiors
10
165625.0
20
-193375.0
30
0
11
190375.0
21
-193375.0
31
0
0
LINE
8
interiors
10
165625.0
20
-178625.0
30
0
11
190375.0
21
-178625.0
31
0
0
LINE
8
interiors
10
176845.0
20
-193620.0
30
0
11
176845.0
21
-193380.0
31
0
0
LINE
8
interiors
10
176915.0
20
-193620.0
30
0
11
176915.0
21
-193380.0
31
0
0
LINE
8
interiors
10
176845.0
20
-193620.0
30
0
11
176915.0
21
-193620.0
31
0
0
LINE
8
interiors
10
176845.0
20
-193380.0
30
0
11
176915.0
21
-193380.0
31
0
0
LINE
8
interiors
10
179085.0
20
-193620.0
30
0
11
179085.0
21
-193380.0
31
0
0
LINE
8
interiors
10
179155.0
20
-193620.0
30
0
11
179155.0
21
-193380.0
31
0
0
LINE
8
interiors
10
179085.0
20
-193620.0
30
0
11
179155.0
21
-193620.0
31
0
0
LINE
8
interiors
10
179085.0
20
-193380.0
30
0
11
179155.0
21
-193380.0
31
0
0
LINE
8
interiors
10
176850.0
20
-193620.0
30
0
11
176850.0
21
-193380.0
31
0
0
LINE
8
interiors
10
179150.0
20
-193620.0
30
0
11
179150.0
21
-193380.0
31
0
0
LINE
8
interiors
10
176850.0
20
-193620.0
30
0
11
179150.0
21
-193620.0
31
0
0
LINE
8
interiors
10
176850.0
20
-193380.0
30
0
11
179150.0
21
-193380.0
31
0
0
LINE
8
interiors
10
176930.39
20
-193409.51
30
0
11
176889.61
21
-193390.49
31
0
0
LINE
8
interiors
10
177386.82
20
-192430.7
30
0
11
177346.04
21
-192411.68
31
0
0
LINE
8
interiors
10
176930.39
20
-193409.51
30
0
11
177386.82
21
-192430.7
31
0
0
LINE
8
interiors
10
176889.61
20
-193390.49
30
0
11
177346.04
21
-192411.68
31
0
0
LINE
8
interiors
10
170455.0
20
-183500.0
30
0
11
170455.0
21
-182500.0
31
0
0
LINE
8
interiors
10
170545.0
20
-183500.0
30
0
11
170545.0
21
-182500.0
31
0
0
LINE
8
interiors
10
170455.0
20
-183500.0
30
0
11
170545.0
21
-183500.0
31
0
0
LINE
8
interiors
10
170455.0
20
-182500.0
30
0
11
170545.0
21
-182500.0
31
0
0
LINE
8
interiors
10
172955.0
20
-183500.0
30
0
11
172955.0
21
-182500.0
31
0
0
LINE
8
interiors
10
173045.0
20
-183500.0
30
0
11
173045.0
21
-182500.0
31
0
0
LINE
8
interiors
10
172955.0
20
-183500.0
30
0
11
173045.0
21
-183500.0
31
0
0
LINE
8
interiors
10
172955.0
20
-182500.0
30
0
11
173045.0
21
-182500.0
31
0
0
LINE
8
interiors
10
170450.0
20
-183500.0
30
0
11
170450.0
21
-182500.0
31
0
0
LINE
8
interiors
10
173050.0
20
-183500.0
30
0
11
173050.0
21
-182500.0
31
0
0
LINE
8
interiors
10
170450.0
20
-183500.0
30
0
11
173050.0
21
-183500.0
31
0
0
LINE
8
interiors
10
170450.0
20
-182500.0
30
0
11
173050.0
21
-182500.0
31
0
0
LINE
8
interiors
10
182955.0
20
-183500.0
30
0
11
182955.0
21
-182500.0
31
0
0
LINE
8
interiors
10
183045.0
20
-183500.0
30
0
11
183045.0
21
-182500.0
31
0
0
LINE
8
interiors
10
182955.0
20
-183500.0
30
0
11
183045.0
21
-183500.0
31
0
0
LINE
8
interiors
10
182955.0
20
-182500.0
30
0
11
183045.0
21
-182500.0
31
0
0
LINE
8
interiors
10
185455.0
20
-183500.0
30
0
11
185455.0
21
-182500.0
31
0
0
LINE
8
interiors
10
185545.0
20
-183500.0
30
0
11
185545.0
21
-182500.0
31
0
0
LINE
8
interiors
10
185455.0
20
-183500.0
30
0
11
185545.0
21
-183500.0
31
0
0
LINE
8
interiors
10
185455.0
20
-182500.0
30
0
11
185545.0
21
-182500.0
31
0
0
LINE
8
interiors
10
182950.0
20
-183500.0
30
0
11
182950.0
21
-182500.0
31
0
0
LINE
8
interiors
10
185550.0
20
-183500.0
30
0
11
185550.0
21
-182500.0
31
0
0
LINE
8
interiors
10
182950.0
20
-183500.0
30
0
11
185550.0
21
-183500.0
31
0
0
LINE
8
interiors
10
182950.0
20
-182500.0
30
0
11
185550.0
21
-182500.0
31
0
0
LINE
8
interiors
10
176600.0
20
-189550.0
30
0
11
176600.0
21
-189050.0
31
0
0
LINE
8
interiors
10
179400.0
20
-189550.0
30
0
11
179400.0
21
-189050.0
31
0
0
LINE
8
interiors
10
176600.0
20
-189550.0
30
0
11
179400.0
21
-189550.0
31
0
0
LINE
8
interiors
10
176600.0
20
-189050.0
30
0
11
179400.0
21
-189050.0
31
0
0
LINE
8
interiors
10
176665.0
20
-189485.0
30
0
11
176665.0
21
-189415.0
31
0
0
LINE
8
interiors
10
176735.0
20
-189485.0
30
0
11
176735.0
21
-189415.0
31
0
0
LINE
8
interiors
10
176665.0
20
-189485.0
30
0
11
176735.0
21
-189485.0
31
0
0
LINE
8
interiors
10
176665.0
20
-189415.0
30
0
11
176735.0
21
-189415.0
31
0
0
LINE
8
interiors
10
176665.0
20
-189185.0
30
0
11
176665.0
21
-189115.0
31
0
0
LINE
8
interiors
10
176735.0
20
-189185.0
30
0
11
176735.0
21
-189115.0
31
0
0
LINE
8
interiors
10
176665.0
20
-189185.0
30
0
11
176735.0
21
-189185.0
31
0
0
LINE
8
interiors
10
176665.0
20
-189115.0
30
0
11
176735.0
21
-189115.0
31
0
0
LINE
8
interiors
10
179265.0
20
-189485.0
30
0
11
179265.0
21
-189415.0
31
0
0
LINE
8
interiors
10
179335.0
20
-189485.0
30
0
11
179335.0
21
-189415.0
31
0
0
LINE
8
interiors
10
179265.0
20
-189485.0
30
0
11
179335.0
21
-189485.0
31
0
0
LINE
8
interiors
10
179265.0
20
-189415.0
30
0
11
179335.0
21
-189415.0
31
0
0
LINE
8
interiors
10
179265.0
20
-189185.0
30
0
11
179265.0
21
-189115.0
31
0
0
LINE
8
interiors
10
179335.0
20
-189185.0
30
0
11
179335.0
21
-189115.0
31
0
0
LINE
8
interiors
10
179265.0
20
-189185.0
30
0
11
179335.0
21
-189185.0
31
0
0
LINE
8
interiors
10
179265.0
20
-189115.0
30
0
11
179335.0
21
-189115.0
31
0
0
LINE
8
electrical
10
189775.0
20
-193425.0
30
0
11
189775.0
21
-193175.0
31
0
0
LINE
8
electrical
10
190325.0
20
-193425.0
30
0
11
190325.0
21
-193175.0
31
0
0
LINE
8
electrical
10
189775.0
20
-193425.0
30
0
11
190325.0
21
-193425.0
31
0
0
LINE
8
electrical
10
189775.0
20
-193175.0
30
0
11
190325.0
21
-193175.0
31
0
0
LINE
8
electrical
10
189815.0
20
-193452.5
30
0
11
189815.0
21
-193417.5
31
0
0
LINE
8
electrical
10
190285.0
20
-193452.5
30
0
11
190285.0
21
-193417.5
31
0
0
LINE
8
electrical
10
189815.0
20
-193452.5
30
0
11
190285.0
21
-193452.5
31
0
0
LINE
8
electrical
10
189815.0
20
-193417.5
30
0
11
190285.0
21
-193417.5
31
0
0
LINE
8
electrical
10
189862.5
20
-193490.0
30
0
11
189862.5
21
-193450.0
31
0
0
LINE
8
electrical
10
189962.5
20
-193490.0
30
0
11
189962.5
21
-193450.0
31
0
0
LINE
8
electrical
10
189862.5
20
-193490.0
30
0
11
189962.5
21
-193490.0
31
0
0
LINE
8
electrical
10
189862.5
20
-193450.0
30
0
11
189962.5
21
-193450.0
31
0
0
LINE
8
electrical
10
190000.0
20
-193490.0
30
0
11
190000.0
21
-193450.0
31
0
0
LINE
8
electrical
10
190100.0
20
-193490.0
30
0
11
190100.0
21
-193450.0
31
0
0
LINE
8
electrical
10
190000.0
20
-193490.0
30
0
11
190100.0
21
-193490.0
31
0
0
LINE
8
electrical
10
190000.0
20
-193450.0
30
0
11
190100.0
21
-193450.0
31
0
0
LINE
8
electrical
10
190137.5
20
-193490.0
30
0
11
190137.5
21
-193450.0
31
0
0
LINE
8
electrical
10
190237.5
20
-193490.0
30
0
11
190237.5
21
-193450.0
31
0
0
LINE
8
electrical
10
190137.5
20
-193490.0
30
0
11
190237.5
21
-193490.0
31
0
0
LINE
8
electrical
10
190137.5
20
-193450.0
30
0
11
190237.5
21
-193450.0
31
0
0
LINE
8
electrical
10
189912.5
20
-193505.0
30
0
11
189935.88
21
-193505.0
31
0
0
LINE
8
electrical
10
189935.88
20
-193505.0
30
0
11
189889.12
21
-193505.0
31
0
0
LINE
8
electrical
10
189889.12
20
-193505.0
30
0
11
189912.5
21
-193505.0
31
0
0
LINE
8
electrical
10
189912.5
20
-193480.0
30
0
11
189912.5
21
-193505.0
31
0
0
LINE
8
electrical
10
189912.5
20
-193480.0
30
0
11
189935.88
21
-193480.0
31
0
0
LINE
8
electrical
10
189935.88
20
-193480.0
30
0
11
189889.12
21
-193480.0
31
0
0
LINE
8
electrical
10
189889.12
20
-193480.0
30
0
11
189912.5
21
-193480.0
31
0
0
LINE
8
electrical
10
190050.0
20
-193505.0
30
0
11
190073.38
21
-193505.0
31
0
0
LINE
8
electrical
10
190073.38
20
-193505.0
30
0
11
190026.62
21
-193505.0
31
0
0
LINE
8
electrical
10
190026.62
20
-193505.0
30
0
11
190050.0
21
-193505.0
31
0
0
LINE
8
electrical
10
190050.0
20
-193480.0
30
0
11
190050.0
21
-193505.0
31
0
0
LINE
8
electrical
10
190050.0
20
-193480.0
30
0
11
190073.38
21
-193480.0
31
0
0
LINE
8
electrical
10
190073.38
20
-193480.0
30
0
11
190026.62
21
-193480.0
31
0
0
LINE
8
electrical
10
190026.62
20
-193480.0
30
0
11
190050.0
21
-193480.0
31
0
0
LINE
8
electrical
10
190187.5
20
-193505.0
30
0
11
190210.88
21
-193505.0
31
0
0
LINE
8
electrical
10
190210.88
20
-193505.0
30
0
11
190164.12
21
-193505.0
31
0
0
LINE
8
electrical
10
190164.12
20
-193505.0
30
0
11
190187.5
21
-193505.0
31
0
0
LINE
8
electrical
10
190187.5
20
-193480.0
30
0
11
190187.5
21
-193505.0
31
0
0
LINE
8
electrical
10
190187.5
20
-193480.0
30
0
11
190210.88
21
-193480.0
31
0
0
LINE
8
electrical
10
190210.88
20
-193480.0
30
0
11
190164.12
21
-193480.0
31
0
0
LINE
8
electrical
10
190164.12
20
-193480.0
30
0
11
190187.5
21
-193480.0
31
0
0
LINE
8
electrical
10
190050.0
20
-193300.0
30
0
11
190065.59
21
-193300.0
31
0
0
LINE
8
electrical
10
190065.59
20
-193300.0
30
0
11
190034.41
21
-193300.0
31
0
0
LINE
8
electrical
10
190034.41
20
-193300.0
30
0
11
190050.0
21
-193300.0
31
0
0
LINE
8
electrical
10
190050.0
20
-226300.0
30
0
11
190050.0
21
-193300.0
31
0
0
LINE
8
electrical
10
190050.0
20
-226300.0
30
0
11
190065.59
21
-226300.0
31
0
0
LINE
8
electrical
10
190065.59
20
-226300.0
30
0
11
190034.41
21
-226300.0
31
0
0
LINE
8
electrical
10
190034.41
20
-226300.0
30
0
11
190050.0
21
-226300.0
31
0
0
LINE
8
electrical
10
190032.0
20
-193300.0
30
0
11
190059.0
21
-193284.41
31
0
0
LINE
8
electrical
10
190059.0
20
-193284.41
30
0
11
190059.0
21
-193315.59
31
0
0
LINE
8
electrical
10
190059.0
20
-193315.59
30
0
11
190032.0
21
-193300.0
31
0
0
LINE
8
electrical
10
190050.0
20
-193300.0
30
0
11
190069.44
21
-193300.0
31
0
0
LINE
8
electrical
10
190069.44
20
-193300.0
30
0
11
190050.0
21
-193300.0
31
0
0
LINE
8
lighting
10
168680.0
20
-191420.0
30
0
11
168680.0
21
-190780.0
31
0
0
LINE
8
lighting
10
169320.0
20
-191420.0
30
0
11
169320.0
21
-190780.0
31
0
0
LINE
8
lighting
10
168680.0
20
-191420.0
30
0
11
169320.0
21
-191420.0
31
0
0
LINE
8
lighting
10
168680.0
20
-190780.0
30
0
11
169320.0
21
-190780.0
31
0
0
LINE
8
lighting
10
168720.0
20
-191380.0
30
0
11
168720.0
21
-190820.0
31
0
0
LINE
8
lighting
10
169280.0
20
-191380.0
30
0
11
169280.0
21
-190820.0
31
0
0
LINE
8
lighting
10
168720.0
20
-191380.0
30
0
11
169280.0
21
-191380.0
31
0
0
LINE
8
lighting
10
168720.0
20
-190820.0
30
0
11
169280.0
21
-190820.0
31
0
0
LINE
8
lighting
10
168754.0
20
-191370.0
30
0
11
168754.0
21
-190830.0
31
0
0
LINE
8
lighting
10
168766.0
20
-191370.0
30
0
11
168766.0
21
-190830.0
31
0
0
LINE
8
lighting
10
168754.0
20
-191370.0
30
0
11
168766.0
21
-191370.0
31
0
0
LINE
8
lighting
10
168754.0
20
-190830.0
30
0
11
168766.0
21
-190830.0
31
0
0
LINE
8
lighting
10
168834.0
20
-191370.0
30
0
11
168834.0
21
-190830.0
31
0
0
LINE
8
lighting
10
168846.0
20
-191370.0
30
0
11
168846.0
21
-190830.0
31
0
0
LINE
8
lighting
10
168834.0
20
-191370.0
30
0
11
168846.0
21
-191370.0
31
0
0
LINE
8
lighting
10
168834.0
20
-190830.0
30
0
11
168846.0
21
-190830.0
31
0
0
LINE
8
lighting
10
168914.0
20
-191370.0
30
0
11
168914.0
21
-190830.0
31
0
0
LINE
8
lighting
10
168926.0
20
-191370.0
30
0
11
168926.0
21
-190830.0
31
0
0
LINE
8
lighting
10
168914.0
20
-191370.0
30
0
11
168926.0
21
-191370.0
31
0
0
LINE
8
lighting
10
168914.0
20
-190830.0
30
0
11
168926.0
21
-190830.0
31
0
0
LINE
8
lighting
10
168994.0
20
-191370.0
30
0
11
168994.0
21
-190830.0
31
0
0
LINE
8
lighting
10
169006.0
20
-191370.0
30
0
11
169006.0
21
-190830.0
31
0
0
LINE
8
lighting
10
168994.0
20
-191370.0
30
0
11
169006.0
21
-191370.0
31
0
0
LINE
8
lighting
10
168994.0
20
-190830.0
30
0
11
169006.0
21
-190830.0
31
0
0
LINE
8
lighting
10
169074.0
20
-191370.0
30
0
11
169074.0
21
-190830.0
31
0
0
LINE
8
lighting
10
169086.0
20
-191370.0
30
0
11
169086.0
21
-190830.0
31
0
0
LINE
8
lighting
10
169074.0
20
-191370.0
30
0
11
169086.0
21
-191370.0
31
0
0
LINE
8
lighting
10
169074.0
20
-190830.0
30
0
11
169086.0
21
-190830.0
31
0
0
LINE
8
lighting
10
169154.0
20
-191370.0
30
0
11
169154.0
21
-190830.0
31
0
0
LINE
8
lighting
10
169166.0
20
-191370.0
30
0
11
169166.0
21
-190830.0
31
0
0
LINE
8
lighting
10
169154.0
20
-191370.0
30
0
11
169166.0
21
-191370.0
31
0
0
LINE
8
lighting
10
169154.0
20
-190830.0
30
0
11
169166.0
21
-190830.0
31
0
0
LINE
8
lighting
10
169234.0
20
-191370.0
30
0
11
169234.0
21
-190830.0
31
0
0
LINE
8
lighting
10
169246.0
20
-191370.0
30
0
11
169246.0
21
-190830.0
31
0
0
LINE
8
lighting
10
169234.0
20
-191370.0
30
0
11
169246.0
21
-191370.0
31
0
0
LINE
8
lighting
10
169234.0
20
-190830.0
30
0
11
169246.0
21
-190830.0
31
0
0
LINE
8
lighting
10
169009.0
20
-191100.0
30
0
11
168995.5
21
-191092.21
31
0
0
LINE
8
lighting
10
168995.5
20
-191092.21
30
0
11
168995.5
21
-191107.79
31
0
0
LINE
8
lighting
10
168995.5
20
-191107.79
30
0
11
169009.0
21
-191100.0
31
0
0
LINE
8
lighting
10
186680.0
20
-191420.0
30
0
11
186680.0
21
-190780.0
31
0
0
LINE
8
lighting
10
187320.0
20
-191420.0
30
0
11
187320.0
21
-190780.0
31
0
0
LINE
8
lighting
10
186680.0
20
-191420.0
30
0
11
187320.0
21
-191420.0
31
0
0
LINE
8
lighting
10
186680.0
20
-190780.0
30
0
11
187320.0
21
-190780.0
31
0
0
LINE
8
lighting
10
186720.0
20
-191380.0
30
0
11
186720.0
21
-190820.0
31
0
0
LINE
8
lighting
10
187280.0
20
-191380.0
30
0
11
187280.0
21
-190820.0
31
0
0
LINE
8
lighting
10
186720.0
20
-191380.0
30
0
11
187280.0
21
-191380.0
31
0
0
LINE
8
lighting
10
186720.0
20
-190820.0
30
0
11
187280.0
21
-190820.0
31
0
0
LINE
8
lighting
10
186754.0
20
-191370.0
30
0
11
186754.0
21
-190830.0
31
0
0
LINE
8
lighting
10
186766.0
20
-191370.0
30
0
11
186766.0
21
-190830.0
31
0
0
LINE
8
lighting
10
186754.0
20
-191370.0
30
0
11
186766.0
21
-191370.0
31
0
0
LINE
8
lighting
10
186754.0
20
-190830.0
30
0
11
186766.0
21
-190830.0
31
0
0
LINE
8
lighting
10
186834.0
20
-191370.0
30
0
11
186834.0
21
-190830.0
31
0
0
LINE
8
lighting
10
186846.0
20
-191370.0
30
0
11
186846.0
21
-190830.0
31
0
0
LINE
8
lighting
10
186834.0
20
-191370.0
30
0
11
186846.0
21
-191370.0
31
0
0
LINE
8
lighting
10
186834.0
20
-190830.0
30
0
11
186846.0
21
-190830.0
31
0
0
LINE
8
lighting
10
186914.0
20
-191370.0
30
0
11
186914.0
21
-190830.0
31
0
0
LINE
8
lighting
10
186926.0
20
-191370.0
30
0
11
186926.0
21
-190830.0
31
0
0
LINE
8
lighting
10
186914.0
20
-191370.0
30
0
11
186926.0
21
-191370.0
31
0
0
LINE
8
lighting
10
186914.0
20
-190830.0
30
0
11
186926.0
21
-190830.0
31
0
0
LINE
8
lighting
10
186994.0
20
-191370.0
30
0
11
186994.0
21
-190830.0
31
0
0
LINE
8
lighting
10
187006.0
20
-191370.0
30
0
11
187006.0
21
-190830.0
31
0
0
LINE
8
lighting
10
186994.0
20
-191370.0
30
0
11
187006.0
21
-191370.0
31
0
0
LINE
8
lighting
10
186994.0
20
-190830.0
30
0
11
187006.0
21
-190830.0
31
0
0
LINE
8
lighting
10
187074.0
20
-191370.0
30
0
11
187074.0
21
-190830.0
31
0
0
LINE
8
lighting
10
187086.0
20
-191370.0
30
0
11
187086.0
21
-190830.0
31
0
0
LINE
8
lighting
10
187074.0
20
-191370.0
30
0
11
187086.0
21
-191370.0
31
0
0
LINE
8
lighting
10
187074.0
20
-190830.0
30
0
11
187086.0
21
-190830.0
31
0
0
LINE
8
lighting
10
187154.0
20
-191370.0
30
0
11
187154.0
21
-190830.0
31
0
0
LINE
8
lighting
10
187166.0
20
-191370.0
30
0
11
187166.0
21
-190830.0
31
0
0
LINE
8
lighting
10
187154.0
20
-191370.0
30
0
11
187166.0
21
-191370.0
31
0
0
LINE
8
lighting
10
187154.0
20
-190830.0
30
0
11
187166.0
21
-190830.0
31
0
0
LINE
8
lighting
10
187234.0
20
-191370.0
30
0
11
187234.0
21
-190830.0
31
0
0
LINE
8
lighting
10
187246.0
20
-191370.0
30
0
11
187246.0
21
-190830.0
31
0
0
LINE
8
lighting
10
187234.0
20
-191370.0
30
0
11
187246.0
21
-191370.0
31
0
0
LINE
8
lighting
10
187234.0
20
-190830.0
30
0
11
187246.0
21
-190830.0
31
0
0
LINE
8
lighting
10
187009.0
20
-191100.0
30
0
11
186995.5
21
-191092.21
31
0
0
LINE
8
lighting
10
186995.5
20
-191092.21
30
0
11
186995.5
21
-191107.79
31
0
0
LINE
8
lighting
10
186995.5
20
-191107.79
30
0
11
187009.0
21
-191100.0
31
0
0
LINE
8
lighting
10
177680.0
20
-191420.0
30
0
11
177680.0
21
-190780.0
31
0
0
LINE
8
lighting
10
178320.0
20
-191420.0
30
0
11
178320.0
21
-190780.0
31
0
0
LINE
8
lighting
10
177680.0
20
-191420.0
30
0
11
178320.0
21
-191420.0
31
0
0
LINE
8
lighting
10
177680.0
20
-190780.0
30
0
11
178320.0
21
-190780.0
31
0
0
LINE
8
lighting
10
177720.0
20
-191380.0
30
0
11
177720.0
21
-190820.0
31
0
0
LINE
8
lighting
10
178280.0
20
-191380.0
30
0
11
178280.0
21
-190820.0
31
0
0
LINE
8
lighting
10
177720.0
20
-191380.0
30
0
11
178280.0
21
-191380.0
31
0
0
LINE
8
lighting
10
177720.0
20
-190820.0
30
0
11
178280.0
21
-190820.0
31
0
0
LINE
8
lighting
10
177754.0
20
-191370.0
30
0
11
177754.0
21
-190830.0
31
0
0
LINE
8
lighting
10
177766.0
20
-191370.0
30
0
11
177766.0
21
-190830.0
31
0
0
LINE
8
lighting
10
177754.0
20
-191370.0
30
0
11
177766.0
21
-191370.0
31
0
0
LINE
8
lighting
10
177754.0
20
-190830.0
30
0
11
177766.0
21
-190830.0
31
0
0
LINE
8
lighting
10
177834.0
20
-191370.0
30
0
11
177834.0
21
-190830.0
31
0
0
LINE
8
lighting
10
177846.0
20
-191370.0
30
0
11
177846.0
21
-190830.0
31
0
0
LINE
8
lighting
10
177834.0
20
-191370.0
30
0
11
177846.0
21
-191370.0
31
0
0
LINE
8
lighting
10
177834.0
20
-190830.0
30
0
11
177846.0
21
-190830.0
31
0
0
LINE
8
lighting
10
177914.0
20
-191370.0
30
0
11
177914.0
21
-190830.0
31
0
0
LINE
8
lighting
10
177926.0
20
-191370.0
30
0
11
177926.0
21
-190830.0
31
0
0
LINE
8
lighting
10
177914.0
20
-191370.0
30
0
11
177926.0
21
-191370.0
31
0
0
LINE
8
lighting
10
177914.0
20
-190830.0
30
0
11
177926.0
21
-190830.0
31
0
0
LINE
8
lighting
10
177994.0
20
-191370.0
30
0
11
177994.0
21
-190830.0
31
0
0
LINE
8
lighting
10
178006.0
20
-191370.0
30
0
11
178006.0
21
-190830.0
31
0
0
LINE
8
lighting
10
177994.0
20
-191370.0
30
0
11
178006.0
21
-191370.0
31
0
0
LINE
8
lighting
10
177994.0
20
-190830.0
30
0
11
178006.0
21
-190830.0
31
0
0
LINE
8
lighting
10
178074.0
20
-191370.0
30
0
11
178074.0
21
-190830.0
31
0
0
LINE
8
lighting
10
178086.0
20
-191370.0
30
0
11
178086.0
21
-190830.0
31
0
0
LINE
8
lighting
10
178074.0
20
-191370.0
30
0
11
178086.0
21
-191370.0
31
0
0
LINE
8
lighting
10
178074.0
20
-190830.0
30
0
11
178086.0
21
-190830.0
31
0
0
LINE
8
lighting
10
178154.0
20
-191370.0
30
0
11
178154.0
21
-190830.0
31
0
0
LINE
8
lighting
10
178166.0
20
-191370.0
30
0
11
178166.0
21
-190830.0
31
0
0
LINE
8
lighting
10
178154.0
20
-191370.0
30
0
11
178166.0
21
-191370.0
31
0
0
LINE
8
lighting
10
178154.0
20
-190830.0
30
0
11
178166.0
21
-190830.0
31
0
0
LINE
8
lighting
10
178234.0
20
-191370.0
30
0
11
178234.0
21
-190830.0
31
0
0
LINE
8
lighting
10
178246.0
20
-191370.0
30
0
11
178246.0
21
-190830.0
31
0
0
LINE
8
lighting
10
178234.0
20
-191370.0
30
0
11
178246.0
21
-191370.0
31
0
0
LINE
8
lighting
10
178234.0
20
-190830.0
30
0
11
178246.0
21
-190830.0
31
0
0
LINE
8
lighting
10
178009.0
20
-191100.0
30
0
11
177995.5
21
-191092.21
31
0
0
LINE
8
lighting
10
177995.5
20
-191092.21
30
0
11
177995.5
21
-191107.79
31
0
0
LINE
8
lighting
10
177995.5
20
-191107.79
30
0
11
178009.0
21
-191100.0
31
0
0
LINE
8
lighting
10
168680.0
20
-181220.0
30
0
11
168680.0
21
-180580.0
31
0
0
LINE
8
lighting
10
169320.0
20
-181220.0
30
0
11
169320.0
21
-180580.0
31
0
0
LINE
8
lighting
10
168680.0
20
-181220.0
30
0
11
169320.0
21
-181220.0
31
0
0
LINE
8
lighting
10
168680.0
20
-180580.0
30
0
11
169320.0
21
-180580.0
31
0
0
LINE
8
lighting
10
168720.0
20
-181180.0
30
0
11
168720.0
21
-180620.0
31
0
0
LINE
8
lighting
10
169280.0
20
-181180.0
30
0
11
169280.0
21
-180620.0
31
0
0
LINE
8
lighting
10
168720.0
20
-181180.0
30
0
11
169280.0
21
-181180.0
31
0
0
LINE
8
lighting
10
168720.0
20
-180620.0
30
0
11
169280.0
21
-180620.0
31
0
0
LINE
8
lighting
10
168754.0
20
-181170.0
30
0
11
168754.0
21
-180630.0
31
0
0
LINE
8
lighting
10
168766.0
20
-181170.0
30
0
11
168766.0
21
-180630.0
31
0
0
LINE
8
lighting
10
168754.0
20
-181170.0
30
0
11
168766.0
21
-181170.0
31
0
0
LINE
8
lighting
10
168754.0
20
-180630.0
30
0
11
168766.0
21
-180630.0
31
0
0
LINE
8
lighting
10
168834.0
20
-181170.0
30
0
11
168834.0
21
-180630.0
31
0
0
LINE
8
lighting
10
168846.0
20
-181170.0
30
0
11
168846.0
21
-180630.0
31
0
0
LINE
8
lighting
10
168834.0
20
-181170.0
30
0
11
168846.0
21
-181170.0
31
0
0
LINE
8
lighting
10
168834.0
20
-180630.0
30
0
11
168846.0
21
-180630.0
31
0
0
LINE
8
lighting
10
168914.0
20
-181170.0
30
0
11
168914.0
21
-180630.0
31
0
0
LINE
8
lighting
10
168926.0
20
-181170.0
30
0
11
168926.0
21
-180630.0
31
0
0
LINE
8
lighting
10
168914.0
20
-181170.0
30
0
11
168926.0
21
-181170.0
31
0
0
LINE
8
lighting
10
168914.0
20
-180630.0
30
0
11
168926.0
21
-180630.0
31
0
0
LINE
8
lighting
10
168994.0
20
-181170.0
30
0
11
168994.0
21
-180630.0
31
0
0
LINE
8
lighting
10
169006.0
20
-181170.0
30
0
11
169006.0
21
-180630.0
31
0
0
LINE
8
lighting
10
168994.0
20
-181170.0
30
0
11
169006.0
21
-181170.0
31
0
0
LINE
8
lighting
10
168994.0
20
-180630.0
30
0
11
169006.0
21
-180630.0
31
0
0
LINE
8
lighting
10
169074.0
20
-181170.0
30
0
11
169074.0
21
-180630.0
31
0
0
LINE
8
lighting
10
169086.0
20
-181170.0
30
0
11
169086.0
21
-180630.0
31
0
0
LINE
8
lighting
10
169074.0
20
-181170.0
30
0
11
169086.0
21
-181170.0
31
0
0
LINE
8
lighting
10
169074.0
20
-180630.0
30
0
11
169086.0
21
-180630.0
31
0
0
LINE
8
lighting
10
169154.0
20
-181170.0
30
0
11
169154.0
21
-180630.0
31
0
0
LINE
8
lighting
10
169166.0
20
-181170.0
30
0
11
169166.0
21
-180630.0
31
0
0
LINE
8
lighting
10
169154.0
20
-181170.0
30
0
11
169166.0
21
-181170.0
31
0
0
LINE
8
lighting
10
169154.0
20
-180630.0
30
0
11
169166.0
21
-180630.0
31
0
0
LINE
8
lighting
10
169234.0
20
-181170.0
30
0
11
169234.0
21
-180630.0
31
0
0
LINE
8
lighting
10
169246.0
20
-181170.0
30
0
11
169246.0
21
-180630.0
31
0
0
LINE
8
lighting
10
169234.0
20
-181170.0
30
0
11
169246.0
21
-181170.0
31
0
0
LINE
8
lighting
10
169234.0
20
-180630.0
30
0
11
169246.0
21
-180630.0
31
0
0
LINE
8
lighting
10
169009.0
20
-180900.0
30
0
11
168995.5
21
-180892.21
31
0
0
LINE
8
lighting
10
168995.5
20
-180892.21
30
0
11
168995.5
21
-180907.79
31
0
0
LINE
8
lighting
10
168995.5
20
-180907.79
30
0
11
169009.0
21
-180900.0
31
0
0
LINE
8
lighting
10
186680.0
20
-181220.0
30
0
11
186680.0
21
-180580.0
31
0
0
LINE
8
lighting
10
187320.0
20
-181220.0
30
0
11
187320.0
21
-180580.0
31
0
0
LINE
8
lighting
10
186680.0
20
-181220.0
30
0
11
187320.0
21
-181220.0
31
0
0
LINE
8
lighting
10
186680.0
20
-180580.0
30
0
11
187320.0
21
-180580.0
31
0
0
LINE
8
lighting
10
186720.0
20
-181180.0
30
0
11
186720.0
21
-180620.0
31
0
0
LINE
8
lighting
10
187280.0
20
-181180.0
30
0
11
187280.0
21
-180620.0
31
0
0
LINE
8
lighting
10
186720.0
20
-181180.0
30
0
11
187280.0
21
-181180.0
31
0
0
LINE
8
lighting
10
186720.0
20
-180620.0
30
0
11
187280.0
21
-180620.0
31
0
0
LINE
8
lighting
10
186754.0
20
-181170.0
30
0
11
186754.0
21
-180630.0
31
0
0
LINE
8
lighting
10
186766.0
20
-181170.0
30
0
11
186766.0
21
-180630.0
31
0
0
LINE
8
lighting
10
186754.0
20
-181170.0
30
0
11
186766.0
21
-181170.0
31
0
0
LINE
8
lighting
10
186754.0
20
-180630.0
30
0
11
186766.0
21
-180630.0
31
0
0
LINE
8
lighting
10
186834.0
20
-181170.0
30
0
11
186834.0
21
-180630.0
31
0
0
LINE
8
lighting
10
186846.0
20
-181170.0
30
0
11
186846.0
21
-180630.0
31
0
0
LINE
8
lighting
10
186834.0
20
-181170.0
30
0
11
186846.0
21
-181170.0
31
0
0
LINE
8
lighting
10
186834.0
20
-180630.0
30
0
11
186846.0
21
-180630.0
31
0
0
LINE
8
lighting
10
186914.0
20
-181170.0
30
0
11
186914.0
21
-180630.0
31
0
0
LINE
8
lighting
10
186926.0
20
-181170.0
30
0
11
186926.0
21
-180630.0
31
0
0
LINE
8
lighting
10
186914.0
20
-181170.0
30
0
11
186926.0
21
-181170.0
31
0
0
LINE
8
lighting
10
186914.0
20
-180630.0
30
0
11
186926.0
21
-180630.0
31
0
0
LINE
8
lighting
10
186994.0
20
-181170.0
30
0
11
186994.0
21
-180630.0
31
0
0
LINE
8
lighting
10
187006.0
20
-181170.0
30
0
11
187006.0
21
-180630.0
31
0
0
LINE
8
lighting
10
186994.0
20
-181170.0
30
0
11
187006.0
21
-181170.0
31
0
0
LINE
8
lighting
10
186994.0
20
-180630.0
30
0
11
187006.0
21
-180630.0
31
0
0
LINE
8
lighting
10
187074.0
20
-181170.0
30
0
11
187074.0
21
-180630.0
31
0
0
LINE
8
lighting
10
187086.0
20
-181170.0
30
0
11
187086.0
21
-180630.0
31
0
0
LINE
8
lighting
10
187074.0
20
-181170.0
30
0
11
187086.0
21
-181170.0
31
0
0
LINE
8
lighting
10
187074.0
20
-180630.0
30
0
11
187086.0
21
-180630.0
31
0
0
LINE
8
lighting
10
187154.0
20
-181170.0
30
0
11
187154.0
21
-180630.0
31
0
0
LINE
8
lighting
10
187166.0
20
-181170.0
30
0
11
187166.0
21
-180630.0
31
0
0
LINE
8
lighting
10
187154.0
20
-181170.0
30
0
11
187166.0
21
-181170.0
31
0
0
LINE
8
lighting
10
187154.0
20
-180630.0
30
0
11
187166.0
21
-180630.0
31
0
0
LINE
8
lighting
10
187234.0
20
-181170.0
30
0
11
187234.0
21
-180630.0
31
0
0
LINE
8
lighting
10
187246.0
20
-181170.0
30
0
11
187246.0
21
-180630.0
31
0
0
LINE
8
lighting
10
187234.0
20
-181170.0
30
0
11
187246.0
21
-181170.0
31
0
0
LINE
8
lighting
10
187234.0
20
-180630.0
30
0
11
187246.0
21
-180630.0
31
0
0
LINE
8
lighting
10
187009.0
20
-180900.0
30
0
11
186995.5
21
-180892.21
31
0
0
LINE
8
lighting
10
186995.5
20
-180892.21
30
0
11
186995.5
21
-180907.79
31
0
0
LINE
8
lighting
10
186995.5
20
-180907.79
30
0
11
187009.0
21
-180900.0
31
0
0
LINE
8
lighting
10
177680.0
20
-181220.0
30
0
11
177680.0
21
-180580.0
31
0
0
LINE
8
lighting
10
178320.0
20
-181220.0
30
0
11
178320.0
21
-180580.0
31
0
0
LINE
8
lighting
10
177680.0
20
-181220.0
30
0
11
178320.0
21
-181220.0
31
0
0
LINE
8
lighting
10
177680.0
20
-180580.0
30
0
11
178320.0
21
-180580.0
31
0
0
LINE
8
lighting
10
177720.0
20
-181180.0
30
0
11
177720.0
21
-180620.0
31
0
0
LINE
8
lighting
10
178280.0
20
-181180.0
30
0
11
178280.0
21
-180620.0
31
0
0
LINE
8
lighting
10
177720.0
20
-181180.0
30
0
11
178280.0
21
-181180.0
31
0
0
LINE
8
lighting
10
177720.0
20
-180620.0
30
0
11
178280.0
21
-180620.0
31
0
0
LINE
8
lighting
10
177754.0
20
-181170.0
30
0
11
177754.0
21
-180630.0
31
0
0
LINE
8
lighting
10
177766.0
20
-181170.0
30
0
11
177766.0
21
-180630.0
31
0
0
LINE
8
lighting
10
177754.0
20
-181170.0
30
0
11
177766.0
21
-181170.0
31
0
0
LINE
8
lighting
10
177754.0
20
-180630.0
30
0
11
177766.0
21
-180630.0
31
0
0
LINE
8
lighting
10
177834.0
20
-181170.0
30
0
11
177834.0
21
-180630.0
31
0
0
LINE
8
lighting
10
177846.0
20
-181170.0
30
0
11
177846.0
21
-180630.0
31
0
0
LINE
8
lighting
10
177834.0
20
-181170.0
30
0
11
177846.0
21
-181170.0
31
0
0
LINE
8
lighting
10
177834.0
20
-180630.0
30
0
11
177846.0
21
-180630.0
31
0
0
LINE
8
lighting
10
177914.0
20
-181170.0
30
0
11
177914.0
21
-180630.0
31
0
0
LINE
8
lighting
10
177926.0
20
-181170.0
30
0
11
177926.0
21
-180630.0
31
0
0
LINE
8
lighting
10
177914.0
20
-181170.0
30
0
11
177926.0
21
-181170.0
31
0
0
LINE
8
lighting
10
177914.0
20
-180630.0
30
0
11
177926.0
21
-180630.0
31
0
0
LINE
8
lighting
10
177994.0
20
-181170.0
30
0
11
177994.0
21
-180630.0
31
0
0
LINE
8
lighting
10
178006.0
20
-181170.0
30
0
11
178006.0
21
-180630.0
31
0
0
LINE
8
lighting
10
177994.0
20
-181170.0
30
0
11
178006.0
21
-181170.0
31
0
0
LINE
8
lighting
10
177994.0
20
-180630.0
30
0
11
178006.0
21
-180630.0
31
0
0
LINE
8
lighting
10
178074.0
20
-181170.0
30
0
11
178074.0
21
-180630.0
31
0
0
LINE
8
lighting
10
178086.0
20
-181170.0
30
0
11
178086.0
21
-180630.0
31
0
0
LINE
8
lighting
10
178074.0
20
-181170.0
30
0
11
178086.0
21
-181170.0
31
0
0
LINE
8
lighting
10
178074.0
20
-180630.0
30
0
11
178086.0
21
-180630.0
31
0
0
LINE
8
lighting
10
178154.0
20
-181170.0
30
0
11
178154.0
21
-180630.0
31
0
0
LINE
8
lighting
10
178166.0
20
-181170.0
30
0
11
178166.0
21
-180630.0
31
0
0
LINE
8
lighting
10
178154.0
20
-181170.0
30
0
11
178166.0
21
-181170.0
31
0
0
LINE
8
lighting
10
178154.0
20
-180630.0
30
0
11
178166.0
21
-180630.0
31
0
0
LINE
8
lighting
10
178234.0
20
-181170.0
30
0
11
178234.0
21
-180630.0
31
0
0
LINE
8
lighting
10
178246.0
20
-181170.0
30
0
11
178246.0
21
-180630.0
31
0
0
LINE
8
lighting
10
178234.0
20
-181170.0
30
0
11
178246.0
21
-181170.0
31
0
0
LINE
8
lighting
10
178234.0
20
-180630.0
30
0
11
178246.0
21
-180630.0
31
0
0
LINE
8
lighting
10
178009.0
20
-180900.0
30
0
11
177995.5
21
-180892.21
31
0
0
LINE
8
lighting
10
177995.5
20
-180892.21
30
0
11
177995.5
21
-180907.79
31
0
0
LINE
8
lighting
10
177995.5
20
-180907.79
30
0
11
178009.0
21
-180900.0
31
0
0
LINE
8
electrical
10
169000.0
20
-191370.0
30
0
11
169000.0
21
-191377.79
31
0
0
LINE
8
electrical
10
169000.0
20
-191377.79
30
0
11
169000.0
21
-191362.21
31
0
0
LINE
8
electrical
10
169000.0
20
-191362.21
30
0
11
169000.0
21
-191370.0
31
0
0
LINE
8
electrical
10
190050.0
20
-191370.0
30
0
11
169000.0
21
-191370.0
31
0
0
LINE
8
electrical
10
190050.0
20
-191370.0
30
0
11
190050.0
21
-191377.79
31
0
0
LINE
8
electrical
10
190050.0
20
-191377.79
30
0
11
190050.0
21
-191362.21
31
0
0
LINE
8
electrical
10
190050.0
20
-191362.21
30
0
11
190050.0
21
-191370.0
31
0
0
LINE
8
electrical
10
169000.0
20
-180900.0
30
0
11
169007.79
21
-180900.0
31
0
0
LINE
8
electrical
10
169007.79
20
-180900.0
30
0
11
168992.21
21
-180900.0
31
0
0
LINE
8
electrical
10
168992.21
20
-180900.0
30
0
11
169000.0
21
-180900.0
31
0
0
LINE
8
electrical
10
169000.0
20
-191370.0
30
0
11
169000.0
21
-180900.0
31
0
0
LINE
8
electrical
10
169000.0
20
-191370.0
30
0
11
169007.79
21
-191370.0
31
0
0
LINE
8
electrical
10
169007.79
20
-191370.0
30
0
11
168992.21
21
-191370.0
31
0
0
LINE
8
electrical
10
168992.21
20
-191370.0
30
0
11
169000.0
21
-191370.0
31
0
0
LINE
8
electrical
10
187000.0
20
-180900.0
30
0
11
187007.79
21
-180900.0
31
0
0
LINE
8
electrical
10
187007.79
20
-180900.0
30
0
11
186992.21
21
-180900.0
31
0
0
LINE
8
electrical
10
186992.21
20
-180900.0
30
0
11
187000.0
21
-180900.0
31
0
0
LINE
8
electrical
10
187000.0
20
-191370.0
30
0
11
187000.0
21
-180900.0
31
0
0
LINE
8
electrical
10
187000.0
20
-191370.0
30
0
11
187007.79
21
-191370.0
31
0
0
LINE
8
electrical
10
187007.79
20
-191370.0
30
0
11
186992.21
21
-191370.0
31
0
0
LINE
8
electrical
10
186992.21
20
-191370.0
30
0
11
187000.0
21
-191370.0
31
0
0
LINE
8
electrical
10
178000.0
20
-180900.0
30
0
11
178007.79
21
-180900.0
31
0
0
LINE
8
electrical
10
178007.79
20
-180900.0
30
0
11
177992.21
21
-180900.0
31
0
0
LINE
8
electrical
10
177992.21
20
-180900.0
30
0
11
178000.0
21
-180900.0
31
0
0
LINE
8
electrical
10
178000.0
20
-191370.0
30
0
11
178000.0
21
-180900.0
31
0
0
LINE
8
electrical
10
178000.0
20
-191370.0
30
0
11
178007.79
21
-191370.0
31
0
0
LINE
8
electrical
10
178007.79
20
-191370.0
30
0
11
177992.21
21
-191370.0
31
0
0
LINE
8
electrical
10
177992.21
20
-191370.0
30
0
11
178000.0
21
-191370.0
31
0
0
LINE
8
electrical
10
190063.0
20
-193300.0
30
0
11
190043.5
21
-193288.74
31
0
0
LINE
8
electrical
10
190043.5
20
-193288.74
30
0
11
190043.5
21
-193311.26
31
0
0
LINE
8
electrical
10
190043.5
20
-193311.26
30
0
11
190063.0
21
-193300.0
31
0
0
LINE
8
electrical
10
186743.44
20
-191381.22
30
0
11
186753.28
21
-191364.39
31
0
0
LINE
8
electrical
10
186753.28
20
-191364.39
30
0
11
186753.28
21
-191364.39
31
0
0
LINE
8
electrical
10
186753.28
20
-191364.39
30
0
11
186743.44
21
-191381.22
31
0
0
LINE
8
electrical
10
190043.44
20
-193311.22
30
0
11
186743.44
21
-191381.22
31
0
0
LINE
8
electrical
10
190043.44
20
-193311.22
30
0
11
190053.28
21
-193294.39
31
0
0
LINE
8
electrical
10
190053.28
20
-193294.39
30
0
11
190053.28
21
-193294.39
31
0
0
LINE
8
electrical
10
190053.28
20
-193294.39
30
0
11
190043.44
21
-193311.22
31
0
0
LINE
8
electrical
10
169250.0
20
-191370.0
30
0
11
169250.0
21
-191381.26
31
0
0
LINE
8
electrical
10
169250.0
20
-191381.26
30
0
11
169250.0
21
-191358.74
31
0
0
LINE
8
electrical
10
169250.0
20
-191358.74
30
0
11
169250.0
21
-191370.0
31
0
0
LINE
8
electrical
10
186750.0
20
-191370.0
30
0
11
169250.0
21
-191370.0
31
0
0
LINE
8
electrical
10
186750.0
20
-191370.0
30
0
11
186750.0
21
-191381.26
31
0
0
LINE
8
electrical
10
186750.0
20
-191381.26
30
0
11
186750.0
21
-191358.74
31
0
0
LINE
8
electrical
10
186750.0
20
-191358.74
30
0
11
186750.0
21
-191370.0
31
0
0
LINE
8
electrical
10
190050.0
20
-193300.0
30
0
11
190064.04
21
-193300.0
31
0
0
LINE
8
electrical
10
190064.04
20
-193300.0
30
0
11
190050.0
21
-193300.0
31
0
0
LINE
8
electrical
10
186750.0
20
-191370.0
30
0
11
186764.04
21
-191370.0
31
0
0
LINE
8
electrical
10
186764.04
20
-191370.0
30
0
11
186750.0
21
-191370.0
31
0
0
LINE
8
electrical
10
190063.0
20
-193300.0
30
0
11
190043.5
21
-193288.74
31
0
0
LINE
8
electrical
10
190043.5
20
-193288.74
30
0
11
190043.5
21
-193311.26
31
0
0
LINE
8
electrical
10
190043.5
20
-193311.26
30
0
11
190063.0
21
-193300.0
31
0
0
LINE
8
electrical
10
186743.14
20
-191261.04
30
0
11
186753.43
21
-191244.48
31
0
0
LINE
8
electrical
10
186753.43
20
-191244.48
30
0
11
186753.43
21
-191244.48
31
0
0
LINE
8
electrical
10
186753.43
20
-191244.48
30
0
11
186743.14
21
-191261.04
31
0
0
LINE
8
electrical
10
190043.14
20
-193311.04
30
0
11
186743.14
21
-191261.04
31
0
0
LINE
8
electrical
10
190043.14
20
-193311.04
30
0
11
190053.43
21
-193294.48
31
0
0
LINE
8
electrical
10
190053.43
20
-193294.48
30
0
11
190053.43
21
-193294.48
31
0
0
LINE
8
electrical
10
190053.43
20
-193294.48
30
0
11
190043.14
21
-193311.04
31
0
0
LINE
8
electrical
10
169250.0
20
-191250.0
30
0
11
169250.0
21
-191261.26
31
0
0
LINE
8
electrical
10
169250.0
20
-191261.26
30
0
11
169250.0
21
-191238.74
31
0
0
LINE
8
electrical
10
169250.0
20
-191238.74
30
0
11
169250.0
21
-191250.0
31
0
0
LINE
8
electrical
10
186750.0
20
-191250.0
30
0
11
169250.0
21
-191250.0
31
0
0
LINE
8
electrical
10
186750.0
20
-191250.0
30
0
11
186750.0
21
-191261.26
31
0
0
LINE
8
electrical
10
186750.0
20
-191261.26
30
0
11
186750.0
21
-191238.74
31
0
0
LINE
8
electrical
10
186750.0
20
-191238.74
30
0
11
186750.0
21
-191250.0
31
0
0
LINE
8
electrical
10
190050.0
20
-193300.0
30
0
11
190064.04
21
-193300.0
31
0
0
LINE
8
electrical
10
190064.04
20
-193300.0
30
0
11
190050.0
21
-193300.0
31
0
0
LINE
8
electrical
10
186750.0
20
-191250.0
30
0
11
186764.04
21
-191250.0
31
0
0
LINE
8
electrical
10
186764.04
20
-191250.0
30
0
11
186750.0
21
-191250.0
31
0
0
LINE
8
electrical
10
190063.0
20
-193300.0
30
0
11
190043.5
21
-193288.74
31
0
0
LINE
8
electrical
10
190043.5
20
-193288.74
30
0
11
190043.5
21
-193311.26
31
0
0
LINE
8
electrical
10
190043.5
20
-193311.26
30
0
11
190063.0
21
-193300.0
31
0
0
LINE
8
electrical
10
186742.86
20
-191140.86
30
0
11
186753.57
21
-191124.57
31
0
0
LINE
8
electrical
10
186753.57
20
-191124.57
30
0
11
186753.57
21
-191124.57
31
0
0
LINE
8
electrical
10
186753.57
20
-191124.57
30
0
11
186742.86
21
-191140.86
31
0
0
LINE
8
electrical
10
190042.86
20
-193310.86
30
0
11
186742.86
21
-191140.86
31
0
0
LINE
8
electrical
10
190042.86
20
-193310.86
30
0
11
190053.57
21
-193294.57
31
0
0
LINE
8
electrical
10
190053.57
20
-193294.57
30
0
11
190053.57
21
-193294.57
31
0
0
LINE
8
electrical
10
190053.57
20
-193294.57
30
0
11
190042.86
21
-193310.86
31
0
0
LINE
8
electrical
10
169250.0
20
-191130.0
30
0
11
169250.0
21
-191141.26
31
0
0
LINE
8
electrical
10
169250.0
20
-191141.26
30
0
11
169250.0
21
-191118.74
31
0
0
LINE
8
electrical
10
169250.0
20
-191118.74
30
0
11
169250.0
21
-191130.0
31
0
0
LINE
8
electrical
10
186750.0
20
-191130.0
30
0
11
169250.0
21
-191130.0
31
0
0
LINE
8
electrical
10
186750.0
20
-191130.0
30
0
11
186750.0
21
-191141.26
31
0
0
LINE
8
electrical
10
186750.0
20
-191141.26
30
0
11
186750.0
21
-191118.74
31
0
0
LINE
8
electrical
10
186750.0
20
-191118.74
30
0
11
186750.0
21
-191130.0
31
0
0
LINE
8
electrical
10
190050.0
20
-193300.0
30
0
11
190064.04
21
-193300.0
31
0
0
LINE
8
electrical
10
190064.04
20
-193300.0
30
0
11
190050.0
21
-193300.0
31
0
0
LINE
8
electrical
10
186750.0
20
-191130.0
30
0
11
186764.04
21
-191130.0
31
0
0
LINE
8
electrical
10
186764.04
20
-191130.0
30
0
11
186750.0
21
-191130.0
31
0
0
LINE
8
electrical
10
170435.0
20
-193350.0
30
0
11
170435.0
21
-193290.0
31
0
0
LINE
8
electrical
10
170565.0
20
-193350.0
30
0
11
170565.0
21
-193290.0
31
0
0
LINE
8
electrical
10
170435.0
20
-193350.0
30
0
11
170565.0
21
-193350.0
31
0
0
LINE
8
electrical
10
170435.0
20
-193290.0
30
0
11
170565.0
21
-193290.0
31
0
0
LINE
8
electrical
10
170509.0
20
-193320.0
30
0
11
170495.5
21
-193312.21
31
0
0
LINE
8
electrical
10
170495.5
20
-193312.21
30
0
11
170495.5
21
-193327.79
31
0
0
LINE
8
electrical
10
170495.5
20
-193327.79
30
0
11
170509.0
21
-193320.0
31
0
0
LINE
8
electrical
10
190050.0
20
-193320.0
30
0
11
190050.0
21
-193327.79
31
0
0
LINE
8
electrical
10
190050.0
20
-193327.79
30
0
11
190050.0
21
-193312.21
31
0
0
LINE
8
electrical
10
190050.0
20
-193312.21
30
0
11
190050.0
21
-193320.0
31
0
0
LINE
8
electrical
10
170500.0
20
-193320.0
30
0
11
190050.0
21
-193320.0
31
0
0
LINE
8
electrical
10
170500.0
20
-193320.0
30
0
11
170500.0
21
-193327.79
31
0
0
LINE
8
electrical
10
170500.0
20
-193327.79
30
0
11
170500.0
21
-193312.21
31
0
0
LINE
8
electrical
10
170500.0
20
-193312.21
30
0
11
170500.0
21
-193320.0
31
0
0
LINE
8
electrical
10
170500.0
20
-193320.0
30
0
11
170509.72
21
-193320.0
31
0
0
LINE
8
electrical
10
170509.72
20
-193320.0
30
0
11
170500.0
21
-193320.0
31
0
0
LINE
8
electrical
10
185435.0
20
-193350.0
30
0
11
185435.0
21
-193290.0
31
0
0
LINE
8
electrical
10
185565.0
20
-193350.0
30
0
11
185565.0
21
-193290.0
31
0
0
LINE
8
electrical
10
185435.0
20
-193350.0
30
0
11
185565.0
21
-193350.0
31
0
0
LINE
8
electrical
10
185435.0
20
-193290.0
30
0
11
185565.0
21
-193290.0
31
0
0
LINE
8
electrical
10
185509.0
20
-193320.0
30
0
11
185495.5
21
-193312.21
31
0
0
LINE
8
electrical
10
185495.5
20
-193312.21
30
0
11
185495.5
21
-193327.79
31
0
0
LINE
8
electrical
10
185495.5
20
-193327.79
30
0
11
185509.0
21
-193320.0
31
0
0
LINE
8
electrical
10
190050.0
20
-193320.0
30
0
11
190050.0
21
-193327.79
31
0
0
LINE
8
electrical
10
190050.0
20
-193327.79
30
0
11
190050.0
21
-193312.21
31
0
0
LINE
8
electrical
10
190050.0
20
-193312.21
30
0
11
190050.0
21
-193320.0
31
0
0
LINE
8
electrical
10
185500.0
20
-193320.0
30
0
11
190050.0
21
-193320.0
31
0
0
LINE
8
electrical
10
185500.0
20
-193320.0
30
0
11
185500.0
21
-193327.79
31
0
0
LINE
8
electrical
10
185500.0
20
-193327.79
30
0
11
185500.0
21
-193312.21
31
0
0
LINE
8
electrical
10
185500.0
20
-193312.21
30
0
11
185500.0
21
-193320.0
31
0
0
LINE
8
electrical
10
185500.0
20
-193320.0
30
0
11
185509.72
21
-193320.0
31
0
0
LINE
8
electrical
10
185509.72
20
-193320.0
30
0
11
185500.0
21
-193320.0
31
0
0
LINE
8
hvac
10
165975.0
20
-192775.0
30
0
11
165975.0
21
-192025.0
31
0
0
LINE
8
hvac
10
167625.0
20
-192775.0
30
0
11
167625.0
21
-192025.0
31
0
0
LINE
8
hvac
10
165975.0
20
-192775.0
30
0
11
167625.0
21
-192775.0
31
0
0
LINE
8
hvac
10
165975.0
20
-192025.0
30
0
11
167625.0
21
-192025.0
31
0
0
LINE
8
hvac
10
166075.0
20
-192820.0
30
0
11
166075.0
21
-192780.0
31
0
0
LINE
8
hvac
10
167525.0
20
-192820.0
30
0
11
167525.0
21
-192780.0
31
0
0
LINE
8
hvac
10
166075.0
20
-192820.0
30
0
11
167525.0
21
-192820.0
31
0
0
LINE
8
hvac
10
166075.0
20
-192780.0
30
0
11
167525.0
21
-192780.0
31
0
0
LINE
8
hvac
10
166140.0
20
-192860.0
30
0
11
166140.0
21
-192800.0
31
0
0
LINE
8
hvac
10
166180.0
20
-192860.0
30
0
11
166180.0
21
-192800.0
31
0
0
LINE
8
hvac
10
166140.0
20
-192860.0
30
0
11
166180.0
21
-192860.0
31
0
0
LINE
8
hvac
10
166140.0
20
-192800.0
30
0
11
166180.0
21
-192800.0
31
0
0
LINE
8
hvac
10
166300.0
20
-192860.0
30
0
11
166300.0
21
-192800.0
31
0
0
LINE
8
hvac
10
166340.0
20
-192860.0
30
0
11
166340.0
21
-192800.0
31
0
0
LINE
8
hvac
10
166300.0
20
-192860.0
30
0
11
166340.0
21
-192860.0
31
0
0
LINE
8
hvac
10
166300.0
20
-192800.0
30
0
11
166340.0
21
-192800.0
31
0
0
LINE
8
hvac
10
166460.0
20
-192860.0
30
0
11
166460.0
21
-192800.0
31
0
0
LINE
8
hvac
10
166500.0
20
-192860.0
30
0
11
166500.0
21
-192800.0
31
0
0
LINE
8
hvac
10
166460.0
20
-192860.0
30
0
11
166500.0
21
-192860.0
31
0
0
LINE
8
hvac
10
166460.0
20
-192800.0
30
0
11
166500.0
21
-192800.0
31
0
0
LINE
8
hvac
10
166620.0
20
-192860.0
30
0
11
166620.0
21
-192800.0
31
0
0
LINE
8
hvac
10
166660.0
20
-192860.0
30
0
11
166660.0
21
-192800.0
31
0
0
LINE
8
hvac
10
166620.0
20
-192860.0
30
0
11
166660.0
21
-192860.0
31
0
0
LINE
8
hvac
10
166620.0
20
-192800.0
30
0
11
166660.0
21
-192800.0
31
0
0
LINE
8
hvac
10
166780.0
20
-192860.0
30
0
11
166780.0
21
-192800.0
31
0
0
LINE
8
hvac
10
166820.0
20
-192860.0
30
0
11
166820.0
21
-192800.0
31
0
0
LINE
8
hvac
10
166780.0
20
-192860.0
30
0
11
166820.0
21
-192860.0
31
0
0
LINE
8
hvac
10
166780.0
20
-192800.0
30
0
11
166820.0
21
-192800.0
31
0
0
LINE
8
hvac
10
166940.0
20
-192860.0
30
0
11
166940.0
21
-192800.0
31
0
0
LINE
8
hvac
10
166980.0
20
-192860.0
30
0
11
166980.0
21
-192800.0
31
0
0
LINE
8
hvac
10
166940.0
20
-192860.0
30
0
11
166980.0
21
-192860.0
31
0
0
LINE
8
hvac
10
166940.0
20
-192800.0
30
0
11
166980.0
21
-192800.0
31
0
0
LINE
8
hvac
10
167100.0
20
-192860.0
30
0
11
167100.0
21
-192800.0
31
0
0
LINE
8
hvac
10
167140.0
20
-192860.0
30
0
11
167140.0
21
-192800.0
31
0
0
LINE
8
hvac
10
167100.0
20
-192860.0
30
0
11
167140.0
21
-192860.0
31
0
0
LINE
8
hvac
10
167100.0
20
-192800.0
30
0
11
167140.0
21
-192800.0
31
0
0
LINE
8
hvac
10
167260.0
20
-192860.0
30
0
11
167260.0
21
-192800.0
31
0
0
LINE
8
hvac
10
167300.0
20
-192860.0
30
0
11
167300.0
21
-192800.0
31
0
0
LINE
8
hvac
10
167260.0
20
-192860.0
30
0
11
167300.0
21
-192860.0
31
0
0
LINE
8
hvac
10
167260.0
20
-192800.0
30
0
11
167300.0
21
-192800.0
31
0
0
LINE
8
hvac
10
167420.0
20
-192860.0
30
0
11
167420.0
21
-192800.0
31
0
0
LINE
8
hvac
10
167460.0
20
-192860.0
30
0
11
167460.0
21
-192800.0
31
0
0
LINE
8
hvac
10
167420.0
20
-192860.0
30
0
11
167460.0
21
-192860.0
31
0
0
LINE
8
hvac
10
167420.0
20
-192800.0
30
0
11
167460.0
21
-192800.0
31
0
0
LINE
8
hvac
10
166575.0
20
-192625.0
30
0
11
166575.0
21
-192175.0
31
0
0
LINE
8
hvac
10
167025.0
20
-192625.0
30
0
11
167025.0
21
-192175.0
31
0
0
LINE
8
hvac
10
166575.0
20
-192625.0
30
0
11
167025.0
21
-192625.0
31
0
0
LINE
8
hvac
10
166575.0
20
-192175.0
30
0
11
167025.0
21
-192175.0
31
0
0
LINE
8
hvac
10
169250.0
20
-186175.0
30
0
11
169250.0
21
-185825.0
31
0
0
LINE
8
hvac
10
186750.0
20
-186175.0
30
0
11
186750.0
21
-185825.0
31
0
0
LINE
8
hvac
10
169250.0
20
-186175.0
30
0
11
186750.0
21
-186175.0
31
0
0
LINE
8
hvac
10
169250.0
20
-185825.0
30
0
11
186750.0
21
-185825.0
31
0
0
LINE
8
hvac
10
166625.0
20
-192575.0
30
0
11
166625.0
21
-192225.0
31
0
0
LINE
8
hvac
10
178175.0
20
-192575.0
30
0
11
178175.0
21
-192225.0
31
0
0
LINE
8
hvac
10
166625.0
20
-192575.0
30
0
11
178175.0
21
-192575.0
31
0
0
LINE
8
hvac
10
166625.0
20
-192225.0
30
0
11
178175.0
21
-192225.0
31
0
0
LINE
8
hvac
10
177825.0
20
-192575.0
30
0
11
177825.0
21
-185825.0
31
0
0
LINE
8
hvac
10
178175.0
20
-192575.0
30
0
11
178175.0
21
-185825.0
31
0
0
LINE
8
hvac
10
177825.0
20
-192575.0
30
0
11
178175.0
21
-192575.0
31
0
0
LINE
8
hvac
10
177825.0
20
-185825.0
30
0
11
178175.0
21
-185825.0
31
0
0
LINE
8
hvac
10
172650.0
20
-186350.0
30
0
11
172650.0
21
-185650.0
31
0
0
LINE
8
hvac
10
173350.0
20
-186350.0
30
0
11
173350.0
21
-185650.0
31
0
0
LINE
8
hvac
10
172650.0
20
-186350.0
30
0
11
173350.0
21
-186350.0
31
0
0
LINE
8
hvac
10
172650.0
20
-185650.0
30
0
11
173350.0
21
-185650.0
31
0
0
LINE
8
hvac
10
182650.0
20
-186350.0
30
0
11
182650.0
21
-185650.0
31
0
0
LINE
8
hvac
10
183350.0
20
-186350.0
30
0
11
183350.0
21
-185650.0
31
0
0
LINE
8
hvac
10
182650.0
20
-186350.0
30
0
11
183350.0
21
-186350.0
31
0
0
LINE
8
hvac
10
182650.0
20
-185650.0
30
0
11
183350.0
21
-185650.0
31
0
0
LINE
8
sensors
10
165540.0
20
-190280.0
30
0
11
165540.0
21
-190120.0
31
0
0
LINE
8
sensors
10
165640.0
20
-190280.0
30
0
11
165640.0
21
-190120.0
31
0
0
LINE
8
sensors
10
165540.0
20
-190280.0
30
0
11
165640.0
21
-190280.0
31
0
0
LINE
8
sensors
10
165540.0
20
-190120.0
30
0
11
165640.0
21
-190120.0
31
0
0
LINE
8
sensors
10
165645.0
20
-190255.0
30
0
11
165645.0
21
-190145.0
31
0
0
LINE
8
sensors
10
165665.0
20
-190255.0
30
0
11
165665.0
21
-190145.0
31
0
0
LINE
8
sensors
10
165645.0
20
-190255.0
30
0
11
165665.0
21
-190255.0
31
0
0
LINE
8
sensors
10
165645.0
20
-190145.0
30
0
11
165665.0
21
-190145.0
31
0
0
LINE
8
sensors
10
165540.0
20
-189980.0
30
0
11
165540.0
21
-189820.0
31
0
0
LINE
8
sensors
10
165640.0
20
-189980.0
30
0
11
165640.0
21
-189820.0
31
0
0
LINE
8
sensors
10
165540.0
20
-189980.0
30
0
11
165640.0
21
-189980.0
31
0
0
LINE
8
sensors
10
165540.0
20
-189820.0
30
0
11
165640.0
21
-189820.0
31
0
0
LINE
8
sensors
10
165645.0
20
-189955.0
30
0
11
165645.0
21
-189845.0
31
0
0
LINE
8
sensors
10
165665.0
20
-189955.0
30
0
11
165665.0
21
-189845.0
31
0
0
LINE
8
sensors
10
165645.0
20
-189955.0
30
0
11
165665.0
21
-189955.0
31
0
0
LINE
8
sensors
10
165645.0
20
-189845.0
30
0
11
165665.0
21
-189845.0
31
0
0
LINE
8
sensors
10
165540.0
20
-189680.0
30
0
11
165540.0
21
-189520.0
31
0
0
LINE
8
sensors
10
165640.0
20
-189680.0
30
0
11
165640.0
21
-189520.0
31
0
0
LINE
8
sensors
10
165540.0
20
-189680.0
30
0
11
165640.0
21
-189680.0
31
0
0
LINE
8
sensors
10
165540.0
20
-189520.0
30
0
11
165640.0
21
-189520.0
31
0
0
LINE
8
sensors
10
165645.0
20
-189655.0
30
0
11
165645.0
21
-189545.0
31
0
0
LINE
8
sensors
10
165665.0
20
-189655.0
30
0
11
165665.0
21
-189545.0
31
0
0
LINE
8
sensors
10
165645.0
20
-189655.0
30
0
11
165665.0
21
-189655.0
31
0
0
LINE
8
sensors
10
165645.0
20
-189545.0
30
0
11
165665.0
21
-189545.0
31
0
0
LINE
8
sensors
10
178080.0
20
-186000.0
30
0
11
178000.0
21
-185920.0
31
0
0
LINE
8
sensors
10
178000.0
20
-185920.0
30
0
11
177920.0
21
-186000.0
31
0
0
LINE
8
sensors
10
177920.0
20
-186000.0
30
0
11
178000.0
21
-186080.0
31
0
0
LINE
8
sensors
10
178000.0
20
-186080.0
30
0
11
178080.0
21
-186000.0
31
0
0
LINE
8
sensors
10
178000.0
20
-186000.0
30
0
11
178065.0
21
-186000.0
31
0
0
LINE
8
sensors
10
178065.0
20
-186000.0
30
0
11
178000.0
21
-186000.0
31
0
0
LINE
8
sensors
10
165540.0
20
-189080.0
30
0
11
165540.0
21
-188920.0
31
0
0
LINE
8
sensors
10
165640.0
20
-189080.0
30
0
11
165640.0
21
-188920.0
31
0
0
LINE
8
sensors
10
165540.0
20
-189080.0
30
0
11
165640.0
21
-189080.0
31
0
0
LINE
8
sensors
10
165540.0
20
-188920.0
30
0
11
165640.0
21
-188920.0
31
0
0
LINE
8
sensors
10
165645.0
20
-189055.0
30
0
11
165645.0
21
-188945.0
31
0
0
LINE
8
sensors
10
165665.0
20
-189055.0
30
0
11
165665.0
21
-188945.0
31
0
0
LINE
8
sensors
10
165645.0
20
-189055.0
30
0
11
165665.0
21
-189055.0
31
0
0
LINE
8
sensors
10
165645.0
20
-188945.0
30
0
11
165665.0
21
-188945.0
31
0
0
ENDSEC
0
EOF
