0
SECTION
2
HEADER
9
$ACADVER
1
AC1015
9
$INSUNITS
70
4
0
ENDSEC
0
SECTION
2
ENTITIES
0
LINE
8
interiors
10
-200500.0
20
-193500.0
30
0
11
-200500.0
21
-178500.0
31
0
0
LINE
8
interiors
10
-200500.0
20
-193500.0
30
0
11
-189200.0
21
-193500.0
31
0
0
LINE
8
interiors
10
-189200.0
20
-193500.0
30
0
11
-186800.0
21
-193500.0
31
0
0
LINE
8
interiors
10
-186800.0
20
-193500.0
30
0
11
-175500.0
21
-193500.0
31
0
0
LINE
8
interiors
10
-200500.0
20
-193500.0
30
0
11
-175500.0
21
-193500.0
31
0
0
LINE
8
interiors
10
-200500.0
20
-178500.0
30
0
11
-175500.0
21
-178500.0
31
0
0
LINE
8
interiors
10
-175500.0
20
-193500.0
30
0
11
-175500.0
21
-178500.0
31
0
0
LINE
8
interiors
10
-175620.0
20
-193380.0
30
0
11
-200380.0
21
-193380.0
31
0
0
LINE
8
interiors
10
-175620.0
20
-193380.0
30
0
11
-175620.0
21
-178620.0
31
0
0
LINE
8
interiors
10
-175620.0
20
-178620.0
30
0
11
-200380.0
21
-178620.0
31
0
0
LINE
8
interiors
10
-200380.0
20
-193380.0
30
0
11
-200380.0
21
-178620.0
31
0
0
LINE
8
interiors
10
-194500.0
20
-178500.0
30
0
11
-181500.0
21
-178500.0
31
0
0
LINE
8
interiors
10
-186800.0
20
-193500.0
30
0
11
-186800.0
21
-193380.0
31
0
0
LINE
8
interiors
10
-175620.0
20
-193380.0
30
0
11
-186800.0
21
-193380.0
31
0
0
LINE
8
interiors
10
-189200.0
20
-193380.0
30
0
11
-200380.0
21
-193380.0
31
0
0
LINE
8
interiors
10
-189200.0
20
-193500.0
30
0
11
-189200.0
21
-193380.0
31
0
0
LINE
8
interiors
10
-189200.0
20
-193380.0
30
0
11
-186800.0
21
-193380.0
31
0
0
LINE
8
interiors
10
-194500.0
20
-178620.0
30
0
11
-181500.0
21
-178620.0
31
0
0
LINE
8
interiors
10
-194500.0
20
-178620.0
30
0
11
-194500.0
21
-178500.0
31
0
0
LINE
8
interiors
10
-181500.0
20
-178620.0
30
0
11
-181500.0
21
-178500.0
31
0
0
LINE
8
interiors
10
-194500.0
20
-178522.5
30
0
11
-194500.0
21
-178477.5
31
0
0
LINE
8
interiors
10
-181500.0
20
-178522.5
30
0
11
-181500.0
21
-178477.5
31
0
0
LINE
8
interiors
10
-194500.0
20
-178522.5
30
0
11
-181500.0
21
-178522.5
31
0
0
LINE
8
interiors
10
-194500.0
20
-178477.5
30
0
11
-181500.0
21
-178477.5
31
0
0
LINE
8
interiors
10
-200375.0
20
-193375.0
30
0
11
-200375.0
21
-178625.0
31
0
0
LINE
8
interiors
10
-175625.0
20
-193375.0
30
0
11
-175625.0
21
-178625.0
31
0
0
LINE
8
interiors
10
-200375.0
20
-193375.0
30
0
11
-175625.0
21
-193375.0
31
0
0
LINE
8
interiors
10
-200375.0
20
-178625.0
30
0
11
-175625.0
21
-178625.0
31
0
0
LINE
8
interiors
10
-189155.0
20
-193620.0
30
0
11
-189155.0
21
-193380.0
31
0
0
LINE
8
interiors
10
-189085.0
20
-193620.0
30
0
11
-189085.0
21
-193380.0
31
0
0
LINE
8
interiors
10
-189155.0
20
-193620.0
30
0
11
-189085.0
21
-193620.0
31
0
0
LINE
8
interiors
10
-189155.0
20
-193380.0
30
0
11
-189085.0
21
-193380.0
31
0
0
LINE
8
interiors
10
-186915.0
20
-193620.0
30
0
11
-186915.0
21
-193380.0
31
0
0
LINE
8
interiors
10
-186845.0
20
-193620.0
30
0
11
-186845.0
21
-193380.0
31
0
0
LINE
8
interiors
10
-186915.0
20
-193620.0
30
0
11
-186845.0
21
-193620.0
31
0
0
LINE
8
interiors
10
-186915.0
20
-193380.0
30
0
11
-186845.0
21
-193380.0
31
0
0
LINE
8
interiors
10
-189150.0
20
-193620.0
30
0
11
-189150.0
21
-193380.0
31
0
0
LINE
8
interiors
10
-186850.0
20
-193620.0
30
0
11
-186850.0
21
-193380.0
31
0
0
LINE
8
interiors
10
-189150.0
20
-193620.0
30
0
11
-186850.0
21
-193620.0
31
0
0
LINE
8
interiors
10
-189150.0
20
-193380.0
30
0
11
-186850.0
21
-193380.0
31
0
0
LINE
8
interiors
10
-189069.61
20
-193409.51
30
0
11
-189110.39
21
-193390.49
31
0
0
LINE
8
interiors
10
-188613.18
20
-192430.7
30
0
11
-188653.96
21
-192411.68
31
0
0
LINE
8
interiors
10
-189069.61
20
-193409.51
30
0
11
-188613.18
21
-192430.7
31
0
0
LINE
8
interiors
10
-189110.39
20
-193390.49
30
0
11
-188653.96
21
-192411.68
31
0
0
LINE
8
interiors
10
-194400.0
20
-189750.0
30
0
11
-194400.0
21
-188850.0
31
0
0
LINE
8
interiors
10
-192600.0
20
-189750.0
30
0
11
-192600.0
21
-188850.0
31
0
0
LINE
8
interiors
10
-194400.0
20
-189750.0
30
0
11
-192600.0
21
-189750.0
31
0
0
LINE
8
interiors
10
-194400.0
20
-188850.0
30
0
11
-192600.0
21
-188850.0
31
0
0
LINE
8
interiors
10
-194335.0
20
-189685.0
30
0
11
-194335.0
21
-189615.0
31
0
0
LINE
8
interiors
10
-194265.0
20
-189685.0
30
0
11
-194265.0
21
-189615.0
31
0
0
LINE
8
interiors
10
-194335.0
20
-189685.0
30
0
11
-194265.0
21
-189685.0
31
0
0
LINE
8
interiors
10
-194335.0
20
-189615.0
30
0
11
-194265.0
21
-189615.0
31
0
0
LINE
8
interiors
10
-194335.0
20
-188985.0
30
0
11
-194335.0
21
-188915.0
31
0
0
LINE
8
interiors
10
-194265.0
20
-188985.0
30
0
11
-194265.0
21
-188915.0
31
0
0
LINE
8
interiors
10
-194335.0
20
-188985.0
30
0
11
-194265.0
21
-188985.0
31
0
0
LINE
8
interiors
10
-194335.0
20
-188915.0
30
0
11
-194265.0
21
-188915.0
31
0
0
LINE
8
interiors
10
-192735.0
20
-189685.0
30
0
11
-192735.0
21
-189615.0
31
0
0
LINE
8
interiors
10
-192665.0
20
-189685.0
30
0
11
-192665.0
21
-189615.0
31
0
0
LINE
8
interiors
10
-192735.0
20
-189685.0
30
0
11
-192665.0
21
-189685.0
31
0
0
LINE
8
interiors
10
-192735.0
20
-189615.0
30
0
11
-192665.0
21
-189615.0
31
0
0
LINE
8
interiors
10
-192735.0
20
-188985.0
30
0
11
-192735.0
21
-188915.0
31
0
0
LINE
8
interiors
10
-192665.0
20
-188985.0
30
0
11
-192665.0
21
-188915.0
31
0
0
LINE
8
interiors
10
-192735.0
20
-188985.0
30
0
11
-192665.0
21
-188985.0
31
0
0
LINE
8
interiors
10
-192735.0
20
-188915.0
30
0
11
-192665.0
21
-188915.0
31
0
0
LINE
8
interiors
10
-193740.0
20
-190290.0
30
0
11
-193740.0
21
-189810.0
31
0
0
LINE
8
interiors
10
-193260.0
20
-190290.0
30
0
11
-193260.0
21
-189810.0
31
0
0
LINE
8
interiors
10
-193740.0
20
-190290.0
30
0
11
-193260.0
21
-190290.0
31
0
0
LINE
8
interiors
10
-193740.0
20
-189810.0
30
0
11
-193260.0
21
-189810.0
31
0
0
LINE
8
interiors
10
-193740.0
20
-189872.5
30
0
11
-193740.0
21
-189807.5
31
0
0
LINE
8
interiors
10
-193260.0
20
-189872.5
30
0
11
-193260.0
21
-189807.5
31
0
0
LINE
8
interiors
10
-193740.0
20
-189872.5
30
0
11
-193260.0
21
-189872.5
31
0
0
LINE
8
interiors
10
-193740.0
20
-189807.5
30
0
11
-193260.0
21
-189807.5
31
0
0
LINE
8
interiors
10
-193707.5
20
-190257.5
30
0
11
-193707.5
21
-190222.5
31
0
0
LINE
8
interiors
10
-193672.5
20
-190257.5
30
0
11
-193672.5
21
-190222.5
31
0
0
LINE
8
interiors
10
-193707.5
20
-190257.5
30
0
11
-193672.5
21
-190257.5
31
0
0
LINE
8
interiors
10
-193707.5
20
-190222.5
30
0
11
-193672.5
21
-190222.5
31
0
0
LINE
8
interiors
10
-193707.5
20
-189877.5
30
0
11
-193707.5
21
-189842.5
31
0
0
LINE
8
interiors
10
-193672.5
20
-189877.5
30
0
11
-193672.5
21
-189842.5
31
0
0
LINE
8
interiors
10
-193707.5
20
-189877.5
30
0
11
-193672.5
21
-189877.5
31
0
0
LINE
8
interiors
10
-193707.5
20
-189842.5
30
0
11
-193672.5
21
-189842.5
31
0
0
LINE
8
interiors
10
-193327.5
20
-190257.5
30
0
11
-193327.5
21
-190222.5
31
0
0
LINE
8
interiors
10
-193292.5
20
-190257.5
30
0
11
-193292.5
21
-190222.5
31
0
0
LINE
8
interiors
10
-193327.5
20
-190257.5
30
0
11
-193292.5
21
-190257.5
31
0
0
LINE
8
interiors
10
-193327.5
20
-190222.5
30
0
11
-193292.5
21
-190222.5
31
0
0
LINE
8
interiors
10
-193327.5
20
-189877.5
30
0
11
-193327.5
21
-189842.5
31
0
0
LINE
8
interiors
10
-193292.5
20
-189877.5
30
0
11
-193292.5
21
-189842.5
31
0
0
LINE
8
interiors
10
-193327.5
20
-189877.5
30
0
11
-193292.5
21
-189877.5
31
0
0
LINE
8
interiors
10
-193327.5
20
-189842.5
30
0
11
-193292.5
21
-189842.5
31
0
0
LINE
8
interiors
10
-193800.0
20
-189110.0
30
0
11
-193800.0
21
-189050.0
31
0
0
LINE
8
interiors
10
-193200.0
20
-189110.0
30
0
11
-193200.0
21
-189050.0
31
0
0
LINE
8
interiors
10
-193800.0
20
-189110.0
30
0
11
-193200.0
21
-189110.0
31
0
0
LINE
8
interiors
10
-193800.0
20
-189050.0
30
0
11
-193200.0
21
-189050.0
31
0
0
LINE
8
interiors
10
-193530.0
20
-189115.0
30
0
11
-193530.0
21
-189045.0
31
0
0
LINE
8
interiors
10
-193470.0
20
-189115.0
30
0
11
-193470.0
21
-189045.0
31
0
0
LINE
8
interiors
10
-193530.0
20
-189115.0
30
0
11
-193470.0
21
-189115.0
31
0
0
LINE
8
interiors
10
-193530.0
20
-189045.0
30
0
11
-193470.0
21
-189045.0
31
0
0
LINE
8
interiors
10
-193650.0
20
-189190.0
30
0
11
-193650.0
21
-188970.0
31
0
0
LINE
8
interiors
10
-193350.0
20
-189190.0
30
0
11
-193350.0
21
-188970.0
31
0
0
LINE
8
interiors
10
-193650.0
20
-189190.0
30
0
11
-193350.0
21
-189190.0
31
0
0
LINE
8
interiors
10
-193650.0
20
-188970.0
30
0
11
-193350.0
21
-188970.0
31
0
0
LINE
8
interiors
10
-183400.0
20
-189750.0
30
0
11
-183400.0
21
-188850.0
31
0
0
LINE
8
interiors
10
-181600.0
20
-189750.0
30
0
11
-181600.0
21
-188850.0
31
0
0
LINE
8
interiors
10
-183400.0
20
-189750.0
30
0
11
-181600.0
21
-189750.0
31
0
0
LINE
8
interiors
10
-183400.0
20
-188850.0
30
0
11
-181600.0
21
-188850.0
31
0
0
LINE
8
interiors
10
-183335.0
20
-189685.0
30
0
11
-183335.0
21
-189615.0
31
0
0
LINE
8
interiors
10
-183265.0
20
-189685.0
30
0
11
-183265.0
21
-189615.0
31
0
0
LINE
8
interiors
10
-183335.0
20
-189685.0
30
0
11
-183265.0
21
-189685.0
31
0
0
LINE
8
interiors
10
-183335.0
20
-189615.0
30
0
11
-183265.0
21
-189615.0
31
0
0
LINE
8
interiors
10
-183335.0
20
-188985.0
30
0
11
-183335.0
21
-188915.0
31
0
0
LINE
8
interiors
10
-183265.0
20
-188985.0
30
0
11
-183265.0
21
-188915.0
31
0
0
LINE
8
interiors
10
-183335.0
20
-188985.0
30
0
11
-183265.0
21
-188985.0
31
0
0
LINE
8
interiors
10
-183335.0
20
-188915.0
30
0
11
-183265.0
21
-188915.0
31
0
0
LINE
8
interiors
10
-181735.0
20
-189685.0
30
0
11
-181735.0
21
-189615.0
31
0
0
LINE
8
interiors
10
-181665.0
20
-189685.0
30
0
11
-181665.0
21
-189615.0
31
0
0
LINE
8
interiors
10
-181735.0
20
-189685.0
30
0
11
-181665.0
21
-189685.0
31
0
0
LINE
8
interiors
10
-181735.0
20
-189615.0
30
0
11
-181665.0
21
-189615.0
31
0
0
LINE
8
interiors
10
-181735.0
20
-188985.0
30
0
11
-181735.0
21
-188915.0
31
0
0
LINE
8
interiors
10
-181665.0
20
-188985.0
30
0
11
-181665.0
21
-188915.0
31
0
0
LINE
8
interiors
10
-181735.0
20
-188985.0
30
0
11
-181665.0
21
-188985.0
31
0
0
LINE
8
interiors
10
-181735.0
20
-188915.0
30
0
11
-181665.0
21
-188915.0
31
0
0
LINE
8
interiors
10
-182740.0
20
-190290.0
30
0
11
-182740.0
21
-189810.0
31
0
0
LINE
8
interiors
10
-182260.0
20
-190290.0
30
0
11
-182260.0
21
-189810.0
31
0
0
LINE
8
interiors
10
-182740.0
20
-190290.0
30
0
11
-182260.0
21
-190290.0
31
0
0
LINE
8
interiors
10
-182740.0
20
-189810.0
30
0
11
-182260.0
21
-189810.0
31
0
0
LINE
8
interiors
10
-182740.0
20
-189872.5
30
0
11
-182740.0
21
-189807.5
31
0
0
LINE
8
interiors
10
-182260.0
20
-189872.5
30
0
11
-182260.0
21
-189807.5
31
0
0
LINE
8
interiors
10
-182740.0
20
-189872.5
30
0
11
-182260.0
21
-189872.5
31
0
0
LINE
8
interiors
10
-182740.0
20
-189807.5
30
0
11
-182260.0
21
-189807.5
31
0
0
LINE
8
interiors
10
-182707.5
20
-190257.5
30
0
11
-182707.5
21
-190222.5
31
0
0
LINE
8
interiors
10
-182672.5
20
-190257.5
30
0
11
-182672.5
21
-190222.5
31
0
0
LINE
8
interiors
10
-182707.5
20
-190257.5
30
0
11
-182672.5
21
-190257.5
31
0
0
LINE
8
interiors
10
-182707.5
20
-190222.5
30
0
11
-182672.5
21
-190222.5
31
0
0
LINE
8
interiors
10
-182707.5
20
-189877.5
30
0
11
-182707.5
21
-189842.5
31
0
0
LINE
8
interiors
10
-182672.5
20
-189877.5
30
0
11
-182672.5
21
-189842.5
31
0
0
LINE
8
interiors
10
-182707.5
20
-189877.5
30
0
11
-182672.5
21
-189877.5
31
0
0
LINE
8
interiors
10
-182707.5
20
-189842.5
30
0
11
-182672.5
21
-189842.5
31
0
0
LINE
8
interiors
10
-182327.5
20
-190257.5
30
0
11
-182327.5
21
-190222.5
31
0
0
LINE
8
interiors
10
-182292.5
20
-190257.5
30
0
11
-182292.5
21
-190222.5
31
0
0
LINE
8
interiors
10
-182327.5
20
-190257.5
30
0
11
-182292.5
21
-190257.5
31
0
0
LINE
8
interiors
10
-182327.5
20
-190222.5
30
0
11
-182292.5
21
-190222.5
31
0
0
LINE
8
interiors
10
-182327.5
20
-189877.5
30
0
11
-182327.5
21
-189842.5
31
0
0
LINE
8
interiors
10
-182292.5
20
-189877.5
30
0
11
-182292.5
21
-189842.5
31
0
0
LINE
8
interiors
10
-182327.5
20
-189877.5
30
0
11
-182292.5
21
-189877.5
31
0
0
LINE
8
interiors
10
-182327.5
20
-189842.5
30
0
11
-182292.5
21
-189842.5
31
0
0
LINE
8
interiors
10
-182800.0
20
-189110.0
30
0
11
-182800.0
21
-189050.0
31
0
0
LINE
8
interiors
10
-182200.0
20
-189110.0
30
0
11
-182200.0
21
-189050.0
31
0
0
LINE
8
interiors
10
-182800.0
20
-189110.0
30
0
11
-182200.0
21
-189110.0
31
0
0
LINE
8
interiors
10
-182800.0
20
-189050.0
30
0
11
-182200.0
21
-189050.0
31
0
0
LINE
8
interiors
10
-182530.0
20
-189115.0
30
0
11
-182530.0
21
-189045.0
31
0
0
LINE
8
interiors
10
-182470.0
20
-189115.0
30
0
11
-182470.0
21
-189045.0
31
0
0
LINE
8
interiors
10
-182530.0
20
-189115.0
30
0
11
-182470.0
21
-189115.0
31
0
0
LINE
8
interiors
10
-182530.0
20
-189045.0
30
0
11
-182470.0
21
-189045.0
31
0
0
LINE
8
interiors
10
-182650.0
20
-189190.0
30
0
11
-182650.0
21
-188970.0
31
0
0
LINE
8
interiors
10
-182350.0
20
-189190.0
30
0
11
-182350.0
21
-188970.0
31
0
0
LINE
8
interiors
10
-182650.0
20
-189190.0
30
0
11
-182350.0
21
-189190.0
31
0
0
LINE
8
interiors
10
-182650.0
20
-188970.0
30
0
11
-182350.0
21
-188970.0
31
0
0
LINE
8
interiors
10
-194400.0
20
-183150.0
30
0
11
-194400.0
21
-182250.0
31
0
0
LINE
8
interiors
10
-192600.0
20
-183150.0
30
0
11
-192600.0
21
-182250.0
31
0
0
LINE
8
interiors
10
-194400.0
20
-183150.0
30
0
11
-192600.0
21
-183150.0
31
0
0
LINE
8
interiors
10
-194400.0
20
-182250.0
30
0
11
-192600.0
21
-182250.0
31
0
0
LINE
8
interiors
10
-194335.0
20
-183085.0
30
0
11
-194335.0
21
-183015.0
31
0
0
LINE
8
interiors
10
-194265.0
20
-183085.0
30
0
11
-194265.0
21
-183015.0
31
0
0
LINE
8
interiors
10
-194335.0
20
-183085.0
30
0
11
-194265.0
21
-183085.0
31
0
0
LINE
8
interiors
10
-194335.0
20
-183015.0
30
0
11
-194265.0
21
-183015.0
31
0
0
LINE
8
interiors
10
-194335.0
20
-182385.0
30
0
11
-194335.0
21
-182315.0
31
0
0
LINE
8
interiors
10
-194265.0
20
-182385.0
30
0
11
-194265.0
21
-182315.0
31
0
0
LINE
8
interiors
10
-194335.0
20
-182385.0
30
0
11
-194265.0
21
-182385.0
31
0
0
LINE
8
interiors
10
-194335.0
20
-182315.0
30
0
11
-194265.0
21
-182315.0
31
0
0
LINE
8
interiors
10
-192735.0
20
-183085.0
30
0
11
-192735.0
21
-183015.0
31
0
0
LINE
8
interiors
10
-192665.0
20
-183085.0
30
0
11
-192665.0
21
-183015.0
31
0
0
LINE
8
interiors
10
-192735.0
20
-183085.0
30
0
11
-192665.0
21
-183085.0
31
0
0
LINE
8
interiors
10
-192735.0
20
-183015.0
30
0
11
-192665.0
21
-183015.0
31
0
0
LINE
8
interiors
10
-192735.0
20
-182385.0
30
0
11
-192735.0
21
-182315.0
31
0
0
LINE
8
interiors
10
-192665.0
20
-182385.0
30
0
11
-192665.0
21
-182315.0
31
0
0
LINE
8
interiors
10
-192735.0
20
-182385.0
30
0
11
-192665.0
21
-182385.0
31
0
0
LINE
8
interiors
10
-192735.0
20
-182315.0
30
0
11
-192665.0
21
-182315.0
31
0
0
LINE
8
interiors
10
-193740.0
20
-183690.0
30
0
11
-193740.0
21
-183210.0
31
0
0
LINE
8
interiors
10
-193260.0
20
-183690.0
30
0
11
-193260.0
21
-183210.0
31
0
0
LINE
8
interiors
10
-193740.0
20
-183690.0
30
0
11
-193260.0
21
-183690.0
31
0
0
LINE
8
interiors
10
-193740.0
20
-183210.0
30
0
11
-193260.0
21
-183210.0
31
0
0
LINE
8
interiors
10
-193740.0
20
-183272.5
30
0
11
-193740.0
21
-183207.5
31
0
0
LINE
8
interiors
10
-193260.0
20
-183272.5
30
0
11
-193260.0
21
-183207.5
31
0
0
LINE
8
interiors
10
-193740.0
20
-183272.5
30
0
11
-193260.0
21
-183272.5
31
0
0
LINE
8
interiors
10
-193740.0
20
-183207.5
30
0
11
-193260.0
21
-183207.5
31
0
0
LINE
8
interiors
10
-193707.5
20
-183657.5
30
0
11
-193707.5
21
-183622.5
31
0
0
LINE
8
interiors
10
-193672.5
20
-183657.5
30
0
11
-193672.5
21
-183622.5
31
0
0
LINE
8
interiors
10
-193707.5
20
-183657.5
30
0
11
-193672.5
21
-183657.5
31
0
0
LINE
8
interiors
10
-193707.5
20
-183622.5
30
0
11
-193672.5
21
-183622.5
31
0
0
LINE
8
interiors
10
-193707.5
20
-183277.5
30
0
11
-193707.5
21
-183242.5
31
0
0
LINE
8
interiors
10
-193672.5
20
-183277.5
30
0
11
-193672.5
21
-183242.5
31
0
0
LINE
8
interiors
10
-193707.5
20
-183277.5
30
0
11
-193672.5
21
-183277.5
31
0
0
LINE
8
interiors
10
-193707.5
20
-183242.5
30
0
11
-193672.5
21
-183242.5
31
0
0
LINE
8
interiors
10
-193327.5
20
-183657.5
30
0
11
-193327.5
21
-183622.5
31
0
0
LINE
8
interiors
10
-193292.5
20
-183657.5
30
0
11
-193292.5
21
-183622.5
31
0
0
LINE
8
interiors
10
-193327.5
20
-183657.5
30
0
11
-193292.5
21
-183657.5
31
0
0
LINE
8
interiors
10
-193327.5
20
-183622.5
30
0
11
-193292.5
21
-183622.5
31
0
0
LINE
8
interiors
10
-193327.5
20
-183277.5
30
0
11
-193327.5
21
-183242.5
31
0
0
LINE
8
interiors
10
-193292.5
20
-183277.5
30
0
11
-193292.5
21
-183242.5
31
0
0
LINE
8
interiors
10
-193327.5
20
-183277.5
30
0
11
-193292.5
21
-183277.5
31
0
0
LINE
8
interiors
10
-193327.5
20
-183242.5
30
0
11
-193292.5
21
-183242.5
31
0
0
LINE
8
interiors
10
-193800.0
20
-182510.0
30
0
11
-193800.0
21
-182450.0
31
0
0
LINE
8
interiors
10
-193200.0
20
-182510.0
30
0
11
-193200.0
21
-182450.0
31
0
0
LINE
8
interiors
10
-193800.0
20
-182510.0
30
0
11
-193200.0
21
-182510.0
31
0
0
LINE
8
interiors
10
-193800.0
20
-182450.0
30
0
11
-193200.0
21
-182450.0
31
0
0
LINE
8
interiors
10
-193530.0
20
-182515.0
30
0
11
-193530.0
21
-182445.0
31
0
0
LINE
8
interiors
10
-193470.0
20
-182515.0
30
0
11
-193470.0
21
-182445.0
31
0
0
LINE
8
interiors
10
-193530.0
20
-182515.0
30
0
11
-193470.0
21
-182515.0
31
0
0
LINE
8
interiors
10
-193530.0
20
-182445.0
30
0
11
-193470.0
21
-182445.0
31
0
0
LINE
8
interiors
10
-193650.0
20
-182590.0
30
0
11
-193650.0
21
-182370.0
31
0
0
LINE
8
interiors
10
-193350.0
20
-182590.0
30
0
11
-193350.0
21
-182370.0
31
0
0
LINE
8
interiors
10
-193650.0
20
-182590.0
30
0
11
-193350.0
21
-182590.0
31
0
0
LINE
8
interiors
10
-193650.0
20
-182370.0
30
0
11
-193350.0
21
-182370.0
31
0
0
LINE
8
interiors
10
-183400.0
20
-183150.0
30
0
11
-183400.0
21
-182250.0
31
0
0
LINE
8
interiors
10
-181600.0
20
-183150.0
30
0
11
-181600.0
21
-182250.0
31
0
0
LINE
8
interiors
10
-183400.0
20
-183150.0
30
0
11
-181600.0
21
-183150.0
31
0
0
LINE
8
interiors
10
-183400.0
20
-182250.0
30
0
11
-181600.0
21
-182250.0
31
0
0
LINE
8
interiors
10
-183335.0
20
-183085.0
30
0
11
-183335.0
21
-183015.0
31
0
0
LINE
8
interiors
10
-183265.0
20
-183085.0
30
0
11
-183265.0
21
-183015.0
31
0
0
LINE
8
interiors
10
-183335.0
20
-183085.0
30
0
11
-183265.0
21
-183085.0
31
0
0
LINE
8
interiors
10
-183335.0
20
-183015.0
30
0
11
-183265.0
21
-183015.0
31
0
0
LINE
8
interiors
10
-183335.0
20
-182385.0
30
0
11
-183335.0
21
-182315.0
31
0
0
LINE
8
interiors
10
-183265.0
20
-182385.0
30
0
11
-183265.0
21
-182315.0
31
0
0
LINE
8
interiors
10
-183335.0
20
-182385.0
30
0
11
-183265.0
21
-182385.0
31
0
0
LINE
8
interiors
10
-183335.0
20
-182315.0
30
0
11
-183265.0
21
-182315.0
31
0
0
LINE
8
interiors
10
-181735.0
20
-183085.0
30
0
11
-181735.0
21
-183015.0
31
0
0
LINE
8
interiors
10
-181665.0
20
-183085.0
30
0
11
-181665.0
21
-183015.0
31
0
0
LINE
8
interiors
10
-181735.0
20
-183085.0
30
0
11
-181665.0
21
-183085.0
31
0
0
LINE
8
interiors
10
-181735.0
20
-183015.0
30
0
11
-181665.0
21
-183015.0
31
0
0
LINE
8
interiors
10
-181735.0
20
-182385.0
30
0
11
-181735.0
21
-182315.0
31
0
0
LINE
8
interiors
10
-181665.0
20
-182385.0
30
0
11
-181665.0
21
-182315.0
31
0
0
LINE
8
interiors
10
-181735.0
20
-182385.0
30
0
11
-181665.0
21
-182385.0
31
0
0
LINE
8
interiors
10
-181735.0
20
-182315.0
30
0
11
-181665.0
21
-182315.0
31
0
0
LINE
8
interiors
10
-182740.0
20
-183690.0
30
0
11
-182740.0
21
-183210.0
31
0
0
LINE
8
interiors
10
-182260.0
20
-183690.0
30
0
11
-182260.0
21
-183210.0
31
0
0
LINE
8
interiors
10
-182740.0
20
-183690.0
30
0
11
-182260.0
21
-183690.0
31
0
0
LINE
8
interiors
10
-182740.0
20
-183210.0
30
0
11
-182260.0
21
-183210.0
31
0
0
LINE
8
interiors
10
-182740.0
20
-183272.5
30
0
11
-182740.0
21
-183207.5
31
0
0
LINE
8
interiors
10
-182260.0
20
-183272.5
30
0
11
-182260.0
21
-183207.5
31
0
0
LINE
8
interiors
10
-182740.0
20
-183272.5
30
0
11
-182260.0
21
-183272.5
31
0
0
LINE
8
interiors
10
-182740.0
20
-183207.5
30
0
11
-182260.0
21
-183207.5
31
0
0
LINE
8
interiors
10
-182707.5
20
-183657.5
30
0
11
-182707.5
21
-183622.5
31
0
0
LINE
8
interiors
10
-182672.5
20
-183657.5
30
0
11
-182672.5
21
-183622.5
31
0
0
LINE
8
interiors
10
-182707.5
20
-183657.5
30
0
11
-182672.5
21
-183657.5
31
0
0
LINE
8
interiors
10
-182707.5
20
-183622.5
30
0
11
-182672.5
21
-183622.5
31
0
0
LINE
8
interiors
10
-182707.5
20
-183277.5
30
0
11
-182707.5
21
-183242.5
31
0
0
LINE
8
interiors
10
-182672.5
20
-183277.5
30
0
11
-182672.5
21
-183242.5
31
0
0
LINE
8
interiors
10
-182707.5
20
-183277.5
30
0
11
-182672.5
21
-183277.5
31
0
0
LINE
8
interiors
10
-182707.5
20
-183242.5
30
0
11
-182672.5
21
-183242.5
31
0
0
LINE
8
interiors
10
-182327.5
20
-183657.5
30
0
11
-182327.5
21
-183622.5
31
0
0
LINE
8
interiors
10
-182292.5
20
-183657.5
30
0
11
-182292.5
21
-183622.5
31
0
0
LINE
8
interiors
10
-182327.5
20
-183657.5
30
0
11
-182292.5
21
-183657.5
31
0
0
LINE
8
interiors
10
-182327.5
20
-183622.5
30
0
11
-182292.5
21
-183622.5
31
0
0
LINE
8
interiors
10
-182327.5
20
-183277.5
30
0
11
-182327.5
21
-183242.5
31
0
0
LINE
8
interiors
10
-182292.5
20
-183277.5
30
0
11
-182292.5
21
-183242.5
31
0
0
LINE
8
interiors
10
-182327.5
20
-183277.5
30
0
11
-182292.5
21
-183277.5
31
0
0
LINE
8
interiors
10
-182327.5
20
-183242.5
30
0
11
-182292.5
21
-183242.5
31
0
0
LINE
8
interiors
10
-182800.0
20
-182510.0
30
0
11
-182800.0
21
-182450.0
31
0
0
LINE
8
interiors
10
-182200.0
20
-182510.0
30
0
11
-182200.0
21
-182450.0
31
0
0
LINE
8
interiors
10
-182800.0
20
-182510.0
30
0
11
-182200.0
21
-182510.0
31
0
0
LINE
8
interiors
10
-182800.0
20
-182450.0
30
0
11
-182200.0
21
-182450.0
31
0
0
LINE
8
interiors
10
-182530.0
20
-182515.0
30
0
11
-182530.0
21
-182445.0
31
0
0
LINE
8
interiors
10
-182470.0
20
-182515.0
30
0
11
-182470.0
21
-182445.0
31
0
0
LINE
8
interiors
10
-182530.0
20
-182515.0
30
0
11
-182470.0
21
-182515.0
31
0
0
LINE
8
interiors
10
-182530.0
20
-182445.0
30
0
11
-182470.0
21
-182445.0
31
0
0
LINE
8
interiors
10
-182650.0
20
-182590.0
30
0
11
-182650.0
21
-182370.0
31
0
0
LINE
8
interiors
10
-182350.0
20
-182590.0
30
0
11
-182350.0
21
-182370.0
31
0
0
LINE
8
interiors
10
-182650.0
20
-182590.0
30
0
11
-182350.0
21
-182590.0
31
0
0
LINE
8
interiors
10
-182650.0
20
-182370.0
30
0
11
-182350.0
21
-182370.0
31
0
0
LINE
8
electrical
10
-176225.0
20
-193425.0
30
0
11
-176225.0
21
-193175.0
31
0
0
LINE
8
electrical
10
-175675.0
20
-193425.0
30
0
11
-175675.0
21
-193175.0
31
0
0
LINE
8
electrical
10
-176225.0
20
-193425.0
30
0
11
-175675.0
21
-193425.0
31
0
0
LINE
8
electrical
10
-176225.0
20
-193175.0
30
0
11
-175675.0
21
-193175.0
31
0
0
LINE
8
electrical
10
-176185.0
20
-193452.5
30
0
11
-176185.0
21
-193417.5
31
0
0
LINE
8
electrical
10
-175715.0
20
-193452.5
30
0
11
-175715.0
21
-193417.5
31
0
0
LINE
8
electrical
10
-176185.0
20
-193452.5
30
0
11
-175715.0
21
-193452.5
31
0
0
LINE
8
electrical
10
-176185.0
20
-193417.5
30
0
11
-175715.0
21
-193417.5
31
0
0
LINE
8
electrical
10
-176137.5
20
-193490.0
30
0
11
-176137.5
21
-193450.0
31
0
0
LINE
8
electrical
10
-176037.5
20
-193490.0
30
0
11
-176037.5
21
-193450.0
31
0
0
LINE
8
electrical
10
-176137.5
20
-193490.0
30
0
11
-176037.5
21
-193490.0
31
0
0
LINE
8
electrical
10
-176137.5
20
-193450.0
30
0
11
-176037.5
21
-193450.0
31
0
0
LINE
8
electrical
10
-176000.0
20
-193490.0
30
0
11
-176000.0
21
-193450.0
31
0
0
LINE
8
electrical
10
-175900.0
20
-193490.0
30
0
11
-175900.0
21
-193450.0
31
0
0
LINE
8
electrical
10
-176000.0
20
-193490.0
30
0
11
-175900.0
21
-193490.0
31
0
0
LINE
8
electrical
10
-176000.0
20
-193450.0
30
0
11
-175900.0
21
-193450.0
31
0
0
LINE
8
electrical
10
-175862.5
20
-193490.0
30
0
11
-175862.5
21
-193450.0
31
0
0
LINE
8
electrical
10
-175762.5
20
-193490.0
30
0
11
-175762.5
21
-193450.0
31
0
0
LINE
8
electrical
10
-175862.5
20
-193490.0
30
0
11
-175762.5
21
-193490.0
31
0
0
LINE
8
electrical
10
-175862.5
20
-193450.0
30
0
11
-175762.5
21
-193450.0
31
0
0
LINE
8
electrical
10
-176087.5
20
-193505.0
30
0
11
-176064.12
21
-193505.0
31
0
0
LINE
8
electrical
10
-176064.12
20
-193505.0
30
0
11
-176110.88
21
-193505.0
31
0
0
LINE
8
electrical
10
-176110.88
20
-193505.0
30
0
11
-176087.5
21
-193505.0
31
0
0
LINE
8
electrical
10
-176087.5
20
-193480.0
30
0
11
-176087.5
21
-193505.0
31
0
0
LINE
8
electrical
10
-176087.5
20
-193480.0
30
0
11
-176064.12
21
-193480.0
31
0
0
LINE
8
electrical
10
-176064.12
20
-193480.0
30
0
11
-176110.88
21
-193480.0
31
0
0
LINE
8
electrical
10
-176110.88
20
-193480.0
30
0
11
-176087.5
21
-193480.0
31
0
0
LINE
8
electrical
10
-175950.0
20
-193505.0
30
0
11
-175926.62
21
-193505.0
31
0
0
LINE
8
electrical
10
-175926.62
20
-193505.0
30
0
11
-175973.38
21
-193505.0
31
0
0
LINE
8
electrical
10
-175973.38
20
-193505.0
30
0
11
-175950.0
21
-193505.0
31
0
0
LINE
8
electrical
10
-175950.0
20
-193480.0
30
0
11
-175950.0
21
-193505.0
31
0
0
LINE
8
electrical
10
-175950.0
20
-193480.0
30
0
11
-175926.62
21
-193480.0
31
0
0
LINE
8
electrical
10
-175926.62
20
-193480.0
30
0
11
-175973.38
21
-193480.0
31
0
0
LINE
8
electrical
10
-175973.38
20
-193480.0
30
0
11
-175950.0
21
-193480.0
31
0
0
LINE
8
electrical
10
-175812.5
20
-193505.0
30
0
11
-175789.12
21
-193505.0
31
0
0
LINE
8
electrical
10
-175789.12
20
-193505.0
30
0
11
-175835.88
21
-193505.0
31
0
0
LINE
8
electrical
10
-175835.88
20
-193505.0
30
0
11
-175812.5
21
-193505.0
31
0
0
LINE
8
electrical
10
-175812.5
20
-193480.0
30
0
11
-175812.5
21
-193505.0
31
0
0
LINE
8
electrical
10
-175812.5
20
-193480.0
30
0
11
-175789.12
21
-193480.0
31
0
0
LINE
8
electrical
10
-175789.12
20
-193480.0
30
0
11
-175835.88
21
-193480.0
31
0
0
LINE
8
electrical
10
-175835.88
20
-193480.0
30
0
11
-175812.5
21
-193480.0
31
0
0
LINE
8
electrical
10
-175950.0
20
-193300.0
30
0
11
-175934.41
21
-193300.0
31
0
0
LINE
8
electrical
10
-175934.41
20
-193300.0
30
0
11
-175965.59
21
-193300.0
31
0
0
LINE
8
electrical
10
-175965.59
20
-193300.0
30
0
11
-175950.0
21
-193300.0
31
0
0
LINE
8
electrical
10
-175950.0
20
-226300.0
30
0
11
-175950.0
21
-193300.0
31
0
0
LINE
8
electrical
10
-175950.0
20
-226300.0
30
0
11
-175934.41
21
-226300.0
31
0
0
LINE
8
electrical
10
-175934.41
20
-226300.0
30
0
11
-175965.59
21
-226300.0
31
0
0
LINE
8
electrical
10
-175965.59
20
-226300.0
30
0
11
-175950.0
21
-226300.0
31
0
0
LINE
8
electrical
10
-175968.0
20
-193300.0
30
0
11
-175941.0
21
-193284.41
31
0
0
LINE
8
electrical
10
-175941.0
20
-193284.41
30
0
11
-175941.0
21
-193315.59
31
0
0
LINE
8
electrical
10
-175941.0
20
-193315.59
30
0
11
-175968.0
21
-193300.0
31
0
0
LINE
8
electrical
10
-175950.0
20
-193300.0
30
0
11
-175930.56
21
-193300.0
31
0
0
LINE
8
electrical
10
-175930.56
20
-193300.0
30
0
11
-175950.0
21
-193300.0
31
0
0
LINE
8
lighting
10
-197320.0
20
-191420.0
30
0
11
-197320.0
21
-190780.0
31
0
0
LINE
8
lighting
10
-196680.0
20
-191420.0
30
0
11
-196680.0
21
-190780.0
31
0
0
LINE
8
lighting
10
-197320.0
20
-191420.0
30
0
11
-196680.0
21
-191420.0
31
0
0
LINE
8
lighting
10
-197320.0
20
-190780.0
30
0
11
-196680.0
21
-190780.0
31
0
0
LINE
8
lighting
10
-197280.0
20
-191380.0
30
0
11
-197280.0
21
-190820.0
31
0
0
LINE
8
lighting
10
-196720.0
20
-191380.0
30
0
11
-196720.0
21
-190820.0
31
0
0
LINE
8
lighting
10
-197280.0
20
-191380.0
30
0
11
-196720.0
21
-191380.0
31
0
0
LINE
8
lighting
10
-197280.0
20
-190820.0
30
0
11
-196720.0
21
-190820.0
31
0
0
LINE
8
lighting
10
-197246.0
20
-191370.0
30
0
11
-197246.0
21
-190830.0
31
0
0
LINE
8
lighting
10
-197234.0
20
-191370.0
30
0
11
-197234.0
21
-190830.0
31
0
0
LINE
8
lighting
10
-197246.0
20
-191370.0
30
0
11
-197234.0
21
-191370.0
31
0
0
LINE
8
lighting
10
-197246.0
20
-190830.0
30
0
11
-197234.0
21
-190830.0
31
0
0
LINE
8
lighting
10
-197166.0
20
-191370.0
30
0
11
-197166.0
21
-190830.0
31
0
0
LINE
8
lighting
10
-197154.0
20
-191370.0
30
0
11
-197154.0
21
-190830.0
31
0
0
LINE
8
lighting
10
-197166.0
20
-191370.0
30
0
11
-197154.0
21
-191370.0
31
0
0
LINE
8
lighting
10
-197166.0
20
-190830.0
30
0
11
-197154.0
21
-190830.0
31
0
0
LINE
8
lighting
10
-197086.0
20
-191370.0
30
0
11
-197086.0
21
-190830.0
31
0
0
LINE
8
lighting
10
-197074.0
20
-191370.0
30
0
11
-197074.0
21
-190830.0
31
0
0
LINE
8
lighting
10
-197086.0
20
-191370.0
30
0
11
-197074.0
21
-191370.0
31
0
0
LINE
8
lighting
10
-197086.0
20
-190830.0
30
0
11
-197074.0
21
-190830.0
31
0
0
LINE
8
lighting
10
-197006.0
20
-191370.0
30
0
11
-197006.0
21
-190830.0
31
0
0
LINE
8
lighting
10
-196994.0
20
-191370.0
30
0
11
-196994.0
21
-190830.0
31
0
0
LINE
8
lighting
10
-197006.0
20
-191370.0
30
0
11
-196994.0
21
-191370.0
31
0
0
LINE
8
lighting
10
-197006.0
20
-190830.0
30
0
11
-196994.0
21
-190830.0
31
0
0
LINE
8
lighting
10
-196926.0
20
-191370.0
30
0
11
-196926.0
21
-190830.0
31
0
0
LINE
8
lighting
10
-196914.0
20
-191370.0
30
0
11
-196914.0
21
-190830.0
31
0
0
LINE
8
lighting
10
-196926.0
20
-191370.0
30
0
11
-196914.0
21
-191370.0
31
0
0
LINE
8
lighting
10
-196926.0
20
-190830.0
30
0
11
-196914.0
21
-190830.0
31
0
0
LINE
8
lighting
10
-196846.0
20
-191370.0
30
0
11
-196846.0
21
-190830.0
31
0
0
LINE
8
lighting
10
-196834.0
20
-191370.0
30
0
11
-196834.0
21
-190830.0
31
0
0
LINE
8
lighting
10
-196846.0
20
-191370.0
30
0
11
-196834.0
21
-191370.0
31
0
0
LINE
8
lighting
10
-196846.0
20
-190830.0
30
0
11
-196834.0
21
-190830.0
31
0
0
LINE
8
lighting
10
-196766.0
20
-191370.0
30
0
11
-196766.0
21
-190830.0
31
0
0
LINE
8
lighting
10
-196754.0
20
-191370.0
30
0
11
-196754.0
21
-190830.0
31
0
0
LINE
8
lighting
10
-196766.0
20
-191370.0
30
0
11
-196754.0
21
-191370.0
31
0
0
LINE
8
lighting
10
-196766.0
20
-190830.0
30
0
11
-196754.0
21
-190830.0
31
0
0
LINE
8
lighting
10
-196991.0
20
-191100.0
30
0
11
-197004.5
21
-191092.21
31
0
0
LINE
8
lighting
10
-197004.5
20
-191092.21
30
0
11
-197004.5
21
-191107.79
31
0
0
LINE
8
lighting
10
-197004.5
20
-191107.79
30
0
11
-196991.0
21
-191100.0
31
0
0
LINE
8
lighting
10
-179320.0
20
-191420.0
30
0
11
-179320.0
21
-190780.0
31
0
0
LINE
8
lighting
10
-178680.0
20
-191420.0
30
0
11
-178680.0
21
-190780.0
31
0
0
LINE
8
lighting
10
-179320.0
20
-191420.0
30
0
11
-178680.0
21
-191420.0
31
0
0
LINE
8
lighting
10
-179320.0
20
-190780.0
30
0
11
-178680.0
21
-190780.0
31
0
0
LINE
8
lighting
10
-179280.0
20
-191380.0
30
0
11
-179280.0
21
-190820.0
31
0
0
LINE
8
lighting
10
-178720.0
20
-191380.0
30
0
11
-178720.0
21
-190820.0
31
0
0
LINE
8
lighting
10
-179280.0
20
-191380.0
30
0
11
-178720.0
21
-191380.0
31
0
0
LINE
8
lighting
10
-179280.0
20
-190820.0
30
0
11
-178720.0
21
-190820.0
31
0
0
LINE
8
lighting
10
-179246.0
20
-191370.0
30
0
11
-179246.0
21
-190830.0
31
0
0
LINE
8
lighting
10
-179234.0
20
-191370.0
30
0
11
-179234.0
21
-190830.0
31
0
0
LINE
8
lighting
10
-179246.0
20
-191370.0
30
0
11
-179234.0
21
-191370.0
31
0
0
LINE
8
lighting
10
-179246.0
20
-190830.0
30
0
11
-179234.0
21
-190830.0
31
0
0
LINE
8
lighting
10
-179166.0
20
-191370.0
30
0
11
-179166.0
21
-190830.0
31
0
0
LINE
8
lighting
10
-179154.0
20
-191370.0
30
0
11
-179154.0
21
-190830.0
31
0
0
LINE
8
lighting
10
-179166.0
20
-191370.0
30
0
11
-179154.0
21
-191370.0
31
0
0
LINE
8
lighting
10
-179166.0
20
-190830.0
30
0
11
-179154.0
21
-190830.0
31
0
0
LINE
8
lighting
10
-179086.0
20
-191370.0
30
0
11
-179086.0
21
-190830.0
31
0
0
LINE
8
lighting
10
-179074.0
20
-191370.0
30
0
11
-179074.0
21
-190830.0
31
0
0
LINE
8
lighting
10
-179086.0
20
-191370.0
30
0
11
-179074.0
21
-191370.0
31
0
0
LINE
8
lighting
10
-179086.0
20
-190830.0
30
0
11
-179074.0
21
-190830.0
31
0
0
LINE
8
lighting
10
-179006.0
20
-191370.0
30
0
11
-179006.0
21
-190830.0
31
0
0
LINE
8
lighting
10
-178994.0
20
-191370.0
30
0
11
-178994.0
21
-190830.0
31
0
0
LINE
8
lighting
10
-179006.0
20
-191370.0
30
0
11
-178994.0
21
-191370.0
31
0
0
LINE
8
lighting
10
-179006.0
20
-190830.0
30
0
11
-178994.0
21
-190830.0
31
0
0
LINE
8
lighting
10
-178926.0
20
-191370.0
30
0
11
-178926.0
21
-190830.0
31
0
0
LINE
8
lighting
10
-178914.0
20
-191370.0
30
0
11
-178914.0
21
-190830.0
31
0
0
LINE
8
lighting
10
-178926.0
20
-191370.0
30
0
11
-178914.0
21
-191370.0
31
0
0
LINE
8
lighting
10
-178926.0
20
-190830.0
30
0
11
-178914.0
21
-190830.0
31
0
0
LINE
8
lighting
10
-178846.0
20
-191370.0
30
0
11
-178846.0
21
-190830.0
31
0
0
LINE
8
lighting
10
-178834.0
20
-191370.0
30
0
11
-178834.0
21
-190830.0
31
0
0
LINE
8
lighting
10
-178846.0
20
-191370.0
30
0
11
-178834.0
21
-191370.0
31
0
0
LINE
8
lighting
10
-178846.0
20
-190830.0
30
0
11
-178834.0
21
-190830.0
31
0
0
LINE
8
lighting
10
-178766.0
20
-191370.0
30
0
11
-178766.0
21
-190830.0
31
0
0
LINE
8
lighting
10
-178754.0
20
-191370.0
30
0
11
-178754.0
21
-190830.0
31
0
0
LINE
8
lighting
10
-178766.0
20
-191370.0
30
0
11
-178754.0
21
-191370.0
31
0
0
LINE
8
lighting
10
-178766.0
20
-190830.0
30
0
11
-178754.0
21
-190830.0
31
0
0
LINE
8
lighting
10
-178991.0
20
-191100.0
30
0
11
-179004.5
21
-191092.21
31
0
0
LINE
8
lighting
10
-179004.5
20
-191092.21
30
0
11
-179004.5
21
-191107.79
31
0
0
LINE
8
lighting
10
-179004.5
20
-191107.79
30
0
11
-178991.0
21
-191100.0
31
0
0
LINE
8
lighting
10
-188320.0
20
-191420.0
30
0
11
-188320.0
21
-190780.0
31
0
0
LINE
8
lighting
10
-187680.0
20
-191420.0
30
0
11
-187680.0
21
-190780.0
31
0
0
LINE
8
lighting
10
-188320.0
20
-191420.0
30
0
11
-187680.0
21
-191420.0
31
0
0
LINE
8
lighting
10
-188320.0
20
-190780.0
30
0
11
-187680.0
21
-190780.0
31
0
0
LINE
8
lighting
10
-188280.0
20
-191380.0
30
0
11
-188280.0
21
-190820.0
31
0
0
LINE
8
lighting
10
-187720.0
20
-191380.0
30
0
11
-187720.0
21
-190820.0
31
0
0
LINE
8
lighting
10
-188280.0
20
-191380.0
30
0
11
-187720.0
21
-191380.0
31
0
0
LINE
8
lighting
10
-188280.0
20
-190820.0
30
0
11
-187720.0
21
-190820.0
31
0
0
LINE
8
lighting
10
-188246.0
20
-191370.0
30
0
11
-188246.0
21
-190830.0
31
0
0
LINE
8
lighting
10
-188234.0
20
-191370.0
30
0
11
-188234.0
21
-190830.0
31
0
0
LINE
8
lighting
10
-188246.0
20
-191370.0
30
0
11
-188234.0
21
-191370.0
31
0
0
LINE
8
lighting
10
-188246.0
20
-190830.0
30
0
11
-188234.0
21
-190830.0
31
0
0
LINE
8
lighting
10
-188166.0
20
-191370.0
30
0
11
-188166.0
21
-190830.0
31
0
0
LINE
8
lighting
10
-188154.0
20
-191370.0
30
0
11
-188154.0
21
-190830.0
31
0
0
LINE
8
lighting
10
-188166.0
20
-191370.0
30
0
11
-188154.0
21
-191370.0
31
0
0
LINE
8
lighting
10
-188166.0
20
-190830.0
30
0
11
-188154.0
21
-190830.0
31
0
0
LINE
8
lighting
10
-188086.0
20
-191370.0
30
0
11
-188086.0
21
-190830.0
31
0
0
LINE
8
lighting
10
-188074.0
20
-191370.0
30
0
11
-188074.0
21
-190830.0
31
0
0
LINE
8
lighting
10
-188086.0
20
-191370.0
30
0
11
-188074.0
21
-191370.0
31
0
0
LINE
8
lighting
10
-188086.0
20
-190830.0
30
0
11
-188074.0
21
-190830.0
31
0
0
LINE
8
lighting
10
-188006.0
20
-191370.0
30
0
11
-188006.0
21
-190830.0
31
0
0
LINE
8
lighting
10
-187994.0
20
-191370.0
30
0
11
-187994.0
21
-190830.0
31
0
0
LINE
8
lighting
10
-188006.0
20
-191370.0
30
0
11
-187994.0
21
-191370.0
31
0
0
LINE
8
lighting
10
-188006.0
20
-190830.0
30
0
11
-187994.0
21
-190830.0
31
0
0
LINE
8
lighting
10
-187926.0
20
-191370.0
30
0
11
-187926.0
21
-190830.0
31
0
0
LINE
8
lighting
10
-187914.0
20
-191370.0
30
0
11
-187914.0
21
-190830.0
31
0
0
LINE
8
lighting
10
-187926.0
20
-191370.0
30
0
11
-187914.0
21
-191370.0
31
0
0
LINE
8
lighting
10
-187926.0
20
-190830.0
30
0
11
-187914.0
21
-190830.0
31
0
0
LINE
8
lighting
10
-187846.0
20
-191370.0
30
0
11
-187846.0
21
-190830.0
31
0
0
LINE
8
lighting
10
-187834.0
20
-191370.0
30
0
11
-187834.0
21
-190830.0
31
0
0
LINE
8
lighting
10
-187846.0
20
-191370.0
30
0
11
-187834.0
21
-191370.0
31
0
0
LINE
8
lighting
10
-187846.0
20
-190830.0
30
0
11
-187834.0
21
-190830.0
31
0
0
LINE
8
lighting
10
-187766.0
20
-191370.0
30
0
11
-187766.0
21
-190830.0
31
0
0
LINE
8
lighting
10
-187754.0
20
-191370.0
30
0
11
-187754.0
21
-190830.0
31
0
0
LINE
8
lighting
10
-187766.0
20
-191370.0
30
0
11
-187754.0
21
-191370.0
31
0
0
LINE
8
lighting
10
-187766.0
20
-190830.0
30
0
11
-187754.0
21
-190830.0
31
0
0
LINE
8
lighting
10
-187991.0
20
-191100.0
30
0
11
-188004.5
21
-191092.21
31
0
0
LINE
8
lighting
10
-188004.5
20
-191092.21
30
0
11
-188004.5
21
-191107.79
31
0
0
LINE
8
lighting
10
-188004.5
20
-191107.79
30
0
11
-187991.0
21
-191100.0
31
0
0
LINE
8
lighting
10
-197320.0
20
-181220.0
30
0
11
-197320.0
21
-180580.0
31
0
0
LINE
8
lighting
10
-196680.0
20
-181220.0
30
0
11
-196680.0
21
-180580.0
31
0
0
LINE
8
lighting
10
-197320.0
20
-181220.0
30
0
11
-196680.0
21
-181220.0
31
0
0
LINE
8
lighting
10
-197320.0
20
-180580.0
30
0
11
-196680.0
21
-180580.0
31
0
0
LINE
8
lighting
10
-197280.0
20
-181180.0
30
0
11
-197280.0
21
-180620.0
31
0
0
LINE
8
lighting
10
-196720.0
20
-181180.0
30
0
11
-196720.0
21
-180620.0
31
0
0
LINE
8
lighting
10
-197280.0
20
-181180.0
30
0
11
-196720.0
21
-181180.0
31
0
0
LINE
8
lighting
10
-197280.0
20
-180620.0
30
0
11
-196720.0
21
-180620.0
31
0
0
LINE
8
lighting
10
-197246.0
20
-181170.0
30
0
11
-197246.0
21
-180630.0
31
0
0
LINE
8
lighting
10
-197234.0
20
-181170.0
30
0
11
-197234.0
21
-180630.0
31
0
0
LINE
8
lighting
10
-197246.0
20
-181170.0
30
0
11
-197234.0
21
-181170.0
31
0
0
LINE
8
lighting
10
-197246.0
20
-180630.0
30
0
11
-197234.0
21
-180630.0
31
0
0
LINE
8
lighting
10
-197166.0
20
-181170.0
30
0
11
-197166.0
21
-180630.0
31
0
0
LINE
8
lighting
10
-197154.0
20
-181170.0
30
0
11
-197154.0
21
-180630.0
31
0
0
LINE
8
lighting
10
-197166.0
20
-181170.0
30
0
11
-197154.0
21
-181170.0
31
0
0
LINE
8
lighting
10
-197166.0
20
-180630.0
30
0
11
-197154.0
21
-180630.0
31
0
0
LINE
8
lighting
10
-197086.0
20
-181170.0
30
0
11
-197086.0
21
-180630.0
31
0
0
LINE
8
lighting
10
-197074.0
20
-181170.0
30
0
11
-197074.0
21
-180630.0
31
0
0
LINE
8
lighting
10
-197086.0
20
-181170.0
30
0
11
-197074.0
21
-181170.0
31
0
0
LINE
8
lighting
10
-197086.0
20
-180630.0
30
0
11
-197074.0
21
-180630.0
31
0
0
LINE
8
lighting
10
-197006.0
20
-181170.0
30
0
11
-197006.0
21
-180630.0
31
0
0
LINE
8
lighting
10
-196994.0
20
-181170.0
30
0
11
-196994.0
21
-180630.0
31
0
0
LINE
8
lighting
10
-197006.0
20
-181170.0
30
0
11
-196994.0
21
-181170.0
31
0
0
LINE
8
lighting
10
-197006.0
20
-180630.0
30
0
11
-196994.0
21
-180630.0
31
0
0
LINE
8
lighting
10
-196926.0
20
-181170.0
30
0
11
-196926.0
21
-180630.0
31
0
0
LINE
8
lighting
10
-196914.0
20
-181170.0
30
0
11
-196914.0
21
-180630.0
31
0
0
LINE
8
lighting
10
-196926.0
20
-181170.0
30
0
11
-196914.0
21
-181170.0
31
0
0
LINE
8
lighting
10
-196926.0
20
-180630.0
30
0
11
-196914.0
21
-180630.0
31
0
0
LINE
8
lighting
10
-196846.0
20
-181170.0
30
0
11
-196846.0
21
-180630.0
31
0
0
LINE
8
lighting
10
-196834.0
20
-181170.0
30
0
11
-196834.0
21
-180630.0
31
0
0
LINE
8
lighting
10
-196846.0
20
-181170.0
30
0
11
-196834.0
21
-181170.0
31
0
0
LINE
8
lighting
10
-196846.0
20
-180630.0
30
0
11
-196834.0
21
-180630.0
31
0
0
LINE
8
lighting
10
-196766.0
20
-181170.0
30
0
11
-196766.0
21
-180630.0
31
0
0
LINE
8
lighting
10
-196754.0
20
-181170.0
30
0
11
-196754.0
21
-180630.0
31
0
0
LINE
8
lighting
10
-196766.0
20
-181170.0
30
0
11
-196754.0
21
-181170.0
31
0
0
LINE
8
lighting
10
-196766.0
20
-180630.0
30
0
11
-196754.0
21
-180630.0
31
0
0
LINE
8
lighting
10
-196991.0
20
-180900.0
30
0
11
-197004.5
21
-180892.21
31
0
0
LINE
8
lighting
10
-197004.5
20
-180892.21
30
0
11
-197004.5
21
-180907.79
31
0
0
LINE
8
lighting
10
-197004.5
20
-180907.79
30
0
11
-196991.0
21
-180900.0
31
0
0
LINE
8
lighting
10
-179320.0
20
-181220.0
30
0
11
-179320.0
21
-180580.0
31
0
0
LINE
8
lighting
10
-178680.0
20
-181220.0
30
0
11
-178680.0
21
-180580.0
31
0
0
LINE
8
lighting
10
-179320.0
20
-181220.0
30
0
11
-178680.0
21
-181220.0
31
0
0
LINE
8
lighting
10
-179320.0
20
-180580.0
30
0
11
-178680.0
21
-180580.0
31
0
0
LINE
8
lighting
10
-179280.0
20
-181180.0
30
0
11
-179280.0
21
-180620.0
31
0
0
LINE
8
lighting
10
-178720.0
20
-181180.0
30
0
11
-178720.0
21
-180620.0
31
0
0
LINE
8
lighting
10
-179280.0
20
-181180.0
30
0
11
-178720.0
21
-181180.0
31
0
0
LINE
8
lighting
10
-179280.0
20
-180620.0
30
0
11
-178720.0
21
-180620.0
31
0
0
LINE
8
lighting
10
-179246.0
20
-181170.0
30
0
11
-179246.0
21
-180630.0
31
0
0
LINE
8
lighting
10
-179234.0
20
-181170.0
30
0
11
-179234.0
21
-180630.0
31
0
0
LINE
8
lighting
10
-179246.0
20
-181170.0
30
0
11
-179234.0
21
-181170.0
31
0
0
LINE
8
lighting
10
-179246.0
20
-180630.0
30
0
11
-179234.0
21
-180630.0
31
0
0
LINE
8
lighting
10
-179166.0
20
-181170.0
30
0
11
-179166.0
21
-180630.0
31
0
0
LINE
8
lighting
10
-179154.0
20
-181170.0
30
0
11
-179154.0
21
-180630.0
31
0
0
LINE
8
lighting
10
-179166.0
20
-181170.0
30
0
11
-179154.0
21
-181170.0
31
0
0
LINE
8
lighting
10
-179166.0
20
-180630.0
30
0
11
-179154.0
21
-180630.0
31
0
0
LINE
8
lighting
10
-179086.0
20
-181170.0
30
0
11
-179086.0
21
-180630.0
31
0
0
LINE
8
lighting
10
-179074.0
20
-181170.0
30
0
11
-179074.0
21
-180630.0
31
0
0
LINE
8
lighting
10
-179086.0
20
-181170.0
30
0
11
-179074.0
21
-181170.0
31
0
0
LINE
8
lighting
10
-179086.0
20
-180630.0
30
0
11
-179074.0
21
-180630.0
31
0
0
LINE
8
lighting
10
-179006.0
20
-181170.0
30
0
11
-179006.0
21
-180630.0
31
0
0
LINE
8
lighting
10
-178994.0
20
-181170.0
30
0
11
-178994.0
21
-180630.0
31
0
0
LINE
8
lighting
10
-179006.0
20
-181170.0
30
0
11
-178994.0
21
-181170.0
31
0
0
LINE
8
lighting
10
-179006.0
20
-180630.0
30
0
11
-178994.0
21
-180630.0
31
0
0
LINE
8
lighting
10
-178926.0
20
-181170.0
30
0
11
-178926.0
21
-180630.0
31
0
0
LINE
8
lighting
10
-178914.0
20
-181170.0
30
0
11
-178914.0
21
-180630.0
31
0
0
LINE
8
lighting
10
-178926.0
20
-181170.0
30
0
11
-178914.0
21
-181170.0
31
0
0
LINE
8
lighting
10
-178926.0
20
-180630.0
30
0
11
-178914.0
21
-180630.0
31
0
0
LINE
8
lighting
10
-178846.0
20
-181170.0
30
0
11
-178846.0
21
-180630.0
31
0
0
LINE
8
lighting
10
-178834.0
20
-181170.0
30
0
11
-178834.0
21
-180630.0
31
0
0
LINE
8
lighting
10
-178846.0
20
-181170.0
30
0
11
-178834.0
21
-181170.0
31
0
0
LINE
8
lighting
10
-178846.0
20
-180630.0
30
0
11
-178834.0
21
-180630.0
31
0
0
LINE
8
lighting
10
-178766.0
20
-181170.0
30
0
11
-178766.0
21
-180630.0
31
0
0
LINE
8
lighting
10
-178754.0
20
-181170.0
30
0
11
-178754.0
21
-180630.0
31
0
0
LINE
8
lighting
10
-178766.0
20
-181170.0
30
0
11
-178754.0
21
-181170.0
31
0
0
LINE
8
lighting
10
-178766.0
20
-180630.0
30
0
11
-178754.0
21
-180630.0
31
0
0
LINE
8
lighting
10
-178991.0
20
-180900.0
30
0
11
-179004.5
21
-180892.21
31
0
0
LINE
8
lighting
10
-179004.5
20
-180892.21
30
0
11
-179004.5
21
-180907.79
31
0
0
LINE
8
lighting
10
-179004.5
20
-180907.79
30
0
11
-178991.0
21
-180900.0
31
0
0
LINE
8
lighting
10
-188320.0
20
-181220.0
30
0
11
-188320.0
21
-180580.0
31
0
0
LINE
8
lighting
10
-187680.0
20
-181220.0
30
0
11
-187680.0
21
-180580.0
31
0
0
LINE
8
lighting
10
-188320.0
20
-181220.0
30
0
11
-187680.0
21
-181220.0
31
0
0
LINE
8
lighting
10
-188320.0
20
-180580.0
30
0
11
-187680.0
21
-180580.0
31
0
0
LINE
8
lighting
10
-188280.0
20
-181180.0
30
0
11
-188280.0
21
-180620.0
31
0
0
LINE
8
lighting
10
-187720.0
20
-181180.0
30
0
11
-187720.0
21
-180620.0
31
0
0
LINE
8
lighting
10
-188280.0
20
-181180.0
30
0
11
-187720.0
21
-181180.0
31
0
0
LINE
8
lighting
10
-188280.0
20
-180620.0
30
0
11
-187720.0
21
-180620.0
31
0
0
LINE
8
lighting
10
-188246.0
20
-181170.0
30
0
11
-188246.0
21
-180630.0
31
0
0
LINE
8
lighting
10
-188234.0
20
-181170.0
30
0
11
-188234.0
21
-180630.0
31
0
0
LINE
8
lighting
10
-188246.0
20
-181170.0
30
0
11
-188234.0
21
-181170.0
31
0
0
LINE
8
lighting
10
-188246.0
20
-180630.0
30
0
11
-188234.0
21
-180630.0
31
0
0
LINE
8
lighting
10
-188166.0
20
-181170.0
30
0
11
-188166.0
21
-180630.0
31
0
0
LINE
8
lighting
10
-188154.0
20
-181170.0
30
0
11
-188154.0
21
-180630.0
31
0
0
LINE
8
lighting
10
-188166.0
20
-181170.0
30
0
11
-188154.0
21
-181170.0
31
0
0
LINE
8
lighting
10
-188166.0
20
-180630.0
30
0
11
-188154.0
21
-180630.0
31
0
0
LINE
8
lighting
10
-188086.0
20
-181170.0
30
0
11
-188086.0
21
-180630.0
31
0
0
LINE
8
lighting
10
-188074.0
20
-181170.0
30
0
11
-188074.0
21
-180630.0
31
0
0
LINE
8
lighting
10
-188086.0
20
-181170.0
30
0
11
-188074.0
21
-181170.0
31
0
0
LINE
8
lighting
10
-188086.0
20
-180630.0
30
0
11
-188074.0
21
-180630.0
31
0
0
LINE
8
lighting
10
-188006.0
20
-181170.0
30
0
11
-188006.0
21
-180630.0
31
0
0
LINE
8
lighting
10
-187994.0
20
-181170.0
30
0
11
-187994.0
21
-180630.0
31
0
0
LINE
8
lighting
10
-188006.0
20
-181170.0
30
0
11
-187994.0
21
-181170.0
31
0
0
LINE
8
lighting
10
-188006.0
20
-180630.0
30
0
11
-187994.0
21
-180630.0
31
0
0
LINE
8
lighting
10
-187926.0
20
-181170.0
30
0
11
-187926.0
21
-180630.0
31
0
0
LINE
8
lighting
10
-187914.0
20
-181170.0
30
0
11
-187914.0
21
-180630.0
31
0
0
LINE
8
lighting
10
-187926.0
20
-181170.0
30
0
11
-187914.0
21
-181170.0
31
0
0
LINE
8
lighting
10
-187926.0
20
-180630.0
30
0
11
-187914.0
21
-180630.0
31
0
0
LINE
8
lighting
10
-187846.0
20
-181170.0
30
0
11
-187846.0
21
-180630.0
31
0
0
LINE
8
lighting
10
-187834.0
20
-181170.0
30
0
11
-187834.0
21
-180630.0
31
0
0
LINE
8
lighting
10
-187846.0
20
-181170.0
30
0
11
-187834.0
21
-181170.0
31
0
0
LINE
8
lighting
10
-187846.0
20
-180630.0
30
0
11
-187834.0
21
-180630.0
31
0
0
LINE
8
lighting
10
-187766.0
20
-181170.0
30
0
11
-187766.0
21
-180630.0
31
0
0
LINE
8
lighting
10
-187754.0
20
-181170.0
30
0
11
-187754.0
21
-180630.0
31
0
0
LINE
8
lighting
10
-187766.0
20
-181170.0
30
0
11
-187754.0
21
-181170.0
31
0
0
LINE
8
lighting
10
-187766.0
20
-180630.0
30
0
11
-187754.0
21
-180630.0
31
0
0
LINE
8
lighting
10
-187991.0
20
-180900.0
30
0
11
-188004.5
21
-180892.21
31
0
0
LINE
8
lighting
10
-188004.5
20
-180892.21
30
0
11
-188004.5
21
-180907.79
31
0
0
LINE
8
lighting
10
-188004.5
20
-180907.79
30
0
11
-187991.0
21
-180900.0
31
0
0
LINE
8
electrical
10
-197000.0
20
-191370.0
30
0
11
-197000.0
21
-191377.79
31
0
0
LINE
8
electrical
10
-197000.0
20
-191377.79
30
0
11
-197000.0
21
-191362.21
31
0
0
LINE
8
electrical
10
-197000.0
20
-191362.21
30
0
11
-197000.0
21
-191370.0
31
0
0
LINE
8
electrical
10
-175950.0
20
-191370.0
30
0
11
-197000.0
21
-191370.0
31
0
0
LINE
8
electrical
10
-175950.0
20
-191370.0
30
0
11
-175950.0
21
-191377.79
31
0
0
LINE
8
electrical
10
-175950.0
20
-191377.79
30
0
11
-175950.0
21
-191362.21
31
0
0
LINE
8
electrical
10
-175950.0
20
-191362.21
30
0
11
-175950.0
21
-191370.0
31
0
0
LINE
8
electrical
10
-197000.0
20
-180900.0
30
0
11
-196992.21
21
-180900.0
31
0
0
LINE
8
electrical
10
-196992.21
20
-180900.0
30
0
11
-197007.79
21
-180900.0
31
0
0
LINE
8
electrical
10
-197007.79
20
-180900.0
30
0
11
-197000.0
21
-180900.0
31
0
0
LINE
8
electrical
10
-197000.0
20
-191370.0
30
0
11
-197000.0
21
-180900.0
31
0
0
LINE
8
electrical
10
-197000.0
20
-191370.0
30
0
11
-196992.21
21
-191370.0
31
0
0
LINE
8
electrical
10
-196992.21
20
-191370.0
30
0
11
-197007.79
21
-191370.0
31
0
0
LINE
8
electrical
10
-197007.79
20
-191370.0
30
0
11
-197000.0
21
-191370.0
31
0
0
LINE
8
electrical
10
-179000.0
20
-180900.0
30
0
11
-178992.21
21
-180900.0
31
0
0
LINE
8
electrical
10
-178992.21
20
-180900.0
30
0
11
-179007.79
21
-180900.0
31
0
0
LINE
8
electrical
10
-179007.79
20
-180900.0
30
0
11
-179000.0
21
-180900.0
31
0
0
LINE
8
electrical
10
-179000.0
20
-191370.0
30
0
11
-179000.0
21
-180900.0
31
0
0
LINE
8
electrical
10
-179000.0
20
-191370.0
30
0
11
-178992.21
21
-191370.0
31
0
0
LINE
8
electrical
10
-178992.21
20
-191370.0
30
0
11
-179007.79
21
-191370.0
31
0
0
LINE
8
electrical
10
-179007.79
20
-191370.0
30
0
11
-179000.0
21
-191370.0
31
0
0
LINE
8
electrical
10
-188000.0
20
-180900.0
30
0
11
-187992.21
21
-180900.0
31
0
0
LINE
8
electrical
10
-187992.21
20
-180900.0
30
0
11
-188007.79
21
-180900.0
31
0
0
LINE
8
electrical
10
-188007.79
20
-180900.0
30
0
11
-188000.0
21
-180900.0
31
0
0
LINE
8
electrical
10
-188000.0
20
-191370.0
30
0
11
-188000.0
21
-180900.0
31
0
0
LINE
8
electrical
10
-188000.0
20
-191370.0
30
0
11
-187992.21
21
-191370.0
31
0
0
LINE
8
electrical
10
-187992.21
20
-191370.0
30
0
11
-188007.79
21
-191370.0
31
0
0
LINE
8
electrical
10
-188007.79
20
-191370.0
30
0
11
-188000.0
21
-191370.0
31
0
0
LINE
8
electrical
10
-175937.0
20
-193300.0
30
0
11
-175956.5
21
-193288.74
31
0
0
LINE
8
electrical
10
-175956.5
20
-193288.74
30
0
11
-175956.5
21
-193311.26
31
0
0
LINE
8
electrical
10
-175956.5
20
-193311.26
30
0
11
-175937.0
21
-193300.0
31
0
0
LINE
8
electrical
10
-179256.56
20
-191381.22
30
0
11
-179246.72
21
-191364.39
31
0
0
LINE
8
electrical
10
-179246.72
20
-191364.39
30
0
11
-179246.72
21
-191364.39
31
0
0
LINE
8
electrical
10
-179246.72
20
-191364.39
30
0
11
-179256.56
21
-191381.22
31
0
0
LINE
8
electrical
10
-175956.56
20
-193311.22
30
0
11
-179256.56
21
-191381.22
31
0
0
LINE
8
electrical
10
-175956.56
20
-193311.22
30
0
11
-175946.72
21
-193294.39
31
0
0
LINE
8
electrical
10
-175946.72
20
-193294.39
30
0
11
-175946.72
21
-193294.39
31
0
0
LINE
8
electrical
10
-175946.72
20
-193294.39
30
0
11
-175956.56
21
-193311.22
31
0
0
LINE
8
electrical
10
-196750.0
20
-191370.0
30
0
11
-196750.0
21
-191381.26
31
0
0
LINE
8
electrical
10
-196750.0
20
-191381.26
30
0
11
-196750.0
21
-191358.74
31
0
0
LINE
8
electrical
10
-196750.0
20
-191358.74
30
0
11
-196750.0
21
-191370.0
31
0
0
LINE
8
electrical
10
-179250.0
20
-191370.0
30
0
11
-196750.0
21
-191370.0
31
0
0
LINE
8
electrical
10
-179250.0
20
-191370.0
30
0
11
-179250.0
21
-191381.26
31
0
0
LINE
8
electrical
10
-179250.0
20
-191381.26
30
0
11
-179250.0
21
-191358.74
31
0
0
LINE
8
electrical
10
-179250.0
20
-191358.74
30
0
11
-179250.0
21
-191370.0
31
0
0
LINE
8
electrical
10
-175950.0
20
-193300.0
30
0
11
-175935.96
21
-193300.0
31
0
0
LINE
8
electrical
10
-175935.96
20
-193300.0
30
0
11
-175950.0
21
-193300.0
31
0
0
LINE
8
electrical
10
-179250.0
20
-191370.0
30
0
11
-179235.96
21
-191370.0
31
0
0
LINE
8
electrical
10
-179235.96
20
-191370.0
30
0
11
-179250.0
21
-191370.0
31
0
0
LINE
8
electrical
10
-175937.0
20
-193300.0
30
0
11
-175956.5
21
-193288.74
31
0
0
LINE
8
electrical
10
-175956.5
20
-193288.74
30
0
11
-175956.5
21
-193311.26
31
0
0
LINE
8
electrical
10
-175956.5
20
-193311.26
30
0
11
-175937.0
21
-193300.0
31
0
0
LINE
8
electrical
10
-179256.86
20
-191261.04
30
0
11
-179246.57
21
-191244.48
31
0
0
LINE
8
electrical
10
-179246.57
20
-191244.48
30
0
11
-179246.57
21
-191244.48
31
0
0
LINE
8
electrical
10
-179246.57
20
-191244.48
30
0
11
-179256.86
21
-191261.04
31
0
0
LINE
8
electrical
10
-175956.86
20
-193311.04
30
0
11
-179256.86
21
-191261.04
31
0
0
LINE
8
electrical
10
-175956.86
20
-193311.04
30
0
11
-175946.57
21
-193294.48
31
0
0
LINE
8
electrical
10
-175946.57
20
-193294.48
30
0
11
-175946.57
21
-193294.48
31
0
0
LINE
8
electrical
10
-175946.57
20
-193294.48
30
0
11
-175956.86
21
-193311.04
31
0
0
LINE
8
electrical
10
-196750.0
20
-191250.0
30
0
11
-196750.0
21
-191261.26
31
0
0
LINE
8
electrical
10
-196750.0
20
-191261.26
30
0
11
-196750.0
21
-191238.74
31
0
0
LINE
8
electrical
10
-196750.0
20
-191238.74
30
0
11
-196750.0
21
-191250.0
31
0
0
LINE
8
electrical
10
-179250.0
20
-191250.0
30
0
11
-196750.0
21
-191250.0
31
0
0
LINE
8
electrical
10
-179250.0
20
-191250.0
30
0
11
-179250.0
21
-191261.26
31
0
0
LINE
8
electrical
10
-179250.0
20
-191261.26
30
0
11
-179250.0
21
-191238.74
31
0
0
LINE
8
electrical
10
-179250.0
20
-191238.74
30
0
11
-179250.0
21
-191250.0
31
0
0
LINE
8
electrical
10
-175950.0
20
-193300.0
30
0
11
-175935.96
21
-193300.0
31
0
0
LINE
8
electrical
10
-175935.96
20
-193300.0
30
0
11
-175950.0
21
-193300.0
31
0
0
LINE
8
electrical
10
-179250.0
20
-191250.0
30
0
11
-179235.96
21
-191250.0
31
0
0
LINE
8
electrical
10
-179235.96
20
-191250.0
30
0
11
-179250.0
21
-191250.0
31
0
0
LINE
8
electrical
10
-175937.0
20
-193300.0
30
0
11
-175956.5
21
-193288.74
31
0
0
LINE
8
electrical
10
-175956.5
20
-193288.74
30
0
11
-175956.5
21
-193311.26
31
0
0
LINE
8
electrical
10
-175956.5
20
-193311.26
30
0
11
-175937.0
21
-193300.0
31
0
0
LINE
8
electrical
10
-179257.14
20
-191140.86
30
0
11
-179246.43
21
-191124.57
31
0
0
LINE
8
electrical
10
-179246.43
20
-191124.57
30
0
11
-179246.43
21
-191124.57
31
0
0
LINE
8
electrical
10
-179246.43
20
-191124.57
30
0
11
-179257.14
21
-191140.86
31
0
0
LINE
8
electrical
10
-175957.14
20
-193310.86
30
0
11
-179257.14
21
-191140.86
31
0
0
LINE
8
electrical
10
-175957.14
20
-193310.86
30
0
11
-175946.43
21
-193294.57
31
0
0
LINE
8
electrical
10
-175946.43
20
-193294.57
30
0
11
-175946.43
21
-193294.57
31
0
0
LINE
8
electrical
10
-175946.43
20
-193294.57
30
0
11
-175957.14
21
-193310.86
31
0
0
LINE
8
electrical
10
-196750.0
20
-191130.0
30
0
11
-196750.0
21
-191141.26
31
0
0
LINE
8
electrical
10
-196750.0
20
-191141.26
30
0
11
-196750.0
21
-191118.74
31
0
0
LINE
8
electrical
10
-196750.0
20
-191118.74
30
0
11
-196750.0
21
-191130.0
31
0
0
LINE
8
electrical
10
-179250.0
20
-191130.0
30
0
11
-196750.0
21
-191130.0
31
0
0
LINE
8
electrical
10
-179250.0
20
-191130.0
30
0
11
-179250.0
21
-191141.26
31
0
0
LINE
8
electrical
10
-179250.0
20
-191141.26
30
0
11
-179250.0
21
-191118.74
31
0
0
LINE
8
electrical
10
-179250.0
20
-191118.74
30
0
11
-179250.0
21
-191130.0
31
0
0
LINE
8
electrical
10
-175950.0
20
-193300.0
30
0
11
-175935.96
21
-193300.0
31
0
0
LINE
8
electrical
10
-175935.96
20
-193300.0
30
0
11
-175950.0
21
-193300.0
31
0
0
LINE
8
electrical
10
-179250.0
20
-191130.0
30
0
11
-179235.96
21
-191130.0
31
0
0
LINE
8
electrical
10
-179235.96
20
-191130.0
30
0
11
-179250.0
21
-191130.0
31
0
0
LINE
8
electrical
10
-195565.0
20
-193350.0
30
0
11
-195565.0
21
-193290.0
31
0
0
LINE
8
electrical
10
-195435.0
20
-193350.0
30
0
11
-195435.0
21
-193290.0
31
0
0
LINE
8
electrical
10
-195565.0
20
-193350.0
30
0
11
-195435.0
21
-193350.0
31
0
0
LINE
8
electrical
10
-195565.0
20
-193290.0
30
0
11
-195435.0
21
-193290.0
31
0
0
LINE
8
electrical
10
-195491.0
20
-193320.0
30
0
11
-195504.5
21
-193312.21
31
0
0
LINE
8
electrical
10
-195504.5
20
-193312.21
30
0
11
-195504.5
21
-193327.79
31
0
0
LINE
8
electrical
10
-195504.5
20
-193327.79
30
0
11
-195491.0
21
-193320.0
31
0
0
LINE
8
electrical
10
-175950.0
20
-193320.0
30
0
11
-175950.0
21
-193327.79
31
0
0
LINE
8
electrical
10
-175950.0
20
-193327.79
30
0
11
-175950.0
21
-193312.21
31
0
0
LINE
8
electrical
10
-175950.0
20
-193312.21
30
0
11
-175950.0
21
-193320.0
31
0
0
LINE
8
electrical
10
-195500.0
20
-193320.0
30
0
11
-175950.0
21
-193320.0
31
0
0
LINE
8
electrical
10
-195500.0
20
-193320.0
30
0
11
-195500.0
21
-193327.79
31
0
0
LINE
8
electrical
10
-195500.0
20
-193327.79
30
0
11
-195500.0
21
-193312.21
31
0
0
LINE
8
electrical
10
-195500.0
20
-193312.21
30
0
11
-195500.0
21
-193320.0
31
0
0
LINE
8
electrical
10
-195500.0
20
-193320.0
30
0
11
-195490.28
21
-193320.0
31
0
0
LINE
8
electrical
10
-195490.28
20
-193320.0
30
0
11
-195500.0
21
-193320.0
31
0
0
LINE
8
electrical
10
-180565.0
20
-193350.0
30
0
11
-180565.0
21
-193290.0
31
0
0
LINE
8
electrical
10
-180435.0
20
-193350.0
30
0
11
-180435.0
21
-193290.0
31
0
0
LINE
8
electrical
10
-180565.0
20
-193350.0
30
0
11
-180435.0
21
-193350.0
31
0
0
LINE
8
electrical
10
-180565.0
20
-193290.0
30
0
11
-180435.0
21
-193290.0
31
0
0
LINE
8
electrical
10
-180491.0
20
-193320.0
30
0
11
-180504.5
21
-193312.21
31
0
0
LINE
8
electrical
10
-180504.5
20
-193312.21
30
0
11
-180504.5
21
-193327.79
31
0
0
LINE
8
electrical
10
-180504.5
20
-193327.79
30
0
11
-180491.0
21
-193320.0
31
0
0
LINE
8
electrical
10
-175950.0
20
-193320.0
30
0
11
-175950.0
21
-193327.79
31
0
0
LINE
8
electrical
10
-175950.0
20
-193327.79
30
0
11
-175950.0
21
-193312.21
31
0
0
LINE
8
electrical
10
-175950.0
20
-193312.21
30
0
11
-175950.0
21
-193320.0
31
0
0
LINE
8
electrical
10
-180500.0
20
-193320.0
30
0
11
-175950.0
21
-193320.0
31
0
0
LINE
8
electrical
10
-180500.0
20
-193320.0
30
0
11
-180500.0
21
-193327.79
31
0
0
LINE
8
electrical
10
-180500.0
20
-193327.79
30
0
11
-180500.0
21
-193312.21
31
0
0
LINE
8
electrical
10
-180500.0
20
-193312.21
30
0
11
-180500.0
21
-193320.0
31
0
0
LINE
8
electrical
10
-180500.0
20
-193320.0
30
0
11
-180490.28
21
-193320.0
31
0
0
LINE
8
electrical
10
-180490.28
20
-193320.0
30
0
11
-180500.0
21
-193320.0
31
0
0
LINE
8
hvac
10
-200025.0
20
-192775.0
30
0
11
-200025.0
21
-192025.0
31
0
0
LINE
8
hvac
10
-198375.0
20
-192775.0
30
0
11
-198375.0
21
-192025.0
31
0
0
LINE
8
hvac
10
-200025.0
20
-192775.0
30
0
11
-198375.0
21
-192775.0
31
0
0
LINE
8
hvac
10
-200025.0
20
-192025.0
30
0
11
-198375.0
21
-192025.0
31
0
0
LINE
8
hvac
10
-199925.0
20
-192820.0
30
0
11
-199925.0
21
-192780.0
31
0
0
LINE
8
hvac
10
-198475.0
20
-192820.0
30
0
11
-198475.0
21
-192780.0
31
0
0
LINE
8
hvac
10
-199925.0
20
-192820.0
30
0
11
-198475.0
21
-192820.0
31
0
0
LINE
8
hvac
10
-199925.0
20
-192780.0
30
0
11
-198475.0
21
-192780.0
31
0
0
LINE
8
hvac
10
-199860.0
20
-192860.0
30
0
11
-199860.0
21
-192800.0
31
0
0
LINE
8
hvac
10
-199820.0
20
-192860.0
30
0
11
-199820.0
21
-192800.0
31
0
0
LINE
8
hvac
10
-199860.0
20
-192860.0
30
0
11
-199820.0
21
-192860.0
31
0
0
LINE
8
hvac
10
-199860.0
20
-192800.0
30
0
11
-199820.0
21
-192800.0
31
0
0
LINE
8
hvac
10
-199700.0
20
-192860.0
30
0
11
-199700.0
21
-192800.0
31
0
0
LINE
8
hvac
10
-199660.0
20
-192860.0
30
0
11
-199660.0
21
-192800.0
31
0
0
LINE
8
hvac
10
-199700.0
20
-192860.0
30
0
11
-199660.0
21
-192860.0
31
0
0
LINE
8
hvac
10
-199700.0
20
-192800.0
30
0
11
-199660.0
21
-192800.0
31
0
0
LINE
8
hvac
10
-199540.0
20
-192860.0
30
0
11
-199540.0
21
-192800.0
31
0
0
LINE
8
hvac
10
-199500.0
20
-192860.0
30
0
11
-199500.0
21
-192800.0
31
0
0
LINE
8
hvac
10
-199540.0
20
-192860.0
30
0
11
-199500.0
21
-192860.0
31
0
0
LINE
8
hvac
10
-199540.0
20
-192800.0
30
0
11
-199500.0
21
-192800.0
31
0
0
LINE
8
hvac
10
-199380.0
20
-192860.0
30
0
11
-199380.0
21
-192800.0
31
0
0
LINE
8
hvac
10
-199340.0
20
-192860.0
30
0
11
-199340.0
21
-192800.0
31
0
0
LINE
8
hvac
10
-199380.0
20
-192860.0
30
0
11
-199340.0
21
-192860.0
31
0
0
LINE
8
hvac
10
-199380.0
20
-192800.0
30
0
11
-199340.0
21
-192800.0
31
0
0
LINE
8
hvac
10
-199220.0
20
-192860.0
30
0
11
-199220.0
21
-192800.0
31
0
0
LINE
8
hvac
10
-199180.0
20
-192860.0
30
0
11
-199180.0
21
-192800.0
31
0
0
LINE
8
hvac
10
-199220.0
20
-192860.0
30
0
11
-199180.0
21
-192860.0
31
0
0
LINE
8
hvac
10
-199220.0
20
-192800.0
30
0
11
-199180.0
21
-192800.0
31
0
0
LINE
8
hvac
10
-199060.0
20
-192860.0
30
0
11
-199060.0
21
-192800.0
31
0
0
LINE
8
hvac
10
-199020.0
20
-192860.0
30
0
11
-199020.0
21
-192800.0
31
0
0
LINE
8
hvac
10
-199060.0
20
-192860.0
30
0
11
-199020.0
21
-192860.0
31
0
0
LINE
8
hvac
10
-199060.0
20
-192800.0
30
0
11
-199020.0
21
-192800.0
31
0
0
LINE
8
hvac
10
-198900.0
20
-192860.0
30
0
11
-198900.0
21
-192800.0
31
0
0
LINE
8
hvac
10
-198860.0
20
-192860.0
30
0
11
-198860.0
21
-192800.0
31
0
0
LINE
8
hvac
10
-198900.0
20
-192860.0
30
0
11
-198860.0
21
-192860.0
31
0
0
LINE
8
hvac
10
-198900.0
20
-192800.0
30
0
11
-198860.0
21
-192800.0
31
0
0
LINE
8
hvac
10
-198740.0
20
-192860.0
30
0
11
-198740.0
21
-192800.0
31
0
0
LINE
8
hvac
10
-198700.0
20
-192860.0
30
0
11
-198700.0
21
-192800.0
31
0
0
LINE
8
hvac
10
-198740.0
20
-192860.0
30
0
11
-198700.0
21
-192860.0
31
0
0
LINE
8
hvac
10
-198740.0
20
-192800.0
30
0
11
-198700.0
21
-192800.0
31
0
0
LINE
8
hvac
10
-198580.0
20
-192860.0
30
0
11
-198580.0
21
-192800.0
31
0
0
LINE
8
hvac
10
-198540.0
20
-192860.0
30
0
11
-198540.0
21
-192800.0
31
0
0
LINE
8
hvac
10
-198580.0
20
-192860.0
30
0
11
-198540.0
21
-192860.0
31
0
0
LINE
8
hvac
10
-198580.0
20
-192800.0
30
0
11
-198540.0
21
-192800.0
31
0
0
LINE
8
hvac
10
-199425.0
20
-192625.0
30
0
11
-199425.0
21
-192175.0
31
0
0
LINE
8
hvac
10
-198975.0
20
-192625.0
30
0
11
-198975.0
21
-192175.0
31
0
0
LINE
8
hvac
10
-199425.0
20
-192625.0
30
0
11
-198975.0
21
-192625.0
31
0
0
LINE
8
hvac
10
-199425.0
20
-192175.0
30
0
11
-198975.0
21
-192175.0
31
0
0
LINE
8
hvac
10
-196750.0
20
-186175.0
30
0
11
-196750.0
21
-185825.0
31
0
0
LINE
8
hvac
10
-179250.0
20
-186175.0
30
0
11
-179250.0
21
-185825.0
31
0
0
LINE
8
hvac
10
-196750.0
20
-186175.0
30
0
11
-179250.0
21
-186175.0
31
0
0
LINE
8
hvac
10
-196750.0
20
-185825.0
30
0
11
-179250.0
21
-185825.0
31
0
0
LINE
8
hvac
10
-199375.0
20
-192575.0
30
0
11
-199375.0
21
-192225.0
31
0
0
LINE
8
hvac
10
-187825.0
20
-192575.0
30
0
11
-187825.0
21
-192225.0
31
0
0
LINE
8
hvac
10
-199375.0
20
-192575.0
30
0
11
-187825.0
21
-192575.0
31
0
0
LINE
8
hvac
10
-199375.0
20
-192225.0
30
0
11
-187825.0
21
-192225.0
31
0
0
LINE
8
hvac
10
-188175.0
20
-192575.0
30
0
11
-188175.0
21
-185825.0
31
0
0
LINE
8
hvac
10
-187825.0
20
-192575.0
30
0
11
-187825.0
21
-185825.0
31
0
0
LINE
8
hvac
10
-188175.0
20
-192575.0
30
0
11
-187825.0
21
-192575.0
31
0
0
LINE
8
hvac
10
-188175.0
20
-185825.0
30
0
11
-187825.0
21
-185825.0
31
0
0
LINE
8
hvac
10
-193350.0
20
-186350.0
30
0
11
-193350.0
21
-185650.0
31
0
0
LINE
8
hvac
10
-192650.0
20
-186350.0
30
0
11
-192650.0
21
-185650.0
31
0
0
LINE
8
hvac
10
-193350.0
20
-186350.0
30
0
11
-192650.0
21
-186350.0
31
0
0
LINE
8
hvac
10
-193350.0
20
-185650.0
30
0
11
-192650.0
21
-185650.0
31
0
0
LINE
8
hvac
10
-183350.0
20
-186350.0
30
0
11
-183350.0
21
-185650.0
31
0
0
LINE
8
hvac
10
-182650.0
20
-186350.0
30
0
11
-182650.0
21
-185650.0
31
0
0
LINE
8
hvac
10
-183350.0
20
-186350.0
30
0
11
-182650.0
21
-186350.0
31
0
0
LINE
8
hvac
10
-183350.0
20
-185650.0
30
0
11
-182650.0
21
-185650.0
31
0
0
LINE
8
sensors
10
-200460.0
20
-190280.0
30
0
11
-200460.0
21
-190120.0
31
0
0
LINE
8
sensors
10
-200360.0
20
-190280.0
30
0
11
-200360.0
21
-190120.0
31
0
0
LINE
8
sensors
10
-200460.0
20
-190280.0
30
0
11
-200360.0
21
-190280.0
31
0
0
LINE
8
sensors
10
-200460.0
20
-190120.0
30
0
11
-200360.0
21
-190120.0
31
0
0
LINE
8
sensors
10
-200355.0
20
-190255.0
30
0
11
-200355.0
21
-190145.0
31
0
0
LINE
8
sensors
10
-200335.0
20
-190255.0
30
0
11
-200335.0
21
-190145.0
31
0
0
LINE
8
sensors
10
-200355.0
20
-190255.0
30
0
11
-200335.0
21
-190255.0
31
0
0
LINE
8
sensors
10
-200355.0
20
-190145.0
30
0
11
-200335.0
21
-190145.0
31
0
0
LINE
8
sensors
10
-200460.0
20
-189980.0
30
0
11
-200460.0
21
-189820.0
31
0
0
LINE
8
sensors
10
-200360.0
20
-189980.0
30
0
11
-200360.0
21
-189820.0
31
0
0
LINE
8
sensors
10
-200460.0
20
-189980.0
30
0
11
-200360.0
21
-189980.0
31
0
0
LINE
8
sensors
10
-200460.0
20
-189820.0
30
0
11
-200360.0
21
-189820.0
31
0
0
LINE
8
sensors
10
-200355.0
20
-189955.0
30
0
11
-200355.0
21
-189845.0
31
0
0
LINE
8
sensors
10
-200335.0
20
-189955.0
30
0
11
-200335.0
21
-189845.0
31
0
0
LINE
8
sensors
10
-200355.0
20
-189955.0
30
0
11
-200335.0
21
-189955.0
31
0
0
LINE
8
sensors
10
-200355.0
20
-189845.0
30
0
11
-200335.0
21
-189845.0
31
0
0
LINE
8
sensors
10
-200460.0
20
-189680.0
30
0
11
-200460.0
21
-189520.0
31
0
0
LINE
8
sensors
10
-200360.0
20
-189680.0
30
0
11
-200360.0
21
-189520.0
31
0
0
LINE
8
sensors
10
-200460.0
20
-189680.0
30
0
11
-200360.0
21
-189680.0
31
0
0
LINE
8
sensors
10
-200460.0
20
-189520.0
30
0
11
-200360.0
21
-189520.0
31
0
0
LINE
8
sensors
10
-200355.0
20
-189655.0
30
0
11
-200355.0
21
-189545.0
31
0
0
LINE
8
sensors
10
-200335.0
20
-189655.0
30
0
11
-200335.0
21
-189545.0
31
0
0
LINE
8
sensors
10
-200355.0
20
-189655.0
30
0
11
-200335.0
21
-189655.0
31
0
0
LINE
8
sensors
10
-200355.0
20
-189545.0
30
0
11
-200335.0
21
-189545.0
31
0
0
LINE
8
sensors
10
-187920.0
20
-186000.0
30
0
11
-188000.0
21
-185920.0
31
0
0
LINE
8
sensors
10
-188000.0
20
-185920.0
30
0
11
-188080.0
21
-186000.0
31
0
0
LINE
8
sensors
10
-188080.0
20
-186000.0
30
0
11
-188000.0
21
-186080.0
31
0
0
LINE
8
sensors
10
-188000.0
20
-186080.0
30
0
11
-187920.0
21
-186000.0
31
0
0
LINE
8
sensors
10
-188000.0
20
-186000.0
30
0
11
-187935.0
21
-186000.0
31
0
0
LINE
8
sensors
10
-187935.0
20
-186000.0
30
0
11
-188000.0
21
-186000.0
31
0
0
LINE
8
sensors
10
-200460.0
20
-189080.0
30
0
11
-200460.0
21
-188920.0
31
0
0
LINE
8
sensors
10
-200360.0
20
-189080.0
30
0
11
-200360.0
21
-188920.0
31
0
0
LINE
8
sensors
10
-200460.0
20
-189080.0
30
0
11
-200360.0
21
-189080.0
31
0
0
LINE
8
sensors
10
-200460.0
20
-188920.0
30
0
11
-200360.0
21
-188920.0
31
0
0
LINE
8
sensors
10
-200355.0
20
-189055.0
30
0
11
-200355.0
21
-188945.0
31
0
0
LINE
8
sensors
10
-200335.0
20
-189055.0
30
0
11
-200335.0
21
-188945.0
31
0
0
LINE
8
sensors
10
-200355.0
20
-189055.0
30
0
11
-200335.0
21
-189055.0
31
0
0
LINE
8
sensors
10
-200355.0
20
-188945.0
30
0
11
-200335.0
21
-188945.0
31
0
0
ENDSEC
0
EOF
