0
SECTION
2
HEADER
9
$ACADVER
1
AC1015
9
$INSUNITS
70
4
0
ENDSEC
0
SECTION
2
ENTITIES
0
LINE
8
interiors
10
-350500.0
20
-193500.0
30
0
11
-350500.0
21
-178500.0
31
0
0
LINE
8
interiors
10
-350500.0
20
-193500.0
30
0
11
-339200.0
21
-193500.0
31
0
0
LINE
8
interiors
10
-339200.0
20
-193500.0
30
0
11
-336800.0
21
-193500.0
31
0
0
LINE
8
interiors
10
-336800.0
20
-193500.0
30
0
11
-325500.0
21
-193500.0
31
0
0
LINE
8
interiors
10
-350500.0
20
-193500.0
30
0
11
-325500.0
21
-193500.0
31
0
0
LINE
8
interiors
10
-350500.0
20
-178500.0
30
0
11
-325500.0
21
-178500.0
31
0
0
LINE
8
interiors
10
-325500.0
20
-193500.0
30
0
11
-325500.0
21
-178500.0
31
0
0
LINE
8
interiors
10
-325620.0
20
-193380.0
30
0
11
-350380.0
21
-193380.0
31
0
0
LINE
8
interiors
10
-325620.0
20
-193380.0
30
0
11
-325620.0
21
-178620.0
31
0
0
LINE
8
interiors
10
-325620.0
20
-178620.0
30
0
11
-350380.0
21
-178620.0
31
0
0
LINE
8
interiors
10
-350380.0
20
-193380.0
30
0
11
-350380.0
21
-178620.0
31
0
0
LINE
8
interiors
10
-344500.0
20
-178500.0
30
0
11
-331500.0
21
-178500.0
31
0
0
LINE
8
interiors
10
-336800.0
20
-193500.0
30
0
11
-336800.0
21
-193380.0
31
0
0
LINE
8
interiors
10
-325620.0
20
-193380.0
30
0
11
-336800.0
21
-193380.0
31
0
0
LINE
8
interiors
10
-339200.0
20
-193380.0
30
0
11
-350380.0
21
-193380.0
31
0
0
LINE
8
interiors
10
-339200.0
20
-193500.0
30
0
11
-339200.0
21
-193380.0
31
0
0
LINE
8
interiors
10
-339200.0
20
-193380.0
30
0
11
-336800.0
21
-193380.0
31
0
0
LINE
8
interiors
10
-344500.0
20
-178620.0
30
0
11
-331500.0
21
-178620.0
31
0
0
LINE
8
interiors
10
-344500.0
20
-178620.0
30
0
11
-344500.0
21
-178500.0
31
0
0
LINE
8
interiors
10
-331500.0
20
-178620.0
30
0
11
-331500.0
21
-178500.0
31
0
0
LINE
8
interiors
10
-344500.0
20
-178522.5
30
0
11
-344500.0
21
-178477.5
31
0
0
LINE
8
interiors
10
-331500.0
20
-178522.5
30
0
11
-331500.0
21
-178477.5
31
0
0
LINE
8
interiors
10
-344500.0
20
-178522.5
30
0
11
-331500.0
21
-178522.5
31
0
0
LINE
8
interiors
10
-344500.0
20
-178477.5
30
0
11
-331500.0
21
-178477.5
31
0
0
LINE
8
interiors
10
-350375.0
20
-193375.0
30
0
11
-350375.0
21
-178625.0
31
0
0
LINE
8
interiors
10
-325625.0
20
-193375.0
30
0
11
-325625.0
21
-178625.0
31
0
0
LINE
8
interiors
10
-350375.0
20
-193375.0
30
0
11
-325625.0
21
-193375.0
31
0
0
LINE
8
interiors
10
-350375.0
20
-178625.0
30
0
11
-325625.0
21
-178625.0
31
0
0
LINE
8
interiors
10
-339155.0
20
-193620.0
30
0
11
-339155.0
21
-193380.0
31
0
0
LINE
8
interiors
10
-339085.0
20
-193620.0
30
0
11
-339085.0
21
-193380.0
31
0
0
LINE
8
interiors
10
-339155.0
20
-193620.0
30
0
11
-339085.0
21
-193620.0
31
0
0
LINE
8
interiors
10
-339155.0
20
-193380.0
30
0
11
-339085.0
21
-193380.0
31
0
0
LINE
8
interiors
10
-336915.0
20
-193620.0
30
0
11
-336915.0
21
-193380.0
31
0
0
LINE
8
interiors
10
-336845.0
20
-193620.0
30
0
11
-336845.0
21
-193380.0
31
0
0
LINE
8
interiors
10
-336915.0
20
-193620.0
30
0
11
-336845.0
21
-193620.0
31
0
0
LINE
8
interiors
10
-336915.0
20
-193380.0
30
0
11
-336845.0
21
-193380.0
31
0
0
LINE
8
interiors
10
-339150.0
20
-193620.0
30
0
11
-339150.0
21
-193380.0
31
0
0
LINE
8
interiors
10
-336850.0
20
-193620.0
30
0
11
-336850.0
21
-193380.0
31
0
0
LINE
8
interiors
10
-339150.0
20
-193620.0
30
0
11
-336850.0
21
-193620.0
31
0
0
LINE
8
interiors
10
-339150.0
20
-193380.0
30
0
11
-336850.0
21
-193380.0
31
0
0
LINE
8
interiors
10
-339069.61
20
-193409.51
30
0
11
-339110.39
21
-193390.49
31
0
0
LINE
8
interiors
10
-338613.18
20
-192430.7
30
0
11
-338653.96
21
-192411.68
31
0
0
LINE
8
interiors
10
-339069.61
20
-193409.51
30
0
11
-338613.18
21
-192430.7
31
0
0
LINE
8
interiors
10
-339110.39
20
-193390.49
30
0
11
-338653.96
21
-192411.68
31
0
0
LINE
8
interiors
10
-345545.0
20
-183500.0
30
0
11
-345545.0
21
-182500.0
31
0
0
LINE
8
interiors
10
-345455.0
20
-183500.0
30
0
11
-345455.0
21
-182500.0
31
0
0
LINE
8
interiors
10
-345545.0
20
-183500.0
30
0
11
-345455.0
21
-183500.0
31
0
0
LINE
8
interiors
10
-345545.0
20
-182500.0
30
0
11
-345455.0
21
-182500.0
31
0
0
LINE
8
interiors
10
-343045.0
20
-183500.0
30
0
11
-343045.0
21
-182500.0
31
0
0
LINE
8
interiors
10
-342955.0
20
-183500.0
30
0
11
-342955.0
21
-182500.0
31
0
0
LINE
8
interiors
10
-343045.0
20
-183500.0
30
0
11
-342955.0
21
-183500.0
31
0
0
LINE
8
interiors
10
-343045.0
20
-182500.0
30
0
11
-342955.0
21
-182500.0
31
0
0
LINE
8
interiors
10
-345550.0
20
-183500.0
30
0
11
-345550.0
21
-182500.0
31
0
0
LINE
8
interiors
10
-342950.0
20
-183500.0
30
0
11
-342950.0
21
-182500.0
31
0
0
LINE
8
interiors
10
-345550.0
20
-183500.0
30
0
11
-342950.0
21
-183500.0
31
0
0
LINE
8
interiors
10
-345550.0
20
-182500.0
30
0
11
-342950.0
21
-182500.0
31
0
0
LINE
8
interiors
10
-333045.0
20
-183500.0
30
0
11
-333045.0
21
-182500.0
31
0
0
LINE
8
interiors
10
-332955.0
20
-183500.0
30
0
11
-332955.0
21
-182500.0
31
0
0
LINE
8
interiors
10
-333045.0
20
-183500.0
30
0
11
-332955.0
21
-183500.0
31
0
0
LINE
8
interiors
10
-333045.0
20
-182500.0
30
0
11
-332955.0
21
-182500.0
31
0
0
LINE
8
interiors
10
-330545.0
20
-183500.0
30
0
11
-330545.0
21
-182500.0
31
0
0
LINE
8
interiors
10
-330455.0
20
-183500.0
30
0
11
-330455.0
21
-182500.0
31
0
0
LINE
8
interiors
10
-330545.0
20
-183500.0
30
0
11
-330455.0
21
-183500.0
31
0
0
LINE
8
interiors
10
-330545.0
20
-182500.0
30
0
11
-330455.0
21
-182500.0
31
0
0
LINE
8
interiors
10
-333050.0
20
-183500.0
30
0
11
-333050.0
21
-182500.0
31
0
0
LINE
8
interiors
10
-330450.0
20
-183500.0
30
0
11
-330450.0
21
-182500.0
31
0
0
LINE
8
interiors
10
-333050.0
20
-183500.0
30
0
11
-330450.0
21
-183500.0
31
0
0
LINE
8
interiors
10
-333050.0
20
-182500.0
30
0
11
-330450.0
21
-182500.0
31
0
0
LINE
8
interiors
10
-339400.0
20
-189550.0
30
0
11
-339400.0
21
-189050.0
31
0
0
LINE
8
interiors
10
-336600.0
20
-189550.0
30
0
11
-336600.0
21
-189050.0
31
0
0
LINE
8
interiors
10
-339400.0
20
-189550.0
30
0
11
-336600.0
21
-189550.0
31
0
0
LINE
8
interiors
10
-339400.0
20
-189050.0
30
0
11
-336600.0
21
-189050.0
31
0
0
LINE
8
interiors
10
-339335.0
20
-189485.0
30
0
11
-339335.0
21
-189415.0
31
0
0
LINE
8
interiors
10
-339265.0
20
-189485.0
30
0
11
-339265.0
21
-189415.0
31
0
0
LINE
8
interiors
10
-339335.0
20
-189485.0
30
0
11
-339265.0
21
-189485.0
31
0
0
LINE
8
interiors
10
-339335.0
20
-189415.0
30
0
11
-339265.0
21
-189415.0
31
0
0
LINE
8
interiors
10
-339335.0
20
-189185.0
30
0
11
-339335.0
21
-189115.0
31
0
0
LINE
8
interiors
10
-339265.0
20
-189185.0
30
0
11
-339265.0
21
-189115.0
31
0
0
LINE
8
interiors
10
-339335.0
20
-189185.0
30
0
11
-339265.0
21
-189185.0
31
0
0
LINE
8
interiors
10
-339335.0
20
-189115.0
30
0
11
-339265.0
21
-189115.0
31
0
0
LINE
8
interiors
10
-336735.0
20
-189485.0
30
0
11
-336735.0
21
-189415.0
31
0
0
LINE
8
interiors
10
-336665.0
20
-189485.0
30
0
11
-336665.0
21
-189415.0
31
0
0
LINE
8
interiors
10
-336735.0
20
-189485.0
30
0
11
-336665.0
21
-189485.0
31
0
0
LINE
8
interiors
10
-336735.0
20
-189415.0
30
0
11
-336665.0
21
-189415.0
31
0
0
LINE
8
interiors
10
-336735.0
20
-189185.0
30
0
11
-336735.0
21
-189115.0
31
0
0
LINE
8
interiors
10
-336665.0
20
-189185.0
30
0
11
-336665.0
21
-189115.0
31
0
0
LINE
8
interiors
10
-336735.0
20
-189185.0
30
0
11
-336665.0
21
-189185.0
31
0
0
LINE
8
interiors
10
-336735.0
20
-189115.0
30
0
11
-336665.0
21
-189115.0
31
0
0
LINE
8
electrical
10
-326225.0
20
-193425.0
30
0
11
-326225.0
21
-193175.0
31
0
0
LINE
8
electrical
10
-325675.0
20
-193425.0
30
0
11
-325675.0
21
-193175.0
31
0
0
LINE
8
electrical
10
-326225.0
20
-193425.0
30
0
11
-325675.0
21
-193425.0
31
0
0
LINE
8
electrical
10
-326225.0
20
-193175.0
30
0
11
-325675.0
21
-193175.0
31
0
0
LINE
8
electrical
10
-326185.0
20
-193452.5
30
0
11
-326185.0
21
-193417.5
31
0
0
LINE
8
electrical
10
-325715.0
20
-193452.5
30
0
11
-325715.0
21
-193417.5
31
0
0
LINE
8
electrical
10
-326185.0
20
-193452.5
30
0
11
-325715.0
21
-193452.5
31
0
0
LINE
8
electrical
10
-326185.0
20
-193417.5
30
0
11
-325715.0
21
-193417.5
31
0
0
LINE
8
electrical
10
-326137.5
20
-193490.0
30
0
11
-326137.5
21
-193450.0
31
0
0
LINE
8
electrical
10
-326037.5
20
-193490.0
30
0
11
-326037.5
21
-193450.0
31
0
0
LINE
8
electrical
10
-326137.5
20
-193490.0
30
0
11
-326037.5
21
-193490.0
31
0
0
LINE
8
electrical
10
-326137.5
20
-193450.0
30
0
11
-326037.5
21
-193450.0
31
0
0
LINE
8
electrical
10
-326000.0
20
-193490.0
30
0
11
-326000.0
21
-193450.0
31
0
0
LINE
8
electrical
10
-325900.0
20
-193490.0
30
0
11
-325900.0
21
-193450.0
31
0
0
LINE
8
electrical
10
-326000.0
20
-193490.0
30
0
11
-325900.0
21
-193490.0
31
0
0
LINE
8
electrical
10
-326000.0
20
-193450.0
30
0
11
-325900.0
21
-193450.0
31
0
0
LINE
8
electrical
10
-325862.5
20
-193490.0
30
0
11
-325862.5
21
-193450.0
31
0
0
LINE
8
electrical
10
-325762.5
20
-193490.0
30
0
11
-325762.5
21
-193450.0
31
0
0
LINE
8
electrical
10
-325862.5
20
-193490.0
30
0
11
-325762.5
21
-193490.0
31
0
0
LINE
8
electrical
10
-325862.5
20
-193450.0
30
0
11
-325762.5
21
-193450.0
31
0
0
LINE
8
electrical
10
-326087.5
20
-193505.0
30
0
11
-326064.12
21
-193505.0
31
0
0
LINE
8
electrical
10
-326064.12
20
-193505.0
30
0
11
-326110.88
21
-193505.0
31
0
0
LINE
8
electrical
10
-326110.88
20
-193505.0
30
0
11
-326087.5
21
-193505.0
31
0
0
LINE
8
electrical
10
-326087.5
20
-193480.0
30
0
11
-326087.5
21
-193505.0
31
0
0
LINE
8
electrical
10
-326087.5
20
-193480.0
30
0
11
-326064.12
21
-193480.0
31
0
0
LINE
8
electrical
10
-326064.12
20
-193480.0
30
0
11
-326110.88
21
-193480.0
31
0
0
LINE
8
electrical
10
-326110.88
20
-193480.0
30
0
11
-326087.5
21
-193480.0
31
0
0
LINE
8
electrical
10
-325950.0
20
-193505.0
30
0
11
-325926.62
21
-193505.0
31
0
0
LINE
8
electrical
10
-325926.62
20
-193505.0
30
0
11
-325973.38
21
-193505.0
31
0
0
LINE
8
electrical
10
-325973.38
20
-193505.0
30
0
11
-325950.0
21
-193505.0
31
0
0
LINE
8
electrical
10
-325950.0
20
-193480.0
30
0
11
-325950.0
21
-193505.0
31
0
0
LINE
8
electrical
10
-325950.0
20
-193480.0
30
0
11
-325926.62
21
-193480.0
31
0
0
LINE
8
electrical
10
-325926.62
20
-193480.0
30
0
11
-325973.38
21
-193480.0
31
0
0
LINE
8
electrical
10
-325973.38
20
-193480.0
30
0
11
-325950.0
21
-193480.0
31
0
0
LINE
8
electrical
10
-325812.5
20
-193505.0
30
0
11
-325789.12
21
-193505.0
31
0
0
LINE
8
electrical
10
-325789.12
20
-193505.0
30
0
11
-325835.88
21
-193505.0
31
0
0
LINE
8
electrical
10
-325835.88
20
-193505.0
30
0
11
-325812.5
21
-193505.0
31
0
0
LINE
8
electrical
10
-325812.5
20
-193480.0
30
0
11
-325812.5
21
-193505.0
31
0
0
LINE
8
electrical
10
-325812.5
20
-193480.0
30
0
11
-325789.12
21
-193480.0
31
0
0
LINE
8
electrical
10
-325789.12
20
-193480.0
30
0
11
-325835.88
21
-193480.0
31
0
0
LINE
8
electrical
10
-325835.88
20
-193480.0
30
0
11
-325812.5
21
-193480.0
31
0
0
LINE
8
electrical
10
-325950.0
20
-193300.0
30
0
11
-325934.41
21
-193300.0
31
0
0
LINE
8
electrical
10
-325934.41
20
-193300.0
30
0
11
-325965.59
21
-193300.0
31
0
0
LINE
8
electrical
10
-325965.59
20
-193300.0
30
0
11
-325950.0
21
-193300.0
31
0
0
LINE
8
electrical
10
-325950.0
20
-226300.0
30
0
11
-325950.0
21
-193300.0
31
0
0
LINE
8
electrical
10
-325950.0
20
-226300.0
30
0
11
-325934.41
21
-226300.0
31
0
0
LINE
8
electrical
10
-325934.41
20
-226300.0
30
0
11
-325965.59
21
-226300.0
31
0
0
LINE
8
electrical
10
-325965.59
20
-226300.0
30
0
11
-325950.0
21
-226300.0
31
0
0
LINE
8
electrical
10
-325968.0
20
-193300.0
30
0
11
-325941.0
21
-193284.41
31
0
0
LINE
8
electrical
10
-325941.0
20
-193284.41
30
0
11
-325941.0
21
-193315.59
31
0
0
LINE
8
electrical
10
-325941.0
20
-193315.59
30
0
11
-325968.0
21
-193300.0
31
0
0
LINE
8
electrical
10
-325950.0
20
-193300.0
30
0
11
-325930.56
21
-193300.0
31
0
0
LINE
8
electrical
10
-325930.56
20
-193300.0
30
0
11
-325950.0
21
-193300.0
31
0
0
LINE
8
lighting
10
-347320.0
20
-191420.0
30
0
11
-347320.0
21
-190780.0
31
0
0
LINE
8
lighting
10
-346680.0
20
-191420.0
30
0
11
-346680.0
21
-190780.0
31
0
0
LINE
8
lighting
10
-347320.0
20
-191420.0
30
0
11
-346680.0
21
-191420.0
31
0
0
LINE
8
lighting
10
-347320.0
20
-190780.0
30
0
11
-346680.0
21
-190780.0
31
0
0
LINE
8
lighting
10
-347280.0
20
-191380.0
30
0
11
-347280.0
21
-190820.0
31
0
0
LINE
8
lighting
10
-346720.0
20
-191380.0
30
0
11
-346720.0
21
-190820.0
31
0
0
LINE
8
lighting
10
-347280.0
20
-191380.0
30
0
11
-346720.0
21
-191380.0
31
0
0
LINE
8
lighting
10
-347280.0
20
-190820.0
30
0
11
-346720.0
21
-190820.0
31
0
0
LINE
8
lighting
10
-347246.0
20
-191370.0
30
0
11
-347246.0
21
-190830.0
31
0
0
LINE
8
lighting
10
-347234.0
20
-191370.0
30
0
11
-347234.0
21
-190830.0
31
0
0
LINE
8
lighting
10
-347246.0
20
-191370.0
30
0
11
-347234.0
21
-191370.0
31
0
0
LINE
8
lighting
10
-347246.0
20
-190830.0
30
0
11
-347234.0
21
-190830.0
31
0
0
LINE
8
lighting
10
-347166.0
20
-191370.0
30
0
11
-347166.0
21
-190830.0
31
0
0
LINE
8
lighting
10
-347154.0
20
-191370.0
30
0
11
-347154.0
21
-190830.0
31
0
0
LINE
8
lighting
10
-347166.0
20
-191370.0
30
0
11
-347154.0
21
-191370.0
31
0
0
LINE
8
lighting
10
-347166.0
20
-190830.0
30
0
11
-347154.0
21
-190830.0
31
0
0
LINE
8
lighting
10
-347086.0
20
-191370.0
30
0
11
-347086.0
21
-190830.0
31
0
0
LINE
8
lighting
10
-347074.0
20
-191370.0
30
0
11
-347074.0
21
-190830.0
31
0
0
LINE
8
lighting
10
-347086.0
20
-191370.0
30
0
11
-347074.0
21
-191370.0
31
0
0
LINE
8
lighting
10
-347086.0
20
-190830.0
30
0
11
-347074.0
21
-190830.0
31
0
0
LINE
8
lighting
10
-347006.0
20
-191370.0
30
0
11
-347006.0
21
-190830.0
31
0
0
LINE
8
lighting
10
-346994.0
20
-191370.0
30
0
11
-346994.0
21
-190830.0
31
0
0
LINE
8
lighting
10
-347006.0
20
-191370.0
30
0
11
-346994.0
21
-191370.0
31
0
0
LINE
8
lighting
10
-347006.0
20
-190830.0
30
0
11
-346994.0
21
-190830.0
31
0
0
LINE
8
lighting
10
-346926.0
20
-191370.0
30
0
11
-346926.0
21
-190830.0
31
0
0
LINE
8
lighting
10
-346914.0
20
-191370.0
30
0
11
-346914.0
21
-190830.0
31
0
0
LINE
8
lighting
10
-346926.0
20
-191370.0
30
0
11
-346914.0
21
-191370.0
31
0
0
LINE
8
lighting
10
-346926.0
20
-190830.0
30
0
11
-346914.0
21
-190830.0
31
0
0
LINE
8
lighting
10
-346846.0
20
-191370.0
30
0
11
-346846.0
21
-190830.0
31
0
0
LINE
8
lighting
10
-346834.0
20
-191370.0
30
0
11
-346834.0
21
-190830.0
31
0
0
LINE
8
lighting
10
-346846.0
20
-191370.0
30
0
11
-346834.0
21
-191370.0
31
0
0
LINE
8
lighting
10
-346846.0
20
-190830.0
30
0
11
-346834.0
21
-190830.0
31
0
0
LINE
8
lighting
10
-346766.0
20
-191370.0
30
0
11
-346766.0
21
-190830.0
31
0
0
LINE
8
lighting
10
-346754.0
20
-191370.0
30
0
11
-346754.0
21
-190830.0
31
0
0
LINE
8
lighting
10
-346766.0
20
-191370.0
30
0
11
-346754.0
21
-191370.0
31
0
0
LINE
8
lighting
10
-346766.0
20
-190830.0
30
0
11
-346754.0
21
-190830.0
31
0
0
LINE
8
lighting
10
-346991.0
20
-191100.0
30
0
11
-347004.5
21
-191092.21
31
0
0
LINE
8
lighting
10
-347004.5
20
-191092.21
30
0
11
-347004.5
21
-191107.79
31
0
0
LINE
8
lighting
10
-347004.5
20
-191107.79
30
0
11
-346991.0
21
-191100.0
31
0
0
LINE
8
lighting
10
-329320.0
20
-191420.0
30
0
11
-329320.0
21
-190780.0
31
0
0
LINE
8
lighting
10
-328680.0
20
-191420.0
30
0
11
-328680.0
21
-190780.0
31
0
0
LINE
8
lighting
10
-329320.0
20
-191420.0
30
0
11
-328680.0
21
-191420.0
31
0
0
LINE
8
lighting
10
-329320.0
20
-190780.0
30
0
11
-328680.0
21
-190780.0
31
0
0
LINE
8
lighting
10
-329280.0
20
-191380.0
30
0
11
-329280.0
21
-190820.0
31
0
0
LINE
8
lighting
10
-328720.0
20
-191380.0
30
0
11
-328720.0
21
-190820.0
31
0
0
LINE
8
lighting
10
-329280.0
20
-191380.0
30
0
11
-328720.0
21
-191380.0
31
0
0
LINE
8
lighting
10
-329280.0
20
-190820.0
30
0
11
-328720.0
21
-190820.0
31
0
0
LINE
8
lighting
10
-329246.0
20
-191370.0
30
0
11
-329246.0
21
-190830.0
31
0
0
LINE
8
lighting
10
-329234.0
20
-191370.0
30
0
11
-329234.0
21
-190830.0
31
0
0
LINE
8
lighting
10
-329246.0
20
-191370.0
30
0
11
-329234.0
21
-191370.0
31
0
0
LINE
8
lighting
10
-329246.0
20
-190830.0
30
0
11
-329234.0
21
-190830.0
31
0
0
LINE
8
lighting
10
-329166.0
20
-191370.0
30
0
11
-329166.0
21
-190830.0
31
0
0
LINE
8
lighting
10
-329154.0
20
-191370.0
30
0
11
-329154.0
21
-190830.0
31
0
0
LINE
8
lighting
10
-329166.0
20
-191370.0
30
0
11
-329154.0
21
-191370.0
31
0
0
LINE
8
lighting
10
-329166.0
20
-190830.0
30
0
11
-329154.0
21
-190830.0
31
0
0
LINE
8
lighting
10
-329086.0
20
-191370.0
30
0
11
-329086.0
21
-190830.0
31
0
0
LINE
8
lighting
10
-329074.0
20
-191370.0
30
0
11
-329074.0
21
-190830.0
31
0
0
LINE
8
lighting
10
-329086.0
20
-191370.0
30
0
11
-329074.0
21
-191370.0
31
0
0
LINE
8
lighting
10
-329086.0
20
-190830.0
30
0
11
-329074.0
21
-190830.0
31
0
0
LINE
8
lighting
10
-329006.0
20
-191370.0
30
0
11
-329006.0
21
-190830.0
31
0
0
LINE
8
lighting
10
-328994.0
20
-191370.0
30
0
11
-328994.0
21
-190830.0
31
0
0
LINE
8
lighting
10
-329006.0
20
-191370.0
30
0
11
-328994.0
21
-191370.0
31
0
0
LINE
8
lighting
10
-329006.0
20
-190830.0
30
0
11
-328994.0
21
-190830.0
31
0
0
LINE
8
lighting
10
-328926.0
20
-191370.0
30
0
11
-328926.0
21
-190830.0
31
0
0
LINE
8
lighting
10
-328914.0
20
-191370.0
30
0
11
-328914.0
21
-190830.0
31
0
0
LINE
8
lighting
10
-328926.0
20
-191370.0
30
0
11
-328914.0
21
-191370.0
31
0
0
LINE
8
lighting
10
-328926.0
20
-190830.0
30
0
11
-328914.0
21
-190830.0
31
0
0
LINE
8
lighting
10
-328846.0
20
-191370.0
30
0
11
-328846.0
21
-190830.0
31
0
0
LINE
8
lighting
10
-328834.0
20
-191370.0
30
0
11
-328834.0
21
-190830.0
31
0
0
LINE
8
lighting
10
-328846.0
20
-191370.0
30
0
11
-328834.0
21
-191370.0
31
0
0
LINE
8
lighting
10
-328846.0
20
-190830.0
30
0
11
-328834.0
21
-190830.0
31
0
0
LINE
8
lighting
10
-328766.0
20
-191370.0
30
0
11
-328766.0
21
-190830.0
31
0
0
LINE
8
lighting
10
-328754.0
20
-191370.0
30
0
11
-328754.0
21
-190830.0
31
0
0
LINE
8
lighting
10
-328766.0
20
-191370.0
30
0
11
-328754.0
21
-191370.0
31
0
0
LINE
8
lighting
10
-328766.0
20
-190830.0
30
0
11
-328754.0
21
-190830.0
31
0
0
LINE
8
lighting
10
-328991.0
20
-191100.0
30
0
11
-329004.5
21
-191092.21
31
0
0
LINE
8
lighting
10
-329004.5
20
-191092.21
30
0
11
-329004.5
21
-191107.79
31
0
0
LINE
8
lighting
10
-329004.5
20
-191107.79
30
0
11
-328991.0
21
-191100.0
31
0
0
LINE
8
lighting
10
-338320.0
20
-191420.0
30
0
11
-338320.0
21
-190780.0
31
0
0
LINE
8
lighting
10
-337680.0
20
-191420.0
30
0
11
-337680.0
21
-190780.0
31
0
0
LINE
8
lighting
10
-338320.0
20
-191420.0
30
0
11
-337680.0
21
-191420.0
31
0
0
LINE
8
lighting
10
-338320.0
20
-190780.0
30
0
11
-337680.0
21
-190780.0
31
0
0
LINE
8
lighting
10
-338280.0
20
-191380.0
30
0
11
-338280.0
21
-190820.0
31
0
0
LINE
8
lighting
10
-337720.0
20
-191380.0
30
0
11
-337720.0
21
-190820.0
31
0
0
LINE
8
lighting
10
-338280.0
20
-191380.0
30
0
11
-337720.0
21
-191380.0
31
0
0
LINE
8
lighting
10
-338280.0
20
-190820.0
30
0
11
-337720.0
21
-190820.0
31
0
0
LINE
8
lighting
10
-338246.0
20
-191370.0
30
0
11
-338246.0
21
-190830.0
31
0
0
LINE
8
lighting
10
-338234.0
20
-191370.0
30
0
11
-338234.0
21
-190830.0
31
0
0
LINE
8
lighting
10
-338246.0
20
-191370.0
30
0
11
-338234.0
21
-191370.0
31
0
0
LINE
8
lighting
10
-338246.0
20
-190830.0
30
0
11
-338234.0
21
-190830.0
31
0
0
LINE
8
lighting
10
-338166.0
20
-191370.0
30
0
11
-338166.0
21
-190830.0
31
0
0
LINE
8
lighting
10
-338154.0
20
-191370.0
30
0
11
-338154.0
21
-190830.0
31
0
0
LINE
8
lighting
10
-338166.0
20
-191370.0
30
0
11
-338154.0
21
-191370.0
31
0
0
LINE
8
lighting
10
-338166.0
20
-190830.0
30
0
11
-338154.0
21
-190830.0
31
0
0
LINE
8
lighting
10
-338086.0
20
-191370.0
30
0
11
-338086.0
21
-190830.0
31
0
0
LINE
8
lighting
10
-338074.0
20
-191370.0
30
0
11
-338074.0
21
-190830.0
31
0
0
LINE
8
lighting
10
-338086.0
20
-191370.0
30
0
11
-338074.0
21
-191370.0
31
0
0
LINE
8
lighting
10
-338086.0
20
-190830.0
30
0
11
-338074.0
21
-190830.0
31
0
0
LINE
8
lighting
10
-338006.0
20
-191370.0
30
0
11
-338006.0
21
-190830.0
31
0
0
LINE
8
lighting
10
-337994.0
20
-191370.0
30
0
11
-337994.0
21
-190830.0
31
0
0
LINE
8
lighting
10
-338006.0
20
-191370.0
30
0
11
-337994.0
21
-191370.0
31
0
0
LINE
8
lighting
10
-338006.0
20
-190830.0
30
0
11
-337994.0
21
-190830.0
31
0
0
LINE
8
lighting
10
-337926.0
20
-191370.0
30
0
11
-337926.0
21
-190830.0
31
0
0
LINE
8
lighting
10
-337914.0
20
-191370.0
30
0
11
-337914.0
21
-190830.0
31
0
0
LINE
8
lighting
10
-337926.0
20
-191370.0
30
0
11
-337914.0
21
-191370.0
31
0
0
LINE
8
lighting
10
-337926.0
20
-190830.0
30
0
11
-337914.0
21
-190830.0
31
0
0
LINE
8
lighting
10
-337846.0
20
-191370.0
30
0
11
-337846.0
21
-190830.0
31
0
0
LINE
8
lighting
10
-337834.0
20
-191370.0
30
0
11
-337834.0
21
-190830.0
31
0
0
LINE
8
lighting
10
-337846.0
20
-191370.0
30
0
11
-337834.0
21
-191370.0
31
0
0
LINE
8
lighting
10
-337846.0
20
-190830.0
30
0
11
-337834.0
21
-190830.0
31
0
0
LINE
8
lighting
10
-337766.0
20
-191370.0
30
0
11
-337766.0
21
-190830.0
31
0
0
LINE
8
lighting
10
-337754.0
20
-191370.0
30
0
11
-337754.0
21
-190830.0
31
0
0
LINE
8
lighting
10
-337766.0
20
-191370.0
30
0
11
-337754.0
21
-191370.0
31
0
0
LINE
8
lighting
10
-337766.0
20
-190830.0
30
0
11
-337754.0
21
-190830.0
31
0
0
LINE
8
lighting
10
-337991.0
20
-191100.0
30
0
11
-338004.5
21
-191092.21
31
0
0
LINE
8
lighting
10
-338004.5
20
-191092.21
30
0
11
-338004.5
21
-191107.79
31
0
0
LINE
8
lighting
10
-338004.5
20
-191107.79
30
0
11
-337991.0
21
-191100.0
31
0
0
LINE
8
lighting
10
-347320.0
20
-181220.0
30
0
11
-347320.0
21
-180580.0
31
0
0
LINE
8
lighting
10
-346680.0
20
-181220.0
30
0
11
-346680.0
21
-180580.0
31
0
0
LINE
8
lighting
10
-347320.0
20
-181220.0
30
0
11
-346680.0
21
-181220.0
31
0
0
LINE
8
lighting
10
-347320.0
20
-180580.0
30
0
11
-346680.0
21
-180580.0
31
0
0
LINE
8
lighting
10
-347280.0
20
-181180.0
30
0
11
-347280.0
21
-180620.0
31
0
0
LINE
8
lighting
10
-346720.0
20
-181180.0
30
0
11
-346720.0
21
-180620.0
31
0
0
LINE
8
lighting
10
-347280.0
20
-181180.0
30
0
11
-346720.0
21
-181180.0
31
0
0
LINE
8
lighting
10
-347280.0
20
-180620.0
30
0
11
-346720.0
21
-180620.0
31
0
0
LINE
8
lighting
10
-347246.0
20
-181170.0
30
0
11
-347246.0
21
-180630.0
31
0
0
LINE
8
lighting
10
-347234.0
20
-181170.0
30
0
11
-347234.0
21
-180630.0
31
0
0
LINE
8
lighting
10
-347246.0
20
-181170.0
30
0
11
-347234.0
21
-181170.0
31
0
0
LINE
8
lighting
10
-347246.0
20
-180630.0
30
0
11
-347234.0
21
-180630.0
31
0
0
LINE
8
lighting
10
-347166.0
20
-181170.0
30
0
11
-347166.0
21
-180630.0
31
0
0
LINE
8
lighting
10
-347154.0
20
-181170.0
30
0
11
-347154.0
21
-180630.0
31
0
0
LINE
8
lighting
10
-347166.0
20
-181170.0
30
0
11
-347154.0
21
-181170.0
31
0
0
LINE
8
lighting
10
-347166.0
20
-180630.0
30
0
11
-347154.0
21
-180630.0
31
0
0
LINE
8
lighting
10
-347086.0
20
-181170.0
30
0
11
-347086.0
21
-180630.0
31
0
0
LINE
8
lighting
10
-347074.0
20
-181170.0
30
0
11
-347074.0
21
-180630.0
31
0
0
LINE
8
lighting
10
-347086.0
20
-181170.0
30
0
11
-347074.0
21
-181170.0
31
0
0
LINE
8
lighting
10
-347086.0
20
-180630.0
30
0
11
-347074.0
21
-180630.0
31
0
0
LINE
8
lighting
10
-347006.0
20
-181170.0
30
0
11
-347006.0
21
-180630.0
31
0
0
LINE
8
lighting
10
-346994.0
20
-181170.0
30
0
11
-346994.0
21
-180630.0
31
0
0
LINE
8
lighting
10
-347006.0
20
-181170.0
30
0
11
-346994.0
21
-181170.0
31
0
0
LINE
8
lighting
10
-347006.0
20
-180630.0
30
0
11
-346994.0
21
-180630.0
31
0
0
LINE
8
lighting
10
-346926.0
20
-181170.0
30
0
11
-346926.0
21
-180630.0
31
0
0
LINE
8
lighting
10
-346914.0
20
-181170.0
30
0
11
-346914.0
21
-180630.0
31
0
0
LINE
8
lighting
10
-346926.0
20
-181170.0
30
0
11
-346914.0
21
-181170.0
31
0
0
LINE
8
lighting
10
-346926.0
20
-180630.0
30
0
11
-346914.0
21
-180630.0
31
0
0
LINE
8
lighting
10
-346846.0
20
-181170.0
30
0
11
-346846.0
21
-180630.0
31
0
0
LINE
8
lighting
10
-346834.0
20
-181170.0
30
0
11
-346834.0
21
-180630.0
31
0
0
LINE
8
lighting
10
-346846.0
20
-181170.0
30
0
11
-346834.0
21
-181170.0
31
0
0
LINE
8
lighting
10
-346846.0
20
-180630.0
30
0
11
-346834.0
21
-180630.0
31
0
0
LINE
8
lighting
10
-346766.0
20
-181170.0
30
0
11
-346766.0
21
-180630.0
31
0
0
LINE
8
lighting
10
-346754.0
20
-181170.0
30
0
11
-346754.0
21
-180630.0
31
0
0
LINE
8
lighting
10
-346766.0
20
-181170.0
30
0
11
-346754.0
21
-181170.0
31
0
0
LINE
8
lighting
10
-346766.0
20
-180630.0
30
0
11
-346754.0
21
-180630.0
31
0
0
LINE
8
lighting
10
-346991.0
20
-180900.0
30
0
11
-347004.5
21
-180892.21
31
0
0
LINE
8
lighting
10
-347004.5
20
-180892.21
30
0
11
-347004.5
21
-180907.79
31
0
0
LINE
8
lighting
10
-347004.5
20
-180907.79
30
0
11
-346991.0
21
-180900.0
31
0
0
LINE
8
lighting
10
-329320.0
20
-181220.0
30
0
11
-329320.0
21
-180580.0
31
0
0
LINE
8
lighting
10
-328680.0
20
-181220.0
30
0
11
-328680.0
21
-180580.0
31
0
0
LINE
8
lighting
10
-329320.0
20
-181220.0
30
0
11
-328680.0
21
-181220.0
31
0
0
LINE
8
lighting
10
-329320.0
20
-180580.0
30
0
11
-328680.0
21
-180580.0
31
0
0
LINE
8
lighting
10
-329280.0
20
-181180.0
30
0
11
-329280.0
21
-180620.0
31
0
0
LINE
8
lighting
10
-328720.0
20
-181180.0
30
0
11
-328720.0
21
-180620.0
31
0
0
LINE
8
lighting
10
-329280.0
20
-181180.0
30
0
11
-328720.0
21
-181180.0
31
0
0
LINE
8
lighting
10
-329280.0
20
-180620.0
30
0
11
-328720.0
21
-180620.0
31
0
0
LINE
8
lighting
10
-329246.0
20
-181170.0
30
0
11
-329246.0
21
-180630.0
31
0
0
LINE
8
lighting
10
-329234.0
20
-181170.0
30
0
11
-329234.0
21
-180630.0
31
0
0
LINE
8
lighting
10
-329246.0
20
-181170.0
30
0
11
-329234.0
21
-181170.0
31
0
0
LINE
8
lighting
10
-329246.0
20
-180630.0
30
0
11
-329234.0
21
-180630.0
31
0
0
LINE
8
lighting
10
-329166.0
20
-181170.0
30
0
11
-329166.0
21
-180630.0
31
0
0
LINE
8
lighting
10
-329154.0
20
-181170.0
30
0
11
-329154.0
21
-180630.0
31
0
0
LINE
8
lighting
10
-329166.0
20
-181170.0
30
0
11
-329154.0
21
-181170.0
31
0
0
LINE
8
lighting
10
-329166.0
20
-180630.0
30
0
11
-329154.0
21
-180630.0
31
0
0
LINE
8
lighting
10
-329086.0
20
-181170.0
30
0
11
-329086.0
21
-180630.0
31
0
0
LINE
8
lighting
10
-329074.0
20
-181170.0
30
0
11
-329074.0
21
-180630.0
31
0
0
LINE
8
lighting
10
-329086.0
20
-181170.0
30
0
11
-329074.0
21
-181170.0
31
0
0
LINE
8
lighting
10
-329086.0
20
-180630.0
30
0
11
-329074.0
21
-180630.0
31
0
0
LINE
8
lighting
10
-329006.0
20
-181170.0
30
0
11
-329006.0
21
-180630.0
31
0
0
LINE
8
lighting
10
-328994.0
20
-181170.0
30
0
11
-328994.0
21
-180630.0
31
0
0
LINE
8
lighting
10
-329006.0
20
-181170.0
30
0
11
-328994.0
21
-181170.0
31
0
0
LINE
8
lighting
10
-329006.0
20
-180630.0
30
0
11
-328994.0
21
-180630.0
31
0
0
LINE
8
lighting
10
-328926.0
20
-181170.0
30
0
11
-328926.0
21
-180630.0
31
0
0
LINE
8
lighting
10
-328914.0
20
-181170.0
30
0
11
-328914.0
21
-180630.0
31
0
0
LINE
8
lighting
10
-328926.0
20
-181170.0
30
0
11
-328914.0
21
-181170.0
31
0
0
LINE
8
lighting
10
-328926.0
20
-180630.0
30
0
11
-328914.0
21
-180630.0
31
0
0
LINE
8
lighting
10
-328846.0
20
-181170.0
30
0
11
-328846.0
21
-180630.0
31
0
0
LINE
8
lighting
10
-328834.0
20
-181170.0
30
0
11
-328834.0
21
-180630.0
31
0
0
LINE
8
lighting
10
-328846.0
20
-181170.0
30
0
11
-328834.0
21
-181170.0
31
0
0
LINE
8
lighting
10
-328846.0
20
-180630.0
30
0
11
-328834.0
21
-180630.0
31
0
0
LINE
8
lighting
10
-328766.0
20
-181170.0
30
0
11
-328766.0
21
-180630.0
31
0
0
LINE
8
lighting
10
-328754.0
20
-181170.0
30
0
11
-328754.0
21
-180630.0
31
0
0
LINE
8
lighting
10
-328766.0
20
-181170.0
30
0
11
-328754.0
21
-181170.0
31
0
0
LINE
8
lighting
10
-328766.0
20
-180630.0
30
0
11
-328754.0
21
-180630.0
31
0
0
LINE
8
lighting
10
-328991.0
20
-180900.0
30
0
11
-329004.5
21
-180892.21
31
0
0
LINE
8
lighting
10
-329004.5
20
-180892.21
30
0
11
-329004.5
21
-180907.79
31
0
0
LINE
8
lighting
10
-329004.5
20
-180907.79
30
0
11
-328991.0
21
-180900.0
31
0
0
LINE
8
lighting
10
-338320.0
20
-181220.0
30
0
11
-338320.0
21
-180580.0
31
0
0
LINE
8
lighting
10
-337680.0
20
-181220.0
30
0
11
-337680.0
21
-180580.0
31
0
0
LINE
8
lighting
10
-338320.0
20
-181220.0
30
0
11
-337680.0
21
-181220.0
31
0
0
LINE
8
lighting
10
-338320.0
20
-180580.0
30
0
11
-337680.0
21
-180580.0
31
0
0
LINE
8
lighting
10
-338280.0
20
-181180.0
30
0
11
-338280.0
21
-180620.0
31
0
0
LINE
8
lighting
10
-337720.0
20
-181180.0
30
0
11
-337720.0
21
-180620.0
31
0
0
LINE
8
lighting
10
-338280.0
20
-181180.0
30
0
11
-337720.0
21
-181180.0
31
0
0
LINE
8
lighting
10
-338280.0
20
-180620.0
30
0
11
-337720.0
21
-180620.0
31
0
0
LINE
8
lighting
10
-338246.0
20
-181170.0
30
0
11
-338246.0
21
-180630.0
31
0
0
LINE
8
lighting
10
-338234.0
20
-181170.0
30
0
11
-338234.0
21
-180630.0
31
0
0
LINE
8
lighting
10
-338246.0
20
-181170.0
30
0
11
-338234.0
21
-181170.0
31
0
0
LINE
8
lighting
10
-338246.0
20
-180630.0
30
0
11
-338234.0
21
-180630.0
31
0
0
LINE
8
lighting
10
-338166.0
20
-181170.0
30
0
11
-338166.0
21
-180630.0
31
0
0
LINE
8
lighting
10
-338154.0
20
-181170.0
30
0
11
-338154.0
21
-180630.0
31
0
0
LINE
8
lighting
10
-338166.0
20
-181170.0
30
0
11
-338154.0
21
-181170.0
31
0
0
LINE
8
lighting
10
-338166.0
20
-180630.0
30
0
11
-338154.0
21
-180630.0
31
0
0
LINE
8
lighting
10
-338086.0
20
-181170.0
30
0
11
-338086.0
21
-180630.0
31
0
0
LINE
8
lighting
10
-338074.0
20
-181170.0
30
0
11
-338074.0
21
-180630.0
31
0
0
LINE
8
lighting
10
-338086.0
20
-181170.0
30
0
11
-338074.0
21
-181170.0
31
0
0
LINE
8
lighting
10
-338086.0
20
-180630.0
30
0
11
-338074.0
21
-180630.0
31
0
0
LINE
8
lighting
10
-338006.0
20
-181170.0
30
0
11
-338006.0
21
-180630.0
31
0
0
LINE
8
lighting
10
-337994.0
20
-181170.0
30
0
11
-337994.0
21
-180630.0
31
0
0
LINE
8
lighting
10
-338006.0
20
-181170.0
30
0
11
-337994.0
21
-181170.0
31
0
0
LINE
8
lighting
10
-338006.0
20
-180630.0
30
0
11
-337994.0
21
-180630.0
31
0
0
LINE
8
lighting
10
-337926.0
20
-181170.0
30
0
11
-337926.0
21
-180630.0
31
0
0
LINE
8
lighting
10
-337914.0
20
-181170.0
30
0
11
-337914.0
21
-180630.0
31
0
0
LINE
8
lighting
10
-337926.0
20
-181170.0
30
0
11
-337914.0
21
-181170.0
31
0
0
LINE
8
lighting
10
-337926.0
20
-180630.0
30
0
11
-337914.0
21
-180630.0
31
0
0
LINE
8
lighting
10
-337846.0
20
-181170.0
30
0
11
-337846.0
21
-180630.0
31
0
0
LINE
8
lighting
10
-337834.0
20
-181170.0
30
0
11
-337834.0
21
-180630.0
31
0
0
LINE
8
lighting
10
-337846.0
20
-181170.0
30
0
11
-337834.0
21
-181170.0
31
0
0
LINE
8
lighting
10
-337846.0
20
-180630.0
30
0
11
-337834.0
21
-180630.0
31
0
0
LINE
8
lighting
10
-337766.0
20
-181170.0
30
0
11
-337766.0
21
-180630.0
31
0
0
LINE
8
lighting
10
-337754.0
20
-181170.0
30
0
11
-337754.0
21
-180630.0
31
0
0
LINE
8
lighting
10
-337766.0
20
-181170.0
30
0
11
-337754.0
21
-181170.0
31
0
0
LINE
8
lighting
10
-337766.0
20
-180630.0
30
0
11
-337754.0
21
-180630.0
31
0
0
LINE
8
lighting
10
-337991.0
20
-180900.0
30
0
11
-338004.5
21
-180892.21
31
0
0
LINE
8
lighting
10
-338004.5
20
-180892.21
30
0
11
-338004.5
21
-180907.79
31
0
0
LINE
8
lighting
10
-338004.5
20
-180907.79
30
0
11
-337991.0
21
-180900.0
31
0
0
LINE
8
electrical
10
-347000.0
20
-191370.0
30
0
11
-347000.0
21
-191377.79
31
0
0
LINE
8
electrical
10
-347000.0
20
-191377.79
30
0
11
-347000.0
21
-191362.21
31
0
0
LINE
8
electrical
10
-347000.0
20
-191362.21
30
0
11
-347000.0
21
-191370.0
31
0
0
LINE
8
electrical
10
-325950.0
20
-191370.0
30
0
11
-347000.0
21
-191370.0
31
0
0
LINE
8
electrical
10
-325950.0
20
-191370.0
30
0
11
-325950.0
21
-191377.79
31
0
0
LINE
8
electrical
10
-325950.0
20
-191377.79
30
0
11
-325950.0
21
-191362.21
31
0
0
LINE
8
electrical
10
-325950.0
20
-191362.21
30
0
11
-325950.0
21
-191370.0
31
0
0
LINE
8
electrical
10
-347000.0
20
-180900.0
30
0
11
-346992.21
21
-180900.0
31
0
0
LINE
8
electrical
10
-346992.21
20
-180900.0
30
0
11
-347007.79
21
-180900.0
31
0
0
LINE
8
electrical
10
-347007.79
20
-180900.0
30
0
11
-347000.0
21
-180900.0
31
0
0
LINE
8
electrical
10
-347000.0
20
-191370.0
30
0
11
-347000.0
21
-180900.0
31
0
0
LINE
8
electrical
10
-347000.0
20
-191370.0
30
0
11
-346992.21
21
-191370.0
31
0
0
LINE
8
electrical
10
-346992.21
20
-191370.0
30
0
11
-347007.79
21
-191370.0
31
0
0
LINE
8
electrical
10
-347007.79
20
-191370.0
30
0
11
-347000.0
21
-191370.0
31
0
0
LINE
8
electrical
10
-329000.0
20
-180900.0
30
0
11
-328992.21
21
-180900.0
31
0
0
LINE
8
electrical
10
-328992.21
20
-180900.0
30
0
11
-329007.79
21
-180900.0
31
0
0
LINE
8
electrical
10
-329007.79
20
-180900.0
30
0
11
-329000.0
21
-180900.0
31
0
0
LINE
8
electrical
10
-329000.0
20
-191370.0
30
0
11
-329000.0
21
-180900.0
31
0
0
LINE
8
electrical
10
-329000.0
20
-191370.0
30
0
11
-328992.21
21
-191370.0
31
0
0
LINE
8
electrical
10
-328992.21
20
-191370.0
30
0
11
-329007.79
21
-191370.0
31
0
0
LINE
8
electrical
10
-329007.79
20
-191370.0
30
0
11
-329000.0
21
-191370.0
31
0
0
LINE
8
electrical
10
-338000.0
20
-180900.0
30
0
11
-337992.21
21
-180900.0
31
0
0
LINE
8
electrical
10
-337992.21
20
-180900.0
30
0
11
-338007.79
21
-180900.0
31
0
0
LINE
8
electrical
10
-338007.79
20
-180900.0
30
0
11
-338000.0
21
-180900.0
31
0
0
LINE
8
electrical
10
-338000.0
20
-191370.0
30
0
11
-338000.0
21
-180900.0
31
0
0
LINE
8
electrical
10
-338000.0
20
-191370.0
30
0
11
-337992.21
21
-191370.0
31
0
0
LINE
8
electrical
10
-337992.21
20
-191370.0
30
0
11
-338007.79
21
-191370.0
31
0
0
LINE
8
electrical
10
-338007.79
20
-191370.0
30
0
11
-338000.0
21
-191370.0
31
0
0
LINE
8
electrical
10
-325937.0
20
-193300.0
30
0
11
-325956.5
21
-193288.74
31
0
0
LINE
8
electrical
10
-325956.5
20
-193288.74
30
0
11
-325956.5
21
-193311.26
31
0
0
LINE
8
electrical
10
-325956.5
20
-193311.26
30
0
11
-325937.0
21
-193300.0
31
0
0
LINE
8
electrical
10
-329256.56
20
-191381.22
30
0
11
-329246.72
21
-191364.39
31
0
0
LINE
8
electrical
10
-329246.72
20
-191364.39
30
0
11
-329246.72
21
-191364.39
31
0
0
LINE
8
electrical
10
-329246.72
20
-191364.39
30
0
11
-329256.56
21
-191381.22
31
0
0
LINE
8
electrical
10
-325956.56
20
-193311.22
30
0
11
-329256.56
21
-191381.22
31
0
0
LINE
8
electrical
10
-325956.56
20
-193311.22
30
0
11
-325946.72
21
-193294.39
31
0
0
LINE
8
electrical
10
-325946.72
20
-193294.39
30
0
11
-325946.72
21
-193294.39
31
0
0
LINE
8
electrical
10
-325946.72
20
-193294.39
30
0
11
-325956.56
21
-193311.22
31
0
0
LINE
8
electrical
10
-346750.0
20
-191370.0
30
0
11
-346750.0
21
-191381.26
31
0
0
LINE
8
electrical
10
-346750.0
20
-191381.26
30
0
11
-346750.0
21
-191358.74
31
0
0
LINE
8
electrical
10
-346750.0
20
-191358.74
30
0
11
-346750.0
21
-191370.0
31
0
0
LINE
8
electrical
10
-329250.0
20
-191370.0
30
0
11
-346750.0
21
-191370.0
31
0
0
LINE
8
electrical
10
-329250.0
20
-191370.0
30
0
11
-329250.0
21
-191381.26
31
0
0
LINE
8
electrical
10
-329250.0
20
-191381.26
30
0
11
-329250.0
21
-191358.74
31
0
0
LINE
8
electrical
10
-329250.0
20
-191358.74
30
0
11
-329250.0
21
-191370.0
31
0
0
LINE
8
electrical
10
-325950.0
20
-193300.0
30
0
11
-325935.96
21
-193300.0
31
0
0
LINE
8
electrical
10
-325935.96
20
-193300.0
30
0
11
-325950.0
21
-193300.0
31
0
0
LINE
8
electrical
10
-329250.0
20
-191370.0
30
0
11
-329235.96
21
-191370.0
31
0
0
LINE
8
electrical
10
-329235.96
20
-191370.0
30
0
11
-329250.0
21
-191370.0
31
0
0
LINE
8
electrical
10
-325937.0
20
-193300.0
30
0
11
-325956.5
21
-193288.74
31
0
0
LINE
8
electrical
10
-325956.5
20
-193288.74
30
0
11
-325956.5
21
-193311.26
31
0
0
LINE
8
electrical
10
-325956.5
20
-193311.26
30
0
11
-325937.0
21
-193300.0
31
0
0
LINE
8
electrical
10
-329256.86
20
-191261.04
30
0
11
-329246.57
21
-191244.48
31
0
0
LINE
8
electrical
10
-329246.57
20
-191244.48
30
0
11
-329246.57
21
-191244.48
31
0
0
LINE
8
electrical
10
-329246.57
20
-191244.48
30
0
11
-329256.86
21
-191261.04
31
0
0
LINE
8
electrical
10
-325956.86
20
-193311.04
30
0
11
-329256.86
21
-191261.04
31
0
0
LINE
8
electrical
10
-325956.86
20
-193311.04
30
0
11
-325946.57
21
-193294.48
31
0
0
LINE
8
electrical
10
-325946.57
20
-193294.48
30
0
11
-325946.57
21
-193294.48
31
0
0
LINE
8
electrical
10
-325946.57
20
-193294.48
30
0
11
-325956.86
21
-193311.04
31
0
0
LINE
8
electrical
10
-346750.0
20
-191250.0
30
0
11
-346750.0
21
-191261.26
31
0
0
LINE
8
electrical
10
-346750.0
20
-191261.26
30
0
11
-346750.0
21
-191238.74
31
0
0
LINE
8
electrical
10
-346750.0
20
-191238.74
30
0
11
-346750.0
21
-191250.0
31
0
0
LINE
8
electrical
10
-329250.0
20
-191250.0
30
0
11
-346750.0
21
-191250.0
31
0
0
LINE
8
electrical
10
-329250.0
20
-191250.0
30
0
11
-329250.0
21
-191261.26
31
0
0
LINE
8
electrical
10
-329250.0
20
-191261.26
30
0
11
-329250.0
21
-191238.74
31
0
0
LINE
8
electrical
10
-329250.0
20
-191238.74
30
0
11
-329250.0
21
-191250.0
31
0
0
LINE
8
electrical
10
-325950.0
20
-193300.0
30
0
11
-325935.96
21
-193300.0
31
0
0
LINE
8
electrical
10
-325935.96
20
-193300.0
30
0
11
-325950.0
21
-193300.0
31
0
0
LINE
8
electrical
10
-329250.0
20
-191250.0
30
0
11
-329235.96
21
-191250.0
31
0
0
LINE
8
electrical
10
-329235.96
20
-191250.0
30
0
11
-329250.0
21
-191250.0
31
0
0
LINE
8
electrical
10
-325937.0
20
-193300.0
30
0
11
-325956.5
21
-193288.74
31
0
0
LINE
8
electrical
10
-325956.5
20
-193288.74
30
0
11
-325956.5
21
-193311.26
31
0
0
LINE
8
electrical
10
-325956.5
20
-193311.26
30
0
11
-325937.0
21
-193300.0
31
0
0
LINE
8
electrical
10
-329257.14
20
-191140.86
30
0
11
-329246.43
21
-191124.57
31
0
0
LINE
8
electrical
10
-329246.43
20
-191124.57
30
0
11
-329246.43
21
-191124.57
31
0
0
LINE
8
electrical
10
-329246.43
20
-191124.57
30
0
11
-329257.14
21
-191140.86
31
0
0
LINE
8
electrical
10
-325957.14
20
-193310.86
30
0
11
-329257.14
21
-191140.86
31
0
0
LINE
8
electrical
10
-325957.14
20
-193310.86
30
0
11
-325946.43
21
-193294.57
31
0
0
LINE
8
electrical
10
-325946.43
20
-193294.57
30
0
11
-325946.43
21
-193294.57
31
0
0
LINE
8
electrical
10
-325946.43
20
-193294.57
30
0
11
-325957.14
21
-193310.86
31
0
0
LINE
8
electrical
10
-346750.0
20
-191130.0
30
0
11
-346750.0
21
-191141.26
31
0
0
LINE
8
electrical
10
-346750.0
20
-191141.26
30
0
11
-346750.0
21
-191118.74
31
0
0
LINE
8
electrical
10
-346750.0
20
-191118.74
30
0
11
-346750.0
21
-191130.0
31
0
0
LINE
8
electrical
10
-329250.0
20
-191130.0
30
0
11
-346750.0
21
-191130.0
31
0
0
LINE
8
electrical
10
-329250.0
20
-191130.0
30
0
11
-329250.0
21
-191141.26
31
0
0
LINE
8
electrical
10
-329250.0
20
-191141.26
30
0
11
-329250.0
21
-191118.74
31
0
0
LINE
8
electrical
10
-329250.0
20
-191118.74
30
0
11
-329250.0
21
-191130.0
31
0
0
LINE
8
electrical
10
-325950.0
20
-193300.0
30
0
11
-325935.96
21
-193300.0
31
0
0
LINE
8
electrical
10
-325935.96
20
-193300.0
30
0
11
-325950.0
21
-193300.0
31
0
0
LINE
8
electrical
10
-329250.0
20
-191130.0
30
0
11
-329235.96
21
-191130.0
31
0
0
LINE
8
electrical
10
-329235.96
20
-191130.0
30
0
11
-329250.0
21
-191130.0
31
0
0
LINE
8
electrical
10
-345565.0
20
-193350.0
30
0
11
-345565.0
21
-193290.0
31
0
0
LINE
8
electrical
10
-345435.0
20
-193350.0
30
0
11
-345435.0
21
-193290.0
31
0
0
LINE
8
electrical
10
-345565.0
20
-193350.0
30
0
11
-345435.0
21
-193350.0
31
0
0
LINE
8
electrical
10
-345565.0
20
-193290.0
30
0
11
-345435.0
21
-193290.0
31
0
0
LINE
8
electrical
10
-345491.0
20
-193320.0
30
0
11
-345504.5
21
-193312.21
31
0
0
LINE
8
electrical
10
-345504.5
20
-193312.21
30
0
11
-345504.5
21
-193327.79
31
0
0
LINE
8
electrical
10
-345504.5
20
-193327.79
30
0
11
-345491.0
21
-193320.0
31
0
0
LINE
8
electrical
10
-325950.0
20
-193320.0
30
0
11
-325950.0
21
-193327.79
31
0
0
LINE
8
electrical
10
-325950.0
20
-193327.79
30
0
11
-325950.0
21
-193312.21
31
0
0
LINE
8
electrical
10
-325950.0
20
-193312.21
30
0
11
-325950.0
21
-193320.0
31
0
0
LINE
8
electrical
10
-345500.0
20
-193320.0
30
0
11
-325950.0
21
-193320.0
31
0
0
LINE
8
electrical
10
-345500.0
20
-193320.0
30
0
11
-345500.0
21
-193327.79
31
0
0
LINE
8
electrical
10
-345500.0
20
-193327.79
30
0
11
-345500.0
21
-193312.21
31
0
0
LINE
8
electrical
10
-345500.0
20
-193312.21
30
0
11
-345500.0
21
-193320.0
31
0
0
LINE
8
electrical
10
-345500.0
20
-193320.0
30
0
11
-345490.28
21
-193320.0
31
0
0
LINE
8
electrical
10
-345490.28
20
-193320.0
30
0
11
-345500.0
21
-193320.0
31
0
0
LINE
8
electrical
10
-330565.0
20
-193350.0
30
0
11
-330565.0
21
-193290.0
31
0
0
LINE
8
electrical
10
-330435.0
20
-193350.0
30
0
11
-330435.0
21
-193290.0
31
0
0
LINE
8
electrical
10
-330565.0
20
-193350.0
30
0
11
-330435.0
21
-193350.0
31
0
0
LINE
8
electrical
10
-330565.0
20
-193290.0
30
0
11
-330435.0
21
-193290.0
31
0
0
LINE
8
electrical
10
-330491.0
20
-193320.0
30
0
11
-330504.5
21
-193312.21
31
0
0
LINE
8
electrical
10
-330504.5
20
-193312.21
30
0
11
-330504.5
21
-193327.79
31
0
0
LINE
8
electrical
10
-330504.5
20
-193327.79
30
0
11
-330491.0
21
-193320.0
31
0
0
LINE
8
electrical
10
-325950.0
20
-193320.0
30
0
11
-325950.0
21
-193327.79
31
0
0
LINE
8
electrical
10
-325950.0
20
-193327.79
30
0
11
-325950.0
21
-193312.21
31
0
0
LINE
8
electrical
10
-325950.0
20
-193312.21
30
0
11
-325950.0
21
-193320.0
31
0
0
LINE
8
electrical
10
-330500.0
20
-193320.0
30
0
11
-325950.0
21
-193320.0
31
0
0
LINE
8
electrical
10
-330500.0
20
-193320.0
30
0
11
-330500.0
21
-193327.79
31
0
0
LINE
8
electrical
10
-330500.0
20
-193327.79
30
0
11
-330500.0
21
-193312.21
31
0
0
LINE
8
electrical
10
-330500.0
20
-193312.21
30
0
11
-330500.0
21
-193320.0
31
0
0
LINE
8
electrical
10
-330500.0
20
-193320.0
30
0
11
-330490.28
21
-193320.0
31
0
0
LINE
8
electrical
10
-330490.28
20
-193320.0
30
0
11
-330500.0
21
-193320.0
31
0
0
LINE
8
hvac
10
-350025.0
20
-192775.0
30
0
11
-350025.0
21
-192025.0
31
0
0
LINE
8
hvac
10
-348375.0
20
-192775.0
30
0
11
-348375.0
21
-192025.0
31
0
0
LINE
8
hvac
10
-350025.0
20
-192775.0
30
0
11
-348375.0
21
-192775.0
31
0
0
LINE
8
hvac
10
-350025.0
20
-192025.0
30
0
11
-348375.0
21
-192025.0
31
0
0
LINE
8
hvac
10
-349925.0
20
-192820.0
30
0
11
-349925.0
21
-192780.0
31
0
0
LINE
8
hvac
10
-348475.0
20
-192820.0
30
0
11
-348475.0
21
-192780.0
31
0
0
LINE
8
hvac
10
-349925.0
20
-192820.0
30
0
11
-348475.0
21
-192820.0
31
0
0
LINE
8
hvac
10
-349925.0
20
-192780.0
30
0
11
-348475.0
21
-192780.0
31
0
0
LINE
8
hvac
10
-349860.0
20
-192860.0
30
0
11
-349860.0
21
-192800.0
31
0
0
LINE
8
hvac
10
-349820.0
20
-192860.0
30
0
11
-349820.0
21
-192800.0
31
0
0
LINE
8
hvac
10
-349860.0
20
-192860.0
30
0
11
-349820.0
21
-192860.0
31
0
0
LINE
8
hvac
10
-349860.0
20
-192800.0
30
0
11
-349820.0
21
-192800.0
31
0
0
LINE
8
hvac
10
-349700.0
20
-192860.0
30
0
11
-349700.0
21
-192800.0
31
0
0
LINE
8
hvac
10
-349660.0
20
-192860.0
30
0
11
-349660.0
21
-192800.0
31
0
0
LINE
8
hvac
10
-349700.0
20
-192860.0
30
0
11
-349660.0
21
-192860.0
31
0
0
LINE
8
hvac
10
-349700.0
20
-192800.0
30
0
11
-349660.0
21
-192800.0
31
0
0
LINE
8
hvac
10
-349540.0
20
-192860.0
30
0
11
-349540.0
21
-192800.0
31
0
0
LINE
8
hvac
10
-349500.0
20
-192860.0
30
0
11
-349500.0
21
-192800.0
31
0
0
LINE
8
hvac
10
-349540.0
20
-192860.0
30
0
11
-349500.0
21
-192860.0
31
0
0
LINE
8
hvac
10
-349540.0
20
-192800.0
30
0
11
-349500.0
21
-192800.0
31
0
0
LINE
8
hvac
10
-349380.0
20
-192860.0
30
0
11
-349380.0
21
-192800.0
31
0
0
LINE
8
hvac
10
-349340.0
20
-192860.0
30
0
11
-349340.0
21
-192800.0
31
0
0
LINE
8
hvac
10
-349380.0
20
-192860.0
30
0
11
-349340.0
21
-192860.0
31
0
0
LINE
8
hvac
10
-349380.0
20
-192800.0
30
0
11
-349340.0
21
-192800.0
31
0
0
LINE
8
hvac
10
-349220.0
20
-192860.0
30
0
11
-349220.0
21
-192800.0
31
0
0
LINE
8
hvac
10
-349180.0
20
-192860.0
30
0
11
-349180.0
21
-192800.0
31
0
0
LINE
8
hvac
10
-349220.0
20
-192860.0
30
0
11
-349180.0
21
-192860.0
31
0
0
LINE
8
hvac
10
-349220.0
20
-192800.0
30
0
11
-349180.0
21
-192800.0
31
0
0
LINE
8
hvac
10
-349060.0
20
-192860.0
30
0
11
-349060.0
21
-192800.0
31
0
0
LINE
8
hvac
10
-349020.0
20
-192860.0
30
0
11
-349020.0
21
-192800.0
31
0
0
LINE
8
hvac
10
-349060.0
20
-192860.0
30
0
11
-349020.0
21
-192860.0
31
0
0
LINE
8
hvac
10
-349060.0
20
-192800.0
30
0
11
-349020.0
21
-192800.0
31
0
0
LINE
8
hvac
10
-348900.0
20
-192860.0
30
0
11
-348900.0
21
-192800.0
31
0
0
LINE
8
hvac
10
-348860.0
20
-192860.0
30
0
11
-348860.0
21
-192800.0
31
0
0
LINE
8
hvac
10
-348900.0
20
-192860.0
30
0
11
-348860.0
21
-192860.0
31
0
0
LINE
8
hvac
10
-348900.0
20
-192800.0
30
0
11
-348860.0
21
-192800.0
31
0
0
LINE
8
hvac
10
-348740.0
20
-192860.0
30
0
11
-348740.0
21
-192800.0
31
0
0
LINE
8
hvac
10
-348700.0
20
-192860.0
30
0
11
-348700.0
21
-192800.0
31
0
0
LINE
8
hvac
10
-348740.0
20
-192860.0
30
0
11
-348700.0
21
-192860.0
31
0
0
LINE
8
hvac
10
-348740.0
20
-192800.0
30
0
11
-348700.0
21
-192800.0
31
0
0
LINE
8
hvac
10
-348580.0
20
-192860.0
30
0
11
-348580.0
21
-192800.0
31
0
0
LINE
8
hvac
10
-348540.0
20
-192860.0
30
0
11
-348540.0
21
-192800.0
31
0
0
LINE
8
hvac
10
-348580.0
20
-192860.0
30
0
11
-348540.0
21
-192860.0
31
0
0
LINE
8
hvac
10
-348580.0
20
-192800.0
30
0
11
-348540.0
21
-192800.0
31
0
0
LINE
8
hvac
10
-349425.0
20
-192625.0
30
0
11
-349425.0
21
-192175.0
31
0
0
LINE
8
hvac
10
-348975.0
20
-192625.0
30
0
11
-348975.0
21
-192175.0
31
0
0
LINE
8
hvac
10
-349425.0
20
-192625.0
30
0
11
-348975.0
21
-192625.0
31
0
0
LINE
8
hvac
10
-349425.0
20
-192175.0
30
0
11
-348975.0
21
-192175.0
31
0
0
LINE
8
hvac
10
-346750.0
20
-186175.0
30
0
11
-346750.0
21
-185825.0
31
0
0
LINE
8
hvac
10
-329250.0
20
-186175.0
30
0
11
-329250.0
21
-185825.0
31
0
0
LINE
8
hvac
10
-346750.0
20
-186175.0
30
0
11
-329250.0
21
-186175.0
31
0
0
LINE
8
hvac
10
-346750.0
20
-185825.0
30
0
11
-329250.0
21
-185825.0
31
0
0
LINE
8
hvac
10
-349375.0
20
-192575.0
30
0
11
-349375.0
21
-192225.0
31
0
0
LINE
8
hvac
10
-337825.0
20
-192575.0
30
0
11
-337825.0
21
-192225.0
31
0
0
LINE
8
hvac
10
-349375.0
20
-192575.0
30
0
11
-337825.0
21
-192575.0
31
0
0
LINE
8
hvac
10
-349375.0
20
-192225.0
30
0
11
-337825.0
21
-192225.0
31
0
0
LINE
8
hvac
10
-338175.0
20
-192575.0
30
0
11
-338175.0
21
-185825.0
31
0
0
LINE
8
hvac
10
-337825.0
20
-192575.0
30
0
11
-337825.0
21
-185825.0
31
0
0
LINE
8
hvac
10
-338175.0
20
-192575.0
30
0
11
-337825.0
21
-192575.0
31
0
0
LINE
8
hvac
10
-338175.0
20
-185825.0
30
0
11
-337825.0
21
-185825.0
31
0
0
LINE
8
hvac
10
-343350.0
20
-186350.0
30
0
11
-343350.0
21
-185650.0
31
0
0
LINE
8
hvac
10
-342650.0
20
-186350.0
30
0
11
-342650.0
21
-185650.0
31
0
0
LINE
8
hvac
10
-343350.0
20
-186350.0
30
0
11
-342650.0
21
-186350.0
31
0
0
LINE
8
hvac
10
-343350.0
20
-185650.0
30
0
11
-342650.0
21
-185650.0
31
0
0
LINE
8
hvac
10
-333350.0
20
-186350.0
30
0
11
-333350.0
21
-185650.0
31
0
0
LINE
8
hvac
10
-332650.0
20
-186350.0
30
0
11
-332650.0
21
-185650.0
31
0
0
LINE
8
hvac
10
-333350.0
20
-186350.0
30
0
11
-332650.0
21
-186350.0
31
0
0
LINE
8
hvac
10
-333350.0
20
-185650.0
30
0
11
-332650.0
21
-185650.0
31
0
0
LINE
8
sensors
10
-350460.0
20
-190280.0
30
0
11
-350460.0
21
-190120.0
31
0
0
LINE
8
sensors
10
-350360.0
20
-190280.0
30
0
11
-350360.0
21
-190120.0
31
0
0
LINE
8
sensors
10
-350460.0
20
-190280.0
30
0
11
-350360.0
21
-190280.0
31
0
0
LINE
8
sensors
10
-350460.0
20
-190120.0
30
0
11
-350360.0
21
-190120.0
31
0
0
LINE
8
sensors
10
-350355.0
20
-190255.0
30
0
11
-350355.0
21
-190145.0
31
0
0
LINE
8
sensors
10
-350335.0
20
-190255.0
30
0
11
-350335.0
21
-190145.0
31
0
0
LINE
8
sensors
10
-350355.0
20
-190255.0
30
0
11
-350335.0
21
-190255.0
31
0
0
LINE
8
sensors
10
-350355.0
20
-190145.0
30
0
11
-350335.0
21
-190145.0
31
0
0
LINE
8
sensors
10
-350460.0
20
-189980.0
30
0
11
-350460.0
21
-189820.0
31
0
0
LINE
8
sensors
10
-350360.0
20
-189980.0
30
0
11
-350360.0
21
-189820.0
31
0
0
LINE
8
sensors
10
-350460.0
20
-189980.0
30
0
11
-350360.0
21
-189980.0
31
0
0
LINE
8
sensors
10
-350460.0
20
-189820.0
30
0
11
-350360.0
21
-189820.0
31
0
0
LINE
8
sensors
10
-350355.0
20
-189955.0
30
0
11
-350355.0
21
-189845.0
31
0
0
LINE
8
sensors
10
-350335.0
20
-189955.0
30
0
11
-350335.0
21
-189845.0
31
0
0
LINE
8
sensors
10
-350355.0
20
-189955.0
30
0
11
-350335.0
21
-189955.0
31
0
0
LINE
8
sensors
10
-350355.0
20
-189845.0
30
0
11
-350335.0
21
-189845.0
31
0
0
LINE
8
sensors
10
-350460.0
20
-189680.0
30
0
11
-350460.0
21
-189520.0
31
0
0
LINE
8
sensors
10
-350360.0
20
-189680.0
30
0
11
-350360.0
21
-189520.0
31
0
0
LINE
8
sensors
10
-350460.0
20
-189680.0
30
0
11
-350360.0
21
-189680.0
31
0
0
LINE
8
sensors
10
-350460.0
20
-189520.0
30
0
11
-350360.0
21
-189520.0
31
0
0
LINE
8
sensors
10
-350355.0
20
-189655.0
30
0
11
-350355.0
21
-189545.0
31
0
0
LINE
8
sensors
10
-350335.0
20
-189655.0
30
0
11
-350335.0
21
-189545.0
31
0
0
LINE
8
sensors
10
-350355.0
20
-189655.0
30
0
11
-350335.0
21
-189655.0
31
0
0
LINE
8
sensors
10
-350355.0
20
-189545.0
30
0
11
-350335.0
21
-189545.0
31
0
0
LINE
8
sensors
10
-337920.0
20
-186000.0
30
0
11
-338000.0
21
-185920.0
31
0
0
LINE
8
sensors
10
-338000.0
20
-185920.0
30
0
11
-338080.0
21
-186000.0
31
0
0
LINE
8
sensors
10
-338080.0
20
-186000.0
30
0
11
-338000.0
21
-186080.0
31
0
0
LINE
8
sensors
10
-338000.0
20
-186080.0
30
0
11
-337920.0
21
-186000.0
31
0
0
LINE
8
sensors
10
-338000.0
20
-186000.0
30
0
11
-337935.0
21
-186000.0
31
0
0
LINE
8
sensors
10
-337935.0
20
-186000.0
30
0
11
-338000.0
21
-186000.0
31
0
0
LINE
8
sensors
10
-350460.0
20
-189080.0
30
0
11
-350460.0
21
-188920.0
31
0
0
LINE
8
sensors
10
-350360.0
20
-189080.0
30
0
11
-350360.0
21
-188920.0
31
0
0
LINE
8
sensors
10
-350460.0
20
-189080.0
30
0
11
-350360.0
21
-189080.0
31
0
0
LINE
8
sensors
10
-350460.0
20
-188920.0
30
0
11
-350360.0
21
-188920.0
31
0
0
LINE
8
sensors
10
-350355.0
20
-189055.0
30
0
11
-350355.0
21
-188945.0
31
0
0
LINE
8
sensors
10
-350335.0
20
-189055.0
30
0
11
-350335.0
21
-188945.0
31
0
0
LINE
8
sensors
10
-350355.0
20
-189055.0
30
0
11
-350335.0
21
-189055.0
31
0
0
LINE
8
sensors
10
-350355.0
20
-188945.0
30
0
11
-350335.0
21
-188945.0
31
0
0
ENDSEC
0
EOF
