0
SECTION
2
HEADER
9
$ACADVER
1
AC1015
9
$INSUNITS
70
4
0
ENDSEC
0
SECTION
2
ENTITIES
0
LINE
8
interiors
10
-285500.0
20
-228000.0
30
0
11
-285500.0
21
-208000.0
31
0
0
LINE
8
interiors
10
-285500.0
20
-228000.0
30
0
11
-259200.0
21
-228000.0
31
0
0
LINE
8
interiors
10
-259200.0
20
-228000.0
30
0
11
-256800.0
21
-228000.0
31
0
0
LINE
8
interiors
10
-256800.0
20
-228000.0
30
0
11
-230500.0
21
-228000.0
31
0
0
LINE
8
interiors
10
-285500.0
20
-228000.0
30
0
11
-230500.0
21
-228000.0
31
0
0
LINE
8
interiors
10
-285500.0
20
-208000.0
30
0
11
-230500.0
21
-208000.0
31
0
0
LINE
8
interiors
10
-230500.0
20
-228000.0
30
0
11
-230500.0
21
-208000.0
31
0
0
LINE
8
interiors
10
-230620.0
20
-227880.0
30
0
11
-285380.0
21
-227880.0
31
0
0
LINE
8
interiors
10
-230620.0
20
-227880.0
30
0
11
-230620.0
21
-208120.0
31
0
0
LINE
8
interiors
10
-230620.0
20
-208120.0
30
0
11
-285380.0
21
-208120.0
31
0
0
LINE
8
interiors
10
-285380.0
20
-227880.0
30
0
11
-285380.0
21
-208120.0
31
0
0
LINE
8
interiors
10
-272300.0
20
-208000.0
30
0
11
-243700.0
21
-208000.0
31
0
0
LINE
8
interiors
10
-256800.0
20
-228000.0
30
0
11
-256800.0
21
-227880.0
31
0
0
LINE
8
interiors
10
-230620.0
20
-227880.0
30
0
11
-256800.0
21
-227880.0
31
0
0
LINE
8
interiors
10
-259200.0
20
-227880.0
30
0
11
-285380.0
21
-227880.0
31
0
0
LINE
8
interiors
10
-259200.0
20
-228000.0
30
0
11
-259200.0
21
-227880.0
31
0
0
LINE
8
interiors
10
-259200.0
20
-227880.0
30
0
11
-256800.0
21
-227880.0
31
0
0
LINE
8
interiors
10
-272300.0
20
-208120.0
30
0
11
-243700.0
21
-208120.0
31
0
0
LINE
8
interiors
10
-272300.0
20
-208120.0
30
0
11
-272300.0
21
-208000.0
31
0
0
LINE
8
interiors
10
-243700.0
20
-208120.0
30
0
11
-243700.0
21
-208000.0
31
0
0
LINE
8
interiors
10
-272300.0
20
-208022.5
30
0
11
-272300.0
21
-207977.5
31
0
0
LINE
8
interiors
10
-243700.0
20
-208022.5
30
0
11
-243700.0
21
-207977.5
31
0
0
LINE
8
interiors
10
-272300.0
20
-208022.5
30
0
11
-243700.0
21
-208022.5
31
0
0
LINE
8
interiors
10
-272300.0
20
-207977.5
30
0
11
-243700.0
21
-207977.5
31
0
0
LINE
8
interiors
10
-285375.0
20
-227875.0
30
0
11
-285375.0
21
-208125.0
31
0
0
LINE
8
interiors
10
-230625.0
20
-227875.0
30
0
11
-230625.0
21
-208125.0
31
0
0
LINE
8
interiors
10
-285375.0
20
-227875.0
30
0
11
-230625.0
21
-227875.0
31
0
0
LINE
8
interiors
10
-285375.0
20
-208125.0
30
0
11
-230625.0
21
-208125.0
31
0
0
LINE
8
interiors
10
-259155.0
20
-228120.0
30
0
11
-259155.0
21
-227880.0
31
0
0
LINE
8
interiors
10
-259085.0
20
-228120.0
30
0
11
-259085.0
21
-227880.0
31
0
0
LINE
8
interiors
10
-259155.0
20
-228120.0
30
0
11
-259085.0
21
-228120.0
31
0
0
LINE
8
interiors
10
-259155.0
20
-227880.0
30
0
11
-259085.0
21
-227880.0
31
0
0
LINE
8
interiors
10
-256915.0
20
-228120.0
30
0
11
-256915.0
21
-227880.0
31
0
0
LINE
8
interiors
10
-256845.0
20
-228120.0
30
0
11
-256845.0
21
-227880.0
31
0
0
LINE
8
interiors
10
-256915.0
20
-228120.0
30
0
11
-256845.0
21
-228120.0
31
0
0
LINE
8
interiors
10
-256915.0
20
-227880.0
30
0
11
-256845.0
21
-227880.0
31
0
0
LINE
8
interiors
10
-259150.0
20
-228120.0
30
0
11
-259150.0
21
-227880.0
31
0
0
LINE
8
interiors
10
-256850.0
20
-228120.0
30
0
11
-256850.0
21
-227880.0
31
0
0
LINE
8
interiors
10
-259150.0
20
-228120.0
30
0
11
-256850.0
21
-228120.0
31
0
0
LINE
8
interiors
10
-259150.0
20
-227880.0
30
0
11
-256850.0
21
-227880.0
31
0
0
LINE
8
interiors
10
-259069.61
20
-227909.51
30
0
11
-259110.39
21
-227890.49
31
0
0
LINE
8
interiors
10
-258613.18
20
-226930.7
30
0
11
-258653.96
21
-226911.68
31
0
0
LINE
8
interiors
10
-259069.61
20
-227909.51
30
0
11
-258613.18
21
-226930.7
31
0
0
LINE
8
interiors
10
-259110.39
20
-227890.49
30
0
11
-258653.96
21
-226911.68
31
0
0
LINE
8
interiors
10
-273900.0
20
-213350.0
30
0
11
-273900.0
21
-212650.0
31
0
0
LINE
8
interiors
10
-272900.0
20
-213350.0
30
0
11
-272900.0
21
-212650.0
31
0
0
LINE
8
interiors
10
-273900.0
20
-213350.0
30
0
11
-272900.0
21
-213350.0
31
0
0
LINE
8
interiors
10
-273900.0
20
-212650.0
30
0
11
-272900.0
21
-212650.0
31
0
0
LINE
8
interiors
10
-273700.0
20
-213430.0
30
0
11
-273700.0
21
-213370.0
31
0
0
LINE
8
interiors
10
-273100.0
20
-213430.0
30
0
11
-273100.0
21
-213370.0
31
0
0
LINE
8
interiors
10
-273700.0
20
-213430.0
30
0
11
-273100.0
21
-213430.0
31
0
0
LINE
8
interiors
10
-273700.0
20
-213370.0
30
0
11
-273100.0
21
-213370.0
31
0
0
LINE
8
interiors
10
-273430.0
20
-213435.0
30
0
11
-273430.0
21
-213365.0
31
0
0
LINE
8
interiors
10
-273370.0
20
-213435.0
30
0
11
-273370.0
21
-213365.0
31
0
0
LINE
8
interiors
10
-273430.0
20
-213435.0
30
0
11
-273370.0
21
-213435.0
31
0
0
LINE
8
interiors
10
-273430.0
20
-213365.0
30
0
11
-273370.0
21
-213365.0
31
0
0
LINE
8
interiors
10
-273550.0
20
-213510.0
30
0
11
-273550.0
21
-213290.0
31
0
0
LINE
8
interiors
10
-273250.0
20
-213510.0
30
0
11
-273250.0
21
-213290.0
31
0
0
LINE
8
interiors
10
-273550.0
20
-213510.0
30
0
11
-273250.0
21
-213510.0
31
0
0
LINE
8
interiors
10
-273550.0
20
-213290.0
30
0
11
-273250.0
21
-213290.0
31
0
0
LINE
8
electrical
10
-231225.0
20
-227925.0
30
0
11
-231225.0
21
-227675.0
31
0
0
LINE
8
electrical
10
-230675.0
20
-227925.0
30
0
11
-230675.0
21
-227675.0
31
0
0
LINE
8
electrical
10
-231225.0
20
-227925.0
30
0
11
-230675.0
21
-227925.0
31
0
0
LINE
8
electrical
10
-231225.0
20
-227675.0
30
0
11
-230675.0
21
-227675.0
31
0
0
LINE
8
electrical
10
-231185.0
20
-227952.5
30
0
11
-231185.0
21
-227917.5
31
0
0
LINE
8
electrical
10
-230715.0
20
-227952.5
30
0
11
-230715.0
21
-227917.5
31
0
0
LINE
8
electrical
10
-231185.0
20
-227952.5
30
0
11
-230715.0
21
-227952.5
31
0
0
LINE
8
electrical
10
-231185.0
20
-227917.5
30
0
11
-230715.0
21
-227917.5
31
0
0
LINE
8
electrical
10
-231137.5
20
-227990.0
30
0
11
-231137.5
21
-227950.0
31
0
0
LINE
8
electrical
10
-231037.5
20
-227990.0
30
0
11
-231037.5
21
-227950.0
31
0
0
LINE
8
electrical
10
-231137.5
20
-227990.0
30
0
11
-231037.5
21
-227990.0
31
0
0
LINE
8
electrical
10
-231137.5
20
-227950.0
30
0
11
-231037.5
21
-227950.0
31
0
0
LINE
8
electrical
10
-231000.0
20
-227990.0
30
0
11
-231000.0
21
-227950.0
31
0
0
LINE
8
electrical
10
-230900.0
20
-227990.0
30
0
11
-230900.0
21
-227950.0
31
0
0
LINE
8
electrical
10
-231000.0
20
-227990.0
30
0
11
-230900.0
21
-227990.0
31
0
0
LINE
8
electrical
10
-231000.0
20
-227950.0
30
0
11
-230900.0
21
-227950.0
31
0
0
LINE
8
electrical
10
-230862.5
20
-227990.0
30
0
11
-230862.5
21
-227950.0
31
0
0
LINE
8
electrical
10
-230762.5
20
-227990.0
30
0
11
-230762.5
21
-227950.0
31
0
0
LINE
8
electrical
10
-230862.5
20
-227990.0
30
0
11
-230762.5
21
-227990.0
31
0
0
LINE
8
electrical
10
-230862.5
20
-227950.0
30
0
11
-230762.5
21
-227950.0
31
0
0
LINE
8
electrical
10
-231087.5
20
-228005.0
30
0
11
-231064.12
21
-228005.0
31
0
0
LINE
8
electrical
10
-231064.12
20
-228005.0
30
0
11
-231110.88
21
-228005.0
31
0
0
LINE
8
electrical
10
-231110.88
20
-228005.0
30
0
11
-231087.5
21
-228005.0
31
0
0
LINE
8
electrical
10
-231087.5
20
-227980.0
30
0
11
-231087.5
21
-228005.0
31
0
0
LINE
8
electrical
10
-231087.5
20
-227980.0
30
0
11
-231064.12
21
-227980.0
31
0
0
LINE
8
electrical
10
-231064.12
20
-227980.0
30
0
11
-231110.88
21
-227980.0
31
0
0
LINE
8
electrical
10
-231110.88
20
-227980.0
30
0
11
-231087.5
21
-227980.0
31
0
0
LINE
8
electrical
10
-230950.0
20
-228005.0
30
0
11
-230926.62
21
-228005.0
31
0
0
LINE
8
electrical
10
-230926.62
20
-228005.0
30
0
11
-230973.38
21
-228005.0
31
0
0
LINE
8
electrical
10
-230973.38
20
-228005.0
30
0
11
-230950.0
21
-228005.0
31
0
0
LINE
8
electrical
10
-230950.0
20
-227980.0
30
0
11
-230950.0
21
-228005.0
31
0
0
LINE
8
electrical
10
-230950.0
20
-227980.0
30
0
11
-230926.62
21
-227980.0
31
0
0
LINE
8
electrical
10
-230926.62
20
-227980.0
30
0
11
-230973.38
21
-227980.0
31
0
0
LINE
8
electrical
10
-230973.38
20
-227980.0
30
0
11
-230950.0
21
-227980.0
31
0
0
LINE
8
electrical
10
-230812.5
20
-228005.0
30
0
11
-230789.12
21
-228005.0
31
0
0
LINE
8
electrical
10
-230789.12
20
-228005.0
30
0
11
-230835.88
21
-228005.0
31
0
0
LINE
8
electrical
10
-230835.88
20
-228005.0
30
0
11
-230812.5
21
-228005.0
31
0
0
LINE
8
electrical
10
-230812.5
20
-227980.0
30
0
11
-230812.5
21
-228005.0
31
0
0
LINE
8
electrical
10
-230812.5
20
-227980.0
30
0
11
-230789.12
21
-227980.0
31
0
0
LINE
8
electrical
10
-230789.12
20
-227980.0
30
0
11
-230835.88
21
-227980.0
31
0
0
LINE
8
electrical
10
-230835.88
20
-227980.0
30
0
11
-230812.5
21
-227980.0
31
0
0
LINE
8
electrical
10
-230950.0
20
-227800.0
30
0
11
-230934.41
21
-227800.0
31
0
0
LINE
8
electrical
10
-230934.41
20
-227800.0
30
0
11
-230965.59
21
-227800.0
31
0
0
LINE
8
electrical
10
-230965.59
20
-227800.0
30
0
11
-230950.0
21
-227800.0
31
0
0
LINE
8
electrical
10
-230950.0
20
-226300.0
30
0
11
-230950.0
21
-227800.0
31
0
0
LINE
8
electrical
10
-230950.0
20
-226300.0
30
0
11
-230934.41
21
-226300.0
31
0
0
LINE
8
electrical
10
-230934.41
20
-226300.0
30
0
11
-230965.59
21
-226300.0
31
0
0
LINE
8
electrical
10
-230965.59
20
-226300.0
30
0
11
-230950.0
21
-226300.0
31
0
0
LINE
8
electrical
10
-230968.0
20
-227800.0
30
0
11
-230941.0
21
-227784.41
31
0
0
LINE
8
electrical
10
-230941.0
20
-227784.41
30
0
11
-230941.0
21
-227815.59
31
0
0
LINE
8
electrical
10
-230941.0
20
-227815.59
30
0
11
-230968.0
21
-227800.0
31
0
0
LINE
8
electrical
10
-230950.0
20
-227800.0
30
0
11
-230930.56
21
-227800.0
31
0
0
LINE
8
electrical
10
-230930.56
20
-227800.0
30
0
11
-230950.0
21
-227800.0
31
0
0
LINE
8
lighting
10
-278120.0
20
-225120.0
30
0
11
-278120.0
21
-224480.0
31
0
0
LINE
8
lighting
10
-277480.0
20
-225120.0
30
0
11
-277480.0
21
-224480.0
31
0
0
LINE
8
lighting
10
-278120.0
20
-225120.0
30
0
11
-277480.0
21
-225120.0
31
0
0
LINE
8
lighting
10
-278120.0
20
-224480.0
30
0
11
-277480.0
21
-224480.0
31
0
0
LINE
8
lighting
10
-278080.0
20
-225080.0
30
0
11
-278080.0
21
-224520.0
31
0
0
LINE
8
lighting
10
-277520.0
20
-225080.0
30
0
11
-277520.0
21
-224520.0
31
0
0
LINE
8
lighting
10
-278080.0
20
-225080.0
30
0
11
-277520.0
21
-225080.0
31
0
0
LINE
8
lighting
10
-278080.0
20
-224520.0
30
0
11
-277520.0
21
-224520.0
31
0
0
LINE
8
lighting
10
-278046.0
20
-225070.0
30
0
11
-278046.0
21
-224530.0
31
0
0
LINE
8
lighting
10
-278034.0
20
-225070.0
30
0
11
-278034.0
21
-224530.0
31
0
0
LINE
8
lighting
10
-278046.0
20
-225070.0
30
0
11
-278034.0
21
-225070.0
31
0
0
LINE
8
lighting
10
-278046.0
20
-224530.0
30
0
11
-278034.0
21
-224530.0
31
0
0
LINE
8
lighting
10
-277966.0
20
-225070.0
30
0
11
-277966.0
21
-224530.0
31
0
0
LINE
8
lighting
10
-277954.0
20
-225070.0
30
0
11
-277954.0
21
-224530.0
31
0
0
LINE
8
lighting
10
-277966.0
20
-225070.0
30
0
11
-277954.0
21
-225070.0
31
0
0
LINE
8
lighting
10
-277966.0
20
-224530.0
30
0
11
-277954.0
21
-224530.0
31
0
0
LINE
8
lighting
10
-277886.0
20
-225070.0
30
0
11
-277886.0
21
-224530.0
31
0
0
LINE
8
lighting
10
-277874.0
20
-225070.0
30
0
11
-277874.0
21
-224530.0
31
0
0
LINE
8
lighting
10
-277886.0
20
-225070.0
30
0
11
-277874.0
21
-225070.0
31
0
0
LINE
8
lighting
10
-277886.0
20
-224530.0
30
0
11
-277874.0
21
-224530.0
31
0
0
LINE
8
lighting
10
-277806.0
20
-225070.0
30
0
11
-277806.0
21
-224530.0
31
0
0
LINE
8
lighting
10
-277794.0
20
-225070.0
30
0
11
-277794.0
21
-224530.0
31
0
0
LINE
8
lighting
10
-277806.0
20
-225070.0
30
0
11
-277794.0
21
-225070.0
31
0
0
LINE
8
lighting
10
-277806.0
20
-224530.0
30
0
11
-277794.0
21
-224530.0
31
0
0
LINE
8
lighting
10
-277726.0
20
-225070.0
30
0
11
-277726.0
21
-224530.0
31
0
0
LINE
8
lighting
10
-277714.0
20
-225070.0
30
0
11
-277714.0
21
-224530.0
31
0
0
LINE
8
lighting
10
-277726.0
20
-225070.0
30
0
11
-277714.0
21
-225070.0
31
0
0
LINE
8
lighting
10
-277726.0
20
-224530.0
30
0
11
-277714.0
21
-224530.0
31
0
0
LINE
8
lighting
10
-277646.0
20
-225070.0
30
0
11
-277646.0
21
-224530.0
31
0
0
LINE
8
lighting
10
-277634.0
20
-225070.0
30
0
11
-277634.0
21
-224530.0
31
0
0
LINE
8
lighting
10
-277646.0
20
-225070.0
30
0
11
-277634.0
21
-225070.0
31
0
0
LINE
8
lighting
10
-277646.0
20
-224530.0
30
0
11
-277634.0
21
-224530.0
31
0
0
LINE
8
lighting
10
-277566.0
20
-225070.0
30
0
11
-277566.0
21
-224530.0
31
0
0
LINE
8
lighting
10
-277554.0
20
-225070.0
30
0
11
-277554.0
21
-224530.0
31
0
0
LINE
8
lighting
10
-277566.0
20
-225070.0
30
0
11
-277554.0
21
-225070.0
31
0
0
LINE
8
lighting
10
-277566.0
20
-224530.0
30
0
11
-277554.0
21
-224530.0
31
0
0
LINE
8
lighting
10
-277791.0
20
-224800.0
30
0
11
-277804.5
21
-224792.21
31
0
0
LINE
8
lighting
10
-277804.5
20
-224792.21
30
0
11
-277804.5
21
-224807.79
31
0
0
LINE
8
lighting
10
-277804.5
20
-224807.79
30
0
11
-277791.0
21
-224800.0
31
0
0
LINE
8
lighting
10
-258320.0
20
-225120.0
30
0
11
-258320.0
21
-224480.0
31
0
0
LINE
8
lighting
10
-257680.0
20
-225120.0
30
0
11
-257680.0
21
-224480.0
31
0
0
LINE
8
lighting
10
-258320.0
20
-225120.0
30
0
11
-257680.0
21
-225120.0
31
0
0
LINE
8
lighting
10
-258320.0
20
-224480.0
30
0
11
-257680.0
21
-224480.0
31
0
0
LINE
8
lighting
10
-258280.0
20
-225080.0
30
0
11
-258280.0
21
-224520.0
31
0
0
LINE
8
lighting
10
-257720.0
20
-225080.0
30
0
11
-257720.0
21
-224520.0
31
0
0
LINE
8
lighting
10
-258280.0
20
-225080.0
30
0
11
-257720.0
21
-225080.0
31
0
0
LINE
8
lighting
10
-258280.0
20
-224520.0
30
0
11
-257720.0
21
-224520.0
31
0
0
LINE
8
lighting
10
-258246.0
20
-225070.0
30
0
11
-258246.0
21
-224530.0
31
0
0
LINE
8
lighting
10
-258234.0
20
-225070.0
30
0
11
-258234.0
21
-224530.0
31
0
0
LINE
8
lighting
10
-258246.0
20
-225070.0
30
0
11
-258234.0
21
-225070.0
31
0
0
LINE
8
lighting
10
-258246.0
20
-224530.0
30
0
11
-258234.0
21
-224530.0
31
0
0
LINE
8
lighting
10
-258166.0
20
-225070.0
30
0
11
-258166.0
21
-224530.0
31
0
0
LINE
8
lighting
10
-258154.0
20
-225070.0
30
0
11
-258154.0
21
-224530.0
31
0
0
LINE
8
lighting
10
-258166.0
20
-225070.0
30
0
11
-258154.0
21
-225070.0
31
0
0
LINE
8
lighting
10
-258166.0
20
-224530.0
30
0
11
-258154.0
21
-224530.0
31
0
0
LINE
8
lighting
10
-258086.0
20
-225070.0
30
0
11
-258086.0
21
-224530.0
31
0
0
LINE
8
lighting
10
-258074.0
20
-225070.0
30
0
11
-258074.0
21
-224530.0
31
0
0
LINE
8
lighting
10
-258086.0
20
-225070.0
30
0
11
-258074.0
21
-225070.0
31
0
0
LINE
8
lighting
10
-258086.0
20
-224530.0
30
0
11
-258074.0
21
-224530.0
31
0
0
LINE
8
lighting
10
-258006.0
20
-225070.0
30
0
11
-258006.0
21
-224530.0
31
0
0
LINE
8
lighting
10
-257994.0
20
-225070.0
30
0
11
-257994.0
21
-224530.0
31
0
0
LINE
8
lighting
10
-258006.0
20
-225070.0
30
0
11
-257994.0
21
-225070.0
31
0
0
LINE
8
lighting
10
-258006.0
20
-224530.0
30
0
11
-257994.0
21
-224530.0
31
0
0
LINE
8
lighting
10
-257926.0
20
-225070.0
30
0
11
-257926.0
21
-224530.0
31
0
0
LINE
8
lighting
10
-257914.0
20
-225070.0
30
0
11
-257914.0
21
-224530.0
31
0
0
LINE
8
lighting
10
-257926.0
20
-225070.0
30
0
11
-257914.0
21
-225070.0
31
0
0
LINE
8
lighting
10
-257926.0
20
-224530.0
30
0
11
-257914.0
21
-224530.0
31
0
0
LINE
8
lighting
10
-257846.0
20
-225070.0
30
0
11
-257846.0
21
-224530.0
31
0
0
LINE
8
lighting
10
-257834.0
20
-225070.0
30
0
11
-257834.0
21
-224530.0
31
0
0
LINE
8
lighting
10
-257846.0
20
-225070.0
30
0
11
-257834.0
21
-225070.0
31
0
0
LINE
8
lighting
10
-257846.0
20
-224530.0
30
0
11
-257834.0
21
-224530.0
31
0
0
LINE
8
lighting
10
-257766.0
20
-225070.0
30
0
11
-257766.0
21
-224530.0
31
0
0
LINE
8
lighting
10
-257754.0
20
-225070.0
30
0
11
-257754.0
21
-224530.0
31
0
0
LINE
8
lighting
10
-257766.0
20
-225070.0
30
0
11
-257754.0
21
-225070.0
31
0
0
LINE
8
lighting
10
-257766.0
20
-224530.0
30
0
11
-257754.0
21
-224530.0
31
0
0
LINE
8
lighting
10
-257991.0
20
-224800.0
30
0
11
-258004.5
21
-224792.21
31
0
0
LINE
8
lighting
10
-258004.5
20
-224792.21
30
0
11
-258004.5
21
-224807.79
31
0
0
LINE
8
lighting
10
-258004.5
20
-224807.79
30
0
11
-257991.0
21
-224800.0
31
0
0
LINE
8
lighting
10
-238520.0
20
-225120.0
30
0
11
-238520.0
21
-224480.0
31
0
0
LINE
8
lighting
10
-237880.0
20
-225120.0
30
0
11
-237880.0
21
-224480.0
31
0
0
LINE
8
lighting
10
-238520.0
20
-225120.0
30
0
11
-237880.0
21
-225120.0
31
0
0
LINE
8
lighting
10
-238520.0
20
-224480.0
30
0
11
-237880.0
21
-224480.0
31
0
0
LINE
8
lighting
10
-238480.0
20
-225080.0
30
0
11
-238480.0
21
-224520.0
31
0
0
LINE
8
lighting
10
-237920.0
20
-225080.0
30
0
11
-237920.0
21
-224520.0
31
0
0
LINE
8
lighting
10
-238480.0
20
-225080.0
30
0
11
-237920.0
21
-225080.0
31
0
0
LINE
8
lighting
10
-238480.0
20
-224520.0
30
0
11
-237920.0
21
-224520.0
31
0
0
LINE
8
lighting
10
-238446.0
20
-225070.0
30
0
11
-238446.0
21
-224530.0
31
0
0
LINE
8
lighting
10
-238434.0
20
-225070.0
30
0
11
-238434.0
21
-224530.0
31
0
0
LINE
8
lighting
10
-238446.0
20
-225070.0
30
0
11
-238434.0
21
-225070.0
31
0
0
LINE
8
lighting
10
-238446.0
20
-224530.0
30
0
11
-238434.0
21
-224530.0
31
0
0
LINE
8
lighting
10
-238366.0
20
-225070.0
30
0
11
-238366.0
21
-224530.0
31
0
0
LINE
8
lighting
10
-238354.0
20
-225070.0
30
0
11
-238354.0
21
-224530.0
31
0
0
LINE
8
lighting
10
-238366.0
20
-225070.0
30
0
11
-238354.0
21
-225070.0
31
0
0
LINE
8
lighting
10
-238366.0
20
-224530.0
30
0
11
-238354.0
21
-224530.0
31
0
0
LINE
8
lighting
10
-238286.0
20
-225070.0
30
0
11
-238286.0
21
-224530.0
31
0
0
LINE
8
lighting
10
-238274.0
20
-225070.0
30
0
11
-238274.0
21
-224530.0
31
0
0
LINE
8
lighting
10
-238286.0
20
-225070.0
30
0
11
-238274.0
21
-225070.0
31
0
0
LINE
8
lighting
10
-238286.0
20
-224530.0
30
0
11
-238274.0
21
-224530.0
31
0
0
LINE
8
lighting
10
-238206.0
20
-225070.0
30
0
11
-238206.0
21
-224530.0
31
0
0
LINE
8
lighting
10
-238194.0
20
-225070.0
30
0
11
-238194.0
21
-224530.0
31
0
0
LINE
8
lighting
10
-238206.0
20
-225070.0
30
0
11
-238194.0
21
-225070.0
31
0
0
LINE
8
lighting
10
-238206.0
20
-224530.0
30
0
11
-238194.0
21
-224530.0
31
0
0
LINE
8
lighting
10
-238126.0
20
-225070.0
30
0
11
-238126.0
21
-224530.0
31
0
0
LINE
8
lighting
10
-238114.0
20
-225070.0
30
0
11
-238114.0
21
-224530.0
31
0
0
LINE
8
lighting
10
-238126.0
20
-225070.0
30
0
11
-238114.0
21
-225070.0
31
0
0
LINE
8
lighting
10
-238126.0
20
-224530.0
30
0
11
-238114.0
21
-224530.0
31
0
0
LINE
8
lighting
10
-238046.0
20
-225070.0
30
0
11
-238046.0
21
-224530.0
31
0
0
LINE
8
lighting
10
-238034.0
20
-225070.0
30
0
11
-238034.0
21
-224530.0
31
0
0
LINE
8
lighting
10
-238046.0
20
-225070.0
30
0
11
-238034.0
21
-225070.0
31
0
0
LINE
8
lighting
10
-238046.0
20
-224530.0
30
0
11
-238034.0
21
-224530.0
31
0
0
LINE
8
lighting
10
-237966.0
20
-225070.0
30
0
11
-237966.0
21
-224530.0
31
0
0
LINE
8
lighting
10
-237954.0
20
-225070.0
30
0
11
-237954.0
21
-224530.0
31
0
0
LINE
8
lighting
10
-237966.0
20
-225070.0
30
0
11
-237954.0
21
-225070.0
31
0
0
LINE
8
lighting
10
-237966.0
20
-224530.0
30
0
11
-237954.0
21
-224530.0
31
0
0
LINE
8
lighting
10
-238191.0
20
-224800.0
30
0
11
-238204.5
21
-224792.21
31
0
0
LINE
8
lighting
10
-238204.5
20
-224792.21
30
0
11
-238204.5
21
-224807.79
31
0
0
LINE
8
lighting
10
-238204.5
20
-224807.79
30
0
11
-238191.0
21
-224800.0
31
0
0
LINE
8
lighting
10
-268220.0
20
-225120.0
30
0
11
-268220.0
21
-224480.0
31
0
0
LINE
8
lighting
10
-267580.0
20
-225120.0
30
0
11
-267580.0
21
-224480.0
31
0
0
LINE
8
lighting
10
-268220.0
20
-225120.0
30
0
11
-267580.0
21
-225120.0
31
0
0
LINE
8
lighting
10
-268220.0
20
-224480.0
30
0
11
-267580.0
21
-224480.0
31
0
0
LINE
8
lighting
10
-268180.0
20
-225080.0
30
0
11
-268180.0
21
-224520.0
31
0
0
LINE
8
lighting
10
-267620.0
20
-225080.0
30
0
11
-267620.0
21
-224520.0
31
0
0
LINE
8
lighting
10
-268180.0
20
-225080.0
30
0
11
-267620.0
21
-225080.0
31
0
0
LINE
8
lighting
10
-268180.0
20
-224520.0
30
0
11
-267620.0
21
-224520.0
31
0
0
LINE
8
lighting
10
-268146.0
20
-225070.0
30
0
11
-268146.0
21
-224530.0
31
0
0
LINE
8
lighting
10
-268134.0
20
-225070.0
30
0
11
-268134.0
21
-224530.0
31
0
0
LINE
8
lighting
10
-268146.0
20
-225070.0
30
0
11
-268134.0
21
-225070.0
31
0
0
LINE
8
lighting
10
-268146.0
20
-224530.0
30
0
11
-268134.0
21
-224530.0
31
0
0
LINE
8
lighting
10
-268066.0
20
-225070.0
30
0
11
-268066.0
21
-224530.0
31
0
0
LINE
8
lighting
10
-268054.0
20
-225070.0
30
0
11
-268054.0
21
-224530.0
31
0
0
LINE
8
lighting
10
-268066.0
20
-225070.0
30
0
11
-268054.0
21
-225070.0
31
0
0
LINE
8
lighting
10
-268066.0
20
-224530.0
30
0
11
-268054.0
21
-224530.0
31
0
0
LINE
8
lighting
10
-267986.0
20
-225070.0
30
0
11
-267986.0
21
-224530.0
31
0
0
LINE
8
lighting
10
-267974.0
20
-225070.0
30
0
11
-267974.0
21
-224530.0
31
0
0
LINE
8
lighting
10
-267986.0
20
-225070.0
30
0
11
-267974.0
21
-225070.0
31
0
0
LINE
8
lighting
10
-267986.0
20
-224530.0
30
0
11
-267974.0
21
-224530.0
31
0
0
LINE
8
lighting
10
-267906.0
20
-225070.0
30
0
11
-267906.0
21
-224530.0
31
0
0
LINE
8
lighting
10
-267894.0
20
-225070.0
30
0
11
-267894.0
21
-224530.0
31
0
0
LINE
8
lighting
10
-267906.0
20
-225070.0
30
0
11
-267894.0
21
-225070.0
31
0
0
LINE
8
lighting
10
-267906.0
20
-224530.0
30
0
11
-267894.0
21
-224530.0
31
0
0
LINE
8
lighting
10
-267826.0
20
-225070.0
30
0
11
-267826.0
21
-224530.0
31
0
0
LINE
8
lighting
10
-267814.0
20
-225070.0
30
0
11
-267814.0
21
-224530.0
31
0
0
LINE
8
lighting
10
-267826.0
20
-225070.0
30
0
11
-267814.0
21
-225070.0
31
0
0
LINE
8
lighting
10
-267826.0
20
-224530.0
30
0
11
-267814.0
21
-224530.0
31
0
0
LINE
8
lighting
10
-267746.0
20
-225070.0
30
0
11
-267746.0
21
-224530.0
31
0
0
LINE
8
lighting
10
-267734.0
20
-225070.0
30
0
11
-267734.0
21
-224530.0
31
0
0
LINE
8
lighting
10
-267746.0
20
-225070.0
30
0
11
-267734.0
21
-225070.0
31
0
0
LINE
8
lighting
10
-267746.0
20
-224530.0
30
0
11
-267734.0
21
-224530.0
31
0
0
LINE
8
lighting
10
-267666.0
20
-225070.0
30
0
11
-267666.0
21
-224530.0
31
0
0
LINE
8
lighting
10
-267654.0
20
-225070.0
30
0
11
-267654.0
21
-224530.0
31
0
0
LINE
8
lighting
10
-267666.0
20
-225070.0
30
0
11
-267654.0
21
-225070.0
31
0
0
LINE
8
lighting
10
-267666.0
20
-224530.0
30
0
11
-267654.0
21
-224530.0
31
0
0
LINE
8
lighting
10
-267891.0
20
-224800.0
30
0
11
-267904.5
21
-224792.21
31
0
0
LINE
8
lighting
10
-267904.5
20
-224792.21
30
0
11
-267904.5
21
-224807.79
31
0
0
LINE
8
lighting
10
-267904.5
20
-224807.79
30
0
11
-267891.0
21
-224800.0
31
0
0
LINE
8
lighting
10
-248420.0
20
-225120.0
30
0
11
-248420.0
21
-224480.0
31
0
0
LINE
8
lighting
10
-247780.0
20
-225120.0
30
0
11
-247780.0
21
-224480.0
31
0
0
LINE
8
lighting
10
-248420.0
20
-225120.0
30
0
11
-247780.0
21
-225120.0
31
0
0
LINE
8
lighting
10
-248420.0
20
-224480.0
30
0
11
-247780.0
21
-224480.0
31
0
0
LINE
8
lighting
10
-248380.0
20
-225080.0
30
0
11
-248380.0
21
-224520.0
31
0
0
LINE
8
lighting
10
-247820.0
20
-225080.0
30
0
11
-247820.0
21
-224520.0
31
0
0
LINE
8
lighting
10
-248380.0
20
-225080.0
30
0
11
-247820.0
21
-225080.0
31
0
0
LINE
8
lighting
10
-248380.0
20
-224520.0
30
0
11
-247820.0
21
-224520.0
31
0
0
LINE
8
lighting
10
-248346.0
20
-225070.0
30
0
11
-248346.0
21
-224530.0
31
0
0
LINE
8
lighting
10
-248334.0
20
-225070.0
30
0
11
-248334.0
21
-224530.0
31
0
0
LINE
8
lighting
10
-248346.0
20
-225070.0
30
0
11
-248334.0
21
-225070.0
31
0
0
LINE
8
lighting
10
-248346.0
20
-224530.0
30
0
11
-248334.0
21
-224530.0
31
0
0
LINE
8
lighting
10
-248266.0
20
-225070.0
30
0
11
-248266.0
21
-224530.0
31
0
0
LINE
8
lighting
10
-248254.0
20
-225070.0
30
0
11
-248254.0
21
-224530.0
31
0
0
LINE
8
lighting
10
-248266.0
20
-225070.0
30
0
11
-248254.0
21
-225070.0
31
0
0
LINE
8
lighting
10
-248266.0
20
-224530.0
30
0
11
-248254.0
21
-224530.0
31
0
0
LINE
8
lighting
10
-248186.0
20
-225070.0
30
0
11
-248186.0
21
-224530.0
31
0
0
LINE
8
lighting
10
-248174.0
20
-225070.0
30
0
11
-248174.0
21
-224530.0
31
0
0
LINE
8
lighting
10
-248186.0
20
-225070.0
30
0
11
-248174.0
21
-225070.0
31
0
0
LINE
8
lighting
10
-248186.0
20
-224530.0
30
0
11
-248174.0
21
-224530.0
31
0
0
LINE
8
lighting
10
-248106.0
20
-225070.0
30
0
11
-248106.0
21
-224530.0
31
0
0
LINE
8
lighting
10
-248094.0
20
-225070.0
30
0
11
-248094.0
21
-224530.0
31
0
0
LINE
8
lighting
10
-248106.0
20
-225070.0
30
0
11
-248094.0
21
-225070.0
31
0
0
LINE
8
lighting
10
-248106.0
20
-224530.0
30
0
11
-248094.0
21
-224530.0
31
0
0
LINE
8
lighting
10
-248026.0
20
-225070.0
30
0
11
-248026.0
21
-224530.0
31
0
0
LINE
8
lighting
10
-248014.0
20
-225070.0
30
0
11
-248014.0
21
-224530.0
31
0
0
LINE
8
lighting
10
-248026.0
20
-225070.0
30
0
11
-248014.0
21
-225070.0
31
0
0
LINE
8
lighting
10
-248026.0
20
-224530.0
30
0
11
-248014.0
21
-224530.0
31
0
0
LINE
8
lighting
10
-247946.0
20
-225070.0
30
0
11
-247946.0
21
-224530.0
31
0
0
LINE
8
lighting
10
-247934.0
20
-225070.0
30
0
11
-247934.0
21
-224530.0
31
0
0
LINE
8
lighting
10
-247946.0
20
-225070.0
30
0
11
-247934.0
21
-225070.0
31
0
0
LINE
8
lighting
10
-247946.0
20
-224530.0
30
0
11
-247934.0
21
-224530.0
31
0
0
LINE
8
lighting
10
-247866.0
20
-225070.0
30
0
11
-247866.0
21
-224530.0
31
0
0
LINE
8
lighting
10
-247854.0
20
-225070.0
30
0
11
-247854.0
21
-224530.0
31
0
0
LINE
8
lighting
10
-247866.0
20
-225070.0
30
0
11
-247854.0
21
-225070.0
31
0
0
LINE
8
lighting
10
-247866.0
20
-224530.0
30
0
11
-247854.0
21
-224530.0
31
0
0
LINE
8
lighting
10
-248091.0
20
-224800.0
30
0
11
-248104.5
21
-224792.21
31
0
0
LINE
8
lighting
10
-248104.5
20
-224792.21
30
0
11
-248104.5
21
-224807.79
31
0
0
LINE
8
lighting
10
-248104.5
20
-224807.79
30
0
11
-248091.0
21
-224800.0
31
0
0
LINE
8
lighting
10
-278120.0
20
-211520.0
30
0
11
-278120.0
21
-210880.0
31
0
0
LINE
8
lighting
10
-277480.0
20
-211520.0
30
0
11
-277480.0
21
-210880.0
31
0
0
LINE
8
lighting
10
-278120.0
20
-211520.0
30
0
11
-277480.0
21
-211520.0
31
0
0
LINE
8
lighting
10
-278120.0
20
-210880.0
30
0
11
-277480.0
21
-210880.0
31
0
0
LINE
8
lighting
10
-278080.0
20
-211480.0
30
0
11
-278080.0
21
-210920.0
31
0
0
LINE
8
lighting
10
-277520.0
20
-211480.0
30
0
11
-277520.0
21
-210920.0
31
0
0
LINE
8
lighting
10
-278080.0
20
-211480.0
30
0
11
-277520.0
21
-211480.0
31
0
0
LINE
8
lighting
10
-278080.0
20
-210920.0
30
0
11
-277520.0
21
-210920.0
31
0
0
LINE
8
lighting
10
-278046.0
20
-211470.0
30
0
11
-278046.0
21
-210930.0
31
0
0
LINE
8
lighting
10
-278034.0
20
-211470.0
30
0
11
-278034.0
21
-210930.0
31
0
0
LINE
8
lighting
10
-278046.0
20
-211470.0
30
0
11
-278034.0
21
-211470.0
31
0
0
LINE
8
lighting
10
-278046.0
20
-210930.0
30
0
11
-278034.0
21
-210930.0
31
0
0
LINE
8
lighting
10
-277966.0
20
-211470.0
30
0
11
-277966.0
21
-210930.0
31
0
0
LINE
8
lighting
10
-277954.0
20
-211470.0
30
0
11
-277954.0
21
-210930.0
31
0
0
LINE
8
lighting
10
-277966.0
20
-211470.0
30
0
11
-277954.0
21
-211470.0
31
0
0
LINE
8
lighting
10
-277966.0
20
-210930.0
30
0
11
-277954.0
21
-210930.0
31
0
0
LINE
8
lighting
10
-277886.0
20
-211470.0
30
0
11
-277886.0
21
-210930.0
31
0
0
LINE
8
lighting
10
-277874.0
20
-211470.0
30
0
11
-277874.0
21
-210930.0
31
0
0
LINE
8
lighting
10
-277886.0
20
-211470.0
30
0
11
-277874.0
21
-211470.0
31
0
0
LINE
8
lighting
10
-277886.0
20
-210930.0
30
0
11
-277874.0
21
-210930.0
31
0
0
LINE
8
lighting
10
-277806.0
20
-211470.0
30
0
11
-277806.0
21
-210930.0
31
0
0
LINE
8
lighting
10
-277794.0
20
-211470.0
30
0
11
-277794.0
21
-210930.0
31
0
0
LINE
8
lighting
10
-277806.0
20
-211470.0
30
0
11
-277794.0
21
-211470.0
31
0
0
LINE
8
lighting
10
-277806.0
20
-210930.0
30
0
11
-277794.0
21
-210930.0
31
0
0
LINE
8
lighting
10
-277726.0
20
-211470.0
30
0
11
-277726.0
21
-210930.0
31
0
0
LINE
8
lighting
10
-277714.0
20
-211470.0
30
0
11
-277714.0
21
-210930.0
31
0
0
LINE
8
lighting
10
-277726.0
20
-211470.0
30
0
11
-277714.0
21
-211470.0
31
0
0
LINE
8
lighting
10
-277726.0
20
-210930.0
30
0
11
-277714.0
21
-210930.0
31
0
0
LINE
8
lighting
10
-277646.0
20
-211470.0
30
0
11
-277646.0
21
-210930.0
31
0
0
LINE
8
lighting
10
-277634.0
20
-211470.0
30
0
11
-277634.0
21
-210930.0
31
0
0
LINE
8
lighting
10
-277646.0
20
-211470.0
30
0
11
-277634.0
21
-211470.0
31
0
0
LINE
8
lighting
10
-277646.0
20
-210930.0
30
0
11
-277634.0
21
-210930.0
31
0
0
LINE
8
lighting
10
-277566.0
20
-211470.0
30
0
11
-277566.0
21
-210930.0
31
0
0
LINE
8
lighting
10
-277554.0
20
-211470.0
30
0
11
-277554.0
21
-210930.0
31
0
0
LINE
8
lighting
10
-277566.0
20
-211470.0
30
0
11
-277554.0
21
-211470.0
31
0
0
LINE
8
lighting
10
-277566.0
20
-210930.0
30
0
11
-277554.0
21
-210930.0
31
0
0
LINE
8
lighting
10
-277791.0
20
-211200.0
30
0
11
-277804.5
21
-211192.21
31
0
0
LINE
8
lighting
10
-277804.5
20
-211192.21
30
0
11
-277804.5
21
-211207.79
31
0
0
LINE
8
lighting
10
-277804.5
20
-211207.79
30
0
11
-277791.0
21
-211200.0
31
0
0
LINE
8
lighting
10
-258320.0
20
-211520.0
30
0
11
-258320.0
21
-210880.0
31
0
0
LINE
8
lighting
10
-257680.0
20
-211520.0
30
0
11
-257680.0
21
-210880.0
31
0
0
LINE
8
lighting
10
-258320.0
20
-211520.0
30
0
11
-257680.0
21
-211520.0
31
0
0
LINE
8
lighting
10
-258320.0
20
-210880.0
30
0
11
-257680.0
21
-210880.0
31
0
0
LINE
8
lighting
10
-258280.0
20
-211480.0
30
0
11
-258280.0
21
-210920.0
31
0
0
LINE
8
lighting
10
-257720.0
20
-211480.0
30
0
11
-257720.0
21
-210920.0
31
0
0
LINE
8
lighting
10
-258280.0
20
-211480.0
30
0
11
-257720.0
21
-211480.0
31
0
0
LINE
8
lighting
10
-258280.0
20
-210920.0
30
0
11
-257720.0
21
-210920.0
31
0
0
LINE
8
lighting
10
-258246.0
20
-211470.0
30
0
11
-258246.0
21
-210930.0
31
0
0
LINE
8
lighting
10
-258234.0
20
-211470.0
30
0
11
-258234.0
21
-210930.0
31
0
0
LINE
8
lighting
10
-258246.0
20
-211470.0
30
0
11
-258234.0
21
-211470.0
31
0
0
LINE
8
lighting
10
-258246.0
20
-210930.0
30
0
11
-258234.0
21
-210930.0
31
0
0
LINE
8
lighting
10
-258166.0
20
-211470.0
30
0
11
-258166.0
21
-210930.0
31
0
0
LINE
8
lighting
10
-258154.0
20
-211470.0
30
0
11
-258154.0
21
-210930.0
31
0
0
LINE
8
lighting
10
-258166.0
20
-211470.0
30
0
11
-258154.0
21
-211470.0
31
0
0
LINE
8
lighting
10
-258166.0
20
-210930.0
30
0
11
-258154.0
21
-210930.0
31
0
0
LINE
8
lighting
10
-258086.0
20
-211470.0
30
0
11
-258086.0
21
-210930.0
31
0
0
LINE
8
lighting
10
-258074.0
20
-211470.0
30
0
11
-258074.0
21
-210930.0
31
0
0
LINE
8
lighting
10
-258086.0
20
-211470.0
30
0
11
-258074.0
21
-211470.0
31
0
0
LINE
8
lighting
10
-258086.0
20
-210930.0
30
0
11
-258074.0
21
-210930.0
31
0
0
LINE
8
lighting
10
-258006.0
20
-211470.0
30
0
11
-258006.0
21
-210930.0
31
0
0
LINE
8
lighting
10
-257994.0
20
-211470.0
30
0
11
-257994.0
21
-210930.0
31
0
0
LINE
8
lighting
10
-258006.0
20
-211470.0
30
0
11
-257994.0
21
-211470.0
31
0
0
LINE
8
lighting
10
-258006.0
20
-210930.0
30
0
11
-257994.0
21
-210930.0
31
0
0
LINE
8
lighting
10
-257926.0
20
-211470.0
30
0
11
-257926.0
21
-210930.0
31
0
0
LINE
8
lighting
10
-257914.0
20
-211470.0
30
0
11
-257914.0
21
-210930.0
31
0
0
LINE
8
lighting
10
-257926.0
20
-211470.0
30
0
11
-257914.0
21
-211470.0
31
0
0
LINE
8
lighting
10
-257926.0
20
-210930.0
30
0
11
-257914.0
21
-210930.0
31
0
0
LINE
8
lighting
10
-257846.0
20
-211470.0
30
0
11
-257846.0
21
-210930.0
31
0
0
LINE
8
lighting
10
-257834.0
20
-211470.0
30
0
11
-257834.0
21
-210930.0
31
0
0
LINE
8
lighting
10
-257846.0
20
-211470.0
30
0
11
-257834.0
21
-211470.0
31
0
0
LINE
8
lighting
10
-257846.0
20
-210930.0
30
0
11
-257834.0
21
-210930.0
31
0
0
LINE
8
lighting
10
-257766.0
20
-211470.0
30
0
11
-257766.0
21
-210930.0
31
0
0
LINE
8
lighting
10
-257754.0
20
-211470.0
30
0
11
-257754.0
21
-210930.0
31
0
0
LINE
8
lighting
10
-257766.0
20
-211470.0
30
0
11
-257754.0
21
-211470.0
31
0
0
LINE
8
lighting
10
-257766.0
20
-210930.0
30
0
11
-257754.0
21
-210930.0
31
0
0
LINE
8
lighting
10
-257991.0
20
-211200.0
30
0
11
-258004.5
21
-211192.21
31
0
0
LINE
8
lighting
10
-258004.5
20
-211192.21
30
0
11
-258004.5
21
-211207.79
31
0
0
LINE
8
lighting
10
-258004.5
20
-211207.79
30
0
11
-257991.0
21
-211200.0
31
0
0
LINE
8
lighting
10
-238520.0
20
-211520.0
30
0
11
-238520.0
21
-210880.0
31
0
0
LINE
8
lighting
10
-237880.0
20
-211520.0
30
0
11
-237880.0
21
-210880.0
31
0
0
LINE
8
lighting
10
-238520.0
20
-211520.0
30
0
11
-237880.0
21
-211520.0
31
0
0
LINE
8
lighting
10
-238520.0
20
-210880.0
30
0
11
-237880.0
21
-210880.0
31
0
0
LINE
8
lighting
10
-238480.0
20
-211480.0
30
0
11
-238480.0
21
-210920.0
31
0
0
LINE
8
lighting
10
-237920.0
20
-211480.0
30
0
11
-237920.0
21
-210920.0
31
0
0
LINE
8
lighting
10
-238480.0
20
-211480.0
30
0
11
-237920.0
21
-211480.0
31
0
0
LINE
8
lighting
10
-238480.0
20
-210920.0
30
0
11
-237920.0
21
-210920.0
31
0
0
LINE
8
lighting
10
-238446.0
20
-211470.0
30
0
11
-238446.0
21
-210930.0
31
0
0
LINE
8
lighting
10
-238434.0
20
-211470.0
30
0
11
-238434.0
21
-210930.0
31
0
0
LINE
8
lighting
10
-238446.0
20
-211470.0
30
0
11
-238434.0
21
-211470.0
31
0
0
LINE
8
lighting
10
-238446.0
20
-210930.0
30
0
11
-238434.0
21
-210930.0
31
0
0
LINE
8
lighting
10
-238366.0
20
-211470.0
30
0
11
-238366.0
21
-210930.0
31
0
0
LINE
8
lighting
10
-238354.0
20
-211470.0
30
0
11
-238354.0
21
-210930.0
31
0
0
LINE
8
lighting
10
-238366.0
20
-211470.0
30
0
11
-238354.0
21
-211470.0
31
0
0
LINE
8
lighting
10
-238366.0
20
-210930.0
30
0
11
-238354.0
21
-210930.0
31
0
0
LINE
8
lighting
10
-238286.0
20
-211470.0
30
0
11
-238286.0
21
-210930.0
31
0
0
LINE
8
lighting
10
-238274.0
20
-211470.0
30
0
11
-238274.0
21
-210930.0
31
0
0
LINE
8
lighting
10
-238286.0
20
-211470.0
30
0
11
-238274.0
21
-211470.0
31
0
0
LINE
8
lighting
10
-238286.0
20
-210930.0
30
0
11
-238274.0
21
-210930.0
31
0
0
LINE
8
lighting
10
-238206.0
20
-211470.0
30
0
11
-238206.0
21
-210930.0
31
0
0
LINE
8
lighting
10
-238194.0
20
-211470.0
30
0
11
-238194.0
21
-210930.0
31
0
0
LINE
8
lighting
10
-238206.0
20
-211470.0
30
0
11
-238194.0
21
-211470.0
31
0
0
LINE
8
lighting
10
-238206.0
20
-210930.0
30
0
11
-238194.0
21
-210930.0
31
0
0
LINE
8
lighting
10
-238126.0
20
-211470.0
30
0
11
-238126.0
21
-210930.0
31
0
0
LINE
8
lighting
10
-238114.0
20
-211470.0
30
0
11
-238114.0
21
-210930.0
31
0
0
LINE
8
lighting
10
-238126.0
20
-211470.0
30
0
11
-238114.0
21
-211470.0
31
0
0
LINE
8
lighting
10
-238126.0
20
-210930.0
30
0
11
-238114.0
21
-210930.0
31
0
0
LINE
8
lighting
10
-238046.0
20
-211470.0
30
0
11
-238046.0
21
-210930.0
31
0
0
LINE
8
lighting
10
-238034.0
20
-211470.0
30
0
11
-238034.0
21
-210930.0
31
0
0
LINE
8
lighting
10
-238046.0
20
-211470.0
30
0
11
-238034.0
21
-211470.0
31
0
0
LINE
8
lighting
10
-238046.0
20
-210930.0
30
0
11
-238034.0
21
-210930.0
31
0
0
LINE
8
lighting
10
-237966.0
20
-211470.0
30
0
11
-237966.0
21
-210930.0
31
0
0
LINE
8
lighting
10
-237954.0
20
-211470.0
30
0
11
-237954.0
21
-210930.0
31
0
0
LINE
8
lighting
10
-237966.0
20
-211470.0
30
0
11
-237954.0
21
-211470.0
31
0
0
LINE
8
lighting
10
-237966.0
20
-210930.0
30
0
11
-237954.0
21
-210930.0
31
0
0
LINE
8
lighting
10
-238191.0
20
-211200.0
30
0
11
-238204.5
21
-211192.21
31
0
0
LINE
8
lighting
10
-238204.5
20
-211192.21
30
0
11
-238204.5
21
-211207.79
31
0
0
LINE
8
lighting
10
-238204.5
20
-211207.79
30
0
11
-238191.0
21
-211200.0
31
0
0
LINE
8
lighting
10
-268220.0
20
-211520.0
30
0
11
-268220.0
21
-210880.0
31
0
0
LINE
8
lighting
10
-267580.0
20
-211520.0
30
0
11
-267580.0
21
-210880.0
31
0
0
LINE
8
lighting
10
-268220.0
20
-211520.0
30
0
11
-267580.0
21
-211520.0
31
0
0
LINE
8
lighting
10
-268220.0
20
-210880.0
30
0
11
-267580.0
21
-210880.0
31
0
0
LINE
8
lighting
10
-268180.0
20
-211480.0
30
0
11
-268180.0
21
-210920.0
31
0
0
LINE
8
lighting
10
-267620.0
20
-211480.0
30
0
11
-267620.0
21
-210920.0
31
0
0
LINE
8
lighting
10
-268180.0
20
-211480.0
30
0
11
-267620.0
21
-211480.0
31
0
0
LINE
8
lighting
10
-268180.0
20
-210920.0
30
0
11
-267620.0
21
-210920.0
31
0
0
LINE
8
lighting
10
-268146.0
20
-211470.0
30
0
11
-268146.0
21
-210930.0
31
0
0
LINE
8
lighting
10
-268134.0
20
-211470.0
30
0
11
-268134.0
21
-210930.0
31
0
0
LINE
8
lighting
10
-268146.0
20
-211470.0
30
0
11
-268134.0
21
-211470.0
31
0
0
LINE
8
lighting
10
-268146.0
20
-210930.0
30
0
11
-268134.0
21
-210930.0
31
0
0
LINE
8
lighting
10
-268066.0
20
-211470.0
30
0
11
-268066.0
21
-210930.0
31
0
0
LINE
8
lighting
10
-268054.0
20
-211470.0
30
0
11
-268054.0
21
-210930.0
31
0
0
LINE
8
lighting
10
-268066.0
20
-211470.0
30
0
11
-268054.0
21
-211470.0
31
0
0
LINE
8
lighting
10
-268066.0
20
-210930.0
30
0
11
-268054.0
21
-210930.0
31
0
0
LINE
8
lighting
10
-267986.0
20
-211470.0
30
0
11
-267986.0
21
-210930.0
31
0
0
LINE
8
lighting
10
-267974.0
20
-211470.0
30
0
11
-267974.0
21
-210930.0
31
0
0
LINE
8
lighting
10
-267986.0
20
-211470.0
30
0
11
-267974.0
21
-211470.0
31
0
0
LINE
8
lighting
10
-267986.0
20
-210930.0
30
0
11
-267974.0
21
-210930.0
31
0
0
LINE
8
lighting
10
-267906.0
20
-211470.0
30
0
11
-267906.0
21
-210930.0
31
0
0
LINE
8
lighting
10
-267894.0
20
-211470.0
30
0
11
-267894.0
21
-210930.0
31
0
0
LINE
8
lighting
10
-267906.0
20
-211470.0
30
0
11
-267894.0
21
-211470.0
31
0
0
LINE
8
lighting
10
-267906.0
20
-210930.0
30
0
11
-267894.0
21
-210930.0
31
0
0
LINE
8
lighting
10
-267826.0
20
-211470.0
30
0
11
-267826.0
21
-210930.0
31
0
0
LINE
8
lighting
10
-267814.0
20
-211470.0
30
0
11
-267814.0
21
-210930.0
31
0
0
LINE
8
lighting
10
-267826.0
20
-211470.0
30
0
11
-267814.0
21
-211470.0
31
0
0
LINE
8
lighting
10
-267826.0
20
-210930.0
30
0
11
-267814.0
21
-210930.0
31
0
0
LINE
8
lighting
10
-267746.0
20
-211470.0
30
0
11
-267746.0
21
-210930.0
31
0
0
LINE
8
lighting
10
-267734.0
20
-211470.0
30
0
11
-267734.0
21
-210930.0
31
0
0
LINE
8
lighting
10
-267746.0
20
-211470.0
30
0
11
-267734.0
21
-211470.0
31
0
0
LINE
8
lighting
10
-267746.0
20
-210930.0
30
0
11
-267734.0
21
-210930.0
31
0
0
LINE
8
lighting
10
-267666.0
20
-211470.0
30
0
11
-267666.0
21
-210930.0
31
0
0
LINE
8
lighting
10
-267654.0
20
-211470.0
30
0
11
-267654.0
21
-210930.0
31
0
0
LINE
8
lighting
10
-267666.0
20
-211470.0
30
0
11
-267654.0
21
-211470.0
31
0
0
LINE
8
lighting
10
-267666.0
20
-210930.0
30
0
11
-267654.0
21
-210930.0
31
0
0
LINE
8
lighting
10
-267891.0
20
-211200.0
30
0
11
-267904.5
21
-211192.21
31
0
0
LINE
8
lighting
10
-267904.5
20
-211192.21
30
0
11
-267904.5
21
-211207.79
31
0
0
LINE
8
lighting
10
-267904.5
20
-211207.79
30
0
11
-267891.0
21
-211200.0
31
0
0
LINE
8
lighting
10
-248420.0
20
-211520.0
30
0
11
-248420.0
21
-210880.0
31
0
0
LINE
8
lighting
10
-247780.0
20
-211520.0
30
0
11
-247780.0
21
-210880.0
31
0
0
LINE
8
lighting
10
-248420.0
20
-211520.0
30
0
11
-247780.0
21
-211520.0
31
0
0
LINE
8
lighting
10
-248420.0
20
-210880.0
30
0
11
-247780.0
21
-210880.0
31
0
0
LINE
8
lighting
10
-248380.0
20
-211480.0
30
0
11
-248380.0
21
-210920.0
31
0
0
LINE
8
lighting
10
-247820.0
20
-211480.0
30
0
11
-247820.0
21
-210920.0
31
0
0
LINE
8
lighting
10
-248380.0
20
-211480.0
30
0
11
-247820.0
21
-211480.0
31
0
0
LINE
8
lighting
10
-248380.0
20
-210920.0
30
0
11
-247820.0
21
-210920.0
31
0
0
LINE
8
lighting
10
-248346.0
20
-211470.0
30
0
11
-248346.0
21
-210930.0
31
0
0
LINE
8
lighting
10
-248334.0
20
-211470.0
30
0
11
-248334.0
21
-210930.0
31
0
0
LINE
8
lighting
10
-248346.0
20
-211470.0
30
0
11
-248334.0
21
-211470.0
31
0
0
LINE
8
lighting
10
-248346.0
20
-210930.0
30
0
11
-248334.0
21
-210930.0
31
0
0
LINE
8
lighting
10
-248266.0
20
-211470.0
30
0
11
-248266.0
21
-210930.0
31
0
0
LINE
8
lighting
10
-248254.0
20
-211470.0
30
0
11
-248254.0
21
-210930.0
31
0
0
LINE
8
lighting
10
-248266.0
20
-211470.0
30
0
11
-248254.0
21
-211470.0
31
0
0
LINE
8
lighting
10
-248266.0
20
-210930.0
30
0
11
-248254.0
21
-210930.0
31
0
0
LINE
8
lighting
10
-248186.0
20
-211470.0
30
0
11
-248186.0
21
-210930.0
31
0
0
LINE
8
lighting
10
-248174.0
20
-211470.0
30
0
11
-248174.0
21
-210930.0
31
0
0
LINE
8
lighting
10
-248186.0
20
-211470.0
30
0
11
-248174.0
21
-211470.0
31
0
0
LINE
8
lighting
10
-248186.0
20
-210930.0
30
0
11
-248174.0
21
-210930.0
31
0
0
LINE
8
lighting
10
-248106.0
20
-211470.0
30
0
11
-248106.0
21
-210930.0
31
0
0
LINE
8
lighting
10
-248094.0
20
-211470.0
30
0
11
-248094.0
21
-210930.0
31
0
0
LINE
8
lighting
10
-248106.0
20
-211470.0
30
0
11
-248094.0
21
-211470.0
31
0
0
LINE
8
lighting
10
-248106.0
20
-210930.0
30
0
11
-248094.0
21
-210930.0
31
0
0
LINE
8
lighting
10
-248026.0
20
-211470.0
30
0
11
-248026.0
21
-210930.0
31
0
0
LINE
8
lighting
10
-248014.0
20
-211470.0
30
0
11
-248014.0
21
-210930.0
31
0
0
LINE
8
lighting
10
-248026.0
20
-211470.0
30
0
11
-248014.0
21
-211470.0
31
0
0
LINE
8
lighting
10
-248026.0
20
-210930.0
30
0
11
-248014.0
21
-210930.0
31
0
0
LINE
8
lighting
10
-247946.0
20
-211470.0
30
0
11
-247946.0
21
-210930.0
31
0
0
LINE
8
lighting
10
-247934.0
20
-211470.0
30
0
11
-247934.0
21
-210930.0
31
0
0
LINE
8
lighting
10
-247946.0
20
-211470.0
30
0
11
-247934.0
21
-211470.0
31
0
0
LINE
8
lighting
10
-247946.0
20
-210930.0
30
0
11
-247934.0
21
-210930.0
31
0
0
LINE
8
lighting
10
-247866.0
20
-211470.0
30
0
11
-247866.0
21
-210930.0
31
0
0
LINE
8
lighting
10
-247854.0
20
-211470.0
30
0
11
-247854.0
21
-210930.0
31
0
0
LINE
8
lighting
10
-247866.0
20
-211470.0
30
0
11
-247854.0
21
-211470.0
31
0
0
LINE
8
lighting
10
-247866.0
20
-210930.0
30
0
11
-247854.0
21
-210930.0
31
0
0
LINE
8
lighting
10
-248091.0
20
-211200.0
30
0
11
-248104.5
21
-211192.21
31
0
0
LINE
8
lighting
10
-248104.5
20
-211192.21
30
0
11
-248104.5
21
-211207.79
31
0
0
LINE
8
lighting
10
-248104.5
20
-211207.79
30
0
11
-248091.0
21
-211200.0
31
0
0
LINE
8
electrical
10
-277800.0
20
-225120.0
30
0
11
-277800.0
21
-225127.79
31
0
0
LINE
8
electrical
10
-277800.0
20
-225127.79
30
0
11
-277800.0
21
-225112.21
31
0
0
LINE
8
electrical
10
-277800.0
20
-225112.21
30
0
11
-277800.0
21
-225120.0
31
0
0
LINE
8
electrical
10
-230950.0
20
-225120.0
30
0
11
-277800.0
21
-225120.0
31
0
0
LINE
8
electrical
10
-230950.0
20
-225120.0
30
0
11
-230950.0
21
-225127.79
31
0
0
LINE
8
electrical
10
-230950.0
20
-225127.79
30
0
11
-230950.0
21
-225112.21
31
0
0
LINE
8
electrical
10
-230950.0
20
-225112.21
30
0
11
-230950.0
21
-225120.0
31
0
0
LINE
8
electrical
10
-277800.0
20
-211200.0
30
0
11
-277792.21
21
-211200.0
31
0
0
LINE
8
electrical
10
-277792.21
20
-211200.0
30
0
11
-277807.79
21
-211200.0
31
0
0
LINE
8
electrical
10
-277807.79
20
-211200.0
30
0
11
-277800.0
21
-211200.0
31
0
0
LINE
8
electrical
10
-277800.0
20
-225120.0
30
0
11
-277800.0
21
-211200.0
31
0
0
LINE
8
electrical
10
-277800.0
20
-225120.0
30
0
11
-277792.21
21
-225120.0
31
0
0
LINE
8
electrical
10
-277792.21
20
-225120.0
30
0
11
-277807.79
21
-225120.0
31
0
0
LINE
8
electrical
10
-277807.79
20
-225120.0
30
0
11
-277800.0
21
-225120.0
31
0
0
LINE
8
electrical
10
-258000.0
20
-211200.0
30
0
11
-257992.21
21
-211200.0
31
0
0
LINE
8
electrical
10
-257992.21
20
-211200.0
30
0
11
-258007.79
21
-211200.0
31
0
0
LINE
8
electrical
10
-258007.79
20
-211200.0
30
0
11
-258000.0
21
-211200.0
31
0
0
LINE
8
electrical
10
-258000.0
20
-225120.0
30
0
11
-258000.0
21
-211200.0
31
0
0
LINE
8
electrical
10
-258000.0
20
-225120.0
30
0
11
-257992.21
21
-225120.0
31
0
0
LINE
8
electrical
10
-257992.21
20
-225120.0
30
0
11
-258007.79
21
-225120.0
31
0
0
LINE
8
electrical
10
-258007.79
20
-225120.0
30
0
11
-258000.0
21
-225120.0
31
0
0
LINE
8
electrical
10
-238200.0
20
-211200.0
30
0
11
-238192.21
21
-211200.0
31
0
0
LINE
8
electrical
10
-238192.21
20
-211200.0
30
0
11
-238207.79
21
-211200.0
31
0
0
LINE
8
electrical
10
-238207.79
20
-211200.0
30
0
11
-238200.0
21
-211200.0
31
0
0
LINE
8
electrical
10
-238200.0
20
-225120.0
30
0
11
-238200.0
21
-211200.0
31
0
0
LINE
8
electrical
10
-238200.0
20
-225120.0
30
0
11
-238192.21
21
-225120.0
31
0
0
LINE
8
electrical
10
-238192.21
20
-225120.0
30
0
11
-238207.79
21
-225120.0
31
0
0
LINE
8
electrical
10
-238207.79
20
-225120.0
30
0
11
-238200.0
21
-225120.0
31
0
0
LINE
8
electrical
10
-267900.0
20
-211200.0
30
0
11
-267892.21
21
-211200.0
31
0
0
LINE
8
electrical
10
-267892.21
20
-211200.0
30
0
11
-267907.79
21
-211200.0
31
0
0
LINE
8
electrical
10
-267907.79
20
-211200.0
30
0
11
-267900.0
21
-211200.0
31
0
0
LINE
8
electrical
10
-267900.0
20
-225120.0
30
0
11
-267900.0
21
-211200.0
31
0
0
LINE
8
electrical
10
-267900.0
20
-225120.0
30
0
11
-267892.21
21
-225120.0
31
0
0
LINE
8
electrical
10
-267892.21
20
-225120.0
30
0
11
-267907.79
21
-225120.0
31
0
0
LINE
8
electrical
10
-267907.79
20
-225120.0
30
0
11
-267900.0
21
-225120.0
31
0
0
LINE
8
electrical
10
-248100.0
20
-211200.0
30
0
11
-248092.21
21
-211200.0
31
0
0
LINE
8
electrical
10
-248092.21
20
-211200.0
30
0
11
-248107.79
21
-211200.0
31
0
0
LINE
8
electrical
10
-248107.79
20
-211200.0
30
0
11
-248100.0
21
-211200.0
31
0
0
LINE
8
electrical
10
-248100.0
20
-225120.0
30
0
11
-248100.0
21
-211200.0
31
0
0
LINE
8
electrical
10
-248100.0
20
-225120.0
30
0
11
-248092.21
21
-225120.0
31
0
0
LINE
8
electrical
10
-248092.21
20
-225120.0
30
0
11
-248107.79
21
-225120.0
31
0
0
LINE
8
electrical
10
-248107.79
20
-225120.0
30
0
11
-248100.0
21
-225120.0
31
0
0
LINE
8
electrical
10
-230937.0
20
-227800.0
30
0
11
-230956.5
21
-227788.74
31
0
0
LINE
8
electrical
10
-230956.5
20
-227788.74
30
0
11
-230956.5
21
-227811.26
31
0
0
LINE
8
electrical
10
-230956.5
20
-227811.26
30
0
11
-230937.0
21
-227800.0
31
0
0
LINE
8
electrical
10
-238754.22
20
-225132.29
30
0
11
-238747.89
21
-225113.85
31
0
0
LINE
8
electrical
10
-238747.89
20
-225113.85
30
0
11
-238747.89
21
-225113.85
31
0
0
LINE
8
electrical
10
-238747.89
20
-225113.85
30
0
11
-238754.22
21
-225132.29
31
0
0
LINE
8
electrical
10
-230954.22
20
-227812.29
30
0
11
-238754.22
21
-225132.29
31
0
0
LINE
8
electrical
10
-230954.22
20
-227812.29
30
0
11
-230947.89
21
-227793.85
31
0
0
LINE
8
electrical
10
-230947.89
20
-227793.85
30
0
11
-230947.89
21
-227793.85
31
0
0
LINE
8
electrical
10
-230947.89
20
-227793.85
30
0
11
-230954.22
21
-227812.29
31
0
0
LINE
8
electrical
10
-277250.0
20
-225120.0
30
0
11
-277250.0
21
-225131.26
31
0
0
LINE
8
electrical
10
-277250.0
20
-225131.26
30
0
11
-277250.0
21
-225108.74
31
0
0
LINE
8
electrical
10
-277250.0
20
-225108.74
30
0
11
-277250.0
21
-225120.0
31
0
0
LINE
8
electrical
10
-238750.0
20
-225120.0
30
0
11
-277250.0
21
-225120.0
31
0
0
LINE
8
electrical
10
-238750.0
20
-225120.0
30
0
11
-238750.0
21
-225131.26
31
0
0
LINE
8
electrical
10
-238750.0
20
-225131.26
30
0
11
-238750.0
21
-225108.74
31
0
0
LINE
8
electrical
10
-238750.0
20
-225108.74
30
0
11
-238750.0
21
-225120.0
31
0
0
LINE
8
electrical
10
-230950.0
20
-227800.0
30
0
11
-230935.96
21
-227800.0
31
0
0
LINE
8
electrical
10
-230935.96
20
-227800.0
30
0
11
-230950.0
21
-227800.0
31
0
0
LINE
8
electrical
10
-238750.0
20
-225120.0
30
0
11
-238735.96
21
-225120.0
31
0
0
LINE
8
electrical
10
-238735.96
20
-225120.0
30
0
11
-238750.0
21
-225120.0
31
0
0
LINE
8
electrical
10
-230937.0
20
-227800.0
30
0
11
-230956.5
21
-227788.74
31
0
0
LINE
8
electrical
10
-230956.5
20
-227788.74
30
0
11
-230956.5
21
-227811.26
31
0
0
LINE
8
electrical
10
-230956.5
20
-227811.26
30
0
11
-230937.0
21
-227800.0
31
0
0
LINE
8
electrical
10
-238754.39
20
-225012.24
30
0
11
-238747.8
21
-224993.88
31
0
0
LINE
8
electrical
10
-238747.8
20
-224993.88
30
0
11
-238747.8
21
-224993.88
31
0
0
LINE
8
electrical
10
-238747.8
20
-224993.88
30
0
11
-238754.39
21
-225012.24
31
0
0
LINE
8
electrical
10
-230954.39
20
-227812.24
30
0
11
-238754.39
21
-225012.24
31
0
0
LINE
8
electrical
10
-230954.39
20
-227812.24
30
0
11
-230947.8
21
-227793.88
31
0
0
LINE
8
electrical
10
-230947.8
20
-227793.88
30
0
11
-230947.8
21
-227793.88
31
0
0
LINE
8
electrical
10
-230947.8
20
-227793.88
30
0
11
-230954.39
21
-227812.24
31
0
0
LINE
8
electrical
10
-277250.0
20
-225000.0
30
0
11
-277250.0
21
-225011.26
31
0
0
LINE
8
electrical
10
-277250.0
20
-225011.26
30
0
11
-277250.0
21
-224988.74
31
0
0
LINE
8
electrical
10
-277250.0
20
-224988.74
30
0
11
-277250.0
21
-225000.0
31
0
0
LINE
8
electrical
10
-238750.0
20
-225000.0
30
0
11
-277250.0
21
-225000.0
31
0
0
LINE
8
electrical
10
-238750.0
20
-225000.0
30
0
11
-238750.0
21
-225011.26
31
0
0
LINE
8
electrical
10
-238750.0
20
-225011.26
30
0
11
-238750.0
21
-224988.74
31
0
0
LINE
8
electrical
10
-238750.0
20
-224988.74
30
0
11
-238750.0
21
-225000.0
31
0
0
LINE
8
electrical
10
-230950.0
20
-227800.0
30
0
11
-230935.96
21
-227800.0
31
0
0
LINE
8
electrical
10
-230935.96
20
-227800.0
30
0
11
-230950.0
21
-227800.0
31
0
0
LINE
8
electrical
10
-238750.0
20
-225000.0
30
0
11
-238735.96
21
-225000.0
31
0
0
LINE
8
electrical
10
-238735.96
20
-225000.0
30
0
11
-238750.0
21
-225000.0
31
0
0
LINE
8
electrical
10
-230937.0
20
-227800.0
30
0
11
-230956.5
21
-227788.74
31
0
0
LINE
8
electrical
10
-230956.5
20
-227788.74
30
0
11
-230956.5
21
-227811.26
31
0
0
LINE
8
electrical
10
-230956.5
20
-227811.26
30
0
11
-230937.0
21
-227800.0
31
0
0
LINE
8
electrical
10
-238754.56
20
-224892.17
30
0
11
-238747.72
21
-224873.91
31
0
0
LINE
8
electrical
10
-238747.72
20
-224873.91
30
0
11
-238747.72
21
-224873.91
31
0
0
LINE
8
electrical
10
-238747.72
20
-224873.91
30
0
11
-238754.56
21
-224892.17
31
0
0
LINE
8
electrical
10
-230954.56
20
-227812.17
30
0
11
-238754.56
21
-224892.17
31
0
0
LINE
8
electrical
10
-230954.56
20
-227812.17
30
0
11
-230947.72
21
-227793.91
31
0
0
LINE
8
electrical
10
-230947.72
20
-227793.91
30
0
11
-230947.72
21
-227793.91
31
0
0
LINE
8
electrical
10
-230947.72
20
-227793.91
30
0
11
-230954.56
21
-227812.17
31
0
0
LINE
8
electrical
10
-277250.0
20
-224880.0
30
0
11
-277250.0
21
-224891.26
31
0
0
LINE
8
electrical
10
-277250.0
20
-224891.26
30
0
11
-277250.0
21
-224868.74
31
0
0
LINE
8
electrical
10
-277250.0
20
-224868.74
30
0
11
-277250.0
21
-224880.0
31
0
0
LINE
8
electrical
10
-238750.0
20
-224880.0
30
0
11
-277250.0
21
-224880.0
31
0
0
LINE
8
electrical
10
-238750.0
20
-224880.0
30
0
11
-238750.0
21
-224891.26
31
0
0
LINE
8
electrical
10
-238750.0
20
-224891.26
30
0
11
-238750.0
21
-224868.74
31
0
0
LINE
8
electrical
10
-238750.0
20
-224868.74
30
0
11
-238750.0
21
-224880.0
31
0
0
LINE
8
electrical
10
-230950.0
20
-227800.0
30
0
11
-230935.96
21
-227800.0
31
0
0
LINE
8
electrical
10
-230935.96
20
-227800.0
30
0
11
-230950.0
21
-227800.0
31
0
0
LINE
8
electrical
10
-238750.0
20
-224880.0
30
0
11
-238735.96
21
-224880.0
31
0
0
LINE
8
electrical
10
-238735.96
20
-224880.0
30
0
11
-238750.0
21
-224880.0
31
0
0
LINE
8
electrical
10
-274565.0
20
-227850.0
30
0
11
-274565.0
21
-227790.0
31
0
0
LINE
8
electrical
10
-274435.0
20
-227850.0
30
0
11
-274435.0
21
-227790.0
31
0
0
LINE
8
electrical
10
-274565.0
20
-227850.0
30
0
11
-274435.0
21
-227850.0
31
0
0
LINE
8
electrical
10
-274565.0
20
-227790.0
30
0
11
-274435.0
21
-227790.0
31
0
0
LINE
8
electrical
10
-274491.0
20
-227820.0
30
0
11
-274504.5
21
-227812.21
31
0
0
LINE
8
electrical
10
-274504.5
20
-227812.21
30
0
11
-274504.5
21
-227827.79
31
0
0
LINE
8
electrical
10
-274504.5
20
-227827.79
30
0
11
-274491.0
21
-227820.0
31
0
0
LINE
8
electrical
10
-230950.0
20
-227820.0
30
0
11
-230950.0
21
-227827.79
31
0
0
LINE
8
electrical
10
-230950.0
20
-227827.79
30
0
11
-230950.0
21
-227812.21
31
0
0
LINE
8
electrical
10
-230950.0
20
-227812.21
30
0
11
-230950.0
21
-227820.0
31
0
0
LINE
8
electrical
10
-274500.0
20
-227820.0
30
0
11
-230950.0
21
-227820.0
31
0
0
LINE
8
electrical
10
-274500.0
20
-227820.0
30
0
11
-274500.0
21
-227827.79
31
0
0
LINE
8
electrical
10
-274500.0
20
-227827.79
30
0
11
-274500.0
21
-227812.21
31
0
0
LINE
8
electrical
10
-274500.0
20
-227812.21
30
0
11
-274500.0
21
-227820.0
31
0
0
LINE
8
electrical
10
-274500.0
20
-227820.0
30
0
11
-274490.28
21
-227820.0
31
0
0
LINE
8
electrical
10
-274490.28
20
-227820.0
30
0
11
-274500.0
21
-227820.0
31
0
0
LINE
8
electrical
10
-241565.0
20
-227850.0
30
0
11
-241565.0
21
-227790.0
31
0
0
LINE
8
electrical
10
-241435.0
20
-227850.0
30
0
11
-241435.0
21
-227790.0
31
0
0
LINE
8
electrical
10
-241565.0
20
-227850.0
30
0
11
-241435.0
21
-227850.0
31
0
0
LINE
8
electrical
10
-241565.0
20
-227790.0
30
0
11
-241435.0
21
-227790.0
31
0
0
LINE
8
electrical
10
-241491.0
20
-227820.0
30
0
11
-241504.5
21
-227812.21
31
0
0
LINE
8
electrical
10
-241504.5
20
-227812.21
30
0
11
-241504.5
21
-227827.79
31
0
0
LINE
8
electrical
10
-241504.5
20
-227827.79
30
0
11
-241491.0
21
-227820.0
31
0
0
LINE
8
electrical
10
-230950.0
20
-227820.0
30
0
11
-230950.0
21
-227827.79
31
0
0
LINE
8
electrical
10
-230950.0
20
-227827.79
30
0
11
-230950.0
21
-227812.21
31
0
0
LINE
8
electrical
10
-230950.0
20
-227812.21
30
0
11
-230950.0
21
-227820.0
31
0
0
LINE
8
electrical
10
-241500.0
20
-227820.0
30
0
11
-230950.0
21
-227820.0
31
0
0
LINE
8
electrical
10
-241500.0
20
-227820.0
30
0
11
-241500.0
21
-227827.79
31
0
0
LINE
8
electrical
10
-241500.0
20
-227827.79
30
0
11
-241500.0
21
-227812.21
31
0
0
LINE
8
electrical
10
-241500.0
20
-227812.21
30
0
11
-241500.0
21
-227820.0
31
0
0
LINE
8
electrical
10
-241500.0
20
-227820.0
30
0
11
-241490.28
21
-227820.0
31
0
0
LINE
8
electrical
10
-241490.28
20
-227820.0
30
0
11
-241500.0
21
-227820.0
31
0
0
LINE
8
hvac
10
-285025.0
20
-227275.0
30
0
11
-285025.0
21
-226525.0
31
0
0
LINE
8
hvac
10
-283375.0
20
-227275.0
30
0
11
-283375.0
21
-226525.0
31
0
0
LINE
8
hvac
10
-285025.0
20
-227275.0
30
0
11
-283375.0
21
-227275.0
31
0
0
LINE
8
hvac
10
-285025.0
20
-226525.0
30
0
11
-283375.0
21
-226525.0
31
0
0
LINE
8
hvac
10
-284925.0
20
-227320.0
30
0
11
-284925.0
21
-227280.0
31
0
0
LINE
8
hvac
10
-283475.0
20
-227320.0
30
0
11
-283475.0
21
-227280.0
31
0
0
LINE
8
hvac
10
-284925.0
20
-227320.0
30
0
11
-283475.0
21
-227320.0
31
0
0
LINE
8
hvac
10
-284925.0
20
-227280.0
30
0
11
-283475.0
21
-227280.0
31
0
0
LINE
8
hvac
10
-284860.0
20
-227360.0
30
0
11
-284860.0
21
-227300.0
31
0
0
LINE
8
hvac
10
-284820.0
20
-227360.0
30
0
11
-284820.0
21
-227300.0
31
0
0
LINE
8
hvac
10
-284860.0
20
-227360.0
30
0
11
-284820.0
21
-227360.0
31
0
0
LINE
8
hvac
10
-284860.0
20
-227300.0
30
0
11
-284820.0
21
-227300.0
31
0
0
LINE
8
hvac
10
-284700.0
20
-227360.0
30
0
11
-284700.0
21
-227300.0
31
0
0
LINE
8
hvac
10
-284660.0
20
-227360.0
30
0
11
-284660.0
21
-227300.0
31
0
0
LINE
8
hvac
10
-284700.0
20
-227360.0
30
0
11
-284660.0
21
-227360.0
31
0
0
LINE
8
hvac
10
-284700.0
20
-227300.0
30
0
11
-284660.0
21
-227300.0
31
0
0
LINE
8
hvac
10
-284540.0
20
-227360.0
30
0
11
-284540.0
21
-227300.0
31
0
0
LINE
8
hvac
10
-284500.0
20
-227360.0
30
0
11
-284500.0
21
-227300.0
31
0
0
LINE
8
hvac
10
-284540.0
20
-227360.0
30
0
11
-284500.0
21
-227360.0
31
0
0
LINE
8
hvac
10
-284540.0
20
-227300.0
30
0
11
-284500.0
21
-227300.0
31
0
0
LINE
8
hvac
10
-284380.0
20
-227360.0
30
0
11
-284380.0
21
-227300.0
31
0
0
LINE
8
hvac
10
-284340.0
20
-227360.0
30
0
11
-284340.0
21
-227300.0
31
0
0
LINE
8
hvac
10
-284380.0
20
-227360.0
30
0
11
-284340.0
21
-227360.0
31
0
0
LINE
8
hvac
10
-284380.0
20
-227300.0
30
0
11
-284340.0
21
-227300.0
31
0
0
LINE
8
hvac
10
-284220.0
20
-227360.0
30
0
11
-284220.0
21
-227300.0
31
0
0
LINE
8
hvac
10
-284180.0
20
-227360.0
30
0
11
-284180.0
21
-227300.0
31
0
0
LINE
8
hvac
10
-284220.0
20
-227360.0
30
0
11
-284180.0
21
-227360.0
31
0
0
LINE
8
hvac
10
-284220.0
20
-227300.0
30
0
11
-284180.0
21
-227300.0
31
0
0
LINE
8
hvac
10
-284060.0
20
-227360.0
30
0
11
-284060.0
21
-227300.0
31
0
0
LINE
8
hvac
10
-284020.0
20
-227360.0
30
0
11
-284020.0
21
-227300.0
31
0
0
LINE
8
hvac
10
-284060.0
20
-227360.0
30
0
11
-284020.0
21
-227360.0
31
0
0
LINE
8
hvac
10
-284060.0
20
-227300.0
30
0
11
-284020.0
21
-227300.0
31
0
0
LINE
8
hvac
10
-283900.0
20
-227360.0
30
0
11
-283900.0
21
-227300.0
31
0
0
LINE
8
hvac
10
-283860.0
20
-227360.0
30
0
11
-283860.0
21
-227300.0
31
0
0
LINE
8
hvac
10
-283900.0
20
-227360.0
30
0
11
-283860.0
21
-227360.0
31
0
0
LINE
8
hvac
10
-283900.0
20
-227300.0
30
0
11
-283860.0
21
-227300.0
31
0
0
LINE
8
hvac
10
-283740.0
20
-227360.0
30
0
11
-283740.0
21
-227300.0
31
0
0
LINE
8
hvac
10
-283700.0
20
-227360.0
30
0
11
-283700.0
21
-227300.0
31
0
0
LINE
8
hvac
10
-283740.0
20
-227360.0
30
0
11
-283700.0
21
-227360.0
31
0
0
LINE
8
hvac
10
-283740.0
20
-227300.0
30
0
11
-283700.0
21
-227300.0
31
0
0
LINE
8
hvac
10
-283580.0
20
-227360.0
30
0
11
-283580.0
21
-227300.0
31
0
0
LINE
8
hvac
10
-283540.0
20
-227360.0
30
0
11
-283540.0
21
-227300.0
31
0
0
LINE
8
hvac
10
-283580.0
20
-227360.0
30
0
11
-283540.0
21
-227360.0
31
0
0
LINE
8
hvac
10
-283580.0
20
-227300.0
30
0
11
-283540.0
21
-227300.0
31
0
0
LINE
8
hvac
10
-284425.0
20
-227125.0
30
0
11
-284425.0
21
-226675.0
31
0
0
LINE
8
hvac
10
-283975.0
20
-227125.0
30
0
11
-283975.0
21
-226675.0
31
0
0
LINE
8
hvac
10
-284425.0
20
-227125.0
30
0
11
-283975.0
21
-227125.0
31
0
0
LINE
8
hvac
10
-284425.0
20
-226675.0
30
0
11
-283975.0
21
-226675.0
31
0
0
LINE
8
hvac
10
-277250.0
20
-218175.0
30
0
11
-277250.0
21
-217825.0
31
0
0
LINE
8
hvac
10
-238750.0
20
-218175.0
30
0
11
-238750.0
21
-217825.0
31
0
0
LINE
8
hvac
10
-277250.0
20
-218175.0
30
0
11
-238750.0
21
-218175.0
31
0
0
LINE
8
hvac
10
-277250.0
20
-217825.0
30
0
11
-238750.0
21
-217825.0
31
0
0
LINE
8
hvac
10
-284375.0
20
-227075.0
30
0
11
-284375.0
21
-226725.0
31
0
0
LINE
8
hvac
10
-257825.0
20
-227075.0
30
0
11
-257825.0
21
-226725.0
31
0
0
LINE
8
hvac
10
-284375.0
20
-227075.0
30
0
11
-257825.0
21
-227075.0
31
0
0
LINE
8
hvac
10
-284375.0
20
-226725.0
30
0
11
-257825.0
21
-226725.0
31
0
0
LINE
8
hvac
10
-258175.0
20
-227075.0
30
0
11
-258175.0
21
-217825.0
31
0
0
LINE
8
hvac
10
-257825.0
20
-227075.0
30
0
11
-257825.0
21
-217825.0
31
0
0
LINE
8
hvac
10
-258175.0
20
-227075.0
30
0
11
-257825.0
21
-227075.0
31
0
0
LINE
8
hvac
10
-258175.0
20
-217825.0
30
0
11
-257825.0
21
-217825.0
31
0
0
LINE
8
hvac
10
-269350.0
20
-218350.0
30
0
11
-269350.0
21
-217650.0
31
0
0
LINE
8
hvac
10
-268650.0
20
-218350.0
30
0
11
-268650.0
21
-217650.0
31
0
0
LINE
8
hvac
10
-269350.0
20
-218350.0
30
0
11
-268650.0
21
-218350.0
31
0
0
LINE
8
hvac
10
-269350.0
20
-217650.0
30
0
11
-268650.0
21
-217650.0
31
0
0
LINE
8
hvac
10
-247350.0
20
-218350.0
30
0
11
-247350.0
21
-217650.0
31
0
0
LINE
8
hvac
10
-246650.0
20
-218350.0
30
0
11
-246650.0
21
-217650.0
31
0
0
LINE
8
hvac
10
-247350.0
20
-218350.0
30
0
11
-246650.0
21
-218350.0
31
0
0
LINE
8
hvac
10
-247350.0
20
-217650.0
30
0
11
-246650.0
21
-217650.0
31
0
0
LINE
8
water
10
-232010.0
20
-215320.0
30
0
11
-232010.0
21
-214680.0
31
0
0
LINE
8
water
10
-231090.0
20
-215320.0
30
0
11
-231090.0
21
-214680.0
31
0
0
LINE
8
water
10
-232010.0
20
-215320.0
30
0
11
-231090.0
21
-215320.0
31
0
0
LINE
8
water
10
-232010.0
20
-214680.0
30
0
11
-231090.0
21
-214680.0
31
0
0
LINE
8
water
10
-232000.0
20
-215310.0
30
0
11
-232000.0
21
-214690.0
31
0
0
LINE
8
water
10
-232000.0
20
-215310.0
30
0
11
-231100.0
21
-215310.0
31
0
0
LINE
8
water
10
-232000.0
20
-214690.0
30
0
11
-231100.0
21
-214690.0
31
0
0
LINE
8
water
10
-231100.0
20
-215310.0
30
0
11
-231100.0
21
-214690.0
31
0
0
LINE
8
water
10
-231225.0
20
-215215.0
30
0
11
-231875.0
21
-215215.0
31
0
0
LINE
8
water
10
-231225.0
20
-215215.0
30
0
11
-231225.0
21
-214785.0
31
0
0
LINE
8
water
10
-231225.0
20
-214785.0
30
0
11
-231875.0
21
-214785.0
31
0
0
LINE
8
water
10
-231875.0
20
-215215.0
30
0
11
-231875.0
21
-214785.0
31
0
0
LINE
8
water
10
-231532.0
20
-214780.0
30
0
11
-231559.0
21
-214764.41
31
0
0
LINE
8
water
10
-231559.0
20
-214764.41
30
0
11
-231559.0
21
-214795.59
31
0
0
LINE
8
water
10
-231559.0
20
-214795.59
30
0
11
-231532.0
21
-214780.0
31
0
0
LINE
8
water
10
-231550.0
20
-215000.0
30
0
11
-231534.41
21
-215000.0
31
0
0
LINE
8
water
10
-231534.41
20
-215000.0
30
0
11
-231565.59
21
-215000.0
31
0
0
LINE
8
water
10
-231565.59
20
-215000.0
30
0
11
-231550.0
21
-215000.0
31
0
0
LINE
8
water
10
-231550.0
20
-214780.0
30
0
11
-231550.0
21
-215000.0
31
0
0
LINE
8
water
10
-231550.0
20
-214780.0
30
0
11
-231534.41
21
-214780.0
31
0
0
LINE
8
water
10
-231534.41
20
-214780.0
30
0
11
-231565.59
21
-214780.0
31
0
0
LINE
8
water
10
-231565.59
20
-214780.0
30
0
11
-231550.0
21
-214780.0
31
0
0
LINE
8
water
10
-231550.0
20
-214780.0
30
0
11
-231530.56
21
-214780.0
31
0
0
LINE
8
water
10
-231530.56
20
-214780.0
30
0
11
-231550.0
21
-214780.0
31
0
0
LINE
8
water
10
-231605.0
20
-215000.0
30
0
11
-231550.0
21
-214945.0
31
0
0
LINE
8
water
10
-231550.0
20
-214945.0
30
0
11
-231495.0
21
-215000.0
31
0
0
LINE
8
water
10
-231495.0
20
-215000.0
30
0
11
-231550.0
21
-215055.0
31
0
0
LINE
8
water
10
-231550.0
20
-215055.0
30
0
11
-231605.0
21
-215000.0
31
0
0
LINE
8
water
10
-231550.0
20
-222000.0
30
0
11
-231495.0
21
-222000.0
31
0
0
LINE
8
water
10
-231495.0
20
-222000.0
30
0
11
-231550.0
21
-222000.0
31
0
0
LINE
8
water
10
-231550.0
20
-222000.0
30
0
11
-231605.0
21
-222000.0
31
0
0
LINE
8
water
10
-231605.0
20
-222000.0
30
0
11
-231550.0
21
-222000.0
31
0
0
LINE
8
water
10
-231550.0
20
-215000.0
30
0
11
-231550.0
21
-222000.0
31
0
0
LINE
8
water
10
-231550.0
20
-215000.0
30
0
11
-231495.0
21
-215000.0
31
0
0
LINE
8
water
10
-231495.0
20
-215000.0
30
0
11
-231550.0
21
-215000.0
31
0
0
LINE
8
water
10
-231550.0
20
-215000.0
30
0
11
-231605.0
21
-215000.0
31
0
0
LINE
8
water
10
-231605.0
20
-215000.0
30
0
11
-231550.0
21
-215000.0
31
0
0
LINE
8
water
10
-281000.0
20
-222000.0
30
0
11
-281000.0
21
-222055.0
31
0
0
LINE
8
water
10
-281000.0
20
-222055.0
30
0
11
-281000.0
21
-222000.0
31
0
0
LINE
8
water
10
-281000.0
20
-222000.0
30
0
11
-281000.0
21
-221945.0
31
0
0
LINE
8
water
10
-281000.0
20
-221945.0
30
0
11
-281000.0
21
-222000.0
31
0
0
LINE
8
water
10
-231550.0
20
-222000.0
30
0
11
-281000.0
21
-222000.0
31
0
0
LINE
8
water
10
-231550.0
20
-222000.0
30
0
11
-231550.0
21
-222055.0
31
0
0
LINE
8
water
10
-231550.0
20
-222055.0
30
0
11
-231550.0
21
-222000.0
31
0
0
LINE
8
water
10
-231550.0
20
-222000.0
30
0
11
-231550.0
21
-221945.0
31
0
0
LINE
8
water
10
-231550.0
20
-221945.0
30
0
11
-231550.0
21
-222000.0
31
0
0
LINE
8
water
10
-231550.0
20
-215000.0
30
0
11
-231490.6
21
-215000.0
31
0
0
LINE
8
water
10
-231490.6
20
-215000.0
30
0
11
-231550.0
21
-215000.0
31
0
0
LINE
8
water
10
-231550.0
20
-222000.0
30
0
11
-231490.6
21
-222000.0
31
0
0
LINE
8
water
10
-231490.6
20
-222000.0
30
0
11
-231550.0
21
-222000.0
31
0
0
LINE
8
water
10
-249095.0
20
-227600.0
30
0
11
-249095.0
21
-227675.0
31
0
0
LINE
8
water
10
-249095.0
20
-227675.0
30
0
11
-249095.0
21
-227600.0
31
0
0
LINE
8
water
10
-249095.0
20
-227600.0
30
0
11
-249095.0
21
-227525.0
31
0
0
LINE
8
water
10
-249095.0
20
-227525.0
30
0
11
-249095.0
21
-227600.0
31
0
0
LINE
8
water
10
-249495.0
20
-227600.0
30
0
11
-249095.0
21
-227600.0
31
0
0
LINE
8
water
10
-249495.0
20
-227600.0
30
0
11
-249495.0
21
-227675.0
31
0
0
LINE
8
water
10
-249495.0
20
-227675.0
30
0
11
-249495.0
21
-227600.0
31
0
0
LINE
8
water
10
-249495.0
20
-227600.0
30
0
11
-249495.0
21
-227525.0
31
0
0
LINE
8
water
10
-249495.0
20
-227525.0
30
0
11
-249495.0
21
-227600.0
31
0
0
LINE
8
water
10
-249205.0
20
-227600.0
30
0
11
-249267.19
21
-227514.4
31
0
0
LINE
8
water
10
-249267.19
20
-227514.4
30
0
11
-249367.81
21
-227547.1
31
0
0
LINE
8
water
10
-249367.81
20
-227547.1
30
0
11
-249367.81
21
-227652.9
31
0
0
LINE
8
water
10
-249367.81
20
-227652.9
30
0
11
-249267.19
21
-227685.6
31
0
0
LINE
8
water
10
-249267.19
20
-227685.6
30
0
11
-249205.0
21
-227600.0
31
0
0
LINE
8
water
10
-249485.0
20
-227625.0
30
0
11
-249485.0
21
-227575.0
31
0
0
LINE
8
water
10
-249105.0
20
-227625.0
30
0
11
-249105.0
21
-227575.0
31
0
0
LINE
8
water
10
-249485.0
20
-227625.0
30
0
11
-249105.0
21
-227625.0
31
0
0
LINE
8
water
10
-249485.0
20
-227575.0
30
0
11
-249105.0
21
-227575.0
31
0
0
LINE
8
water
10
-249420.0
20
-227600.0
30
0
11
-249420.0
21
-227704.62
31
0
0
LINE
8
water
10
-249420.0
20
-227704.62
30
0
11
-249420.0
21
-227664.66
31
0
0
LINE
8
water
10
-249420.0
20
-227664.66
30
0
11
-249420.0
21
-227535.34
31
0
0
LINE
8
water
10
-249420.0
20
-227535.34
30
0
11
-249420.0
21
-227495.38
31
0
0
LINE
8
water
10
-249420.0
20
-227495.38
30
0
11
-249420.0
21
-227600.0
31
0
0
LINE
8
water
10
-249445.0
20
-227600.0
30
0
11
-249420.0
21
-227600.0
31
0
0
LINE
8
water
10
-249445.0
20
-227600.0
30
0
11
-249445.0
21
-227704.62
31
0
0
LINE
8
water
10
-249445.0
20
-227704.62
30
0
11
-249445.0
21
-227664.66
31
0
0
LINE
8
water
10
-249445.0
20
-227664.66
30
0
11
-249445.0
21
-227535.34
31
0
0
LINE
8
water
10
-249445.0
20
-227535.34
30
0
11
-249445.0
21
-227495.38
31
0
0
LINE
8
water
10
-249445.0
20
-227495.38
30
0
11
-249445.0
21
-227600.0
31
0
0
LINE
8
water
10
-249120.0
20
-227600.0
30
0
11
-249120.0
21
-227704.62
31
0
0
LINE
8
water
10
-249120.0
20
-227704.62
30
0
11
-249120.0
21
-227664.66
31
0
0
LINE
8
water
10
-249120.0
20
-227664.66
30
0
11
-249120.0
21
-227535.34
31
0
0
LINE
8
water
10
-249120.0
20
-227535.34
30
0
11
-249120.0
21
-227495.38
31
0
0
LINE
8
water
10
-249120.0
20
-227495.38
30
0
11
-249120.0
21
-227600.0
31
0
0
LINE
8
water
10
-249145.0
20
-227600.0
30
0
11
-249120.0
21
-227600.0
31
0
0
LINE
8
water
10
-249145.0
20
-227600.0
30
0
11
-249145.0
21
-227704.62
31
0
0
LINE
8
water
10
-249145.0
20
-227704.62
30
0
11
-249145.0
21
-227664.66
31
0
0
LINE
8
water
10
-249145.0
20
-227664.66
30
0
11
-249145.0
21
-227535.34
31
0
0
LINE
8
water
10
-249145.0
20
-227535.34
30
0
11
-249145.0
21
-227495.38
31
0
0
LINE
8
water
10
-249145.0
20
-227495.38
30
0
11
-249145.0
21
-227600.0
31
0
0
LINE
8
water
10
-256900.0
20
-227600.0
30
0
11
-256869.69
21
-227600.0
31
0
0
LINE
8
water
10
-256869.69
20
-227600.0
30
0
11
-256930.31
21
-227600.0
31
0
0
LINE
8
water
10
-256930.31
20
-227600.0
30
0
11
-256900.0
21
-227600.0
31
0
0
LINE
8
water
10
-256900.0
20
-224500.0
30
0
11
-256900.0
21
-227600.0
31
0
0
LINE
8
water
10
-256900.0
20
-224500.0
30
0
11
-256869.69
21
-224500.0
31
0
0
LINE
8
water
10
-256869.69
20
-224500.0
30
0
11
-256930.31
21
-224500.0
31
0
0
LINE
8
water
10
-256930.31
20
-224500.0
30
0
11
-256900.0
21
-224500.0
31
0
0
LINE
8
water
10
-231550.0
20
-227600.0
30
0
11
-231550.0
21
-227630.31
31
0
0
LINE
8
water
10
-231550.0
20
-227630.31
30
0
11
-231550.0
21
-227569.69
31
0
0
LINE
8
water
10
-231550.0
20
-227569.69
30
0
11
-231550.0
21
-227600.0
31
0
0
LINE
8
water
10
-256900.0
20
-227600.0
30
0
11
-231550.0
21
-227600.0
31
0
0
LINE
8
water
10
-256900.0
20
-227600.0
30
0
11
-256900.0
21
-227630.31
31
0
0
LINE
8
water
10
-256900.0
20
-227630.31
30
0
11
-256900.0
21
-227569.69
31
0
0
LINE
8
water
10
-256900.0
20
-227569.69
30
0
11
-256900.0
21
-227600.0
31
0
0
LINE
8
water
10
-231550.0
20
-214770.0
30
0
11
-231519.69
21
-214770.0
31
0
0
LINE
8
water
10
-231519.69
20
-214770.0
30
0
11
-231580.31
21
-214770.0
31
0
0
LINE
8
water
10
-231580.31
20
-214770.0
30
0
11
-231550.0
21
-214770.0
31
0
0
LINE
8
water
10
-231550.0
20
-227600.0
30
0
11
-231550.0
21
-214770.0
31
0
0
LINE
8
water
10
-231550.0
20
-227600.0
30
0
11
-231519.69
21
-227600.0
31
0
0
LINE
8
water
10
-231519.69
20
-227600.0
30
0
11
-231580.31
21
-227600.0
31
0
0
LINE
8
water
10
-231580.31
20
-227600.0
30
0
11
-231550.0
21
-227600.0
31
0
0
LINE
8
water
10
-231585.0
20
-214770.0
30
0
11
-231532.5
21
-214739.69
31
0
0
LINE
8
water
10
-231532.5
20
-214739.69
30
0
11
-231532.5
21
-214800.31
31
0
0
LINE
8
water
10
-231532.5
20
-214800.31
30
0
11
-231585.0
21
-214770.0
31
0
0
LINE
8
water
10
-256900.0
20
-227600.0
30
0
11
-256862.2
21
-227600.0
31
0
0
LINE
8
water
10
-256862.2
20
-227600.0
30
0
11
-256900.0
21
-227600.0
31
0
0
LINE
8
water
10
-231550.0
20
-227600.0
30
0
11
-231512.2
21
-227600.0
31
0
0
LINE
8
water
10
-231512.2
20
-227600.0
30
0
11
-231550.0
21
-227600.0
31
0
0
LINE
8
water
10
-231550.0
20
-214770.0
30
0
11
-231512.2
21
-214770.0
31
0
0
LINE
8
water
10
-231512.2
20
-214770.0
30
0
11
-231550.0
21
-214770.0
31
0
0
LINE
8
water
10
-248886.0
20
-227600.0
30
0
11
-248886.0
21
-227675.0
31
0
0
LINE
8
water
10
-248886.0
20
-227675.0
30
0
11
-248886.0
21
-227600.0
31
0
0
LINE
8
water
10
-248886.0
20
-227600.0
30
0
11
-248886.0
21
-227525.0
31
0
0
LINE
8
water
10
-248886.0
20
-227525.0
30
0
11
-248886.0
21
-227600.0
31
0
0
LINE
8
water
10
-249286.0
20
-227600.0
30
0
11
-248886.0
21
-227600.0
31
0
0
LINE
8
water
10
-249286.0
20
-227600.0
30
0
11
-249286.0
21
-227675.0
31
0
0
LINE
8
water
10
-249286.0
20
-227675.0
30
0
11
-249286.0
21
-227600.0
31
0
0
LINE
8
water
10
-249286.0
20
-227600.0
30
0
11
-249286.0
21
-227525.0
31
0
0
LINE
8
water
10
-249286.0
20
-227525.0
30
0
11
-249286.0
21
-227600.0
31
0
0
LINE
8
water
10
-248996.0
20
-227600.0
30
0
11
-249058.19
21
-227514.4
31
0
0
LINE
8
water
10
-249058.19
20
-227514.4
30
0
11
-249158.81
21
-227547.1
31
0
0
LINE
8
water
10
-249158.81
20
-227547.1
30
0
11
-249158.81
21
-227652.9
31
0
0
LINE
8
water
10
-249158.81
20
-227652.9
30
0
11
-249058.19
21
-227685.6
31
0
0
LINE
8
water
10
-249058.19
20
-227685.6
30
0
11
-248996.0
21
-227600.0
31
0
0
LINE
8
water
10
-249276.0
20
-227625.0
30
0
11
-249276.0
21
-227575.0
31
0
0
LINE
8
water
10
-248896.0
20
-227625.0
30
0
11
-248896.0
21
-227575.0
31
0
0
LINE
8
water
10
-249276.0
20
-227625.0
30
0
11
-248896.0
21
-227625.0
31
0
0
LINE
8
water
10
-249276.0
20
-227575.0
30
0
11
-248896.0
21
-227575.0
31
0
0
LINE
8
water
10
-249211.0
20
-227600.0
30
0
11
-249211.0
21
-227704.62
31
0
0
LINE
8
water
10
-249211.0
20
-227704.62
30
0
11
-249211.0
21
-227664.66
31
0
0
LINE
8
water
10
-249211.0
20
-227664.66
30
0
11
-249211.0
21
-227535.34
31
0
0
LINE
8
water
10
-249211.0
20
-227535.34
30
0
11
-249211.0
21
-227495.38
31
0
0
LINE
8
water
10
-249211.0
20
-227495.38
30
0
11
-249211.0
21
-227600.0
31
0
0
LINE
8
water
10
-249236.0
20
-227600.0
30
0
11
-249211.0
21
-227600.0
31
0
0
LINE
8
water
10
-249236.0
20
-227600.0
30
0
11
-249236.0
21
-227704.62
31
0
0
LINE
8
water
10
-249236.0
20
-227704.62
30
0
11
-249236.0
21
-227664.66
31
0
0
LINE
8
water
10
-249236.0
20
-227664.66
30
0
11
-249236.0
21
-227535.34
31
0
0
LINE
8
water
10
-249236.0
20
-227535.34
30
0
11
-249236.0
21
-227495.38
31
0
0
LINE
8
water
10
-249236.0
20
-227495.38
30
0
11
-249236.0
21
-227600.0
31
0
0
LINE
8
water
10
-248911.0
20
-227600.0
30
0
11
-248911.0
21
-227704.62
31
0
0
LINE
8
water
10
-248911.0
20
-227704.62
30
0
11
-248911.0
21
-227664.66
31
0
0
LINE
8
water
10
-248911.0
20
-227664.66
30
0
11
-248911.0
21
-227535.34
31
0
0
LINE
8
water
10
-248911.0
20
-227535.34
30
0
11
-248911.0
21
-227495.38
31
0
0
LINE
8
water
10
-248911.0
20
-227495.38
30
0
11
-248911.0
21
-227600.0
31
0
0
LINE
8
water
10
-248936.0
20
-227600.0
30
0
11
-248911.0
21
-227600.0
31
0
0
LINE
8
water
10
-248936.0
20
-227600.0
30
0
11
-248936.0
21
-227704.62
31
0
0
LINE
8
water
10
-248936.0
20
-227704.62
30
0
11
-248936.0
21
-227664.66
31
0
0
LINE
8
water
10
-248936.0
20
-227664.66
30
0
11
-248936.0
21
-227535.34
31
0
0
LINE
8
water
10
-248936.0
20
-227535.34
30
0
11
-248936.0
21
-227495.38
31
0
0
LINE
8
water
10
-248936.0
20
-227495.38
30
0
11
-248936.0
21
-227600.0
31
0
0
LINE
8
water
10
-256550.0
20
-227600.0
30
0
11
-256519.69
21
-227600.0
31
0
0
LINE
8
water
10
-256519.69
20
-227600.0
30
0
11
-256580.31
21
-227600.0
31
0
0
LINE
8
water
10
-256580.31
20
-227600.0
30
0
11
-256550.0
21
-227600.0
31
0
0
LINE
8
water
10
-256550.0
20
-223500.0
30
0
11
-256550.0
21
-227600.0
31
0
0
LINE
8
water
10
-256550.0
20
-223500.0
30
0
11
-256519.69
21
-223500.0
31
0
0
LINE
8
water
10
-256519.69
20
-223500.0
30
0
11
-256580.31
21
-223500.0
31
0
0
LINE
8
water
10
-256580.31
20
-223500.0
30
0
11
-256550.0
21
-223500.0
31
0
0
LINE
8
water
10
-231670.0
20
-227600.0
30
0
11
-231670.0
21
-227630.31
31
0
0
LINE
8
water
10
-231670.0
20
-227630.31
30
0
11
-231670.0
21
-227569.69
31
0
0
LINE
8
water
10
-231670.0
20
-227569.69
30
0
11
-231670.0
21
-227600.0
31
0
0
LINE
8
water
10
-256550.0
20
-227600.0
30
0
11
-231670.0
21
-227600.0
31
0
0
LINE
8
water
10
-256550.0
20
-227600.0
30
0
11
-256550.0
21
-227630.31
31
0
0
LINE
8
water
10
-256550.0
20
-227630.31
30
0
11
-256550.0
21
-227569.69
31
0
0
LINE
8
water
10
-256550.0
20
-227569.69
30
0
11
-256550.0
21
-227600.0
31
0
0
LINE
8
water
10
-231670.0
20
-214770.0
30
0
11
-231639.69
21
-214770.0
31
0
0
LINE
8
water
10
-231639.69
20
-214770.0
30
0
11
-231700.31
21
-214770.0
31
0
0
LINE
8
water
10
-231700.31
20
-214770.0
30
0
11
-231670.0
21
-214770.0
31
0
0
LINE
8
water
10
-231670.0
20
-227600.0
30
0
11
-231670.0
21
-214770.0
31
0
0
LINE
8
water
10
-231670.0
20
-227600.0
30
0
11
-231639.69
21
-227600.0
31
0
0
LINE
8
water
10
-231639.69
20
-227600.0
30
0
11
-231700.31
21
-227600.0
31
0
0
LINE
8
water
10
-231700.31
20
-227600.0
30
0
11
-231670.0
21
-227600.0
31
0
0
LINE
8
water
10
-231705.0
20
-214770.0
30
0
11
-231652.5
21
-214739.69
31
0
0
LINE
8
water
10
-231652.5
20
-214739.69
30
0
11
-231652.5
21
-214800.31
31
0
0
LINE
8
water
10
-231652.5
20
-214800.31
30
0
11
-231705.0
21
-214770.0
31
0
0
LINE
8
water
10
-256550.0
20
-227600.0
30
0
11
-256512.2
21
-227600.0
31
0
0
LINE
8
water
10
-256512.2
20
-227600.0
30
0
11
-256550.0
21
-227600.0
31
0
0
LINE
8
water
10
-231670.0
20
-227600.0
30
0
11
-231632.2
21
-227600.0
31
0
0
LINE
8
water
10
-231632.2
20
-227600.0
30
0
11
-231670.0
21
-227600.0
31
0
0
LINE
8
water
10
-231670.0
20
-214770.0
30
0
11
-231632.2
21
-214770.0
31
0
0
LINE
8
water
10
-231632.2
20
-214770.0
30
0
11
-231670.0
21
-214770.0
31
0
0
LINE
8
sensors
10
-285460.0
20
-223680.0
30
0
11
-285460.0
21
-223520.0
31
0
0
LINE
8
sensors
10
-285360.0
20
-223680.0
30
0
11
-285360.0
21
-223520.0
31
0
0
LINE
8
sensors
10
-285460.0
20
-223680.0
30
0
11
-285360.0
21
-223680.0
31
0
0
LINE
8
sensors
10
-285460.0
20
-223520.0
30
0
11
-285360.0
21
-223520.0
31
0
0
LINE
8
sensors
10
-285355.0
20
-223655.0
30
0
11
-285355.0
21
-223545.0
31
0
0
LINE
8
sensors
10
-285335.0
20
-223655.0
30
0
11
-285335.0
21
-223545.0
31
0
0
LINE
8
sensors
10
-285355.0
20
-223655.0
30
0
11
-285335.0
21
-223655.0
31
0
0
LINE
8
sensors
10
-285355.0
20
-223545.0
30
0
11
-285335.0
21
-223545.0
31
0
0
LINE
8
sensors
10
-285460.0
20
-223380.0
30
0
11
-285460.0
21
-223220.0
31
0
0
LINE
8
sensors
10
-285360.0
20
-223380.0
30
0
11
-285360.0
21
-223220.0
31
0
0
LINE
8
sensors
10
-285460.0
20
-223380.0
30
0
11
-285360.0
21
-223380.0
31
0
0
LINE
8
sensors
10
-285460.0
20
-223220.0
30
0
11
-285360.0
21
-223220.0
31
0
0
LINE
8
sensors
10
-285355.0
20
-223355.0
30
0
11
-285355.0
21
-223245.0
31
0
0
LINE
8
sensors
10
-285335.0
20
-223355.0
30
0
11
-285335.0
21
-223245.0
31
0
0
LINE
8
sensors
10
-285355.0
20
-223355.0
30
0
11
-285335.0
21
-223355.0
31
0
0
LINE
8
sensors
10
-285355.0
20
-223245.0
30
0
11
-285335.0
21
-223245.0
31
0
0
LINE
8
sensors
10
-285460.0
20
-223080.0
30
0
11
-285460.0
21
-222920.0
31
0
0
LINE
8
sensors
10
-285360.0
20
-223080.0
30
0
11
-285360.0
21
-222920.0
31
0
0
LINE
8
sensors
10
-285460.0
20
-223080.0
30
0
11
-285360.0
21
-223080.0
31
0
0
LINE
8
sensors
10
-285460.0
20
-222920.0
30
0
11
-285360.0
21
-222920.0
31
0
0
LINE
8
sensors
10
-285355.0
20
-223055.0
30
0
11
-285355.0
21
-222945.0
31
0
0
LINE
8
sensors
10
-285335.0
20
-223055.0
30
0
11
-285335.0
21
-222945.0
31
0
0
LINE
8
sensors
10
-285355.0
20
-223055.0
30
0
11
-285335.0
21
-223055.0
31
0
0
LINE
8
sensors
10
-285355.0
20
-222945.0
30
0
11
-285335.0
21
-222945.0
31
0
0
LINE
8
sensors
10
-257920.0
20
-218000.0
30
0
11
-258000.0
21
-217920.0
31
0
0
LINE
8
sensors
10
-258000.0
20
-217920.0
30
0
11
-258080.0
21
-218000.0
31
0
0
LINE
8
sensors
10
-258080.0
20
-218000.0
30
0
11
-258000.0
21
-218080.0
31
0
0
LINE
8
sensors
10
-258000.0
20
-218080.0
30
0
11
-257920.0
21
-218000.0
31
0
0
LINE
8
sensors
10
-258000.0
20
-218000.0
30
0
11
-257935.0
21
-218000.0
31
0
0
LINE
8
sensors
10
-257935.0
20
-218000.0
30
0
11
-258000.0
21
-218000.0
31
0
0
LINE
8
sensors
10
-285460.0
20
-222480.0
30
0
11
-285460.0
21
-222320.0
31
0
0
LINE
8
sensors
10
-285360.0
20
-222480.0
30
0
11
-285360.0
21
-222320.0
31
0
0
LINE
8
sensors
10
-285460.0
20
-222480.0
30
0
11
-285360.0
21
-222480.0
31
0
0
LINE
8
sensors
10
-285460.0
20
-222320.0
30
0
11
-285360.0
21
-222320.0
31
0
0
LINE
8
sensors
10
-285355.0
20
-222455.0
30
0
11
-285355.0
21
-222345.0
31
0
0
LINE
8
sensors
10
-285335.0
20
-222455.0
30
0
11
-285335.0
21
-222345.0
31
0
0
LINE
8
sensors
10
-285355.0
20
-222455.0
30
0
11
-285335.0
21
-222455.0
31
0
0
LINE
8
sensors
10
-285355.0
20
-222345.0
30
0
11
-285335.0
21
-222345.0
31
0
0
LINE
8
sensors
10
-240312.5
20
-227600.0
30
0
11
-240312.5
21
-227675.0
31
0
0
LINE
8
sensors
10
-240312.5
20
-227675.0
30
0
11
-240312.5
21
-227600.0
31
0
0
LINE
8
sensors
10
-240312.5
20
-227600.0
30
0
11
-240312.5
21
-227525.0
31
0
0
LINE
8
sensors
10
-240312.5
20
-227525.0
30
0
11
-240312.5
21
-227600.0
31
0
0
LINE
8
sensors
10
-240532.5
20
-227600.0
30
0
11
-240312.5
21
-227600.0
31
0
0
LINE
8
sensors
10
-240532.5
20
-227600.0
30
0
11
-240532.5
21
-227675.0
31
0
0
LINE
8
sensors
10
-240532.5
20
-227675.0
30
0
11
-240532.5
21
-227600.0
31
0
0
LINE
8
sensors
10
-240532.5
20
-227600.0
30
0
11
-240532.5
21
-227525.0
31
0
0
LINE
8
sensors
10
-240532.5
20
-227525.0
30
0
11
-240532.5
21
-227600.0
31
0
0
LINE
8
sensors
10
-240502.5
20
-227670.0
30
0
11
-240502.5
21
-227530.0
31
0
0
LINE
8
sensors
10
-240342.5
20
-227670.0
30
0
11
-240342.5
21
-227530.0
31
0
0
LINE
8
sensors
10
-240502.5
20
-227670.0
30
0
11
-240342.5
21
-227670.0
31
0
0
LINE
8
sensors
10
-240502.5
20
-227530.0
30
0
11
-240342.5
21
-227530.0
31
0
0
LINE
8
sensors
10
-240268.0
20
-227600.0
30
0
11
-240268.0
21
-227675.0
31
0
0
LINE
8
sensors
10
-240268.0
20
-227675.0
30
0
11
-240268.0
21
-227600.0
31
0
0
LINE
8
sensors
10
-240268.0
20
-227600.0
30
0
11
-240268.0
21
-227525.0
31
0
0
LINE
8
sensors
10
-240268.0
20
-227525.0
30
0
11
-240268.0
21
-227600.0
31
0
0
LINE
8
sensors
10
-240488.0
20
-227600.0
30
0
11
-240268.0
21
-227600.0
31
0
0
LINE
8
sensors
10
-240488.0
20
-227600.0
30
0
11
-240488.0
21
-227675.0
31
0
0
LINE
8
sensors
10
-240488.0
20
-227675.0
30
0
11
-240488.0
21
-227600.0
31
0
0
LINE
8
sensors
10
-240488.0
20
-227600.0
30
0
11
-240488.0
21
-227525.0
31
0
0
LINE
8
sensors
10
-240488.0
20
-227525.0
30
0
11
-240488.0
21
-227600.0
31
0
0
LINE
8
sensors
10
-240458.0
20
-227670.0
30
0
11
-240458.0
21
-227530.0
31
0
0
LINE
8
sensors
10
-240298.0
20
-227670.0
30
0
11
-240298.0
21
-227530.0
31
0
0
LINE
8
sensors
10
-240458.0
20
-227670.0
30
0
11
-240298.0
21
-227670.0
31
0
0
LINE
8
sensors
10
-240458.0
20
-227530.0
30
0
11
-240298.0
21
-227530.0
31
0
0
ENDSEC
0
EOF
