0
SECTION
2
HEADER
9
$ACADVER
1
AC1015
9
$INSUNITS
70
4
0
ENDSEC
0
SECTION
2
ENTITIES
0
LINE
8
interiors
10
74000.0
20
-2000.0
30
0
11
74000.0
21
6000.0
31
0
0
LINE
8
interiors
10
74000.0
20
-2000.0
30
0
11
77800.0
21
-2000.0
31
0
0
LINE
8
interiors
10
77800.0
20
-2000.0
30
0
11
80200.0
21
-2000.0
31
0
0
LINE
8
interiors
10
80200.0
20
-2000.0
30
0
11
84000.0
21
-2000.0
31
0
0
LINE
8
interiors
10
74000.0
20
-2000.0
30
0
11
84000.0
21
-2000.0
31
0
0
LINE
8
interiors
10
74000.0
20
6000.0
30
0
11
84000.0
21
6000.0
31
0
0
LINE
8
interiors
10
84000.0
20
-2000.0
30
0
11
84000.0
21
6000.0
31
0
0
LINE
8
interiors
10
83880.0
20
-1880.0
30
0
11
74120.0
21
-1880.0
31
0
0
LINE
8
interiors
10
83880.0
20
-1880.0
30
0
11
83880.0
21
5880.0
31
0
0
LINE
8
interiors
10
83880.0
20
5880.0
30
0
11
74120.0
21
5880.0
31
0
0
LINE
8
interiors
10
74120.0
20
-1880.0
30
0
11
74120.0
21
5880.0
31
0
0
LINE
8
interiors
10
76400.0
20
6000.0
30
0
11
81600.0
21
6000.0
31
0
0
LINE
8
interiors
10
80200.0
20
-2000.0
30
0
11
80200.0
21
-1880.0
31
0
0
LINE
8
interiors
10
83880.0
20
-1880.0
30
0
11
80200.0
21
-1880.0
31
0
0
LINE
8
interiors
10
77800.0
20
-1880.0
30
0
11
74120.0
21
-1880.0
31
0
0
LINE
8
interiors
10
77800.0
20
-2000.0
30
0
11
77800.0
21
-1880.0
31
0
0
LINE
8
interiors
10
77800.0
20
-1880.0
30
0
11
80200.0
21
-1880.0
31
0
0
LINE
8
interiors
10
76400.0
20
5880.0
30
0
11
81600.0
21
5880.0
31
0
0
LINE
8
interiors
10
76400.0
20
5880.0
30
0
11
76400.0
21
6000.0
31
0
0
LINE
8
interiors
10
81600.0
20
5880.0
30
0
11
81600.0
21
6000.0
31
0
0
LINE
8
interiors
10
76400.0
20
5977.5
30
0
11
76400.0
21
6022.5
31
0
0
LINE
8
interiors
10
81600.0
20
5977.5
30
0
11
81600.0
21
6022.5
31
0
0
LINE
8
interiors
10
76400.0
20
5977.5
30
0
11
81600.0
21
5977.5
31
0
0
LINE
8
interiors
10
76400.0
20
6022.5
30
0
11
81600.0
21
6022.5
31
0
0
LINE
8
interiors
10
74125.0
20
-1875.0
30
0
11
74125.0
21
5875.0
31
0
0
LINE
8
interiors
10
83875.0
20
-1875.0
30
0
11
83875.0
21
5875.0
31
0
0
LINE
8
interiors
10
74125.0
20
-1875.0
30
0
11
83875.0
21
-1875.0
31
0
0
LINE
8
interiors
10
74125.0
20
5875.0
30
0
11
83875.0
21
5875.0
31
0
0
LINE
8
interiors
10
77845.0
20
-2120.0
30
0
11
77845.0
21
-1880.0
31
0
0
LINE
8
interiors
10
77915.0
20
-2120.0
30
0
11
77915.0
21
-1880.0
31
0
0
LINE
8
interiors
10
77845.0
20
-2120.0
30
0
11
77915.0
21
-2120.0
31
0
0
LINE
8
interiors
10
77845.0
20
-1880.0
30
0
11
77915.0
21
-1880.0
31
0
0
LINE
8
interiors
10
80085.0
20
-2120.0
30
0
11
80085.0
21
-1880.0
31
0
0
LINE
8
interiors
10
80155.0
20
-2120.0
30
0
11
80155.0
21
-1880.0
31
0
0
LINE
8
interiors
10
80085.0
20
-2120.0
30
0
11
80155.0
21
-2120.0
31
0
0
LINE
8
interiors
10
80085.0
20
-1880.0
30
0
11
80155.0
21
-1880.0
31
0
0
LINE
8
interiors
10
77850.0
20
-2120.0
30
0
11
77850.0
21
-1880.0
31
0
0
LINE
8
interiors
10
80150.0
20
-2120.0
30
0
11
80150.0
21
-1880.0
31
0
0
LINE
8
interiors
10
77850.0
20
-2120.0
30
0
11
80150.0
21
-2120.0
31
0
0
LINE
8
interiors
10
77850.0
20
-1880.0
30
0
11
80150.0
21
-1880.0
31
0
0
LINE
8
interiors
10
77930.39
20
-1909.51
30
0
11
77889.61
21
-1890.49
31
0
0
LINE
8
interiors
10
78386.82
20
-930.7
30
0
11
78346.04
21
-911.68
31
0
0
LINE
8
interiors
10
77930.39
20
-1909.51
30
0
11
78386.82
21
-930.7
31
0
0
LINE
8
interiors
10
77889.61
20
-1890.49
30
0
11
78346.04
21
-911.68
31
0
0
LINE
8
interiors
10
75205.0
20
3100.0
30
0
11
75205.0
21
4100.0
31
0
0
LINE
8
interiors
10
75295.0
20
3100.0
30
0
11
75295.0
21
4100.0
31
0
0
LINE
8
interiors
10
75205.0
20
3100.0
30
0
11
75295.0
21
3100.0
31
0
0
LINE
8
interiors
10
75205.0
20
4100.0
30
0
11
75295.0
21
4100.0
31
0
0
LINE
8
interiors
10
77705.0
20
3100.0
30
0
11
77705.0
21
4100.0
31
0
0
LINE
8
interiors
10
77795.0
20
3100.0
30
0
11
77795.0
21
4100.0
31
0
0
LINE
8
interiors
10
77705.0
20
3100.0
30
0
11
77795.0
21
3100.0
31
0
0
LINE
8
interiors
10
77705.0
20
4100.0
30
0
11
77795.0
21
4100.0
31
0
0
LINE
8
interiors
10
75200.0
20
3100.0
30
0
11
75200.0
21
4100.0
31
0
0
LINE
8
interiors
10
77800.0
20
3100.0
30
0
11
77800.0
21
4100.0
31
0
0
LINE
8
interiors
10
75200.0
20
3100.0
30
0
11
77800.0
21
3100.0
31
0
0
LINE
8
interiors
10
75200.0
20
4100.0
30
0
11
77800.0
21
4100.0
31
0
0
LINE
8
interiors
10
80205.0
20
3100.0
30
0
11
80205.0
21
4100.0
31
0
0
LINE
8
interiors
10
80295.0
20
3100.0
30
0
11
80295.0
21
4100.0
31
0
0
LINE
8
interiors
10
80205.0
20
3100.0
30
0
11
80295.0
21
3100.0
31
0
0
LINE
8
interiors
10
80205.0
20
4100.0
30
0
11
80295.0
21
4100.0
31
0
0
LINE
8
interiors
10
82705.0
20
3100.0
30
0
11
82705.0
21
4100.0
31
0
0
LINE
8
interiors
10
82795.0
20
3100.0
30
0
11
82795.0
21
4100.0
31
0
0
LINE
8
interiors
10
82705.0
20
3100.0
30
0
11
82795.0
21
3100.0
31
0
0
LINE
8
interiors
10
82705.0
20
4100.0
30
0
11
82795.0
21
4100.0
31
0
0
LINE
8
interiors
10
80200.0
20
3100.0
30
0
11
80200.0
21
4100.0
31
0
0
LINE
8
interiors
10
82800.0
20
3100.0
30
0
11
82800.0
21
4100.0
31
0
0
LINE
8
interiors
10
80200.0
20
3100.0
30
0
11
82800.0
21
3100.0
31
0
0
LINE
8
interiors
10
80200.0
20
4100.0
30
0
11
82800.0
21
4100.0
31
0
0
LINE
8
interiors
10
78600.0
20
-100.0
30
0
11
78600.0
21
900.0
31
0
0
LINE
8
interiors
10
79400.0
20
-100.0
30
0
11
79400.0
21
900.0
31
0
0
LINE
8
interiors
10
78600.0
20
-100.0
30
0
11
79400.0
21
-100.0
31
0
0
LINE
8
interiors
10
78600.0
20
900.0
30
0
11
79400.0
21
900.0
31
0
0
LINE
8
interiors
10
78690.0
20
-117.5
30
0
11
78690.0
21
-92.5
31
0
0
LINE
8
interiors
10
79310.0
20
-117.5
30
0
11
79310.0
21
-92.5
31
0
0
LINE
8
interiors
10
78690.0
20
-117.5
30
0
11
79310.0
21
-117.5
31
0
0
LINE
8
interiors
10
78690.0
20
-92.5
30
0
11
79310.0
21
-92.5
31
0
0
LINE
8
electrical
10
83275.0
20
-1925.0
30
0
11
83275.0
21
-1675.0
31
0
0
LINE
8
electrical
10
83825.0
20
-1925.0
30
0
11
83825.0
21
-1675.0
31
0
0
LINE
8
electrical
10
83275.0
20
-1925.0
30
0
11
83825.0
21
-1925.0
31
0
0
LINE
8
electrical
10
83275.0
20
-1675.0
30
0
11
83825.0
21
-1675.0
31
0
0
LINE
8
electrical
10
83315.0
20
-1952.5
30
0
11
83315.0
21
-1917.5
31
0
0
LINE
8
electrical
10
83785.0
20
-1952.5
30
0
11
83785.0
21
-1917.5
31
0
0
LINE
8
electrical
10
83315.0
20
-1952.5
30
0
11
83785.0
21
-1952.5
31
0
0
LINE
8
electrical
10
83315.0
20
-1917.5
30
0
11
83785.0
21
-1917.5
31
0
0
LINE
8
electrical
10
83362.5
20
-1990.0
30
0
11
83362.5
21
-1950.0
31
0
0
LINE
8
electrical
10
83462.5
20
-1990.0
30
0
11
83462.5
21
-1950.0
31
0
0
LINE
8
electrical
10
83362.5
20
-1990.0
30
0
11
83462.5
21
-1990.0
31
0
0
LINE
8
electrical
10
83362.5
20
-1950.0
30
0
11
83462.5
21
-1950.0
31
0
0
LINE
8
electrical
10
83500.0
20
-1990.0
30
0
11
83500.0
21
-1950.0
31
0
0
LINE
8
electrical
10
83600.0
20
-1990.0
30
0
11
83600.0
21
-1950.0
31
0
0
LINE
8
electrical
10
83500.0
20
-1990.0
30
0
11
83600.0
21
-1990.0
31
0
0
LINE
8
electrical
10
83500.0
20
-1950.0
30
0
11
83600.0
21
-1950.0
31
0
0
LINE
8
electrical
10
83637.5
20
-1990.0
30
0
11
83637.5
21
-1950.0
31
0
0
LINE
8
electrical
10
83737.5
20
-1990.0
30
0
11
83737.5
21
-1950.0
31
0
0
LINE
8
electrical
10
83637.5
20
-1990.0
30
0
11
83737.5
21
-1990.0
31
0
0
LINE
8
electrical
10
83637.5
20
-1950.0
30
0
11
83737.5
21
-1950.0
31
0
0
LINE
8
electrical
10
83412.5
20
-2005.0
30
0
11
83435.88
21
-2005.0
31
0
0
LINE
8
electrical
10
83435.88
20
-2005.0
30
0
11
83389.12
21
-2005.0
31
0
0
LINE
8
electrical
10
83389.12
20
-2005.0
30
0
11
83412.5
21
-2005.0
31
0
0
LINE
8
electrical
10
83412.5
20
-1980.0
30
0
11
83412.5
21
-2005.0
31
0
0
LINE
8
electrical
10
83412.5
20
-1980.0
30
0
11
83435.88
21
-1980.0
31
0
0
LINE
8
electrical
10
83435.88
20
-1980.0
30
0
11
83389.12
21
-1980.0
31
0
0
LINE
8
electrical
10
83389.12
20
-1980.0
30
0
11
83412.5
21
-1980.0
31
0
0
LINE
8
electrical
10
83550.0
20
-2005.0
30
0
11
83573.38
21
-2005.0
31
0
0
LINE
8
electrical
10
83573.38
20
-2005.0
30
0
11
83526.62
21
-2005.0
31
0
0
LINE
8
electrical
10
83526.62
20
-2005.0
30
0
11
83550.0
21
-2005.0
31
0
0
LINE
8
electrical
10
83550.0
20
-1980.0
30
0
11
83550.0
21
-2005.0
31
0
0
LINE
8
electrical
10
83550.0
20
-1980.0
30
0
11
83573.38
21
-1980.0
31
0
0
LINE
8
electrical
10
83573.38
20
-1980.0
30
0
11
83526.62
21
-1980.0
31
0
0
LINE
8
electrical
10
83526.62
20
-1980.0
30
0
11
83550.0
21
-1980.0
31
0
0
LINE
8
electrical
10
83687.5
20
-2005.0
30
0
11
83710.88
21
-2005.0
31
0
0
LINE
8
electrical
10
83710.88
20
-2005.0
30
0
11
83664.12
21
-2005.0
31
0
0
LINE
8
electrical
10
83664.12
20
-2005.0
30
0
11
83687.5
21
-2005.0
31
0
0
LINE
8
electrical
10
83687.5
20
-1980.0
30
0
11
83687.5
21
-2005.0
31
0
0
LINE
8
electrical
10
83687.5
20
-1980.0
30
0
11
83710.88
21
-1980.0
31
0
0
LINE
8
electrical
10
83710.88
20
-1980.0
30
0
11
83664.12
21
-1980.0
31
0
0
LINE
8
electrical
10
83664.12
20
-1980.0
30
0
11
83687.5
21
-1980.0
31
0
0
LINE
8
electrical
10
83550.0
20
-1800.0
30
0
11
83565.59
21
-1800.0
31
0
0
LINE
8
electrical
10
83565.59
20
-1800.0
30
0
11
83534.41
21
-1800.0
31
0
0
LINE
8
electrical
10
83534.41
20
-1800.0
30
0
11
83550.0
21
-1800.0
31
0
0
LINE
8
electrical
10
83550.0
20
-34800.0
30
0
11
83550.0
21
-1800.0
31
0
0
LINE
8
electrical
10
83550.0
20
-34800.0
30
0
11
83565.59
21
-34800.0
31
0
0
LINE
8
electrical
10
83565.59
20
-34800.0
30
0
11
83534.41
21
-34800.0
31
0
0
LINE
8
electrical
10
83534.41
20
-34800.0
30
0
11
83550.0
21
-34800.0
31
0
0
LINE
8
electrical
10
83532.0
20
-1800.0
30
0
11
83559.0
21
-1784.41
31
0
0
LINE
8
electrical
10
83559.0
20
-1784.41
30
0
11
83559.0
21
-1815.59
31
0
0
LINE
8
electrical
10
83559.0
20
-1815.59
30
0
11
83532.0
21
-1800.0
31
0
0
LINE
8
electrical
10
83550.0
20
-1800.0
30
0
11
83569.44
21
-1800.0
31
0
0
LINE
8
electrical
10
83569.44
20
-1800.0
30
0
11
83550.0
21
-1800.0
31
0
0
LINE
8
lighting
10
75080.0
20
-1040.0
30
0
11
75080.0
21
-400.0
31
0
0
LINE
8
lighting
10
75720.0
20
-1040.0
30
0
11
75720.0
21
-400.0
31
0
0
LINE
8
lighting
10
75080.0
20
-1040.0
30
0
11
75720.0
21
-1040.0
31
0
0
LINE
8
lighting
10
75080.0
20
-400.0
30
0
11
75720.0
21
-400.0
31
0
0
LINE
8
lighting
10
75120.0
20
-1000.0
30
0
11
75120.0
21
-440.0
31
0
0
LINE
8
lighting
10
75680.0
20
-1000.0
30
0
11
75680.0
21
-440.0
31
0
0
LINE
8
lighting
10
75120.0
20
-1000.0
30
0
11
75680.0
21
-1000.0
31
0
0
LINE
8
lighting
10
75120.0
20
-440.0
30
0
11
75680.0
21
-440.0
31
0
0
LINE
8
lighting
10
75154.0
20
-990.0
30
0
11
75154.0
21
-450.0
31
0
0
LINE
8
lighting
10
75166.0
20
-990.0
30
0
11
75166.0
21
-450.0
31
0
0
LINE
8
lighting
10
75154.0
20
-990.0
30
0
11
75166.0
21
-990.0
31
0
0
LINE
8
lighting
10
75154.0
20
-450.0
30
0
11
75166.0
21
-450.0
31
0
0
LINE
8
lighting
10
75234.0
20
-990.0
30
0
11
75234.0
21
-450.0
31
0
0
LINE
8
lighting
10
75246.0
20
-990.0
30
0
11
75246.0
21
-450.0
31
0
0
LINE
8
lighting
10
75234.0
20
-990.0
30
0
11
75246.0
21
-990.0
31
0
0
LINE
8
lighting
10
75234.0
20
-450.0
30
0
11
75246.0
21
-450.0
31
0
0
LINE
8
lighting
10
75314.0
20
-990.0
30
0
11
75314.0
21
-450.0
31
0
0
LINE
8
lighting
10
75326.0
20
-990.0
30
0
11
75326.0
21
-450.0
31
0
0
LINE
8
lighting
10
75314.0
20
-990.0
30
0
11
75326.0
21
-990.0
31
0
0
LINE
8
lighting
10
75314.0
20
-450.0
30
0
11
75326.0
21
-450.0
31
0
0
LINE
8
lighting
10
75394.0
20
-990.0
30
0
11
75394.0
21
-450.0
31
0
0
LINE
8
lighting
10
75406.0
20
-990.0
30
0
11
75406.0
21
-450.0
31
0
0
LINE
8
lighting
10
75394.0
20
-990.0
30
0
11
75406.0
21
-990.0
31
0
0
LINE
8
lighting
10
75394.0
20
-450.0
30
0
11
75406.0
21
-450.0
31
0
0
LINE
8
lighting
10
75474.0
20
-990.0
30
0
11
75474.0
21
-450.0
31
0
0
LINE
8
lighting
10
75486.0
20
-990.0
30
0
11
75486.0
21
-450.0
31
0
0
LINE
8
lighting
10
75474.0
20
-990.0
30
0
11
75486.0
21
-990.0
31
0
0
LINE
8
lighting
10
75474.0
20
-450.0
30
0
11
75486.0
21
-450.0
31
0
0
LINE
8
lighting
10
75554.0
20
-990.0
30
0
11
75554.0
21
-450.0
31
0
0
LINE
8
lighting
10
75566.0
20
-990.0
30
0
11
75566.0
21
-450.0
31
0
0
LINE
8
lighting
10
75554.0
20
-990.0
30
0
11
75566.0
21
-990.0
31
0
0
LINE
8
lighting
10
75554.0
20
-450.0
30
0
11
75566.0
21
-450.0
31
0
0
LINE
8
lighting
10
75634.0
20
-990.0
30
0
11
75634.0
21
-450.0
31
0
0
LINE
8
lighting
10
75646.0
20
-990.0
30
0
11
75646.0
21
-450.0
31
0
0
LINE
8
lighting
10
75634.0
20
-990.0
30
0
11
75646.0
21
-990.0
31
0
0
LINE
8
lighting
10
75634.0
20
-450.0
30
0
11
75646.0
21
-450.0
31
0
0
LINE
8
lighting
10
75409.0
20
-720.0
30
0
11
75395.5
21
-712.21
31
0
0
LINE
8
lighting
10
75395.5
20
-712.21
30
0
11
75395.5
21
-727.79
31
0
0
LINE
8
lighting
10
75395.5
20
-727.79
30
0
11
75409.0
21
-720.0
31
0
0
LINE
8
lighting
10
82280.0
20
-1040.0
30
0
11
82280.0
21
-400.0
31
0
0
LINE
8
lighting
10
82920.0
20
-1040.0
30
0
11
82920.0
21
-400.0
31
0
0
LINE
8
lighting
10
82280.0
20
-1040.0
30
0
11
82920.0
21
-1040.0
31
0
0
LINE
8
lighting
10
82280.0
20
-400.0
30
0
11
82920.0
21
-400.0
31
0
0
LINE
8
lighting
10
82320.0
20
-1000.0
30
0
11
82320.0
21
-440.0
31
0
0
LINE
8
lighting
10
82880.0
20
-1000.0
30
0
11
82880.0
21
-440.0
31
0
0
LINE
8
lighting
10
82320.0
20
-1000.0
30
0
11
82880.0
21
-1000.0
31
0
0
LINE
8
lighting
10
82320.0
20
-440.0
30
0
11
82880.0
21
-440.0
31
0
0
LINE
8
lighting
10
82354.0
20
-990.0
30
0
11
82354.0
21
-450.0
31
0
0
LINE
8
lighting
10
82366.0
20
-990.0
30
0
11
82366.0
21
-450.0
31
0
0
LINE
8
lighting
10
82354.0
20
-990.0
30
0
11
82366.0
21
-990.0
31
0
0
LINE
8
lighting
10
82354.0
20
-450.0
30
0
11
82366.0
21
-450.0
31
0
0
LINE
8
lighting
10
82434.0
20
-990.0
30
0
11
82434.0
21
-450.0
31
0
0
LINE
8
lighting
10
82446.0
20
-990.0
30
0
11
82446.0
21
-450.0
31
0
0
LINE
8
lighting
10
82434.0
20
-990.0
30
0
11
82446.0
21
-990.0
31
0
0
LINE
8
lighting
10
82434.0
20
-450.0
30
0
11
82446.0
21
-450.0
31
0
0
LINE
8
lighting
10
82514.0
20
-990.0
30
0
11
82514.0
21
-450.0
31
0
0
LINE
8
lighting
10
82526.0
20
-990.0
30
0
11
82526.0
21
-450.0
31
0
0
LINE
8
lighting
10
82514.0
20
-990.0
30
0
11
82526.0
21
-990.0
31
0
0
LINE
8
lighting
10
82514.0
20
-450.0
30
0
11
82526.0
21
-450.0
31
0
0
LINE
8
lighting
10
82594.0
20
-990.0
30
0
11
82594.0
21
-450.0
31
0
0
LINE
8
lighting
10
82606.0
20
-990.0
30
0
11
82606.0
21
-450.0
31
0
0
LINE
8
lighting
10
82594.0
20
-990.0
30
0
11
82606.0
21
-990.0
31
0
0
LINE
8
lighting
10
82594.0
20
-450.0
30
0
11
82606.0
21
-450.0
31
0
0
LINE
8
lighting
10
82674.0
20
-990.0
30
0
11
82674.0
21
-450.0
31
0
0
LINE
8
lighting
10
82686.0
20
-990.0
30
0
11
82686.0
21
-450.0
31
0
0
LINE
8
lighting
10
82674.0
20
-990.0
30
0
11
82686.0
21
-990.0
31
0
0
LINE
8
lighting
10
82674.0
20
-450.0
30
0
11
82686.0
21
-450.0
31
0
0
LINE
8
lighting
10
82754.0
20
-990.0
30
0
11
82754.0
21
-450.0
31
0
0
LINE
8
lighting
10
82766.0
20
-990.0
30
0
11
82766.0
21
-450.0
31
0
0
LINE
8
lighting
10
82754.0
20
-990.0
30
0
11
82766.0
21
-990.0
31
0
0
LINE
8
lighting
10
82754.0
20
-450.0
30
0
11
82766.0
21
-450.0
31
0
0
LINE
8
lighting
10
82834.0
20
-990.0
30
0
11
82834.0
21
-450.0
31
0
0
LINE
8
lighting
10
82846.0
20
-990.0
30
0
11
82846.0
21
-450.0
31
0
0
LINE
8
lighting
10
82834.0
20
-990.0
30
0
11
82846.0
21
-990.0
31
0
0
LINE
8
lighting
10
82834.0
20
-450.0
30
0
11
82846.0
21
-450.0
31
0
0
LINE
8
lighting
10
82609.0
20
-720.0
30
0
11
82595.5
21
-712.21
31
0
0
LINE
8
lighting
10
82595.5
20
-712.21
30
0
11
82595.5
21
-727.79
31
0
0
LINE
8
lighting
10
82595.5
20
-727.79
30
0
11
82609.0
21
-720.0
31
0
0
LINE
8
lighting
10
75080.0
20
4400.0
30
0
11
75080.0
21
5040.0
31
0
0
LINE
8
lighting
10
75720.0
20
4400.0
30
0
11
75720.0
21
5040.0
31
0
0
LINE
8
lighting
10
75080.0
20
4400.0
30
0
11
75720.0
21
4400.0
31
0
0
LINE
8
lighting
10
75080.0
20
5040.0
30
0
11
75720.0
21
5040.0
31
0
0
LINE
8
lighting
10
75120.0
20
4440.0
30
0
11
75120.0
21
5000.0
31
0
0
LINE
8
lighting
10
75680.0
20
4440.0
30
0
11
75680.0
21
5000.0
31
0
0
LINE
8
lighting
10
75120.0
20
4440.0
30
0
11
75680.0
21
4440.0
31
0
0
LINE
8
lighting
10
75120.0
20
5000.0
30
0
11
75680.0
21
5000.0
31
0
0
LINE
8
lighting
10
75154.0
20
4450.0
30
0
11
75154.0
21
4990.0
31
0
0
LINE
8
lighting
10
75166.0
20
4450.0
30
0
11
75166.0
21
4990.0
31
0
0
LINE
8
lighting
10
75154.0
20
4450.0
30
0
11
75166.0
21
4450.0
31
0
0
LINE
8
lighting
10
75154.0
20
4990.0
30
0
11
75166.0
21
4990.0
31
0
0
LINE
8
lighting
10
75234.0
20
4450.0
30
0
11
75234.0
21
4990.0
31
0
0
LINE
8
lighting
10
75246.0
20
4450.0
30
0
11
75246.0
21
4990.0
31
0
0
LINE
8
lighting
10
75234.0
20
4450.0
30
0
11
75246.0
21
4450.0
31
0
0
LINE
8
lighting
10
75234.0
20
4990.0
30
0
11
75246.0
21
4990.0
31
0
0
LINE
8
lighting
10
75314.0
20
4450.0
30
0
11
75314.0
21
4990.0
31
0
0
LINE
8
lighting
10
75326.0
20
4450.0
30
0
11
75326.0
21
4990.0
31
0
0
LINE
8
lighting
10
75314.0
20
4450.0
30
0
11
75326.0
21
4450.0
31
0
0
LINE
8
lighting
10
75314.0
20
4990.0
30
0
11
75326.0
21
4990.0
31
0
0
LINE
8
lighting
10
75394.0
20
4450.0
30
0
11
75394.0
21
4990.0
31
0
0
LINE
8
lighting
10
75406.0
20
4450.0
30
0
11
75406.0
21
4990.0
31
0
0
LINE
8
lighting
10
75394.0
20
4450.0
30
0
11
75406.0
21
4450.0
31
0
0
LINE
8
lighting
10
75394.0
20
4990.0
30
0
11
75406.0
21
4990.0
31
0
0
LINE
8
lighting
10
75474.0
20
4450.0
30
0
11
75474.0
21
4990.0
31
0
0
LINE
8
lighting
10
75486.0
20
4450.0
30
0
11
75486.0
21
4990.0
31
0
0
LINE
8
lighting
10
75474.0
20
4450.0
30
0
11
75486.0
21
4450.0
31
0
0
LINE
8
lighting
10
75474.0
20
4990.0
30
0
11
75486.0
21
4990.0
31
0
0
LINE
8
lighting
10
75554.0
20
4450.0
30
0
11
75554.0
21
4990.0
31
0
0
LINE
8
lighting
10
75566.0
20
4450.0
30
0
11
75566.0
21
4990.0
31
0
0
LINE
8
lighting
10
75554.0
20
4450.0
30
0
11
75566.0
21
4450.0
31
0
0
LINE
8
lighting
10
75554.0
20
4990.0
30
0
11
75566.0
21
4990.0
31
0
0
LINE
8
lighting
10
75634.0
20
4450.0
30
0
11
75634.0
21
4990.0
31
0
0
LINE
8
lighting
10
75646.0
20
4450.0
30
0
11
75646.0
21
4990.0
31
0
0
LINE
8
lighting
10
75634.0
20
4450.0
30
0
11
75646.0
21
4450.0
31
0
0
LINE
8
lighting
10
75634.0
20
4990.0
30
0
11
75646.0
21
4990.0
31
0
0
LINE
8
lighting
10
75409.0
20
4720.0
30
0
11
75395.5
21
4727.79
31
0
0
LINE
8
lighting
10
75395.5
20
4727.79
30
0
11
75395.5
21
4712.21
31
0
0
LINE
8
lighting
10
75395.5
20
4712.21
30
0
11
75409.0
21
4720.0
31
0
0
LINE
8
lighting
10
82280.0
20
4400.0
30
0
11
82280.0
21
5040.0
31
0
0
LINE
8
lighting
10
82920.0
20
4400.0
30
0
11
82920.0
21
5040.0
31
0
0
LINE
8
lighting
10
82280.0
20
4400.0
30
0
11
82920.0
21
4400.0
31
0
0
LINE
8
lighting
10
82280.0
20
5040.0
30
0
11
82920.0
21
5040.0
31
0
0
LINE
8
lighting
10
82320.0
20
4440.0
30
0
11
82320.0
21
5000.0
31
0
0
LINE
8
lighting
10
82880.0
20
4440.0
30
0
11
82880.0
21
5000.0
31
0
0
LINE
8
lighting
10
82320.0
20
4440.0
30
0
11
82880.0
21
4440.0
31
0
0
LINE
8
lighting
10
82320.0
20
5000.0
30
0
11
82880.0
21
5000.0
31
0
0
LINE
8
lighting
10
82354.0
20
4450.0
30
0
11
82354.0
21
4990.0
31
0
0
LINE
8
lighting
10
82366.0
20
4450.0
30
0
11
82366.0
21
4990.0
31
0
0
LINE
8
lighting
10
82354.0
20
4450.0
30
0
11
82366.0
21
4450.0
31
0
0
LINE
8
lighting
10
82354.0
20
4990.0
30
0
11
82366.0
21
4990.0
31
0
0
LINE
8
lighting
10
82434.0
20
4450.0
30
0
11
82434.0
21
4990.0
31
0
0
LINE
8
lighting
10
82446.0
20
4450.0
30
0
11
82446.0
21
4990.0
31
0
0
LINE
8
lighting
10
82434.0
20
4450.0
30
0
11
82446.0
21
4450.0
31
0
0
LINE
8
lighting
10
82434.0
20
4990.0
30
0
11
82446.0
21
4990.0
31
0
0
LINE
8
lighting
10
82514.0
20
4450.0
30
0
11
82514.0
21
4990.0
31
0
0
LINE
8
lighting
10
82526.0
20
4450.0
30
0
11
82526.0
21
4990.0
31
0
0
LINE
8
lighting
10
82514.0
20
4450.0
30
0
11
82526.0
21
4450.0
31
0
0
LINE
8
lighting
10
82514.0
20
4990.0
30
0
11
82526.0
21
4990.0
31
0
0
LINE
8
lighting
10
82594.0
20
4450.0
30
0
11
82594.0
21
4990.0
31
0
0
LINE
8
lighting
10
82606.0
20
4450.0
30
0
11
82606.0
21
4990.0
31
0
0
LINE
8
lighting
10
82594.0
20
4450.0
30
0
11
82606.0
21
4450.0
31
0
0
LINE
8
lighting
10
82594.0
20
4990.0
30
0
11
82606.0
21
4990.0
31
0
0
LINE
8
lighting
10
82674.0
20
4450.0
30
0
11
82674.0
21
4990.0
31
0
0
LINE
8
lighting
10
82686.0
20
4450.0
30
0
11
82686.0
21
4990.0
31
0
0
LINE
8
lighting
10
82674.0
20
4450.0
30
0
11
82686.0
21
4450.0
31
0
0
LINE
8
lighting
10
82674.0
20
4990.0
30
0
11
82686.0
21
4990.0
31
0
0
LINE
8
lighting
10
82754.0
20
4450.0
30
0
11
82754.0
21
4990.0
31
0
0
LINE
8
lighting
10
82766.0
20
4450.0
30
0
11
82766.0
21
4990.0
31
0
0
LINE
8
lighting
10
82754.0
20
4450.0
30
0
11
82766.0
21
4450.0
31
0
0
LINE
8
lighting
10
82754.0
20
4990.0
30
0
11
82766.0
21
4990.0
31
0
0
LINE
8
lighting
10
82834.0
20
4450.0
30
0
11
82834.0
21
4990.0
31
0
0
LINE
8
lighting
10
82846.0
20
4450.0
30
0
11
82846.0
21
4990.0
31
0
0
LINE
8
lighting
10
82834.0
20
4450.0
30
0
11
82846.0
21
4450.0
31
0
0
LINE
8
lighting
10
82834.0
20
4990.0
30
0
11
82846.0
21
4990.0
31
0
0
LINE
8
lighting
10
82609.0
20
4720.0
30
0
11
82595.5
21
4727.79
31
0
0
LINE
8
lighting
10
82595.5
20
4727.79
30
0
11
82595.5
21
4712.21
31
0
0
LINE
8
lighting
10
82595.5
20
4712.21
30
0
11
82609.0
21
4720.0
31
0
0
LINE
8
electrical
10
75400.0
20
-920.0
30
0
11
75400.0
21
-927.79
31
0
0
LINE
8
electrical
10
75400.0
20
-927.79
30
0
11
75400.0
21
-912.21
31
0
0
LINE
8
electrical
10
75400.0
20
-912.21
30
0
11
75400.0
21
-920.0
31
0
0
LINE
8
electrical
10
83550.0
20
-920.0
30
0
11
75400.0
21
-920.0
31
0
0
LINE
8
electrical
10
83550.0
20
-920.0
30
0
11
83550.0
21
-927.79
31
0
0
LINE
8
electrical
10
83550.0
20
-927.79
30
0
11
83550.0
21
-912.21
31
0
0
LINE
8
electrical
10
83550.0
20
-912.21
30
0
11
83550.0
21
-920.0
31
0
0
LINE
8
electrical
10
75400.0
20
4720.0
30
0
11
75407.79
21
4720.0
31
0
0
LINE
8
electrical
10
75407.79
20
4720.0
30
0
11
75392.21
21
4720.0
31
0
0
LINE
8
electrical
10
75392.21
20
4720.0
30
0
11
75400.0
21
4720.0
31
0
0
LINE
8
electrical
10
75400.0
20
-920.0
30
0
11
75400.0
21
4720.0
31
0
0
LINE
8
electrical
10
75400.0
20
-920.0
30
0
11
75407.79
21
-920.0
31
0
0
LINE
8
electrical
10
75407.79
20
-920.0
30
0
11
75392.21
21
-920.0
31
0
0
LINE
8
electrical
10
75392.21
20
-920.0
30
0
11
75400.0
21
-920.0
31
0
0
LINE
8
electrical
10
82600.0
20
4720.0
30
0
11
82607.79
21
4720.0
31
0
0
LINE
8
electrical
10
82607.79
20
4720.0
30
0
11
82592.21
21
4720.0
31
0
0
LINE
8
electrical
10
82592.21
20
4720.0
30
0
11
82600.0
21
4720.0
31
0
0
LINE
8
electrical
10
82600.0
20
-920.0
30
0
11
82600.0
21
4720.0
31
0
0
LINE
8
electrical
10
82600.0
20
-920.0
30
0
11
82607.79
21
-920.0
31
0
0
LINE
8
electrical
10
82607.79
20
-920.0
30
0
11
82592.21
21
-920.0
31
0
0
LINE
8
electrical
10
82592.21
20
-920.0
30
0
11
82600.0
21
-920.0
31
0
0
LINE
8
electrical
10
83563.0
20
-1800.0
30
0
11
83543.5
21
-1788.74
31
0
0
LINE
8
electrical
10
83543.5
20
-1788.74
30
0
11
83543.5
21
-1811.26
31
0
0
LINE
8
electrical
10
83543.5
20
-1811.26
30
0
11
83563.0
21
-1800.0
31
0
0
LINE
8
electrical
10
82491.65
20
-929.96
30
0
11
82504.18
21
-915.02
31
0
0
LINE
8
electrical
10
82504.18
20
-915.02
30
0
11
82504.18
21
-915.02
31
0
0
LINE
8
electrical
10
82504.18
20
-915.02
30
0
11
82491.65
21
-929.96
31
0
0
LINE
8
electrical
10
83541.65
20
-1809.96
30
0
11
82491.65
21
-929.96
31
0
0
LINE
8
electrical
10
83541.65
20
-1809.96
30
0
11
83554.18
21
-1795.02
31
0
0
LINE
8
electrical
10
83554.18
20
-1795.02
30
0
11
83554.18
21
-1795.02
31
0
0
LINE
8
electrical
10
83554.18
20
-1795.02
30
0
11
83541.65
21
-1809.96
31
0
0
LINE
8
electrical
10
75500.0
20
-920.0
30
0
11
75500.0
21
-931.26
31
0
0
LINE
8
electrical
10
75500.0
20
-931.26
30
0
11
75500.0
21
-908.74
31
0
0
LINE
8
electrical
10
75500.0
20
-908.74
30
0
11
75500.0
21
-920.0
31
0
0
LINE
8
electrical
10
82500.0
20
-920.0
30
0
11
75500.0
21
-920.0
31
0
0
LINE
8
electrical
10
82500.0
20
-920.0
30
0
11
82500.0
21
-931.26
31
0
0
LINE
8
electrical
10
82500.0
20
-931.26
30
0
11
82500.0
21
-908.74
31
0
0
LINE
8
electrical
10
82500.0
20
-908.74
30
0
11
82500.0
21
-920.0
31
0
0
LINE
8
electrical
10
83550.0
20
-1800.0
30
0
11
83564.04
21
-1800.0
31
0
0
LINE
8
electrical
10
83564.04
20
-1800.0
30
0
11
83550.0
21
-1800.0
31
0
0
LINE
8
electrical
10
82500.0
20
-920.0
30
0
11
82514.04
21
-920.0
31
0
0
LINE
8
electrical
10
82514.04
20
-920.0
30
0
11
82500.0
21
-920.0
31
0
0
LINE
8
electrical
10
83563.0
20
-1800.0
30
0
11
83543.5
21
-1788.74
31
0
0
LINE
8
electrical
10
83543.5
20
-1788.74
30
0
11
83543.5
21
-1811.26
31
0
0
LINE
8
electrical
10
83543.5
20
-1811.26
30
0
11
83563.0
21
-1800.0
31
0
0
LINE
8
electrical
10
82491.03
20
-809.41
30
0
11
82504.48
21
-795.29
31
0
0
LINE
8
electrical
10
82504.48
20
-795.29
30
0
11
82504.48
21
-795.29
31
0
0
LINE
8
electrical
10
82504.48
20
-795.29
30
0
11
82491.03
21
-809.41
31
0
0
LINE
8
electrical
10
83541.03
20
-1809.41
30
0
11
82491.03
21
-809.41
31
0
0
LINE
8
electrical
10
83541.03
20
-1809.41
30
0
11
83554.48
21
-1795.29
31
0
0
LINE
8
electrical
10
83554.48
20
-1795.29
30
0
11
83554.48
21
-1795.29
31
0
0
LINE
8
electrical
10
83554.48
20
-1795.29
30
0
11
83541.03
21
-1809.41
31
0
0
LINE
8
electrical
10
75500.0
20
-800.0
30
0
11
75500.0
21
-811.26
31
0
0
LINE
8
electrical
10
75500.0
20
-811.26
30
0
11
75500.0
21
-788.74
31
0
0
LINE
8
electrical
10
75500.0
20
-788.74
30
0
11
75500.0
21
-800.0
31
0
0
LINE
8
electrical
10
82500.0
20
-800.0
30
0
11
75500.0
21
-800.0
31
0
0
LINE
8
electrical
10
82500.0
20
-800.0
30
0
11
82500.0
21
-811.26
31
0
0
LINE
8
electrical
10
82500.0
20
-811.26
30
0
11
82500.0
21
-788.74
31
0
0
LINE
8
electrical
10
82500.0
20
-788.74
30
0
11
82500.0
21
-800.0
31
0
0
LINE
8
electrical
10
83550.0
20
-1800.0
30
0
11
83564.04
21
-1800.0
31
0
0
LINE
8
electrical
10
83564.04
20
-1800.0
30
0
11
83550.0
21
-1800.0
31
0
0
LINE
8
electrical
10
82500.0
20
-800.0
30
0
11
82514.04
21
-800.0
31
0
0
LINE
8
electrical
10
82514.04
20
-800.0
30
0
11
82500.0
21
-800.0
31
0
0
LINE
8
electrical
10
83563.0
20
-1800.0
30
0
11
83543.5
21
-1788.74
31
0
0
LINE
8
electrical
10
83543.5
20
-1788.74
30
0
11
83543.5
21
-1811.26
31
0
0
LINE
8
electrical
10
83543.5
20
-1811.26
30
0
11
83563.0
21
-1800.0
31
0
0
LINE
8
electrical
10
82509.48
20
-671.11
30
0
11
82495.26
21
-684.45
31
0
0
LINE
8
electrical
10
82495.26
20
-684.45
30
0
11
82495.26
21
-684.45
31
0
0
LINE
8
electrical
10
82495.26
20
-684.45
30
0
11
82509.48
21
-671.11
31
0
0
LINE
8
electrical
10
83559.48
20
-1791.11
30
0
11
82509.48
21
-671.11
31
0
0
LINE
8
electrical
10
83559.48
20
-1791.11
30
0
11
83545.26
21
-1804.45
31
0
0
LINE
8
electrical
10
83545.26
20
-1804.45
30
0
11
83545.26
21
-1804.45
31
0
0
LINE
8
electrical
10
83545.26
20
-1804.45
30
0
11
83559.48
21
-1791.11
31
0
0
LINE
8
electrical
10
75500.0
20
-680.0
30
0
11
75500.0
21
-691.26
31
0
0
LINE
8
electrical
10
75500.0
20
-691.26
30
0
11
75500.0
21
-668.74
31
0
0
LINE
8
electrical
10
75500.0
20
-668.74
30
0
11
75500.0
21
-680.0
31
0
0
LINE
8
electrical
10
82500.0
20
-680.0
30
0
11
75500.0
21
-680.0
31
0
0
LINE
8
electrical
10
82500.0
20
-680.0
30
0
11
82500.0
21
-691.26
31
0
0
LINE
8
electrical
10
82500.0
20
-691.26
30
0
11
82500.0
21
-668.74
31
0
0
LINE
8
electrical
10
82500.0
20
-668.74
30
0
11
82500.0
21
-680.0
31
0
0
LINE
8
electrical
10
83550.0
20
-1800.0
30
0
11
83564.04
21
-1800.0
31
0
0
LINE
8
electrical
10
83564.04
20
-1800.0
30
0
11
83550.0
21
-1800.0
31
0
0
LINE
8
electrical
10
82500.0
20
-680.0
30
0
11
82514.04
21
-680.0
31
0
0
LINE
8
electrical
10
82514.04
20
-680.0
30
0
11
82500.0
21
-680.0
31
0
0
LINE
8
electrical
10
75935.0
20
-1850.0
30
0
11
75935.0
21
-1790.0
31
0
0
LINE
8
electrical
10
76065.0
20
-1850.0
30
0
11
76065.0
21
-1790.0
31
0
0
LINE
8
electrical
10
75935.0
20
-1850.0
30
0
11
76065.0
21
-1850.0
31
0
0
LINE
8
electrical
10
75935.0
20
-1790.0
30
0
11
76065.0
21
-1790.0
31
0
0
LINE
8
electrical
10
76009.0
20
-1820.0
30
0
11
75995.5
21
-1812.21
31
0
0
LINE
8
electrical
10
75995.5
20
-1812.21
30
0
11
75995.5
21
-1827.79
31
0
0
LINE
8
electrical
10
75995.5
20
-1827.79
30
0
11
76009.0
21
-1820.0
31
0
0
LINE
8
electrical
10
83550.0
20
-1820.0
30
0
11
83550.0
21
-1827.79
31
0
0
LINE
8
electrical
10
83550.0
20
-1827.79
30
0
11
83550.0
21
-1812.21
31
0
0
LINE
8
electrical
10
83550.0
20
-1812.21
30
0
11
83550.0
21
-1820.0
31
0
0
LINE
8
electrical
10
76000.0
20
-1820.0
30
0
11
83550.0
21
-1820.0
31
0
0
LINE
8
electrical
10
76000.0
20
-1820.0
30
0
11
76000.0
21
-1827.79
31
0
0
LINE
8
electrical
10
76000.0
20
-1827.79
30
0
11
76000.0
21
-1812.21
31
0
0
LINE
8
electrical
10
76000.0
20
-1812.21
30
0
11
76000.0
21
-1820.0
31
0
0
LINE
8
electrical
10
76000.0
20
-1820.0
30
0
11
76009.72
21
-1820.0
31
0
0
LINE
8
electrical
10
76009.72
20
-1820.0
30
0
11
76000.0
21
-1820.0
31
0
0
LINE
8
electrical
10
81935.0
20
-1850.0
30
0
11
81935.0
21
-1790.0
31
0
0
LINE
8
electrical
10
82065.0
20
-1850.0
30
0
11
82065.0
21
-1790.0
31
0
0
LINE
8
electrical
10
81935.0
20
-1850.0
30
0
11
82065.0
21
-1850.0
31
0
0
LINE
8
electrical
10
81935.0
20
-1790.0
30
0
11
82065.0
21
-1790.0
31
0
0
LINE
8
electrical
10
82009.0
20
-1820.0
30
0
11
81995.5
21
-1812.21
31
0
0
LINE
8
electrical
10
81995.5
20
-1812.21
30
0
11
81995.5
21
-1827.79
31
0
0
LINE
8
electrical
10
81995.5
20
-1827.79
30
0
11
82009.0
21
-1820.0
31
0
0
LINE
8
electrical
10
83550.0
20
-1820.0
30
0
11
83550.0
21
-1827.79
31
0
0
LINE
8
electrical
10
83550.0
20
-1827.79
30
0
11
83550.0
21
-1812.21
31
0
0
LINE
8
electrical
10
83550.0
20
-1812.21
30
0
11
83550.0
21
-1820.0
31
0
0
LINE
8
electrical
10
82000.0
20
-1820.0
30
0
11
83550.0
21
-1820.0
31
0
0
LINE
8
electrical
10
82000.0
20
-1820.0
30
0
11
82000.0
21
-1827.79
31
0
0
LINE
8
electrical
10
82000.0
20
-1827.79
30
0
11
82000.0
21
-1812.21
31
0
0
LINE
8
electrical
10
82000.0
20
-1812.21
30
0
11
82000.0
21
-1820.0
31
0
0
LINE
8
electrical
10
82000.0
20
-1820.0
30
0
11
82009.72
21
-1820.0
31
0
0
LINE
8
electrical
10
82009.72
20
-1820.0
30
0
11
82000.0
21
-1820.0
31
0
0
LINE
8
hvac
10
74475.0
20
-1275.0
30
0
11
74475.0
21
-525.0
31
0
0
LINE
8
hvac
10
76125.0
20
-1275.0
30
0
11
76125.0
21
-525.0
31
0
0
LINE
8
hvac
10
74475.0
20
-1275.0
30
0
11
76125.0
21
-1275.0
31
0
0
LINE
8
hvac
10
74475.0
20
-525.0
30
0
11
76125.0
21
-525.0
31
0
0
LINE
8
hvac
10
74575.0
20
-1320.0
30
0
11
74575.0
21
-1280.0
31
0
0
LINE
8
hvac
10
76025.0
20
-1320.0
30
0
11
76025.0
21
-1280.0
31
0
0
LINE
8
hvac
10
74575.0
20
-1320.0
30
0
11
76025.0
21
-1320.0
31
0
0
LINE
8
hvac
10
74575.0
20
-1280.0
30
0
11
76025.0
21
-1280.0
31
0
0
LINE
8
hvac
10
74640.0
20
-1360.0
30
0
11
74640.0
21
-1300.0
31
0
0
LINE
8
hvac
10
74680.0
20
-1360.0
30
0
11
74680.0
21
-1300.0
31
0
0
LINE
8
hvac
10
74640.0
20
-1360.0
30
0
11
74680.0
21
-1360.0
31
0
0
LINE
8
hvac
10
74640.0
20
-1300.0
30
0
11
74680.0
21
-1300.0
31
0
0
LINE
8
hvac
10
74800.0
20
-1360.0
30
0
11
74800.0
21
-1300.0
31
0
0
LINE
8
hvac
10
74840.0
20
-1360.0
30
0
11
74840.0
21
-1300.0
31
0
0
LINE
8
hvac
10
74800.0
20
-1360.0
30
0
11
74840.0
21
-1360.0
31
0
0
LINE
8
hvac
10
74800.0
20
-1300.0
30
0
11
74840.0
21
-1300.0
31
0
0
LINE
8
hvac
10
74960.0
20
-1360.0
30
0
11
74960.0
21
-1300.0
31
0
0
LINE
8
hvac
10
75000.0
20
-1360.0
30
0
11
75000.0
21
-1300.0
31
0
0
LINE
8
hvac
10
74960.0
20
-1360.0
30
0
11
75000.0
21
-1360.0
31
0
0
LINE
8
hvac
10
74960.0
20
-1300.0
30
0
11
75000.0
21
-1300.0
31
0
0
LINE
8
hvac
10
75120.0
20
-1360.0
30
0
11
75120.0
21
-1300.0
31
0
0
LINE
8
hvac
10
75160.0
20
-1360.0
30
0
11
75160.0
21
-1300.0
31
0
0
LINE
8
hvac
10
75120.0
20
-1360.0
30
0
11
75160.0
21
-1360.0
31
0
0
LINE
8
hvac
10
75120.0
20
-1300.0
30
0
11
75160.0
21
-1300.0
31
0
0
LINE
8
hvac
10
75280.0
20
-1360.0
30
0
11
75280.0
21
-1300.0
31
0
0
LINE
8
hvac
10
75320.0
20
-1360.0
30
0
11
75320.0
21
-1300.0
31
0
0
LINE
8
hvac
10
75280.0
20
-1360.0
30
0
11
75320.0
21
-1360.0
31
0
0
LINE
8
hvac
10
75280.0
20
-1300.0
30
0
11
75320.0
21
-1300.0
31
0
0
LINE
8
hvac
10
75440.0
20
-1360.0
30
0
11
75440.0
21
-1300.0
31
0
0
LINE
8
hvac
10
75480.0
20
-1360.0
30
0
11
75480.0
21
-1300.0
31
0
0
LINE
8
hvac
10
75440.0
20
-1360.0
30
0
11
75480.0
21
-1360.0
31
0
0
LINE
8
hvac
10
75440.0
20
-1300.0
30
0
11
75480.0
21
-1300.0
31
0
0
LINE
8
hvac
10
75600.0
20
-1360.0
30
0
11
75600.0
21
-1300.0
31
0
0
LINE
8
hvac
10
75640.0
20
-1360.0
30
0
11
75640.0
21
-1300.0
31
0
0
LINE
8
hvac
10
75600.0
20
-1360.0
30
0
11
75640.0
21
-1360.0
31
0
0
LINE
8
hvac
10
75600.0
20
-1300.0
30
0
11
75640.0
21
-1300.0
31
0
0
LINE
8
hvac
10
75760.0
20
-1360.0
30
0
11
75760.0
21
-1300.0
31
0
0
LINE
8
hvac
10
75800.0
20
-1360.0
30
0
11
75800.0
21
-1300.0
31
0
0
LINE
8
hvac
10
75760.0
20
-1360.0
30
0
11
75800.0
21
-1360.0
31
0
0
LINE
8
hvac
10
75760.0
20
-1300.0
30
0
11
75800.0
21
-1300.0
31
0
0
LINE
8
hvac
10
75920.0
20
-1360.0
30
0
11
75920.0
21
-1300.0
31
0
0
LINE
8
hvac
10
75960.0
20
-1360.0
30
0
11
75960.0
21
-1300.0
31
0
0
LINE
8
hvac
10
75920.0
20
-1360.0
30
0
11
75960.0
21
-1360.0
31
0
0
LINE
8
hvac
10
75920.0
20
-1300.0
30
0
11
75960.0
21
-1300.0
31
0
0
LINE
8
hvac
10
75075.0
20
-1125.0
30
0
11
75075.0
21
-675.0
31
0
0
LINE
8
hvac
10
75525.0
20
-1125.0
30
0
11
75525.0
21
-675.0
31
0
0
LINE
8
hvac
10
75075.0
20
-1125.0
30
0
11
75525.0
21
-1125.0
31
0
0
LINE
8
hvac
10
75075.0
20
-675.0
30
0
11
75525.0
21
-675.0
31
0
0
LINE
8
hvac
10
75500.0
20
1825.0
30
0
11
75500.0
21
2175.0
31
0
0
LINE
8
hvac
10
82500.0
20
1825.0
30
0
11
82500.0
21
2175.0
31
0
0
LINE
8
hvac
10
75500.0
20
1825.0
30
0
11
82500.0
21
1825.0
31
0
0
LINE
8
hvac
10
75500.0
20
2175.0
30
0
11
82500.0
21
2175.0
31
0
0
LINE
8
hvac
10
75125.0
20
-1075.0
30
0
11
75125.0
21
-725.0
31
0
0
LINE
8
hvac
10
79175.0
20
-1075.0
30
0
11
79175.0
21
-725.0
31
0
0
LINE
8
hvac
10
75125.0
20
-1075.0
30
0
11
79175.0
21
-1075.0
31
0
0
LINE
8
hvac
10
75125.0
20
-725.0
30
0
11
79175.0
21
-725.0
31
0
0
LINE
8
hvac
10
78825.0
20
-1075.0
30
0
11
78825.0
21
2175.0
31
0
0
LINE
8
hvac
10
79175.0
20
-1075.0
30
0
11
79175.0
21
2175.0
31
0
0
LINE
8
hvac
10
78825.0
20
-1075.0
30
0
11
79175.0
21
-1075.0
31
0
0
LINE
8
hvac
10
78825.0
20
2175.0
30
0
11
79175.0
21
2175.0
31
0
0
LINE
8
hvac
10
76650.0
20
1650.0
30
0
11
76650.0
21
2350.0
31
0
0
LINE
8
hvac
10
77350.0
20
1650.0
30
0
11
77350.0
21
2350.0
31
0
0
LINE
8
hvac
10
76650.0
20
1650.0
30
0
11
77350.0
21
1650.0
31
0
0
LINE
8
hvac
10
76650.0
20
2350.0
30
0
11
77350.0
21
2350.0
31
0
0
LINE
8
hvac
10
80650.0
20
1650.0
30
0
11
80650.0
21
2350.0
31
0
0
LINE
8
hvac
10
81350.0
20
1650.0
30
0
11
81350.0
21
2350.0
31
0
0
LINE
8
hvac
10
80650.0
20
1650.0
30
0
11
81350.0
21
1650.0
31
0
0
LINE
8
hvac
10
80650.0
20
2350.0
30
0
11
81350.0
21
2350.0
31
0
0
LINE
8
sensors
10
74040.0
20
-320.0
30
0
11
74040.0
21
-160.0
31
0
0
LINE
8
sensors
10
74140.0
20
-320.0
30
0
11
74140.0
21
-160.0
31
0
0
LINE
8
sensors
10
74040.0
20
-320.0
30
0
11
74140.0
21
-320.0
31
0
0
LINE
8
sensors
10
74040.0
20
-160.0
30
0
11
74140.0
21
-160.0
31
0
0
LINE
8
sensors
10
74145.0
20
-295.0
30
0
11
74145.0
21
-185.0
31
0
0
LINE
8
sensors
10
74165.0
20
-295.0
30
0
11
74165.0
21
-185.0
31
0
0
LINE
8
sensors
10
74145.0
20
-295.0
30
0
11
74165.0
21
-295.0
31
0
0
LINE
8
sensors
10
74145.0
20
-185.0
30
0
11
74165.0
21
-185.0
31
0
0
LINE
8
sensors
10
74040.0
20
-20.0
30
0
11
74040.0
21
140.0
31
0
0
LINE
8
sensors
10
74140.0
20
-20.0
30
0
11
74140.0
21
140.0
31
0
0
LINE
8
sensors
10
74040.0
20
-20.0
30
0
11
74140.0
21
-20.0
31
0
0
LINE
8
sensors
10
74040.0
20
140.0
30
0
11
74140.0
21
140.0
31
0
0
LINE
8
sensors
10
74145.0
20
5.0
30
0
11
74145.0
21
115.0
31
0
0
LINE
8
sensors
10
74165.0
20
5.0
30
0
11
74165.0
21
115.0
31
0
0
LINE
8
sensors
10
74145.0
20
5.0
30
0
11
74165.0
21
5.0
31
0
0
LINE
8
sensors
10
74145.0
20
115.0
30
0
11
74165.0
21
115.0
31
0
0
LINE
8
sensors
10
74040.0
20
280.0
30
0
11
74040.0
21
440.0
31
0
0
LINE
8
sensors
10
74140.0
20
280.0
30
0
11
74140.0
21
440.0
31
0
0
LINE
8
sensors
10
74040.0
20
280.0
30
0
11
74140.0
21
280.0
31
0
0
LINE
8
sensors
10
74040.0
20
440.0
30
0
11
74140.0
21
440.0
31
0
0
LINE
8
sensors
10
74145.0
20
305.0
30
0
11
74145.0
21
415.0
31
0
0
LINE
8
sensors
10
74165.0
20
305.0
30
0
11
74165.0
21
415.0
31
0
0
LINE
8
sensors
10
74145.0
20
305.0
30
0
11
74165.0
21
305.0
31
0
0
LINE
8
sensors
10
74145.0
20
415.0
30
0
11
74165.0
21
415.0
31
0
0
LINE
8
sensors
10
79080.0
20
2000.0
30
0
11
79000.0
21
2080.0
31
0
0
LINE
8
sensors
10
79000.0
20
2080.0
30
0
11
78920.0
21
2000.0
31
0
0
LINE
8
sensors
10
78920.0
20
2000.0
30
0
11
79000.0
21
1920.0
31
0
0
LINE
8
sensors
10
79000.0
20
1920.0
30
0
11
79080.0
21
2000.0
31
0
0
LINE
8
sensors
10
79000.0
20
2000.0
30
0
11
79065.0
21
2000.0
31
0
0
LINE
8
sensors
10
79065.0
20
2000.0
30
0
11
79000.0
21
2000.0
31
0
0
LINE
8
sensors
10
74040.0
20
880.0
30
0
11
74040.0
21
1040.0
31
0
0
LINE
8
sensors
10
74140.0
20
880.0
30
0
11
74140.0
21
1040.0
31
0
0
LINE
8
sensors
10
74040.0
20
880.0
30
0
11
74140.0
21
880.0
31
0
0
LINE
8
sensors
10
74040.0
20
1040.0
30
0
11
74140.0
21
1040.0
31
0
0
LINE
8
sensors
10
74145.0
20
905.0
30
0
11
74145.0
21
1015.0
31
0
0
LINE
8
sensors
10
74165.0
20
905.0
30
0
11
74165.0
21
1015.0
31
0
0
LINE
8
sensors
10
74145.0
20
905.0
30
0
11
74165.0
21
905.0
31
0
0
LINE
8
sensors
10
74145.0
20
1015.0
30
0
11
74165.0
21
1015.0
31
0
0
ENDSEC
0
EOF
