0
SECTION
2
HEADER
9
$ACADVER
1
AC1015
9
$INSUNITS
70
4
0
ENDSEC
0
SECTION
2
ENTITIES
0
LINE
8
interiors
10
-71500.0
20
-14000.0
30
0
11
-71500.0
21
-2000.0
31
0
0
LINE
8
interiors
10
-71500.0
20
-14000.0
30
0
11
-65200.0
21
-14000.0
31
0
0
LINE
8
interiors
10
-65200.0
20
-14000.0
30
0
11
-62800.0
21
-14000.0
31
0
0
LINE
8
interiors
10
-62800.0
20
-14000.0
30
0
11
-56500.0
21
-14000.0
31
0
0
LINE
8
interiors
10
-71500.0
20
-14000.0
30
0
11
-56500.0
21
-14000.0
31
0
0
LINE
8
interiors
10
-71500.0
20
-2000.0
30
0
11
-56500.0
21
-2000.0
31
0
0
LINE
8
interiors
10
-56500.0
20
-14000.0
30
0
11
-56500.0
21
-2000.0
31
0
0
LINE
8
interiors
10
-56620.0
20
-13880.0
30
0
11
-71380.0
21
-13880.0
31
0
0
LINE
8
interiors
10
-56620.0
20
-13880.0
30
0
11
-56620.0
21
-2120.0
31
0
0
LINE
8
interiors
10
-56620.0
20
-2120.0
30
0
11
-71380.0
21
-2120.0
31
0
0
LINE
8
interiors
10
-71380.0
20
-13880.0
30
0
11
-71380.0
21
-2120.0
31
0
0
LINE
8
interiors
10
-67900.0
20
-2000.0
30
0
11
-60100.0
21
-2000.0
31
0
0
LINE
8
interiors
10
-62800.0
20
-14000.0
30
0
11
-62800.0
21
-13880.0
31
0
0
LINE
8
interiors
10
-56620.0
20
-13880.0
30
0
11
-62800.0
21
-13880.0
31
0
0
LINE
8
interiors
10
-65200.0
20
-13880.0
30
0
11
-71380.0
21
-13880.0
31
0
0
LINE
8
interiors
10
-65200.0
20
-14000.0
30
0
11
-65200.0
21
-13880.0
31
0
0
LINE
8
interiors
10
-65200.0
20
-13880.0
30
0
11
-62800.0
21
-13880.0
31
0
0
LINE
8
interiors
10
-67900.0
20
-2120.0
30
0
11
-60100.0
21
-2120.0
31
0
0
LINE
8
interiors
10
-67900.0
20
-2120.0
30
0
11
-67900.0
21
-2000.0
31
0
0
LINE
8
interiors
10
-60100.0
20
-2120.0
30
0
11
-60100.0
21
-2000.0
31
0
0
LINE
8
interiors
10
-67900.0
20
-2022.5
30
0
11
-67900.0
21
-1977.5
31
0
0
LINE
8
interiors
10
-60100.0
20
-2022.5
30
0
11
-60100.0
21
-1977.5
31
0
0
LINE
8
interiors
10
-67900.0
20
-2022.5
30
0
11
-60100.0
21
-2022.5
31
0
0
LINE
8
interiors
10
-67900.0
20
-1977.5
30
0
11
-60100.0
21
-1977.5
31
0
0
LINE
8
interiors
10
-71375.0
20
-13875.0
30
0
11
-71375.0
21
-2125.0
31
0
0
LINE
8
interiors
10
-56625.0
20
-13875.0
30
0
11
-56625.0
21
-2125.0
31
0
0
LINE
8
interiors
10
-71375.0
20
-13875.0
30
0
11
-56625.0
21
-13875.0
31
0
0
LINE
8
interiors
10
-71375.0
20
-2125.0
30
0
11
-56625.0
21
-2125.0
31
0
0
LINE
8
interiors
10
-65155.0
20
-14120.0
30
0
11
-65155.0
21
-13880.0
31
0
0
LINE
8
interiors
10
-65085.0
20
-14120.0
30
0
11
-65085.0
21
-13880.0
31
0
0
LINE
8
interiors
10
-65155.0
20
-14120.0
30
0
11
-65085.0
21
-14120.0
31
0
0
LINE
8
interiors
10
-65155.0
20
-13880.0
30
0
11
-65085.0
21
-13880.0
31
0
0
LINE
8
interiors
10
-62915.0
20
-14120.0
30
0
11
-62915.0
21
-13880.0
31
0
0
LINE
8
interiors
10
-62845.0
20
-14120.0
30
0
11
-62845.0
21
-13880.0
31
0
0
LINE
8
interiors
10
-62915.0
20
-14120.0
30
0
11
-62845.0
21
-14120.0
31
0
0
LINE
8
interiors
10
-62915.0
20
-13880.0
30
0
11
-62845.0
21
-13880.0
31
0
0
LINE
8
interiors
10
-65150.0
20
-14120.0
30
0
11
-65150.0
21
-13880.0
31
0
0
LINE
8
interiors
10
-62850.0
20
-14120.0
30
0
11
-62850.0
21
-13880.0
31
0
0
LINE
8
interiors
10
-65150.0
20
-14120.0
30
0
11
-62850.0
21
-14120.0
31
0
0
LINE
8
interiors
10
-65150.0
20
-13880.0
30
0
11
-62850.0
21
-13880.0
31
0
0
LINE
8
interiors
10
-65069.61
20
-13909.51
30
0
11
-65110.39
21
-13890.49
31
0
0
LINE
8
interiors
10
-64613.18
20
-12930.7
30
0
11
-64653.96
21
-12911.68
31
0
0
LINE
8
interiors
10
-65069.61
20
-13909.51
30
0
11
-64613.18
21
-12930.7
31
0
0
LINE
8
interiors
10
-65110.39
20
-13890.49
30
0
11
-64653.96
21
-12911.68
31
0
0
LINE
8
interiors
10
-68200.0
20
-11090.0
30
0
11
-68200.0
21
-10190.0
31
0
0
LINE
8
interiors
10
-66400.0
20
-11090.0
30
0
11
-66400.0
21
-10190.0
31
0
0
LINE
8
interiors
10
-68200.0
20
-11090.0
30
0
11
-66400.0
21
-11090.0
31
0
0
LINE
8
interiors
10
-68200.0
20
-10190.0
30
0
11
-66400.0
21
-10190.0
31
0
0
LINE
8
interiors
10
-68135.0
20
-11025.0
30
0
11
-68135.0
21
-10955.0
31
0
0
LINE
8
interiors
10
-68065.0
20
-11025.0
30
0
11
-68065.0
21
-10955.0
31
0
0
LINE
8
interiors
10
-68135.0
20
-11025.0
30
0
11
-68065.0
21
-11025.0
31
0
0
LINE
8
interiors
10
-68135.0
20
-10955.0
30
0
11
-68065.0
21
-10955.0
31
0
0
LINE
8
interiors
10
-68135.0
20
-10325.0
30
0
11
-68135.0
21
-10255.0
31
0
0
LINE
8
interiors
10
-68065.0
20
-10325.0
30
0
11
-68065.0
21
-10255.0
31
0
0
LINE
8
interiors
10
-68135.0
20
-10325.0
30
0
11
-68065.0
21
-10325.0
31
0
0
LINE
8
interiors
10
-68135.0
20
-10255.0
30
0
11
-68065.0
21
-10255.0
31
0
0
LINE
8
interiors
10
-66535.0
20
-11025.0
30
0
11
-66535.0
21
-10955.0
31
0
0
LINE
8
interiors
10
-66465.0
20
-11025.0
30
0
11
-66465.0
21
-10955.0
31
0
0
LINE
8
interiors
10
-66535.0
20
-11025.0
30
0
11
-66465.0
21
-11025.0
31
0
0
LINE
8
interiors
10
-66535.0
20
-10955.0
30
0
11
-66465.0
21
-10955.0
31
0
0
LINE
8
interiors
10
-66535.0
20
-10325.0
30
0
11
-66535.0
21
-10255.0
31
0
0
LINE
8
interiors
10
-66465.0
20
-10325.0
30
0
11
-66465.0
21
-10255.0
31
0
0
LINE
8
interiors
10
-66535.0
20
-10325.0
30
0
11
-66465.0
21
-10325.0
31
0
0
LINE
8
interiors
10
-66535.0
20
-10255.0
30
0
11
-66465.0
21
-10255.0
31
0
0
LINE
8
interiors
10
-67540.0
20
-11630.0
30
0
11
-67540.0
21
-11150.0
31
0
0
LINE
8
interiors
10
-67060.0
20
-11630.0
30
0
11
-67060.0
21
-11150.0
31
0
0
LINE
8
interiors
10
-67540.0
20
-11630.0
30
0
11
-67060.0
21
-11630.0
31
0
0
LINE
8
interiors
10
-67540.0
20
-11150.0
30
0
11
-67060.0
21
-11150.0
31
0
0
LINE
8
interiors
10
-67540.0
20
-11212.5
30
0
11
-67540.0
21
-11147.5
31
0
0
LINE
8
interiors
10
-67060.0
20
-11212.5
30
0
11
-67060.0
21
-11147.5
31
0
0
LINE
8
interiors
10
-67540.0
20
-11212.5
30
0
11
-67060.0
21
-11212.5
31
0
0
LINE
8
interiors
10
-67540.0
20
-11147.5
30
0
11
-67060.0
21
-11147.5
31
0
0
LINE
8
interiors
10
-67507.5
20
-11597.5
30
0
11
-67507.5
21
-11562.5
31
0
0
LINE
8
interiors
10
-67472.5
20
-11597.5
30
0
11
-67472.5
21
-11562.5
31
0
0
LINE
8
interiors
10
-67507.5
20
-11597.5
30
0
11
-67472.5
21
-11597.5
31
0
0
LINE
8
interiors
10
-67507.5
20
-11562.5
30
0
11
-67472.5
21
-11562.5
31
0
0
LINE
8
interiors
10
-67507.5
20
-11217.5
30
0
11
-67507.5
21
-11182.5
31
0
0
LINE
8
interiors
10
-67472.5
20
-11217.5
30
0
11
-67472.5
21
-11182.5
31
0
0
LINE
8
interiors
10
-67507.5
20
-11217.5
30
0
11
-67472.5
21
-11217.5
31
0
0
LINE
8
interiors
10
-67507.5
20
-11182.5
30
0
11
-67472.5
21
-11182.5
31
0
0
LINE
8
interiors
10
-67127.5
20
-11597.5
30
0
11
-67127.5
21
-11562.5
31
0
0
LINE
8
interiors
10
-67092.5
20
-11597.5
30
0
11
-67092.5
21
-11562.5
31
0
0
LINE
8
interiors
10
-67127.5
20
-11597.5
30
0
11
-67092.5
21
-11597.5
31
0
0
LINE
8
interiors
10
-67127.5
20
-11562.5
30
0
11
-67092.5
21
-11562.5
31
0
0
LINE
8
interiors
10
-67127.5
20
-11217.5
30
0
11
-67127.5
21
-11182.5
31
0
0
LINE
8
interiors
10
-67092.5
20
-11217.5
30
0
11
-67092.5
21
-11182.5
31
0
0
LINE
8
interiors
10
-67127.5
20
-11217.5
30
0
11
-67092.5
21
-11217.5
31
0
0
LINE
8
interiors
10
-67127.5
20
-11182.5
30
0
11
-67092.5
21
-11182.5
31
0
0
LINE
8
interiors
10
-67600.0
20
-10450.0
30
0
11
-67600.0
21
-10390.0
31
0
0
LINE
8
interiors
10
-67000.0
20
-10450.0
30
0
11
-67000.0
21
-10390.0
31
0
0
LINE
8
interiors
10
-67600.0
20
-10450.0
30
0
11
-67000.0
21
-10450.0
31
0
0
LINE
8
interiors
10
-67600.0
20
-10390.0
30
0
11
-67000.0
21
-10390.0
31
0
0
LINE
8
interiors
10
-67330.0
20
-10455.0
30
0
11
-67330.0
21
-10385.0
31
0
0
LINE
8
interiors
10
-67270.0
20
-10455.0
30
0
11
-67270.0
21
-10385.0
31
0
0
LINE
8
interiors
10
-67330.0
20
-10455.0
30
0
11
-67270.0
21
-10455.0
31
0
0
LINE
8
interiors
10
-67330.0
20
-10385.0
30
0
11
-67270.0
21
-10385.0
31
0
0
LINE
8
interiors
10
-67450.0
20
-10530.0
30
0
11
-67450.0
21
-10310.0
31
0
0
LINE
8
interiors
10
-67150.0
20
-10530.0
30
0
11
-67150.0
21
-10310.0
31
0
0
LINE
8
interiors
10
-67450.0
20
-10530.0
30
0
11
-67150.0
21
-10530.0
31
0
0
LINE
8
interiors
10
-67450.0
20
-10310.0
30
0
11
-67150.0
21
-10310.0
31
0
0
LINE
8
interiors
10
-61600.0
20
-11090.0
30
0
11
-61600.0
21
-10190.0
31
0
0
LINE
8
interiors
10
-59800.0
20
-11090.0
30
0
11
-59800.0
21
-10190.0
31
0
0
LINE
8
interiors
10
-61600.0
20
-11090.0
30
0
11
-59800.0
21
-11090.0
31
0
0
LINE
8
interiors
10
-61600.0
20
-10190.0
30
0
11
-59800.0
21
-10190.0
31
0
0
LINE
8
interiors
10
-61535.0
20
-11025.0
30
0
11
-61535.0
21
-10955.0
31
0
0
LINE
8
interiors
10
-61465.0
20
-11025.0
30
0
11
-61465.0
21
-10955.0
31
0
0
LINE
8
interiors
10
-61535.0
20
-11025.0
30
0
11
-61465.0
21
-11025.0
31
0
0
LINE
8
interiors
10
-61535.0
20
-10955.0
30
0
11
-61465.0
21
-10955.0
31
0
0
LINE
8
interiors
10
-61535.0
20
-10325.0
30
0
11
-61535.0
21
-10255.0
31
0
0
LINE
8
interiors
10
-61465.0
20
-10325.0
30
0
11
-61465.0
21
-10255.0
31
0
0
LINE
8
interiors
10
-61535.0
20
-10325.0
30
0
11
-61465.0
21
-10325.0
31
0
0
LINE
8
interiors
10
-61535.0
20
-10255.0
30
0
11
-61465.0
21
-10255.0
31
0
0
LINE
8
interiors
10
-59935.0
20
-11025.0
30
0
11
-59935.0
21
-10955.0
31
0
0
LINE
8
interiors
10
-59865.0
20
-11025.0
30
0
11
-59865.0
21
-10955.0
31
0
0
LINE
8
interiors
10
-59935.0
20
-11025.0
30
0
11
-59865.0
21
-11025.0
31
0
0
LINE
8
interiors
10
-59935.0
20
-10955.0
30
0
11
-59865.0
21
-10955.0
31
0
0
LINE
8
interiors
10
-59935.0
20
-10325.0
30
0
11
-59935.0
21
-10255.0
31
0
0
LINE
8
interiors
10
-59865.0
20
-10325.0
30
0
11
-59865.0
21
-10255.0
31
0
0
LINE
8
interiors
10
-59935.0
20
-10325.0
30
0
11
-59865.0
21
-10325.0
31
0
0
LINE
8
interiors
10
-59935.0
20
-10255.0
30
0
11
-59865.0
21
-10255.0
31
0
0
LINE
8
interiors
10
-60940.0
20
-11630.0
30
0
11
-60940.0
21
-11150.0
31
0
0
LINE
8
interiors
10
-60460.0
20
-11630.0
30
0
11
-60460.0
21
-11150.0
31
0
0
LINE
8
interiors
10
-60940.0
20
-11630.0
30
0
11
-60460.0
21
-11630.0
31
0
0
LINE
8
interiors
10
-60940.0
20
-11150.0
30
0
11
-60460.0
21
-11150.0
31
0
0
LINE
8
interiors
10
-60940.0
20
-11212.5
30
0
11
-60940.0
21
-11147.5
31
0
0
LINE
8
interiors
10
-60460.0
20
-11212.5
30
0
11
-60460.0
21
-11147.5
31
0
0
LINE
8
interiors
10
-60940.0
20
-11212.5
30
0
11
-60460.0
21
-11212.5
31
0
0
LINE
8
interiors
10
-60940.0
20
-11147.5
30
0
11
-60460.0
21
-11147.5
31
0
0
LINE
8
interiors
10
-60907.5
20
-11597.5
30
0
11
-60907.5
21
-11562.5
31
0
0
LINE
8
interiors
10
-60872.5
20
-11597.5
30
0
11
-60872.5
21
-11562.5
31
0
0
LINE
8
interiors
10
-60907.5
20
-11597.5
30
0
11
-60872.5
21
-11597.5
31
0
0
LINE
8
interiors
10
-60907.5
20
-11562.5
30
0
11
-60872.5
21
-11562.5
31
0
0
LINE
8
interiors
10
-60907.5
20
-11217.5
30
0
11
-60907.5
21
-11182.5
31
0
0
LINE
8
interiors
10
-60872.5
20
-11217.5
30
0
11
-60872.5
21
-11182.5
31
0
0
LINE
8
interiors
10
-60907.5
20
-11217.5
30
0
11
-60872.5
21
-11217.5
31
0
0
LINE
8
interiors
10
-60907.5
20
-11182.5
30
0
11
-60872.5
21
-11182.5
31
0
0
LINE
8
interiors
10
-60527.5
20
-11597.5
30
0
11
-60527.5
21
-11562.5
31
0
0
LINE
8
interiors
10
-60492.5
20
-11597.5
30
0
11
-60492.5
21
-11562.5
31
0
0
LINE
8
interiors
10
-60527.5
20
-11597.5
30
0
11
-60492.5
21
-11597.5
31
0
0
LINE
8
interiors
10
-60527.5
20
-11562.5
30
0
11
-60492.5
21
-11562.5
31
0
0
LINE
8
interiors
10
-60527.5
20
-11217.5
30
0
11
-60527.5
21
-11182.5
31
0
0
LINE
8
interiors
10
-60492.5
20
-11217.5
30
0
11
-60492.5
21
-11182.5
31
0
0
LINE
8
interiors
10
-60527.5
20
-11217.5
30
0
11
-60492.5
21
-11217.5
31
0
0
LINE
8
interiors
10
-60527.5
20
-11182.5
30
0
11
-60492.5
21
-11182.5
31
0
0
LINE
8
interiors
10
-61000.0
20
-10450.0
30
0
11
-61000.0
21
-10390.0
31
0
0
LINE
8
interiors
10
-60400.0
20
-10450.0
30
0
11
-60400.0
21
-10390.0
31
0
0
LINE
8
interiors
10
-61000.0
20
-10450.0
30
0
11
-60400.0
21
-10450.0
31
0
0
LINE
8
interiors
10
-61000.0
20
-10390.0
30
0
11
-60400.0
21
-10390.0
31
0
0
LINE
8
interiors
10
-60730.0
20
-10455.0
30
0
11
-60730.0
21
-10385.0
31
0
0
LINE
8
interiors
10
-60670.0
20
-10455.0
30
0
11
-60670.0
21
-10385.0
31
0
0
LINE
8
interiors
10
-60730.0
20
-10455.0
30
0
11
-60670.0
21
-10455.0
31
0
0
LINE
8
interiors
10
-60730.0
20
-10385.0
30
0
11
-60670.0
21
-10385.0
31
0
0
LINE
8
interiors
10
-60850.0
20
-10530.0
30
0
11
-60850.0
21
-10310.0
31
0
0
LINE
8
interiors
10
-60550.0
20
-10530.0
30
0
11
-60550.0
21
-10310.0
31
0
0
LINE
8
interiors
10
-60850.0
20
-10530.0
30
0
11
-60550.0
21
-10530.0
31
0
0
LINE
8
interiors
10
-60850.0
20
-10310.0
30
0
11
-60550.0
21
-10310.0
31
0
0
LINE
8
interiors
10
-68200.0
20
-5810.0
30
0
11
-68200.0
21
-4910.0
31
0
0
LINE
8
interiors
10
-66400.0
20
-5810.0
30
0
11
-66400.0
21
-4910.0
31
0
0
LINE
8
interiors
10
-68200.0
20
-5810.0
30
0
11
-66400.0
21
-5810.0
31
0
0
LINE
8
interiors
10
-68200.0
20
-4910.0
30
0
11
-66400.0
21
-4910.0
31
0
0
LINE
8
interiors
10
-68135.0
20
-5745.0
30
0
11
-68135.0
21
-5675.0
31
0
0
LINE
8
interiors
10
-68065.0
20
-5745.0
30
0
11
-68065.0
21
-5675.0
31
0
0
LINE
8
interiors
10
-68135.0
20
-5745.0
30
0
11
-68065.0
21
-5745.0
31
0
0
LINE
8
interiors
10
-68135.0
20
-5675.0
30
0
11
-68065.0
21
-5675.0
31
0
0
LINE
8
interiors
10
-68135.0
20
-5045.0
30
0
11
-68135.0
21
-4975.0
31
0
0
LINE
8
interiors
10
-68065.0
20
-5045.0
30
0
11
-68065.0
21
-4975.0
31
0
0
LINE
8
interiors
10
-68135.0
20
-5045.0
30
0
11
-68065.0
21
-5045.0
31
0
0
LINE
8
interiors
10
-68135.0
20
-4975.0
30
0
11
-68065.0
21
-4975.0
31
0
0
LINE
8
interiors
10
-66535.0
20
-5745.0
30
0
11
-66535.0
21
-5675.0
31
0
0
LINE
8
interiors
10
-66465.0
20
-5745.0
30
0
11
-66465.0
21
-5675.0
31
0
0
LINE
8
interiors
10
-66535.0
20
-5745.0
30
0
11
-66465.0
21
-5745.0
31
0
0
LINE
8
interiors
10
-66535.0
20
-5675.0
30
0
11
-66465.0
21
-5675.0
31
0
0
LINE
8
interiors
10
-66535.0
20
-5045.0
30
0
11
-66535.0
21
-4975.0
31
0
0
LINE
8
interiors
10
-66465.0
20
-5045.0
30
0
11
-66465.0
21
-4975.0
31
0
0
LINE
8
interiors
10
-66535.0
20
-5045.0
30
0
11
-66465.0
21
-5045.0
31
0
0
LINE
8
interiors
10
-66535.0
20
-4975.0
30
0
11
-66465.0
21
-4975.0
31
0
0
LINE
8
interiors
10
-67540.0
20
-6350.0
30
0
11
-67540.0
21
-5870.0
31
0
0
LINE
8
interiors
10
-67060.0
20
-6350.0
30
0
11
-67060.0
21
-5870.0
31
0
0
LINE
8
interiors
10
-67540.0
20
-6350.0
30
0
11
-67060.0
21
-6350.0
31
0
0
LINE
8
interiors
10
-67540.0
20
-5870.0
30
0
11
-67060.0
21
-5870.0
31
0
0
LINE
8
interiors
10
-67540.0
20
-5932.5
30
0
11
-67540.0
21
-5867.5
31
0
0
LINE
8
interiors
10
-67060.0
20
-5932.5
30
0
11
-67060.0
21
-5867.5
31
0
0
LINE
8
interiors
10
-67540.0
20
-5932.5
30
0
11
-67060.0
21
-5932.5
31
0
0
LINE
8
interiors
10
-67540.0
20
-5867.5
30
0
11
-67060.0
21
-5867.5
31
0
0
LINE
8
interiors
10
-67507.5
20
-6317.5
30
0
11
-67507.5
21
-6282.5
31
0
0
LINE
8
interiors
10
-67472.5
20
-6317.5
30
0
11
-67472.5
21
-6282.5
31
0
0
LINE
8
interiors
10
-67507.5
20
-6317.5
30
0
11
-67472.5
21
-6317.5
31
0
0
LINE
8
interiors
10
-67507.5
20
-6282.5
30
0
11
-67472.5
21
-6282.5
31
0
0
LINE
8
interiors
10
-67507.5
20
-5937.5
30
0
11
-67507.5
21
-5902.5
31
0
0
LINE
8
interiors
10
-67472.5
20
-5937.5
30
0
11
-67472.5
21
-5902.5
31
0
0
LINE
8
interiors
10
-67507.5
20
-5937.5
30
0
11
-67472.5
21
-5937.5
31
0
0
LINE
8
interiors
10
-67507.5
20
-5902.5
30
0
11
-67472.5
21
-5902.5
31
0
0
LINE
8
interiors
10
-67127.5
20
-6317.5
30
0
11
-67127.5
21
-6282.5
31
0
0
LINE
8
interiors
10
-67092.5
20
-6317.5
30
0
11
-67092.5
21
-6282.5
31
0
0
LINE
8
interiors
10
-67127.5
20
-6317.5
30
0
11
-67092.5
21
-6317.5
31
0
0
LINE
8
interiors
10
-67127.5
20
-6282.5
30
0
11
-67092.5
21
-6282.5
31
0
0
LINE
8
interiors
10
-67127.5
20
-5937.5
30
0
11
-67127.5
21
-5902.5
31
0
0
LINE
8
interiors
10
-67092.5
20
-5937.5
30
0
11
-67092.5
21
-5902.5
31
0
0
LINE
8
interiors
10
-67127.5
20
-5937.5
30
0
11
-67092.5
21
-5937.5
31
0
0
LINE
8
interiors
10
-67127.5
20
-5902.5
30
0
11
-67092.5
21
-5902.5
31
0
0
LINE
8
interiors
10
-67600.0
20
-5170.0
30
0
11
-67600.0
21
-5110.0
31
0
0
LINE
8
interiors
10
-67000.0
20
-5170.0
30
0
11
-67000.0
21
-5110.0
31
0
0
LINE
8
interiors
10
-67600.0
20
-5170.0
30
0
11
-67000.0
21
-5170.0
31
0
0
LINE
8
interiors
10
-67600.0
20
-5110.0
30
0
11
-67000.0
21
-5110.0
31
0
0
LINE
8
interiors
10
-67330.0
20
-5175.0
30
0
11
-67330.0
21
-5105.0
31
0
0
LINE
8
interiors
10
-67270.0
20
-5175.0
30
0
11
-67270.0
21
-5105.0
31
0
0
LINE
8
interiors
10
-67330.0
20
-5175.0
30
0
11
-67270.0
21
-5175.0
31
0
0
LINE
8
interiors
10
-67330.0
20
-5105.0
30
0
11
-67270.0
21
-5105.0
31
0
0
LINE
8
interiors
10
-67450.0
20
-5250.0
30
0
11
-67450.0
21
-5030.0
31
0
0
LINE
8
interiors
10
-67150.0
20
-5250.0
30
0
11
-67150.0
21
-5030.0
31
0
0
LINE
8
interiors
10
-67450.0
20
-5250.0
30
0
11
-67150.0
21
-5250.0
31
0
0
LINE
8
interiors
10
-67450.0
20
-5030.0
30
0
11
-67150.0
21
-5030.0
31
0
0
LINE
8
interiors
10
-61600.0
20
-5810.0
30
0
11
-61600.0
21
-4910.0
31
0
0
LINE
8
interiors
10
-59800.0
20
-5810.0
30
0
11
-59800.0
21
-4910.0
31
0
0
LINE
8
interiors
10
-61600.0
20
-5810.0
30
0
11
-59800.0
21
-5810.0
31
0
0
LINE
8
interiors
10
-61600.0
20
-4910.0
30
0
11
-59800.0
21
-4910.0
31
0
0
LINE
8
interiors
10
-61535.0
20
-5745.0
30
0
11
-61535.0
21
-5675.0
31
0
0
LINE
8
interiors
10
-61465.0
20
-5745.0
30
0
11
-61465.0
21
-5675.0
31
0
0
LINE
8
interiors
10
-61535.0
20
-5745.0
30
0
11
-61465.0
21
-5745.0
31
0
0
LINE
8
interiors
10
-61535.0
20
-5675.0
30
0
11
-61465.0
21
-5675.0
31
0
0
LINE
8
interiors
10
-61535.0
20
-5045.0
30
0
11
-61535.0
21
-4975.0
31
0
0
LINE
8
interiors
10
-61465.0
20
-5045.0
30
0
11
-61465.0
21
-4975.0
31
0
0
LINE
8
interiors
10
-61535.0
20
-5045.0
30
0
11
-61465.0
21
-5045.0
31
0
0
LINE
8
interiors
10
-61535.0
20
-4975.0
30
0
11
-61465.0
21
-4975.0
31
0
0
LINE
8
interiors
10
-59935.0
20
-5745.0
30
0
11
-59935.0
21
-5675.0
31
0
0
LINE
8
interiors
10
-59865.0
20
-5745.0
30
0
11
-59865.0
21
-5675.0
31
0
0
LINE
8
interiors
10
-59935.0
20
-5745.0
30
0
11
-59865.0
21
-5745.0
31
0
0
LINE
8
interiors
10
-59935.0
20
-5675.0
30
0
11
-59865.0
21
-5675.0
31
0
0
LINE
8
interiors
10
-59935.0
20
-5045.0
30
0
11
-59935.0
21
-4975.0
31
0
0
LINE
8
interiors
10
-59865.0
20
-5045.0
30
0
11
-59865.0
21
-4975.0
31
0
0
LINE
8
interiors
10
-59935.0
20
-5045.0
30
0
11
-59865.0
21
-5045.0
31
0
0
LINE
8
interiors
10
-59935.0
20
-4975.0
30
0
11
-59865.0
21
-4975.0
31
0
0
LINE
8
interiors
10
-60940.0
20
-6350.0
30
0
11
-60940.0
21
-5870.0
31
0
0
LINE
8
interiors
10
-60460.0
20
-6350.0
30
0
11
-60460.0
21
-5870.0
31
0
0
LINE
8
interiors
10
-60940.0
20
-6350.0
30
0
11
-60460.0
21
-6350.0
31
0
0
LINE
8
interiors
10
-60940.0
20
-5870.0
30
0
11
-60460.0
21
-5870.0
31
0
0
LINE
8
interiors
10
-60940.0
20
-5932.5
30
0
11
-60940.0
21
-5867.5
31
0
0
LINE
8
interiors
10
-60460.0
20
-5932.5
30
0
11
-60460.0
21
-5867.5
31
0
0
LINE
8
interiors
10
-60940.0
20
-5932.5
30
0
11
-60460.0
21
-5932.5
31
0
0
LINE
8
interiors
10
-60940.0
20
-5867.5
30
0
11
-60460.0
21
-5867.5
31
0
0
LINE
8
interiors
10
-60907.5
20
-6317.5
30
0
11
-60907.5
21
-6282.5
31
0
0
LINE
8
interiors
10
-60872.5
20
-6317.5
30
0
11
-60872.5
21
-6282.5
31
0
0
LINE
8
interiors
10
-60907.5
20
-6317.5
30
0
11
-60872.5
21
-6317.5
31
0
0
LINE
8
interiors
10
-60907.5
20
-6282.5
30
0
11
-60872.5
21
-6282.5
31
0
0
LINE
8
interiors
10
-60907.5
20
-5937.5
30
0
11
-60907.5
21
-5902.5
31
0
0
LINE
8
interiors
10
-60872.5
20
-5937.5
30
0
11
-60872.5
21
-5902.5
31
0
0
LINE
8
interiors
10
-60907.5
20
-5937.5
30
0
11
-60872.5
21
-5937.5
31
0
0
LINE
8
interiors
10
-60907.5
20
-5902.5
30
0
11
-60872.5
21
-5902.5
31
0
0
LINE
8
interiors
10
-60527.5
20
-6317.5
30
0
11
-60527.5
21
-6282.5
31
0
0
LINE
8
interiors
10
-60492.5
20
-6317.5
30
0
11
-60492.5
21
-6282.5
31
0
0
LINE
8
interiors
10
-60527.5
20
-6317.5
30
0
11
-60492.5
21
-6317.5
31
0
0
LINE
8
interiors
10
-60527.5
20
-6282.5
30
0
11
-60492.5
21
-6282.5
31
0
0
LINE
8
interiors
10
-60527.5
20
-5937.5
30
0
11
-60527.5
21
-5902.5
31
0
0
LINE
8
interiors
10
-60492.5
20
-5937.5
30
0
11
-60492.5
21
-5902.5
31
0
0
LINE
8
interiors
10
-60527.5
20
-5937.5
30
0
11
-60492.5
21
-5937.5
31
0
0
LINE
8
interiors
10
-60527.5
20
-5902.5
30
0
11
-60492.5
21
-5902.5
31
0
0
LINE
8
interiors
10
-61000.0
20
-5170.0
30
0
11
-61000.0
21
-5110.0
31
0
0
LINE
8
interiors
10
-60400.0
20
-5170.0
30
0
11
-60400.0
21
-5110.0
31
0
0
LINE
8
interiors
10
-61000.0
20
-5170.0
30
0
11
-60400.0
21
-5170.0
31
0
0
LINE
8
interiors
10
-61000.0
20
-5110.0
30
0
11
-60400.0
21
-5110.0
31
0
0
LINE
8
interiors
10
-60730.0
20
-5175.0
30
0
11
-60730.0
21
-5105.0
31
0
0
LINE
8
interiors
10
-60670.0
20
-5175.0
30
0
11
-60670.0
21
-5105.0
31
0
0
LINE
8
interiors
10
-60730.0
20
-5175.0
30
0
11
-60670.0
21
-5175.0
31
0
0
LINE
8
interiors
10
-60730.0
20
-5105.0
30
0
11
-60670.0
21
-5105.0
31
0
0
LINE
8
interiors
10
-60850.0
20
-5250.0
30
0
11
-60850.0
21
-5030.0
31
0
0
LINE
8
interiors
10
-60550.0
20
-5250.0
30
0
11
-60550.0
21
-5030.0
31
0
0
LINE
8
interiors
10
-60850.0
20
-5250.0
30
0
11
-60550.0
21
-5250.0
31
0
0
LINE
8
interiors
10
-60850.0
20
-5030.0
30
0
11
-60550.0
21
-5030.0
31
0
0
LINE
8
electrical
10
-57225.0
20
-13925.0
30
0
11
-57225.0
21
-13675.0
31
0
0
LINE
8
electrical
10
-56675.0
20
-13925.0
30
0
11
-56675.0
21
-13675.0
31
0
0
LINE
8
electrical
10
-57225.0
20
-13925.0
30
0
11
-56675.0
21
-13925.0
31
0
0
LINE
8
electrical
10
-57225.0
20
-13675.0
30
0
11
-56675.0
21
-13675.0
31
0
0
LINE
8
electrical
10
-57185.0
20
-13952.5
30
0
11
-57185.0
21
-13917.5
31
0
0
LINE
8
electrical
10
-56715.0
20
-13952.5
30
0
11
-56715.0
21
-13917.5
31
0
0
LINE
8
electrical
10
-57185.0
20
-13952.5
30
0
11
-56715.0
21
-13952.5
31
0
0
LINE
8
electrical
10
-57185.0
20
-13917.5
30
0
11
-56715.0
21
-13917.5
31
0
0
LINE
8
electrical
10
-57137.5
20
-13990.0
30
0
11
-57137.5
21
-13950.0
31
0
0
LINE
8
electrical
10
-57037.5
20
-13990.0
30
0
11
-57037.5
21
-13950.0
31
0
0
LINE
8
electrical
10
-57137.5
20
-13990.0
30
0
11
-57037.5
21
-13990.0
31
0
0
LINE
8
electrical
10
-57137.5
20
-13950.0
30
0
11
-57037.5
21
-13950.0
31
0
0
LINE
8
electrical
10
-57000.0
20
-13990.0
30
0
11
-57000.0
21
-13950.0
31
0
0
LINE
8
electrical
10
-56900.0
20
-13990.0
30
0
11
-56900.0
21
-13950.0
31
0
0
LINE
8
electrical
10
-57000.0
20
-13990.0
30
0
11
-56900.0
21
-13990.0
31
0
0
LINE
8
electrical
10
-57000.0
20
-13950.0
30
0
11
-56900.0
21
-13950.0
31
0
0
LINE
8
electrical
10
-56862.5
20
-13990.0
30
0
11
-56862.5
21
-13950.0
31
0
0
LINE
8
electrical
10
-56762.5
20
-13990.0
30
0
11
-56762.5
21
-13950.0
31
0
0
LINE
8
electrical
10
-56862.5
20
-13990.0
30
0
11
-56762.5
21
-13990.0
31
0
0
LINE
8
electrical
10
-56862.5
20
-13950.0
30
0
11
-56762.5
21
-13950.0
31
0
0
LINE
8
electrical
10
-57087.5
20
-14005.0
30
0
11
-57064.12
21
-14005.0
31
0
0
LINE
8
electrical
10
-57064.12
20
-14005.0
30
0
11
-57110.88
21
-14005.0
31
0
0
LINE
8
electrical
10
-57110.88
20
-14005.0
30
0
11
-57087.5
21
-14005.0
31
0
0
LINE
8
electrical
10
-57087.5
20
-13980.0
30
0
11
-57087.5
21
-14005.0
31
0
0
LINE
8
electrical
10
-57087.5
20
-13980.0
30
0
11
-57064.12
21
-13980.0
31
0
0
LINE
8
electrical
10
-57064.12
20
-13980.0
30
0
11
-57110.88
21
-13980.0
31
0
0
LINE
8
electrical
10
-57110.88
20
-13980.0
30
0
11
-57087.5
21
-13980.0
31
0
0
LINE
8
electrical
10
-56950.0
20
-14005.0
30
0
11
-56926.62
21
-14005.0
31
0
0
LINE
8
electrical
10
-56926.62
20
-14005.0
30
0
11
-56973.38
21
-14005.0
31
0
0
LINE
8
electrical
10
-56973.38
20
-14005.0
30
0
11
-56950.0
21
-14005.0
31
0
0
LINE
8
electrical
10
-56950.0
20
-13980.0
30
0
11
-56950.0
21
-14005.0
31
0
0
LINE
8
electrical
10
-56950.0
20
-13980.0
30
0
11
-56926.62
21
-13980.0
31
0
0
LINE
8
electrical
10
-56926.62
20
-13980.0
30
0
11
-56973.38
21
-13980.0
31
0
0
LINE
8
electrical
10
-56973.38
20
-13980.0
30
0
11
-56950.0
21
-13980.0
31
0
0
LINE
8
electrical
10
-56812.5
20
-14005.0
30
0
11
-56789.12
21
-14005.0
31
0
0
LINE
8
electrical
10
-56789.12
20
-14005.0
30
0
11
-56835.88
21
-14005.0
31
0
0
LINE
8
electrical
10
-56835.88
20
-14005.0
30
0
11
-56812.5
21
-14005.0
31
0
0
LINE
8
electrical
10
-56812.5
20
-13980.0
30
0
11
-56812.5
21
-14005.0
31
0
0
LINE
8
electrical
10
-56812.5
20
-13980.0
30
0
11
-56789.12
21
-13980.0
31
0
0
LINE
8
electrical
10
-56789.12
20
-13980.0
30
0
11
-56835.88
21
-13980.0
31
0
0
LINE
8
electrical
10
-56835.88
20
-13980.0
30
0
11
-56812.5
21
-13980.0
31
0
0
LINE
8
electrical
10
-56950.0
20
-13800.0
30
0
11
-56934.41
21
-13800.0
31
0
0
LINE
8
electrical
10
-56934.41
20
-13800.0
30
0
11
-56965.59
21
-13800.0
31
0
0
LINE
8
electrical
10
-56965.59
20
-13800.0
30
0
11
-56950.0
21
-13800.0
31
0
0
LINE
8
electrical
10
-56950.0
20
-34800.0
30
0
11
-56950.0
21
-13800.0
31
0
0
LINE
8
electrical
10
-56950.0
20
-34800.0
30
0
11
-56934.41
21
-34800.0
31
0
0
LINE
8
electrical
10
-56934.41
20
-34800.0
30
0
11
-56965.59
21
-34800.0
31
0
0
LINE
8
electrical
10
-56965.59
20
-34800.0
30
0
11
-56950.0
21
-34800.0
31
0
0
LINE
8
electrical
10
-56968.0
20
-13800.0
30
0
11
-56941.0
21
-13784.41
31
0
0
LINE
8
electrical
10
-56941.0
20
-13784.41
30
0
11
-56941.0
21
-13815.59
31
0
0
LINE
8
electrical
10
-56941.0
20
-13815.59
30
0
11
-56968.0
21
-13800.0
31
0
0
LINE
8
electrical
10
-56950.0
20
-13800.0
30
0
11
-56930.56
21
-13800.0
31
0
0
LINE
8
electrical
10
-56930.56
20
-13800.0
30
0
11
-56950.0
21
-13800.0
31
0
0
LINE
8
lighting
10
-69720.0
20
-12400.0
30
0
11
-69720.0
21
-11760.0
31
0
0
LINE
8
lighting
10
-69080.0
20
-12400.0
30
0
11
-69080.0
21
-11760.0
31
0
0
LINE
8
lighting
10
-69720.0
20
-12400.0
30
0
11
-69080.0
21
-12400.0
31
0
0
LINE
8
lighting
10
-69720.0
20
-11760.0
30
0
11
-69080.0
21
-11760.0
31
0
0
LINE
8
lighting
10
-69680.0
20
-12360.0
30
0
11
-69680.0
21
-11800.0
31
0
0
LINE
8
lighting
10
-69120.0
20
-12360.0
30
0
11
-69120.0
21
-11800.0
31
0
0
LINE
8
lighting
10
-69680.0
20
-12360.0
30
0
11
-69120.0
21
-12360.0
31
0
0
LINE
8
lighting
10
-69680.0
20
-11800.0
30
0
11
-69120.0
21
-11800.0
31
0
0
LINE
8
lighting
10
-69646.0
20
-12350.0
30
0
11
-69646.0
21
-11810.0
31
0
0
LINE
8
lighting
10
-69634.0
20
-12350.0
30
0
11
-69634.0
21
-11810.0
31
0
0
LINE
8
lighting
10
-69646.0
20
-12350.0
30
0
11
-69634.0
21
-12350.0
31
0
0
LINE
8
lighting
10
-69646.0
20
-11810.0
30
0
11
-69634.0
21
-11810.0
31
0
0
LINE
8
lighting
10
-69566.0
20
-12350.0
30
0
11
-69566.0
21
-11810.0
31
0
0
LINE
8
lighting
10
-69554.0
20
-12350.0
30
0
11
-69554.0
21
-11810.0
31
0
0
LINE
8
lighting
10
-69566.0
20
-12350.0
30
0
11
-69554.0
21
-12350.0
31
0
0
LINE
8
lighting
10
-69566.0
20
-11810.0
30
0
11
-69554.0
21
-11810.0
31
0
0
LINE
8
lighting
10
-69486.0
20
-12350.0
30
0
11
-69486.0
21
-11810.0
31
0
0
LINE
8
lighting
10
-69474.0
20
-12350.0
30
0
11
-69474.0
21
-11810.0
31
0
0
LINE
8
lighting
10
-69486.0
20
-12350.0
30
0
11
-69474.0
21
-12350.0
31
0
0
LINE
8
lighting
10
-69486.0
20
-11810.0
30
0
11
-69474.0
21
-11810.0
31
0
0
LINE
8
lighting
10
-69406.0
20
-12350.0
30
0
11
-69406.0
21
-11810.0
31
0
0
LINE
8
lighting
10
-69394.0
20
-12350.0
30
0
11
-69394.0
21
-11810.0
31
0
0
LINE
8
lighting
10
-69406.0
20
-12350.0
30
0
11
-69394.0
21
-12350.0
31
0
0
LINE
8
lighting
10
-69406.0
20
-11810.0
30
0
11
-69394.0
21
-11810.0
31
0
0
LINE
8
lighting
10
-69326.0
20
-12350.0
30
0
11
-69326.0
21
-11810.0
31
0
0
LINE
8
lighting
10
-69314.0
20
-12350.0
30
0
11
-69314.0
21
-11810.0
31
0
0
LINE
8
lighting
10
-69326.0
20
-12350.0
30
0
11
-69314.0
21
-12350.0
31
0
0
LINE
8
lighting
10
-69326.0
20
-11810.0
30
0
11
-69314.0
21
-11810.0
31
0
0
LINE
8
lighting
10
-69246.0
20
-12350.0
30
0
11
-69246.0
21
-11810.0
31
0
0
LINE
8
lighting
10
-69234.0
20
-12350.0
30
0
11
-69234.0
21
-11810.0
31
0
0
LINE
8
lighting
10
-69246.0
20
-12350.0
30
0
11
-69234.0
21
-12350.0
31
0
0
LINE
8
lighting
10
-69246.0
20
-11810.0
30
0
11
-69234.0
21
-11810.0
31
0
0
LINE
8
lighting
10
-69166.0
20
-12350.0
30
0
11
-69166.0
21
-11810.0
31
0
0
LINE
8
lighting
10
-69154.0
20
-12350.0
30
0
11
-69154.0
21
-11810.0
31
0
0
LINE
8
lighting
10
-69166.0
20
-12350.0
30
0
11
-69154.0
21
-12350.0
31
0
0
LINE
8
lighting
10
-69166.0
20
-11810.0
30
0
11
-69154.0
21
-11810.0
31
0
0
LINE
8
lighting
10
-69391.0
20
-12080.0
30
0
11
-69404.5
21
-12072.21
31
0
0
LINE
8
lighting
10
-69404.5
20
-12072.21
30
0
11
-69404.5
21
-12087.79
31
0
0
LINE
8
lighting
10
-69404.5
20
-12087.79
30
0
11
-69391.0
21
-12080.0
31
0
0
LINE
8
lighting
10
-58920.0
20
-12400.0
30
0
11
-58920.0
21
-11760.0
31
0
0
LINE
8
lighting
10
-58280.0
20
-12400.0
30
0
11
-58280.0
21
-11760.0
31
0
0
LINE
8
lighting
10
-58920.0
20
-12400.0
30
0
11
-58280.0
21
-12400.0
31
0
0
LINE
8
lighting
10
-58920.0
20
-11760.0
30
0
11
-58280.0
21
-11760.0
31
0
0
LINE
8
lighting
10
-58880.0
20
-12360.0
30
0
11
-58880.0
21
-11800.0
31
0
0
LINE
8
lighting
10
-58320.0
20
-12360.0
30
0
11
-58320.0
21
-11800.0
31
0
0
LINE
8
lighting
10
-58880.0
20
-12360.0
30
0
11
-58320.0
21
-12360.0
31
0
0
LINE
8
lighting
10
-58880.0
20
-11800.0
30
0
11
-58320.0
21
-11800.0
31
0
0
LINE
8
lighting
10
-58846.0
20
-12350.0
30
0
11
-58846.0
21
-11810.0
31
0
0
LINE
8
lighting
10
-58834.0
20
-12350.0
30
0
11
-58834.0
21
-11810.0
31
0
0
LINE
8
lighting
10
-58846.0
20
-12350.0
30
0
11
-58834.0
21
-12350.0
31
0
0
LINE
8
lighting
10
-58846.0
20
-11810.0
30
0
11
-58834.0
21
-11810.0
31
0
0
LINE
8
lighting
10
-58766.0
20
-12350.0
30
0
11
-58766.0
21
-11810.0
31
0
0
LINE
8
lighting
10
-58754.0
20
-12350.0
30
0
11
-58754.0
21
-11810.0
31
0
0
LINE
8
lighting
10
-58766.0
20
-12350.0
30
0
11
-58754.0
21
-12350.0
31
0
0
LINE
8
lighting
10
-58766.0
20
-11810.0
30
0
11
-58754.0
21
-11810.0
31
0
0
LINE
8
lighting
10
-58686.0
20
-12350.0
30
0
11
-58686.0
21
-11810.0
31
0
0
LINE
8
lighting
10
-58674.0
20
-12350.0
30
0
11
-58674.0
21
-11810.0
31
0
0
LINE
8
lighting
10
-58686.0
20
-12350.0
30
0
11
-58674.0
21
-12350.0
31
0
0
LINE
8
lighting
10
-58686.0
20
-11810.0
30
0
11
-58674.0
21
-11810.0
31
0
0
LINE
8
lighting
10
-58606.0
20
-12350.0
30
0
11
-58606.0
21
-11810.0
31
0
0
LINE
8
lighting
10
-58594.0
20
-12350.0
30
0
11
-58594.0
21
-11810.0
31
0
0
LINE
8
lighting
10
-58606.0
20
-12350.0
30
0
11
-58594.0
21
-12350.0
31
0
0
LINE
8
lighting
10
-58606.0
20
-11810.0
30
0
11
-58594.0
21
-11810.0
31
0
0
LINE
8
lighting
10
-58526.0
20
-12350.0
30
0
11
-58526.0
21
-11810.0
31
0
0
LINE
8
lighting
10
-58514.0
20
-12350.0
30
0
11
-58514.0
21
-11810.0
31
0
0
LINE
8
lighting
10
-58526.0
20
-12350.0
30
0
11
-58514.0
21
-12350.0
31
0
0
LINE
8
lighting
10
-58526.0
20
-11810.0
30
0
11
-58514.0
21
-11810.0
31
0
0
LINE
8
lighting
10
-58446.0
20
-12350.0
30
0
11
-58446.0
21
-11810.0
31
0
0
LINE
8
lighting
10
-58434.0
20
-12350.0
30
0
11
-58434.0
21
-11810.0
31
0
0
LINE
8
lighting
10
-58446.0
20
-12350.0
30
0
11
-58434.0
21
-12350.0
31
0
0
LINE
8
lighting
10
-58446.0
20
-11810.0
30
0
11
-58434.0
21
-11810.0
31
0
0
LINE
8
lighting
10
-58366.0
20
-12350.0
30
0
11
-58366.0
21
-11810.0
31
0
0
LINE
8
lighting
10
-58354.0
20
-12350.0
30
0
11
-58354.0
21
-11810.0
31
0
0
LINE
8
lighting
10
-58366.0
20
-12350.0
30
0
11
-58354.0
21
-12350.0
31
0
0
LINE
8
lighting
10
-58366.0
20
-11810.0
30
0
11
-58354.0
21
-11810.0
31
0
0
LINE
8
lighting
10
-58591.0
20
-12080.0
30
0
11
-58604.5
21
-12072.21
31
0
0
LINE
8
lighting
10
-58604.5
20
-12072.21
30
0
11
-58604.5
21
-12087.79
31
0
0
LINE
8
lighting
10
-58604.5
20
-12087.79
30
0
11
-58591.0
21
-12080.0
31
0
0
LINE
8
lighting
10
-69720.0
20
-4240.0
30
0
11
-69720.0
21
-3600.0
31
0
0
LINE
8
lighting
10
-69080.0
20
-4240.0
30
0
11
-69080.0
21
-3600.0
31
0
0
LINE
8
lighting
10
-69720.0
20
-4240.0
30
0
11
-69080.0
21
-4240.0
31
0
0
LINE
8
lighting
10
-69720.0
20
-3600.0
30
0
11
-69080.0
21
-3600.0
31
0
0
LINE
8
lighting
10
-69680.0
20
-4200.0
30
0
11
-69680.0
21
-3640.0
31
0
0
LINE
8
lighting
10
-69120.0
20
-4200.0
30
0
11
-69120.0
21
-3640.0
31
0
0
LINE
8
lighting
10
-69680.0
20
-4200.0
30
0
11
-69120.0
21
-4200.0
31
0
0
LINE
8
lighting
10
-69680.0
20
-3640.0
30
0
11
-69120.0
21
-3640.0
31
0
0
LINE
8
lighting
10
-69646.0
20
-4190.0
30
0
11
-69646.0
21
-3650.0
31
0
0
LINE
8
lighting
10
-69634.0
20
-4190.0
30
0
11
-69634.0
21
-3650.0
31
0
0
LINE
8
lighting
10
-69646.0
20
-4190.0
30
0
11
-69634.0
21
-4190.0
31
0
0
LINE
8
lighting
10
-69646.0
20
-3650.0
30
0
11
-69634.0
21
-3650.0
31
0
0
LINE
8
lighting
10
-69566.0
20
-4190.0
30
0
11
-69566.0
21
-3650.0
31
0
0
LINE
8
lighting
10
-69554.0
20
-4190.0
30
0
11
-69554.0
21
-3650.0
31
0
0
LINE
8
lighting
10
-69566.0
20
-4190.0
30
0
11
-69554.0
21
-4190.0
31
0
0
LINE
8
lighting
10
-69566.0
20
-3650.0
30
0
11
-69554.0
21
-3650.0
31
0
0
LINE
8
lighting
10
-69486.0
20
-4190.0
30
0
11
-69486.0
21
-3650.0
31
0
0
LINE
8
lighting
10
-69474.0
20
-4190.0
30
0
11
-69474.0
21
-3650.0
31
0
0
LINE
8
lighting
10
-69486.0
20
-4190.0
30
0
11
-69474.0
21
-4190.0
31
0
0
LINE
8
lighting
10
-69486.0
20
-3650.0
30
0
11
-69474.0
21
-3650.0
31
0
0
LINE
8
lighting
10
-69406.0
20
-4190.0
30
0
11
-69406.0
21
-3650.0
31
0
0
LINE
8
lighting
10
-69394.0
20
-4190.0
30
0
11
-69394.0
21
-3650.0
31
0
0
LINE
8
lighting
10
-69406.0
20
-4190.0
30
0
11
-69394.0
21
-4190.0
31
0
0
LINE
8
lighting
10
-69406.0
20
-3650.0
30
0
11
-69394.0
21
-3650.0
31
0
0
LINE
8
lighting
10
-69326.0
20
-4190.0
30
0
11
-69326.0
21
-3650.0
31
0
0
LINE
8
lighting
10
-69314.0
20
-4190.0
30
0
11
-69314.0
21
-3650.0
31
0
0
LINE
8
lighting
10
-69326.0
20
-4190.0
30
0
11
-69314.0
21
-4190.0
31
0
0
LINE
8
lighting
10
-69326.0
20
-3650.0
30
0
11
-69314.0
21
-3650.0
31
0
0
LINE
8
lighting
10
-69246.0
20
-4190.0
30
0
11
-69246.0
21
-3650.0
31
0
0
LINE
8
lighting
10
-69234.0
20
-4190.0
30
0
11
-69234.0
21
-3650.0
31
0
0
LINE
8
lighting
10
-69246.0
20
-4190.0
30
0
11
-69234.0
21
-4190.0
31
0
0
LINE
8
lighting
10
-69246.0
20
-3650.0
30
0
11
-69234.0
21
-3650.0
31
0
0
LINE
8
lighting
10
-69166.0
20
-4190.0
30
0
11
-69166.0
21
-3650.0
31
0
0
LINE
8
lighting
10
-69154.0
20
-4190.0
30
0
11
-69154.0
21
-3650.0
31
0
0
LINE
8
lighting
10
-69166.0
20
-4190.0
30
0
11
-69154.0
21
-4190.0
31
0
0
LINE
8
lighting
10
-69166.0
20
-3650.0
30
0
11
-69154.0
21
-3650.0
31
0
0
LINE
8
lighting
10
-69391.0
20
-3920.0
30
0
11
-69404.5
21
-3912.21
31
0
0
LINE
8
lighting
10
-69404.5
20
-3912.21
30
0
11
-69404.5
21
-3927.79
31
0
0
LINE
8
lighting
10
-69404.5
20
-3927.79
30
0
11
-69391.0
21
-3920.0
31
0
0
LINE
8
lighting
10
-58920.0
20
-4240.0
30
0
11
-58920.0
21
-3600.0
31
0
0
LINE
8
lighting
10
-58280.0
20
-4240.0
30
0
11
-58280.0
21
-3600.0
31
0
0
LINE
8
lighting
10
-58920.0
20
-4240.0
30
0
11
-58280.0
21
-4240.0
31
0
0
LINE
8
lighting
10
-58920.0
20
-3600.0
30
0
11
-58280.0
21
-3600.0
31
0
0
LINE
8
lighting
10
-58880.0
20
-4200.0
30
0
11
-58880.0
21
-3640.0
31
0
0
LINE
8
lighting
10
-58320.0
20
-4200.0
30
0
11
-58320.0
21
-3640.0
31
0
0
LINE
8
lighting
10
-58880.0
20
-4200.0
30
0
11
-58320.0
21
-4200.0
31
0
0
LINE
8
lighting
10
-58880.0
20
-3640.0
30
0
11
-58320.0
21
-3640.0
31
0
0
LINE
8
lighting
10
-58846.0
20
-4190.0
30
0
11
-58846.0
21
-3650.0
31
0
0
LINE
8
lighting
10
-58834.0
20
-4190.0
30
0
11
-58834.0
21
-3650.0
31
0
0
LINE
8
lighting
10
-58846.0
20
-4190.0
30
0
11
-58834.0
21
-4190.0
31
0
0
LINE
8
lighting
10
-58846.0
20
-3650.0
30
0
11
-58834.0
21
-3650.0
31
0
0
LINE
8
lighting
10
-58766.0
20
-4190.0
30
0
11
-58766.0
21
-3650.0
31
0
0
LINE
8
lighting
10
-58754.0
20
-4190.0
30
0
11
-58754.0
21
-3650.0
31
0
0
LINE
8
lighting
10
-58766.0
20
-4190.0
30
0
11
-58754.0
21
-4190.0
31
0
0
LINE
8
lighting
10
-58766.0
20
-3650.0
30
0
11
-58754.0
21
-3650.0
31
0
0
LINE
8
lighting
10
-58686.0
20
-4190.0
30
0
11
-58686.0
21
-3650.0
31
0
0
LINE
8
lighting
10
-58674.0
20
-4190.0
30
0
11
-58674.0
21
-3650.0
31
0
0
LINE
8
lighting
10
-58686.0
20
-4190.0
30
0
11
-58674.0
21
-4190.0
31
0
0
LINE
8
lighting
10
-58686.0
20
-3650.0
30
0
11
-58674.0
21
-3650.0
31
0
0
LINE
8
lighting
10
-58606.0
20
-4190.0
30
0
11
-58606.0
21
-3650.0
31
0
0
LINE
8
lighting
10
-58594.0
20
-4190.0
30
0
11
-58594.0
21
-3650.0
31
0
0
LINE
8
lighting
10
-58606.0
20
-4190.0
30
0
11
-58594.0
21
-4190.0
31
0
0
LINE
8
lighting
10
-58606.0
20
-3650.0
30
0
11
-58594.0
21
-3650.0
31
0
0
LINE
8
lighting
10
-58526.0
20
-4190.0
30
0
11
-58526.0
21
-3650.0
31
0
0
LINE
8
lighting
10
-58514.0
20
-4190.0
30
0
11
-58514.0
21
-3650.0
31
0
0
LINE
8
lighting
10
-58526.0
20
-4190.0
30
0
11
-58514.0
21
-4190.0
31
0
0
LINE
8
lighting
10
-58526.0
20
-3650.0
30
0
11
-58514.0
21
-3650.0
31
0
0
LINE
8
lighting
10
-58446.0
20
-4190.0
30
0
11
-58446.0
21
-3650.0
31
0
0
LINE
8
lighting
10
-58434.0
20
-4190.0
30
0
11
-58434.0
21
-3650.0
31
0
0
LINE
8
lighting
10
-58446.0
20
-4190.0
30
0
11
-58434.0
21
-4190.0
31
0
0
LINE
8
lighting
10
-58446.0
20
-3650.0
30
0
11
-58434.0
21
-3650.0
31
0
0
LINE
8
lighting
10
-58366.0
20
-4190.0
30
0
11
-58366.0
21
-3650.0
31
0
0
LINE
8
lighting
10
-58354.0
20
-4190.0
30
0
11
-58354.0
21
-3650.0
31
0
0
LINE
8
lighting
10
-58366.0
20
-4190.0
30
0
11
-58354.0
21
-4190.0
31
0
0
LINE
8
lighting
10
-58366.0
20
-3650.0
30
0
11
-58354.0
21
-3650.0
31
0
0
LINE
8
lighting
10
-58591.0
20
-3920.0
30
0
11
-58604.5
21
-3912.21
31
0
0
LINE
8
lighting
10
-58604.5
20
-3912.21
30
0
11
-58604.5
21
-3927.79
31
0
0
LINE
8
lighting
10
-58604.5
20
-3927.79
30
0
11
-58591.0
21
-3920.0
31
0
0
LINE
8
electrical
10
-69400.0
20
-12320.0
30
0
11
-69400.0
21
-12327.79
31
0
0
LINE
8
electrical
10
-69400.0
20
-12327.79
30
0
11
-69400.0
21
-12312.21
31
0
0
LINE
8
electrical
10
-69400.0
20
-12312.21
30
0
11
-69400.0
21
-12320.0
31
0
0
LINE
8
electrical
10
-56950.0
20
-12320.0
30
0
11
-69400.0
21
-12320.0
31
0
0
LINE
8
electrical
10
-56950.0
20
-12320.0
30
0
11
-56950.0
21
-12327.79
31
0
0
LINE
8
electrical
10
-56950.0
20
-12327.79
30
0
11
-56950.0
21
-12312.21
31
0
0
LINE
8
electrical
10
-56950.0
20
-12312.21
30
0
11
-56950.0
21
-12320.0
31
0
0
LINE
8
electrical
10
-69400.0
20
-3920.0
30
0
11
-69392.21
21
-3920.0
31
0
0
LINE
8
electrical
10
-69392.21
20
-3920.0
30
0
11
-69407.79
21
-3920.0
31
0
0
LINE
8
electrical
10
-69407.79
20
-3920.0
30
0
11
-69400.0
21
-3920.0
31
0
0
LINE
8
electrical
10
-69400.0
20
-12320.0
30
0
11
-69400.0
21
-3920.0
31
0
0
LINE
8
electrical
10
-69400.0
20
-12320.0
30
0
11
-69392.21
21
-12320.0
31
0
0
LINE
8
electrical
10
-69392.21
20
-12320.0
30
0
11
-69407.79
21
-12320.0
31
0
0
LINE
8
electrical
10
-69407.79
20
-12320.0
30
0
11
-69400.0
21
-12320.0
31
0
0
LINE
8
electrical
10
-58600.0
20
-3920.0
30
0
11
-58592.21
21
-3920.0
31
0
0
LINE
8
electrical
10
-58592.21
20
-3920.0
30
0
11
-58607.79
21
-3920.0
31
0
0
LINE
8
electrical
10
-58607.79
20
-3920.0
30
0
11
-58600.0
21
-3920.0
31
0
0
LINE
8
electrical
10
-58600.0
20
-12320.0
30
0
11
-58600.0
21
-3920.0
31
0
0
LINE
8
electrical
10
-58600.0
20
-12320.0
30
0
11
-58592.21
21
-12320.0
31
0
0
LINE
8
electrical
10
-58592.21
20
-12320.0
30
0
11
-58607.79
21
-12320.0
31
0
0
LINE
8
electrical
10
-58607.79
20
-12320.0
30
0
11
-58600.0
21
-12320.0
31
0
0
LINE
8
electrical
10
-56937.0
20
-13800.0
30
0
11
-56956.5
21
-13788.74
31
0
0
LINE
8
electrical
10
-56956.5
20
-13788.74
30
0
11
-56956.5
21
-13811.26
31
0
0
LINE
8
electrical
10
-56956.5
20
-13811.26
30
0
11
-56937.0
21
-13800.0
31
0
0
LINE
8
electrical
10
-58758.26
20
-12330.04
30
0
11
-58745.87
21
-12314.98
31
0
0
LINE
8
electrical
10
-58745.87
20
-12314.98
30
0
11
-58745.87
21
-12314.98
31
0
0
LINE
8
electrical
10
-58745.87
20
-12314.98
30
0
11
-58758.26
21
-12330.04
31
0
0
LINE
8
electrical
10
-56958.26
20
-13810.04
30
0
11
-58758.26
21
-12330.04
31
0
0
LINE
8
electrical
10
-56958.26
20
-13810.04
30
0
11
-56945.87
21
-13794.98
31
0
0
LINE
8
electrical
10
-56945.87
20
-13794.98
30
0
11
-56945.87
21
-13794.98
31
0
0
LINE
8
electrical
10
-56945.87
20
-13794.98
30
0
11
-56958.26
21
-13810.04
31
0
0
LINE
8
electrical
10
-69250.0
20
-12320.0
30
0
11
-69250.0
21
-12331.26
31
0
0
LINE
8
electrical
10
-69250.0
20
-12331.26
30
0
11
-69250.0
21
-12308.74
31
0
0
LINE
8
electrical
10
-69250.0
20
-12308.74
30
0
11
-69250.0
21
-12320.0
31
0
0
LINE
8
electrical
10
-58750.0
20
-12320.0
30
0
11
-69250.0
21
-12320.0
31
0
0
LINE
8
electrical
10
-58750.0
20
-12320.0
30
0
11
-58750.0
21
-12331.26
31
0
0
LINE
8
electrical
10
-58750.0
20
-12331.26
30
0
11
-58750.0
21
-12308.74
31
0
0
LINE
8
electrical
10
-58750.0
20
-12308.74
30
0
11
-58750.0
21
-12320.0
31
0
0
LINE
8
electrical
10
-56950.0
20
-13800.0
30
0
11
-56935.96
21
-13800.0
31
0
0
LINE
8
electrical
10
-56935.96
20
-13800.0
30
0
11
-56950.0
21
-13800.0
31
0
0
LINE
8
electrical
10
-58750.0
20
-12320.0
30
0
11
-58735.96
21
-12320.0
31
0
0
LINE
8
electrical
10
-58735.96
20
-12320.0
30
0
11
-58750.0
21
-12320.0
31
0
0
LINE
8
electrical
10
-56937.0
20
-13800.0
30
0
11
-56956.5
21
-13788.74
31
0
0
LINE
8
electrical
10
-56956.5
20
-13788.74
30
0
11
-56956.5
21
-13811.26
31
0
0
LINE
8
electrical
10
-56956.5
20
-13811.26
30
0
11
-56937.0
21
-13800.0
31
0
0
LINE
8
electrical
10
-58758.64
20
-12209.72
30
0
11
-58745.68
21
-12195.14
31
0
0
LINE
8
electrical
10
-58745.68
20
-12195.14
30
0
11
-58745.68
21
-12195.14
31
0
0
LINE
8
electrical
10
-58745.68
20
-12195.14
30
0
11
-58758.64
21
-12209.72
31
0
0
LINE
8
electrical
10
-56958.64
20
-13809.72
30
0
11
-58758.64
21
-12209.72
31
0
0
LINE
8
electrical
10
-56958.64
20
-13809.72
30
0
11
-56945.68
21
-13795.14
31
0
0
LINE
8
electrical
10
-56945.68
20
-13795.14
30
0
11
-56945.68
21
-13795.14
31
0
0
LINE
8
electrical
10
-56945.68
20
-13795.14
30
0
11
-56958.64
21
-13809.72
31
0
0
LINE
8
electrical
10
-69250.0
20
-12200.0
30
0
11
-69250.0
21
-12211.26
31
0
0
LINE
8
electrical
10
-69250.0
20
-12211.26
30
0
11
-69250.0
21
-12188.74
31
0
0
LINE
8
electrical
10
-69250.0
20
-12188.74
30
0
11
-69250.0
21
-12200.0
31
0
0
LINE
8
electrical
10
-58750.0
20
-12200.0
30
0
11
-69250.0
21
-12200.0
31
0
0
LINE
8
electrical
10
-58750.0
20
-12200.0
30
0
11
-58750.0
21
-12211.26
31
0
0
LINE
8
electrical
10
-58750.0
20
-12211.26
30
0
11
-58750.0
21
-12188.74
31
0
0
LINE
8
electrical
10
-58750.0
20
-12188.74
30
0
11
-58750.0
21
-12200.0
31
0
0
LINE
8
electrical
10
-56950.0
20
-13800.0
30
0
11
-56935.96
21
-13800.0
31
0
0
LINE
8
electrical
10
-56935.96
20
-13800.0
30
0
11
-56950.0
21
-13800.0
31
0
0
LINE
8
electrical
10
-58750.0
20
-12200.0
30
0
11
-58735.96
21
-12200.0
31
0
0
LINE
8
electrical
10
-58735.96
20
-12200.0
30
0
11
-58750.0
21
-12200.0
31
0
0
LINE
8
electrical
10
-56937.0
20
-13800.0
30
0
11
-56956.5
21
-13788.74
31
0
0
LINE
8
electrical
10
-56956.5
20
-13788.74
30
0
11
-56956.5
21
-13811.26
31
0
0
LINE
8
electrical
10
-56956.5
20
-13811.26
30
0
11
-56937.0
21
-13800.0
31
0
0
LINE
8
electrical
10
-58758.98
20
-12089.4
30
0
11
-58745.51
21
-12075.3
31
0
0
LINE
8
electrical
10
-58745.51
20
-12075.3
30
0
11
-58745.51
21
-12075.3
31
0
0
LINE
8
electrical
10
-58745.51
20
-12075.3
30
0
11
-58758.98
21
-12089.4
31
0
0
LINE
8
electrical
10
-56958.98
20
-13809.4
30
0
11
-58758.98
21
-12089.4
31
0
0
LINE
8
electrical
10
-56958.98
20
-13809.4
30
0
11
-56945.51
21
-13795.3
31
0
0
LINE
8
electrical
10
-56945.51
20
-13795.3
30
0
11
-56945.51
21
-13795.3
31
0
0
LINE
8
electrical
10
-56945.51
20
-13795.3
30
0
11
-56958.98
21
-13809.4
31
0
0
LINE
8
electrical
10
-69250.0
20
-12080.0
30
0
11
-69250.0
21
-12091.26
31
0
0
LINE
8
electrical
10
-69250.0
20
-12091.26
30
0
11
-69250.0
21
-12068.74
31
0
0
LINE
8
electrical
10
-69250.0
20
-12068.74
30
0
11
-69250.0
21
-12080.0
31
0
0
LINE
8
electrical
10
-58750.0
20
-12080.0
30
0
11
-69250.0
21
-12080.0
31
0
0
LINE
8
electrical
10
-58750.0
20
-12080.0
30
0
11
-58750.0
21
-12091.26
31
0
0
LINE
8
electrical
10
-58750.0
20
-12091.26
30
0
11
-58750.0
21
-12068.74
31
0
0
LINE
8
electrical
10
-58750.0
20
-12068.74
30
0
11
-58750.0
21
-12080.0
31
0
0
LINE
8
electrical
10
-56950.0
20
-13800.0
30
0
11
-56935.96
21
-13800.0
31
0
0
LINE
8
electrical
10
-56935.96
20
-13800.0
30
0
11
-56950.0
21
-13800.0
31
0
0
LINE
8
electrical
10
-58750.0
20
-12080.0
30
0
11
-58735.96
21
-12080.0
31
0
0
LINE
8
electrical
10
-58735.96
20
-12080.0
30
0
11
-58750.0
21
-12080.0
31
0
0
LINE
8
electrical
10
-68565.0
20
-13850.0
30
0
11
-68565.0
21
-13790.0
31
0
0
LINE
8
electrical
10
-68435.0
20
-13850.0
30
0
11
-68435.0
21
-13790.0
31
0
0
LINE
8
electrical
10
-68565.0
20
-13850.0
30
0
11
-68435.0
21
-13850.0
31
0
0
LINE
8
electrical
10
-68565.0
20
-13790.0
30
0
11
-68435.0
21
-13790.0
31
0
0
LINE
8
electrical
10
-68491.0
20
-13820.0
30
0
11
-68504.5
21
-13812.21
31
0
0
LINE
8
electrical
10
-68504.5
20
-13812.21
30
0
11
-68504.5
21
-13827.79
31
0
0
LINE
8
electrical
10
-68504.5
20
-13827.79
30
0
11
-68491.0
21
-13820.0
31
0
0
LINE
8
electrical
10
-56950.0
20
-13820.0
30
0
11
-56950.0
21
-13827.79
31
0
0
LINE
8
electrical
10
-56950.0
20
-13827.79
30
0
11
-56950.0
21
-13812.21
31
0
0
LINE
8
electrical
10
-56950.0
20
-13812.21
30
0
11
-56950.0
21
-13820.0
31
0
0
LINE
8
electrical
10
-68500.0
20
-13820.0
30
0
11
-56950.0
21
-13820.0
31
0
0
LINE
8
electrical
10
-68500.0
20
-13820.0
30
0
11
-68500.0
21
-13827.79
31
0
0
LINE
8
electrical
10
-68500.0
20
-13827.79
30
0
11
-68500.0
21
-13812.21
31
0
0
LINE
8
electrical
10
-68500.0
20
-13812.21
30
0
11
-68500.0
21
-13820.0
31
0
0
LINE
8
electrical
10
-68500.0
20
-13820.0
30
0
11
-68490.28
21
-13820.0
31
0
0
LINE
8
electrical
10
-68490.28
20
-13820.0
30
0
11
-68500.0
21
-13820.0
31
0
0
LINE
8
electrical
10
-59565.0
20
-13850.0
30
0
11
-59565.0
21
-13790.0
31
0
0
LINE
8
electrical
10
-59435.0
20
-13850.0
30
0
11
-59435.0
21
-13790.0
31
0
0
LINE
8
electrical
10
-59565.0
20
-13850.0
30
0
11
-59435.0
21
-13850.0
31
0
0
LINE
8
electrical
10
-59565.0
20
-13790.0
30
0
11
-59435.0
21
-13790.0
31
0
0
LINE
8
electrical
10
-59491.0
20
-13820.0
30
0
11
-59504.5
21
-13812.21
31
0
0
LINE
8
electrical
10
-59504.5
20
-13812.21
30
0
11
-59504.5
21
-13827.79
31
0
0
LINE
8
electrical
10
-59504.5
20
-13827.79
30
0
11
-59491.0
21
-13820.0
31
0
0
LINE
8
electrical
10
-56950.0
20
-13820.0
30
0
11
-56950.0
21
-13827.79
31
0
0
LINE
8
electrical
10
-56950.0
20
-13827.79
30
0
11
-56950.0
21
-13812.21
31
0
0
LINE
8
electrical
10
-56950.0
20
-13812.21
30
0
11
-56950.0
21
-13820.0
31
0
0
LINE
8
electrical
10
-59500.0
20
-13820.0
30
0
11
-56950.0
21
-13820.0
31
0
0
LINE
8
electrical
10
-59500.0
20
-13820.0
30
0
11
-59500.0
21
-13827.79
31
0
0
LINE
8
electrical
10
-59500.0
20
-13827.79
30
0
11
-59500.0
21
-13812.21
31
0
0
LINE
8
electrical
10
-59500.0
20
-13812.21
30
0
11
-59500.0
21
-13820.0
31
0
0
LINE
8
electrical
10
-59500.0
20
-13820.0
30
0
11
-59490.28
21
-13820.0
31
0
0
LINE
8
electrical
10
-59490.28
20
-13820.0
30
0
11
-59500.0
21
-13820.0
31
0
0
LINE
8
hvac
10
-71025.0
20
-13275.0
30
0
11
-71025.0
21
-12525.0
31
0
0
LINE
8
hvac
10
-69375.0
20
-13275.0
30
0
11
-69375.0
21
-12525.0
31
0
0
LINE
8
hvac
10
-71025.0
20
-13275.0
30
0
11
-69375.0
21
-13275.0
31
0
0
LINE
8
hvac
10
-71025.0
20
-12525.0
30
0
11
-69375.0
21
-12525.0
31
0
0
LINE
8
hvac
10
-70925.0
20
-13320.0
30
0
11
-70925.0
21
-13280.0
31
0
0
LINE
8
hvac
10
-69475.0
20
-13320.0
30
0
11
-69475.0
21
-13280.0
31
0
0
LINE
8
hvac
10
-70925.0
20
-13320.0
30
0
11
-69475.0
21
-13320.0
31
0
0
LINE
8
hvac
10
-70925.0
20
-13280.0
30
0
11
-69475.0
21
-13280.0
31
0
0
LINE
8
hvac
10
-70860.0
20
-13360.0
30
0
11
-70860.0
21
-13300.0
31
0
0
LINE
8
hvac
10
-70820.0
20
-13360.0
30
0
11
-70820.0
21
-13300.0
31
0
0
LINE
8
hvac
10
-70860.0
20
-13360.0
30
0
11
-70820.0
21
-13360.0
31
0
0
LINE
8
hvac
10
-70860.0
20
-13300.0
30
0
11
-70820.0
21
-13300.0
31
0
0
LINE
8
hvac
10
-70700.0
20
-13360.0
30
0
11
-70700.0
21
-13300.0
31
0
0
LINE
8
hvac
10
-70660.0
20
-13360.0
30
0
11
-70660.0
21
-13300.0
31
0
0
LINE
8
hvac
10
-70700.0
20
-13360.0
30
0
11
-70660.0
21
-13360.0
31
0
0
LINE
8
hvac
10
-70700.0
20
-13300.0
30
0
11
-70660.0
21
-13300.0
31
0
0
LINE
8
hvac
10
-70540.0
20
-13360.0
30
0
11
-70540.0
21
-13300.0
31
0
0
LINE
8
hvac
10
-70500.0
20
-13360.0
30
0
11
-70500.0
21
-13300.0
31
0
0
LINE
8
hvac
10
-70540.0
20
-13360.0
30
0
11
-70500.0
21
-13360.0
31
0
0
LINE
8
hvac
10
-70540.0
20
-13300.0
30
0
11
-70500.0
21
-13300.0
31
0
0
LINE
8
hvac
10
-70380.0
20
-13360.0
30
0
11
-70380.0
21
-13300.0
31
0
0
LINE
8
hvac
10
-70340.0
20
-13360.0
30
0
11
-70340.0
21
-13300.0
31
0
0
LINE
8
hvac
10
-70380.0
20
-13360.0
30
0
11
-70340.0
21
-13360.0
31
0
0
LINE
8
hvac
10
-70380.0
20
-13300.0
30
0
11
-70340.0
21
-13300.0
31
0
0
LINE
8
hvac
10
-70220.0
20
-13360.0
30
0
11
-70220.0
21
-13300.0
31
0
0
LINE
8
hvac
10
-70180.0
20
-13360.0
30
0
11
-70180.0
21
-13300.0
31
0
0
LINE
8
hvac
10
-70220.0
20
-13360.0
30
0
11
-70180.0
21
-13360.0
31
0
0
LINE
8
hvac
10
-70220.0
20
-13300.0
30
0
11
-70180.0
21
-13300.0
31
0
0
LINE
8
hvac
10
-70060.0
20
-13360.0
30
0
11
-70060.0
21
-13300.0
31
0
0
LINE
8
hvac
10
-70020.0
20
-13360.0
30
0
11
-70020.0
21
-13300.0
31
0
0
LINE
8
hvac
10
-70060.0
20
-13360.0
30
0
11
-70020.0
21
-13360.0
31
0
0
LINE
8
hvac
10
-70060.0
20
-13300.0
30
0
11
-70020.0
21
-13300.0
31
0
0
LINE
8
hvac
10
-69900.0
20
-13360.0
30
0
11
-69900.0
21
-13300.0
31
0
0
LINE
8
hvac
10
-69860.0
20
-13360.0
30
0
11
-69860.0
21
-13300.0
31
0
0
LINE
8
hvac
10
-69900.0
20
-13360.0
30
0
11
-69860.0
21
-13360.0
31
0
0
LINE
8
hvac
10
-69900.0
20
-13300.0
30
0
11
-69860.0
21
-13300.0
31
0
0
LINE
8
hvac
10
-69740.0
20
-13360.0
30
0
11
-69740.0
21
-13300.0
31
0
0
LINE
8
hvac
10
-69700.0
20
-13360.0
30
0
11
-69700.0
21
-13300.0
31
0
0
LINE
8
hvac
10
-69740.0
20
-13360.0
30
0
11
-69700.0
21
-13360.0
31
0
0
LINE
8
hvac
10
-69740.0
20
-13300.0
30
0
11
-69700.0
21
-13300.0
31
0
0
LINE
8
hvac
10
-69580.0
20
-13360.0
30
0
11
-69580.0
21
-13300.0
31
0
0
LINE
8
hvac
10
-69540.0
20
-13360.0
30
0
11
-69540.0
21
-13300.0
31
0
0
LINE
8
hvac
10
-69580.0
20
-13360.0
30
0
11
-69540.0
21
-13360.0
31
0
0
LINE
8
hvac
10
-69580.0
20
-13300.0
30
0
11
-69540.0
21
-13300.0
31
0
0
LINE
8
hvac
10
-70425.0
20
-13125.0
30
0
11
-70425.0
21
-12675.0
31
0
0
LINE
8
hvac
10
-69975.0
20
-13125.0
30
0
11
-69975.0
21
-12675.0
31
0
0
LINE
8
hvac
10
-70425.0
20
-13125.0
30
0
11
-69975.0
21
-13125.0
31
0
0
LINE
8
hvac
10
-70425.0
20
-12675.0
30
0
11
-69975.0
21
-12675.0
31
0
0
LINE
8
hvac
10
-69250.0
20
-8175.0
30
0
11
-69250.0
21
-7825.0
31
0
0
LINE
8
hvac
10
-58750.0
20
-8175.0
30
0
11
-58750.0
21
-7825.0
31
0
0
LINE
8
hvac
10
-69250.0
20
-8175.0
30
0
11
-58750.0
21
-8175.0
31
0
0
LINE
8
hvac
10
-69250.0
20
-7825.0
30
0
11
-58750.0
21
-7825.0
31
0
0
LINE
8
hvac
10
-70375.0
20
-13075.0
30
0
11
-70375.0
21
-12725.0
31
0
0
LINE
8
hvac
10
-63825.0
20
-13075.0
30
0
11
-63825.0
21
-12725.0
31
0
0
LINE
8
hvac
10
-70375.0
20
-13075.0
30
0
11
-63825.0
21
-13075.0
31
0
0
LINE
8
hvac
10
-70375.0
20
-12725.0
30
0
11
-63825.0
21
-12725.0
31
0
0
LINE
8
hvac
10
-64175.0
20
-13075.0
30
0
11
-64175.0
21
-7825.0
31
0
0
LINE
8
hvac
10
-63825.0
20
-13075.0
30
0
11
-63825.0
21
-7825.0
31
0
0
LINE
8
hvac
10
-64175.0
20
-13075.0
30
0
11
-63825.0
21
-13075.0
31
0
0
LINE
8
hvac
10
-64175.0
20
-7825.0
30
0
11
-63825.0
21
-7825.0
31
0
0
LINE
8
hvac
10
-67350.0
20
-8350.0
30
0
11
-67350.0
21
-7650.0
31
0
0
LINE
8
hvac
10
-66650.0
20
-8350.0
30
0
11
-66650.0
21
-7650.0
31
0
0
LINE
8
hvac
10
-67350.0
20
-8350.0
30
0
11
-66650.0
21
-8350.0
31
0
0
LINE
8
hvac
10
-67350.0
20
-7650.0
30
0
11
-66650.0
21
-7650.0
31
0
0
LINE
8
hvac
10
-61350.0
20
-8350.0
30
0
11
-61350.0
21
-7650.0
31
0
0
LINE
8
hvac
10
-60650.0
20
-8350.0
30
0
11
-60650.0
21
-7650.0
31
0
0
LINE
8
hvac
10
-61350.0
20
-8350.0
30
0
11
-60650.0
21
-8350.0
31
0
0
LINE
8
hvac
10
-61350.0
20
-7650.0
30
0
11
-60650.0
21
-7650.0
31
0
0
LINE
8
sensors
10
-71460.0
20
-11440.0
30
0
11
-71460.0
21
-11280.0
31
0
0
LINE
8
sensors
10
-71360.0
20
-11440.0
30
0
11
-71360.0
21
-11280.0
31
0
0
LINE
8
sensors
10
-71460.0
20
-11440.0
30
0
11
-71360.0
21
-11440.0
31
0
0
LINE
8
sensors
10
-71460.0
20
-11280.0
30
0
11
-71360.0
21
-11280.0
31
0
0
LINE
8
sensors
10
-71355.0
20
-11415.0
30
0
11
-71355.0
21
-11305.0
31
0
0
LINE
8
sensors
10
-71335.0
20
-11415.0
30
0
11
-71335.0
21
-11305.0
31
0
0
LINE
8
sensors
10
-71355.0
20
-11415.0
30
0
11
-71335.0
21
-11415.0
31
0
0
LINE
8
sensors
10
-71355.0
20
-11305.0
30
0
11
-71335.0
21
-11305.0
31
0
0
LINE
8
sensors
10
-71460.0
20
-11140.0
30
0
11
-71460.0
21
-10980.0
31
0
0
LINE
8
sensors
10
-71360.0
20
-11140.0
30
0
11
-71360.0
21
-10980.0
31
0
0
LINE
8
sensors
10
-71460.0
20
-11140.0
30
0
11
-71360.0
21
-11140.0
31
0
0
LINE
8
sensors
10
-71460.0
20
-10980.0
30
0
11
-71360.0
21
-10980.0
31
0
0
LINE
8
sensors
10
-71355.0
20
-11115.0
30
0
11
-71355.0
21
-11005.0
31
0
0
LINE
8
sensors
10
-71335.0
20
-11115.0
30
0
11
-71335.0
21
-11005.0
31
0
0
LINE
8
sensors
10
-71355.0
20
-11115.0
30
0
11
-71335.0
21
-11115.0
31
0
0
LINE
8
sensors
10
-71355.0
20
-11005.0
30
0
11
-71335.0
21
-11005.0
31
0
0
LINE
8
sensors
10
-71460.0
20
-10840.0
30
0
11
-71460.0
21
-10680.0
31
0
0
LINE
8
sensors
10
-71360.0
20
-10840.0
30
0
11
-71360.0
21
-10680.0
31
0
0
LINE
8
sensors
10
-71460.0
20
-10840.0
30
0
11
-71360.0
21
-10840.0
31
0
0
LINE
8
sensors
10
-71460.0
20
-10680.0
30
0
11
-71360.0
21
-10680.0
31
0
0
LINE
8
sensors
10
-71355.0
20
-10815.0
30
0
11
-71355.0
21
-10705.0
31
0
0
LINE
8
sensors
10
-71335.0
20
-10815.0
30
0
11
-71335.0
21
-10705.0
31
0
0
LINE
8
sensors
10
-71355.0
20
-10815.0
30
0
11
-71335.0
21
-10815.0
31
0
0
LINE
8
sensors
10
-71355.0
20
-10705.0
30
0
11
-71335.0
21
-10705.0
31
0
0
LINE
8
sensors
10
-63920.0
20
-8000.0
30
0
11
-64000.0
21
-7920.0
31
0
0
LINE
8
sensors
10
-64000.0
20
-7920.0
30
0
11
-64080.0
21
-8000.0
31
0
0
LINE
8
sensors
10
-64080.0
20
-8000.0
30
0
11
-64000.0
21
-8080.0
31
0
0
LINE
8
sensors
10
-64000.0
20
-8080.0
30
0
11
-63920.0
21
-8000.0
31
0
0
LINE
8
sensors
10
-64000.0
20
-8000.0
30
0
11
-63935.0
21
-8000.0
31
0
0
LINE
8
sensors
10
-63935.0
20
-8000.0
30
0
11
-64000.0
21
-8000.0
31
0
0
LINE
8
sensors
10
-71460.0
20
-10240.0
30
0
11
-71460.0
21
-10080.0
31
0
0
LINE
8
sensors
10
-71360.0
20
-10240.0
30
0
11
-71360.0
21
-10080.0
31
0
0
LINE
8
sensors
10
-71460.0
20
-10240.0
30
0
11
-71360.0
21
-10240.0
31
0
0
LINE
8
sensors
10
-71460.0
20
-10080.0
30
0
11
-71360.0
21
-10080.0
31
0
0
LINE
8
sensors
10
-71355.0
20
-10215.0
30
0
11
-71355.0
21
-10105.0
31
0
0
LINE
8
sensors
10
-71335.0
20
-10215.0
30
0
11
-71335.0
21
-10105.0
31
0
0
LINE
8
sensors
10
-71355.0
20
-10215.0
30
0
11
-71335.0
21
-10215.0
31
0
0
LINE
8
sensors
10
-71355.0
20
-10105.0
30
0
11
-71335.0
21
-10105.0
31
0
0
ENDSEC
0
EOF
