0
SECTION
2
HEADER
9
$ACADVER
1
AC1015
9
$INSUNITS
70
4
0
ENDSEC
0
SECTION
2
ENTITIES
0
LINE
8
interiors
10
56500.0
20
-14000.0
30
0
11
56500.0
21
-2000.0
31
0
0
LINE
8
interiors
10
56500.0
20
-14000.0
30
0
11
62800.0
21
-14000.0
31
0
0
LINE
8
interiors
10
62800.0
20
-14000.0
30
0
11
65200.0
21
-14000.0
31
0
0
LINE
8
interiors
10
65200.0
20
-14000.0
30
0
11
71500.0
21
-14000.0
31
0
0
LINE
8
interiors
10
56500.0
20
-14000.0
30
0
11
71500.0
21
-14000.0
31
0
0
LINE
8
interiors
10
56500.0
20
-2000.0
30
0
11
71500.0
21
-2000.0
31
0
0
LINE
8
interiors
10
71500.0
20
-14000.0
30
0
11
71500.0
21
-2000.0
31
0
0
LINE
8
interiors
10
71380.0
20
-13880.0
30
0
11
56620.0
21
-13880.0
31
0
0
LINE
8
interiors
10
71380.0
20
-13880.0
30
0
11
71380.0
21
-2120.0
31
0
0
LINE
8
interiors
10
71380.0
20
-2120.0
30
0
11
56620.0
21
-2120.0
31
0
0
LINE
8
interiors
10
56620.0
20
-13880.0
30
0
11
56620.0
21
-2120.0
31
0
0
LINE
8
interiors
10
60100.0
20
-2000.0
30
0
11
67900.0
21
-2000.0
31
0
0
LINE
8
interiors
10
65200.0
20
-14000.0
30
0
11
65200.0
21
-13880.0
31
0
0
LINE
8
interiors
10
71380.0
20
-13880.0
30
0
11
65200.0
21
-13880.0
31
0
0
LINE
8
interiors
10
62800.0
20
-13880.0
30
0
11
56620.0
21
-13880.0
31
0
0
LINE
8
interiors
10
62800.0
20
-14000.0
30
0
11
62800.0
21
-13880.0
31
0
0
LINE
8
interiors
10
62800.0
20
-13880.0
30
0
11
65200.0
21
-13880.0
31
0
0
LINE
8
interiors
10
60100.0
20
-2120.0
30
0
11
67900.0
21
-2120.0
31
0
0
LINE
8
interiors
10
60100.0
20
-2120.0
30
0
11
60100.0
21
-2000.0
31
0
0
LINE
8
interiors
10
67900.0
20
-2120.0
30
0
11
67900.0
21
-2000.0
31
0
0
LINE
8
interiors
10
60100.0
20
-2022.5
30
0
11
60100.0
21
-1977.5
31
0
0
LINE
8
interiors
10
67900.0
20
-2022.5
30
0
11
67900.0
21
-1977.5
31
0
0
LINE
8
interiors
10
60100.0
20
-2022.5
30
0
11
67900.0
21
-2022.5
31
0
0
LINE
8
interiors
10
60100.0
20
-1977.5
30
0
11
67900.0
21
-1977.5
31
0
0
LINE
8
interiors
10
56625.0
20
-13875.0
30
0
11
56625.0
21
-2125.0
31
0
0
LINE
8
interiors
10
71375.0
20
-13875.0
30
0
11
71375.0
21
-2125.0
31
0
0
LINE
8
interiors
10
56625.0
20
-13875.0
30
0
11
71375.0
21
-13875.0
31
0
0
LINE
8
interiors
10
56625.0
20
-2125.0
30
0
11
71375.0
21
-2125.0
31
0
0
LINE
8
interiors
10
62845.0
20
-14120.0
30
0
11
62845.0
21
-13880.0
31
0
0
LINE
8
interiors
10
62915.0
20
-14120.0
30
0
11
62915.0
21
-13880.0
31
0
0
LINE
8
interiors
10
62845.0
20
-14120.0
30
0
11
62915.0
21
-14120.0
31
0
0
LINE
8
interiors
10
62845.0
20
-13880.0
30
0
11
62915.0
21
-13880.0
31
0
0
LINE
8
interiors
10
65085.0
20
-14120.0
30
0
11
65085.0
21
-13880.0
31
0
0
LINE
8
interiors
10
65155.0
20
-14120.0
30
0
11
65155.0
21
-13880.0
31
0
0
LINE
8
interiors
10
65085.0
20
-14120.0
30
0
11
65155.0
21
-14120.0
31
0
0
LINE
8
interiors
10
65085.0
20
-13880.0
30
0
11
65155.0
21
-13880.0
31
0
0
LINE
8
interiors
10
62850.0
20
-14120.0
30
0
11
62850.0
21
-13880.0
31
0
0
LINE
8
interiors
10
65150.0
20
-14120.0
30
0
11
65150.0
21
-13880.0
31
0
0
LINE
8
interiors
10
62850.0
20
-14120.0
30
0
11
65150.0
21
-14120.0
31
0
0
LINE
8
interiors
10
62850.0
20
-13880.0
30
0
11
65150.0
21
-13880.0
31
0
0
LINE
8
interiors
10
62930.39
20
-13909.51
30
0
11
62889.61
21
-13890.49
31
0
0
LINE
8
interiors
10
63386.82
20
-12930.7
30
0
11
63346.04
21
-12911.68
31
0
0
LINE
8
interiors
10
62930.39
20
-13909.51
30
0
11
63386.82
21
-12930.7
31
0
0
LINE
8
interiors
10
62889.61
20
-13890.49
30
0
11
63346.04
21
-12911.68
31
0
0
LINE
8
interiors
10
59600.0
20
-10660.0
30
0
11
59600.0
21
-9660.0
31
0
0
LINE
8
interiors
10
62400.0
20
-10660.0
30
0
11
62400.0
21
-9660.0
31
0
0
LINE
8
interiors
10
59600.0
20
-10660.0
30
0
11
62400.0
21
-10660.0
31
0
0
LINE
8
interiors
10
59600.0
20
-9660.0
30
0
11
62400.0
21
-9660.0
31
0
0
LINE
8
interiors
10
59665.0
20
-10595.0
30
0
11
59665.0
21
-10525.0
31
0
0
LINE
8
interiors
10
59735.0
20
-10595.0
30
0
11
59735.0
21
-10525.0
31
0
0
LINE
8
interiors
10
59665.0
20
-10595.0
30
0
11
59735.0
21
-10595.0
31
0
0
LINE
8
interiors
10
59665.0
20
-10525.0
30
0
11
59735.0
21
-10525.0
31
0
0
LINE
8
interiors
10
59665.0
20
-9795.0
30
0
11
59665.0
21
-9725.0
31
0
0
LINE
8
interiors
10
59735.0
20
-9795.0
30
0
11
59735.0
21
-9725.0
31
0
0
LINE
8
interiors
10
59665.0
20
-9795.0
30
0
11
59735.0
21
-9795.0
31
0
0
LINE
8
interiors
10
59665.0
20
-9725.0
30
0
11
59735.0
21
-9725.0
31
0
0
LINE
8
interiors
10
62265.0
20
-10595.0
30
0
11
62265.0
21
-10525.0
31
0
0
LINE
8
interiors
10
62335.0
20
-10595.0
30
0
11
62335.0
21
-10525.0
31
0
0
LINE
8
interiors
10
62265.0
20
-10595.0
30
0
11
62335.0
21
-10595.0
31
0
0
LINE
8
interiors
10
62265.0
20
-10525.0
30
0
11
62335.0
21
-10525.0
31
0
0
LINE
8
interiors
10
62265.0
20
-9795.0
30
0
11
62265.0
21
-9725.0
31
0
0
LINE
8
interiors
10
62335.0
20
-9795.0
30
0
11
62335.0
21
-9725.0
31
0
0
LINE
8
interiors
10
62265.0
20
-9795.0
30
0
11
62335.0
21
-9795.0
31
0
0
LINE
8
interiors
10
62265.0
20
-9725.0
30
0
11
62335.0
21
-9725.0
31
0
0
LINE
8
interiors
10
59250.0
20
-5350.0
30
0
11
59250.0
21
-4650.0
31
0
0
LINE
8
interiors
10
61250.0
20
-5350.0
30
0
11
61250.0
21
-4650.0
31
0
0
LINE
8
interiors
10
59250.0
20
-5350.0
30
0
11
61250.0
21
-5350.0
31
0
0
LINE
8
interiors
10
59250.0
20
-4650.0
30
0
11
61250.0
21
-4650.0
31
0
0
LINE
8
interiors
10
59350.0
20
-5372.5
30
0
11
59350.0
21
-5347.5
31
0
0
LINE
8
interiors
10
61150.0
20
-5372.5
30
0
11
61150.0
21
-5347.5
31
0
0
LINE
8
interiors
10
59350.0
20
-5372.5
30
0
11
61150.0
21
-5372.5
31
0
0
LINE
8
interiors
10
59350.0
20
-5347.5
30
0
11
61150.0
21
-5347.5
31
0
0
LINE
8
electrical
10
70775.0
20
-13925.0
30
0
11
70775.0
21
-13675.0
31
0
0
LINE
8
electrical
10
71325.0
20
-13925.0
30
0
11
71325.0
21
-13675.0
31
0
0
LINE
8
electrical
10
70775.0
20
-13925.0
30
0
11
71325.0
21
-13925.0
31
0
0
LINE
8
electrical
10
70775.0
20
-13675.0
30
0
11
71325.0
21
-13675.0
31
0
0
LINE
8
electrical
10
70815.0
20
-13952.5
30
0
11
70815.0
21
-13917.5
31
0
0
LINE
8
electrical
10
71285.0
20
-13952.5
30
0
11
71285.0
21
-13917.5
31
0
0
LINE
8
electrical
10
70815.0
20
-13952.5
30
0
11
71285.0
21
-13952.5
31
0
0
LINE
8
electrical
10
70815.0
20
-13917.5
30
0
11
71285.0
21
-13917.5
31
0
0
LINE
8
electrical
10
70862.5
20
-13990.0
30
0
11
70862.5
21
-13950.0
31
0
0
LINE
8
electrical
10
70962.5
20
-13990.0
30
0
11
70962.5
21
-13950.0
31
0
0
LINE
8
electrical
10
70862.5
20
-13990.0
30
0
11
70962.5
21
-13990.0
31
0
0
LINE
8
electrical
10
70862.5
20
-13950.0
30
0
11
70962.5
21
-13950.0
31
0
0
LINE
8
electrical
10
71000.0
20
-13990.0
30
0
11
71000.0
21
-13950.0
31
0
0
LINE
8
electrical
10
71100.0
20
-13990.0
30
0
11
71100.0
21
-13950.0
31
0
0
LINE
8
electrical
10
71000.0
20
-13990.0
30
0
11
71100.0
21
-13990.0
31
0
0
LINE
8
electrical
10
71000.0
20
-13950.0
30
0
11
71100.0
21
-13950.0
31
0
0
LINE
8
electrical
10
71137.5
20
-13990.0
30
0
11
71137.5
21
-13950.0
31
0
0
LINE
8
electrical
10
71237.5
20
-13990.0
30
0
11
71237.5
21
-13950.0
31
0
0
LINE
8
electrical
10
71137.5
20
-13990.0
30
0
11
71237.5
21
-13990.0
31
0
0
LINE
8
electrical
10
71137.5
20
-13950.0
30
0
11
71237.5
21
-13950.0
31
0
0
LINE
8
electrical
10
70912.5
20
-14005.0
30
0
11
70935.88
21
-14005.0
31
0
0
LINE
8
electrical
10
70935.88
20
-14005.0
30
0
11
70889.12
21
-14005.0
31
0
0
LINE
8
electrical
10
70889.12
20
-14005.0
30
0
11
70912.5
21
-14005.0
31
0
0
LINE
8
electrical
10
70912.5
20
-13980.0
30
0
11
70912.5
21
-14005.0
31
0
0
LINE
8
electrical
10
70912.5
20
-13980.0
30
0
11
70935.88
21
-13980.0
31
0
0
LINE
8
electrical
10
70935.88
20
-13980.0
30
0
11
70889.12
21
-13980.0
31
0
0
LINE
8
electrical
10
70889.12
20
-13980.0
30
0
11
70912.5
21
-13980.0
31
0
0
LINE
8
electrical
10
71050.0
20
-14005.0
30
0
11
71073.38
21
-14005.0
31
0
0
LINE
8
electrical
10
71073.38
20
-14005.0
30
0
11
71026.62
21
-14005.0
31
0
0
LINE
8
electrical
10
71026.62
20
-14005.0
30
0
11
71050.0
21
-14005.0
31
0
0
LINE
8
electrical
10
71050.0
20
-13980.0
30
0
11
71050.0
21
-14005.0
31
0
0
LINE
8
electrical
10
71050.0
20
-13980.0
30
0
11
71073.38
21
-13980.0
31
0
0
LINE
8
electrical
10
71073.38
20
-13980.0
30
0
11
71026.62
21
-13980.0
31
0
0
LINE
8
electrical
10
71026.62
20
-13980.0
30
0
11
71050.0
21
-13980.0
31
0
0
LINE
8
electrical
10
71187.5
20
-14005.0
30
0
11
71210.88
21
-14005.0
31
0
0
LINE
8
electrical
10
71210.88
20
-14005.0
30
0
11
71164.12
21
-14005.0
31
0
0
LINE
8
electrical
10
71164.12
20
-14005.0
30
0
11
71187.5
21
-14005.0
31
0
0
LINE
8
electrical
10
71187.5
20
-13980.0
30
0
11
71187.5
21
-14005.0
31
0
0
LINE
8
electrical
10
71187.5
20
-13980.0
30
0
11
71210.88
21
-13980.0
31
0
0
LINE
8
electrical
10
71210.88
20
-13980.0
30
0
11
71164.12
21
-13980.0
31
0
0
LINE
8
electrical
10
71164.12
20
-13980.0
30
0
11
71187.5
21
-13980.0
31
0
0
LINE
8
electrical
10
71050.0
20
-13800.0
30
0
11
71065.59
21
-13800.0
31
0
0
LINE
8
electrical
10
71065.59
20
-13800.0
30
0
11
71034.41
21
-13800.0
31
0
0
LINE
8
electrical
10
71034.41
20
-13800.0
30
0
11
71050.0
21
-13800.0
31
0
0
LINE
8
electrical
10
71050.0
20
-34800.0
30
0
11
71050.0
21
-13800.0
31
0
0
LINE
8
electrical
10
71050.0
20
-34800.0
30
0
11
71065.59
21
-34800.0
31
0
0
LINE
8
electrical
10
71065.59
20
-34800.0
30
0
11
71034.41
21
-34800.0
31
0
0
LINE
8
electrical
10
71034.41
20
-34800.0
30
0
11
71050.0
21
-34800.0
31
0
0
LINE
8
electrical
10
71032.0
20
-13800.0
30
0
11
71059.0
21
-13784.41
31
0
0
LINE
8
electrical
10
71059.0
20
-13784.41
30
0
11
71059.0
21
-13815.59
31
0
0
LINE
8
electrical
10
71059.0
20
-13815.59
30
0
11
71032.0
21
-13800.0
31
0
0
LINE
8
electrical
10
71050.0
20
-13800.0
30
0
11
71069.44
21
-13800.0
31
0
0
LINE
8
electrical
10
71069.44
20
-13800.0
30
0
11
71050.0
21
-13800.0
31
0
0
LINE
8
lighting
10
58280.0
20
-12400.0
30
0
11
58280.0
21
-11760.0
31
0
0
LINE
8
lighting
10
58920.0
20
-12400.0
30
0
11
58920.0
21
-11760.0
31
0
0
LINE
8
lighting
10
58280.0
20
-12400.0
30
0
11
58920.0
21
-12400.0
31
0
0
LINE
8
lighting
10
58280.0
20
-11760.0
30
0
11
58920.0
21
-11760.0
31
0
0
LINE
8
lighting
10
58320.0
20
-12360.0
30
0
11
58320.0
21
-11800.0
31
0
0
LINE
8
lighting
10
58880.0
20
-12360.0
30
0
11
58880.0
21
-11800.0
31
0
0
LINE
8
lighting
10
58320.0
20
-12360.0
30
0
11
58880.0
21
-12360.0
31
0
0
LINE
8
lighting
10
58320.0
20
-11800.0
30
0
11
58880.0
21
-11800.0
31
0
0
LINE
8
lighting
10
58354.0
20
-12350.0
30
0
11
58354.0
21
-11810.0
31
0
0
LINE
8
lighting
10
58366.0
20
-12350.0
30
0
11
58366.0
21
-11810.0
31
0
0
LINE
8
lighting
10
58354.0
20
-12350.0
30
0
11
58366.0
21
-12350.0
31
0
0
LINE
8
lighting
10
58354.0
20
-11810.0
30
0
11
58366.0
21
-11810.0
31
0
0
LINE
8
lighting
10
58434.0
20
-12350.0
30
0
11
58434.0
21
-11810.0
31
0
0
LINE
8
lighting
10
58446.0
20
-12350.0
30
0
11
58446.0
21
-11810.0
31
0
0
LINE
8
lighting
10
58434.0
20
-12350.0
30
0
11
58446.0
21
-12350.0
31
0
0
LINE
8
lighting
10
58434.0
20
-11810.0
30
0
11
58446.0
21
-11810.0
31
0
0
LINE
8
lighting
10
58514.0
20
-12350.0
30
0
11
58514.0
21
-11810.0
31
0
0
LINE
8
lighting
10
58526.0
20
-12350.0
30
0
11
58526.0
21
-11810.0
31
0
0
LINE
8
lighting
10
58514.0
20
-12350.0
30
0
11
58526.0
21
-12350.0
31
0
0
LINE
8
lighting
10
58514.0
20
-11810.0
30
0
11
58526.0
21
-11810.0
31
0
0
LINE
8
lighting
10
58594.0
20
-12350.0
30
0
11
58594.0
21
-11810.0
31
0
0
LINE
8
lighting
10
58606.0
20
-12350.0
30
0
11
58606.0
21
-11810.0
31
0
0
LINE
8
lighting
10
58594.0
20
-12350.0
30
0
11
58606.0
21
-12350.0
31
0
0
LINE
8
lighting
10
58594.0
20
-11810.0
30
0
11
58606.0
21
-11810.0
31
0
0
LINE
8
lighting
10
58674.0
20
-12350.0
30
0
11
58674.0
21
-11810.0
31
0
0
LINE
8
lighting
10
58686.0
20
-12350.0
30
0
11
58686.0
21
-11810.0
31
0
0
LINE
8
lighting
10
58674.0
20
-12350.0
30
0
11
58686.0
21
-12350.0
31
0
0
LINE
8
lighting
10
58674.0
20
-11810.0
30
0
11
58686.0
21
-11810.0
31
0
0
LINE
8
lighting
10
58754.0
20
-12350.0
30
0
11
58754.0
21
-11810.0
31
0
0
LINE
8
lighting
10
58766.0
20
-12350.0
30
0
11
58766.0
21
-11810.0
31
0
0
LINE
8
lighting
10
58754.0
20
-12350.0
30
0
11
58766.0
21
-12350.0
31
0
0
LINE
8
lighting
10
58754.0
20
-11810.0
30
0
11
58766.0
21
-11810.0
31
0
0
LINE
8
lighting
10
58834.0
20
-12350.0
30
0
11
58834.0
21
-11810.0
31
0
0
LINE
8
lighting
10
58846.0
20
-12350.0
30
0
11
58846.0
21
-11810.0
31
0
0
LINE
8
lighting
10
58834.0
20
-12350.0
30
0
11
58846.0
21
-12350.0
31
0
0
LINE
8
lighting
10
58834.0
20
-11810.0
30
0
11
58846.0
21
-11810.0
31
0
0
LINE
8
lighting
10
58609.0
20
-12080.0
30
0
11
58595.5
21
-12072.21
31
0
0
LINE
8
lighting
10
58595.5
20
-12072.21
30
0
11
58595.5
21
-12087.79
31
0
0
LINE
8
lighting
10
58595.5
20
-12087.79
30
0
11
58609.0
21
-12080.0
31
0
0
LINE
8
lighting
10
69080.0
20
-12400.0
30
0
11
69080.0
21
-11760.0
31
0
0
LINE
8
lighting
10
69720.0
20
-12400.0
30
0
11
69720.0
21
-11760.0
31
0
0
LINE
8
lighting
10
69080.0
20
-12400.0
30
0
11
69720.0
21
-12400.0
31
0
0
LINE
8
lighting
10
69080.0
20
-11760.0
30
0
11
69720.0
21
-11760.0
31
0
0
LINE
8
lighting
10
69120.0
20
-12360.0
30
0
11
69120.0
21
-11800.0
31
0
0
LINE
8
lighting
10
69680.0
20
-12360.0
30
0
11
69680.0
21
-11800.0
31
0
0
LINE
8
lighting
10
69120.0
20
-12360.0
30
0
11
69680.0
21
-12360.0
31
0
0
LINE
8
lighting
10
69120.0
20
-11800.0
30
0
11
69680.0
21
-11800.0
31
0
0
LINE
8
lighting
10
69154.0
20
-12350.0
30
0
11
69154.0
21
-11810.0
31
0
0
LINE
8
lighting
10
69166.0
20
-12350.0
30
0
11
69166.0
21
-11810.0
31
0
0
LINE
8
lighting
10
69154.0
20
-12350.0
30
0
11
69166.0
21
-12350.0
31
0
0
LINE
8
lighting
10
69154.0
20
-11810.0
30
0
11
69166.0
21
-11810.0
31
0
0
LINE
8
lighting
10
69234.0
20
-12350.0
30
0
11
69234.0
21
-11810.0
31
0
0
LINE
8
lighting
10
69246.0
20
-12350.0
30
0
11
69246.0
21
-11810.0
31
0
0
LINE
8
lighting
10
69234.0
20
-12350.0
30
0
11
69246.0
21
-12350.0
31
0
0
LINE
8
lighting
10
69234.0
20
-11810.0
30
0
11
69246.0
21
-11810.0
31
0
0
LINE
8
lighting
10
69314.0
20
-12350.0
30
0
11
69314.0
21
-11810.0
31
0
0
LINE
8
lighting
10
69326.0
20
-12350.0
30
0
11
69326.0
21
-11810.0
31
0
0
LINE
8
lighting
10
69314.0
20
-12350.0
30
0
11
69326.0
21
-12350.0
31
0
0
LINE
8
lighting
10
69314.0
20
-11810.0
30
0
11
69326.0
21
-11810.0
31
0
0
LINE
8
lighting
10
69394.0
20
-12350.0
30
0
11
69394.0
21
-11810.0
31
0
0
LINE
8
lighting
10
69406.0
20
-12350.0
30
0
11
69406.0
21
-11810.0
31
0
0
LINE
8
lighting
10
69394.0
20
-12350.0
30
0
11
69406.0
21
-12350.0
31
0
0
LINE
8
lighting
10
69394.0
20
-11810.0
30
0
11
69406.0
21
-11810.0
31
0
0
LINE
8
lighting
10
69474.0
20
-12350.0
30
0
11
69474.0
21
-11810.0
31
0
0
LINE
8
lighting
10
69486.0
20
-12350.0
30
0
11
69486.0
21
-11810.0
31
0
0
LINE
8
lighting
10
69474.0
20
-12350.0
30
0
11
69486.0
21
-12350.0
31
0
0
LINE
8
lighting
10
69474.0
20
-11810.0
30
0
11
69486.0
21
-11810.0
31
0
0
LINE
8
lighting
10
69554.0
20
-12350.0
30
0
11
69554.0
21
-11810.0
31
0
0
LINE
8
lighting
10
69566.0
20
-12350.0
30
0
11
69566.0
21
-11810.0
31
0
0
LINE
8
lighting
10
69554.0
20
-12350.0
30
0
11
69566.0
21
-12350.0
31
0
0
LINE
8
lighting
10
69554.0
20
-11810.0
30
0
11
69566.0
21
-11810.0
31
0
0
LINE
8
lighting
10
69634.0
20
-12350.0
30
0
11
69634.0
21
-11810.0
31
0
0
LINE
8
lighting
10
69646.0
20
-12350.0
30
0
11
69646.0
21
-11810.0
31
0
0
LINE
8
lighting
10
69634.0
20
-12350.0
30
0
11
69646.0
21
-12350.0
31
0
0
LINE
8
lighting
10
69634.0
20
-11810.0
30
0
11
69646.0
21
-11810.0
31
0
0
LINE
8
lighting
10
69409.0
20
-12080.0
30
0
11
69395.5
21
-12072.21
31
0
0
LINE
8
lighting
10
69395.5
20
-12072.21
30
0
11
69395.5
21
-12087.79
31
0
0
LINE
8
lighting
10
69395.5
20
-12087.79
30
0
11
69409.0
21
-12080.0
31
0
0
LINE
8
lighting
10
58280.0
20
-4240.0
30
0
11
58280.0
21
-3600.0
31
0
0
LINE
8
lighting
10
58920.0
20
-4240.0
30
0
11
58920.0
21
-3600.0
31
0
0
LINE
8
lighting
10
58280.0
20
-4240.0
30
0
11
58920.0
21
-4240.0
31
0
0
LINE
8
lighting
10
58280.0
20
-3600.0
30
0
11
58920.0
21
-3600.0
31
0
0
LINE
8
lighting
10
58320.0
20
-4200.0
30
0
11
58320.0
21
-3640.0
31
0
0
LINE
8
lighting
10
58880.0
20
-4200.0
30
0
11
58880.0
21
-3640.0
31
0
0
LINE
8
lighting
10
58320.0
20
-4200.0
30
0
11
58880.0
21
-4200.0
31
0
0
LINE
8
lighting
10
58320.0
20
-3640.0
30
0
11
58880.0
21
-3640.0
31
0
0
LINE
8
lighting
10
58354.0
20
-4190.0
30
0
11
58354.0
21
-3650.0
31
0
0
LINE
8
lighting
10
58366.0
20
-4190.0
30
0
11
58366.0
21
-3650.0
31
0
0
LINE
8
lighting
10
58354.0
20
-4190.0
30
0
11
58366.0
21
-4190.0
31
0
0
LINE
8
lighting
10
58354.0
20
-3650.0
30
0
11
58366.0
21
-3650.0
31
0
0
LINE
8
lighting
10
58434.0
20
-4190.0
30
0
11
58434.0
21
-3650.0
31
0
0
LINE
8
lighting
10
58446.0
20
-4190.0
30
0
11
58446.0
21
-3650.0
31
0
0
LINE
8
lighting
10
58434.0
20
-4190.0
30
0
11
58446.0
21
-4190.0
31
0
0
LINE
8
lighting
10
58434.0
20
-3650.0
30
0
11
58446.0
21
-3650.0
31
0
0
LINE
8
lighting
10
58514.0
20
-4190.0
30
0
11
58514.0
21
-3650.0
31
0
0
LINE
8
lighting
10
58526.0
20
-4190.0
30
0
11
58526.0
21
-3650.0
31
0
0
LINE
8
lighting
10
58514.0
20
-4190.0
30
0
11
58526.0
21
-4190.0
31
0
0
LINE
8
lighting
10
58514.0
20
-3650.0
30
0
11
58526.0
21
-3650.0
31
0
0
LINE
8
lighting
10
58594.0
20
-4190.0
30
0
11
58594.0
21
-3650.0
31
0
0
LINE
8
lighting
10
58606.0
20
-4190.0
30
0
11
58606.0
21
-3650.0
31
0
0
LINE
8
lighting
10
58594.0
20
-4190.0
30
0
11
58606.0
21
-4190.0
31
0
0
LINE
8
lighting
10
58594.0
20
-3650.0
30
0
11
58606.0
21
-3650.0
31
0
0
LINE
8
lighting
10
58674.0
20
-4190.0
30
0
11
58674.0
21
-3650.0
31
0
0
LINE
8
lighting
10
58686.0
20
-4190.0
30
0
11
58686.0
21
-3650.0
31
0
0
LINE
8
lighting
10
58674.0
20
-4190.0
30
0
11
58686.0
21
-4190.0
31
0
0
LINE
8
lighting
10
58674.0
20
-3650.0
30
0
11
58686.0
21
-3650.0
31
0
0
LINE
8
lighting
10
58754.0
20
-4190.0
30
0
11
58754.0
21
-3650.0
31
0
0
LINE
8
lighting
10
58766.0
20
-4190.0
30
0
11
58766.0
21
-3650.0
31
0
0
LINE
8
lighting
10
58754.0
20
-4190.0
30
0
11
58766.0
21
-4190.0
31
0
0
LINE
8
lighting
10
58754.0
20
-3650.0
30
0
11
58766.0
21
-3650.0
31
0
0
LINE
8
lighting
10
58834.0
20
-4190.0
30
0
11
58834.0
21
-3650.0
31
0
0
LINE
8
lighting
10
58846.0
20
-4190.0
30
0
11
58846.0
21
-3650.0
31
0
0
LINE
8
lighting
10
58834.0
20
-4190.0
30
0
11
58846.0
21
-4190.0
31
0
0
LINE
8
lighting
10
58834.0
20
-3650.0
30
0
11
58846.0
21
-3650.0
31
0
0
LINE
8
lighting
10
58609.0
20
-3920.0
30
0
11
58595.5
21
-3912.21
31
0
0
LINE
8
lighting
10
58595.5
20
-3912.21
30
0
11
58595.5
21
-3927.79
31
0
0
LINE
8
lighting
10
58595.5
20
-3927.79
30
0
11
58609.0
21
-3920.0
31
0
0
LINE
8
lighting
10
69080.0
20
-4240.0
30
0
11
69080.0
21
-3600.0
31
0
0
LINE
8
lighting
10
69720.0
20
-4240.0
30
0
11
69720.0
21
-3600.0
31
0
0
LINE
8
lighting
10
69080.0
20
-4240.0
30
0
11
69720.0
21
-4240.0
31
0
0
LINE
8
lighting
10
69080.0
20
-3600.0
30
0
11
69720.0
21
-3600.0
31
0
0
LINE
8
lighting
10
69120.0
20
-4200.0
30
0
11
69120.0
21
-3640.0
31
0
0
LINE
8
lighting
10
69680.0
20
-4200.0
30
0
11
69680.0
21
-3640.0
31
0
0
LINE
8
lighting
10
69120.0
20
-4200.0
30
0
11
69680.0
21
-4200.0
31
0
0
LINE
8
lighting
10
69120.0
20
-3640.0
30
0
11
69680.0
21
-3640.0
31
0
0
LINE
8
lighting
10
69154.0
20
-4190.0
30
0
11
69154.0
21
-3650.0
31
0
0
LINE
8
lighting
10
69166.0
20
-4190.0
30
0
11
69166.0
21
-3650.0
31
0
0
LINE
8
lighting
10
69154.0
20
-4190.0
30
0
11
69166.0
21
-4190.0
31
0
0
LINE
8
lighting
10
69154.0
20
-3650.0
30
0
11
69166.0
21
-3650.0
31
0
0
LINE
8
lighting
10
69234.0
20
-4190.0
30
0
11
69234.0
21
-3650.0
31
0
0
LINE
8
lighting
10
69246.0
20
-4190.0
30
0
11
69246.0
21
-3650.0
31
0
0
LINE
8
lighting
10
69234.0
20
-4190.0
30
0
11
69246.0
21
-4190.0
31
0
0
LINE
8
lighting
10
69234.0
20
-3650.0
30
0
11
69246.0
21
-3650.0
31
0
0
LINE
8
lighting
10
69314.0
20
-4190.0
30
0
11
69314.0
21
-3650.0
31
0
0
LINE
8
lighting
10
69326.0
20
-4190.0
30
0
11
69326.0
21
-3650.0
31
0
0
LINE
8
lighting
10
69314.0
20
-4190.0
30
0
11
69326.0
21
-4190.0
31
0
0
LINE
8
lighting
10
69314.0
20
-3650.0
30
0
11
69326.0
21
-3650.0
31
0
0
LINE
8
lighting
10
69394.0
20
-4190.0
30
0
11
69394.0
21
-3650.0
31
0
0
LINE
8
lighting
10
69406.0
20
-4190.0
30
0
11
69406.0
21
-3650.0
31
0
0
LINE
8
lighting
10
69394.0
20
-4190.0
30
0
11
69406.0
21
-4190.0
31
0
0
LINE
8
lighting
10
69394.0
20
-3650.0
30
0
11
69406.0
21
-3650.0
31
0
0
LINE
8
lighting
10
69474.0
20
-4190.0
30
0
11
69474.0
21
-3650.0
31
0
0
LINE
8
lighting
10
69486.0
20
-4190.0
30
0
11
69486.0
21
-3650.0
31
0
0
LINE
8
lighting
10
69474.0
20
-4190.0
30
0
11
69486.0
21
-4190.0
31
0
0
LINE
8
lighting
10
69474.0
20
-3650.0
30
0
11
69486.0
21
-3650.0
31
0
0
LINE
8
lighting
10
69554.0
20
-4190.0
30
0
11
69554.0
21
-3650.0
31
0
0
LINE
8
lighting
10
69566.0
20
-4190.0
30
0
11
69566.0
21
-3650.0
31
0
0
LINE
8
lighting
10
69554.0
20
-4190.0
30
0
11
69566.0
21
-4190.0
31
0
0
LINE
8
lighting
10
69554.0
20
-3650.0
30
0
11
69566.0
21
-3650.0
31
0
0
LINE
8
lighting
10
69634.0
20
-4190.0
30
0
11
69634.0
21
-3650.0
31
0
0
LINE
8
lighting
10
69646.0
20
-4190.0
30
0
11
69646.0
21
-3650.0
31
0
0
LINE
8
lighting
10
69634.0
20
-4190.0
30
0
11
69646.0
21
-4190.0
31
0
0
LINE
8
lighting
10
69634.0
20
-3650.0
30
0
11
69646.0
21
-3650.0
31
0
0
LINE
8
lighting
10
69409.0
20
-3920.0
30
0
11
69395.5
21
-3912.21
31
0
0
LINE
8
lighting
10
69395.5
20
-3912.21
30
0
11
69395.5
21
-3927.79
31
0
0
LINE
8
lighting
10
69395.5
20
-3927.79
30
0
11
69409.0
21
-3920.0
31
0
0
LINE
8
electrical
10
58600.0
20
-12320.0
30
0
11
58600.0
21
-12327.79
31
0
0
LINE
8
electrical
10
58600.0
20
-12327.79
30
0
11
58600.0
21
-12312.21
31
0
0
LINE
8
electrical
10
58600.0
20
-12312.21
30
0
11
58600.0
21
-12320.0
31
0
0
LINE
8
electrical
10
71050.0
20
-12320.0
30
0
11
58600.0
21
-12320.0
31
0
0
LINE
8
electrical
10
71050.0
20
-12320.0
30
0
11
71050.0
21
-12327.79
31
0
0
LINE
8
electrical
10
71050.0
20
-12327.79
30
0
11
71050.0
21
-12312.21
31
0
0
LINE
8
electrical
10
71050.0
20
-12312.21
30
0
11
71050.0
21
-12320.0
31
0
0
LINE
8
electrical
10
58600.0
20
-3920.0
30
0
11
58607.79
21
-3920.0
31
0
0
LINE
8
electrical
10
58607.79
20
-3920.0
30
0
11
58592.21
21
-3920.0
31
0
0
LINE
8
electrical
10
58592.21
20
-3920.0
30
0
11
58600.0
21
-3920.0
31
0
0
LINE
8
electrical
10
58600.0
20
-12320.0
30
0
11
58600.0
21
-3920.0
31
0
0
LINE
8
electrical
10
58600.0
20
-12320.0
30
0
11
58607.79
21
-12320.0
31
0
0
LINE
8
electrical
10
58607.79
20
-12320.0
30
0
11
58592.21
21
-12320.0
31
0
0
LINE
8
electrical
10
58592.21
20
-12320.0
30
0
11
58600.0
21
-12320.0
31
0
0
LINE
8
electrical
10
69400.0
20
-3920.0
30
0
11
69407.79
21
-3920.0
31
0
0
LINE
8
electrical
10
69407.79
20
-3920.0
30
0
11
69392.21
21
-3920.0
31
0
0
LINE
8
electrical
10
69392.21
20
-3920.0
30
0
11
69400.0
21
-3920.0
31
0
0
LINE
8
electrical
10
69400.0
20
-12320.0
30
0
11
69400.0
21
-3920.0
31
0
0
LINE
8
electrical
10
69400.0
20
-12320.0
30
0
11
69407.79
21
-12320.0
31
0
0
LINE
8
electrical
10
69407.79
20
-12320.0
30
0
11
69392.21
21
-12320.0
31
0
0
LINE
8
electrical
10
69392.21
20
-12320.0
30
0
11
69400.0
21
-12320.0
31
0
0
LINE
8
electrical
10
71063.0
20
-13800.0
30
0
11
71043.5
21
-13788.74
31
0
0
LINE
8
electrical
10
71043.5
20
-13788.74
30
0
11
71043.5
21
-13811.26
31
0
0
LINE
8
electrical
10
71043.5
20
-13811.26
30
0
11
71063.0
21
-13800.0
31
0
0
LINE
8
electrical
10
69241.74
20
-12330.04
30
0
11
69254.13
21
-12314.98
31
0
0
LINE
8
electrical
10
69254.13
20
-12314.98
30
0
11
69254.13
21
-12314.98
31
0
0
LINE
8
electrical
10
69254.13
20
-12314.98
30
0
11
69241.74
21
-12330.04
31
0
0
LINE
8
electrical
10
71041.74
20
-13810.04
30
0
11
69241.74
21
-12330.04
31
0
0
LINE
8
electrical
10
71041.74
20
-13810.04
30
0
11
71054.13
21
-13794.98
31
0
0
LINE
8
electrical
10
71054.13
20
-13794.98
30
0
11
71054.13
21
-13794.98
31
0
0
LINE
8
electrical
10
71054.13
20
-13794.98
30
0
11
71041.74
21
-13810.04
31
0
0
LINE
8
electrical
10
58750.0
20
-12320.0
30
0
11
58750.0
21
-12331.26
31
0
0
LINE
8
electrical
10
58750.0
20
-12331.26
30
0
11
58750.0
21
-12308.74
31
0
0
LINE
8
electrical
10
58750.0
20
-12308.74
30
0
11
58750.0
21
-12320.0
31
0
0
LINE
8
electrical
10
69250.0
20
-12320.0
30
0
11
58750.0
21
-12320.0
31
0
0
LINE
8
electrical
10
69250.0
20
-12320.0
30
0
11
69250.0
21
-12331.26
31
0
0
LINE
8
electrical
10
69250.0
20
-12331.26
30
0
11
69250.0
21
-12308.74
31
0
0
LINE
8
electrical
10
69250.0
20
-12308.74
30
0
11
69250.0
21
-12320.0
31
0
0
LINE
8
electrical
10
71050.0
20
-13800.0
30
0
11
71064.04
21
-13800.0
31
0
0
LINE
8
electrical
10
71064.04
20
-13800.0
30
0
11
71050.0
21
-13800.0
31
0
0
LINE
8
electrical
10
69250.0
20
-12320.0
30
0
11
69264.04
21
-12320.0
31
0
0
LINE
8
electrical
10
69264.04
20
-12320.0
30
0
11
69250.0
21
-12320.0
31
0
0
LINE
8
electrical
10
71063.0
20
-13800.0
30
0
11
71043.5
21
-13788.74
31
0
0
LINE
8
electrical
10
71043.5
20
-13788.74
30
0
11
71043.5
21
-13811.26
31
0
0
LINE
8
electrical
10
71043.5
20
-13811.26
30
0
11
71063.0
21
-13800.0
31
0
0
LINE
8
electrical
10
69241.36
20
-12209.72
30
0
11
69254.32
21
-12195.14
31
0
0
LINE
8
electrical
10
69254.32
20
-12195.14
30
0
11
69254.32
21
-12195.14
31
0
0
LINE
8
electrical
10
69254.32
20
-12195.14
30
0
11
69241.36
21
-12209.72
31
0
0
LINE
8
electrical
10
71041.36
20
-13809.72
30
0
11
69241.36
21
-12209.72
31
0
0
LINE
8
electrical
10
71041.36
20
-13809.72
30
0
11
71054.32
21
-13795.14
31
0
0
LINE
8
electrical
10
71054.32
20
-13795.14
30
0
11
71054.32
21
-13795.14
31
0
0
LINE
8
electrical
10
71054.32
20
-13795.14
30
0
11
71041.36
21
-13809.72
31
0
0
LINE
8
electrical
10
58750.0
20
-12200.0
30
0
11
58750.0
21
-12211.26
31
0
0
LINE
8
electrical
10
58750.0
20
-12211.26
30
0
11
58750.0
21
-12188.74
31
0
0
LINE
8
electrical
10
58750.0
20
-12188.74
30
0
11
58750.0
21
-12200.0
31
0
0
LINE
8
electrical
10
69250.0
20
-12200.0
30
0
11
58750.0
21
-12200.0
31
0
0
LINE
8
electrical
10
69250.0
20
-12200.0
30
0
11
69250.0
21
-12211.26
31
0
0
LINE
8
electrical
10
69250.0
20
-12211.26
30
0
11
69250.0
21
-12188.74
31
0
0
LINE
8
electrical
10
69250.0
20
-12188.74
30
0
11
69250.0
21
-12200.0
31
0
0
LINE
8
electrical
10
71050.0
20
-13800.0
30
0
11
71064.04
21
-13800.0
31
0
0
LINE
8
electrical
10
71064.04
20
-13800.0
30
0
11
71050.0
21
-13800.0
31
0
0
LINE
8
electrical
10
69250.0
20
-12200.0
30
0
11
69264.04
21
-12200.0
31
0
0
LINE
8
electrical
10
69264.04
20
-12200.0
30
0
11
69250.0
21
-12200.0
31
0
0
LINE
8
electrical
10
71063.0
20
-13800.0
30
0
11
71043.5
21
-13788.74
31
0
0
LINE
8
electrical
10
71043.5
20
-13788.74
30
0
11
71043.5
21
-13811.26
31
0
0
LINE
8
electrical
10
71043.5
20
-13811.26
30
0
11
71063.0
21
-13800.0
31
0
0
LINE
8
electrical
10
69241.02
20
-12089.4
30
0
11
69254.49
21
-12075.3
31
0
0
LINE
8
electrical
10
69254.49
20
-12075.3
30
0
11
69254.49
21
-12075.3
31
0
0
LINE
8
electrical
10
69254.49
20
-12075.3
30
0
11
69241.02
21
-12089.4
31
0
0
LINE
8
electrical
10
71041.02
20
-13809.4
30
0
11
69241.02
21
-12089.4
31
0
0
LINE
8
electrical
10
71041.02
20
-13809.4
30
0
11
71054.49
21
-13795.3
31
0
0
LINE
8
electrical
10
71054.49
20
-13795.3
30
0
11
71054.49
21
-13795.3
31
0
0
LINE
8
electrical
10
71054.49
20
-13795.3
30
0
11
71041.02
21
-13809.4
31
0
0
LINE
8
electrical
10
58750.0
20
-12080.0
30
0
11
58750.0
21
-12091.26
31
0
0
LINE
8
electrical
10
58750.0
20
-12091.26
30
0
11
58750.0
21
-12068.74
31
0
0
LINE
8
electrical
10
58750.0
20
-12068.74
30
0
11
58750.0
21
-12080.0
31
0
0
LINE
8
electrical
10
69250.0
20
-12080.0
30
0
11
58750.0
21
-12080.0
31
0
0
LINE
8
electrical
10
69250.0
20
-12080.0
30
0
11
69250.0
21
-12091.26
31
0
0
LINE
8
electrical
10
69250.0
20
-12091.26
30
0
11
69250.0
21
-12068.74
31
0
0
LINE
8
electrical
10
69250.0
20
-12068.74
30
0
11
69250.0
21
-12080.0
31
0
0
LINE
8
electrical
10
71050.0
20
-13800.0
30
0
11
71064.04
21
-13800.0
31
0
0
LINE
8
electrical
10
71064.04
20
-13800.0
30
0
11
71050.0
21
-13800.0
31
0
0
LINE
8
electrical
10
69250.0
20
-12080.0
30
0
11
69264.04
21
-12080.0
31
0
0
LINE
8
electrical
10
69264.04
20
-12080.0
30
0
11
69250.0
21
-12080.0
31
0
0
LINE
8
electrical
10
59435.0
20
-13850.0
30
0
11
59435.0
21
-13790.0
31
0
0
LINE
8
electrical
10
59565.0
20
-13850.0
30
0
11
59565.0
21
-13790.0
31
0
0
LINE
8
electrical
10
59435.0
20
-13850.0
30
0
11
59565.0
21
-13850.0
31
0
0
LINE
8
electrical
10
59435.0
20
-13790.0
30
0
11
59565.0
21
-13790.0
31
0
0
LINE
8
electrical
10
59509.0
20
-13820.0
30
0
11
59495.5
21
-13812.21
31
0
0
LINE
8
electrical
10
59495.5
20
-13812.21
30
0
11
59495.5
21
-13827.79
31
0
0
LINE
8
electrical
10
59495.5
20
-13827.79
30
0
11
59509.0
21
-13820.0
31
0
0
LINE
8
electrical
10
71050.0
20
-13820.0
30
0
11
71050.0
21
-13827.79
31
0
0
LINE
8
electrical
10
71050.0
20
-13827.79
30
0
11
71050.0
21
-13812.21
31
0
0
LINE
8
electrical
10
71050.0
20
-13812.21
30
0
11
71050.0
21
-13820.0
31
0
0
LINE
8
electrical
10
59500.0
20
-13820.0
30
0
11
71050.0
21
-13820.0
31
0
0
LINE
8
electrical
10
59500.0
20
-13820.0
30
0
11
59500.0
21
-13827.79
31
0
0
LINE
8
electrical
10
59500.0
20
-13827.79
30
0
11
59500.0
21
-13812.21
31
0
0
LINE
8
electrical
10
59500.0
20
-13812.21
30
0
11
59500.0
21
-13820.0
31
0
0
LINE
8
electrical
10
59500.0
20
-13820.0
30
0
11
59509.72
21
-13820.0
31
0
0
LINE
8
electrical
10
59509.72
20
-13820.0
30
0
11
59500.0
21
-13820.0
31
0
0
LINE
8
electrical
10
68435.0
20
-13850.0
30
0
11
68435.0
21
-13790.0
31
0
0
LINE
8
electrical
10
68565.0
20
-13850.0
30
0
11
68565.0
21
-13790.0
31
0
0
LINE
8
electrical
10
68435.0
20
-13850.0
30
0
11
68565.0
21
-13850.0
31
0
0
LINE
8
electrical
10
68435.0
20
-13790.0
30
0
11
68565.0
21
-13790.0
31
0
0
LINE
8
electrical
10
68509.0
20
-13820.0
30
0
11
68495.5
21
-13812.21
31
0
0
LINE
8
electrical
10
68495.5
20
-13812.21
30
0
11
68495.5
21
-13827.79
31
0
0
LINE
8
electrical
10
68495.5
20
-13827.79
30
0
11
68509.0
21
-13820.0
31
0
0
LINE
8
electrical
10
71050.0
20
-13820.0
30
0
11
71050.0
21
-13827.79
31
0
0
LINE
8
electrical
10
71050.0
20
-13827.79
30
0
11
71050.0
21
-13812.21
31
0
0
LINE
8
electrical
10
71050.0
20
-13812.21
30
0
11
71050.0
21
-13820.0
31
0
0
LINE
8
electrical
10
68500.0
20
-13820.0
30
0
11
71050.0
21
-13820.0
31
0
0
LINE
8
electrical
10
68500.0
20
-13820.0
30
0
11
68500.0
21
-13827.79
31
0
0
LINE
8
electrical
10
68500.0
20
-13827.79
30
0
11
68500.0
21
-13812.21
31
0
0
LINE
8
electrical
10
68500.0
20
-13812.21
30
0
11
68500.0
21
-13820.0
31
0
0
LINE
8
electrical
10
68500.0
20
-13820.0
30
0
11
68509.72
21
-13820.0
31
0
0
LINE
8
electrical
10
68509.72
20
-13820.0
30
0
11
68500.0
21
-13820.0
31
0
0
LINE
8
hvac
10
56975.0
20
-13275.0
30
0
11
56975.0
21
-12525.0
31
0
0
LINE
8
hvac
10
58625.0
20
-13275.0
30
0
11
58625.0
21
-12525.0
31
0
0
LINE
8
hvac
10
56975.0
20
-13275.0
30
0
11
58625.0
21
-13275.0
31
0
0
LINE
8
hvac
10
56975.0
20
-12525.0
30
0
11
58625.0
21
-12525.0
31
0
0
LINE
8
hvac
10
57075.0
20
-13320.0
30
0
11
57075.0
21
-13280.0
31
0
0
LINE
8
hvac
10
58525.0
20
-13320.0
30
0
11
58525.0
21
-13280.0
31
0
0
LINE
8
hvac
10
57075.0
20
-13320.0
30
0
11
58525.0
21
-13320.0
31
0
0
LINE
8
hvac
10
57075.0
20
-13280.0
30
0
11
58525.0
21
-13280.0
31
0
0
LINE
8
hvac
10
57140.0
20
-13360.0
30
0
11
57140.0
21
-13300.0
31
0
0
LINE
8
hvac
10
57180.0
20
-13360.0
30
0
11
57180.0
21
-13300.0
31
0
0
LINE
8
hvac
10
57140.0
20
-13360.0
30
0
11
57180.0
21
-13360.0
31
0
0
LINE
8
hvac
10
57140.0
20
-13300.0
30
0
11
57180.0
21
-13300.0
31
0
0
LINE
8
hvac
10
57300.0
20
-13360.0
30
0
11
57300.0
21
-13300.0
31
0
0
LINE
8
hvac
10
57340.0
20
-13360.0
30
0
11
57340.0
21
-13300.0
31
0
0
LINE
8
hvac
10
57300.0
20
-13360.0
30
0
11
57340.0
21
-13360.0
31
0
0
LINE
8
hvac
10
57300.0
20
-13300.0
30
0
11
57340.0
21
-13300.0
31
0
0
LINE
8
hvac
10
57460.0
20
-13360.0
30
0
11
57460.0
21
-13300.0
31
0
0
LINE
8
hvac
10
57500.0
20
-13360.0
30
0
11
57500.0
21
-13300.0
31
0
0
LINE
8
hvac
10
57460.0
20
-13360.0
30
0
11
57500.0
21
-13360.0
31
0
0
LINE
8
hvac
10
57460.0
20
-13300.0
30
0
11
57500.0
21
-13300.0
31
0
0
LINE
8
hvac
10
57620.0
20
-13360.0
30
0
11
57620.0
21
-13300.0
31
0
0
LINE
8
hvac
10
57660.0
20
-13360.0
30
0
11
57660.0
21
-13300.0
31
0
0
LINE
8
hvac
10
57620.0
20
-13360.0
30
0
11
57660.0
21
-13360.0
31
0
0
LINE
8
hvac
10
57620.0
20
-13300.0
30
0
11
57660.0
21
-13300.0
31
0
0
LINE
8
hvac
10
57780.0
20
-13360.0
30
0
11
57780.0
21
-13300.0
31
0
0
LINE
8
hvac
10
57820.0
20
-13360.0
30
0
11
57820.0
21
-13300.0
31
0
0
LINE
8
hvac
10
57780.0
20
-13360.0
30
0
11
57820.0
21
-13360.0
31
0
0
LINE
8
hvac
10
57780.0
20
-13300.0
30
0
11
57820.0
21
-13300.0
31
0
0
LINE
8
hvac
10
57940.0
20
-13360.0
30
0
11
57940.0
21
-13300.0
31
0
0
LINE
8
hvac
10
57980.0
20
-13360.0
30
0
11
57980.0
21
-13300.0
31
0
0
LINE
8
hvac
10
57940.0
20
-13360.0
30
0
11
57980.0
21
-13360.0
31
0
0
LINE
8
hvac
10
57940.0
20
-13300.0
30
0
11
57980.0
21
-13300.0
31
0
0
LINE
8
hvac
10
58100.0
20
-13360.0
30
0
11
58100.0
21
-13300.0
31
0
0
LINE
8
hvac
10
58140.0
20
-13360.0
30
0
11
58140.0
21
-13300.0
31
0
0
LINE
8
hvac
10
58100.0
20
-13360.0
30
0
11
58140.0
21
-13360.0
31
0
0
LINE
8
hvac
10
58100.0
20
-13300.0
30
0
11
58140.0
21
-13300.0
31
0
0
LINE
8
hvac
10
58260.0
20
-13360.0
30
0
11
58260.0
21
-13300.0
31
0
0
LINE
8
hvac
10
58300.0
20
-13360.0
30
0
11
58300.0
21
-13300.0
31
0
0
LINE
8
hvac
10
58260.0
20
-13360.0
30
0
11
58300.0
21
-13360.0
31
0
0
LINE
8
hvac
10
58260.0
20
-13300.0
30
0
11
58300.0
21
-13300.0
31
0
0
LINE
8
hvac
10
58420.0
20
-13360.0
30
0
11
58420.0
21
-13300.0
31
0
0
LINE
8
hvac
10
58460.0
20
-13360.0
30
0
11
58460.0
21
-13300.0
31
0
0
LINE
8
hvac
10
58420.0
20
-13360.0
30
0
11
58460.0
21
-13360.0
31
0
0
LINE
8
hvac
10
58420.0
20
-13300.0
30
0
11
58460.0
21
-13300.0
31
0
0
LINE
8
hvac
10
57575.0
20
-13125.0
30
0
11
57575.0
21
-12675.0
31
0
0
LINE
8
hvac
10
58025.0
20
-13125.0
30
0
11
58025.0
21
-12675.0
31
0
0
LINE
8
hvac
10
57575.0
20
-13125.0
30
0
11
58025.0
21
-13125.0
31
0
0
LINE
8
hvac
10
57575.0
20
-12675.0
30
0
11
58025.0
21
-12675.0
31
0
0
LINE
8
hvac
10
58750.0
20
-8175.0
30
0
11
58750.0
21
-7825.0
31
0
0
LINE
8
hvac
10
69250.0
20
-8175.0
30
0
11
69250.0
21
-7825.0
31
0
0
LINE
8
hvac
10
58750.0
20
-8175.0
30
0
11
69250.0
21
-8175.0
31
0
0
LINE
8
hvac
10
58750.0
20
-7825.0
30
0
11
69250.0
21
-7825.0
31
0
0
LINE
8
hvac
10
57625.0
20
-13075.0
30
0
11
57625.0
21
-12725.0
31
0
0
LINE
8
hvac
10
64175.0
20
-13075.0
30
0
11
64175.0
21
-12725.0
31
0
0
LINE
8
hvac
10
57625.0
20
-13075.0
30
0
11
64175.0
21
-13075.0
31
0
0
LINE
8
hvac
10
57625.0
20
-12725.0
30
0
11
64175.0
21
-12725.0
31
0
0
LINE
8
hvac
10
63825.0
20
-13075.0
30
0
11
63825.0
21
-7825.0
31
0
0
LINE
8
hvac
10
64175.0
20
-13075.0
30
0
11
64175.0
21
-7825.0
31
0
0
LINE
8
hvac
10
63825.0
20
-13075.0
30
0
11
64175.0
21
-13075.0
31
0
0
LINE
8
hvac
10
63825.0
20
-7825.0
30
0
11
64175.0
21
-7825.0
31
0
0
LINE
8
hvac
10
60650.0
20
-8350.0
30
0
11
60650.0
21
-7650.0
31
0
0
LINE
8
hvac
10
61350.0
20
-8350.0
30
0
11
61350.0
21
-7650.0
31
0
0
LINE
8
hvac
10
60650.0
20
-8350.0
30
0
11
61350.0
21
-8350.0
31
0
0
LINE
8
hvac
10
60650.0
20
-7650.0
30
0
11
61350.0
21
-7650.0
31
0
0
LINE
8
hvac
10
66650.0
20
-8350.0
30
0
11
66650.0
21
-7650.0
31
0
0
LINE
8
hvac
10
67350.0
20
-8350.0
30
0
11
67350.0
21
-7650.0
31
0
0
LINE
8
hvac
10
66650.0
20
-8350.0
30
0
11
67350.0
21
-8350.0
31
0
0
LINE
8
hvac
10
66650.0
20
-7650.0
30
0
11
67350.0
21
-7650.0
31
0
0
LINE
8
water
10
69990.0
20
-6520.0
30
0
11
69990.0
21
-5880.0
31
0
0
LINE
8
water
10
70910.0
20
-6520.0
30
0
11
70910.0
21
-5880.0
31
0
0
LINE
8
water
10
69990.0
20
-6520.0
30
0
11
70910.0
21
-6520.0
31
0
0
LINE
8
water
10
69990.0
20
-5880.0
30
0
11
70910.0
21
-5880.0
31
0
0
LINE
8
water
10
70000.0
20
-6510.0
30
0
11
70000.0
21
-5890.0
31
0
0
LINE
8
water
10
70000.0
20
-6510.0
30
0
11
70900.0
21
-6510.0
31
0
0
LINE
8
water
10
70000.0
20
-5890.0
30
0
11
70900.0
21
-5890.0
31
0
0
LINE
8
water
10
70900.0
20
-6510.0
30
0
11
70900.0
21
-5890.0
31
0
0
LINE
8
water
10
70775.0
20
-6415.0
30
0
11
70125.0
21
-6415.0
31
0
0
LINE
8
water
10
70775.0
20
-6415.0
30
0
11
70775.0
21
-5985.0
31
0
0
LINE
8
water
10
70775.0
20
-5985.0
30
0
11
70125.0
21
-5985.0
31
0
0
LINE
8
water
10
70125.0
20
-6415.0
30
0
11
70125.0
21
-5985.0
31
0
0
LINE
8
water
10
70468.0
20
-5980.0
30
0
11
70441.0
21
-5964.41
31
0
0
LINE
8
water
10
70441.0
20
-5964.41
30
0
11
70441.0
21
-5995.59
31
0
0
LINE
8
water
10
70441.0
20
-5995.59
30
0
11
70468.0
21
-5980.0
31
0
0
LINE
8
water
10
70450.0
20
-6200.0
30
0
11
70465.59
21
-6200.0
31
0
0
LINE
8
water
10
70465.59
20
-6200.0
30
0
11
70434.41
21
-6200.0
31
0
0
LINE
8
water
10
70434.41
20
-6200.0
30
0
11
70450.0
21
-6200.0
31
0
0
LINE
8
water
10
70450.0
20
-5980.0
30
0
11
70450.0
21
-6200.0
31
0
0
LINE
8
water
10
70450.0
20
-5980.0
30
0
11
70465.59
21
-5980.0
31
0
0
LINE
8
water
10
70465.59
20
-5980.0
30
0
11
70434.41
21
-5980.0
31
0
0
LINE
8
water
10
70434.41
20
-5980.0
30
0
11
70450.0
21
-5980.0
31
0
0
LINE
8
water
10
70450.0
20
-5980.0
30
0
11
70469.44
21
-5980.0
31
0
0
LINE
8
water
10
70469.44
20
-5980.0
30
0
11
70450.0
21
-5980.0
31
0
0
LINE
8
water
10
70395.0
20
-6200.0
30
0
11
70450.0
21
-6145.0
31
0
0
LINE
8
water
10
70450.0
20
-6145.0
30
0
11
70505.0
21
-6200.0
31
0
0
LINE
8
water
10
70505.0
20
-6200.0
30
0
11
70450.0
21
-6255.0
31
0
0
LINE
8
water
10
70450.0
20
-6255.0
30
0
11
70395.0
21
-6200.0
31
0
0
LINE
8
water
10
70450.0
20
-30500.0
30
0
11
70505.0
21
-30500.0
31
0
0
LINE
8
water
10
70505.0
20
-30500.0
30
0
11
70450.0
21
-30500.0
31
0
0
LINE
8
water
10
70450.0
20
-30500.0
30
0
11
70395.0
21
-30500.0
31
0
0
LINE
8
water
10
70395.0
20
-30500.0
30
0
11
70450.0
21
-30500.0
31
0
0
LINE
8
water
10
70450.0
20
-6200.0
30
0
11
70450.0
21
-30500.0
31
0
0
LINE
8
water
10
70450.0
20
-6200.0
30
0
11
70505.0
21
-6200.0
31
0
0
LINE
8
water
10
70505.0
20
-6200.0
30
0
11
70450.0
21
-6200.0
31
0
0
LINE
8
water
10
70450.0
20
-6200.0
30
0
11
70395.0
21
-6200.0
31
0
0
LINE
8
water
10
70395.0
20
-6200.0
30
0
11
70450.0
21
-6200.0
31
0
0
LINE
8
water
10
-90000.0
20
-30500.0
30
0
11
-90000.0
21
-30555.0
31
0
0
LINE
8
water
10
-90000.0
20
-30555.0
30
0
11
-90000.0
21
-30500.0
31
0
0
LINE
8
water
10
-90000.0
20
-30500.0
30
0
11
-90000.0
21
-30445.0
31
0
0
LINE
8
water
10
-90000.0
20
-30445.0
30
0
11
-90000.0
21
-30500.0
31
0
0
LINE
8
water
10
70450.0
20
-30500.0
30
0
11
-90000.0
21
-30500.0
31
0
0
LINE
8
water
10
70450.0
20
-30500.0
30
0
11
70450.0
21
-30555.0
31
0
0
LINE
8
water
10
70450.0
20
-30555.0
30
0
11
70450.0
21
-30500.0
31
0
0
LINE
8
water
10
70450.0
20
-30500.0
30
0
11
70450.0
21
-30445.0
31
0
0
LINE
8
water
10
70450.0
20
-30445.0
30
0
11
70450.0
21
-30500.0
31
0
0
LINE
8
water
10
70450.0
20
-6200.0
30
0
11
70509.4
21
-6200.0
31
0
0
LINE
8
water
10
70509.4
20
-6200.0
30
0
11
70450.0
21
-6200.0
31
0
0
LINE
8
water
10
70450.0
20
-30500.0
30
0
11
70509.4
21
-30500.0
31
0
0
LINE
8
water
10
70509.4
20
-30500.0
30
0
11
70450.0
21
-30500.0
31
0
0
LINE
8
water
10
66905.0
20
-13600.0
30
0
11
66905.0
21
-13675.0
31
0
0
LINE
8
water
10
66905.0
20
-13675.0
30
0
11
66905.0
21
-13600.0
31
0
0
LINE
8
water
10
66905.0
20
-13600.0
30
0
11
66905.0
21
-13525.0
31
0
0
LINE
8
water
10
66905.0
20
-13525.0
30
0
11
66905.0
21
-13600.0
31
0
0
LINE
8
water
10
66505.0
20
-13600.0
30
0
11
66905.0
21
-13600.0
31
0
0
LINE
8
water
10
66505.0
20
-13600.0
30
0
11
66505.0
21
-13675.0
31
0
0
LINE
8
water
10
66505.0
20
-13675.0
30
0
11
66505.0
21
-13600.0
31
0
0
LINE
8
water
10
66505.0
20
-13600.0
30
0
11
66505.0
21
-13525.0
31
0
0
LINE
8
water
10
66505.0
20
-13525.0
30
0
11
66505.0
21
-13600.0
31
0
0
LINE
8
water
10
66795.0
20
-13600.0
30
0
11
66732.81
21
-13514.4
31
0
0
LINE
8
water
10
66732.81
20
-13514.4
30
0
11
66632.19
21
-13547.1
31
0
0
LINE
8
water
10
66632.19
20
-13547.1
30
0
11
66632.19
21
-13652.9
31
0
0
LINE
8
water
10
66632.19
20
-13652.9
30
0
11
66732.81
21
-13685.6
31
0
0
LINE
8
water
10
66732.81
20
-13685.6
30
0
11
66795.0
21
-13600.0
31
0
0
LINE
8
water
10
66515.0
20
-13625.0
30
0
11
66515.0
21
-13575.0
31
0
0
LINE
8
water
10
66895.0
20
-13625.0
30
0
11
66895.0
21
-13575.0
31
0
0
LINE
8
water
10
66515.0
20
-13625.0
30
0
11
66895.0
21
-13625.0
31
0
0
LINE
8
water
10
66515.0
20
-13575.0
30
0
11
66895.0
21
-13575.0
31
0
0
LINE
8
water
10
66580.0
20
-13600.0
30
0
11
66580.0
21
-13704.62
31
0
0
LINE
8
water
10
66580.0
20
-13704.62
30
0
11
66580.0
21
-13664.66
31
0
0
LINE
8
water
10
66580.0
20
-13664.66
30
0
11
66580.0
21
-13535.34
31
0
0
LINE
8
water
10
66580.0
20
-13535.34
30
0
11
66580.0
21
-13495.38
31
0
0
LINE
8
water
10
66580.0
20
-13495.38
30
0
11
66580.0
21
-13600.0
31
0
0
LINE
8
water
10
66555.0
20
-13600.0
30
0
11
66580.0
21
-13600.0
31
0
0
LINE
8
water
10
66555.0
20
-13600.0
30
0
11
66555.0
21
-13704.62
31
0
0
LINE
8
water
10
66555.0
20
-13704.62
30
0
11
66555.0
21
-13664.66
31
0
0
LINE
8
water
10
66555.0
20
-13664.66
30
0
11
66555.0
21
-13535.34
31
0
0
LINE
8
water
10
66555.0
20
-13535.34
30
0
11
66555.0
21
-13495.38
31
0
0
LINE
8
water
10
66555.0
20
-13495.38
30
0
11
66555.0
21
-13600.0
31
0
0
LINE
8
water
10
66880.0
20
-13600.0
30
0
11
66880.0
21
-13704.62
31
0
0
LINE
8
water
10
66880.0
20
-13704.62
30
0
11
66880.0
21
-13664.66
31
0
0
LINE
8
water
10
66880.0
20
-13664.66
30
0
11
66880.0
21
-13535.34
31
0
0
LINE
8
water
10
66880.0
20
-13535.34
30
0
11
66880.0
21
-13495.38
31
0
0
LINE
8
water
10
66880.0
20
-13495.38
30
0
11
66880.0
21
-13600.0
31
0
0
LINE
8
water
10
66855.0
20
-13600.0
30
0
11
66880.0
21
-13600.0
31
0
0
LINE
8
water
10
66855.0
20
-13600.0
30
0
11
66855.0
21
-13704.62
31
0
0
LINE
8
water
10
66855.0
20
-13704.62
30
0
11
66855.0
21
-13664.66
31
0
0
LINE
8
water
10
66855.0
20
-13664.66
30
0
11
66855.0
21
-13535.34
31
0
0
LINE
8
water
10
66855.0
20
-13535.34
30
0
11
66855.0
21
-13495.38
31
0
0
LINE
8
water
10
66855.0
20
-13495.38
30
0
11
66855.0
21
-13600.0
31
0
0
LINE
8
water
10
65100.0
20
-13600.0
30
0
11
65130.31
21
-13600.0
31
0
0
LINE
8
water
10
65130.31
20
-13600.0
30
0
11
65069.69
21
-13600.0
31
0
0
LINE
8
water
10
65069.69
20
-13600.0
30
0
11
65100.0
21
-13600.0
31
0
0
LINE
8
water
10
65100.0
20
-33000.0
30
0
11
65100.0
21
-13600.0
31
0
0
LINE
8
water
10
65100.0
20
-33000.0
30
0
11
65130.31
21
-33000.0
31
0
0
LINE
8
water
10
65130.31
20
-33000.0
30
0
11
65069.69
21
-33000.0
31
0
0
LINE
8
water
10
65069.69
20
-33000.0
30
0
11
65100.0
21
-33000.0
31
0
0
LINE
8
water
10
70450.0
20
-13600.0
30
0
11
70450.0
21
-13630.31
31
0
0
LINE
8
water
10
70450.0
20
-13630.31
30
0
11
70450.0
21
-13569.69
31
0
0
LINE
8
water
10
70450.0
20
-13569.69
30
0
11
70450.0
21
-13600.0
31
0
0
LINE
8
water
10
65100.0
20
-13600.0
30
0
11
70450.0
21
-13600.0
31
0
0
LINE
8
water
10
65100.0
20
-13600.0
30
0
11
65100.0
21
-13630.31
31
0
0
LINE
8
water
10
65100.0
20
-13630.31
30
0
11
65100.0
21
-13569.69
31
0
0
LINE
8
water
10
65100.0
20
-13569.69
30
0
11
65100.0
21
-13600.0
31
0
0
LINE
8
water
10
70450.0
20
-5970.0
30
0
11
70480.31
21
-5970.0
31
0
0
LINE
8
water
10
70480.31
20
-5970.0
30
0
11
70419.69
21
-5970.0
31
0
0
LINE
8
water
10
70419.69
20
-5970.0
30
0
11
70450.0
21
-5970.0
31
0
0
LINE
8
water
10
70450.0
20
-13600.0
30
0
11
70450.0
21
-5970.0
31
0
0
LINE
8
water
10
70450.0
20
-13600.0
30
0
11
70480.31
21
-13600.0
31
0
0
LINE
8
water
10
70480.31
20
-13600.0
30
0
11
70419.69
21
-13600.0
31
0
0
LINE
8
water
10
70419.69
20
-13600.0
30
0
11
70450.0
21
-13600.0
31
0
0
LINE
8
water
10
70415.0
20
-5970.0
30
0
11
70467.5
21
-5939.69
31
0
0
LINE
8
water
10
70467.5
20
-5939.69
30
0
11
70467.5
21
-6000.31
31
0
0
LINE
8
water
10
70467.5
20
-6000.31
30
0
11
70415.0
21
-5970.0
31
0
0
LINE
8
water
10
65100.0
20
-13600.0
30
0
11
65137.8
21
-13600.0
31
0
0
LINE
8
water
10
65137.8
20
-13600.0
30
0
11
65100.0
21
-13600.0
31
0
0
LINE
8
water
10
70450.0
20
-13600.0
30
0
11
70487.8
21
-13600.0
31
0
0
LINE
8
water
10
70487.8
20
-13600.0
30
0
11
70450.0
21
-13600.0
31
0
0
LINE
8
water
10
70450.0
20
-5970.0
30
0
11
70487.8
21
-5970.0
31
0
0
LINE
8
water
10
70487.8
20
-5970.0
30
0
11
70450.0
21
-5970.0
31
0
0
LINE
8
water
10
67114.0
20
-13600.0
30
0
11
67114.0
21
-13675.0
31
0
0
LINE
8
water
10
67114.0
20
-13675.0
30
0
11
67114.0
21
-13600.0
31
0
0
LINE
8
water
10
67114.0
20
-13600.0
30
0
11
67114.0
21
-13525.0
31
0
0
LINE
8
water
10
67114.0
20
-13525.0
30
0
11
67114.0
21
-13600.0
31
0
0
LINE
8
water
10
66714.0
20
-13600.0
30
0
11
67114.0
21
-13600.0
31
0
0
LINE
8
water
10
66714.0
20
-13600.0
30
0
11
66714.0
21
-13675.0
31
0
0
LINE
8
water
10
66714.0
20
-13675.0
30
0
11
66714.0
21
-13600.0
31
0
0
LINE
8
water
10
66714.0
20
-13600.0
30
0
11
66714.0
21
-13525.0
31
0
0
LINE
8
water
10
66714.0
20
-13525.0
30
0
11
66714.0
21
-13600.0
31
0
0
LINE
8
water
10
67004.0
20
-13600.0
30
0
11
66941.81
21
-13514.4
31
0
0
LINE
8
water
10
66941.81
20
-13514.4
30
0
11
66841.19
21
-13547.1
31
0
0
LINE
8
water
10
66841.19
20
-13547.1
30
0
11
66841.19
21
-13652.9
31
0
0
LINE
8
water
10
66841.19
20
-13652.9
30
0
11
66941.81
21
-13685.6
31
0
0
LINE
8
water
10
66941.81
20
-13685.6
30
0
11
67004.0
21
-13600.0
31
0
0
LINE
8
water
10
66724.0
20
-13625.0
30
0
11
66724.0
21
-13575.0
31
0
0
LINE
8
water
10
67104.0
20
-13625.0
30
0
11
67104.0
21
-13575.0
31
0
0
LINE
8
water
10
66724.0
20
-13625.0
30
0
11
67104.0
21
-13625.0
31
0
0
LINE
8
water
10
66724.0
20
-13575.0
30
0
11
67104.0
21
-13575.0
31
0
0
LINE
8
water
10
66789.0
20
-13600.0
30
0
11
66789.0
21
-13704.62
31
0
0
LINE
8
water
10
66789.0
20
-13704.62
30
0
11
66789.0
21
-13664.66
31
0
0
LINE
8
water
10
66789.0
20
-13664.66
30
0
11
66789.0
21
-13535.34
31
0
0
LINE
8
water
10
66789.0
20
-13535.34
30
0
11
66789.0
21
-13495.38
31
0
0
LINE
8
water
10
66789.0
20
-13495.38
30
0
11
66789.0
21
-13600.0
31
0
0
LINE
8
water
10
66764.0
20
-13600.0
30
0
11
66789.0
21
-13600.0
31
0
0
LINE
8
water
10
66764.0
20
-13600.0
30
0
11
66764.0
21
-13704.62
31
0
0
LINE
8
water
10
66764.0
20
-13704.62
30
0
11
66764.0
21
-13664.66
31
0
0
LINE
8
water
10
66764.0
20
-13664.66
30
0
11
66764.0
21
-13535.34
31
0
0
LINE
8
water
10
66764.0
20
-13535.34
30
0
11
66764.0
21
-13495.38
31
0
0
LINE
8
water
10
66764.0
20
-13495.38
30
0
11
66764.0
21
-13600.0
31
0
0
LINE
8
water
10
67089.0
20
-13600.0
30
0
11
67089.0
21
-13704.62
31
0
0
LINE
8
water
10
67089.0
20
-13704.62
30
0
11
67089.0
21
-13664.66
31
0
0
LINE
8
water
10
67089.0
20
-13664.66
30
0
11
67089.0
21
-13535.34
31
0
0
LINE
8
water
10
67089.0
20
-13535.34
30
0
11
67089.0
21
-13495.38
31
0
0
LINE
8
water
10
67089.0
20
-13495.38
30
0
11
67089.0
21
-13600.0
31
0
0
LINE
8
water
10
67064.0
20
-13600.0
30
0
11
67089.0
21
-13600.0
31
0
0
LINE
8
water
10
67064.0
20
-13600.0
30
0
11
67064.0
21
-13704.62
31
0
0
LINE
8
water
10
67064.0
20
-13704.62
30
0
11
67064.0
21
-13664.66
31
0
0
LINE
8
water
10
67064.0
20
-13664.66
30
0
11
67064.0
21
-13535.34
31
0
0
LINE
8
water
10
67064.0
20
-13535.34
30
0
11
67064.0
21
-13495.38
31
0
0
LINE
8
water
10
67064.0
20
-13495.38
30
0
11
67064.0
21
-13600.0
31
0
0
LINE
8
water
10
65450.0
20
-13600.0
30
0
11
65480.31
21
-13600.0
31
0
0
LINE
8
water
10
65480.31
20
-13600.0
30
0
11
65419.69
21
-13600.0
31
0
0
LINE
8
water
10
65419.69
20
-13600.0
30
0
11
65450.0
21
-13600.0
31
0
0
LINE
8
water
10
65450.0
20
-32000.0
30
0
11
65450.0
21
-13600.0
31
0
0
LINE
8
water
10
65450.0
20
-32000.0
30
0
11
65480.31
21
-32000.0
31
0
0
LINE
8
water
10
65480.31
20
-32000.0
30
0
11
65419.69
21
-32000.0
31
0
0
LINE
8
water
10
65419.69
20
-32000.0
30
0
11
65450.0
21
-32000.0
31
0
0
LINE
8
water
10
70330.0
20
-13600.0
30
0
11
70330.0
21
-13630.31
31
0
0
LINE
8
water
10
70330.0
20
-13630.31
30
0
11
70330.0
21
-13569.69
31
0
0
LINE
8
water
10
70330.0
20
-13569.69
30
0
11
70330.0
21
-13600.0
31
0
0
LINE
8
water
10
65450.0
20
-13600.0
30
0
11
70330.0
21
-13600.0
31
0
0
LINE
8
water
10
65450.0
20
-13600.0
30
0
11
65450.0
21
-13630.31
31
0
0
LINE
8
water
10
65450.0
20
-13630.31
30
0
11
65450.0
21
-13569.69
31
0
0
LINE
8
water
10
65450.0
20
-13569.69
30
0
11
65450.0
21
-13600.0
31
0
0
LINE
8
water
10
70330.0
20
-5970.0
30
0
11
70360.31
21
-5970.0
31
0
0
LINE
8
water
10
70360.31
20
-5970.0
30
0
11
70299.69
21
-5970.0
31
0
0
LINE
8
water
10
70299.69
20
-5970.0
30
0
11
70330.0
21
-5970.0
31
0
0
LINE
8
water
10
70330.0
20
-13600.0
30
0
11
70330.0
21
-5970.0
31
0
0
LINE
8
water
10
70330.0
20
-13600.0
30
0
11
70360.31
21
-13600.0
31
0
0
LINE
8
water
10
70360.31
20
-13600.0
30
0
11
70299.69
21
-13600.0
31
0
0
LINE
8
water
10
70299.69
20
-13600.0
30
0
11
70330.0
21
-13600.0
31
0
0
LINE
8
water
10
70295.0
20
-5970.0
30
0
11
70347.5
21
-5939.69
31
0
0
LINE
8
water
10
70347.5
20
-5939.69
30
0
11
70347.5
21
-6000.31
31
0
0
LINE
8
water
10
70347.5
20
-6000.31
30
0
11
70295.0
21
-5970.0
31
0
0
LINE
8
water
10
65450.0
20
-13600.0
30
0
11
65487.8
21
-13600.0
31
0
0
LINE
8
water
10
65487.8
20
-13600.0
30
0
11
65450.0
21
-13600.0
31
0
0
LINE
8
water
10
70330.0
20
-13600.0
30
0
11
70367.8
21
-13600.0
31
0
0
LINE
8
water
10
70367.8
20
-13600.0
30
0
11
70330.0
21
-13600.0
31
0
0
LINE
8
water
10
70330.0
20
-5970.0
30
0
11
70367.8
21
-5970.0
31
0
0
LINE
8
water
10
70367.8
20
-5970.0
30
0
11
70330.0
21
-5970.0
31
0
0
LINE
8
sensors
10
56540.0
20
-11440.0
30
0
11
56540.0
21
-11280.0
31
0
0
LINE
8
sensors
10
56640.0
20
-11440.0
30
0
11
56640.0
21
-11280.0
31
0
0
LINE
8
sensors
10
56540.0
20
-11440.0
30
0
11
56640.0
21
-11440.0
31
0
0
LINE
8
sensors
10
56540.0
20
-11280.0
30
0
11
56640.0
21
-11280.0
31
0
0
LINE
8
sensors
10
56645.0
20
-11415.0
30
0
11
56645.0
21
-11305.0
31
0
0
LINE
8
sensors
10
56665.0
20
-11415.0
30
0
11
56665.0
21
-11305.0
31
0
0
LINE
8
sensors
10
56645.0
20
-11415.0
30
0
11
56665.0
21
-11415.0
31
0
0
LINE
8
sensors
10
56645.0
20
-11305.0
30
0
11
56665.0
21
-11305.0
31
0
0
LINE
8
sensors
10
56540.0
20
-11140.0
30
0
11
56540.0
21
-10980.0
31
0
0
LINE
8
sensors
10
56640.0
20
-11140.0
30
0
11
56640.0
21
-10980.0
31
0
0
LINE
8
sensors
10
56540.0
20
-11140.0
30
0
11
56640.0
21
-11140.0
31
0
0
LINE
8
sensors
10
56540.0
20
-10980.0
30
0
11
56640.0
21
-10980.0
31
0
0
LINE
8
sensors
10
56645.0
20
-11115.0
30
0
11
56645.0
21
-11005.0
31
0
0
LINE
8
sensors
10
56665.0
20
-11115.0
30
0
11
56665.0
21
-11005.0
31
0
0
LINE
8
sensors
10
56645.0
20
-11115.0
30
0
11
56665.0
21
-11115.0
31
0
0
LINE
8
sensors
10
56645.0
20
-11005.0
30
0
11
56665.0
21
-11005.0
31
0
0
LINE
8
sensors
10
56540.0
20
-10840.0
30
0
11
56540.0
21
-10680.0
31
0
0
LINE
8
sensors
10
56640.0
20
-10840.0
30
0
11
56640.0
21
-10680.0
31
0
0
LINE
8
sensors
10
56540.0
20
-10840.0
30
0
11
56640.0
21
-10840.0
31
0
0
LINE
8
sensors
10
56540.0
20
-10680.0
30
0
11
56640.0
21
-10680.0
31
0
0
LINE
8
sensors
10
56645.0
20
-10815.0
30
0
11
56645.0
21
-10705.0
31
0
0
LINE
8
sensors
10
56665.0
20
-10815.0
30
0
11
56665.0
21
-10705.0
31
0
0
LINE
8
sensors
10
56645.0
20
-10815.0
30
0
11
56665.0
21
-10815.0
31
0
0
LINE
8
sensors
10
56645.0
20
-10705.0
30
0
11
56665.0
21
-10705.0
31
0
0
LINE
8
sensors
10
64080.0
20
-8000.0
30
0
11
64000.0
21
-7920.0
31
0
0
LINE
8
sensors
10
64000.0
20
-7920.0
30
0
11
63920.0
21
-8000.0
31
0
0
LINE
8
sensors
10
63920.0
20
-8000.0
30
0
11
64000.0
21
-8080.0
31
0
0
LINE
8
sensors
10
64000.0
20
-8080.0
30
0
11
64080.0
21
-8000.0
31
0
0
LINE
8
sensors
10
64000.0
20
-8000.0
30
0
11
64065.0
21
-8000.0
31
0
0
LINE
8
sensors
10
64065.0
20
-8000.0
30
0
11
64000.0
21
-8000.0
31
0
0
LINE
8
sensors
10
56540.0
20
-10240.0
30
0
11
56540.0
21
-10080.0
31
0
0
LINE
8
sensors
10
56640.0
20
-10240.0
30
0
11
56640.0
21
-10080.0
31
0
0
LINE
8
sensors
10
56540.0
20
-10240.0
30
0
11
56640.0
21
-10240.0
31
0
0
LINE
8
sensors
10
56540.0
20
-10080.0
30
0
11
56640.0
21
-10080.0
31
0
0
LINE
8
sensors
10
56645.0
20
-10215.0
30
0
11
56645.0
21
-10105.0
31
0
0
LINE
8
sensors
10
56665.0
20
-10215.0
30
0
11
56665.0
21
-10105.0
31
0
0
LINE
8
sensors
10
56645.0
20
-10215.0
30
0
11
56665.0
21
-10215.0
31
0
0
LINE
8
sensors
10
56645.0
20
-10105.0
30
0
11
56665.0
21
-10105.0
31
0
0
LINE
8
sensors
10
68687.5
20
-13600.0
30
0
11
68687.5
21
-13675.0
31
0
0
LINE
8
sensors
10
68687.5
20
-13675.0
30
0
11
68687.5
21
-13600.0
31
0
0
LINE
8
sensors
10
68687.5
20
-13600.0
30
0
11
68687.5
21
-13525.0
31
0
0
LINE
8
sensors
10
68687.5
20
-13525.0
30
0
11
68687.5
21
-13600.0
31
0
0
LINE
8
sensors
10
68467.5
20
-13600.0
30
0
11
68687.5
21
-13600.0
31
0
0
LINE
8
sensors
10
68467.5
20
-13600.0
30
0
11
68467.5
21
-13675.0
31
0
0
LINE
8
sensors
10
68467.5
20
-13675.0
30
0
11
68467.5
21
-13600.0
31
0
0
LINE
8
sensors
10
68467.5
20
-13600.0
30
0
11
68467.5
21
-13525.0
31
0
0
LINE
8
sensors
10
68467.5
20
-13525.0
30
0
11
68467.5
21
-13600.0
31
0
0
LINE
8
sensors
10
68497.5
20
-13670.0
30
0
11
68497.5
21
-13530.0
31
0
0
LINE
8
sensors
10
68657.5
20
-13670.0
30
0
11
68657.5
21
-13530.0
31
0
0
LINE
8
sensors
10
68497.5
20
-13670.0
30
0
11
68657.5
21
-13670.0
31
0
0
LINE
8
sensors
10
68497.5
20
-13530.0
30
0
11
68657.5
21
-13530.0
31
0
0
LINE
8
sensors
10
68732.0
20
-13600.0
30
0
11
68732.0
21
-13675.0
31
0
0
LINE
8
sensors
10
68732.0
20
-13675.0
30
0
11
68732.0
21
-13600.0
31
0
0
LINE
8
sensors
10
68732.0
20
-13600.0
30
0
11
68732.0
21
-13525.0
31
0
0
LINE
8
sensors
10
68732.0
20
-13525.0
30
0
11
68732.0
21
-13600.0
31
0
0
LINE
8
sensors
10
68512.0
20
-13600.0
30
0
11
68732.0
21
-13600.0
31
0
0
LINE
8
sensors
10
68512.0
20
-13600.0
30
0
11
68512.0
21
-13675.0
31
0
0
LINE
8
sensors
10
68512.0
20
-13675.0
30
0
11
68512.0
21
-13600.0
31
0
0
LINE
8
sensors
10
68512.0
20
-13600.0
30
0
11
68512.0
21
-13525.0
31
0
0
LINE
8
sensors
10
68512.0
20
-13525.0
30
0
11
68512.0
21
-13600.0
31
0
0
LINE
8
sensors
10
68542.0
20
-13670.0
30
0
11
68542.0
21
-13530.0
31
0
0
LINE
8
sensors
10
68702.0
20
-13670.0
30
0
11
68702.0
21
-13530.0
31
0
0
LINE
8
sensors
10
68542.0
20
-13670.0
30
0
11
68702.0
21
-13670.0
31
0
0
LINE
8
sensors
10
68542.0
20
-13530.0
30
0
11
68702.0
21
-13530.0
31
0
0
ENDSEC
0
EOF
