0
SECTION
2
HEADER
9
$ACADVER
1
AC1015
9
$INSUNITS
70
4
0
ENDSEC
0
SECTION
2
ENTITIES
0
LINE
8
interiors
10
74000.0
20
-22000.0
30
0
11
74000.0
21
-14000.0
31
0
0
LINE
8
interiors
10
74000.0
20
-22000.0
30
0
11
77800.0
21
-22000.0
31
0
0
LINE
8
interiors
10
77800.0
20
-22000.0
30
0
11
80200.0
21
-22000.0
31
0
0
LINE
8
interiors
10
80200.0
20
-22000.0
30
0
11
84000.0
21
-22000.0
31
0
0
LINE
8
interiors
10
74000.0
20
-22000.0
30
0
11
84000.0
21
-22000.0
31
0
0
LINE
8
interiors
10
74000.0
20
-14000.0
30
0
11
84000.0
21
-14000.0
31
0
0
LINE
8
interiors
10
84000.0
20
-22000.0
30
0
11
84000.0
21
-14000.0
31
0
0
LINE
8
interiors
10
83880.0
20
-21880.0
30
0
11
74120.0
21
-21880.0
31
0
0
LINE
8
interiors
10
83880.0
20
-21880.0
30
0
11
83880.0
21
-14120.0
31
0
0
LINE
8
interiors
10
83880.0
20
-14120.0
30
0
11
74120.0
21
-14120.0
31
0
0
LINE
8
interiors
10
74120.0
20
-21880.0
30
0
11
74120.0
21
-14120.0
31
0
0
LINE
8
interiors
10
76400.0
20
-14000.0
30
0
11
81600.0
21
-14000.0
31
0
0
LINE
8
interiors
10
80200.0
20
-22000.0
30
0
11
80200.0
21
-21880.0
31
0
0
LINE
8
interiors
10
83880.0
20
-21880.0
30
0
11
80200.0
21
-21880.0
31
0
0
LINE
8
interiors
10
77800.0
20
-21880.0
30
0
11
74120.0
21
-21880.0
31
0
0
LINE
8
interiors
10
77800.0
20
-22000.0
30
0
11
77800.0
21
-21880.0
31
0
0
LINE
8
interiors
10
77800.0
20
-21880.0
30
0
11
80200.0
21
-21880.0
31
0
0
LINE
8
interiors
10
76400.0
20
-14120.0
30
0
11
81600.0
21
-14120.0
31
0
0
LINE
8
interiors
10
76400.0
20
-14120.0
30
0
11
76400.0
21
-14000.0
31
0
0
LINE
8
interiors
10
81600.0
20
-14120.0
30
0
11
81600.0
21
-14000.0
31
0
0
LINE
8
interiors
10
76400.0
20
-14022.5
30
0
11
76400.0
21
-13977.5
31
0
0
LINE
8
interiors
10
81600.0
20
-14022.5
30
0
11
81600.0
21
-13977.5
31
0
0
LINE
8
interiors
10
76400.0
20
-14022.5
30
0
11
81600.0
21
-14022.5
31
0
0
LINE
8
interiors
10
76400.0
20
-13977.5
30
0
11
81600.0
21
-13977.5
31
0
0
LINE
8
interiors
10
74125.0
20
-21875.0
30
0
11
74125.0
21
-14125.0
31
0
0
LINE
8
interiors
10
83875.0
20
-21875.0
30
0
11
83875.0
21
-14125.0
31
0
0
LINE
8
interiors
10
74125.0
20
-21875.0
30
0
11
83875.0
21
-21875.0
31
0
0
LINE
8
interiors
10
74125.0
20
-14125.0
30
0
11
83875.0
21
-14125.0
31
0
0
LINE
8
interiors
10
77845.0
20
-22120.0
30
0
11
77845.0
21
-21880.0
31
0
0
LINE
8
interiors
10
77915.0
20
-22120.0
30
0
11
77915.0
21
-21880.0
31
0
0
LINE
8
interiors
10
77845.0
20
-22120.0
30
0
11
77915.0
21
-22120.0
31
0
0
LINE
8
interiors
10
77845.0
20
-21880.0
30
0
11
77915.0
21
-21880.0
31
0
0
LINE
8
interiors
10
80085.0
20
-22120.0
30
0
11
80085.0
21
-21880.0
31
0
0
LINE
8
interiors
10
80155.0
20
-22120.0
30
0
11
80155.0
21
-21880.0
31
0
0
LINE
8
interiors
10
80085.0
20
-22120.0
30
0
11
80155.0
21
-22120.0
31
0
0
LINE
8
interiors
10
80085.0
20
-21880.0
30
0
11
80155.0
21
-21880.0
31
0
0
LINE
8
interiors
10
77850.0
20
-22120.0
30
0
11
77850.0
21
-21880.0
31
0
0
LINE
8
interiors
10
80150.0
20
-22120.0
30
0
11
80150.0
21
-21880.0
31
0
0
LINE
8
interiors
10
77850.0
20
-22120.0
30
0
11
80150.0
21
-22120.0
31
0
0
LINE
8
interiors
10
77850.0
20
-21880.0
30
0
11
80150.0
21
-21880.0
31
0
0
LINE
8
interiors
10
77930.39
20
-21909.51
30
0
11
77889.61
21
-21890.49
31
0
0
LINE
8
interiors
10
78386.82
20
-20930.7
30
0
11
78346.04
21
-20911.68
31
0
0
LINE
8
interiors
10
77930.39
20
-21909.51
30
0
11
78386.82
21
-20930.7
31
0
0
LINE
8
interiors
10
77889.61
20
-21890.49
30
0
11
78346.04
21
-20911.68
31
0
0
LINE
8
electrical
10
83275.0
20
-21925.0
30
0
11
83275.0
21
-21675.0
31
0
0
LINE
8
electrical
10
83825.0
20
-21925.0
30
0
11
83825.0
21
-21675.0
31
0
0
LINE
8
electrical
10
83275.0
20
-21925.0
30
0
11
83825.0
21
-21925.0
31
0
0
LINE
8
electrical
10
83275.0
20
-21675.0
30
0
11
83825.0
21
-21675.0
31
0
0
LINE
8
electrical
10
83315.0
20
-21952.5
30
0
11
83315.0
21
-21917.5
31
0
0
LINE
8
electrical
10
83785.0
20
-21952.5
30
0
11
83785.0
21
-21917.5
31
0
0
LINE
8
electrical
10
83315.0
20
-21952.5
30
0
11
83785.0
21
-21952.5
31
0
0
LINE
8
electrical
10
83315.0
20
-21917.5
30
0
11
83785.0
21
-21917.5
31
0
0
LINE
8
electrical
10
83362.5
20
-21990.0
30
0
11
83362.5
21
-21950.0
31
0
0
LINE
8
electrical
10
83462.5
20
-21990.0
30
0
11
83462.5
21
-21950.0
31
0
0
LINE
8
electrical
10
83362.5
20
-21990.0
30
0
11
83462.5
21
-21990.0
31
0
0
LINE
8
electrical
10
83362.5
20
-21950.0
30
0
11
83462.5
21
-21950.0
31
0
0
LINE
8
electrical
10
83500.0
20
-21990.0
30
0
11
83500.0
21
-21950.0
31
0
0
LINE
8
electrical
10
83600.0
20
-21990.0
30
0
11
83600.0
21
-21950.0
31
0
0
LINE
8
electrical
10
83500.0
20
-21990.0
30
0
11
83600.0
21
-21990.0
31
0
0
LINE
8
electrical
10
83500.0
20
-21950.0
30
0
11
83600.0
21
-21950.0
31
0
0
LINE
8
electrical
10
83637.5
20
-21990.0
30
0
11
83637.5
21
-21950.0
31
0
0
LINE
8
electrical
10
83737.5
20
-21990.0
30
0
11
83737.5
21
-21950.0
31
0
0
LINE
8
electrical
10
83637.5
20
-21990.0
30
0
11
83737.5
21
-21990.0
31
0
0
LINE
8
electrical
10
83637.5
20
-21950.0
30
0
11
83737.5
21
-21950.0
31
0
0
LINE
8
electrical
10
83412.5
20
-22005.0
30
0
11
83435.88
21
-22005.0
31
0
0
LINE
8
electrical
10
83435.88
20
-22005.0
30
0
11
83389.12
21
-22005.0
31
0
0
LINE
8
electrical
10
83389.12
20
-22005.0
30
0
11
83412.5
21
-22005.0
31
0
0
LINE
8
electrical
10
83412.5
20
-21980.0
30
0
11
83412.5
21
-22005.0
31
0
0
LINE
8
electrical
10
83412.5
20
-21980.0
30
0
11
83435.88
21
-21980.0
31
0
0
LINE
8
electrical
10
83435.88
20
-21980.0
30
0
11
83389.12
21
-21980.0
31
0
0
LINE
8
electrical
10
83389.12
20
-21980.0
30
0
11
83412.5
21
-21980.0
31
0
0
LINE
8
electrical
10
83550.0
20
-22005.0
30
0
11
83573.38
21
-22005.0
31
0
0
LINE
8
electrical
10
83573.38
20
-22005.0
30
0
11
83526.62
21
-22005.0
31
0
0
LINE
8
electrical
10
83526.62
20
-22005.0
30
0
11
83550.0
21
-22005.0
31
0
0
LINE
8
electrical
10
83550.0
20
-21980.0
30
0
11
83550.0
21
-22005.0
31
0
0
LINE
8
electrical
10
83550.0
20
-21980.0
30
0
11
83573.38
21
-21980.0
31
0
0
LINE
8
electrical
10
83573.38
20
-21980.0
30
0
11
83526.62
21
-21980.0
31
0
0
LINE
8
electrical
10
83526.62
20
-21980.0
30
0
11
83550.0
21
-21980.0
31
0
0
LINE
8
electrical
10
83687.5
20
-22005.0
30
0
11
83710.88
21
-22005.0
31
0
0
LINE
8
electrical
10
83710.88
20
-22005.0
30
0
11
83664.12
21
-22005.0
31
0
0
LINE
8
electrical
10
83664.12
20
-22005.0
30
0
11
83687.5
21
-22005.0
31
0
0
LINE
8
electrical
10
83687.5
20
-21980.0
30
0
11
83687.5
21
-22005.0
31
0
0
LINE
8
electrical
10
83687.5
20
-21980.0
30
0
11
83710.88
21
-21980.0
31
0
0
LINE
8
electrical
10
83710.88
20
-21980.0
30
0
11
83664.12
21
-21980.0
31
0
0
LINE
8
electrical
10
83664.12
20
-21980.0
30
0
11
83687.5
21
-21980.0
31
0
0
LINE
8
electrical
10
83550.0
20
-21800.0
30
0
11
83565.59
21
-21800.0
31
0
0
LINE
8
electrical
10
83565.59
20
-21800.0
30
0
11
83534.41
21
-21800.0
31
0
0
LINE
8
electrical
10
83534.41
20
-21800.0
30
0
11
83550.0
21
-21800.0
31
0
0
LINE
8
electrical
10
83550.0
20
-34800.0
30
0
11
83550.0
21
-21800.0
31
0
0
LINE
8
electrical
10
83550.0
20
-34800.0
30
0
11
83565.59
21
-34800.0
31
0
0
LINE
8
electrical
10
83565.59
20
-34800.0
30
0
11
83534.41
21
-34800.0
31
0
0
LINE
8
electrical
10
83534.41
20
-34800.0
30
0
11
83550.0
21
-34800.0
31
0
0
LINE
8
electrical
10
83532.0
20
-21800.0
30
0
11
83559.0
21
-21784.41
31
0
0
LINE
8
electrical
10
83559.0
20
-21784.41
30
0
11
83559.0
21
-21815.59
31
0
0
LINE
8
electrical
10
83559.0
20
-21815.59
30
0
11
83532.0
21
-21800.0
31
0
0
LINE
8
electrical
10
83550.0
20
-21800.0
30
0
11
83569.44
21
-21800.0
31
0
0
LINE
8
electrical
10
83569.44
20
-21800.0
30
0
11
83550.0
21
-21800.0
31
0
0
LINE
8
lighting
10
75080.0
20
-21040.0
30
0
11
75080.0
21
-20400.0
31
0
0
LINE
8
lighting
10
75720.0
20
-21040.0
30
0
11
75720.0
21
-20400.0
31
0
0
LINE
8
lighting
10
75080.0
20
-21040.0
30
0
11
75720.0
21
-21040.0
31
0
0
LINE
8
lighting
10
75080.0
20
-20400.0
30
0
11
75720.0
21
-20400.0
31
0
0
LINE
8
lighting
10
75120.0
20
-21000.0
30
0
11
75120.0
21
-20440.0
31
0
0
LINE
8
lighting
10
75680.0
20
-21000.0
30
0
11
75680.0
21
-20440.0
31
0
0
LINE
8
lighting
10
75120.0
20
-21000.0
30
0
11
75680.0
21
-21000.0
31
0
0
LINE
8
lighting
10
75120.0
20
-20440.0
30
0
11
75680.0
21
-20440.0
31
0
0
LINE
8
lighting
10
75154.0
20
-20990.0
30
0
11
75154.0
21
-20450.0
31
0
0
LINE
8
lighting
10
75166.0
20
-20990.0
30
0
11
75166.0
21
-20450.0
31
0
0
LINE
8
lighting
10
75154.0
20
-20990.0
30
0
11
75166.0
21
-20990.0
31
0
0
LINE
8
lighting
10
75154.0
20
-20450.0
30
0
11
75166.0
21
-20450.0
31
0
0
LINE
8
lighting
10
75234.0
20
-20990.0
30
0
11
75234.0
21
-20450.0
31
0
0
LINE
8
lighting
10
75246.0
20
-20990.0
30
0
11
75246.0
21
-20450.0
31
0
0
LINE
8
lighting
10
75234.0
20
-20990.0
30
0
11
75246.0
21
-20990.0
31
0
0
LINE
8
lighting
10
75234.0
20
-20450.0
30
0
11
75246.0
21
-20450.0
31
0
0
LINE
8
lighting
10
75314.0
20
-20990.0
30
0
11
75314.0
21
-20450.0
31
0
0
LINE
8
lighting
10
75326.0
20
-20990.0
30
0
11
75326.0
21
-20450.0
31
0
0
LINE
8
lighting
10
75314.0
20
-20990.0
30
0
11
75326.0
21
-20990.0
31
0
0
LINE
8
lighting
10
75314.0
20
-20450.0
30
0
11
75326.0
21
-20450.0
31
0
0
LINE
8
lighting
10
75394.0
20
-20990.0
30
0
11
75394.0
21
-20450.0
31
0
0
LINE
8
lighting
10
75406.0
20
-20990.0
30
0
11
75406.0
21
-20450.0
31
0
0
LINE
8
lighting
10
75394.0
20
-20990.0
30
0
11
75406.0
21
-20990.0
31
0
0
LINE
8
lighting
10
75394.0
20
-20450.0
30
0
11
75406.0
21
-20450.0
31
0
0
LINE
8
lighting
10
75474.0
20
-20990.0
30
0
11
75474.0
21
-20450.0
31
0
0
LINE
8
lighting
10
75486.0
20
-20990.0
30
0
11
75486.0
21
-20450.0
31
0
0
LINE
8
lighting
10
75474.0
20
-20990.0
30
0
11
75486.0
21
-20990.0
31
0
0
LINE
8
lighting
10
75474.0
20
-20450.0
30
0
11
75486.0
21
-20450.0
31
0
0
LINE
8
lighting
10
75554.0
20
-20990.0
30
0
11
75554.0
21
-20450.0
31
0
0
LINE
8
lighting
10
75566.0
20
-20990.0
30
0
11
75566.0
21
-20450.0
31
0
0
LINE
8
lighting
10
75554.0
20
-20990.0
30
0
11
75566.0
21
-20990.0
31
0
0
LINE
8
lighting
10
75554.0
20
-20450.0
30
0
11
75566.0
21
-20450.0
31
0
0
LINE
8
lighting
10
75634.0
20
-20990.0
30
0
11
75634.0
21
-20450.0
31
0
0
LINE
8
lighting
10
75646.0
20
-20990.0
30
0
11
75646.0
21
-20450.0
31
0
0
LINE
8
lighting
10
75634.0
20
-20990.0
30
0
11
75646.0
21
-20990.0
31
0
0
LINE
8
lighting
10
75634.0
20
-20450.0
30
0
11
75646.0
21
-20450.0
31
0
0
LINE
8
lighting
10
75409.0
20
-20720.0
30
0
11
75395.5
21
-20712.21
31
0
0
LINE
8
lighting
10
75395.5
20
-20712.21
30
0
11
75395.5
21
-20727.79
31
0
0
LINE
8
lighting
10
75395.5
20
-20727.79
30
0
11
75409.0
21
-20720.0
31
0
0
LINE
8
lighting
10
82280.0
20
-21040.0
30
0
11
82280.0
21
-20400.0
31
0
0
LINE
8
lighting
10
82920.0
20
-21040.0
30
0
11
82920.0
21
-20400.0
31
0
0
LINE
8
lighting
10
82280.0
20
-21040.0
30
0
11
82920.0
21
-21040.0
31
0
0
LINE
8
lighting
10
82280.0
20
-20400.0
30
0
11
82920.0
21
-20400.0
31
0
0
LINE
8
lighting
10
82320.0
20
-21000.0
30
0
11
82320.0
21
-20440.0
31
0
0
LINE
8
lighting
10
82880.0
20
-21000.0
30
0
11
82880.0
21
-20440.0
31
0
0
LINE
8
lighting
10
82320.0
20
-21000.0
30
0
11
82880.0
21
-21000.0
31
0
0
LINE
8
lighting
10
82320.0
20
-20440.0
30
0
11
82880.0
21
-20440.0
31
0
0
LINE
8
lighting
10
82354.0
20
-20990.0
30
0
11
82354.0
21
-20450.0
31
0
0
LINE
8
lighting
10
82366.0
20
-20990.0
30
0
11
82366.0
21
-20450.0
31
0
0
LINE
8
lighting
10
82354.0
20
-20990.0
30
0
11
82366.0
21
-20990.0
31
0
0
LINE
8
lighting
10
82354.0
20
-20450.0
30
0
11
82366.0
21
-20450.0
31
0
0
LINE
8
lighting
10
82434.0
20
-20990.0
30
0
11
82434.0
21
-20450.0
31
0
0
LINE
8
lighting
10
82446.0
20
-20990.0
30
0
11
82446.0
21
-20450.0
31
0
0
LINE
8
lighting
10
82434.0
20
-20990.0
30
0
11
82446.0
21
-20990.0
31
0
0
LINE
8
lighting
10
82434.0
20
-20450.0
30
0
11
82446.0
21
-20450.0
31
0
0
LINE
8
lighting
10
82514.0
20
-20990.0
30
0
11
82514.0
21
-20450.0
31
0
0
LINE
8
lighting
10
82526.0
20
-20990.0
30
0
11
82526.0
21
-20450.0
31
0
0
LINE
8
lighting
10
82514.0
20
-20990.0
30
0
11
82526.0
21
-20990.0
31
0
0
LINE
8
lighting
10
82514.0
20
-20450.0
30
0
11
82526.0
21
-20450.0
31
0
0
LINE
8
lighting
10
82594.0
20
-20990.0
30
0
11
82594.0
21
-20450.0
31
0
0
LINE
8
lighting
10
82606.0
20
-20990.0
30
0
11
82606.0
21
-20450.0
31
0
0
LINE
8
lighting
10
82594.0
20
-20990.0
30
0
11
82606.0
21
-20990.0
31
0
0
LINE
8
lighting
10
82594.0
20
-20450.0
30
0
11
82606.0
21
-20450.0
31
0
0
LINE
8
lighting
10
82674.0
20
-20990.0
30
0
11
82674.0
21
-20450.0
31
0
0
LINE
8
lighting
10
82686.0
20
-20990.0
30
0
11
82686.0
21
-20450.0
31
0
0
LINE
8
lighting
10
82674.0
20
-20990.0
30
0
11
82686.0
21
-20990.0
31
0
0
LINE
8
lighting
10
82674.0
20
-20450.0
30
0
11
82686.0
21
-20450.0
31
0
0
LINE
8
lighting
10
82754.0
20
-20990.0
30
0
11
82754.0
21
-20450.0
31
0
0
LINE
8
lighting
10
82766.0
20
-20990.0
30
0
11
82766.0
21
-20450.0
31
0
0
LINE
8
lighting
10
82754.0
20
-20990.0
30
0
11
82766.0
21
-20990.0
31
0
0
LINE
8
lighting
10
82754.0
20
-20450.0
30
0
11
82766.0
21
-20450.0
31
0
0
LINE
8
lighting
10
82834.0
20
-20990.0
30
0
11
82834.0
21
-20450.0
31
0
0
LINE
8
lighting
10
82846.0
20
-20990.0
30
0
11
82846.0
21
-20450.0
31
0
0
LINE
8
lighting
10
82834.0
20
-20990.0
30
0
11
82846.0
21
-20990.0
31
0
0
LINE
8
lighting
10
82834.0
20
-20450.0
30
0
11
82846.0
21
-20450.0
31
0
0
LINE
8
lighting
10
82609.0
20
-20720.0
30
0
11
82595.5
21
-20712.21
31
0
0
LINE
8
lighting
10
82595.5
20
-20712.21
30
0
11
82595.5
21
-20727.79
31
0
0
LINE
8
lighting
10
82595.5
20
-20727.79
30
0
11
82609.0
21
-20720.0
31
0
0
LINE
8
lighting
10
75080.0
20
-15600.0
30
0
11
75080.0
21
-14960.0
31
0
0
LINE
8
lighting
10
75720.0
20
-15600.0
30
0
11
75720.0
21
-14960.0
31
0
0
LINE
8
lighting
10
75080.0
20
-15600.0
30
0
11
75720.0
21
-15600.0
31
0
0
LINE
8
lighting
10
75080.0
20
-14960.0
30
0
11
75720.0
21
-14960.0
31
0
0
LINE
8
lighting
10
75120.0
20
-15560.0
30
0
11
75120.0
21
-15000.0
31
0
0
LINE
8
lighting
10
75680.0
20
-15560.0
30
0
11
75680.0
21
-15000.0
31
0
0
LINE
8
lighting
10
75120.0
20
-15560.0
30
0
11
75680.0
21
-15560.0
31
0
0
LINE
8
lighting
10
75120.0
20
-15000.0
30
0
11
75680.0
21
-15000.0
31
0
0
LINE
8
lighting
10
75154.0
20
-15550.0
30
0
11
75154.0
21
-15010.0
31
0
0
LINE
8
lighting
10
75166.0
20
-15550.0
30
0
11
75166.0
21
-15010.0
31
0
0
LINE
8
lighting
10
75154.0
20
-15550.0
30
0
11
75166.0
21
-15550.0
31
0
0
LINE
8
lighting
10
75154.0
20
-15010.0
30
0
11
75166.0
21
-15010.0
31
0
0
LINE
8
lighting
10
75234.0
20
-15550.0
30
0
11
75234.0
21
-15010.0
31
0
0
LINE
8
lighting
10
75246.0
20
-15550.0
30
0
11
75246.0
21
-15010.0
31
0
0
LINE
8
lighting
10
75234.0
20
-15550.0
30
0
11
75246.0
21
-15550.0
31
0
0
LINE
8
lighting
10
75234.0
20
-15010.0
30
0
11
75246.0
21
-15010.0
31
0
0
LINE
8
lighting
10
75314.0
20
-15550.0
30
0
11
75314.0
21
-15010.0
31
0
0
LINE
8
lighting
10
75326.0
20
-15550.0
30
0
11
75326.0
21
-15010.0
31
0
0
LINE
8
lighting
10
75314.0
20
-15550.0
30
0
11
75326.0
21
-15550.0
31
0
0
LINE
8
lighting
10
75314.0
20
-15010.0
30
0
11
75326.0
21
-15010.0
31
0
0
LINE
8
lighting
10
75394.0
20
-15550.0
30
0
11
75394.0
21
-15010.0
31
0
0
LINE
8
lighting
10
75406.0
20
-15550.0
30
0
11
75406.0
21
-15010.0
31
0
0
LINE
8
lighting
10
75394.0
20
-15550.0
30
0
11
75406.0
21
-15550.0
31
0
0
LINE
8
lighting
10
75394.0
20
-15010.0
30
0
11
75406.0
21
-15010.0
31
0
0
LINE
8
lighting
10
75474.0
20
-15550.0
30
0
11
75474.0
21
-15010.0
31
0
0
LINE
8
lighting
10
75486.0
20
-15550.0
30
0
11
75486.0
21
-15010.0
31
0
0
LINE
8
lighting
10
75474.0
20
-15550.0
30
0
11
75486.0
21
-15550.0
31
0
0
LINE
8
lighting
10
75474.0
20
-15010.0
30
0
11
75486.0
21
-15010.0
31
0
0
LINE
8
lighting
10
75554.0
20
-15550.0
30
0
11
75554.0
21
-15010.0
31
0
0
LINE
8
lighting
10
75566.0
20
-15550.0
30
0
11
75566.0
21
-15010.0
31
0
0
LINE
8
lighting
10
75554.0
20
-15550.0
30
0
11
75566.0
21
-15550.0
31
0
0
LINE
8
lighting
10
75554.0
20
-15010.0
30
0
11
75566.0
21
-15010.0
31
0
0
LINE
8
lighting
10
75634.0
20
-15550.0
30
0
11
75634.0
21
-15010.0
31
0
0
LINE
8
lighting
10
75646.0
20
-15550.0
30
0
11
75646.0
21
-15010.0
31
0
0
LINE
8
lighting
10
75634.0
20
-15550.0
30
0
11
75646.0
21
-15550.0
31
0
0
LINE
8
lighting
10
75634.0
20
-15010.0
30
0
11
75646.0
21
-15010.0
31
0
0
LINE
8
lighting
10
75409.0
20
-15280.0
30
0
11
75395.5
21
-15272.21
31
0
0
LINE
8
lighting
10
75395.5
20
-15272.21
30
0
11
75395.5
21
-15287.79
31
0
0
LINE
8
lighting
10
75395.5
20
-15287.79
30
0
11
75409.0
21
-15280.0
31
0
0
LINE
8
lighting
10
82280.0
20
-15600.0
30
0
11
82280.0
21
-14960.0
31
0
0
LINE
8
lighting
10
82920.0
20
-15600.0
30
0
11
82920.0
21
-14960.0
31
0
0
LINE
8
lighting
10
82280.0
20
-15600.0
30
0
11
82920.0
21
-15600.0
31
0
0
LINE
8
lighting
10
82280.0
20
-14960.0
30
0
11
82920.0
21
-14960.0
31
0
0
LINE
8
lighting
10
82320.0
20
-15560.0
30
0
11
82320.0
21
-15000.0
31
0
0
LINE
8
lighting
10
82880.0
20
-15560.0
30
0
11
82880.0
21
-15000.0
31
0
0
LINE
8
lighting
10
82320.0
20
-15560.0
30
0
11
82880.0
21
-15560.0
31
0
0
LINE
8
lighting
10
82320.0
20
-15000.0
30
0
11
82880.0
21
-15000.0
31
0
0
LINE
8
lighting
10
82354.0
20
-15550.0
30
0
11
82354.0
21
-15010.0
31
0
0
LINE
8
lighting
10
82366.0
20
-15550.0
30
0
11
82366.0
21
-15010.0
31
0
0
LINE
8
lighting
10
82354.0
20
-15550.0
30
0
11
82366.0
21
-15550.0
31
0
0
LINE
8
lighting
10
82354.0
20
-15010.0
30
0
11
82366.0
21
-15010.0
31
0
0
LINE
8
lighting
10
82434.0
20
-15550.0
30
0
11
82434.0
21
-15010.0
31
0
0
LINE
8
lighting
10
82446.0
20
-15550.0
30
0
11
82446.0
21
-15010.0
31
0
0
LINE
8
lighting
10
82434.0
20
-15550.0
30
0
11
82446.0
21
-15550.0
31
0
0
LINE
8
lighting
10
82434.0
20
-15010.0
30
0
11
82446.0
21
-15010.0
31
0
0
LINE
8
lighting
10
82514.0
20
-15550.0
30
0
11
82514.0
21
-15010.0
31
0
0
LINE
8
lighting
10
82526.0
20
-15550.0
30
0
11
82526.0
21
-15010.0
31
0
0
LINE
8
lighting
10
82514.0
20
-15550.0
30
0
11
82526.0
21
-15550.0
31
0
0
LINE
8
lighting
10
82514.0
20
-15010.0
30
0
11
82526.0
21
-15010.0
31
0
0
LINE
8
lighting
10
82594.0
20
-15550.0
30
0
11
82594.0
21
-15010.0
31
0
0
LINE
8
lighting
10
82606.0
20
-15550.0
30
0
11
82606.0
21
-15010.0
31
0
0
LINE
8
lighting
10
82594.0
20
-15550.0
30
0
11
82606.0
21
-15550.0
31
0
0
LINE
8
lighting
10
82594.0
20
-15010.0
30
0
11
82606.0
21
-15010.0
31
0
0
LINE
8
lighting
10
82674.0
20
-15550.0
30
0
11
82674.0
21
-15010.0
31
0
0
LINE
8
lighting
10
82686.0
20
-15550.0
30
0
11
82686.0
21
-15010.0
31
0
0
LINE
8
lighting
10
82674.0
20
-15550.0
30
0
11
82686.0
21
-15550.0
31
0
0
LINE
8
lighting
10
82674.0
20
-15010.0
30
0
11
82686.0
21
-15010.0
31
0
0
LINE
8
lighting
10
82754.0
20
-15550.0
30
0
11
82754.0
21
-15010.0
31
0
0
LINE
8
lighting
10
82766.0
20
-15550.0
30
0
11
82766.0
21
-15010.0
31
0
0
LINE
8
lighting
10
82754.0
20
-15550.0
30
0
11
82766.0
21
-15550.0
31
0
0
LINE
8
lighting
10
82754.0
20
-15010.0
30
0
11
82766.0
21
-15010.0
31
0
0
LINE
8
lighting
10
82834.0
20
-15550.0
30
0
11
82834.0
21
-15010.0
31
0
0
LINE
8
lighting
10
82846.0
20
-15550.0
30
0
11
82846.0
21
-15010.0
31
0
0
LINE
8
lighting
10
82834.0
20
-15550.0
30
0
11
82846.0
21
-15550.0
31
0
0
LINE
8
lighting
10
82834.0
20
-15010.0
30
0
11
82846.0
21
-15010.0
31
0
0
LINE
8
lighting
10
82609.0
20
-15280.0
30
0
11
82595.5
21
-15272.21
31
0
0
LINE
8
lighting
10
82595.5
20
-15272.21
30
0
11
82595.5
21
-15287.79
31
0
0
LINE
8
lighting
10
82595.5
20
-15287.79
30
0
11
82609.0
21
-15280.0
31
0
0
LINE
8
electrical
10
75400.0
20
-20920.0
30
0
11
75400.0
21
-20927.79
31
0
0
LINE
8
electrical
10
75400.0
20
-20927.79
30
0
11
75400.0
21
-20912.21
31
0
0
LINE
8
electrical
10
75400.0
20
-20912.21
30
0
11
75400.0
21
-20920.0
31
0
0
LINE
8
electrical
10
83550.0
20
-20920.0
30
0
11
75400.0
21
-20920.0
31
0
0
LINE
8
electrical
10
83550.0
20
-20920.0
30
0
11
83550.0
21
-20927.79
31
0
0
LINE
8
electrical
10
83550.0
20
-20927.79
30
0
11
83550.0
21
-20912.21
31
0
0
LINE
8
electrical
10
83550.0
20
-20912.21
30
0
11
83550.0
21
-20920.0
31
0
0
LINE
8
electrical
10
75400.0
20
-15280.0
30
0
11
75407.79
21
-15280.0
31
0
0
LINE
8
electrical
10
75407.79
20
-15280.0
30
0
11
75392.21
21
-15280.0
31
0
0
LINE
8
electrical
10
75392.21
20
-15280.0
30
0
11
75400.0
21
-15280.0
31
0
0
LINE
8
electrical
10
75400.0
20
-20920.0
30
0
11
75400.0
21
-15280.0
31
0
0
LINE
8
electrical
10
75400.0
20
-20920.0
30
0
11
75407.79
21
-20920.0
31
0
0
LINE
8
electrical
10
75407.79
20
-20920.0
30
0
11
75392.21
21
-20920.0
31
0
0
LINE
8
electrical
10
75392.21
20
-20920.0
30
0
11
75400.0
21
-20920.0
31
0
0
LINE
8
electrical
10
82600.0
20
-15280.0
30
0
11
82607.79
21
-15280.0
31
0
0
LINE
8
electrical
10
82607.79
20
-15280.0
30
0
11
82592.21
21
-15280.0
31
0
0
LINE
8
electrical
10
82592.21
20
-15280.0
30
0
11
82600.0
21
-15280.0
31
0
0
LINE
8
electrical
10
82600.0
20
-20920.0
30
0
11
82600.0
21
-15280.0
31
0
0
LINE
8
electrical
10
82600.0
20
-20920.0
30
0
11
82607.79
21
-20920.0
31
0
0
LINE
8
electrical
10
82607.79
20
-20920.0
30
0
11
82592.21
21
-20920.0
31
0
0
LINE
8
electrical
10
82592.21
20
-20920.0
30
0
11
82600.0
21
-20920.0
31
0
0
LINE
8
electrical
10
83563.0
20
-21800.0
30
0
11
83543.5
21
-21788.74
31
0
0
LINE
8
electrical
10
83543.5
20
-21788.74
30
0
11
83543.5
21
-21811.26
31
0
0
LINE
8
electrical
10
83543.5
20
-21811.26
30
0
11
83563.0
21
-21800.0
31
0
0
LINE
8
electrical
10
82491.65
20
-20929.96
30
0
11
82504.18
21
-20915.02
31
0
0
LINE
8
electrical
10
82504.18
20
-20915.02
30
0
11
82504.18
21
-20915.02
31
0
0
LINE
8
electrical
10
82504.18
20
-20915.02
30
0
11
82491.65
21
-20929.96
31
0
0
LINE
8
electrical
10
83541.65
20
-21809.96
30
0
11
82491.65
21
-20929.96
31
0
0
LINE
8
electrical
10
83541.65
20
-21809.96
30
0
11
83554.18
21
-21795.02
31
0
0
LINE
8
electrical
10
83554.18
20
-21795.02
30
0
11
83554.18
21
-21795.02
31
0
0
LINE
8
electrical
10
83554.18
20
-21795.02
30
0
11
83541.65
21
-21809.96
31
0
0
LINE
8
electrical
10
75500.0
20
-20920.0
30
0
11
75500.0
21
-20931.26
31
0
0
LINE
8
electrical
10
75500.0
20
-20931.26
30
0
11
75500.0
21
-20908.74
31
0
0
LINE
8
electrical
10
75500.0
20
-20908.74
30
0
11
75500.0
21
-20920.0
31
0
0
LINE
8
electrical
10
82500.0
20
-20920.0
30
0
11
75500.0
21
-20920.0
31
0
0
LINE
8
electrical
10
82500.0
20
-20920.0
30
0
11
82500.0
21
-20931.26
31
0
0
LINE
8
electrical
10
82500.0
20
-20931.26
30
0
11
82500.0
21
-20908.74
31
0
0
LINE
8
electrical
10
82500.0
20
-20908.74
30
0
11
82500.0
21
-20920.0
31
0
0
LINE
8
electrical
10
83550.0
20
-21800.0
30
0
11
83564.04
21
-21800.0
31
0
0
LINE
8
electrical
10
83564.04
20
-21800.0
30
0
11
83550.0
21
-21800.0
31
0
0
LINE
8
electrical
10
82500.0
20
-20920.0
30
0
11
82514.04
21
-20920.0
31
0
0
LINE
8
electrical
10
82514.04
20
-20920.0
30
0
11
82500.0
21
-20920.0
31
0
0
LINE
8
electrical
10
83563.0
20
-21800.0
30
0
11
83543.5
21
-21788.74
31
0
0
LINE
8
electrical
10
83543.5
20
-21788.74
30
0
11
83543.5
21
-21811.26
31
0
0
LINE
8
electrical
10
83543.5
20
-21811.26
30
0
11
83563.0
21
-21800.0
31
0
0
LINE
8
electrical
10
82491.03
20
-20809.41
30
0
11
82504.48
21
-20795.29
31
0
0
LINE
8
electrical
10
82504.48
20
-20795.29
30
0
11
82504.48
21
-20795.29
31
0
0
LINE
8
electrical
10
82504.48
20
-20795.29
30
0
11
82491.03
21
-20809.41
31
0
0
LINE
8
electrical
10
83541.03
20
-21809.41
30
0
11
82491.03
21
-20809.41
31
0
0
LINE
8
electrical
10
83541.03
20
-21809.41
30
0
11
83554.48
21
-21795.29
31
0
0
LINE
8
electrical
10
83554.48
20
-21795.29
30
0
11
83554.48
21
-21795.29
31
0
0
LINE
8
electrical
10
83554.48
20
-21795.29
30
0
11
83541.03
21
-21809.41
31
0
0
LINE
8
electrical
10
75500.0
20
-20800.0
30
0
11
75500.0
21
-20811.26
31
0
0
LINE
8
electrical
10
75500.0
20
-20811.26
30
0
11
75500.0
21
-20788.74
31
0
0
LINE
8
electrical
10
75500.0
20
-20788.74
30
0
11
75500.0
21
-20800.0
31
0
0
LINE
8
electrical
10
82500.0
20
-20800.0
30
0
11
75500.0
21
-20800.0
31
0
0
LINE
8
electrical
10
82500.0
20
-20800.0
30
0
11
82500.0
21
-20811.26
31
0
0
LINE
8
electrical
10
82500.0
20
-20811.26
30
0
11
82500.0
21
-20788.74
31
0
0
LINE
8
electrical
10
82500.0
20
-20788.74
30
0
11
82500.0
21
-20800.0
31
0
0
LINE
8
electrical
10
83550.0
20
-21800.0
30
0
11
83564.04
21
-21800.0
31
0
0
LINE
8
electrical
10
83564.04
20
-21800.0
30
0
11
83550.0
21
-21800.0
31
0
0
LINE
8
electrical
10
82500.0
20
-20800.0
30
0
11
82514.04
21
-20800.0
31
0
0
LINE
8
electrical
10
82514.04
20
-20800.0
30
0
11
82500.0
21
-20800.0
31
0
0
LINE
8
electrical
10
83563.0
20
-21800.0
30
0
11
83543.5
21
-21788.74
31
0
0
LINE
8
electrical
10
83543.5
20
-21788.74
30
0
11
83543.5
21
-21811.26
31
0
0
LINE
8
electrical
10
83543.5
20
-21811.26
30
0
11
83563.0
21
-21800.0
31
0
0
LINE
8
electrical
10
82509.48
20
-20671.11
30
0
11
82495.26
21
-20684.45
31
0
0
LINE
8
electrical
10
82495.26
20
-20684.45
30
0
11
82495.26
21
-20684.45
31
0
0
LINE
8
electrical
10
82495.26
20
-20684.45
30
0
11
82509.48
21
-20671.11
31
0
0
LINE
8
electrical
10
83559.48
20
-21791.11
30
0
11
82509.48
21
-20671.11
31
0
0
LINE
8
electrical
10
83559.48
20
-21791.11
30
0
11
83545.26
21
-21804.45
31
0
0
LINE
8
electrical
10
83545.26
20
-21804.45
30
0
11
83545.26
21
-21804.45
31
0
0
LINE
8
electrical
10
83545.26
20
-21804.45
30
0
11
83559.48
21
-21791.11
31
0
0
LINE
8
electrical
10
75500.0
20
-20680.0
30
0
11
75500.0
21
-20691.26
31
0
0
LINE
8
electrical
10
75500.0
20
-20691.26
30
0
11
75500.0
21
-20668.74
31
0
0
LINE
8
electrical
10
75500.0
20
-20668.74
30
0
11
75500.0
21
-20680.0
31
0
0
LINE
8
electrical
10
82500.0
20
-20680.0
30
0
11
75500.0
21
-20680.0
31
0
0
LINE
8
electrical
10
82500.0
20
-20680.0
30
0
11
82500.0
21
-20691.26
31
0
0
LINE
8
electrical
10
82500.0
20
-20691.26
30
0
11
82500.0
21
-20668.74
31
0
0
LINE
8
electrical
10
82500.0
20
-20668.74
30
0
11
82500.0
21
-20680.0
31
0
0
LINE
8
electrical
10
83550.0
20
-21800.0
30
0
11
83564.04
21
-21800.0
31
0
0
LINE
8
electrical
10
83564.04
20
-21800.0
30
0
11
83550.0
21
-21800.0
31
0
0
LINE
8
electrical
10
82500.0
20
-20680.0
30
0
11
82514.04
21
-20680.0
31
0
0
LINE
8
electrical
10
82514.04
20
-20680.0
30
0
11
82500.0
21
-20680.0
31
0
0
LINE
8
electrical
10
75935.0
20
-21850.0
30
0
11
75935.0
21
-21790.0
31
0
0
LINE
8
electrical
10
76065.0
20
-21850.0
30
0
11
76065.0
21
-21790.0
31
0
0
LINE
8
electrical
10
75935.0
20
-21850.0
30
0
11
76065.0
21
-21850.0
31
0
0
LINE
8
electrical
10
75935.0
20
-21790.0
30
0
11
76065.0
21
-21790.0
31
0
0
LINE
8
electrical
10
76009.0
20
-21820.0
30
0
11
75995.5
21
-21812.21
31
0
0
LINE
8
electrical
10
75995.5
20
-21812.21
30
0
11
75995.5
21
-21827.79
31
0
0
LINE
8
electrical
10
75995.5
20
-21827.79
30
0
11
76009.0
21
-21820.0
31
0
0
LINE
8
electrical
10
83550.0
20
-21820.0
30
0
11
83550.0
21
-21827.79
31
0
0
LINE
8
electrical
10
83550.0
20
-21827.79
30
0
11
83550.0
21
-21812.21
31
0
0
LINE
8
electrical
10
83550.0
20
-21812.21
30
0
11
83550.0
21
-21820.0
31
0
0
LINE
8
electrical
10
76000.0
20
-21820.0
30
0
11
83550.0
21
-21820.0
31
0
0
LINE
8
electrical
10
76000.0
20
-21820.0
30
0
11
76000.0
21
-21827.79
31
0
0
LINE
8
electrical
10
76000.0
20
-21827.79
30
0
11
76000.0
21
-21812.21
31
0
0
LINE
8
electrical
10
76000.0
20
-21812.21
30
0
11
76000.0
21
-21820.0
31
0
0
LINE
8
electrical
10
76000.0
20
-21820.0
30
0
11
76009.72
21
-21820.0
31
0
0
LINE
8
electrical
10
76009.72
20
-21820.0
30
0
11
76000.0
21
-21820.0
31
0
0
LINE
8
electrical
10
81935.0
20
-21850.0
30
0
11
81935.0
21
-21790.0
31
0
0
LINE
8
electrical
10
82065.0
20
-21850.0
30
0
11
82065.0
21
-21790.0
31
0
0
LINE
8
electrical
10
81935.0
20
-21850.0
30
0
11
82065.0
21
-21850.0
31
0
0
LINE
8
electrical
10
81935.0
20
-21790.0
30
0
11
82065.0
21
-21790.0
31
0
0
LINE
8
electrical
10
82009.0
20
-21820.0
30
0
11
81995.5
21
-21812.21
31
0
0
LINE
8
electrical
10
81995.5
20
-21812.21
30
0
11
81995.5
21
-21827.79
31
0
0
LINE
8
electrical
10
81995.5
20
-21827.79
30
0
11
82009.0
21
-21820.0
31
0
0
LINE
8
electrical
10
83550.0
20
-21820.0
30
0
11
83550.0
21
-21827.79
31
0
0
LINE
8
electrical
10
83550.0
20
-21827.79
30
0
11
83550.0
21
-21812.21
31
0
0
LINE
8
electrical
10
83550.0
20
-21812.21
30
0
11
83550.0
21
-21820.0
31
0
0
LINE
8
electrical
10
82000.0
20
-21820.0
30
0
11
83550.0
21
-21820.0
31
0
0
LINE
8
electrical
10
82000.0
20
-21820.0
30
0
11
82000.0
21
-21827.79
31
0
0
LINE
8
electrical
10
82000.0
20
-21827.79
30
0
11
82000.0
21
-21812.21
31
0
0
LINE
8
electrical
10
82000.0
20
-21812.21
30
0
11
82000.0
21
-21820.0
31
0
0
LINE
8
electrical
10
82000.0
20
-21820.0
30
0
11
82009.72
21
-21820.0
31
0
0
LINE
8
electrical
10
82009.72
20
-21820.0
30
0
11
82000.0
21
-21820.0
31
0
0
LINE
8
hvac
10
74475.0
20
-21275.0
30
0
11
74475.0
21
-20525.0
31
0
0
LINE
8
hvac
10
76125.0
20
-21275.0
30
0
11
76125.0
21
-20525.0
31
0
0
LINE
8
hvac
10
74475.0
20
-21275.0
30
0
11
76125.0
21
-21275.0
31
0
0
LINE
8
hvac
10
74475.0
20
-20525.0
30
0
11
76125.0
21
-20525.0
31
0
0
LINE
8
hvac
10
74575.0
20
-21320.0
30
0
11
74575.0
21
-21280.0
31
0
0
LINE
8
hvac
10
76025.0
20
-21320.0
30
0
11
76025.0
21
-21280.0
31
0
0
LINE
8
hvac
10
74575.0
20
-21320.0
30
0
11
76025.0
21
-21320.0
31
0
0
LINE
8
hvac
10
74575.0
20
-21280.0
30
0
11
76025.0
21
-21280.0
31
0
0
LINE
8
hvac
10
74640.0
20
-21360.0
30
0
11
74640.0
21
-21300.0
31
0
0
LINE
8
hvac
10
74680.0
20
-21360.0
30
0
11
74680.0
21
-21300.0
31
0
0
LINE
8
hvac
10
74640.0
20
-21360.0
30
0
11
74680.0
21
-21360.0
31
0
0
LINE
8
hvac
10
74640.0
20
-21300.0
30
0
11
74680.0
21
-21300.0
31
0
0
LINE
8
hvac
10
74800.0
20
-21360.0
30
0
11
74800.0
21
-21300.0
31
0
0
LINE
8
hvac
10
74840.0
20
-21360.0
30
0
11
74840.0
21
-21300.0
31
0
0
LINE
8
hvac
10
74800.0
20
-21360.0
30
0
11
74840.0
21
-21360.0
31
0
0
LINE
8
hvac
10
74800.0
20
-21300.0
30
0
11
74840.0
21
-21300.0
31
0
0
LINE
8
hvac
10
74960.0
20
-21360.0
30
0
11
74960.0
21
-21300.0
31
0
0
LINE
8
hvac
10
75000.0
20
-21360.0
30
0
11
75000.0
21
-21300.0
31
0
0
LINE
8
hvac
10
74960.0
20
-21360.0
30
0
11
75000.0
21
-21360.0
31
0
0
LINE
8
hvac
10
74960.0
20
-21300.0
30
0
11
75000.0
21
-21300.0
31
0
0
LINE
8
hvac
10
75120.0
20
-21360.0
30
0
11
75120.0
21
-21300.0
31
0
0
LINE
8
hvac
10
75160.0
20
-21360.0
30
0
11
75160.0
21
-21300.0
31
0
0
LINE
8
hvac
10
75120.0
20
-21360.0
30
0
11
75160.0
21
-21360.0
31
0
0
LINE
8
hvac
10
75120.0
20
-21300.0
30
0
11
75160.0
21
-21300.0
31
0
0
LINE
8
hvac
10
75280.0
20
-21360.0
30
0
11
75280.0
21
-21300.0
31
0
0
LINE
8
hvac
10
75320.0
20
-21360.0
30
0
11
75320.0
21
-21300.0
31
0
0
LINE
8
hvac
10
75280.0
20
-21360.0
30
0
11
75320.0
21
-21360.0
31
0
0
LINE
8
hvac
10
75280.0
20
-21300.0
30
0
11
75320.0
21
-21300.0
31
0
0
LINE
8
hvac
10
75440.0
20
-21360.0
30
0
11
75440.0
21
-21300.0
31
0
0
LINE
8
hvac
10
75480.0
20
-21360.0
30
0
11
75480.0
21
-21300.0
31
0
0
LINE
8
hvac
10
75440.0
20
-21360.0
30
0
11
75480.0
21
-21360.0
31
0
0
LINE
8
hvac
10
75440.0
20
-21300.0
30
0
11
75480.0
21
-21300.0
31
0
0
LINE
8
hvac
10
75600.0
20
-21360.0
30
0
11
75600.0
21
-21300.0
31
0
0
LINE
8
hvac
10
75640.0
20
-21360.0
30
0
11
75640.0
21
-21300.0
31
0
0
LINE
8
hvac
10
75600.0
20
-21360.0
30
0
11
75640.0
21
-21360.0
31
0
0
LINE
8
hvac
10
75600.0
20
-21300.0
30
0
11
75640.0
21
-21300.0
31
0
0
LINE
8
hvac
10
75760.0
20
-21360.0
30
0
11
75760.0
21
-21300.0
31
0
0
LINE
8
hvac
10
75800.0
20
-21360.0
30
0
11
75800.0
21
-21300.0
31
0
0
LINE
8
hvac
10
75760.0
20
-21360.0
30
0
11
75800.0
21
-21360.0
31
0
0
LINE
8
hvac
10
75760.0
20
-21300.0
30
0
11
75800.0
21
-21300.0
31
0
0
LINE
8
hvac
10
75920.0
20
-21360.0
30
0
11
75920.0
21
-21300.0
31
0
0
LINE
8
hvac
10
75960.0
20
-21360.0
30
0
11
75960.0
21
-21300.0
31
0
0
LINE
8
hvac
10
75920.0
20
-21360.0
30
0
11
75960.0
21
-21360.0
31
0
0
LINE
8
hvac
10
75920.0
20
-21300.0
30
0
11
75960.0
21
-21300.0
31
0
0
LINE
8
hvac
10
75075.0
20
-21125.0
30
0
11
75075.0
21
-20675.0
31
0
0
LINE
8
hvac
10
75525.0
20
-21125.0
30
0
11
75525.0
21
-20675.0
31
0
0
LINE
8
hvac
10
75075.0
20
-21125.0
30
0
11
75525.0
21
-21125.0
31
0
0
LINE
8
hvac
10
75075.0
20
-20675.0
30
0
11
75525.0
21
-20675.0
31
0
0
LINE
8
hvac
10
75500.0
20
-18175.0
30
0
11
75500.0
21
-17825.0
31
0
0
LINE
8
hvac
10
82500.0
20
-18175.0
30
0
11
82500.0
21
-17825.0
31
0
0
LINE
8
hvac
10
75500.0
20
-18175.0
30
0
11
82500.0
21
-18175.0
31
0
0
LINE
8
hvac
10
75500.0
20
-17825.0
30
0
11
82500.0
21
-17825.0
31
0
0
LINE
8
hvac
10
75125.0
20
-21075.0
30
0
11
75125.0
21
-20725.0
31
0
0
LINE
8
hvac
10
79175.0
20
-21075.0
30
0
11
79175.0
21
-20725.0
31
0
0
LINE
8
hvac
10
75125.0
20
-21075.0
30
0
11
79175.0
21
-21075.0
31
0
0
LINE
8
hvac
10
75125.0
20
-20725.0
30
0
11
79175.0
21
-20725.0
31
0
0
LINE
8
hvac
10
78825.0
20
-21075.0
30
0
11
78825.0
21
-17825.0
31
0
0
LINE
8
hvac
10
79175.0
20
-21075.0
30
0
11
79175.0
21
-17825.0
31
0
0
LINE
8
hvac
10
78825.0
20
-21075.0
30
0
11
79175.0
21
-21075.0
31
0
0
LINE
8
hvac
10
78825.0
20
-17825.0
30
0
11
79175.0
21
-17825.0
31
0
0
LINE
8
hvac
10
76650.0
20
-18350.0
30
0
11
76650.0
21
-17650.0
31
0
0
LINE
8
hvac
10
77350.0
20
-18350.0
30
0
11
77350.0
21
-17650.0
31
0
0
LINE
8
hvac
10
76650.0
20
-18350.0
30
0
11
77350.0
21
-18350.0
31
0
0
LINE
8
hvac
10
76650.0
20
-17650.0
30
0
11
77350.0
21
-17650.0
31
0
0
LINE
8
hvac
10
80650.0
20
-18350.0
30
0
11
80650.0
21
-17650.0
31
0
0
LINE
8
hvac
10
81350.0
20
-18350.0
30
0
11
81350.0
21
-17650.0
31
0
0
LINE
8
hvac
10
80650.0
20
-18350.0
30
0
11
81350.0
21
-18350.0
31
0
0
LINE
8
hvac
10
80650.0
20
-17650.0
30
0
11
81350.0
21
-17650.0
31
0
0
LINE
8
water
10
82490.0
20
-17120.0
30
0
11
82490.0
21
-16480.0
31
0
0
LINE
8
water
10
83410.0
20
-17120.0
30
0
11
83410.0
21
-16480.0
31
0
0
LINE
8
water
10
82490.0
20
-17120.0
30
0
11
83410.0
21
-17120.0
31
0
0
LINE
8
water
10
82490.0
20
-16480.0
30
0
11
83410.0
21
-16480.0
31
0
0
LINE
8
water
10
82500.0
20
-17110.0
30
0
11
82500.0
21
-16490.0
31
0
0
LINE
8
water
10
82500.0
20
-17110.0
30
0
11
83400.0
21
-17110.0
31
0
0
LINE
8
water
10
82500.0
20
-16490.0
30
0
11
83400.0
21
-16490.0
31
0
0
LINE
8
water
10
83400.0
20
-17110.0
30
0
11
83400.0
21
-16490.0
31
0
0
LINE
8
water
10
83275.0
20
-17015.0
30
0
11
82625.0
21
-17015.0
31
0
0
LINE
8
water
10
83275.0
20
-17015.0
30
0
11
83275.0
21
-16585.0
31
0
0
LINE
8
water
10
83275.0
20
-16585.0
30
0
11
82625.0
21
-16585.0
31
0
0
LINE
8
water
10
82625.0
20
-17015.0
30
0
11
82625.0
21
-16585.0
31
0
0
LINE
8
water
10
82968.0
20
-16580.0
30
0
11
82941.0
21
-16564.41
31
0
0
LINE
8
water
10
82941.0
20
-16564.41
30
0
11
82941.0
21
-16595.59
31
0
0
LINE
8
water
10
82941.0
20
-16595.59
30
0
11
82968.0
21
-16580.0
31
0
0
LINE
8
water
10
82950.0
20
-16800.0
30
0
11
82965.59
21
-16800.0
31
0
0
LINE
8
water
10
82965.59
20
-16800.0
30
0
11
82934.41
21
-16800.0
31
0
0
LINE
8
water
10
82934.41
20
-16800.0
30
0
11
82950.0
21
-16800.0
31
0
0
LINE
8
water
10
82950.0
20
-16580.0
30
0
11
82950.0
21
-16800.0
31
0
0
LINE
8
water
10
82950.0
20
-16580.0
30
0
11
82965.59
21
-16580.0
31
0
0
LINE
8
water
10
82965.59
20
-16580.0
30
0
11
82934.41
21
-16580.0
31
0
0
LINE
8
water
10
82934.41
20
-16580.0
30
0
11
82950.0
21
-16580.0
31
0
0
LINE
8
water
10
82950.0
20
-16580.0
30
0
11
82969.44
21
-16580.0
31
0
0
LINE
8
water
10
82969.44
20
-16580.0
30
0
11
82950.0
21
-16580.0
31
0
0
LINE
8
water
10
76375.0
20
-16825.0
30
0
11
76375.0
21
-15975.0
31
0
0
LINE
8
water
10
77025.0
20
-16825.0
30
0
11
77025.0
21
-15975.0
31
0
0
LINE
8
water
10
76375.0
20
-16825.0
30
0
11
77025.0
21
-16825.0
31
0
0
LINE
8
water
10
76375.0
20
-15975.0
30
0
11
77025.0
21
-15975.0
31
0
0
LINE
8
water
10
76950.0
20
-16400.0
30
0
11
76855.87
21
-16204.54
31
0
0
LINE
8
water
10
76855.87
20
-16204.54
30
0
11
76644.37
21
-16156.27
31
0
0
LINE
8
water
10
76644.37
20
-16156.27
30
0
11
76474.76
21
-16291.53
31
0
0
LINE
8
water
10
76474.76
20
-16291.53
30
0
11
76474.76
21
-16508.47
31
0
0
LINE
8
water
10
76474.76
20
-16508.47
30
0
11
76644.37
21
-16643.73
31
0
0
LINE
8
water
10
76644.37
20
-16643.73
30
0
11
76855.87
21
-16595.46
31
0
0
LINE
8
water
10
76855.87
20
-16595.46
30
0
11
76950.0
21
-16400.0
31
0
0
LINE
8
water
10
76400.0
20
-16050.0
30
0
11
76400.0
21
-15850.0
31
0
0
LINE
8
water
10
77000.0
20
-16050.0
30
0
11
77000.0
21
-15850.0
31
0
0
LINE
8
water
10
76400.0
20
-16050.0
30
0
11
77000.0
21
-16050.0
31
0
0
LINE
8
water
10
76400.0
20
-15850.0
30
0
11
77000.0
21
-15850.0
31
0
0
LINE
8
water
10
82895.0
20
-16800.0
30
0
11
82950.0
21
-16745.0
31
0
0
LINE
8
water
10
82950.0
20
-16745.0
30
0
11
83005.0
21
-16800.0
31
0
0
LINE
8
water
10
83005.0
20
-16800.0
30
0
11
82950.0
21
-16855.0
31
0
0
LINE
8
water
10
82950.0
20
-16855.0
30
0
11
82895.0
21
-16800.0
31
0
0
LINE
8
water
10
82950.0
20
-30500.0
30
0
11
83005.0
21
-30500.0
31
0
0
LINE
8
water
10
83005.0
20
-30500.0
30
0
11
82950.0
21
-30500.0
31
0
0
LINE
8
water
10
82950.0
20
-30500.0
30
0
11
82895.0
21
-30500.0
31
0
0
LINE
8
water
10
82895.0
20
-30500.0
30
0
11
82950.0
21
-30500.0
31
0
0
LINE
8
water
10
82950.0
20
-16800.0
30
0
11
82950.0
21
-30500.0
31
0
0
LINE
8
water
10
82950.0
20
-16800.0
30
0
11
83005.0
21
-16800.0
31
0
0
LINE
8
water
10
83005.0
20
-16800.0
30
0
11
82950.0
21
-16800.0
31
0
0
LINE
8
water
10
82950.0
20
-16800.0
30
0
11
82895.0
21
-16800.0
31
0
0
LINE
8
water
10
82895.0
20
-16800.0
30
0
11
82950.0
21
-16800.0
31
0
0
LINE
8
water
10
-90000.0
20
-30500.0
30
0
11
-90000.0
21
-30555.0
31
0
0
LINE
8
water
10
-90000.0
20
-30555.0
30
0
11
-90000.0
21
-30500.0
31
0
0
LINE
8
water
10
-90000.0
20
-30500.0
30
0
11
-90000.0
21
-30445.0
31
0
0
LINE
8
water
10
-90000.0
20
-30445.0
30
0
11
-90000.0
21
-30500.0
31
0
0
LINE
8
water
10
82950.0
20
-30500.0
30
0
11
-90000.0
21
-30500.0
31
0
0
LINE
8
water
10
82950.0
20
-30500.0
30
0
11
82950.0
21
-30555.0
31
0
0
LINE
8
water
10
82950.0
20
-30555.0
30
0
11
82950.0
21
-30500.0
31
0
0
LINE
8
water
10
82950.0
20
-30500.0
30
0
11
82950.0
21
-30445.0
31
0
0
LINE
8
water
10
82950.0
20
-30445.0
30
0
11
82950.0
21
-30500.0
31
0
0
LINE
8
water
10
82950.0
20
-16800.0
30
0
11
83009.4
21
-16800.0
31
0
0
LINE
8
water
10
83009.4
20
-16800.0
30
0
11
82950.0
21
-16800.0
31
0
0
LINE
8
water
10
82950.0
20
-30500.0
30
0
11
83009.4
21
-30500.0
31
0
0
LINE
8
water
10
83009.4
20
-30500.0
30
0
11
82950.0
21
-30500.0
31
0
0
LINE
8
water
10
81155.0
20
-21600.0
30
0
11
81155.0
21
-21675.0
31
0
0
LINE
8
water
10
81155.0
20
-21675.0
30
0
11
81155.0
21
-21600.0
31
0
0
LINE
8
water
10
81155.0
20
-21600.0
30
0
11
81155.0
21
-21525.0
31
0
0
LINE
8
water
10
81155.0
20
-21525.0
30
0
11
81155.0
21
-21600.0
31
0
0
LINE
8
water
10
80755.0
20
-21600.0
30
0
11
81155.0
21
-21600.0
31
0
0
LINE
8
water
10
80755.0
20
-21600.0
30
0
11
80755.0
21
-21675.0
31
0
0
LINE
8
water
10
80755.0
20
-21675.0
30
0
11
80755.0
21
-21600.0
31
0
0
LINE
8
water
10
80755.0
20
-21600.0
30
0
11
80755.0
21
-21525.0
31
0
0
LINE
8
water
10
80755.0
20
-21525.0
30
0
11
80755.0
21
-21600.0
31
0
0
LINE
8
water
10
81045.0
20
-21600.0
30
0
11
80982.81
21
-21514.4
31
0
0
LINE
8
water
10
80982.81
20
-21514.4
30
0
11
80882.19
21
-21547.1
31
0
0
LINE
8
water
10
80882.19
20
-21547.1
30
0
11
80882.19
21
-21652.9
31
0
0
LINE
8
water
10
80882.19
20
-21652.9
30
0
11
80982.81
21
-21685.6
31
0
0
LINE
8
water
10
80982.81
20
-21685.6
30
0
11
81045.0
21
-21600.0
31
0
0
LINE
8
water
10
80765.0
20
-21625.0
30
0
11
80765.0
21
-21575.0
31
0
0
LINE
8
water
10
81145.0
20
-21625.0
30
0
11
81145.0
21
-21575.0
31
0
0
LINE
8
water
10
80765.0
20
-21625.0
30
0
11
81145.0
21
-21625.0
31
0
0
LINE
8
water
10
80765.0
20
-21575.0
30
0
11
81145.0
21
-21575.0
31
0
0
LINE
8
water
10
80830.0
20
-21600.0
30
0
11
80830.0
21
-21704.62
31
0
0
LINE
8
water
10
80830.0
20
-21704.62
30
0
11
80830.0
21
-21664.66
31
0
0
LINE
8
water
10
80830.0
20
-21664.66
30
0
11
80830.0
21
-21535.34
31
0
0
LINE
8
water
10
80830.0
20
-21535.34
30
0
11
80830.0
21
-21495.38
31
0
0
LINE
8
water
10
80830.0
20
-21495.38
30
0
11
80830.0
21
-21600.0
31
0
0
LINE
8
water
10
80805.0
20
-21600.0
30
0
11
80830.0
21
-21600.0
31
0
0
LINE
8
water
10
80805.0
20
-21600.0
30
0
11
80805.0
21
-21704.62
31
0
0
LINE
8
water
10
80805.0
20
-21704.62
30
0
11
80805.0
21
-21664.66
31
0
0
LINE
8
water
10
80805.0
20
-21664.66
30
0
11
80805.0
21
-21535.34
31
0
0
LINE
8
water
10
80805.0
20
-21535.34
30
0
11
80805.0
21
-21495.38
31
0
0
LINE
8
water
10
80805.0
20
-21495.38
30
0
11
80805.0
21
-21600.0
31
0
0
LINE
8
water
10
81130.0
20
-21600.0
30
0
11
81130.0
21
-21704.62
31
0
0
LINE
8
water
10
81130.0
20
-21704.62
30
0
11
81130.0
21
-21664.66
31
0
0
LINE
8
water
10
81130.0
20
-21664.66
30
0
11
81130.0
21
-21535.34
31
0
0
LINE
8
water
10
81130.0
20
-21535.34
30
0
11
81130.0
21
-21495.38
31
0
0
LINE
8
water
10
81130.0
20
-21495.38
30
0
11
81130.0
21
-21600.0
31
0
0
LINE
8
water
10
81105.0
20
-21600.0
30
0
11
81130.0
21
-21600.0
31
0
0
LINE
8
water
10
81105.0
20
-21600.0
30
0
11
81105.0
21
-21704.62
31
0
0
LINE
8
water
10
81105.0
20
-21704.62
30
0
11
81105.0
21
-21664.66
31
0
0
LINE
8
water
10
81105.0
20
-21664.66
30
0
11
81105.0
21
-21535.34
31
0
0
LINE
8
water
10
81105.0
20
-21535.34
30
0
11
81105.0
21
-21495.38
31
0
0
LINE
8
water
10
81105.0
20
-21495.38
30
0
11
81105.0
21
-21600.0
31
0
0
LINE
8
water
10
80100.0
20
-21600.0
30
0
11
80130.31
21
-21600.0
31
0
0
LINE
8
water
10
80130.31
20
-21600.0
30
0
11
80069.69
21
-21600.0
31
0
0
LINE
8
water
10
80069.69
20
-21600.0
30
0
11
80100.0
21
-21600.0
31
0
0
LINE
8
water
10
80100.0
20
-33000.0
30
0
11
80100.0
21
-21600.0
31
0
0
LINE
8
water
10
80100.0
20
-33000.0
30
0
11
80130.31
21
-33000.0
31
0
0
LINE
8
water
10
80130.31
20
-33000.0
30
0
11
80069.69
21
-33000.0
31
0
0
LINE
8
water
10
80069.69
20
-33000.0
30
0
11
80100.0
21
-33000.0
31
0
0
LINE
8
water
10
82950.0
20
-21600.0
30
0
11
82950.0
21
-21630.31
31
0
0
LINE
8
water
10
82950.0
20
-21630.31
30
0
11
82950.0
21
-21569.69
31
0
0
LINE
8
water
10
82950.0
20
-21569.69
30
0
11
82950.0
21
-21600.0
31
0
0
LINE
8
water
10
80100.0
20
-21600.0
30
0
11
82950.0
21
-21600.0
31
0
0
LINE
8
water
10
80100.0
20
-21600.0
30
0
11
80100.0
21
-21630.31
31
0
0
LINE
8
water
10
80100.0
20
-21630.31
30
0
11
80100.0
21
-21569.69
31
0
0
LINE
8
water
10
80100.0
20
-21569.69
30
0
11
80100.0
21
-21600.0
31
0
0
LINE
8
water
10
82950.0
20
-16570.0
30
0
11
82980.31
21
-16570.0
31
0
0
LINE
8
water
10
82980.31
20
-16570.0
30
0
11
82919.69
21
-16570.0
31
0
0
LINE
8
water
10
82919.69
20
-16570.0
30
0
11
82950.0
21
-16570.0
31
0
0
LINE
8
water
10
82950.0
20
-21600.0
30
0
11
82950.0
21
-16570.0
31
0
0
LINE
8
water
10
82950.0
20
-21600.0
30
0
11
82980.31
21
-21600.0
31
0
0
LINE
8
water
10
82980.31
20
-21600.0
30
0
11
82919.69
21
-21600.0
31
0
0
LINE
8
water
10
82919.69
20
-21600.0
30
0
11
82950.0
21
-21600.0
31
0
0
LINE
8
water
10
82915.0
20
-16570.0
30
0
11
82967.5
21
-16539.69
31
0
0
LINE
8
water
10
82967.5
20
-16539.69
30
0
11
82967.5
21
-16600.31
31
0
0
LINE
8
water
10
82967.5
20
-16600.31
30
0
11
82915.0
21
-16570.0
31
0
0
LINE
8
water
10
80100.0
20
-21600.0
30
0
11
80137.8
21
-21600.0
31
0
0
LINE
8
water
10
80137.8
20
-21600.0
30
0
11
80100.0
21
-21600.0
31
0
0
LINE
8
water
10
82950.0
20
-21600.0
30
0
11
82987.8
21
-21600.0
31
0
0
LINE
8
water
10
82987.8
20
-21600.0
30
0
11
82950.0
21
-21600.0
31
0
0
LINE
8
water
10
82950.0
20
-16570.0
30
0
11
82987.8
21
-16570.0
31
0
0
LINE
8
water
10
82987.8
20
-16570.0
30
0
11
82950.0
21
-16570.0
31
0
0
LINE
8
water
10
81364.0
20
-21600.0
30
0
11
81364.0
21
-21675.0
31
0
0
LINE
8
water
10
81364.0
20
-21675.0
30
0
11
81364.0
21
-21600.0
31
0
0
LINE
8
water
10
81364.0
20
-21600.0
30
0
11
81364.0
21
-21525.0
31
0
0
LINE
8
water
10
81364.0
20
-21525.0
30
0
11
81364.0
21
-21600.0
31
0
0
LINE
8
water
10
80964.0
20
-21600.0
30
0
11
81364.0
21
-21600.0
31
0
0
LINE
8
water
10
80964.0
20
-21600.0
30
0
11
80964.0
21
-21675.0
31
0
0
LINE
8
water
10
80964.0
20
-21675.0
30
0
11
80964.0
21
-21600.0
31
0
0
LINE
8
water
10
80964.0
20
-21600.0
30
0
11
80964.0
21
-21525.0
31
0
0
LINE
8
water
10
80964.0
20
-21525.0
30
0
11
80964.0
21
-21600.0
31
0
0
LINE
8
water
10
81254.0
20
-21600.0
30
0
11
81191.81
21
-21514.4
31
0
0
LINE
8
water
10
81191.81
20
-21514.4
30
0
11
81091.19
21
-21547.1
31
0
0
LINE
8
water
10
81091.19
20
-21547.1
30
0
11
81091.19
21
-21652.9
31
0
0
LINE
8
water
10
81091.19
20
-21652.9
30
0
11
81191.81
21
-21685.6
31
0
0
LINE
8
water
10
81191.81
20
-21685.6
30
0
11
81254.0
21
-21600.0
31
0
0
LINE
8
water
10
80974.0
20
-21625.0
30
0
11
80974.0
21
-21575.0
31
0
0
LINE
8
water
10
81354.0
20
-21625.0
30
0
11
81354.0
21
-21575.0
31
0
0
LINE
8
water
10
80974.0
20
-21625.0
30
0
11
81354.0
21
-21625.0
31
0
0
LINE
8
water
10
80974.0
20
-21575.0
30
0
11
81354.0
21
-21575.0
31
0
0
LINE
8
water
10
81039.0
20
-21600.0
30
0
11
81039.0
21
-21704.62
31
0
0
LINE
8
water
10
81039.0
20
-21704.62
30
0
11
81039.0
21
-21664.66
31
0
0
LINE
8
water
10
81039.0
20
-21664.66
30
0
11
81039.0
21
-21535.34
31
0
0
LINE
8
water
10
81039.0
20
-21535.34
30
0
11
81039.0
21
-21495.38
31
0
0
LINE
8
water
10
81039.0
20
-21495.38
30
0
11
81039.0
21
-21600.0
31
0
0
LINE
8
water
10
81014.0
20
-21600.0
30
0
11
81039.0
21
-21600.0
31
0
0
LINE
8
water
10
81014.0
20
-21600.0
30
0
11
81014.0
21
-21704.62
31
0
0
LINE
8
water
10
81014.0
20
-21704.62
30
0
11
81014.0
21
-21664.66
31
0
0
LINE
8
water
10
81014.0
20
-21664.66
30
0
11
81014.0
21
-21535.34
31
0
0
LINE
8
water
10
81014.0
20
-21535.34
30
0
11
81014.0
21
-21495.38
31
0
0
LINE
8
water
10
81014.0
20
-21495.38
30
0
11
81014.0
21
-21600.0
31
0
0
LINE
8
water
10
81339.0
20
-21600.0
30
0
11
81339.0
21
-21704.62
31
0
0
LINE
8
water
10
81339.0
20
-21704.62
30
0
11
81339.0
21
-21664.66
31
0
0
LINE
8
water
10
81339.0
20
-21664.66
30
0
11
81339.0
21
-21535.34
31
0
0
LINE
8
water
10
81339.0
20
-21535.34
30
0
11
81339.0
21
-21495.38
31
0
0
LINE
8
water
10
81339.0
20
-21495.38
30
0
11
81339.0
21
-21600.0
31
0
0
LINE
8
water
10
81314.0
20
-21600.0
30
0
11
81339.0
21
-21600.0
31
0
0
LINE
8
water
10
81314.0
20
-21600.0
30
0
11
81314.0
21
-21704.62
31
0
0
LINE
8
water
10
81314.0
20
-21704.62
30
0
11
81314.0
21
-21664.66
31
0
0
LINE
8
water
10
81314.0
20
-21664.66
30
0
11
81314.0
21
-21535.34
31
0
0
LINE
8
water
10
81314.0
20
-21535.34
30
0
11
81314.0
21
-21495.38
31
0
0
LINE
8
water
10
81314.0
20
-21495.38
30
0
11
81314.0
21
-21600.0
31
0
0
LINE
8
water
10
80450.0
20
-21600.0
30
0
11
80480.31
21
-21600.0
31
0
0
LINE
8
water
10
80480.31
20
-21600.0
30
0
11
80419.69
21
-21600.0
31
0
0
LINE
8
water
10
80419.69
20
-21600.0
30
0
11
80450.0
21
-21600.0
31
0
0
LINE
8
water
10
80450.0
20
-32000.0
30
0
11
80450.0
21
-21600.0
31
0
0
LINE
8
water
10
80450.0
20
-32000.0
30
0
11
80480.31
21
-32000.0
31
0
0
LINE
8
water
10
80480.31
20
-32000.0
30
0
11
80419.69
21
-32000.0
31
0
0
LINE
8
water
10
80419.69
20
-32000.0
30
0
11
80450.0
21
-32000.0
31
0
0
LINE
8
water
10
82830.0
20
-21600.0
30
0
11
82830.0
21
-21630.31
31
0
0
LINE
8
water
10
82830.0
20
-21630.31
30
0
11
82830.0
21
-21569.69
31
0
0
LINE
8
water
10
82830.0
20
-21569.69
30
0
11
82830.0
21
-21600.0
31
0
0
LINE
8
water
10
80450.0
20
-21600.0
30
0
11
82830.0
21
-21600.0
31
0
0
LINE
8
water
10
80450.0
20
-21600.0
30
0
11
80450.0
21
-21630.31
31
0
0
LINE
8
water
10
80450.0
20
-21630.31
30
0
11
80450.0
21
-21569.69
31
0
0
LINE
8
water
10
80450.0
20
-21569.69
30
0
11
80450.0
21
-21600.0
31
0
0
LINE
8
water
10
82830.0
20
-16570.0
30
0
11
82860.31
21
-16570.0
31
0
0
LINE
8
water
10
82860.31
20
-16570.0
30
0
11
82799.69
21
-16570.0
31
0
0
LINE
8
water
10
82799.69
20
-16570.0
30
0
11
82830.0
21
-16570.0
31
0
0
LINE
8
water
10
82830.0
20
-21600.0
30
0
11
82830.0
21
-16570.0
31
0
0
LINE
8
water
10
82830.0
20
-21600.0
30
0
11
82860.31
21
-21600.0
31
0
0
LINE
8
water
10
82860.31
20
-21600.0
30
0
11
82799.69
21
-21600.0
31
0
0
LINE
8
water
10
82799.69
20
-21600.0
30
0
11
82830.0
21
-21600.0
31
0
0
LINE
8
water
10
82795.0
20
-16570.0
30
0
11
82847.5
21
-16539.69
31
0
0
LINE
8
water
10
82847.5
20
-16539.69
30
0
11
82847.5
21
-16600.31
31
0
0
LINE
8
water
10
82847.5
20
-16600.31
30
0
11
82795.0
21
-16570.0
31
0
0
LINE
8
water
10
80450.0
20
-21600.0
30
0
11
80487.8
21
-21600.0
31
0
0
LINE
8
water
10
80487.8
20
-21600.0
30
0
11
80450.0
21
-21600.0
31
0
0
LINE
8
water
10
82830.0
20
-21600.0
30
0
11
82867.8
21
-21600.0
31
0
0
LINE
8
water
10
82867.8
20
-21600.0
30
0
11
82830.0
21
-21600.0
31
0
0
LINE
8
water
10
82830.0
20
-16570.0
30
0
11
82867.8
21
-16570.0
31
0
0
LINE
8
water
10
82867.8
20
-16570.0
30
0
11
82830.0
21
-16570.0
31
0
0
LINE
8
sensors
10
74040.0
20
-20320.0
30
0
11
74040.0
21
-20160.0
31
0
0
LINE
8
sensors
10
74140.0
20
-20320.0
30
0
11
74140.0
21
-20160.0
31
0
0
LINE
8
sensors
10
74040.0
20
-20320.0
30
0
11
74140.0
21
-20320.0
31
0
0
LINE
8
sensors
10
74040.0
20
-20160.0
30
0
11
74140.0
21
-20160.0
31
0
0
LINE
8
sensors
10
74145.0
20
-20295.0
30
0
11
74145.0
21
-20185.0
31
0
0
LINE
8
sensors
10
74165.0
20
-20295.0
30
0
11
74165.0
21
-20185.0
31
0
0
LINE
8
sensors
10
74145.0
20
-20295.0
30
0
11
74165.0
21
-20295.0
31
0
0
LINE
8
sensors
10
74145.0
20
-20185.0
30
0
11
74165.0
21
-20185.0
31
0
0
LINE
8
sensors
10
74040.0
20
-20020.0
30
0
11
74040.0
21
-19860.0
31
0
0
LINE
8
sensors
10
74140.0
20
-20020.0
30
0
11
74140.0
21
-19860.0
31
0
0
LINE
8
sensors
10
74040.0
20
-20020.0
30
0
11
74140.0
21
-20020.0
31
0
0
LINE
8
sensors
10
74040.0
20
-19860.0
30
0
11
74140.0
21
-19860.0
31
0
0
LINE
8
sensors
10
74145.0
20
-19995.0
30
0
11
74145.0
21
-19885.0
31
0
0
LINE
8
sensors
10
74165.0
20
-19995.0
30
0
11
74165.0
21
-19885.0
31
0
0
LINE
8
sensors
10
74145.0
20
-19995.0
30
0
11
74165.0
21
-19995.0
31
0
0
LINE
8
sensors
10
74145.0
20
-19885.0
30
0
11
74165.0
21
-19885.0
31
0
0
LINE
8
sensors
10
74040.0
20
-19720.0
30
0
11
74040.0
21
-19560.0
31
0
0
LINE
8
sensors
10
74140.0
20
-19720.0
30
0
11
74140.0
21
-19560.0
31
0
0
LINE
8
sensors
10
74040.0
20
-19720.0
30
0
11
74140.0
21
-19720.0
31
0
0
LINE
8
sensors
10
74040.0
20
-19560.0
30
0
11
74140.0
21
-19560.0
31
0
0
LINE
8
sensors
10
74145.0
20
-19695.0
30
0
11
74145.0
21
-19585.0
31
0
0
LINE
8
sensors
10
74165.0
20
-19695.0
30
0
11
74165.0
21
-19585.0
31
0
0
LINE
8
sensors
10
74145.0
20
-19695.0
30
0
11
74165.0
21
-19695.0
31
0
0
LINE
8
sensors
10
74145.0
20
-19585.0
30
0
11
74165.0
21
-19585.0
31
0
0
LINE
8
sensors
10
79080.0
20
-18000.0
30
0
11
79000.0
21
-17920.0
31
0
0
LINE
8
sensors
10
79000.0
20
-17920.0
30
0
11
78920.0
21
-18000.0
31
0
0
LINE
8
sensors
10
78920.0
20
-18000.0
30
0
11
79000.0
21
-18080.0
31
0
0
LINE
8
sensors
10
79000.0
20
-18080.0
30
0
11
79080.0
21
-18000.0
31
0
0
LINE
8
sensors
10
79000.0
20
-18000.0
30
0
11
79065.0
21
-18000.0
31
0
0
LINE
8
sensors
10
79065.0
20
-18000.0
30
0
11
79000.0
21
-18000.0
31
0
0
LINE
8
sensors
10
74040.0
20
-19120.0
30
0
11
74040.0
21
-18960.0
31
0
0
LINE
8
sensors
10
74140.0
20
-19120.0
30
0
11
74140.0
21
-18960.0
31
0
0
LINE
8
sensors
10
74040.0
20
-19120.0
30
0
11
74140.0
21
-19120.0
31
0
0
LINE
8
sensors
10
74040.0
20
-18960.0
30
0
11
74140.0
21
-18960.0
31
0
0
LINE
8
sensors
10
74145.0
20
-19095.0
30
0
11
74145.0
21
-18985.0
31
0
0
LINE
8
sensors
10
74165.0
20
-19095.0
30
0
11
74165.0
21
-18985.0
31
0
0
LINE
8
sensors
10
74145.0
20
-19095.0
30
0
11
74165.0
21
-19095.0
31
0
0
LINE
8
sensors
10
74145.0
20
-18985.0
30
0
11
74165.0
21
-18985.0
31
0
0
LINE
8
sensors
10
82062.5
20
-21600.0
30
0
11
82062.5
21
-21675.0
31
0
0
LINE
8
sensors
10
82062.5
20
-21675.0
30
0
11
82062.5
21
-21600.0
31
0
0
LINE
8
sensors
10
82062.5
20
-21600.0
30
0
11
82062.5
21
-21525.0
31
0
0
LINE
8
sensors
10
82062.5
20
-21525.0
30
0
11
82062.5
21
-21600.0
31
0
0
LINE
8
sensors
10
81842.5
20
-21600.0
30
0
11
82062.5
21
-21600.0
31
0
0
LINE
8
sensors
10
81842.5
20
-21600.0
30
0
11
81842.5
21
-21675.0
31
0
0
LINE
8
sensors
10
81842.5
20
-21675.0
30
0
11
81842.5
21
-21600.0
31
0
0
LINE
8
sensors
10
81842.5
20
-21600.0
30
0
11
81842.5
21
-21525.0
31
0
0
LINE
8
sensors
10
81842.5
20
-21525.0
30
0
11
81842.5
21
-21600.0
31
0
0
LINE
8
sensors
10
81872.5
20
-21670.0
30
0
11
81872.5
21
-21530.0
31
0
0
LINE
8
sensors
10
82032.5
20
-21670.0
30
0
11
82032.5
21
-21530.0
31
0
0
LINE
8
sensors
10
81872.5
20
-21670.0
30
0
11
82032.5
21
-21670.0
31
0
0
LINE
8
sensors
10
81872.5
20
-21530.0
30
0
11
82032.5
21
-21530.0
31
0
0
LINE
8
sensors
10
82107.0
20
-21600.0
30
0
11
82107.0
21
-21675.0
31
0
0
LINE
8
sensors
10
82107.0
20
-21675.0
30
0
11
82107.0
21
-21600.0
31
0
0
LINE
8
sensors
10
82107.0
20
-21600.0
30
0
11
82107.0
21
-21525.0
31
0
0
LINE
8
sensors
10
82107.0
20
-21525.0
30
0
11
82107.0
21
-21600.0
31
0
0
LINE
8
sensors
10
81887.0
20
-21600.0
30
0
11
82107.0
21
-21600.0
31
0
0
LINE
8
sensors
10
81887.0
20
-21600.0
30
0
11
81887.0
21
-21675.0
31
0
0
LINE
8
sensors
10
81887.0
20
-21675.0
30
0
11
81887.0
21
-21600.0
31
0
0
LINE
8
sensors
10
81887.0
20
-21600.0
30
0
11
81887.0
21
-21525.0
31
0
0
LINE
8
sensors
10
81887.0
20
-21525.0
30
0
11
81887.0
21
-21600.0
31
0
0
LINE
8
sensors
10
81917.0
20
-21670.0
30
0
11
81917.0
21
-21530.0
31
0
0
LINE
8
sensors
10
82077.0
20
-21670.0
30
0
11
82077.0
21
-21530.0
31
0
0
LINE
8
sensors
10
81917.0
20
-21670.0
30
0
11
82077.0
21
-21670.0
31
0
0
LINE
8
sensors
10
81917.0
20
-21530.0
30
0
11
82077.0
21
-21530.0
31
0
0
ENDSEC
0
EOF
