0
SECTION
2
HEADER
9
$ACADVER
1
AC1015
9
$INSUNITS
70
4
0
ENDSEC
0
SECTION
2
ENTITIES
0
LINE
8
interiors
10
-84000.0
20
-14000.0
30
0
11
-84000.0
21
-2000.0
31
0
0
LINE
8
interiors
10
-84000.0
20
-14000.0
30
0
11
-80200.0
21
-14000.0
31
0
0
LINE
8
interiors
10
-80200.0
20
-14000.0
30
0
11
-77800.0
21
-14000.0
31
0
0
LINE
8
interiors
10
-77800.0
20
-14000.0
30
0
11
-74000.0
21
-14000.0
31
0
0
LINE
8
interiors
10
-84000.0
20
-14000.0
30
0
11
-74000.0
21
-14000.0
31
0
0
LINE
8
interiors
10
-84000.0
20
-2000.0
30
0
11
-74000.0
21
-2000.0
31
0
0
LINE
8
interiors
10
-74000.0
20
-14000.0
30
0
11
-74000.0
21
-2000.0
31
0
0
LINE
8
interiors
10
-74120.0
20
-13880.0
30
0
11
-83880.0
21
-13880.0
31
0
0
LINE
8
interiors
10
-74120.0
20
-13880.0
30
0
11
-74120.0
21
-2120.0
31
0
0
LINE
8
interiors
10
-74120.0
20
-2120.0
30
0
11
-83880.0
21
-2120.0
31
0
0
LINE
8
interiors
10
-83880.0
20
-13880.0
30
0
11
-83880.0
21
-2120.0
31
0
0
LINE
8
interiors
10
-81600.0
20
-2000.0
30
0
11
-76400.0
21
-2000.0
31
0
0
LINE
8
interiors
10
-77800.0
20
-14000.0
30
0
11
-77800.0
21
-13880.0
31
0
0
LINE
8
interiors
10
-74120.0
20
-13880.0
30
0
11
-77800.0
21
-13880.0
31
0
0
LINE
8
interiors
10
-80200.0
20
-13880.0
30
0
11
-83880.0
21
-13880.0
31
0
0
LINE
8
interiors
10
-80200.0
20
-14000.0
30
0
11
-80200.0
21
-13880.0
31
0
0
LINE
8
interiors
10
-80200.0
20
-13880.0
30
0
11
-77800.0
21
-13880.0
31
0
0
LINE
8
interiors
10
-81600.0
20
-2120.0
30
0
11
-76400.0
21
-2120.0
31
0
0
LINE
8
interiors
10
-81600.0
20
-2120.0
30
0
11
-81600.0
21
-2000.0
31
0
0
LINE
8
interiors
10
-76400.0
20
-2120.0
30
0
11
-76400.0
21
-2000.0
31
0
0
LINE
8
interiors
10
-81600.0
20
-2022.5
30
0
11
-81600.0
21
-1977.5
31
0
0
LINE
8
interiors
10
-76400.0
20
-2022.5
30
0
11
-76400.0
21
-1977.5
31
0
0
LINE
8
interiors
10
-81600.0
20
-2022.5
30
0
11
-76400.0
21
-2022.5
31
0
0
LINE
8
interiors
10
-81600.0
20
-1977.5
30
0
11
-76400.0
21
-1977.5
31
0
0
LINE
8
interiors
10
-83875.0
20
-13875.0
30
0
11
-83875.0
21
-2125.0
31
0
0
LINE
8
interiors
10
-74125.0
20
-13875.0
30
0
11
-74125.0
21
-2125.0
31
0
0
LINE
8
interiors
10
-83875.0
20
-13875.0
30
0
11
-74125.0
21
-13875.0
31
0
0
LINE
8
interiors
10
-83875.0
20
-2125.0
30
0
11
-74125.0
21
-2125.0
31
0
0
LINE
8
interiors
10
-80155.0
20
-14120.0
30
0
11
-80155.0
21
-13880.0
31
0
0
LINE
8
interiors
10
-80085.0
20
-14120.0
30
0
11
-80085.0
21
-13880.0
31
0
0
LINE
8
interiors
10
-80155.0
20
-14120.0
30
0
11
-80085.0
21
-14120.0
31
0
0
LINE
8
interiors
10
-80155.0
20
-13880.0
30
0
11
-80085.0
21
-13880.0
31
0
0
LINE
8
interiors
10
-77915.0
20
-14120.0
30
0
11
-77915.0
21
-13880.0
31
0
0
LINE
8
interiors
10
-77845.0
20
-14120.0
30
0
11
-77845.0
21
-13880.0
31
0
0
LINE
8
interiors
10
-77915.0
20
-14120.0
30
0
11
-77845.0
21
-14120.0
31
0
0
LINE
8
interiors
10
-77915.0
20
-13880.0
30
0
11
-77845.0
21
-13880.0
31
0
0
LINE
8
interiors
10
-80150.0
20
-14120.0
30
0
11
-80150.0
21
-13880.0
31
0
0
LINE
8
interiors
10
-77850.0
20
-14120.0
30
0
11
-77850.0
21
-13880.0
31
0
0
LINE
8
interiors
10
-80150.0
20
-14120.0
30
0
11
-77850.0
21
-14120.0
31
0
0
LINE
8
interiors
10
-80150.0
20
-13880.0
30
0
11
-77850.0
21
-13880.0
31
0
0
LINE
8
interiors
10
-80069.61
20
-13909.51
30
0
11
-80110.39
21
-13890.49
31
0
0
LINE
8
interiors
10
-79613.18
20
-12930.7
30
0
11
-79653.96
21
-12911.68
31
0
0
LINE
8
interiors
10
-80069.61
20
-13909.51
30
0
11
-79613.18
21
-12930.7
31
0
0
LINE
8
interiors
10
-80110.39
20
-13890.49
30
0
11
-79653.96
21
-12911.68
31
0
0
LINE
8
interiors
10
-81000.0
20
-8700.0
30
0
11
-81000.0
21
-7300.0
31
0
0
LINE
8
interiors
10
-77000.0
20
-8700.0
30
0
11
-77000.0
21
-7300.0
31
0
0
LINE
8
interiors
10
-81000.0
20
-8700.0
30
0
11
-77000.0
21
-8700.0
31
0
0
LINE
8
interiors
10
-81000.0
20
-7300.0
30
0
11
-77000.0
21
-7300.0
31
0
0
LINE
8
interiors
10
-80935.0
20
-8635.0
30
0
11
-80935.0
21
-8565.0
31
0
0
LINE
8
interiors
10
-80865.0
20
-8635.0
30
0
11
-80865.0
21
-8565.0
31
0
0
LINE
8
interiors
10
-80935.0
20
-8635.0
30
0
11
-80865.0
21
-8635.0
31
0
0
LINE
8
interiors
10
-80935.0
20
-8565.0
30
0
11
-80865.0
21
-8565.0
31
0
0
LINE
8
interiors
10
-80935.0
20
-7435.0
30
0
11
-80935.0
21
-7365.0
31
0
0
LINE
8
interiors
10
-80865.0
20
-7435.0
30
0
11
-80865.0
21
-7365.0
31
0
0
LINE
8
interiors
10
-80935.0
20
-7435.0
30
0
11
-80865.0
21
-7435.0
31
0
0
LINE
8
interiors
10
-80935.0
20
-7365.0
30
0
11
-80865.0
21
-7365.0
31
0
0
LINE
8
interiors
10
-77135.0
20
-8635.0
30
0
11
-77135.0
21
-8565.0
31
0
0
LINE
8
interiors
10
-77065.0
20
-8635.0
30
0
11
-77065.0
21
-8565.0
31
0
0
LINE
8
interiors
10
-77135.0
20
-8635.0
30
0
11
-77065.0
21
-8635.0
31
0
0
LINE
8
interiors
10
-77135.0
20
-8565.0
30
0
11
-77065.0
21
-8565.0
31
0
0
LINE
8
interiors
10
-77135.0
20
-7435.0
30
0
11
-77135.0
21
-7365.0
31
0
0
LINE
8
interiors
10
-77065.0
20
-7435.0
30
0
11
-77065.0
21
-7365.0
31
0
0
LINE
8
interiors
10
-77135.0
20
-7435.0
30
0
11
-77065.0
21
-7435.0
31
0
0
LINE
8
interiors
10
-77135.0
20
-7365.0
30
0
11
-77065.0
21
-7365.0
31
0
0
LINE
8
interiors
10
-80540.0
20
-9290.0
30
0
11
-80540.0
21
-8810.0
31
0
0
LINE
8
interiors
10
-80060.0
20
-9290.0
30
0
11
-80060.0
21
-8810.0
31
0
0
LINE
8
interiors
10
-80540.0
20
-9290.0
30
0
11
-80060.0
21
-9290.0
31
0
0
LINE
8
interiors
10
-80540.0
20
-8810.0
30
0
11
-80060.0
21
-8810.0
31
0
0
LINE
8
interiors
10
-80540.0
20
-8872.5
30
0
11
-80540.0
21
-8807.5
31
0
0
LINE
8
interiors
10
-80060.0
20
-8872.5
30
0
11
-80060.0
21
-8807.5
31
0
0
LINE
8
interiors
10
-80540.0
20
-8872.5
30
0
11
-80060.0
21
-8872.5
31
0
0
LINE
8
interiors
10
-80540.0
20
-8807.5
30
0
11
-80060.0
21
-8807.5
31
0
0
LINE
8
interiors
10
-80507.5
20
-9257.5
30
0
11
-80507.5
21
-9222.5
31
0
0
LINE
8
interiors
10
-80472.5
20
-9257.5
30
0
11
-80472.5
21
-9222.5
31
0
0
LINE
8
interiors
10
-80507.5
20
-9257.5
30
0
11
-80472.5
21
-9257.5
31
0
0
LINE
8
interiors
10
-80507.5
20
-9222.5
30
0
11
-80472.5
21
-9222.5
31
0
0
LINE
8
interiors
10
-80507.5
20
-8877.5
30
0
11
-80507.5
21
-8842.5
31
0
0
LINE
8
interiors
10
-80472.5
20
-8877.5
30
0
11
-80472.5
21
-8842.5
31
0
0
LINE
8
interiors
10
-80507.5
20
-8877.5
30
0
11
-80472.5
21
-8877.5
31
0
0
LINE
8
interiors
10
-80507.5
20
-8842.5
30
0
11
-80472.5
21
-8842.5
31
0
0
LINE
8
interiors
10
-80127.5
20
-9257.5
30
0
11
-80127.5
21
-9222.5
31
0
0
LINE
8
interiors
10
-80092.5
20
-9257.5
30
0
11
-80092.5
21
-9222.5
31
0
0
LINE
8
interiors
10
-80127.5
20
-9257.5
30
0
11
-80092.5
21
-9257.5
31
0
0
LINE
8
interiors
10
-80127.5
20
-9222.5
30
0
11
-80092.5
21
-9222.5
31
0
0
LINE
8
interiors
10
-80127.5
20
-8877.5
30
0
11
-80127.5
21
-8842.5
31
0
0
LINE
8
interiors
10
-80092.5
20
-8877.5
30
0
11
-80092.5
21
-8842.5
31
0
0
LINE
8
interiors
10
-80127.5
20
-8877.5
30
0
11
-80092.5
21
-8877.5
31
0
0
LINE
8
interiors
10
-80127.5
20
-8842.5
30
0
11
-80092.5
21
-8842.5
31
0
0
LINE
8
interiors
10
-80540.0
20
-7190.0
30
0
11
-80540.0
21
-6710.0
31
0
0
LINE
8
interiors
10
-80060.0
20
-7190.0
30
0
11
-80060.0
21
-6710.0
31
0
0
LINE
8
interiors
10
-80540.0
20
-7190.0
30
0
11
-80060.0
21
-7190.0
31
0
0
LINE
8
interiors
10
-80540.0
20
-6710.0
30
0
11
-80060.0
21
-6710.0
31
0
0
LINE
8
interiors
10
-80540.0
20
-6772.5
30
0
11
-80540.0
21
-6707.5
31
0
0
LINE
8
interiors
10
-80060.0
20
-6772.5
30
0
11
-80060.0
21
-6707.5
31
0
0
LINE
8
interiors
10
-80540.0
20
-6772.5
30
0
11
-80060.0
21
-6772.5
31
0
0
LINE
8
interiors
10
-80540.0
20
-6707.5
30
0
11
-80060.0
21
-6707.5
31
0
0
LINE
8
interiors
10
-80507.5
20
-7157.5
30
0
11
-80507.5
21
-7122.5
31
0
0
LINE
8
interiors
10
-80472.5
20
-7157.5
30
0
11
-80472.5
21
-7122.5
31
0
0
LINE
8
interiors
10
-80507.5
20
-7157.5
30
0
11
-80472.5
21
-7157.5
31
0
0
LINE
8
interiors
10
-80507.5
20
-7122.5
30
0
11
-80472.5
21
-7122.5
31
0
0
LINE
8
interiors
10
-80507.5
20
-6777.5
30
0
11
-80507.5
21
-6742.5
31
0
0
LINE
8
interiors
10
-80472.5
20
-6777.5
30
0
11
-80472.5
21
-6742.5
31
0
0
LINE
8
interiors
10
-80507.5
20
-6777.5
30
0
11
-80472.5
21
-6777.5
31
0
0
LINE
8
interiors
10
-80507.5
20
-6742.5
30
0
11
-80472.5
21
-6742.5
31
0
0
LINE
8
interiors
10
-80127.5
20
-7157.5
30
0
11
-80127.5
21
-7122.5
31
0
0
LINE
8
interiors
10
-80092.5
20
-7157.5
30
0
11
-80092.5
21
-7122.5
31
0
0
LINE
8
interiors
10
-80127.5
20
-7157.5
30
0
11
-80092.5
21
-7157.5
31
0
0
LINE
8
interiors
10
-80127.5
20
-7122.5
30
0
11
-80092.5
21
-7122.5
31
0
0
LINE
8
interiors
10
-80127.5
20
-6777.5
30
0
11
-80127.5
21
-6742.5
31
0
0
LINE
8
interiors
10
-80092.5
20
-6777.5
30
0
11
-80092.5
21
-6742.5
31
0
0
LINE
8
interiors
10
-80127.5
20
-6777.5
30
0
11
-80092.5
21
-6777.5
31
0
0
LINE
8
interiors
10
-80127.5
20
-6742.5
30
0
11
-80092.5
21
-6742.5
31
0
0
LINE
8
interiors
10
-79240.0
20
-9290.0
30
0
11
-79240.0
21
-8810.0
31
0
0
LINE
8
interiors
10
-78760.0
20
-9290.0
30
0
11
-78760.0
21
-8810.0
31
0
0
LINE
8
interiors
10
-79240.0
20
-9290.0
30
0
11
-78760.0
21
-9290.0
31
0
0
LINE
8
interiors
10
-79240.0
20
-8810.0
30
0
11
-78760.0
21
-8810.0
31
0
0
LINE
8
interiors
10
-79240.0
20
-8872.5
30
0
11
-79240.0
21
-8807.5
31
0
0
LINE
8
interiors
10
-78760.0
20
-8872.5
30
0
11
-78760.0
21
-8807.5
31
0
0
LINE
8
interiors
10
-79240.0
20
-8872.5
30
0
11
-78760.0
21
-8872.5
31
0
0
LINE
8
interiors
10
-79240.0
20
-8807.5
30
0
11
-78760.0
21
-8807.5
31
0
0
LINE
8
interiors
10
-79207.5
20
-9257.5
30
0
11
-79207.5
21
-9222.5
31
0
0
LINE
8
interiors
10
-79172.5
20
-9257.5
30
0
11
-79172.5
21
-9222.5
31
0
0
LINE
8
interiors
10
-79207.5
20
-9257.5
30
0
11
-79172.5
21
-9257.5
31
0
0
LINE
8
interiors
10
-79207.5
20
-9222.5
30
0
11
-79172.5
21
-9222.5
31
0
0
LINE
8
interiors
10
-79207.5
20
-8877.5
30
0
11
-79207.5
21
-8842.5
31
0
0
LINE
8
interiors
10
-79172.5
20
-8877.5
30
0
11
-79172.5
21
-8842.5
31
0
0
LINE
8
interiors
10
-79207.5
20
-8877.5
30
0
11
-79172.5
21
-8877.5
31
0
0
LINE
8
interiors
10
-79207.5
20
-8842.5
30
0
11
-79172.5
21
-8842.5
31
0
0
LINE
8
interiors
10
-78827.5
20
-9257.5
30
0
11
-78827.5
21
-9222.5
31
0
0
LINE
8
interiors
10
-78792.5
20
-9257.5
30
0
11
-78792.5
21
-9222.5
31
0
0
LINE
8
interiors
10
-78827.5
20
-9257.5
30
0
11
-78792.5
21
-9257.5
31
0
0
LINE
8
interiors
10
-78827.5
20
-9222.5
30
0
11
-78792.5
21
-9222.5
31
0
0
LINE
8
interiors
10
-78827.5
20
-8877.5
30
0
11
-78827.5
21
-8842.5
31
0
0
LINE
8
interiors
10
-78792.5
20
-8877.5
30
0
11
-78792.5
21
-8842.5
31
0
0
LINE
8
interiors
10
-78827.5
20
-8877.5
30
0
11
-78792.5
21
-8877.5
31
0
0
LINE
8
interiors
10
-78827.5
20
-8842.5
30
0
11
-78792.5
21
-8842.5
31
0
0
LINE
8
interiors
10
-79240.0
20
-7190.0
30
0
11
-79240.0
21
-6710.0
31
0
0
LINE
8
interiors
10
-78760.0
20
-7190.0
30
0
11
-78760.0
21
-6710.0
31
0
0
LINE
8
interiors
10
-79240.0
20
-7190.0
30
0
11
-78760.0
21
-7190.0
31
0
0
LINE
8
interiors
10
-79240.0
20
-6710.0
30
0
11
-78760.0
21
-6710.0
31
0
0
LINE
8
interiors
10
-79240.0
20
-6772.5
30
0
11
-79240.0
21
-6707.5
31
0
0
LINE
8
interiors
10
-78760.0
20
-6772.5
30
0
11
-78760.0
21
-6707.5
31
0
0
LINE
8
interiors
10
-79240.0
20
-6772.5
30
0
11
-78760.0
21
-6772.5
31
0
0
LINE
8
interiors
10
-79240.0
20
-6707.5
30
0
11
-78760.0
21
-6707.5
31
0
0
LINE
8
interiors
10
-79207.5
20
-7157.5
30
0
11
-79207.5
21
-7122.5
31
0
0
LINE
8
interiors
10
-79172.5
20
-7157.5
30
0
11
-79172.5
21
-7122.5
31
0
0
LINE
8
interiors
10
-79207.5
20
-7157.5
30
0
11
-79172.5
21
-7157.5
31
0
0
LINE
8
interiors
10
-79207.5
20
-7122.5
30
0
11
-79172.5
21
-7122.5
31
0
0
LINE
8
interiors
10
-79207.5
20
-6777.5
30
0
11
-79207.5
21
-6742.5
31
0
0
LINE
8
interiors
10
-79172.5
20
-6777.5
30
0
11
-79172.5
21
-6742.5
31
0
0
LINE
8
interiors
10
-79207.5
20
-6777.5
30
0
11
-79172.5
21
-6777.5
31
0
0
LINE
8
interiors
10
-79207.5
20
-6742.5
30
0
11
-79172.5
21
-6742.5
31
0
0
LINE
8
interiors
10
-78827.5
20
-7157.5
30
0
11
-78827.5
21
-7122.5
31
0
0
LINE
8
interiors
10
-78792.5
20
-7157.5
30
0
11
-78792.5
21
-7122.5
31
0
0
LINE
8
interiors
10
-78827.5
20
-7157.5
30
0
11
-78792.5
21
-7157.5
31
0
0
LINE
8
interiors
10
-78827.5
20
-7122.5
30
0
11
-78792.5
21
-7122.5
31
0
0
LINE
8
interiors
10
-78827.5
20
-6777.5
30
0
11
-78827.5
21
-6742.5
31
0
0
LINE
8
interiors
10
-78792.5
20
-6777.5
30
0
11
-78792.5
21
-6742.5
31
0
0
LINE
8
interiors
10
-78827.5
20
-6777.5
30
0
11
-78792.5
21
-6777.5
31
0
0
LINE
8
interiors
10
-78827.5
20
-6742.5
30
0
11
-78792.5
21
-6742.5
31
0
0
LINE
8
interiors
10
-77940.0
20
-9290.0
30
0
11
-77940.0
21
-8810.0
31
0
0
LINE
8
interiors
10
-77460.0
20
-9290.0
30
0
11
-77460.0
21
-8810.0
31
0
0
LINE
8
interiors
10
-77940.0
20
-9290.0
30
0
11
-77460.0
21
-9290.0
31
0
0
LINE
8
interiors
10
-77940.0
20
-8810.0
30
0
11
-77460.0
21
-8810.0
31
0
0
LINE
8
interiors
10
-77940.0
20
-8872.5
30
0
11
-77940.0
21
-8807.5
31
0
0
LINE
8
interiors
10
-77460.0
20
-8872.5
30
0
11
-77460.0
21
-8807.5
31
0
0
LINE
8
interiors
10
-77940.0
20
-8872.5
30
0
11
-77460.0
21
-8872.5
31
0
0
LINE
8
interiors
10
-77940.0
20
-8807.5
30
0
11
-77460.0
21
-8807.5
31
0
0
LINE
8
interiors
10
-77907.5
20
-9257.5
30
0
11
-77907.5
21
-9222.5
31
0
0
LINE
8
interiors
10
-77872.5
20
-9257.5
30
0
11
-77872.5
21
-9222.5
31
0
0
LINE
8
interiors
10
-77907.5
20
-9257.5
30
0
11
-77872.5
21
-9257.5
31
0
0
LINE
8
interiors
10
-77907.5
20
-9222.5
30
0
11
-77872.5
21
-9222.5
31
0
0
LINE
8
interiors
10
-77907.5
20
-8877.5
30
0
11
-77907.5
21
-8842.5
31
0
0
LINE
8
interiors
10
-77872.5
20
-8877.5
30
0
11
-77872.5
21
-8842.5
31
0
0
LINE
8
interiors
10
-77907.5
20
-8877.5
30
0
11
-77872.5
21
-8877.5
31
0
0
LINE
8
interiors
10
-77907.5
20
-8842.5
30
0
11
-77872.5
21
-8842.5
31
0
0
LINE
8
interiors
10
-77527.5
20
-9257.5
30
0
11
-77527.5
21
-9222.5
31
0
0
LINE
8
interiors
10
-77492.5
20
-9257.5
30
0
11
-77492.5
21
-9222.5
31
0
0
LINE
8
interiors
10
-77527.5
20
-9257.5
30
0
11
-77492.5
21
-9257.5
31
0
0
LINE
8
interiors
10
-77527.5
20
-9222.5
30
0
11
-77492.5
21
-9222.5
31
0
0
LINE
8
interiors
10
-77527.5
20
-8877.5
30
0
11
-77527.5
21
-8842.5
31
0
0
LINE
8
interiors
10
-77492.5
20
-8877.5
30
0
11
-77492.5
21
-8842.5
31
0
0
LINE
8
interiors
10
-77527.5
20
-8877.5
30
0
11
-77492.5
21
-8877.5
31
0
0
LINE
8
interiors
10
-77527.5
20
-8842.5
30
0
11
-77492.5
21
-8842.5
31
0
0
LINE
8
interiors
10
-77940.0
20
-7190.0
30
0
11
-77940.0
21
-6710.0
31
0
0
LINE
8
interiors
10
-77460.0
20
-7190.0
30
0
11
-77460.0
21
-6710.0
31
0
0
LINE
8
interiors
10
-77940.0
20
-7190.0
30
0
11
-77460.0
21
-7190.0
31
0
0
LINE
8
interiors
10
-77940.0
20
-6710.0
30
0
11
-77460.0
21
-6710.0
31
0
0
LINE
8
interiors
10
-77940.0
20
-6772.5
30
0
11
-77940.0
21
-6707.5
31
0
0
LINE
8
interiors
10
-77460.0
20
-6772.5
30
0
11
-77460.0
21
-6707.5
31
0
0
LINE
8
interiors
10
-77940.0
20
-6772.5
30
0
11
-77460.0
21
-6772.5
31
0
0
LINE
8
interiors
10
-77940.0
20
-6707.5
30
0
11
-77460.0
21
-6707.5
31
0
0
LINE
8
interiors
10
-77907.5
20
-7157.5
30
0
11
-77907.5
21
-7122.5
31
0
0
LINE
8
interiors
10
-77872.5
20
-7157.5
30
0
11
-77872.5
21
-7122.5
31
0
0
LINE
8
interiors
10
-77907.5
20
-7157.5
30
0
11
-77872.5
21
-7157.5
31
0
0
LINE
8
interiors
10
-77907.5
20
-7122.5
30
0
11
-77872.5
21
-7122.5
31
0
0
LINE
8
interiors
10
-77907.5
20
-6777.5
30
0
11
-77907.5
21
-6742.5
31
0
0
LINE
8
interiors
10
-77872.5
20
-6777.5
30
0
11
-77872.5
21
-6742.5
31
0
0
LINE
8
interiors
10
-77907.5
20
-6777.5
30
0
11
-77872.5
21
-6777.5
31
0
0
LINE
8
interiors
10
-77907.5
20
-6742.5
30
0
11
-77872.5
21
-6742.5
31
0
0
LINE
8
interiors
10
-77527.5
20
-7157.5
30
0
11
-77527.5
21
-7122.5
31
0
0
LINE
8
interiors
10
-77492.5
20
-7157.5
30
0
11
-77492.5
21
-7122.5
31
0
0
LINE
8
interiors
10
-77527.5
20
-7157.5
30
0
11
-77492.5
21
-7157.5
31
0
0
LINE
8
interiors
10
-77527.5
20
-7122.5
30
0
11
-77492.5
21
-7122.5
31
0
0
LINE
8
interiors
10
-77527.5
20
-6777.5
30
0
11
-77527.5
21
-6742.5
31
0
0
LINE
8
interiors
10
-77492.5
20
-6777.5
30
0
11
-77492.5
21
-6742.5
31
0
0
LINE
8
interiors
10
-77527.5
20
-6777.5
30
0
11
-77492.5
21
-6777.5
31
0
0
LINE
8
interiors
10
-77527.5
20
-6742.5
30
0
11
-77492.5
21
-6742.5
31
0
0
LINE
8
interiors
10
-80050.0
20
-2280.0
30
0
11
-80050.0
21
-2220.0
31
0
0
LINE
8
interiors
10
-77950.0
20
-2280.0
30
0
11
-77950.0
21
-2220.0
31
0
0
LINE
8
interiors
10
-80050.0
20
-2280.0
30
0
11
-77950.0
21
-2280.0
31
0
0
LINE
8
interiors
10
-80050.0
20
-2220.0
30
0
11
-77950.0
21
-2220.0
31
0
0
LINE
8
interiors
10
-79030.0
20
-2285.0
30
0
11
-79030.0
21
-2215.0
31
0
0
LINE
8
interiors
10
-78970.0
20
-2285.0
30
0
11
-78970.0
21
-2215.0
31
0
0
LINE
8
interiors
10
-79030.0
20
-2285.0
30
0
11
-78970.0
21
-2285.0
31
0
0
LINE
8
interiors
10
-79030.0
20
-2215.0
30
0
11
-78970.0
21
-2215.0
31
0
0
LINE
8
interiors
10
-79150.0
20
-2360.0
30
0
11
-79150.0
21
-2140.0
31
0
0
LINE
8
interiors
10
-78850.0
20
-2360.0
30
0
11
-78850.0
21
-2140.0
31
0
0
LINE
8
interiors
10
-79150.0
20
-2360.0
30
0
11
-78850.0
21
-2360.0
31
0
0
LINE
8
interiors
10
-79150.0
20
-2140.0
30
0
11
-78850.0
21
-2140.0
31
0
0
LINE
8
electrical
10
-74725.0
20
-13925.0
30
0
11
-74725.0
21
-13675.0
31
0
0
LINE
8
electrical
10
-74175.0
20
-13925.0
30
0
11
-74175.0
21
-13675.0
31
0
0
LINE
8
electrical
10
-74725.0
20
-13925.0
30
0
11
-74175.0
21
-13925.0
31
0
0
LINE
8
electrical
10
-74725.0
20
-13675.0
30
0
11
-74175.0
21
-13675.0
31
0
0
LINE
8
electrical
10
-74685.0
20
-13952.5
30
0
11
-74685.0
21
-13917.5
31
0
0
LINE
8
electrical
10
-74215.0
20
-13952.5
30
0
11
-74215.0
21
-13917.5
31
0
0
LINE
8
electrical
10
-74685.0
20
-13952.5
30
0
11
-74215.0
21
-13952.5
31
0
0
LINE
8
electrical
10
-74685.0
20
-13917.5
30
0
11
-74215.0
21
-13917.5
31
0
0
LINE
8
electrical
10
-74637.5
20
-13990.0
30
0
11
-74637.5
21
-13950.0
31
0
0
LINE
8
electrical
10
-74537.5
20
-13990.0
30
0
11
-74537.5
21
-13950.0
31
0
0
LINE
8
electrical
10
-74637.5
20
-13990.0
30
0
11
-74537.5
21
-13990.0
31
0
0
LINE
8
electrical
10
-74637.5
20
-13950.0
30
0
11
-74537.5
21
-13950.0
31
0
0
LINE
8
electrical
10
-74500.0
20
-13990.0
30
0
11
-74500.0
21
-13950.0
31
0
0
LINE
8
electrical
10
-74400.0
20
-13990.0
30
0
11
-74400.0
21
-13950.0
31
0
0
LINE
8
electrical
10
-74500.0
20
-13990.0
30
0
11
-74400.0
21
-13990.0
31
0
0
LINE
8
electrical
10
-74500.0
20
-13950.0
30
0
11
-74400.0
21
-13950.0
31
0
0
LINE
8
electrical
10
-74362.5
20
-13990.0
30
0
11
-74362.5
21
-13950.0
31
0
0
LINE
8
electrical
10
-74262.5
20
-13990.0
30
0
11
-74262.5
21
-13950.0
31
0
0
LINE
8
electrical
10
-74362.5
20
-13990.0
30
0
11
-74262.5
21
-13990.0
31
0
0
LINE
8
electrical
10
-74362.5
20
-13950.0
30
0
11
-74262.5
21
-13950.0
31
0
0
LINE
8
electrical
10
-74587.5
20
-14005.0
30
0
11
-74564.12
21
-14005.0
31
0
0
LINE
8
electrical
10
-74564.12
20
-14005.0
30
0
11
-74610.88
21
-14005.0
31
0
0
LINE
8
electrical
10
-74610.88
20
-14005.0
30
0
11
-74587.5
21
-14005.0
31
0
0
LINE
8
electrical
10
-74587.5
20
-13980.0
30
0
11
-74587.5
21
-14005.0
31
0
0
LINE
8
electrical
10
-74587.5
20
-13980.0
30
0
11
-74564.12
21
-13980.0
31
0
0
LINE
8
electrical
10
-74564.12
20
-13980.0
30
0
11
-74610.88
21
-13980.0
31
0
0
LINE
8
electrical
10
-74610.88
20
-13980.0
30
0
11
-74587.5
21
-13980.0
31
0
0
LINE
8
electrical
10
-74450.0
20
-14005.0
30
0
11
-74426.62
21
-14005.0
31
0
0
LINE
8
electrical
10
-74426.62
20
-14005.0
30
0
11
-74473.38
21
-14005.0
31
0
0
LINE
8
electrical
10
-74473.38
20
-14005.0
30
0
11
-74450.0
21
-14005.0
31
0
0
LINE
8
electrical
10
-74450.0
20
-13980.0
30
0
11
-74450.0
21
-14005.0
31
0
0
LINE
8
electrical
10
-74450.0
20
-13980.0
30
0
11
-74426.62
21
-13980.0
31
0
0
LINE
8
electrical
10
-74426.62
20
-13980.0
30
0
11
-74473.38
21
-13980.0
31
0
0
LINE
8
electrical
10
-74473.38
20
-13980.0
30
0
11
-74450.0
21
-13980.0
31
0
0
LINE
8
electrical
10
-74312.5
20
-14005.0
30
0
11
-74289.12
21
-14005.0
31
0
0
LINE
8
electrical
10
-74289.12
20
-14005.0
30
0
11
-74335.88
21
-14005.0
31
0
0
LINE
8
electrical
10
-74335.88
20
-14005.0
30
0
11
-74312.5
21
-14005.0
31
0
0
LINE
8
electrical
10
-74312.5
20
-13980.0
30
0
11
-74312.5
21
-14005.0
31
0
0
LINE
8
electrical
10
-74312.5
20
-13980.0
30
0
11
-74289.12
21
-13980.0
31
0
0
LINE
8
electrical
10
-74289.12
20
-13980.0
30
0
11
-74335.88
21
-13980.0
31
0
0
LINE
8
electrical
10
-74335.88
20
-13980.0
30
0
11
-74312.5
21
-13980.0
31
0
0
LINE
8
electrical
10
-74450.0
20
-13800.0
30
0
11
-74434.41
21
-13800.0
31
0
0
LINE
8
electrical
10
-74434.41
20
-13800.0
30
0
11
-74465.59
21
-13800.0
31
0
0
LINE
8
electrical
10
-74465.59
20
-13800.0
30
0
11
-74450.0
21
-13800.0
31
0
0
LINE
8
electrical
10
-74450.0
20
-34800.0
30
0
11
-74450.0
21
-13800.0
31
0
0
LINE
8
electrical
10
-74450.0
20
-34800.0
30
0
11
-74434.41
21
-34800.0
31
0
0
LINE
8
electrical
10
-74434.41
20
-34800.0
30
0
11
-74465.59
21
-34800.0
31
0
0
LINE
8
electrical
10
-74465.59
20
-34800.0
30
0
11
-74450.0
21
-34800.0
31
0
0
LINE
8
electrical
10
-74468.0
20
-13800.0
30
0
11
-74441.0
21
-13784.41
31
0
0
LINE
8
electrical
10
-74441.0
20
-13784.41
30
0
11
-74441.0
21
-13815.59
31
0
0
LINE
8
electrical
10
-74441.0
20
-13815.59
30
0
11
-74468.0
21
-13800.0
31
0
0
LINE
8
electrical
10
-74450.0
20
-13800.0
30
0
11
-74430.56
21
-13800.0
31
0
0
LINE
8
electrical
10
-74430.56
20
-13800.0
30
0
11
-74450.0
21
-13800.0
31
0
0
LINE
8
lighting
10
-82920.0
20
-12400.0
30
0
11
-82920.0
21
-11760.0
31
0
0
LINE
8
lighting
10
-82280.0
20
-12400.0
30
0
11
-82280.0
21
-11760.0
31
0
0
LINE
8
lighting
10
-82920.0
20
-12400.0
30
0
11
-82280.0
21
-12400.0
31
0
0
LINE
8
lighting
10
-82920.0
20
-11760.0
30
0
11
-82280.0
21
-11760.0
31
0
0
LINE
8
lighting
10
-82880.0
20
-12360.0
30
0
11
-82880.0
21
-11800.0
31
0
0
LINE
8
lighting
10
-82320.0
20
-12360.0
30
0
11
-82320.0
21
-11800.0
31
0
0
LINE
8
lighting
10
-82880.0
20
-12360.0
30
0
11
-82320.0
21
-12360.0
31
0
0
LINE
8
lighting
10
-82880.0
20
-11800.0
30
0
11
-82320.0
21
-11800.0
31
0
0
LINE
8
lighting
10
-82846.0
20
-12350.0
30
0
11
-82846.0
21
-11810.0
31
0
0
LINE
8
lighting
10
-82834.0
20
-12350.0
30
0
11
-82834.0
21
-11810.0
31
0
0
LINE
8
lighting
10
-82846.0
20
-12350.0
30
0
11
-82834.0
21
-12350.0
31
0
0
LINE
8
lighting
10
-82846.0
20
-11810.0
30
0
11
-82834.0
21
-11810.0
31
0
0
LINE
8
lighting
10
-82766.0
20
-12350.0
30
0
11
-82766.0
21
-11810.0
31
0
0
LINE
8
lighting
10
-82754.0
20
-12350.0
30
0
11
-82754.0
21
-11810.0
31
0
0
LINE
8
lighting
10
-82766.0
20
-12350.0
30
0
11
-82754.0
21
-12350.0
31
0
0
LINE
8
lighting
10
-82766.0
20
-11810.0
30
0
11
-82754.0
21
-11810.0
31
0
0
LINE
8
lighting
10
-82686.0
20
-12350.0
30
0
11
-82686.0
21
-11810.0
31
0
0
LINE
8
lighting
10
-82674.0
20
-12350.0
30
0
11
-82674.0
21
-11810.0
31
0
0
LINE
8
lighting
10
-82686.0
20
-12350.0
30
0
11
-82674.0
21
-12350.0
31
0
0
LINE
8
lighting
10
-82686.0
20
-11810.0
30
0
11
-82674.0
21
-11810.0
31
0
0
LINE
8
lighting
10
-82606.0
20
-12350.0
30
0
11
-82606.0
21
-11810.0
31
0
0
LINE
8
lighting
10
-82594.0
20
-12350.0
30
0
11
-82594.0
21
-11810.0
31
0
0
LINE
8
lighting
10
-82606.0
20
-12350.0
30
0
11
-82594.0
21
-12350.0
31
0
0
LINE
8
lighting
10
-82606.0
20
-11810.0
30
0
11
-82594.0
21
-11810.0
31
0
0
LINE
8
lighting
10
-82526.0
20
-12350.0
30
0
11
-82526.0
21
-11810.0
31
0
0
LINE
8
lighting
10
-82514.0
20
-12350.0
30
0
11
-82514.0
21
-11810.0
31
0
0
LINE
8
lighting
10
-82526.0
20
-12350.0
30
0
11
-82514.0
21
-12350.0
31
0
0
LINE
8
lighting
10
-82526.0
20
-11810.0
30
0
11
-82514.0
21
-11810.0
31
0
0
LINE
8
lighting
10
-82446.0
20
-12350.0
30
0
11
-82446.0
21
-11810.0
31
0
0
LINE
8
lighting
10
-82434.0
20
-12350.0
30
0
11
-82434.0
21
-11810.0
31
0
0
LINE
8
lighting
10
-82446.0
20
-12350.0
30
0
11
-82434.0
21
-12350.0
31
0
0
LINE
8
lighting
10
-82446.0
20
-11810.0
30
0
11
-82434.0
21
-11810.0
31
0
0
LINE
8
lighting
10
-82366.0
20
-12350.0
30
0
11
-82366.0
21
-11810.0
31
0
0
LINE
8
lighting
10
-82354.0
20
-12350.0
30
0
11
-82354.0
21
-11810.0
31
0
0
LINE
8
lighting
10
-82366.0
20
-12350.0
30
0
11
-82354.0
21
-12350.0
31
0
0
LINE
8
lighting
10
-82366.0
20
-11810.0
30
0
11
-82354.0
21
-11810.0
31
0
0
LINE
8
lighting
10
-82591.0
20
-12080.0
30
0
11
-82604.5
21
-12072.21
31
0
0
LINE
8
lighting
10
-82604.5
20
-12072.21
30
0
11
-82604.5
21
-12087.79
31
0
0
LINE
8
lighting
10
-82604.5
20
-12087.79
30
0
11
-82591.0
21
-12080.0
31
0
0
LINE
8
lighting
10
-75720.0
20
-12400.0
30
0
11
-75720.0
21
-11760.0
31
0
0
LINE
8
lighting
10
-75080.0
20
-12400.0
30
0
11
-75080.0
21
-11760.0
31
0
0
LINE
8
lighting
10
-75720.0
20
-12400.0
30
0
11
-75080.0
21
-12400.0
31
0
0
LINE
8
lighting
10
-75720.0
20
-11760.0
30
0
11
-75080.0
21
-11760.0
31
0
0
LINE
8
lighting
10
-75680.0
20
-12360.0
30
0
11
-75680.0
21
-11800.0
31
0
0
LINE
8
lighting
10
-75120.0
20
-12360.0
30
0
11
-75120.0
21
-11800.0
31
0
0
LINE
8
lighting
10
-75680.0
20
-12360.0
30
0
11
-75120.0
21
-12360.0
31
0
0
LINE
8
lighting
10
-75680.0
20
-11800.0
30
0
11
-75120.0
21
-11800.0
31
0
0
LINE
8
lighting
10
-75646.0
20
-12350.0
30
0
11
-75646.0
21
-11810.0
31
0
0
LINE
8
lighting
10
-75634.0
20
-12350.0
30
0
11
-75634.0
21
-11810.0
31
0
0
LINE
8
lighting
10
-75646.0
20
-12350.0
30
0
11
-75634.0
21
-12350.0
31
0
0
LINE
8
lighting
10
-75646.0
20
-11810.0
30
0
11
-75634.0
21
-11810.0
31
0
0
LINE
8
lighting
10
-75566.0
20
-12350.0
30
0
11
-75566.0
21
-11810.0
31
0
0
LINE
8
lighting
10
-75554.0
20
-12350.0
30
0
11
-75554.0
21
-11810.0
31
0
0
LINE
8
lighting
10
-75566.0
20
-12350.0
30
0
11
-75554.0
21
-12350.0
31
0
0
LINE
8
lighting
10
-75566.0
20
-11810.0
30
0
11
-75554.0
21
-11810.0
31
0
0
LINE
8
lighting
10
-75486.0
20
-12350.0
30
0
11
-75486.0
21
-11810.0
31
0
0
LINE
8
lighting
10
-75474.0
20
-12350.0
30
0
11
-75474.0
21
-11810.0
31
0
0
LINE
8
lighting
10
-75486.0
20
-12350.0
30
0
11
-75474.0
21
-12350.0
31
0
0
LINE
8
lighting
10
-75486.0
20
-11810.0
30
0
11
-75474.0
21
-11810.0
31
0
0
LINE
8
lighting
10
-75406.0
20
-12350.0
30
0
11
-75406.0
21
-11810.0
31
0
0
LINE
8
lighting
10
-75394.0
20
-12350.0
30
0
11
-75394.0
21
-11810.0
31
0
0
LINE
8
lighting
10
-75406.0
20
-12350.0
30
0
11
-75394.0
21
-12350.0
31
0
0
LINE
8
lighting
10
-75406.0
20
-11810.0
30
0
11
-75394.0
21
-11810.0
31
0
0
LINE
8
lighting
10
-75326.0
20
-12350.0
30
0
11
-75326.0
21
-11810.0
31
0
0
LINE
8
lighting
10
-75314.0
20
-12350.0
30
0
11
-75314.0
21
-11810.0
31
0
0
LINE
8
lighting
10
-75326.0
20
-12350.0
30
0
11
-75314.0
21
-12350.0
31
0
0
LINE
8
lighting
10
-75326.0
20
-11810.0
30
0
11
-75314.0
21
-11810.0
31
0
0
LINE
8
lighting
10
-75246.0
20
-12350.0
30
0
11
-75246.0
21
-11810.0
31
0
0
LINE
8
lighting
10
-75234.0
20
-12350.0
30
0
11
-75234.0
21
-11810.0
31
0
0
LINE
8
lighting
10
-75246.0
20
-12350.0
30
0
11
-75234.0
21
-12350.0
31
0
0
LINE
8
lighting
10
-75246.0
20
-11810.0
30
0
11
-75234.0
21
-11810.0
31
0
0
LINE
8
lighting
10
-75166.0
20
-12350.0
30
0
11
-75166.0
21
-11810.0
31
0
0
LINE
8
lighting
10
-75154.0
20
-12350.0
30
0
11
-75154.0
21
-11810.0
31
0
0
LINE
8
lighting
10
-75166.0
20
-12350.0
30
0
11
-75154.0
21
-12350.0
31
0
0
LINE
8
lighting
10
-75166.0
20
-11810.0
30
0
11
-75154.0
21
-11810.0
31
0
0
LINE
8
lighting
10
-75391.0
20
-12080.0
30
0
11
-75404.5
21
-12072.21
31
0
0
LINE
8
lighting
10
-75404.5
20
-12072.21
30
0
11
-75404.5
21
-12087.79
31
0
0
LINE
8
lighting
10
-75404.5
20
-12087.79
30
0
11
-75391.0
21
-12080.0
31
0
0
LINE
8
lighting
10
-82920.0
20
-4240.0
30
0
11
-82920.0
21
-3600.0
31
0
0
LINE
8
lighting
10
-82280.0
20
-4240.0
30
0
11
-82280.0
21
-3600.0
31
0
0
LINE
8
lighting
10
-82920.0
20
-4240.0
30
0
11
-82280.0
21
-4240.0
31
0
0
LINE
8
lighting
10
-82920.0
20
-3600.0
30
0
11
-82280.0
21
-3600.0
31
0
0
LINE
8
lighting
10
-82880.0
20
-4200.0
30
0
11
-82880.0
21
-3640.0
31
0
0
LINE
8
lighting
10
-82320.0
20
-4200.0
30
0
11
-82320.0
21
-3640.0
31
0
0
LINE
8
lighting
10
-82880.0
20
-4200.0
30
0
11
-82320.0
21
-4200.0
31
0
0
LINE
8
lighting
10
-82880.0
20
-3640.0
30
0
11
-82320.0
21
-3640.0
31
0
0
LINE
8
lighting
10
-82846.0
20
-4190.0
30
0
11
-82846.0
21
-3650.0
31
0
0
LINE
8
lighting
10
-82834.0
20
-4190.0
30
0
11
-82834.0
21
-3650.0
31
0
0
LINE
8
lighting
10
-82846.0
20
-4190.0
30
0
11
-82834.0
21
-4190.0
31
0
0
LINE
8
lighting
10
-82846.0
20
-3650.0
30
0
11
-82834.0
21
-3650.0
31
0
0
LINE
8
lighting
10
-82766.0
20
-4190.0
30
0
11
-82766.0
21
-3650.0
31
0
0
LINE
8
lighting
10
-82754.0
20
-4190.0
30
0
11
-82754.0
21
-3650.0
31
0
0
LINE
8
lighting
10
-82766.0
20
-4190.0
30
0
11
-82754.0
21
-4190.0
31
0
0
LINE
8
lighting
10
-82766.0
20
-3650.0
30
0
11
-82754.0
21
-3650.0
31
0
0
LINE
8
lighting
10
-82686.0
20
-4190.0
30
0
11
-82686.0
21
-3650.0
31
0
0
LINE
8
lighting
10
-82674.0
20
-4190.0
30
0
11
-82674.0
21
-3650.0
31
0
0
LINE
8
lighting
10
-82686.0
20
-4190.0
30
0
11
-82674.0
21
-4190.0
31
0
0
LINE
8
lighting
10
-82686.0
20
-3650.0
30
0
11
-82674.0
21
-3650.0
31
0
0
LINE
8
lighting
10
-82606.0
20
-4190.0
30
0
11
-82606.0
21
-3650.0
31
0
0
LINE
8
lighting
10
-82594.0
20
-4190.0
30
0
11
-82594.0
21
-3650.0
31
0
0
LINE
8
lighting
10
-82606.0
20
-4190.0
30
0
11
-82594.0
21
-4190.0
31
0
0
LINE
8
lighting
10
-82606.0
20
-3650.0
30
0
11
-82594.0
21
-3650.0
31
0
0
LINE
8
lighting
10
-82526.0
20
-4190.0
30
0
11
-82526.0
21
-3650.0
31
0
0
LINE
8
lighting
10
-82514.0
20
-4190.0
30
0
11
-82514.0
21
-3650.0
31
0
0
LINE
8
lighting
10
-82526.0
20
-4190.0
30
0
11
-82514.0
21
-4190.0
31
0
0
LINE
8
lighting
10
-82526.0
20
-3650.0
30
0
11
-82514.0
21
-3650.0
31
0
0
LINE
8
lighting
10
-82446.0
20
-4190.0
30
0
11
-82446.0
21
-3650.0
31
0
0
LINE
8
lighting
10
-82434.0
20
-4190.0
30
0
11
-82434.0
21
-3650.0
31
0
0
LINE
8
lighting
10
-82446.0
20
-4190.0
30
0
11
-82434.0
21
-4190.0
31
0
0
LINE
8
lighting
10
-82446.0
20
-3650.0
30
0
11
-82434.0
21
-3650.0
31
0
0
LINE
8
lighting
10
-82366.0
20
-4190.0
30
0
11
-82366.0
21
-3650.0
31
0
0
LINE
8
lighting
10
-82354.0
20
-4190.0
30
0
11
-82354.0
21
-3650.0
31
0
0
LINE
8
lighting
10
-82366.0
20
-4190.0
30
0
11
-82354.0
21
-4190.0
31
0
0
LINE
8
lighting
10
-82366.0
20
-3650.0
30
0
11
-82354.0
21
-3650.0
31
0
0
LINE
8
lighting
10
-82591.0
20
-3920.0
30
0
11
-82604.5
21
-3912.21
31
0
0
LINE
8
lighting
10
-82604.5
20
-3912.21
30
0
11
-82604.5
21
-3927.79
31
0
0
LINE
8
lighting
10
-82604.5
20
-3927.79
30
0
11
-82591.0
21
-3920.0
31
0
0
LINE
8
lighting
10
-75720.0
20
-4240.0
30
0
11
-75720.0
21
-3600.0
31
0
0
LINE
8
lighting
10
-75080.0
20
-4240.0
30
0
11
-75080.0
21
-3600.0
31
0
0
LINE
8
lighting
10
-75720.0
20
-4240.0
30
0
11
-75080.0
21
-4240.0
31
0
0
LINE
8
lighting
10
-75720.0
20
-3600.0
30
0
11
-75080.0
21
-3600.0
31
0
0
LINE
8
lighting
10
-75680.0
20
-4200.0
30
0
11
-75680.0
21
-3640.0
31
0
0
LINE
8
lighting
10
-75120.0
20
-4200.0
30
0
11
-75120.0
21
-3640.0
31
0
0
LINE
8
lighting
10
-75680.0
20
-4200.0
30
0
11
-75120.0
21
-4200.0
31
0
0
LINE
8
lighting
10
-75680.0
20
-3640.0
30
0
11
-75120.0
21
-3640.0
31
0
0
LINE
8
lighting
10
-75646.0
20
-4190.0
30
0
11
-75646.0
21
-3650.0
31
0
0
LINE
8
lighting
10
-75634.0
20
-4190.0
30
0
11
-75634.0
21
-3650.0
31
0
0
LINE
8
lighting
10
-75646.0
20
-4190.0
30
0
11
-75634.0
21
-4190.0
31
0
0
LINE
8
lighting
10
-75646.0
20
-3650.0
30
0
11
-75634.0
21
-3650.0
31
0
0
LINE
8
lighting
10
-75566.0
20
-4190.0
30
0
11
-75566.0
21
-3650.0
31
0
0
LINE
8
lighting
10
-75554.0
20
-4190.0
30
0
11
-75554.0
21
-3650.0
31
0
0
LINE
8
lighting
10
-75566.0
20
-4190.0
30
0
11
-75554.0
21
-4190.0
31
0
0
LINE
8
lighting
10
-75566.0
20
-3650.0
30
0
11
-75554.0
21
-3650.0
31
0
0
LINE
8
lighting
10
-75486.0
20
-4190.0
30
0
11
-75486.0
21
-3650.0
31
0
0
LINE
8
lighting
10
-75474.0
20
-4190.0
30
0
11
-75474.0
21
-3650.0
31
0
0
LINE
8
lighting
10
-75486.0
20
-4190.0
30
0
11
-75474.0
21
-4190.0
31
0
0
LINE
8
lighting
10
-75486.0
20
-3650.0
30
0
11
-75474.0
21
-3650.0
31
0
0
LINE
8
lighting
10
-75406.0
20
-4190.0
30
0
11
-75406.0
21
-3650.0
31
0
0
LINE
8
lighting
10
-75394.0
20
-4190.0
30
0
11
-75394.0
21
-3650.0
31
0
0
LINE
8
lighting
10
-75406.0
20
-4190.0
30
0
11
-75394.0
21
-4190.0
31
0
0
LINE
8
lighting
10
-75406.0
20
-3650.0
30
0
11
-75394.0
21
-3650.0
31
0
0
LINE
8
lighting
10
-75326.0
20
-4190.0
30
0
11
-75326.0
21
-3650.0
31
0
0
LINE
8
lighting
10
-75314.0
20
-4190.0
30
0
11
-75314.0
21
-3650.0
31
0
0
LINE
8
lighting
10
-75326.0
20
-4190.0
30
0
11
-75314.0
21
-4190.0
31
0
0
LINE
8
lighting
10
-75326.0
20
-3650.0
30
0
11
-75314.0
21
-3650.0
31
0
0
LINE
8
lighting
10
-75246.0
20
-4190.0
30
0
11
-75246.0
21
-3650.0
31
0
0
LINE
8
lighting
10
-75234.0
20
-4190.0
30
0
11
-75234.0
21
-3650.0
31
0
0
LINE
8
lighting
10
-75246.0
20
-4190.0
30
0
11
-75234.0
21
-4190.0
31
0
0
LINE
8
lighting
10
-75246.0
20
-3650.0
30
0
11
-75234.0
21
-3650.0
31
0
0
LINE
8
lighting
10
-75166.0
20
-4190.0
30
0
11
-75166.0
21
-3650.0
31
0
0
LINE
8
lighting
10
-75154.0
20
-4190.0
30
0
11
-75154.0
21
-3650.0
31
0
0
LINE
8
lighting
10
-75166.0
20
-4190.0
30
0
11
-75154.0
21
-4190.0
31
0
0
LINE
8
lighting
10
-75166.0
20
-3650.0
30
0
11
-75154.0
21
-3650.0
31
0
0
LINE
8
lighting
10
-75391.0
20
-3920.0
30
0
11
-75404.5
21
-3912.21
31
0
0
LINE
8
lighting
10
-75404.5
20
-3912.21
30
0
11
-75404.5
21
-3927.79
31
0
0
LINE
8
lighting
10
-75404.5
20
-3927.79
30
0
11
-75391.0
21
-3920.0
31
0
0
LINE
8
electrical
10
-82600.0
20
-12320.0
30
0
11
-82600.0
21
-12327.79
31
0
0
LINE
8
electrical
10
-82600.0
20
-12327.79
30
0
11
-82600.0
21
-12312.21
31
0
0
LINE
8
electrical
10
-82600.0
20
-12312.21
30
0
11
-82600.0
21
-12320.0
31
0
0
LINE
8
electrical
10
-74450.0
20
-12320.0
30
0
11
-82600.0
21
-12320.0
31
0
0
LINE
8
electrical
10
-74450.0
20
-12320.0
30
0
11
-74450.0
21
-12327.79
31
0
0
LINE
8
electrical
10
-74450.0
20
-12327.79
30
0
11
-74450.0
21
-12312.21
31
0
0
LINE
8
electrical
10
-74450.0
20
-12312.21
30
0
11
-74450.0
21
-12320.0
31
0
0
LINE
8
electrical
10
-82600.0
20
-3920.0
30
0
11
-82592.21
21
-3920.0
31
0
0
LINE
8
electrical
10
-82592.21
20
-3920.0
30
0
11
-82607.79
21
-3920.0
31
0
0
LINE
8
electrical
10
-82607.79
20
-3920.0
30
0
11
-82600.0
21
-3920.0
31
0
0
LINE
8
electrical
10
-82600.0
20
-12320.0
30
0
11
-82600.0
21
-3920.0
31
0
0
LINE
8
electrical
10
-82600.0
20
-12320.0
30
0
11
-82592.21
21
-12320.0
31
0
0
LINE
8
electrical
10
-82592.21
20
-12320.0
30
0
11
-82607.79
21
-12320.0
31
0
0
LINE
8
electrical
10
-82607.79
20
-12320.0
30
0
11
-82600.0
21
-12320.0
31
0
0
LINE
8
electrical
10
-75400.0
20
-3920.0
30
0
11
-75392.21
21
-3920.0
31
0
0
LINE
8
electrical
10
-75392.21
20
-3920.0
30
0
11
-75407.79
21
-3920.0
31
0
0
LINE
8
electrical
10
-75407.79
20
-3920.0
30
0
11
-75400.0
21
-3920.0
31
0
0
LINE
8
electrical
10
-75400.0
20
-12320.0
30
0
11
-75400.0
21
-3920.0
31
0
0
LINE
8
electrical
10
-75400.0
20
-12320.0
30
0
11
-75392.21
21
-12320.0
31
0
0
LINE
8
electrical
10
-75392.21
20
-12320.0
30
0
11
-75407.79
21
-12320.0
31
0
0
LINE
8
electrical
10
-75407.79
20
-12320.0
30
0
11
-75400.0
21
-12320.0
31
0
0
LINE
8
electrical
10
-74437.0
20
-13800.0
30
0
11
-74456.5
21
-13788.74
31
0
0
LINE
8
electrical
10
-74456.5
20
-13788.74
30
0
11
-74456.5
21
-13811.26
31
0
0
LINE
8
electrical
10
-74456.5
20
-13811.26
30
0
11
-74437.0
21
-13800.0
31
0
0
LINE
8
electrical
10
-75489.4
20
-12312.48
30
0
11
-75505.3
21
-12323.76
31
0
0
LINE
8
electrical
10
-75505.3
20
-12323.76
30
0
11
-75505.3
21
-12323.76
31
0
0
LINE
8
electrical
10
-75505.3
20
-12323.76
30
0
11
-75489.4
21
-12312.48
31
0
0
LINE
8
electrical
10
-74439.4
20
-13792.48
30
0
11
-75489.4
21
-12312.48
31
0
0
LINE
8
electrical
10
-74439.4
20
-13792.48
30
0
11
-74455.3
21
-13803.76
31
0
0
LINE
8
electrical
10
-74455.3
20
-13803.76
30
0
11
-74455.3
21
-13803.76
31
0
0
LINE
8
electrical
10
-74455.3
20
-13803.76
30
0
11
-74439.4
21
-13792.48
31
0
0
LINE
8
electrical
10
-82500.0
20
-12320.0
30
0
11
-82500.0
21
-12331.26
31
0
0
LINE
8
electrical
10
-82500.0
20
-12331.26
30
0
11
-82500.0
21
-12308.74
31
0
0
LINE
8
electrical
10
-82500.0
20
-12308.74
30
0
11
-82500.0
21
-12320.0
31
0
0
LINE
8
electrical
10
-75500.0
20
-12320.0
30
0
11
-82500.0
21
-12320.0
31
0
0
LINE
8
electrical
10
-75500.0
20
-12320.0
30
0
11
-75500.0
21
-12331.26
31
0
0
LINE
8
electrical
10
-75500.0
20
-12331.26
30
0
11
-75500.0
21
-12308.74
31
0
0
LINE
8
electrical
10
-75500.0
20
-12308.74
30
0
11
-75500.0
21
-12320.0
31
0
0
LINE
8
electrical
10
-74450.0
20
-13800.0
30
0
11
-74435.96
21
-13800.0
31
0
0
LINE
8
electrical
10
-74435.96
20
-13800.0
30
0
11
-74450.0
21
-13800.0
31
0
0
LINE
8
electrical
10
-75500.0
20
-12320.0
30
0
11
-75485.96
21
-12320.0
31
0
0
LINE
8
electrical
10
-75485.96
20
-12320.0
30
0
11
-75500.0
21
-12320.0
31
0
0
LINE
8
electrical
10
-74437.0
20
-13800.0
30
0
11
-74456.5
21
-13788.74
31
0
0
LINE
8
electrical
10
-74456.5
20
-13788.74
30
0
11
-74456.5
21
-13811.26
31
0
0
LINE
8
electrical
10
-74456.5
20
-13811.26
30
0
11
-74437.0
21
-13800.0
31
0
0
LINE
8
electrical
10
-75489.13
20
-12192.87
30
0
11
-75505.43
21
-12203.57
31
0
0
LINE
8
electrical
10
-75505.43
20
-12203.57
30
0
11
-75505.43
21
-12203.57
31
0
0
LINE
8
electrical
10
-75505.43
20
-12203.57
30
0
11
-75489.13
21
-12192.87
31
0
0
LINE
8
electrical
10
-74439.13
20
-13792.87
30
0
11
-75489.13
21
-12192.87
31
0
0
LINE
8
electrical
10
-74439.13
20
-13792.87
30
0
11
-74455.43
21
-13803.57
31
0
0
LINE
8
electrical
10
-74455.43
20
-13803.57
30
0
11
-74455.43
21
-13803.57
31
0
0
LINE
8
electrical
10
-74455.43
20
-13803.57
30
0
11
-74439.13
21
-13792.87
31
0
0
LINE
8
electrical
10
-82500.0
20
-12200.0
30
0
11
-82500.0
21
-12211.26
31
0
0
LINE
8
electrical
10
-82500.0
20
-12211.26
30
0
11
-82500.0
21
-12188.74
31
0
0
LINE
8
electrical
10
-82500.0
20
-12188.74
30
0
11
-82500.0
21
-12200.0
31
0
0
LINE
8
electrical
10
-75500.0
20
-12200.0
30
0
11
-82500.0
21
-12200.0
31
0
0
LINE
8
electrical
10
-75500.0
20
-12200.0
30
0
11
-75500.0
21
-12211.26
31
0
0
LINE
8
electrical
10
-75500.0
20
-12211.26
30
0
11
-75500.0
21
-12188.74
31
0
0
LINE
8
electrical
10
-75500.0
20
-12188.74
30
0
11
-75500.0
21
-12200.0
31
0
0
LINE
8
electrical
10
-74450.0
20
-13800.0
30
0
11
-74435.96
21
-13800.0
31
0
0
LINE
8
electrical
10
-74435.96
20
-13800.0
30
0
11
-74450.0
21
-13800.0
31
0
0
LINE
8
electrical
10
-75500.0
20
-12200.0
30
0
11
-75485.96
21
-12200.0
31
0
0
LINE
8
electrical
10
-75485.96
20
-12200.0
30
0
11
-75500.0
21
-12200.0
31
0
0
LINE
8
electrical
10
-74437.0
20
-13800.0
30
0
11
-74456.5
21
-13788.74
31
0
0
LINE
8
electrical
10
-74456.5
20
-13788.74
30
0
11
-74456.5
21
-13811.26
31
0
0
LINE
8
electrical
10
-74456.5
20
-13811.26
30
0
11
-74437.0
21
-13800.0
31
0
0
LINE
8
electrical
10
-75488.9
20
-12073.23
30
0
11
-75505.55
21
-12083.39
31
0
0
LINE
8
electrical
10
-75505.55
20
-12083.39
30
0
11
-75505.55
21
-12083.39
31
0
0
LINE
8
electrical
10
-75505.55
20
-12083.39
30
0
11
-75488.9
21
-12073.23
31
0
0
LINE
8
electrical
10
-74438.9
20
-13793.23
30
0
11
-75488.9
21
-12073.23
31
0
0
LINE
8
electrical
10
-74438.9
20
-13793.23
30
0
11
-74455.55
21
-13803.39
31
0
0
LINE
8
electrical
10
-74455.55
20
-13803.39
30
0
11
-74455.55
21
-13803.39
31
0
0
LINE
8
electrical
10
-74455.55
20
-13803.39
30
0
11
-74438.9
21
-13793.23
31
0
0
LINE
8
electrical
10
-82500.0
20
-12080.0
30
0
11
-82500.0
21
-12091.26
31
0
0
LINE
8
electrical
10
-82500.0
20
-12091.26
30
0
11
-82500.0
21
-12068.74
31
0
0
LINE
8
electrical
10
-82500.0
20
-12068.74
30
0
11
-82500.0
21
-12080.0
31
0
0
LINE
8
electrical
10
-75500.0
20
-12080.0
30
0
11
-82500.0
21
-12080.0
31
0
0
LINE
8
electrical
10
-75500.0
20
-12080.0
30
0
11
-75500.0
21
-12091.26
31
0
0
LINE
8
electrical
10
-75500.0
20
-12091.26
30
0
11
-75500.0
21
-12068.74
31
0
0
LINE
8
electrical
10
-75500.0
20
-12068.74
30
0
11
-75500.0
21
-12080.0
31
0
0
LINE
8
electrical
10
-74450.0
20
-13800.0
30
0
11
-74435.96
21
-13800.0
31
0
0
LINE
8
electrical
10
-74435.96
20
-13800.0
30
0
11
-74450.0
21
-13800.0
31
0
0
LINE
8
electrical
10
-75500.0
20
-12080.0
30
0
11
-75485.96
21
-12080.0
31
0
0
LINE
8
electrical
10
-75485.96
20
-12080.0
30
0
11
-75500.0
21
-12080.0
31
0
0
LINE
8
electrical
10
-82065.0
20
-13850.0
30
0
11
-82065.0
21
-13790.0
31
0
0
LINE
8
electrical
10
-81935.0
20
-13850.0
30
0
11
-81935.0
21
-13790.0
31
0
0
LINE
8
electrical
10
-82065.0
20
-13850.0
30
0
11
-81935.0
21
-13850.0
31
0
0
LINE
8
electrical
10
-82065.0
20
-13790.0
30
0
11
-81935.0
21
-13790.0
31
0
0
LINE
8
electrical
10
-81991.0
20
-13820.0
30
0
11
-82004.5
21
-13812.21
31
0
0
LINE
8
electrical
10
-82004.5
20
-13812.21
30
0
11
-82004.5
21
-13827.79
31
0
0
LINE
8
electrical
10
-82004.5
20
-13827.79
30
0
11
-81991.0
21
-13820.0
31
0
0
LINE
8
electrical
10
-74450.0
20
-13820.0
30
0
11
-74450.0
21
-13827.79
31
0
0
LINE
8
electrical
10
-74450.0
20
-13827.79
30
0
11
-74450.0
21
-13812.21
31
0
0
LINE
8
electrical
10
-74450.0
20
-13812.21
30
0
11
-74450.0
21
-13820.0
31
0
0
LINE
8
electrical
10
-82000.0
20
-13820.0
30
0
11
-74450.0
21
-13820.0
31
0
0
LINE
8
electrical
10
-82000.0
20
-13820.0
30
0
11
-82000.0
21
-13827.79
31
0
0
LINE
8
electrical
10
-82000.0
20
-13827.79
30
0
11
-82000.0
21
-13812.21
31
0
0
LINE
8
electrical
10
-82000.0
20
-13812.21
30
0
11
-82000.0
21
-13820.0
31
0
0
LINE
8
electrical
10
-82000.0
20
-13820.0
30
0
11
-81990.28
21
-13820.0
31
0
0
LINE
8
electrical
10
-81990.28
20
-13820.0
30
0
11
-82000.0
21
-13820.0
31
0
0
LINE
8
electrical
10
-76065.0
20
-13850.0
30
0
11
-76065.0
21
-13790.0
31
0
0
LINE
8
electrical
10
-75935.0
20
-13850.0
30
0
11
-75935.0
21
-13790.0
31
0
0
LINE
8
electrical
10
-76065.0
20
-13850.0
30
0
11
-75935.0
21
-13850.0
31
0
0
LINE
8
electrical
10
-76065.0
20
-13790.0
30
0
11
-75935.0
21
-13790.0
31
0
0
LINE
8
electrical
10
-75991.0
20
-13820.0
30
0
11
-76004.5
21
-13812.21
31
0
0
LINE
8
electrical
10
-76004.5
20
-13812.21
30
0
11
-76004.5
21
-13827.79
31
0
0
LINE
8
electrical
10
-76004.5
20
-13827.79
30
0
11
-75991.0
21
-13820.0
31
0
0
LINE
8
electrical
10
-74450.0
20
-13820.0
30
0
11
-74450.0
21
-13827.79
31
0
0
LINE
8
electrical
10
-74450.0
20
-13827.79
30
0
11
-74450.0
21
-13812.21
31
0
0
LINE
8
electrical
10
-74450.0
20
-13812.21
30
0
11
-74450.0
21
-13820.0
31
0
0
LINE
8
electrical
10
-76000.0
20
-13820.0
30
0
11
-74450.0
21
-13820.0
31
0
0
LINE
8
electrical
10
-76000.0
20
-13820.0
30
0
11
-76000.0
21
-13827.79
31
0
0
LINE
8
electrical
10
-76000.0
20
-13827.79
30
0
11
-76000.0
21
-13812.21
31
0
0
LINE
8
electrical
10
-76000.0
20
-13812.21
30
0
11
-76000.0
21
-13820.0
31
0
0
LINE
8
electrical
10
-76000.0
20
-13820.0
30
0
11
-75990.28
21
-13820.0
31
0
0
LINE
8
electrical
10
-75990.28
20
-13820.0
30
0
11
-76000.0
21
-13820.0
31
0
0
LINE
8
hvac
10
-83525.0
20
-13275.0
30
0
11
-83525.0
21
-12525.0
31
0
0
LINE
8
hvac
10
-81875.0
20
-13275.0
30
0
11
-81875.0
21
-12525.0
31
0
0
LINE
8
hvac
10
-83525.0
20
-13275.0
30
0
11
-81875.0
21
-13275.0
31
0
0
LINE
8
hvac
10
-83525.0
20
-12525.0
30
0
11
-81875.0
21
-12525.0
31
0
0
LINE
8
hvac
10
-83425.0
20
-13320.0
30
0
11
-83425.0
21
-13280.0
31
0
0
LINE
8
hvac
10
-81975.0
20
-13320.0
30
0
11
-81975.0
21
-13280.0
31
0
0
LINE
8
hvac
10
-83425.0
20
-13320.0
30
0
11
-81975.0
21
-13320.0
31
0
0
LINE
8
hvac
10
-83425.0
20
-13280.0
30
0
11
-81975.0
21
-13280.0
31
0
0
LINE
8
hvac
10
-83360.0
20
-13360.0
30
0
11
-83360.0
21
-13300.0
31
0
0
LINE
8
hvac
10
-83320.0
20
-13360.0
30
0
11
-83320.0
21
-13300.0
31
0
0
LINE
8
hvac
10
-83360.0
20
-13360.0
30
0
11
-83320.0
21
-13360.0
31
0
0
LINE
8
hvac
10
-83360.0
20
-13300.0
30
0
11
-83320.0
21
-13300.0
31
0
0
LINE
8
hvac
10
-83200.0
20
-13360.0
30
0
11
-83200.0
21
-13300.0
31
0
0
LINE
8
hvac
10
-83160.0
20
-13360.0
30
0
11
-83160.0
21
-13300.0
31
0
0
LINE
8
hvac
10
-83200.0
20
-13360.0
30
0
11
-83160.0
21
-13360.0
31
0
0
LINE
8
hvac
10
-83200.0
20
-13300.0
30
0
11
-83160.0
21
-13300.0
31
0
0
LINE
8
hvac
10
-83040.0
20
-13360.0
30
0
11
-83040.0
21
-13300.0
31
0
0
LINE
8
hvac
10
-83000.0
20
-13360.0
30
0
11
-83000.0
21
-13300.0
31
0
0
LINE
8
hvac
10
-83040.0
20
-13360.0
30
0
11
-83000.0
21
-13360.0
31
0
0
LINE
8
hvac
10
-83040.0
20
-13300.0
30
0
11
-83000.0
21
-13300.0
31
0
0
LINE
8
hvac
10
-82880.0
20
-13360.0
30
0
11
-82880.0
21
-13300.0
31
0
0
LINE
8
hvac
10
-82840.0
20
-13360.0
30
0
11
-82840.0
21
-13300.0
31
0
0
LINE
8
hvac
10
-82880.0
20
-13360.0
30
0
11
-82840.0
21
-13360.0
31
0
0
LINE
8
hvac
10
-82880.0
20
-13300.0
30
0
11
-82840.0
21
-13300.0
31
0
0
LINE
8
hvac
10
-82720.0
20
-13360.0
30
0
11
-82720.0
21
-13300.0
31
0
0
LINE
8
hvac
10
-82680.0
20
-13360.0
30
0
11
-82680.0
21
-13300.0
31
0
0
LINE
8
hvac
10
-82720.0
20
-13360.0
30
0
11
-82680.0
21
-13360.0
31
0
0
LINE
8
hvac
10
-82720.0
20
-13300.0
30
0
11
-82680.0
21
-13300.0
31
0
0
LINE
8
hvac
10
-82560.0
20
-13360.0
30
0
11
-82560.0
21
-13300.0
31
0
0
LINE
8
hvac
10
-82520.0
20
-13360.0
30
0
11
-82520.0
21
-13300.0
31
0
0
LINE
8
hvac
10
-82560.0
20
-13360.0
30
0
11
-82520.0
21
-13360.0
31
0
0
LINE
8
hvac
10
-82560.0
20
-13300.0
30
0
11
-82520.0
21
-13300.0
31
0
0
LINE
8
hvac
10
-82400.0
20
-13360.0
30
0
11
-82400.0
21
-13300.0
31
0
0
LINE
8
hvac
10
-82360.0
20
-13360.0
30
0
11
-82360.0
21
-13300.0
31
0
0
LINE
8
hvac
10
-82400.0
20
-13360.0
30
0
11
-82360.0
21
-13360.0
31
0
0
LINE
8
hvac
10
-82400.0
20
-13300.0
30
0
11
-82360.0
21
-13300.0
31
0
0
LINE
8
hvac
10
-82240.0
20
-13360.0
30
0
11
-82240.0
21
-13300.0
31
0
0
LINE
8
hvac
10
-82200.0
20
-13360.0
30
0
11
-82200.0
21
-13300.0
31
0
0
LINE
8
hvac
10
-82240.0
20
-13360.0
30
0
11
-82200.0
21
-13360.0
31
0
0
LINE
8
hvac
10
-82240.0
20
-13300.0
30
0
11
-82200.0
21
-13300.0
31
0
0
LINE
8
hvac
10
-82080.0
20
-13360.0
30
0
11
-82080.0
21
-13300.0
31
0
0
LINE
8
hvac
10
-82040.0
20
-13360.0
30
0
11
-82040.0
21
-13300.0
31
0
0
LINE
8
hvac
10
-82080.0
20
-13360.0
30
0
11
-82040.0
21
-13360.0
31
0
0
LINE
8
hvac
10
-82080.0
20
-13300.0
30
0
11
-82040.0
21
-13300.0
31
0
0
LINE
8
hvac
10
-82925.0
20
-13125.0
30
0
11
-82925.0
21
-12675.0
31
0
0
LINE
8
hvac
10
-82475.0
20
-13125.0
30
0
11
-82475.0
21
-12675.0
31
0
0
LINE
8
hvac
10
-82925.0
20
-13125.0
30
0
11
-82475.0
21
-13125.0
31
0
0
LINE
8
hvac
10
-82925.0
20
-12675.0
30
0
11
-82475.0
21
-12675.0
31
0
0
LINE
8
hvac
10
-82500.0
20
-8175.0
30
0
11
-82500.0
21
-7825.0
31
0
0
LINE
8
hvac
10
-75500.0
20
-8175.0
30
0
11
-75500.0
21
-7825.0
31
0
0
LINE
8
hvac
10
-82500.0
20
-8175.0
30
0
11
-75500.0
21
-8175.0
31
0
0
LINE
8
hvac
10
-82500.0
20
-7825.0
30
0
11
-75500.0
21
-7825.0
31
0
0
LINE
8
hvac
10
-82875.0
20
-13075.0
30
0
11
-82875.0
21
-12725.0
31
0
0
LINE
8
hvac
10
-78825.0
20
-13075.0
30
0
11
-78825.0
21
-12725.0
31
0
0
LINE
8
hvac
10
-82875.0
20
-13075.0
30
0
11
-78825.0
21
-13075.0
31
0
0
LINE
8
hvac
10
-82875.0
20
-12725.0
30
0
11
-78825.0
21
-12725.0
31
0
0
LINE
8
hvac
10
-79175.0
20
-13075.0
30
0
11
-79175.0
21
-7825.0
31
0
0
LINE
8
hvac
10
-78825.0
20
-13075.0
30
0
11
-78825.0
21
-7825.0
31
0
0
LINE
8
hvac
10
-79175.0
20
-13075.0
30
0
11
-78825.0
21
-13075.0
31
0
0
LINE
8
hvac
10
-79175.0
20
-7825.0
30
0
11
-78825.0
21
-7825.0
31
0
0
LINE
8
hvac
10
-81350.0
20
-8350.0
30
0
11
-81350.0
21
-7650.0
31
0
0
LINE
8
hvac
10
-80650.0
20
-8350.0
30
0
11
-80650.0
21
-7650.0
31
0
0
LINE
8
hvac
10
-81350.0
20
-8350.0
30
0
11
-80650.0
21
-8350.0
31
0
0
LINE
8
hvac
10
-81350.0
20
-7650.0
30
0
11
-80650.0
21
-7650.0
31
0
0
LINE
8
hvac
10
-77350.0
20
-8350.0
30
0
11
-77350.0
21
-7650.0
31
0
0
LINE
8
hvac
10
-76650.0
20
-8350.0
30
0
11
-76650.0
21
-7650.0
31
0
0
LINE
8
hvac
10
-77350.0
20
-8350.0
30
0
11
-76650.0
21
-8350.0
31
0
0
LINE
8
hvac
10
-77350.0
20
-7650.0
30
0
11
-76650.0
21
-7650.0
31
0
0
LINE
8
sensors
10
-83960.0
20
-11440.0
30
0
11
-83960.0
21
-11280.0
31
0
0
LINE
8
sensors
10
-83860.0
20
-11440.0
30
0
11
-83860.0
21
-11280.0
31
0
0
LINE
8
sensors
10
-83960.0
20
-11440.0
30
0
11
-83860.0
21
-11440.0
31
0
0
LINE
8
sensors
10
-83960.0
20
-11280.0
30
0
11
-83860.0
21
-11280.0
31
0
0
LINE
8
sensors
10
-83855.0
20
-11415.0
30
0
11
-83855.0
21
-11305.0
31
0
0
LINE
8
sensors
10
-83835.0
20
-11415.0
30
0
11
-83835.0
21
-11305.0
31
0
0
LINE
8
sensors
10
-83855.0
20
-11415.0
30
0
11
-83835.0
21
-11415.0
31
0
0
LINE
8
sensors
10
-83855.0
20
-11305.0
30
0
11
-83835.0
21
-11305.0
31
0
0
LINE
8
sensors
10
-83960.0
20
-11140.0
30
0
11
-83960.0
21
-10980.0
31
0
0
LINE
8
sensors
10
-83860.0
20
-11140.0
30
0
11
-83860.0
21
-10980.0
31
0
0
LINE
8
sensors
10
-83960.0
20
-11140.0
30
0
11
-83860.0
21
-11140.0
31
0
0
LINE
8
sensors
10
-83960.0
20
-10980.0
30
0
11
-83860.0
21
-10980.0
31
0
0
LINE
8
sensors
10
-83855.0
20
-11115.0
30
0
11
-83855.0
21
-11005.0
31
0
0
LINE
8
sensors
10
-83835.0
20
-11115.0
30
0
11
-83835.0
21
-11005.0
31
0
0
LINE
8
sensors
10
-83855.0
20
-11115.0
30
0
11
-83835.0
21
-11115.0
31
0
0
LINE
8
sensors
10
-83855.0
20
-11005.0
30
0
11
-83835.0
21
-11005.0
31
0
0
LINE
8
sensors
10
-83960.0
20
-10840.0
30
0
11
-83960.0
21
-10680.0
31
0
0
LINE
8
sensors
10
-83860.0
20
-10840.0
30
0
11
-83860.0
21
-10680.0
31
0
0
LINE
8
sensors
10
-83960.0
20
-10840.0
30
0
11
-83860.0
21
-10840.0
31
0
0
LINE
8
sensors
10
-83960.0
20
-10680.0
30
0
11
-83860.0
21
-10680.0
31
0
0
LINE
8
sensors
10
-83855.0
20
-10815.0
30
0
11
-83855.0
21
-10705.0
31
0
0
LINE
8
sensors
10
-83835.0
20
-10815.0
30
0
11
-83835.0
21
-10705.0
31
0
0
LINE
8
sensors
10
-83855.0
20
-10815.0
30
0
11
-83835.0
21
-10815.0
31
0
0
LINE
8
sensors
10
-83855.0
20
-10705.0
30
0
11
-83835.0
21
-10705.0
31
0
0
LINE
8
sensors
10
-78920.0
20
-8000.0
30
0
11
-79000.0
21
-7920.0
31
0
0
LINE
8
sensors
10
-79000.0
20
-7920.0
30
0
11
-79080.0
21
-8000.0
31
0
0
LINE
8
sensors
10
-79080.0
20
-8000.0
30
0
11
-79000.0
21
-8080.0
31
0
0
LINE
8
sensors
10
-79000.0
20
-8080.0
30
0
11
-78920.0
21
-8000.0
31
0
0
LINE
8
sensors
10
-79000.0
20
-8000.0
30
0
11
-78935.0
21
-8000.0
31
0
0
LINE
8
sensors
10
-78935.0
20
-8000.0
30
0
11
-79000.0
21
-8000.0
31
0
0
LINE
8
sensors
10
-83960.0
20
-10240.0
30
0
11
-83960.0
21
-10080.0
31
0
0
LINE
8
sensors
10
-83860.0
20
-10240.0
30
0
11
-83860.0
21
-10080.0
31
0
0
LINE
8
sensors
10
-83960.0
20
-10240.0
30
0
11
-83860.0
21
-10240.0
31
0
0
LINE
8
sensors
10
-83960.0
20
-10080.0
30
0
11
-83860.0
21
-10080.0
31
0
0
LINE
8
sensors
10
-83855.0
20
-10215.0
30
0
11
-83855.0
21
-10105.0
31
0
0
LINE
8
sensors
10
-83835.0
20
-10215.0
30
0
11
-83835.0
21
-10105.0
31
0
0
LINE
8
sensors
10
-83855.0
20
-10215.0
30
0
11
-83835.0
21
-10215.0
31
0
0
LINE
8
sensors
10
-83855.0
20
-10105.0
30
0
11
-83835.0
21
-10105.0
31
0
0
ENDSEC
0
EOF
