0
SECTION
2
HEADER
9
$ACADVER
1
AC1015
9
$INSUNITS
70
4
0
ENDSEC
0
SECTION
2
ENTITIES
0
LINE
8
interiors
10
424000.0
20
2000.0
30
0
11
424000.0
21
22000.0
31
0
0
LINE
8
interiors
10
424000.0
20
2000.0
30
0
11
437800.0
21
2000.0
31
0
0
LINE
8
interiors
10
437800.0
20
2000.0
30
0
11
440200.0
21
2000.0
31
0
0
LINE
8
interiors
10
440200.0
20
2000.0
30
0
11
454000.0
21
2000.0
31
0
0
LINE
8
interiors
10
424000.0
20
2000.0
30
0
11
454000.0
21
2000.0
31
0
0
LINE
8
interiors
10
424000.0
20
22000.0
30
0
11
454000.0
21
22000.0
31
0
0
LINE
8
interiors
10
454000.0
20
2000.0
30
0
11
454000.0
21
22000.0
31
0
0
LINE
8
interiors
10
453880.0
20
2120.0
30
0
11
424120.0
21
2120.0
31
0
0
LINE
8
interiors
10
453880.0
20
2120.0
30
0
11
453880.0
21
21880.0
31
0
0
LINE
8
interiors
10
453880.0
20
21880.0
30
0
11
424120.0
21
21880.0
31
0
0
LINE
8
interiors
10
424120.0
20
2120.0
30
0
11
424120.0
21
21880.0
31
0
0
LINE
8
interiors
10
431200.0
20
22000.0
30
0
11
446800.0
21
22000.0
31
0
0
LINE
8
interiors
10
440200.0
20
2000.0
30
0
11
440200.0
21
2120.0
31
0
0
LINE
8
interiors
10
453880.0
20
2120.0
30
0
11
440200.0
21
2120.0
31
0
0
LINE
8
interiors
10
437800.0
20
2120.0
30
0
11
424120.0
21
2120.0
31
0
0
LINE
8
interiors
10
437800.0
20
2000.0
30
0
11
437800.0
21
2120.0
31
0
0
LINE
8
interiors
10
437800.0
20
2120.0
30
0
11
440200.0
21
2120.0
31
0
0
LINE
8
interiors
10
431200.0
20
21880.0
30
0
11
446800.0
21
21880.0
31
0
0
LINE
8
interiors
10
431200.0
20
21880.0
30
0
11
431200.0
21
22000.0
31
0
0
LINE
8
interiors
10
446800.0
20
21880.0
30
0
11
446800.0
21
22000.0
31
0
0
LINE
8
interiors
10
431200.0
20
21977.5
30
0
11
431200.0
21
22022.5
31
0
0
LINE
8
interiors
10
446800.0
20
21977.5
30
0
11
446800.0
21
22022.5
31
0
0
LINE
8
interiors
10
431200.0
20
21977.5
30
0
11
446800.0
21
21977.5
31
0
0
LINE
8
interiors
10
431200.0
20
22022.5
30
0
11
446800.0
21
22022.5
31
0
0
LINE
8
interiors
10
424125.0
20
2125.0
30
0
11
424125.0
21
21875.0
31
0
0
LINE
8
interiors
10
453875.0
20
2125.0
30
0
11
453875.0
21
21875.0
31
0
0
LINE
8
interiors
10
424125.0
20
2125.0
30
0
11
453875.0
21
2125.0
31
0
0
LINE
8
interiors
10
424125.0
20
21875.0
30
0
11
453875.0
21
21875.0
31
0
0
LINE
8
interiors
10
437845.0
20
1880.0
30
0
11
437845.0
21
2120.0
31
0
0
LINE
8
interiors
10
437915.0
20
1880.0
30
0
11
437915.0
21
2120.0
31
0
0
LINE
8
interiors
10
437845.0
20
1880.0
30
0
11
437915.0
21
1880.0
31
0
0
LINE
8
interiors
10
437845.0
20
2120.0
30
0
11
437915.0
21
2120.0
31
0
0
LINE
8
interiors
10
440085.0
20
1880.0
30
0
11
440085.0
21
2120.0
31
0
0
LINE
8
interiors
10
440155.0
20
1880.0
30
0
11
440155.0
21
2120.0
31
0
0
LINE
8
interiors
10
440085.0
20
1880.0
30
0
11
440155.0
21
1880.0
31
0
0
LINE
8
interiors
10
440085.0
20
2120.0
30
0
11
440155.0
21
2120.0
31
0
0
LINE
8
interiors
10
437850.0
20
1880.0
30
0
11
437850.0
21
2120.0
31
0
0
LINE
8
interiors
10
440150.0
20
1880.0
30
0
11
440150.0
21
2120.0
31
0
0
LINE
8
interiors
10
437850.0
20
1880.0
30
0
11
440150.0
21
1880.0
31
0
0
LINE
8
interiors
10
437850.0
20
2120.0
30
0
11
440150.0
21
2120.0
31
0
0
LINE
8
interiors
10
437930.39
20
2090.49
30
0
11
437889.61
21
2109.51
31
0
0
LINE
8
interiors
10
438386.82
20
3069.3
30
0
11
438346.04
21
3088.32
31
0
0
LINE
8
interiors
10
437930.39
20
2090.49
30
0
11
438386.82
21
3069.3
31
0
0
LINE
8
interiors
10
437889.61
20
2109.51
30
0
11
438346.04
21
3088.32
31
0
0
LINE
8
interiors
10
431600.0
20
7900.0
30
0
11
431600.0
21
8900.0
31
0
0
LINE
8
interiors
10
434400.0
20
7900.0
30
0
11
434400.0
21
8900.0
31
0
0
LINE
8
interiors
10
431600.0
20
7900.0
30
0
11
434400.0
21
7900.0
31
0
0
LINE
8
interiors
10
431600.0
20
8900.0
30
0
11
434400.0
21
8900.0
31
0
0
LINE
8
interiors
10
431665.0
20
7965.0
30
0
11
431665.0
21
8035.0
31
0
0
LINE
8
interiors
10
431735.0
20
7965.0
30
0
11
431735.0
21
8035.0
31
0
0
LINE
8
interiors
10
431665.0
20
7965.0
30
0
11
431735.0
21
7965.0
31
0
0
LINE
8
interiors
10
431665.0
20
8035.0
30
0
11
431735.0
21
8035.0
31
0
0
LINE
8
interiors
10
431665.0
20
8765.0
30
0
11
431665.0
21
8835.0
31
0
0
LINE
8
interiors
10
431735.0
20
8765.0
30
0
11
431735.0
21
8835.0
31
0
0
LINE
8
interiors
10
431665.0
20
8765.0
30
0
11
431735.0
21
8765.0
31
0
0
LINE
8
interiors
10
431665.0
20
8835.0
30
0
11
431735.0
21
8835.0
31
0
0
LINE
8
interiors
10
434265.0
20
7965.0
30
0
11
434265.0
21
8035.0
31
0
0
LINE
8
interiors
10
434335.0
20
7965.0
30
0
11
434335.0
21
8035.0
31
0
0
LINE
8
interiors
10
434265.0
20
7965.0
30
0
11
434335.0
21
7965.0
31
0
0
LINE
8
interiors
10
434265.0
20
8035.0
30
0
11
434335.0
21
8035.0
31
0
0
LINE
8
interiors
10
434265.0
20
8765.0
30
0
11
434265.0
21
8835.0
31
0
0
LINE
8
interiors
10
434335.0
20
8765.0
30
0
11
434335.0
21
8835.0
31
0
0
LINE
8
interiors
10
434265.0
20
8765.0
30
0
11
434335.0
21
8765.0
31
0
0
LINE
8
interiors
10
434265.0
20
8835.0
30
0
11
434335.0
21
8835.0
31
0
0
LINE
8
interiors
10
430500.0
20
16650.0
30
0
11
430500.0
21
17350.0
31
0
0
LINE
8
interiors
10
432500.0
20
16650.0
30
0
11
432500.0
21
17350.0
31
0
0
LINE
8
interiors
10
430500.0
20
16650.0
30
0
11
432500.0
21
16650.0
31
0
0
LINE
8
interiors
10
430500.0
20
17350.0
30
0
11
432500.0
21
17350.0
31
0
0
LINE
8
interiors
10
430600.0
20
16627.5
30
0
11
430600.0
21
16652.5
31
0
0
LINE
8
interiors
10
432400.0
20
16627.5
30
0
11
432400.0
21
16652.5
31
0
0
LINE
8
interiors
10
430600.0
20
16627.5
30
0
11
432400.0
21
16627.5
31
0
0
LINE
8
interiors
10
430600.0
20
16652.5
30
0
11
432400.0
21
16652.5
31
0
0
LINE
8
interiors
10
437900.0
20
16500.0
30
0
11
437900.0
21
17500.0
31
0
0
LINE
8
interiors
10
440100.0
20
16500.0
30
0
11
440100.0
21
17500.0
31
0
0
LINE
8
interiors
10
437900.0
20
16500.0
30
0
11
440100.0
21
16500.0
31
0
0
LINE
8
interiors
10
437900.0
20
17500.0
30
0
11
440100.0
21
17500.0
31
0
0
LINE
8
interiors
10
437900.0
20
17325.0
30
0
11
437900.0
21
17475.0
31
0
0
LINE
8
interiors
10
440100.0
20
17325.0
30
0
11
440100.0
21
17475.0
31
0
0
LINE
8
interiors
10
437900.0
20
17325.0
30
0
11
440100.0
21
17325.0
31
0
0
LINE
8
interiors
10
437900.0
20
17475.0
30
0
11
440100.0
21
17475.0
31
0
0
LINE
8
interiors
10
437850.0
20
16450.0
30
0
11
437850.0
21
17550.0
31
0
0
LINE
8
interiors
10
440150.0
20
16450.0
30
0
11
440150.0
21
17550.0
31
0
0
LINE
8
interiors
10
437850.0
20
16450.0
30
0
11
440150.0
21
16450.0
31
0
0
LINE
8
interiors
10
437850.0
20
17550.0
30
0
11
440150.0
21
17550.0
31
0
0
LINE
8
electrical
10
453275.0
20
2075.0
30
0
11
453275.0
21
2325.0
31
0
0
LINE
8
electrical
10
453825.0
20
2075.0
30
0
11
453825.0
21
2325.0
31
0
0
LINE
8
electrical
10
453275.0
20
2075.0
30
0
11
453825.0
21
2075.0
31
0
0
LINE
8
electrical
10
453275.0
20
2325.0
30
0
11
453825.0
21
2325.0
31
0
0
LINE
8
electrical
10
453315.0
20
2047.5
30
0
11
453315.0
21
2082.5
31
0
0
LINE
8
electrical
10
453785.0
20
2047.5
30
0
11
453785.0
21
2082.5
31
0
0
LINE
8
electrical
10
453315.0
20
2047.5
30
0
11
453785.0
21
2047.5
31
0
0
LINE
8
electrical
10
453315.0
20
2082.5
30
0
11
453785.0
21
2082.5
31
0
0
LINE
8
electrical
10
453362.5
20
2010.0
30
0
11
453362.5
21
2050.0
31
0
0
LINE
8
electrical
10
453462.5
20
2010.0
30
0
11
453462.5
21
2050.0
31
0
0
LINE
8
electrical
10
453362.5
20
2010.0
30
0
11
453462.5
21
2010.0
31
0
0
LINE
8
electrical
10
453362.5
20
2050.0
30
0
11
453462.5
21
2050.0
31
0
0
LINE
8
electrical
10
453500.0
20
2010.0
30
0
11
453500.0
21
2050.0
31
0
0
LINE
8
electrical
10
453600.0
20
2010.0
30
0
11
453600.0
21
2050.0
31
0
0
LINE
8
electrical
10
453500.0
20
2010.0
30
0
11
453600.0
21
2010.0
31
0
0
LINE
8
electrical
10
453500.0
20
2050.0
30
0
11
453600.0
21
2050.0
31
0
0
LINE
8
electrical
10
453637.5
20
2010.0
30
0
11
453637.5
21
2050.0
31
0
0
LINE
8
electrical
10
453737.5
20
2010.0
30
0
11
453737.5
21
2050.0
31
0
0
LINE
8
electrical
10
453637.5
20
2010.0
30
0
11
453737.5
21
2010.0
31
0
0
LINE
8
electrical
10
453637.5
20
2050.0
30
0
11
453737.5
21
2050.0
31
0
0
LINE
8
electrical
10
453412.5
20
1995.0
30
0
11
453435.88
21
1995.0
31
0
0
LINE
8
electrical
10
453435.88
20
1995.0
30
0
11
453389.12
21
1995.0
31
0
0
LINE
8
electrical
10
453389.12
20
1995.0
30
0
11
453412.5
21
1995.0
31
0
0
LINE
8
electrical
10
453412.5
20
2020.0
30
0
11
453412.5
21
1995.0
31
0
0
LINE
8
electrical
10
453412.5
20
2020.0
30
0
11
453435.88
21
2020.0
31
0
0
LINE
8
electrical
10
453435.88
20
2020.0
30
0
11
453389.12
21
2020.0
31
0
0
LINE
8
electrical
10
453389.12
20
2020.0
30
0
11
453412.5
21
2020.0
31
0
0
LINE
8
electrical
10
453550.0
20
1995.0
30
0
11
453573.38
21
1995.0
31
0
0
LINE
8
electrical
10
453573.38
20
1995.0
30
0
11
453526.62
21
1995.0
31
0
0
LINE
8
electrical
10
453526.62
20
1995.0
30
0
11
453550.0
21
1995.0
31
0
0
LINE
8
electrical
10
453550.0
20
2020.0
30
0
11
453550.0
21
1995.0
31
0
0
LINE
8
electrical
10
453550.0
20
2020.0
30
0
11
453573.38
21
2020.0
31
0
0
LINE
8
electrical
10
453573.38
20
2020.0
30
0
11
453526.62
21
2020.0
31
0
0
LINE
8
electrical
10
453526.62
20
2020.0
30
0
11
453550.0
21
2020.0
31
0
0
LINE
8
electrical
10
453687.5
20
1995.0
30
0
11
453710.88
21
1995.0
31
0
0
LINE
8
electrical
10
453710.88
20
1995.0
30
0
11
453664.12
21
1995.0
31
0
0
LINE
8
electrical
10
453664.12
20
1995.0
30
0
11
453687.5
21
1995.0
31
0
0
LINE
8
electrical
10
453687.5
20
2020.0
30
0
11
453687.5
21
1995.0
31
0
0
LINE
8
electrical
10
453687.5
20
2020.0
30
0
11
453710.88
21
2020.0
31
0
0
LINE
8
electrical
10
453710.88
20
2020.0
30
0
11
453664.12
21
2020.0
31
0
0
LINE
8
electrical
10
453664.12
20
2020.0
30
0
11
453687.5
21
2020.0
31
0
0
LINE
8
electrical
10
453550.0
20
2200.0
30
0
11
453565.59
21
2200.0
31
0
0
LINE
8
electrical
10
453565.59
20
2200.0
30
0
11
453534.41
21
2200.0
31
0
0
LINE
8
electrical
10
453534.41
20
2200.0
30
0
11
453550.0
21
2200.0
31
0
0
LINE
8
electrical
10
453550.0
20
-62300.0
30
0
11
453550.0
21
2200.0
31
0
0
LINE
8
electrical
10
453550.0
20
-62300.0
30
0
11
453565.59
21
-62300.0
31
0
0
LINE
8
electrical
10
453565.59
20
-62300.0
30
0
11
453534.41
21
-62300.0
31
0
0
LINE
8
electrical
10
453534.41
20
-62300.0
30
0
11
453550.0
21
-62300.0
31
0
0
LINE
8
electrical
10
453532.0
20
2200.0
30
0
11
453559.0
21
2215.59
31
0
0
LINE
8
electrical
10
453559.0
20
2215.59
30
0
11
453559.0
21
2184.41
31
0
0
LINE
8
electrical
10
453559.0
20
2184.41
30
0
11
453532.0
21
2200.0
31
0
0
LINE
8
electrical
10
453550.0
20
2200.0
30
0
11
453569.44
21
2200.0
31
0
0
LINE
8
electrical
10
453569.44
20
2200.0
30
0
11
453550.0
21
2200.0
31
0
0
LINE
8
lighting
10
427880.0
20
4880.0
30
0
11
427880.0
21
5520.0
31
0
0
LINE
8
lighting
10
428520.0
20
4880.0
30
0
11
428520.0
21
5520.0
31
0
0
LINE
8
lighting
10
427880.0
20
4880.0
30
0
11
428520.0
21
4880.0
31
0
0
LINE
8
lighting
10
427880.0
20
5520.0
30
0
11
428520.0
21
5520.0
31
0
0
LINE
8
lighting
10
427920.0
20
4920.0
30
0
11
427920.0
21
5480.0
31
0
0
LINE
8
lighting
10
428480.0
20
4920.0
30
0
11
428480.0
21
5480.0
31
0
0
LINE
8
lighting
10
427920.0
20
4920.0
30
0
11
428480.0
21
4920.0
31
0
0
LINE
8
lighting
10
427920.0
20
5480.0
30
0
11
428480.0
21
5480.0
31
0
0
LINE
8
lighting
10
427954.0
20
4930.0
30
0
11
427954.0
21
5470.0
31
0
0
LINE
8
lighting
10
427966.0
20
4930.0
30
0
11
427966.0
21
5470.0
31
0
0
LINE
8
lighting
10
427954.0
20
4930.0
30
0
11
427966.0
21
4930.0
31
0
0
LINE
8
lighting
10
427954.0
20
5470.0
30
0
11
427966.0
21
5470.0
31
0
0
LINE
8
lighting
10
428034.0
20
4930.0
30
0
11
428034.0
21
5470.0
31
0
0
LINE
8
lighting
10
428046.0
20
4930.0
30
0
11
428046.0
21
5470.0
31
0
0
LINE
8
lighting
10
428034.0
20
4930.0
30
0
11
428046.0
21
4930.0
31
0
0
LINE
8
lighting
10
428034.0
20
5470.0
30
0
11
428046.0
21
5470.0
31
0
0
LINE
8
lighting
10
428114.0
20
4930.0
30
0
11
428114.0
21
5470.0
31
0
0
LINE
8
lighting
10
428126.0
20
4930.0
30
0
11
428126.0
21
5470.0
31
0
0
LINE
8
lighting
10
428114.0
20
4930.0
30
0
11
428126.0
21
4930.0
31
0
0
LINE
8
lighting
10
428114.0
20
5470.0
30
0
11
428126.0
21
5470.0
31
0
0
LINE
8
lighting
10
428194.0
20
4930.0
30
0
11
428194.0
21
5470.0
31
0
0
LINE
8
lighting
10
428206.0
20
4930.0
30
0
11
428206.0
21
5470.0
31
0
0
LINE
8
lighting
10
428194.0
20
4930.0
30
0
11
428206.0
21
4930.0
31
0
0
LINE
8
lighting
10
428194.0
20
5470.0
30
0
11
428206.0
21
5470.0
31
0
0
LINE
8
lighting
10
428274.0
20
4930.0
30
0
11
428274.0
21
5470.0
31
0
0
LINE
8
lighting
10
428286.0
20
4930.0
30
0
11
428286.0
21
5470.0
31
0
0
LINE
8
lighting
10
428274.0
20
4930.0
30
0
11
428286.0
21
4930.0
31
0
0
LINE
8
lighting
10
428274.0
20
5470.0
30
0
11
428286.0
21
5470.0
31
0
0
LINE
8
lighting
10
428354.0
20
4930.0
30
0
11
428354.0
21
5470.0
31
0
0
LINE
8
lighting
10
428366.0
20
4930.0
30
0
11
428366.0
21
5470.0
31
0
0
LINE
8
lighting
10
428354.0
20
4930.0
30
0
11
428366.0
21
4930.0
31
0
0
LINE
8
lighting
10
428354.0
20
5470.0
30
0
11
428366.0
21
5470.0
31
0
0
LINE
8
lighting
10
428434.0
20
4930.0
30
0
11
428434.0
21
5470.0
31
0
0
LINE
8
lighting
10
428446.0
20
4930.0
30
0
11
428446.0
21
5470.0
31
0
0
LINE
8
lighting
10
428434.0
20
4930.0
30
0
11
428446.0
21
4930.0
31
0
0
LINE
8
lighting
10
428434.0
20
5470.0
30
0
11
428446.0
21
5470.0
31
0
0
LINE
8
lighting
10
428209.0
20
5200.0
30
0
11
428195.5
21
5207.79
31
0
0
LINE
8
lighting
10
428195.5
20
5207.79
30
0
11
428195.5
21
5192.21
31
0
0
LINE
8
lighting
10
428195.5
20
5192.21
30
0
11
428209.0
21
5200.0
31
0
0
LINE
8
lighting
10
449480.0
20
4880.0
30
0
11
449480.0
21
5520.0
31
0
0
LINE
8
lighting
10
450120.0
20
4880.0
30
0
11
450120.0
21
5520.0
31
0
0
LINE
8
lighting
10
449480.0
20
4880.0
30
0
11
450120.0
21
4880.0
31
0
0
LINE
8
lighting
10
449480.0
20
5520.0
30
0
11
450120.0
21
5520.0
31
0
0
LINE
8
lighting
10
449520.0
20
4920.0
30
0
11
449520.0
21
5480.0
31
0
0
LINE
8
lighting
10
450080.0
20
4920.0
30
0
11
450080.0
21
5480.0
31
0
0
LINE
8
lighting
10
449520.0
20
4920.0
30
0
11
450080.0
21
4920.0
31
0
0
LINE
8
lighting
10
449520.0
20
5480.0
30
0
11
450080.0
21
5480.0
31
0
0
LINE
8
lighting
10
449554.0
20
4930.0
30
0
11
449554.0
21
5470.0
31
0
0
LINE
8
lighting
10
449566.0
20
4930.0
30
0
11
449566.0
21
5470.0
31
0
0
LINE
8
lighting
10
449554.0
20
4930.0
30
0
11
449566.0
21
4930.0
31
0
0
LINE
8
lighting
10
449554.0
20
5470.0
30
0
11
449566.0
21
5470.0
31
0
0
LINE
8
lighting
10
449634.0
20
4930.0
30
0
11
449634.0
21
5470.0
31
0
0
LINE
8
lighting
10
449646.0
20
4930.0
30
0
11
449646.0
21
5470.0
31
0
0
LINE
8
lighting
10
449634.0
20
4930.0
30
0
11
449646.0
21
4930.0
31
0
0
LINE
8
lighting
10
449634.0
20
5470.0
30
0
11
449646.0
21
5470.0
31
0
0
LINE
8
lighting
10
449714.0
20
4930.0
30
0
11
449714.0
21
5470.0
31
0
0
LINE
8
lighting
10
449726.0
20
4930.0
30
0
11
449726.0
21
5470.0
31
0
0
LINE
8
lighting
10
449714.0
20
4930.0
30
0
11
449726.0
21
4930.0
31
0
0
LINE
8
lighting
10
449714.0
20
5470.0
30
0
11
449726.0
21
5470.0
31
0
0
LINE
8
lighting
10
449794.0
20
4930.0
30
0
11
449794.0
21
5470.0
31
0
0
LINE
8
lighting
10
449806.0
20
4930.0
30
0
11
449806.0
21
5470.0
31
0
0
LINE
8
lighting
10
449794.0
20
4930.0
30
0
11
449806.0
21
4930.0
31
0
0
LINE
8
lighting
10
449794.0
20
5470.0
30
0
11
449806.0
21
5470.0
31
0
0
LINE
8
lighting
10
449874.0
20
4930.0
30
0
11
449874.0
21
5470.0
31
0
0
LINE
8
lighting
10
449886.0
20
4930.0
30
0
11
449886.0
21
5470.0
31
0
0
LINE
8
lighting
10
449874.0
20
4930.0
30
0
11
449886.0
21
4930.0
31
0
0
LINE
8
lighting
10
449874.0
20
5470.0
30
0
11
449886.0
21
5470.0
31
0
0
LINE
8
lighting
10
449954.0
20
4930.0
30
0
11
449954.0
21
5470.0
31
0
0
LINE
8
lighting
10
449966.0
20
4930.0
30
0
11
449966.0
21
5470.0
31
0
0
LINE
8
lighting
10
449954.0
20
4930.0
30
0
11
449966.0
21
4930.0
31
0
0
LINE
8
lighting
10
449954.0
20
5470.0
30
0
11
449966.0
21
5470.0
31
0
0
LINE
8
lighting
10
450034.0
20
4930.0
30
0
11
450034.0
21
5470.0
31
0
0
LINE
8
lighting
10
450046.0
20
4930.0
30
0
11
450046.0
21
5470.0
31
0
0
LINE
8
lighting
10
450034.0
20
4930.0
30
0
11
450046.0
21
4930.0
31
0
0
LINE
8
lighting
10
450034.0
20
5470.0
30
0
11
450046.0
21
5470.0
31
0
0
LINE
8
lighting
10
449809.0
20
5200.0
30
0
11
449795.5
21
5207.79
31
0
0
LINE
8
lighting
10
449795.5
20
5207.79
30
0
11
449795.5
21
5192.21
31
0
0
LINE
8
lighting
10
449795.5
20
5192.21
30
0
11
449809.0
21
5200.0
31
0
0
LINE
8
lighting
10
438680.0
20
4880.0
30
0
11
438680.0
21
5520.0
31
0
0
LINE
8
lighting
10
439320.0
20
4880.0
30
0
11
439320.0
21
5520.0
31
0
0
LINE
8
lighting
10
438680.0
20
4880.0
30
0
11
439320.0
21
4880.0
31
0
0
LINE
8
lighting
10
438680.0
20
5520.0
30
0
11
439320.0
21
5520.0
31
0
0
LINE
8
lighting
10
438720.0
20
4920.0
30
0
11
438720.0
21
5480.0
31
0
0
LINE
8
lighting
10
439280.0
20
4920.0
30
0
11
439280.0
21
5480.0
31
0
0
LINE
8
lighting
10
438720.0
20
4920.0
30
0
11
439280.0
21
4920.0
31
0
0
LINE
8
lighting
10
438720.0
20
5480.0
30
0
11
439280.0
21
5480.0
31
0
0
LINE
8
lighting
10
438754.0
20
4930.0
30
0
11
438754.0
21
5470.0
31
0
0
LINE
8
lighting
10
438766.0
20
4930.0
30
0
11
438766.0
21
5470.0
31
0
0
LINE
8
lighting
10
438754.0
20
4930.0
30
0
11
438766.0
21
4930.0
31
0
0
LINE
8
lighting
10
438754.0
20
5470.0
30
0
11
438766.0
21
5470.0
31
0
0
LINE
8
lighting
10
438834.0
20
4930.0
30
0
11
438834.0
21
5470.0
31
0
0
LINE
8
lighting
10
438846.0
20
4930.0
30
0
11
438846.0
21
5470.0
31
0
0
LINE
8
lighting
10
438834.0
20
4930.0
30
0
11
438846.0
21
4930.0
31
0
0
LINE
8
lighting
10
438834.0
20
5470.0
30
0
11
438846.0
21
5470.0
31
0
0
LINE
8
lighting
10
438914.0
20
4930.0
30
0
11
438914.0
21
5470.0
31
0
0
LINE
8
lighting
10
438926.0
20
4930.0
30
0
11
438926.0
21
5470.0
31
0
0
LINE
8
lighting
10
438914.0
20
4930.0
30
0
11
438926.0
21
4930.0
31
0
0
LINE
8
lighting
10
438914.0
20
5470.0
30
0
11
438926.0
21
5470.0
31
0
0
LINE
8
lighting
10
438994.0
20
4930.0
30
0
11
438994.0
21
5470.0
31
0
0
LINE
8
lighting
10
439006.0
20
4930.0
30
0
11
439006.0
21
5470.0
31
0
0
LINE
8
lighting
10
438994.0
20
4930.0
30
0
11
439006.0
21
4930.0
31
0
0
LINE
8
lighting
10
438994.0
20
5470.0
30
0
11
439006.0
21
5470.0
31
0
0
LINE
8
lighting
10
439074.0
20
4930.0
30
0
11
439074.0
21
5470.0
31
0
0
LINE
8
lighting
10
439086.0
20
4930.0
30
0
11
439086.0
21
5470.0
31
0
0
LINE
8
lighting
10
439074.0
20
4930.0
30
0
11
439086.0
21
4930.0
31
0
0
LINE
8
lighting
10
439074.0
20
5470.0
30
0
11
439086.0
21
5470.0
31
0
0
LINE
8
lighting
10
439154.0
20
4930.0
30
0
11
439154.0
21
5470.0
31
0
0
LINE
8
lighting
10
439166.0
20
4930.0
30
0
11
439166.0
21
5470.0
31
0
0
LINE
8
lighting
10
439154.0
20
4930.0
30
0
11
439166.0
21
4930.0
31
0
0
LINE
8
lighting
10
439154.0
20
5470.0
30
0
11
439166.0
21
5470.0
31
0
0
LINE
8
lighting
10
439234.0
20
4930.0
30
0
11
439234.0
21
5470.0
31
0
0
LINE
8
lighting
10
439246.0
20
4930.0
30
0
11
439246.0
21
5470.0
31
0
0
LINE
8
lighting
10
439234.0
20
4930.0
30
0
11
439246.0
21
4930.0
31
0
0
LINE
8
lighting
10
439234.0
20
5470.0
30
0
11
439246.0
21
5470.0
31
0
0
LINE
8
lighting
10
439009.0
20
5200.0
30
0
11
438995.5
21
5207.79
31
0
0
LINE
8
lighting
10
438995.5
20
5207.79
30
0
11
438995.5
21
5192.21
31
0
0
LINE
8
lighting
10
438995.5
20
5192.21
30
0
11
439009.0
21
5200.0
31
0
0
LINE
8
lighting
10
427880.0
20
18480.0
30
0
11
427880.0
21
19120.0
31
0
0
LINE
8
lighting
10
428520.0
20
18480.0
30
0
11
428520.0
21
19120.0
31
0
0
LINE
8
lighting
10
427880.0
20
18480.0
30
0
11
428520.0
21
18480.0
31
0
0
LINE
8
lighting
10
427880.0
20
19120.0
30
0
11
428520.0
21
19120.0
31
0
0
LINE
8
lighting
10
427920.0
20
18520.0
30
0
11
427920.0
21
19080.0
31
0
0
LINE
8
lighting
10
428480.0
20
18520.0
30
0
11
428480.0
21
19080.0
31
0
0
LINE
8
lighting
10
427920.0
20
18520.0
30
0
11
428480.0
21
18520.0
31
0
0
LINE
8
lighting
10
427920.0
20
19080.0
30
0
11
428480.0
21
19080.0
31
0
0
LINE
8
lighting
10
427954.0
20
18530.0
30
0
11
427954.0
21
19070.0
31
0
0
LINE
8
lighting
10
427966.0
20
18530.0
30
0
11
427966.0
21
19070.0
31
0
0
LINE
8
lighting
10
427954.0
20
18530.0
30
0
11
427966.0
21
18530.0
31
0
0
LINE
8
lighting
10
427954.0
20
19070.0
30
0
11
427966.0
21
19070.0
31
0
0
LINE
8
lighting
10
428034.0
20
18530.0
30
0
11
428034.0
21
19070.0
31
0
0
LINE
8
lighting
10
428046.0
20
18530.0
30
0
11
428046.0
21
19070.0
31
0
0
LINE
8
lighting
10
428034.0
20
18530.0
30
0
11
428046.0
21
18530.0
31
0
0
LINE
8
lighting
10
428034.0
20
19070.0
30
0
11
428046.0
21
19070.0
31
0
0
LINE
8
lighting
10
428114.0
20
18530.0
30
0
11
428114.0
21
19070.0
31
0
0
LINE
8
lighting
10
428126.0
20
18530.0
30
0
11
428126.0
21
19070.0
31
0
0
LINE
8
lighting
10
428114.0
20
18530.0
30
0
11
428126.0
21
18530.0
31
0
0
LINE
8
lighting
10
428114.0
20
19070.0
30
0
11
428126.0
21
19070.0
31
0
0
LINE
8
lighting
10
428194.0
20
18530.0
30
0
11
428194.0
21
19070.0
31
0
0
LINE
8
lighting
10
428206.0
20
18530.0
30
0
11
428206.0
21
19070.0
31
0
0
LINE
8
lighting
10
428194.0
20
18530.0
30
0
11
428206.0
21
18530.0
31
0
0
LINE
8
lighting
10
428194.0
20
19070.0
30
0
11
428206.0
21
19070.0
31
0
0
LINE
8
lighting
10
428274.0
20
18530.0
30
0
11
428274.0
21
19070.0
31
0
0
LINE
8
lighting
10
428286.0
20
18530.0
30
0
11
428286.0
21
19070.0
31
0
0
LINE
8
lighting
10
428274.0
20
18530.0
30
0
11
428286.0
21
18530.0
31
0
0
LINE
8
lighting
10
428274.0
20
19070.0
30
0
11
428286.0
21
19070.0
31
0
0
LINE
8
lighting
10
428354.0
20
18530.0
30
0
11
428354.0
21
19070.0
31
0
0
LINE
8
lighting
10
428366.0
20
18530.0
30
0
11
428366.0
21
19070.0
31
0
0
LINE
8
lighting
10
428354.0
20
18530.0
30
0
11
428366.0
21
18530.0
31
0
0
LINE
8
lighting
10
428354.0
20
19070.0
30
0
11
428366.0
21
19070.0
31
0
0
LINE
8
lighting
10
428434.0
20
18530.0
30
0
11
428434.0
21
19070.0
31
0
0
LINE
8
lighting
10
428446.0
20
18530.0
30
0
11
428446.0
21
19070.0
31
0
0
LINE
8
lighting
10
428434.0
20
18530.0
30
0
11
428446.0
21
18530.0
31
0
0
LINE
8
lighting
10
428434.0
20
19070.0
30
0
11
428446.0
21
19070.0
31
0
0
LINE
8
lighting
10
428209.0
20
18800.0
30
0
11
428195.5
21
18807.79
31
0
0
LINE
8
lighting
10
428195.5
20
18807.79
30
0
11
428195.5
21
18792.21
31
0
0
LINE
8
lighting
10
428195.5
20
18792.21
30
0
11
428209.0
21
18800.0
31
0
0
LINE
8
lighting
10
449480.0
20
18480.0
30
0
11
449480.0
21
19120.0
31
0
0
LINE
8
lighting
10
450120.0
20
18480.0
30
0
11
450120.0
21
19120.0
31
0
0
LINE
8
lighting
10
449480.0
20
18480.0
30
0
11
450120.0
21
18480.0
31
0
0
LINE
8
lighting
10
449480.0
20
19120.0
30
0
11
450120.0
21
19120.0
31
0
0
LINE
8
lighting
10
449520.0
20
18520.0
30
0
11
449520.0
21
19080.0
31
0
0
LINE
8
lighting
10
450080.0
20
18520.0
30
0
11
450080.0
21
19080.0
31
0
0
LINE
8
lighting
10
449520.0
20
18520.0
30
0
11
450080.0
21
18520.0
31
0
0
LINE
8
lighting
10
449520.0
20
19080.0
30
0
11
450080.0
21
19080.0
31
0
0
LINE
8
lighting
10
449554.0
20
18530.0
30
0
11
449554.0
21
19070.0
31
0
0
LINE
8
lighting
10
449566.0
20
18530.0
30
0
11
449566.0
21
19070.0
31
0
0
LINE
8
lighting
10
449554.0
20
18530.0
30
0
11
449566.0
21
18530.0
31
0
0
LINE
8
lighting
10
449554.0
20
19070.0
30
0
11
449566.0
21
19070.0
31
0
0
LINE
8
lighting
10
449634.0
20
18530.0
30
0
11
449634.0
21
19070.0
31
0
0
LINE
8
lighting
10
449646.0
20
18530.0
30
0
11
449646.0
21
19070.0
31
0
0
LINE
8
lighting
10
449634.0
20
18530.0
30
0
11
449646.0
21
18530.0
31
0
0
LINE
8
lighting
10
449634.0
20
19070.0
30
0
11
449646.0
21
19070.0
31
0
0
LINE
8
lighting
10
449714.0
20
18530.0
30
0
11
449714.0
21
19070.0
31
0
0
LINE
8
lighting
10
449726.0
20
18530.0
30
0
11
449726.0
21
19070.0
31
0
0
LINE
8
lighting
10
449714.0
20
18530.0
30
0
11
449726.0
21
18530.0
31
0
0
LINE
8
lighting
10
449714.0
20
19070.0
30
0
11
449726.0
21
19070.0
31
0
0
LINE
8
lighting
10
449794.0
20
18530.0
30
0
11
449794.0
21
19070.0
31
0
0
LINE
8
lighting
10
449806.0
20
18530.0
30
0
11
449806.0
21
19070.0
31
0
0
LINE
8
lighting
10
449794.0
20
18530.0
30
0
11
449806.0
21
18530.0
31
0
0
LINE
8
lighting
10
449794.0
20
19070.0
30
0
11
449806.0
21
19070.0
31
0
0
LINE
8
lighting
10
449874.0
20
18530.0
30
0
11
449874.0
21
19070.0
31
0
0
LINE
8
lighting
10
449886.0
20
18530.0
30
0
11
449886.0
21
19070.0
31
0
0
LINE
8
lighting
10
449874.0
20
18530.0
30
0
11
449886.0
21
18530.0
31
0
0
LINE
8
lighting
10
449874.0
20
19070.0
30
0
11
449886.0
21
19070.0
31
0
0
LINE
8
lighting
10
449954.0
20
18530.0
30
0
11
449954.0
21
19070.0
31
0
0
LINE
8
lighting
10
449966.0
20
18530.0
30
0
11
449966.0
21
19070.0
31
0
0
LINE
8
lighting
10
449954.0
20
18530.0
30
0
11
449966.0
21
18530.0
31
0
0
LINE
8
lighting
10
449954.0
20
19070.0
30
0
11
449966.0
21
19070.0
31
0
0
LINE
8
lighting
10
450034.0
20
18530.0
30
0
11
450034.0
21
19070.0
31
0
0
LINE
8
lighting
10
450046.0
20
18530.0
30
0
11
450046.0
21
19070.0
31
0
0
LINE
8
lighting
10
450034.0
20
18530.0
30
0
11
450046.0
21
18530.0
31
0
0
LINE
8
lighting
10
450034.0
20
19070.0
30
0
11
450046.0
21
19070.0
31
0
0
LINE
8
lighting
10
449809.0
20
18800.0
30
0
11
449795.5
21
18807.79
31
0
0
LINE
8
lighting
10
449795.5
20
18807.79
30
0
11
449795.5
21
18792.21
31
0
0
LINE
8
lighting
10
449795.5
20
18792.21
30
0
11
449809.0
21
18800.0
31
0
0
LINE
8
lighting
10
438680.0
20
18480.0
30
0
11
438680.0
21
19120.0
31
0
0
LINE
8
lighting
10
439320.0
20
18480.0
30
0
11
439320.0
21
19120.0
31
0
0
LINE
8
lighting
10
438680.0
20
18480.0
30
0
11
439320.0
21
18480.0
31
0
0
LINE
8
lighting
10
438680.0
20
19120.0
30
0
11
439320.0
21
19120.0
31
0
0
LINE
8
lighting
10
438720.0
20
18520.0
30
0
11
438720.0
21
19080.0
31
0
0
LINE
8
lighting
10
439280.0
20
18520.0
30
0
11
439280.0
21
19080.0
31
0
0
LINE
8
lighting
10
438720.0
20
18520.0
30
0
11
439280.0
21
18520.0
31
0
0
LINE
8
lighting
10
438720.0
20
19080.0
30
0
11
439280.0
21
19080.0
31
0
0
LINE
8
lighting
10
438754.0
20
18530.0
30
0
11
438754.0
21
19070.0
31
0
0
LINE
8
lighting
10
438766.0
20
18530.0
30
0
11
438766.0
21
19070.0
31
0
0
LINE
8
lighting
10
438754.0
20
18530.0
30
0
11
438766.0
21
18530.0
31
0
0
LINE
8
lighting
10
438754.0
20
19070.0
30
0
11
438766.0
21
19070.0
31
0
0
LINE
8
lighting
10
438834.0
20
18530.0
30
0
11
438834.0
21
19070.0
31
0
0
LINE
8
lighting
10
438846.0
20
18530.0
30
0
11
438846.0
21
19070.0
31
0
0
LINE
8
lighting
10
438834.0
20
18530.0
30
0
11
438846.0
21
18530.0
31
0
0
LINE
8
lighting
10
438834.0
20
19070.0
30
0
11
438846.0
21
19070.0
31
0
0
LINE
8
lighting
10
438914.0
20
18530.0
30
0
11
438914.0
21
19070.0
31
0
0
LINE
8
lighting
10
438926.0
20
18530.0
30
0
11
438926.0
21
19070.0
31
0
0
LINE
8
lighting
10
438914.0
20
18530.0
30
0
11
438926.0
21
18530.0
31
0
0
LINE
8
lighting
10
438914.0
20
19070.0
30
0
11
438926.0
21
19070.0
31
0
0
LINE
8
lighting
10
438994.0
20
18530.0
30
0
11
438994.0
21
19070.0
31
0
0
LINE
8
lighting
10
439006.0
20
18530.0
30
0
11
439006.0
21
19070.0
31
0
0
LINE
8
lighting
10
438994.0
20
18530.0
30
0
11
439006.0
21
18530.0
31
0
0
LINE
8
lighting
10
438994.0
20
19070.0
30
0
11
439006.0
21
19070.0
31
0
0
LINE
8
lighting
10
439074.0
20
18530.0
30
0
11
439074.0
21
19070.0
31
0
0
LINE
8
lighting
10
439086.0
20
18530.0
30
0
11
439086.0
21
19070.0
31
0
0
LINE
8
lighting
10
439074.0
20
18530.0
30
0
11
439086.0
21
18530.0
31
0
0
LINE
8
lighting
10
439074.0
20
19070.0
30
0
11
439086.0
21
19070.0
31
0
0
LINE
8
lighting
10
439154.0
20
18530.0
30
0
11
439154.0
21
19070.0
31
0
0
LINE
8
lighting
10
439166.0
20
18530.0
30
0
11
439166.0
21
19070.0
31
0
0
LINE
8
lighting
10
439154.0
20
18530.0
30
0
11
439166.0
21
18530.0
31
0
0
LINE
8
lighting
10
439154.0
20
19070.0
30
0
11
439166.0
21
19070.0
31
0
0
LINE
8
lighting
10
439234.0
20
18530.0
30
0
11
439234.0
21
19070.0
31
0
0
LINE
8
lighting
10
439246.0
20
18530.0
30
0
11
439246.0
21
19070.0
31
0
0
LINE
8
lighting
10
439234.0
20
18530.0
30
0
11
439246.0
21
18530.0
31
0
0
LINE
8
lighting
10
439234.0
20
19070.0
30
0
11
439246.0
21
19070.0
31
0
0
LINE
8
lighting
10
439009.0
20
18800.0
30
0
11
438995.5
21
18807.79
31
0
0
LINE
8
lighting
10
438995.5
20
18807.79
30
0
11
438995.5
21
18792.21
31
0
0
LINE
8
lighting
10
438995.5
20
18792.21
30
0
11
439009.0
21
18800.0
31
0
0
LINE
8
electrical
10
428200.0
20
4880.0
30
0
11
428200.0
21
4872.21
31
0
0
LINE
8
electrical
10
428200.0
20
4872.21
30
0
11
428200.0
21
4887.79
31
0
0
LINE
8
electrical
10
428200.0
20
4887.79
30
0
11
428200.0
21
4880.0
31
0
0
LINE
8
electrical
10
453550.0
20
4880.0
30
0
11
428200.0
21
4880.0
31
0
0
LINE
8
electrical
10
453550.0
20
4880.0
30
0
11
453550.0
21
4872.21
31
0
0
LINE
8
electrical
10
453550.0
20
4872.21
30
0
11
453550.0
21
4887.79
31
0
0
LINE
8
electrical
10
453550.0
20
4887.79
30
0
11
453550.0
21
4880.0
31
0
0
LINE
8
electrical
10
428200.0
20
18800.0
30
0
11
428207.79
21
18800.0
31
0
0
LINE
8
electrical
10
428207.79
20
18800.0
30
0
11
428192.21
21
18800.0
31
0
0
LINE
8
electrical
10
428192.21
20
18800.0
30
0
11
428200.0
21
18800.0
31
0
0
LINE
8
electrical
10
428200.0
20
4880.0
30
0
11
428200.0
21
18800.0
31
0
0
LINE
8
electrical
10
428200.0
20
4880.0
30
0
11
428207.79
21
4880.0
31
0
0
LINE
8
electrical
10
428207.79
20
4880.0
30
0
11
428192.21
21
4880.0
31
0
0
LINE
8
electrical
10
428192.21
20
4880.0
30
0
11
428200.0
21
4880.0
31
0
0
LINE
8
electrical
10
449800.0
20
18800.0
30
0
11
449807.79
21
18800.0
31
0
0
LINE
8
electrical
10
449807.79
20
18800.0
30
0
11
449792.21
21
18800.0
31
0
0
LINE
8
electrical
10
449792.21
20
18800.0
30
0
11
449800.0
21
18800.0
31
0
0
LINE
8
electrical
10
449800.0
20
4880.0
30
0
11
449800.0
21
18800.0
31
0
0
LINE
8
electrical
10
449800.0
20
4880.0
30
0
11
449807.79
21
4880.0
31
0
0
LINE
8
electrical
10
449807.79
20
4880.0
30
0
11
449792.21
21
4880.0
31
0
0
LINE
8
electrical
10
449792.21
20
4880.0
30
0
11
449800.0
21
4880.0
31
0
0
LINE
8
electrical
10
439000.0
20
18800.0
30
0
11
439007.79
21
18800.0
31
0
0
LINE
8
electrical
10
439007.79
20
18800.0
30
0
11
438992.21
21
18800.0
31
0
0
LINE
8
electrical
10
438992.21
20
18800.0
30
0
11
439000.0
21
18800.0
31
0
0
LINE
8
electrical
10
439000.0
20
4880.0
30
0
11
439000.0
21
18800.0
31
0
0
LINE
8
electrical
10
439000.0
20
4880.0
30
0
11
439007.79
21
4880.0
31
0
0
LINE
8
electrical
10
439007.79
20
4880.0
30
0
11
438992.21
21
4880.0
31
0
0
LINE
8
electrical
10
438992.21
20
4880.0
30
0
11
439000.0
21
4880.0
31
0
0
LINE
8
electrical
10
453563.0
20
2200.0
30
0
11
453543.5
21
2211.26
31
0
0
LINE
8
electrical
10
453543.5
20
2211.26
30
0
11
453543.5
21
2188.74
31
0
0
LINE
8
electrical
10
453543.5
20
2188.74
30
0
11
453563.0
21
2200.0
31
0
0
LINE
8
electrical
10
449492.83
20
4869.16
30
0
11
449503.59
21
4885.42
31
0
0
LINE
8
electrical
10
449503.59
20
4885.42
30
0
11
449503.59
21
4885.42
31
0
0
LINE
8
electrical
10
449503.59
20
4885.42
30
0
11
449492.83
21
4869.16
31
0
0
LINE
8
electrical
10
453542.83
20
2189.16
30
0
11
449492.83
21
4869.16
31
0
0
LINE
8
electrical
10
453542.83
20
2189.16
30
0
11
453553.59
21
2205.42
31
0
0
LINE
8
electrical
10
453553.59
20
2205.42
30
0
11
453553.59
21
2205.42
31
0
0
LINE
8
electrical
10
453553.59
20
2205.42
30
0
11
453542.83
21
2189.16
31
0
0
LINE
8
electrical
10
428500.0
20
4880.0
30
0
11
428500.0
21
4868.74
31
0
0
LINE
8
electrical
10
428500.0
20
4868.74
30
0
11
428500.0
21
4891.26
31
0
0
LINE
8
electrical
10
428500.0
20
4891.26
30
0
11
428500.0
21
4880.0
31
0
0
LINE
8
electrical
10
449500.0
20
4880.0
30
0
11
428500.0
21
4880.0
31
0
0
LINE
8
electrical
10
449500.0
20
4880.0
30
0
11
449500.0
21
4868.74
31
0
0
LINE
8
electrical
10
449500.0
20
4868.74
30
0
11
449500.0
21
4891.26
31
0
0
LINE
8
electrical
10
449500.0
20
4891.26
30
0
11
449500.0
21
4880.0
31
0
0
LINE
8
electrical
10
453550.0
20
2200.0
30
0
11
453564.04
21
2200.0
31
0
0
LINE
8
electrical
10
453564.04
20
2200.0
30
0
11
453550.0
21
2200.0
31
0
0
LINE
8
electrical
10
449500.0
20
4880.0
30
0
11
449514.04
21
4880.0
31
0
0
LINE
8
electrical
10
449514.04
20
4880.0
30
0
11
449500.0
21
4880.0
31
0
0
LINE
8
electrical
10
453563.0
20
2200.0
30
0
11
453543.5
21
2211.26
31
0
0
LINE
8
electrical
10
453543.5
20
2211.26
30
0
11
453543.5
21
2188.74
31
0
0
LINE
8
electrical
10
453543.5
20
2188.74
30
0
11
453563.0
21
2200.0
31
0
0
LINE
8
electrical
10
449492.61
20
4989.31
30
0
11
449503.7
21
5005.35
31
0
0
LINE
8
electrical
10
449503.7
20
5005.35
30
0
11
449503.7
21
5005.35
31
0
0
LINE
8
electrical
10
449503.7
20
5005.35
30
0
11
449492.61
21
4989.31
31
0
0
LINE
8
electrical
10
453542.61
20
2189.31
30
0
11
449492.61
21
4989.31
31
0
0
LINE
8
electrical
10
453542.61
20
2189.31
30
0
11
453553.7
21
2205.35
31
0
0
LINE
8
electrical
10
453553.7
20
2205.35
30
0
11
453553.7
21
2205.35
31
0
0
LINE
8
electrical
10
453553.7
20
2205.35
30
0
11
453542.61
21
2189.31
31
0
0
LINE
8
electrical
10
428500.0
20
5000.0
30
0
11
428500.0
21
4988.74
31
0
0
LINE
8
electrical
10
428500.0
20
4988.74
30
0
11
428500.0
21
5011.26
31
0
0
LINE
8
electrical
10
428500.0
20
5011.26
30
0
11
428500.0
21
5000.0
31
0
0
LINE
8
electrical
10
449500.0
20
5000.0
30
0
11
428500.0
21
5000.0
31
0
0
LINE
8
electrical
10
449500.0
20
5000.0
30
0
11
449500.0
21
4988.74
31
0
0
LINE
8
electrical
10
449500.0
20
4988.74
30
0
11
449500.0
21
5011.26
31
0
0
LINE
8
electrical
10
449500.0
20
5011.26
30
0
11
449500.0
21
5000.0
31
0
0
LINE
8
electrical
10
453550.0
20
2200.0
30
0
11
453564.04
21
2200.0
31
0
0
LINE
8
electrical
10
453564.04
20
2200.0
30
0
11
453550.0
21
2200.0
31
0
0
LINE
8
electrical
10
449500.0
20
5000.0
30
0
11
449514.04
21
5000.0
31
0
0
LINE
8
electrical
10
449514.04
20
5000.0
30
0
11
449500.0
21
5000.0
31
0
0
LINE
8
electrical
10
453563.0
20
2200.0
30
0
11
453543.5
21
2211.26
31
0
0
LINE
8
electrical
10
453543.5
20
2211.26
30
0
11
453543.5
21
2188.74
31
0
0
LINE
8
electrical
10
453543.5
20
2188.74
30
0
11
453563.0
21
2200.0
31
0
0
LINE
8
electrical
10
449492.4
20
5109.45
30
0
11
449503.8
21
5125.27
31
0
0
LINE
8
electrical
10
449503.8
20
5125.27
30
0
11
449503.8
21
5125.27
31
0
0
LINE
8
electrical
10
449503.8
20
5125.27
30
0
11
449492.4
21
5109.45
31
0
0
LINE
8
electrical
10
453542.4
20
2189.45
30
0
11
449492.4
21
5109.45
31
0
0
LINE
8
electrical
10
453542.4
20
2189.45
30
0
11
453553.8
21
2205.27
31
0
0
LINE
8
electrical
10
453553.8
20
2205.27
30
0
11
453553.8
21
2205.27
31
0
0
LINE
8
electrical
10
453553.8
20
2205.27
30
0
11
453542.4
21
2189.45
31
0
0
LINE
8
electrical
10
428500.0
20
5120.0
30
0
11
428500.0
21
5108.74
31
0
0
LINE
8
electrical
10
428500.0
20
5108.74
30
0
11
428500.0
21
5131.26
31
0
0
LINE
8
electrical
10
428500.0
20
5131.26
30
0
11
428500.0
21
5120.0
31
0
0
LINE
8
electrical
10
449500.0
20
5120.0
30
0
11
428500.0
21
5120.0
31
0
0
LINE
8
electrical
10
449500.0
20
5120.0
30
0
11
449500.0
21
5108.74
31
0
0
LINE
8
electrical
10
449500.0
20
5108.74
30
0
11
449500.0
21
5131.26
31
0
0
LINE
8
electrical
10
449500.0
20
5131.26
30
0
11
449500.0
21
5120.0
31
0
0
LINE
8
electrical
10
453550.0
20
2200.0
30
0
11
453564.04
21
2200.0
31
0
0
LINE
8
electrical
10
453564.04
20
2200.0
30
0
11
453550.0
21
2200.0
31
0
0
LINE
8
electrical
10
449500.0
20
5120.0
30
0
11
449514.04
21
5120.0
31
0
0
LINE
8
electrical
10
449514.04
20
5120.0
30
0
11
449500.0
21
5120.0
31
0
0
LINE
8
electrical
10
429935.0
20
2150.0
30
0
11
429935.0
21
2210.0
31
0
0
LINE
8
electrical
10
430065.0
20
2150.0
30
0
11
430065.0
21
2210.0
31
0
0
LINE
8
electrical
10
429935.0
20
2150.0
30
0
11
430065.0
21
2150.0
31
0
0
LINE
8
electrical
10
429935.0
20
2210.0
30
0
11
430065.0
21
2210.0
31
0
0
LINE
8
electrical
10
430009.0
20
2180.0
30
0
11
429995.5
21
2187.79
31
0
0
LINE
8
electrical
10
429995.5
20
2187.79
30
0
11
429995.5
21
2172.21
31
0
0
LINE
8
electrical
10
429995.5
20
2172.21
30
0
11
430009.0
21
2180.0
31
0
0
LINE
8
electrical
10
453550.0
20
2180.0
30
0
11
453550.0
21
2172.21
31
0
0
LINE
8
electrical
10
453550.0
20
2172.21
30
0
11
453550.0
21
2187.79
31
0
0
LINE
8
electrical
10
453550.0
20
2187.79
30
0
11
453550.0
21
2180.0
31
0
0
LINE
8
electrical
10
430000.0
20
2180.0
30
0
11
453550.0
21
2180.0
31
0
0
LINE
8
electrical
10
430000.0
20
2180.0
30
0
11
430000.0
21
2172.21
31
0
0
LINE
8
electrical
10
430000.0
20
2172.21
30
0
11
430000.0
21
2187.79
31
0
0
LINE
8
electrical
10
430000.0
20
2187.79
30
0
11
430000.0
21
2180.0
31
0
0
LINE
8
electrical
10
430000.0
20
2180.0
30
0
11
430009.72
21
2180.0
31
0
0
LINE
8
electrical
10
430009.72
20
2180.0
30
0
11
430000.0
21
2180.0
31
0
0
LINE
8
electrical
10
447935.0
20
2150.0
30
0
11
447935.0
21
2210.0
31
0
0
LINE
8
electrical
10
448065.0
20
2150.0
30
0
11
448065.0
21
2210.0
31
0
0
LINE
8
electrical
10
447935.0
20
2150.0
30
0
11
448065.0
21
2150.0
31
0
0
LINE
8
electrical
10
447935.0
20
2210.0
30
0
11
448065.0
21
2210.0
31
0
0
LINE
8
electrical
10
448009.0
20
2180.0
30
0
11
447995.5
21
2187.79
31
0
0
LINE
8
electrical
10
447995.5
20
2187.79
30
0
11
447995.5
21
2172.21
31
0
0
LINE
8
electrical
10
447995.5
20
2172.21
30
0
11
448009.0
21
2180.0
31
0
0
LINE
8
electrical
10
453550.0
20
2180.0
30
0
11
453550.0
21
2172.21
31
0
0
LINE
8
electrical
10
453550.0
20
2172.21
30
0
11
453550.0
21
2187.79
31
0
0
LINE
8
electrical
10
453550.0
20
2187.79
30
0
11
453550.0
21
2180.0
31
0
0
LINE
8
electrical
10
448000.0
20
2180.0
30
0
11
453550.0
21
2180.0
31
0
0
LINE
8
electrical
10
448000.0
20
2180.0
30
0
11
448000.0
21
2172.21
31
0
0
LINE
8
electrical
10
448000.0
20
2172.21
30
0
11
448000.0
21
2187.79
31
0
0
LINE
8
electrical
10
448000.0
20
2187.79
30
0
11
448000.0
21
2180.0
31
0
0
LINE
8
electrical
10
448000.0
20
2180.0
30
0
11
448009.72
21
2180.0
31
0
0
LINE
8
electrical
10
448009.72
20
2180.0
30
0
11
448000.0
21
2180.0
31
0
0
LINE
8
hvac
10
424475.0
20
2725.0
30
0
11
424475.0
21
3475.0
31
0
0
LINE
8
hvac
10
426125.0
20
2725.0
30
0
11
426125.0
21
3475.0
31
0
0
LINE
8
hvac
10
424475.0
20
2725.0
30
0
11
426125.0
21
2725.0
31
0
0
LINE
8
hvac
10
424475.0
20
3475.0
30
0
11
426125.0
21
3475.0
31
0
0
LINE
8
hvac
10
424575.0
20
2680.0
30
0
11
424575.0
21
2720.0
31
0
0
LINE
8
hvac
10
426025.0
20
2680.0
30
0
11
426025.0
21
2720.0
31
0
0
LINE
8
hvac
10
424575.0
20
2680.0
30
0
11
426025.0
21
2680.0
31
0
0
LINE
8
hvac
10
424575.0
20
2720.0
30
0
11
426025.0
21
2720.0
31
0
0
LINE
8
hvac
10
424640.0
20
2640.0
30
0
11
424640.0
21
2700.0
31
0
0
LINE
8
hvac
10
424680.0
20
2640.0
30
0
11
424680.0
21
2700.0
31
0
0
LINE
8
hvac
10
424640.0
20
2640.0
30
0
11
424680.0
21
2640.0
31
0
0
LINE
8
hvac
10
424640.0
20
2700.0
30
0
11
424680.0
21
2700.0
31
0
0
LINE
8
hvac
10
424800.0
20
2640.0
30
0
11
424800.0
21
2700.0
31
0
0
LINE
8
hvac
10
424840.0
20
2640.0
30
0
11
424840.0
21
2700.0
31
0
0
LINE
8
hvac
10
424800.0
20
2640.0
30
0
11
424840.0
21
2640.0
31
0
0
LINE
8
hvac
10
424800.0
20
2700.0
30
0
11
424840.0
21
2700.0
31
0
0
LINE
8
hvac
10
424960.0
20
2640.0
30
0
11
424960.0
21
2700.0
31
0
0
LINE
8
hvac
10
425000.0
20
2640.0
30
0
11
425000.0
21
2700.0
31
0
0
LINE
8
hvac
10
424960.0
20
2640.0
30
0
11
425000.0
21
2640.0
31
0
0
LINE
8
hvac
10
424960.0
20
2700.0
30
0
11
425000.0
21
2700.0
31
0
0
LINE
8
hvac
10
425120.0
20
2640.0
30
0
11
425120.0
21
2700.0
31
0
0
LINE
8
hvac
10
425160.0
20
2640.0
30
0
11
425160.0
21
2700.0
31
0
0
LINE
8
hvac
10
425120.0
20
2640.0
30
0
11
425160.0
21
2640.0
31
0
0
LINE
8
hvac
10
425120.0
20
2700.0
30
0
11
425160.0
21
2700.0
31
0
0
LINE
8
hvac
10
425280.0
20
2640.0
30
0
11
425280.0
21
2700.0
31
0
0
LINE
8
hvac
10
425320.0
20
2640.0
30
0
11
425320.0
21
2700.0
31
0
0
LINE
8
hvac
10
425280.0
20
2640.0
30
0
11
425320.0
21
2640.0
31
0
0
LINE
8
hvac
10
425280.0
20
2700.0
30
0
11
425320.0
21
2700.0
31
0
0
LINE
8
hvac
10
425440.0
20
2640.0
30
0
11
425440.0
21
2700.0
31
0
0
LINE
8
hvac
10
425480.0
20
2640.0
30
0
11
425480.0
21
2700.0
31
0
0
LINE
8
hvac
10
425440.0
20
2640.0
30
0
11
425480.0
21
2640.0
31
0
0
LINE
8
hvac
10
425440.0
20
2700.0
30
0
11
425480.0
21
2700.0
31
0
0
LINE
8
hvac
10
425600.0
20
2640.0
30
0
11
425600.0
21
2700.0
31
0
0
LINE
8
hvac
10
425640.0
20
2640.0
30
0
11
425640.0
21
2700.0
31
0
0
LINE
8
hvac
10
425600.0
20
2640.0
30
0
11
425640.0
21
2640.0
31
0
0
LINE
8
hvac
10
425600.0
20
2700.0
30
0
11
425640.0
21
2700.0
31
0
0
LINE
8
hvac
10
425760.0
20
2640.0
30
0
11
425760.0
21
2700.0
31
0
0
LINE
8
hvac
10
425800.0
20
2640.0
30
0
11
425800.0
21
2700.0
31
0
0
LINE
8
hvac
10
425760.0
20
2640.0
30
0
11
425800.0
21
2640.0
31
0
0
LINE
8
hvac
10
425760.0
20
2700.0
30
0
11
425800.0
21
2700.0
31
0
0
LINE
8
hvac
10
425920.0
20
2640.0
30
0
11
425920.0
21
2700.0
31
0
0
LINE
8
hvac
10
425960.0
20
2640.0
30
0
11
425960.0
21
2700.0
31
0
0
LINE
8
hvac
10
425920.0
20
2640.0
30
0
11
425960.0
21
2640.0
31
0
0
LINE
8
hvac
10
425920.0
20
2700.0
30
0
11
425960.0
21
2700.0
31
0
0
LINE
8
hvac
10
425075.0
20
2875.0
30
0
11
425075.0
21
3325.0
31
0
0
LINE
8
hvac
10
425525.0
20
2875.0
30
0
11
425525.0
21
3325.0
31
0
0
LINE
8
hvac
10
425075.0
20
2875.0
30
0
11
425525.0
21
2875.0
31
0
0
LINE
8
hvac
10
425075.0
20
3325.0
30
0
11
425525.0
21
3325.0
31
0
0
LINE
8
hvac
10
428500.0
20
11825.0
30
0
11
428500.0
21
12175.0
31
0
0
LINE
8
hvac
10
449500.0
20
11825.0
30
0
11
449500.0
21
12175.0
31
0
0
LINE
8
hvac
10
428500.0
20
11825.0
30
0
11
449500.0
21
11825.0
31
0
0
LINE
8
hvac
10
428500.0
20
12175.0
30
0
11
449500.0
21
12175.0
31
0
0
LINE
8
hvac
10
425125.0
20
2925.0
30
0
11
425125.0
21
3275.0
31
0
0
LINE
8
hvac
10
439175.0
20
2925.0
30
0
11
439175.0
21
3275.0
31
0
0
LINE
8
hvac
10
425125.0
20
2925.0
30
0
11
439175.0
21
2925.0
31
0
0
LINE
8
hvac
10
425125.0
20
3275.0
30
0
11
439175.0
21
3275.0
31
0
0
LINE
8
hvac
10
438825.0
20
2925.0
30
0
11
438825.0
21
12175.0
31
0
0
LINE
8
hvac
10
439175.0
20
2925.0
30
0
11
439175.0
21
12175.0
31
0
0
LINE
8
hvac
10
438825.0
20
2925.0
30
0
11
439175.0
21
2925.0
31
0
0
LINE
8
hvac
10
438825.0
20
12175.0
30
0
11
439175.0
21
12175.0
31
0
0
LINE
8
hvac
10
432650.0
20
11650.0
30
0
11
432650.0
21
12350.0
31
0
0
LINE
8
hvac
10
433350.0
20
11650.0
30
0
11
433350.0
21
12350.0
31
0
0
LINE
8
hvac
10
432650.0
20
11650.0
30
0
11
433350.0
21
11650.0
31
0
0
LINE
8
hvac
10
432650.0
20
12350.0
30
0
11
433350.0
21
12350.0
31
0
0
LINE
8
hvac
10
444650.0
20
11650.0
30
0
11
444650.0
21
12350.0
31
0
0
LINE
8
hvac
10
445350.0
20
11650.0
30
0
11
445350.0
21
12350.0
31
0
0
LINE
8
hvac
10
444650.0
20
11650.0
30
0
11
445350.0
21
11650.0
31
0
0
LINE
8
hvac
10
444650.0
20
12350.0
30
0
11
445350.0
21
12350.0
31
0
0
LINE
8
water
10
452490.0
20
14680.0
30
0
11
452490.0
21
15320.0
31
0
0
LINE
8
water
10
453410.0
20
14680.0
30
0
11
453410.0
21
15320.0
31
0
0
LINE
8
water
10
452490.0
20
14680.0
30
0
11
453410.0
21
14680.0
31
0
0
LINE
8
water
10
452490.0
20
15320.0
30
0
11
453410.0
21
15320.0
31
0
0
LINE
8
water
10
452500.0
20
14690.0
30
0
11
452500.0
21
15310.0
31
0
0
LINE
8
water
10
452500.0
20
14690.0
30
0
11
453400.0
21
14690.0
31
0
0
LINE
8
water
10
452500.0
20
15310.0
30
0
11
453400.0
21
15310.0
31
0
0
LINE
8
water
10
453400.0
20
14690.0
30
0
11
453400.0
21
15310.0
31
0
0
LINE
8
water
10
453275.0
20
14785.0
30
0
11
452625.0
21
14785.0
31
0
0
LINE
8
water
10
453275.0
20
14785.0
30
0
11
453275.0
21
15215.0
31
0
0
LINE
8
water
10
453275.0
20
15215.0
30
0
11
452625.0
21
15215.0
31
0
0
LINE
8
water
10
452625.0
20
14785.0
30
0
11
452625.0
21
15215.0
31
0
0
LINE
8
water
10
452968.0
20
15220.0
30
0
11
452941.0
21
15235.59
31
0
0
LINE
8
water
10
452941.0
20
15235.59
30
0
11
452941.0
21
15204.41
31
0
0
LINE
8
water
10
452941.0
20
15204.41
30
0
11
452968.0
21
15220.0
31
0
0
LINE
8
water
10
452950.0
20
15000.0
30
0
11
452965.59
21
15000.0
31
0
0
LINE
8
water
10
452965.59
20
15000.0
30
0
11
452934.41
21
15000.0
31
0
0
LINE
8
water
10
452934.41
20
15000.0
30
0
11
452950.0
21
15000.0
31
0
0
LINE
8
water
10
452950.0
20
15220.0
30
0
11
452950.0
21
15000.0
31
0
0
LINE
8
water
10
452950.0
20
15220.0
30
0
11
452965.59
21
15220.0
31
0
0
LINE
8
water
10
452965.59
20
15220.0
30
0
11
452934.41
21
15220.0
31
0
0
LINE
8
water
10
452934.41
20
15220.0
30
0
11
452950.0
21
15220.0
31
0
0
LINE
8
water
10
452950.0
20
15220.0
30
0
11
452969.44
21
15220.0
31
0
0
LINE
8
water
10
452969.44
20
15220.0
30
0
11
452950.0
21
15220.0
31
0
0
LINE
8
water
10
452895.0
20
15000.0
30
0
11
452950.0
21
15055.0
31
0
0
LINE
8
water
10
452950.0
20
15055.0
30
0
11
453005.0
21
15000.0
31
0
0
LINE
8
water
10
453005.0
20
15000.0
30
0
11
452950.0
21
14945.0
31
0
0
LINE
8
water
10
452950.0
20
14945.0
30
0
11
452895.0
21
15000.0
31
0
0
LINE
8
water
10
452950.0
20
13800.0
30
0
11
453005.0
21
13800.0
31
0
0
LINE
8
water
10
453005.0
20
13800.0
30
0
11
452950.0
21
13800.0
31
0
0
LINE
8
water
10
452950.0
20
13800.0
30
0
11
452895.0
21
13800.0
31
0
0
LINE
8
water
10
452895.0
20
13800.0
30
0
11
452950.0
21
13800.0
31
0
0
LINE
8
water
10
452950.0
20
15000.0
30
0
11
452950.0
21
13800.0
31
0
0
LINE
8
water
10
452950.0
20
15000.0
30
0
11
453005.0
21
15000.0
31
0
0
LINE
8
water
10
453005.0
20
15000.0
30
0
11
452950.0
21
15000.0
31
0
0
LINE
8
water
10
452950.0
20
15000.0
30
0
11
452895.0
21
15000.0
31
0
0
LINE
8
water
10
452895.0
20
15000.0
30
0
11
452950.0
21
15000.0
31
0
0
LINE
8
water
10
452895.0
20
13800.0
30
0
11
452950.0
21
13855.0
31
0
0
LINE
8
water
10
452950.0
20
13855.0
30
0
11
453005.0
21
13800.0
31
0
0
LINE
8
water
10
453005.0
20
13800.0
30
0
11
452950.0
21
13745.0
31
0
0
LINE
8
water
10
452950.0
20
13745.0
30
0
11
452895.0
21
13800.0
31
0
0
LINE
8
water
10
452950.0
20
-58000.0
30
0
11
453005.0
21
-58000.0
31
0
0
LINE
8
water
10
453005.0
20
-58000.0
30
0
11
452950.0
21
-58000.0
31
0
0
LINE
8
water
10
452950.0
20
-58000.0
30
0
11
452895.0
21
-58000.0
31
0
0
LINE
8
water
10
452895.0
20
-58000.0
30
0
11
452950.0
21
-58000.0
31
0
0
LINE
8
water
10
452950.0
20
13800.0
30
0
11
452950.0
21
-58000.0
31
0
0
LINE
8
water
10
305000.0
20
-58000.0
30
0
11
305000.0
21
-58055.0
31
0
0
LINE
8
water
10
305000.0
20
-58055.0
30
0
11
305000.0
21
-58000.0
31
0
0
LINE
8
water
10
305000.0
20
-58000.0
30
0
11
305000.0
21
-57945.0
31
0
0
LINE
8
water
10
305000.0
20
-57945.0
30
0
11
305000.0
21
-58000.0
31
0
0
LINE
8
water
10
452950.0
20
-58000.0
30
0
11
305000.0
21
-58000.0
31
0
0
LINE
8
water
10
452950.0
20
-58000.0
30
0
11
452950.0
21
-58055.0
31
0
0
LINE
8
water
10
452950.0
20
-58055.0
30
0
11
452950.0
21
-58000.0
31
0
0
LINE
8
water
10
452950.0
20
-58000.0
30
0
11
452950.0
21
-57945.0
31
0
0
LINE
8
water
10
452950.0
20
-57945.0
30
0
11
452950.0
21
-58000.0
31
0
0
LINE
8
water
10
452950.0
20
15000.0
30
0
11
453009.4
21
15000.0
31
0
0
LINE
8
water
10
453009.4
20
15000.0
30
0
11
452950.0
21
15000.0
31
0
0
LINE
8
water
10
452950.0
20
13800.0
30
0
11
453009.4
21
13800.0
31
0
0
LINE
8
water
10
453009.4
20
13800.0
30
0
11
452950.0
21
13800.0
31
0
0
LINE
8
water
10
452950.0
20
-58000.0
30
0
11
453009.4
21
-58000.0
31
0
0
LINE
8
water
10
453009.4
20
-58000.0
30
0
11
452950.0
21
-58000.0
31
0
0
LINE
8
water
10
453270.0
20
13750.0
30
0
11
453176.27
21
13976.27
31
0
0
LINE
8
water
10
453176.27
20
13976.27
30
0
11
452950.0
21
14070.0
31
0
0
LINE
8
water
10
452950.0
20
14070.0
30
0
11
452723.73
21
13976.27
31
0
0
LINE
8
water
10
452723.73
20
13976.27
30
0
11
452630.0
21
13750.0
31
0
0
LINE
8
water
10
452630.0
20
13750.0
30
0
11
452723.73
21
13523.73
31
0
0
LINE
8
water
10
452723.73
20
13523.73
30
0
11
452950.0
21
13430.0
31
0
0
LINE
8
water
10
452950.0
20
13430.0
30
0
11
453176.27
21
13523.73
31
0
0
LINE
8
water
10
453176.27
20
13523.73
30
0
11
453270.0
21
13750.0
31
0
0
LINE
8
water
10
452760.0
20
13625.0
30
0
11
452760.0
21
13875.0
31
0
0
LINE
8
water
10
453140.0
20
13625.0
30
0
11
453140.0
21
13875.0
31
0
0
LINE
8
water
10
452760.0
20
13625.0
30
0
11
453140.0
21
13625.0
31
0
0
LINE
8
water
10
452760.0
20
13875.0
30
0
11
453140.0
21
13875.0
31
0
0
LINE
8
water
10
444155.0
20
2400.0
30
0
11
444155.0
21
2325.0
31
0
0
LINE
8
water
10
444155.0
20
2325.0
30
0
11
444155.0
21
2400.0
31
0
0
LINE
8
water
10
444155.0
20
2400.0
30
0
11
444155.0
21
2475.0
31
0
0
LINE
8
water
10
444155.0
20
2475.0
30
0
11
444155.0
21
2400.0
31
0
0
LINE
8
water
10
443755.0
20
2400.0
30
0
11
444155.0
21
2400.0
31
0
0
LINE
8
water
10
443755.0
20
2400.0
30
0
11
443755.0
21
2325.0
31
0
0
LINE
8
water
10
443755.0
20
2325.0
30
0
11
443755.0
21
2400.0
31
0
0
LINE
8
water
10
443755.0
20
2400.0
30
0
11
443755.0
21
2475.0
31
0
0
LINE
8
water
10
443755.0
20
2475.0
30
0
11
443755.0
21
2400.0
31
0
0
LINE
8
water
10
444045.0
20
2400.0
30
0
11
443982.81
21
2485.6
31
0
0
LINE
8
water
10
443982.81
20
2485.6
30
0
11
443882.19
21
2452.9
31
0
0
LINE
8
water
10
443882.19
20
2452.9
30
0
11
443882.19
21
2347.1
31
0
0
LINE
8
water
10
443882.19
20
2347.1
30
0
11
443982.81
21
2314.4
31
0
0
LINE
8
water
10
443982.81
20
2314.4
30
0
11
444045.0
21
2400.0
31
0
0
LINE
8
water
10
443765.0
20
2375.0
30
0
11
443765.0
21
2425.0
31
0
0
LINE
8
water
10
444145.0
20
2375.0
30
0
11
444145.0
21
2425.0
31
0
0
LINE
8
water
10
443765.0
20
2375.0
30
0
11
444145.0
21
2375.0
31
0
0
LINE
8
water
10
443765.0
20
2425.0
30
0
11
444145.0
21
2425.0
31
0
0
LINE
8
water
10
443830.0
20
2400.0
30
0
11
443830.0
21
2295.38
31
0
0
LINE
8
water
10
443830.0
20
2295.38
30
0
11
443830.0
21
2335.34
31
0
0
LINE
8
water
10
443830.0
20
2335.34
30
0
11
443830.0
21
2464.66
31
0
0
LINE
8
water
10
443830.0
20
2464.66
30
0
11
443830.0
21
2504.62
31
0
0
LINE
8
water
10
443830.0
20
2504.62
30
0
11
443830.0
21
2400.0
31
0
0
LINE
8
water
10
443805.0
20
2400.0
30
0
11
443830.0
21
2400.0
31
0
0
LINE
8
water
10
443805.0
20
2400.0
30
0
11
443805.0
21
2295.38
31
0
0
LINE
8
water
10
443805.0
20
2295.38
30
0
11
443805.0
21
2335.34
31
0
0
LINE
8
water
10
443805.0
20
2335.34
30
0
11
443805.0
21
2464.66
31
0
0
LINE
8
water
10
443805.0
20
2464.66
30
0
11
443805.0
21
2504.62
31
0
0
LINE
8
water
10
443805.0
20
2504.62
30
0
11
443805.0
21
2400.0
31
0
0
LINE
8
water
10
444130.0
20
2400.0
30
0
11
444130.0
21
2295.38
31
0
0
LINE
8
water
10
444130.0
20
2295.38
30
0
11
444130.0
21
2335.34
31
0
0
LINE
8
water
10
444130.0
20
2335.34
30
0
11
444130.0
21
2464.66
31
0
0
LINE
8
water
10
444130.0
20
2464.66
30
0
11
444130.0
21
2504.62
31
0
0
LINE
8
water
10
444130.0
20
2504.62
30
0
11
444130.0
21
2400.0
31
0
0
LINE
8
water
10
444105.0
20
2400.0
30
0
11
444130.0
21
2400.0
31
0
0
LINE
8
water
10
444105.0
20
2400.0
30
0
11
444105.0
21
2295.38
31
0
0
LINE
8
water
10
444105.0
20
2295.38
30
0
11
444105.0
21
2335.34
31
0
0
LINE
8
water
10
444105.0
20
2335.34
30
0
11
444105.0
21
2464.66
31
0
0
LINE
8
water
10
444105.0
20
2464.66
30
0
11
444105.0
21
2504.62
31
0
0
LINE
8
water
10
444105.0
20
2504.62
30
0
11
444105.0
21
2400.0
31
0
0
LINE
8
water
10
440100.0
20
2400.0
30
0
11
440130.31
21
2400.0
31
0
0
LINE
8
water
10
440130.31
20
2400.0
30
0
11
440069.69
21
2400.0
31
0
0
LINE
8
water
10
440069.69
20
2400.0
30
0
11
440100.0
21
2400.0
31
0
0
LINE
8
water
10
440100.0
20
-60500.0
30
0
11
440100.0
21
2400.0
31
0
0
LINE
8
water
10
440100.0
20
-60500.0
30
0
11
440130.31
21
-60500.0
31
0
0
LINE
8
water
10
440130.31
20
-60500.0
30
0
11
440069.69
21
-60500.0
31
0
0
LINE
8
water
10
440069.69
20
-60500.0
30
0
11
440100.0
21
-60500.0
31
0
0
LINE
8
water
10
452950.0
20
2400.0
30
0
11
452950.0
21
2369.69
31
0
0
LINE
8
water
10
452950.0
20
2369.69
30
0
11
452950.0
21
2430.31
31
0
0
LINE
8
water
10
452950.0
20
2430.31
30
0
11
452950.0
21
2400.0
31
0
0
LINE
8
water
10
440100.0
20
2400.0
30
0
11
452950.0
21
2400.0
31
0
0
LINE
8
water
10
440100.0
20
2400.0
30
0
11
440100.0
21
2369.69
31
0
0
LINE
8
water
10
440100.0
20
2369.69
30
0
11
440100.0
21
2430.31
31
0
0
LINE
8
water
10
440100.0
20
2430.31
30
0
11
440100.0
21
2400.0
31
0
0
LINE
8
water
10
452950.0
20
15230.0
30
0
11
452980.31
21
15230.0
31
0
0
LINE
8
water
10
452980.31
20
15230.0
30
0
11
452919.69
21
15230.0
31
0
0
LINE
8
water
10
452919.69
20
15230.0
30
0
11
452950.0
21
15230.0
31
0
0
LINE
8
water
10
452950.0
20
2400.0
30
0
11
452950.0
21
15230.0
31
0
0
LINE
8
water
10
452950.0
20
2400.0
30
0
11
452980.31
21
2400.0
31
0
0
LINE
8
water
10
452980.31
20
2400.0
30
0
11
452919.69
21
2400.0
31
0
0
LINE
8
water
10
452919.69
20
2400.0
30
0
11
452950.0
21
2400.0
31
0
0
LINE
8
water
10
452915.0
20
15230.0
30
0
11
452967.5
21
15260.31
31
0
0
LINE
8
water
10
452967.5
20
15260.31
30
0
11
452967.5
21
15199.69
31
0
0
LINE
8
water
10
452967.5
20
15199.69
30
0
11
452915.0
21
15230.0
31
0
0
LINE
8
water
10
440100.0
20
2400.0
30
0
11
440137.8
21
2400.0
31
0
0
LINE
8
water
10
440137.8
20
2400.0
30
0
11
440100.0
21
2400.0
31
0
0
LINE
8
water
10
452950.0
20
2400.0
30
0
11
452987.8
21
2400.0
31
0
0
LINE
8
water
10
452987.8
20
2400.0
30
0
11
452950.0
21
2400.0
31
0
0
LINE
8
water
10
452950.0
20
15230.0
30
0
11
452987.8
21
15230.0
31
0
0
LINE
8
water
10
452987.8
20
15230.0
30
0
11
452950.0
21
15230.0
31
0
0
LINE
8
water
10
444364.0
20
2400.0
30
0
11
444364.0
21
2325.0
31
0
0
LINE
8
water
10
444364.0
20
2325.0
30
0
11
444364.0
21
2400.0
31
0
0
LINE
8
water
10
444364.0
20
2400.0
30
0
11
444364.0
21
2475.0
31
0
0
LINE
8
water
10
444364.0
20
2475.0
30
0
11
444364.0
21
2400.0
31
0
0
LINE
8
water
10
443964.0
20
2400.0
30
0
11
444364.0
21
2400.0
31
0
0
LINE
8
water
10
443964.0
20
2400.0
30
0
11
443964.0
21
2325.0
31
0
0
LINE
8
water
10
443964.0
20
2325.0
30
0
11
443964.0
21
2400.0
31
0
0
LINE
8
water
10
443964.0
20
2400.0
30
0
11
443964.0
21
2475.0
31
0
0
LINE
8
water
10
443964.0
20
2475.0
30
0
11
443964.0
21
2400.0
31
0
0
LINE
8
water
10
444254.0
20
2400.0
30
0
11
444191.81
21
2485.6
31
0
0
LINE
8
water
10
444191.81
20
2485.6
30
0
11
444091.19
21
2452.9
31
0
0
LINE
8
water
10
444091.19
20
2452.9
30
0
11
444091.19
21
2347.1
31
0
0
LINE
8
water
10
444091.19
20
2347.1
30
0
11
444191.81
21
2314.4
31
0
0
LINE
8
water
10
444191.81
20
2314.4
30
0
11
444254.0
21
2400.0
31
0
0
LINE
8
water
10
443974.0
20
2375.0
30
0
11
443974.0
21
2425.0
31
0
0
LINE
8
water
10
444354.0
20
2375.0
30
0
11
444354.0
21
2425.0
31
0
0
LINE
8
water
10
443974.0
20
2375.0
30
0
11
444354.0
21
2375.0
31
0
0
LINE
8
water
10
443974.0
20
2425.0
30
0
11
444354.0
21
2425.0
31
0
0
LINE
8
water
10
444039.0
20
2400.0
30
0
11
444039.0
21
2295.38
31
0
0
LINE
8
water
10
444039.0
20
2295.38
30
0
11
444039.0
21
2335.34
31
0
0
LINE
8
water
10
444039.0
20
2335.34
30
0
11
444039.0
21
2464.66
31
0
0
LINE
8
water
10
444039.0
20
2464.66
30
0
11
444039.0
21
2504.62
31
0
0
LINE
8
water
10
444039.0
20
2504.62
30
0
11
444039.0
21
2400.0
31
0
0
LINE
8
water
10
444014.0
20
2400.0
30
0
11
444039.0
21
2400.0
31
0
0
LINE
8
water
10
444014.0
20
2400.0
30
0
11
444014.0
21
2295.38
31
0
0
LINE
8
water
10
444014.0
20
2295.38
30
0
11
444014.0
21
2335.34
31
0
0
LINE
8
water
10
444014.0
20
2335.34
30
0
11
444014.0
21
2464.66
31
0
0
LINE
8
water
10
444014.0
20
2464.66
30
0
11
444014.0
21
2504.62
31
0
0
LINE
8
water
10
444014.0
20
2504.62
30
0
11
444014.0
21
2400.0
31
0
0
LINE
8
water
10
444339.0
20
2400.0
30
0
11
444339.0
21
2295.38
31
0
0
LINE
8
water
10
444339.0
20
2295.38
30
0
11
444339.0
21
2335.34
31
0
0
LINE
8
water
10
444339.0
20
2335.34
30
0
11
444339.0
21
2464.66
31
0
0
LINE
8
water
10
444339.0
20
2464.66
30
0
11
444339.0
21
2504.62
31
0
0
LINE
8
water
10
444339.0
20
2504.62
30
0
11
444339.0
21
2400.0
31
0
0
LINE
8
water
10
444314.0
20
2400.0
30
0
11
444339.0
21
2400.0
31
0
0
LINE
8
water
10
444314.0
20
2400.0
30
0
11
444314.0
21
2295.38
31
0
0
LINE
8
water
10
444314.0
20
2295.38
30
0
11
444314.0
21
2335.34
31
0
0
LINE
8
water
10
444314.0
20
2335.34
30
0
11
444314.0
21
2464.66
31
0
0
LINE
8
water
10
444314.0
20
2464.66
30
0
11
444314.0
21
2504.62
31
0
0
LINE
8
water
10
444314.0
20
2504.62
30
0
11
444314.0
21
2400.0
31
0
0
LINE
8
water
10
440450.0
20
2400.0
30
0
11
440480.31
21
2400.0
31
0
0
LINE
8
water
10
440480.31
20
2400.0
30
0
11
440419.69
21
2400.0
31
0
0
LINE
8
water
10
440419.69
20
2400.0
30
0
11
440450.0
21
2400.0
31
0
0
LINE
8
water
10
440450.0
20
-59500.0
30
0
11
440450.0
21
2400.0
31
0
0
LINE
8
water
10
440450.0
20
-59500.0
30
0
11
440480.31
21
-59500.0
31
0
0
LINE
8
water
10
440480.31
20
-59500.0
30
0
11
440419.69
21
-59500.0
31
0
0
LINE
8
water
10
440419.69
20
-59500.0
30
0
11
440450.0
21
-59500.0
31
0
0
LINE
8
water
10
452830.0
20
2400.0
30
0
11
452830.0
21
2369.69
31
0
0
LINE
8
water
10
452830.0
20
2369.69
30
0
11
452830.0
21
2430.31
31
0
0
LINE
8
water
10
452830.0
20
2430.31
30
0
11
452830.0
21
2400.0
31
0
0
LINE
8
water
10
440450.0
20
2400.0
30
0
11
452830.0
21
2400.0
31
0
0
LINE
8
water
10
440450.0
20
2400.0
30
0
11
440450.0
21
2369.69
31
0
0
LINE
8
water
10
440450.0
20
2369.69
30
0
11
440450.0
21
2430.31
31
0
0
LINE
8
water
10
440450.0
20
2430.31
30
0
11
440450.0
21
2400.0
31
0
0
LINE
8
water
10
452830.0
20
15230.0
30
0
11
452860.31
21
15230.0
31
0
0
LINE
8
water
10
452860.31
20
15230.0
30
0
11
452799.69
21
15230.0
31
0
0
LINE
8
water
10
452799.69
20
15230.0
30
0
11
452830.0
21
15230.0
31
0
0
LINE
8
water
10
452830.0
20
2400.0
30
0
11
452830.0
21
15230.0
31
0
0
LINE
8
water
10
452830.0
20
2400.0
30
0
11
452860.31
21
2400.0
31
0
0
LINE
8
water
10
452860.31
20
2400.0
30
0
11
452799.69
21
2400.0
31
0
0
LINE
8
water
10
452799.69
20
2400.0
30
0
11
452830.0
21
2400.0
31
0
0
LINE
8
water
10
452795.0
20
15230.0
30
0
11
452847.5
21
15260.31
31
0
0
LINE
8
water
10
452847.5
20
15260.31
30
0
11
452847.5
21
15199.69
31
0
0
LINE
8
water
10
452847.5
20
15199.69
30
0
11
452795.0
21
15230.0
31
0
0
LINE
8
water
10
440450.0
20
2400.0
30
0
11
440487.8
21
2400.0
31
0
0
LINE
8
water
10
440487.8
20
2400.0
30
0
11
440450.0
21
2400.0
31
0
0
LINE
8
water
10
452830.0
20
2400.0
30
0
11
452867.8
21
2400.0
31
0
0
LINE
8
water
10
452867.8
20
2400.0
30
0
11
452830.0
21
2400.0
31
0
0
LINE
8
water
10
452830.0
20
15230.0
30
0
11
452867.8
21
15230.0
31
0
0
LINE
8
water
10
452867.8
20
15230.0
30
0
11
452830.0
21
15230.0
31
0
0
LINE
8
sensors
10
424040.0
20
6320.0
30
0
11
424040.0
21
6480.0
31
0
0
LINE
8
sensors
10
424140.0
20
6320.0
30
0
11
424140.0
21
6480.0
31
0
0
LINE
8
sensors
10
424040.0
20
6320.0
30
0
11
424140.0
21
6320.0
31
0
0
LINE
8
sensors
10
424040.0
20
6480.0
30
0
11
424140.0
21
6480.0
31
0
0
LINE
8
sensors
10
424145.0
20
6345.0
30
0
11
424145.0
21
6455.0
31
0
0
LINE
8
sensors
10
424165.0
20
6345.0
30
0
11
424165.0
21
6455.0
31
0
0
LINE
8
sensors
10
424145.0
20
6345.0
30
0
11
424165.0
21
6345.0
31
0
0
LINE
8
sensors
10
424145.0
20
6455.0
30
0
11
424165.0
21
6455.0
31
0
0
LINE
8
sensors
10
424040.0
20
6620.0
30
0
11
424040.0
21
6780.0
31
0
0
LINE
8
sensors
10
424140.0
20
6620.0
30
0
11
424140.0
21
6780.0
31
0
0
LINE
8
sensors
10
424040.0
20
6620.0
30
0
11
424140.0
21
6620.0
31
0
0
LINE
8
sensors
10
424040.0
20
6780.0
30
0
11
424140.0
21
6780.0
31
0
0
LINE
8
sensors
10
424145.0
20
6645.0
30
0
11
424145.0
21
6755.0
31
0
0
LINE
8
sensors
10
424165.0
20
6645.0
30
0
11
424165.0
21
6755.0
31
0
0
LINE
8
sensors
10
424145.0
20
6645.0
30
0
11
424165.0
21
6645.0
31
0
0
LINE
8
sensors
10
424145.0
20
6755.0
30
0
11
424165.0
21
6755.0
31
0
0
LINE
8
sensors
10
424040.0
20
6920.0
30
0
11
424040.0
21
7080.0
31
0
0
LINE
8
sensors
10
424140.0
20
6920.0
30
0
11
424140.0
21
7080.0
31
0
0
LINE
8
sensors
10
424040.0
20
6920.0
30
0
11
424140.0
21
6920.0
31
0
0
LINE
8
sensors
10
424040.0
20
7080.0
30
0
11
424140.0
21
7080.0
31
0
0
LINE
8
sensors
10
424145.0
20
6945.0
30
0
11
424145.0
21
7055.0
31
0
0
LINE
8
sensors
10
424165.0
20
6945.0
30
0
11
424165.0
21
7055.0
31
0
0
LINE
8
sensors
10
424145.0
20
6945.0
30
0
11
424165.0
21
6945.0
31
0
0
LINE
8
sensors
10
424145.0
20
7055.0
30
0
11
424165.0
21
7055.0
31
0
0
LINE
8
sensors
10
439080.0
20
12000.0
30
0
11
439000.0
21
12080.0
31
0
0
LINE
8
sensors
10
439000.0
20
12080.0
30
0
11
438920.0
21
12000.0
31
0
0
LINE
8
sensors
10
438920.0
20
12000.0
30
0
11
439000.0
21
11920.0
31
0
0
LINE
8
sensors
10
439000.0
20
11920.0
30
0
11
439080.0
21
12000.0
31
0
0
LINE
8
sensors
10
439000.0
20
12000.0
30
0
11
439065.0
21
12000.0
31
0
0
LINE
8
sensors
10
439065.0
20
12000.0
30
0
11
439000.0
21
12000.0
31
0
0
LINE
8
sensors
10
424040.0
20
7520.0
30
0
11
424040.0
21
7680.0
31
0
0
LINE
8
sensors
10
424140.0
20
7520.0
30
0
11
424140.0
21
7680.0
31
0
0
LINE
8
sensors
10
424040.0
20
7520.0
30
0
11
424140.0
21
7520.0
31
0
0
LINE
8
sensors
10
424040.0
20
7680.0
30
0
11
424140.0
21
7680.0
31
0
0
LINE
8
sensors
10
424145.0
20
7545.0
30
0
11
424145.0
21
7655.0
31
0
0
LINE
8
sensors
10
424165.0
20
7545.0
30
0
11
424165.0
21
7655.0
31
0
0
LINE
8
sensors
10
424145.0
20
7545.0
30
0
11
424165.0
21
7545.0
31
0
0
LINE
8
sensors
10
424145.0
20
7655.0
30
0
11
424165.0
21
7655.0
31
0
0
LINE
8
sensors
10
448562.5
20
2400.0
30
0
11
448562.5
21
2325.0
31
0
0
LINE
8
sensors
10
448562.5
20
2325.0
30
0
11
448562.5
21
2400.0
31
0
0
LINE
8
sensors
10
448562.5
20
2400.0
30
0
11
448562.5
21
2475.0
31
0
0
LINE
8
sensors
10
448562.5
20
2475.0
30
0
11
448562.5
21
2400.0
31
0
0
LINE
8
sensors
10
448342.5
20
2400.0
30
0
11
448562.5
21
2400.0
31
0
0
LINE
8
sensors
10
448342.5
20
2400.0
30
0
11
448342.5
21
2325.0
31
0
0
LINE
8
sensors
10
448342.5
20
2325.0
30
0
11
448342.5
21
2400.0
31
0
0
LINE
8
sensors
10
448342.5
20
2400.0
30
0
11
448342.5
21
2475.0
31
0
0
LINE
8
sensors
10
448342.5
20
2475.0
30
0
11
448342.5
21
2400.0
31
0
0
LINE
8
sensors
10
448372.5
20
2330.0
30
0
11
448372.5
21
2470.0
31
0
0
LINE
8
sensors
10
448532.5
20
2330.0
30
0
11
448532.5
21
2470.0
31
0
0
LINE
8
sensors
10
448372.5
20
2330.0
30
0
11
448532.5
21
2330.0
31
0
0
LINE
8
sensors
10
448372.5
20
2470.0
30
0
11
448532.5
21
2470.0
31
0
0
LINE
8
sensors
10
448607.0
20
2400.0
30
0
11
448607.0
21
2325.0
31
0
0
LINE
8
sensors
10
448607.0
20
2325.0
30
0
11
448607.0
21
2400.0
31
0
0
LINE
8
sensors
10
448607.0
20
2400.0
30
0
11
448607.0
21
2475.0
31
0
0
LINE
8
sensors
10
448607.0
20
2475.0
30
0
11
448607.0
21
2400.0
31
0
0
LINE
8
sensors
10
448387.0
20
2400.0
30
0
11
448607.0
21
2400.0
31
0
0
LINE
8
sensors
10
448387.0
20
2400.0
30
0
11
448387.0
21
2325.0
31
0
0
LINE
8
sensors
10
448387.0
20
2325.0
30
0
11
448387.0
21
2400.0
31
0
0
LINE
8
sensors
10
448387.0
20
2400.0
30
0
11
448387.0
21
2475.0
31
0
0
LINE
8
sensors
10
448387.0
20
2475.0
30
0
11
448387.0
21
2400.0
31
0
0
LINE
8
sensors
10
448417.0
20
2330.0
30
0
11
448417.0
21
2470.0
31
0
0
LINE
8
sensors
10
448577.0
20
2330.0
30
0
11
448577.0
21
2470.0
31
0
0
LINE
8
sensors
10
448417.0
20
2330.0
30
0
11
448577.0
21
2330.0
31
0
0
LINE
8
sensors
10
448417.0
20
2470.0
30
0
11
448577.0
21
2470.0
31
0
0
ENDSEC
0
EOF
