0
SECTION
2
HEADER
9
$ACADVER
1
AC1015
9
$INSUNITS
70
4
0
ENDSEC
0
SECTION
2
ENTITIES
0
LINE
8
interiors
10
306000.0
20
2000.0
30
0
11
306000.0
21
22000.0
31
0
0
LINE
8
interiors
10
306000.0
20
2000.0
30
0
11
319800.0
21
2000.0
31
0
0
LINE
8
interiors
10
319800.0
20
2000.0
30
0
11
322200.0
21
2000.0
31
0
0
LINE
8
interiors
10
322200.0
20
2000.0
30
0
11
336000.0
21
2000.0
31
0
0
LINE
8
interiors
10
306000.0
20
2000.0
30
0
11
336000.0
21
2000.0
31
0
0
LINE
8
interiors
10
306000.0
20
22000.0
30
0
11
336000.0
21
22000.0
31
0
0
LINE
8
interiors
10
336000.0
20
2000.0
30
0
11
336000.0
21
22000.0
31
0
0
LINE
8
interiors
10
335880.0
20
2120.0
30
0
11
306120.0
21
2120.0
31
0
0
LINE
8
interiors
10
335880.0
20
2120.0
30
0
11
335880.0
21
21880.0
31
0
0
LINE
8
interiors
10
335880.0
20
21880.0
30
0
11
306120.0
21
21880.0
31
0
0
LINE
8
interiors
10
306120.0
20
2120.0
30
0
11
306120.0
21
21880.0
31
0
0
LINE
8
interiors
10
313200.0
20
22000.0
30
0
11
328800.0
21
22000.0
31
0
0
LINE
8
interiors
10
322200.0
20
2000.0
30
0
11
322200.0
21
2120.0
31
0
0
LINE
8
interiors
10
335880.0
20
2120.0
30
0
11
322200.0
21
2120.0
31
0
0
LINE
8
interiors
10
319800.0
20
2120.0
30
0
11
306120.0
21
2120.0
31
0
0
LINE
8
interiors
10
319800.0
20
2000.0
30
0
11
319800.0
21
2120.0
31
0
0
LINE
8
interiors
10
319800.0
20
2120.0
30
0
11
322200.0
21
2120.0
31
0
0
LINE
8
interiors
10
313200.0
20
21880.0
30
0
11
328800.0
21
21880.0
31
0
0
LINE
8
interiors
10
313200.0
20
21880.0
30
0
11
313200.0
21
22000.0
31
0
0
LINE
8
interiors
10
328800.0
20
21880.0
30
0
11
328800.0
21
22000.0
31
0
0
LINE
8
interiors
10
313200.0
20
21977.5
30
0
11
313200.0
21
22022.5
31
0
0
LINE
8
interiors
10
328800.0
20
21977.5
30
0
11
328800.0
21
22022.5
31
0
0
LINE
8
interiors
10
313200.0
20
21977.5
30
0
11
328800.0
21
21977.5
31
0
0
LINE
8
interiors
10
313200.0
20
22022.5
30
0
11
328800.0
21
22022.5
31
0
0
LINE
8
interiors
10
306125.0
20
2125.0
30
0
11
306125.0
21
21875.0
31
0
0
LINE
8
interiors
10
335875.0
20
2125.0
30
0
11
335875.0
21
21875.0
31
0
0
LINE
8
interiors
10
306125.0
20
2125.0
30
0
11
335875.0
21
2125.0
31
0
0
LINE
8
interiors
10
306125.0
20
21875.0
30
0
11
335875.0
21
21875.0
31
0
0
LINE
8
interiors
10
319845.0
20
1880.0
30
0
11
319845.0
21
2120.0
31
0
0
LINE
8
interiors
10
319915.0
20
1880.0
30
0
11
319915.0
21
2120.0
31
0
0
LINE
8
interiors
10
319845.0
20
1880.0
30
0
11
319915.0
21
1880.0
31
0
0
LINE
8
interiors
10
319845.0
20
2120.0
30
0
11
319915.0
21
2120.0
31
0
0
LINE
8
interiors
10
322085.0
20
1880.0
30
0
11
322085.0
21
2120.0
31
0
0
LINE
8
interiors
10
322155.0
20
1880.0
30
0
11
322155.0
21
2120.0
31
0
0
LINE
8
interiors
10
322085.0
20
1880.0
30
0
11
322155.0
21
1880.0
31
0
0
LINE
8
interiors
10
322085.0
20
2120.0
30
0
11
322155.0
21
2120.0
31
0
0
LINE
8
interiors
10
319850.0
20
1880.0
30
0
11
319850.0
21
2120.0
31
0
0
LINE
8
interiors
10
322150.0
20
1880.0
30
0
11
322150.0
21
2120.0
31
0
0
LINE
8
interiors
10
319850.0
20
1880.0
30
0
11
322150.0
21
1880.0
31
0
0
LINE
8
interiors
10
319850.0
20
2120.0
30
0
11
322150.0
21
2120.0
31
0
0
LINE
8
interiors
10
319930.39
20
2090.49
30
0
11
319889.61
21
2109.51
31
0
0
LINE
8
interiors
10
320386.82
20
3069.3
30
0
11
320346.04
21
3088.32
31
0
0
LINE
8
interiors
10
319930.39
20
2090.49
30
0
11
320386.82
21
3069.3
31
0
0
LINE
8
interiors
10
319889.61
20
2109.51
30
0
11
320346.04
21
3088.32
31
0
0
LINE
8
interiors
10
313500.0
20
7150.0
30
0
11
313500.0
21
8050.0
31
0
0
LINE
8
interiors
10
315300.0
20
7150.0
30
0
11
315300.0
21
8050.0
31
0
0
LINE
8
interiors
10
313500.0
20
7150.0
30
0
11
315300.0
21
7150.0
31
0
0
LINE
8
interiors
10
313500.0
20
8050.0
30
0
11
315300.0
21
8050.0
31
0
0
LINE
8
interiors
10
313565.0
20
7215.0
30
0
11
313565.0
21
7285.0
31
0
0
LINE
8
interiors
10
313635.0
20
7215.0
30
0
11
313635.0
21
7285.0
31
0
0
LINE
8
interiors
10
313565.0
20
7215.0
30
0
11
313635.0
21
7215.0
31
0
0
LINE
8
interiors
10
313565.0
20
7285.0
30
0
11
313635.0
21
7285.0
31
0
0
LINE
8
interiors
10
313565.0
20
7915.0
30
0
11
313565.0
21
7985.0
31
0
0
LINE
8
interiors
10
313635.0
20
7915.0
30
0
11
313635.0
21
7985.0
31
0
0
LINE
8
interiors
10
313565.0
20
7915.0
30
0
11
313635.0
21
7915.0
31
0
0
LINE
8
interiors
10
313565.0
20
7985.0
30
0
11
313635.0
21
7985.0
31
0
0
LINE
8
interiors
10
315165.0
20
7215.0
30
0
11
315165.0
21
7285.0
31
0
0
LINE
8
interiors
10
315235.0
20
7215.0
30
0
11
315235.0
21
7285.0
31
0
0
LINE
8
interiors
10
315165.0
20
7215.0
30
0
11
315235.0
21
7215.0
31
0
0
LINE
8
interiors
10
315165.0
20
7285.0
30
0
11
315235.0
21
7285.0
31
0
0
LINE
8
interiors
10
315165.0
20
7915.0
30
0
11
315165.0
21
7985.0
31
0
0
LINE
8
interiors
10
315235.0
20
7915.0
30
0
11
315235.0
21
7985.0
31
0
0
LINE
8
interiors
10
315165.0
20
7915.0
30
0
11
315235.0
21
7915.0
31
0
0
LINE
8
interiors
10
315165.0
20
7985.0
30
0
11
315235.0
21
7985.0
31
0
0
LINE
8
interiors
10
314160.0
20
6610.0
30
0
11
314160.0
21
7090.0
31
0
0
LINE
8
interiors
10
314640.0
20
6610.0
30
0
11
314640.0
21
7090.0
31
0
0
LINE
8
interiors
10
314160.0
20
6610.0
30
0
11
314640.0
21
6610.0
31
0
0
LINE
8
interiors
10
314160.0
20
7090.0
30
0
11
314640.0
21
7090.0
31
0
0
LINE
8
interiors
10
314160.0
20
7027.5
30
0
11
314160.0
21
7092.5
31
0
0
LINE
8
interiors
10
314640.0
20
7027.5
30
0
11
314640.0
21
7092.5
31
0
0
LINE
8
interiors
10
314160.0
20
7027.5
30
0
11
314640.0
21
7027.5
31
0
0
LINE
8
interiors
10
314160.0
20
7092.5
30
0
11
314640.0
21
7092.5
31
0
0
LINE
8
interiors
10
314192.5
20
6642.5
30
0
11
314192.5
21
6677.5
31
0
0
LINE
8
interiors
10
314227.5
20
6642.5
30
0
11
314227.5
21
6677.5
31
0
0
LINE
8
interiors
10
314192.5
20
6642.5
30
0
11
314227.5
21
6642.5
31
0
0
LINE
8
interiors
10
314192.5
20
6677.5
30
0
11
314227.5
21
6677.5
31
0
0
LINE
8
interiors
10
314192.5
20
7022.5
30
0
11
314192.5
21
7057.5
31
0
0
LINE
8
interiors
10
314227.5
20
7022.5
30
0
11
314227.5
21
7057.5
31
0
0
LINE
8
interiors
10
314192.5
20
7022.5
30
0
11
314227.5
21
7022.5
31
0
0
LINE
8
interiors
10
314192.5
20
7057.5
30
0
11
314227.5
21
7057.5
31
0
0
LINE
8
interiors
10
314572.5
20
6642.5
30
0
11
314572.5
21
6677.5
31
0
0
LINE
8
interiors
10
314607.5
20
6642.5
30
0
11
314607.5
21
6677.5
31
0
0
LINE
8
interiors
10
314572.5
20
6642.5
30
0
11
314607.5
21
6642.5
31
0
0
LINE
8
interiors
10
314572.5
20
6677.5
30
0
11
314607.5
21
6677.5
31
0
0
LINE
8
interiors
10
314572.5
20
7022.5
30
0
11
314572.5
21
7057.5
31
0
0
LINE
8
interiors
10
314607.5
20
7022.5
30
0
11
314607.5
21
7057.5
31
0
0
LINE
8
interiors
10
314572.5
20
7022.5
30
0
11
314607.5
21
7022.5
31
0
0
LINE
8
interiors
10
314572.5
20
7057.5
30
0
11
314607.5
21
7057.5
31
0
0
LINE
8
interiors
10
314100.0
20
7790.0
30
0
11
314100.0
21
7850.0
31
0
0
LINE
8
interiors
10
314700.0
20
7790.0
30
0
11
314700.0
21
7850.0
31
0
0
LINE
8
interiors
10
314100.0
20
7790.0
30
0
11
314700.0
21
7790.0
31
0
0
LINE
8
interiors
10
314100.0
20
7850.0
30
0
11
314700.0
21
7850.0
31
0
0
LINE
8
interiors
10
314370.0
20
7785.0
30
0
11
314370.0
21
7855.0
31
0
0
LINE
8
interiors
10
314430.0
20
7785.0
30
0
11
314430.0
21
7855.0
31
0
0
LINE
8
interiors
10
314370.0
20
7785.0
30
0
11
314430.0
21
7785.0
31
0
0
LINE
8
interiors
10
314370.0
20
7855.0
30
0
11
314430.0
21
7855.0
31
0
0
LINE
8
interiors
10
314250.0
20
7710.0
30
0
11
314250.0
21
7930.0
31
0
0
LINE
8
interiors
10
314550.0
20
7710.0
30
0
11
314550.0
21
7930.0
31
0
0
LINE
8
interiors
10
314250.0
20
7710.0
30
0
11
314550.0
21
7710.0
31
0
0
LINE
8
interiors
10
314250.0
20
7930.0
30
0
11
314550.0
21
7930.0
31
0
0
LINE
8
interiors
10
326700.0
20
7150.0
30
0
11
326700.0
21
8050.0
31
0
0
LINE
8
interiors
10
328500.0
20
7150.0
30
0
11
328500.0
21
8050.0
31
0
0
LINE
8
interiors
10
326700.0
20
7150.0
30
0
11
328500.0
21
7150.0
31
0
0
LINE
8
interiors
10
326700.0
20
8050.0
30
0
11
328500.0
21
8050.0
31
0
0
LINE
8
interiors
10
326765.0
20
7215.0
30
0
11
326765.0
21
7285.0
31
0
0
LINE
8
interiors
10
326835.0
20
7215.0
30
0
11
326835.0
21
7285.0
31
0
0
LINE
8
interiors
10
326765.0
20
7215.0
30
0
11
326835.0
21
7215.0
31
0
0
LINE
8
interiors
10
326765.0
20
7285.0
30
0
11
326835.0
21
7285.0
31
0
0
LINE
8
interiors
10
326765.0
20
7915.0
30
0
11
326765.0
21
7985.0
31
0
0
LINE
8
interiors
10
326835.0
20
7915.0
30
0
11
326835.0
21
7985.0
31
0
0
LINE
8
interiors
10
326765.0
20
7915.0
30
0
11
326835.0
21
7915.0
31
0
0
LINE
8
interiors
10
326765.0
20
7985.0
30
0
11
326835.0
21
7985.0
31
0
0
LINE
8
interiors
10
328365.0
20
7215.0
30
0
11
328365.0
21
7285.0
31
0
0
LINE
8
interiors
10
328435.0
20
7215.0
30
0
11
328435.0
21
7285.0
31
0
0
LINE
8
interiors
10
328365.0
20
7215.0
30
0
11
328435.0
21
7215.0
31
0
0
LINE
8
interiors
10
328365.0
20
7285.0
30
0
11
328435.0
21
7285.0
31
0
0
LINE
8
interiors
10
328365.0
20
7915.0
30
0
11
328365.0
21
7985.0
31
0
0
LINE
8
interiors
10
328435.0
20
7915.0
30
0
11
328435.0
21
7985.0
31
0
0
LINE
8
interiors
10
328365.0
20
7915.0
30
0
11
328435.0
21
7915.0
31
0
0
LINE
8
interiors
10
328365.0
20
7985.0
30
0
11
328435.0
21
7985.0
31
0
0
LINE
8
interiors
10
327360.0
20
6610.0
30
0
11
327360.0
21
7090.0
31
0
0
LINE
8
interiors
10
327840.0
20
6610.0
30
0
11
327840.0
21
7090.0
31
0
0
LINE
8
interiors
10
327360.0
20
6610.0
30
0
11
327840.0
21
6610.0
31
0
0
LINE
8
interiors
10
327360.0
20
7090.0
30
0
11
327840.0
21
7090.0
31
0
0
LINE
8
interiors
10
327360.0
20
7027.5
30
0
11
327360.0
21
7092.5
31
0
0
LINE
8
interiors
10
327840.0
20
7027.5
30
0
11
327840.0
21
7092.5
31
0
0
LINE
8
interiors
10
327360.0
20
7027.5
30
0
11
327840.0
21
7027.5
31
0
0
LINE
8
interiors
10
327360.0
20
7092.5
30
0
11
327840.0
21
7092.5
31
0
0
LINE
8
interiors
10
327392.5
20
6642.5
30
0
11
327392.5
21
6677.5
31
0
0
LINE
8
interiors
10
327427.5
20
6642.5
30
0
11
327427.5
21
6677.5
31
0
0
LINE
8
interiors
10
327392.5
20
6642.5
30
0
11
327427.5
21
6642.5
31
0
0
LINE
8
interiors
10
327392.5
20
6677.5
30
0
11
327427.5
21
6677.5
31
0
0
LINE
8
interiors
10
327392.5
20
7022.5
30
0
11
327392.5
21
7057.5
31
0
0
LINE
8
interiors
10
327427.5
20
7022.5
30
0
11
327427.5
21
7057.5
31
0
0
LINE
8
interiors
10
327392.5
20
7022.5
30
0
11
327427.5
21
7022.5
31
0
0
LINE
8
interiors
10
327392.5
20
7057.5
30
0
11
327427.5
21
7057.5
31
0
0
LINE
8
interiors
10
327772.5
20
6642.5
30
0
11
327772.5
21
6677.5
31
0
0
LINE
8
interiors
10
327807.5
20
6642.5
30
0
11
327807.5
21
6677.5
31
0
0
LINE
8
interiors
10
327772.5
20
6642.5
30
0
11
327807.5
21
6642.5
31
0
0
LINE
8
interiors
10
327772.5
20
6677.5
30
0
11
327807.5
21
6677.5
31
0
0
LINE
8
interiors
10
327772.5
20
7022.5
30
0
11
327772.5
21
7057.5
31
0
0
LINE
8
interiors
10
327807.5
20
7022.5
30
0
11
327807.5
21
7057.5
31
0
0
LINE
8
interiors
10
327772.5
20
7022.5
30
0
11
327807.5
21
7022.5
31
0
0
LINE
8
interiors
10
327772.5
20
7057.5
30
0
11
327807.5
21
7057.5
31
0
0
LINE
8
interiors
10
327300.0
20
7790.0
30
0
11
327300.0
21
7850.0
31
0
0
LINE
8
interiors
10
327900.0
20
7790.0
30
0
11
327900.0
21
7850.0
31
0
0
LINE
8
interiors
10
327300.0
20
7790.0
30
0
11
327900.0
21
7790.0
31
0
0
LINE
8
interiors
10
327300.0
20
7850.0
30
0
11
327900.0
21
7850.0
31
0
0
LINE
8
interiors
10
327570.0
20
7785.0
30
0
11
327570.0
21
7855.0
31
0
0
LINE
8
interiors
10
327630.0
20
7785.0
30
0
11
327630.0
21
7855.0
31
0
0
LINE
8
interiors
10
327570.0
20
7785.0
30
0
11
327630.0
21
7785.0
31
0
0
LINE
8
interiors
10
327570.0
20
7855.0
30
0
11
327630.0
21
7855.0
31
0
0
LINE
8
interiors
10
327450.0
20
7710.0
30
0
11
327450.0
21
7930.0
31
0
0
LINE
8
interiors
10
327750.0
20
7710.0
30
0
11
327750.0
21
7930.0
31
0
0
LINE
8
interiors
10
327450.0
20
7710.0
30
0
11
327750.0
21
7710.0
31
0
0
LINE
8
interiors
10
327450.0
20
7930.0
30
0
11
327750.0
21
7930.0
31
0
0
LINE
8
interiors
10
313500.0
20
15950.0
30
0
11
313500.0
21
16850.0
31
0
0
LINE
8
interiors
10
315300.0
20
15950.0
30
0
11
315300.0
21
16850.0
31
0
0
LINE
8
interiors
10
313500.0
20
15950.0
30
0
11
315300.0
21
15950.0
31
0
0
LINE
8
interiors
10
313500.0
20
16850.0
30
0
11
315300.0
21
16850.0
31
0
0
LINE
8
interiors
10
313565.0
20
16015.0
30
0
11
313565.0
21
16085.0
31
0
0
LINE
8
interiors
10
313635.0
20
16015.0
30
0
11
313635.0
21
16085.0
31
0
0
LINE
8
interiors
10
313565.0
20
16015.0
30
0
11
313635.0
21
16015.0
31
0
0
LINE
8
interiors
10
313565.0
20
16085.0
30
0
11
313635.0
21
16085.0
31
0
0
LINE
8
interiors
10
313565.0
20
16715.0
30
0
11
313565.0
21
16785.0
31
0
0
LINE
8
interiors
10
313635.0
20
16715.0
30
0
11
313635.0
21
16785.0
31
0
0
LINE
8
interiors
10
313565.0
20
16715.0
30
0
11
313635.0
21
16715.0
31
0
0
LINE
8
interiors
10
313565.0
20
16785.0
30
0
11
313635.0
21
16785.0
31
0
0
LINE
8
interiors
10
315165.0
20
16015.0
30
0
11
315165.0
21
16085.0
31
0
0
LINE
8
interiors
10
315235.0
20
16015.0
30
0
11
315235.0
21
16085.0
31
0
0
LINE
8
interiors
10
315165.0
20
16015.0
30
0
11
315235.0
21
16015.0
31
0
0
LINE
8
interiors
10
315165.0
20
16085.0
30
0
11
315235.0
21
16085.0
31
0
0
LINE
8
interiors
10
315165.0
20
16715.0
30
0
11
315165.0
21
16785.0
31
0
0
LINE
8
interiors
10
315235.0
20
16715.0
30
0
11
315235.0
21
16785.0
31
0
0
LINE
8
interiors
10
315165.0
20
16715.0
30
0
11
315235.0
21
16715.0
31
0
0
LINE
8
interiors
10
315165.0
20
16785.0
30
0
11
315235.0
21
16785.0
31
0
0
LINE
8
interiors
10
314160.0
20
15410.0
30
0
11
314160.0
21
15890.0
31
0
0
LINE
8
interiors
10
314640.0
20
15410.0
30
0
11
314640.0
21
15890.0
31
0
0
LINE
8
interiors
10
314160.0
20
15410.0
30
0
11
314640.0
21
15410.0
31
0
0
LINE
8
interiors
10
314160.0
20
15890.0
30
0
11
314640.0
21
15890.0
31
0
0
LINE
8
interiors
10
314160.0
20
15827.5
30
0
11
314160.0
21
15892.5
31
0
0
LINE
8
interiors
10
314640.0
20
15827.5
30
0
11
314640.0
21
15892.5
31
0
0
LINE
8
interiors
10
314160.0
20
15827.5
30
0
11
314640.0
21
15827.5
31
0
0
LINE
8
interiors
10
314160.0
20
15892.5
30
0
11
314640.0
21
15892.5
31
0
0
LINE
8
interiors
10
314192.5
20
15442.5
30
0
11
314192.5
21
15477.5
31
0
0
LINE
8
interiors
10
314227.5
20
15442.5
30
0
11
314227.5
21
15477.5
31
0
0
LINE
8
interiors
10
314192.5
20
15442.5
30
0
11
314227.5
21
15442.5
31
0
0
LINE
8
interiors
10
314192.5
20
15477.5
30
0
11
314227.5
21
15477.5
31
0
0
LINE
8
interiors
10
314192.5
20
15822.5
30
0
11
314192.5
21
15857.5
31
0
0
LINE
8
interiors
10
314227.5
20
15822.5
30
0
11
314227.5
21
15857.5
31
0
0
LINE
8
interiors
10
314192.5
20
15822.5
30
0
11
314227.5
21
15822.5
31
0
0
LINE
8
interiors
10
314192.5
20
15857.5
30
0
11
314227.5
21
15857.5
31
0
0
LINE
8
interiors
10
314572.5
20
15442.5
30
0
11
314572.5
21
15477.5
31
0
0
LINE
8
interiors
10
314607.5
20
15442.5
30
0
11
314607.5
21
15477.5
31
0
0
LINE
8
interiors
10
314572.5
20
15442.5
30
0
11
314607.5
21
15442.5
31
0
0
LINE
8
interiors
10
314572.5
20
15477.5
30
0
11
314607.5
21
15477.5
31
0
0
LINE
8
interiors
10
314572.5
20
15822.5
30
0
11
314572.5
21
15857.5
31
0
0
LINE
8
interiors
10
314607.5
20
15822.5
30
0
11
314607.5
21
15857.5
31
0
0
LINE
8
interiors
10
314572.5
20
15822.5
30
0
11
314607.5
21
15822.5
31
0
0
LINE
8
interiors
10
314572.5
20
15857.5
30
0
11
314607.5
21
15857.5
31
0
0
LINE
8
interiors
10
314100.0
20
16590.0
30
0
11
314100.0
21
16650.0
31
0
0
LINE
8
interiors
10
314700.0
20
16590.0
30
0
11
314700.0
21
16650.0
31
0
0
LINE
8
interiors
10
314100.0
20
16590.0
30
0
11
314700.0
21
16590.0
31
0
0
LINE
8
interiors
10
314100.0
20
16650.0
30
0
11
314700.0
21
16650.0
31
0
0
LINE
8
interiors
10
314370.0
20
16585.0
30
0
11
314370.0
21
16655.0
31
0
0
LINE
8
interiors
10
314430.0
20
16585.0
30
0
11
314430.0
21
16655.0
31
0
0
LINE
8
interiors
10
314370.0
20
16585.0
30
0
11
314430.0
21
16585.0
31
0
0
LINE
8
interiors
10
314370.0
20
16655.0
30
0
11
314430.0
21
16655.0
31
0
0
LINE
8
interiors
10
314250.0
20
16510.0
30
0
11
314250.0
21
16730.0
31
0
0
LINE
8
interiors
10
314550.0
20
16510.0
30
0
11
314550.0
21
16730.0
31
0
0
LINE
8
interiors
10
314250.0
20
16510.0
30
0
11
314550.0
21
16510.0
31
0
0
LINE
8
interiors
10
314250.0
20
16730.0
30
0
11
314550.0
21
16730.0
31
0
0
LINE
8
interiors
10
326700.0
20
15950.0
30
0
11
326700.0
21
16850.0
31
0
0
LINE
8
interiors
10
328500.0
20
15950.0
30
0
11
328500.0
21
16850.0
31
0
0
LINE
8
interiors
10
326700.0
20
15950.0
30
0
11
328500.0
21
15950.0
31
0
0
LINE
8
interiors
10
326700.0
20
16850.0
30
0
11
328500.0
21
16850.0
31
0
0
LINE
8
interiors
10
326765.0
20
16015.0
30
0
11
326765.0
21
16085.0
31
0
0
LINE
8
interiors
10
326835.0
20
16015.0
30
0
11
326835.0
21
16085.0
31
0
0
LINE
8
interiors
10
326765.0
20
16015.0
30
0
11
326835.0
21
16015.0
31
0
0
LINE
8
interiors
10
326765.0
20
16085.0
30
0
11
326835.0
21
16085.0
31
0
0
LINE
8
interiors
10
326765.0
20
16715.0
30
0
11
326765.0
21
16785.0
31
0
0
LINE
8
interiors
10
326835.0
20
16715.0
30
0
11
326835.0
21
16785.0
31
0
0
LINE
8
interiors
10
326765.0
20
16715.0
30
0
11
326835.0
21
16715.0
31
0
0
LINE
8
interiors
10
326765.0
20
16785.0
30
0
11
326835.0
21
16785.0
31
0
0
LINE
8
interiors
10
328365.0
20
16015.0
30
0
11
328365.0
21
16085.0
31
0
0
LINE
8
interiors
10
328435.0
20
16015.0
30
0
11
328435.0
21
16085.0
31
0
0
LINE
8
interiors
10
328365.0
20
16015.0
30
0
11
328435.0
21
16015.0
31
0
0
LINE
8
interiors
10
328365.0
20
16085.0
30
0
11
328435.0
21
16085.0
31
0
0
LINE
8
interiors
10
328365.0
20
16715.0
30
0
11
328365.0
21
16785.0
31
0
0
LINE
8
interiors
10
328435.0
20
16715.0
30
0
11
328435.0
21
16785.0
31
0
0
LINE
8
interiors
10
328365.0
20
16715.0
30
0
11
328435.0
21
16715.0
31
0
0
LINE
8
interiors
10
328365.0
20
16785.0
30
0
11
328435.0
21
16785.0
31
0
0
LINE
8
interiors
10
327360.0
20
15410.0
30
0
11
327360.0
21
15890.0
31
0
0
LINE
8
interiors
10
327840.0
20
15410.0
30
0
11
327840.0
21
15890.0
31
0
0
LINE
8
interiors
10
327360.0
20
15410.0
30
0
11
327840.0
21
15410.0
31
0
0
LINE
8
interiors
10
327360.0
20
15890.0
30
0
11
327840.0
21
15890.0
31
0
0
LINE
8
interiors
10
327360.0
20
15827.5
30
0
11
327360.0
21
15892.5
31
0
0
LINE
8
interiors
10
327840.0
20
15827.5
30
0
11
327840.0
21
15892.5
31
0
0
LINE
8
interiors
10
327360.0
20
15827.5
30
0
11
327840.0
21
15827.5
31
0
0
LINE
8
interiors
10
327360.0
20
15892.5
30
0
11
327840.0
21
15892.5
31
0
0
LINE
8
interiors
10
327392.5
20
15442.5
30
0
11
327392.5
21
15477.5
31
0
0
LINE
8
interiors
10
327427.5
20
15442.5
30
0
11
327427.5
21
15477.5
31
0
0
LINE
8
interiors
10
327392.5
20
15442.5
30
0
11
327427.5
21
15442.5
31
0
0
LINE
8
interiors
10
327392.5
20
15477.5
30
0
11
327427.5
21
15477.5
31
0
0
LINE
8
interiors
10
327392.5
20
15822.5
30
0
11
327392.5
21
15857.5
31
0
0
LINE
8
interiors
10
327427.5
20
15822.5
30
0
11
327427.5
21
15857.5
31
0
0
LINE
8
interiors
10
327392.5
20
15822.5
30
0
11
327427.5
21
15822.5
31
0
0
LINE
8
interiors
10
327392.5
20
15857.5
30
0
11
327427.5
21
15857.5
31
0
0
LINE
8
interiors
10
327772.5
20
15442.5
30
0
11
327772.5
21
15477.5
31
0
0
LINE
8
interiors
10
327807.5
20
15442.5
30
0
11
327807.5
21
15477.5
31
0
0
LINE
8
interiors
10
327772.5
20
15442.5
30
0
11
327807.5
21
15442.5
31
0
0
LINE
8
interiors
10
327772.5
20
15477.5
30
0
11
327807.5
21
15477.5
31
0
0
LINE
8
interiors
10
327772.5
20
15822.5
30
0
11
327772.5
21
15857.5
31
0
0
LINE
8
interiors
10
327807.5
20
15822.5
30
0
11
327807.5
21
15857.5
31
0
0
LINE
8
interiors
10
327772.5
20
15822.5
30
0
11
327807.5
21
15822.5
31
0
0
LINE
8
interiors
10
327772.5
20
15857.5
30
0
11
327807.5
21
15857.5
31
0
0
LINE
8
interiors
10
327300.0
20
16590.0
30
0
11
327300.0
21
16650.0
31
0
0
LINE
8
interiors
10
327900.0
20
16590.0
30
0
11
327900.0
21
16650.0
31
0
0
LINE
8
interiors
10
327300.0
20
16590.0
30
0
11
327900.0
21
16590.0
31
0
0
LINE
8
interiors
10
327300.0
20
16650.0
30
0
11
327900.0
21
16650.0
31
0
0
LINE
8
interiors
10
327570.0
20
16585.0
30
0
11
327570.0
21
16655.0
31
0
0
LINE
8
interiors
10
327630.0
20
16585.0
30
0
11
327630.0
21
16655.0
31
0
0
LINE
8
interiors
10
327570.0
20
16585.0
30
0
11
327630.0
21
16585.0
31
0
0
LINE
8
interiors
10
327570.0
20
16655.0
30
0
11
327630.0
21
16655.0
31
0
0
LINE
8
interiors
10
327450.0
20
16510.0
30
0
11
327450.0
21
16730.0
31
0
0
LINE
8
interiors
10
327750.0
20
16510.0
30
0
11
327750.0
21
16730.0
31
0
0
LINE
8
interiors
10
327450.0
20
16510.0
30
0
11
327750.0
21
16510.0
31
0
0
LINE
8
interiors
10
327450.0
20
16730.0
30
0
11
327750.0
21
16730.0
31
0
0
LINE
8
interiors
10
319800.0
20
17950.0
30
0
11
319800.0
21
19250.0
31
0
0
LINE
8
interiors
10
322200.0
20
17950.0
30
0
11
322200.0
21
19250.0
31
0
0
LINE
8
interiors
10
319800.0
20
17950.0
30
0
11
322200.0
21
17950.0
31
0
0
LINE
8
interiors
10
319800.0
20
19250.0
30
0
11
322200.0
21
19250.0
31
0
0
LINE
8
interiors
10
320300.0
20
17905.0
30
0
11
320300.0
21
17955.0
31
0
0
LINE
8
interiors
10
321700.0
20
17905.0
30
0
11
321700.0
21
17955.0
31
0
0
LINE
8
interiors
10
320300.0
20
17905.0
30
0
11
321700.0
21
17905.0
31
0
0
LINE
8
interiors
10
320300.0
20
17955.0
30
0
11
321700.0
21
17955.0
31
0
0
LINE
8
interiors
10
321280.0
20
18600.0
30
0
11
321197.99
21
18797.99
31
0
0
LINE
8
interiors
10
321197.99
20
18797.99
30
0
11
321000.0
21
18880.0
31
0
0
LINE
8
interiors
10
321000.0
20
18880.0
30
0
11
320802.01
21
18797.99
31
0
0
LINE
8
interiors
10
320802.01
20
18797.99
30
0
11
320720.0
21
18600.0
31
0
0
LINE
8
interiors
10
320720.0
20
18600.0
30
0
11
320802.01
21
18402.01
31
0
0
LINE
8
interiors
10
320802.01
20
18402.01
30
0
11
321000.0
21
18320.0
31
0
0
LINE
8
interiors
10
321000.0
20
18320.0
30
0
11
321197.99
21
18402.01
31
0
0
LINE
8
interiors
10
321197.99
20
18402.01
30
0
11
321280.0
21
18600.0
31
0
0
LINE
8
electrical
10
335275.0
20
2075.0
30
0
11
335275.0
21
2325.0
31
0
0
LINE
8
electrical
10
335825.0
20
2075.0
30
0
11
335825.0
21
2325.0
31
0
0
LINE
8
electrical
10
335275.0
20
2075.0
30
0
11
335825.0
21
2075.0
31
0
0
LINE
8
electrical
10
335275.0
20
2325.0
30
0
11
335825.0
21
2325.0
31
0
0
LINE
8
electrical
10
335315.0
20
2047.5
30
0
11
335315.0
21
2082.5
31
0
0
LINE
8
electrical
10
335785.0
20
2047.5
30
0
11
335785.0
21
2082.5
31
0
0
LINE
8
electrical
10
335315.0
20
2047.5
30
0
11
335785.0
21
2047.5
31
0
0
LINE
8
electrical
10
335315.0
20
2082.5
30
0
11
335785.0
21
2082.5
31
0
0
LINE
8
electrical
10
335362.5
20
2010.0
30
0
11
335362.5
21
2050.0
31
0
0
LINE
8
electrical
10
335462.5
20
2010.0
30
0
11
335462.5
21
2050.0
31
0
0
LINE
8
electrical
10
335362.5
20
2010.0
30
0
11
335462.5
21
2010.0
31
0
0
LINE
8
electrical
10
335362.5
20
2050.0
30
0
11
335462.5
21
2050.0
31
0
0
LINE
8
electrical
10
335500.0
20
2010.0
30
0
11
335500.0
21
2050.0
31
0
0
LINE
8
electrical
10
335600.0
20
2010.0
30
0
11
335600.0
21
2050.0
31
0
0
LINE
8
electrical
10
335500.0
20
2010.0
30
0
11
335600.0
21
2010.0
31
0
0
LINE
8
electrical
10
335500.0
20
2050.0
30
0
11
335600.0
21
2050.0
31
0
0
LINE
8
electrical
10
335637.5
20
2010.0
30
0
11
335637.5
21
2050.0
31
0
0
LINE
8
electrical
10
335737.5
20
2010.0
30
0
11
335737.5
21
2050.0
31
0
0
LINE
8
electrical
10
335637.5
20
2010.0
30
0
11
335737.5
21
2010.0
31
0
0
LINE
8
electrical
10
335637.5
20
2050.0
30
0
11
335737.5
21
2050.0
31
0
0
LINE
8
electrical
10
335412.5
20
1995.0
30
0
11
335435.88
21
1995.0
31
0
0
LINE
8
electrical
10
335435.88
20
1995.0
30
0
11
335389.12
21
1995.0
31
0
0
LINE
8
electrical
10
335389.12
20
1995.0
30
0
11
335412.5
21
1995.0
31
0
0
LINE
8
electrical
10
335412.5
20
2020.0
30
0
11
335412.5
21
1995.0
31
0
0
LINE
8
electrical
10
335412.5
20
2020.0
30
0
11
335435.88
21
2020.0
31
0
0
LINE
8
electrical
10
335435.88
20
2020.0
30
0
11
335389.12
21
2020.0
31
0
0
LINE
8
electrical
10
335389.12
20
2020.0
30
0
11
335412.5
21
2020.0
31
0
0
LINE
8
electrical
10
335550.0
20
1995.0
30
0
11
335573.38
21
1995.0
31
0
0
LINE
8
electrical
10
335573.38
20
1995.0
30
0
11
335526.62
21
1995.0
31
0
0
LINE
8
electrical
10
335526.62
20
1995.0
30
0
11
335550.0
21
1995.0
31
0
0
LINE
8
electrical
10
335550.0
20
2020.0
30
0
11
335550.0
21
1995.0
31
0
0
LINE
8
electrical
10
335550.0
20
2020.0
30
0
11
335573.38
21
2020.0
31
0
0
LINE
8
electrical
10
335573.38
20
2020.0
30
0
11
335526.62
21
2020.0
31
0
0
LINE
8
electrical
10
335526.62
20
2020.0
30
0
11
335550.0
21
2020.0
31
0
0
LINE
8
electrical
10
335687.5
20
1995.0
30
0
11
335710.88
21
1995.0
31
0
0
LINE
8
electrical
10
335710.88
20
1995.0
30
0
11
335664.12
21
1995.0
31
0
0
LINE
8
electrical
10
335664.12
20
1995.0
30
0
11
335687.5
21
1995.0
31
0
0
LINE
8
electrical
10
335687.5
20
2020.0
30
0
11
335687.5
21
1995.0
31
0
0
LINE
8
electrical
10
335687.5
20
2020.0
30
0
11
335710.88
21
2020.0
31
0
0
LINE
8
electrical
10
335710.88
20
2020.0
30
0
11
335664.12
21
2020.0
31
0
0
LINE
8
electrical
10
335664.12
20
2020.0
30
0
11
335687.5
21
2020.0
31
0
0
LINE
8
electrical
10
335550.0
20
2200.0
30
0
11
335565.59
21
2200.0
31
0
0
LINE
8
electrical
10
335565.59
20
2200.0
30
0
11
335534.41
21
2200.0
31
0
0
LINE
8
electrical
10
335534.41
20
2200.0
30
0
11
335550.0
21
2200.0
31
0
0
LINE
8
electrical
10
335550.0
20
-62300.0
30
0
11
335550.0
21
2200.0
31
0
0
LINE
8
electrical
10
335550.0
20
-62300.0
30
0
11
335565.59
21
-62300.0
31
0
0
LINE
8
electrical
10
335565.59
20
-62300.0
30
0
11
335534.41
21
-62300.0
31
0
0
LINE
8
electrical
10
335534.41
20
-62300.0
30
0
11
335550.0
21
-62300.0
31
0
0
LINE
8
electrical
10
335532.0
20
2200.0
30
0
11
335559.0
21
2215.59
31
0
0
LINE
8
electrical
10
335559.0
20
2215.59
30
0
11
335559.0
21
2184.41
31
0
0
LINE
8
electrical
10
335559.0
20
2184.41
30
0
11
335532.0
21
2200.0
31
0
0
LINE
8
electrical
10
335550.0
20
2200.0
30
0
11
335569.44
21
2200.0
31
0
0
LINE
8
electrical
10
335569.44
20
2200.0
30
0
11
335550.0
21
2200.0
31
0
0
LINE
8
lighting
10
309880.0
20
4880.0
30
0
11
309880.0
21
5520.0
31
0
0
LINE
8
lighting
10
310520.0
20
4880.0
30
0
11
310520.0
21
5520.0
31
0
0
LINE
8
lighting
10
309880.0
20
4880.0
30
0
11
310520.0
21
4880.0
31
0
0
LINE
8
lighting
10
309880.0
20
5520.0
30
0
11
310520.0
21
5520.0
31
0
0
LINE
8
lighting
10
309920.0
20
4920.0
30
0
11
309920.0
21
5480.0
31
0
0
LINE
8
lighting
10
310480.0
20
4920.0
30
0
11
310480.0
21
5480.0
31
0
0
LINE
8
lighting
10
309920.0
20
4920.0
30
0
11
310480.0
21
4920.0
31
0
0
LINE
8
lighting
10
309920.0
20
5480.0
30
0
11
310480.0
21
5480.0
31
0
0
LINE
8
lighting
10
309954.0
20
4930.0
30
0
11
309954.0
21
5470.0
31
0
0
LINE
8
lighting
10
309966.0
20
4930.0
30
0
11
309966.0
21
5470.0
31
0
0
LINE
8
lighting
10
309954.0
20
4930.0
30
0
11
309966.0
21
4930.0
31
0
0
LINE
8
lighting
10
309954.0
20
5470.0
30
0
11
309966.0
21
5470.0
31
0
0
LINE
8
lighting
10
310034.0
20
4930.0
30
0
11
310034.0
21
5470.0
31
0
0
LINE
8
lighting
10
310046.0
20
4930.0
30
0
11
310046.0
21
5470.0
31
0
0
LINE
8
lighting
10
310034.0
20
4930.0
30
0
11
310046.0
21
4930.0
31
0
0
LINE
8
lighting
10
310034.0
20
5470.0
30
0
11
310046.0
21
5470.0
31
0
0
LINE
8
lighting
10
310114.0
20
4930.0
30
0
11
310114.0
21
5470.0
31
0
0
LINE
8
lighting
10
310126.0
20
4930.0
30
0
11
310126.0
21
5470.0
31
0
0
LINE
8
lighting
10
310114.0
20
4930.0
30
0
11
310126.0
21
4930.0
31
0
0
LINE
8
lighting
10
310114.0
20
5470.0
30
0
11
310126.0
21
5470.0
31
0
0
LINE
8
lighting
10
310194.0
20
4930.0
30
0
11
310194.0
21
5470.0
31
0
0
LINE
8
lighting
10
310206.0
20
4930.0
30
0
11
310206.0
21
5470.0
31
0
0
LINE
8
lighting
10
310194.0
20
4930.0
30
0
11
310206.0
21
4930.0
31
0
0
LINE
8
lighting
10
310194.0
20
5470.0
30
0
11
310206.0
21
5470.0
31
0
0
LINE
8
lighting
10
310274.0
20
4930.0
30
0
11
310274.0
21
5470.0
31
0
0
LINE
8
lighting
10
310286.0
20
4930.0
30
0
11
310286.0
21
5470.0
31
0
0
LINE
8
lighting
10
310274.0
20
4930.0
30
0
11
310286.0
21
4930.0
31
0
0
LINE
8
lighting
10
310274.0
20
5470.0
30
0
11
310286.0
21
5470.0
31
0
0
LINE
8
lighting
10
310354.0
20
4930.0
30
0
11
310354.0
21
5470.0
31
0
0
LINE
8
lighting
10
310366.0
20
4930.0
30
0
11
310366.0
21
5470.0
31
0
0
LINE
8
lighting
10
310354.0
20
4930.0
30
0
11
310366.0
21
4930.0
31
0
0
LINE
8
lighting
10
310354.0
20
5470.0
30
0
11
310366.0
21
5470.0
31
0
0
LINE
8
lighting
10
310434.0
20
4930.0
30
0
11
310434.0
21
5470.0
31
0
0
LINE
8
lighting
10
310446.0
20
4930.0
30
0
11
310446.0
21
5470.0
31
0
0
LINE
8
lighting
10
310434.0
20
4930.0
30
0
11
310446.0
21
4930.0
31
0
0
LINE
8
lighting
10
310434.0
20
5470.0
30
0
11
310446.0
21
5470.0
31
0
0
LINE
8
lighting
10
310209.0
20
5200.0
30
0
11
310195.5
21
5207.79
31
0
0
LINE
8
lighting
10
310195.5
20
5207.79
30
0
11
310195.5
21
5192.21
31
0
0
LINE
8
lighting
10
310195.5
20
5192.21
30
0
11
310209.0
21
5200.0
31
0
0
LINE
8
lighting
10
331480.0
20
4880.0
30
0
11
331480.0
21
5520.0
31
0
0
LINE
8
lighting
10
332120.0
20
4880.0
30
0
11
332120.0
21
5520.0
31
0
0
LINE
8
lighting
10
331480.0
20
4880.0
30
0
11
332120.0
21
4880.0
31
0
0
LINE
8
lighting
10
331480.0
20
5520.0
30
0
11
332120.0
21
5520.0
31
0
0
LINE
8
lighting
10
331520.0
20
4920.0
30
0
11
331520.0
21
5480.0
31
0
0
LINE
8
lighting
10
332080.0
20
4920.0
30
0
11
332080.0
21
5480.0
31
0
0
LINE
8
lighting
10
331520.0
20
4920.0
30
0
11
332080.0
21
4920.0
31
0
0
LINE
8
lighting
10
331520.0
20
5480.0
30
0
11
332080.0
21
5480.0
31
0
0
LINE
8
lighting
10
331554.0
20
4930.0
30
0
11
331554.0
21
5470.0
31
0
0
LINE
8
lighting
10
331566.0
20
4930.0
30
0
11
331566.0
21
5470.0
31
0
0
LINE
8
lighting
10
331554.0
20
4930.0
30
0
11
331566.0
21
4930.0
31
0
0
LINE
8
lighting
10
331554.0
20
5470.0
30
0
11
331566.0
21
5470.0
31
0
0
LINE
8
lighting
10
331634.0
20
4930.0
30
0
11
331634.0
21
5470.0
31
0
0
LINE
8
lighting
10
331646.0
20
4930.0
30
0
11
331646.0
21
5470.0
31
0
0
LINE
8
lighting
10
331634.0
20
4930.0
30
0
11
331646.0
21
4930.0
31
0
0
LINE
8
lighting
10
331634.0
20
5470.0
30
0
11
331646.0
21
5470.0
31
0
0
LINE
8
lighting
10
331714.0
20
4930.0
30
0
11
331714.0
21
5470.0
31
0
0
LINE
8
lighting
10
331726.0
20
4930.0
30
0
11
331726.0
21
5470.0
31
0
0
LINE
8
lighting
10
331714.0
20
4930.0
30
0
11
331726.0
21
4930.0
31
0
0
LINE
8
lighting
10
331714.0
20
5470.0
30
0
11
331726.0
21
5470.0
31
0
0
LINE
8
lighting
10
331794.0
20
4930.0
30
0
11
331794.0
21
5470.0
31
0
0
LINE
8
lighting
10
331806.0
20
4930.0
30
0
11
331806.0
21
5470.0
31
0
0
LINE
8
lighting
10
331794.0
20
4930.0
30
0
11
331806.0
21
4930.0
31
0
0
LINE
8
lighting
10
331794.0
20
5470.0
30
0
11
331806.0
21
5470.0
31
0
0
LINE
8
lighting
10
331874.0
20
4930.0
30
0
11
331874.0
21
5470.0
31
0
0
LINE
8
lighting
10
331886.0
20
4930.0
30
0
11
331886.0
21
5470.0
31
0
0
LINE
8
lighting
10
331874.0
20
4930.0
30
0
11
331886.0
21
4930.0
31
0
0
LINE
8
lighting
10
331874.0
20
5470.0
30
0
11
331886.0
21
5470.0
31
0
0
LINE
8
lighting
10
331954.0
20
4930.0
30
0
11
331954.0
21
5470.0
31
0
0
LINE
8
lighting
10
331966.0
20
4930.0
30
0
11
331966.0
21
5470.0
31
0
0
LINE
8
lighting
10
331954.0
20
4930.0
30
0
11
331966.0
21
4930.0
31
0
0
LINE
8
lighting
10
331954.0
20
5470.0
30
0
11
331966.0
21
5470.0
31
0
0
LINE
8
lighting
10
332034.0
20
4930.0
30
0
11
332034.0
21
5470.0
31
0
0
LINE
8
lighting
10
332046.0
20
4930.0
30
0
11
332046.0
21
5470.0
31
0
0
LINE
8
lighting
10
332034.0
20
4930.0
30
0
11
332046.0
21
4930.0
31
0
0
LINE
8
lighting
10
332034.0
20
5470.0
30
0
11
332046.0
21
5470.0
31
0
0
LINE
8
lighting
10
331809.0
20
5200.0
30
0
11
331795.5
21
5207.79
31
0
0
LINE
8
lighting
10
331795.5
20
5207.79
30
0
11
331795.5
21
5192.21
31
0
0
LINE
8
lighting
10
331795.5
20
5192.21
30
0
11
331809.0
21
5200.0
31
0
0
LINE
8
lighting
10
320680.0
20
4880.0
30
0
11
320680.0
21
5520.0
31
0
0
LINE
8
lighting
10
321320.0
20
4880.0
30
0
11
321320.0
21
5520.0
31
0
0
LINE
8
lighting
10
320680.0
20
4880.0
30
0
11
321320.0
21
4880.0
31
0
0
LINE
8
lighting
10
320680.0
20
5520.0
30
0
11
321320.0
21
5520.0
31
0
0
LINE
8
lighting
10
320720.0
20
4920.0
30
0
11
320720.0
21
5480.0
31
0
0
LINE
8
lighting
10
321280.0
20
4920.0
30
0
11
321280.0
21
5480.0
31
0
0
LINE
8
lighting
10
320720.0
20
4920.0
30
0
11
321280.0
21
4920.0
31
0
0
LINE
8
lighting
10
320720.0
20
5480.0
30
0
11
321280.0
21
5480.0
31
0
0
LINE
8
lighting
10
320754.0
20
4930.0
30
0
11
320754.0
21
5470.0
31
0
0
LINE
8
lighting
10
320766.0
20
4930.0
30
0
11
320766.0
21
5470.0
31
0
0
LINE
8
lighting
10
320754.0
20
4930.0
30
0
11
320766.0
21
4930.0
31
0
0
LINE
8
lighting
10
320754.0
20
5470.0
30
0
11
320766.0
21
5470.0
31
0
0
LINE
8
lighting
10
320834.0
20
4930.0
30
0
11
320834.0
21
5470.0
31
0
0
LINE
8
lighting
10
320846.0
20
4930.0
30
0
11
320846.0
21
5470.0
31
0
0
LINE
8
lighting
10
320834.0
20
4930.0
30
0
11
320846.0
21
4930.0
31
0
0
LINE
8
lighting
10
320834.0
20
5470.0
30
0
11
320846.0
21
5470.0
31
0
0
LINE
8
lighting
10
320914.0
20
4930.0
30
0
11
320914.0
21
5470.0
31
0
0
LINE
8
lighting
10
320926.0
20
4930.0
30
0
11
320926.0
21
5470.0
31
0
0
LINE
8
lighting
10
320914.0
20
4930.0
30
0
11
320926.0
21
4930.0
31
0
0
LINE
8
lighting
10
320914.0
20
5470.0
30
0
11
320926.0
21
5470.0
31
0
0
LINE
8
lighting
10
320994.0
20
4930.0
30
0
11
320994.0
21
5470.0
31
0
0
LINE
8
lighting
10
321006.0
20
4930.0
30
0
11
321006.0
21
5470.0
31
0
0
LINE
8
lighting
10
320994.0
20
4930.0
30
0
11
321006.0
21
4930.0
31
0
0
LINE
8
lighting
10
320994.0
20
5470.0
30
0
11
321006.0
21
5470.0
31
0
0
LINE
8
lighting
10
321074.0
20
4930.0
30
0
11
321074.0
21
5470.0
31
0
0
LINE
8
lighting
10
321086.0
20
4930.0
30
0
11
321086.0
21
5470.0
31
0
0
LINE
8
lighting
10
321074.0
20
4930.0
30
0
11
321086.0
21
4930.0
31
0
0
LINE
8
lighting
10
321074.0
20
5470.0
30
0
11
321086.0
21
5470.0
31
0
0
LINE
8
lighting
10
321154.0
20
4930.0
30
0
11
321154.0
21
5470.0
31
0
0
LINE
8
lighting
10
321166.0
20
4930.0
30
0
11
321166.0
21
5470.0
31
0
0
LINE
8
lighting
10
321154.0
20
4930.0
30
0
11
321166.0
21
4930.0
31
0
0
LINE
8
lighting
10
321154.0
20
5470.0
30
0
11
321166.0
21
5470.0
31
0
0
LINE
8
lighting
10
321234.0
20
4930.0
30
0
11
321234.0
21
5470.0
31
0
0
LINE
8
lighting
10
321246.0
20
4930.0
30
0
11
321246.0
21
5470.0
31
0
0
LINE
8
lighting
10
321234.0
20
4930.0
30
0
11
321246.0
21
4930.0
31
0
0
LINE
8
lighting
10
321234.0
20
5470.0
30
0
11
321246.0
21
5470.0
31
0
0
LINE
8
lighting
10
321009.0
20
5200.0
30
0
11
320995.5
21
5207.79
31
0
0
LINE
8
lighting
10
320995.5
20
5207.79
30
0
11
320995.5
21
5192.21
31
0
0
LINE
8
lighting
10
320995.5
20
5192.21
30
0
11
321009.0
21
5200.0
31
0
0
LINE
8
lighting
10
309880.0
20
18480.0
30
0
11
309880.0
21
19120.0
31
0
0
LINE
8
lighting
10
310520.0
20
18480.0
30
0
11
310520.0
21
19120.0
31
0
0
LINE
8
lighting
10
309880.0
20
18480.0
30
0
11
310520.0
21
18480.0
31
0
0
LINE
8
lighting
10
309880.0
20
19120.0
30
0
11
310520.0
21
19120.0
31
0
0
LINE
8
lighting
10
309920.0
20
18520.0
30
0
11
309920.0
21
19080.0
31
0
0
LINE
8
lighting
10
310480.0
20
18520.0
30
0
11
310480.0
21
19080.0
31
0
0
LINE
8
lighting
10
309920.0
20
18520.0
30
0
11
310480.0
21
18520.0
31
0
0
LINE
8
lighting
10
309920.0
20
19080.0
30
0
11
310480.0
21
19080.0
31
0
0
LINE
8
lighting
10
309954.0
20
18530.0
30
0
11
309954.0
21
19070.0
31
0
0
LINE
8
lighting
10
309966.0
20
18530.0
30
0
11
309966.0
21
19070.0
31
0
0
LINE
8
lighting
10
309954.0
20
18530.0
30
0
11
309966.0
21
18530.0
31
0
0
LINE
8
lighting
10
309954.0
20
19070.0
30
0
11
309966.0
21
19070.0
31
0
0
LINE
8
lighting
10
310034.0
20
18530.0
30
0
11
310034.0
21
19070.0
31
0
0
LINE
8
lighting
10
310046.0
20
18530.0
30
0
11
310046.0
21
19070.0
31
0
0
LINE
8
lighting
10
310034.0
20
18530.0
30
0
11
310046.0
21
18530.0
31
0
0
LINE
8
lighting
10
310034.0
20
19070.0
30
0
11
310046.0
21
19070.0
31
0
0
LINE
8
lighting
10
310114.0
20
18530.0
30
0
11
310114.0
21
19070.0
31
0
0
LINE
8
lighting
10
310126.0
20
18530.0
30
0
11
310126.0
21
19070.0
31
0
0
LINE
8
lighting
10
310114.0
20
18530.0
30
0
11
310126.0
21
18530.0
31
0
0
LINE
8
lighting
10
310114.0
20
19070.0
30
0
11
310126.0
21
19070.0
31
0
0
LINE
8
lighting
10
310194.0
20
18530.0
30
0
11
310194.0
21
19070.0
31
0
0
LINE
8
lighting
10
310206.0
20
18530.0
30
0
11
310206.0
21
19070.0
31
0
0
LINE
8
lighting
10
310194.0
20
18530.0
30
0
11
310206.0
21
18530.0
31
0
0
LINE
8
lighting
10
310194.0
20
19070.0
30
0
11
310206.0
21
19070.0
31
0
0
LINE
8
lighting
10
310274.0
20
18530.0
30
0
11
310274.0
21
19070.0
31
0
0
LINE
8
lighting
10
310286.0
20
18530.0
30
0
11
310286.0
21
19070.0
31
0
0
LINE
8
lighting
10
310274.0
20
18530.0
30
0
11
310286.0
21
18530.0
31
0
0
LINE
8
lighting
10
310274.0
20
19070.0
30
0
11
310286.0
21
19070.0
31
0
0
LINE
8
lighting
10
310354.0
20
18530.0
30
0
11
310354.0
21
19070.0
31
0
0
LINE
8
lighting
10
310366.0
20
18530.0
30
0
11
310366.0
21
19070.0
31
0
0
LINE
8
lighting
10
310354.0
20
18530.0
30
0
11
310366.0
21
18530.0
31
0
0
LINE
8
lighting
10
310354.0
20
19070.0
30
0
11
310366.0
21
19070.0
31
0
0
LINE
8
lighting
10
310434.0
20
18530.0
30
0
11
310434.0
21
19070.0
31
0
0
LINE
8
lighting
10
310446.0
20
18530.0
30
0
11
310446.0
21
19070.0
31
0
0
LINE
8
lighting
10
310434.0
20
18530.0
30
0
11
310446.0
21
18530.0
31
0
0
LINE
8
lighting
10
310434.0
20
19070.0
30
0
11
310446.0
21
19070.0
31
0
0
LINE
8
lighting
10
310209.0
20
18800.0
30
0
11
310195.5
21
18807.79
31
0
0
LINE
8
lighting
10
310195.5
20
18807.79
30
0
11
310195.5
21
18792.21
31
0
0
LINE
8
lighting
10
310195.5
20
18792.21
30
0
11
310209.0
21
18800.0
31
0
0
LINE
8
lighting
10
331480.0
20
18480.0
30
0
11
331480.0
21
19120.0
31
0
0
LINE
8
lighting
10
332120.0
20
18480.0
30
0
11
332120.0
21
19120.0
31
0
0
LINE
8
lighting
10
331480.0
20
18480.0
30
0
11
332120.0
21
18480.0
31
0
0
LINE
8
lighting
10
331480.0
20
19120.0
30
0
11
332120.0
21
19120.0
31
0
0
LINE
8
lighting
10
331520.0
20
18520.0
30
0
11
331520.0
21
19080.0
31
0
0
LINE
8
lighting
10
332080.0
20
18520.0
30
0
11
332080.0
21
19080.0
31
0
0
LINE
8
lighting
10
331520.0
20
18520.0
30
0
11
332080.0
21
18520.0
31
0
0
LINE
8
lighting
10
331520.0
20
19080.0
30
0
11
332080.0
21
19080.0
31
0
0
LINE
8
lighting
10
331554.0
20
18530.0
30
0
11
331554.0
21
19070.0
31
0
0
LINE
8
lighting
10
331566.0
20
18530.0
30
0
11
331566.0
21
19070.0
31
0
0
LINE
8
lighting
10
331554.0
20
18530.0
30
0
11
331566.0
21
18530.0
31
0
0
LINE
8
lighting
10
331554.0
20
19070.0
30
0
11
331566.0
21
19070.0
31
0
0
LINE
8
lighting
10
331634.0
20
18530.0
30
0
11
331634.0
21
19070.0
31
0
0
LINE
8
lighting
10
331646.0
20
18530.0
30
0
11
331646.0
21
19070.0
31
0
0
LINE
8
lighting
10
331634.0
20
18530.0
30
0
11
331646.0
21
18530.0
31
0
0
LINE
8
lighting
10
331634.0
20
19070.0
30
0
11
331646.0
21
19070.0
31
0
0
LINE
8
lighting
10
331714.0
20
18530.0
30
0
11
331714.0
21
19070.0
31
0
0
LINE
8
lighting
10
331726.0
20
18530.0
30
0
11
331726.0
21
19070.0
31
0
0
LINE
8
lighting
10
331714.0
20
18530.0
30
0
11
331726.0
21
18530.0
31
0
0
LINE
8
lighting
10
331714.0
20
19070.0
30
0
11
331726.0
21
19070.0
31
0
0
LINE
8
lighting
10
331794.0
20
18530.0
30
0
11
331794.0
21
19070.0
31
0
0
LINE
8
lighting
10
331806.0
20
18530.0
30
0
11
331806.0
21
19070.0
31
0
0
LINE
8
lighting
10
331794.0
20
18530.0
30
0
11
331806.0
21
18530.0
31
0
0
LINE
8
lighting
10
331794.0
20
19070.0
30
0
11
331806.0
21
19070.0
31
0
0
LINE
8
lighting
10
331874.0
20
18530.0
30
0
11
331874.0
21
19070.0
31
0
0
LINE
8
lighting
10
331886.0
20
18530.0
30
0
11
331886.0
21
19070.0
31
0
0
LINE
8
lighting
10
331874.0
20
18530.0
30
0
11
331886.0
21
18530.0
31
0
0
LINE
8
lighting
10
331874.0
20
19070.0
30
0
11
331886.0
21
19070.0
31
0
0
LINE
8
lighting
10
331954.0
20
18530.0
30
0
11
331954.0
21
19070.0
31
0
0
LINE
8
lighting
10
331966.0
20
18530.0
30
0
11
331966.0
21
19070.0
31
0
0
LINE
8
lighting
10
331954.0
20
18530.0
30
0
11
331966.0
21
18530.0
31
0
0
LINE
8
lighting
10
331954.0
20
19070.0
30
0
11
331966.0
21
19070.0
31
0
0
LINE
8
lighting
10
332034.0
20
18530.0
30
0
11
332034.0
21
19070.0
31
0
0
LINE
8
lighting
10
332046.0
20
18530.0
30
0
11
332046.0
21
19070.0
31
0
0
LINE
8
lighting
10
332034.0
20
18530.0
30
0
11
332046.0
21
18530.0
31
0
0
LINE
8
lighting
10
332034.0
20
19070.0
30
0
11
332046.0
21
19070.0
31
0
0
LINE
8
lighting
10
331809.0
20
18800.0
30
0
11
331795.5
21
18807.79
31
0
0
LINE
8
lighting
10
331795.5
20
18807.79
30
0
11
331795.5
21
18792.21
31
0
0
LINE
8
lighting
10
331795.5
20
18792.21
30
0
11
331809.0
21
18800.0
31
0
0
LINE
8
lighting
10
320680.0
20
18480.0
30
0
11
320680.0
21
19120.0
31
0
0
LINE
8
lighting
10
321320.0
20
18480.0
30
0
11
321320.0
21
19120.0
31
0
0
LINE
8
lighting
10
320680.0
20
18480.0
30
0
11
321320.0
21
18480.0
31
0
0
LINE
8
lighting
10
320680.0
20
19120.0
30
0
11
321320.0
21
19120.0
31
0
0
LINE
8
lighting
10
320720.0
20
18520.0
30
0
11
320720.0
21
19080.0
31
0
0
LINE
8
lighting
10
321280.0
20
18520.0
30
0
11
321280.0
21
19080.0
31
0
0
LINE
8
lighting
10
320720.0
20
18520.0
30
0
11
321280.0
21
18520.0
31
0
0
LINE
8
lighting
10
320720.0
20
19080.0
30
0
11
321280.0
21
19080.0
31
0
0
LINE
8
lighting
10
320754.0
20
18530.0
30
0
11
320754.0
21
19070.0
31
0
0
LINE
8
lighting
10
320766.0
20
18530.0
30
0
11
320766.0
21
19070.0
31
0
0
LINE
8
lighting
10
320754.0
20
18530.0
30
0
11
320766.0
21
18530.0
31
0
0
LINE
8
lighting
10
320754.0
20
19070.0
30
0
11
320766.0
21
19070.0
31
0
0
LINE
8
lighting
10
320834.0
20
18530.0
30
0
11
320834.0
21
19070.0
31
0
0
LINE
8
lighting
10
320846.0
20
18530.0
30
0
11
320846.0
21
19070.0
31
0
0
LINE
8
lighting
10
320834.0
20
18530.0
30
0
11
320846.0
21
18530.0
31
0
0
LINE
8
lighting
10
320834.0
20
19070.0
30
0
11
320846.0
21
19070.0
31
0
0
LINE
8
lighting
10
320914.0
20
18530.0
30
0
11
320914.0
21
19070.0
31
0
0
LINE
8
lighting
10
320926.0
20
18530.0
30
0
11
320926.0
21
19070.0
31
0
0
LINE
8
lighting
10
320914.0
20
18530.0
30
0
11
320926.0
21
18530.0
31
0
0
LINE
8
lighting
10
320914.0
20
19070.0
30
0
11
320926.0
21
19070.0
31
0
0
LINE
8
lighting
10
320994.0
20
18530.0
30
0
11
320994.0
21
19070.0
31
0
0
LINE
8
lighting
10
321006.0
20
18530.0
30
0
11
321006.0
21
19070.0
31
0
0
LINE
8
lighting
10
320994.0
20
18530.0
30
0
11
321006.0
21
18530.0
31
0
0
LINE
8
lighting
10
320994.0
20
19070.0
30
0
11
321006.0
21
19070.0
31
0
0
LINE
8
lighting
10
321074.0
20
18530.0
30
0
11
321074.0
21
19070.0
31
0
0
LINE
8
lighting
10
321086.0
20
18530.0
30
0
11
321086.0
21
19070.0
31
0
0
LINE
8
lighting
10
321074.0
20
18530.0
30
0
11
321086.0
21
18530.0
31
0
0
LINE
8
lighting
10
321074.0
20
19070.0
30
0
11
321086.0
21
19070.0
31
0
0
LINE
8
lighting
10
321154.0
20
18530.0
30
0
11
321154.0
21
19070.0
31
0
0
LINE
8
lighting
10
321166.0
20
18530.0
30
0
11
321166.0
21
19070.0
31
0
0
LINE
8
lighting
10
321154.0
20
18530.0
30
0
11
321166.0
21
18530.0
31
0
0
LINE
8
lighting
10
321154.0
20
19070.0
30
0
11
321166.0
21
19070.0
31
0
0
LINE
8
lighting
10
321234.0
20
18530.0
30
0
11
321234.0
21
19070.0
31
0
0
LINE
8
lighting
10
321246.0
20
18530.0
30
0
11
321246.0
21
19070.0
31
0
0
LINE
8
lighting
10
321234.0
20
18530.0
30
0
11
321246.0
21
18530.0
31
0
0
LINE
8
lighting
10
321234.0
20
19070.0
30
0
11
321246.0
21
19070.0
31
0
0
LINE
8
lighting
10
321009.0
20
18800.0
30
0
11
320995.5
21
18807.79
31
0
0
LINE
8
lighting
10
320995.5
20
18807.79
30
0
11
320995.5
21
18792.21
31
0
0
LINE
8
lighting
10
320995.5
20
18792.21
30
0
11
321009.0
21
18800.0
31
0
0
LINE
8
electrical
10
310200.0
20
4880.0
30
0
11
310200.0
21
4872.21
31
0
0
LINE
8
electrical
10
310200.0
20
4872.21
30
0
11
310200.0
21
4887.79
31
0
0
LINE
8
electrical
10
310200.0
20
4887.79
30
0
11
310200.0
21
4880.0
31
0
0
LINE
8
electrical
10
335550.0
20
4880.0
30
0
11
310200.0
21
4880.0
31
0
0
LINE
8
electrical
10
335550.0
20
4880.0
30
0
11
335550.0
21
4872.21
31
0
0
LINE
8
electrical
10
335550.0
20
4872.21
30
0
11
335550.0
21
4887.79
31
0
0
LINE
8
electrical
10
335550.0
20
4887.79
30
0
11
335550.0
21
4880.0
31
0
0
LINE
8
electrical
10
310200.0
20
18800.0
30
0
11
310207.79
21
18800.0
31
0
0
LINE
8
electrical
10
310207.79
20
18800.0
30
0
11
310192.21
21
18800.0
31
0
0
LINE
8
electrical
10
310192.21
20
18800.0
30
0
11
310200.0
21
18800.0
31
0
0
LINE
8
electrical
10
310200.0
20
4880.0
30
0
11
310200.0
21
18800.0
31
0
0
LINE
8
electrical
10
310200.0
20
4880.0
30
0
11
310207.79
21
4880.0
31
0
0
LINE
8
electrical
10
310207.79
20
4880.0
30
0
11
310192.21
21
4880.0
31
0
0
LINE
8
electrical
10
310192.21
20
4880.0
30
0
11
310200.0
21
4880.0
31
0
0
LINE
8
electrical
10
331800.0
20
18800.0
30
0
11
331807.79
21
18800.0
31
0
0
LINE
8
electrical
10
331807.79
20
18800.0
30
0
11
331792.21
21
18800.0
31
0
0
LINE
8
electrical
10
331792.21
20
18800.0
30
0
11
331800.0
21
18800.0
31
0
0
LINE
8
electrical
10
331800.0
20
4880.0
30
0
11
331800.0
21
18800.0
31
0
0
LINE
8
electrical
10
331800.0
20
4880.0
30
0
11
331807.79
21
4880.0
31
0
0
LINE
8
electrical
10
331807.79
20
4880.0
30
0
11
331792.21
21
4880.0
31
0
0
LINE
8
electrical
10
331792.21
20
4880.0
30
0
11
331800.0
21
4880.0
31
0
0
LINE
8
electrical
10
321000.0
20
18800.0
30
0
11
321007.79
21
18800.0
31
0
0
LINE
8
electrical
10
321007.79
20
18800.0
30
0
11
320992.21
21
18800.0
31
0
0
LINE
8
electrical
10
320992.21
20
18800.0
30
0
11
321000.0
21
18800.0
31
0
0
LINE
8
electrical
10
321000.0
20
4880.0
30
0
11
321000.0
21
18800.0
31
0
0
LINE
8
electrical
10
321000.0
20
4880.0
30
0
11
321007.79
21
4880.0
31
0
0
LINE
8
electrical
10
321007.79
20
4880.0
30
0
11
320992.21
21
4880.0
31
0
0
LINE
8
electrical
10
320992.21
20
4880.0
30
0
11
321000.0
21
4880.0
31
0
0
LINE
8
electrical
10
335563.0
20
2200.0
30
0
11
335543.5
21
2211.26
31
0
0
LINE
8
electrical
10
335543.5
20
2211.26
30
0
11
335543.5
21
2188.74
31
0
0
LINE
8
electrical
10
335543.5
20
2188.74
30
0
11
335563.0
21
2200.0
31
0
0
LINE
8
electrical
10
331492.83
20
4869.16
30
0
11
331503.59
21
4885.42
31
0
0
LINE
8
electrical
10
331503.59
20
4885.42
30
0
11
331503.59
21
4885.42
31
0
0
LINE
8
electrical
10
331503.59
20
4885.42
30
0
11
331492.83
21
4869.16
31
0
0
LINE
8
electrical
10
335542.83
20
2189.16
30
0
11
331492.83
21
4869.16
31
0
0
LINE
8
electrical
10
335542.83
20
2189.16
30
0
11
335553.59
21
2205.42
31
0
0
LINE
8
electrical
10
335553.59
20
2205.42
30
0
11
335553.59
21
2205.42
31
0
0
LINE
8
electrical
10
335553.59
20
2205.42
30
0
11
335542.83
21
2189.16
31
0
0
LINE
8
electrical
10
310500.0
20
4880.0
30
0
11
310500.0
21
4868.74
31
0
0
LINE
8
electrical
10
310500.0
20
4868.74
30
0
11
310500.0
21
4891.26
31
0
0
LINE
8
electrical
10
310500.0
20
4891.26
30
0
11
310500.0
21
4880.0
31
0
0
LINE
8
electrical
10
331500.0
20
4880.0
30
0
11
310500.0
21
4880.0
31
0
0
LINE
8
electrical
10
331500.0
20
4880.0
30
0
11
331500.0
21
4868.74
31
0
0
LINE
8
electrical
10
331500.0
20
4868.74
30
0
11
331500.0
21
4891.26
31
0
0
LINE
8
electrical
10
331500.0
20
4891.26
30
0
11
331500.0
21
4880.0
31
0
0
LINE
8
electrical
10
335550.0
20
2200.0
30
0
11
335564.04
21
2200.0
31
0
0
LINE
8
electrical
10
335564.04
20
2200.0
30
0
11
335550.0
21
2200.0
31
0
0
LINE
8
electrical
10
331500.0
20
4880.0
30
0
11
331514.04
21
4880.0
31
0
0
LINE
8
electrical
10
331514.04
20
4880.0
30
0
11
331500.0
21
4880.0
31
0
0
LINE
8
electrical
10
335563.0
20
2200.0
30
0
11
335543.5
21
2211.26
31
0
0
LINE
8
electrical
10
335543.5
20
2211.26
30
0
11
335543.5
21
2188.74
31
0
0
LINE
8
electrical
10
335543.5
20
2188.74
30
0
11
335563.0
21
2200.0
31
0
0
LINE
8
electrical
10
331492.61
20
4989.31
30
0
11
331503.7
21
5005.35
31
0
0
LINE
8
electrical
10
331503.7
20
5005.35
30
0
11
331503.7
21
5005.35
31
0
0
LINE
8
electrical
10
331503.7
20
5005.35
30
0
11
331492.61
21
4989.31
31
0
0
LINE
8
electrical
10
335542.61
20
2189.31
30
0
11
331492.61
21
4989.31
31
0
0
LINE
8
electrical
10
335542.61
20
2189.31
30
0
11
335553.7
21
2205.35
31
0
0
LINE
8
electrical
10
335553.7
20
2205.35
30
0
11
335553.7
21
2205.35
31
0
0
LINE
8
electrical
10
335553.7
20
2205.35
30
0
11
335542.61
21
2189.31
31
0
0
LINE
8
electrical
10
310500.0
20
5000.0
30
0
11
310500.0
21
4988.74
31
0
0
LINE
8
electrical
10
310500.0
20
4988.74
30
0
11
310500.0
21
5011.26
31
0
0
LINE
8
electrical
10
310500.0
20
5011.26
30
0
11
310500.0
21
5000.0
31
0
0
LINE
8
electrical
10
331500.0
20
5000.0
30
0
11
310500.0
21
5000.0
31
0
0
LINE
8
electrical
10
331500.0
20
5000.0
30
0
11
331500.0
21
4988.74
31
0
0
LINE
8
electrical
10
331500.0
20
4988.74
30
0
11
331500.0
21
5011.26
31
0
0
LINE
8
electrical
10
331500.0
20
5011.26
30
0
11
331500.0
21
5000.0
31
0
0
LINE
8
electrical
10
335550.0
20
2200.0
30
0
11
335564.04
21
2200.0
31
0
0
LINE
8
electrical
10
335564.04
20
2200.0
30
0
11
335550.0
21
2200.0
31
0
0
LINE
8
electrical
10
331500.0
20
5000.0
30
0
11
331514.04
21
5000.0
31
0
0
LINE
8
electrical
10
331514.04
20
5000.0
30
0
11
331500.0
21
5000.0
31
0
0
LINE
8
electrical
10
335563.0
20
2200.0
30
0
11
335543.5
21
2211.26
31
0
0
LINE
8
electrical
10
335543.5
20
2211.26
30
0
11
335543.5
21
2188.74
31
0
0
LINE
8
electrical
10
335543.5
20
2188.74
30
0
11
335563.0
21
2200.0
31
0
0
LINE
8
electrical
10
331492.4
20
5109.45
30
0
11
331503.8
21
5125.27
31
0
0
LINE
8
electrical
10
331503.8
20
5125.27
30
0
11
331503.8
21
5125.27
31
0
0
LINE
8
electrical
10
331503.8
20
5125.27
30
0
11
331492.4
21
5109.45
31
0
0
LINE
8
electrical
10
335542.4
20
2189.45
30
0
11
331492.4
21
5109.45
31
0
0
LINE
8
electrical
10
335542.4
20
2189.45
30
0
11
335553.8
21
2205.27
31
0
0
LINE
8
electrical
10
335553.8
20
2205.27
30
0
11
335553.8
21
2205.27
31
0
0
LINE
8
electrical
10
335553.8
20
2205.27
30
0
11
335542.4
21
2189.45
31
0
0
LINE
8
electrical
10
310500.0
20
5120.0
30
0
11
310500.0
21
5108.74
31
0
0
LINE
8
electrical
10
310500.0
20
5108.74
30
0
11
310500.0
21
5131.26
31
0
0
LINE
8
electrical
10
310500.0
20
5131.26
30
0
11
310500.0
21
5120.0
31
0
0
LINE
8
electrical
10
331500.0
20
5120.0
30
0
11
310500.0
21
5120.0
31
0
0
LINE
8
electrical
10
331500.0
20
5120.0
30
0
11
331500.0
21
5108.74
31
0
0
LINE
8
electrical
10
331500.0
20
5108.74
30
0
11
331500.0
21
5131.26
31
0
0
LINE
8
electrical
10
331500.0
20
5131.26
30
0
11
331500.0
21
5120.0
31
0
0
LINE
8
electrical
10
335550.0
20
2200.0
30
0
11
335564.04
21
2200.0
31
0
0
LINE
8
electrical
10
335564.04
20
2200.0
30
0
11
335550.0
21
2200.0
31
0
0
LINE
8
electrical
10
331500.0
20
5120.0
30
0
11
331514.04
21
5120.0
31
0
0
LINE
8
electrical
10
331514.04
20
5120.0
30
0
11
331500.0
21
5120.0
31
0
0
LINE
8
electrical
10
311935.0
20
2150.0
30
0
11
311935.0
21
2210.0
31
0
0
LINE
8
electrical
10
312065.0
20
2150.0
30
0
11
312065.0
21
2210.0
31
0
0
LINE
8
electrical
10
311935.0
20
2150.0
30
0
11
312065.0
21
2150.0
31
0
0
LINE
8
electrical
10
311935.0
20
2210.0
30
0
11
312065.0
21
2210.0
31
0
0
LINE
8
electrical
10
312009.0
20
2180.0
30
0
11
311995.5
21
2187.79
31
0
0
LINE
8
electrical
10
311995.5
20
2187.79
30
0
11
311995.5
21
2172.21
31
0
0
LINE
8
electrical
10
311995.5
20
2172.21
30
0
11
312009.0
21
2180.0
31
0
0
LINE
8
electrical
10
335550.0
20
2180.0
30
0
11
335550.0
21
2172.21
31
0
0
LINE
8
electrical
10
335550.0
20
2172.21
30
0
11
335550.0
21
2187.79
31
0
0
LINE
8
electrical
10
335550.0
20
2187.79
30
0
11
335550.0
21
2180.0
31
0
0
LINE
8
electrical
10
312000.0
20
2180.0
30
0
11
335550.0
21
2180.0
31
0
0
LINE
8
electrical
10
312000.0
20
2180.0
30
0
11
312000.0
21
2172.21
31
0
0
LINE
8
electrical
10
312000.0
20
2172.21
30
0
11
312000.0
21
2187.79
31
0
0
LINE
8
electrical
10
312000.0
20
2187.79
30
0
11
312000.0
21
2180.0
31
0
0
LINE
8
electrical
10
312000.0
20
2180.0
30
0
11
312009.72
21
2180.0
31
0
0
LINE
8
electrical
10
312009.72
20
2180.0
30
0
11
312000.0
21
2180.0
31
0
0
LINE
8
electrical
10
329935.0
20
2150.0
30
0
11
329935.0
21
2210.0
31
0
0
LINE
8
electrical
10
330065.0
20
2150.0
30
0
11
330065.0
21
2210.0
31
0
0
LINE
8
electrical
10
329935.0
20
2150.0
30
0
11
330065.0
21
2150.0
31
0
0
LINE
8
electrical
10
329935.0
20
2210.0
30
0
11
330065.0
21
2210.0
31
0
0
LINE
8
electrical
10
330009.0
20
2180.0
30
0
11
329995.5
21
2187.79
31
0
0
LINE
8
electrical
10
329995.5
20
2187.79
30
0
11
329995.5
21
2172.21
31
0
0
LINE
8
electrical
10
329995.5
20
2172.21
30
0
11
330009.0
21
2180.0
31
0
0
LINE
8
electrical
10
335550.0
20
2180.0
30
0
11
335550.0
21
2172.21
31
0
0
LINE
8
electrical
10
335550.0
20
2172.21
30
0
11
335550.0
21
2187.79
31
0
0
LINE
8
electrical
10
335550.0
20
2187.79
30
0
11
335550.0
21
2180.0
31
0
0
LINE
8
electrical
10
330000.0
20
2180.0
30
0
11
335550.0
21
2180.0
31
0
0
LINE
8
electrical
10
330000.0
20
2180.0
30
0
11
330000.0
21
2172.21
31
0
0
LINE
8
electrical
10
330000.0
20
2172.21
30
0
11
330000.0
21
2187.79
31
0
0
LINE
8
electrical
10
330000.0
20
2187.79
30
0
11
330000.0
21
2180.0
31
0
0
LINE
8
electrical
10
330000.0
20
2180.0
30
0
11
330009.72
21
2180.0
31
0
0
LINE
8
electrical
10
330009.72
20
2180.0
30
0
11
330000.0
21
2180.0
31
0
0
LINE
8
hvac
10
306475.0
20
2725.0
30
0
11
306475.0
21
3475.0
31
0
0
LINE
8
hvac
10
308125.0
20
2725.0
30
0
11
308125.0
21
3475.0
31
0
0
LINE
8
hvac
10
306475.0
20
2725.0
30
0
11
308125.0
21
2725.0
31
0
0
LINE
8
hvac
10
306475.0
20
3475.0
30
0
11
308125.0
21
3475.0
31
0
0
LINE
8
hvac
10
306575.0
20
2680.0
30
0
11
306575.0
21
2720.0
31
0
0
LINE
8
hvac
10
308025.0
20
2680.0
30
0
11
308025.0
21
2720.0
31
0
0
LINE
8
hvac
10
306575.0
20
2680.0
30
0
11
308025.0
21
2680.0
31
0
0
LINE
8
hvac
10
306575.0
20
2720.0
30
0
11
308025.0
21
2720.0
31
0
0
LINE
8
hvac
10
306640.0
20
2640.0
30
0
11
306640.0
21
2700.0
31
0
0
LINE
8
hvac
10
306680.0
20
2640.0
30
0
11
306680.0
21
2700.0
31
0
0
LINE
8
hvac
10
306640.0
20
2640.0
30
0
11
306680.0
21
2640.0
31
0
0
LINE
8
hvac
10
306640.0
20
2700.0
30
0
11
306680.0
21
2700.0
31
0
0
LINE
8
hvac
10
306800.0
20
2640.0
30
0
11
306800.0
21
2700.0
31
0
0
LINE
8
hvac
10
306840.0
20
2640.0
30
0
11
306840.0
21
2700.0
31
0
0
LINE
8
hvac
10
306800.0
20
2640.0
30
0
11
306840.0
21
2640.0
31
0
0
LINE
8
hvac
10
306800.0
20
2700.0
30
0
11
306840.0
21
2700.0
31
0
0
LINE
8
hvac
10
306960.0
20
2640.0
30
0
11
306960.0
21
2700.0
31
0
0
LINE
8
hvac
10
307000.0
20
2640.0
30
0
11
307000.0
21
2700.0
31
0
0
LINE
8
hvac
10
306960.0
20
2640.0
30
0
11
307000.0
21
2640.0
31
0
0
LINE
8
hvac
10
306960.0
20
2700.0
30
0
11
307000.0
21
2700.0
31
0
0
LINE
8
hvac
10
307120.0
20
2640.0
30
0
11
307120.0
21
2700.0
31
0
0
LINE
8
hvac
10
307160.0
20
2640.0
30
0
11
307160.0
21
2700.0
31
0
0
LINE
8
hvac
10
307120.0
20
2640.0
30
0
11
307160.0
21
2640.0
31
0
0
LINE
8
hvac
10
307120.0
20
2700.0
30
0
11
307160.0
21
2700.0
31
0
0
LINE
8
hvac
10
307280.0
20
2640.0
30
0
11
307280.0
21
2700.0
31
0
0
LINE
8
hvac
10
307320.0
20
2640.0
30
0
11
307320.0
21
2700.0
31
0
0
LINE
8
hvac
10
307280.0
20
2640.0
30
0
11
307320.0
21
2640.0
31
0
0
LINE
8
hvac
10
307280.0
20
2700.0
30
0
11
307320.0
21
2700.0
31
0
0
LINE
8
hvac
10
307440.0
20
2640.0
30
0
11
307440.0
21
2700.0
31
0
0
LINE
8
hvac
10
307480.0
20
2640.0
30
0
11
307480.0
21
2700.0
31
0
0
LINE
8
hvac
10
307440.0
20
2640.0
30
0
11
307480.0
21
2640.0
31
0
0
LINE
8
hvac
10
307440.0
20
2700.0
30
0
11
307480.0
21
2700.0
31
0
0
LINE
8
hvac
10
307600.0
20
2640.0
30
0
11
307600.0
21
2700.0
31
0
0
LINE
8
hvac
10
307640.0
20
2640.0
30
0
11
307640.0
21
2700.0
31
0
0
LINE
8
hvac
10
307600.0
20
2640.0
30
0
11
307640.0
21
2640.0
31
0
0
LINE
8
hvac
10
307600.0
20
2700.0
30
0
11
307640.0
21
2700.0
31
0
0
LINE
8
hvac
10
307760.0
20
2640.0
30
0
11
307760.0
21
2700.0
31
0
0
LINE
8
hvac
10
307800.0
20
2640.0
30
0
11
307800.0
21
2700.0
31
0
0
LINE
8
hvac
10
307760.0
20
2640.0
30
0
11
307800.0
21
2640.0
31
0
0
LINE
8
hvac
10
307760.0
20
2700.0
30
0
11
307800.0
21
2700.0
31
0
0
LINE
8
hvac
10
307920.0
20
2640.0
30
0
11
307920.0
21
2700.0
31
0
0
LINE
8
hvac
10
307960.0
20
2640.0
30
0
11
307960.0
21
2700.0
31
0
0
LINE
8
hvac
10
307920.0
20
2640.0
30
0
11
307960.0
21
2640.0
31
0
0
LINE
8
hvac
10
307920.0
20
2700.0
30
0
11
307960.0
21
2700.0
31
0
0
LINE
8
hvac
10
307075.0
20
2875.0
30
0
11
307075.0
21
3325.0
31
0
0
LINE
8
hvac
10
307525.0
20
2875.0
30
0
11
307525.0
21
3325.0
31
0
0
LINE
8
hvac
10
307075.0
20
2875.0
30
0
11
307525.0
21
2875.0
31
0
0
LINE
8
hvac
10
307075.0
20
3325.0
30
0
11
307525.0
21
3325.0
31
0
0
LINE
8
hvac
10
310500.0
20
11825.0
30
0
11
310500.0
21
12175.0
31
0
0
LINE
8
hvac
10
331500.0
20
11825.0
30
0
11
331500.0
21
12175.0
31
0
0
LINE
8
hvac
10
310500.0
20
11825.0
30
0
11
331500.0
21
11825.0
31
0
0
LINE
8
hvac
10
310500.0
20
12175.0
30
0
11
331500.0
21
12175.0
31
0
0
LINE
8
hvac
10
307125.0
20
2925.0
30
0
11
307125.0
21
3275.0
31
0
0
LINE
8
hvac
10
321175.0
20
2925.0
30
0
11
321175.0
21
3275.0
31
0
0
LINE
8
hvac
10
307125.0
20
2925.0
30
0
11
321175.0
21
2925.0
31
0
0
LINE
8
hvac
10
307125.0
20
3275.0
30
0
11
321175.0
21
3275.0
31
0
0
LINE
8
hvac
10
320825.0
20
2925.0
30
0
11
320825.0
21
12175.0
31
0
0
LINE
8
hvac
10
321175.0
20
2925.0
30
0
11
321175.0
21
12175.0
31
0
0
LINE
8
hvac
10
320825.0
20
2925.0
30
0
11
321175.0
21
2925.0
31
0
0
LINE
8
hvac
10
320825.0
20
12175.0
30
0
11
321175.0
21
12175.0
31
0
0
LINE
8
hvac
10
314650.0
20
11650.0
30
0
11
314650.0
21
12350.0
31
0
0
LINE
8
hvac
10
315350.0
20
11650.0
30
0
11
315350.0
21
12350.0
31
0
0
LINE
8
hvac
10
314650.0
20
11650.0
30
0
11
315350.0
21
11650.0
31
0
0
LINE
8
hvac
10
314650.0
20
12350.0
30
0
11
315350.0
21
12350.0
31
0
0
LINE
8
hvac
10
326650.0
20
11650.0
30
0
11
326650.0
21
12350.0
31
0
0
LINE
8
hvac
10
327350.0
20
11650.0
30
0
11
327350.0
21
12350.0
31
0
0
LINE
8
hvac
10
326650.0
20
11650.0
30
0
11
327350.0
21
11650.0
31
0
0
LINE
8
hvac
10
326650.0
20
12350.0
30
0
11
327350.0
21
12350.0
31
0
0
LINE
8
water
10
319940.0
20
2400.0
30
0
11
319940.0
21
2325.0
31
0
0
LINE
8
water
10
319940.0
20
2325.0
30
0
11
319940.0
21
2400.0
31
0
0
LINE
8
water
10
319940.0
20
2400.0
30
0
11
319940.0
21
2475.0
31
0
0
LINE
8
water
10
319940.0
20
2475.0
30
0
11
319940.0
21
2400.0
31
0
0
LINE
8
water
10
319540.0
20
2400.0
30
0
11
319940.0
21
2400.0
31
0
0
LINE
8
water
10
319540.0
20
2400.0
30
0
11
319540.0
21
2325.0
31
0
0
LINE
8
water
10
319540.0
20
2325.0
30
0
11
319540.0
21
2400.0
31
0
0
LINE
8
water
10
319540.0
20
2400.0
30
0
11
319540.0
21
2475.0
31
0
0
LINE
8
water
10
319540.0
20
2475.0
30
0
11
319540.0
21
2400.0
31
0
0
LINE
8
water
10
319830.0
20
2400.0
30
0
11
319767.81
21
2485.6
31
0
0
LINE
8
water
10
319767.81
20
2485.6
30
0
11
319667.19
21
2452.9
31
0
0
LINE
8
water
10
319667.19
20
2452.9
30
0
11
319667.19
21
2347.1
31
0
0
LINE
8
water
10
319667.19
20
2347.1
30
0
11
319767.81
21
2314.4
31
0
0
LINE
8
water
10
319767.81
20
2314.4
30
0
11
319830.0
21
2400.0
31
0
0
LINE
8
water
10
319550.0
20
2375.0
30
0
11
319550.0
21
2425.0
31
0
0
LINE
8
water
10
319930.0
20
2375.0
30
0
11
319930.0
21
2425.0
31
0
0
LINE
8
water
10
319550.0
20
2375.0
30
0
11
319930.0
21
2375.0
31
0
0
LINE
8
water
10
319550.0
20
2425.0
30
0
11
319930.0
21
2425.0
31
0
0
LINE
8
water
10
319615.0
20
2400.0
30
0
11
319615.0
21
2295.38
31
0
0
LINE
8
water
10
319615.0
20
2295.38
30
0
11
319615.0
21
2335.34
31
0
0
LINE
8
water
10
319615.0
20
2335.34
30
0
11
319615.0
21
2464.66
31
0
0
LINE
8
water
10
319615.0
20
2464.66
30
0
11
319615.0
21
2504.62
31
0
0
LINE
8
water
10
319615.0
20
2504.62
30
0
11
319615.0
21
2400.0
31
0
0
LINE
8
water
10
319590.0
20
2400.0
30
0
11
319615.0
21
2400.0
31
0
0
LINE
8
water
10
319590.0
20
2400.0
30
0
11
319590.0
21
2295.38
31
0
0
LINE
8
water
10
319590.0
20
2295.38
30
0
11
319590.0
21
2335.34
31
0
0
LINE
8
water
10
319590.0
20
2335.34
30
0
11
319590.0
21
2464.66
31
0
0
LINE
8
water
10
319590.0
20
2464.66
30
0
11
319590.0
21
2504.62
31
0
0
LINE
8
water
10
319590.0
20
2504.62
30
0
11
319590.0
21
2400.0
31
0
0
LINE
8
water
10
319915.0
20
2400.0
30
0
11
319915.0
21
2295.38
31
0
0
LINE
8
water
10
319915.0
20
2295.38
30
0
11
319915.0
21
2335.34
31
0
0
LINE
8
water
10
319915.0
20
2335.34
30
0
11
319915.0
21
2464.66
31
0
0
LINE
8
water
10
319915.0
20
2464.66
30
0
11
319915.0
21
2504.62
31
0
0
LINE
8
water
10
319915.0
20
2504.62
30
0
11
319915.0
21
2400.0
31
0
0
LINE
8
water
10
319890.0
20
2400.0
30
0
11
319915.0
21
2400.0
31
0
0
LINE
8
water
10
319890.0
20
2400.0
30
0
11
319890.0
21
2295.38
31
0
0
LINE
8
water
10
319890.0
20
2295.38
30
0
11
319890.0
21
2335.34
31
0
0
LINE
8
water
10
319890.0
20
2335.34
30
0
11
319890.0
21
2464.66
31
0
0
LINE
8
water
10
319890.0
20
2464.66
30
0
11
319890.0
21
2504.62
31
0
0
LINE
8
water
10
319890.0
20
2504.62
30
0
11
319890.0
21
2400.0
31
0
0
LINE
8
water
10
322800.0
20
2400.0
30
0
11
322843.3
21
2400.0
31
0
0
LINE
8
water
10
322843.3
20
2400.0
30
0
11
322756.7
21
2400.0
31
0
0
LINE
8
water
10
322756.7
20
2400.0
30
0
11
322800.0
21
2400.0
31
0
0
LINE
8
water
10
322800.0
20
-57500.0
30
0
11
322800.0
21
2400.0
31
0
0
LINE
8
water
10
322800.0
20
-57500.0
30
0
11
322843.3
21
-57500.0
31
0
0
LINE
8
water
10
322843.3
20
-57500.0
30
0
11
322756.7
21
-57500.0
31
0
0
LINE
8
water
10
322756.7
20
-57500.0
30
0
11
322800.0
21
-57500.0
31
0
0
LINE
8
water
10
312600.0
20
2400.0
30
0
11
312600.0
21
2356.7
31
0
0
LINE
8
water
10
312600.0
20
2356.7
30
0
11
312600.0
21
2443.3
31
0
0
LINE
8
water
10
312600.0
20
2443.3
30
0
11
312600.0
21
2400.0
31
0
0
LINE
8
water
10
322800.0
20
2400.0
30
0
11
312600.0
21
2400.0
31
0
0
LINE
8
water
10
322800.0
20
2400.0
30
0
11
322800.0
21
2356.7
31
0
0
LINE
8
water
10
322800.0
20
2356.7
30
0
11
322800.0
21
2443.3
31
0
0
LINE
8
water
10
322800.0
20
2443.3
30
0
11
322800.0
21
2400.0
31
0
0
LINE
8
water
10
312600.0
20
16600.0
30
0
11
312643.3
21
16600.0
31
0
0
LINE
8
water
10
312643.3
20
16600.0
30
0
11
312556.7
21
16600.0
31
0
0
LINE
8
water
10
312556.7
20
16600.0
30
0
11
312600.0
21
16600.0
31
0
0
LINE
8
water
10
312600.0
20
2400.0
30
0
11
312600.0
21
16600.0
31
0
0
LINE
8
water
10
312600.0
20
2400.0
30
0
11
312643.3
21
2400.0
31
0
0
LINE
8
water
10
312643.3
20
2400.0
30
0
11
312556.7
21
2400.0
31
0
0
LINE
8
water
10
312556.7
20
2400.0
30
0
11
312600.0
21
2400.0
31
0
0
LINE
8
water
10
312550.0
20
16600.0
30
0
11
312625.0
21
16643.3
31
0
0
LINE
8
water
10
312625.0
20
16643.3
30
0
11
312625.0
21
16556.7
31
0
0
LINE
8
water
10
312625.0
20
16556.7
30
0
11
312550.0
21
16600.0
31
0
0
LINE
8
water
10
322800.0
20
2400.0
30
0
11
322854.0
21
2400.0
31
0
0
LINE
8
water
10
322854.0
20
2400.0
30
0
11
322800.0
21
2400.0
31
0
0
LINE
8
water
10
312600.0
20
2400.0
30
0
11
312654.0
21
2400.0
31
0
0
LINE
8
water
10
312654.0
20
2400.0
30
0
11
312600.0
21
2400.0
31
0
0
LINE
8
water
10
312600.0
20
16600.0
30
0
11
312654.0
21
16600.0
31
0
0
LINE
8
water
10
312654.0
20
16600.0
30
0
11
312600.0
21
16600.0
31
0
0
LINE
8
water
10
311900.0
20
16200.0
30
0
11
311900.0
21
17000.0
31
0
0
LINE
8
water
10
313300.0
20
16200.0
30
0
11
313300.0
21
17000.0
31
0
0
LINE
8
water
10
311900.0
20
16200.0
30
0
11
313300.0
21
16200.0
31
0
0
LINE
8
water
10
311900.0
20
17000.0
30
0
11
313300.0
21
17000.0
31
0
0
LINE
8
water
10
312225.0
20
16275.0
30
0
11
312225.0
21
16925.0
31
0
0
LINE
8
water
10
312975.0
20
16275.0
30
0
11
312975.0
21
16925.0
31
0
0
LINE
8
water
10
312225.0
20
16275.0
30
0
11
312975.0
21
16275.0
31
0
0
LINE
8
water
10
312225.0
20
16925.0
30
0
11
312975.0
21
16925.0
31
0
0
LINE
8
water
10
312650.0
20
16600.0
30
0
11
312650.0
21
16504.89
31
0
0
LINE
8
water
10
312650.0
20
16504.89
30
0
11
312650.0
21
16541.22
31
0
0
LINE
8
water
10
312650.0
20
16541.22
30
0
11
312650.0
21
16658.78
31
0
0
LINE
8
water
10
312650.0
20
16658.78
30
0
11
312650.0
21
16695.11
31
0
0
LINE
8
water
10
312650.0
20
16695.11
30
0
11
312650.0
21
16600.0
31
0
0
LINE
8
water
10
312200.0
20
16600.0
30
0
11
312650.0
21
16600.0
31
0
0
LINE
8
water
10
312200.0
20
16600.0
30
0
11
312200.0
21
16504.89
31
0
0
LINE
8
water
10
312200.0
20
16504.89
30
0
11
312200.0
21
16541.22
31
0
0
LINE
8
water
10
312200.0
20
16541.22
30
0
11
312200.0
21
16658.78
31
0
0
LINE
8
water
10
312200.0
20
16658.78
30
0
11
312200.0
21
16695.11
31
0
0
LINE
8
water
10
312200.0
20
16695.11
30
0
11
312200.0
21
16600.0
31
0
0
LINE
8
water
10
313000.0
20
16600.0
30
0
11
312925.0
21
16643.3
31
0
0
LINE
8
water
10
312925.0
20
16643.3
30
0
11
312925.0
21
16556.7
31
0
0
LINE
8
water
10
312925.0
20
16556.7
30
0
11
313000.0
21
16600.0
31
0
0
LINE
8
water
10
323250.0
20
16600.0
30
0
11
323250.0
21
16556.7
31
0
0
LINE
8
water
10
323250.0
20
16556.7
30
0
11
323250.0
21
16643.3
31
0
0
LINE
8
water
10
323250.0
20
16643.3
30
0
11
323250.0
21
16600.0
31
0
0
LINE
8
water
10
312950.0
20
16600.0
30
0
11
323250.0
21
16600.0
31
0
0
LINE
8
water
10
312950.0
20
16600.0
30
0
11
312950.0
21
16556.7
31
0
0
LINE
8
water
10
312950.0
20
16556.7
30
0
11
312950.0
21
16643.3
31
0
0
LINE
8
water
10
312950.0
20
16643.3
30
0
11
312950.0
21
16600.0
31
0
0
LINE
8
water
10
323250.0
20
-56500.0
30
0
11
323293.3
21
-56500.0
31
0
0
LINE
8
water
10
323293.3
20
-56500.0
30
0
11
323206.7
21
-56500.0
31
0
0
LINE
8
water
10
323206.7
20
-56500.0
30
0
11
323250.0
21
-56500.0
31
0
0
LINE
8
water
10
323250.0
20
16600.0
30
0
11
323250.0
21
-56500.0
31
0
0
LINE
8
water
10
323250.0
20
16600.0
30
0
11
323293.3
21
16600.0
31
0
0
LINE
8
water
10
323293.3
20
16600.0
30
0
11
323206.7
21
16600.0
31
0
0
LINE
8
water
10
323206.7
20
16600.0
30
0
11
323250.0
21
16600.0
31
0
0
LINE
8
water
10
323300.0
20
-56500.0
30
0
11
323225.0
21
-56456.7
31
0
0
LINE
8
water
10
323225.0
20
-56456.7
30
0
11
323225.0
21
-56543.3
31
0
0
LINE
8
water
10
323225.0
20
-56543.3
30
0
11
323300.0
21
-56500.0
31
0
0
LINE
8
water
10
312950.0
20
16600.0
30
0
11
313004.0
21
16600.0
31
0
0
LINE
8
water
10
313004.0
20
16600.0
30
0
11
312950.0
21
16600.0
31
0
0
LINE
8
water
10
323250.0
20
16600.0
30
0
11
323304.0
21
16600.0
31
0
0
LINE
8
water
10
323304.0
20
16600.0
30
0
11
323250.0
21
16600.0
31
0
0
LINE
8
water
10
323250.0
20
-56500.0
30
0
11
323304.0
21
-56500.0
31
0
0
LINE
8
water
10
323304.0
20
-56500.0
30
0
11
323250.0
21
-56500.0
31
0
0
LINE
8
sensors
10
306040.0
20
6320.0
30
0
11
306040.0
21
6480.0
31
0
0
LINE
8
sensors
10
306140.0
20
6320.0
30
0
11
306140.0
21
6480.0
31
0
0
LINE
8
sensors
10
306040.0
20
6320.0
30
0
11
306140.0
21
6320.0
31
0
0
LINE
8
sensors
10
306040.0
20
6480.0
30
0
11
306140.0
21
6480.0
31
0
0
LINE
8
sensors
10
306145.0
20
6345.0
30
0
11
306145.0
21
6455.0
31
0
0
LINE
8
sensors
10
306165.0
20
6345.0
30
0
11
306165.0
21
6455.0
31
0
0
LINE
8
sensors
10
306145.0
20
6345.0
30
0
11
306165.0
21
6345.0
31
0
0
LINE
8
sensors
10
306145.0
20
6455.0
30
0
11
306165.0
21
6455.0
31
0
0
LINE
8
sensors
10
306040.0
20
6620.0
30
0
11
306040.0
21
6780.0
31
0
0
LINE
8
sensors
10
306140.0
20
6620.0
30
0
11
306140.0
21
6780.0
31
0
0
LINE
8
sensors
10
306040.0
20
6620.0
30
0
11
306140.0
21
6620.0
31
0
0
LINE
8
sensors
10
306040.0
20
6780.0
30
0
11
306140.0
21
6780.0
31
0
0
LINE
8
sensors
10
306145.0
20
6645.0
30
0
11
306145.0
21
6755.0
31
0
0
LINE
8
sensors
10
306165.0
20
6645.0
30
0
11
306165.0
21
6755.0
31
0
0
LINE
8
sensors
10
306145.0
20
6645.0
30
0
11
306165.0
21
6645.0
31
0
0
LINE
8
sensors
10
306145.0
20
6755.0
30
0
11
306165.0
21
6755.0
31
0
0
LINE
8
sensors
10
306040.0
20
6920.0
30
0
11
306040.0
21
7080.0
31
0
0
LINE
8
sensors
10
306140.0
20
6920.0
30
0
11
306140.0
21
7080.0
31
0
0
LINE
8
sensors
10
306040.0
20
6920.0
30
0
11
306140.0
21
6920.0
31
0
0
LINE
8
sensors
10
306040.0
20
7080.0
30
0
11
306140.0
21
7080.0
31
0
0
LINE
8
sensors
10
306145.0
20
6945.0
30
0
11
306145.0
21
7055.0
31
0
0
LINE
8
sensors
10
306165.0
20
6945.0
30
0
11
306165.0
21
7055.0
31
0
0
LINE
8
sensors
10
306145.0
20
6945.0
30
0
11
306165.0
21
6945.0
31
0
0
LINE
8
sensors
10
306145.0
20
7055.0
30
0
11
306165.0
21
7055.0
31
0
0
LINE
8
sensors
10
321080.0
20
12000.0
30
0
11
321000.0
21
12080.0
31
0
0
LINE
8
sensors
10
321000.0
20
12080.0
30
0
11
320920.0
21
12000.0
31
0
0
LINE
8
sensors
10
320920.0
20
12000.0
30
0
11
321000.0
21
11920.0
31
0
0
LINE
8
sensors
10
321000.0
20
11920.0
30
0
11
321080.0
21
12000.0
31
0
0
LINE
8
sensors
10
321000.0
20
12000.0
30
0
11
321065.0
21
12000.0
31
0
0
LINE
8
sensors
10
321065.0
20
12000.0
30
0
11
321000.0
21
12000.0
31
0
0
LINE
8
sensors
10
306040.0
20
7520.0
30
0
11
306040.0
21
7680.0
31
0
0
LINE
8
sensors
10
306140.0
20
7520.0
30
0
11
306140.0
21
7680.0
31
0
0
LINE
8
sensors
10
306040.0
20
7520.0
30
0
11
306140.0
21
7520.0
31
0
0
LINE
8
sensors
10
306040.0
20
7680.0
30
0
11
306140.0
21
7680.0
31
0
0
LINE
8
sensors
10
306145.0
20
7545.0
30
0
11
306145.0
21
7655.0
31
0
0
LINE
8
sensors
10
306165.0
20
7545.0
30
0
11
306165.0
21
7655.0
31
0
0
LINE
8
sensors
10
306145.0
20
7545.0
30
0
11
306165.0
21
7545.0
31
0
0
LINE
8
sensors
10
306145.0
20
7655.0
30
0
11
306165.0
21
7655.0
31
0
0
LINE
8
sensors
10
316280.0
20
2400.0
30
0
11
316280.0
21
2325.0
31
0
0
LINE
8
sensors
10
316280.0
20
2325.0
30
0
11
316280.0
21
2400.0
31
0
0
LINE
8
sensors
10
316280.0
20
2400.0
30
0
11
316280.0
21
2475.0
31
0
0
LINE
8
sensors
10
316280.0
20
2475.0
30
0
11
316280.0
21
2400.0
31
0
0
LINE
8
sensors
10
316060.0
20
2400.0
30
0
11
316280.0
21
2400.0
31
0
0
LINE
8
sensors
10
316060.0
20
2400.0
30
0
11
316060.0
21
2325.0
31
0
0
LINE
8
sensors
10
316060.0
20
2325.0
30
0
11
316060.0
21
2400.0
31
0
0
LINE
8
sensors
10
316060.0
20
2400.0
30
0
11
316060.0
21
2475.0
31
0
0
LINE
8
sensors
10
316060.0
20
2475.0
30
0
11
316060.0
21
2400.0
31
0
0
LINE
8
sensors
10
316090.0
20
2330.0
30
0
11
316090.0
21
2470.0
31
0
0
LINE
8
sensors
10
316250.0
20
2330.0
30
0
11
316250.0
21
2470.0
31
0
0
LINE
8
sensors
10
316090.0
20
2330.0
30
0
11
316250.0
21
2330.0
31
0
0
LINE
8
sensors
10
316090.0
20
2470.0
30
0
11
316250.0
21
2470.0
31
0
0
ENDSEC
0
EOF
