0
SECTION
2
HEADER
9
$ACADVER
1
AC1015
9
$INSUNITS
70
4
0
ENDSEC
0
SECTION
2
ENTITIES
0
LINE
8
interiors
10
345000.0
20
2000.0
30
0
11
345000.0
21
22000.0
31
0
0
LINE
8
interiors
10
345000.0
20
2000.0
30
0
11
358800.0
21
2000.0
31
0
0
LINE
8
interiors
10
358800.0
20
2000.0
30
0
11
361200.0
21
2000.0
31
0
0
LINE
8
interiors
10
361200.0
20
2000.0
30
0
11
375000.0
21
2000.0
31
0
0
LINE
8
interiors
10
345000.0
20
2000.0
30
0
11
375000.0
21
2000.0
31
0
0
LINE
8
interiors
10
345000.0
20
22000.0
30
0
11
375000.0
21
22000.0
31
0
0
LINE
8
interiors
10
375000.0
20
2000.0
30
0
11
375000.0
21
22000.0
31
0
0
LINE
8
interiors
10
374880.0
20
2120.0
30
0
11
345120.0
21
2120.0
31
0
0
LINE
8
interiors
10
374880.0
20
2120.0
30
0
11
374880.0
21
21880.0
31
0
0
LINE
8
interiors
10
374880.0
20
21880.0
30
0
11
345120.0
21
21880.0
31
0
0
LINE
8
interiors
10
345120.0
20
2120.0
30
0
11
345120.0
21
21880.0
31
0
0
LINE
8
interiors
10
352200.0
20
22000.0
30
0
11
367800.0
21
22000.0
31
0
0
LINE
8
interiors
10
361200.0
20
2000.0
30
0
11
361200.0
21
2120.0
31
0
0
LINE
8
interiors
10
374880.0
20
2120.0
30
0
11
361200.0
21
2120.0
31
0
0
LINE
8
interiors
10
358800.0
20
2120.0
30
0
11
345120.0
21
2120.0
31
0
0
LINE
8
interiors
10
358800.0
20
2000.0
30
0
11
358800.0
21
2120.0
31
0
0
LINE
8
interiors
10
358800.0
20
2120.0
30
0
11
361200.0
21
2120.0
31
0
0
LINE
8
interiors
10
352200.0
20
21880.0
30
0
11
367800.0
21
21880.0
31
0
0
LINE
8
interiors
10
352200.0
20
21880.0
30
0
11
352200.0
21
22000.0
31
0
0
LINE
8
interiors
10
367800.0
20
21880.0
30
0
11
367800.0
21
22000.0
31
0
0
LINE
8
interiors
10
352200.0
20
21977.5
30
0
11
352200.0
21
22022.5
31
0
0
LINE
8
interiors
10
367800.0
20
21977.5
30
0
11
367800.0
21
22022.5
31
0
0
LINE
8
interiors
10
352200.0
20
21977.5
30
0
11
367800.0
21
21977.5
31
0
0
LINE
8
interiors
10
352200.0
20
22022.5
30
0
11
367800.0
21
22022.5
31
0
0
LINE
8
interiors
10
345125.0
20
2125.0
30
0
11
345125.0
21
21875.0
31
0
0
LINE
8
interiors
10
374875.0
20
2125.0
30
0
11
374875.0
21
21875.0
31
0
0
LINE
8
interiors
10
345125.0
20
2125.0
30
0
11
374875.0
21
2125.0
31
0
0
LINE
8
interiors
10
345125.0
20
21875.0
30
0
11
374875.0
21
21875.0
31
0
0
LINE
8
interiors
10
358845.0
20
1880.0
30
0
11
358845.0
21
2120.0
31
0
0
LINE
8
interiors
10
358915.0
20
1880.0
30
0
11
358915.0
21
2120.0
31
0
0
LINE
8
interiors
10
358845.0
20
1880.0
30
0
11
358915.0
21
1880.0
31
0
0
LINE
8
interiors
10
358845.0
20
2120.0
30
0
11
358915.0
21
2120.0
31
0
0
LINE
8
interiors
10
361085.0
20
1880.0
30
0
11
361085.0
21
2120.0
31
0
0
LINE
8
interiors
10
361155.0
20
1880.0
30
0
11
361155.0
21
2120.0
31
0
0
LINE
8
interiors
10
361085.0
20
1880.0
30
0
11
361155.0
21
1880.0
31
0
0
LINE
8
interiors
10
361085.0
20
2120.0
30
0
11
361155.0
21
2120.0
31
0
0
LINE
8
interiors
10
358850.0
20
1880.0
30
0
11
358850.0
21
2120.0
31
0
0
LINE
8
interiors
10
361150.0
20
1880.0
30
0
11
361150.0
21
2120.0
31
0
0
LINE
8
interiors
10
358850.0
20
1880.0
30
0
11
361150.0
21
1880.0
31
0
0
LINE
8
interiors
10
358850.0
20
2120.0
30
0
11
361150.0
21
2120.0
31
0
0
LINE
8
interiors
10
358930.39
20
2090.49
30
0
11
358889.61
21
2109.51
31
0
0
LINE
8
interiors
10
359386.82
20
3069.3
30
0
11
359346.04
21
3088.32
31
0
0
LINE
8
interiors
10
358930.39
20
2090.49
30
0
11
359386.82
21
3069.3
31
0
0
LINE
8
interiors
10
358889.61
20
2109.51
30
0
11
359346.04
21
3088.32
31
0
0
LINE
8
interiors
10
352600.0
20
7900.0
30
0
11
352600.0
21
8900.0
31
0
0
LINE
8
interiors
10
355400.0
20
7900.0
30
0
11
355400.0
21
8900.0
31
0
0
LINE
8
interiors
10
352600.0
20
7900.0
30
0
11
355400.0
21
7900.0
31
0
0
LINE
8
interiors
10
352600.0
20
8900.0
30
0
11
355400.0
21
8900.0
31
0
0
LINE
8
interiors
10
352665.0
20
7965.0
30
0
11
352665.0
21
8035.0
31
0
0
LINE
8
interiors
10
352735.0
20
7965.0
30
0
11
352735.0
21
8035.0
31
0
0
LINE
8
interiors
10
352665.0
20
7965.0
30
0
11
352735.0
21
7965.0
31
0
0
LINE
8
interiors
10
352665.0
20
8035.0
30
0
11
352735.0
21
8035.0
31
0
0
LINE
8
interiors
10
352665.0
20
8765.0
30
0
11
352665.0
21
8835.0
31
0
0
LINE
8
interiors
10
352735.0
20
8765.0
30
0
11
352735.0
21
8835.0
31
0
0
LINE
8
interiors
10
352665.0
20
8765.0
30
0
11
352735.0
21
8765.0
31
0
0
LINE
8
interiors
10
352665.0
20
8835.0
30
0
11
352735.0
21
8835.0
31
0
0
LINE
8
interiors
10
355265.0
20
7965.0
30
0
11
355265.0
21
8035.0
31
0
0
LINE
8
interiors
10
355335.0
20
7965.0
30
0
11
355335.0
21
8035.0
31
0
0
LINE
8
interiors
10
355265.0
20
7965.0
30
0
11
355335.0
21
7965.0
31
0
0
LINE
8
interiors
10
355265.0
20
8035.0
30
0
11
355335.0
21
8035.0
31
0
0
LINE
8
interiors
10
355265.0
20
8765.0
30
0
11
355265.0
21
8835.0
31
0
0
LINE
8
interiors
10
355335.0
20
8765.0
30
0
11
355335.0
21
8835.0
31
0
0
LINE
8
interiors
10
355265.0
20
8765.0
30
0
11
355335.0
21
8765.0
31
0
0
LINE
8
interiors
10
355265.0
20
8835.0
30
0
11
355335.0
21
8835.0
31
0
0
LINE
8
interiors
10
351500.0
20
16650.0
30
0
11
351500.0
21
17350.0
31
0
0
LINE
8
interiors
10
353500.0
20
16650.0
30
0
11
353500.0
21
17350.0
31
0
0
LINE
8
interiors
10
351500.0
20
16650.0
30
0
11
353500.0
21
16650.0
31
0
0
LINE
8
interiors
10
351500.0
20
17350.0
30
0
11
353500.0
21
17350.0
31
0
0
LINE
8
interiors
10
351600.0
20
16627.5
30
0
11
351600.0
21
16652.5
31
0
0
LINE
8
interiors
10
353400.0
20
16627.5
30
0
11
353400.0
21
16652.5
31
0
0
LINE
8
interiors
10
351600.0
20
16627.5
30
0
11
353400.0
21
16627.5
31
0
0
LINE
8
interiors
10
351600.0
20
16652.5
30
0
11
353400.0
21
16652.5
31
0
0
LINE
8
interiors
10
358900.0
20
16500.0
30
0
11
358900.0
21
17500.0
31
0
0
LINE
8
interiors
10
361100.0
20
16500.0
30
0
11
361100.0
21
17500.0
31
0
0
LINE
8
interiors
10
358900.0
20
16500.0
30
0
11
361100.0
21
16500.0
31
0
0
LINE
8
interiors
10
358900.0
20
17500.0
30
0
11
361100.0
21
17500.0
31
0
0
LINE
8
interiors
10
358900.0
20
17325.0
30
0
11
358900.0
21
17475.0
31
0
0
LINE
8
interiors
10
361100.0
20
17325.0
30
0
11
361100.0
21
17475.0
31
0
0
LINE
8
interiors
10
358900.0
20
17325.0
30
0
11
361100.0
21
17325.0
31
0
0
LINE
8
interiors
10
358900.0
20
17475.0
30
0
11
361100.0
21
17475.0
31
0
0
LINE
8
interiors
10
358850.0
20
16450.0
30
0
11
358850.0
21
17550.0
31
0
0
LINE
8
interiors
10
361150.0
20
16450.0
30
0
11
361150.0
21
17550.0
31
0
0
LINE
8
interiors
10
358850.0
20
16450.0
30
0
11
361150.0
21
16450.0
31
0
0
LINE
8
interiors
10
358850.0
20
17550.0
30
0
11
361150.0
21
17550.0
31
0
0
LINE
8
electrical
10
374275.0
20
2075.0
30
0
11
374275.0
21
2325.0
31
0
0
LINE
8
electrical
10
374825.0
20
2075.0
30
0
11
374825.0
21
2325.0
31
0
0
LINE
8
electrical
10
374275.0
20
2075.0
30
0
11
374825.0
21
2075.0
31
0
0
LINE
8
electrical
10
374275.0
20
2325.0
30
0
11
374825.0
21
2325.0
31
0
0
LINE
8
electrical
10
374315.0
20
2047.5
30
0
11
374315.0
21
2082.5
31
0
0
LINE
8
electrical
10
374785.0
20
2047.5
30
0
11
374785.0
21
2082.5
31
0
0
LINE
8
electrical
10
374315.0
20
2047.5
30
0
11
374785.0
21
2047.5
31
0
0
LINE
8
electrical
10
374315.0
20
2082.5
30
0
11
374785.0
21
2082.5
31
0
0
LINE
8
electrical
10
374362.5
20
2010.0
30
0
11
374362.5
21
2050.0
31
0
0
LINE
8
electrical
10
374462.5
20
2010.0
30
0
11
374462.5
21
2050.0
31
0
0
LINE
8
electrical
10
374362.5
20
2010.0
30
0
11
374462.5
21
2010.0
31
0
0
LINE
8
electrical
10
374362.5
20
2050.0
30
0
11
374462.5
21
2050.0
31
0
0
LINE
8
electrical
10
374500.0
20
2010.0
30
0
11
374500.0
21
2050.0
31
0
0
LINE
8
electrical
10
374600.0
20
2010.0
30
0
11
374600.0
21
2050.0
31
0
0
LINE
8
electrical
10
374500.0
20
2010.0
30
0
11
374600.0
21
2010.0
31
0
0
LINE
8
electrical
10
374500.0
20
2050.0
30
0
11
374600.0
21
2050.0
31
0
0
LINE
8
electrical
10
374637.5
20
2010.0
30
0
11
374637.5
21
2050.0
31
0
0
LINE
8
electrical
10
374737.5
20
2010.0
30
0
11
374737.5
21
2050.0
31
0
0
LINE
8
electrical
10
374637.5
20
2010.0
30
0
11
374737.5
21
2010.0
31
0
0
LINE
8
electrical
10
374637.5
20
2050.0
30
0
11
374737.5
21
2050.0
31
0
0
LINE
8
electrical
10
374412.5
20
1995.0
30
0
11
374435.88
21
1995.0
31
0
0
LINE
8
electrical
10
374435.88
20
1995.0
30
0
11
374389.12
21
1995.0
31
0
0
LINE
8
electrical
10
374389.12
20
1995.0
30
0
11
374412.5
21
1995.0
31
0
0
LINE
8
electrical
10
374412.5
20
2020.0
30
0
11
374412.5
21
1995.0
31
0
0
LINE
8
electrical
10
374412.5
20
2020.0
30
0
11
374435.88
21
2020.0
31
0
0
LINE
8
electrical
10
374435.88
20
2020.0
30
0
11
374389.12
21
2020.0
31
0
0
LINE
8
electrical
10
374389.12
20
2020.0
30
0
11
374412.5
21
2020.0
31
0
0
LINE
8
electrical
10
374550.0
20
1995.0
30
0
11
374573.38
21
1995.0
31
0
0
LINE
8
electrical
10
374573.38
20
1995.0
30
0
11
374526.62
21
1995.0
31
0
0
LINE
8
electrical
10
374526.62
20
1995.0
30
0
11
374550.0
21
1995.0
31
0
0
LINE
8
electrical
10
374550.0
20
2020.0
30
0
11
374550.0
21
1995.0
31
0
0
LINE
8
electrical
10
374550.0
20
2020.0
30
0
11
374573.38
21
2020.0
31
0
0
LINE
8
electrical
10
374573.38
20
2020.0
30
0
11
374526.62
21
2020.0
31
0
0
LINE
8
electrical
10
374526.62
20
2020.0
30
0
11
374550.0
21
2020.0
31
0
0
LINE
8
electrical
10
374687.5
20
1995.0
30
0
11
374710.88
21
1995.0
31
0
0
LINE
8
electrical
10
374710.88
20
1995.0
30
0
11
374664.12
21
1995.0
31
0
0
LINE
8
electrical
10
374664.12
20
1995.0
30
0
11
374687.5
21
1995.0
31
0
0
LINE
8
electrical
10
374687.5
20
2020.0
30
0
11
374687.5
21
1995.0
31
0
0
LINE
8
electrical
10
374687.5
20
2020.0
30
0
11
374710.88
21
2020.0
31
0
0
LINE
8
electrical
10
374710.88
20
2020.0
30
0
11
374664.12
21
2020.0
31
0
0
LINE
8
electrical
10
374664.12
20
2020.0
30
0
11
374687.5
21
2020.0
31
0
0
LINE
8
electrical
10
374550.0
20
2200.0
30
0
11
374565.59
21
2200.0
31
0
0
LINE
8
electrical
10
374565.59
20
2200.0
30
0
11
374534.41
21
2200.0
31
0
0
LINE
8
electrical
10
374534.41
20
2200.0
30
0
11
374550.0
21
2200.0
31
0
0
LINE
8
electrical
10
374550.0
20
-62300.0
30
0
11
374550.0
21
2200.0
31
0
0
LINE
8
electrical
10
374550.0
20
-62300.0
30
0
11
374565.59
21
-62300.0
31
0
0
LINE
8
electrical
10
374565.59
20
-62300.0
30
0
11
374534.41
21
-62300.0
31
0
0
LINE
8
electrical
10
374534.41
20
-62300.0
30
0
11
374550.0
21
-62300.0
31
0
0
LINE
8
electrical
10
374532.0
20
2200.0
30
0
11
374559.0
21
2215.59
31
0
0
LINE
8
electrical
10
374559.0
20
2215.59
30
0
11
374559.0
21
2184.41
31
0
0
LINE
8
electrical
10
374559.0
20
2184.41
30
0
11
374532.0
21
2200.0
31
0
0
LINE
8
electrical
10
374550.0
20
2200.0
30
0
11
374569.44
21
2200.0
31
0
0
LINE
8
electrical
10
374569.44
20
2200.0
30
0
11
374550.0
21
2200.0
31
0
0
LINE
8
lighting
10
348880.0
20
4880.0
30
0
11
348880.0
21
5520.0
31
0
0
LINE
8
lighting
10
349520.0
20
4880.0
30
0
11
349520.0
21
5520.0
31
0
0
LINE
8
lighting
10
348880.0
20
4880.0
30
0
11
349520.0
21
4880.0
31
0
0
LINE
8
lighting
10
348880.0
20
5520.0
30
0
11
349520.0
21
5520.0
31
0
0
LINE
8
lighting
10
348920.0
20
4920.0
30
0
11
348920.0
21
5480.0
31
0
0
LINE
8
lighting
10
349480.0
20
4920.0
30
0
11
349480.0
21
5480.0
31
0
0
LINE
8
lighting
10
348920.0
20
4920.0
30
0
11
349480.0
21
4920.0
31
0
0
LINE
8
lighting
10
348920.0
20
5480.0
30
0
11
349480.0
21
5480.0
31
0
0
LINE
8
lighting
10
348954.0
20
4930.0
30
0
11
348954.0
21
5470.0
31
0
0
LINE
8
lighting
10
348966.0
20
4930.0
30
0
11
348966.0
21
5470.0
31
0
0
LINE
8
lighting
10
348954.0
20
4930.0
30
0
11
348966.0
21
4930.0
31
0
0
LINE
8
lighting
10
348954.0
20
5470.0
30
0
11
348966.0
21
5470.0
31
0
0
LINE
8
lighting
10
349034.0
20
4930.0
30
0
11
349034.0
21
5470.0
31
0
0
LINE
8
lighting
10
349046.0
20
4930.0
30
0
11
349046.0
21
5470.0
31
0
0
LINE
8
lighting
10
349034.0
20
4930.0
30
0
11
349046.0
21
4930.0
31
0
0
LINE
8
lighting
10
349034.0
20
5470.0
30
0
11
349046.0
21
5470.0
31
0
0
LINE
8
lighting
10
349114.0
20
4930.0
30
0
11
349114.0
21
5470.0
31
0
0
LINE
8
lighting
10
349126.0
20
4930.0
30
0
11
349126.0
21
5470.0
31
0
0
LINE
8
lighting
10
349114.0
20
4930.0
30
0
11
349126.0
21
4930.0
31
0
0
LINE
8
lighting
10
349114.0
20
5470.0
30
0
11
349126.0
21
5470.0
31
0
0
LINE
8
lighting
10
349194.0
20
4930.0
30
0
11
349194.0
21
5470.0
31
0
0
LINE
8
lighting
10
349206.0
20
4930.0
30
0
11
349206.0
21
5470.0
31
0
0
LINE
8
lighting
10
349194.0
20
4930.0
30
0
11
349206.0
21
4930.0
31
0
0
LINE
8
lighting
10
349194.0
20
5470.0
30
0
11
349206.0
21
5470.0
31
0
0
LINE
8
lighting
10
349274.0
20
4930.0
30
0
11
349274.0
21
5470.0
31
0
0
LINE
8
lighting
10
349286.0
20
4930.0
30
0
11
349286.0
21
5470.0
31
0
0
LINE
8
lighting
10
349274.0
20
4930.0
30
0
11
349286.0
21
4930.0
31
0
0
LINE
8
lighting
10
349274.0
20
5470.0
30
0
11
349286.0
21
5470.0
31
0
0
LINE
8
lighting
10
349354.0
20
4930.0
30
0
11
349354.0
21
5470.0
31
0
0
LINE
8
lighting
10
349366.0
20
4930.0
30
0
11
349366.0
21
5470.0
31
0
0
LINE
8
lighting
10
349354.0
20
4930.0
30
0
11
349366.0
21
4930.0
31
0
0
LINE
8
lighting
10
349354.0
20
5470.0
30
0
11
349366.0
21
5470.0
31
0
0
LINE
8
lighting
10
349434.0
20
4930.0
30
0
11
349434.0
21
5470.0
31
0
0
LINE
8
lighting
10
349446.0
20
4930.0
30
0
11
349446.0
21
5470.0
31
0
0
LINE
8
lighting
10
349434.0
20
4930.0
30
0
11
349446.0
21
4930.0
31
0
0
LINE
8
lighting
10
349434.0
20
5470.0
30
0
11
349446.0
21
5470.0
31
0
0
LINE
8
lighting
10
349209.0
20
5200.0
30
0
11
349195.5
21
5207.79
31
0
0
LINE
8
lighting
10
349195.5
20
5207.79
30
0
11
349195.5
21
5192.21
31
0
0
LINE
8
lighting
10
349195.5
20
5192.21
30
0
11
349209.0
21
5200.0
31
0
0
LINE
8
lighting
10
370480.0
20
4880.0
30
0
11
370480.0
21
5520.0
31
0
0
LINE
8
lighting
10
371120.0
20
4880.0
30
0
11
371120.0
21
5520.0
31
0
0
LINE
8
lighting
10
370480.0
20
4880.0
30
0
11
371120.0
21
4880.0
31
0
0
LINE
8
lighting
10
370480.0
20
5520.0
30
0
11
371120.0
21
5520.0
31
0
0
LINE
8
lighting
10
370520.0
20
4920.0
30
0
11
370520.0
21
5480.0
31
0
0
LINE
8
lighting
10
371080.0
20
4920.0
30
0
11
371080.0
21
5480.0
31
0
0
LINE
8
lighting
10
370520.0
20
4920.0
30
0
11
371080.0
21
4920.0
31
0
0
LINE
8
lighting
10
370520.0
20
5480.0
30
0
11
371080.0
21
5480.0
31
0
0
LINE
8
lighting
10
370554.0
20
4930.0
30
0
11
370554.0
21
5470.0
31
0
0
LINE
8
lighting
10
370566.0
20
4930.0
30
0
11
370566.0
21
5470.0
31
0
0
LINE
8
lighting
10
370554.0
20
4930.0
30
0
11
370566.0
21
4930.0
31
0
0
LINE
8
lighting
10
370554.0
20
5470.0
30
0
11
370566.0
21
5470.0
31
0
0
LINE
8
lighting
10
370634.0
20
4930.0
30
0
11
370634.0
21
5470.0
31
0
0
LINE
8
lighting
10
370646.0
20
4930.0
30
0
11
370646.0
21
5470.0
31
0
0
LINE
8
lighting
10
370634.0
20
4930.0
30
0
11
370646.0
21
4930.0
31
0
0
LINE
8
lighting
10
370634.0
20
5470.0
30
0
11
370646.0
21
5470.0
31
0
0
LINE
8
lighting
10
370714.0
20
4930.0
30
0
11
370714.0
21
5470.0
31
0
0
LINE
8
lighting
10
370726.0
20
4930.0
30
0
11
370726.0
21
5470.0
31
0
0
LINE
8
lighting
10
370714.0
20
4930.0
30
0
11
370726.0
21
4930.0
31
0
0
LINE
8
lighting
10
370714.0
20
5470.0
30
0
11
370726.0
21
5470.0
31
0
0
LINE
8
lighting
10
370794.0
20
4930.0
30
0
11
370794.0
21
5470.0
31
0
0
LINE
8
lighting
10
370806.0
20
4930.0
30
0
11
370806.0
21
5470.0
31
0
0
LINE
8
lighting
10
370794.0
20
4930.0
30
0
11
370806.0
21
4930.0
31
0
0
LINE
8
lighting
10
370794.0
20
5470.0
30
0
11
370806.0
21
5470.0
31
0
0
LINE
8
lighting
10
370874.0
20
4930.0
30
0
11
370874.0
21
5470.0
31
0
0
LINE
8
lighting
10
370886.0
20
4930.0
30
0
11
370886.0
21
5470.0
31
0
0
LINE
8
lighting
10
370874.0
20
4930.0
30
0
11
370886.0
21
4930.0
31
0
0
LINE
8
lighting
10
370874.0
20
5470.0
30
0
11
370886.0
21
5470.0
31
0
0
LINE
8
lighting
10
370954.0
20
4930.0
30
0
11
370954.0
21
5470.0
31
0
0
LINE
8
lighting
10
370966.0
20
4930.0
30
0
11
370966.0
21
5470.0
31
0
0
LINE
8
lighting
10
370954.0
20
4930.0
30
0
11
370966.0
21
4930.0
31
0
0
LINE
8
lighting
10
370954.0
20
5470.0
30
0
11
370966.0
21
5470.0
31
0
0
LINE
8
lighting
10
371034.0
20
4930.0
30
0
11
371034.0
21
5470.0
31
0
0
LINE
8
lighting
10
371046.0
20
4930.0
30
0
11
371046.0
21
5470.0
31
0
0
LINE
8
lighting
10
371034.0
20
4930.0
30
0
11
371046.0
21
4930.0
31
0
0
LINE
8
lighting
10
371034.0
20
5470.0
30
0
11
371046.0
21
5470.0
31
0
0
LINE
8
lighting
10
370809.0
20
5200.0
30
0
11
370795.5
21
5207.79
31
0
0
LINE
8
lighting
10
370795.5
20
5207.79
30
0
11
370795.5
21
5192.21
31
0
0
LINE
8
lighting
10
370795.5
20
5192.21
30
0
11
370809.0
21
5200.0
31
0
0
LINE
8
lighting
10
359680.0
20
4880.0
30
0
11
359680.0
21
5520.0
31
0
0
LINE
8
lighting
10
360320.0
20
4880.0
30
0
11
360320.0
21
5520.0
31
0
0
LINE
8
lighting
10
359680.0
20
4880.0
30
0
11
360320.0
21
4880.0
31
0
0
LINE
8
lighting
10
359680.0
20
5520.0
30
0
11
360320.0
21
5520.0
31
0
0
LINE
8
lighting
10
359720.0
20
4920.0
30
0
11
359720.0
21
5480.0
31
0
0
LINE
8
lighting
10
360280.0
20
4920.0
30
0
11
360280.0
21
5480.0
31
0
0
LINE
8
lighting
10
359720.0
20
4920.0
30
0
11
360280.0
21
4920.0
31
0
0
LINE
8
lighting
10
359720.0
20
5480.0
30
0
11
360280.0
21
5480.0
31
0
0
LINE
8
lighting
10
359754.0
20
4930.0
30
0
11
359754.0
21
5470.0
31
0
0
LINE
8
lighting
10
359766.0
20
4930.0
30
0
11
359766.0
21
5470.0
31
0
0
LINE
8
lighting
10
359754.0
20
4930.0
30
0
11
359766.0
21
4930.0
31
0
0
LINE
8
lighting
10
359754.0
20
5470.0
30
0
11
359766.0
21
5470.0
31
0
0
LINE
8
lighting
10
359834.0
20
4930.0
30
0
11
359834.0
21
5470.0
31
0
0
LINE
8
lighting
10
359846.0
20
4930.0
30
0
11
359846.0
21
5470.0
31
0
0
LINE
8
lighting
10
359834.0
20
4930.0
30
0
11
359846.0
21
4930.0
31
0
0
LINE
8
lighting
10
359834.0
20
5470.0
30
0
11
359846.0
21
5470.0
31
0
0
LINE
8
lighting
10
359914.0
20
4930.0
30
0
11
359914.0
21
5470.0
31
0
0
LINE
8
lighting
10
359926.0
20
4930.0
30
0
11
359926.0
21
5470.0
31
0
0
LINE
8
lighting
10
359914.0
20
4930.0
30
0
11
359926.0
21
4930.0
31
0
0
LINE
8
lighting
10
359914.0
20
5470.0
30
0
11
359926.0
21
5470.0
31
0
0
LINE
8
lighting
10
359994.0
20
4930.0
30
0
11
359994.0
21
5470.0
31
0
0
LINE
8
lighting
10
360006.0
20
4930.0
30
0
11
360006.0
21
5470.0
31
0
0
LINE
8
lighting
10
359994.0
20
4930.0
30
0
11
360006.0
21
4930.0
31
0
0
LINE
8
lighting
10
359994.0
20
5470.0
30
0
11
360006.0
21
5470.0
31
0
0
LINE
8
lighting
10
360074.0
20
4930.0
30
0
11
360074.0
21
5470.0
31
0
0
LINE
8
lighting
10
360086.0
20
4930.0
30
0
11
360086.0
21
5470.0
31
0
0
LINE
8
lighting
10
360074.0
20
4930.0
30
0
11
360086.0
21
4930.0
31
0
0
LINE
8
lighting
10
360074.0
20
5470.0
30
0
11
360086.0
21
5470.0
31
0
0
LINE
8
lighting
10
360154.0
20
4930.0
30
0
11
360154.0
21
5470.0
31
0
0
LINE
8
lighting
10
360166.0
20
4930.0
30
0
11
360166.0
21
5470.0
31
0
0
LINE
8
lighting
10
360154.0
20
4930.0
30
0
11
360166.0
21
4930.0
31
0
0
LINE
8
lighting
10
360154.0
20
5470.0
30
0
11
360166.0
21
5470.0
31
0
0
LINE
8
lighting
10
360234.0
20
4930.0
30
0
11
360234.0
21
5470.0
31
0
0
LINE
8
lighting
10
360246.0
20
4930.0
30
0
11
360246.0
21
5470.0
31
0
0
LINE
8
lighting
10
360234.0
20
4930.0
30
0
11
360246.0
21
4930.0
31
0
0
LINE
8
lighting
10
360234.0
20
5470.0
30
0
11
360246.0
21
5470.0
31
0
0
LINE
8
lighting
10
360009.0
20
5200.0
30
0
11
359995.5
21
5207.79
31
0
0
LINE
8
lighting
10
359995.5
20
5207.79
30
0
11
359995.5
21
5192.21
31
0
0
LINE
8
lighting
10
359995.5
20
5192.21
30
0
11
360009.0
21
5200.0
31
0
0
LINE
8
lighting
10
348880.0
20
18480.0
30
0
11
348880.0
21
19120.0
31
0
0
LINE
8
lighting
10
349520.0
20
18480.0
30
0
11
349520.0
21
19120.0
31
0
0
LINE
8
lighting
10
348880.0
20
18480.0
30
0
11
349520.0
21
18480.0
31
0
0
LINE
8
lighting
10
348880.0
20
19120.0
30
0
11
349520.0
21
19120.0
31
0
0
LINE
8
lighting
10
348920.0
20
18520.0
30
0
11
348920.0
21
19080.0
31
0
0
LINE
8
lighting
10
349480.0
20
18520.0
30
0
11
349480.0
21
19080.0
31
0
0
LINE
8
lighting
10
348920.0
20
18520.0
30
0
11
349480.0
21
18520.0
31
0
0
LINE
8
lighting
10
348920.0
20
19080.0
30
0
11
349480.0
21
19080.0
31
0
0
LINE
8
lighting
10
348954.0
20
18530.0
30
0
11
348954.0
21
19070.0
31
0
0
LINE
8
lighting
10
348966.0
20
18530.0
30
0
11
348966.0
21
19070.0
31
0
0
LINE
8
lighting
10
348954.0
20
18530.0
30
0
11
348966.0
21
18530.0
31
0
0
LINE
8
lighting
10
348954.0
20
19070.0
30
0
11
348966.0
21
19070.0
31
0
0
LINE
8
lighting
10
349034.0
20
18530.0
30
0
11
349034.0
21
19070.0
31
0
0
LINE
8
lighting
10
349046.0
20
18530.0
30
0
11
349046.0
21
19070.0
31
0
0
LINE
8
lighting
10
349034.0
20
18530.0
30
0
11
349046.0
21
18530.0
31
0
0
LINE
8
lighting
10
349034.0
20
19070.0
30
0
11
349046.0
21
19070.0
31
0
0
LINE
8
lighting
10
349114.0
20
18530.0
30
0
11
349114.0
21
19070.0
31
0
0
LINE
8
lighting
10
349126.0
20
18530.0
30
0
11
349126.0
21
19070.0
31
0
0
LINE
8
lighting
10
349114.0
20
18530.0
30
0
11
349126.0
21
18530.0
31
0
0
LINE
8
lighting
10
349114.0
20
19070.0
30
0
11
349126.0
21
19070.0
31
0
0
LINE
8
lighting
10
349194.0
20
18530.0
30
0
11
349194.0
21
19070.0
31
0
0
LINE
8
lighting
10
349206.0
20
18530.0
30
0
11
349206.0
21
19070.0
31
0
0
LINE
8
lighting
10
349194.0
20
18530.0
30
0
11
349206.0
21
18530.0
31
0
0
LINE
8
lighting
10
349194.0
20
19070.0
30
0
11
349206.0
21
19070.0
31
0
0
LINE
8
lighting
10
349274.0
20
18530.0
30
0
11
349274.0
21
19070.0
31
0
0
LINE
8
lighting
10
349286.0
20
18530.0
30
0
11
349286.0
21
19070.0
31
0
0
LINE
8
lighting
10
349274.0
20
18530.0
30
0
11
349286.0
21
18530.0
31
0
0
LINE
8
lighting
10
349274.0
20
19070.0
30
0
11
349286.0
21
19070.0
31
0
0
LINE
8
lighting
10
349354.0
20
18530.0
30
0
11
349354.0
21
19070.0
31
0
0
LINE
8
lighting
10
349366.0
20
18530.0
30
0
11
349366.0
21
19070.0
31
0
0
LINE
8
lighting
10
349354.0
20
18530.0
30
0
11
349366.0
21
18530.0
31
0
0
LINE
8
lighting
10
349354.0
20
19070.0
30
0
11
349366.0
21
19070.0
31
0
0
LINE
8
lighting
10
349434.0
20
18530.0
30
0
11
349434.0
21
19070.0
31
0
0
LINE
8
lighting
10
349446.0
20
18530.0
30
0
11
349446.0
21
19070.0
31
0
0
LINE
8
lighting
10
349434.0
20
18530.0
30
0
11
349446.0
21
18530.0
31
0
0
LINE
8
lighting
10
349434.0
20
19070.0
30
0
11
349446.0
21
19070.0
31
0
0
LINE
8
lighting
10
349209.0
20
18800.0
30
0
11
349195.5
21
18807.79
31
0
0
LINE
8
lighting
10
349195.5
20
18807.79
30
0
11
349195.5
21
18792.21
31
0
0
LINE
8
lighting
10
349195.5
20
18792.21
30
0
11
349209.0
21
18800.0
31
0
0
LINE
8
lighting
10
370480.0
20
18480.0
30
0
11
370480.0
21
19120.0
31
0
0
LINE
8
lighting
10
371120.0
20
18480.0
30
0
11
371120.0
21
19120.0
31
0
0
LINE
8
lighting
10
370480.0
20
18480.0
30
0
11
371120.0
21
18480.0
31
0
0
LINE
8
lighting
10
370480.0
20
19120.0
30
0
11
371120.0
21
19120.0
31
0
0
LINE
8
lighting
10
370520.0
20
18520.0
30
0
11
370520.0
21
19080.0
31
0
0
LINE
8
lighting
10
371080.0
20
18520.0
30
0
11
371080.0
21
19080.0
31
0
0
LINE
8
lighting
10
370520.0
20
18520.0
30
0
11
371080.0
21
18520.0
31
0
0
LINE
8
lighting
10
370520.0
20
19080.0
30
0
11
371080.0
21
19080.0
31
0
0
LINE
8
lighting
10
370554.0
20
18530.0
30
0
11
370554.0
21
19070.0
31
0
0
LINE
8
lighting
10
370566.0
20
18530.0
30
0
11
370566.0
21
19070.0
31
0
0
LINE
8
lighting
10
370554.0
20
18530.0
30
0
11
370566.0
21
18530.0
31
0
0
LINE
8
lighting
10
370554.0
20
19070.0
30
0
11
370566.0
21
19070.0
31
0
0
LINE
8
lighting
10
370634.0
20
18530.0
30
0
11
370634.0
21
19070.0
31
0
0
LINE
8
lighting
10
370646.0
20
18530.0
30
0
11
370646.0
21
19070.0
31
0
0
LINE
8
lighting
10
370634.0
20
18530.0
30
0
11
370646.0
21
18530.0
31
0
0
LINE
8
lighting
10
370634.0
20
19070.0
30
0
11
370646.0
21
19070.0
31
0
0
LINE
8
lighting
10
370714.0
20
18530.0
30
0
11
370714.0
21
19070.0
31
0
0
LINE
8
lighting
10
370726.0
20
18530.0
30
0
11
370726.0
21
19070.0
31
0
0
LINE
8
lighting
10
370714.0
20
18530.0
30
0
11
370726.0
21
18530.0
31
0
0
LINE
8
lighting
10
370714.0
20
19070.0
30
0
11
370726.0
21
19070.0
31
0
0
LINE
8
lighting
10
370794.0
20
18530.0
30
0
11
370794.0
21
19070.0
31
0
0
LINE
8
lighting
10
370806.0
20
18530.0
30
0
11
370806.0
21
19070.0
31
0
0
LINE
8
lighting
10
370794.0
20
18530.0
30
0
11
370806.0
21
18530.0
31
0
0
LINE
8
lighting
10
370794.0
20
19070.0
30
0
11
370806.0
21
19070.0
31
0
0
LINE
8
lighting
10
370874.0
20
18530.0
30
0
11
370874.0
21
19070.0
31
0
0
LINE
8
lighting
10
370886.0
20
18530.0
30
0
11
370886.0
21
19070.0
31
0
0
LINE
8
lighting
10
370874.0
20
18530.0
30
0
11
370886.0
21
18530.0
31
0
0
LINE
8
lighting
10
370874.0
20
19070.0
30
0
11
370886.0
21
19070.0
31
0
0
LINE
8
lighting
10
370954.0
20
18530.0
30
0
11
370954.0
21
19070.0
31
0
0
LINE
8
lighting
10
370966.0
20
18530.0
30
0
11
370966.0
21
19070.0
31
0
0
LINE
8
lighting
10
370954.0
20
18530.0
30
0
11
370966.0
21
18530.0
31
0
0
LINE
8
lighting
10
370954.0
20
19070.0
30
0
11
370966.0
21
19070.0
31
0
0
LINE
8
lighting
10
371034.0
20
18530.0
30
0
11
371034.0
21
19070.0
31
0
0
LINE
8
lighting
10
371046.0
20
18530.0
30
0
11
371046.0
21
19070.0
31
0
0
LINE
8
lighting
10
371034.0
20
18530.0
30
0
11
371046.0
21
18530.0
31
0
0
LINE
8
lighting
10
371034.0
20
19070.0
30
0
11
371046.0
21
19070.0
31
0
0
LINE
8
lighting
10
370809.0
20
18800.0
30
0
11
370795.5
21
18807.79
31
0
0
LINE
8
lighting
10
370795.5
20
18807.79
30
0
11
370795.5
21
18792.21
31
0
0
LINE
8
lighting
10
370795.5
20
18792.21
30
0
11
370809.0
21
18800.0
31
0
0
LINE
8
lighting
10
359680.0
20
18480.0
30
0
11
359680.0
21
19120.0
31
0
0
LINE
8
lighting
10
360320.0
20
18480.0
30
0
11
360320.0
21
19120.0
31
0
0
LINE
8
lighting
10
359680.0
20
18480.0
30
0
11
360320.0
21
18480.0
31
0
0
LINE
8
lighting
10
359680.0
20
19120.0
30
0
11
360320.0
21
19120.0
31
0
0
LINE
8
lighting
10
359720.0
20
18520.0
30
0
11
359720.0
21
19080.0
31
0
0
LINE
8
lighting
10
360280.0
20
18520.0
30
0
11
360280.0
21
19080.0
31
0
0
LINE
8
lighting
10
359720.0
20
18520.0
30
0
11
360280.0
21
18520.0
31
0
0
LINE
8
lighting
10
359720.0
20
19080.0
30
0
11
360280.0
21
19080.0
31
0
0
LINE
8
lighting
10
359754.0
20
18530.0
30
0
11
359754.0
21
19070.0
31
0
0
LINE
8
lighting
10
359766.0
20
18530.0
30
0
11
359766.0
21
19070.0
31
0
0
LINE
8
lighting
10
359754.0
20
18530.0
30
0
11
359766.0
21
18530.0
31
0
0
LINE
8
lighting
10
359754.0
20
19070.0
30
0
11
359766.0
21
19070.0
31
0
0
LINE
8
lighting
10
359834.0
20
18530.0
30
0
11
359834.0
21
19070.0
31
0
0
LINE
8
lighting
10
359846.0
20
18530.0
30
0
11
359846.0
21
19070.0
31
0
0
LINE
8
lighting
10
359834.0
20
18530.0
30
0
11
359846.0
21
18530.0
31
0
0
LINE
8
lighting
10
359834.0
20
19070.0
30
0
11
359846.0
21
19070.0
31
0
0
LINE
8
lighting
10
359914.0
20
18530.0
30
0
11
359914.0
21
19070.0
31
0
0
LINE
8
lighting
10
359926.0
20
18530.0
30
0
11
359926.0
21
19070.0
31
0
0
LINE
8
lighting
10
359914.0
20
18530.0
30
0
11
359926.0
21
18530.0
31
0
0
LINE
8
lighting
10
359914.0
20
19070.0
30
0
11
359926.0
21
19070.0
31
0
0
LINE
8
lighting
10
359994.0
20
18530.0
30
0
11
359994.0
21
19070.0
31
0
0
LINE
8
lighting
10
360006.0
20
18530.0
30
0
11
360006.0
21
19070.0
31
0
0
LINE
8
lighting
10
359994.0
20
18530.0
30
0
11
360006.0
21
18530.0
31
0
0
LINE
8
lighting
10
359994.0
20
19070.0
30
0
11
360006.0
21
19070.0
31
0
0
LINE
8
lighting
10
360074.0
20
18530.0
30
0
11
360074.0
21
19070.0
31
0
0
LINE
8
lighting
10
360086.0
20
18530.0
30
0
11
360086.0
21
19070.0
31
0
0
LINE
8
lighting
10
360074.0
20
18530.0
30
0
11
360086.0
21
18530.0
31
0
0
LINE
8
lighting
10
360074.0
20
19070.0
30
0
11
360086.0
21
19070.0
31
0
0
LINE
8
lighting
10
360154.0
20
18530.0
30
0
11
360154.0
21
19070.0
31
0
0
LINE
8
lighting
10
360166.0
20
18530.0
30
0
11
360166.0
21
19070.0
31
0
0
LINE
8
lighting
10
360154.0
20
18530.0
30
0
11
360166.0
21
18530.0
31
0
0
LINE
8
lighting
10
360154.0
20
19070.0
30
0
11
360166.0
21
19070.0
31
0
0
LINE
8
lighting
10
360234.0
20
18530.0
30
0
11
360234.0
21
19070.0
31
0
0
LINE
8
lighting
10
360246.0
20
18530.0
30
0
11
360246.0
21
19070.0
31
0
0
LINE
8
lighting
10
360234.0
20
18530.0
30
0
11
360246.0
21
18530.0
31
0
0
LINE
8
lighting
10
360234.0
20
19070.0
30
0
11
360246.0
21
19070.0
31
0
0
LINE
8
lighting
10
360009.0
20
18800.0
30
0
11
359995.5
21
18807.79
31
0
0
LINE
8
lighting
10
359995.5
20
18807.79
30
0
11
359995.5
21
18792.21
31
0
0
LINE
8
lighting
10
359995.5
20
18792.21
30
0
11
360009.0
21
18800.0
31
0
0
LINE
8
electrical
10
349200.0
20
4880.0
30
0
11
349200.0
21
4872.21
31
0
0
LINE
8
electrical
10
349200.0
20
4872.21
30
0
11
349200.0
21
4887.79
31
0
0
LINE
8
electrical
10
349200.0
20
4887.79
30
0
11
349200.0
21
4880.0
31
0
0
LINE
8
electrical
10
374550.0
20
4880.0
30
0
11
349200.0
21
4880.0
31
0
0
LINE
8
electrical
10
374550.0
20
4880.0
30
0
11
374550.0
21
4872.21
31
0
0
LINE
8
electrical
10
374550.0
20
4872.21
30
0
11
374550.0
21
4887.79
31
0
0
LINE
8
electrical
10
374550.0
20
4887.79
30
0
11
374550.0
21
4880.0
31
0
0
LINE
8
electrical
10
349200.0
20
18800.0
30
0
11
349207.79
21
18800.0
31
0
0
LINE
8
electrical
10
349207.79
20
18800.0
30
0
11
349192.21
21
18800.0
31
0
0
LINE
8
electrical
10
349192.21
20
18800.0
30
0
11
349200.0
21
18800.0
31
0
0
LINE
8
electrical
10
349200.0
20
4880.0
30
0
11
349200.0
21
18800.0
31
0
0
LINE
8
electrical
10
349200.0
20
4880.0
30
0
11
349207.79
21
4880.0
31
0
0
LINE
8
electrical
10
349207.79
20
4880.0
30
0
11
349192.21
21
4880.0
31
0
0
LINE
8
electrical
10
349192.21
20
4880.0
30
0
11
349200.0
21
4880.0
31
0
0
LINE
8
electrical
10
370800.0
20
18800.0
30
0
11
370807.79
21
18800.0
31
0
0
LINE
8
electrical
10
370807.79
20
18800.0
30
0
11
370792.21
21
18800.0
31
0
0
LINE
8
electrical
10
370792.21
20
18800.0
30
0
11
370800.0
21
18800.0
31
0
0
LINE
8
electrical
10
370800.0
20
4880.0
30
0
11
370800.0
21
18800.0
31
0
0
LINE
8
electrical
10
370800.0
20
4880.0
30
0
11
370807.79
21
4880.0
31
0
0
LINE
8
electrical
10
370807.79
20
4880.0
30
0
11
370792.21
21
4880.0
31
0
0
LINE
8
electrical
10
370792.21
20
4880.0
30
0
11
370800.0
21
4880.0
31
0
0
LINE
8
electrical
10
360000.0
20
18800.0
30
0
11
360007.79
21
18800.0
31
0
0
LINE
8
electrical
10
360007.79
20
18800.0
30
0
11
359992.21
21
18800.0
31
0
0
LINE
8
electrical
10
359992.21
20
18800.0
30
0
11
360000.0
21
18800.0
31
0
0
LINE
8
electrical
10
360000.0
20
4880.0
30
0
11
360000.0
21
18800.0
31
0
0
LINE
8
electrical
10
360000.0
20
4880.0
30
0
11
360007.79
21
4880.0
31
0
0
LINE
8
electrical
10
360007.79
20
4880.0
30
0
11
359992.21
21
4880.0
31
0
0
LINE
8
electrical
10
359992.21
20
4880.0
30
0
11
360000.0
21
4880.0
31
0
0
LINE
8
electrical
10
374563.0
20
2200.0
30
0
11
374543.5
21
2211.26
31
0
0
LINE
8
electrical
10
374543.5
20
2211.26
30
0
11
374543.5
21
2188.74
31
0
0
LINE
8
electrical
10
374543.5
20
2188.74
30
0
11
374563.0
21
2200.0
31
0
0
LINE
8
electrical
10
370492.83
20
4869.16
30
0
11
370503.59
21
4885.42
31
0
0
LINE
8
electrical
10
370503.59
20
4885.42
30
0
11
370503.59
21
4885.42
31
0
0
LINE
8
electrical
10
370503.59
20
4885.42
30
0
11
370492.83
21
4869.16
31
0
0
LINE
8
electrical
10
374542.83
20
2189.16
30
0
11
370492.83
21
4869.16
31
0
0
LINE
8
electrical
10
374542.83
20
2189.16
30
0
11
374553.59
21
2205.42
31
0
0
LINE
8
electrical
10
374553.59
20
2205.42
30
0
11
374553.59
21
2205.42
31
0
0
LINE
8
electrical
10
374553.59
20
2205.42
30
0
11
374542.83
21
2189.16
31
0
0
LINE
8
electrical
10
349500.0
20
4880.0
30
0
11
349500.0
21
4868.74
31
0
0
LINE
8
electrical
10
349500.0
20
4868.74
30
0
11
349500.0
21
4891.26
31
0
0
LINE
8
electrical
10
349500.0
20
4891.26
30
0
11
349500.0
21
4880.0
31
0
0
LINE
8
electrical
10
370500.0
20
4880.0
30
0
11
349500.0
21
4880.0
31
0
0
LINE
8
electrical
10
370500.0
20
4880.0
30
0
11
370500.0
21
4868.74
31
0
0
LINE
8
electrical
10
370500.0
20
4868.74
30
0
11
370500.0
21
4891.26
31
0
0
LINE
8
electrical
10
370500.0
20
4891.26
30
0
11
370500.0
21
4880.0
31
0
0
LINE
8
electrical
10
374550.0
20
2200.0
30
0
11
374564.04
21
2200.0
31
0
0
LINE
8
electrical
10
374564.04
20
2200.0
30
0
11
374550.0
21
2200.0
31
0
0
LINE
8
electrical
10
370500.0
20
4880.0
30
0
11
370514.04
21
4880.0
31
0
0
LINE
8
electrical
10
370514.04
20
4880.0
30
0
11
370500.0
21
4880.0
31
0
0
LINE
8
electrical
10
374563.0
20
2200.0
30
0
11
374543.5
21
2211.26
31
0
0
LINE
8
electrical
10
374543.5
20
2211.26
30
0
11
374543.5
21
2188.74
31
0
0
LINE
8
electrical
10
374543.5
20
2188.74
30
0
11
374563.0
21
2200.0
31
0
0
LINE
8
electrical
10
370492.61
20
4989.31
30
0
11
370503.7
21
5005.35
31
0
0
LINE
8
electrical
10
370503.7
20
5005.35
30
0
11
370503.7
21
5005.35
31
0
0
LINE
8
electrical
10
370503.7
20
5005.35
30
0
11
370492.61
21
4989.31
31
0
0
LINE
8
electrical
10
374542.61
20
2189.31
30
0
11
370492.61
21
4989.31
31
0
0
LINE
8
electrical
10
374542.61
20
2189.31
30
0
11
374553.7
21
2205.35
31
0
0
LINE
8
electrical
10
374553.7
20
2205.35
30
0
11
374553.7
21
2205.35
31
0
0
LINE
8
electrical
10
374553.7
20
2205.35
30
0
11
374542.61
21
2189.31
31
0
0
LINE
8
electrical
10
349500.0
20
5000.0
30
0
11
349500.0
21
4988.74
31
0
0
LINE
8
electrical
10
349500.0
20
4988.74
30
0
11
349500.0
21
5011.26
31
0
0
LINE
8
electrical
10
349500.0
20
5011.26
30
0
11
349500.0
21
5000.0
31
0
0
LINE
8
electrical
10
370500.0
20
5000.0
30
0
11
349500.0
21
5000.0
31
0
0
LINE
8
electrical
10
370500.0
20
5000.0
30
0
11
370500.0
21
4988.74
31
0
0
LINE
8
electrical
10
370500.0
20
4988.74
30
0
11
370500.0
21
5011.26
31
0
0
LINE
8
electrical
10
370500.0
20
5011.26
30
0
11
370500.0
21
5000.0
31
0
0
LINE
8
electrical
10
374550.0
20
2200.0
30
0
11
374564.04
21
2200.0
31
0
0
LINE
8
electrical
10
374564.04
20
2200.0
30
0
11
374550.0
21
2200.0
31
0
0
LINE
8
electrical
10
370500.0
20
5000.0
30
0
11
370514.04
21
5000.0
31
0
0
LINE
8
electrical
10
370514.04
20
5000.0
30
0
11
370500.0
21
5000.0
31
0
0
LINE
8
electrical
10
374563.0
20
2200.0
30
0
11
374543.5
21
2211.26
31
0
0
LINE
8
electrical
10
374543.5
20
2211.26
30
0
11
374543.5
21
2188.74
31
0
0
LINE
8
electrical
10
374543.5
20
2188.74
30
0
11
374563.0
21
2200.0
31
0
0
LINE
8
electrical
10
370492.4
20
5109.45
30
0
11
370503.8
21
5125.27
31
0
0
LINE
8
electrical
10
370503.8
20
5125.27
30
0
11
370503.8
21
5125.27
31
0
0
LINE
8
electrical
10
370503.8
20
5125.27
30
0
11
370492.4
21
5109.45
31
0
0
LINE
8
electrical
10
374542.4
20
2189.45
30
0
11
370492.4
21
5109.45
31
0
0
LINE
8
electrical
10
374542.4
20
2189.45
30
0
11
374553.8
21
2205.27
31
0
0
LINE
8
electrical
10
374553.8
20
2205.27
30
0
11
374553.8
21
2205.27
31
0
0
LINE
8
electrical
10
374553.8
20
2205.27
30
0
11
374542.4
21
2189.45
31
0
0
LINE
8
electrical
10
349500.0
20
5120.0
30
0
11
349500.0
21
5108.74
31
0
0
LINE
8
electrical
10
349500.0
20
5108.74
30
0
11
349500.0
21
5131.26
31
0
0
LINE
8
electrical
10
349500.0
20
5131.26
30
0
11
349500.0
21
5120.0
31
0
0
LINE
8
electrical
10
370500.0
20
5120.0
30
0
11
349500.0
21
5120.0
31
0
0
LINE
8
electrical
10
370500.0
20
5120.0
30
0
11
370500.0
21
5108.74
31
0
0
LINE
8
electrical
10
370500.0
20
5108.74
30
0
11
370500.0
21
5131.26
31
0
0
LINE
8
electrical
10
370500.0
20
5131.26
30
0
11
370500.0
21
5120.0
31
0
0
LINE
8
electrical
10
374550.0
20
2200.0
30
0
11
374564.04
21
2200.0
31
0
0
LINE
8
electrical
10
374564.04
20
2200.0
30
0
11
374550.0
21
2200.0
31
0
0
LINE
8
electrical
10
370500.0
20
5120.0
30
0
11
370514.04
21
5120.0
31
0
0
LINE
8
electrical
10
370514.04
20
5120.0
30
0
11
370500.0
21
5120.0
31
0
0
LINE
8
electrical
10
350935.0
20
2150.0
30
0
11
350935.0
21
2210.0
31
0
0
LINE
8
electrical
10
351065.0
20
2150.0
30
0
11
351065.0
21
2210.0
31
0
0
LINE
8
electrical
10
350935.0
20
2150.0
30
0
11
351065.0
21
2150.0
31
0
0
LINE
8
electrical
10
350935.0
20
2210.0
30
0
11
351065.0
21
2210.0
31
0
0
LINE
8
electrical
10
351009.0
20
2180.0
30
0
11
350995.5
21
2187.79
31
0
0
LINE
8
electrical
10
350995.5
20
2187.79
30
0
11
350995.5
21
2172.21
31
0
0
LINE
8
electrical
10
350995.5
20
2172.21
30
0
11
351009.0
21
2180.0
31
0
0
LINE
8
electrical
10
374550.0
20
2180.0
30
0
11
374550.0
21
2172.21
31
0
0
LINE
8
electrical
10
374550.0
20
2172.21
30
0
11
374550.0
21
2187.79
31
0
0
LINE
8
electrical
10
374550.0
20
2187.79
30
0
11
374550.0
21
2180.0
31
0
0
LINE
8
electrical
10
351000.0
20
2180.0
30
0
11
374550.0
21
2180.0
31
0
0
LINE
8
electrical
10
351000.0
20
2180.0
30
0
11
351000.0
21
2172.21
31
0
0
LINE
8
electrical
10
351000.0
20
2172.21
30
0
11
351000.0
21
2187.79
31
0
0
LINE
8
electrical
10
351000.0
20
2187.79
30
0
11
351000.0
21
2180.0
31
0
0
LINE
8
electrical
10
351000.0
20
2180.0
30
0
11
351009.72
21
2180.0
31
0
0
LINE
8
electrical
10
351009.72
20
2180.0
30
0
11
351000.0
21
2180.0
31
0
0
LINE
8
electrical
10
368935.0
20
2150.0
30
0
11
368935.0
21
2210.0
31
0
0
LINE
8
electrical
10
369065.0
20
2150.0
30
0
11
369065.0
21
2210.0
31
0
0
LINE
8
electrical
10
368935.0
20
2150.0
30
0
11
369065.0
21
2150.0
31
0
0
LINE
8
electrical
10
368935.0
20
2210.0
30
0
11
369065.0
21
2210.0
31
0
0
LINE
8
electrical
10
369009.0
20
2180.0
30
0
11
368995.5
21
2187.79
31
0
0
LINE
8
electrical
10
368995.5
20
2187.79
30
0
11
368995.5
21
2172.21
31
0
0
LINE
8
electrical
10
368995.5
20
2172.21
30
0
11
369009.0
21
2180.0
31
0
0
LINE
8
electrical
10
374550.0
20
2180.0
30
0
11
374550.0
21
2172.21
31
0
0
LINE
8
electrical
10
374550.0
20
2172.21
30
0
11
374550.0
21
2187.79
31
0
0
LINE
8
electrical
10
374550.0
20
2187.79
30
0
11
374550.0
21
2180.0
31
0
0
LINE
8
electrical
10
369000.0
20
2180.0
30
0
11
374550.0
21
2180.0
31
0
0
LINE
8
electrical
10
369000.0
20
2180.0
30
0
11
369000.0
21
2172.21
31
0
0
LINE
8
electrical
10
369000.0
20
2172.21
30
0
11
369000.0
21
2187.79
31
0
0
LINE
8
electrical
10
369000.0
20
2187.79
30
0
11
369000.0
21
2180.0
31
0
0
LINE
8
electrical
10
369000.0
20
2180.0
30
0
11
369009.72
21
2180.0
31
0
0
LINE
8
electrical
10
369009.72
20
2180.0
30
0
11
369000.0
21
2180.0
31
0
0
LINE
8
hvac
10
345475.0
20
2725.0
30
0
11
345475.0
21
3475.0
31
0
0
LINE
8
hvac
10
347125.0
20
2725.0
30
0
11
347125.0
21
3475.0
31
0
0
LINE
8
hvac
10
345475.0
20
2725.0
30
0
11
347125.0
21
2725.0
31
0
0
LINE
8
hvac
10
345475.0
20
3475.0
30
0
11
347125.0
21
3475.0
31
0
0
LINE
8
hvac
10
345575.0
20
2680.0
30
0
11
345575.0
21
2720.0
31
0
0
LINE
8
hvac
10
347025.0
20
2680.0
30
0
11
347025.0
21
2720.0
31
0
0
LINE
8
hvac
10
345575.0
20
2680.0
30
0
11
347025.0
21
2680.0
31
0
0
LINE
8
hvac
10
345575.0
20
2720.0
30
0
11
347025.0
21
2720.0
31
0
0
LINE
8
hvac
10
345640.0
20
2640.0
30
0
11
345640.0
21
2700.0
31
0
0
LINE
8
hvac
10
345680.0
20
2640.0
30
0
11
345680.0
21
2700.0
31
0
0
LINE
8
hvac
10
345640.0
20
2640.0
30
0
11
345680.0
21
2640.0
31
0
0
LINE
8
hvac
10
345640.0
20
2700.0
30
0
11
345680.0
21
2700.0
31
0
0
LINE
8
hvac
10
345800.0
20
2640.0
30
0
11
345800.0
21
2700.0
31
0
0
LINE
8
hvac
10
345840.0
20
2640.0
30
0
11
345840.0
21
2700.0
31
0
0
LINE
8
hvac
10
345800.0
20
2640.0
30
0
11
345840.0
21
2640.0
31
0
0
LINE
8
hvac
10
345800.0
20
2700.0
30
0
11
345840.0
21
2700.0
31
0
0
LINE
8
hvac
10
345960.0
20
2640.0
30
0
11
345960.0
21
2700.0
31
0
0
LINE
8
hvac
10
346000.0
20
2640.0
30
0
11
346000.0
21
2700.0
31
0
0
LINE
8
hvac
10
345960.0
20
2640.0
30
0
11
346000.0
21
2640.0
31
0
0
LINE
8
hvac
10
345960.0
20
2700.0
30
0
11
346000.0
21
2700.0
31
0
0
LINE
8
hvac
10
346120.0
20
2640.0
30
0
11
346120.0
21
2700.0
31
0
0
LINE
8
hvac
10
346160.0
20
2640.0
30
0
11
346160.0
21
2700.0
31
0
0
LINE
8
hvac
10
346120.0
20
2640.0
30
0
11
346160.0
21
2640.0
31
0
0
LINE
8
hvac
10
346120.0
20
2700.0
30
0
11
346160.0
21
2700.0
31
0
0
LINE
8
hvac
10
346280.0
20
2640.0
30
0
11
346280.0
21
2700.0
31
0
0
LINE
8
hvac
10
346320.0
20
2640.0
30
0
11
346320.0
21
2700.0
31
0
0
LINE
8
hvac
10
346280.0
20
2640.0
30
0
11
346320.0
21
2640.0
31
0
0
LINE
8
hvac
10
346280.0
20
2700.0
30
0
11
346320.0
21
2700.0
31
0
0
LINE
8
hvac
10
346440.0
20
2640.0
30
0
11
346440.0
21
2700.0
31
0
0
LINE
8
hvac
10
346480.0
20
2640.0
30
0
11
346480.0
21
2700.0
31
0
0
LINE
8
hvac
10
346440.0
20
2640.0
30
0
11
346480.0
21
2640.0
31
0
0
LINE
8
hvac
10
346440.0
20
2700.0
30
0
11
346480.0
21
2700.0
31
0
0
LINE
8
hvac
10
346600.0
20
2640.0
30
0
11
346600.0
21
2700.0
31
0
0
LINE
8
hvac
10
346640.0
20
2640.0
30
0
11
346640.0
21
2700.0
31
0
0
LINE
8
hvac
10
346600.0
20
2640.0
30
0
11
346640.0
21
2640.0
31
0
0
LINE
8
hvac
10
346600.0
20
2700.0
30
0
11
346640.0
21
2700.0
31
0
0
LINE
8
hvac
10
346760.0
20
2640.0
30
0
11
346760.0
21
2700.0
31
0
0
LINE
8
hvac
10
346800.0
20
2640.0
30
0
11
346800.0
21
2700.0
31
0
0
LINE
8
hvac
10
346760.0
20
2640.0
30
0
11
346800.0
21
2640.0
31
0
0
LINE
8
hvac
10
346760.0
20
2700.0
30
0
11
346800.0
21
2700.0
31
0
0
LINE
8
hvac
10
346920.0
20
2640.0
30
0
11
346920.0
21
2700.0
31
0
0
LINE
8
hvac
10
346960.0
20
2640.0
30
0
11
346960.0
21
2700.0
31
0
0
LINE
8
hvac
10
346920.0
20
2640.0
30
0
11
346960.0
21
2640.0
31
0
0
LINE
8
hvac
10
346920.0
20
2700.0
30
0
11
346960.0
21
2700.0
31
0
0
LINE
8
hvac
10
346075.0
20
2875.0
30
0
11
346075.0
21
3325.0
31
0
0
LINE
8
hvac
10
346525.0
20
2875.0
30
0
11
346525.0
21
3325.0
31
0
0
LINE
8
hvac
10
346075.0
20
2875.0
30
0
11
346525.0
21
2875.0
31
0
0
LINE
8
hvac
10
346075.0
20
3325.0
30
0
11
346525.0
21
3325.0
31
0
0
LINE
8
hvac
10
349500.0
20
11825.0
30
0
11
349500.0
21
12175.0
31
0
0
LINE
8
hvac
10
370500.0
20
11825.0
30
0
11
370500.0
21
12175.0
31
0
0
LINE
8
hvac
10
349500.0
20
11825.0
30
0
11
370500.0
21
11825.0
31
0
0
LINE
8
hvac
10
349500.0
20
12175.0
30
0
11
370500.0
21
12175.0
31
0
0
LINE
8
hvac
10
346125.0
20
2925.0
30
0
11
346125.0
21
3275.0
31
0
0
LINE
8
hvac
10
360175.0
20
2925.0
30
0
11
360175.0
21
3275.0
31
0
0
LINE
8
hvac
10
346125.0
20
2925.0
30
0
11
360175.0
21
2925.0
31
0
0
LINE
8
hvac
10
346125.0
20
3275.0
30
0
11
360175.0
21
3275.0
31
0
0
LINE
8
hvac
10
359825.0
20
2925.0
30
0
11
359825.0
21
12175.0
31
0
0
LINE
8
hvac
10
360175.0
20
2925.0
30
0
11
360175.0
21
12175.0
31
0
0
LINE
8
hvac
10
359825.0
20
2925.0
30
0
11
360175.0
21
2925.0
31
0
0
LINE
8
hvac
10
359825.0
20
12175.0
30
0
11
360175.0
21
12175.0
31
0
0
LINE
8
hvac
10
353650.0
20
11650.0
30
0
11
353650.0
21
12350.0
31
0
0
LINE
8
hvac
10
354350.0
20
11650.0
30
0
11
354350.0
21
12350.0
31
0
0
LINE
8
hvac
10
353650.0
20
11650.0
30
0
11
354350.0
21
11650.0
31
0
0
LINE
8
hvac
10
353650.0
20
12350.0
30
0
11
354350.0
21
12350.0
31
0
0
LINE
8
hvac
10
365650.0
20
11650.0
30
0
11
365650.0
21
12350.0
31
0
0
LINE
8
hvac
10
366350.0
20
11650.0
30
0
11
366350.0
21
12350.0
31
0
0
LINE
8
hvac
10
365650.0
20
11650.0
30
0
11
366350.0
21
11650.0
31
0
0
LINE
8
hvac
10
365650.0
20
12350.0
30
0
11
366350.0
21
12350.0
31
0
0
LINE
8
water
10
373490.0
20
14680.0
30
0
11
373490.0
21
15320.0
31
0
0
LINE
8
water
10
374410.0
20
14680.0
30
0
11
374410.0
21
15320.0
31
0
0
LINE
8
water
10
373490.0
20
14680.0
30
0
11
374410.0
21
14680.0
31
0
0
LINE
8
water
10
373490.0
20
15320.0
30
0
11
374410.0
21
15320.0
31
0
0
LINE
8
water
10
373500.0
20
14690.0
30
0
11
373500.0
21
15310.0
31
0
0
LINE
8
water
10
373500.0
20
14690.0
30
0
11
374400.0
21
14690.0
31
0
0
LINE
8
water
10
373500.0
20
15310.0
30
0
11
374400.0
21
15310.0
31
0
0
LINE
8
water
10
374400.0
20
14690.0
30
0
11
374400.0
21
15310.0
31
0
0
LINE
8
water
10
374275.0
20
14785.0
30
0
11
373625.0
21
14785.0
31
0
0
LINE
8
water
10
374275.0
20
14785.0
30
0
11
374275.0
21
15215.0
31
0
0
LINE
8
water
10
374275.0
20
15215.0
30
0
11
373625.0
21
15215.0
31
0
0
LINE
8
water
10
373625.0
20
14785.0
30
0
11
373625.0
21
15215.0
31
0
0
LINE
8
water
10
373968.0
20
15220.0
30
0
11
373941.0
21
15235.59
31
0
0
LINE
8
water
10
373941.0
20
15235.59
30
0
11
373941.0
21
15204.41
31
0
0
LINE
8
water
10
373941.0
20
15204.41
30
0
11
373968.0
21
15220.0
31
0
0
LINE
8
water
10
373950.0
20
15000.0
30
0
11
373965.59
21
15000.0
31
0
0
LINE
8
water
10
373965.59
20
15000.0
30
0
11
373934.41
21
15000.0
31
0
0
LINE
8
water
10
373934.41
20
15000.0
30
0
11
373950.0
21
15000.0
31
0
0
LINE
8
water
10
373950.0
20
15220.0
30
0
11
373950.0
21
15000.0
31
0
0
LINE
8
water
10
373950.0
20
15220.0
30
0
11
373965.59
21
15220.0
31
0
0
LINE
8
water
10
373965.59
20
15220.0
30
0
11
373934.41
21
15220.0
31
0
0
LINE
8
water
10
373934.41
20
15220.0
30
0
11
373950.0
21
15220.0
31
0
0
LINE
8
water
10
373950.0
20
15220.0
30
0
11
373969.44
21
15220.0
31
0
0
LINE
8
water
10
373969.44
20
15220.0
30
0
11
373950.0
21
15220.0
31
0
0
LINE
8
water
10
373895.0
20
15000.0
30
0
11
373950.0
21
15055.0
31
0
0
LINE
8
water
10
373950.0
20
15055.0
30
0
11
374005.0
21
15000.0
31
0
0
LINE
8
water
10
374005.0
20
15000.0
30
0
11
373950.0
21
14945.0
31
0
0
LINE
8
water
10
373950.0
20
14945.0
30
0
11
373895.0
21
15000.0
31
0
0
LINE
8
water
10
373950.0
20
13800.0
30
0
11
374005.0
21
13800.0
31
0
0
LINE
8
water
10
374005.0
20
13800.0
30
0
11
373950.0
21
13800.0
31
0
0
LINE
8
water
10
373950.0
20
13800.0
30
0
11
373895.0
21
13800.0
31
0
0
LINE
8
water
10
373895.0
20
13800.0
30
0
11
373950.0
21
13800.0
31
0
0
LINE
8
water
10
373950.0
20
15000.0
30
0
11
373950.0
21
13800.0
31
0
0
LINE
8
water
10
373950.0
20
15000.0
30
0
11
374005.0
21
15000.0
31
0
0
LINE
8
water
10
374005.0
20
15000.0
30
0
11
373950.0
21
15000.0
31
0
0
LINE
8
water
10
373950.0
20
15000.0
30
0
11
373895.0
21
15000.0
31
0
0
LINE
8
water
10
373895.0
20
15000.0
30
0
11
373950.0
21
15000.0
31
0
0
LINE
8
water
10
373895.0
20
13800.0
30
0
11
373950.0
21
13855.0
31
0
0
LINE
8
water
10
373950.0
20
13855.0
30
0
11
374005.0
21
13800.0
31
0
0
LINE
8
water
10
374005.0
20
13800.0
30
0
11
373950.0
21
13745.0
31
0
0
LINE
8
water
10
373950.0
20
13745.0
30
0
11
373895.0
21
13800.0
31
0
0
LINE
8
water
10
373950.0
20
-58000.0
30
0
11
374005.0
21
-58000.0
31
0
0
LINE
8
water
10
374005.0
20
-58000.0
30
0
11
373950.0
21
-58000.0
31
0
0
LINE
8
water
10
373950.0
20
-58000.0
30
0
11
373895.0
21
-58000.0
31
0
0
LINE
8
water
10
373895.0
20
-58000.0
30
0
11
373950.0
21
-58000.0
31
0
0
LINE
8
water
10
373950.0
20
13800.0
30
0
11
373950.0
21
-58000.0
31
0
0
LINE
8
water
10
305000.0
20
-58000.0
30
0
11
305000.0
21
-58055.0
31
0
0
LINE
8
water
10
305000.0
20
-58055.0
30
0
11
305000.0
21
-58000.0
31
0
0
LINE
8
water
10
305000.0
20
-58000.0
30
0
11
305000.0
21
-57945.0
31
0
0
LINE
8
water
10
305000.0
20
-57945.0
30
0
11
305000.0
21
-58000.0
31
0
0
LINE
8
water
10
373950.0
20
-58000.0
30
0
11
305000.0
21
-58000.0
31
0
0
LINE
8
water
10
373950.0
20
-58000.0
30
0
11
373950.0
21
-58055.0
31
0
0
LINE
8
water
10
373950.0
20
-58055.0
30
0
11
373950.0
21
-58000.0
31
0
0
LINE
8
water
10
373950.0
20
-58000.0
30
0
11
373950.0
21
-57945.0
31
0
0
LINE
8
water
10
373950.0
20
-57945.0
30
0
11
373950.0
21
-58000.0
31
0
0
LINE
8
water
10
373950.0
20
15000.0
30
0
11
374009.4
21
15000.0
31
0
0
LINE
8
water
10
374009.4
20
15000.0
30
0
11
373950.0
21
15000.0
31
0
0
LINE
8
water
10
373950.0
20
13800.0
30
0
11
374009.4
21
13800.0
31
0
0
LINE
8
water
10
374009.4
20
13800.0
30
0
11
373950.0
21
13800.0
31
0
0
LINE
8
water
10
373950.0
20
-58000.0
30
0
11
374009.4
21
-58000.0
31
0
0
LINE
8
water
10
374009.4
20
-58000.0
30
0
11
373950.0
21
-58000.0
31
0
0
LINE
8
water
10
374270.0
20
13750.0
30
0
11
374176.27
21
13976.27
31
0
0
LINE
8
water
10
374176.27
20
13976.27
30
0
11
373950.0
21
14070.0
31
0
0
LINE
8
water
10
373950.0
20
14070.0
30
0
11
373723.73
21
13976.27
31
0
0
LINE
8
water
10
373723.73
20
13976.27
30
0
11
373630.0
21
13750.0
31
0
0
LINE
8
water
10
373630.0
20
13750.0
30
0
11
373723.73
21
13523.73
31
0
0
LINE
8
water
10
373723.73
20
13523.73
30
0
11
373950.0
21
13430.0
31
0
0
LINE
8
water
10
373950.0
20
13430.0
30
0
11
374176.27
21
13523.73
31
0
0
LINE
8
water
10
374176.27
20
13523.73
30
0
11
374270.0
21
13750.0
31
0
0
LINE
8
water
10
373760.0
20
13625.0
30
0
11
373760.0
21
13875.0
31
0
0
LINE
8
water
10
374140.0
20
13625.0
30
0
11
374140.0
21
13875.0
31
0
0
LINE
8
water
10
373760.0
20
13625.0
30
0
11
374140.0
21
13625.0
31
0
0
LINE
8
water
10
373760.0
20
13875.0
30
0
11
374140.0
21
13875.0
31
0
0
LINE
8
water
10
365155.0
20
2400.0
30
0
11
365155.0
21
2325.0
31
0
0
LINE
8
water
10
365155.0
20
2325.0
30
0
11
365155.0
21
2400.0
31
0
0
LINE
8
water
10
365155.0
20
2400.0
30
0
11
365155.0
21
2475.0
31
0
0
LINE
8
water
10
365155.0
20
2475.0
30
0
11
365155.0
21
2400.0
31
0
0
LINE
8
water
10
364755.0
20
2400.0
30
0
11
365155.0
21
2400.0
31
0
0
LINE
8
water
10
364755.0
20
2400.0
30
0
11
364755.0
21
2325.0
31
0
0
LINE
8
water
10
364755.0
20
2325.0
30
0
11
364755.0
21
2400.0
31
0
0
LINE
8
water
10
364755.0
20
2400.0
30
0
11
364755.0
21
2475.0
31
0
0
LINE
8
water
10
364755.0
20
2475.0
30
0
11
364755.0
21
2400.0
31
0
0
LINE
8
water
10
365045.0
20
2400.0
30
0
11
364982.81
21
2485.6
31
0
0
LINE
8
water
10
364982.81
20
2485.6
30
0
11
364882.19
21
2452.9
31
0
0
LINE
8
water
10
364882.19
20
2452.9
30
0
11
364882.19
21
2347.1
31
0
0
LINE
8
water
10
364882.19
20
2347.1
30
0
11
364982.81
21
2314.4
31
0
0
LINE
8
water
10
364982.81
20
2314.4
30
0
11
365045.0
21
2400.0
31
0
0
LINE
8
water
10
364765.0
20
2375.0
30
0
11
364765.0
21
2425.0
31
0
0
LINE
8
water
10
365145.0
20
2375.0
30
0
11
365145.0
21
2425.0
31
0
0
LINE
8
water
10
364765.0
20
2375.0
30
0
11
365145.0
21
2375.0
31
0
0
LINE
8
water
10
364765.0
20
2425.0
30
0
11
365145.0
21
2425.0
31
0
0
LINE
8
water
10
364830.0
20
2400.0
30
0
11
364830.0
21
2295.38
31
0
0
LINE
8
water
10
364830.0
20
2295.38
30
0
11
364830.0
21
2335.34
31
0
0
LINE
8
water
10
364830.0
20
2335.34
30
0
11
364830.0
21
2464.66
31
0
0
LINE
8
water
10
364830.0
20
2464.66
30
0
11
364830.0
21
2504.62
31
0
0
LINE
8
water
10
364830.0
20
2504.62
30
0
11
364830.0
21
2400.0
31
0
0
LINE
8
water
10
364805.0
20
2400.0
30
0
11
364830.0
21
2400.0
31
0
0
LINE
8
water
10
364805.0
20
2400.0
30
0
11
364805.0
21
2295.38
31
0
0
LINE
8
water
10
364805.0
20
2295.38
30
0
11
364805.0
21
2335.34
31
0
0
LINE
8
water
10
364805.0
20
2335.34
30
0
11
364805.0
21
2464.66
31
0
0
LINE
8
water
10
364805.0
20
2464.66
30
0
11
364805.0
21
2504.62
31
0
0
LINE
8
water
10
364805.0
20
2504.62
30
0
11
364805.0
21
2400.0
31
0
0
LINE
8
water
10
365130.0
20
2400.0
30
0
11
365130.0
21
2295.38
31
0
0
LINE
8
water
10
365130.0
20
2295.38
30
0
11
365130.0
21
2335.34
31
0
0
LINE
8
water
10
365130.0
20
2335.34
30
0
11
365130.0
21
2464.66
31
0
0
LINE
8
water
10
365130.0
20
2464.66
30
0
11
365130.0
21
2504.62
31
0
0
LINE
8
water
10
365130.0
20
2504.62
30
0
11
365130.0
21
2400.0
31
0
0
LINE
8
water
10
365105.0
20
2400.0
30
0
11
365130.0
21
2400.0
31
0
0
LINE
8
water
10
365105.0
20
2400.0
30
0
11
365105.0
21
2295.38
31
0
0
LINE
8
water
10
365105.0
20
2295.38
30
0
11
365105.0
21
2335.34
31
0
0
LINE
8
water
10
365105.0
20
2335.34
30
0
11
365105.0
21
2464.66
31
0
0
LINE
8
water
10
365105.0
20
2464.66
30
0
11
365105.0
21
2504.62
31
0
0
LINE
8
water
10
365105.0
20
2504.62
30
0
11
365105.0
21
2400.0
31
0
0
LINE
8
water
10
361100.0
20
2400.0
30
0
11
361130.31
21
2400.0
31
0
0
LINE
8
water
10
361130.31
20
2400.0
30
0
11
361069.69
21
2400.0
31
0
0
LINE
8
water
10
361069.69
20
2400.0
30
0
11
361100.0
21
2400.0
31
0
0
LINE
8
water
10
361100.0
20
-60500.0
30
0
11
361100.0
21
2400.0
31
0
0
LINE
8
water
10
361100.0
20
-60500.0
30
0
11
361130.31
21
-60500.0
31
0
0
LINE
8
water
10
361130.31
20
-60500.0
30
0
11
361069.69
21
-60500.0
31
0
0
LINE
8
water
10
361069.69
20
-60500.0
30
0
11
361100.0
21
-60500.0
31
0
0
LINE
8
water
10
373950.0
20
2400.0
30
0
11
373950.0
21
2369.69
31
0
0
LINE
8
water
10
373950.0
20
2369.69
30
0
11
373950.0
21
2430.31
31
0
0
LINE
8
water
10
373950.0
20
2430.31
30
0
11
373950.0
21
2400.0
31
0
0
LINE
8
water
10
361100.0
20
2400.0
30
0
11
373950.0
21
2400.0
31
0
0
LINE
8
water
10
361100.0
20
2400.0
30
0
11
361100.0
21
2369.69
31
0
0
LINE
8
water
10
361100.0
20
2369.69
30
0
11
361100.0
21
2430.31
31
0
0
LINE
8
water
10
361100.0
20
2430.31
30
0
11
361100.0
21
2400.0
31
0
0
LINE
8
water
10
373950.0
20
15230.0
30
0
11
373980.31
21
15230.0
31
0
0
LINE
8
water
10
373980.31
20
15230.0
30
0
11
373919.69
21
15230.0
31
0
0
LINE
8
water
10
373919.69
20
15230.0
30
0
11
373950.0
21
15230.0
31
0
0
LINE
8
water
10
373950.0
20
2400.0
30
0
11
373950.0
21
15230.0
31
0
0
LINE
8
water
10
373950.0
20
2400.0
30
0
11
373980.31
21
2400.0
31
0
0
LINE
8
water
10
373980.31
20
2400.0
30
0
11
373919.69
21
2400.0
31
0
0
LINE
8
water
10
373919.69
20
2400.0
30
0
11
373950.0
21
2400.0
31
0
0
LINE
8
water
10
373915.0
20
15230.0
30
0
11
373967.5
21
15260.31
31
0
0
LINE
8
water
10
373967.5
20
15260.31
30
0
11
373967.5
21
15199.69
31
0
0
LINE
8
water
10
373967.5
20
15199.69
30
0
11
373915.0
21
15230.0
31
0
0
LINE
8
water
10
361100.0
20
2400.0
30
0
11
361137.8
21
2400.0
31
0
0
LINE
8
water
10
361137.8
20
2400.0
30
0
11
361100.0
21
2400.0
31
0
0
LINE
8
water
10
373950.0
20
2400.0
30
0
11
373987.8
21
2400.0
31
0
0
LINE
8
water
10
373987.8
20
2400.0
30
0
11
373950.0
21
2400.0
31
0
0
LINE
8
water
10
373950.0
20
15230.0
30
0
11
373987.8
21
15230.0
31
0
0
LINE
8
water
10
373987.8
20
15230.0
30
0
11
373950.0
21
15230.0
31
0
0
LINE
8
water
10
365364.0
20
2400.0
30
0
11
365364.0
21
2325.0
31
0
0
LINE
8
water
10
365364.0
20
2325.0
30
0
11
365364.0
21
2400.0
31
0
0
LINE
8
water
10
365364.0
20
2400.0
30
0
11
365364.0
21
2475.0
31
0
0
LINE
8
water
10
365364.0
20
2475.0
30
0
11
365364.0
21
2400.0
31
0
0
LINE
8
water
10
364964.0
20
2400.0
30
0
11
365364.0
21
2400.0
31
0
0
LINE
8
water
10
364964.0
20
2400.0
30
0
11
364964.0
21
2325.0
31
0
0
LINE
8
water
10
364964.0
20
2325.0
30
0
11
364964.0
21
2400.0
31
0
0
LINE
8
water
10
364964.0
20
2400.0
30
0
11
364964.0
21
2475.0
31
0
0
LINE
8
water
10
364964.0
20
2475.0
30
0
11
364964.0
21
2400.0
31
0
0
LINE
8
water
10
365254.0
20
2400.0
30
0
11
365191.81
21
2485.6
31
0
0
LINE
8
water
10
365191.81
20
2485.6
30
0
11
365091.19
21
2452.9
31
0
0
LINE
8
water
10
365091.19
20
2452.9
30
0
11
365091.19
21
2347.1
31
0
0
LINE
8
water
10
365091.19
20
2347.1
30
0
11
365191.81
21
2314.4
31
0
0
LINE
8
water
10
365191.81
20
2314.4
30
0
11
365254.0
21
2400.0
31
0
0
LINE
8
water
10
364974.0
20
2375.0
30
0
11
364974.0
21
2425.0
31
0
0
LINE
8
water
10
365354.0
20
2375.0
30
0
11
365354.0
21
2425.0
31
0
0
LINE
8
water
10
364974.0
20
2375.0
30
0
11
365354.0
21
2375.0
31
0
0
LINE
8
water
10
364974.0
20
2425.0
30
0
11
365354.0
21
2425.0
31
0
0
LINE
8
water
10
365039.0
20
2400.0
30
0
11
365039.0
21
2295.38
31
0
0
LINE
8
water
10
365039.0
20
2295.38
30
0
11
365039.0
21
2335.34
31
0
0
LINE
8
water
10
365039.0
20
2335.34
30
0
11
365039.0
21
2464.66
31
0
0
LINE
8
water
10
365039.0
20
2464.66
30
0
11
365039.0
21
2504.62
31
0
0
LINE
8
water
10
365039.0
20
2504.62
30
0
11
365039.0
21
2400.0
31
0
0
LINE
8
water
10
365014.0
20
2400.0
30
0
11
365039.0
21
2400.0
31
0
0
LINE
8
water
10
365014.0
20
2400.0
30
0
11
365014.0
21
2295.38
31
0
0
LINE
8
water
10
365014.0
20
2295.38
30
0
11
365014.0
21
2335.34
31
0
0
LINE
8
water
10
365014.0
20
2335.34
30
0
11
365014.0
21
2464.66
31
0
0
LINE
8
water
10
365014.0
20
2464.66
30
0
11
365014.0
21
2504.62
31
0
0
LINE
8
water
10
365014.0
20
2504.62
30
0
11
365014.0
21
2400.0
31
0
0
LINE
8
water
10
365339.0
20
2400.0
30
0
11
365339.0
21
2295.38
31
0
0
LINE
8
water
10
365339.0
20
2295.38
30
0
11
365339.0
21
2335.34
31
0
0
LINE
8
water
10
365339.0
20
2335.34
30
0
11
365339.0
21
2464.66
31
0
0
LINE
8
water
10
365339.0
20
2464.66
30
0
11
365339.0
21
2504.62
31
0
0
LINE
8
water
10
365339.0
20
2504.62
30
0
11
365339.0
21
2400.0
31
0
0
LINE
8
water
10
365314.0
20
2400.0
30
0
11
365339.0
21
2400.0
31
0
0
LINE
8
water
10
365314.0
20
2400.0
30
0
11
365314.0
21
2295.38
31
0
0
LINE
8
water
10
365314.0
20
2295.38
30
0
11
365314.0
21
2335.34
31
0
0
LINE
8
water
10
365314.0
20
2335.34
30
0
11
365314.0
21
2464.66
31
0
0
LINE
8
water
10
365314.0
20
2464.66
30
0
11
365314.0
21
2504.62
31
0
0
LINE
8
water
10
365314.0
20
2504.62
30
0
11
365314.0
21
2400.0
31
0
0
LINE
8
water
10
361450.0
20
2400.0
30
0
11
361480.31
21
2400.0
31
0
0
LINE
8
water
10
361480.31
20
2400.0
30
0
11
361419.69
21
2400.0
31
0
0
LINE
8
water
10
361419.69
20
2400.0
30
0
11
361450.0
21
2400.0
31
0
0
LINE
8
water
10
361450.0
20
-59500.0
30
0
11
361450.0
21
2400.0
31
0
0
LINE
8
water
10
361450.0
20
-59500.0
30
0
11
361480.31
21
-59500.0
31
0
0
LINE
8
water
10
361480.31
20
-59500.0
30
0
11
361419.69
21
-59500.0
31
0
0
LINE
8
water
10
361419.69
20
-59500.0
30
0
11
361450.0
21
-59500.0
31
0
0
LINE
8
water
10
373830.0
20
2400.0
30
0
11
373830.0
21
2369.69
31
0
0
LINE
8
water
10
373830.0
20
2369.69
30
0
11
373830.0
21
2430.31
31
0
0
LINE
8
water
10
373830.0
20
2430.31
30
0
11
373830.0
21
2400.0
31
0
0
LINE
8
water
10
361450.0
20
2400.0
30
0
11
373830.0
21
2400.0
31
0
0
LINE
8
water
10
361450.0
20
2400.0
30
0
11
361450.0
21
2369.69
31
0
0
LINE
8
water
10
361450.0
20
2369.69
30
0
11
361450.0
21
2430.31
31
0
0
LINE
8
water
10
361450.0
20
2430.31
30
0
11
361450.0
21
2400.0
31
0
0
LINE
8
water
10
373830.0
20
15230.0
30
0
11
373860.31
21
15230.0
31
0
0
LINE
8
water
10
373860.31
20
15230.0
30
0
11
373799.69
21
15230.0
31
0
0
LINE
8
water
10
373799.69
20
15230.0
30
0
11
373830.0
21
15230.0
31
0
0
LINE
8
water
10
373830.0
20
2400.0
30
0
11
373830.0
21
15230.0
31
0
0
LINE
8
water
10
373830.0
20
2400.0
30
0
11
373860.31
21
2400.0
31
0
0
LINE
8
water
10
373860.31
20
2400.0
30
0
11
373799.69
21
2400.0
31
0
0
LINE
8
water
10
373799.69
20
2400.0
30
0
11
373830.0
21
2400.0
31
0
0
LINE
8
water
10
373795.0
20
15230.0
30
0
11
373847.5
21
15260.31
31
0
0
LINE
8
water
10
373847.5
20
15260.31
30
0
11
373847.5
21
15199.69
31
0
0
LINE
8
water
10
373847.5
20
15199.69
30
0
11
373795.0
21
15230.0
31
0
0
LINE
8
water
10
361450.0
20
2400.0
30
0
11
361487.8
21
2400.0
31
0
0
LINE
8
water
10
361487.8
20
2400.0
30
0
11
361450.0
21
2400.0
31
0
0
LINE
8
water
10
373830.0
20
2400.0
30
0
11
373867.8
21
2400.0
31
0
0
LINE
8
water
10
373867.8
20
2400.0
30
0
11
373830.0
21
2400.0
31
0
0
LINE
8
water
10
373830.0
20
15230.0
30
0
11
373867.8
21
15230.0
31
0
0
LINE
8
water
10
373867.8
20
15230.0
30
0
11
373830.0
21
15230.0
31
0
0
LINE
8
sensors
10
345040.0
20
6320.0
30
0
11
345040.0
21
6480.0
31
0
0
LINE
8
sensors
10
345140.0
20
6320.0
30
0
11
345140.0
21
6480.0
31
0
0
LINE
8
sensors
10
345040.0
20
6320.0
30
0
11
345140.0
21
6320.0
31
0
0
LINE
8
sensors
10
345040.0
20
6480.0
30
0
11
345140.0
21
6480.0
31
0
0
LINE
8
sensors
10
345145.0
20
6345.0
30
0
11
345145.0
21
6455.0
31
0
0
LINE
8
sensors
10
345165.0
20
6345.0
30
0
11
345165.0
21
6455.0
31
0
0
LINE
8
sensors
10
345145.0
20
6345.0
30
0
11
345165.0
21
6345.0
31
0
0
LINE
8
sensors
10
345145.0
20
6455.0
30
0
11
345165.0
21
6455.0
31
0
0
LINE
8
sensors
10
345040.0
20
6620.0
30
0
11
345040.0
21
6780.0
31
0
0
LINE
8
sensors
10
345140.0
20
6620.0
30
0
11
345140.0
21
6780.0
31
0
0
LINE
8
sensors
10
345040.0
20
6620.0
30
0
11
345140.0
21
6620.0
31
0
0
LINE
8
sensors
10
345040.0
20
6780.0
30
0
11
345140.0
21
6780.0
31
0
0
LINE
8
sensors
10
345145.0
20
6645.0
30
0
11
345145.0
21
6755.0
31
0
0
LINE
8
sensors
10
345165.0
20
6645.0
30
0
11
345165.0
21
6755.0
31
0
0
LINE
8
sensors
10
345145.0
20
6645.0
30
0
11
345165.0
21
6645.0
31
0
0
LINE
8
sensors
10
345145.0
20
6755.0
30
0
11
345165.0
21
6755.0
31
0
0
LINE
8
sensors
10
345040.0
20
6920.0
30
0
11
345040.0
21
7080.0
31
0
0
LINE
8
sensors
10
345140.0
20
6920.0
30
0
11
345140.0
21
7080.0
31
0
0
LINE
8
sensors
10
345040.0
20
6920.0
30
0
11
345140.0
21
6920.0
31
0
0
LINE
8
sensors
10
345040.0
20
7080.0
30
0
11
345140.0
21
7080.0
31
0
0
LINE
8
sensors
10
345145.0
20
6945.0
30
0
11
345145.0
21
7055.0
31
0
0
LINE
8
sensors
10
345165.0
20
6945.0
30
0
11
345165.0
21
7055.0
31
0
0
LINE
8
sensors
10
345145.0
20
6945.0
30
0
11
345165.0
21
6945.0
31
0
0
LINE
8
sensors
10
345145.0
20
7055.0
30
0
11
345165.0
21
7055.0
31
0
0
LINE
8
sensors
10
360080.0
20
12000.0
30
0
11
360000.0
21
12080.0
31
0
0
LINE
8
sensors
10
360000.0
20
12080.0
30
0
11
359920.0
21
12000.0
31
0
0
LINE
8
sensors
10
359920.0
20
12000.0
30
0
11
360000.0
21
11920.0
31
0
0
LINE
8
sensors
10
360000.0
20
11920.0
30
0
11
360080.0
21
12000.0
31
0
0
LINE
8
sensors
10
360000.0
20
12000.0
30
0
11
360065.0
21
12000.0
31
0
0
LINE
8
sensors
10
360065.0
20
12000.0
30
0
11
360000.0
21
12000.0
31
0
0
LINE
8
sensors
10
345040.0
20
7520.0
30
0
11
345040.0
21
7680.0
31
0
0
LINE
8
sensors
10
345140.0
20
7520.0
30
0
11
345140.0
21
7680.0
31
0
0
LINE
8
sensors
10
345040.0
20
7520.0
30
0
11
345140.0
21
7520.0
31
0
0
LINE
8
sensors
10
345040.0
20
7680.0
30
0
11
345140.0
21
7680.0
31
0
0
LINE
8
sensors
10
345145.0
20
7545.0
30
0
11
345145.0
21
7655.0
31
0
0
LINE
8
sensors
10
345165.0
20
7545.0
30
0
11
345165.0
21
7655.0
31
0
0
LINE
8
sensors
10
345145.0
20
7545.0
30
0
11
345165.0
21
7545.0
31
0
0
LINE
8
sensors
10
345145.0
20
7655.0
30
0
11
345165.0
21
7655.0
31
0
0
LINE
8
sensors
10
369562.5
20
2400.0
30
0
11
369562.5
21
2325.0
31
0
0
LINE
8
sensors
10
369562.5
20
2325.0
30
0
11
369562.5
21
2400.0
31
0
0
LINE
8
sensors
10
369562.5
20
2400.0
30
0
11
369562.5
21
2475.0
31
0
0
LINE
8
sensors
10
369562.5
20
2475.0
30
0
11
369562.5
21
2400.0
31
0
0
LINE
8
sensors
10
369342.5
20
2400.0
30
0
11
369562.5
21
2400.0
31
0
0
LINE
8
sensors
10
369342.5
20
2400.0
30
0
11
369342.5
21
2325.0
31
0
0
LINE
8
sensors
10
369342.5
20
2325.0
30
0
11
369342.5
21
2400.0
31
0
0
LINE
8
sensors
10
369342.5
20
2400.0
30
0
11
369342.5
21
2475.0
31
0
0
LINE
8
sensors
10
369342.5
20
2475.0
30
0
11
369342.5
21
2400.0
31
0
0
LINE
8
sensors
10
369372.5
20
2330.0
30
0
11
369372.5
21
2470.0
31
0
0
LINE
8
sensors
10
369532.5
20
2330.0
30
0
11
369532.5
21
2470.0
31
0
0
LINE
8
sensors
10
369372.5
20
2330.0
30
0
11
369532.5
21
2330.0
31
0
0
LINE
8
sensors
10
369372.5
20
2470.0
30
0
11
369532.5
21
2470.0
31
0
0
LINE
8
sensors
10
369607.0
20
2400.0
30
0
11
369607.0
21
2325.0
31
0
0
LINE
8
sensors
10
369607.0
20
2325.0
30
0
11
369607.0
21
2400.0
31
0
0
LINE
8
sensors
10
369607.0
20
2400.0
30
0
11
369607.0
21
2475.0
31
0
0
LINE
8
sensors
10
369607.0
20
2475.0
30
0
11
369607.0
21
2400.0
31
0
0
LINE
8
sensors
10
369387.0
20
2400.0
30
0
11
369607.0
21
2400.0
31
0
0
LINE
8
sensors
10
369387.0
20
2400.0
30
0
11
369387.0
21
2325.0
31
0
0
LINE
8
sensors
10
369387.0
20
2325.0
30
0
11
369387.0
21
2400.0
31
0
0
LINE
8
sensors
10
369387.0
20
2400.0
30
0
11
369387.0
21
2475.0
31
0
0
LINE
8
sensors
10
369387.0
20
2475.0
30
0
11
369387.0
21
2400.0
31
0
0
LINE
8
sensors
10
369417.0
20
2330.0
30
0
11
369417.0
21
2470.0
31
0
0
LINE
8
sensors
10
369577.0
20
2330.0
30
0
11
369577.0
21
2470.0
31
0
0
LINE
8
sensors
10
369417.0
20
2330.0
30
0
11
369577.0
21
2330.0
31
0
0
LINE
8
sensors
10
369417.0
20
2470.0
30
0
11
369577.0
21
2470.0
31
0
0
ENDSEC
0
EOF
