0
SECTION
2
HEADER
9
$ACADVER
1
AC1015
9
$INSUNITS
70
4
0
ENDSEC
0
SECTION
2
ENTITIES
0
LINE
8
interiors
10
385000.0
20
2000.0
30
0
11
385000.0
21
22000.0
31
0
0
LINE
8
interiors
10
385000.0
20
2000.0
30
0
11
398800.0
21
2000.0
31
0
0
LINE
8
interiors
10
398800.0
20
2000.0
30
0
11
401200.0
21
2000.0
31
0
0
LINE
8
interiors
10
401200.0
20
2000.0
30
0
11
415000.0
21
2000.0
31
0
0
LINE
8
interiors
10
385000.0
20
2000.0
30
0
11
415000.0
21
2000.0
31
0
0
LINE
8
interiors
10
385000.0
20
22000.0
30
0
11
415000.0
21
22000.0
31
0
0
LINE
8
interiors
10
415000.0
20
2000.0
30
0
11
415000.0
21
22000.0
31
0
0
LINE
8
interiors
10
414880.0
20
2120.0
30
0
11
385120.0
21
2120.0
31
0
0
LINE
8
interiors
10
414880.0
20
2120.0
30
0
11
414880.0
21
21880.0
31
0
0
LINE
8
interiors
10
414880.0
20
21880.0
30
0
11
385120.0
21
21880.0
31
0
0
LINE
8
interiors
10
385120.0
20
2120.0
30
0
11
385120.0
21
21880.0
31
0
0
LINE
8
interiors
10
392200.0
20
22000.0
30
0
11
407800.0
21
22000.0
31
0
0
LINE
8
interiors
10
401200.0
20
2000.0
30
0
11
401200.0
21
2120.0
31
0
0
LINE
8
interiors
10
414880.0
20
2120.0
30
0
11
401200.0
21
2120.0
31
0
0
LINE
8
interiors
10
398800.0
20
2120.0
30
0
11
385120.0
21
2120.0
31
0
0
LINE
8
interiors
10
398800.0
20
2000.0
30
0
11
398800.0
21
2120.0
31
0
0
LINE
8
interiors
10
398800.0
20
2120.0
30
0
11
401200.0
21
2120.0
31
0
0
LINE
8
interiors
10
392200.0
20
21880.0
30
0
11
407800.0
21
21880.0
31
0
0
LINE
8
interiors
10
392200.0
20
21880.0
30
0
11
392200.0
21
22000.0
31
0
0
LINE
8
interiors
10
407800.0
20
21880.0
30
0
11
407800.0
21
22000.0
31
0
0
LINE
8
interiors
10
392200.0
20
21977.5
30
0
11
392200.0
21
22022.5
31
0
0
LINE
8
interiors
10
407800.0
20
21977.5
30
0
11
407800.0
21
22022.5
31
0
0
LINE
8
interiors
10
392200.0
20
21977.5
30
0
11
407800.0
21
21977.5
31
0
0
LINE
8
interiors
10
392200.0
20
22022.5
30
0
11
407800.0
21
22022.5
31
0
0
LINE
8
interiors
10
385125.0
20
2125.0
30
0
11
385125.0
21
21875.0
31
0
0
LINE
8
interiors
10
414875.0
20
2125.0
30
0
11
414875.0
21
21875.0
31
0
0
LINE
8
interiors
10
385125.0
20
2125.0
30
0
11
414875.0
21
2125.0
31
0
0
LINE
8
interiors
10
385125.0
20
21875.0
30
0
11
414875.0
21
21875.0
31
0
0
LINE
8
interiors
10
398845.0
20
1880.0
30
0
11
398845.0
21
2120.0
31
0
0
LINE
8
interiors
10
398915.0
20
1880.0
30
0
11
398915.0
21
2120.0
31
0
0
LINE
8
interiors
10
398845.0
20
1880.0
30
0
11
398915.0
21
1880.0
31
0
0
LINE
8
interiors
10
398845.0
20
2120.0
30
0
11
398915.0
21
2120.0
31
0
0
LINE
8
interiors
10
401085.0
20
1880.0
30
0
11
401085.0
21
2120.0
31
0
0
LINE
8
interiors
10
401155.0
20
1880.0
30
0
11
401155.0
21
2120.0
31
0
0
LINE
8
interiors
10
401085.0
20
1880.0
30
0
11
401155.0
21
1880.0
31
0
0
LINE
8
interiors
10
401085.0
20
2120.0
30
0
11
401155.0
21
2120.0
31
0
0
LINE
8
interiors
10
398850.0
20
1880.0
30
0
11
398850.0
21
2120.0
31
0
0
LINE
8
interiors
10
401150.0
20
1880.0
30
0
11
401150.0
21
2120.0
31
0
0
LINE
8
interiors
10
398850.0
20
1880.0
30
0
11
401150.0
21
1880.0
31
0
0
LINE
8
interiors
10
398850.0
20
2120.0
30
0
11
401150.0
21
2120.0
31
0
0
LINE
8
interiors
10
398930.39
20
2090.49
30
0
11
398889.61
21
2109.51
31
0
0
LINE
8
interiors
10
399386.82
20
3069.3
30
0
11
399346.04
21
3088.32
31
0
0
LINE
8
interiors
10
398930.39
20
2090.49
30
0
11
399386.82
21
3069.3
31
0
0
LINE
8
interiors
10
398889.61
20
2109.51
30
0
11
399346.04
21
3088.32
31
0
0
LINE
8
interiors
10
392500.0
20
7150.0
30
0
11
392500.0
21
8050.0
31
0
0
LINE
8
interiors
10
394300.0
20
7150.0
30
0
11
394300.0
21
8050.0
31
0
0
LINE
8
interiors
10
392500.0
20
7150.0
30
0
11
394300.0
21
7150.0
31
0
0
LINE
8
interiors
10
392500.0
20
8050.0
30
0
11
394300.0
21
8050.0
31
0
0
LINE
8
interiors
10
392565.0
20
7215.0
30
0
11
392565.0
21
7285.0
31
0
0
LINE
8
interiors
10
392635.0
20
7215.0
30
0
11
392635.0
21
7285.0
31
0
0
LINE
8
interiors
10
392565.0
20
7215.0
30
0
11
392635.0
21
7215.0
31
0
0
LINE
8
interiors
10
392565.0
20
7285.0
30
0
11
392635.0
21
7285.0
31
0
0
LINE
8
interiors
10
392565.0
20
7915.0
30
0
11
392565.0
21
7985.0
31
0
0
LINE
8
interiors
10
392635.0
20
7915.0
30
0
11
392635.0
21
7985.0
31
0
0
LINE
8
interiors
10
392565.0
20
7915.0
30
0
11
392635.0
21
7915.0
31
0
0
LINE
8
interiors
10
392565.0
20
7985.0
30
0
11
392635.0
21
7985.0
31
0
0
LINE
8
interiors
10
394165.0
20
7215.0
30
0
11
394165.0
21
7285.0
31
0
0
LINE
8
interiors
10
394235.0
20
7215.0
30
0
11
394235.0
21
7285.0
31
0
0
LINE
8
interiors
10
394165.0
20
7215.0
30
0
11
394235.0
21
7215.0
31
0
0
LINE
8
interiors
10
394165.0
20
7285.0
30
0
11
394235.0
21
7285.0
31
0
0
LINE
8
interiors
10
394165.0
20
7915.0
30
0
11
394165.0
21
7985.0
31
0
0
LINE
8
interiors
10
394235.0
20
7915.0
30
0
11
394235.0
21
7985.0
31
0
0
LINE
8
interiors
10
394165.0
20
7915.0
30
0
11
394235.0
21
7915.0
31
0
0
LINE
8
interiors
10
394165.0
20
7985.0
30
0
11
394235.0
21
7985.0
31
0
0
LINE
8
interiors
10
393160.0
20
6610.0
30
0
11
393160.0
21
7090.0
31
0
0
LINE
8
interiors
10
393640.0
20
6610.0
30
0
11
393640.0
21
7090.0
31
0
0
LINE
8
interiors
10
393160.0
20
6610.0
30
0
11
393640.0
21
6610.0
31
0
0
LINE
8
interiors
10
393160.0
20
7090.0
30
0
11
393640.0
21
7090.0
31
0
0
LINE
8
interiors
10
393160.0
20
7027.5
30
0
11
393160.0
21
7092.5
31
0
0
LINE
8
interiors
10
393640.0
20
7027.5
30
0
11
393640.0
21
7092.5
31
0
0
LINE
8
interiors
10
393160.0
20
7027.5
30
0
11
393640.0
21
7027.5
31
0
0
LINE
8
interiors
10
393160.0
20
7092.5
30
0
11
393640.0
21
7092.5
31
0
0
LINE
8
interiors
10
393192.5
20
6642.5
30
0
11
393192.5
21
6677.5
31
0
0
LINE
8
interiors
10
393227.5
20
6642.5
30
0
11
393227.5
21
6677.5
31
0
0
LINE
8
interiors
10
393192.5
20
6642.5
30
0
11
393227.5
21
6642.5
31
0
0
LINE
8
interiors
10
393192.5
20
6677.5
30
0
11
393227.5
21
6677.5
31
0
0
LINE
8
interiors
10
393192.5
20
7022.5
30
0
11
393192.5
21
7057.5
31
0
0
LINE
8
interiors
10
393227.5
20
7022.5
30
0
11
393227.5
21
7057.5
31
0
0
LINE
8
interiors
10
393192.5
20
7022.5
30
0
11
393227.5
21
7022.5
31
0
0
LINE
8
interiors
10
393192.5
20
7057.5
30
0
11
393227.5
21
7057.5
31
0
0
LINE
8
interiors
10
393572.5
20
6642.5
30
0
11
393572.5
21
6677.5
31
0
0
LINE
8
interiors
10
393607.5
20
6642.5
30
0
11
393607.5
21
6677.5
31
0
0
LINE
8
interiors
10
393572.5
20
6642.5
30
0
11
393607.5
21
6642.5
31
0
0
LINE
8
interiors
10
393572.5
20
6677.5
30
0
11
393607.5
21
6677.5
31
0
0
LINE
8
interiors
10
393572.5
20
7022.5
30
0
11
393572.5
21
7057.5
31
0
0
LINE
8
interiors
10
393607.5
20
7022.5
30
0
11
393607.5
21
7057.5
31
0
0
LINE
8
interiors
10
393572.5
20
7022.5
30
0
11
393607.5
21
7022.5
31
0
0
LINE
8
interiors
10
393572.5
20
7057.5
30
0
11
393607.5
21
7057.5
31
0
0
LINE
8
interiors
10
393100.0
20
7790.0
30
0
11
393100.0
21
7850.0
31
0
0
LINE
8
interiors
10
393700.0
20
7790.0
30
0
11
393700.0
21
7850.0
31
0
0
LINE
8
interiors
10
393100.0
20
7790.0
30
0
11
393700.0
21
7790.0
31
0
0
LINE
8
interiors
10
393100.0
20
7850.0
30
0
11
393700.0
21
7850.0
31
0
0
LINE
8
interiors
10
393370.0
20
7785.0
30
0
11
393370.0
21
7855.0
31
0
0
LINE
8
interiors
10
393430.0
20
7785.0
30
0
11
393430.0
21
7855.0
31
0
0
LINE
8
interiors
10
393370.0
20
7785.0
30
0
11
393430.0
21
7785.0
31
0
0
LINE
8
interiors
10
393370.0
20
7855.0
30
0
11
393430.0
21
7855.0
31
0
0
LINE
8
interiors
10
393250.0
20
7710.0
30
0
11
393250.0
21
7930.0
31
0
0
LINE
8
interiors
10
393550.0
20
7710.0
30
0
11
393550.0
21
7930.0
31
0
0
LINE
8
interiors
10
393250.0
20
7710.0
30
0
11
393550.0
21
7710.0
31
0
0
LINE
8
interiors
10
393250.0
20
7930.0
30
0
11
393550.0
21
7930.0
31
0
0
LINE
8
interiors
10
405700.0
20
7150.0
30
0
11
405700.0
21
8050.0
31
0
0
LINE
8
interiors
10
407500.0
20
7150.0
30
0
11
407500.0
21
8050.0
31
0
0
LINE
8
interiors
10
405700.0
20
7150.0
30
0
11
407500.0
21
7150.0
31
0
0
LINE
8
interiors
10
405700.0
20
8050.0
30
0
11
407500.0
21
8050.0
31
0
0
LINE
8
interiors
10
405765.0
20
7215.0
30
0
11
405765.0
21
7285.0
31
0
0
LINE
8
interiors
10
405835.0
20
7215.0
30
0
11
405835.0
21
7285.0
31
0
0
LINE
8
interiors
10
405765.0
20
7215.0
30
0
11
405835.0
21
7215.0
31
0
0
LINE
8
interiors
10
405765.0
20
7285.0
30
0
11
405835.0
21
7285.0
31
0
0
LINE
8
interiors
10
405765.0
20
7915.0
30
0
11
405765.0
21
7985.0
31
0
0
LINE
8
interiors
10
405835.0
20
7915.0
30
0
11
405835.0
21
7985.0
31
0
0
LINE
8
interiors
10
405765.0
20
7915.0
30
0
11
405835.0
21
7915.0
31
0
0
LINE
8
interiors
10
405765.0
20
7985.0
30
0
11
405835.0
21
7985.0
31
0
0
LINE
8
interiors
10
407365.0
20
7215.0
30
0
11
407365.0
21
7285.0
31
0
0
LINE
8
interiors
10
407435.0
20
7215.0
30
0
11
407435.0
21
7285.0
31
0
0
LINE
8
interiors
10
407365.0
20
7215.0
30
0
11
407435.0
21
7215.0
31
0
0
LINE
8
interiors
10
407365.0
20
7285.0
30
0
11
407435.0
21
7285.0
31
0
0
LINE
8
interiors
10
407365.0
20
7915.0
30
0
11
407365.0
21
7985.0
31
0
0
LINE
8
interiors
10
407435.0
20
7915.0
30
0
11
407435.0
21
7985.0
31
0
0
LINE
8
interiors
10
407365.0
20
7915.0
30
0
11
407435.0
21
7915.0
31
0
0
LINE
8
interiors
10
407365.0
20
7985.0
30
0
11
407435.0
21
7985.0
31
0
0
LINE
8
interiors
10
406360.0
20
6610.0
30
0
11
406360.0
21
7090.0
31
0
0
LINE
8
interiors
10
406840.0
20
6610.0
30
0
11
406840.0
21
7090.0
31
0
0
LINE
8
interiors
10
406360.0
20
6610.0
30
0
11
406840.0
21
6610.0
31
0
0
LINE
8
interiors
10
406360.0
20
7090.0
30
0
11
406840.0
21
7090.0
31
0
0
LINE
8
interiors
10
406360.0
20
7027.5
30
0
11
406360.0
21
7092.5
31
0
0
LINE
8
interiors
10
406840.0
20
7027.5
30
0
11
406840.0
21
7092.5
31
0
0
LINE
8
interiors
10
406360.0
20
7027.5
30
0
11
406840.0
21
7027.5
31
0
0
LINE
8
interiors
10
406360.0
20
7092.5
30
0
11
406840.0
21
7092.5
31
0
0
LINE
8
interiors
10
406392.5
20
6642.5
30
0
11
406392.5
21
6677.5
31
0
0
LINE
8
interiors
10
406427.5
20
6642.5
30
0
11
406427.5
21
6677.5
31
0
0
LINE
8
interiors
10
406392.5
20
6642.5
30
0
11
406427.5
21
6642.5
31
0
0
LINE
8
interiors
10
406392.5
20
6677.5
30
0
11
406427.5
21
6677.5
31
0
0
LINE
8
interiors
10
406392.5
20
7022.5
30
0
11
406392.5
21
7057.5
31
0
0
LINE
8
interiors
10
406427.5
20
7022.5
30
0
11
406427.5
21
7057.5
31
0
0
LINE
8
interiors
10
406392.5
20
7022.5
30
0
11
406427.5
21
7022.5
31
0
0
LINE
8
interiors
10
406392.5
20
7057.5
30
0
11
406427.5
21
7057.5
31
0
0
LINE
8
interiors
10
406772.5
20
6642.5
30
0
11
406772.5
21
6677.5
31
0
0
LINE
8
interiors
10
406807.5
20
6642.5
30
0
11
406807.5
21
6677.5
31
0
0
LINE
8
interiors
10
406772.5
20
6642.5
30
0
11
406807.5
21
6642.5
31
0
0
LINE
8
interiors
10
406772.5
20
6677.5
30
0
11
406807.5
21
6677.5
31
0
0
LINE
8
interiors
10
406772.5
20
7022.5
30
0
11
406772.5
21
7057.5
31
0
0
LINE
8
interiors
10
406807.5
20
7022.5
30
0
11
406807.5
21
7057.5
31
0
0
LINE
8
interiors
10
406772.5
20
7022.5
30
0
11
406807.5
21
7022.5
31
0
0
LINE
8
interiors
10
406772.5
20
7057.5
30
0
11
406807.5
21
7057.5
31
0
0
LINE
8
interiors
10
406300.0
20
7790.0
30
0
11
406300.0
21
7850.0
31
0
0
LINE
8
interiors
10
406900.0
20
7790.0
30
0
11
406900.0
21
7850.0
31
0
0
LINE
8
interiors
10
406300.0
20
7790.0
30
0
11
406900.0
21
7790.0
31
0
0
LINE
8
interiors
10
406300.0
20
7850.0
30
0
11
406900.0
21
7850.0
31
0
0
LINE
8
interiors
10
406570.0
20
7785.0
30
0
11
406570.0
21
7855.0
31
0
0
LINE
8
interiors
10
406630.0
20
7785.0
30
0
11
406630.0
21
7855.0
31
0
0
LINE
8
interiors
10
406570.0
20
7785.0
30
0
11
406630.0
21
7785.0
31
0
0
LINE
8
interiors
10
406570.0
20
7855.0
30
0
11
406630.0
21
7855.0
31
0
0
LINE
8
interiors
10
406450.0
20
7710.0
30
0
11
406450.0
21
7930.0
31
0
0
LINE
8
interiors
10
406750.0
20
7710.0
30
0
11
406750.0
21
7930.0
31
0
0
LINE
8
interiors
10
406450.0
20
7710.0
30
0
11
406750.0
21
7710.0
31
0
0
LINE
8
interiors
10
406450.0
20
7930.0
30
0
11
406750.0
21
7930.0
31
0
0
LINE
8
interiors
10
392500.0
20
15950.0
30
0
11
392500.0
21
16850.0
31
0
0
LINE
8
interiors
10
394300.0
20
15950.0
30
0
11
394300.0
21
16850.0
31
0
0
LINE
8
interiors
10
392500.0
20
15950.0
30
0
11
394300.0
21
15950.0
31
0
0
LINE
8
interiors
10
392500.0
20
16850.0
30
0
11
394300.0
21
16850.0
31
0
0
LINE
8
interiors
10
392565.0
20
16015.0
30
0
11
392565.0
21
16085.0
31
0
0
LINE
8
interiors
10
392635.0
20
16015.0
30
0
11
392635.0
21
16085.0
31
0
0
LINE
8
interiors
10
392565.0
20
16015.0
30
0
11
392635.0
21
16015.0
31
0
0
LINE
8
interiors
10
392565.0
20
16085.0
30
0
11
392635.0
21
16085.0
31
0
0
LINE
8
interiors
10
392565.0
20
16715.0
30
0
11
392565.0
21
16785.0
31
0
0
LINE
8
interiors
10
392635.0
20
16715.0
30
0
11
392635.0
21
16785.0
31
0
0
LINE
8
interiors
10
392565.0
20
16715.0
30
0
11
392635.0
21
16715.0
31
0
0
LINE
8
interiors
10
392565.0
20
16785.0
30
0
11
392635.0
21
16785.0
31
0
0
LINE
8
interiors
10
394165.0
20
16015.0
30
0
11
394165.0
21
16085.0
31
0
0
LINE
8
interiors
10
394235.0
20
16015.0
30
0
11
394235.0
21
16085.0
31
0
0
LINE
8
interiors
10
394165.0
20
16015.0
30
0
11
394235.0
21
16015.0
31
0
0
LINE
8
interiors
10
394165.0
20
16085.0
30
0
11
394235.0
21
16085.0
31
0
0
LINE
8
interiors
10
394165.0
20
16715.0
30
0
11
394165.0
21
16785.0
31
0
0
LINE
8
interiors
10
394235.0
20
16715.0
30
0
11
394235.0
21
16785.0
31
0
0
LINE
8
interiors
10
394165.0
20
16715.0
30
0
11
394235.0
21
16715.0
31
0
0
LINE
8
interiors
10
394165.0
20
16785.0
30
0
11
394235.0
21
16785.0
31
0
0
LINE
8
interiors
10
393160.0
20
15410.0
30
0
11
393160.0
21
15890.0
31
0
0
LINE
8
interiors
10
393640.0
20
15410.0
30
0
11
393640.0
21
15890.0
31
0
0
LINE
8
interiors
10
393160.0
20
15410.0
30
0
11
393640.0
21
15410.0
31
0
0
LINE
8
interiors
10
393160.0
20
15890.0
30
0
11
393640.0
21
15890.0
31
0
0
LINE
8
interiors
10
393160.0
20
15827.5
30
0
11
393160.0
21
15892.5
31
0
0
LINE
8
interiors
10
393640.0
20
15827.5
30
0
11
393640.0
21
15892.5
31
0
0
LINE
8
interiors
10
393160.0
20
15827.5
30
0
11
393640.0
21
15827.5
31
0
0
LINE
8
interiors
10
393160.0
20
15892.5
30
0
11
393640.0
21
15892.5
31
0
0
LINE
8
interiors
10
393192.5
20
15442.5
30
0
11
393192.5
21
15477.5
31
0
0
LINE
8
interiors
10
393227.5
20
15442.5
30
0
11
393227.5
21
15477.5
31
0
0
LINE
8
interiors
10
393192.5
20
15442.5
30
0
11
393227.5
21
15442.5
31
0
0
LINE
8
interiors
10
393192.5
20
15477.5
30
0
11
393227.5
21
15477.5
31
0
0
LINE
8
interiors
10
393192.5
20
15822.5
30
0
11
393192.5
21
15857.5
31
0
0
LINE
8
interiors
10
393227.5
20
15822.5
30
0
11
393227.5
21
15857.5
31
0
0
LINE
8
interiors
10
393192.5
20
15822.5
30
0
11
393227.5
21
15822.5
31
0
0
LINE
8
interiors
10
393192.5
20
15857.5
30
0
11
393227.5
21
15857.5
31
0
0
LINE
8
interiors
10
393572.5
20
15442.5
30
0
11
393572.5
21
15477.5
31
0
0
LINE
8
interiors
10
393607.5
20
15442.5
30
0
11
393607.5
21
15477.5
31
0
0
LINE
8
interiors
10
393572.5
20
15442.5
30
0
11
393607.5
21
15442.5
31
0
0
LINE
8
interiors
10
393572.5
20
15477.5
30
0
11
393607.5
21
15477.5
31
0
0
LINE
8
interiors
10
393572.5
20
15822.5
30
0
11
393572.5
21
15857.5
31
0
0
LINE
8
interiors
10
393607.5
20
15822.5
30
0
11
393607.5
21
15857.5
31
0
0
LINE
8
interiors
10
393572.5
20
15822.5
30
0
11
393607.5
21
15822.5
31
0
0
LINE
8
interiors
10
393572.5
20
15857.5
30
0
11
393607.5
21
15857.5
31
0
0
LINE
8
interiors
10
393100.0
20
16590.0
30
0
11
393100.0
21
16650.0
31
0
0
LINE
8
interiors
10
393700.0
20
16590.0
30
0
11
393700.0
21
16650.0
31
0
0
LINE
8
interiors
10
393100.0
20
16590.0
30
0
11
393700.0
21
16590.0
31
0
0
LINE
8
interiors
10
393100.0
20
16650.0
30
0
11
393700.0
21
16650.0
31
0
0
LINE
8
interiors
10
393370.0
20
16585.0
30
0
11
393370.0
21
16655.0
31
0
0
LINE
8
interiors
10
393430.0
20
16585.0
30
0
11
393430.0
21
16655.0
31
0
0
LINE
8
interiors
10
393370.0
20
16585.0
30
0
11
393430.0
21
16585.0
31
0
0
LINE
8
interiors
10
393370.0
20
16655.0
30
0
11
393430.0
21
16655.0
31
0
0
LINE
8
interiors
10
393250.0
20
16510.0
30
0
11
393250.0
21
16730.0
31
0
0
LINE
8
interiors
10
393550.0
20
16510.0
30
0
11
393550.0
21
16730.0
31
0
0
LINE
8
interiors
10
393250.0
20
16510.0
30
0
11
393550.0
21
16510.0
31
0
0
LINE
8
interiors
10
393250.0
20
16730.0
30
0
11
393550.0
21
16730.0
31
0
0
LINE
8
interiors
10
405700.0
20
15950.0
30
0
11
405700.0
21
16850.0
31
0
0
LINE
8
interiors
10
407500.0
20
15950.0
30
0
11
407500.0
21
16850.0
31
0
0
LINE
8
interiors
10
405700.0
20
15950.0
30
0
11
407500.0
21
15950.0
31
0
0
LINE
8
interiors
10
405700.0
20
16850.0
30
0
11
407500.0
21
16850.0
31
0
0
LINE
8
interiors
10
405765.0
20
16015.0
30
0
11
405765.0
21
16085.0
31
0
0
LINE
8
interiors
10
405835.0
20
16015.0
30
0
11
405835.0
21
16085.0
31
0
0
LINE
8
interiors
10
405765.0
20
16015.0
30
0
11
405835.0
21
16015.0
31
0
0
LINE
8
interiors
10
405765.0
20
16085.0
30
0
11
405835.0
21
16085.0
31
0
0
LINE
8
interiors
10
405765.0
20
16715.0
30
0
11
405765.0
21
16785.0
31
0
0
LINE
8
interiors
10
405835.0
20
16715.0
30
0
11
405835.0
21
16785.0
31
0
0
LINE
8
interiors
10
405765.0
20
16715.0
30
0
11
405835.0
21
16715.0
31
0
0
LINE
8
interiors
10
405765.0
20
16785.0
30
0
11
405835.0
21
16785.0
31
0
0
LINE
8
interiors
10
407365.0
20
16015.0
30
0
11
407365.0
21
16085.0
31
0
0
LINE
8
interiors
10
407435.0
20
16015.0
30
0
11
407435.0
21
16085.0
31
0
0
LINE
8
interiors
10
407365.0
20
16015.0
30
0
11
407435.0
21
16015.0
31
0
0
LINE
8
interiors
10
407365.0
20
16085.0
30
0
11
407435.0
21
16085.0
31
0
0
LINE
8
interiors
10
407365.0
20
16715.0
30
0
11
407365.0
21
16785.0
31
0
0
LINE
8
interiors
10
407435.0
20
16715.0
30
0
11
407435.0
21
16785.0
31
0
0
LINE
8
interiors
10
407365.0
20
16715.0
30
0
11
407435.0
21
16715.0
31
0
0
LINE
8
interiors
10
407365.0
20
16785.0
30
0
11
407435.0
21
16785.0
31
0
0
LINE
8
interiors
10
406360.0
20
15410.0
30
0
11
406360.0
21
15890.0
31
0
0
LINE
8
interiors
10
406840.0
20
15410.0
30
0
11
406840.0
21
15890.0
31
0
0
LINE
8
interiors
10
406360.0
20
15410.0
30
0
11
406840.0
21
15410.0
31
0
0
LINE
8
interiors
10
406360.0
20
15890.0
30
0
11
406840.0
21
15890.0
31
0
0
LINE
8
interiors
10
406360.0
20
15827.5
30
0
11
406360.0
21
15892.5
31
0
0
LINE
8
interiors
10
406840.0
20
15827.5
30
0
11
406840.0
21
15892.5
31
0
0
LINE
8
interiors
10
406360.0
20
15827.5
30
0
11
406840.0
21
15827.5
31
0
0
LINE
8
interiors
10
406360.0
20
15892.5
30
0
11
406840.0
21
15892.5
31
0
0
LINE
8
interiors
10
406392.5
20
15442.5
30
0
11
406392.5
21
15477.5
31
0
0
LINE
8
interiors
10
406427.5
20
15442.5
30
0
11
406427.5
21
15477.5
31
0
0
LINE
8
interiors
10
406392.5
20
15442.5
30
0
11
406427.5
21
15442.5
31
0
0
LINE
8
interiors
10
406392.5
20
15477.5
30
0
11
406427.5
21
15477.5
31
0
0
LINE
8
interiors
10
406392.5
20
15822.5
30
0
11
406392.5
21
15857.5
31
0
0
LINE
8
interiors
10
406427.5
20
15822.5
30
0
11
406427.5
21
15857.5
31
0
0
LINE
8
interiors
10
406392.5
20
15822.5
30
0
11
406427.5
21
15822.5
31
0
0
LINE
8
interiors
10
406392.5
20
15857.5
30
0
11
406427.5
21
15857.5
31
0
0
LINE
8
interiors
10
406772.5
20
15442.5
30
0
11
406772.5
21
15477.5
31
0
0
LINE
8
interiors
10
406807.5
20
15442.5
30
0
11
406807.5
21
15477.5
31
0
0
LINE
8
interiors
10
406772.5
20
15442.5
30
0
11
406807.5
21
15442.5
31
0
0
LINE
8
interiors
10
406772.5
20
15477.5
30
0
11
406807.5
21
15477.5
31
0
0
LINE
8
interiors
10
406772.5
20
15822.5
30
0
11
406772.5
21
15857.5
31
0
0
LINE
8
interiors
10
406807.5
20
15822.5
30
0
11
406807.5
21
15857.5
31
0
0
LINE
8
interiors
10
406772.5
20
15822.5
30
0
11
406807.5
21
15822.5
31
0
0
LINE
8
interiors
10
406772.5
20
15857.5
30
0
11
406807.5
21
15857.5
31
0
0
LINE
8
interiors
10
406300.0
20
16590.0
30
0
11
406300.0
21
16650.0
31
0
0
LINE
8
interiors
10
406900.0
20
16590.0
30
0
11
406900.0
21
16650.0
31
0
0
LINE
8
interiors
10
406300.0
20
16590.0
30
0
11
406900.0
21
16590.0
31
0
0
LINE
8
interiors
10
406300.0
20
16650.0
30
0
11
406900.0
21
16650.0
31
0
0
LINE
8
interiors
10
406570.0
20
16585.0
30
0
11
406570.0
21
16655.0
31
0
0
LINE
8
interiors
10
406630.0
20
16585.0
30
0
11
406630.0
21
16655.0
31
0
0
LINE
8
interiors
10
406570.0
20
16585.0
30
0
11
406630.0
21
16585.0
31
0
0
LINE
8
interiors
10
406570.0
20
16655.0
30
0
11
406630.0
21
16655.0
31
0
0
LINE
8
interiors
10
406450.0
20
16510.0
30
0
11
406450.0
21
16730.0
31
0
0
LINE
8
interiors
10
406750.0
20
16510.0
30
0
11
406750.0
21
16730.0
31
0
0
LINE
8
interiors
10
406450.0
20
16510.0
30
0
11
406750.0
21
16510.0
31
0
0
LINE
8
interiors
10
406450.0
20
16730.0
30
0
11
406750.0
21
16730.0
31
0
0
LINE
8
interiors
10
398800.0
20
17950.0
30
0
11
398800.0
21
19250.0
31
0
0
LINE
8
interiors
10
401200.0
20
17950.0
30
0
11
401200.0
21
19250.0
31
0
0
LINE
8
interiors
10
398800.0
20
17950.0
30
0
11
401200.0
21
17950.0
31
0
0
LINE
8
interiors
10
398800.0
20
19250.0
30
0
11
401200.0
21
19250.0
31
0
0
LINE
8
interiors
10
399300.0
20
17905.0
30
0
11
399300.0
21
17955.0
31
0
0
LINE
8
interiors
10
400700.0
20
17905.0
30
0
11
400700.0
21
17955.0
31
0
0
LINE
8
interiors
10
399300.0
20
17905.0
30
0
11
400700.0
21
17905.0
31
0
0
LINE
8
interiors
10
399300.0
20
17955.0
30
0
11
400700.0
21
17955.0
31
0
0
LINE
8
interiors
10
400280.0
20
18600.0
30
0
11
400197.99
21
18797.99
31
0
0
LINE
8
interiors
10
400197.99
20
18797.99
30
0
11
400000.0
21
18880.0
31
0
0
LINE
8
interiors
10
400000.0
20
18880.0
30
0
11
399802.01
21
18797.99
31
0
0
LINE
8
interiors
10
399802.01
20
18797.99
30
0
11
399720.0
21
18600.0
31
0
0
LINE
8
interiors
10
399720.0
20
18600.0
30
0
11
399802.01
21
18402.01
31
0
0
LINE
8
interiors
10
399802.01
20
18402.01
30
0
11
400000.0
21
18320.0
31
0
0
LINE
8
interiors
10
400000.0
20
18320.0
30
0
11
400197.99
21
18402.01
31
0
0
LINE
8
interiors
10
400197.99
20
18402.01
30
0
11
400280.0
21
18600.0
31
0
0
LINE
8
electrical
10
414275.0
20
2075.0
30
0
11
414275.0
21
2325.0
31
0
0
LINE
8
electrical
10
414825.0
20
2075.0
30
0
11
414825.0
21
2325.0
31
0
0
LINE
8
electrical
10
414275.0
20
2075.0
30
0
11
414825.0
21
2075.0
31
0
0
LINE
8
electrical
10
414275.0
20
2325.0
30
0
11
414825.0
21
2325.0
31
0
0
LINE
8
electrical
10
414315.0
20
2047.5
30
0
11
414315.0
21
2082.5
31
0
0
LINE
8
electrical
10
414785.0
20
2047.5
30
0
11
414785.0
21
2082.5
31
0
0
LINE
8
electrical
10
414315.0
20
2047.5
30
0
11
414785.0
21
2047.5
31
0
0
LINE
8
electrical
10
414315.0
20
2082.5
30
0
11
414785.0
21
2082.5
31
0
0
LINE
8
electrical
10
414362.5
20
2010.0
30
0
11
414362.5
21
2050.0
31
0
0
LINE
8
electrical
10
414462.5
20
2010.0
30
0
11
414462.5
21
2050.0
31
0
0
LINE
8
electrical
10
414362.5
20
2010.0
30
0
11
414462.5
21
2010.0
31
0
0
LINE
8
electrical
10
414362.5
20
2050.0
30
0
11
414462.5
21
2050.0
31
0
0
LINE
8
electrical
10
414500.0
20
2010.0
30
0
11
414500.0
21
2050.0
31
0
0
LINE
8
electrical
10
414600.0
20
2010.0
30
0
11
414600.0
21
2050.0
31
0
0
LINE
8
electrical
10
414500.0
20
2010.0
30
0
11
414600.0
21
2010.0
31
0
0
LINE
8
electrical
10
414500.0
20
2050.0
30
0
11
414600.0
21
2050.0
31
0
0
LINE
8
electrical
10
414637.5
20
2010.0
30
0
11
414637.5
21
2050.0
31
0
0
LINE
8
electrical
10
414737.5
20
2010.0
30
0
11
414737.5
21
2050.0
31
0
0
LINE
8
electrical
10
414637.5
20
2010.0
30
0
11
414737.5
21
2010.0
31
0
0
LINE
8
electrical
10
414637.5
20
2050.0
30
0
11
414737.5
21
2050.0
31
0
0
LINE
8
electrical
10
414412.5
20
1995.0
30
0
11
414435.88
21
1995.0
31
0
0
LINE
8
electrical
10
414435.88
20
1995.0
30
0
11
414389.12
21
1995.0
31
0
0
LINE
8
electrical
10
414389.12
20
1995.0
30
0
11
414412.5
21
1995.0
31
0
0
LINE
8
electrical
10
414412.5
20
2020.0
30
0
11
414412.5
21
1995.0
31
0
0
LINE
8
electrical
10
414412.5
20
2020.0
30
0
11
414435.88
21
2020.0
31
0
0
LINE
8
electrical
10
414435.88
20
2020.0
30
0
11
414389.12
21
2020.0
31
0
0
LINE
8
electrical
10
414389.12
20
2020.0
30
0
11
414412.5
21
2020.0
31
0
0
LINE
8
electrical
10
414550.0
20
1995.0
30
0
11
414573.38
21
1995.0
31
0
0
LINE
8
electrical
10
414573.38
20
1995.0
30
0
11
414526.62
21
1995.0
31
0
0
LINE
8
electrical
10
414526.62
20
1995.0
30
0
11
414550.0
21
1995.0
31
0
0
LINE
8
electrical
10
414550.0
20
2020.0
30
0
11
414550.0
21
1995.0
31
0
0
LINE
8
electrical
10
414550.0
20
2020.0
30
0
11
414573.38
21
2020.0
31
0
0
LINE
8
electrical
10
414573.38
20
2020.0
30
0
11
414526.62
21
2020.0
31
0
0
LINE
8
electrical
10
414526.62
20
2020.0
30
0
11
414550.0
21
2020.0
31
0
0
LINE
8
electrical
10
414687.5
20
1995.0
30
0
11
414710.88
21
1995.0
31
0
0
LINE
8
electrical
10
414710.88
20
1995.0
30
0
11
414664.12
21
1995.0
31
0
0
LINE
8
electrical
10
414664.12
20
1995.0
30
0
11
414687.5
21
1995.0
31
0
0
LINE
8
electrical
10
414687.5
20
2020.0
30
0
11
414687.5
21
1995.0
31
0
0
LINE
8
electrical
10
414687.5
20
2020.0
30
0
11
414710.88
21
2020.0
31
0
0
LINE
8
electrical
10
414710.88
20
2020.0
30
0
11
414664.12
21
2020.0
31
0
0
LINE
8
electrical
10
414664.12
20
2020.0
30
0
11
414687.5
21
2020.0
31
0
0
LINE
8
electrical
10
414550.0
20
2200.0
30
0
11
414565.59
21
2200.0
31
0
0
LINE
8
electrical
10
414565.59
20
2200.0
30
0
11
414534.41
21
2200.0
31
0
0
LINE
8
electrical
10
414534.41
20
2200.0
30
0
11
414550.0
21
2200.0
31
0
0
LINE
8
electrical
10
414550.0
20
-62300.0
30
0
11
414550.0
21
2200.0
31
0
0
LINE
8
electrical
10
414550.0
20
-62300.0
30
0
11
414565.59
21
-62300.0
31
0
0
LINE
8
electrical
10
414565.59
20
-62300.0
30
0
11
414534.41
21
-62300.0
31
0
0
LINE
8
electrical
10
414534.41
20
-62300.0
30
0
11
414550.0
21
-62300.0
31
0
0
LINE
8
electrical
10
414532.0
20
2200.0
30
0
11
414559.0
21
2215.59
31
0
0
LINE
8
electrical
10
414559.0
20
2215.59
30
0
11
414559.0
21
2184.41
31
0
0
LINE
8
electrical
10
414559.0
20
2184.41
30
0
11
414532.0
21
2200.0
31
0
0
LINE
8
electrical
10
414550.0
20
2200.0
30
0
11
414569.44
21
2200.0
31
0
0
LINE
8
electrical
10
414569.44
20
2200.0
30
0
11
414550.0
21
2200.0
31
0
0
LINE
8
lighting
10
388880.0
20
4880.0
30
0
11
388880.0
21
5520.0
31
0
0
LINE
8
lighting
10
389520.0
20
4880.0
30
0
11
389520.0
21
5520.0
31
0
0
LINE
8
lighting
10
388880.0
20
4880.0
30
0
11
389520.0
21
4880.0
31
0
0
LINE
8
lighting
10
388880.0
20
5520.0
30
0
11
389520.0
21
5520.0
31
0
0
LINE
8
lighting
10
388920.0
20
4920.0
30
0
11
388920.0
21
5480.0
31
0
0
LINE
8
lighting
10
389480.0
20
4920.0
30
0
11
389480.0
21
5480.0
31
0
0
LINE
8
lighting
10
388920.0
20
4920.0
30
0
11
389480.0
21
4920.0
31
0
0
LINE
8
lighting
10
388920.0
20
5480.0
30
0
11
389480.0
21
5480.0
31
0
0
LINE
8
lighting
10
388954.0
20
4930.0
30
0
11
388954.0
21
5470.0
31
0
0
LINE
8
lighting
10
388966.0
20
4930.0
30
0
11
388966.0
21
5470.0
31
0
0
LINE
8
lighting
10
388954.0
20
4930.0
30
0
11
388966.0
21
4930.0
31
0
0
LINE
8
lighting
10
388954.0
20
5470.0
30
0
11
388966.0
21
5470.0
31
0
0
LINE
8
lighting
10
389034.0
20
4930.0
30
0
11
389034.0
21
5470.0
31
0
0
LINE
8
lighting
10
389046.0
20
4930.0
30
0
11
389046.0
21
5470.0
31
0
0
LINE
8
lighting
10
389034.0
20
4930.0
30
0
11
389046.0
21
4930.0
31
0
0
LINE
8
lighting
10
389034.0
20
5470.0
30
0
11
389046.0
21
5470.0
31
0
0
LINE
8
lighting
10
389114.0
20
4930.0
30
0
11
389114.0
21
5470.0
31
0
0
LINE
8
lighting
10
389126.0
20
4930.0
30
0
11
389126.0
21
5470.0
31
0
0
LINE
8
lighting
10
389114.0
20
4930.0
30
0
11
389126.0
21
4930.0
31
0
0
LINE
8
lighting
10
389114.0
20
5470.0
30
0
11
389126.0
21
5470.0
31
0
0
LINE
8
lighting
10
389194.0
20
4930.0
30
0
11
389194.0
21
5470.0
31
0
0
LINE
8
lighting
10
389206.0
20
4930.0
30
0
11
389206.0
21
5470.0
31
0
0
LINE
8
lighting
10
389194.0
20
4930.0
30
0
11
389206.0
21
4930.0
31
0
0
LINE
8
lighting
10
389194.0
20
5470.0
30
0
11
389206.0
21
5470.0
31
0
0
LINE
8
lighting
10
389274.0
20
4930.0
30
0
11
389274.0
21
5470.0
31
0
0
LINE
8
lighting
10
389286.0
20
4930.0
30
0
11
389286.0
21
5470.0
31
0
0
LINE
8
lighting
10
389274.0
20
4930.0
30
0
11
389286.0
21
4930.0
31
0
0
LINE
8
lighting
10
389274.0
20
5470.0
30
0
11
389286.0
21
5470.0
31
0
0
LINE
8
lighting
10
389354.0
20
4930.0
30
0
11
389354.0
21
5470.0
31
0
0
LINE
8
lighting
10
389366.0
20
4930.0
30
0
11
389366.0
21
5470.0
31
0
0
LINE
8
lighting
10
389354.0
20
4930.0
30
0
11
389366.0
21
4930.0
31
0
0
LINE
8
lighting
10
389354.0
20
5470.0
30
0
11
389366.0
21
5470.0
31
0
0
LINE
8
lighting
10
389434.0
20
4930.0
30
0
11
389434.0
21
5470.0
31
0
0
LINE
8
lighting
10
389446.0
20
4930.0
30
0
11
389446.0
21
5470.0
31
0
0
LINE
8
lighting
10
389434.0
20
4930.0
30
0
11
389446.0
21
4930.0
31
0
0
LINE
8
lighting
10
389434.0
20
5470.0
30
0
11
389446.0
21
5470.0
31
0
0
LINE
8
lighting
10
389209.0
20
5200.0
30
0
11
389195.5
21
5207.79
31
0
0
LINE
8
lighting
10
389195.5
20
5207.79
30
0
11
389195.5
21
5192.21
31
0
0
LINE
8
lighting
10
389195.5
20
5192.21
30
0
11
389209.0
21
5200.0
31
0
0
LINE
8
lighting
10
410480.0
20
4880.0
30
0
11
410480.0
21
5520.0
31
0
0
LINE
8
lighting
10
411120.0
20
4880.0
30
0
11
411120.0
21
5520.0
31
0
0
LINE
8
lighting
10
410480.0
20
4880.0
30
0
11
411120.0
21
4880.0
31
0
0
LINE
8
lighting
10
410480.0
20
5520.0
30
0
11
411120.0
21
5520.0
31
0
0
LINE
8
lighting
10
410520.0
20
4920.0
30
0
11
410520.0
21
5480.0
31
0
0
LINE
8
lighting
10
411080.0
20
4920.0
30
0
11
411080.0
21
5480.0
31
0
0
LINE
8
lighting
10
410520.0
20
4920.0
30
0
11
411080.0
21
4920.0
31
0
0
LINE
8
lighting
10
410520.0
20
5480.0
30
0
11
411080.0
21
5480.0
31
0
0
LINE
8
lighting
10
410554.0
20
4930.0
30
0
11
410554.0
21
5470.0
31
0
0
LINE
8
lighting
10
410566.0
20
4930.0
30
0
11
410566.0
21
5470.0
31
0
0
LINE
8
lighting
10
410554.0
20
4930.0
30
0
11
410566.0
21
4930.0
31
0
0
LINE
8
lighting
10
410554.0
20
5470.0
30
0
11
410566.0
21
5470.0
31
0
0
LINE
8
lighting
10
410634.0
20
4930.0
30
0
11
410634.0
21
5470.0
31
0
0
LINE
8
lighting
10
410646.0
20
4930.0
30
0
11
410646.0
21
5470.0
31
0
0
LINE
8
lighting
10
410634.0
20
4930.0
30
0
11
410646.0
21
4930.0
31
0
0
LINE
8
lighting
10
410634.0
20
5470.0
30
0
11
410646.0
21
5470.0
31
0
0
LINE
8
lighting
10
410714.0
20
4930.0
30
0
11
410714.0
21
5470.0
31
0
0
LINE
8
lighting
10
410726.0
20
4930.0
30
0
11
410726.0
21
5470.0
31
0
0
LINE
8
lighting
10
410714.0
20
4930.0
30
0
11
410726.0
21
4930.0
31
0
0
LINE
8
lighting
10
410714.0
20
5470.0
30
0
11
410726.0
21
5470.0
31
0
0
LINE
8
lighting
10
410794.0
20
4930.0
30
0
11
410794.0
21
5470.0
31
0
0
LINE
8
lighting
10
410806.0
20
4930.0
30
0
11
410806.0
21
5470.0
31
0
0
LINE
8
lighting
10
410794.0
20
4930.0
30
0
11
410806.0
21
4930.0
31
0
0
LINE
8
lighting
10
410794.0
20
5470.0
30
0
11
410806.0
21
5470.0
31
0
0
LINE
8
lighting
10
410874.0
20
4930.0
30
0
11
410874.0
21
5470.0
31
0
0
LINE
8
lighting
10
410886.0
20
4930.0
30
0
11
410886.0
21
5470.0
31
0
0
LINE
8
lighting
10
410874.0
20
4930.0
30
0
11
410886.0
21
4930.0
31
0
0
LINE
8
lighting
10
410874.0
20
5470.0
30
0
11
410886.0
21
5470.0
31
0
0
LINE
8
lighting
10
410954.0
20
4930.0
30
0
11
410954.0
21
5470.0
31
0
0
LINE
8
lighting
10
410966.0
20
4930.0
30
0
11
410966.0
21
5470.0
31
0
0
LINE
8
lighting
10
410954.0
20
4930.0
30
0
11
410966.0
21
4930.0
31
0
0
LINE
8
lighting
10
410954.0
20
5470.0
30
0
11
410966.0
21
5470.0
31
0
0
LINE
8
lighting
10
411034.0
20
4930.0
30
0
11
411034.0
21
5470.0
31
0
0
LINE
8
lighting
10
411046.0
20
4930.0
30
0
11
411046.0
21
5470.0
31
0
0
LINE
8
lighting
10
411034.0
20
4930.0
30
0
11
411046.0
21
4930.0
31
0
0
LINE
8
lighting
10
411034.0
20
5470.0
30
0
11
411046.0
21
5470.0
31
0
0
LINE
8
lighting
10
410809.0
20
5200.0
30
0
11
410795.5
21
5207.79
31
0
0
LINE
8
lighting
10
410795.5
20
5207.79
30
0
11
410795.5
21
5192.21
31
0
0
LINE
8
lighting
10
410795.5
20
5192.21
30
0
11
410809.0
21
5200.0
31
0
0
LINE
8
lighting
10
399680.0
20
4880.0
30
0
11
399680.0
21
5520.0
31
0
0
LINE
8
lighting
10
400320.0
20
4880.0
30
0
11
400320.0
21
5520.0
31
0
0
LINE
8
lighting
10
399680.0
20
4880.0
30
0
11
400320.0
21
4880.0
31
0
0
LINE
8
lighting
10
399680.0
20
5520.0
30
0
11
400320.0
21
5520.0
31
0
0
LINE
8
lighting
10
399720.0
20
4920.0
30
0
11
399720.0
21
5480.0
31
0
0
LINE
8
lighting
10
400280.0
20
4920.0
30
0
11
400280.0
21
5480.0
31
0
0
LINE
8
lighting
10
399720.0
20
4920.0
30
0
11
400280.0
21
4920.0
31
0
0
LINE
8
lighting
10
399720.0
20
5480.0
30
0
11
400280.0
21
5480.0
31
0
0
LINE
8
lighting
10
399754.0
20
4930.0
30
0
11
399754.0
21
5470.0
31
0
0
LINE
8
lighting
10
399766.0
20
4930.0
30
0
11
399766.0
21
5470.0
31
0
0
LINE
8
lighting
10
399754.0
20
4930.0
30
0
11
399766.0
21
4930.0
31
0
0
LINE
8
lighting
10
399754.0
20
5470.0
30
0
11
399766.0
21
5470.0
31
0
0
LINE
8
lighting
10
399834.0
20
4930.0
30
0
11
399834.0
21
5470.0
31
0
0
LINE
8
lighting
10
399846.0
20
4930.0
30
0
11
399846.0
21
5470.0
31
0
0
LINE
8
lighting
10
399834.0
20
4930.0
30
0
11
399846.0
21
4930.0
31
0
0
LINE
8
lighting
10
399834.0
20
5470.0
30
0
11
399846.0
21
5470.0
31
0
0
LINE
8
lighting
10
399914.0
20
4930.0
30
0
11
399914.0
21
5470.0
31
0
0
LINE
8
lighting
10
399926.0
20
4930.0
30
0
11
399926.0
21
5470.0
31
0
0
LINE
8
lighting
10
399914.0
20
4930.0
30
0
11
399926.0
21
4930.0
31
0
0
LINE
8
lighting
10
399914.0
20
5470.0
30
0
11
399926.0
21
5470.0
31
0
0
LINE
8
lighting
10
399994.0
20
4930.0
30
0
11
399994.0
21
5470.0
31
0
0
LINE
8
lighting
10
400006.0
20
4930.0
30
0
11
400006.0
21
5470.0
31
0
0
LINE
8
lighting
10
399994.0
20
4930.0
30
0
11
400006.0
21
4930.0
31
0
0
LINE
8
lighting
10
399994.0
20
5470.0
30
0
11
400006.0
21
5470.0
31
0
0
LINE
8
lighting
10
400074.0
20
4930.0
30
0
11
400074.0
21
5470.0
31
0
0
LINE
8
lighting
10
400086.0
20
4930.0
30
0
11
400086.0
21
5470.0
31
0
0
LINE
8
lighting
10
400074.0
20
4930.0
30
0
11
400086.0
21
4930.0
31
0
0
LINE
8
lighting
10
400074.0
20
5470.0
30
0
11
400086.0
21
5470.0
31
0
0
LINE
8
lighting
10
400154.0
20
4930.0
30
0
11
400154.0
21
5470.0
31
0
0
LINE
8
lighting
10
400166.0
20
4930.0
30
0
11
400166.0
21
5470.0
31
0
0
LINE
8
lighting
10
400154.0
20
4930.0
30
0
11
400166.0
21
4930.0
31
0
0
LINE
8
lighting
10
400154.0
20
5470.0
30
0
11
400166.0
21
5470.0
31
0
0
LINE
8
lighting
10
400234.0
20
4930.0
30
0
11
400234.0
21
5470.0
31
0
0
LINE
8
lighting
10
400246.0
20
4930.0
30
0
11
400246.0
21
5470.0
31
0
0
LINE
8
lighting
10
400234.0
20
4930.0
30
0
11
400246.0
21
4930.0
31
0
0
LINE
8
lighting
10
400234.0
20
5470.0
30
0
11
400246.0
21
5470.0
31
0
0
LINE
8
lighting
10
400009.0
20
5200.0
30
0
11
399995.5
21
5207.79
31
0
0
LINE
8
lighting
10
399995.5
20
5207.79
30
0
11
399995.5
21
5192.21
31
0
0
LINE
8
lighting
10
399995.5
20
5192.21
30
0
11
400009.0
21
5200.0
31
0
0
LINE
8
lighting
10
388880.0
20
18480.0
30
0
11
388880.0
21
19120.0
31
0
0
LINE
8
lighting
10
389520.0
20
18480.0
30
0
11
389520.0
21
19120.0
31
0
0
LINE
8
lighting
10
388880.0
20
18480.0
30
0
11
389520.0
21
18480.0
31
0
0
LINE
8
lighting
10
388880.0
20
19120.0
30
0
11
389520.0
21
19120.0
31
0
0
LINE
8
lighting
10
388920.0
20
18520.0
30
0
11
388920.0
21
19080.0
31
0
0
LINE
8
lighting
10
389480.0
20
18520.0
30
0
11
389480.0
21
19080.0
31
0
0
LINE
8
lighting
10
388920.0
20
18520.0
30
0
11
389480.0
21
18520.0
31
0
0
LINE
8
lighting
10
388920.0
20
19080.0
30
0
11
389480.0
21
19080.0
31
0
0
LINE
8
lighting
10
388954.0
20
18530.0
30
0
11
388954.0
21
19070.0
31
0
0
LINE
8
lighting
10
388966.0
20
18530.0
30
0
11
388966.0
21
19070.0
31
0
0
LINE
8
lighting
10
388954.0
20
18530.0
30
0
11
388966.0
21
18530.0
31
0
0
LINE
8
lighting
10
388954.0
20
19070.0
30
0
11
388966.0
21
19070.0
31
0
0
LINE
8
lighting
10
389034.0
20
18530.0
30
0
11
389034.0
21
19070.0
31
0
0
LINE
8
lighting
10
389046.0
20
18530.0
30
0
11
389046.0
21
19070.0
31
0
0
LINE
8
lighting
10
389034.0
20
18530.0
30
0
11
389046.0
21
18530.0
31
0
0
LINE
8
lighting
10
389034.0
20
19070.0
30
0
11
389046.0
21
19070.0
31
0
0
LINE
8
lighting
10
389114.0
20
18530.0
30
0
11
389114.0
21
19070.0
31
0
0
LINE
8
lighting
10
389126.0
20
18530.0
30
0
11
389126.0
21
19070.0
31
0
0
LINE
8
lighting
10
389114.0
20
18530.0
30
0
11
389126.0
21
18530.0
31
0
0
LINE
8
lighting
10
389114.0
20
19070.0
30
0
11
389126.0
21
19070.0
31
0
0
LINE
8
lighting
10
389194.0
20
18530.0
30
0
11
389194.0
21
19070.0
31
0
0
LINE
8
lighting
10
389206.0
20
18530.0
30
0
11
389206.0
21
19070.0
31
0
0
LINE
8
lighting
10
389194.0
20
18530.0
30
0
11
389206.0
21
18530.0
31
0
0
LINE
8
lighting
10
389194.0
20
19070.0
30
0
11
389206.0
21
19070.0
31
0
0
LINE
8
lighting
10
389274.0
20
18530.0
30
0
11
389274.0
21
19070.0
31
0
0
LINE
8
lighting
10
389286.0
20
18530.0
30
0
11
389286.0
21
19070.0
31
0
0
LINE
8
lighting
10
389274.0
20
18530.0
30
0
11
389286.0
21
18530.0
31
0
0
LINE
8
lighting
10
389274.0
20
19070.0
30
0
11
389286.0
21
19070.0
31
0
0
LINE
8
lighting
10
389354.0
20
18530.0
30
0
11
389354.0
21
19070.0
31
0
0
LINE
8
lighting
10
389366.0
20
18530.0
30
0
11
389366.0
21
19070.0
31
0
0
LINE
8
lighting
10
389354.0
20
18530.0
30
0
11
389366.0
21
18530.0
31
0
0
LINE
8
lighting
10
389354.0
20
19070.0
30
0
11
389366.0
21
19070.0
31
0
0
LINE
8
lighting
10
389434.0
20
18530.0
30
0
11
389434.0
21
19070.0
31
0
0
LINE
8
lighting
10
389446.0
20
18530.0
30
0
11
389446.0
21
19070.0
31
0
0
LINE
8
lighting
10
389434.0
20
18530.0
30
0
11
389446.0
21
18530.0
31
0
0
LINE
8
lighting
10
389434.0
20
19070.0
30
0
11
389446.0
21
19070.0
31
0
0
LINE
8
lighting
10
389209.0
20
18800.0
30
0
11
389195.5
21
18807.79
31
0
0
LINE
8
lighting
10
389195.5
20
18807.79
30
0
11
389195.5
21
18792.21
31
0
0
LINE
8
lighting
10
389195.5
20
18792.21
30
0
11
389209.0
21
18800.0
31
0
0
LINE
8
lighting
10
410480.0
20
18480.0
30
0
11
410480.0
21
19120.0
31
0
0
LINE
8
lighting
10
411120.0
20
18480.0
30
0
11
411120.0
21
19120.0
31
0
0
LINE
8
lighting
10
410480.0
20
18480.0
30
0
11
411120.0
21
18480.0
31
0
0
LINE
8
lighting
10
410480.0
20
19120.0
30
0
11
411120.0
21
19120.0
31
0
0
LINE
8
lighting
10
410520.0
20
18520.0
30
0
11
410520.0
21
19080.0
31
0
0
LINE
8
lighting
10
411080.0
20
18520.0
30
0
11
411080.0
21
19080.0
31
0
0
LINE
8
lighting
10
410520.0
20
18520.0
30
0
11
411080.0
21
18520.0
31
0
0
LINE
8
lighting
10
410520.0
20
19080.0
30
0
11
411080.0
21
19080.0
31
0
0
LINE
8
lighting
10
410554.0
20
18530.0
30
0
11
410554.0
21
19070.0
31
0
0
LINE
8
lighting
10
410566.0
20
18530.0
30
0
11
410566.0
21
19070.0
31
0
0
LINE
8
lighting
10
410554.0
20
18530.0
30
0
11
410566.0
21
18530.0
31
0
0
LINE
8
lighting
10
410554.0
20
19070.0
30
0
11
410566.0
21
19070.0
31
0
0
LINE
8
lighting
10
410634.0
20
18530.0
30
0
11
410634.0
21
19070.0
31
0
0
LINE
8
lighting
10
410646.0
20
18530.0
30
0
11
410646.0
21
19070.0
31
0
0
LINE
8
lighting
10
410634.0
20
18530.0
30
0
11
410646.0
21
18530.0
31
0
0
LINE
8
lighting
10
410634.0
20
19070.0
30
0
11
410646.0
21
19070.0
31
0
0
LINE
8
lighting
10
410714.0
20
18530.0
30
0
11
410714.0
21
19070.0
31
0
0
LINE
8
lighting
10
410726.0
20
18530.0
30
0
11
410726.0
21
19070.0
31
0
0
LINE
8
lighting
10
410714.0
20
18530.0
30
0
11
410726.0
21
18530.0
31
0
0
LINE
8
lighting
10
410714.0
20
19070.0
30
0
11
410726.0
21
19070.0
31
0
0
LINE
8
lighting
10
410794.0
20
18530.0
30
0
11
410794.0
21
19070.0
31
0
0
LINE
8
lighting
10
410806.0
20
18530.0
30
0
11
410806.0
21
19070.0
31
0
0
LINE
8
lighting
10
410794.0
20
18530.0
30
0
11
410806.0
21
18530.0
31
0
0
LINE
8
lighting
10
410794.0
20
19070.0
30
0
11
410806.0
21
19070.0
31
0
0
LINE
8
lighting
10
410874.0
20
18530.0
30
0
11
410874.0
21
19070.0
31
0
0
LINE
8
lighting
10
410886.0
20
18530.0
30
0
11
410886.0
21
19070.0
31
0
0
LINE
8
lighting
10
410874.0
20
18530.0
30
0
11
410886.0
21
18530.0
31
0
0
LINE
8
lighting
10
410874.0
20
19070.0
30
0
11
410886.0
21
19070.0
31
0
0
LINE
8
lighting
10
410954.0
20
18530.0
30
0
11
410954.0
21
19070.0
31
0
0
LINE
8
lighting
10
410966.0
20
18530.0
30
0
11
410966.0
21
19070.0
31
0
0
LINE
8
lighting
10
410954.0
20
18530.0
30
0
11
410966.0
21
18530.0
31
0
0
LINE
8
lighting
10
410954.0
20
19070.0
30
0
11
410966.0
21
19070.0
31
0
0
LINE
8
lighting
10
411034.0
20
18530.0
30
0
11
411034.0
21
19070.0
31
0
0
LINE
8
lighting
10
411046.0
20
18530.0
30
0
11
411046.0
21
19070.0
31
0
0
LINE
8
lighting
10
411034.0
20
18530.0
30
0
11
411046.0
21
18530.0
31
0
0
LINE
8
lighting
10
411034.0
20
19070.0
30
0
11
411046.0
21
19070.0
31
0
0
LINE
8
lighting
10
410809.0
20
18800.0
30
0
11
410795.5
21
18807.79
31
0
0
LINE
8
lighting
10
410795.5
20
18807.79
30
0
11
410795.5
21
18792.21
31
0
0
LINE
8
lighting
10
410795.5
20
18792.21
30
0
11
410809.0
21
18800.0
31
0
0
LINE
8
lighting
10
399680.0
20
18480.0
30
0
11
399680.0
21
19120.0
31
0
0
LINE
8
lighting
10
400320.0
20
18480.0
30
0
11
400320.0
21
19120.0
31
0
0
LINE
8
lighting
10
399680.0
20
18480.0
30
0
11
400320.0
21
18480.0
31
0
0
LINE
8
lighting
10
399680.0
20
19120.0
30
0
11
400320.0
21
19120.0
31
0
0
LINE
8
lighting
10
399720.0
20
18520.0
30
0
11
399720.0
21
19080.0
31
0
0
LINE
8
lighting
10
400280.0
20
18520.0
30
0
11
400280.0
21
19080.0
31
0
0
LINE
8
lighting
10
399720.0
20
18520.0
30
0
11
400280.0
21
18520.0
31
0
0
LINE
8
lighting
10
399720.0
20
19080.0
30
0
11
400280.0
21
19080.0
31
0
0
LINE
8
lighting
10
399754.0
20
18530.0
30
0
11
399754.0
21
19070.0
31
0
0
LINE
8
lighting
10
399766.0
20
18530.0
30
0
11
399766.0
21
19070.0
31
0
0
LINE
8
lighting
10
399754.0
20
18530.0
30
0
11
399766.0
21
18530.0
31
0
0
LINE
8
lighting
10
399754.0
20
19070.0
30
0
11
399766.0
21
19070.0
31
0
0
LINE
8
lighting
10
399834.0
20
18530.0
30
0
11
399834.0
21
19070.0
31
0
0
LINE
8
lighting
10
399846.0
20
18530.0
30
0
11
399846.0
21
19070.0
31
0
0
LINE
8
lighting
10
399834.0
20
18530.0
30
0
11
399846.0
21
18530.0
31
0
0
LINE
8
lighting
10
399834.0
20
19070.0
30
0
11
399846.0
21
19070.0
31
0
0
LINE
8
lighting
10
399914.0
20
18530.0
30
0
11
399914.0
21
19070.0
31
0
0
LINE
8
lighting
10
399926.0
20
18530.0
30
0
11
399926.0
21
19070.0
31
0
0
LINE
8
lighting
10
399914.0
20
18530.0
30
0
11
399926.0
21
18530.0
31
0
0
LINE
8
lighting
10
399914.0
20
19070.0
30
0
11
399926.0
21
19070.0
31
0
0
LINE
8
lighting
10
399994.0
20
18530.0
30
0
11
399994.0
21
19070.0
31
0
0
LINE
8
lighting
10
400006.0
20
18530.0
30
0
11
400006.0
21
19070.0
31
0
0
LINE
8
lighting
10
399994.0
20
18530.0
30
0
11
400006.0
21
18530.0
31
0
0
LINE
8
lighting
10
399994.0
20
19070.0
30
0
11
400006.0
21
19070.0
31
0
0
LINE
8
lighting
10
400074.0
20
18530.0
30
0
11
400074.0
21
19070.0
31
0
0
LINE
8
lighting
10
400086.0
20
18530.0
30
0
11
400086.0
21
19070.0
31
0
0
LINE
8
lighting
10
400074.0
20
18530.0
30
0
11
400086.0
21
18530.0
31
0
0
LINE
8
lighting
10
400074.0
20
19070.0
30
0
11
400086.0
21
19070.0
31
0
0
LINE
8
lighting
10
400154.0
20
18530.0
30
0
11
400154.0
21
19070.0
31
0
0
LINE
8
lighting
10
400166.0
20
18530.0
30
0
11
400166.0
21
19070.0
31
0
0
LINE
8
lighting
10
400154.0
20
18530.0
30
0
11
400166.0
21
18530.0
31
0
0
LINE
8
lighting
10
400154.0
20
19070.0
30
0
11
400166.0
21
19070.0
31
0
0
LINE
8
lighting
10
400234.0
20
18530.0
30
0
11
400234.0
21
19070.0
31
0
0
LINE
8
lighting
10
400246.0
20
18530.0
30
0
11
400246.0
21
19070.0
31
0
0
LINE
8
lighting
10
400234.0
20
18530.0
30
0
11
400246.0
21
18530.0
31
0
0
LINE
8
lighting
10
400234.0
20
19070.0
30
0
11
400246.0
21
19070.0
31
0
0
LINE
8
lighting
10
400009.0
20
18800.0
30
0
11
399995.5
21
18807.79
31
0
0
LINE
8
lighting
10
399995.5
20
18807.79
30
0
11
399995.5
21
18792.21
31
0
0
LINE
8
lighting
10
399995.5
20
18792.21
30
0
11
400009.0
21
18800.0
31
0
0
LINE
8
electrical
10
389200.0
20
4880.0
30
0
11
389200.0
21
4872.21
31
0
0
LINE
8
electrical
10
389200.0
20
4872.21
30
0
11
389200.0
21
4887.79
31
0
0
LINE
8
electrical
10
389200.0
20
4887.79
30
0
11
389200.0
21
4880.0
31
0
0
LINE
8
electrical
10
414550.0
20
4880.0
30
0
11
389200.0
21
4880.0
31
0
0
LINE
8
electrical
10
414550.0
20
4880.0
30
0
11
414550.0
21
4872.21
31
0
0
LINE
8
electrical
10
414550.0
20
4872.21
30
0
11
414550.0
21
4887.79
31
0
0
LINE
8
electrical
10
414550.0
20
4887.79
30
0
11
414550.0
21
4880.0
31
0
0
LINE
8
electrical
10
389200.0
20
18800.0
30
0
11
389207.79
21
18800.0
31
0
0
LINE
8
electrical
10
389207.79
20
18800.0
30
0
11
389192.21
21
18800.0
31
0
0
LINE
8
electrical
10
389192.21
20
18800.0
30
0
11
389200.0
21
18800.0
31
0
0
LINE
8
electrical
10
389200.0
20
4880.0
30
0
11
389200.0
21
18800.0
31
0
0
LINE
8
electrical
10
389200.0
20
4880.0
30
0
11
389207.79
21
4880.0
31
0
0
LINE
8
electrical
10
389207.79
20
4880.0
30
0
11
389192.21
21
4880.0
31
0
0
LINE
8
electrical
10
389192.21
20
4880.0
30
0
11
389200.0
21
4880.0
31
0
0
LINE
8
electrical
10
410800.0
20
18800.0
30
0
11
410807.79
21
18800.0
31
0
0
LINE
8
electrical
10
410807.79
20
18800.0
30
0
11
410792.21
21
18800.0
31
0
0
LINE
8
electrical
10
410792.21
20
18800.0
30
0
11
410800.0
21
18800.0
31
0
0
LINE
8
electrical
10
410800.0
20
4880.0
30
0
11
410800.0
21
18800.0
31
0
0
LINE
8
electrical
10
410800.0
20
4880.0
30
0
11
410807.79
21
4880.0
31
0
0
LINE
8
electrical
10
410807.79
20
4880.0
30
0
11
410792.21
21
4880.0
31
0
0
LINE
8
electrical
10
410792.21
20
4880.0
30
0
11
410800.0
21
4880.0
31
0
0
LINE
8
electrical
10
400000.0
20
18800.0
30
0
11
400007.79
21
18800.0
31
0
0
LINE
8
electrical
10
400007.79
20
18800.0
30
0
11
399992.21
21
18800.0
31
0
0
LINE
8
electrical
10
399992.21
20
18800.0
30
0
11
400000.0
21
18800.0
31
0
0
LINE
8
electrical
10
400000.0
20
4880.0
30
0
11
400000.0
21
18800.0
31
0
0
LINE
8
electrical
10
400000.0
20
4880.0
30
0
11
400007.79
21
4880.0
31
0
0
LINE
8
electrical
10
400007.79
20
4880.0
30
0
11
399992.21
21
4880.0
31
0
0
LINE
8
electrical
10
399992.21
20
4880.0
30
0
11
400000.0
21
4880.0
31
0
0
LINE
8
electrical
10
414563.0
20
2200.0
30
0
11
414543.5
21
2211.26
31
0
0
LINE
8
electrical
10
414543.5
20
2211.26
30
0
11
414543.5
21
2188.74
31
0
0
LINE
8
electrical
10
414543.5
20
2188.74
30
0
11
414563.0
21
2200.0
31
0
0
LINE
8
electrical
10
410492.83
20
4869.16
30
0
11
410503.59
21
4885.42
31
0
0
LINE
8
electrical
10
410503.59
20
4885.42
30
0
11
410503.59
21
4885.42
31
0
0
LINE
8
electrical
10
410503.59
20
4885.42
30
0
11
410492.83
21
4869.16
31
0
0
LINE
8
electrical
10
414542.83
20
2189.16
30
0
11
410492.83
21
4869.16
31
0
0
LINE
8
electrical
10
414542.83
20
2189.16
30
0
11
414553.59
21
2205.42
31
0
0
LINE
8
electrical
10
414553.59
20
2205.42
30
0
11
414553.59
21
2205.42
31
0
0
LINE
8
electrical
10
414553.59
20
2205.42
30
0
11
414542.83
21
2189.16
31
0
0
LINE
8
electrical
10
389500.0
20
4880.0
30
0
11
389500.0
21
4868.74
31
0
0
LINE
8
electrical
10
389500.0
20
4868.74
30
0
11
389500.0
21
4891.26
31
0
0
LINE
8
electrical
10
389500.0
20
4891.26
30
0
11
389500.0
21
4880.0
31
0
0
LINE
8
electrical
10
410500.0
20
4880.0
30
0
11
389500.0
21
4880.0
31
0
0
LINE
8
electrical
10
410500.0
20
4880.0
30
0
11
410500.0
21
4868.74
31
0
0
LINE
8
electrical
10
410500.0
20
4868.74
30
0
11
410500.0
21
4891.26
31
0
0
LINE
8
electrical
10
410500.0
20
4891.26
30
0
11
410500.0
21
4880.0
31
0
0
LINE
8
electrical
10
414550.0
20
2200.0
30
0
11
414564.04
21
2200.0
31
0
0
LINE
8
electrical
10
414564.04
20
2200.0
30
0
11
414550.0
21
2200.0
31
0
0
LINE
8
electrical
10
410500.0
20
4880.0
30
0
11
410514.04
21
4880.0
31
0
0
LINE
8
electrical
10
410514.04
20
4880.0
30
0
11
410500.0
21
4880.0
31
0
0
LINE
8
electrical
10
414563.0
20
2200.0
30
0
11
414543.5
21
2211.26
31
0
0
LINE
8
electrical
10
414543.5
20
2211.26
30
0
11
414543.5
21
2188.74
31
0
0
LINE
8
electrical
10
414543.5
20
2188.74
30
0
11
414563.0
21
2200.0
31
0
0
LINE
8
electrical
10
410492.61
20
4989.31
30
0
11
410503.7
21
5005.35
31
0
0
LINE
8
electrical
10
410503.7
20
5005.35
30
0
11
410503.7
21
5005.35
31
0
0
LINE
8
electrical
10
410503.7
20
5005.35
30
0
11
410492.61
21
4989.31
31
0
0
LINE
8
electrical
10
414542.61
20
2189.31
30
0
11
410492.61
21
4989.31
31
0
0
LINE
8
electrical
10
414542.61
20
2189.31
30
0
11
414553.7
21
2205.35
31
0
0
LINE
8
electrical
10
414553.7
20
2205.35
30
0
11
414553.7
21
2205.35
31
0
0
LINE
8
electrical
10
414553.7
20
2205.35
30
0
11
414542.61
21
2189.31
31
0
0
LINE
8
electrical
10
389500.0
20
5000.0
30
0
11
389500.0
21
4988.74
31
0
0
LINE
8
electrical
10
389500.0
20
4988.74
30
0
11
389500.0
21
5011.26
31
0
0
LINE
8
electrical
10
389500.0
20
5011.26
30
0
11
389500.0
21
5000.0
31
0
0
LINE
8
electrical
10
410500.0
20
5000.0
30
0
11
389500.0
21
5000.0
31
0
0
LINE
8
electrical
10
410500.0
20
5000.0
30
0
11
410500.0
21
4988.74
31
0
0
LINE
8
electrical
10
410500.0
20
4988.74
30
0
11
410500.0
21
5011.26
31
0
0
LINE
8
electrical
10
410500.0
20
5011.26
30
0
11
410500.0
21
5000.0
31
0
0
LINE
8
electrical
10
414550.0
20
2200.0
30
0
11
414564.04
21
2200.0
31
0
0
LINE
8
electrical
10
414564.04
20
2200.0
30
0
11
414550.0
21
2200.0
31
0
0
LINE
8
electrical
10
410500.0
20
5000.0
30
0
11
410514.04
21
5000.0
31
0
0
LINE
8
electrical
10
410514.04
20
5000.0
30
0
11
410500.0
21
5000.0
31
0
0
LINE
8
electrical
10
414563.0
20
2200.0
30
0
11
414543.5
21
2211.26
31
0
0
LINE
8
electrical
10
414543.5
20
2211.26
30
0
11
414543.5
21
2188.74
31
0
0
LINE
8
electrical
10
414543.5
20
2188.74
30
0
11
414563.0
21
2200.0
31
0
0
LINE
8
electrical
10
410492.4
20
5109.45
30
0
11
410503.8
21
5125.27
31
0
0
LINE
8
electrical
10
410503.8
20
5125.27
30
0
11
410503.8
21
5125.27
31
0
0
LINE
8
electrical
10
410503.8
20
5125.27
30
0
11
410492.4
21
5109.45
31
0
0
LINE
8
electrical
10
414542.4
20
2189.45
30
0
11
410492.4
21
5109.45
31
0
0
LINE
8
electrical
10
414542.4
20
2189.45
30
0
11
414553.8
21
2205.27
31
0
0
LINE
8
electrical
10
414553.8
20
2205.27
30
0
11
414553.8
21
2205.27
31
0
0
LINE
8
electrical
10
414553.8
20
2205.27
30
0
11
414542.4
21
2189.45
31
0
0
LINE
8
electrical
10
389500.0
20
5120.0
30
0
11
389500.0
21
5108.74
31
0
0
LINE
8
electrical
10
389500.0
20
5108.74
30
0
11
389500.0
21
5131.26
31
0
0
LINE
8
electrical
10
389500.0
20
5131.26
30
0
11
389500.0
21
5120.0
31
0
0
LINE
8
electrical
10
410500.0
20
5120.0
30
0
11
389500.0
21
5120.0
31
0
0
LINE
8
electrical
10
410500.0
20
5120.0
30
0
11
410500.0
21
5108.74
31
0
0
LINE
8
electrical
10
410500.0
20
5108.74
30
0
11
410500.0
21
5131.26
31
0
0
LINE
8
electrical
10
410500.0
20
5131.26
30
0
11
410500.0
21
5120.0
31
0
0
LINE
8
electrical
10
414550.0
20
2200.0
30
0
11
414564.04
21
2200.0
31
0
0
LINE
8
electrical
10
414564.04
20
2200.0
30
0
11
414550.0
21
2200.0
31
0
0
LINE
8
electrical
10
410500.0
20
5120.0
30
0
11
410514.04
21
5120.0
31
0
0
LINE
8
electrical
10
410514.04
20
5120.0
30
0
11
410500.0
21
5120.0
31
0
0
LINE
8
electrical
10
390935.0
20
2150.0
30
0
11
390935.0
21
2210.0
31
0
0
LINE
8
electrical
10
391065.0
20
2150.0
30
0
11
391065.0
21
2210.0
31
0
0
LINE
8
electrical
10
390935.0
20
2150.0
30
0
11
391065.0
21
2150.0
31
0
0
LINE
8
electrical
10
390935.0
20
2210.0
30
0
11
391065.0
21
2210.0
31
0
0
LINE
8
electrical
10
391009.0
20
2180.0
30
0
11
390995.5
21
2187.79
31
0
0
LINE
8
electrical
10
390995.5
20
2187.79
30
0
11
390995.5
21
2172.21
31
0
0
LINE
8
electrical
10
390995.5
20
2172.21
30
0
11
391009.0
21
2180.0
31
0
0
LINE
8
electrical
10
414550.0
20
2180.0
30
0
11
414550.0
21
2172.21
31
0
0
LINE
8
electrical
10
414550.0
20
2172.21
30
0
11
414550.0
21
2187.79
31
0
0
LINE
8
electrical
10
414550.0
20
2187.79
30
0
11
414550.0
21
2180.0
31
0
0
LINE
8
electrical
10
391000.0
20
2180.0
30
0
11
414550.0
21
2180.0
31
0
0
LINE
8
electrical
10
391000.0
20
2180.0
30
0
11
391000.0
21
2172.21
31
0
0
LINE
8
electrical
10
391000.0
20
2172.21
30
0
11
391000.0
21
2187.79
31
0
0
LINE
8
electrical
10
391000.0
20
2187.79
30
0
11
391000.0
21
2180.0
31
0
0
LINE
8
electrical
10
391000.0
20
2180.0
30
0
11
391009.72
21
2180.0
31
0
0
LINE
8
electrical
10
391009.72
20
2180.0
30
0
11
391000.0
21
2180.0
31
0
0
LINE
8
electrical
10
408935.0
20
2150.0
30
0
11
408935.0
21
2210.0
31
0
0
LINE
8
electrical
10
409065.0
20
2150.0
30
0
11
409065.0
21
2210.0
31
0
0
LINE
8
electrical
10
408935.0
20
2150.0
30
0
11
409065.0
21
2150.0
31
0
0
LINE
8
electrical
10
408935.0
20
2210.0
30
0
11
409065.0
21
2210.0
31
0
0
LINE
8
electrical
10
409009.0
20
2180.0
30
0
11
408995.5
21
2187.79
31
0
0
LINE
8
electrical
10
408995.5
20
2187.79
30
0
11
408995.5
21
2172.21
31
0
0
LINE
8
electrical
10
408995.5
20
2172.21
30
0
11
409009.0
21
2180.0
31
0
0
LINE
8
electrical
10
414550.0
20
2180.0
30
0
11
414550.0
21
2172.21
31
0
0
LINE
8
electrical
10
414550.0
20
2172.21
30
0
11
414550.0
21
2187.79
31
0
0
LINE
8
electrical
10
414550.0
20
2187.79
30
0
11
414550.0
21
2180.0
31
0
0
LINE
8
electrical
10
409000.0
20
2180.0
30
0
11
414550.0
21
2180.0
31
0
0
LINE
8
electrical
10
409000.0
20
2180.0
30
0
11
409000.0
21
2172.21
31
0
0
LINE
8
electrical
10
409000.0
20
2172.21
30
0
11
409000.0
21
2187.79
31
0
0
LINE
8
electrical
10
409000.0
20
2187.79
30
0
11
409000.0
21
2180.0
31
0
0
LINE
8
electrical
10
409000.0
20
2180.0
30
0
11
409009.72
21
2180.0
31
0
0
LINE
8
electrical
10
409009.72
20
2180.0
30
0
11
409000.0
21
2180.0
31
0
0
LINE
8
hvac
10
385475.0
20
2725.0
30
0
11
385475.0
21
3475.0
31
0
0
LINE
8
hvac
10
387125.0
20
2725.0
30
0
11
387125.0
21
3475.0
31
0
0
LINE
8
hvac
10
385475.0
20
2725.0
30
0
11
387125.0
21
2725.0
31
0
0
LINE
8
hvac
10
385475.0
20
3475.0
30
0
11
387125.0
21
3475.0
31
0
0
LINE
8
hvac
10
385575.0
20
2680.0
30
0
11
385575.0
21
2720.0
31
0
0
LINE
8
hvac
10
387025.0
20
2680.0
30
0
11
387025.0
21
2720.0
31
0
0
LINE
8
hvac
10
385575.0
20
2680.0
30
0
11
387025.0
21
2680.0
31
0
0
LINE
8
hvac
10
385575.0
20
2720.0
30
0
11
387025.0
21
2720.0
31
0
0
LINE
8
hvac
10
385640.0
20
2640.0
30
0
11
385640.0
21
2700.0
31
0
0
LINE
8
hvac
10
385680.0
20
2640.0
30
0
11
385680.0
21
2700.0
31
0
0
LINE
8
hvac
10
385640.0
20
2640.0
30
0
11
385680.0
21
2640.0
31
0
0
LINE
8
hvac
10
385640.0
20
2700.0
30
0
11
385680.0
21
2700.0
31
0
0
LINE
8
hvac
10
385800.0
20
2640.0
30
0
11
385800.0
21
2700.0
31
0
0
LINE
8
hvac
10
385840.0
20
2640.0
30
0
11
385840.0
21
2700.0
31
0
0
LINE
8
hvac
10
385800.0
20
2640.0
30
0
11
385840.0
21
2640.0
31
0
0
LINE
8
hvac
10
385800.0
20
2700.0
30
0
11
385840.0
21
2700.0
31
0
0
LINE
8
hvac
10
385960.0
20
2640.0
30
0
11
385960.0
21
2700.0
31
0
0
LINE
8
hvac
10
386000.0
20
2640.0
30
0
11
386000.0
21
2700.0
31
0
0
LINE
8
hvac
10
385960.0
20
2640.0
30
0
11
386000.0
21
2640.0
31
0
0
LINE
8
hvac
10
385960.0
20
2700.0
30
0
11
386000.0
21
2700.0
31
0
0
LINE
8
hvac
10
386120.0
20
2640.0
30
0
11
386120.0
21
2700.0
31
0
0
LINE
8
hvac
10
386160.0
20
2640.0
30
0
11
386160.0
21
2700.0
31
0
0
LINE
8
hvac
10
386120.0
20
2640.0
30
0
11
386160.0
21
2640.0
31
0
0
LINE
8
hvac
10
386120.0
20
2700.0
30
0
11
386160.0
21
2700.0
31
0
0
LINE
8
hvac
10
386280.0
20
2640.0
30
0
11
386280.0
21
2700.0
31
0
0
LINE
8
hvac
10
386320.0
20
2640.0
30
0
11
386320.0
21
2700.0
31
0
0
LINE
8
hvac
10
386280.0
20
2640.0
30
0
11
386320.0
21
2640.0
31
0
0
LINE
8
hvac
10
386280.0
20
2700.0
30
0
11
386320.0
21
2700.0
31
0
0
LINE
8
hvac
10
386440.0
20
2640.0
30
0
11
386440.0
21
2700.0
31
0
0
LINE
8
hvac
10
386480.0
20
2640.0
30
0
11
386480.0
21
2700.0
31
0
0
LINE
8
hvac
10
386440.0
20
2640.0
30
0
11
386480.0
21
2640.0
31
0
0
LINE
8
hvac
10
386440.0
20
2700.0
30
0
11
386480.0
21
2700.0
31
0
0
LINE
8
hvac
10
386600.0
20
2640.0
30
0
11
386600.0
21
2700.0
31
0
0
LINE
8
hvac
10
386640.0
20
2640.0
30
0
11
386640.0
21
2700.0
31
0
0
LINE
8
hvac
10
386600.0
20
2640.0
30
0
11
386640.0
21
2640.0
31
0
0
LINE
8
hvac
10
386600.0
20
2700.0
30
0
11
386640.0
21
2700.0
31
0
0
LINE
8
hvac
10
386760.0
20
2640.0
30
0
11
386760.0
21
2700.0
31
0
0
LINE
8
hvac
10
386800.0
20
2640.0
30
0
11
386800.0
21
2700.0
31
0
0
LINE
8
hvac
10
386760.0
20
2640.0
30
0
11
386800.0
21
2640.0
31
0
0
LINE
8
hvac
10
386760.0
20
2700.0
30
0
11
386800.0
21
2700.0
31
0
0
LINE
8
hvac
10
386920.0
20
2640.0
30
0
11
386920.0
21
2700.0
31
0
0
LINE
8
hvac
10
386960.0
20
2640.0
30
0
11
386960.0
21
2700.0
31
0
0
LINE
8
hvac
10
386920.0
20
2640.0
30
0
11
386960.0
21
2640.0
31
0
0
LINE
8
hvac
10
386920.0
20
2700.0
30
0
11
386960.0
21
2700.0
31
0
0
LINE
8
hvac
10
386075.0
20
2875.0
30
0
11
386075.0
21
3325.0
31
0
0
LINE
8
hvac
10
386525.0
20
2875.0
30
0
11
386525.0
21
3325.0
31
0
0
LINE
8
hvac
10
386075.0
20
2875.0
30
0
11
386525.0
21
2875.0
31
0
0
LINE
8
hvac
10
386075.0
20
3325.0
30
0
11
386525.0
21
3325.0
31
0
0
LINE
8
hvac
10
389500.0
20
11825.0
30
0
11
389500.0
21
12175.0
31
0
0
LINE
8
hvac
10
410500.0
20
11825.0
30
0
11
410500.0
21
12175.0
31
0
0
LINE
8
hvac
10
389500.0
20
11825.0
30
0
11
410500.0
21
11825.0
31
0
0
LINE
8
hvac
10
389500.0
20
12175.0
30
0
11
410500.0
21
12175.0
31
0
0
LINE
8
hvac
10
386125.0
20
2925.0
30
0
11
386125.0
21
3275.0
31
0
0
LINE
8
hvac
10
400175.0
20
2925.0
30
0
11
400175.0
21
3275.0
31
0
0
LINE
8
hvac
10
386125.0
20
2925.0
30
0
11
400175.0
21
2925.0
31
0
0
LINE
8
hvac
10
386125.0
20
3275.0
30
0
11
400175.0
21
3275.0
31
0
0
LINE
8
hvac
10
399825.0
20
2925.0
30
0
11
399825.0
21
12175.0
31
0
0
LINE
8
hvac
10
400175.0
20
2925.0
30
0
11
400175.0
21
12175.0
31
0
0
LINE
8
hvac
10
399825.0
20
2925.0
30
0
11
400175.0
21
2925.0
31
0
0
LINE
8
hvac
10
399825.0
20
12175.0
30
0
11
400175.0
21
12175.0
31
0
0
LINE
8
hvac
10
393650.0
20
11650.0
30
0
11
393650.0
21
12350.0
31
0
0
LINE
8
hvac
10
394350.0
20
11650.0
30
0
11
394350.0
21
12350.0
31
0
0
LINE
8
hvac
10
393650.0
20
11650.0
30
0
11
394350.0
21
11650.0
31
0
0
LINE
8
hvac
10
393650.0
20
12350.0
30
0
11
394350.0
21
12350.0
31
0
0
LINE
8
hvac
10
405650.0
20
11650.0
30
0
11
405650.0
21
12350.0
31
0
0
LINE
8
hvac
10
406350.0
20
11650.0
30
0
11
406350.0
21
12350.0
31
0
0
LINE
8
hvac
10
405650.0
20
11650.0
30
0
11
406350.0
21
11650.0
31
0
0
LINE
8
hvac
10
405650.0
20
12350.0
30
0
11
406350.0
21
12350.0
31
0
0
LINE
8
water
10
398940.0
20
2400.0
30
0
11
398940.0
21
2325.0
31
0
0
LINE
8
water
10
398940.0
20
2325.0
30
0
11
398940.0
21
2400.0
31
0
0
LINE
8
water
10
398940.0
20
2400.0
30
0
11
398940.0
21
2475.0
31
0
0
LINE
8
water
10
398940.0
20
2475.0
30
0
11
398940.0
21
2400.0
31
0
0
LINE
8
water
10
398540.0
20
2400.0
30
0
11
398940.0
21
2400.0
31
0
0
LINE
8
water
10
398540.0
20
2400.0
30
0
11
398540.0
21
2325.0
31
0
0
LINE
8
water
10
398540.0
20
2325.0
30
0
11
398540.0
21
2400.0
31
0
0
LINE
8
water
10
398540.0
20
2400.0
30
0
11
398540.0
21
2475.0
31
0
0
LINE
8
water
10
398540.0
20
2475.0
30
0
11
398540.0
21
2400.0
31
0
0
LINE
8
water
10
398830.0
20
2400.0
30
0
11
398767.81
21
2485.6
31
0
0
LINE
8
water
10
398767.81
20
2485.6
30
0
11
398667.19
21
2452.9
31
0
0
LINE
8
water
10
398667.19
20
2452.9
30
0
11
398667.19
21
2347.1
31
0
0
LINE
8
water
10
398667.19
20
2347.1
30
0
11
398767.81
21
2314.4
31
0
0
LINE
8
water
10
398767.81
20
2314.4
30
0
11
398830.0
21
2400.0
31
0
0
LINE
8
water
10
398550.0
20
2375.0
30
0
11
398550.0
21
2425.0
31
0
0
LINE
8
water
10
398930.0
20
2375.0
30
0
11
398930.0
21
2425.0
31
0
0
LINE
8
water
10
398550.0
20
2375.0
30
0
11
398930.0
21
2375.0
31
0
0
LINE
8
water
10
398550.0
20
2425.0
30
0
11
398930.0
21
2425.0
31
0
0
LINE
8
water
10
398615.0
20
2400.0
30
0
11
398615.0
21
2295.38
31
0
0
LINE
8
water
10
398615.0
20
2295.38
30
0
11
398615.0
21
2335.34
31
0
0
LINE
8
water
10
398615.0
20
2335.34
30
0
11
398615.0
21
2464.66
31
0
0
LINE
8
water
10
398615.0
20
2464.66
30
0
11
398615.0
21
2504.62
31
0
0
LINE
8
water
10
398615.0
20
2504.62
30
0
11
398615.0
21
2400.0
31
0
0
LINE
8
water
10
398590.0
20
2400.0
30
0
11
398615.0
21
2400.0
31
0
0
LINE
8
water
10
398590.0
20
2400.0
30
0
11
398590.0
21
2295.38
31
0
0
LINE
8
water
10
398590.0
20
2295.38
30
0
11
398590.0
21
2335.34
31
0
0
LINE
8
water
10
398590.0
20
2335.34
30
0
11
398590.0
21
2464.66
31
0
0
LINE
8
water
10
398590.0
20
2464.66
30
0
11
398590.0
21
2504.62
31
0
0
LINE
8
water
10
398590.0
20
2504.62
30
0
11
398590.0
21
2400.0
31
0
0
LINE
8
water
10
398915.0
20
2400.0
30
0
11
398915.0
21
2295.38
31
0
0
LINE
8
water
10
398915.0
20
2295.38
30
0
11
398915.0
21
2335.34
31
0
0
LINE
8
water
10
398915.0
20
2335.34
30
0
11
398915.0
21
2464.66
31
0
0
LINE
8
water
10
398915.0
20
2464.66
30
0
11
398915.0
21
2504.62
31
0
0
LINE
8
water
10
398915.0
20
2504.62
30
0
11
398915.0
21
2400.0
31
0
0
LINE
8
water
10
398890.0
20
2400.0
30
0
11
398915.0
21
2400.0
31
0
0
LINE
8
water
10
398890.0
20
2400.0
30
0
11
398890.0
21
2295.38
31
0
0
LINE
8
water
10
398890.0
20
2295.38
30
0
11
398890.0
21
2335.34
31
0
0
LINE
8
water
10
398890.0
20
2335.34
30
0
11
398890.0
21
2464.66
31
0
0
LINE
8
water
10
398890.0
20
2464.66
30
0
11
398890.0
21
2504.62
31
0
0
LINE
8
water
10
398890.0
20
2504.62
30
0
11
398890.0
21
2400.0
31
0
0
LINE
8
water
10
401800.0
20
2400.0
30
0
11
401843.3
21
2400.0
31
0
0
LINE
8
water
10
401843.3
20
2400.0
30
0
11
401756.7
21
2400.0
31
0
0
LINE
8
water
10
401756.7
20
2400.0
30
0
11
401800.0
21
2400.0
31
0
0
LINE
8
water
10
401800.0
20
-57500.0
30
0
11
401800.0
21
2400.0
31
0
0
LINE
8
water
10
401800.0
20
-57500.0
30
0
11
401843.3
21
-57500.0
31
0
0
LINE
8
water
10
401843.3
20
-57500.0
30
0
11
401756.7
21
-57500.0
31
0
0
LINE
8
water
10
401756.7
20
-57500.0
30
0
11
401800.0
21
-57500.0
31
0
0
LINE
8
water
10
391600.0
20
2400.0
30
0
11
391600.0
21
2356.7
31
0
0
LINE
8
water
10
391600.0
20
2356.7
30
0
11
391600.0
21
2443.3
31
0
0
LINE
8
water
10
391600.0
20
2443.3
30
0
11
391600.0
21
2400.0
31
0
0
LINE
8
water
10
401800.0
20
2400.0
30
0
11
391600.0
21
2400.0
31
0
0
LINE
8
water
10
401800.0
20
2400.0
30
0
11
401800.0
21
2356.7
31
0
0
LINE
8
water
10
401800.0
20
2356.7
30
0
11
401800.0
21
2443.3
31
0
0
LINE
8
water
10
401800.0
20
2443.3
30
0
11
401800.0
21
2400.0
31
0
0
LINE
8
water
10
391600.0
20
16600.0
30
0
11
391643.3
21
16600.0
31
0
0
LINE
8
water
10
391643.3
20
16600.0
30
0
11
391556.7
21
16600.0
31
0
0
LINE
8
water
10
391556.7
20
16600.0
30
0
11
391600.0
21
16600.0
31
0
0
LINE
8
water
10
391600.0
20
2400.0
30
0
11
391600.0
21
16600.0
31
0
0
LINE
8
water
10
391600.0
20
2400.0
30
0
11
391643.3
21
2400.0
31
0
0
LINE
8
water
10
391643.3
20
2400.0
30
0
11
391556.7
21
2400.0
31
0
0
LINE
8
water
10
391556.7
20
2400.0
30
0
11
391600.0
21
2400.0
31
0
0
LINE
8
water
10
391550.0
20
16600.0
30
0
11
391625.0
21
16643.3
31
0
0
LINE
8
water
10
391625.0
20
16643.3
30
0
11
391625.0
21
16556.7
31
0
0
LINE
8
water
10
391625.0
20
16556.7
30
0
11
391550.0
21
16600.0
31
0
0
LINE
8
water
10
401800.0
20
2400.0
30
0
11
401854.0
21
2400.0
31
0
0
LINE
8
water
10
401854.0
20
2400.0
30
0
11
401800.0
21
2400.0
31
0
0
LINE
8
water
10
391600.0
20
2400.0
30
0
11
391654.0
21
2400.0
31
0
0
LINE
8
water
10
391654.0
20
2400.0
30
0
11
391600.0
21
2400.0
31
0
0
LINE
8
water
10
391600.0
20
16600.0
30
0
11
391654.0
21
16600.0
31
0
0
LINE
8
water
10
391654.0
20
16600.0
30
0
11
391600.0
21
16600.0
31
0
0
LINE
8
water
10
390900.0
20
16200.0
30
0
11
390900.0
21
17000.0
31
0
0
LINE
8
water
10
392300.0
20
16200.0
30
0
11
392300.0
21
17000.0
31
0
0
LINE
8
water
10
390900.0
20
16200.0
30
0
11
392300.0
21
16200.0
31
0
0
LINE
8
water
10
390900.0
20
17000.0
30
0
11
392300.0
21
17000.0
31
0
0
LINE
8
water
10
391225.0
20
16275.0
30
0
11
391225.0
21
16925.0
31
0
0
LINE
8
water
10
391975.0
20
16275.0
30
0
11
391975.0
21
16925.0
31
0
0
LINE
8
water
10
391225.0
20
16275.0
30
0
11
391975.0
21
16275.0
31
0
0
LINE
8
water
10
391225.0
20
16925.0
30
0
11
391975.0
21
16925.0
31
0
0
LINE
8
water
10
391650.0
20
16600.0
30
0
11
391650.0
21
16504.89
31
0
0
LINE
8
water
10
391650.0
20
16504.89
30
0
11
391650.0
21
16541.22
31
0
0
LINE
8
water
10
391650.0
20
16541.22
30
0
11
391650.0
21
16658.78
31
0
0
LINE
8
water
10
391650.0
20
16658.78
30
0
11
391650.0
21
16695.11
31
0
0
LINE
8
water
10
391650.0
20
16695.11
30
0
11
391650.0
21
16600.0
31
0
0
LINE
8
water
10
391200.0
20
16600.0
30
0
11
391650.0
21
16600.0
31
0
0
LINE
8
water
10
391200.0
20
16600.0
30
0
11
391200.0
21
16504.89
31
0
0
LINE
8
water
10
391200.0
20
16504.89
30
0
11
391200.0
21
16541.22
31
0
0
LINE
8
water
10
391200.0
20
16541.22
30
0
11
391200.0
21
16658.78
31
0
0
LINE
8
water
10
391200.0
20
16658.78
30
0
11
391200.0
21
16695.11
31
0
0
LINE
8
water
10
391200.0
20
16695.11
30
0
11
391200.0
21
16600.0
31
0
0
LINE
8
water
10
392000.0
20
16600.0
30
0
11
391925.0
21
16643.3
31
0
0
LINE
8
water
10
391925.0
20
16643.3
30
0
11
391925.0
21
16556.7
31
0
0
LINE
8
water
10
391925.0
20
16556.7
30
0
11
392000.0
21
16600.0
31
0
0
LINE
8
water
10
402250.0
20
16600.0
30
0
11
402250.0
21
16556.7
31
0
0
LINE
8
water
10
402250.0
20
16556.7
30
0
11
402250.0
21
16643.3
31
0
0
LINE
8
water
10
402250.0
20
16643.3
30
0
11
402250.0
21
16600.0
31
0
0
LINE
8
water
10
391950.0
20
16600.0
30
0
11
402250.0
21
16600.0
31
0
0
LINE
8
water
10
391950.0
20
16600.0
30
0
11
391950.0
21
16556.7
31
0
0
LINE
8
water
10
391950.0
20
16556.7
30
0
11
391950.0
21
16643.3
31
0
0
LINE
8
water
10
391950.0
20
16643.3
30
0
11
391950.0
21
16600.0
31
0
0
LINE
8
water
10
402250.0
20
-56500.0
30
0
11
402293.3
21
-56500.0
31
0
0
LINE
8
water
10
402293.3
20
-56500.0
30
0
11
402206.7
21
-56500.0
31
0
0
LINE
8
water
10
402206.7
20
-56500.0
30
0
11
402250.0
21
-56500.0
31
0
0
LINE
8
water
10
402250.0
20
16600.0
30
0
11
402250.0
21
-56500.0
31
0
0
LINE
8
water
10
402250.0
20
16600.0
30
0
11
402293.3
21
16600.0
31
0
0
LINE
8
water
10
402293.3
20
16600.0
30
0
11
402206.7
21
16600.0
31
0
0
LINE
8
water
10
402206.7
20
16600.0
30
0
11
402250.0
21
16600.0
31
0
0
LINE
8
water
10
402300.0
20
-56500.0
30
0
11
402225.0
21
-56456.7
31
0
0
LINE
8
water
10
402225.0
20
-56456.7
30
0
11
402225.0
21
-56543.3
31
0
0
LINE
8
water
10
402225.0
20
-56543.3
30
0
11
402300.0
21
-56500.0
31
0
0
LINE
8
water
10
391950.0
20
16600.0
30
0
11
392004.0
21
16600.0
31
0
0
LINE
8
water
10
392004.0
20
16600.0
30
0
11
391950.0
21
16600.0
31
0
0
LINE
8
water
10
402250.0
20
16600.0
30
0
11
402304.0
21
16600.0
31
0
0
LINE
8
water
10
402304.0
20
16600.0
30
0
11
402250.0
21
16600.0
31
0
0
LINE
8
water
10
402250.0
20
-56500.0
30
0
11
402304.0
21
-56500.0
31
0
0
LINE
8
water
10
402304.0
20
-56500.0
30
0
11
402250.0
21
-56500.0
31
0
0
LINE
8
sensors
10
385040.0
20
6320.0
30
0
11
385040.0
21
6480.0
31
0
0
LINE
8
sensors
10
385140.0
20
6320.0
30
0
11
385140.0
21
6480.0
31
0
0
LINE
8
sensors
10
385040.0
20
6320.0
30
0
11
385140.0
21
6320.0
31
0
0
LINE
8
sensors
10
385040.0
20
6480.0
30
0
11
385140.0
21
6480.0
31
0
0
LINE
8
sensors
10
385145.0
20
6345.0
30
0
11
385145.0
21
6455.0
31
0
0
LINE
8
sensors
10
385165.0
20
6345.0
30
0
11
385165.0
21
6455.0
31
0
0
LINE
8
sensors
10
385145.0
20
6345.0
30
0
11
385165.0
21
6345.0
31
0
0
LINE
8
sensors
10
385145.0
20
6455.0
30
0
11
385165.0
21
6455.0
31
0
0
LINE
8
sensors
10
385040.0
20
6620.0
30
0
11
385040.0
21
6780.0
31
0
0
LINE
8
sensors
10
385140.0
20
6620.0
30
0
11
385140.0
21
6780.0
31
0
0
LINE
8
sensors
10
385040.0
20
6620.0
30
0
11
385140.0
21
6620.0
31
0
0
LINE
8
sensors
10
385040.0
20
6780.0
30
0
11
385140.0
21
6780.0
31
0
0
LINE
8
sensors
10
385145.0
20
6645.0
30
0
11
385145.0
21
6755.0
31
0
0
LINE
8
sensors
10
385165.0
20
6645.0
30
0
11
385165.0
21
6755.0
31
0
0
LINE
8
sensors
10
385145.0
20
6645.0
30
0
11
385165.0
21
6645.0
31
0
0
LINE
8
sensors
10
385145.0
20
6755.0
30
0
11
385165.0
21
6755.0
31
0
0
LINE
8
sensors
10
385040.0
20
6920.0
30
0
11
385040.0
21
7080.0
31
0
0
LINE
8
sensors
10
385140.0
20
6920.0
30
0
11
385140.0
21
7080.0
31
0
0
LINE
8
sensors
10
385040.0
20
6920.0
30
0
11
385140.0
21
6920.0
31
0
0
LINE
8
sensors
10
385040.0
20
7080.0
30
0
11
385140.0
21
7080.0
31
0
0
LINE
8
sensors
10
385145.0
20
6945.0
30
0
11
385145.0
21
7055.0
31
0
0
LINE
8
sensors
10
385165.0
20
6945.0
30
0
11
385165.0
21
7055.0
31
0
0
LINE
8
sensors
10
385145.0
20
6945.0
30
0
11
385165.0
21
6945.0
31
0
0
LINE
8
sensors
10
385145.0
20
7055.0
30
0
11
385165.0
21
7055.0
31
0
0
LINE
8
sensors
10
400080.0
20
12000.0
30
0
11
400000.0
21
12080.0
31
0
0
LINE
8
sensors
10
400000.0
20
12080.0
30
0
11
399920.0
21
12000.0
31
0
0
LINE
8
sensors
10
399920.0
20
12000.0
30
0
11
400000.0
21
11920.0
31
0
0
LINE
8
sensors
10
400000.0
20
11920.0
30
0
11
400080.0
21
12000.0
31
0
0
LINE
8
sensors
10
400000.0
20
12000.0
30
0
11
400065.0
21
12000.0
31
0
0
LINE
8
sensors
10
400065.0
20
12000.0
30
0
11
400000.0
21
12000.0
31
0
0
LINE
8
sensors
10
385040.0
20
7520.0
30
0
11
385040.0
21
7680.0
31
0
0
LINE
8
sensors
10
385140.0
20
7520.0
30
0
11
385140.0
21
7680.0
31
0
0
LINE
8
sensors
10
385040.0
20
7520.0
30
0
11
385140.0
21
7520.0
31
0
0
LINE
8
sensors
10
385040.0
20
7680.0
30
0
11
385140.0
21
7680.0
31
0
0
LINE
8
sensors
10
385145.0
20
7545.0
30
0
11
385145.0
21
7655.0
31
0
0
LINE
8
sensors
10
385165.0
20
7545.0
30
0
11
385165.0
21
7655.0
31
0
0
LINE
8
sensors
10
385145.0
20
7545.0
30
0
11
385165.0
21
7545.0
31
0
0
LINE
8
sensors
10
385145.0
20
7655.0
30
0
11
385165.0
21
7655.0
31
0
0
LINE
8
sensors
10
395280.0
20
2400.0
30
0
11
395280.0
21
2325.0
31
0
0
LINE
8
sensors
10
395280.0
20
2325.0
30
0
11
395280.0
21
2400.0
31
0
0
LINE
8
sensors
10
395280.0
20
2400.0
30
0
11
395280.0
21
2475.0
31
0
0
LINE
8
sensors
10
395280.0
20
2475.0
30
0
11
395280.0
21
2400.0
31
0
0
LINE
8
sensors
10
395060.0
20
2400.0
30
0
11
395280.0
21
2400.0
31
0
0
LINE
8
sensors
10
395060.0
20
2400.0
30
0
11
395060.0
21
2325.0
31
0
0
LINE
8
sensors
10
395060.0
20
2325.0
30
0
11
395060.0
21
2400.0
31
0
0
LINE
8
sensors
10
395060.0
20
2400.0
30
0
11
395060.0
21
2475.0
31
0
0
LINE
8
sensors
10
395060.0
20
2475.0
30
0
11
395060.0
21
2400.0
31
0
0
LINE
8
sensors
10
395090.0
20
2330.0
30
0
11
395090.0
21
2470.0
31
0
0
LINE
8
sensors
10
395250.0
20
2330.0
30
0
11
395250.0
21
2470.0
31
0
0
LINE
8
sensors
10
395090.0
20
2330.0
30
0
11
395250.0
21
2330.0
31
0
0
LINE
8
sensors
10
395090.0
20
2470.0
30
0
11
395250.0
21
2470.0
31
0
0
ENDSEC
0
EOF
