0
SECTION
2
HEADER
9
$ACADVER
1
AC1015
9
$INSUNITS
70
4
0
ENDSEC
0
SECTION
2
ENTITIES
0
LINE
8
interiors
10
-336000.0
20
2000.0
30
0
11
-336000.0
21
22000.0
31
0
0
LINE
8
interiors
10
-336000.0
20
2000.0
30
0
11
-322200.0
21
2000.0
31
0
0
LINE
8
interiors
10
-322200.0
20
2000.0
30
0
11
-319800.0
21
2000.0
31
0
0
LINE
8
interiors
10
-319800.0
20
2000.0
30
0
11
-306000.0
21
2000.0
31
0
0
LINE
8
interiors
10
-336000.0
20
2000.0
30
0
11
-306000.0
21
2000.0
31
0
0
LINE
8
interiors
10
-336000.0
20
22000.0
30
0
11
-306000.0
21
22000.0
31
0
0
LINE
8
interiors
10
-306000.0
20
2000.0
30
0
11
-306000.0
21
22000.0
31
0
0
LINE
8
interiors
10
-306120.0
20
2120.0
30
0
11
-335880.0
21
2120.0
31
0
0
LINE
8
interiors
10
-306120.0
20
2120.0
30
0
11
-306120.0
21
21880.0
31
0
0
LINE
8
interiors
10
-306120.0
20
21880.0
30
0
11
-335880.0
21
21880.0
31
0
0
LINE
8
interiors
10
-335880.0
20
2120.0
30
0
11
-335880.0
21
21880.0
31
0
0
LINE
8
interiors
10
-328800.0
20
22000.0
30
0
11
-313200.0
21
22000.0
31
0
0
LINE
8
interiors
10
-319800.0
20
2000.0
30
0
11
-319800.0
21
2120.0
31
0
0
LINE
8
interiors
10
-306120.0
20
2120.0
30
0
11
-319800.0
21
2120.0
31
0
0
LINE
8
interiors
10
-322200.0
20
2120.0
30
0
11
-335880.0
21
2120.0
31
0
0
LINE
8
interiors
10
-322200.0
20
2000.0
30
0
11
-322200.0
21
2120.0
31
0
0
LINE
8
interiors
10
-322200.0
20
2120.0
30
0
11
-319800.0
21
2120.0
31
0
0
LINE
8
interiors
10
-328800.0
20
21880.0
30
0
11
-313200.0
21
21880.0
31
0
0
LINE
8
interiors
10
-328800.0
20
21880.0
30
0
11
-328800.0
21
22000.0
31
0
0
LINE
8
interiors
10
-313200.0
20
21880.0
30
0
11
-313200.0
21
22000.0
31
0
0
LINE
8
interiors
10
-328800.0
20
21977.5
30
0
11
-328800.0
21
22022.5
31
0
0
LINE
8
interiors
10
-313200.0
20
21977.5
30
0
11
-313200.0
21
22022.5
31
0
0
LINE
8
interiors
10
-328800.0
20
21977.5
30
0
11
-313200.0
21
21977.5
31
0
0
LINE
8
interiors
10
-328800.0
20
22022.5
30
0
11
-313200.0
21
22022.5
31
0
0
LINE
8
interiors
10
-335875.0
20
2125.0
30
0
11
-335875.0
21
21875.0
31
0
0
LINE
8
interiors
10
-306125.0
20
2125.0
30
0
11
-306125.0
21
21875.0
31
0
0
LINE
8
interiors
10
-335875.0
20
2125.0
30
0
11
-306125.0
21
2125.0
31
0
0
LINE
8
interiors
10
-335875.0
20
21875.0
30
0
11
-306125.0
21
21875.0
31
0
0
LINE
8
interiors
10
-322155.0
20
1880.0
30
0
11
-322155.0
21
2120.0
31
0
0
LINE
8
interiors
10
-322085.0
20
1880.0
30
0
11
-322085.0
21
2120.0
31
0
0
LINE
8
interiors
10
-322155.0
20
1880.0
30
0
11
-322085.0
21
1880.0
31
0
0
LINE
8
interiors
10
-322155.0
20
2120.0
30
0
11
-322085.0
21
2120.0
31
0
0
LINE
8
interiors
10
-319915.0
20
1880.0
30
0
11
-319915.0
21
2120.0
31
0
0
LINE
8
interiors
10
-319845.0
20
1880.0
30
0
11
-319845.0
21
2120.0
31
0
0
LINE
8
interiors
10
-319915.0
20
1880.0
30
0
11
-319845.0
21
1880.0
31
0
0
LINE
8
interiors
10
-319915.0
20
2120.0
30
0
11
-319845.0
21
2120.0
31
0
0
LINE
8
interiors
10
-322150.0
20
1880.0
30
0
11
-322150.0
21
2120.0
31
0
0
LINE
8
interiors
10
-319850.0
20
1880.0
30
0
11
-319850.0
21
2120.0
31
0
0
LINE
8
interiors
10
-322150.0
20
1880.0
30
0
11
-319850.0
21
1880.0
31
0
0
LINE
8
interiors
10
-322150.0
20
2120.0
30
0
11
-319850.0
21
2120.0
31
0
0
LINE
8
interiors
10
-322069.61
20
2090.49
30
0
11
-322110.39
21
2109.51
31
0
0
LINE
8
interiors
10
-321613.18
20
3069.3
30
0
11
-321653.96
21
3088.32
31
0
0
LINE
8
interiors
10
-322069.61
20
2090.49
30
0
11
-321613.18
21
3069.3
31
0
0
LINE
8
interiors
10
-322110.39
20
2109.51
30
0
11
-321653.96
21
3088.32
31
0
0
LINE
8
interiors
10
-329795.0
20
15500.0
30
0
11
-329795.0
21
16500.0
31
0
0
LINE
8
interiors
10
-329705.0
20
15500.0
30
0
11
-329705.0
21
16500.0
31
0
0
LINE
8
interiors
10
-329795.0
20
15500.0
30
0
11
-329705.0
21
15500.0
31
0
0
LINE
8
interiors
10
-329795.0
20
16500.0
30
0
11
-329705.0
21
16500.0
31
0
0
LINE
8
interiors
10
-327295.0
20
15500.0
30
0
11
-327295.0
21
16500.0
31
0
0
LINE
8
interiors
10
-327205.0
20
15500.0
30
0
11
-327205.0
21
16500.0
31
0
0
LINE
8
interiors
10
-327295.0
20
15500.0
30
0
11
-327205.0
21
15500.0
31
0
0
LINE
8
interiors
10
-327295.0
20
16500.0
30
0
11
-327205.0
21
16500.0
31
0
0
LINE
8
interiors
10
-329800.0
20
15500.0
30
0
11
-329800.0
21
16500.0
31
0
0
LINE
8
interiors
10
-327200.0
20
15500.0
30
0
11
-327200.0
21
16500.0
31
0
0
LINE
8
interiors
10
-329800.0
20
15500.0
30
0
11
-327200.0
21
15500.0
31
0
0
LINE
8
interiors
10
-329800.0
20
16500.0
30
0
11
-327200.0
21
16500.0
31
0
0
LINE
8
interiors
10
-314795.0
20
15500.0
30
0
11
-314795.0
21
16500.0
31
0
0
LINE
8
interiors
10
-314705.0
20
15500.0
30
0
11
-314705.0
21
16500.0
31
0
0
LINE
8
interiors
10
-314795.0
20
15500.0
30
0
11
-314705.0
21
15500.0
31
0
0
LINE
8
interiors
10
-314795.0
20
16500.0
30
0
11
-314705.0
21
16500.0
31
0
0
LINE
8
interiors
10
-312295.0
20
15500.0
30
0
11
-312295.0
21
16500.0
31
0
0
LINE
8
interiors
10
-312205.0
20
15500.0
30
0
11
-312205.0
21
16500.0
31
0
0
LINE
8
interiors
10
-312295.0
20
15500.0
30
0
11
-312205.0
21
15500.0
31
0
0
LINE
8
interiors
10
-312295.0
20
16500.0
30
0
11
-312205.0
21
16500.0
31
0
0
LINE
8
interiors
10
-314800.0
20
15500.0
30
0
11
-314800.0
21
16500.0
31
0
0
LINE
8
interiors
10
-312200.0
20
15500.0
30
0
11
-312200.0
21
16500.0
31
0
0
LINE
8
interiors
10
-314800.0
20
15500.0
30
0
11
-312200.0
21
15500.0
31
0
0
LINE
8
interiors
10
-314800.0
20
16500.0
30
0
11
-312200.0
21
16500.0
31
0
0
LINE
8
interiors
10
-322400.0
20
7350.0
30
0
11
-322400.0
21
7850.0
31
0
0
LINE
8
interiors
10
-319600.0
20
7350.0
30
0
11
-319600.0
21
7850.0
31
0
0
LINE
8
interiors
10
-322400.0
20
7350.0
30
0
11
-319600.0
21
7350.0
31
0
0
LINE
8
interiors
10
-322400.0
20
7850.0
30
0
11
-319600.0
21
7850.0
31
0
0
LINE
8
interiors
10
-322335.0
20
7415.0
30
0
11
-322335.0
21
7485.0
31
0
0
LINE
8
interiors
10
-322265.0
20
7415.0
30
0
11
-322265.0
21
7485.0
31
0
0
LINE
8
interiors
10
-322335.0
20
7415.0
30
0
11
-322265.0
21
7415.0
31
0
0
LINE
8
interiors
10
-322335.0
20
7485.0
30
0
11
-322265.0
21
7485.0
31
0
0
LINE
8
interiors
10
-322335.0
20
7715.0
30
0
11
-322335.0
21
7785.0
31
0
0
LINE
8
interiors
10
-322265.0
20
7715.0
30
0
11
-322265.0
21
7785.0
31
0
0
LINE
8
interiors
10
-322335.0
20
7715.0
30
0
11
-322265.0
21
7715.0
31
0
0
LINE
8
interiors
10
-322335.0
20
7785.0
30
0
11
-322265.0
21
7785.0
31
0
0
LINE
8
interiors
10
-319735.0
20
7415.0
30
0
11
-319735.0
21
7485.0
31
0
0
LINE
8
interiors
10
-319665.0
20
7415.0
30
0
11
-319665.0
21
7485.0
31
0
0
LINE
8
interiors
10
-319735.0
20
7415.0
30
0
11
-319665.0
21
7415.0
31
0
0
LINE
8
interiors
10
-319735.0
20
7485.0
30
0
11
-319665.0
21
7485.0
31
0
0
LINE
8
interiors
10
-319735.0
20
7715.0
30
0
11
-319735.0
21
7785.0
31
0
0
LINE
8
interiors
10
-319665.0
20
7715.0
30
0
11
-319665.0
21
7785.0
31
0
0
LINE
8
interiors
10
-319735.0
20
7715.0
30
0
11
-319665.0
21
7715.0
31
0
0
LINE
8
interiors
10
-319735.0
20
7785.0
30
0
11
-319665.0
21
7785.0
31
0
0
LINE
8
electrical
10
-306725.0
20
2075.0
30
0
11
-306725.0
21
2325.0
31
0
0
LINE
8
electrical
10
-306175.0
20
2075.0
30
0
11
-306175.0
21
2325.0
31
0
0
LINE
8
electrical
10
-306725.0
20
2075.0
30
0
11
-306175.0
21
2075.0
31
0
0
LINE
8
electrical
10
-306725.0
20
2325.0
30
0
11
-306175.0
21
2325.0
31
0
0
LINE
8
electrical
10
-306685.0
20
2047.5
30
0
11
-306685.0
21
2082.5
31
0
0
LINE
8
electrical
10
-306215.0
20
2047.5
30
0
11
-306215.0
21
2082.5
31
0
0
LINE
8
electrical
10
-306685.0
20
2047.5
30
0
11
-306215.0
21
2047.5
31
0
0
LINE
8
electrical
10
-306685.0
20
2082.5
30
0
11
-306215.0
21
2082.5
31
0
0
LINE
8
electrical
10
-306637.5
20
2010.0
30
0
11
-306637.5
21
2050.0
31
0
0
LINE
8
electrical
10
-306537.5
20
2010.0
30
0
11
-306537.5
21
2050.0
31
0
0
LINE
8
electrical
10
-306637.5
20
2010.0
30
0
11
-306537.5
21
2010.0
31
0
0
LINE
8
electrical
10
-306637.5
20
2050.0
30
0
11
-306537.5
21
2050.0
31
0
0
LINE
8
electrical
10
-306500.0
20
2010.0
30
0
11
-306500.0
21
2050.0
31
0
0
LINE
8
electrical
10
-306400.0
20
2010.0
30
0
11
-306400.0
21
2050.0
31
0
0
LINE
8
electrical
10
-306500.0
20
2010.0
30
0
11
-306400.0
21
2010.0
31
0
0
LINE
8
electrical
10
-306500.0
20
2050.0
30
0
11
-306400.0
21
2050.0
31
0
0
LINE
8
electrical
10
-306362.5
20
2010.0
30
0
11
-306362.5
21
2050.0
31
0
0
LINE
8
electrical
10
-306262.5
20
2010.0
30
0
11
-306262.5
21
2050.0
31
0
0
LINE
8
electrical
10
-306362.5
20
2010.0
30
0
11
-306262.5
21
2010.0
31
0
0
LINE
8
electrical
10
-306362.5
20
2050.0
30
0
11
-306262.5
21
2050.0
31
0
0
LINE
8
electrical
10
-306587.5
20
1995.0
30
0
11
-306564.12
21
1995.0
31
0
0
LINE
8
electrical
10
-306564.12
20
1995.0
30
0
11
-306610.88
21
1995.0
31
0
0
LINE
8
electrical
10
-306610.88
20
1995.0
30
0
11
-306587.5
21
1995.0
31
0
0
LINE
8
electrical
10
-306587.5
20
2020.0
30
0
11
-306587.5
21
1995.0
31
0
0
LINE
8
electrical
10
-306587.5
20
2020.0
30
0
11
-306564.12
21
2020.0
31
0
0
LINE
8
electrical
10
-306564.12
20
2020.0
30
0
11
-306610.88
21
2020.0
31
0
0
LINE
8
electrical
10
-306610.88
20
2020.0
30
0
11
-306587.5
21
2020.0
31
0
0
LINE
8
electrical
10
-306450.0
20
1995.0
30
0
11
-306426.62
21
1995.0
31
0
0
LINE
8
electrical
10
-306426.62
20
1995.0
30
0
11
-306473.38
21
1995.0
31
0
0
LINE
8
electrical
10
-306473.38
20
1995.0
30
0
11
-306450.0
21
1995.0
31
0
0
LINE
8
electrical
10
-306450.0
20
2020.0
30
0
11
-306450.0
21
1995.0
31
0
0
LINE
8
electrical
10
-306450.0
20
2020.0
30
0
11
-306426.62
21
2020.0
31
0
0
LINE
8
electrical
10
-306426.62
20
2020.0
30
0
11
-306473.38
21
2020.0
31
0
0
LINE
8
electrical
10
-306473.38
20
2020.0
30
0
11
-306450.0
21
2020.0
31
0
0
LINE
8
electrical
10
-306312.5
20
1995.0
30
0
11
-306289.12
21
1995.0
31
0
0
LINE
8
electrical
10
-306289.12
20
1995.0
30
0
11
-306335.88
21
1995.0
31
0
0
LINE
8
electrical
10
-306335.88
20
1995.0
30
0
11
-306312.5
21
1995.0
31
0
0
LINE
8
electrical
10
-306312.5
20
2020.0
30
0
11
-306312.5
21
1995.0
31
0
0
LINE
8
electrical
10
-306312.5
20
2020.0
30
0
11
-306289.12
21
2020.0
31
0
0
LINE
8
electrical
10
-306289.12
20
2020.0
30
0
11
-306335.88
21
2020.0
31
0
0
LINE
8
electrical
10
-306335.88
20
2020.0
30
0
11
-306312.5
21
2020.0
31
0
0
LINE
8
electrical
10
-306450.0
20
2200.0
30
0
11
-306434.41
21
2200.0
31
0
0
LINE
8
electrical
10
-306434.41
20
2200.0
30
0
11
-306465.59
21
2200.0
31
0
0
LINE
8
electrical
10
-306465.59
20
2200.0
30
0
11
-306450.0
21
2200.0
31
0
0
LINE
8
electrical
10
-306450.0
20
-62300.0
30
0
11
-306450.0
21
2200.0
31
0
0
LINE
8
electrical
10
-306450.0
20
-62300.0
30
0
11
-306434.41
21
-62300.0
31
0
0
LINE
8
electrical
10
-306434.41
20
-62300.0
30
0
11
-306465.59
21
-62300.0
31
0
0
LINE
8
electrical
10
-306465.59
20
-62300.0
30
0
11
-306450.0
21
-62300.0
31
0
0
LINE
8
electrical
10
-306468.0
20
2200.0
30
0
11
-306441.0
21
2215.59
31
0
0
LINE
8
electrical
10
-306441.0
20
2215.59
30
0
11
-306441.0
21
2184.41
31
0
0
LINE
8
electrical
10
-306441.0
20
2184.41
30
0
11
-306468.0
21
2200.0
31
0
0
LINE
8
electrical
10
-306450.0
20
2200.0
30
0
11
-306430.56
21
2200.0
31
0
0
LINE
8
electrical
10
-306430.56
20
2200.0
30
0
11
-306450.0
21
2200.0
31
0
0
LINE
8
lighting
10
-332120.0
20
4880.0
30
0
11
-332120.0
21
5520.0
31
0
0
LINE
8
lighting
10
-331480.0
20
4880.0
30
0
11
-331480.0
21
5520.0
31
0
0
LINE
8
lighting
10
-332120.0
20
4880.0
30
0
11
-331480.0
21
4880.0
31
0
0
LINE
8
lighting
10
-332120.0
20
5520.0
30
0
11
-331480.0
21
5520.0
31
0
0
LINE
8
lighting
10
-332080.0
20
4920.0
30
0
11
-332080.0
21
5480.0
31
0
0
LINE
8
lighting
10
-331520.0
20
4920.0
30
0
11
-331520.0
21
5480.0
31
0
0
LINE
8
lighting
10
-332080.0
20
4920.0
30
0
11
-331520.0
21
4920.0
31
0
0
LINE
8
lighting
10
-332080.0
20
5480.0
30
0
11
-331520.0
21
5480.0
31
0
0
LINE
8
lighting
10
-332046.0
20
4930.0
30
0
11
-332046.0
21
5470.0
31
0
0
LINE
8
lighting
10
-332034.0
20
4930.0
30
0
11
-332034.0
21
5470.0
31
0
0
LINE
8
lighting
10
-332046.0
20
4930.0
30
0
11
-332034.0
21
4930.0
31
0
0
LINE
8
lighting
10
-332046.0
20
5470.0
30
0
11
-332034.0
21
5470.0
31
0
0
LINE
8
lighting
10
-331966.0
20
4930.0
30
0
11
-331966.0
21
5470.0
31
0
0
LINE
8
lighting
10
-331954.0
20
4930.0
30
0
11
-331954.0
21
5470.0
31
0
0
LINE
8
lighting
10
-331966.0
20
4930.0
30
0
11
-331954.0
21
4930.0
31
0
0
LINE
8
lighting
10
-331966.0
20
5470.0
30
0
11
-331954.0
21
5470.0
31
0
0
LINE
8
lighting
10
-331886.0
20
4930.0
30
0
11
-331886.0
21
5470.0
31
0
0
LINE
8
lighting
10
-331874.0
20
4930.0
30
0
11
-331874.0
21
5470.0
31
0
0
LINE
8
lighting
10
-331886.0
20
4930.0
30
0
11
-331874.0
21
4930.0
31
0
0
LINE
8
lighting
10
-331886.0
20
5470.0
30
0
11
-331874.0
21
5470.0
31
0
0
LINE
8
lighting
10
-331806.0
20
4930.0
30
0
11
-331806.0
21
5470.0
31
0
0
LINE
8
lighting
10
-331794.0
20
4930.0
30
0
11
-331794.0
21
5470.0
31
0
0
LINE
8
lighting
10
-331806.0
20
4930.0
30
0
11
-331794.0
21
4930.0
31
0
0
LINE
8
lighting
10
-331806.0
20
5470.0
30
0
11
-331794.0
21
5470.0
31
0
0
LINE
8
lighting
10
-331726.0
20
4930.0
30
0
11
-331726.0
21
5470.0
31
0
0
LINE
8
lighting
10
-331714.0
20
4930.0
30
0
11
-331714.0
21
5470.0
31
0
0
LINE
8
lighting
10
-331726.0
20
4930.0
30
0
11
-331714.0
21
4930.0
31
0
0
LINE
8
lighting
10
-331726.0
20
5470.0
30
0
11
-331714.0
21
5470.0
31
0
0
LINE
8
lighting
10
-331646.0
20
4930.0
30
0
11
-331646.0
21
5470.0
31
0
0
LINE
8
lighting
10
-331634.0
20
4930.0
30
0
11
-331634.0
21
5470.0
31
0
0
LINE
8
lighting
10
-331646.0
20
4930.0
30
0
11
-331634.0
21
4930.0
31
0
0
LINE
8
lighting
10
-331646.0
20
5470.0
30
0
11
-331634.0
21
5470.0
31
0
0
LINE
8
lighting
10
-331566.0
20
4930.0
30
0
11
-331566.0
21
5470.0
31
0
0
LINE
8
lighting
10
-331554.0
20
4930.0
30
0
11
-331554.0
21
5470.0
31
0
0
LINE
8
lighting
10
-331566.0
20
4930.0
30
0
11
-331554.0
21
4930.0
31
0
0
LINE
8
lighting
10
-331566.0
20
5470.0
30
0
11
-331554.0
21
5470.0
31
0
0
LINE
8
lighting
10
-331791.0
20
5200.0
30
0
11
-331804.5
21
5207.79
31
0
0
LINE
8
lighting
10
-331804.5
20
5207.79
30
0
11
-331804.5
21
5192.21
31
0
0
LINE
8
lighting
10
-331804.5
20
5192.21
30
0
11
-331791.0
21
5200.0
31
0
0
LINE
8
lighting
10
-310520.0
20
4880.0
30
0
11
-310520.0
21
5520.0
31
0
0
LINE
8
lighting
10
-309880.0
20
4880.0
30
0
11
-309880.0
21
5520.0
31
0
0
LINE
8
lighting
10
-310520.0
20
4880.0
30
0
11
-309880.0
21
4880.0
31
0
0
LINE
8
lighting
10
-310520.0
20
5520.0
30
0
11
-309880.0
21
5520.0
31
0
0
LINE
8
lighting
10
-310480.0
20
4920.0
30
0
11
-310480.0
21
5480.0
31
0
0
LINE
8
lighting
10
-309920.0
20
4920.0
30
0
11
-309920.0
21
5480.0
31
0
0
LINE
8
lighting
10
-310480.0
20
4920.0
30
0
11
-309920.0
21
4920.0
31
0
0
LINE
8
lighting
10
-310480.0
20
5480.0
30
0
11
-309920.0
21
5480.0
31
0
0
LINE
8
lighting
10
-310446.0
20
4930.0
30
0
11
-310446.0
21
5470.0
31
0
0
LINE
8
lighting
10
-310434.0
20
4930.0
30
0
11
-310434.0
21
5470.0
31
0
0
LINE
8
lighting
10
-310446.0
20
4930.0
30
0
11
-310434.0
21
4930.0
31
0
0
LINE
8
lighting
10
-310446.0
20
5470.0
30
0
11
-310434.0
21
5470.0
31
0
0
LINE
8
lighting
10
-310366.0
20
4930.0
30
0
11
-310366.0
21
5470.0
31
0
0
LINE
8
lighting
10
-310354.0
20
4930.0
30
0
11
-310354.0
21
5470.0
31
0
0
LINE
8
lighting
10
-310366.0
20
4930.0
30
0
11
-310354.0
21
4930.0
31
0
0
LINE
8
lighting
10
-310366.0
20
5470.0
30
0
11
-310354.0
21
5470.0
31
0
0
LINE
8
lighting
10
-310286.0
20
4930.0
30
0
11
-310286.0
21
5470.0
31
0
0
LINE
8
lighting
10
-310274.0
20
4930.0
30
0
11
-310274.0
21
5470.0
31
0
0
LINE
8
lighting
10
-310286.0
20
4930.0
30
0
11
-310274.0
21
4930.0
31
0
0
LINE
8
lighting
10
-310286.0
20
5470.0
30
0
11
-310274.0
21
5470.0
31
0
0
LINE
8
lighting
10
-310206.0
20
4930.0
30
0
11
-310206.0
21
5470.0
31
0
0
LINE
8
lighting
10
-310194.0
20
4930.0
30
0
11
-310194.0
21
5470.0
31
0
0
LINE
8
lighting
10
-310206.0
20
4930.0
30
0
11
-310194.0
21
4930.0
31
0
0
LINE
8
lighting
10
-310206.0
20
5470.0
30
0
11
-310194.0
21
5470.0
31
0
0
LINE
8
lighting
10
-310126.0
20
4930.0
30
0
11
-310126.0
21
5470.0
31
0
0
LINE
8
lighting
10
-310114.0
20
4930.0
30
0
11
-310114.0
21
5470.0
31
0
0
LINE
8
lighting
10
-310126.0
20
4930.0
30
0
11
-310114.0
21
4930.0
31
0
0
LINE
8
lighting
10
-310126.0
20
5470.0
30
0
11
-310114.0
21
5470.0
31
0
0
LINE
8
lighting
10
-310046.0
20
4930.0
30
0
11
-310046.0
21
5470.0
31
0
0
LINE
8
lighting
10
-310034.0
20
4930.0
30
0
11
-310034.0
21
5470.0
31
0
0
LINE
8
lighting
10
-310046.0
20
4930.0
30
0
11
-310034.0
21
4930.0
31
0
0
LINE
8
lighting
10
-310046.0
20
5470.0
30
0
11
-310034.0
21
5470.0
31
0
0
LINE
8
lighting
10
-309966.0
20
4930.0
30
0
11
-309966.0
21
5470.0
31
0
0
LINE
8
lighting
10
-309954.0
20
4930.0
30
0
11
-309954.0
21
5470.0
31
0
0
LINE
8
lighting
10
-309966.0
20
4930.0
30
0
11
-309954.0
21
4930.0
31
0
0
LINE
8
lighting
10
-309966.0
20
5470.0
30
0
11
-309954.0
21
5470.0
31
0
0
LINE
8
lighting
10
-310191.0
20
5200.0
30
0
11
-310204.5
21
5207.79
31
0
0
LINE
8
lighting
10
-310204.5
20
5207.79
30
0
11
-310204.5
21
5192.21
31
0
0
LINE
8
lighting
10
-310204.5
20
5192.21
30
0
11
-310191.0
21
5200.0
31
0
0
LINE
8
lighting
10
-321320.0
20
4880.0
30
0
11
-321320.0
21
5520.0
31
0
0
LINE
8
lighting
10
-320680.0
20
4880.0
30
0
11
-320680.0
21
5520.0
31
0
0
LINE
8
lighting
10
-321320.0
20
4880.0
30
0
11
-320680.0
21
4880.0
31
0
0
LINE
8
lighting
10
-321320.0
20
5520.0
30
0
11
-320680.0
21
5520.0
31
0
0
LINE
8
lighting
10
-321280.0
20
4920.0
30
0
11
-321280.0
21
5480.0
31
0
0
LINE
8
lighting
10
-320720.0
20
4920.0
30
0
11
-320720.0
21
5480.0
31
0
0
LINE
8
lighting
10
-321280.0
20
4920.0
30
0
11
-320720.0
21
4920.0
31
0
0
LINE
8
lighting
10
-321280.0
20
5480.0
30
0
11
-320720.0
21
5480.0
31
0
0
LINE
8
lighting
10
-321246.0
20
4930.0
30
0
11
-321246.0
21
5470.0
31
0
0
LINE
8
lighting
10
-321234.0
20
4930.0
30
0
11
-321234.0
21
5470.0
31
0
0
LINE
8
lighting
10
-321246.0
20
4930.0
30
0
11
-321234.0
21
4930.0
31
0
0
LINE
8
lighting
10
-321246.0
20
5470.0
30
0
11
-321234.0
21
5470.0
31
0
0
LINE
8
lighting
10
-321166.0
20
4930.0
30
0
11
-321166.0
21
5470.0
31
0
0
LINE
8
lighting
10
-321154.0
20
4930.0
30
0
11
-321154.0
21
5470.0
31
0
0
LINE
8
lighting
10
-321166.0
20
4930.0
30
0
11
-321154.0
21
4930.0
31
0
0
LINE
8
lighting
10
-321166.0
20
5470.0
30
0
11
-321154.0
21
5470.0
31
0
0
LINE
8
lighting
10
-321086.0
20
4930.0
30
0
11
-321086.0
21
5470.0
31
0
0
LINE
8
lighting
10
-321074.0
20
4930.0
30
0
11
-321074.0
21
5470.0
31
0
0
LINE
8
lighting
10
-321086.0
20
4930.0
30
0
11
-321074.0
21
4930.0
31
0
0
LINE
8
lighting
10
-321086.0
20
5470.0
30
0
11
-321074.0
21
5470.0
31
0
0
LINE
8
lighting
10
-321006.0
20
4930.0
30
0
11
-321006.0
21
5470.0
31
0
0
LINE
8
lighting
10
-320994.0
20
4930.0
30
0
11
-320994.0
21
5470.0
31
0
0
LINE
8
lighting
10
-321006.0
20
4930.0
30
0
11
-320994.0
21
4930.0
31
0
0
LINE
8
lighting
10
-321006.0
20
5470.0
30
0
11
-320994.0
21
5470.0
31
0
0
LINE
8
lighting
10
-320926.0
20
4930.0
30
0
11
-320926.0
21
5470.0
31
0
0
LINE
8
lighting
10
-320914.0
20
4930.0
30
0
11
-320914.0
21
5470.0
31
0
0
LINE
8
lighting
10
-320926.0
20
4930.0
30
0
11
-320914.0
21
4930.0
31
0
0
LINE
8
lighting
10
-320926.0
20
5470.0
30
0
11
-320914.0
21
5470.0
31
0
0
LINE
8
lighting
10
-320846.0
20
4930.0
30
0
11
-320846.0
21
5470.0
31
0
0
LINE
8
lighting
10
-320834.0
20
4930.0
30
0
11
-320834.0
21
5470.0
31
0
0
LINE
8
lighting
10
-320846.0
20
4930.0
30
0
11
-320834.0
21
4930.0
31
0
0
LINE
8
lighting
10
-320846.0
20
5470.0
30
0
11
-320834.0
21
5470.0
31
0
0
LINE
8
lighting
10
-320766.0
20
4930.0
30
0
11
-320766.0
21
5470.0
31
0
0
LINE
8
lighting
10
-320754.0
20
4930.0
30
0
11
-320754.0
21
5470.0
31
0
0
LINE
8
lighting
10
-320766.0
20
4930.0
30
0
11
-320754.0
21
4930.0
31
0
0
LINE
8
lighting
10
-320766.0
20
5470.0
30
0
11
-320754.0
21
5470.0
31
0
0
LINE
8
lighting
10
-320991.0
20
5200.0
30
0
11
-321004.5
21
5207.79
31
0
0
LINE
8
lighting
10
-321004.5
20
5207.79
30
0
11
-321004.5
21
5192.21
31
0
0
LINE
8
lighting
10
-321004.5
20
5192.21
30
0
11
-320991.0
21
5200.0
31
0
0
LINE
8
lighting
10
-332120.0
20
18480.0
30
0
11
-332120.0
21
19120.0
31
0
0
LINE
8
lighting
10
-331480.0
20
18480.0
30
0
11
-331480.0
21
19120.0
31
0
0
LINE
8
lighting
10
-332120.0
20
18480.0
30
0
11
-331480.0
21
18480.0
31
0
0
LINE
8
lighting
10
-332120.0
20
19120.0
30
0
11
-331480.0
21
19120.0
31
0
0
LINE
8
lighting
10
-332080.0
20
18520.0
30
0
11
-332080.0
21
19080.0
31
0
0
LINE
8
lighting
10
-331520.0
20
18520.0
30
0
11
-331520.0
21
19080.0
31
0
0
LINE
8
lighting
10
-332080.0
20
18520.0
30
0
11
-331520.0
21
18520.0
31
0
0
LINE
8
lighting
10
-332080.0
20
19080.0
30
0
11
-331520.0
21
19080.0
31
0
0
LINE
8
lighting
10
-332046.0
20
18530.0
30
0
11
-332046.0
21
19070.0
31
0
0
LINE
8
lighting
10
-332034.0
20
18530.0
30
0
11
-332034.0
21
19070.0
31
0
0
LINE
8
lighting
10
-332046.0
20
18530.0
30
0
11
-332034.0
21
18530.0
31
0
0
LINE
8
lighting
10
-332046.0
20
19070.0
30
0
11
-332034.0
21
19070.0
31
0
0
LINE
8
lighting
10
-331966.0
20
18530.0
30
0
11
-331966.0
21
19070.0
31
0
0
LINE
8
lighting
10
-331954.0
20
18530.0
30
0
11
-331954.0
21
19070.0
31
0
0
LINE
8
lighting
10
-331966.0
20
18530.0
30
0
11
-331954.0
21
18530.0
31
0
0
LINE
8
lighting
10
-331966.0
20
19070.0
30
0
11
-331954.0
21
19070.0
31
0
0
LINE
8
lighting
10
-331886.0
20
18530.0
30
0
11
-331886.0
21
19070.0
31
0
0
LINE
8
lighting
10
-331874.0
20
18530.0
30
0
11
-331874.0
21
19070.0
31
0
0
LINE
8
lighting
10
-331886.0
20
18530.0
30
0
11
-331874.0
21
18530.0
31
0
0
LINE
8
lighting
10
-331886.0
20
19070.0
30
0
11
-331874.0
21
19070.0
31
0
0
LINE
8
lighting
10
-331806.0
20
18530.0
30
0
11
-331806.0
21
19070.0
31
0
0
LINE
8
lighting
10
-331794.0
20
18530.0
30
0
11
-331794.0
21
19070.0
31
0
0
LINE
8
lighting
10
-331806.0
20
18530.0
30
0
11
-331794.0
21
18530.0
31
0
0
LINE
8
lighting
10
-331806.0
20
19070.0
30
0
11
-331794.0
21
19070.0
31
0
0
LINE
8
lighting
10
-331726.0
20
18530.0
30
0
11
-331726.0
21
19070.0
31
0
0
LINE
8
lighting
10
-331714.0
20
18530.0
30
0
11
-331714.0
21
19070.0
31
0
0
LINE
8
lighting
10
-331726.0
20
18530.0
30
0
11
-331714.0
21
18530.0
31
0
0
LINE
8
lighting
10
-331726.0
20
19070.0
30
0
11
-331714.0
21
19070.0
31
0
0
LINE
8
lighting
10
-331646.0
20
18530.0
30
0
11
-331646.0
21
19070.0
31
0
0
LINE
8
lighting
10
-331634.0
20
18530.0
30
0
11
-331634.0
21
19070.0
31
0
0
LINE
8
lighting
10
-331646.0
20
18530.0
30
0
11
-331634.0
21
18530.0
31
0
0
LINE
8
lighting
10
-331646.0
20
19070.0
30
0
11
-331634.0
21
19070.0
31
0
0
LINE
8
lighting
10
-331566.0
20
18530.0
30
0
11
-331566.0
21
19070.0
31
0
0
LINE
8
lighting
10
-331554.0
20
18530.0
30
0
11
-331554.0
21
19070.0
31
0
0
LINE
8
lighting
10
-331566.0
20
18530.0
30
0
11
-331554.0
21
18530.0
31
0
0
LINE
8
lighting
10
-331566.0
20
19070.0
30
0
11
-331554.0
21
19070.0
31
0
0
LINE
8
lighting
10
-331791.0
20
18800.0
30
0
11
-331804.5
21
18807.79
31
0
0
LINE
8
lighting
10
-331804.5
20
18807.79
30
0
11
-331804.5
21
18792.21
31
0
0
LINE
8
lighting
10
-331804.5
20
18792.21
30
0
11
-331791.0
21
18800.0
31
0
0
LINE
8
lighting
10
-310520.0
20
18480.0
30
0
11
-310520.0
21
19120.0
31
0
0
LINE
8
lighting
10
-309880.0
20
18480.0
30
0
11
-309880.0
21
19120.0
31
0
0
LINE
8
lighting
10
-310520.0
20
18480.0
30
0
11
-309880.0
21
18480.0
31
0
0
LINE
8
lighting
10
-310520.0
20
19120.0
30
0
11
-309880.0
21
19120.0
31
0
0
LINE
8
lighting
10
-310480.0
20
18520.0
30
0
11
-310480.0
21
19080.0
31
0
0
LINE
8
lighting
10
-309920.0
20
18520.0
30
0
11
-309920.0
21
19080.0
31
0
0
LINE
8
lighting
10
-310480.0
20
18520.0
30
0
11
-309920.0
21
18520.0
31
0
0
LINE
8
lighting
10
-310480.0
20
19080.0
30
0
11
-309920.0
21
19080.0
31
0
0
LINE
8
lighting
10
-310446.0
20
18530.0
30
0
11
-310446.0
21
19070.0
31
0
0
LINE
8
lighting
10
-310434.0
20
18530.0
30
0
11
-310434.0
21
19070.0
31
0
0
LINE
8
lighting
10
-310446.0
20
18530.0
30
0
11
-310434.0
21
18530.0
31
0
0
LINE
8
lighting
10
-310446.0
20
19070.0
30
0
11
-310434.0
21
19070.0
31
0
0
LINE
8
lighting
10
-310366.0
20
18530.0
30
0
11
-310366.0
21
19070.0
31
0
0
LINE
8
lighting
10
-310354.0
20
18530.0
30
0
11
-310354.0
21
19070.0
31
0
0
LINE
8
lighting
10
-310366.0
20
18530.0
30
0
11
-310354.0
21
18530.0
31
0
0
LINE
8
lighting
10
-310366.0
20
19070.0
30
0
11
-310354.0
21
19070.0
31
0
0
LINE
8
lighting
10
-310286.0
20
18530.0
30
0
11
-310286.0
21
19070.0
31
0
0
LINE
8
lighting
10
-310274.0
20
18530.0
30
0
11
-310274.0
21
19070.0
31
0
0
LINE
8
lighting
10
-310286.0
20
18530.0
30
0
11
-310274.0
21
18530.0
31
0
0
LINE
8
lighting
10
-310286.0
20
19070.0
30
0
11
-310274.0
21
19070.0
31
0
0
LINE
8
lighting
10
-310206.0
20
18530.0
30
0
11
-310206.0
21
19070.0
31
0
0
LINE
8
lighting
10
-310194.0
20
18530.0
30
0
11
-310194.0
21
19070.0
31
0
0
LINE
8
lighting
10
-310206.0
20
18530.0
30
0
11
-310194.0
21
18530.0
31
0
0
LINE
8
lighting
10
-310206.0
20
19070.0
30
0
11
-310194.0
21
19070.0
31
0
0
LINE
8
lighting
10
-310126.0
20
18530.0
30
0
11
-310126.0
21
19070.0
31
0
0
LINE
8
lighting
10
-310114.0
20
18530.0
30
0
11
-310114.0
21
19070.0
31
0
0
LINE
8
lighting
10
-310126.0
20
18530.0
30
0
11
-310114.0
21
18530.0
31
0
0
LINE
8
lighting
10
-310126.0
20
19070.0
30
0
11
-310114.0
21
19070.0
31
0
0
LINE
8
lighting
10
-310046.0
20
18530.0
30
0
11
-310046.0
21
19070.0
31
0
0
LINE
8
lighting
10
-310034.0
20
18530.0
30
0
11
-310034.0
21
19070.0
31
0
0
LINE
8
lighting
10
-310046.0
20
18530.0
30
0
11
-310034.0
21
18530.0
31
0
0
LINE
8
lighting
10
-310046.0
20
19070.0
30
0
11
-310034.0
21
19070.0
31
0
0
LINE
8
lighting
10
-309966.0
20
18530.0
30
0
11
-309966.0
21
19070.0
31
0
0
LINE
8
lighting
10
-309954.0
20
18530.0
30
0
11
-309954.0
21
19070.0
31
0
0
LINE
8
lighting
10
-309966.0
20
18530.0
30
0
11
-309954.0
21
18530.0
31
0
0
LINE
8
lighting
10
-309966.0
20
19070.0
30
0
11
-309954.0
21
19070.0
31
0
0
LINE
8
lighting
10
-310191.0
20
18800.0
30
0
11
-310204.5
21
18807.79
31
0
0
LINE
8
lighting
10
-310204.5
20
18807.79
30
0
11
-310204.5
21
18792.21
31
0
0
LINE
8
lighting
10
-310204.5
20
18792.21
30
0
11
-310191.0
21
18800.0
31
0
0
LINE
8
lighting
10
-321320.0
20
18480.0
30
0
11
-321320.0
21
19120.0
31
0
0
LINE
8
lighting
10
-320680.0
20
18480.0
30
0
11
-320680.0
21
19120.0
31
0
0
LINE
8
lighting
10
-321320.0
20
18480.0
30
0
11
-320680.0
21
18480.0
31
0
0
LINE
8
lighting
10
-321320.0
20
19120.0
30
0
11
-320680.0
21
19120.0
31
0
0
LINE
8
lighting
10
-321280.0
20
18520.0
30
0
11
-321280.0
21
19080.0
31
0
0
LINE
8
lighting
10
-320720.0
20
18520.0
30
0
11
-320720.0
21
19080.0
31
0
0
LINE
8
lighting
10
-321280.0
20
18520.0
30
0
11
-320720.0
21
18520.0
31
0
0
LINE
8
lighting
10
-321280.0
20
19080.0
30
0
11
-320720.0
21
19080.0
31
0
0
LINE
8
lighting
10
-321246.0
20
18530.0
30
0
11
-321246.0
21
19070.0
31
0
0
LINE
8
lighting
10
-321234.0
20
18530.0
30
0
11
-321234.0
21
19070.0
31
0
0
LINE
8
lighting
10
-321246.0
20
18530.0
30
0
11
-321234.0
21
18530.0
31
0
0
LINE
8
lighting
10
-321246.0
20
19070.0
30
0
11
-321234.0
21
19070.0
31
0
0
LINE
8
lighting
10
-321166.0
20
18530.0
30
0
11
-321166.0
21
19070.0
31
0
0
LINE
8
lighting
10
-321154.0
20
18530.0
30
0
11
-321154.0
21
19070.0
31
0
0
LINE
8
lighting
10
-321166.0
20
18530.0
30
0
11
-321154.0
21
18530.0
31
0
0
LINE
8
lighting
10
-321166.0
20
19070.0
30
0
11
-321154.0
21
19070.0
31
0
0
LINE
8
lighting
10
-321086.0
20
18530.0
30
0
11
-321086.0
21
19070.0
31
0
0
LINE
8
lighting
10
-321074.0
20
18530.0
30
0
11
-321074.0
21
19070.0
31
0
0
LINE
8
lighting
10
-321086.0
20
18530.0
30
0
11
-321074.0
21
18530.0
31
0
0
LINE
8
lighting
10
-321086.0
20
19070.0
30
0
11
-321074.0
21
19070.0
31
0
0
LINE
8
lighting
10
-321006.0
20
18530.0
30
0
11
-321006.0
21
19070.0
31
0
0
LINE
8
lighting
10
-320994.0
20
18530.0
30
0
11
-320994.0
21
19070.0
31
0
0
LINE
8
lighting
10
-321006.0
20
18530.0
30
0
11
-320994.0
21
18530.0
31
0
0
LINE
8
lighting
10
-321006.0
20
19070.0
30
0
11
-320994.0
21
19070.0
31
0
0
LINE
8
lighting
10
-320926.0
20
18530.0
30
0
11
-320926.0
21
19070.0
31
0
0
LINE
8
lighting
10
-320914.0
20
18530.0
30
0
11
-320914.0
21
19070.0
31
0
0
LINE
8
lighting
10
-320926.0
20
18530.0
30
0
11
-320914.0
21
18530.0
31
0
0
LINE
8
lighting
10
-320926.0
20
19070.0
30
0
11
-320914.0
21
19070.0
31
0
0
LINE
8
lighting
10
-320846.0
20
18530.0
30
0
11
-320846.0
21
19070.0
31
0
0
LINE
8
lighting
10
-320834.0
20
18530.0
30
0
11
-320834.0
21
19070.0
31
0
0
LINE
8
lighting
10
-320846.0
20
18530.0
30
0
11
-320834.0
21
18530.0
31
0
0
LINE
8
lighting
10
-320846.0
20
19070.0
30
0
11
-320834.0
21
19070.0
31
0
0
LINE
8
lighting
10
-320766.0
20
18530.0
30
0
11
-320766.0
21
19070.0
31
0
0
LINE
8
lighting
10
-320754.0
20
18530.0
30
0
11
-320754.0
21
19070.0
31
0
0
LINE
8
lighting
10
-320766.0
20
18530.0
30
0
11
-320754.0
21
18530.0
31
0
0
LINE
8
lighting
10
-320766.0
20
19070.0
30
0
11
-320754.0
21
19070.0
31
0
0
LINE
8
lighting
10
-320991.0
20
18800.0
30
0
11
-321004.5
21
18807.79
31
0
0
LINE
8
lighting
10
-321004.5
20
18807.79
30
0
11
-321004.5
21
18792.21
31
0
0
LINE
8
lighting
10
-321004.5
20
18792.21
30
0
11
-320991.0
21
18800.0
31
0
0
LINE
8
electrical
10
-331800.0
20
4880.0
30
0
11
-331800.0
21
4872.21
31
0
0
LINE
8
electrical
10
-331800.0
20
4872.21
30
0
11
-331800.0
21
4887.79
31
0
0
LINE
8
electrical
10
-331800.0
20
4887.79
30
0
11
-331800.0
21
4880.0
31
0
0
LINE
8
electrical
10
-306450.0
20
4880.0
30
0
11
-331800.0
21
4880.0
31
0
0
LINE
8
electrical
10
-306450.0
20
4880.0
30
0
11
-306450.0
21
4872.21
31
0
0
LINE
8
electrical
10
-306450.0
20
4872.21
30
0
11
-306450.0
21
4887.79
31
0
0
LINE
8
electrical
10
-306450.0
20
4887.79
30
0
11
-306450.0
21
4880.0
31
0
0
LINE
8
electrical
10
-331800.0
20
18800.0
30
0
11
-331792.21
21
18800.0
31
0
0
LINE
8
electrical
10
-331792.21
20
18800.0
30
0
11
-331807.79
21
18800.0
31
0
0
LINE
8
electrical
10
-331807.79
20
18800.0
30
0
11
-331800.0
21
18800.0
31
0
0
LINE
8
electrical
10
-331800.0
20
4880.0
30
0
11
-331800.0
21
18800.0
31
0
0
LINE
8
electrical
10
-331800.0
20
4880.0
30
0
11
-331792.21
21
4880.0
31
0
0
LINE
8
electrical
10
-331792.21
20
4880.0
30
0
11
-331807.79
21
4880.0
31
0
0
LINE
8
electrical
10
-331807.79
20
4880.0
30
0
11
-331800.0
21
4880.0
31
0
0
LINE
8
electrical
10
-310200.0
20
18800.0
30
0
11
-310192.21
21
18800.0
31
0
0
LINE
8
electrical
10
-310192.21
20
18800.0
30
0
11
-310207.79
21
18800.0
31
0
0
LINE
8
electrical
10
-310207.79
20
18800.0
30
0
11
-310200.0
21
18800.0
31
0
0
LINE
8
electrical
10
-310200.0
20
4880.0
30
0
11
-310200.0
21
18800.0
31
0
0
LINE
8
electrical
10
-310200.0
20
4880.0
30
0
11
-310192.21
21
4880.0
31
0
0
LINE
8
electrical
10
-310192.21
20
4880.0
30
0
11
-310207.79
21
4880.0
31
0
0
LINE
8
electrical
10
-310207.79
20
4880.0
30
0
11
-310200.0
21
4880.0
31
0
0
LINE
8
electrical
10
-321000.0
20
18800.0
30
0
11
-320992.21
21
18800.0
31
0
0
LINE
8
electrical
10
-320992.21
20
18800.0
30
0
11
-321007.79
21
18800.0
31
0
0
LINE
8
electrical
10
-321007.79
20
18800.0
30
0
11
-321000.0
21
18800.0
31
0
0
LINE
8
electrical
10
-321000.0
20
4880.0
30
0
11
-321000.0
21
18800.0
31
0
0
LINE
8
electrical
10
-321000.0
20
4880.0
30
0
11
-320992.21
21
4880.0
31
0
0
LINE
8
electrical
10
-320992.21
20
4880.0
30
0
11
-321007.79
21
4880.0
31
0
0
LINE
8
electrical
10
-321007.79
20
4880.0
30
0
11
-321000.0
21
4880.0
31
0
0
LINE
8
electrical
10
-306437.0
20
2200.0
30
0
11
-306456.5
21
2211.26
31
0
0
LINE
8
electrical
10
-306456.5
20
2211.26
30
0
11
-306456.5
21
2188.74
31
0
0
LINE
8
electrical
10
-306456.5
20
2188.74
30
0
11
-306437.0
21
2200.0
31
0
0
LINE
8
electrical
10
-310507.17
20
4869.16
30
0
11
-310496.41
21
4885.42
31
0
0
LINE
8
electrical
10
-310496.41
20
4885.42
30
0
11
-310496.41
21
4885.42
31
0
0
LINE
8
electrical
10
-310496.41
20
4885.42
30
0
11
-310507.17
21
4869.16
31
0
0
LINE
8
electrical
10
-306457.17
20
2189.16
30
0
11
-310507.17
21
4869.16
31
0
0
LINE
8
electrical
10
-306457.17
20
2189.16
30
0
11
-306446.41
21
2205.42
31
0
0
LINE
8
electrical
10
-306446.41
20
2205.42
30
0
11
-306446.41
21
2205.42
31
0
0
LINE
8
electrical
10
-306446.41
20
2205.42
30
0
11
-306457.17
21
2189.16
31
0
0
LINE
8
electrical
10
-331500.0
20
4880.0
30
0
11
-331500.0
21
4868.74
31
0
0
LINE
8
electrical
10
-331500.0
20
4868.74
30
0
11
-331500.0
21
4891.26
31
0
0
LINE
8
electrical
10
-331500.0
20
4891.26
30
0
11
-331500.0
21
4880.0
31
0
0
LINE
8
electrical
10
-310500.0
20
4880.0
30
0
11
-331500.0
21
4880.0
31
0
0
LINE
8
electrical
10
-310500.0
20
4880.0
30
0
11
-310500.0
21
4868.74
31
0
0
LINE
8
electrical
10
-310500.0
20
4868.74
30
0
11
-310500.0
21
4891.26
31
0
0
LINE
8
electrical
10
-310500.0
20
4891.26
30
0
11
-310500.0
21
4880.0
31
0
0
LINE
8
electrical
10
-306450.0
20
2200.0
30
0
11
-306435.96
21
2200.0
31
0
0
LINE
8
electrical
10
-306435.96
20
2200.0
30
0
11
-306450.0
21
2200.0
31
0
0
LINE
8
electrical
10
-310500.0
20
4880.0
30
0
11
-310485.96
21
4880.0
31
0
0
LINE
8
electrical
10
-310485.96
20
4880.0
30
0
11
-310500.0
21
4880.0
31
0
0
LINE
8
electrical
10
-306437.0
20
2200.0
30
0
11
-306456.5
21
2211.26
31
0
0
LINE
8
electrical
10
-306456.5
20
2211.26
30
0
11
-306456.5
21
2188.74
31
0
0
LINE
8
electrical
10
-306456.5
20
2188.74
30
0
11
-306437.0
21
2200.0
31
0
0
LINE
8
electrical
10
-310507.39
20
4989.31
30
0
11
-310496.3
21
5005.35
31
0
0
LINE
8
electrical
10
-310496.3
20
5005.35
30
0
11
-310496.3
21
5005.35
31
0
0
LINE
8
electrical
10
-310496.3
20
5005.35
30
0
11
-310507.39
21
4989.31
31
0
0
LINE
8
electrical
10
-306457.39
20
2189.31
30
0
11
-310507.39
21
4989.31
31
0
0
LINE
8
electrical
10
-306457.39
20
2189.31
30
0
11
-306446.3
21
2205.35
31
0
0
LINE
8
electrical
10
-306446.3
20
2205.35
30
0
11
-306446.3
21
2205.35
31
0
0
LINE
8
electrical
10
-306446.3
20
2205.35
30
0
11
-306457.39
21
2189.31
31
0
0
LINE
8
electrical
10
-331500.0
20
5000.0
30
0
11
-331500.0
21
4988.74
31
0
0
LINE
8
electrical
10
-331500.0
20
4988.74
30
0
11
-331500.0
21
5011.26
31
0
0
LINE
8
electrical
10
-331500.0
20
5011.26
30
0
11
-331500.0
21
5000.0
31
0
0
LINE
8
electrical
10
-310500.0
20
5000.0
30
0
11
-331500.0
21
5000.0
31
0
0
LINE
8
electrical
10
-310500.0
20
5000.0
30
0
11
-310500.0
21
4988.74
31
0
0
LINE
8
electrical
10
-310500.0
20
4988.74
30
0
11
-310500.0
21
5011.26
31
0
0
LINE
8
electrical
10
-310500.0
20
5011.26
30
0
11
-310500.0
21
5000.0
31
0
0
LINE
8
electrical
10
-306450.0
20
2200.0
30
0
11
-306435.96
21
2200.0
31
0
0
LINE
8
electrical
10
-306435.96
20
2200.0
30
0
11
-306450.0
21
2200.0
31
0
0
LINE
8
electrical
10
-310500.0
20
5000.0
30
0
11
-310485.96
21
5000.0
31
0
0
LINE
8
electrical
10
-310485.96
20
5000.0
30
0
11
-310500.0
21
5000.0
31
0
0
LINE
8
electrical
10
-306437.0
20
2200.0
30
0
11
-306456.5
21
2211.26
31
0
0
LINE
8
electrical
10
-306456.5
20
2211.26
30
0
11
-306456.5
21
2188.74
31
0
0
LINE
8
electrical
10
-306456.5
20
2188.74
30
0
11
-306437.0
21
2200.0
31
0
0
LINE
8
electrical
10
-310507.6
20
5109.45
30
0
11
-310496.2
21
5125.27
31
0
0
LINE
8
electrical
10
-310496.2
20
5125.27
30
0
11
-310496.2
21
5125.27
31
0
0
LINE
8
electrical
10
-310496.2
20
5125.27
30
0
11
-310507.6
21
5109.45
31
0
0
LINE
8
electrical
10
-306457.6
20
2189.45
30
0
11
-310507.6
21
5109.45
31
0
0
LINE
8
electrical
10
-306457.6
20
2189.45
30
0
11
-306446.2
21
2205.27
31
0
0
LINE
8
electrical
10
-306446.2
20
2205.27
30
0
11
-306446.2
21
2205.27
31
0
0
LINE
8
electrical
10
-306446.2
20
2205.27
30
0
11
-306457.6
21
2189.45
31
0
0
LINE
8
electrical
10
-331500.0
20
5120.0
30
0
11
-331500.0
21
5108.74
31
0
0
LINE
8
electrical
10
-331500.0
20
5108.74
30
0
11
-331500.0
21
5131.26
31
0
0
LINE
8
electrical
10
-331500.0
20
5131.26
30
0
11
-331500.0
21
5120.0
31
0
0
LINE
8
electrical
10
-310500.0
20
5120.0
30
0
11
-331500.0
21
5120.0
31
0
0
LINE
8
electrical
10
-310500.0
20
5120.0
30
0
11
-310500.0
21
5108.74
31
0
0
LINE
8
electrical
10
-310500.0
20
5108.74
30
0
11
-310500.0
21
5131.26
31
0
0
LINE
8
electrical
10
-310500.0
20
5131.26
30
0
11
-310500.0
21
5120.0
31
0
0
LINE
8
electrical
10
-306450.0
20
2200.0
30
0
11
-306435.96
21
2200.0
31
0
0
LINE
8
electrical
10
-306435.96
20
2200.0
30
0
11
-306450.0
21
2200.0
31
0
0
LINE
8
electrical
10
-310500.0
20
5120.0
30
0
11
-310485.96
21
5120.0
31
0
0
LINE
8
electrical
10
-310485.96
20
5120.0
30
0
11
-310500.0
21
5120.0
31
0
0
LINE
8
electrical
10
-330065.0
20
2150.0
30
0
11
-330065.0
21
2210.0
31
0
0
LINE
8
electrical
10
-329935.0
20
2150.0
30
0
11
-329935.0
21
2210.0
31
0
0
LINE
8
electrical
10
-330065.0
20
2150.0
30
0
11
-329935.0
21
2150.0
31
0
0
LINE
8
electrical
10
-330065.0
20
2210.0
30
0
11
-329935.0
21
2210.0
31
0
0
LINE
8
electrical
10
-329991.0
20
2180.0
30
0
11
-330004.5
21
2187.79
31
0
0
LINE
8
electrical
10
-330004.5
20
2187.79
30
0
11
-330004.5
21
2172.21
31
0
0
LINE
8
electrical
10
-330004.5
20
2172.21
30
0
11
-329991.0
21
2180.0
31
0
0
LINE
8
electrical
10
-306450.0
20
2180.0
30
0
11
-306450.0
21
2172.21
31
0
0
LINE
8
electrical
10
-306450.0
20
2172.21
30
0
11
-306450.0
21
2187.79
31
0
0
LINE
8
electrical
10
-306450.0
20
2187.79
30
0
11
-306450.0
21
2180.0
31
0
0
LINE
8
electrical
10
-330000.0
20
2180.0
30
0
11
-306450.0
21
2180.0
31
0
0
LINE
8
electrical
10
-330000.0
20
2180.0
30
0
11
-330000.0
21
2172.21
31
0
0
LINE
8
electrical
10
-330000.0
20
2172.21
30
0
11
-330000.0
21
2187.79
31
0
0
LINE
8
electrical
10
-330000.0
20
2187.79
30
0
11
-330000.0
21
2180.0
31
0
0
LINE
8
electrical
10
-330000.0
20
2180.0
30
0
11
-329990.28
21
2180.0
31
0
0
LINE
8
electrical
10
-329990.28
20
2180.0
30
0
11
-330000.0
21
2180.0
31
0
0
LINE
8
electrical
10
-312065.0
20
2150.0
30
0
11
-312065.0
21
2210.0
31
0
0
LINE
8
electrical
10
-311935.0
20
2150.0
30
0
11
-311935.0
21
2210.0
31
0
0
LINE
8
electrical
10
-312065.0
20
2150.0
30
0
11
-311935.0
21
2150.0
31
0
0
LINE
8
electrical
10
-312065.0
20
2210.0
30
0
11
-311935.0
21
2210.0
31
0
0
LINE
8
electrical
10
-311991.0
20
2180.0
30
0
11
-312004.5
21
2187.79
31
0
0
LINE
8
electrical
10
-312004.5
20
2187.79
30
0
11
-312004.5
21
2172.21
31
0
0
LINE
8
electrical
10
-312004.5
20
2172.21
30
0
11
-311991.0
21
2180.0
31
0
0
LINE
8
electrical
10
-306450.0
20
2180.0
30
0
11
-306450.0
21
2172.21
31
0
0
LINE
8
electrical
10
-306450.0
20
2172.21
30
0
11
-306450.0
21
2187.79
31
0
0
LINE
8
electrical
10
-306450.0
20
2187.79
30
0
11
-306450.0
21
2180.0
31
0
0
LINE
8
electrical
10
-312000.0
20
2180.0
30
0
11
-306450.0
21
2180.0
31
0
0
LINE
8
electrical
10
-312000.0
20
2180.0
30
0
11
-312000.0
21
2172.21
31
0
0
LINE
8
electrical
10
-312000.0
20
2172.21
30
0
11
-312000.0
21
2187.79
31
0
0
LINE
8
electrical
10
-312000.0
20
2187.79
30
0
11
-312000.0
21
2180.0
31
0
0
LINE
8
electrical
10
-312000.0
20
2180.0
30
0
11
-311990.28
21
2180.0
31
0
0
LINE
8
electrical
10
-311990.28
20
2180.0
30
0
11
-312000.0
21
2180.0
31
0
0
LINE
8
hvac
10
-335525.0
20
2725.0
30
0
11
-335525.0
21
3475.0
31
0
0
LINE
8
hvac
10
-333875.0
20
2725.0
30
0
11
-333875.0
21
3475.0
31
0
0
LINE
8
hvac
10
-335525.0
20
2725.0
30
0
11
-333875.0
21
2725.0
31
0
0
LINE
8
hvac
10
-335525.0
20
3475.0
30
0
11
-333875.0
21
3475.0
31
0
0
LINE
8
hvac
10
-335425.0
20
2680.0
30
0
11
-335425.0
21
2720.0
31
0
0
LINE
8
hvac
10
-333975.0
20
2680.0
30
0
11
-333975.0
21
2720.0
31
0
0
LINE
8
hvac
10
-335425.0
20
2680.0
30
0
11
-333975.0
21
2680.0
31
0
0
LINE
8
hvac
10
-335425.0
20
2720.0
30
0
11
-333975.0
21
2720.0
31
0
0
LINE
8
hvac
10
-335360.0
20
2640.0
30
0
11
-335360.0
21
2700.0
31
0
0
LINE
8
hvac
10
-335320.0
20
2640.0
30
0
11
-335320.0
21
2700.0
31
0
0
LINE
8
hvac
10
-335360.0
20
2640.0
30
0
11
-335320.0
21
2640.0
31
0
0
LINE
8
hvac
10
-335360.0
20
2700.0
30
0
11
-335320.0
21
2700.0
31
0
0
LINE
8
hvac
10
-335200.0
20
2640.0
30
0
11
-335200.0
21
2700.0
31
0
0
LINE
8
hvac
10
-335160.0
20
2640.0
30
0
11
-335160.0
21
2700.0
31
0
0
LINE
8
hvac
10
-335200.0
20
2640.0
30
0
11
-335160.0
21
2640.0
31
0
0
LINE
8
hvac
10
-335200.0
20
2700.0
30
0
11
-335160.0
21
2700.0
31
0
0
LINE
8
hvac
10
-335040.0
20
2640.0
30
0
11
-335040.0
21
2700.0
31
0
0
LINE
8
hvac
10
-335000.0
20
2640.0
30
0
11
-335000.0
21
2700.0
31
0
0
LINE
8
hvac
10
-335040.0
20
2640.0
30
0
11
-335000.0
21
2640.0
31
0
0
LINE
8
hvac
10
-335040.0
20
2700.0
30
0
11
-335000.0
21
2700.0
31
0
0
LINE
8
hvac
10
-334880.0
20
2640.0
30
0
11
-334880.0
21
2700.0
31
0
0
LINE
8
hvac
10
-334840.0
20
2640.0
30
0
11
-334840.0
21
2700.0
31
0
0
LINE
8
hvac
10
-334880.0
20
2640.0
30
0
11
-334840.0
21
2640.0
31
0
0
LINE
8
hvac
10
-334880.0
20
2700.0
30
0
11
-334840.0
21
2700.0
31
0
0
LINE
8
hvac
10
-334720.0
20
2640.0
30
0
11
-334720.0
21
2700.0
31
0
0
LINE
8
hvac
10
-334680.0
20
2640.0
30
0
11
-334680.0
21
2700.0
31
0
0
LINE
8
hvac
10
-334720.0
20
2640.0
30
0
11
-334680.0
21
2640.0
31
0
0
LINE
8
hvac
10
-334720.0
20
2700.0
30
0
11
-334680.0
21
2700.0
31
0
0
LINE
8
hvac
10
-334560.0
20
2640.0
30
0
11
-334560.0
21
2700.0
31
0
0
LINE
8
hvac
10
-334520.0
20
2640.0
30
0
11
-334520.0
21
2700.0
31
0
0
LINE
8
hvac
10
-334560.0
20
2640.0
30
0
11
-334520.0
21
2640.0
31
0
0
LINE
8
hvac
10
-334560.0
20
2700.0
30
0
11
-334520.0
21
2700.0
31
0
0
LINE
8
hvac
10
-334400.0
20
2640.0
30
0
11
-334400.0
21
2700.0
31
0
0
LINE
8
hvac
10
-334360.0
20
2640.0
30
0
11
-334360.0
21
2700.0
31
0
0
LINE
8
hvac
10
-334400.0
20
2640.0
30
0
11
-334360.0
21
2640.0
31
0
0
LINE
8
hvac
10
-334400.0
20
2700.0
30
0
11
-334360.0
21
2700.0
31
0
0
LINE
8
hvac
10
-334240.0
20
2640.0
30
0
11
-334240.0
21
2700.0
31
0
0
LINE
8
hvac
10
-334200.0
20
2640.0
30
0
11
-334200.0
21
2700.0
31
0
0
LINE
8
hvac
10
-334240.0
20
2640.0
30
0
11
-334200.0
21
2640.0
31
0
0
LINE
8
hvac
10
-334240.0
20
2700.0
30
0
11
-334200.0
21
2700.0
31
0
0
LINE
8
hvac
10
-334080.0
20
2640.0
30
0
11
-334080.0
21
2700.0
31
0
0
LINE
8
hvac
10
-334040.0
20
2640.0
30
0
11
-334040.0
21
2700.0
31
0
0
LINE
8
hvac
10
-334080.0
20
2640.0
30
0
11
-334040.0
21
2640.0
31
0
0
LINE
8
hvac
10
-334080.0
20
2700.0
30
0
11
-334040.0
21
2700.0
31
0
0
LINE
8
hvac
10
-334925.0
20
2875.0
30
0
11
-334925.0
21
3325.0
31
0
0
LINE
8
hvac
10
-334475.0
20
2875.0
30
0
11
-334475.0
21
3325.0
31
0
0
LINE
8
hvac
10
-334925.0
20
2875.0
30
0
11
-334475.0
21
2875.0
31
0
0
LINE
8
hvac
10
-334925.0
20
3325.0
30
0
11
-334475.0
21
3325.0
31
0
0
LINE
8
hvac
10
-331500.0
20
11825.0
30
0
11
-331500.0
21
12175.0
31
0
0
LINE
8
hvac
10
-310500.0
20
11825.0
30
0
11
-310500.0
21
12175.0
31
0
0
LINE
8
hvac
10
-331500.0
20
11825.0
30
0
11
-310500.0
21
11825.0
31
0
0
LINE
8
hvac
10
-331500.0
20
12175.0
30
0
11
-310500.0
21
12175.0
31
0
0
LINE
8
hvac
10
-334875.0
20
2925.0
30
0
11
-334875.0
21
3275.0
31
0
0
LINE
8
hvac
10
-320825.0
20
2925.0
30
0
11
-320825.0
21
3275.0
31
0
0
LINE
8
hvac
10
-334875.0
20
2925.0
30
0
11
-320825.0
21
2925.0
31
0
0
LINE
8
hvac
10
-334875.0
20
3275.0
30
0
11
-320825.0
21
3275.0
31
0
0
LINE
8
hvac
10
-321175.0
20
2925.0
30
0
11
-321175.0
21
12175.0
31
0
0
LINE
8
hvac
10
-320825.0
20
2925.0
30
0
11
-320825.0
21
12175.0
31
0
0
LINE
8
hvac
10
-321175.0
20
2925.0
30
0
11
-320825.0
21
2925.0
31
0
0
LINE
8
hvac
10
-321175.0
20
12175.0
30
0
11
-320825.0
21
12175.0
31
0
0
LINE
8
hvac
10
-327350.0
20
11650.0
30
0
11
-327350.0
21
12350.0
31
0
0
LINE
8
hvac
10
-326650.0
20
11650.0
30
0
11
-326650.0
21
12350.0
31
0
0
LINE
8
hvac
10
-327350.0
20
11650.0
30
0
11
-326650.0
21
11650.0
31
0
0
LINE
8
hvac
10
-327350.0
20
12350.0
30
0
11
-326650.0
21
12350.0
31
0
0
LINE
8
hvac
10
-315350.0
20
11650.0
30
0
11
-315350.0
21
12350.0
31
0
0
LINE
8
hvac
10
-314650.0
20
11650.0
30
0
11
-314650.0
21
12350.0
31
0
0
LINE
8
hvac
10
-315350.0
20
11650.0
30
0
11
-314650.0
21
11650.0
31
0
0
LINE
8
hvac
10
-315350.0
20
12350.0
30
0
11
-314650.0
21
12350.0
31
0
0
LINE
8
sensors
10
-335960.0
20
6320.0
30
0
11
-335960.0
21
6480.0
31
0
0
LINE
8
sensors
10
-335860.0
20
6320.0
30
0
11
-335860.0
21
6480.0
31
0
0
LINE
8
sensors
10
-335960.0
20
6320.0
30
0
11
-335860.0
21
6320.0
31
0
0
LINE
8
sensors
10
-335960.0
20
6480.0
30
0
11
-335860.0
21
6480.0
31
0
0
LINE
8
sensors
10
-335855.0
20
6345.0
30
0
11
-335855.0
21
6455.0
31
0
0
LINE
8
sensors
10
-335835.0
20
6345.0
30
0
11
-335835.0
21
6455.0
31
0
0
LINE
8
sensors
10
-335855.0
20
6345.0
30
0
11
-335835.0
21
6345.0
31
0
0
LINE
8
sensors
10
-335855.0
20
6455.0
30
0
11
-335835.0
21
6455.0
31
0
0
LINE
8
sensors
10
-335960.0
20
6620.0
30
0
11
-335960.0
21
6780.0
31
0
0
LINE
8
sensors
10
-335860.0
20
6620.0
30
0
11
-335860.0
21
6780.0
31
0
0
LINE
8
sensors
10
-335960.0
20
6620.0
30
0
11
-335860.0
21
6620.0
31
0
0
LINE
8
sensors
10
-335960.0
20
6780.0
30
0
11
-335860.0
21
6780.0
31
0
0
LINE
8
sensors
10
-335855.0
20
6645.0
30
0
11
-335855.0
21
6755.0
31
0
0
LINE
8
sensors
10
-335835.0
20
6645.0
30
0
11
-335835.0
21
6755.0
31
0
0
LINE
8
sensors
10
-335855.0
20
6645.0
30
0
11
-335835.0
21
6645.0
31
0
0
LINE
8
sensors
10
-335855.0
20
6755.0
30
0
11
-335835.0
21
6755.0
31
0
0
LINE
8
sensors
10
-335960.0
20
6920.0
30
0
11
-335960.0
21
7080.0
31
0
0
LINE
8
sensors
10
-335860.0
20
6920.0
30
0
11
-335860.0
21
7080.0
31
0
0
LINE
8
sensors
10
-335960.0
20
6920.0
30
0
11
-335860.0
21
6920.0
31
0
0
LINE
8
sensors
10
-335960.0
20
7080.0
30
0
11
-335860.0
21
7080.0
31
0
0
LINE
8
sensors
10
-335855.0
20
6945.0
30
0
11
-335855.0
21
7055.0
31
0
0
LINE
8
sensors
10
-335835.0
20
6945.0
30
0
11
-335835.0
21
7055.0
31
0
0
LINE
8
sensors
10
-335855.0
20
6945.0
30
0
11
-335835.0
21
6945.0
31
0
0
LINE
8
sensors
10
-335855.0
20
7055.0
30
0
11
-335835.0
21
7055.0
31
0
0
LINE
8
sensors
10
-320920.0
20
12000.0
30
0
11
-321000.0
21
12080.0
31
0
0
LINE
8
sensors
10
-321000.0
20
12080.0
30
0
11
-321080.0
21
12000.0
31
0
0
LINE
8
sensors
10
-321080.0
20
12000.0
30
0
11
-321000.0
21
11920.0
31
0
0
LINE
8
sensors
10
-321000.0
20
11920.0
30
0
11
-320920.0
21
12000.0
31
0
0
LINE
8
sensors
10
-321000.0
20
12000.0
30
0
11
-320935.0
21
12000.0
31
0
0
LINE
8
sensors
10
-320935.0
20
12000.0
30
0
11
-321000.0
21
12000.0
31
0
0
LINE
8
sensors
10
-335960.0
20
7520.0
30
0
11
-335960.0
21
7680.0
31
0
0
LINE
8
sensors
10
-335860.0
20
7520.0
30
0
11
-335860.0
21
7680.0
31
0
0
LINE
8
sensors
10
-335960.0
20
7520.0
30
0
11
-335860.0
21
7520.0
31
0
0
LINE
8
sensors
10
-335960.0
20
7680.0
30
0
11
-335860.0
21
7680.0
31
0
0
LINE
8
sensors
10
-335855.0
20
7545.0
30
0
11
-335855.0
21
7655.0
31
0
0
LINE
8
sensors
10
-335835.0
20
7545.0
30
0
11
-335835.0
21
7655.0
31
0
0
LINE
8
sensors
10
-335855.0
20
7545.0
30
0
11
-335835.0
21
7545.0
31
0
0
LINE
8
sensors
10
-335855.0
20
7655.0
30
0
11
-335835.0
21
7655.0
31
0
0
ENDSEC
0
EOF
