0
SECTION
2
HEADER
9
$ACADVER
1
AC1015
9
$INSUNITS
70
4
0
ENDSEC
0
SECTION
2
ENTITIES
0
LINE
8
interiors
10
-454000.0
20
2000.0
30
0
11
-454000.0
21
22000.0
31
0
0
LINE
8
interiors
10
-454000.0
20
2000.0
30
0
11
-440200.0
21
2000.0
31
0
0
LINE
8
interiors
10
-440200.0
20
2000.0
30
0
11
-437800.0
21
2000.0
31
0
0
LINE
8
interiors
10
-437800.0
20
2000.0
30
0
11
-424000.0
21
2000.0
31
0
0
LINE
8
interiors
10
-454000.0
20
2000.0
30
0
11
-424000.0
21
2000.0
31
0
0
LINE
8
interiors
10
-454000.0
20
22000.0
30
0
11
-424000.0
21
22000.0
31
0
0
LINE
8
interiors
10
-424000.0
20
2000.0
30
0
11
-424000.0
21
22000.0
31
0
0
LINE
8
interiors
10
-424120.0
20
2120.0
30
0
11
-453880.0
21
2120.0
31
0
0
LINE
8
interiors
10
-424120.0
20
2120.0
30
0
11
-424120.0
21
21880.0
31
0
0
LINE
8
interiors
10
-424120.0
20
21880.0
30
0
11
-453880.0
21
21880.0
31
0
0
LINE
8
interiors
10
-453880.0
20
2120.0
30
0
11
-453880.0
21
21880.0
31
0
0
LINE
8
interiors
10
-446800.0
20
22000.0
30
0
11
-431200.0
21
22000.0
31
0
0
LINE
8
interiors
10
-437800.0
20
2000.0
30
0
11
-437800.0
21
2120.0
31
0
0
LINE
8
interiors
10
-424120.0
20
2120.0
30
0
11
-437800.0
21
2120.0
31
0
0
LINE
8
interiors
10
-440200.0
20
2120.0
30
0
11
-453880.0
21
2120.0
31
0
0
LINE
8
interiors
10
-440200.0
20
2000.0
30
0
11
-440200.0
21
2120.0
31
0
0
LINE
8
interiors
10
-440200.0
20
2120.0
30
0
11
-437800.0
21
2120.0
31
0
0
LINE
8
interiors
10
-446800.0
20
21880.0
30
0
11
-431200.0
21
21880.0
31
0
0
LINE
8
interiors
10
-446800.0
20
21880.0
30
0
11
-446800.0
21
22000.0
31
0
0
LINE
8
interiors
10
-431200.0
20
21880.0
30
0
11
-431200.0
21
22000.0
31
0
0
LINE
8
interiors
10
-446800.0
20
21977.5
30
0
11
-446800.0
21
22022.5
31
0
0
LINE
8
interiors
10
-431200.0
20
21977.5
30
0
11
-431200.0
21
22022.5
31
0
0
LINE
8
interiors
10
-446800.0
20
21977.5
30
0
11
-431200.0
21
21977.5
31
0
0
LINE
8
interiors
10
-446800.0
20
22022.5
30
0
11
-431200.0
21
22022.5
31
0
0
LINE
8
interiors
10
-453875.0
20
2125.0
30
0
11
-453875.0
21
21875.0
31
0
0
LINE
8
interiors
10
-424125.0
20
2125.0
30
0
11
-424125.0
21
21875.0
31
0
0
LINE
8
interiors
10
-453875.0
20
2125.0
30
0
11
-424125.0
21
2125.0
31
0
0
LINE
8
interiors
10
-453875.0
20
21875.0
30
0
11
-424125.0
21
21875.0
31
0
0
LINE
8
interiors
10
-440155.0
20
1880.0
30
0
11
-440155.0
21
2120.0
31
0
0
LINE
8
interiors
10
-440085.0
20
1880.0
30
0
11
-440085.0
21
2120.0
31
0
0
LINE
8
interiors
10
-440155.0
20
1880.0
30
0
11
-440085.0
21
1880.0
31
0
0
LINE
8
interiors
10
-440155.0
20
2120.0
30
0
11
-440085.0
21
2120.0
31
0
0
LINE
8
interiors
10
-437915.0
20
1880.0
30
0
11
-437915.0
21
2120.0
31
0
0
LINE
8
interiors
10
-437845.0
20
1880.0
30
0
11
-437845.0
21
2120.0
31
0
0
LINE
8
interiors
10
-437915.0
20
1880.0
30
0
11
-437845.0
21
1880.0
31
0
0
LINE
8
interiors
10
-437915.0
20
2120.0
30
0
11
-437845.0
21
2120.0
31
0
0
LINE
8
interiors
10
-440150.0
20
1880.0
30
0
11
-440150.0
21
2120.0
31
0
0
LINE
8
interiors
10
-437850.0
20
1880.0
30
0
11
-437850.0
21
2120.0
31
0
0
LINE
8
interiors
10
-440150.0
20
1880.0
30
0
11
-437850.0
21
1880.0
31
0
0
LINE
8
interiors
10
-440150.0
20
2120.0
30
0
11
-437850.0
21
2120.0
31
0
0
LINE
8
interiors
10
-440069.61
20
2090.49
30
0
11
-440110.39
21
2109.51
31
0
0
LINE
8
interiors
10
-439613.18
20
3069.3
30
0
11
-439653.96
21
3088.32
31
0
0
LINE
8
interiors
10
-440069.61
20
2090.49
30
0
11
-439613.18
21
3069.3
31
0
0
LINE
8
interiors
10
-440110.39
20
2109.51
30
0
11
-439653.96
21
3088.32
31
0
0
LINE
8
interiors
10
-447500.0
20
11100.0
30
0
11
-447500.0
21
12900.0
31
0
0
LINE
8
interiors
10
-444900.0
20
11100.0
30
0
11
-444900.0
21
12900.0
31
0
0
LINE
8
interiors
10
-447500.0
20
11100.0
30
0
11
-444900.0
21
11100.0
31
0
0
LINE
8
interiors
10
-447500.0
20
12900.0
30
0
11
-444900.0
21
12900.0
31
0
0
LINE
8
interiors
10
-446300.0
20
11300.0
30
0
11
-446300.0
21
12700.0
31
0
0
LINE
8
interiors
10
-445000.0
20
11300.0
30
0
11
-445000.0
21
12700.0
31
0
0
LINE
8
interiors
10
-446300.0
20
11300.0
30
0
11
-445000.0
21
11300.0
31
0
0
LINE
8
interiors
10
-446300.0
20
12700.0
30
0
11
-445000.0
21
12700.0
31
0
0
LINE
8
interiors
10
-446400.0
20
12000.0
30
0
11
-446494.13
21
12195.46
31
0
0
LINE
8
interiors
10
-446494.13
20
12195.46
30
0
11
-446705.63
21
12243.73
31
0
0
LINE
8
interiors
10
-446705.63
20
12243.73
30
0
11
-446875.24
21
12108.47
31
0
0
LINE
8
interiors
10
-446875.24
20
12108.47
30
0
11
-446875.24
21
11891.53
31
0
0
LINE
8
interiors
10
-446875.24
20
11891.53
30
0
11
-446705.63
21
11756.27
31
0
0
LINE
8
interiors
10
-446705.63
20
11756.27
30
0
11
-446494.13
21
11804.54
31
0
0
LINE
8
interiors
10
-446494.13
20
11804.54
30
0
11
-446400.0
21
12000.0
31
0
0
LINE
8
interiors
10
-445300.0
20
10970.0
30
0
11
-445300.0
21
11030.0
31
0
0
LINE
8
interiors
10
-444700.0
20
10970.0
30
0
11
-444700.0
21
11030.0
31
0
0
LINE
8
interiors
10
-445300.0
20
10970.0
30
0
11
-444700.0
21
10970.0
31
0
0
LINE
8
interiors
10
-445300.0
20
11030.0
30
0
11
-444700.0
21
11030.0
31
0
0
LINE
8
interiors
10
-445030.0
20
10965.0
30
0
11
-445030.0
21
11035.0
31
0
0
LINE
8
interiors
10
-444970.0
20
10965.0
30
0
11
-444970.0
21
11035.0
31
0
0
LINE
8
interiors
10
-445030.0
20
10965.0
30
0
11
-444970.0
21
10965.0
31
0
0
LINE
8
interiors
10
-445030.0
20
11035.0
30
0
11
-444970.0
21
11035.0
31
0
0
LINE
8
interiors
10
-445150.0
20
10890.0
30
0
11
-445150.0
21
11110.0
31
0
0
LINE
8
interiors
10
-444850.0
20
10890.0
30
0
11
-444850.0
21
11110.0
31
0
0
LINE
8
interiors
10
-445150.0
20
10890.0
30
0
11
-444850.0
21
10890.0
31
0
0
LINE
8
interiors
10
-445150.0
20
11110.0
30
0
11
-444850.0
21
11110.0
31
0
0
LINE
8
interiors
10
-433100.0
20
11100.0
30
0
11
-433100.0
21
12900.0
31
0
0
LINE
8
interiors
10
-430500.0
20
11100.0
30
0
11
-430500.0
21
12900.0
31
0
0
LINE
8
interiors
10
-433100.0
20
11100.0
30
0
11
-430500.0
21
11100.0
31
0
0
LINE
8
interiors
10
-433100.0
20
12900.0
30
0
11
-430500.0
21
12900.0
31
0
0
LINE
8
interiors
10
-431900.0
20
11300.0
30
0
11
-431900.0
21
12700.0
31
0
0
LINE
8
interiors
10
-430600.0
20
11300.0
30
0
11
-430600.0
21
12700.0
31
0
0
LINE
8
interiors
10
-431900.0
20
11300.0
30
0
11
-430600.0
21
11300.0
31
0
0
LINE
8
interiors
10
-431900.0
20
12700.0
30
0
11
-430600.0
21
12700.0
31
0
0
LINE
8
interiors
10
-432000.0
20
12000.0
30
0
11
-432094.13
21
12195.46
31
0
0
LINE
8
interiors
10
-432094.13
20
12195.46
30
0
11
-432305.63
21
12243.73
31
0
0
LINE
8
interiors
10
-432305.63
20
12243.73
30
0
11
-432475.24
21
12108.47
31
0
0
LINE
8
interiors
10
-432475.24
20
12108.47
30
0
11
-432475.24
21
11891.53
31
0
0
LINE
8
interiors
10
-432475.24
20
11891.53
30
0
11
-432305.63
21
11756.27
31
0
0
LINE
8
interiors
10
-432305.63
20
11756.27
30
0
11
-432094.13
21
11804.54
31
0
0
LINE
8
interiors
10
-432094.13
20
11804.54
30
0
11
-432000.0
21
12000.0
31
0
0
LINE
8
interiors
10
-430900.0
20
10970.0
30
0
11
-430900.0
21
11030.0
31
0
0
LINE
8
interiors
10
-430300.0
20
10970.0
30
0
11
-430300.0
21
11030.0
31
0
0
LINE
8
interiors
10
-430900.0
20
10970.0
30
0
11
-430300.0
21
10970.0
31
0
0
LINE
8
interiors
10
-430900.0
20
11030.0
30
0
11
-430300.0
21
11030.0
31
0
0
LINE
8
interiors
10
-430630.0
20
10965.0
30
0
11
-430630.0
21
11035.0
31
0
0
LINE
8
interiors
10
-430570.0
20
10965.0
30
0
11
-430570.0
21
11035.0
31
0
0
LINE
8
interiors
10
-430630.0
20
10965.0
30
0
11
-430570.0
21
10965.0
31
0
0
LINE
8
interiors
10
-430630.0
20
11035.0
30
0
11
-430570.0
21
11035.0
31
0
0
LINE
8
interiors
10
-430750.0
20
10890.0
30
0
11
-430750.0
21
11110.0
31
0
0
LINE
8
interiors
10
-430450.0
20
10890.0
30
0
11
-430450.0
21
11110.0
31
0
0
LINE
8
interiors
10
-430750.0
20
10890.0
30
0
11
-430450.0
21
10890.0
31
0
0
LINE
8
interiors
10
-430750.0
20
11110.0
30
0
11
-430450.0
21
11110.0
31
0
0
LINE
8
electrical
10
-424725.0
20
2075.0
30
0
11
-424725.0
21
2325.0
31
0
0
LINE
8
electrical
10
-424175.0
20
2075.0
30
0
11
-424175.0
21
2325.0
31
0
0
LINE
8
electrical
10
-424725.0
20
2075.0
30
0
11
-424175.0
21
2075.0
31
0
0
LINE
8
electrical
10
-424725.0
20
2325.0
30
0
11
-424175.0
21
2325.0
31
0
0
LINE
8
electrical
10
-424685.0
20
2047.5
30
0
11
-424685.0
21
2082.5
31
0
0
LINE
8
electrical
10
-424215.0
20
2047.5
30
0
11
-424215.0
21
2082.5
31
0
0
LINE
8
electrical
10
-424685.0
20
2047.5
30
0
11
-424215.0
21
2047.5
31
0
0
LINE
8
electrical
10
-424685.0
20
2082.5
30
0
11
-424215.0
21
2082.5
31
0
0
LINE
8
electrical
10
-424637.5
20
2010.0
30
0
11
-424637.5
21
2050.0
31
0
0
LINE
8
electrical
10
-424537.5
20
2010.0
30
0
11
-424537.5
21
2050.0
31
0
0
LINE
8
electrical
10
-424637.5
20
2010.0
30
0
11
-424537.5
21
2010.0
31
0
0
LINE
8
electrical
10
-424637.5
20
2050.0
30
0
11
-424537.5
21
2050.0
31
0
0
LINE
8
electrical
10
-424500.0
20
2010.0
30
0
11
-424500.0
21
2050.0
31
0
0
LINE
8
electrical
10
-424400.0
20
2010.0
30
0
11
-424400.0
21
2050.0
31
0
0
LINE
8
electrical
10
-424500.0
20
2010.0
30
0
11
-424400.0
21
2010.0
31
0
0
LINE
8
electrical
10
-424500.0
20
2050.0
30
0
11
-424400.0
21
2050.0
31
0
0
LINE
8
electrical
10
-424362.5
20
2010.0
30
0
11
-424362.5
21
2050.0
31
0
0
LINE
8
electrical
10
-424262.5
20
2010.0
30
0
11
-424262.5
21
2050.0
31
0
0
LINE
8
electrical
10
-424362.5
20
2010.0
30
0
11
-424262.5
21
2010.0
31
0
0
LINE
8
electrical
10
-424362.5
20
2050.0
30
0
11
-424262.5
21
2050.0
31
0
0
LINE
8
electrical
10
-424587.5
20
1995.0
30
0
11
-424564.12
21
1995.0
31
0
0
LINE
8
electrical
10
-424564.12
20
1995.0
30
0
11
-424610.88
21
1995.0
31
0
0
LINE
8
electrical
10
-424610.88
20
1995.0
30
0
11
-424587.5
21
1995.0
31
0
0
LINE
8
electrical
10
-424587.5
20
2020.0
30
0
11
-424587.5
21
1995.0
31
0
0
LINE
8
electrical
10
-424587.5
20
2020.0
30
0
11
-424564.12
21
2020.0
31
0
0
LINE
8
electrical
10
-424564.12
20
2020.0
30
0
11
-424610.88
21
2020.0
31
0
0
LINE
8
electrical
10
-424610.88
20
2020.0
30
0
11
-424587.5
21
2020.0
31
0
0
LINE
8
electrical
10
-424450.0
20
1995.0
30
0
11
-424426.62
21
1995.0
31
0
0
LINE
8
electrical
10
-424426.62
20
1995.0
30
0
11
-424473.38
21
1995.0
31
0
0
LINE
8
electrical
10
-424473.38
20
1995.0
30
0
11
-424450.0
21
1995.0
31
0
0
LINE
8
electrical
10
-424450.0
20
2020.0
30
0
11
-424450.0
21
1995.0
31
0
0
LINE
8
electrical
10
-424450.0
20
2020.0
30
0
11
-424426.62
21
2020.0
31
0
0
LINE
8
electrical
10
-424426.62
20
2020.0
30
0
11
-424473.38
21
2020.0
31
0
0
LINE
8
electrical
10
-424473.38
20
2020.0
30
0
11
-424450.0
21
2020.0
31
0
0
LINE
8
electrical
10
-424312.5
20
1995.0
30
0
11
-424289.12
21
1995.0
31
0
0
LINE
8
electrical
10
-424289.12
20
1995.0
30
0
11
-424335.88
21
1995.0
31
0
0
LINE
8
electrical
10
-424335.88
20
1995.0
30
0
11
-424312.5
21
1995.0
31
0
0
LINE
8
electrical
10
-424312.5
20
2020.0
30
0
11
-424312.5
21
1995.0
31
0
0
LINE
8
electrical
10
-424312.5
20
2020.0
30
0
11
-424289.12
21
2020.0
31
0
0
LINE
8
electrical
10
-424289.12
20
2020.0
30
0
11
-424335.88
21
2020.0
31
0
0
LINE
8
electrical
10
-424335.88
20
2020.0
30
0
11
-424312.5
21
2020.0
31
0
0
LINE
8
electrical
10
-424450.0
20
2200.0
30
0
11
-424434.41
21
2200.0
31
0
0
LINE
8
electrical
10
-424434.41
20
2200.0
30
0
11
-424465.59
21
2200.0
31
0
0
LINE
8
electrical
10
-424465.59
20
2200.0
30
0
11
-424450.0
21
2200.0
31
0
0
LINE
8
electrical
10
-424450.0
20
-62300.0
30
0
11
-424450.0
21
2200.0
31
0
0
LINE
8
electrical
10
-424450.0
20
-62300.0
30
0
11
-424434.41
21
-62300.0
31
0
0
LINE
8
electrical
10
-424434.41
20
-62300.0
30
0
11
-424465.59
21
-62300.0
31
0
0
LINE
8
electrical
10
-424465.59
20
-62300.0
30
0
11
-424450.0
21
-62300.0
31
0
0
LINE
8
electrical
10
-424468.0
20
2200.0
30
0
11
-424441.0
21
2215.59
31
0
0
LINE
8
electrical
10
-424441.0
20
2215.59
30
0
11
-424441.0
21
2184.41
31
0
0
LINE
8
electrical
10
-424441.0
20
2184.41
30
0
11
-424468.0
21
2200.0
31
0
0
LINE
8
electrical
10
-424450.0
20
2200.0
30
0
11
-424430.56
21
2200.0
31
0
0
LINE
8
electrical
10
-424430.56
20
2200.0
30
0
11
-424450.0
21
2200.0
31
0
0
LINE
8
lighting
10
-450120.0
20
4880.0
30
0
11
-450120.0
21
5520.0
31
0
0
LINE
8
lighting
10
-449480.0
20
4880.0
30
0
11
-449480.0
21
5520.0
31
0
0
LINE
8
lighting
10
-450120.0
20
4880.0
30
0
11
-449480.0
21
4880.0
31
0
0
LINE
8
lighting
10
-450120.0
20
5520.0
30
0
11
-449480.0
21
5520.0
31
0
0
LINE
8
lighting
10
-450080.0
20
4920.0
30
0
11
-450080.0
21
5480.0
31
0
0
LINE
8
lighting
10
-449520.0
20
4920.0
30
0
11
-449520.0
21
5480.0
31
0
0
LINE
8
lighting
10
-450080.0
20
4920.0
30
0
11
-449520.0
21
4920.0
31
0
0
LINE
8
lighting
10
-450080.0
20
5480.0
30
0
11
-449520.0
21
5480.0
31
0
0
LINE
8
lighting
10
-450046.0
20
4930.0
30
0
11
-450046.0
21
5470.0
31
0
0
LINE
8
lighting
10
-450034.0
20
4930.0
30
0
11
-450034.0
21
5470.0
31
0
0
LINE
8
lighting
10
-450046.0
20
4930.0
30
0
11
-450034.0
21
4930.0
31
0
0
LINE
8
lighting
10
-450046.0
20
5470.0
30
0
11
-450034.0
21
5470.0
31
0
0
LINE
8
lighting
10
-449966.0
20
4930.0
30
0
11
-449966.0
21
5470.0
31
0
0
LINE
8
lighting
10
-449954.0
20
4930.0
30
0
11
-449954.0
21
5470.0
31
0
0
LINE
8
lighting
10
-449966.0
20
4930.0
30
0
11
-449954.0
21
4930.0
31
0
0
LINE
8
lighting
10
-449966.0
20
5470.0
30
0
11
-449954.0
21
5470.0
31
0
0
LINE
8
lighting
10
-449886.0
20
4930.0
30
0
11
-449886.0
21
5470.0
31
0
0
LINE
8
lighting
10
-449874.0
20
4930.0
30
0
11
-449874.0
21
5470.0
31
0
0
LINE
8
lighting
10
-449886.0
20
4930.0
30
0
11
-449874.0
21
4930.0
31
0
0
LINE
8
lighting
10
-449886.0
20
5470.0
30
0
11
-449874.0
21
5470.0
31
0
0
LINE
8
lighting
10
-449806.0
20
4930.0
30
0
11
-449806.0
21
5470.0
31
0
0
LINE
8
lighting
10
-449794.0
20
4930.0
30
0
11
-449794.0
21
5470.0
31
0
0
LINE
8
lighting
10
-449806.0
20
4930.0
30
0
11
-449794.0
21
4930.0
31
0
0
LINE
8
lighting
10
-449806.0
20
5470.0
30
0
11
-449794.0
21
5470.0
31
0
0
LINE
8
lighting
10
-449726.0
20
4930.0
30
0
11
-449726.0
21
5470.0
31
0
0
LINE
8
lighting
10
-449714.0
20
4930.0
30
0
11
-449714.0
21
5470.0
31
0
0
LINE
8
lighting
10
-449726.0
20
4930.0
30
0
11
-449714.0
21
4930.0
31
0
0
LINE
8
lighting
10
-449726.0
20
5470.0
30
0
11
-449714.0
21
5470.0
31
0
0
LINE
8
lighting
10
-449646.0
20
4930.0
30
0
11
-449646.0
21
5470.0
31
0
0
LINE
8
lighting
10
-449634.0
20
4930.0
30
0
11
-449634.0
21
5470.0
31
0
0
LINE
8
lighting
10
-449646.0
20
4930.0
30
0
11
-449634.0
21
4930.0
31
0
0
LINE
8
lighting
10
-449646.0
20
5470.0
30
0
11
-449634.0
21
5470.0
31
0
0
LINE
8
lighting
10
-449566.0
20
4930.0
30
0
11
-449566.0
21
5470.0
31
0
0
LINE
8
lighting
10
-449554.0
20
4930.0
30
0
11
-449554.0
21
5470.0
31
0
0
LINE
8
lighting
10
-449566.0
20
4930.0
30
0
11
-449554.0
21
4930.0
31
0
0
LINE
8
lighting
10
-449566.0
20
5470.0
30
0
11
-449554.0
21
5470.0
31
0
0
LINE
8
lighting
10
-449791.0
20
5200.0
30
0
11
-449804.5
21
5207.79
31
0
0
LINE
8
lighting
10
-449804.5
20
5207.79
30
0
11
-449804.5
21
5192.21
31
0
0
LINE
8
lighting
10
-449804.5
20
5192.21
30
0
11
-449791.0
21
5200.0
31
0
0
LINE
8
lighting
10
-428520.0
20
4880.0
30
0
11
-428520.0
21
5520.0
31
0
0
LINE
8
lighting
10
-427880.0
20
4880.0
30
0
11
-427880.0
21
5520.0
31
0
0
LINE
8
lighting
10
-428520.0
20
4880.0
30
0
11
-427880.0
21
4880.0
31
0
0
LINE
8
lighting
10
-428520.0
20
5520.0
30
0
11
-427880.0
21
5520.0
31
0
0
LINE
8
lighting
10
-428480.0
20
4920.0
30
0
11
-428480.0
21
5480.0
31
0
0
LINE
8
lighting
10
-427920.0
20
4920.0
30
0
11
-427920.0
21
5480.0
31
0
0
LINE
8
lighting
10
-428480.0
20
4920.0
30
0
11
-427920.0
21
4920.0
31
0
0
LINE
8
lighting
10
-428480.0
20
5480.0
30
0
11
-427920.0
21
5480.0
31
0
0
LINE
8
lighting
10
-428446.0
20
4930.0
30
0
11
-428446.0
21
5470.0
31
0
0
LINE
8
lighting
10
-428434.0
20
4930.0
30
0
11
-428434.0
21
5470.0
31
0
0
LINE
8
lighting
10
-428446.0
20
4930.0
30
0
11
-428434.0
21
4930.0
31
0
0
LINE
8
lighting
10
-428446.0
20
5470.0
30
0
11
-428434.0
21
5470.0
31
0
0
LINE
8
lighting
10
-428366.0
20
4930.0
30
0
11
-428366.0
21
5470.0
31
0
0
LINE
8
lighting
10
-428354.0
20
4930.0
30
0
11
-428354.0
21
5470.0
31
0
0
LINE
8
lighting
10
-428366.0
20
4930.0
30
0
11
-428354.0
21
4930.0
31
0
0
LINE
8
lighting
10
-428366.0
20
5470.0
30
0
11
-428354.0
21
5470.0
31
0
0
LINE
8
lighting
10
-428286.0
20
4930.0
30
0
11
-428286.0
21
5470.0
31
0
0
LINE
8
lighting
10
-428274.0
20
4930.0
30
0
11
-428274.0
21
5470.0
31
0
0
LINE
8
lighting
10
-428286.0
20
4930.0
30
0
11
-428274.0
21
4930.0
31
0
0
LINE
8
lighting
10
-428286.0
20
5470.0
30
0
11
-428274.0
21
5470.0
31
0
0
LINE
8
lighting
10
-428206.0
20
4930.0
30
0
11
-428206.0
21
5470.0
31
0
0
LINE
8
lighting
10
-428194.0
20
4930.0
30
0
11
-428194.0
21
5470.0
31
0
0
LINE
8
lighting
10
-428206.0
20
4930.0
30
0
11
-428194.0
21
4930.0
31
0
0
LINE
8
lighting
10
-428206.0
20
5470.0
30
0
11
-428194.0
21
5470.0
31
0
0
LINE
8
lighting
10
-428126.0
20
4930.0
30
0
11
-428126.0
21
5470.0
31
0
0
LINE
8
lighting
10
-428114.0
20
4930.0
30
0
11
-428114.0
21
5470.0
31
0
0
LINE
8
lighting
10
-428126.0
20
4930.0
30
0
11
-428114.0
21
4930.0
31
0
0
LINE
8
lighting
10
-428126.0
20
5470.0
30
0
11
-428114.0
21
5470.0
31
0
0
LINE
8
lighting
10
-428046.0
20
4930.0
30
0
11
-428046.0
21
5470.0
31
0
0
LINE
8
lighting
10
-428034.0
20
4930.0
30
0
11
-428034.0
21
5470.0
31
0
0
LINE
8
lighting
10
-428046.0
20
4930.0
30
0
11
-428034.0
21
4930.0
31
0
0
LINE
8
lighting
10
-428046.0
20
5470.0
30
0
11
-428034.0
21
5470.0
31
0
0
LINE
8
lighting
10
-427966.0
20
4930.0
30
0
11
-427966.0
21
5470.0
31
0
0
LINE
8
lighting
10
-427954.0
20
4930.0
30
0
11
-427954.0
21
5470.0
31
0
0
LINE
8
lighting
10
-427966.0
20
4930.0
30
0
11
-427954.0
21
4930.0
31
0
0
LINE
8
lighting
10
-427966.0
20
5470.0
30
0
11
-427954.0
21
5470.0
31
0
0
LINE
8
lighting
10
-428191.0
20
5200.0
30
0
11
-428204.5
21
5207.79
31
0
0
LINE
8
lighting
10
-428204.5
20
5207.79
30
0
11
-428204.5
21
5192.21
31
0
0
LINE
8
lighting
10
-428204.5
20
5192.21
30
0
11
-428191.0
21
5200.0
31
0
0
LINE
8
lighting
10
-439320.0
20
4880.0
30
0
11
-439320.0
21
5520.0
31
0
0
LINE
8
lighting
10
-438680.0
20
4880.0
30
0
11
-438680.0
21
5520.0
31
0
0
LINE
8
lighting
10
-439320.0
20
4880.0
30
0
11
-438680.0
21
4880.0
31
0
0
LINE
8
lighting
10
-439320.0
20
5520.0
30
0
11
-438680.0
21
5520.0
31
0
0
LINE
8
lighting
10
-439280.0
20
4920.0
30
0
11
-439280.0
21
5480.0
31
0
0
LINE
8
lighting
10
-438720.0
20
4920.0
30
0
11
-438720.0
21
5480.0
31
0
0
LINE
8
lighting
10
-439280.0
20
4920.0
30
0
11
-438720.0
21
4920.0
31
0
0
LINE
8
lighting
10
-439280.0
20
5480.0
30
0
11
-438720.0
21
5480.0
31
0
0
LINE
8
lighting
10
-439246.0
20
4930.0
30
0
11
-439246.0
21
5470.0
31
0
0
LINE
8
lighting
10
-439234.0
20
4930.0
30
0
11
-439234.0
21
5470.0
31
0
0
LINE
8
lighting
10
-439246.0
20
4930.0
30
0
11
-439234.0
21
4930.0
31
0
0
LINE
8
lighting
10
-439246.0
20
5470.0
30
0
11
-439234.0
21
5470.0
31
0
0
LINE
8
lighting
10
-439166.0
20
4930.0
30
0
11
-439166.0
21
5470.0
31
0
0
LINE
8
lighting
10
-439154.0
20
4930.0
30
0
11
-439154.0
21
5470.0
31
0
0
LINE
8
lighting
10
-439166.0
20
4930.0
30
0
11
-439154.0
21
4930.0
31
0
0
LINE
8
lighting
10
-439166.0
20
5470.0
30
0
11
-439154.0
21
5470.0
31
0
0
LINE
8
lighting
10
-439086.0
20
4930.0
30
0
11
-439086.0
21
5470.0
31
0
0
LINE
8
lighting
10
-439074.0
20
4930.0
30
0
11
-439074.0
21
5470.0
31
0
0
LINE
8
lighting
10
-439086.0
20
4930.0
30
0
11
-439074.0
21
4930.0
31
0
0
LINE
8
lighting
10
-439086.0
20
5470.0
30
0
11
-439074.0
21
5470.0
31
0
0
LINE
8
lighting
10
-439006.0
20
4930.0
30
0
11
-439006.0
21
5470.0
31
0
0
LINE
8
lighting
10
-438994.0
20
4930.0
30
0
11
-438994.0
21
5470.0
31
0
0
LINE
8
lighting
10
-439006.0
20
4930.0
30
0
11
-438994.0
21
4930.0
31
0
0
LINE
8
lighting
10
-439006.0
20
5470.0
30
0
11
-438994.0
21
5470.0
31
0
0
LINE
8
lighting
10
-438926.0
20
4930.0
30
0
11
-438926.0
21
5470.0
31
0
0
LINE
8
lighting
10
-438914.0
20
4930.0
30
0
11
-438914.0
21
5470.0
31
0
0
LINE
8
lighting
10
-438926.0
20
4930.0
30
0
11
-438914.0
21
4930.0
31
0
0
LINE
8
lighting
10
-438926.0
20
5470.0
30
0
11
-438914.0
21
5470.0
31
0
0
LINE
8
lighting
10
-438846.0
20
4930.0
30
0
11
-438846.0
21
5470.0
31
0
0
LINE
8
lighting
10
-438834.0
20
4930.0
30
0
11
-438834.0
21
5470.0
31
0
0
LINE
8
lighting
10
-438846.0
20
4930.0
30
0
11
-438834.0
21
4930.0
31
0
0
LINE
8
lighting
10
-438846.0
20
5470.0
30
0
11
-438834.0
21
5470.0
31
0
0
LINE
8
lighting
10
-438766.0
20
4930.0
30
0
11
-438766.0
21
5470.0
31
0
0
LINE
8
lighting
10
-438754.0
20
4930.0
30
0
11
-438754.0
21
5470.0
31
0
0
LINE
8
lighting
10
-438766.0
20
4930.0
30
0
11
-438754.0
21
4930.0
31
0
0
LINE
8
lighting
10
-438766.0
20
5470.0
30
0
11
-438754.0
21
5470.0
31
0
0
LINE
8
lighting
10
-438991.0
20
5200.0
30
0
11
-439004.5
21
5207.79
31
0
0
LINE
8
lighting
10
-439004.5
20
5207.79
30
0
11
-439004.5
21
5192.21
31
0
0
LINE
8
lighting
10
-439004.5
20
5192.21
30
0
11
-438991.0
21
5200.0
31
0
0
LINE
8
lighting
10
-450120.0
20
18480.0
30
0
11
-450120.0
21
19120.0
31
0
0
LINE
8
lighting
10
-449480.0
20
18480.0
30
0
11
-449480.0
21
19120.0
31
0
0
LINE
8
lighting
10
-450120.0
20
18480.0
30
0
11
-449480.0
21
18480.0
31
0
0
LINE
8
lighting
10
-450120.0
20
19120.0
30
0
11
-449480.0
21
19120.0
31
0
0
LINE
8
lighting
10
-450080.0
20
18520.0
30
0
11
-450080.0
21
19080.0
31
0
0
LINE
8
lighting
10
-449520.0
20
18520.0
30
0
11
-449520.0
21
19080.0
31
0
0
LINE
8
lighting
10
-450080.0
20
18520.0
30
0
11
-449520.0
21
18520.0
31
0
0
LINE
8
lighting
10
-450080.0
20
19080.0
30
0
11
-449520.0
21
19080.0
31
0
0
LINE
8
lighting
10
-450046.0
20
18530.0
30
0
11
-450046.0
21
19070.0
31
0
0
LINE
8
lighting
10
-450034.0
20
18530.0
30
0
11
-450034.0
21
19070.0
31
0
0
LINE
8
lighting
10
-450046.0
20
18530.0
30
0
11
-450034.0
21
18530.0
31
0
0
LINE
8
lighting
10
-450046.0
20
19070.0
30
0
11
-450034.0
21
19070.0
31
0
0
LINE
8
lighting
10
-449966.0
20
18530.0
30
0
11
-449966.0
21
19070.0
31
0
0
LINE
8
lighting
10
-449954.0
20
18530.0
30
0
11
-449954.0
21
19070.0
31
0
0
LINE
8
lighting
10
-449966.0
20
18530.0
30
0
11
-449954.0
21
18530.0
31
0
0
LINE
8
lighting
10
-449966.0
20
19070.0
30
0
11
-449954.0
21
19070.0
31
0
0
LINE
8
lighting
10
-449886.0
20
18530.0
30
0
11
-449886.0
21
19070.0
31
0
0
LINE
8
lighting
10
-449874.0
20
18530.0
30
0
11
-449874.0
21
19070.0
31
0
0
LINE
8
lighting
10
-449886.0
20
18530.0
30
0
11
-449874.0
21
18530.0
31
0
0
LINE
8
lighting
10
-449886.0
20
19070.0
30
0
11
-449874.0
21
19070.0
31
0
0
LINE
8
lighting
10
-449806.0
20
18530.0
30
0
11
-449806.0
21
19070.0
31
0
0
LINE
8
lighting
10
-449794.0
20
18530.0
30
0
11
-449794.0
21
19070.0
31
0
0
LINE
8
lighting
10
-449806.0
20
18530.0
30
0
11
-449794.0
21
18530.0
31
0
0
LINE
8
lighting
10
-449806.0
20
19070.0
30
0
11
-449794.0
21
19070.0
31
0
0
LINE
8
lighting
10
-449726.0
20
18530.0
30
0
11
-449726.0
21
19070.0
31
0
0
LINE
8
lighting
10
-449714.0
20
18530.0
30
0
11
-449714.0
21
19070.0
31
0
0
LINE
8
lighting
10
-449726.0
20
18530.0
30
0
11
-449714.0
21
18530.0
31
0
0
LINE
8
lighting
10
-449726.0
20
19070.0
30
0
11
-449714.0
21
19070.0
31
0
0
LINE
8
lighting
10
-449646.0
20
18530.0
30
0
11
-449646.0
21
19070.0
31
0
0
LINE
8
lighting
10
-449634.0
20
18530.0
30
0
11
-449634.0
21
19070.0
31
0
0
LINE
8
lighting
10
-449646.0
20
18530.0
30
0
11
-449634.0
21
18530.0
31
0
0
LINE
8
lighting
10
-449646.0
20
19070.0
30
0
11
-449634.0
21
19070.0
31
0
0
LINE
8
lighting
10
-449566.0
20
18530.0
30
0
11
-449566.0
21
19070.0
31
0
0
LINE
8
lighting
10
-449554.0
20
18530.0
30
0
11
-449554.0
21
19070.0
31
0
0
LINE
8
lighting
10
-449566.0
20
18530.0
30
0
11
-449554.0
21
18530.0
31
0
0
LINE
8
lighting
10
-449566.0
20
19070.0
30
0
11
-449554.0
21
19070.0
31
0
0
LINE
8
lighting
10
-449791.0
20
18800.0
30
0
11
-449804.5
21
18807.79
31
0
0
LINE
8
lighting
10
-449804.5
20
18807.79
30
0
11
-449804.5
21
18792.21
31
0
0
LINE
8
lighting
10
-449804.5
20
18792.21
30
0
11
-449791.0
21
18800.0
31
0
0
LINE
8
lighting
10
-428520.0
20
18480.0
30
0
11
-428520.0
21
19120.0
31
0
0
LINE
8
lighting
10
-427880.0
20
18480.0
30
0
11
-427880.0
21
19120.0
31
0
0
LINE
8
lighting
10
-428520.0
20
18480.0
30
0
11
-427880.0
21
18480.0
31
0
0
LINE
8
lighting
10
-428520.0
20
19120.0
30
0
11
-427880.0
21
19120.0
31
0
0
LINE
8
lighting
10
-428480.0
20
18520.0
30
0
11
-428480.0
21
19080.0
31
0
0
LINE
8
lighting
10
-427920.0
20
18520.0
30
0
11
-427920.0
21
19080.0
31
0
0
LINE
8
lighting
10
-428480.0
20
18520.0
30
0
11
-427920.0
21
18520.0
31
0
0
LINE
8
lighting
10
-428480.0
20
19080.0
30
0
11
-427920.0
21
19080.0
31
0
0
LINE
8
lighting
10
-428446.0
20
18530.0
30
0
11
-428446.0
21
19070.0
31
0
0
LINE
8
lighting
10
-428434.0
20
18530.0
30
0
11
-428434.0
21
19070.0
31
0
0
LINE
8
lighting
10
-428446.0
20
18530.0
30
0
11
-428434.0
21
18530.0
31
0
0
LINE
8
lighting
10
-428446.0
20
19070.0
30
0
11
-428434.0
21
19070.0
31
0
0
LINE
8
lighting
10
-428366.0
20
18530.0
30
0
11
-428366.0
21
19070.0
31
0
0
LINE
8
lighting
10
-428354.0
20
18530.0
30
0
11
-428354.0
21
19070.0
31
0
0
LINE
8
lighting
10
-428366.0
20
18530.0
30
0
11
-428354.0
21
18530.0
31
0
0
LINE
8
lighting
10
-428366.0
20
19070.0
30
0
11
-428354.0
21
19070.0
31
0
0
LINE
8
lighting
10
-428286.0
20
18530.0
30
0
11
-428286.0
21
19070.0
31
0
0
LINE
8
lighting
10
-428274.0
20
18530.0
30
0
11
-428274.0
21
19070.0
31
0
0
LINE
8
lighting
10
-428286.0
20
18530.0
30
0
11
-428274.0
21
18530.0
31
0
0
LINE
8
lighting
10
-428286.0
20
19070.0
30
0
11
-428274.0
21
19070.0
31
0
0
LINE
8
lighting
10
-428206.0
20
18530.0
30
0
11
-428206.0
21
19070.0
31
0
0
LINE
8
lighting
10
-428194.0
20
18530.0
30
0
11
-428194.0
21
19070.0
31
0
0
LINE
8
lighting
10
-428206.0
20
18530.0
30
0
11
-428194.0
21
18530.0
31
0
0
LINE
8
lighting
10
-428206.0
20
19070.0
30
0
11
-428194.0
21
19070.0
31
0
0
LINE
8
lighting
10
-428126.0
20
18530.0
30
0
11
-428126.0
21
19070.0
31
0
0
LINE
8
lighting
10
-428114.0
20
18530.0
30
0
11
-428114.0
21
19070.0
31
0
0
LINE
8
lighting
10
-428126.0
20
18530.0
30
0
11
-428114.0
21
18530.0
31
0
0
LINE
8
lighting
10
-428126.0
20
19070.0
30
0
11
-428114.0
21
19070.0
31
0
0
LINE
8
lighting
10
-428046.0
20
18530.0
30
0
11
-428046.0
21
19070.0
31
0
0
LINE
8
lighting
10
-428034.0
20
18530.0
30
0
11
-428034.0
21
19070.0
31
0
0
LINE
8
lighting
10
-428046.0
20
18530.0
30
0
11
-428034.0
21
18530.0
31
0
0
LINE
8
lighting
10
-428046.0
20
19070.0
30
0
11
-428034.0
21
19070.0
31
0
0
LINE
8
lighting
10
-427966.0
20
18530.0
30
0
11
-427966.0
21
19070.0
31
0
0
LINE
8
lighting
10
-427954.0
20
18530.0
30
0
11
-427954.0
21
19070.0
31
0
0
LINE
8
lighting
10
-427966.0
20
18530.0
30
0
11
-427954.0
21
18530.0
31
0
0
LINE
8
lighting
10
-427966.0
20
19070.0
30
0
11
-427954.0
21
19070.0
31
0
0
LINE
8
lighting
10
-428191.0
20
18800.0
30
0
11
-428204.5
21
18807.79
31
0
0
LINE
8
lighting
10
-428204.5
20
18807.79
30
0
11
-428204.5
21
18792.21
31
0
0
LINE
8
lighting
10
-428204.5
20
18792.21
30
0
11
-428191.0
21
18800.0
31
0
0
LINE
8
lighting
10
-439320.0
20
18480.0
30
0
11
-439320.0
21
19120.0
31
0
0
LINE
8
lighting
10
-438680.0
20
18480.0
30
0
11
-438680.0
21
19120.0
31
0
0
LINE
8
lighting
10
-439320.0
20
18480.0
30
0
11
-438680.0
21
18480.0
31
0
0
LINE
8
lighting
10
-439320.0
20
19120.0
30
0
11
-438680.0
21
19120.0
31
0
0
LINE
8
lighting
10
-439280.0
20
18520.0
30
0
11
-439280.0
21
19080.0
31
0
0
LINE
8
lighting
10
-438720.0
20
18520.0
30
0
11
-438720.0
21
19080.0
31
0
0
LINE
8
lighting
10
-439280.0
20
18520.0
30
0
11
-438720.0
21
18520.0
31
0
0
LINE
8
lighting
10
-439280.0
20
19080.0
30
0
11
-438720.0
21
19080.0
31
0
0
LINE
8
lighting
10
-439246.0
20
18530.0
30
0
11
-439246.0
21
19070.0
31
0
0
LINE
8
lighting
10
-439234.0
20
18530.0
30
0
11
-439234.0
21
19070.0
31
0
0
LINE
8
lighting
10
-439246.0
20
18530.0
30
0
11
-439234.0
21
18530.0
31
0
0
LINE
8
lighting
10
-439246.0
20
19070.0
30
0
11
-439234.0
21
19070.0
31
0
0
LINE
8
lighting
10
-439166.0
20
18530.0
30
0
11
-439166.0
21
19070.0
31
0
0
LINE
8
lighting
10
-439154.0
20
18530.0
30
0
11
-439154.0
21
19070.0
31
0
0
LINE
8
lighting
10
-439166.0
20
18530.0
30
0
11
-439154.0
21
18530.0
31
0
0
LINE
8
lighting
10
-439166.0
20
19070.0
30
0
11
-439154.0
21
19070.0
31
0
0
LINE
8
lighting
10
-439086.0
20
18530.0
30
0
11
-439086.0
21
19070.0
31
0
0
LINE
8
lighting
10
-439074.0
20
18530.0
30
0
11
-439074.0
21
19070.0
31
0
0
LINE
8
lighting
10
-439086.0
20
18530.0
30
0
11
-439074.0
21
18530.0
31
0
0
LINE
8
lighting
10
-439086.0
20
19070.0
30
0
11
-439074.0
21
19070.0
31
0
0
LINE
8
lighting
10
-439006.0
20
18530.0
30
0
11
-439006.0
21
19070.0
31
0
0
LINE
8
lighting
10
-438994.0
20
18530.0
30
0
11
-438994.0
21
19070.0
31
0
0
LINE
8
lighting
10
-439006.0
20
18530.0
30
0
11
-438994.0
21
18530.0
31
0
0
LINE
8
lighting
10
-439006.0
20
19070.0
30
0
11
-438994.0
21
19070.0
31
0
0
LINE
8
lighting
10
-438926.0
20
18530.0
30
0
11
-438926.0
21
19070.0
31
0
0
LINE
8
lighting
10
-438914.0
20
18530.0
30
0
11
-438914.0
21
19070.0
31
0
0
LINE
8
lighting
10
-438926.0
20
18530.0
30
0
11
-438914.0
21
18530.0
31
0
0
LINE
8
lighting
10
-438926.0
20
19070.0
30
0
11
-438914.0
21
19070.0
31
0
0
LINE
8
lighting
10
-438846.0
20
18530.0
30
0
11
-438846.0
21
19070.0
31
0
0
LINE
8
lighting
10
-438834.0
20
18530.0
30
0
11
-438834.0
21
19070.0
31
0
0
LINE
8
lighting
10
-438846.0
20
18530.0
30
0
11
-438834.0
21
18530.0
31
0
0
LINE
8
lighting
10
-438846.0
20
19070.0
30
0
11
-438834.0
21
19070.0
31
0
0
LINE
8
lighting
10
-438766.0
20
18530.0
30
0
11
-438766.0
21
19070.0
31
0
0
LINE
8
lighting
10
-438754.0
20
18530.0
30
0
11
-438754.0
21
19070.0
31
0
0
LINE
8
lighting
10
-438766.0
20
18530.0
30
0
11
-438754.0
21
18530.0
31
0
0
LINE
8
lighting
10
-438766.0
20
19070.0
30
0
11
-438754.0
21
19070.0
31
0
0
LINE
8
lighting
10
-438991.0
20
18800.0
30
0
11
-439004.5
21
18807.79
31
0
0
LINE
8
lighting
10
-439004.5
20
18807.79
30
0
11
-439004.5
21
18792.21
31
0
0
LINE
8
lighting
10
-439004.5
20
18792.21
30
0
11
-438991.0
21
18800.0
31
0
0
LINE
8
electrical
10
-449800.0
20
4880.0
30
0
11
-449800.0
21
4872.21
31
0
0
LINE
8
electrical
10
-449800.0
20
4872.21
30
0
11
-449800.0
21
4887.79
31
0
0
LINE
8
electrical
10
-449800.0
20
4887.79
30
0
11
-449800.0
21
4880.0
31
0
0
LINE
8
electrical
10
-424450.0
20
4880.0
30
0
11
-449800.0
21
4880.0
31
0
0
LINE
8
electrical
10
-424450.0
20
4880.0
30
0
11
-424450.0
21
4872.21
31
0
0
LINE
8
electrical
10
-424450.0
20
4872.21
30
0
11
-424450.0
21
4887.79
31
0
0
LINE
8
electrical
10
-424450.0
20
4887.79
30
0
11
-424450.0
21
4880.0
31
0
0
LINE
8
electrical
10
-449800.0
20
18800.0
30
0
11
-449792.21
21
18800.0
31
0
0
LINE
8
electrical
10
-449792.21
20
18800.0
30
0
11
-449807.79
21
18800.0
31
0
0
LINE
8
electrical
10
-449807.79
20
18800.0
30
0
11
-449800.0
21
18800.0
31
0
0
LINE
8
electrical
10
-449800.0
20
4880.0
30
0
11
-449800.0
21
18800.0
31
0
0
LINE
8
electrical
10
-449800.0
20
4880.0
30
0
11
-449792.21
21
4880.0
31
0
0
LINE
8
electrical
10
-449792.21
20
4880.0
30
0
11
-449807.79
21
4880.0
31
0
0
LINE
8
electrical
10
-449807.79
20
4880.0
30
0
11
-449800.0
21
4880.0
31
0
0
LINE
8
electrical
10
-428200.0
20
18800.0
30
0
11
-428192.21
21
18800.0
31
0
0
LINE
8
electrical
10
-428192.21
20
18800.0
30
0
11
-428207.79
21
18800.0
31
0
0
LINE
8
electrical
10
-428207.79
20
18800.0
30
0
11
-428200.0
21
18800.0
31
0
0
LINE
8
electrical
10
-428200.0
20
4880.0
30
0
11
-428200.0
21
18800.0
31
0
0
LINE
8
electrical
10
-428200.0
20
4880.0
30
0
11
-428192.21
21
4880.0
31
0
0
LINE
8
electrical
10
-428192.21
20
4880.0
30
0
11
-428207.79
21
4880.0
31
0
0
LINE
8
electrical
10
-428207.79
20
4880.0
30
0
11
-428200.0
21
4880.0
31
0
0
LINE
8
electrical
10
-439000.0
20
18800.0
30
0
11
-438992.21
21
18800.0
31
0
0
LINE
8
electrical
10
-438992.21
20
18800.0
30
0
11
-439007.79
21
18800.0
31
0
0
LINE
8
electrical
10
-439007.79
20
18800.0
30
0
11
-439000.0
21
18800.0
31
0
0
LINE
8
electrical
10
-439000.0
20
4880.0
30
0
11
-439000.0
21
18800.0
31
0
0
LINE
8
electrical
10
-439000.0
20
4880.0
30
0
11
-438992.21
21
4880.0
31
0
0
LINE
8
electrical
10
-438992.21
20
4880.0
30
0
11
-439007.79
21
4880.0
31
0
0
LINE
8
electrical
10
-439007.79
20
4880.0
30
0
11
-439000.0
21
4880.0
31
0
0
LINE
8
electrical
10
-424437.0
20
2200.0
30
0
11
-424456.5
21
2211.26
31
0
0
LINE
8
electrical
10
-424456.5
20
2211.26
30
0
11
-424456.5
21
2188.74
31
0
0
LINE
8
electrical
10
-424456.5
20
2188.74
30
0
11
-424437.0
21
2200.0
31
0
0
LINE
8
electrical
10
-428507.17
20
4869.16
30
0
11
-428496.41
21
4885.42
31
0
0
LINE
8
electrical
10
-428496.41
20
4885.42
30
0
11
-428496.41
21
4885.42
31
0
0
LINE
8
electrical
10
-428496.41
20
4885.42
30
0
11
-428507.17
21
4869.16
31
0
0
LINE
8
electrical
10
-424457.17
20
2189.16
30
0
11
-428507.17
21
4869.16
31
0
0
LINE
8
electrical
10
-424457.17
20
2189.16
30
0
11
-424446.41
21
2205.42
31
0
0
LINE
8
electrical
10
-424446.41
20
2205.42
30
0
11
-424446.41
21
2205.42
31
0
0
LINE
8
electrical
10
-424446.41
20
2205.42
30
0
11
-424457.17
21
2189.16
31
0
0
LINE
8
electrical
10
-449500.0
20
4880.0
30
0
11
-449500.0
21
4868.74
31
0
0
LINE
8
electrical
10
-449500.0
20
4868.74
30
0
11
-449500.0
21
4891.26
31
0
0
LINE
8
electrical
10
-449500.0
20
4891.26
30
0
11
-449500.0
21
4880.0
31
0
0
LINE
8
electrical
10
-428500.0
20
4880.0
30
0
11
-449500.0
21
4880.0
31
0
0
LINE
8
electrical
10
-428500.0
20
4880.0
30
0
11
-428500.0
21
4868.74
31
0
0
LINE
8
electrical
10
-428500.0
20
4868.74
30
0
11
-428500.0
21
4891.26
31
0
0
LINE
8
electrical
10
-428500.0
20
4891.26
30
0
11
-428500.0
21
4880.0
31
0
0
LINE
8
electrical
10
-424450.0
20
2200.0
30
0
11
-424435.96
21
2200.0
31
0
0
LINE
8
electrical
10
-424435.96
20
2200.0
30
0
11
-424450.0
21
2200.0
31
0
0
LINE
8
electrical
10
-428500.0
20
4880.0
30
0
11
-428485.96
21
4880.0
31
0
0
LINE
8
electrical
10
-428485.96
20
4880.0
30
0
11
-428500.0
21
4880.0
31
0
0
LINE
8
electrical
10
-424437.0
20
2200.0
30
0
11
-424456.5
21
2211.26
31
0
0
LINE
8
electrical
10
-424456.5
20
2211.26
30
0
11
-424456.5
21
2188.74
31
0
0
LINE
8
electrical
10
-424456.5
20
2188.74
30
0
11
-424437.0
21
2200.0
31
0
0
LINE
8
electrical
10
-428507.39
20
4989.31
30
0
11
-428496.3
21
5005.35
31
0
0
LINE
8
electrical
10
-428496.3
20
5005.35
30
0
11
-428496.3
21
5005.35
31
0
0
LINE
8
electrical
10
-428496.3
20
5005.35
30
0
11
-428507.39
21
4989.31
31
0
0
LINE
8
electrical
10
-424457.39
20
2189.31
30
0
11
-428507.39
21
4989.31
31
0
0
LINE
8
electrical
10
-424457.39
20
2189.31
30
0
11
-424446.3
21
2205.35
31
0
0
LINE
8
electrical
10
-424446.3
20
2205.35
30
0
11
-424446.3
21
2205.35
31
0
0
LINE
8
electrical
10
-424446.3
20
2205.35
30
0
11
-424457.39
21
2189.31
31
0
0
LINE
8
electrical
10
-449500.0
20
5000.0
30
0
11
-449500.0
21
4988.74
31
0
0
LINE
8
electrical
10
-449500.0
20
4988.74
30
0
11
-449500.0
21
5011.26
31
0
0
LINE
8
electrical
10
-449500.0
20
5011.26
30
0
11
-449500.0
21
5000.0
31
0
0
LINE
8
electrical
10
-428500.0
20
5000.0
30
0
11
-449500.0
21
5000.0
31
0
0
LINE
8
electrical
10
-428500.0
20
5000.0
30
0
11
-428500.0
21
4988.74
31
0
0
LINE
8
electrical
10
-428500.0
20
4988.74
30
0
11
-428500.0
21
5011.26
31
0
0
LINE
8
electrical
10
-428500.0
20
5011.26
30
0
11
-428500.0
21
5000.0
31
0
0
LINE
8
electrical
10
-424450.0
20
2200.0
30
0
11
-424435.96
21
2200.0
31
0
0
LINE
8
electrical
10
-424435.96
20
2200.0
30
0
11
-424450.0
21
2200.0
31
0
0
LINE
8
electrical
10
-428500.0
20
5000.0
30
0
11
-428485.96
21
5000.0
31
0
0
LINE
8
electrical
10
-428485.96
20
5000.0
30
0
11
-428500.0
21
5000.0
31
0
0
LINE
8
electrical
10
-424437.0
20
2200.0
30
0
11
-424456.5
21
2211.26
31
0
0
LINE
8
electrical
10
-424456.5
20
2211.26
30
0
11
-424456.5
21
2188.74
31
0
0
LINE
8
electrical
10
-424456.5
20
2188.74
30
0
11
-424437.0
21
2200.0
31
0
0
LINE
8
electrical
10
-428507.6
20
5109.45
30
0
11
-428496.2
21
5125.27
31
0
0
LINE
8
electrical
10
-428496.2
20
5125.27
30
0
11
-428496.2
21
5125.27
31
0
0
LINE
8
electrical
10
-428496.2
20
5125.27
30
0
11
-428507.6
21
5109.45
31
0
0
LINE
8
electrical
10
-424457.6
20
2189.45
30
0
11
-428507.6
21
5109.45
31
0
0
LINE
8
electrical
10
-424457.6
20
2189.45
30
0
11
-424446.2
21
2205.27
31
0
0
LINE
8
electrical
10
-424446.2
20
2205.27
30
0
11
-424446.2
21
2205.27
31
0
0
LINE
8
electrical
10
-424446.2
20
2205.27
30
0
11
-424457.6
21
2189.45
31
0
0
LINE
8
electrical
10
-449500.0
20
5120.0
30
0
11
-449500.0
21
5108.74
31
0
0
LINE
8
electrical
10
-449500.0
20
5108.74
30
0
11
-449500.0
21
5131.26
31
0
0
LINE
8
electrical
10
-449500.0
20
5131.26
30
0
11
-449500.0
21
5120.0
31
0
0
LINE
8
electrical
10
-428500.0
20
5120.0
30
0
11
-449500.0
21
5120.0
31
0
0
LINE
8
electrical
10
-428500.0
20
5120.0
30
0
11
-428500.0
21
5108.74
31
0
0
LINE
8
electrical
10
-428500.0
20
5108.74
30
0
11
-428500.0
21
5131.26
31
0
0
LINE
8
electrical
10
-428500.0
20
5131.26
30
0
11
-428500.0
21
5120.0
31
0
0
LINE
8
electrical
10
-424450.0
20
2200.0
30
0
11
-424435.96
21
2200.0
31
0
0
LINE
8
electrical
10
-424435.96
20
2200.0
30
0
11
-424450.0
21
2200.0
31
0
0
LINE
8
electrical
10
-428500.0
20
5120.0
30
0
11
-428485.96
21
5120.0
31
0
0
LINE
8
electrical
10
-428485.96
20
5120.0
30
0
11
-428500.0
21
5120.0
31
0
0
LINE
8
electrical
10
-448065.0
20
2150.0
30
0
11
-448065.0
21
2210.0
31
0
0
LINE
8
electrical
10
-447935.0
20
2150.0
30
0
11
-447935.0
21
2210.0
31
0
0
LINE
8
electrical
10
-448065.0
20
2150.0
30
0
11
-447935.0
21
2150.0
31
0
0
LINE
8
electrical
10
-448065.0
20
2210.0
30
0
11
-447935.0
21
2210.0
31
0
0
LINE
8
electrical
10
-447991.0
20
2180.0
30
0
11
-448004.5
21
2187.79
31
0
0
LINE
8
electrical
10
-448004.5
20
2187.79
30
0
11
-448004.5
21
2172.21
31
0
0
LINE
8
electrical
10
-448004.5
20
2172.21
30
0
11
-447991.0
21
2180.0
31
0
0
LINE
8
electrical
10
-424450.0
20
2180.0
30
0
11
-424450.0
21
2172.21
31
0
0
LINE
8
electrical
10
-424450.0
20
2172.21
30
0
11
-424450.0
21
2187.79
31
0
0
LINE
8
electrical
10
-424450.0
20
2187.79
30
0
11
-424450.0
21
2180.0
31
0
0
LINE
8
electrical
10
-448000.0
20
2180.0
30
0
11
-424450.0
21
2180.0
31
0
0
LINE
8
electrical
10
-448000.0
20
2180.0
30
0
11
-448000.0
21
2172.21
31
0
0
LINE
8
electrical
10
-448000.0
20
2172.21
30
0
11
-448000.0
21
2187.79
31
0
0
LINE
8
electrical
10
-448000.0
20
2187.79
30
0
11
-448000.0
21
2180.0
31
0
0
LINE
8
electrical
10
-448000.0
20
2180.0
30
0
11
-447990.28
21
2180.0
31
0
0
LINE
8
electrical
10
-447990.28
20
2180.0
30
0
11
-448000.0
21
2180.0
31
0
0
LINE
8
electrical
10
-430065.0
20
2150.0
30
0
11
-430065.0
21
2210.0
31
0
0
LINE
8
electrical
10
-429935.0
20
2150.0
30
0
11
-429935.0
21
2210.0
31
0
0
LINE
8
electrical
10
-430065.0
20
2150.0
30
0
11
-429935.0
21
2150.0
31
0
0
LINE
8
electrical
10
-430065.0
20
2210.0
30
0
11
-429935.0
21
2210.0
31
0
0
LINE
8
electrical
10
-429991.0
20
2180.0
30
0
11
-430004.5
21
2187.79
31
0
0
LINE
8
electrical
10
-430004.5
20
2187.79
30
0
11
-430004.5
21
2172.21
31
0
0
LINE
8
electrical
10
-430004.5
20
2172.21
30
0
11
-429991.0
21
2180.0
31
0
0
LINE
8
electrical
10
-424450.0
20
2180.0
30
0
11
-424450.0
21
2172.21
31
0
0
LINE
8
electrical
10
-424450.0
20
2172.21
30
0
11
-424450.0
21
2187.79
31
0
0
LINE
8
electrical
10
-424450.0
20
2187.79
30
0
11
-424450.0
21
2180.0
31
0
0
LINE
8
electrical
10
-430000.0
20
2180.0
30
0
11
-424450.0
21
2180.0
31
0
0
LINE
8
electrical
10
-430000.0
20
2180.0
30
0
11
-430000.0
21
2172.21
31
0
0
LINE
8
electrical
10
-430000.0
20
2172.21
30
0
11
-430000.0
21
2187.79
31
0
0
LINE
8
electrical
10
-430000.0
20
2187.79
30
0
11
-430000.0
21
2180.0
31
0
0
LINE
8
electrical
10
-430000.0
20
2180.0
30
0
11
-429990.28
21
2180.0
31
0
0
LINE
8
electrical
10
-429990.28
20
2180.0
30
0
11
-430000.0
21
2180.0
31
0
0
LINE
8
hvac
10
-453525.0
20
2725.0
30
0
11
-453525.0
21
3475.0
31
0
0
LINE
8
hvac
10
-451875.0
20
2725.0
30
0
11
-451875.0
21
3475.0
31
0
0
LINE
8
hvac
10
-453525.0
20
2725.0
30
0
11
-451875.0
21
2725.0
31
0
0
LINE
8
hvac
10
-453525.0
20
3475.0
30
0
11
-451875.0
21
3475.0
31
0
0
LINE
8
hvac
10
-453425.0
20
2680.0
30
0
11
-453425.0
21
2720.0
31
0
0
LINE
8
hvac
10
-451975.0
20
2680.0
30
0
11
-451975.0
21
2720.0
31
0
0
LINE
8
hvac
10
-453425.0
20
2680.0
30
0
11
-451975.0
21
2680.0
31
0
0
LINE
8
hvac
10
-453425.0
20
2720.0
30
0
11
-451975.0
21
2720.0
31
0
0
LINE
8
hvac
10
-453360.0
20
2640.0
30
0
11
-453360.0
21
2700.0
31
0
0
LINE
8
hvac
10
-453320.0
20
2640.0
30
0
11
-453320.0
21
2700.0
31
0
0
LINE
8
hvac
10
-453360.0
20
2640.0
30
0
11
-453320.0
21
2640.0
31
0
0
LINE
8
hvac
10
-453360.0
20
2700.0
30
0
11
-453320.0
21
2700.0
31
0
0
LINE
8
hvac
10
-453200.0
20
2640.0
30
0
11
-453200.0
21
2700.0
31
0
0
LINE
8
hvac
10
-453160.0
20
2640.0
30
0
11
-453160.0
21
2700.0
31
0
0
LINE
8
hvac
10
-453200.0
20
2640.0
30
0
11
-453160.0
21
2640.0
31
0
0
LINE
8
hvac
10
-453200.0
20
2700.0
30
0
11
-453160.0
21
2700.0
31
0
0
LINE
8
hvac
10
-453040.0
20
2640.0
30
0
11
-453040.0
21
2700.0
31
0
0
LINE
8
hvac
10
-453000.0
20
2640.0
30
0
11
-453000.0
21
2700.0
31
0
0
LINE
8
hvac
10
-453040.0
20
2640.0
30
0
11
-453000.0
21
2640.0
31
0
0
LINE
8
hvac
10
-453040.0
20
2700.0
30
0
11
-453000.0
21
2700.0
31
0
0
LINE
8
hvac
10
-452880.0
20
2640.0
30
0
11
-452880.0
21
2700.0
31
0
0
LINE
8
hvac
10
-452840.0
20
2640.0
30
0
11
-452840.0
21
2700.0
31
0
0
LINE
8
hvac
10
-452880.0
20
2640.0
30
0
11
-452840.0
21
2640.0
31
0
0
LINE
8
hvac
10
-452880.0
20
2700.0
30
0
11
-452840.0
21
2700.0
31
0
0
LINE
8
hvac
10
-452720.0
20
2640.0
30
0
11
-452720.0
21
2700.0
31
0
0
LINE
8
hvac
10
-452680.0
20
2640.0
30
0
11
-452680.0
21
2700.0
31
0
0
LINE
8
hvac
10
-452720.0
20
2640.0
30
0
11
-452680.0
21
2640.0
31
0
0
LINE
8
hvac
10
-452720.0
20
2700.0
30
0
11
-452680.0
21
2700.0
31
0
0
LINE
8
hvac
10
-452560.0
20
2640.0
30
0
11
-452560.0
21
2700.0
31
0
0
LINE
8
hvac
10
-452520.0
20
2640.0
30
0
11
-452520.0
21
2700.0
31
0
0
LINE
8
hvac
10
-452560.0
20
2640.0
30
0
11
-452520.0
21
2640.0
31
0
0
LINE
8
hvac
10
-452560.0
20
2700.0
30
0
11
-452520.0
21
2700.0
31
0
0
LINE
8
hvac
10
-452400.0
20
2640.0
30
0
11
-452400.0
21
2700.0
31
0
0
LINE
8
hvac
10
-452360.0
20
2640.0
30
0
11
-452360.0
21
2700.0
31
0
0
LINE
8
hvac
10
-452400.0
20
2640.0
30
0
11
-452360.0
21
2640.0
31
0
0
LINE
8
hvac
10
-452400.0
20
2700.0
30
0
11
-452360.0
21
2700.0
31
0
0
LINE
8
hvac
10
-452240.0
20
2640.0
30
0
11
-452240.0
21
2700.0
31
0
0
LINE
8
hvac
10
-452200.0
20
2640.0
30
0
11
-452200.0
21
2700.0
31
0
0
LINE
8
hvac
10
-452240.0
20
2640.0
30
0
11
-452200.0
21
2640.0
31
0
0
LINE
8
hvac
10
-452240.0
20
2700.0
30
0
11
-452200.0
21
2700.0
31
0
0
LINE
8
hvac
10
-452080.0
20
2640.0
30
0
11
-452080.0
21
2700.0
31
0
0
LINE
8
hvac
10
-452040.0
20
2640.0
30
0
11
-452040.0
21
2700.0
31
0
0
LINE
8
hvac
10
-452080.0
20
2640.0
30
0
11
-452040.0
21
2640.0
31
0
0
LINE
8
hvac
10
-452080.0
20
2700.0
30
0
11
-452040.0
21
2700.0
31
0
0
LINE
8
hvac
10
-452925.0
20
2875.0
30
0
11
-452925.0
21
3325.0
31
0
0
LINE
8
hvac
10
-452475.0
20
2875.0
30
0
11
-452475.0
21
3325.0
31
0
0
LINE
8
hvac
10
-452925.0
20
2875.0
30
0
11
-452475.0
21
2875.0
31
0
0
LINE
8
hvac
10
-452925.0
20
3325.0
30
0
11
-452475.0
21
3325.0
31
0
0
LINE
8
hvac
10
-449500.0
20
11825.0
30
0
11
-449500.0
21
12175.0
31
0
0
LINE
8
hvac
10
-428500.0
20
11825.0
30
0
11
-428500.0
21
12175.0
31
0
0
LINE
8
hvac
10
-449500.0
20
11825.0
30
0
11
-428500.0
21
11825.0
31
0
0
LINE
8
hvac
10
-449500.0
20
12175.0
30
0
11
-428500.0
21
12175.0
31
0
0
LINE
8
hvac
10
-452875.0
20
2925.0
30
0
11
-452875.0
21
3275.0
31
0
0
LINE
8
hvac
10
-438825.0
20
2925.0
30
0
11
-438825.0
21
3275.0
31
0
0
LINE
8
hvac
10
-452875.0
20
2925.0
30
0
11
-438825.0
21
2925.0
31
0
0
LINE
8
hvac
10
-452875.0
20
3275.0
30
0
11
-438825.0
21
3275.0
31
0
0
LINE
8
hvac
10
-439175.0
20
2925.0
30
0
11
-439175.0
21
12175.0
31
0
0
LINE
8
hvac
10
-438825.0
20
2925.0
30
0
11
-438825.0
21
12175.0
31
0
0
LINE
8
hvac
10
-439175.0
20
2925.0
30
0
11
-438825.0
21
2925.0
31
0
0
LINE
8
hvac
10
-439175.0
20
12175.0
30
0
11
-438825.0
21
12175.0
31
0
0
LINE
8
hvac
10
-445350.0
20
11650.0
30
0
11
-445350.0
21
12350.0
31
0
0
LINE
8
hvac
10
-444650.0
20
11650.0
30
0
11
-444650.0
21
12350.0
31
0
0
LINE
8
hvac
10
-445350.0
20
11650.0
30
0
11
-444650.0
21
11650.0
31
0
0
LINE
8
hvac
10
-445350.0
20
12350.0
30
0
11
-444650.0
21
12350.0
31
0
0
LINE
8
hvac
10
-433350.0
20
11650.0
30
0
11
-433350.0
21
12350.0
31
0
0
LINE
8
hvac
10
-432650.0
20
11650.0
30
0
11
-432650.0
21
12350.0
31
0
0
LINE
8
hvac
10
-433350.0
20
11650.0
30
0
11
-432650.0
21
11650.0
31
0
0
LINE
8
hvac
10
-433350.0
20
12350.0
30
0
11
-432650.0
21
12350.0
31
0
0
LINE
8
water
10
-440060.0
20
2400.0
30
0
11
-440060.0
21
2325.0
31
0
0
LINE
8
water
10
-440060.0
20
2325.0
30
0
11
-440060.0
21
2400.0
31
0
0
LINE
8
water
10
-440060.0
20
2400.0
30
0
11
-440060.0
21
2475.0
31
0
0
LINE
8
water
10
-440060.0
20
2475.0
30
0
11
-440060.0
21
2400.0
31
0
0
LINE
8
water
10
-440460.0
20
2400.0
30
0
11
-440060.0
21
2400.0
31
0
0
LINE
8
water
10
-440460.0
20
2400.0
30
0
11
-440460.0
21
2325.0
31
0
0
LINE
8
water
10
-440460.0
20
2325.0
30
0
11
-440460.0
21
2400.0
31
0
0
LINE
8
water
10
-440460.0
20
2400.0
30
0
11
-440460.0
21
2475.0
31
0
0
LINE
8
water
10
-440460.0
20
2475.0
30
0
11
-440460.0
21
2400.0
31
0
0
LINE
8
water
10
-440170.0
20
2400.0
30
0
11
-440232.19
21
2485.6
31
0
0
LINE
8
water
10
-440232.19
20
2485.6
30
0
11
-440332.81
21
2452.9
31
0
0
LINE
8
water
10
-440332.81
20
2452.9
30
0
11
-440332.81
21
2347.1
31
0
0
LINE
8
water
10
-440332.81
20
2347.1
30
0
11
-440232.19
21
2314.4
31
0
0
LINE
8
water
10
-440232.19
20
2314.4
30
0
11
-440170.0
21
2400.0
31
0
0
LINE
8
water
10
-440450.0
20
2375.0
30
0
11
-440450.0
21
2425.0
31
0
0
LINE
8
water
10
-440070.0
20
2375.0
30
0
11
-440070.0
21
2425.0
31
0
0
LINE
8
water
10
-440450.0
20
2375.0
30
0
11
-440070.0
21
2375.0
31
0
0
LINE
8
water
10
-440450.0
20
2425.0
30
0
11
-440070.0
21
2425.0
31
0
0
LINE
8
water
10
-440385.0
20
2400.0
30
0
11
-440385.0
21
2295.38
31
0
0
LINE
8
water
10
-440385.0
20
2295.38
30
0
11
-440385.0
21
2335.34
31
0
0
LINE
8
water
10
-440385.0
20
2335.34
30
0
11
-440385.0
21
2464.66
31
0
0
LINE
8
water
10
-440385.0
20
2464.66
30
0
11
-440385.0
21
2504.62
31
0
0
LINE
8
water
10
-440385.0
20
2504.62
30
0
11
-440385.0
21
2400.0
31
0
0
LINE
8
water
10
-440410.0
20
2400.0
30
0
11
-440385.0
21
2400.0
31
0
0
LINE
8
water
10
-440410.0
20
2400.0
30
0
11
-440410.0
21
2295.38
31
0
0
LINE
8
water
10
-440410.0
20
2295.38
30
0
11
-440410.0
21
2335.34
31
0
0
LINE
8
water
10
-440410.0
20
2335.34
30
0
11
-440410.0
21
2464.66
31
0
0
LINE
8
water
10
-440410.0
20
2464.66
30
0
11
-440410.0
21
2504.62
31
0
0
LINE
8
water
10
-440410.0
20
2504.62
30
0
11
-440410.0
21
2400.0
31
0
0
LINE
8
water
10
-440085.0
20
2400.0
30
0
11
-440085.0
21
2295.38
31
0
0
LINE
8
water
10
-440085.0
20
2295.38
30
0
11
-440085.0
21
2335.34
31
0
0
LINE
8
water
10
-440085.0
20
2335.34
30
0
11
-440085.0
21
2464.66
31
0
0
LINE
8
water
10
-440085.0
20
2464.66
30
0
11
-440085.0
21
2504.62
31
0
0
LINE
8
water
10
-440085.0
20
2504.62
30
0
11
-440085.0
21
2400.0
31
0
0
LINE
8
water
10
-440110.0
20
2400.0
30
0
11
-440085.0
21
2400.0
31
0
0
LINE
8
water
10
-440110.0
20
2400.0
30
0
11
-440110.0
21
2295.38
31
0
0
LINE
8
water
10
-440110.0
20
2295.38
30
0
11
-440110.0
21
2335.34
31
0
0
LINE
8
water
10
-440110.0
20
2335.34
30
0
11
-440110.0
21
2464.66
31
0
0
LINE
8
water
10
-440110.0
20
2464.66
30
0
11
-440110.0
21
2504.62
31
0
0
LINE
8
water
10
-440110.0
20
2504.62
30
0
11
-440110.0
21
2400.0
31
0
0
LINE
8
water
10
-437200.0
20
2400.0
30
0
11
-437156.7
21
2400.0
31
0
0
LINE
8
water
10
-437156.7
20
2400.0
30
0
11
-437243.3
21
2400.0
31
0
0
LINE
8
water
10
-437243.3
20
2400.0
30
0
11
-437200.0
21
2400.0
31
0
0
LINE
8
water
10
-437200.0
20
-57500.0
30
0
11
-437200.0
21
2400.0
31
0
0
LINE
8
water
10
-437200.0
20
-57500.0
30
0
11
-437156.7
21
-57500.0
31
0
0
LINE
8
water
10
-437156.7
20
-57500.0
30
0
11
-437243.3
21
-57500.0
31
0
0
LINE
8
water
10
-437243.3
20
-57500.0
30
0
11
-437200.0
21
-57500.0
31
0
0
LINE
8
water
10
-447400.0
20
2400.0
30
0
11
-447400.0
21
2356.7
31
0
0
LINE
8
water
10
-447400.0
20
2356.7
30
0
11
-447400.0
21
2443.3
31
0
0
LINE
8
water
10
-447400.0
20
2443.3
30
0
11
-447400.0
21
2400.0
31
0
0
LINE
8
water
10
-437200.0
20
2400.0
30
0
11
-447400.0
21
2400.0
31
0
0
LINE
8
water
10
-437200.0
20
2400.0
30
0
11
-437200.0
21
2356.7
31
0
0
LINE
8
water
10
-437200.0
20
2356.7
30
0
11
-437200.0
21
2443.3
31
0
0
LINE
8
water
10
-437200.0
20
2443.3
30
0
11
-437200.0
21
2400.0
31
0
0
LINE
8
water
10
-447400.0
20
16600.0
30
0
11
-447356.7
21
16600.0
31
0
0
LINE
8
water
10
-447356.7
20
16600.0
30
0
11
-447443.3
21
16600.0
31
0
0
LINE
8
water
10
-447443.3
20
16600.0
30
0
11
-447400.0
21
16600.0
31
0
0
LINE
8
water
10
-447400.0
20
2400.0
30
0
11
-447400.0
21
16600.0
31
0
0
LINE
8
water
10
-447400.0
20
2400.0
30
0
11
-447356.7
21
2400.0
31
0
0
LINE
8
water
10
-447356.7
20
2400.0
30
0
11
-447443.3
21
2400.0
31
0
0
LINE
8
water
10
-447443.3
20
2400.0
30
0
11
-447400.0
21
2400.0
31
0
0
LINE
8
water
10
-447450.0
20
16600.0
30
0
11
-447375.0
21
16643.3
31
0
0
LINE
8
water
10
-447375.0
20
16643.3
30
0
11
-447375.0
21
16556.7
31
0
0
LINE
8
water
10
-447375.0
20
16556.7
30
0
11
-447450.0
21
16600.0
31
0
0
LINE
8
water
10
-437200.0
20
2400.0
30
0
11
-437146.0
21
2400.0
31
0
0
LINE
8
water
10
-437146.0
20
2400.0
30
0
11
-437200.0
21
2400.0
31
0
0
LINE
8
water
10
-447400.0
20
2400.0
30
0
11
-447346.0
21
2400.0
31
0
0
LINE
8
water
10
-447346.0
20
2400.0
30
0
11
-447400.0
21
2400.0
31
0
0
LINE
8
water
10
-447400.0
20
16600.0
30
0
11
-447346.0
21
16600.0
31
0
0
LINE
8
water
10
-447346.0
20
16600.0
30
0
11
-447400.0
21
16600.0
31
0
0
LINE
8
water
10
-448100.0
20
16200.0
30
0
11
-448100.0
21
17000.0
31
0
0
LINE
8
water
10
-446700.0
20
16200.0
30
0
11
-446700.0
21
17000.0
31
0
0
LINE
8
water
10
-448100.0
20
16200.0
30
0
11
-446700.0
21
16200.0
31
0
0
LINE
8
water
10
-448100.0
20
17000.0
30
0
11
-446700.0
21
17000.0
31
0
0
LINE
8
water
10
-447775.0
20
16275.0
30
0
11
-447775.0
21
16925.0
31
0
0
LINE
8
water
10
-447025.0
20
16275.0
30
0
11
-447025.0
21
16925.0
31
0
0
LINE
8
water
10
-447775.0
20
16275.0
30
0
11
-447025.0
21
16275.0
31
0
0
LINE
8
water
10
-447775.0
20
16925.0
30
0
11
-447025.0
21
16925.0
31
0
0
LINE
8
water
10
-447350.0
20
16600.0
30
0
11
-447350.0
21
16504.89
31
0
0
LINE
8
water
10
-447350.0
20
16504.89
30
0
11
-447350.0
21
16541.22
31
0
0
LINE
8
water
10
-447350.0
20
16541.22
30
0
11
-447350.0
21
16658.78
31
0
0
LINE
8
water
10
-447350.0
20
16658.78
30
0
11
-447350.0
21
16695.11
31
0
0
LINE
8
water
10
-447350.0
20
16695.11
30
0
11
-447350.0
21
16600.0
31
0
0
LINE
8
water
10
-447800.0
20
16600.0
30
0
11
-447350.0
21
16600.0
31
0
0
LINE
8
water
10
-447800.0
20
16600.0
30
0
11
-447800.0
21
16504.89
31
0
0
LINE
8
water
10
-447800.0
20
16504.89
30
0
11
-447800.0
21
16541.22
31
0
0
LINE
8
water
10
-447800.0
20
16541.22
30
0
11
-447800.0
21
16658.78
31
0
0
LINE
8
water
10
-447800.0
20
16658.78
30
0
11
-447800.0
21
16695.11
31
0
0
LINE
8
water
10
-447800.0
20
16695.11
30
0
11
-447800.0
21
16600.0
31
0
0
LINE
8
water
10
-447000.0
20
16600.0
30
0
11
-447075.0
21
16643.3
31
0
0
LINE
8
water
10
-447075.0
20
16643.3
30
0
11
-447075.0
21
16556.7
31
0
0
LINE
8
water
10
-447075.0
20
16556.7
30
0
11
-447000.0
21
16600.0
31
0
0
LINE
8
water
10
-436750.0
20
16600.0
30
0
11
-436750.0
21
16556.7
31
0
0
LINE
8
water
10
-436750.0
20
16556.7
30
0
11
-436750.0
21
16643.3
31
0
0
LINE
8
water
10
-436750.0
20
16643.3
30
0
11
-436750.0
21
16600.0
31
0
0
LINE
8
water
10
-447050.0
20
16600.0
30
0
11
-436750.0
21
16600.0
31
0
0
LINE
8
water
10
-447050.0
20
16600.0
30
0
11
-447050.0
21
16556.7
31
0
0
LINE
8
water
10
-447050.0
20
16556.7
30
0
11
-447050.0
21
16643.3
31
0
0
LINE
8
water
10
-447050.0
20
16643.3
30
0
11
-447050.0
21
16600.0
31
0
0
LINE
8
water
10
-436750.0
20
-56500.0
30
0
11
-436706.7
21
-56500.0
31
0
0
LINE
8
water
10
-436706.7
20
-56500.0
30
0
11
-436793.3
21
-56500.0
31
0
0
LINE
8
water
10
-436793.3
20
-56500.0
30
0
11
-436750.0
21
-56500.0
31
0
0
LINE
8
water
10
-436750.0
20
16600.0
30
0
11
-436750.0
21
-56500.0
31
0
0
LINE
8
water
10
-436750.0
20
16600.0
30
0
11
-436706.7
21
16600.0
31
0
0
LINE
8
water
10
-436706.7
20
16600.0
30
0
11
-436793.3
21
16600.0
31
0
0
LINE
8
water
10
-436793.3
20
16600.0
30
0
11
-436750.0
21
16600.0
31
0
0
LINE
8
water
10
-436700.0
20
-56500.0
30
0
11
-436775.0
21
-56456.7
31
0
0
LINE
8
water
10
-436775.0
20
-56456.7
30
0
11
-436775.0
21
-56543.3
31
0
0
LINE
8
water
10
-436775.0
20
-56543.3
30
0
11
-436700.0
21
-56500.0
31
0
0
LINE
8
water
10
-447050.0
20
16600.0
30
0
11
-446996.0
21
16600.0
31
0
0
LINE
8
water
10
-446996.0
20
16600.0
30
0
11
-447050.0
21
16600.0
31
0
0
LINE
8
water
10
-436750.0
20
16600.0
30
0
11
-436696.0
21
16600.0
31
0
0
LINE
8
water
10
-436696.0
20
16600.0
30
0
11
-436750.0
21
16600.0
31
0
0
LINE
8
water
10
-436750.0
20
-56500.0
30
0
11
-436696.0
21
-56500.0
31
0
0
LINE
8
water
10
-436696.0
20
-56500.0
30
0
11
-436750.0
21
-56500.0
31
0
0
LINE
8
sensors
10
-453960.0
20
6320.0
30
0
11
-453960.0
21
6480.0
31
0
0
LINE
8
sensors
10
-453860.0
20
6320.0
30
0
11
-453860.0
21
6480.0
31
0
0
LINE
8
sensors
10
-453960.0
20
6320.0
30
0
11
-453860.0
21
6320.0
31
0
0
LINE
8
sensors
10
-453960.0
20
6480.0
30
0
11
-453860.0
21
6480.0
31
0
0
LINE
8
sensors
10
-453855.0
20
6345.0
30
0
11
-453855.0
21
6455.0
31
0
0
LINE
8
sensors
10
-453835.0
20
6345.0
30
0
11
-453835.0
21
6455.0
31
0
0
LINE
8
sensors
10
-453855.0
20
6345.0
30
0
11
-453835.0
21
6345.0
31
0
0
LINE
8
sensors
10
-453855.0
20
6455.0
30
0
11
-453835.0
21
6455.0
31
0
0
LINE
8
sensors
10
-453960.0
20
6620.0
30
0
11
-453960.0
21
6780.0
31
0
0
LINE
8
sensors
10
-453860.0
20
6620.0
30
0
11
-453860.0
21
6780.0
31
0
0
LINE
8
sensors
10
-453960.0
20
6620.0
30
0
11
-453860.0
21
6620.0
31
0
0
LINE
8
sensors
10
-453960.0
20
6780.0
30
0
11
-453860.0
21
6780.0
31
0
0
LINE
8
sensors
10
-453855.0
20
6645.0
30
0
11
-453855.0
21
6755.0
31
0
0
LINE
8
sensors
10
-453835.0
20
6645.0
30
0
11
-453835.0
21
6755.0
31
0
0
LINE
8
sensors
10
-453855.0
20
6645.0
30
0
11
-453835.0
21
6645.0
31
0
0
LINE
8
sensors
10
-453855.0
20
6755.0
30
0
11
-453835.0
21
6755.0
31
0
0
LINE
8
sensors
10
-453960.0
20
6920.0
30
0
11
-453960.0
21
7080.0
31
0
0
LINE
8
sensors
10
-453860.0
20
6920.0
30
0
11
-453860.0
21
7080.0
31
0
0
LINE
8
sensors
10
-453960.0
20
6920.0
30
0
11
-453860.0
21
6920.0
31
0
0
LINE
8
sensors
10
-453960.0
20
7080.0
30
0
11
-453860.0
21
7080.0
31
0
0
LINE
8
sensors
10
-453855.0
20
6945.0
30
0
11
-453855.0
21
7055.0
31
0
0
LINE
8
sensors
10
-453835.0
20
6945.0
30
0
11
-453835.0
21
7055.0
31
0
0
LINE
8
sensors
10
-453855.0
20
6945.0
30
0
11
-453835.0
21
6945.0
31
0
0
LINE
8
sensors
10
-453855.0
20
7055.0
30
0
11
-453835.0
21
7055.0
31
0
0
LINE
8
sensors
10
-438920.0
20
12000.0
30
0
11
-439000.0
21
12080.0
31
0
0
LINE
8
sensors
10
-439000.0
20
12080.0
30
0
11
-439080.0
21
12000.0
31
0
0
LINE
8
sensors
10
-439080.0
20
12000.0
30
0
11
-439000.0
21
11920.0
31
0
0
LINE
8
sensors
10
-439000.0
20
11920.0
30
0
11
-438920.0
21
12000.0
31
0
0
LINE
8
sensors
10
-439000.0
20
12000.0
30
0
11
-438935.0
21
12000.0
31
0
0
LINE
8
sensors
10
-438935.0
20
12000.0
30
0
11
-439000.0
21
12000.0
31
0
0
LINE
8
sensors
10
-453960.0
20
7520.0
30
0
11
-453960.0
21
7680.0
31
0
0
LINE
8
sensors
10
-453860.0
20
7520.0
30
0
11
-453860.0
21
7680.0
31
0
0
LINE
8
sensors
10
-453960.0
20
7520.0
30
0
11
-453860.0
21
7520.0
31
0
0
LINE
8
sensors
10
-453960.0
20
7680.0
30
0
11
-453860.0
21
7680.0
31
0
0
LINE
8
sensors
10
-453855.0
20
7545.0
30
0
11
-453855.0
21
7655.0
31
0
0
LINE
8
sensors
10
-453835.0
20
7545.0
30
0
11
-453835.0
21
7655.0
31
0
0
LINE
8
sensors
10
-453855.0
20
7545.0
30
0
11
-453835.0
21
7545.0
31
0
0
LINE
8
sensors
10
-453855.0
20
7655.0
30
0
11
-453835.0
21
7655.0
31
0
0
LINE
8
sensors
10
-443720.0
20
2400.0
30
0
11
-443720.0
21
2325.0
31
0
0
LINE
8
sensors
10
-443720.0
20
2325.0
30
0
11
-443720.0
21
2400.0
31
0
0
LINE
8
sensors
10
-443720.0
20
2400.0
30
0
11
-443720.0
21
2475.0
31
0
0
LINE
8
sensors
10
-443720.0
20
2475.0
30
0
11
-443720.0
21
2400.0
31
0
0
LINE
8
sensors
10
-443940.0
20
2400.0
30
0
11
-443720.0
21
2400.0
31
0
0
LINE
8
sensors
10
-443940.0
20
2400.0
30
0
11
-443940.0
21
2325.0
31
0
0
LINE
8
sensors
10
-443940.0
20
2325.0
30
0
11
-443940.0
21
2400.0
31
0
0
LINE
8
sensors
10
-443940.0
20
2400.0
30
0
11
-443940.0
21
2475.0
31
0
0
LINE
8
sensors
10
-443940.0
20
2475.0
30
0
11
-443940.0
21
2400.0
31
0
0
LINE
8
sensors
10
-443910.0
20
2330.0
30
0
11
-443910.0
21
2470.0
31
0
0
LINE
8
sensors
10
-443750.0
20
2330.0
30
0
11
-443750.0
21
2470.0
31
0
0
LINE
8
sensors
10
-443910.0
20
2330.0
30
0
11
-443750.0
21
2330.0
31
0
0
LINE
8
sensors
10
-443910.0
20
2470.0
30
0
11
-443750.0
21
2470.0
31
0
0
ENDSEC
0
EOF
