0
SECTION
2
HEADER
9
$ACADVER
1
AC1015
9
$INSUNITS
70
4
0
ENDSEC
0
SECTION
2
ENTITIES
0
LINE
8
interiors
10
-375000.0
20
2000.0
30
0
11
-375000.0
21
22000.0
31
0
0
LINE
8
interiors
10
-375000.0
20
2000.0
30
0
11
-361200.0
21
2000.0
31
0
0
LINE
8
interiors
10
-361200.0
20
2000.0
30
0
11
-358800.0
21
2000.0
31
0
0
LINE
8
interiors
10
-358800.0
20
2000.0
30
0
11
-345000.0
21
2000.0
31
0
0
LINE
8
interiors
10
-375000.0
20
2000.0
30
0
11
-345000.0
21
2000.0
31
0
0
LINE
8
interiors
10
-375000.0
20
22000.0
30
0
11
-345000.0
21
22000.0
31
0
0
LINE
8
interiors
10
-345000.0
20
2000.0
30
0
11
-345000.0
21
22000.0
31
0
0
LINE
8
interiors
10
-345120.0
20
2120.0
30
0
11
-374880.0
21
2120.0
31
0
0
LINE
8
interiors
10
-345120.0
20
2120.0
30
0
11
-345120.0
21
21880.0
31
0
0
LINE
8
interiors
10
-345120.0
20
21880.0
30
0
11
-374880.0
21
21880.0
31
0
0
LINE
8
interiors
10
-374880.0
20
2120.0
30
0
11
-374880.0
21
21880.0
31
0
0
LINE
8
interiors
10
-367800.0
20
22000.0
30
0
11
-352200.0
21
22000.0
31
0
0
LINE
8
interiors
10
-358800.0
20
2000.0
30
0
11
-358800.0
21
2120.0
31
0
0
LINE
8
interiors
10
-345120.0
20
2120.0
30
0
11
-358800.0
21
2120.0
31
0
0
LINE
8
interiors
10
-361200.0
20
2120.0
30
0
11
-374880.0
21
2120.0
31
0
0
LINE
8
interiors
10
-361200.0
20
2000.0
30
0
11
-361200.0
21
2120.0
31
0
0
LINE
8
interiors
10
-361200.0
20
2120.0
30
0
11
-358800.0
21
2120.0
31
0
0
LINE
8
interiors
10
-367800.0
20
21880.0
30
0
11
-352200.0
21
21880.0
31
0
0
LINE
8
interiors
10
-367800.0
20
21880.0
30
0
11
-367800.0
21
22000.0
31
0
0
LINE
8
interiors
10
-352200.0
20
21880.0
30
0
11
-352200.0
21
22000.0
31
0
0
LINE
8
interiors
10
-367800.0
20
21977.5
30
0
11
-367800.0
21
22022.5
31
0
0
LINE
8
interiors
10
-352200.0
20
21977.5
30
0
11
-352200.0
21
22022.5
31
0
0
LINE
8
interiors
10
-367800.0
20
21977.5
30
0
11
-352200.0
21
21977.5
31
0
0
LINE
8
interiors
10
-367800.0
20
22022.5
30
0
11
-352200.0
21
22022.5
31
0
0
LINE
8
interiors
10
-374875.0
20
2125.0
30
0
11
-374875.0
21
21875.0
31
0
0
LINE
8
interiors
10
-345125.0
20
2125.0
30
0
11
-345125.0
21
21875.0
31
0
0
LINE
8
interiors
10
-374875.0
20
2125.0
30
0
11
-345125.0
21
2125.0
31
0
0
LINE
8
interiors
10
-374875.0
20
21875.0
30
0
11
-345125.0
21
21875.0
31
0
0
LINE
8
interiors
10
-361155.0
20
1880.0
30
0
11
-361155.0
21
2120.0
31
0
0
LINE
8
interiors
10
-361085.0
20
1880.0
30
0
11
-361085.0
21
2120.0
31
0
0
LINE
8
interiors
10
-361155.0
20
1880.0
30
0
11
-361085.0
21
1880.0
31
0
0
LINE
8
interiors
10
-361155.0
20
2120.0
30
0
11
-361085.0
21
2120.0
31
0
0
LINE
8
interiors
10
-358915.0
20
1880.0
30
0
11
-358915.0
21
2120.0
31
0
0
LINE
8
interiors
10
-358845.0
20
1880.0
30
0
11
-358845.0
21
2120.0
31
0
0
LINE
8
interiors
10
-358915.0
20
1880.0
30
0
11
-358845.0
21
1880.0
31
0
0
LINE
8
interiors
10
-358915.0
20
2120.0
30
0
11
-358845.0
21
2120.0
31
0
0
LINE
8
interiors
10
-361150.0
20
1880.0
30
0
11
-361150.0
21
2120.0
31
0
0
LINE
8
interiors
10
-358850.0
20
1880.0
30
0
11
-358850.0
21
2120.0
31
0
0
LINE
8
interiors
10
-361150.0
20
1880.0
30
0
11
-358850.0
21
1880.0
31
0
0
LINE
8
interiors
10
-361150.0
20
2120.0
30
0
11
-358850.0
21
2120.0
31
0
0
LINE
8
interiors
10
-361069.61
20
2090.49
30
0
11
-361110.39
21
2109.51
31
0
0
LINE
8
interiors
10
-360613.18
20
3069.3
30
0
11
-360653.96
21
3088.32
31
0
0
LINE
8
interiors
10
-361069.61
20
2090.49
30
0
11
-360613.18
21
3069.3
31
0
0
LINE
8
interiors
10
-361110.39
20
2109.51
30
0
11
-360653.96
21
3088.32
31
0
0
LINE
8
interiors
10
-368950.0
20
10800.0
30
0
11
-368950.0
21
13200.0
31
0
0
LINE
8
interiors
10
-365450.0
20
10800.0
30
0
11
-365450.0
21
13200.0
31
0
0
LINE
8
interiors
10
-368950.0
20
10800.0
30
0
11
-365450.0
21
10800.0
31
0
0
LINE
8
interiors
10
-368950.0
20
13200.0
30
0
11
-365450.0
21
13200.0
31
0
0
LINE
8
interiors
10
-366600.0
20
12000.0
30
0
11
-366695.25
21
12324.38
31
0
0
LINE
8
interiors
10
-366695.25
20
12324.38
30
0
11
-366950.75
21
12545.78
31
0
0
LINE
8
interiors
10
-366950.75
20
12545.78
30
0
11
-367285.39
21
12593.89
31
0
0
LINE
8
interiors
10
-367285.39
20
12593.89
30
0
11
-367592.92
21
12453.45
31
0
0
LINE
8
interiors
10
-367592.92
20
12453.45
30
0
11
-367775.7
21
12169.04
31
0
0
LINE
8
interiors
10
-367775.7
20
12169.04
30
0
11
-367775.7
21
11830.96
31
0
0
LINE
8
interiors
10
-367775.7
20
11830.96
30
0
11
-367592.92
21
11546.55
31
0
0
LINE
8
interiors
10
-367592.92
20
11546.55
30
0
11
-367285.39
21
11406.11
31
0
0
LINE
8
interiors
10
-367285.39
20
11406.11
30
0
11
-366950.75
21
11454.22
31
0
0
LINE
8
interiors
10
-366950.75
20
11454.22
30
0
11
-366695.25
21
11675.62
31
0
0
LINE
8
interiors
10
-366695.25
20
11675.62
30
0
11
-366600.0
21
12000.0
31
0
0
LINE
8
interiors
10
-365600.0
20
11350.0
30
0
11
-365600.0
21
12650.0
31
0
0
LINE
8
interiors
10
-364600.0
20
11350.0
30
0
11
-364600.0
21
12650.0
31
0
0
LINE
8
interiors
10
-365600.0
20
11350.0
30
0
11
-364600.0
21
11350.0
31
0
0
LINE
8
interiors
10
-365600.0
20
12650.0
30
0
11
-364600.0
21
12650.0
31
0
0
LINE
8
interiors
10
-365400.0
20
11270.0
30
0
11
-365400.0
21
11330.0
31
0
0
LINE
8
interiors
10
-364800.0
20
11270.0
30
0
11
-364800.0
21
11330.0
31
0
0
LINE
8
interiors
10
-365400.0
20
11270.0
30
0
11
-364800.0
21
11270.0
31
0
0
LINE
8
interiors
10
-365400.0
20
11330.0
30
0
11
-364800.0
21
11330.0
31
0
0
LINE
8
interiors
10
-365130.0
20
11265.0
30
0
11
-365130.0
21
11335.0
31
0
0
LINE
8
interiors
10
-365070.0
20
11265.0
30
0
11
-365070.0
21
11335.0
31
0
0
LINE
8
interiors
10
-365130.0
20
11265.0
30
0
11
-365070.0
21
11265.0
31
0
0
LINE
8
interiors
10
-365130.0
20
11335.0
30
0
11
-365070.0
21
11335.0
31
0
0
LINE
8
interiors
10
-365250.0
20
11190.0
30
0
11
-365250.0
21
11410.0
31
0
0
LINE
8
interiors
10
-364950.0
20
11190.0
30
0
11
-364950.0
21
11410.0
31
0
0
LINE
8
interiors
10
-365250.0
20
11190.0
30
0
11
-364950.0
21
11190.0
31
0
0
LINE
8
interiors
10
-365250.0
20
11410.0
30
0
11
-364950.0
21
11410.0
31
0
0
LINE
8
interiors
10
-354550.0
20
10800.0
30
0
11
-354550.0
21
13200.0
31
0
0
LINE
8
interiors
10
-351050.0
20
10800.0
30
0
11
-351050.0
21
13200.0
31
0
0
LINE
8
interiors
10
-354550.0
20
10800.0
30
0
11
-351050.0
21
10800.0
31
0
0
LINE
8
interiors
10
-354550.0
20
13200.0
30
0
11
-351050.0
21
13200.0
31
0
0
LINE
8
interiors
10
-352200.0
20
12000.0
30
0
11
-352295.25
21
12324.38
31
0
0
LINE
8
interiors
10
-352295.25
20
12324.38
30
0
11
-352550.75
21
12545.78
31
0
0
LINE
8
interiors
10
-352550.75
20
12545.78
30
0
11
-352885.39
21
12593.89
31
0
0
LINE
8
interiors
10
-352885.39
20
12593.89
30
0
11
-353192.92
21
12453.45
31
0
0
LINE
8
interiors
10
-353192.92
20
12453.45
30
0
11
-353375.7
21
12169.04
31
0
0
LINE
8
interiors
10
-353375.7
20
12169.04
30
0
11
-353375.7
21
11830.96
31
0
0
LINE
8
interiors
10
-353375.7
20
11830.96
30
0
11
-353192.92
21
11546.55
31
0
0
LINE
8
interiors
10
-353192.92
20
11546.55
30
0
11
-352885.39
21
11406.11
31
0
0
LINE
8
interiors
10
-352885.39
20
11406.11
30
0
11
-352550.75
21
11454.22
31
0
0
LINE
8
interiors
10
-352550.75
20
11454.22
30
0
11
-352295.25
21
11675.62
31
0
0
LINE
8
interiors
10
-352295.25
20
11675.62
30
0
11
-352200.0
21
12000.0
31
0
0
LINE
8
interiors
10
-351200.0
20
11350.0
30
0
11
-351200.0
21
12650.0
31
0
0
LINE
8
interiors
10
-350200.0
20
11350.0
30
0
11
-350200.0
21
12650.0
31
0
0
LINE
8
interiors
10
-351200.0
20
11350.0
30
0
11
-350200.0
21
11350.0
31
0
0
LINE
8
interiors
10
-351200.0
20
12650.0
30
0
11
-350200.0
21
12650.0
31
0
0
LINE
8
interiors
10
-351000.0
20
11270.0
30
0
11
-351000.0
21
11330.0
31
0
0
LINE
8
interiors
10
-350400.0
20
11270.0
30
0
11
-350400.0
21
11330.0
31
0
0
LINE
8
interiors
10
-351000.0
20
11270.0
30
0
11
-350400.0
21
11270.0
31
0
0
LINE
8
interiors
10
-351000.0
20
11330.0
30
0
11
-350400.0
21
11330.0
31
0
0
LINE
8
interiors
10
-350730.0
20
11265.0
30
0
11
-350730.0
21
11335.0
31
0
0
LINE
8
interiors
10
-350670.0
20
11265.0
30
0
11
-350670.0
21
11335.0
31
0
0
LINE
8
interiors
10
-350730.0
20
11265.0
30
0
11
-350670.0
21
11265.0
31
0
0
LINE
8
interiors
10
-350730.0
20
11335.0
30
0
11
-350670.0
21
11335.0
31
0
0
LINE
8
interiors
10
-350850.0
20
11190.0
30
0
11
-350850.0
21
11410.0
31
0
0
LINE
8
interiors
10
-350550.0
20
11190.0
30
0
11
-350550.0
21
11410.0
31
0
0
LINE
8
interiors
10
-350850.0
20
11190.0
30
0
11
-350550.0
21
11190.0
31
0
0
LINE
8
interiors
10
-350850.0
20
11410.0
30
0
11
-350550.0
21
11410.0
31
0
0
LINE
8
electrical
10
-345725.0
20
2075.0
30
0
11
-345725.0
21
2325.0
31
0
0
LINE
8
electrical
10
-345175.0
20
2075.0
30
0
11
-345175.0
21
2325.0
31
0
0
LINE
8
electrical
10
-345725.0
20
2075.0
30
0
11
-345175.0
21
2075.0
31
0
0
LINE
8
electrical
10
-345725.0
20
2325.0
30
0
11
-345175.0
21
2325.0
31
0
0
LINE
8
electrical
10
-345685.0
20
2047.5
30
0
11
-345685.0
21
2082.5
31
0
0
LINE
8
electrical
10
-345215.0
20
2047.5
30
0
11
-345215.0
21
2082.5
31
0
0
LINE
8
electrical
10
-345685.0
20
2047.5
30
0
11
-345215.0
21
2047.5
31
0
0
LINE
8
electrical
10
-345685.0
20
2082.5
30
0
11
-345215.0
21
2082.5
31
0
0
LINE
8
electrical
10
-345637.5
20
2010.0
30
0
11
-345637.5
21
2050.0
31
0
0
LINE
8
electrical
10
-345537.5
20
2010.0
30
0
11
-345537.5
21
2050.0
31
0
0
LINE
8
electrical
10
-345637.5
20
2010.0
30
0
11
-345537.5
21
2010.0
31
0
0
LINE
8
electrical
10
-345637.5
20
2050.0
30
0
11
-345537.5
21
2050.0
31
0
0
LINE
8
electrical
10
-345500.0
20
2010.0
30
0
11
-345500.0
21
2050.0
31
0
0
LINE
8
electrical
10
-345400.0
20
2010.0
30
0
11
-345400.0
21
2050.0
31
0
0
LINE
8
electrical
10
-345500.0
20
2010.0
30
0
11
-345400.0
21
2010.0
31
0
0
LINE
8
electrical
10
-345500.0
20
2050.0
30
0
11
-345400.0
21
2050.0
31
0
0
LINE
8
electrical
10
-345362.5
20
2010.0
30
0
11
-345362.5
21
2050.0
31
0
0
LINE
8
electrical
10
-345262.5
20
2010.0
30
0
11
-345262.5
21
2050.0
31
0
0
LINE
8
electrical
10
-345362.5
20
2010.0
30
0
11
-345262.5
21
2010.0
31
0
0
LINE
8
electrical
10
-345362.5
20
2050.0
30
0
11
-345262.5
21
2050.0
31
0
0
LINE
8
electrical
10
-345587.5
20
1995.0
30
0
11
-345564.12
21
1995.0
31
0
0
LINE
8
electrical
10
-345564.12
20
1995.0
30
0
11
-345610.88
21
1995.0
31
0
0
LINE
8
electrical
10
-345610.88
20
1995.0
30
0
11
-345587.5
21
1995.0
31
0
0
LINE
8
electrical
10
-345587.5
20
2020.0
30
0
11
-345587.5
21
1995.0
31
0
0
LINE
8
electrical
10
-345587.5
20
2020.0
30
0
11
-345564.12
21
2020.0
31
0
0
LINE
8
electrical
10
-345564.12
20
2020.0
30
0
11
-345610.88
21
2020.0
31
0
0
LINE
8
electrical
10
-345610.88
20
2020.0
30
0
11
-345587.5
21
2020.0
31
0
0
LINE
8
electrical
10
-345450.0
20
1995.0
30
0
11
-345426.62
21
1995.0
31
0
0
LINE
8
electrical
10
-345426.62
20
1995.0
30
0
11
-345473.38
21
1995.0
31
0
0
LINE
8
electrical
10
-345473.38
20
1995.0
30
0
11
-345450.0
21
1995.0
31
0
0
LINE
8
electrical
10
-345450.0
20
2020.0
30
0
11
-345450.0
21
1995.0
31
0
0
LINE
8
electrical
10
-345450.0
20
2020.0
30
0
11
-345426.62
21
2020.0
31
0
0
LINE
8
electrical
10
-345426.62
20
2020.0
30
0
11
-345473.38
21
2020.0
31
0
0
LINE
8
electrical
10
-345473.38
20
2020.0
30
0
11
-345450.0
21
2020.0
31
0
0
LINE
8
electrical
10
-345312.5
20
1995.0
30
0
11
-345289.12
21
1995.0
31
0
0
LINE
8
electrical
10
-345289.12
20
1995.0
30
0
11
-345335.88
21
1995.0
31
0
0
LINE
8
electrical
10
-345335.88
20
1995.0
30
0
11
-345312.5
21
1995.0
31
0
0
LINE
8
electrical
10
-345312.5
20
2020.0
30
0
11
-345312.5
21
1995.0
31
0
0
LINE
8
electrical
10
-345312.5
20
2020.0
30
0
11
-345289.12
21
2020.0
31
0
0
LINE
8
electrical
10
-345289.12
20
2020.0
30
0
11
-345335.88
21
2020.0
31
0
0
LINE
8
electrical
10
-345335.88
20
2020.0
30
0
11
-345312.5
21
2020.0
31
0
0
LINE
8
electrical
10
-345450.0
20
2200.0
30
0
11
-345434.41
21
2200.0
31
0
0
LINE
8
electrical
10
-345434.41
20
2200.0
30
0
11
-345465.59
21
2200.0
31
0
0
LINE
8
electrical
10
-345465.59
20
2200.0
30
0
11
-345450.0
21
2200.0
31
0
0
LINE
8
electrical
10
-345450.0
20
-62300.0
30
0
11
-345450.0
21
2200.0
31
0
0
LINE
8
electrical
10
-345450.0
20
-62300.0
30
0
11
-345434.41
21
-62300.0
31
0
0
LINE
8
electrical
10
-345434.41
20
-62300.0
30
0
11
-345465.59
21
-62300.0
31
0
0
LINE
8
electrical
10
-345465.59
20
-62300.0
30
0
11
-345450.0
21
-62300.0
31
0
0
LINE
8
electrical
10
-345468.0
20
2200.0
30
0
11
-345441.0
21
2215.59
31
0
0
LINE
8
electrical
10
-345441.0
20
2215.59
30
0
11
-345441.0
21
2184.41
31
0
0
LINE
8
electrical
10
-345441.0
20
2184.41
30
0
11
-345468.0
21
2200.0
31
0
0
LINE
8
electrical
10
-345450.0
20
2200.0
30
0
11
-345430.56
21
2200.0
31
0
0
LINE
8
electrical
10
-345430.56
20
2200.0
30
0
11
-345450.0
21
2200.0
31
0
0
LINE
8
lighting
10
-371120.0
20
4880.0
30
0
11
-371120.0
21
5520.0
31
0
0
LINE
8
lighting
10
-370480.0
20
4880.0
30
0
11
-370480.0
21
5520.0
31
0
0
LINE
8
lighting
10
-371120.0
20
4880.0
30
0
11
-370480.0
21
4880.0
31
0
0
LINE
8
lighting
10
-371120.0
20
5520.0
30
0
11
-370480.0
21
5520.0
31
0
0
LINE
8
lighting
10
-371080.0
20
4920.0
30
0
11
-371080.0
21
5480.0
31
0
0
LINE
8
lighting
10
-370520.0
20
4920.0
30
0
11
-370520.0
21
5480.0
31
0
0
LINE
8
lighting
10
-371080.0
20
4920.0
30
0
11
-370520.0
21
4920.0
31
0
0
LINE
8
lighting
10
-371080.0
20
5480.0
30
0
11
-370520.0
21
5480.0
31
0
0
LINE
8
lighting
10
-371046.0
20
4930.0
30
0
11
-371046.0
21
5470.0
31
0
0
LINE
8
lighting
10
-371034.0
20
4930.0
30
0
11
-371034.0
21
5470.0
31
0
0
LINE
8
lighting
10
-371046.0
20
4930.0
30
0
11
-371034.0
21
4930.0
31
0
0
LINE
8
lighting
10
-371046.0
20
5470.0
30
0
11
-371034.0
21
5470.0
31
0
0
LINE
8
lighting
10
-370966.0
20
4930.0
30
0
11
-370966.0
21
5470.0
31
0
0
LINE
8
lighting
10
-370954.0
20
4930.0
30
0
11
-370954.0
21
5470.0
31
0
0
LINE
8
lighting
10
-370966.0
20
4930.0
30
0
11
-370954.0
21
4930.0
31
0
0
LINE
8
lighting
10
-370966.0
20
5470.0
30
0
11
-370954.0
21
5470.0
31
0
0
LINE
8
lighting
10
-370886.0
20
4930.0
30
0
11
-370886.0
21
5470.0
31
0
0
LINE
8
lighting
10
-370874.0
20
4930.0
30
0
11
-370874.0
21
5470.0
31
0
0
LINE
8
lighting
10
-370886.0
20
4930.0
30
0
11
-370874.0
21
4930.0
31
0
0
LINE
8
lighting
10
-370886.0
20
5470.0
30
0
11
-370874.0
21
5470.0
31
0
0
LINE
8
lighting
10
-370806.0
20
4930.0
30
0
11
-370806.0
21
5470.0
31
0
0
LINE
8
lighting
10
-370794.0
20
4930.0
30
0
11
-370794.0
21
5470.0
31
0
0
LINE
8
lighting
10
-370806.0
20
4930.0
30
0
11
-370794.0
21
4930.0
31
0
0
LINE
8
lighting
10
-370806.0
20
5470.0
30
0
11
-370794.0
21
5470.0
31
0
0
LINE
8
lighting
10
-370726.0
20
4930.0
30
0
11
-370726.0
21
5470.0
31
0
0
LINE
8
lighting
10
-370714.0
20
4930.0
30
0
11
-370714.0
21
5470.0
31
0
0
LINE
8
lighting
10
-370726.0
20
4930.0
30
0
11
-370714.0
21
4930.0
31
0
0
LINE
8
lighting
10
-370726.0
20
5470.0
30
0
11
-370714.0
21
5470.0
31
0
0
LINE
8
lighting
10
-370646.0
20
4930.0
30
0
11
-370646.0
21
5470.0
31
0
0
LINE
8
lighting
10
-370634.0
20
4930.0
30
0
11
-370634.0
21
5470.0
31
0
0
LINE
8
lighting
10
-370646.0
20
4930.0
30
0
11
-370634.0
21
4930.0
31
0
0
LINE
8
lighting
10
-370646.0
20
5470.0
30
0
11
-370634.0
21
5470.0
31
0
0
LINE
8
lighting
10
-370566.0
20
4930.0
30
0
11
-370566.0
21
5470.0
31
0
0
LINE
8
lighting
10
-370554.0
20
4930.0
30
0
11
-370554.0
21
5470.0
31
0
0
LINE
8
lighting
10
-370566.0
20
4930.0
30
0
11
-370554.0
21
4930.0
31
0
0
LINE
8
lighting
10
-370566.0
20
5470.0
30
0
11
-370554.0
21
5470.0
31
0
0
LINE
8
lighting
10
-370791.0
20
5200.0
30
0
11
-370804.5
21
5207.79
31
0
0
LINE
8
lighting
10
-370804.5
20
5207.79
30
0
11
-370804.5
21
5192.21
31
0
0
LINE
8
lighting
10
-370804.5
20
5192.21
30
0
11
-370791.0
21
5200.0
31
0
0
LINE
8
lighting
10
-349520.0
20
4880.0
30
0
11
-349520.0
21
5520.0
31
0
0
LINE
8
lighting
10
-348880.0
20
4880.0
30
0
11
-348880.0
21
5520.0
31
0
0
LINE
8
lighting
10
-349520.0
20
4880.0
30
0
11
-348880.0
21
4880.0
31
0
0
LINE
8
lighting
10
-349520.0
20
5520.0
30
0
11
-348880.0
21
5520.0
31
0
0
LINE
8
lighting
10
-349480.0
20
4920.0
30
0
11
-349480.0
21
5480.0
31
0
0
LINE
8
lighting
10
-348920.0
20
4920.0
30
0
11
-348920.0
21
5480.0
31
0
0
LINE
8
lighting
10
-349480.0
20
4920.0
30
0
11
-348920.0
21
4920.0
31
0
0
LINE
8
lighting
10
-349480.0
20
5480.0
30
0
11
-348920.0
21
5480.0
31
0
0
LINE
8
lighting
10
-349446.0
20
4930.0
30
0
11
-349446.0
21
5470.0
31
0
0
LINE
8
lighting
10
-349434.0
20
4930.0
30
0
11
-349434.0
21
5470.0
31
0
0
LINE
8
lighting
10
-349446.0
20
4930.0
30
0
11
-349434.0
21
4930.0
31
0
0
LINE
8
lighting
10
-349446.0
20
5470.0
30
0
11
-349434.0
21
5470.0
31
0
0
LINE
8
lighting
10
-349366.0
20
4930.0
30
0
11
-349366.0
21
5470.0
31
0
0
LINE
8
lighting
10
-349354.0
20
4930.0
30
0
11
-349354.0
21
5470.0
31
0
0
LINE
8
lighting
10
-349366.0
20
4930.0
30
0
11
-349354.0
21
4930.0
31
0
0
LINE
8
lighting
10
-349366.0
20
5470.0
30
0
11
-349354.0
21
5470.0
31
0
0
LINE
8
lighting
10
-349286.0
20
4930.0
30
0
11
-349286.0
21
5470.0
31
0
0
LINE
8
lighting
10
-349274.0
20
4930.0
30
0
11
-349274.0
21
5470.0
31
0
0
LINE
8
lighting
10
-349286.0
20
4930.0
30
0
11
-349274.0
21
4930.0
31
0
0
LINE
8
lighting
10
-349286.0
20
5470.0
30
0
11
-349274.0
21
5470.0
31
0
0
LINE
8
lighting
10
-349206.0
20
4930.0
30
0
11
-349206.0
21
5470.0
31
0
0
LINE
8
lighting
10
-349194.0
20
4930.0
30
0
11
-349194.0
21
5470.0
31
0
0
LINE
8
lighting
10
-349206.0
20
4930.0
30
0
11
-349194.0
21
4930.0
31
0
0
LINE
8
lighting
10
-349206.0
20
5470.0
30
0
11
-349194.0
21
5470.0
31
0
0
LINE
8
lighting
10
-349126.0
20
4930.0
30
0
11
-349126.0
21
5470.0
31
0
0
LINE
8
lighting
10
-349114.0
20
4930.0
30
0
11
-349114.0
21
5470.0
31
0
0
LINE
8
lighting
10
-349126.0
20
4930.0
30
0
11
-349114.0
21
4930.0
31
0
0
LINE
8
lighting
10
-349126.0
20
5470.0
30
0
11
-349114.0
21
5470.0
31
0
0
LINE
8
lighting
10
-349046.0
20
4930.0
30
0
11
-349046.0
21
5470.0
31
0
0
LINE
8
lighting
10
-349034.0
20
4930.0
30
0
11
-349034.0
21
5470.0
31
0
0
LINE
8
lighting
10
-349046.0
20
4930.0
30
0
11
-349034.0
21
4930.0
31
0
0
LINE
8
lighting
10
-349046.0
20
5470.0
30
0
11
-349034.0
21
5470.0
31
0
0
LINE
8
lighting
10
-348966.0
20
4930.0
30
0
11
-348966.0
21
5470.0
31
0
0
LINE
8
lighting
10
-348954.0
20
4930.0
30
0
11
-348954.0
21
5470.0
31
0
0
LINE
8
lighting
10
-348966.0
20
4930.0
30
0
11
-348954.0
21
4930.0
31
0
0
LINE
8
lighting
10
-348966.0
20
5470.0
30
0
11
-348954.0
21
5470.0
31
0
0
LINE
8
lighting
10
-349191.0
20
5200.0
30
0
11
-349204.5
21
5207.79
31
0
0
LINE
8
lighting
10
-349204.5
20
5207.79
30
0
11
-349204.5
21
5192.21
31
0
0
LINE
8
lighting
10
-349204.5
20
5192.21
30
0
11
-349191.0
21
5200.0
31
0
0
LINE
8
lighting
10
-360320.0
20
4880.0
30
0
11
-360320.0
21
5520.0
31
0
0
LINE
8
lighting
10
-359680.0
20
4880.0
30
0
11
-359680.0
21
5520.0
31
0
0
LINE
8
lighting
10
-360320.0
20
4880.0
30
0
11
-359680.0
21
4880.0
31
0
0
LINE
8
lighting
10
-360320.0
20
5520.0
30
0
11
-359680.0
21
5520.0
31
0
0
LINE
8
lighting
10
-360280.0
20
4920.0
30
0
11
-360280.0
21
5480.0
31
0
0
LINE
8
lighting
10
-359720.0
20
4920.0
30
0
11
-359720.0
21
5480.0
31
0
0
LINE
8
lighting
10
-360280.0
20
4920.0
30
0
11
-359720.0
21
4920.0
31
0
0
LINE
8
lighting
10
-360280.0
20
5480.0
30
0
11
-359720.0
21
5480.0
31
0
0
LINE
8
lighting
10
-360246.0
20
4930.0
30
0
11
-360246.0
21
5470.0
31
0
0
LINE
8
lighting
10
-360234.0
20
4930.0
30
0
11
-360234.0
21
5470.0
31
0
0
LINE
8
lighting
10
-360246.0
20
4930.0
30
0
11
-360234.0
21
4930.0
31
0
0
LINE
8
lighting
10
-360246.0
20
5470.0
30
0
11
-360234.0
21
5470.0
31
0
0
LINE
8
lighting
10
-360166.0
20
4930.0
30
0
11
-360166.0
21
5470.0
31
0
0
LINE
8
lighting
10
-360154.0
20
4930.0
30
0
11
-360154.0
21
5470.0
31
0
0
LINE
8
lighting
10
-360166.0
20
4930.0
30
0
11
-360154.0
21
4930.0
31
0
0
LINE
8
lighting
10
-360166.0
20
5470.0
30
0
11
-360154.0
21
5470.0
31
0
0
LINE
8
lighting
10
-360086.0
20
4930.0
30
0
11
-360086.0
21
5470.0
31
0
0
LINE
8
lighting
10
-360074.0
20
4930.0
30
0
11
-360074.0
21
5470.0
31
0
0
LINE
8
lighting
10
-360086.0
20
4930.0
30
0
11
-360074.0
21
4930.0
31
0
0
LINE
8
lighting
10
-360086.0
20
5470.0
30
0
11
-360074.0
21
5470.0
31
0
0
LINE
8
lighting
10
-360006.0
20
4930.0
30
0
11
-360006.0
21
5470.0
31
0
0
LINE
8
lighting
10
-359994.0
20
4930.0
30
0
11
-359994.0
21
5470.0
31
0
0
LINE
8
lighting
10
-360006.0
20
4930.0
30
0
11
-359994.0
21
4930.0
31
0
0
LINE
8
lighting
10
-360006.0
20
5470.0
30
0
11
-359994.0
21
5470.0
31
0
0
LINE
8
lighting
10
-359926.0
20
4930.0
30
0
11
-359926.0
21
5470.0
31
0
0
LINE
8
lighting
10
-359914.0
20
4930.0
30
0
11
-359914.0
21
5470.0
31
0
0
LINE
8
lighting
10
-359926.0
20
4930.0
30
0
11
-359914.0
21
4930.0
31
0
0
LINE
8
lighting
10
-359926.0
20
5470.0
30
0
11
-359914.0
21
5470.0
31
0
0
LINE
8
lighting
10
-359846.0
20
4930.0
30
0
11
-359846.0
21
5470.0
31
0
0
LINE
8
lighting
10
-359834.0
20
4930.0
30
0
11
-359834.0
21
5470.0
31
0
0
LINE
8
lighting
10
-359846.0
20
4930.0
30
0
11
-359834.0
21
4930.0
31
0
0
LINE
8
lighting
10
-359846.0
20
5470.0
30
0
11
-359834.0
21
5470.0
31
0
0
LINE
8
lighting
10
-359766.0
20
4930.0
30
0
11
-359766.0
21
5470.0
31
0
0
LINE
8
lighting
10
-359754.0
20
4930.0
30
0
11
-359754.0
21
5470.0
31
0
0
LINE
8
lighting
10
-359766.0
20
4930.0
30
0
11
-359754.0
21
4930.0
31
0
0
LINE
8
lighting
10
-359766.0
20
5470.0
30
0
11
-359754.0
21
5470.0
31
0
0
LINE
8
lighting
10
-359991.0
20
5200.0
30
0
11
-360004.5
21
5207.79
31
0
0
LINE
8
lighting
10
-360004.5
20
5207.79
30
0
11
-360004.5
21
5192.21
31
0
0
LINE
8
lighting
10
-360004.5
20
5192.21
30
0
11
-359991.0
21
5200.0
31
0
0
LINE
8
lighting
10
-371120.0
20
18480.0
30
0
11
-371120.0
21
19120.0
31
0
0
LINE
8
lighting
10
-370480.0
20
18480.0
30
0
11
-370480.0
21
19120.0
31
0
0
LINE
8
lighting
10
-371120.0
20
18480.0
30
0
11
-370480.0
21
18480.0
31
0
0
LINE
8
lighting
10
-371120.0
20
19120.0
30
0
11
-370480.0
21
19120.0
31
0
0
LINE
8
lighting
10
-371080.0
20
18520.0
30
0
11
-371080.0
21
19080.0
31
0
0
LINE
8
lighting
10
-370520.0
20
18520.0
30
0
11
-370520.0
21
19080.0
31
0
0
LINE
8
lighting
10
-371080.0
20
18520.0
30
0
11
-370520.0
21
18520.0
31
0
0
LINE
8
lighting
10
-371080.0
20
19080.0
30
0
11
-370520.0
21
19080.0
31
0
0
LINE
8
lighting
10
-371046.0
20
18530.0
30
0
11
-371046.0
21
19070.0
31
0
0
LINE
8
lighting
10
-371034.0
20
18530.0
30
0
11
-371034.0
21
19070.0
31
0
0
LINE
8
lighting
10
-371046.0
20
18530.0
30
0
11
-371034.0
21
18530.0
31
0
0
LINE
8
lighting
10
-371046.0
20
19070.0
30
0
11
-371034.0
21
19070.0
31
0
0
LINE
8
lighting
10
-370966.0
20
18530.0
30
0
11
-370966.0
21
19070.0
31
0
0
LINE
8
lighting
10
-370954.0
20
18530.0
30
0
11
-370954.0
21
19070.0
31
0
0
LINE
8
lighting
10
-370966.0
20
18530.0
30
0
11
-370954.0
21
18530.0
31
0
0
LINE
8
lighting
10
-370966.0
20
19070.0
30
0
11
-370954.0
21
19070.0
31
0
0
LINE
8
lighting
10
-370886.0
20
18530.0
30
0
11
-370886.0
21
19070.0
31
0
0
LINE
8
lighting
10
-370874.0
20
18530.0
30
0
11
-370874.0
21
19070.0
31
0
0
LINE
8
lighting
10
-370886.0
20
18530.0
30
0
11
-370874.0
21
18530.0
31
0
0
LINE
8
lighting
10
-370886.0
20
19070.0
30
0
11
-370874.0
21
19070.0
31
0
0
LINE
8
lighting
10
-370806.0
20
18530.0
30
0
11
-370806.0
21
19070.0
31
0
0
LINE
8
lighting
10
-370794.0
20
18530.0
30
0
11
-370794.0
21
19070.0
31
0
0
LINE
8
lighting
10
-370806.0
20
18530.0
30
0
11
-370794.0
21
18530.0
31
0
0
LINE
8
lighting
10
-370806.0
20
19070.0
30
0
11
-370794.0
21
19070.0
31
0
0
LINE
8
lighting
10
-370726.0
20
18530.0
30
0
11
-370726.0
21
19070.0
31
0
0
LINE
8
lighting
10
-370714.0
20
18530.0
30
0
11
-370714.0
21
19070.0
31
0
0
LINE
8
lighting
10
-370726.0
20
18530.0
30
0
11
-370714.0
21
18530.0
31
0
0
LINE
8
lighting
10
-370726.0
20
19070.0
30
0
11
-370714.0
21
19070.0
31
0
0
LINE
8
lighting
10
-370646.0
20
18530.0
30
0
11
-370646.0
21
19070.0
31
0
0
LINE
8
lighting
10
-370634.0
20
18530.0
30
0
11
-370634.0
21
19070.0
31
0
0
LINE
8
lighting
10
-370646.0
20
18530.0
30
0
11
-370634.0
21
18530.0
31
0
0
LINE
8
lighting
10
-370646.0
20
19070.0
30
0
11
-370634.0
21
19070.0
31
0
0
LINE
8
lighting
10
-370566.0
20
18530.0
30
0
11
-370566.0
21
19070.0
31
0
0
LINE
8
lighting
10
-370554.0
20
18530.0
30
0
11
-370554.0
21
19070.0
31
0
0
LINE
8
lighting
10
-370566.0
20
18530.0
30
0
11
-370554.0
21
18530.0
31
0
0
LINE
8
lighting
10
-370566.0
20
19070.0
30
0
11
-370554.0
21
19070.0
31
0
0
LINE
8
lighting
10
-370791.0
20
18800.0
30
0
11
-370804.5
21
18807.79
31
0
0
LINE
8
lighting
10
-370804.5
20
18807.79
30
0
11
-370804.5
21
18792.21
31
0
0
LINE
8
lighting
10
-370804.5
20
18792.21
30
0
11
-370791.0
21
18800.0
31
0
0
LINE
8
lighting
10
-349520.0
20
18480.0
30
0
11
-349520.0
21
19120.0
31
0
0
LINE
8
lighting
10
-348880.0
20
18480.0
30
0
11
-348880.0
21
19120.0
31
0
0
LINE
8
lighting
10
-349520.0
20
18480.0
30
0
11
-348880.0
21
18480.0
31
0
0
LINE
8
lighting
10
-349520.0
20
19120.0
30
0
11
-348880.0
21
19120.0
31
0
0
LINE
8
lighting
10
-349480.0
20
18520.0
30
0
11
-349480.0
21
19080.0
31
0
0
LINE
8
lighting
10
-348920.0
20
18520.0
30
0
11
-348920.0
21
19080.0
31
0
0
LINE
8
lighting
10
-349480.0
20
18520.0
30
0
11
-348920.0
21
18520.0
31
0
0
LINE
8
lighting
10
-349480.0
20
19080.0
30
0
11
-348920.0
21
19080.0
31
0
0
LINE
8
lighting
10
-349446.0
20
18530.0
30
0
11
-349446.0
21
19070.0
31
0
0
LINE
8
lighting
10
-349434.0
20
18530.0
30
0
11
-349434.0
21
19070.0
31
0
0
LINE
8
lighting
10
-349446.0
20
18530.0
30
0
11
-349434.0
21
18530.0
31
0
0
LINE
8
lighting
10
-349446.0
20
19070.0
30
0
11
-349434.0
21
19070.0
31
0
0
LINE
8
lighting
10
-349366.0
20
18530.0
30
0
11
-349366.0
21
19070.0
31
0
0
LINE
8
lighting
10
-349354.0
20
18530.0
30
0
11
-349354.0
21
19070.0
31
0
0
LINE
8
lighting
10
-349366.0
20
18530.0
30
0
11
-349354.0
21
18530.0
31
0
0
LINE
8
lighting
10
-349366.0
20
19070.0
30
0
11
-349354.0
21
19070.0
31
0
0
LINE
8
lighting
10
-349286.0
20
18530.0
30
0
11
-349286.0
21
19070.0
31
0
0
LINE
8
lighting
10
-349274.0
20
18530.0
30
0
11
-349274.0
21
19070.0
31
0
0
LINE
8
lighting
10
-349286.0
20
18530.0
30
0
11
-349274.0
21
18530.0
31
0
0
LINE
8
lighting
10
-349286.0
20
19070.0
30
0
11
-349274.0
21
19070.0
31
0
0
LINE
8
lighting
10
-349206.0
20
18530.0
30
0
11
-349206.0
21
19070.0
31
0
0
LINE
8
lighting
10
-349194.0
20
18530.0
30
0
11
-349194.0
21
19070.0
31
0
0
LINE
8
lighting
10
-349206.0
20
18530.0
30
0
11
-349194.0
21
18530.0
31
0
0
LINE
8
lighting
10
-349206.0
20
19070.0
30
0
11
-349194.0
21
19070.0
31
0
0
LINE
8
lighting
10
-349126.0
20
18530.0
30
0
11
-349126.0
21
19070.0
31
0
0
LINE
8
lighting
10
-349114.0
20
18530.0
30
0
11
-349114.0
21
19070.0
31
0
0
LINE
8
lighting
10
-349126.0
20
18530.0
30
0
11
-349114.0
21
18530.0
31
0
0
LINE
8
lighting
10
-349126.0
20
19070.0
30
0
11
-349114.0
21
19070.0
31
0
0
LINE
8
lighting
10
-349046.0
20
18530.0
30
0
11
-349046.0
21
19070.0
31
0
0
LINE
8
lighting
10
-349034.0
20
18530.0
30
0
11
-349034.0
21
19070.0
31
0
0
LINE
8
lighting
10
-349046.0
20
18530.0
30
0
11
-349034.0
21
18530.0
31
0
0
LINE
8
lighting
10
-349046.0
20
19070.0
30
0
11
-349034.0
21
19070.0
31
0
0
LINE
8
lighting
10
-348966.0
20
18530.0
30
0
11
-348966.0
21
19070.0
31
0
0
LINE
8
lighting
10
-348954.0
20
18530.0
30
0
11
-348954.0
21
19070.0
31
0
0
LINE
8
lighting
10
-348966.0
20
18530.0
30
0
11
-348954.0
21
18530.0
31
0
0
LINE
8
lighting
10
-348966.0
20
19070.0
30
0
11
-348954.0
21
19070.0
31
0
0
LINE
8
lighting
10
-349191.0
20
18800.0
30
0
11
-349204.5
21
18807.79
31
0
0
LINE
8
lighting
10
-349204.5
20
18807.79
30
0
11
-349204.5
21
18792.21
31
0
0
LINE
8
lighting
10
-349204.5
20
18792.21
30
0
11
-349191.0
21
18800.0
31
0
0
LINE
8
lighting
10
-360320.0
20
18480.0
30
0
11
-360320.0
21
19120.0
31
0
0
LINE
8
lighting
10
-359680.0
20
18480.0
30
0
11
-359680.0
21
19120.0
31
0
0
LINE
8
lighting
10
-360320.0
20
18480.0
30
0
11
-359680.0
21
18480.0
31
0
0
LINE
8
lighting
10
-360320.0
20
19120.0
30
0
11
-359680.0
21
19120.0
31
0
0
LINE
8
lighting
10
-360280.0
20
18520.0
30
0
11
-360280.0
21
19080.0
31
0
0
LINE
8
lighting
10
-359720.0
20
18520.0
30
0
11
-359720.0
21
19080.0
31
0
0
LINE
8
lighting
10
-360280.0
20
18520.0
30
0
11
-359720.0
21
18520.0
31
0
0
LINE
8
lighting
10
-360280.0
20
19080.0
30
0
11
-359720.0
21
19080.0
31
0
0
LINE
8
lighting
10
-360246.0
20
18530.0
30
0
11
-360246.0
21
19070.0
31
0
0
LINE
8
lighting
10
-360234.0
20
18530.0
30
0
11
-360234.0
21
19070.0
31
0
0
LINE
8
lighting
10
-360246.0
20
18530.0
30
0
11
-360234.0
21
18530.0
31
0
0
LINE
8
lighting
10
-360246.0
20
19070.0
30
0
11
-360234.0
21
19070.0
31
0
0
LINE
8
lighting
10
-360166.0
20
18530.0
30
0
11
-360166.0
21
19070.0
31
0
0
LINE
8
lighting
10
-360154.0
20
18530.0
30
0
11
-360154.0
21
19070.0
31
0
0
LINE
8
lighting
10
-360166.0
20
18530.0
30
0
11
-360154.0
21
18530.0
31
0
0
LINE
8
lighting
10
-360166.0
20
19070.0
30
0
11
-360154.0
21
19070.0
31
0
0
LINE
8
lighting
10
-360086.0
20
18530.0
30
0
11
-360086.0
21
19070.0
31
0
0
LINE
8
lighting
10
-360074.0
20
18530.0
30
0
11
-360074.0
21
19070.0
31
0
0
LINE
8
lighting
10
-360086.0
20
18530.0
30
0
11
-360074.0
21
18530.0
31
0
0
LINE
8
lighting
10
-360086.0
20
19070.0
30
0
11
-360074.0
21
19070.0
31
0
0
LINE
8
lighting
10
-360006.0
20
18530.0
30
0
11
-360006.0
21
19070.0
31
0
0
LINE
8
lighting
10
-359994.0
20
18530.0
30
0
11
-359994.0
21
19070.0
31
0
0
LINE
8
lighting
10
-360006.0
20
18530.0
30
0
11
-359994.0
21
18530.0
31
0
0
LINE
8
lighting
10
-360006.0
20
19070.0
30
0
11
-359994.0
21
19070.0
31
0
0
LINE
8
lighting
10
-359926.0
20
18530.0
30
0
11
-359926.0
21
19070.0
31
0
0
LINE
8
lighting
10
-359914.0
20
18530.0
30
0
11
-359914.0
21
19070.0
31
0
0
LINE
8
lighting
10
-359926.0
20
18530.0
30
0
11
-359914.0
21
18530.0
31
0
0
LINE
8
lighting
10
-359926.0
20
19070.0
30
0
11
-359914.0
21
19070.0
31
0
0
LINE
8
lighting
10
-359846.0
20
18530.0
30
0
11
-359846.0
21
19070.0
31
0
0
LINE
8
lighting
10
-359834.0
20
18530.0
30
0
11
-359834.0
21
19070.0
31
0
0
LINE
8
lighting
10
-359846.0
20
18530.0
30
0
11
-359834.0
21
18530.0
31
0
0
LINE
8
lighting
10
-359846.0
20
19070.0
30
0
11
-359834.0
21
19070.0
31
0
0
LINE
8
lighting
10
-359766.0
20
18530.0
30
0
11
-359766.0
21
19070.0
31
0
0
LINE
8
lighting
10
-359754.0
20
18530.0
30
0
11
-359754.0
21
19070.0
31
0
0
LINE
8
lighting
10
-359766.0
20
18530.0
30
0
11
-359754.0
21
18530.0
31
0
0
LINE
8
lighting
10
-359766.0
20
19070.0
30
0
11
-359754.0
21
19070.0
31
0
0
LINE
8
lighting
10
-359991.0
20
18800.0
30
0
11
-360004.5
21
18807.79
31
0
0
LINE
8
lighting
10
-360004.5
20
18807.79
30
0
11
-360004.5
21
18792.21
31
0
0
LINE
8
lighting
10
-360004.5
20
18792.21
30
0
11
-359991.0
21
18800.0
31
0
0
LINE
8
electrical
10
-370800.0
20
4880.0
30
0
11
-370800.0
21
4872.21
31
0
0
LINE
8
electrical
10
-370800.0
20
4872.21
30
0
11
-370800.0
21
4887.79
31
0
0
LINE
8
electrical
10
-370800.0
20
4887.79
30
0
11
-370800.0
21
4880.0
31
0
0
LINE
8
electrical
10
-345450.0
20
4880.0
30
0
11
-370800.0
21
4880.0
31
0
0
LINE
8
electrical
10
-345450.0
20
4880.0
30
0
11
-345450.0
21
4872.21
31
0
0
LINE
8
electrical
10
-345450.0
20
4872.21
30
0
11
-345450.0
21
4887.79
31
0
0
LINE
8
electrical
10
-345450.0
20
4887.79
30
0
11
-345450.0
21
4880.0
31
0
0
LINE
8
electrical
10
-370800.0
20
18800.0
30
0
11
-370792.21
21
18800.0
31
0
0
LINE
8
electrical
10
-370792.21
20
18800.0
30
0
11
-370807.79
21
18800.0
31
0
0
LINE
8
electrical
10
-370807.79
20
18800.0
30
0
11
-370800.0
21
18800.0
31
0
0
LINE
8
electrical
10
-370800.0
20
4880.0
30
0
11
-370800.0
21
18800.0
31
0
0
LINE
8
electrical
10
-370800.0
20
4880.0
30
0
11
-370792.21
21
4880.0
31
0
0
LINE
8
electrical
10
-370792.21
20
4880.0
30
0
11
-370807.79
21
4880.0
31
0
0
LINE
8
electrical
10
-370807.79
20
4880.0
30
0
11
-370800.0
21
4880.0
31
0
0
LINE
8
electrical
10
-349200.0
20
18800.0
30
0
11
-349192.21
21
18800.0
31
0
0
LINE
8
electrical
10
-349192.21
20
18800.0
30
0
11
-349207.79
21
18800.0
31
0
0
LINE
8
electrical
10
-349207.79
20
18800.0
30
0
11
-349200.0
21
18800.0
31
0
0
LINE
8
electrical
10
-349200.0
20
4880.0
30
0
11
-349200.0
21
18800.0
31
0
0
LINE
8
electrical
10
-349200.0
20
4880.0
30
0
11
-349192.21
21
4880.0
31
0
0
LINE
8
electrical
10
-349192.21
20
4880.0
30
0
11
-349207.79
21
4880.0
31
0
0
LINE
8
electrical
10
-349207.79
20
4880.0
30
0
11
-349200.0
21
4880.0
31
0
0
LINE
8
electrical
10
-360000.0
20
18800.0
30
0
11
-359992.21
21
18800.0
31
0
0
LINE
8
electrical
10
-359992.21
20
18800.0
30
0
11
-360007.79
21
18800.0
31
0
0
LINE
8
electrical
10
-360007.79
20
18800.0
30
0
11
-360000.0
21
18800.0
31
0
0
LINE
8
electrical
10
-360000.0
20
4880.0
30
0
11
-360000.0
21
18800.0
31
0
0
LINE
8
electrical
10
-360000.0
20
4880.0
30
0
11
-359992.21
21
4880.0
31
0
0
LINE
8
electrical
10
-359992.21
20
4880.0
30
0
11
-360007.79
21
4880.0
31
0
0
LINE
8
electrical
10
-360007.79
20
4880.0
30
0
11
-360000.0
21
4880.0
31
0
0
LINE
8
electrical
10
-345437.0
20
2200.0
30
0
11
-345456.5
21
2211.26
31
0
0
LINE
8
electrical
10
-345456.5
20
2211.26
30
0
11
-345456.5
21
2188.74
31
0
0
LINE
8
electrical
10
-345456.5
20
2188.74
30
0
11
-345437.0
21
2200.0
31
0
0
LINE
8
electrical
10
-349507.17
20
4869.16
30
0
11
-349496.41
21
4885.42
31
0
0
LINE
8
electrical
10
-349496.41
20
4885.42
30
0
11
-349496.41
21
4885.42
31
0
0
LINE
8
electrical
10
-349496.41
20
4885.42
30
0
11
-349507.17
21
4869.16
31
0
0
LINE
8
electrical
10
-345457.17
20
2189.16
30
0
11
-349507.17
21
4869.16
31
0
0
LINE
8
electrical
10
-345457.17
20
2189.16
30
0
11
-345446.41
21
2205.42
31
0
0
LINE
8
electrical
10
-345446.41
20
2205.42
30
0
11
-345446.41
21
2205.42
31
0
0
LINE
8
electrical
10
-345446.41
20
2205.42
30
0
11
-345457.17
21
2189.16
31
0
0
LINE
8
electrical
10
-370500.0
20
4880.0
30
0
11
-370500.0
21
4868.74
31
0
0
LINE
8
electrical
10
-370500.0
20
4868.74
30
0
11
-370500.0
21
4891.26
31
0
0
LINE
8
electrical
10
-370500.0
20
4891.26
30
0
11
-370500.0
21
4880.0
31
0
0
LINE
8
electrical
10
-349500.0
20
4880.0
30
0
11
-370500.0
21
4880.0
31
0
0
LINE
8
electrical
10
-349500.0
20
4880.0
30
0
11
-349500.0
21
4868.74
31
0
0
LINE
8
electrical
10
-349500.0
20
4868.74
30
0
11
-349500.0
21
4891.26
31
0
0
LINE
8
electrical
10
-349500.0
20
4891.26
30
0
11
-349500.0
21
4880.0
31
0
0
LINE
8
electrical
10
-345450.0
20
2200.0
30
0
11
-345435.96
21
2200.0
31
0
0
LINE
8
electrical
10
-345435.96
20
2200.0
30
0
11
-345450.0
21
2200.0
31
0
0
LINE
8
electrical
10
-349500.0
20
4880.0
30
0
11
-349485.96
21
4880.0
31
0
0
LINE
8
electrical
10
-349485.96
20
4880.0
30
0
11
-349500.0
21
4880.0
31
0
0
LINE
8
electrical
10
-345437.0
20
2200.0
30
0
11
-345456.5
21
2211.26
31
0
0
LINE
8
electrical
10
-345456.5
20
2211.26
30
0
11
-345456.5
21
2188.74
31
0
0
LINE
8
electrical
10
-345456.5
20
2188.74
30
0
11
-345437.0
21
2200.0
31
0
0
LINE
8
electrical
10
-349507.39
20
4989.31
30
0
11
-349496.3
21
5005.35
31
0
0
LINE
8
electrical
10
-349496.3
20
5005.35
30
0
11
-349496.3
21
5005.35
31
0
0
LINE
8
electrical
10
-349496.3
20
5005.35
30
0
11
-349507.39
21
4989.31
31
0
0
LINE
8
electrical
10
-345457.39
20
2189.31
30
0
11
-349507.39
21
4989.31
31
0
0
LINE
8
electrical
10
-345457.39
20
2189.31
30
0
11
-345446.3
21
2205.35
31
0
0
LINE
8
electrical
10
-345446.3
20
2205.35
30
0
11
-345446.3
21
2205.35
31
0
0
LINE
8
electrical
10
-345446.3
20
2205.35
30
0
11
-345457.39
21
2189.31
31
0
0
LINE
8
electrical
10
-370500.0
20
5000.0
30
0
11
-370500.0
21
4988.74
31
0
0
LINE
8
electrical
10
-370500.0
20
4988.74
30
0
11
-370500.0
21
5011.26
31
0
0
LINE
8
electrical
10
-370500.0
20
5011.26
30
0
11
-370500.0
21
5000.0
31
0
0
LINE
8
electrical
10
-349500.0
20
5000.0
30
0
11
-370500.0
21
5000.0
31
0
0
LINE
8
electrical
10
-349500.0
20
5000.0
30
0
11
-349500.0
21
4988.74
31
0
0
LINE
8
electrical
10
-349500.0
20
4988.74
30
0
11
-349500.0
21
5011.26
31
0
0
LINE
8
electrical
10
-349500.0
20
5011.26
30
0
11
-349500.0
21
5000.0
31
0
0
LINE
8
electrical
10
-345450.0
20
2200.0
30
0
11
-345435.96
21
2200.0
31
0
0
LINE
8
electrical
10
-345435.96
20
2200.0
30
0
11
-345450.0
21
2200.0
31
0
0
LINE
8
electrical
10
-349500.0
20
5000.0
30
0
11
-349485.96
21
5000.0
31
0
0
LINE
8
electrical
10
-349485.96
20
5000.0
30
0
11
-349500.0
21
5000.0
31
0
0
LINE
8
electrical
10
-345437.0
20
2200.0
30
0
11
-345456.5
21
2211.26
31
0
0
LINE
8
electrical
10
-345456.5
20
2211.26
30
0
11
-345456.5
21
2188.74
31
0
0
LINE
8
electrical
10
-345456.5
20
2188.74
30
0
11
-345437.0
21
2200.0
31
0
0
LINE
8
electrical
10
-349507.6
20
5109.45
30
0
11
-349496.2
21
5125.27
31
0
0
LINE
8
electrical
10
-349496.2
20
5125.27
30
0
11
-349496.2
21
5125.27
31
0
0
LINE
8
electrical
10
-349496.2
20
5125.27
30
0
11
-349507.6
21
5109.45
31
0
0
LINE
8
electrical
10
-345457.6
20
2189.45
30
0
11
-349507.6
21
5109.45
31
0
0
LINE
8
electrical
10
-345457.6
20
2189.45
30
0
11
-345446.2
21
2205.27
31
0
0
LINE
8
electrical
10
-345446.2
20
2205.27
30
0
11
-345446.2
21
2205.27
31
0
0
LINE
8
electrical
10
-345446.2
20
2205.27
30
0
11
-345457.6
21
2189.45
31
0
0
LINE
8
electrical
10
-370500.0
20
5120.0
30
0
11
-370500.0
21
5108.74
31
0
0
LINE
8
electrical
10
-370500.0
20
5108.74
30
0
11
-370500.0
21
5131.26
31
0
0
LINE
8
electrical
10
-370500.0
20
5131.26
30
0
11
-370500.0
21
5120.0
31
0
0
LINE
8
electrical
10
-349500.0
20
5120.0
30
0
11
-370500.0
21
5120.0
31
0
0
LINE
8
electrical
10
-349500.0
20
5120.0
30
0
11
-349500.0
21
5108.74
31
0
0
LINE
8
electrical
10
-349500.0
20
5108.74
30
0
11
-349500.0
21
5131.26
31
0
0
LINE
8
electrical
10
-349500.0
20
5131.26
30
0
11
-349500.0
21
5120.0
31
0
0
LINE
8
electrical
10
-345450.0
20
2200.0
30
0
11
-345435.96
21
2200.0
31
0
0
LINE
8
electrical
10
-345435.96
20
2200.0
30
0
11
-345450.0
21
2200.0
31
0
0
LINE
8
electrical
10
-349500.0
20
5120.0
30
0
11
-349485.96
21
5120.0
31
0
0
LINE
8
electrical
10
-349485.96
20
5120.0
30
0
11
-349500.0
21
5120.0
31
0
0
LINE
8
electrical
10
-369065.0
20
2150.0
30
0
11
-369065.0
21
2210.0
31
0
0
LINE
8
electrical
10
-368935.0
20
2150.0
30
0
11
-368935.0
21
2210.0
31
0
0
LINE
8
electrical
10
-369065.0
20
2150.0
30
0
11
-368935.0
21
2150.0
31
0
0
LINE
8
electrical
10
-369065.0
20
2210.0
30
0
11
-368935.0
21
2210.0
31
0
0
LINE
8
electrical
10
-368991.0
20
2180.0
30
0
11
-369004.5
21
2187.79
31
0
0
LINE
8
electrical
10
-369004.5
20
2187.79
30
0
11
-369004.5
21
2172.21
31
0
0
LINE
8
electrical
10
-369004.5
20
2172.21
30
0
11
-368991.0
21
2180.0
31
0
0
LINE
8
electrical
10
-345450.0
20
2180.0
30
0
11
-345450.0
21
2172.21
31
0
0
LINE
8
electrical
10
-345450.0
20
2172.21
30
0
11
-345450.0
21
2187.79
31
0
0
LINE
8
electrical
10
-345450.0
20
2187.79
30
0
11
-345450.0
21
2180.0
31
0
0
LINE
8
electrical
10
-369000.0
20
2180.0
30
0
11
-345450.0
21
2180.0
31
0
0
LINE
8
electrical
10
-369000.0
20
2180.0
30
0
11
-369000.0
21
2172.21
31
0
0
LINE
8
electrical
10
-369000.0
20
2172.21
30
0
11
-369000.0
21
2187.79
31
0
0
LINE
8
electrical
10
-369000.0
20
2187.79
30
0
11
-369000.0
21
2180.0
31
0
0
LINE
8
electrical
10
-369000.0
20
2180.0
30
0
11
-368990.28
21
2180.0
31
0
0
LINE
8
electrical
10
-368990.28
20
2180.0
30
0
11
-369000.0
21
2180.0
31
0
0
LINE
8
electrical
10
-351065.0
20
2150.0
30
0
11
-351065.0
21
2210.0
31
0
0
LINE
8
electrical
10
-350935.0
20
2150.0
30
0
11
-350935.0
21
2210.0
31
0
0
LINE
8
electrical
10
-351065.0
20
2150.0
30
0
11
-350935.0
21
2150.0
31
0
0
LINE
8
electrical
10
-351065.0
20
2210.0
30
0
11
-350935.0
21
2210.0
31
0
0
LINE
8
electrical
10
-350991.0
20
2180.0
30
0
11
-351004.5
21
2187.79
31
0
0
LINE
8
electrical
10
-351004.5
20
2187.79
30
0
11
-351004.5
21
2172.21
31
0
0
LINE
8
electrical
10
-351004.5
20
2172.21
30
0
11
-350991.0
21
2180.0
31
0
0
LINE
8
electrical
10
-345450.0
20
2180.0
30
0
11
-345450.0
21
2172.21
31
0
0
LINE
8
electrical
10
-345450.0
20
2172.21
30
0
11
-345450.0
21
2187.79
31
0
0
LINE
8
electrical
10
-345450.0
20
2187.79
30
0
11
-345450.0
21
2180.0
31
0
0
LINE
8
electrical
10
-351000.0
20
2180.0
30
0
11
-345450.0
21
2180.0
31
0
0
LINE
8
electrical
10
-351000.0
20
2180.0
30
0
11
-351000.0
21
2172.21
31
0
0
LINE
8
electrical
10
-351000.0
20
2172.21
30
0
11
-351000.0
21
2187.79
31
0
0
LINE
8
electrical
10
-351000.0
20
2187.79
30
0
11
-351000.0
21
2180.0
31
0
0
LINE
8
electrical
10
-351000.0
20
2180.0
30
0
11
-350990.28
21
2180.0
31
0
0
LINE
8
electrical
10
-350990.28
20
2180.0
30
0
11
-351000.0
21
2180.0
31
0
0
LINE
8
hvac
10
-374525.0
20
2725.0
30
0
11
-374525.0
21
3475.0
31
0
0
LINE
8
hvac
10
-372875.0
20
2725.0
30
0
11
-372875.0
21
3475.0
31
0
0
LINE
8
hvac
10
-374525.0
20
2725.0
30
0
11
-372875.0
21
2725.0
31
0
0
LINE
8
hvac
10
-374525.0
20
3475.0
30
0
11
-372875.0
21
3475.0
31
0
0
LINE
8
hvac
10
-374425.0
20
2680.0
30
0
11
-374425.0
21
2720.0
31
0
0
LINE
8
hvac
10
-372975.0
20
2680.0
30
0
11
-372975.0
21
2720.0
31
0
0
LINE
8
hvac
10
-374425.0
20
2680.0
30
0
11
-372975.0
21
2680.0
31
0
0
LINE
8
hvac
10
-374425.0
20
2720.0
30
0
11
-372975.0
21
2720.0
31
0
0
LINE
8
hvac
10
-374360.0
20
2640.0
30
0
11
-374360.0
21
2700.0
31
0
0
LINE
8
hvac
10
-374320.0
20
2640.0
30
0
11
-374320.0
21
2700.0
31
0
0
LINE
8
hvac
10
-374360.0
20
2640.0
30
0
11
-374320.0
21
2640.0
31
0
0
LINE
8
hvac
10
-374360.0
20
2700.0
30
0
11
-374320.0
21
2700.0
31
0
0
LINE
8
hvac
10
-374200.0
20
2640.0
30
0
11
-374200.0
21
2700.0
31
0
0
LINE
8
hvac
10
-374160.0
20
2640.0
30
0
11
-374160.0
21
2700.0
31
0
0
LINE
8
hvac
10
-374200.0
20
2640.0
30
0
11
-374160.0
21
2640.0
31
0
0
LINE
8
hvac
10
-374200.0
20
2700.0
30
0
11
-374160.0
21
2700.0
31
0
0
LINE
8
hvac
10
-374040.0
20
2640.0
30
0
11
-374040.0
21
2700.0
31
0
0
LINE
8
hvac
10
-374000.0
20
2640.0
30
0
11
-374000.0
21
2700.0
31
0
0
LINE
8
hvac
10
-374040.0
20
2640.0
30
0
11
-374000.0
21
2640.0
31
0
0
LINE
8
hvac
10
-374040.0
20
2700.0
30
0
11
-374000.0
21
2700.0
31
0
0
LINE
8
hvac
10
-373880.0
20
2640.0
30
0
11
-373880.0
21
2700.0
31
0
0
LINE
8
hvac
10
-373840.0
20
2640.0
30
0
11
-373840.0
21
2700.0
31
0
0
LINE
8
hvac
10
-373880.0
20
2640.0
30
0
11
-373840.0
21
2640.0
31
0
0
LINE
8
hvac
10
-373880.0
20
2700.0
30
0
11
-373840.0
21
2700.0
31
0
0
LINE
8
hvac
10
-373720.0
20
2640.0
30
0
11
-373720.0
21
2700.0
31
0
0
LINE
8
hvac
10
-373680.0
20
2640.0
30
0
11
-373680.0
21
2700.0
31
0
0
LINE
8
hvac
10
-373720.0
20
2640.0
30
0
11
-373680.0
21
2640.0
31
0
0
LINE
8
hvac
10
-373720.0
20
2700.0
30
0
11
-373680.0
21
2700.0
31
0
0
LINE
8
hvac
10
-373560.0
20
2640.0
30
0
11
-373560.0
21
2700.0
31
0
0
LINE
8
hvac
10
-373520.0
20
2640.0
30
0
11
-373520.0
21
2700.0
31
0
0
LINE
8
hvac
10
-373560.0
20
2640.0
30
0
11
-373520.0
21
2640.0
31
0
0
LINE
8
hvac
10
-373560.0
20
2700.0
30
0
11
-373520.0
21
2700.0
31
0
0
LINE
8
hvac
10
-373400.0
20
2640.0
30
0
11
-373400.0
21
2700.0
31
0
0
LINE
8
hvac
10
-373360.0
20
2640.0
30
0
11
-373360.0
21
2700.0
31
0
0
LINE
8
hvac
10
-373400.0
20
2640.0
30
0
11
-373360.0
21
2640.0
31
0
0
LINE
8
hvac
10
-373400.0
20
2700.0
30
0
11
-373360.0
21
2700.0
31
0
0
LINE
8
hvac
10
-373240.0
20
2640.0
30
0
11
-373240.0
21
2700.0
31
0
0
LINE
8
hvac
10
-373200.0
20
2640.0
30
0
11
-373200.0
21
2700.0
31
0
0
LINE
8
hvac
10
-373240.0
20
2640.0
30
0
11
-373200.0
21
2640.0
31
0
0
LINE
8
hvac
10
-373240.0
20
2700.0
30
0
11
-373200.0
21
2700.0
31
0
0
LINE
8
hvac
10
-373080.0
20
2640.0
30
0
11
-373080.0
21
2700.0
31
0
0
LINE
8
hvac
10
-373040.0
20
2640.0
30
0
11
-373040.0
21
2700.0
31
0
0
LINE
8
hvac
10
-373080.0
20
2640.0
30
0
11
-373040.0
21
2640.0
31
0
0
LINE
8
hvac
10
-373080.0
20
2700.0
30
0
11
-373040.0
21
2700.0
31
0
0
LINE
8
hvac
10
-373925.0
20
2875.0
30
0
11
-373925.0
21
3325.0
31
0
0
LINE
8
hvac
10
-373475.0
20
2875.0
30
0
11
-373475.0
21
3325.0
31
0
0
LINE
8
hvac
10
-373925.0
20
2875.0
30
0
11
-373475.0
21
2875.0
31
0
0
LINE
8
hvac
10
-373925.0
20
3325.0
30
0
11
-373475.0
21
3325.0
31
0
0
LINE
8
hvac
10
-370500.0
20
11825.0
30
0
11
-370500.0
21
12175.0
31
0
0
LINE
8
hvac
10
-349500.0
20
11825.0
30
0
11
-349500.0
21
12175.0
31
0
0
LINE
8
hvac
10
-370500.0
20
11825.0
30
0
11
-349500.0
21
11825.0
31
0
0
LINE
8
hvac
10
-370500.0
20
12175.0
30
0
11
-349500.0
21
12175.0
31
0
0
LINE
8
hvac
10
-373875.0
20
2925.0
30
0
11
-373875.0
21
3275.0
31
0
0
LINE
8
hvac
10
-359825.0
20
2925.0
30
0
11
-359825.0
21
3275.0
31
0
0
LINE
8
hvac
10
-373875.0
20
2925.0
30
0
11
-359825.0
21
2925.0
31
0
0
LINE
8
hvac
10
-373875.0
20
3275.0
30
0
11
-359825.0
21
3275.0
31
0
0
LINE
8
hvac
10
-360175.0
20
2925.0
30
0
11
-360175.0
21
12175.0
31
0
0
LINE
8
hvac
10
-359825.0
20
2925.0
30
0
11
-359825.0
21
12175.0
31
0
0
LINE
8
hvac
10
-360175.0
20
2925.0
30
0
11
-359825.0
21
2925.0
31
0
0
LINE
8
hvac
10
-360175.0
20
12175.0
30
0
11
-359825.0
21
12175.0
31
0
0
LINE
8
hvac
10
-366350.0
20
11650.0
30
0
11
-366350.0
21
12350.0
31
0
0
LINE
8
hvac
10
-365650.0
20
11650.0
30
0
11
-365650.0
21
12350.0
31
0
0
LINE
8
hvac
10
-366350.0
20
11650.0
30
0
11
-365650.0
21
11650.0
31
0
0
LINE
8
hvac
10
-366350.0
20
12350.0
30
0
11
-365650.0
21
12350.0
31
0
0
LINE
8
hvac
10
-354350.0
20
11650.0
30
0
11
-354350.0
21
12350.0
31
0
0
LINE
8
hvac
10
-353650.0
20
11650.0
30
0
11
-353650.0
21
12350.0
31
0
0
LINE
8
hvac
10
-354350.0
20
11650.0
30
0
11
-353650.0
21
11650.0
31
0
0
LINE
8
hvac
10
-354350.0
20
12350.0
30
0
11
-353650.0
21
12350.0
31
0
0
LINE
8
water
10
-361060.0
20
2400.0
30
0
11
-361060.0
21
2325.0
31
0
0
LINE
8
water
10
-361060.0
20
2325.0
30
0
11
-361060.0
21
2400.0
31
0
0
LINE
8
water
10
-361060.0
20
2400.0
30
0
11
-361060.0
21
2475.0
31
0
0
LINE
8
water
10
-361060.0
20
2475.0
30
0
11
-361060.0
21
2400.0
31
0
0
LINE
8
water
10
-361460.0
20
2400.0
30
0
11
-361060.0
21
2400.0
31
0
0
LINE
8
water
10
-361460.0
20
2400.0
30
0
11
-361460.0
21
2325.0
31
0
0
LINE
8
water
10
-361460.0
20
2325.0
30
0
11
-361460.0
21
2400.0
31
0
0
LINE
8
water
10
-361460.0
20
2400.0
30
0
11
-361460.0
21
2475.0
31
0
0
LINE
8
water
10
-361460.0
20
2475.0
30
0
11
-361460.0
21
2400.0
31
0
0
LINE
8
water
10
-361170.0
20
2400.0
30
0
11
-361232.19
21
2485.6
31
0
0
LINE
8
water
10
-361232.19
20
2485.6
30
0
11
-361332.81
21
2452.9
31
0
0
LINE
8
water
10
-361332.81
20
2452.9
30
0
11
-361332.81
21
2347.1
31
0
0
LINE
8
water
10
-361332.81
20
2347.1
30
0
11
-361232.19
21
2314.4
31
0
0
LINE
8
water
10
-361232.19
20
2314.4
30
0
11
-361170.0
21
2400.0
31
0
0
LINE
8
water
10
-361450.0
20
2375.0
30
0
11
-361450.0
21
2425.0
31
0
0
LINE
8
water
10
-361070.0
20
2375.0
30
0
11
-361070.0
21
2425.0
31
0
0
LINE
8
water
10
-361450.0
20
2375.0
30
0
11
-361070.0
21
2375.0
31
0
0
LINE
8
water
10
-361450.0
20
2425.0
30
0
11
-361070.0
21
2425.0
31
0
0
LINE
8
water
10
-361385.0
20
2400.0
30
0
11
-361385.0
21
2295.38
31
0
0
LINE
8
water
10
-361385.0
20
2295.38
30
0
11
-361385.0
21
2335.34
31
0
0
LINE
8
water
10
-361385.0
20
2335.34
30
0
11
-361385.0
21
2464.66
31
0
0
LINE
8
water
10
-361385.0
20
2464.66
30
0
11
-361385.0
21
2504.62
31
0
0
LINE
8
water
10
-361385.0
20
2504.62
30
0
11
-361385.0
21
2400.0
31
0
0
LINE
8
water
10
-361410.0
20
2400.0
30
0
11
-361385.0
21
2400.0
31
0
0
LINE
8
water
10
-361410.0
20
2400.0
30
0
11
-361410.0
21
2295.38
31
0
0
LINE
8
water
10
-361410.0
20
2295.38
30
0
11
-361410.0
21
2335.34
31
0
0
LINE
8
water
10
-361410.0
20
2335.34
30
0
11
-361410.0
21
2464.66
31
0
0
LINE
8
water
10
-361410.0
20
2464.66
30
0
11
-361410.0
21
2504.62
31
0
0
LINE
8
water
10
-361410.0
20
2504.62
30
0
11
-361410.0
21
2400.0
31
0
0
LINE
8
water
10
-361085.0
20
2400.0
30
0
11
-361085.0
21
2295.38
31
0
0
LINE
8
water
10
-361085.0
20
2295.38
30
0
11
-361085.0
21
2335.34
31
0
0
LINE
8
water
10
-361085.0
20
2335.34
30
0
11
-361085.0
21
2464.66
31
0
0
LINE
8
water
10
-361085.0
20
2464.66
30
0
11
-361085.0
21
2504.62
31
0
0
LINE
8
water
10
-361085.0
20
2504.62
30
0
11
-361085.0
21
2400.0
31
0
0
LINE
8
water
10
-361110.0
20
2400.0
30
0
11
-361085.0
21
2400.0
31
0
0
LINE
8
water
10
-361110.0
20
2400.0
30
0
11
-361110.0
21
2295.38
31
0
0
LINE
8
water
10
-361110.0
20
2295.38
30
0
11
-361110.0
21
2335.34
31
0
0
LINE
8
water
10
-361110.0
20
2335.34
30
0
11
-361110.0
21
2464.66
31
0
0
LINE
8
water
10
-361110.0
20
2464.66
30
0
11
-361110.0
21
2504.62
31
0
0
LINE
8
water
10
-361110.0
20
2504.62
30
0
11
-361110.0
21
2400.0
31
0
0
LINE
8
water
10
-358200.0
20
2400.0
30
0
11
-358156.7
21
2400.0
31
0
0
LINE
8
water
10
-358156.7
20
2400.0
30
0
11
-358243.3
21
2400.0
31
0
0
LINE
8
water
10
-358243.3
20
2400.0
30
0
11
-358200.0
21
2400.0
31
0
0
LINE
8
water
10
-358200.0
20
-57500.0
30
0
11
-358200.0
21
2400.0
31
0
0
LINE
8
water
10
-358200.0
20
-57500.0
30
0
11
-358156.7
21
-57500.0
31
0
0
LINE
8
water
10
-358156.7
20
-57500.0
30
0
11
-358243.3
21
-57500.0
31
0
0
LINE
8
water
10
-358243.3
20
-57500.0
30
0
11
-358200.0
21
-57500.0
31
0
0
LINE
8
water
10
-368400.0
20
2400.0
30
0
11
-368400.0
21
2356.7
31
0
0
LINE
8
water
10
-368400.0
20
2356.7
30
0
11
-368400.0
21
2443.3
31
0
0
LINE
8
water
10
-368400.0
20
2443.3
30
0
11
-368400.0
21
2400.0
31
0
0
LINE
8
water
10
-358200.0
20
2400.0
30
0
11
-368400.0
21
2400.0
31
0
0
LINE
8
water
10
-358200.0
20
2400.0
30
0
11
-358200.0
21
2356.7
31
0
0
LINE
8
water
10
-358200.0
20
2356.7
30
0
11
-358200.0
21
2443.3
31
0
0
LINE
8
water
10
-358200.0
20
2443.3
30
0
11
-358200.0
21
2400.0
31
0
0
LINE
8
water
10
-368400.0
20
16600.0
30
0
11
-368356.7
21
16600.0
31
0
0
LINE
8
water
10
-368356.7
20
16600.0
30
0
11
-368443.3
21
16600.0
31
0
0
LINE
8
water
10
-368443.3
20
16600.0
30
0
11
-368400.0
21
16600.0
31
0
0
LINE
8
water
10
-368400.0
20
2400.0
30
0
11
-368400.0
21
16600.0
31
0
0
LINE
8
water
10
-368400.0
20
2400.0
30
0
11
-368356.7
21
2400.0
31
0
0
LINE
8
water
10
-368356.7
20
2400.0
30
0
11
-368443.3
21
2400.0
31
0
0
LINE
8
water
10
-368443.3
20
2400.0
30
0
11
-368400.0
21
2400.0
31
0
0
LINE
8
water
10
-368450.0
20
16600.0
30
0
11
-368375.0
21
16643.3
31
0
0
LINE
8
water
10
-368375.0
20
16643.3
30
0
11
-368375.0
21
16556.7
31
0
0
LINE
8
water
10
-368375.0
20
16556.7
30
0
11
-368450.0
21
16600.0
31
0
0
LINE
8
water
10
-358200.0
20
2400.0
30
0
11
-358146.0
21
2400.0
31
0
0
LINE
8
water
10
-358146.0
20
2400.0
30
0
11
-358200.0
21
2400.0
31
0
0
LINE
8
water
10
-368400.0
20
2400.0
30
0
11
-368346.0
21
2400.0
31
0
0
LINE
8
water
10
-368346.0
20
2400.0
30
0
11
-368400.0
21
2400.0
31
0
0
LINE
8
water
10
-368400.0
20
16600.0
30
0
11
-368346.0
21
16600.0
31
0
0
LINE
8
water
10
-368346.0
20
16600.0
30
0
11
-368400.0
21
16600.0
31
0
0
LINE
8
water
10
-369100.0
20
16200.0
30
0
11
-369100.0
21
17000.0
31
0
0
LINE
8
water
10
-367700.0
20
16200.0
30
0
11
-367700.0
21
17000.0
31
0
0
LINE
8
water
10
-369100.0
20
16200.0
30
0
11
-367700.0
21
16200.0
31
0
0
LINE
8
water
10
-369100.0
20
17000.0
30
0
11
-367700.0
21
17000.0
31
0
0
LINE
8
water
10
-368775.0
20
16275.0
30
0
11
-368775.0
21
16925.0
31
0
0
LINE
8
water
10
-368025.0
20
16275.0
30
0
11
-368025.0
21
16925.0
31
0
0
LINE
8
water
10
-368775.0
20
16275.0
30
0
11
-368025.0
21
16275.0
31
0
0
LINE
8
water
10
-368775.0
20
16925.0
30
0
11
-368025.0
21
16925.0
31
0
0
LINE
8
water
10
-368350.0
20
16600.0
30
0
11
-368350.0
21
16504.89
31
0
0
LINE
8
water
10
-368350.0
20
16504.89
30
0
11
-368350.0
21
16541.22
31
0
0
LINE
8
water
10
-368350.0
20
16541.22
30
0
11
-368350.0
21
16658.78
31
0
0
LINE
8
water
10
-368350.0
20
16658.78
30
0
11
-368350.0
21
16695.11
31
0
0
LINE
8
water
10
-368350.0
20
16695.11
30
0
11
-368350.0
21
16600.0
31
0
0
LINE
8
water
10
-368800.0
20
16600.0
30
0
11
-368350.0
21
16600.0
31
0
0
LINE
8
water
10
-368800.0
20
16600.0
30
0
11
-368800.0
21
16504.89
31
0
0
LINE
8
water
10
-368800.0
20
16504.89
30
0
11
-368800.0
21
16541.22
31
0
0
LINE
8
water
10
-368800.0
20
16541.22
30
0
11
-368800.0
21
16658.78
31
0
0
LINE
8
water
10
-368800.0
20
16658.78
30
0
11
-368800.0
21
16695.11
31
0
0
LINE
8
water
10
-368800.0
20
16695.11
30
0
11
-368800.0
21
16600.0
31
0
0
LINE
8
water
10
-368000.0
20
16600.0
30
0
11
-368075.0
21
16643.3
31
0
0
LINE
8
water
10
-368075.0
20
16643.3
30
0
11
-368075.0
21
16556.7
31
0
0
LINE
8
water
10
-368075.0
20
16556.7
30
0
11
-368000.0
21
16600.0
31
0
0
LINE
8
water
10
-357750.0
20
16600.0
30
0
11
-357750.0
21
16556.7
31
0
0
LINE
8
water
10
-357750.0
20
16556.7
30
0
11
-357750.0
21
16643.3
31
0
0
LINE
8
water
10
-357750.0
20
16643.3
30
0
11
-357750.0
21
16600.0
31
0
0
LINE
8
water
10
-368050.0
20
16600.0
30
0
11
-357750.0
21
16600.0
31
0
0
LINE
8
water
10
-368050.0
20
16600.0
30
0
11
-368050.0
21
16556.7
31
0
0
LINE
8
water
10
-368050.0
20
16556.7
30
0
11
-368050.0
21
16643.3
31
0
0
LINE
8
water
10
-368050.0
20
16643.3
30
0
11
-368050.0
21
16600.0
31
0
0
LINE
8
water
10
-357750.0
20
-56500.0
30
0
11
-357706.7
21
-56500.0
31
0
0
LINE
8
water
10
-357706.7
20
-56500.0
30
0
11
-357793.3
21
-56500.0
31
0
0
LINE
8
water
10
-357793.3
20
-56500.0
30
0
11
-357750.0
21
-56500.0
31
0
0
LINE
8
water
10
-357750.0
20
16600.0
30
0
11
-357750.0
21
-56500.0
31
0
0
LINE
8
water
10
-357750.0
20
16600.0
30
0
11
-357706.7
21
16600.0
31
0
0
LINE
8
water
10
-357706.7
20
16600.0
30
0
11
-357793.3
21
16600.0
31
0
0
LINE
8
water
10
-357793.3
20
16600.0
30
0
11
-357750.0
21
16600.0
31
0
0
LINE
8
water
10
-357700.0
20
-56500.0
30
0
11
-357775.0
21
-56456.7
31
0
0
LINE
8
water
10
-357775.0
20
-56456.7
30
0
11
-357775.0
21
-56543.3
31
0
0
LINE
8
water
10
-357775.0
20
-56543.3
30
0
11
-357700.0
21
-56500.0
31
0
0
LINE
8
water
10
-368050.0
20
16600.0
30
0
11
-367996.0
21
16600.0
31
0
0
LINE
8
water
10
-367996.0
20
16600.0
30
0
11
-368050.0
21
16600.0
31
0
0
LINE
8
water
10
-357750.0
20
16600.0
30
0
11
-357696.0
21
16600.0
31
0
0
LINE
8
water
10
-357696.0
20
16600.0
30
0
11
-357750.0
21
16600.0
31
0
0
LINE
8
water
10
-357750.0
20
-56500.0
30
0
11
-357696.0
21
-56500.0
31
0
0
LINE
8
water
10
-357696.0
20
-56500.0
30
0
11
-357750.0
21
-56500.0
31
0
0
LINE
8
sensors
10
-374960.0
20
6320.0
30
0
11
-374960.0
21
6480.0
31
0
0
LINE
8
sensors
10
-374860.0
20
6320.0
30
0
11
-374860.0
21
6480.0
31
0
0
LINE
8
sensors
10
-374960.0
20
6320.0
30
0
11
-374860.0
21
6320.0
31
0
0
LINE
8
sensors
10
-374960.0
20
6480.0
30
0
11
-374860.0
21
6480.0
31
0
0
LINE
8
sensors
10
-374855.0
20
6345.0
30
0
11
-374855.0
21
6455.0
31
0
0
LINE
8
sensors
10
-374835.0
20
6345.0
30
0
11
-374835.0
21
6455.0
31
0
0
LINE
8
sensors
10
-374855.0
20
6345.0
30
0
11
-374835.0
21
6345.0
31
0
0
LINE
8
sensors
10
-374855.0
20
6455.0
30
0
11
-374835.0
21
6455.0
31
0
0
LINE
8
sensors
10
-374960.0
20
6620.0
30
0
11
-374960.0
21
6780.0
31
0
0
LINE
8
sensors
10
-374860.0
20
6620.0
30
0
11
-374860.0
21
6780.0
31
0
0
LINE
8
sensors
10
-374960.0
20
6620.0
30
0
11
-374860.0
21
6620.0
31
0
0
LINE
8
sensors
10
-374960.0
20
6780.0
30
0
11
-374860.0
21
6780.0
31
0
0
LINE
8
sensors
10
-374855.0
20
6645.0
30
0
11
-374855.0
21
6755.0
31
0
0
LINE
8
sensors
10
-374835.0
20
6645.0
30
0
11
-374835.0
21
6755.0
31
0
0
LINE
8
sensors
10
-374855.0
20
6645.0
30
0
11
-374835.0
21
6645.0
31
0
0
LINE
8
sensors
10
-374855.0
20
6755.0
30
0
11
-374835.0
21
6755.0
31
0
0
LINE
8
sensors
10
-374960.0
20
6920.0
30
0
11
-374960.0
21
7080.0
31
0
0
LINE
8
sensors
10
-374860.0
20
6920.0
30
0
11
-374860.0
21
7080.0
31
0
0
LINE
8
sensors
10
-374960.0
20
6920.0
30
0
11
-374860.0
21
6920.0
31
0
0
LINE
8
sensors
10
-374960.0
20
7080.0
30
0
11
-374860.0
21
7080.0
31
0
0
LINE
8
sensors
10
-374855.0
20
6945.0
30
0
11
-374855.0
21
7055.0
31
0
0
LINE
8
sensors
10
-374835.0
20
6945.0
30
0
11
-374835.0
21
7055.0
31
0
0
LINE
8
sensors
10
-374855.0
20
6945.0
30
0
11
-374835.0
21
6945.0
31
0
0
LINE
8
sensors
10
-374855.0
20
7055.0
30
0
11
-374835.0
21
7055.0
31
0
0
LINE
8
sensors
10
-359920.0
20
12000.0
30
0
11
-360000.0
21
12080.0
31
0
0
LINE
8
sensors
10
-360000.0
20
12080.0
30
0
11
-360080.0
21
12000.0
31
0
0
LINE
8
sensors
10
-360080.0
20
12000.0
30
0
11
-360000.0
21
11920.0
31
0
0
LINE
8
sensors
10
-360000.0
20
11920.0
30
0
11
-359920.0
21
12000.0
31
0
0
LINE
8
sensors
10
-360000.0
20
12000.0
30
0
11
-359935.0
21
12000.0
31
0
0
LINE
8
sensors
10
-359935.0
20
12000.0
30
0
11
-360000.0
21
12000.0
31
0
0
LINE
8
sensors
10
-374960.0
20
7520.0
30
0
11
-374960.0
21
7680.0
31
0
0
LINE
8
sensors
10
-374860.0
20
7520.0
30
0
11
-374860.0
21
7680.0
31
0
0
LINE
8
sensors
10
-374960.0
20
7520.0
30
0
11
-374860.0
21
7520.0
31
0
0
LINE
8
sensors
10
-374960.0
20
7680.0
30
0
11
-374860.0
21
7680.0
31
0
0
LINE
8
sensors
10
-374855.0
20
7545.0
30
0
11
-374855.0
21
7655.0
31
0
0
LINE
8
sensors
10
-374835.0
20
7545.0
30
0
11
-374835.0
21
7655.0
31
0
0
LINE
8
sensors
10
-374855.0
20
7545.0
30
0
11
-374835.0
21
7545.0
31
0
0
LINE
8
sensors
10
-374855.0
20
7655.0
30
0
11
-374835.0
21
7655.0
31
0
0
LINE
8
sensors
10
-364720.0
20
2400.0
30
0
11
-364720.0
21
2325.0
31
0
0
LINE
8
sensors
10
-364720.0
20
2325.0
30
0
11
-364720.0
21
2400.0
31
0
0
LINE
8
sensors
10
-364720.0
20
2400.0
30
0
11
-364720.0
21
2475.0
31
0
0
LINE
8
sensors
10
-364720.0
20
2475.0
30
0
11
-364720.0
21
2400.0
31
0
0
LINE
8
sensors
10
-364940.0
20
2400.0
30
0
11
-364720.0
21
2400.0
31
0
0
LINE
8
sensors
10
-364940.0
20
2400.0
30
0
11
-364940.0
21
2325.0
31
0
0
LINE
8
sensors
10
-364940.0
20
2325.0
30
0
11
-364940.0
21
2400.0
31
0
0
LINE
8
sensors
10
-364940.0
20
2400.0
30
0
11
-364940.0
21
2475.0
31
0
0
LINE
8
sensors
10
-364940.0
20
2475.0
30
0
11
-364940.0
21
2400.0
31
0
0
LINE
8
sensors
10
-364910.0
20
2330.0
30
0
11
-364910.0
21
2470.0
31
0
0
LINE
8
sensors
10
-364750.0
20
2330.0
30
0
11
-364750.0
21
2470.0
31
0
0
LINE
8
sensors
10
-364910.0
20
2330.0
30
0
11
-364750.0
21
2330.0
31
0
0
LINE
8
sensors
10
-364910.0
20
2470.0
30
0
11
-364750.0
21
2470.0
31
0
0
ENDSEC
0
EOF
