0
SECTION
2
HEADER
9
$ACADVER
1
AC1015
9
$INSUNITS
70
4
0
ENDSEC
0
SECTION
2
ENTITIES
0
LINE
8
interiors
10
-415000.0
20
2000.0
30
0
11
-415000.0
21
22000.0
31
0
0
LINE
8
interiors
10
-415000.0
20
2000.0
30
0
11
-401200.0
21
2000.0
31
0
0
LINE
8
interiors
10
-401200.0
20
2000.0
30
0
11
-398800.0
21
2000.0
31
0
0
LINE
8
interiors
10
-398800.0
20
2000.0
30
0
11
-385000.0
21
2000.0
31
0
0
LINE
8
interiors
10
-415000.0
20
2000.0
30
0
11
-385000.0
21
2000.0
31
0
0
LINE
8
interiors
10
-415000.0
20
22000.0
30
0
11
-385000.0
21
22000.0
31
0
0
LINE
8
interiors
10
-385000.0
20
2000.0
30
0
11
-385000.0
21
22000.0
31
0
0
LINE
8
interiors
10
-385120.0
20
2120.0
30
0
11
-414880.0
21
2120.0
31
0
0
LINE
8
interiors
10
-385120.0
20
2120.0
30
0
11
-385120.0
21
21880.0
31
0
0
LINE
8
interiors
10
-385120.0
20
21880.0
30
0
11
-414880.0
21
21880.0
31
0
0
LINE
8
interiors
10
-414880.0
20
2120.0
30
0
11
-414880.0
21
21880.0
31
0
0
LINE
8
interiors
10
-407800.0
20
22000.0
30
0
11
-392200.0
21
22000.0
31
0
0
LINE
8
interiors
10
-398800.0
20
2000.0
30
0
11
-398800.0
21
2120.0
31
0
0
LINE
8
interiors
10
-385120.0
20
2120.0
30
0
11
-398800.0
21
2120.0
31
0
0
LINE
8
interiors
10
-401200.0
20
2120.0
30
0
11
-414880.0
21
2120.0
31
0
0
LINE
8
interiors
10
-401200.0
20
2000.0
30
0
11
-401200.0
21
2120.0
31
0
0
LINE
8
interiors
10
-401200.0
20
2120.0
30
0
11
-398800.0
21
2120.0
31
0
0
LINE
8
interiors
10
-407800.0
20
21880.0
30
0
11
-392200.0
21
21880.0
31
0
0
LINE
8
interiors
10
-407800.0
20
21880.0
30
0
11
-407800.0
21
22000.0
31
0
0
LINE
8
interiors
10
-392200.0
20
21880.0
30
0
11
-392200.0
21
22000.0
31
0
0
LINE
8
interiors
10
-407800.0
20
21977.5
30
0
11
-407800.0
21
22022.5
31
0
0
LINE
8
interiors
10
-392200.0
20
21977.5
30
0
11
-392200.0
21
22022.5
31
0
0
LINE
8
interiors
10
-407800.0
20
21977.5
30
0
11
-392200.0
21
21977.5
31
0
0
LINE
8
interiors
10
-407800.0
20
22022.5
30
0
11
-392200.0
21
22022.5
31
0
0
LINE
8
interiors
10
-414875.0
20
2125.0
30
0
11
-414875.0
21
21875.0
31
0
0
LINE
8
interiors
10
-385125.0
20
2125.0
30
0
11
-385125.0
21
21875.0
31
0
0
LINE
8
interiors
10
-414875.0
20
2125.0
30
0
11
-385125.0
21
2125.0
31
0
0
LINE
8
interiors
10
-414875.0
20
21875.0
30
0
11
-385125.0
21
21875.0
31
0
0
LINE
8
interiors
10
-401155.0
20
1880.0
30
0
11
-401155.0
21
2120.0
31
0
0
LINE
8
interiors
10
-401085.0
20
1880.0
30
0
11
-401085.0
21
2120.0
31
0
0
LINE
8
interiors
10
-401155.0
20
1880.0
30
0
11
-401085.0
21
1880.0
31
0
0
LINE
8
interiors
10
-401155.0
20
2120.0
30
0
11
-401085.0
21
2120.0
31
0
0
LINE
8
interiors
10
-398915.0
20
1880.0
30
0
11
-398915.0
21
2120.0
31
0
0
LINE
8
interiors
10
-398845.0
20
1880.0
30
0
11
-398845.0
21
2120.0
31
0
0
LINE
8
interiors
10
-398915.0
20
1880.0
30
0
11
-398845.0
21
1880.0
31
0
0
LINE
8
interiors
10
-398915.0
20
2120.0
30
0
11
-398845.0
21
2120.0
31
0
0
LINE
8
interiors
10
-401150.0
20
1880.0
30
0
11
-401150.0
21
2120.0
31
0
0
LINE
8
interiors
10
-398850.0
20
1880.0
30
0
11
-398850.0
21
2120.0
31
0
0
LINE
8
interiors
10
-401150.0
20
1880.0
30
0
11
-398850.0
21
1880.0
31
0
0
LINE
8
interiors
10
-401150.0
20
2120.0
30
0
11
-398850.0
21
2120.0
31
0
0
LINE
8
interiors
10
-401069.61
20
2090.49
30
0
11
-401110.39
21
2109.51
31
0
0
LINE
8
interiors
10
-400613.18
20
3069.3
30
0
11
-400653.96
21
3088.32
31
0
0
LINE
8
interiors
10
-401069.61
20
2090.49
30
0
11
-400613.18
21
3069.3
31
0
0
LINE
8
interiors
10
-401110.39
20
2109.51
30
0
11
-400653.96
21
3088.32
31
0
0
LINE
8
interiors
10
-407400.0
20
7900.0
30
0
11
-407400.0
21
8900.0
31
0
0
LINE
8
interiors
10
-404600.0
20
7900.0
30
0
11
-404600.0
21
8900.0
31
0
0
LINE
8
interiors
10
-407400.0
20
7900.0
30
0
11
-404600.0
21
7900.0
31
0
0
LINE
8
interiors
10
-407400.0
20
8900.0
30
0
11
-404600.0
21
8900.0
31
0
0
LINE
8
interiors
10
-407335.0
20
7965.0
30
0
11
-407335.0
21
8035.0
31
0
0
LINE
8
interiors
10
-407265.0
20
7965.0
30
0
11
-407265.0
21
8035.0
31
0
0
LINE
8
interiors
10
-407335.0
20
7965.0
30
0
11
-407265.0
21
7965.0
31
0
0
LINE
8
interiors
10
-407335.0
20
8035.0
30
0
11
-407265.0
21
8035.0
31
0
0
LINE
8
interiors
10
-407335.0
20
8765.0
30
0
11
-407335.0
21
8835.0
31
0
0
LINE
8
interiors
10
-407265.0
20
8765.0
30
0
11
-407265.0
21
8835.0
31
0
0
LINE
8
interiors
10
-407335.0
20
8765.0
30
0
11
-407265.0
21
8765.0
31
0
0
LINE
8
interiors
10
-407335.0
20
8835.0
30
0
11
-407265.0
21
8835.0
31
0
0
LINE
8
interiors
10
-404735.0
20
7965.0
30
0
11
-404735.0
21
8035.0
31
0
0
LINE
8
interiors
10
-404665.0
20
7965.0
30
0
11
-404665.0
21
8035.0
31
0
0
LINE
8
interiors
10
-404735.0
20
7965.0
30
0
11
-404665.0
21
7965.0
31
0
0
LINE
8
interiors
10
-404735.0
20
8035.0
30
0
11
-404665.0
21
8035.0
31
0
0
LINE
8
interiors
10
-404735.0
20
8765.0
30
0
11
-404735.0
21
8835.0
31
0
0
LINE
8
interiors
10
-404665.0
20
8765.0
30
0
11
-404665.0
21
8835.0
31
0
0
LINE
8
interiors
10
-404735.0
20
8765.0
30
0
11
-404665.0
21
8765.0
31
0
0
LINE
8
interiors
10
-404735.0
20
8835.0
30
0
11
-404665.0
21
8835.0
31
0
0
LINE
8
interiors
10
-408500.0
20
16650.0
30
0
11
-408500.0
21
17350.0
31
0
0
LINE
8
interiors
10
-406500.0
20
16650.0
30
0
11
-406500.0
21
17350.0
31
0
0
LINE
8
interiors
10
-408500.0
20
16650.0
30
0
11
-406500.0
21
16650.0
31
0
0
LINE
8
interiors
10
-408500.0
20
17350.0
30
0
11
-406500.0
21
17350.0
31
0
0
LINE
8
interiors
10
-408400.0
20
16627.5
30
0
11
-408400.0
21
16652.5
31
0
0
LINE
8
interiors
10
-406600.0
20
16627.5
30
0
11
-406600.0
21
16652.5
31
0
0
LINE
8
interiors
10
-408400.0
20
16627.5
30
0
11
-406600.0
21
16627.5
31
0
0
LINE
8
interiors
10
-408400.0
20
16652.5
30
0
11
-406600.0
21
16652.5
31
0
0
LINE
8
interiors
10
-401100.0
20
16500.0
30
0
11
-401100.0
21
17500.0
31
0
0
LINE
8
interiors
10
-398900.0
20
16500.0
30
0
11
-398900.0
21
17500.0
31
0
0
LINE
8
interiors
10
-401100.0
20
16500.0
30
0
11
-398900.0
21
16500.0
31
0
0
LINE
8
interiors
10
-401100.0
20
17500.0
30
0
11
-398900.0
21
17500.0
31
0
0
LINE
8
interiors
10
-401100.0
20
17325.0
30
0
11
-401100.0
21
17475.0
31
0
0
LINE
8
interiors
10
-398900.0
20
17325.0
30
0
11
-398900.0
21
17475.0
31
0
0
LINE
8
interiors
10
-401100.0
20
17325.0
30
0
11
-398900.0
21
17325.0
31
0
0
LINE
8
interiors
10
-401100.0
20
17475.0
30
0
11
-398900.0
21
17475.0
31
0
0
LINE
8
interiors
10
-401150.0
20
16450.0
30
0
11
-401150.0
21
17550.0
31
0
0
LINE
8
interiors
10
-398850.0
20
16450.0
30
0
11
-398850.0
21
17550.0
31
0
0
LINE
8
interiors
10
-401150.0
20
16450.0
30
0
11
-398850.0
21
16450.0
31
0
0
LINE
8
interiors
10
-401150.0
20
17550.0
30
0
11
-398850.0
21
17550.0
31
0
0
LINE
8
electrical
10
-385725.0
20
2075.0
30
0
11
-385725.0
21
2325.0
31
0
0
LINE
8
electrical
10
-385175.0
20
2075.0
30
0
11
-385175.0
21
2325.0
31
0
0
LINE
8
electrical
10
-385725.0
20
2075.0
30
0
11
-385175.0
21
2075.0
31
0
0
LINE
8
electrical
10
-385725.0
20
2325.0
30
0
11
-385175.0
21
2325.0
31
0
0
LINE
8
electrical
10
-385685.0
20
2047.5
30
0
11
-385685.0
21
2082.5
31
0
0
LINE
8
electrical
10
-385215.0
20
2047.5
30
0
11
-385215.0
21
2082.5
31
0
0
LINE
8
electrical
10
-385685.0
20
2047.5
30
0
11
-385215.0
21
2047.5
31
0
0
LINE
8
electrical
10
-385685.0
20
2082.5
30
0
11
-385215.0
21
2082.5
31
0
0
LINE
8
electrical
10
-385637.5
20
2010.0
30
0
11
-385637.5
21
2050.0
31
0
0
LINE
8
electrical
10
-385537.5
20
2010.0
30
0
11
-385537.5
21
2050.0
31
0
0
LINE
8
electrical
10
-385637.5
20
2010.0
30
0
11
-385537.5
21
2010.0
31
0
0
LINE
8
electrical
10
-385637.5
20
2050.0
30
0
11
-385537.5
21
2050.0
31
0
0
LINE
8
electrical
10
-385500.0
20
2010.0
30
0
11
-385500.0
21
2050.0
31
0
0
LINE
8
electrical
10
-385400.0
20
2010.0
30
0
11
-385400.0
21
2050.0
31
0
0
LINE
8
electrical
10
-385500.0
20
2010.0
30
0
11
-385400.0
21
2010.0
31
0
0
LINE
8
electrical
10
-385500.0
20
2050.0
30
0
11
-385400.0
21
2050.0
31
0
0
LINE
8
electrical
10
-385362.5
20
2010.0
30
0
11
-385362.5
21
2050.0
31
0
0
LINE
8
electrical
10
-385262.5
20
2010.0
30
0
11
-385262.5
21
2050.0
31
0
0
LINE
8
electrical
10
-385362.5
20
2010.0
30
0
11
-385262.5
21
2010.0
31
0
0
LINE
8
electrical
10
-385362.5
20
2050.0
30
0
11
-385262.5
21
2050.0
31
0
0
LINE
8
electrical
10
-385587.5
20
1995.0
30
0
11
-385564.12
21
1995.0
31
0
0
LINE
8
electrical
10
-385564.12
20
1995.0
30
0
11
-385610.88
21
1995.0
31
0
0
LINE
8
electrical
10
-385610.88
20
1995.0
30
0
11
-385587.5
21
1995.0
31
0
0
LINE
8
electrical
10
-385587.5
20
2020.0
30
0
11
-385587.5
21
1995.0
31
0
0
LINE
8
electrical
10
-385587.5
20
2020.0
30
0
11
-385564.12
21
2020.0
31
0
0
LINE
8
electrical
10
-385564.12
20
2020.0
30
0
11
-385610.88
21
2020.0
31
0
0
LINE
8
electrical
10
-385610.88
20
2020.0
30
0
11
-385587.5
21
2020.0
31
0
0
LINE
8
electrical
10
-385450.0
20
1995.0
30
0
11
-385426.62
21
1995.0
31
0
0
LINE
8
electrical
10
-385426.62
20
1995.0
30
0
11
-385473.38
21
1995.0
31
0
0
LINE
8
electrical
10
-385473.38
20
1995.0
30
0
11
-385450.0
21
1995.0
31
0
0
LINE
8
electrical
10
-385450.0
20
2020.0
30
0
11
-385450.0
21
1995.0
31
0
0
LINE
8
electrical
10
-385450.0
20
2020.0
30
0
11
-385426.62
21
2020.0
31
0
0
LINE
8
electrical
10
-385426.62
20
2020.0
30
0
11
-385473.38
21
2020.0
31
0
0
LINE
8
electrical
10
-385473.38
20
2020.0
30
0
11
-385450.0
21
2020.0
31
0
0
LINE
8
electrical
10
-385312.5
20
1995.0
30
0
11
-385289.12
21
1995.0
31
0
0
LINE
8
electrical
10
-385289.12
20
1995.0
30
0
11
-385335.88
21
1995.0
31
0
0
LINE
8
electrical
10
-385335.88
20
1995.0
30
0
11
-385312.5
21
1995.0
31
0
0
LINE
8
electrical
10
-385312.5
20
2020.0
30
0
11
-385312.5
21
1995.0
31
0
0
LINE
8
electrical
10
-385312.5
20
2020.0
30
0
11
-385289.12
21
2020.0
31
0
0
LINE
8
electrical
10
-385289.12
20
2020.0
30
0
11
-385335.88
21
2020.0
31
0
0
LINE
8
electrical
10
-385335.88
20
2020.0
30
0
11
-385312.5
21
2020.0
31
0
0
LINE
8
electrical
10
-385450.0
20
2200.0
30
0
11
-385434.41
21
2200.0
31
0
0
LINE
8
electrical
10
-385434.41
20
2200.0
30
0
11
-385465.59
21
2200.0
31
0
0
LINE
8
electrical
10
-385465.59
20
2200.0
30
0
11
-385450.0
21
2200.0
31
0
0
LINE
8
electrical
10
-385450.0
20
-62300.0
30
0
11
-385450.0
21
2200.0
31
0
0
LINE
8
electrical
10
-385450.0
20
-62300.0
30
0
11
-385434.41
21
-62300.0
31
0
0
LINE
8
electrical
10
-385434.41
20
-62300.0
30
0
11
-385465.59
21
-62300.0
31
0
0
LINE
8
electrical
10
-385465.59
20
-62300.0
30
0
11
-385450.0
21
-62300.0
31
0
0
LINE
8
electrical
10
-385468.0
20
2200.0
30
0
11
-385441.0
21
2215.59
31
0
0
LINE
8
electrical
10
-385441.0
20
2215.59
30
0
11
-385441.0
21
2184.41
31
0
0
LINE
8
electrical
10
-385441.0
20
2184.41
30
0
11
-385468.0
21
2200.0
31
0
0
LINE
8
electrical
10
-385450.0
20
2200.0
30
0
11
-385430.56
21
2200.0
31
0
0
LINE
8
electrical
10
-385430.56
20
2200.0
30
0
11
-385450.0
21
2200.0
31
0
0
LINE
8
lighting
10
-411120.0
20
4880.0
30
0
11
-411120.0
21
5520.0
31
0
0
LINE
8
lighting
10
-410480.0
20
4880.0
30
0
11
-410480.0
21
5520.0
31
0
0
LINE
8
lighting
10
-411120.0
20
4880.0
30
0
11
-410480.0
21
4880.0
31
0
0
LINE
8
lighting
10
-411120.0
20
5520.0
30
0
11
-410480.0
21
5520.0
31
0
0
LINE
8
lighting
10
-411080.0
20
4920.0
30
0
11
-411080.0
21
5480.0
31
0
0
LINE
8
lighting
10
-410520.0
20
4920.0
30
0
11
-410520.0
21
5480.0
31
0
0
LINE
8
lighting
10
-411080.0
20
4920.0
30
0
11
-410520.0
21
4920.0
31
0
0
LINE
8
lighting
10
-411080.0
20
5480.0
30
0
11
-410520.0
21
5480.0
31
0
0
LINE
8
lighting
10
-411046.0
20
4930.0
30
0
11
-411046.0
21
5470.0
31
0
0
LINE
8
lighting
10
-411034.0
20
4930.0
30
0
11
-411034.0
21
5470.0
31
0
0
LINE
8
lighting
10
-411046.0
20
4930.0
30
0
11
-411034.0
21
4930.0
31
0
0
LINE
8
lighting
10
-411046.0
20
5470.0
30
0
11
-411034.0
21
5470.0
31
0
0
LINE
8
lighting
10
-410966.0
20
4930.0
30
0
11
-410966.0
21
5470.0
31
0
0
LINE
8
lighting
10
-410954.0
20
4930.0
30
0
11
-410954.0
21
5470.0
31
0
0
LINE
8
lighting
10
-410966.0
20
4930.0
30
0
11
-410954.0
21
4930.0
31
0
0
LINE
8
lighting
10
-410966.0
20
5470.0
30
0
11
-410954.0
21
5470.0
31
0
0
LINE
8
lighting
10
-410886.0
20
4930.0
30
0
11
-410886.0
21
5470.0
31
0
0
LINE
8
lighting
10
-410874.0
20
4930.0
30
0
11
-410874.0
21
5470.0
31
0
0
LINE
8
lighting
10
-410886.0
20
4930.0
30
0
11
-410874.0
21
4930.0
31
0
0
LINE
8
lighting
10
-410886.0
20
5470.0
30
0
11
-410874.0
21
5470.0
31
0
0
LINE
8
lighting
10
-410806.0
20
4930.0
30
0
11
-410806.0
21
5470.0
31
0
0
LINE
8
lighting
10
-410794.0
20
4930.0
30
0
11
-410794.0
21
5470.0
31
0
0
LINE
8
lighting
10
-410806.0
20
4930.0
30
0
11
-410794.0
21
4930.0
31
0
0
LINE
8
lighting
10
-410806.0
20
5470.0
30
0
11
-410794.0
21
5470.0
31
0
0
LINE
8
lighting
10
-410726.0
20
4930.0
30
0
11
-410726.0
21
5470.0
31
0
0
LINE
8
lighting
10
-410714.0
20
4930.0
30
0
11
-410714.0
21
5470.0
31
0
0
LINE
8
lighting
10
-410726.0
20
4930.0
30
0
11
-410714.0
21
4930.0
31
0
0
LINE
8
lighting
10
-410726.0
20
5470.0
30
0
11
-410714.0
21
5470.0
31
0
0
LINE
8
lighting
10
-410646.0
20
4930.0
30
0
11
-410646.0
21
5470.0
31
0
0
LINE
8
lighting
10
-410634.0
20
4930.0
30
0
11
-410634.0
21
5470.0
31
0
0
LINE
8
lighting
10
-410646.0
20
4930.0
30
0
11
-410634.0
21
4930.0
31
0
0
LINE
8
lighting
10
-410646.0
20
5470.0
30
0
11
-410634.0
21
5470.0
31
0
0
LINE
8
lighting
10
-410566.0
20
4930.0
30
0
11
-410566.0
21
5470.0
31
0
0
LINE
8
lighting
10
-410554.0
20
4930.0
30
0
11
-410554.0
21
5470.0
31
0
0
LINE
8
lighting
10
-410566.0
20
4930.0
30
0
11
-410554.0
21
4930.0
31
0
0
LINE
8
lighting
10
-410566.0
20
5470.0
30
0
11
-410554.0
21
5470.0
31
0
0
LINE
8
lighting
10
-410791.0
20
5200.0
30
0
11
-410804.5
21
5207.79
31
0
0
LINE
8
lighting
10
-410804.5
20
5207.79
30
0
11
-410804.5
21
5192.21
31
0
0
LINE
8
lighting
10
-410804.5
20
5192.21
30
0
11
-410791.0
21
5200.0
31
0
0
LINE
8
lighting
10
-389520.0
20
4880.0
30
0
11
-389520.0
21
5520.0
31
0
0
LINE
8
lighting
10
-388880.0
20
4880.0
30
0
11
-388880.0
21
5520.0
31
0
0
LINE
8
lighting
10
-389520.0
20
4880.0
30
0
11
-388880.0
21
4880.0
31
0
0
LINE
8
lighting
10
-389520.0
20
5520.0
30
0
11
-388880.0
21
5520.0
31
0
0
LINE
8
lighting
10
-389480.0
20
4920.0
30
0
11
-389480.0
21
5480.0
31
0
0
LINE
8
lighting
10
-388920.0
20
4920.0
30
0
11
-388920.0
21
5480.0
31
0
0
LINE
8
lighting
10
-389480.0
20
4920.0
30
0
11
-388920.0
21
4920.0
31
0
0
LINE
8
lighting
10
-389480.0
20
5480.0
30
0
11
-388920.0
21
5480.0
31
0
0
LINE
8
lighting
10
-389446.0
20
4930.0
30
0
11
-389446.0
21
5470.0
31
0
0
LINE
8
lighting
10
-389434.0
20
4930.0
30
0
11
-389434.0
21
5470.0
31
0
0
LINE
8
lighting
10
-389446.0
20
4930.0
30
0
11
-389434.0
21
4930.0
31
0
0
LINE
8
lighting
10
-389446.0
20
5470.0
30
0
11
-389434.0
21
5470.0
31
0
0
LINE
8
lighting
10
-389366.0
20
4930.0
30
0
11
-389366.0
21
5470.0
31
0
0
LINE
8
lighting
10
-389354.0
20
4930.0
30
0
11
-389354.0
21
5470.0
31
0
0
LINE
8
lighting
10
-389366.0
20
4930.0
30
0
11
-389354.0
21
4930.0
31
0
0
LINE
8
lighting
10
-389366.0
20
5470.0
30
0
11
-389354.0
21
5470.0
31
0
0
LINE
8
lighting
10
-389286.0
20
4930.0
30
0
11
-389286.0
21
5470.0
31
0
0
LINE
8
lighting
10
-389274.0
20
4930.0
30
0
11
-389274.0
21
5470.0
31
0
0
LINE
8
lighting
10
-389286.0
20
4930.0
30
0
11
-389274.0
21
4930.0
31
0
0
LINE
8
lighting
10
-389286.0
20
5470.0
30
0
11
-389274.0
21
5470.0
31
0
0
LINE
8
lighting
10
-389206.0
20
4930.0
30
0
11
-389206.0
21
5470.0
31
0
0
LINE
8
lighting
10
-389194.0
20
4930.0
30
0
11
-389194.0
21
5470.0
31
0
0
LINE
8
lighting
10
-389206.0
20
4930.0
30
0
11
-389194.0
21
4930.0
31
0
0
LINE
8
lighting
10
-389206.0
20
5470.0
30
0
11
-389194.0
21
5470.0
31
0
0
LINE
8
lighting
10
-389126.0
20
4930.0
30
0
11
-389126.0
21
5470.0
31
0
0
LINE
8
lighting
10
-389114.0
20
4930.0
30
0
11
-389114.0
21
5470.0
31
0
0
LINE
8
lighting
10
-389126.0
20
4930.0
30
0
11
-389114.0
21
4930.0
31
0
0
LINE
8
lighting
10
-389126.0
20
5470.0
30
0
11
-389114.0
21
5470.0
31
0
0
LINE
8
lighting
10
-389046.0
20
4930.0
30
0
11
-389046.0
21
5470.0
31
0
0
LINE
8
lighting
10
-389034.0
20
4930.0
30
0
11
-389034.0
21
5470.0
31
0
0
LINE
8
lighting
10
-389046.0
20
4930.0
30
0
11
-389034.0
21
4930.0
31
0
0
LINE
8
lighting
10
-389046.0
20
5470.0
30
0
11
-389034.0
21
5470.0
31
0
0
LINE
8
lighting
10
-388966.0
20
4930.0
30
0
11
-388966.0
21
5470.0
31
0
0
LINE
8
lighting
10
-388954.0
20
4930.0
30
0
11
-388954.0
21
5470.0
31
0
0
LINE
8
lighting
10
-388966.0
20
4930.0
30
0
11
-388954.0
21
4930.0
31
0
0
LINE
8
lighting
10
-388966.0
20
5470.0
30
0
11
-388954.0
21
5470.0
31
0
0
LINE
8
lighting
10
-389191.0
20
5200.0
30
0
11
-389204.5
21
5207.79
31
0
0
LINE
8
lighting
10
-389204.5
20
5207.79
30
0
11
-389204.5
21
5192.21
31
0
0
LINE
8
lighting
10
-389204.5
20
5192.21
30
0
11
-389191.0
21
5200.0
31
0
0
LINE
8
lighting
10
-400320.0
20
4880.0
30
0
11
-400320.0
21
5520.0
31
0
0
LINE
8
lighting
10
-399680.0
20
4880.0
30
0
11
-399680.0
21
5520.0
31
0
0
LINE
8
lighting
10
-400320.0
20
4880.0
30
0
11
-399680.0
21
4880.0
31
0
0
LINE
8
lighting
10
-400320.0
20
5520.0
30
0
11
-399680.0
21
5520.0
31
0
0
LINE
8
lighting
10
-400280.0
20
4920.0
30
0
11
-400280.0
21
5480.0
31
0
0
LINE
8
lighting
10
-399720.0
20
4920.0
30
0
11
-399720.0
21
5480.0
31
0
0
LINE
8
lighting
10
-400280.0
20
4920.0
30
0
11
-399720.0
21
4920.0
31
0
0
LINE
8
lighting
10
-400280.0
20
5480.0
30
0
11
-399720.0
21
5480.0
31
0
0
LINE
8
lighting
10
-400246.0
20
4930.0
30
0
11
-400246.0
21
5470.0
31
0
0
LINE
8
lighting
10
-400234.0
20
4930.0
30
0
11
-400234.0
21
5470.0
31
0
0
LINE
8
lighting
10
-400246.0
20
4930.0
30
0
11
-400234.0
21
4930.0
31
0
0
LINE
8
lighting
10
-400246.0
20
5470.0
30
0
11
-400234.0
21
5470.0
31
0
0
LINE
8
lighting
10
-400166.0
20
4930.0
30
0
11
-400166.0
21
5470.0
31
0
0
LINE
8
lighting
10
-400154.0
20
4930.0
30
0
11
-400154.0
21
5470.0
31
0
0
LINE
8
lighting
10
-400166.0
20
4930.0
30
0
11
-400154.0
21
4930.0
31
0
0
LINE
8
lighting
10
-400166.0
20
5470.0
30
0
11
-400154.0
21
5470.0
31
0
0
LINE
8
lighting
10
-400086.0
20
4930.0
30
0
11
-400086.0
21
5470.0
31
0
0
LINE
8
lighting
10
-400074.0
20
4930.0
30
0
11
-400074.0
21
5470.0
31
0
0
LINE
8
lighting
10
-400086.0
20
4930.0
30
0
11
-400074.0
21
4930.0
31
0
0
LINE
8
lighting
10
-400086.0
20
5470.0
30
0
11
-400074.0
21
5470.0
31
0
0
LINE
8
lighting
10
-400006.0
20
4930.0
30
0
11
-400006.0
21
5470.0
31
0
0
LINE
8
lighting
10
-399994.0
20
4930.0
30
0
11
-399994.0
21
5470.0
31
0
0
LINE
8
lighting
10
-400006.0
20
4930.0
30
0
11
-399994.0
21
4930.0
31
0
0
LINE
8
lighting
10
-400006.0
20
5470.0
30
0
11
-399994.0
21
5470.0
31
0
0
LINE
8
lighting
10
-399926.0
20
4930.0
30
0
11
-399926.0
21
5470.0
31
0
0
LINE
8
lighting
10
-399914.0
20
4930.0
30
0
11
-399914.0
21
5470.0
31
0
0
LINE
8
lighting
10
-399926.0
20
4930.0
30
0
11
-399914.0
21
4930.0
31
0
0
LINE
8
lighting
10
-399926.0
20
5470.0
30
0
11
-399914.0
21
5470.0
31
0
0
LINE
8
lighting
10
-399846.0
20
4930.0
30
0
11
-399846.0
21
5470.0
31
0
0
LINE
8
lighting
10
-399834.0
20
4930.0
30
0
11
-399834.0
21
5470.0
31
0
0
LINE
8
lighting
10
-399846.0
20
4930.0
30
0
11
-399834.0
21
4930.0
31
0
0
LINE
8
lighting
10
-399846.0
20
5470.0
30
0
11
-399834.0
21
5470.0
31
0
0
LINE
8
lighting
10
-399766.0
20
4930.0
30
0
11
-399766.0
21
5470.0
31
0
0
LINE
8
lighting
10
-399754.0
20
4930.0
30
0
11
-399754.0
21
5470.0
31
0
0
LINE
8
lighting
10
-399766.0
20
4930.0
30
0
11
-399754.0
21
4930.0
31
0
0
LINE
8
lighting
10
-399766.0
20
5470.0
30
0
11
-399754.0
21
5470.0
31
0
0
LINE
8
lighting
10
-399991.0
20
5200.0
30
0
11
-400004.5
21
5207.79
31
0
0
LINE
8
lighting
10
-400004.5
20
5207.79
30
0
11
-400004.5
21
5192.21
31
0
0
LINE
8
lighting
10
-400004.5
20
5192.21
30
0
11
-399991.0
21
5200.0
31
0
0
LINE
8
lighting
10
-411120.0
20
18480.0
30
0
11
-411120.0
21
19120.0
31
0
0
LINE
8
lighting
10
-410480.0
20
18480.0
30
0
11
-410480.0
21
19120.0
31
0
0
LINE
8
lighting
10
-411120.0
20
18480.0
30
0
11
-410480.0
21
18480.0
31
0
0
LINE
8
lighting
10
-411120.0
20
19120.0
30
0
11
-410480.0
21
19120.0
31
0
0
LINE
8
lighting
10
-411080.0
20
18520.0
30
0
11
-411080.0
21
19080.0
31
0
0
LINE
8
lighting
10
-410520.0
20
18520.0
30
0
11
-410520.0
21
19080.0
31
0
0
LINE
8
lighting
10
-411080.0
20
18520.0
30
0
11
-410520.0
21
18520.0
31
0
0
LINE
8
lighting
10
-411080.0
20
19080.0
30
0
11
-410520.0
21
19080.0
31
0
0
LINE
8
lighting
10
-411046.0
20
18530.0
30
0
11
-411046.0
21
19070.0
31
0
0
LINE
8
lighting
10
-411034.0
20
18530.0
30
0
11
-411034.0
21
19070.0
31
0
0
LINE
8
lighting
10
-411046.0
20
18530.0
30
0
11
-411034.0
21
18530.0
31
0
0
LINE
8
lighting
10
-411046.0
20
19070.0
30
0
11
-411034.0
21
19070.0
31
0
0
LINE
8
lighting
10
-410966.0
20
18530.0
30
0
11
-410966.0
21
19070.0
31
0
0
LINE
8
lighting
10
-410954.0
20
18530.0
30
0
11
-410954.0
21
19070.0
31
0
0
LINE
8
lighting
10
-410966.0
20
18530.0
30
0
11
-410954.0
21
18530.0
31
0
0
LINE
8
lighting
10
-410966.0
20
19070.0
30
0
11
-410954.0
21
19070.0
31
0
0
LINE
8
lighting
10
-410886.0
20
18530.0
30
0
11
-410886.0
21
19070.0
31
0
0
LINE
8
lighting
10
-410874.0
20
18530.0
30
0
11
-410874.0
21
19070.0
31
0
0
LINE
8
lighting
10
-410886.0
20
18530.0
30
0
11
-410874.0
21
18530.0
31
0
0
LINE
8
lighting
10
-410886.0
20
19070.0
30
0
11
-410874.0
21
19070.0
31
0
0
LINE
8
lighting
10
-410806.0
20
18530.0
30
0
11
-410806.0
21
19070.0
31
0
0
LINE
8
lighting
10
-410794.0
20
18530.0
30
0
11
-410794.0
21
19070.0
31
0
0
LINE
8
lighting
10
-410806.0
20
18530.0
30
0
11
-410794.0
21
18530.0
31
0
0
LINE
8
lighting
10
-410806.0
20
19070.0
30
0
11
-410794.0
21
19070.0
31
0
0
LINE
8
lighting
10
-410726.0
20
18530.0
30
0
11
-410726.0
21
19070.0
31
0
0
LINE
8
lighting
10
-410714.0
20
18530.0
30
0
11
-410714.0
21
19070.0
31
0
0
LINE
8
lighting
10
-410726.0
20
18530.0
30
0
11
-410714.0
21
18530.0
31
0
0
LINE
8
lighting
10
-410726.0
20
19070.0
30
0
11
-410714.0
21
19070.0
31
0
0
LINE
8
lighting
10
-410646.0
20
18530.0
30
0
11
-410646.0
21
19070.0
31
0
0
LINE
8
lighting
10
-410634.0
20
18530.0
30
0
11
-410634.0
21
19070.0
31
0
0
LINE
8
lighting
10
-410646.0
20
18530.0
30
0
11
-410634.0
21
18530.0
31
0
0
LINE
8
lighting
10
-410646.0
20
19070.0
30
0
11
-410634.0
21
19070.0
31
0
0
LINE
8
lighting
10
-410566.0
20
18530.0
30
0
11
-410566.0
21
19070.0
31
0
0
LINE
8
lighting
10
-410554.0
20
18530.0
30
0
11
-410554.0
21
19070.0
31
0
0
LINE
8
lighting
10
-410566.0
20
18530.0
30
0
11
-410554.0
21
18530.0
31
0
0
LINE
8
lighting
10
-410566.0
20
19070.0
30
0
11
-410554.0
21
19070.0
31
0
0
LINE
8
lighting
10
-410791.0
20
18800.0
30
0
11
-410804.5
21
18807.79
31
0
0
LINE
8
lighting
10
-410804.5
20
18807.79
30
0
11
-410804.5
21
18792.21
31
0
0
LINE
8
lighting
10
-410804.5
20
18792.21
30
0
11
-410791.0
21
18800.0
31
0
0
LINE
8
lighting
10
-389520.0
20
18480.0
30
0
11
-389520.0
21
19120.0
31
0
0
LINE
8
lighting
10
-388880.0
20
18480.0
30
0
11
-388880.0
21
19120.0
31
0
0
LINE
8
lighting
10
-389520.0
20
18480.0
30
0
11
-388880.0
21
18480.0
31
0
0
LINE
8
lighting
10
-389520.0
20
19120.0
30
0
11
-388880.0
21
19120.0
31
0
0
LINE
8
lighting
10
-389480.0
20
18520.0
30
0
11
-389480.0
21
19080.0
31
0
0
LINE
8
lighting
10
-388920.0
20
18520.0
30
0
11
-388920.0
21
19080.0
31
0
0
LINE
8
lighting
10
-389480.0
20
18520.0
30
0
11
-388920.0
21
18520.0
31
0
0
LINE
8
lighting
10
-389480.0
20
19080.0
30
0
11
-388920.0
21
19080.0
31
0
0
LINE
8
lighting
10
-389446.0
20
18530.0
30
0
11
-389446.0
21
19070.0
31
0
0
LINE
8
lighting
10
-389434.0
20
18530.0
30
0
11
-389434.0
21
19070.0
31
0
0
LINE
8
lighting
10
-389446.0
20
18530.0
30
0
11
-389434.0
21
18530.0
31
0
0
LINE
8
lighting
10
-389446.0
20
19070.0
30
0
11
-389434.0
21
19070.0
31
0
0
LINE
8
lighting
10
-389366.0
20
18530.0
30
0
11
-389366.0
21
19070.0
31
0
0
LINE
8
lighting
10
-389354.0
20
18530.0
30
0
11
-389354.0
21
19070.0
31
0
0
LINE
8
lighting
10
-389366.0
20
18530.0
30
0
11
-389354.0
21
18530.0
31
0
0
LINE
8
lighting
10
-389366.0
20
19070.0
30
0
11
-389354.0
21
19070.0
31
0
0
LINE
8
lighting
10
-389286.0
20
18530.0
30
0
11
-389286.0
21
19070.0
31
0
0
LINE
8
lighting
10
-389274.0
20
18530.0
30
0
11
-389274.0
21
19070.0
31
0
0
LINE
8
lighting
10
-389286.0
20
18530.0
30
0
11
-389274.0
21
18530.0
31
0
0
LINE
8
lighting
10
-389286.0
20
19070.0
30
0
11
-389274.0
21
19070.0
31
0
0
LINE
8
lighting
10
-389206.0
20
18530.0
30
0
11
-389206.0
21
19070.0
31
0
0
LINE
8
lighting
10
-389194.0
20
18530.0
30
0
11
-389194.0
21
19070.0
31
0
0
LINE
8
lighting
10
-389206.0
20
18530.0
30
0
11
-389194.0
21
18530.0
31
0
0
LINE
8
lighting
10
-389206.0
20
19070.0
30
0
11
-389194.0
21
19070.0
31
0
0
LINE
8
lighting
10
-389126.0
20
18530.0
30
0
11
-389126.0
21
19070.0
31
0
0
LINE
8
lighting
10
-389114.0
20
18530.0
30
0
11
-389114.0
21
19070.0
31
0
0
LINE
8
lighting
10
-389126.0
20
18530.0
30
0
11
-389114.0
21
18530.0
31
0
0
LINE
8
lighting
10
-389126.0
20
19070.0
30
0
11
-389114.0
21
19070.0
31
0
0
LINE
8
lighting
10
-389046.0
20
18530.0
30
0
11
-389046.0
21
19070.0
31
0
0
LINE
8
lighting
10
-389034.0
20
18530.0
30
0
11
-389034.0
21
19070.0
31
0
0
LINE
8
lighting
10
-389046.0
20
18530.0
30
0
11
-389034.0
21
18530.0
31
0
0
LINE
8
lighting
10
-389046.0
20
19070.0
30
0
11
-389034.0
21
19070.0
31
0
0
LINE
8
lighting
10
-388966.0
20
18530.0
30
0
11
-388966.0
21
19070.0
31
0
0
LINE
8
lighting
10
-388954.0
20
18530.0
30
0
11
-388954.0
21
19070.0
31
0
0
LINE
8
lighting
10
-388966.0
20
18530.0
30
0
11
-388954.0
21
18530.0
31
0
0
LINE
8
lighting
10
-388966.0
20
19070.0
30
0
11
-388954.0
21
19070.0
31
0
0
LINE
8
lighting
10
-389191.0
20
18800.0
30
0
11
-389204.5
21
18807.79
31
0
0
LINE
8
lighting
10
-389204.5
20
18807.79
30
0
11
-389204.5
21
18792.21
31
0
0
LINE
8
lighting
10
-389204.5
20
18792.21
30
0
11
-389191.0
21
18800.0
31
0
0
LINE
8
lighting
10
-400320.0
20
18480.0
30
0
11
-400320.0
21
19120.0
31
0
0
LINE
8
lighting
10
-399680.0
20
18480.0
30
0
11
-399680.0
21
19120.0
31
0
0
LINE
8
lighting
10
-400320.0
20
18480.0
30
0
11
-399680.0
21
18480.0
31
0
0
LINE
8
lighting
10
-400320.0
20
19120.0
30
0
11
-399680.0
21
19120.0
31
0
0
LINE
8
lighting
10
-400280.0
20
18520.0
30
0
11
-400280.0
21
19080.0
31
0
0
LINE
8
lighting
10
-399720.0
20
18520.0
30
0
11
-399720.0
21
19080.0
31
0
0
LINE
8
lighting
10
-400280.0
20
18520.0
30
0
11
-399720.0
21
18520.0
31
0
0
LINE
8
lighting
10
-400280.0
20
19080.0
30
0
11
-399720.0
21
19080.0
31
0
0
LINE
8
lighting
10
-400246.0
20
18530.0
30
0
11
-400246.0
21
19070.0
31
0
0
LINE
8
lighting
10
-400234.0
20
18530.0
30
0
11
-400234.0
21
19070.0
31
0
0
LINE
8
lighting
10
-400246.0
20
18530.0
30
0
11
-400234.0
21
18530.0
31
0
0
LINE
8
lighting
10
-400246.0
20
19070.0
30
0
11
-400234.0
21
19070.0
31
0
0
LINE
8
lighting
10
-400166.0
20
18530.0
30
0
11
-400166.0
21
19070.0
31
0
0
LINE
8
lighting
10
-400154.0
20
18530.0
30
0
11
-400154.0
21
19070.0
31
0
0
LINE
8
lighting
10
-400166.0
20
18530.0
30
0
11
-400154.0
21
18530.0
31
0
0
LINE
8
lighting
10
-400166.0
20
19070.0
30
0
11
-400154.0
21
19070.0
31
0
0
LINE
8
lighting
10
-400086.0
20
18530.0
30
0
11
-400086.0
21
19070.0
31
0
0
LINE
8
lighting
10
-400074.0
20
18530.0
30
0
11
-400074.0
21
19070.0
31
0
0
LINE
8
lighting
10
-400086.0
20
18530.0
30
0
11
-400074.0
21
18530.0
31
0
0
LINE
8
lighting
10
-400086.0
20
19070.0
30
0
11
-400074.0
21
19070.0
31
0
0
LINE
8
lighting
10
-400006.0
20
18530.0
30
0
11
-400006.0
21
19070.0
31
0
0
LINE
8
lighting
10
-399994.0
20
18530.0
30
0
11
-399994.0
21
19070.0
31
0
0
LINE
8
lighting
10
-400006.0
20
18530.0
30
0
11
-399994.0
21
18530.0
31
0
0
LINE
8
lighting
10
-400006.0
20
19070.0
30
0
11
-399994.0
21
19070.0
31
0
0
LINE
8
lighting
10
-399926.0
20
18530.0
30
0
11
-399926.0
21
19070.0
31
0
0
LINE
8
lighting
10
-399914.0
20
18530.0
30
0
11
-399914.0
21
19070.0
31
0
0
LINE
8
lighting
10
-399926.0
20
18530.0
30
0
11
-399914.0
21
18530.0
31
0
0
LINE
8
lighting
10
-399926.0
20
19070.0
30
0
11
-399914.0
21
19070.0
31
0
0
LINE
8
lighting
10
-399846.0
20
18530.0
30
0
11
-399846.0
21
19070.0
31
0
0
LINE
8
lighting
10
-399834.0
20
18530.0
30
0
11
-399834.0
21
19070.0
31
0
0
LINE
8
lighting
10
-399846.0
20
18530.0
30
0
11
-399834.0
21
18530.0
31
0
0
LINE
8
lighting
10
-399846.0
20
19070.0
30
0
11
-399834.0
21
19070.0
31
0
0
LINE
8
lighting
10
-399766.0
20
18530.0
30
0
11
-399766.0
21
19070.0
31
0
0
LINE
8
lighting
10
-399754.0
20
18530.0
30
0
11
-399754.0
21
19070.0
31
0
0
LINE
8
lighting
10
-399766.0
20
18530.0
30
0
11
-399754.0
21
18530.0
31
0
0
LINE
8
lighting
10
-399766.0
20
19070.0
30
0
11
-399754.0
21
19070.0
31
0
0
LINE
8
lighting
10
-399991.0
20
18800.0
30
0
11
-400004.5
21
18807.79
31
0
0
LINE
8
lighting
10
-400004.5
20
18807.79
30
0
11
-400004.5
21
18792.21
31
0
0
LINE
8
lighting
10
-400004.5
20
18792.21
30
0
11
-399991.0
21
18800.0
31
0
0
LINE
8
electrical
10
-410800.0
20
4880.0
30
0
11
-410800.0
21
4872.21
31
0
0
LINE
8
electrical
10
-410800.0
20
4872.21
30
0
11
-410800.0
21
4887.79
31
0
0
LINE
8
electrical
10
-410800.0
20
4887.79
30
0
11
-410800.0
21
4880.0
31
0
0
LINE
8
electrical
10
-385450.0
20
4880.0
30
0
11
-410800.0
21
4880.0
31
0
0
LINE
8
electrical
10
-385450.0
20
4880.0
30
0
11
-385450.0
21
4872.21
31
0
0
LINE
8
electrical
10
-385450.0
20
4872.21
30
0
11
-385450.0
21
4887.79
31
0
0
LINE
8
electrical
10
-385450.0
20
4887.79
30
0
11
-385450.0
21
4880.0
31
0
0
LINE
8
electrical
10
-410800.0
20
18800.0
30
0
11
-410792.21
21
18800.0
31
0
0
LINE
8
electrical
10
-410792.21
20
18800.0
30
0
11
-410807.79
21
18800.0
31
0
0
LINE
8
electrical
10
-410807.79
20
18800.0
30
0
11
-410800.0
21
18800.0
31
0
0
LINE
8
electrical
10
-410800.0
20
4880.0
30
0
11
-410800.0
21
18800.0
31
0
0
LINE
8
electrical
10
-410800.0
20
4880.0
30
0
11
-410792.21
21
4880.0
31
0
0
LINE
8
electrical
10
-410792.21
20
4880.0
30
0
11
-410807.79
21
4880.0
31
0
0
LINE
8
electrical
10
-410807.79
20
4880.0
30
0
11
-410800.0
21
4880.0
31
0
0
LINE
8
electrical
10
-389200.0
20
18800.0
30
0
11
-389192.21
21
18800.0
31
0
0
LINE
8
electrical
10
-389192.21
20
18800.0
30
0
11
-389207.79
21
18800.0
31
0
0
LINE
8
electrical
10
-389207.79
20
18800.0
30
0
11
-389200.0
21
18800.0
31
0
0
LINE
8
electrical
10
-389200.0
20
4880.0
30
0
11
-389200.0
21
18800.0
31
0
0
LINE
8
electrical
10
-389200.0
20
4880.0
30
0
11
-389192.21
21
4880.0
31
0
0
LINE
8
electrical
10
-389192.21
20
4880.0
30
0
11
-389207.79
21
4880.0
31
0
0
LINE
8
electrical
10
-389207.79
20
4880.0
30
0
11
-389200.0
21
4880.0
31
0
0
LINE
8
electrical
10
-400000.0
20
18800.0
30
0
11
-399992.21
21
18800.0
31
0
0
LINE
8
electrical
10
-399992.21
20
18800.0
30
0
11
-400007.79
21
18800.0
31
0
0
LINE
8
electrical
10
-400007.79
20
18800.0
30
0
11
-400000.0
21
18800.0
31
0
0
LINE
8
electrical
10
-400000.0
20
4880.0
30
0
11
-400000.0
21
18800.0
31
0
0
LINE
8
electrical
10
-400000.0
20
4880.0
30
0
11
-399992.21
21
4880.0
31
0
0
LINE
8
electrical
10
-399992.21
20
4880.0
30
0
11
-400007.79
21
4880.0
31
0
0
LINE
8
electrical
10
-400007.79
20
4880.0
30
0
11
-400000.0
21
4880.0
31
0
0
LINE
8
electrical
10
-385437.0
20
2200.0
30
0
11
-385456.5
21
2211.26
31
0
0
LINE
8
electrical
10
-385456.5
20
2211.26
30
0
11
-385456.5
21
2188.74
31
0
0
LINE
8
electrical
10
-385456.5
20
2188.74
30
0
11
-385437.0
21
2200.0
31
0
0
LINE
8
electrical
10
-389507.17
20
4869.16
30
0
11
-389496.41
21
4885.42
31
0
0
LINE
8
electrical
10
-389496.41
20
4885.42
30
0
11
-389496.41
21
4885.42
31
0
0
LINE
8
electrical
10
-389496.41
20
4885.42
30
0
11
-389507.17
21
4869.16
31
0
0
LINE
8
electrical
10
-385457.17
20
2189.16
30
0
11
-389507.17
21
4869.16
31
0
0
LINE
8
electrical
10
-385457.17
20
2189.16
30
0
11
-385446.41
21
2205.42
31
0
0
LINE
8
electrical
10
-385446.41
20
2205.42
30
0
11
-385446.41
21
2205.42
31
0
0
LINE
8
electrical
10
-385446.41
20
2205.42
30
0
11
-385457.17
21
2189.16
31
0
0
LINE
8
electrical
10
-410500.0
20
4880.0
30
0
11
-410500.0
21
4868.74
31
0
0
LINE
8
electrical
10
-410500.0
20
4868.74
30
0
11
-410500.0
21
4891.26
31
0
0
LINE
8
electrical
10
-410500.0
20
4891.26
30
0
11
-410500.0
21
4880.0
31
0
0
LINE
8
electrical
10
-389500.0
20
4880.0
30
0
11
-410500.0
21
4880.0
31
0
0
LINE
8
electrical
10
-389500.0
20
4880.0
30
0
11
-389500.0
21
4868.74
31
0
0
LINE
8
electrical
10
-389500.0
20
4868.74
30
0
11
-389500.0
21
4891.26
31
0
0
LINE
8
electrical
10
-389500.0
20
4891.26
30
0
11
-389500.0
21
4880.0
31
0
0
LINE
8
electrical
10
-385450.0
20
2200.0
30
0
11
-385435.96
21
2200.0
31
0
0
LINE
8
electrical
10
-385435.96
20
2200.0
30
0
11
-385450.0
21
2200.0
31
0
0
LINE
8
electrical
10
-389500.0
20
4880.0
30
0
11
-389485.96
21
4880.0
31
0
0
LINE
8
electrical
10
-389485.96
20
4880.0
30
0
11
-389500.0
21
4880.0
31
0
0
LINE
8
electrical
10
-385437.0
20
2200.0
30
0
11
-385456.5
21
2211.26
31
0
0
LINE
8
electrical
10
-385456.5
20
2211.26
30
0
11
-385456.5
21
2188.74
31
0
0
LINE
8
electrical
10
-385456.5
20
2188.74
30
0
11
-385437.0
21
2200.0
31
0
0
LINE
8
electrical
10
-389507.39
20
4989.31
30
0
11
-389496.3
21
5005.35
31
0
0
LINE
8
electrical
10
-389496.3
20
5005.35
30
0
11
-389496.3
21
5005.35
31
0
0
LINE
8
electrical
10
-389496.3
20
5005.35
30
0
11
-389507.39
21
4989.31
31
0
0
LINE
8
electrical
10
-385457.39
20
2189.31
30
0
11
-389507.39
21
4989.31
31
0
0
LINE
8
electrical
10
-385457.39
20
2189.31
30
0
11
-385446.3
21
2205.35
31
0
0
LINE
8
electrical
10
-385446.3
20
2205.35
30
0
11
-385446.3
21
2205.35
31
0
0
LINE
8
electrical
10
-385446.3
20
2205.35
30
0
11
-385457.39
21
2189.31
31
0
0
LINE
8
electrical
10
-410500.0
20
5000.0
30
0
11
-410500.0
21
4988.74
31
0
0
LINE
8
electrical
10
-410500.0
20
4988.74
30
0
11
-410500.0
21
5011.26
31
0
0
LINE
8
electrical
10
-410500.0
20
5011.26
30
0
11
-410500.0
21
5000.0
31
0
0
LINE
8
electrical
10
-389500.0
20
5000.0
30
0
11
-410500.0
21
5000.0
31
0
0
LINE
8
electrical
10
-389500.0
20
5000.0
30
0
11
-389500.0
21
4988.74
31
0
0
LINE
8
electrical
10
-389500.0
20
4988.74
30
0
11
-389500.0
21
5011.26
31
0
0
LINE
8
electrical
10
-389500.0
20
5011.26
30
0
11
-389500.0
21
5000.0
31
0
0
LINE
8
electrical
10
-385450.0
20
2200.0
30
0
11
-385435.96
21
2200.0
31
0
0
LINE
8
electrical
10
-385435.96
20
2200.0
30
0
11
-385450.0
21
2200.0
31
0
0
LINE
8
electrical
10
-389500.0
20
5000.0
30
0
11
-389485.96
21
5000.0
31
0
0
LINE
8
electrical
10
-389485.96
20
5000.0
30
0
11
-389500.0
21
5000.0
31
0
0
LINE
8
electrical
10
-385437.0
20
2200.0
30
0
11
-385456.5
21
2211.26
31
0
0
LINE
8
electrical
10
-385456.5
20
2211.26
30
0
11
-385456.5
21
2188.74
31
0
0
LINE
8
electrical
10
-385456.5
20
2188.74
30
0
11
-385437.0
21
2200.0
31
0
0
LINE
8
electrical
10
-389507.6
20
5109.45
30
0
11
-389496.2
21
5125.27
31
0
0
LINE
8
electrical
10
-389496.2
20
5125.27
30
0
11
-389496.2
21
5125.27
31
0
0
LINE
8
electrical
10
-389496.2
20
5125.27
30
0
11
-389507.6
21
5109.45
31
0
0
LINE
8
electrical
10
-385457.6
20
2189.45
30
0
11
-389507.6
21
5109.45
31
0
0
LINE
8
electrical
10
-385457.6
20
2189.45
30
0
11
-385446.2
21
2205.27
31
0
0
LINE
8
electrical
10
-385446.2
20
2205.27
30
0
11
-385446.2
21
2205.27
31
0
0
LINE
8
electrical
10
-385446.2
20
2205.27
30
0
11
-385457.6
21
2189.45
31
0
0
LINE
8
electrical
10
-410500.0
20
5120.0
30
0
11
-410500.0
21
5108.74
31
0
0
LINE
8
electrical
10
-410500.0
20
5108.74
30
0
11
-410500.0
21
5131.26
31
0
0
LINE
8
electrical
10
-410500.0
20
5131.26
30
0
11
-410500.0
21
5120.0
31
0
0
LINE
8
electrical
10
-389500.0
20
5120.0
30
0
11
-410500.0
21
5120.0
31
0
0
LINE
8
electrical
10
-389500.0
20
5120.0
30
0
11
-389500.0
21
5108.74
31
0
0
LINE
8
electrical
10
-389500.0
20
5108.74
30
0
11
-389500.0
21
5131.26
31
0
0
LINE
8
electrical
10
-389500.0
20
5131.26
30
0
11
-389500.0
21
5120.0
31
0
0
LINE
8
electrical
10
-385450.0
20
2200.0
30
0
11
-385435.96
21
2200.0
31
0
0
LINE
8
electrical
10
-385435.96
20
2200.0
30
0
11
-385450.0
21
2200.0
31
0
0
LINE
8
electrical
10
-389500.0
20
5120.0
30
0
11
-389485.96
21
5120.0
31
0
0
LINE
8
electrical
10
-389485.96
20
5120.0
30
0
11
-389500.0
21
5120.0
31
0
0
LINE
8
electrical
10
-409065.0
20
2150.0
30
0
11
-409065.0
21
2210.0
31
0
0
LINE
8
electrical
10
-408935.0
20
2150.0
30
0
11
-408935.0
21
2210.0
31
0
0
LINE
8
electrical
10
-409065.0
20
2150.0
30
0
11
-408935.0
21
2150.0
31
0
0
LINE
8
electrical
10
-409065.0
20
2210.0
30
0
11
-408935.0
21
2210.0
31
0
0
LINE
8
electrical
10
-408991.0
20
2180.0
30
0
11
-409004.5
21
2187.79
31
0
0
LINE
8
electrical
10
-409004.5
20
2187.79
30
0
11
-409004.5
21
2172.21
31
0
0
LINE
8
electrical
10
-409004.5
20
2172.21
30
0
11
-408991.0
21
2180.0
31
0
0
LINE
8
electrical
10
-385450.0
20
2180.0
30
0
11
-385450.0
21
2172.21
31
0
0
LINE
8
electrical
10
-385450.0
20
2172.21
30
0
11
-385450.0
21
2187.79
31
0
0
LINE
8
electrical
10
-385450.0
20
2187.79
30
0
11
-385450.0
21
2180.0
31
0
0
LINE
8
electrical
10
-409000.0
20
2180.0
30
0
11
-385450.0
21
2180.0
31
0
0
LINE
8
electrical
10
-409000.0
20
2180.0
30
0
11
-409000.0
21
2172.21
31
0
0
LINE
8
electrical
10
-409000.0
20
2172.21
30
0
11
-409000.0
21
2187.79
31
0
0
LINE
8
electrical
10
-409000.0
20
2187.79
30
0
11
-409000.0
21
2180.0
31
0
0
LINE
8
electrical
10
-409000.0
20
2180.0
30
0
11
-408990.28
21
2180.0
31
0
0
LINE
8
electrical
10
-408990.28
20
2180.0
30
0
11
-409000.0
21
2180.0
31
0
0
LINE
8
electrical
10
-391065.0
20
2150.0
30
0
11
-391065.0
21
2210.0
31
0
0
LINE
8
electrical
10
-390935.0
20
2150.0
30
0
11
-390935.0
21
2210.0
31
0
0
LINE
8
electrical
10
-391065.0
20
2150.0
30
0
11
-390935.0
21
2150.0
31
0
0
LINE
8
electrical
10
-391065.0
20
2210.0
30
0
11
-390935.0
21
2210.0
31
0
0
LINE
8
electrical
10
-390991.0
20
2180.0
30
0
11
-391004.5
21
2187.79
31
0
0
LINE
8
electrical
10
-391004.5
20
2187.79
30
0
11
-391004.5
21
2172.21
31
0
0
LINE
8
electrical
10
-391004.5
20
2172.21
30
0
11
-390991.0
21
2180.0
31
0
0
LINE
8
electrical
10
-385450.0
20
2180.0
30
0
11
-385450.0
21
2172.21
31
0
0
LINE
8
electrical
10
-385450.0
20
2172.21
30
0
11
-385450.0
21
2187.79
31
0
0
LINE
8
electrical
10
-385450.0
20
2187.79
30
0
11
-385450.0
21
2180.0
31
0
0
LINE
8
electrical
10
-391000.0
20
2180.0
30
0
11
-385450.0
21
2180.0
31
0
0
LINE
8
electrical
10
-391000.0
20
2180.0
30
0
11
-391000.0
21
2172.21
31
0
0
LINE
8
electrical
10
-391000.0
20
2172.21
30
0
11
-391000.0
21
2187.79
31
0
0
LINE
8
electrical
10
-391000.0
20
2187.79
30
0
11
-391000.0
21
2180.0
31
0
0
LINE
8
electrical
10
-391000.0
20
2180.0
30
0
11
-390990.28
21
2180.0
31
0
0
LINE
8
electrical
10
-390990.28
20
2180.0
30
0
11
-391000.0
21
2180.0
31
0
0
LINE
8
hvac
10
-414525.0
20
2725.0
30
0
11
-414525.0
21
3475.0
31
0
0
LINE
8
hvac
10
-412875.0
20
2725.0
30
0
11
-412875.0
21
3475.0
31
0
0
LINE
8
hvac
10
-414525.0
20
2725.0
30
0
11
-412875.0
21
2725.0
31
0
0
LINE
8
hvac
10
-414525.0
20
3475.0
30
0
11
-412875.0
21
3475.0
31
0
0
LINE
8
hvac
10
-414425.0
20
2680.0
30
0
11
-414425.0
21
2720.0
31
0
0
LINE
8
hvac
10
-412975.0
20
2680.0
30
0
11
-412975.0
21
2720.0
31
0
0
LINE
8
hvac
10
-414425.0
20
2680.0
30
0
11
-412975.0
21
2680.0
31
0
0
LINE
8
hvac
10
-414425.0
20
2720.0
30
0
11
-412975.0
21
2720.0
31
0
0
LINE
8
hvac
10
-414360.0
20
2640.0
30
0
11
-414360.0
21
2700.0
31
0
0
LINE
8
hvac
10
-414320.0
20
2640.0
30
0
11
-414320.0
21
2700.0
31
0
0
LINE
8
hvac
10
-414360.0
20
2640.0
30
0
11
-414320.0
21
2640.0
31
0
0
LINE
8
hvac
10
-414360.0
20
2700.0
30
0
11
-414320.0
21
2700.0
31
0
0
LINE
8
hvac
10
-414200.0
20
2640.0
30
0
11
-414200.0
21
2700.0
31
0
0
LINE
8
hvac
10
-414160.0
20
2640.0
30
0
11
-414160.0
21
2700.0
31
0
0
LINE
8
hvac
10
-414200.0
20
2640.0
30
0
11
-414160.0
21
2640.0
31
0
0
LINE
8
hvac
10
-414200.0
20
2700.0
30
0
11
-414160.0
21
2700.0
31
0
0
LINE
8
hvac
10
-414040.0
20
2640.0
30
0
11
-414040.0
21
2700.0
31
0
0
LINE
8
hvac
10
-414000.0
20
2640.0
30
0
11
-414000.0
21
2700.0
31
0
0
LINE
8
hvac
10
-414040.0
20
2640.0
30
0
11
-414000.0
21
2640.0
31
0
0
LINE
8
hvac
10
-414040.0
20
2700.0
30
0
11
-414000.0
21
2700.0
31
0
0
LINE
8
hvac
10
-413880.0
20
2640.0
30
0
11
-413880.0
21
2700.0
31
0
0
LINE
8
hvac
10
-413840.0
20
2640.0
30
0
11
-413840.0
21
2700.0
31
0
0
LINE
8
hvac
10
-413880.0
20
2640.0
30
0
11
-413840.0
21
2640.0
31
0
0
LINE
8
hvac
10
-413880.0
20
2700.0
30
0
11
-413840.0
21
2700.0
31
0
0
LINE
8
hvac
10
-413720.0
20
2640.0
30
0
11
-413720.0
21
2700.0
31
0
0
LINE
8
hvac
10
-413680.0
20
2640.0
30
0
11
-413680.0
21
2700.0
31
0
0
LINE
8
hvac
10
-413720.0
20
2640.0
30
0
11
-413680.0
21
2640.0
31
0
0
LINE
8
hvac
10
-413720.0
20
2700.0
30
0
11
-413680.0
21
2700.0
31
0
0
LINE
8
hvac
10
-413560.0
20
2640.0
30
0
11
-413560.0
21
2700.0
31
0
0
LINE
8
hvac
10
-413520.0
20
2640.0
30
0
11
-413520.0
21
2700.0
31
0
0
LINE
8
hvac
10
-413560.0
20
2640.0
30
0
11
-413520.0
21
2640.0
31
0
0
LINE
8
hvac
10
-413560.0
20
2700.0
30
0
11
-413520.0
21
2700.0
31
0
0
LINE
8
hvac
10
-413400.0
20
2640.0
30
0
11
-413400.0
21
2700.0
31
0
0
LINE
8
hvac
10
-413360.0
20
2640.0
30
0
11
-413360.0
21
2700.0
31
0
0
LINE
8
hvac
10
-413400.0
20
2640.0
30
0
11
-413360.0
21
2640.0
31
0
0
LINE
8
hvac
10
-413400.0
20
2700.0
30
0
11
-413360.0
21
2700.0
31
0
0
LINE
8
hvac
10
-413240.0
20
2640.0
30
0
11
-413240.0
21
2700.0
31
0
0
LINE
8
hvac
10
-413200.0
20
2640.0
30
0
11
-413200.0
21
2700.0
31
0
0
LINE
8
hvac
10
-413240.0
20
2640.0
30
0
11
-413200.0
21
2640.0
31
0
0
LINE
8
hvac
10
-413240.0
20
2700.0
30
0
11
-413200.0
21
2700.0
31
0
0
LINE
8
hvac
10
-413080.0
20
2640.0
30
0
11
-413080.0
21
2700.0
31
0
0
LINE
8
hvac
10
-413040.0
20
2640.0
30
0
11
-413040.0
21
2700.0
31
0
0
LINE
8
hvac
10
-413080.0
20
2640.0
30
0
11
-413040.0
21
2640.0
31
0
0
LINE
8
hvac
10
-413080.0
20
2700.0
30
0
11
-413040.0
21
2700.0
31
0
0
LINE
8
hvac
10
-413925.0
20
2875.0
30
0
11
-413925.0
21
3325.0
31
0
0
LINE
8
hvac
10
-413475.0
20
2875.0
30
0
11
-413475.0
21
3325.0
31
0
0
LINE
8
hvac
10
-413925.0
20
2875.0
30
0
11
-413475.0
21
2875.0
31
0
0
LINE
8
hvac
10
-413925.0
20
3325.0
30
0
11
-413475.0
21
3325.0
31
0
0
LINE
8
hvac
10
-410500.0
20
11825.0
30
0
11
-410500.0
21
12175.0
31
0
0
LINE
8
hvac
10
-389500.0
20
11825.0
30
0
11
-389500.0
21
12175.0
31
0
0
LINE
8
hvac
10
-410500.0
20
11825.0
30
0
11
-389500.0
21
11825.0
31
0
0
LINE
8
hvac
10
-410500.0
20
12175.0
30
0
11
-389500.0
21
12175.0
31
0
0
LINE
8
hvac
10
-413875.0
20
2925.0
30
0
11
-413875.0
21
3275.0
31
0
0
LINE
8
hvac
10
-399825.0
20
2925.0
30
0
11
-399825.0
21
3275.0
31
0
0
LINE
8
hvac
10
-413875.0
20
2925.0
30
0
11
-399825.0
21
2925.0
31
0
0
LINE
8
hvac
10
-413875.0
20
3275.0
30
0
11
-399825.0
21
3275.0
31
0
0
LINE
8
hvac
10
-400175.0
20
2925.0
30
0
11
-400175.0
21
12175.0
31
0
0
LINE
8
hvac
10
-399825.0
20
2925.0
30
0
11
-399825.0
21
12175.0
31
0
0
LINE
8
hvac
10
-400175.0
20
2925.0
30
0
11
-399825.0
21
2925.0
31
0
0
LINE
8
hvac
10
-400175.0
20
12175.0
30
0
11
-399825.0
21
12175.0
31
0
0
LINE
8
hvac
10
-406350.0
20
11650.0
30
0
11
-406350.0
21
12350.0
31
0
0
LINE
8
hvac
10
-405650.0
20
11650.0
30
0
11
-405650.0
21
12350.0
31
0
0
LINE
8
hvac
10
-406350.0
20
11650.0
30
0
11
-405650.0
21
11650.0
31
0
0
LINE
8
hvac
10
-406350.0
20
12350.0
30
0
11
-405650.0
21
12350.0
31
0
0
LINE
8
hvac
10
-394350.0
20
11650.0
30
0
11
-394350.0
21
12350.0
31
0
0
LINE
8
hvac
10
-393650.0
20
11650.0
30
0
11
-393650.0
21
12350.0
31
0
0
LINE
8
hvac
10
-394350.0
20
11650.0
30
0
11
-393650.0
21
11650.0
31
0
0
LINE
8
hvac
10
-394350.0
20
12350.0
30
0
11
-393650.0
21
12350.0
31
0
0
LINE
8
water
10
-386510.0
20
14680.0
30
0
11
-386510.0
21
15320.0
31
0
0
LINE
8
water
10
-385590.0
20
14680.0
30
0
11
-385590.0
21
15320.0
31
0
0
LINE
8
water
10
-386510.0
20
14680.0
30
0
11
-385590.0
21
14680.0
31
0
0
LINE
8
water
10
-386510.0
20
15320.0
30
0
11
-385590.0
21
15320.0
31
0
0
LINE
8
water
10
-386500.0
20
14690.0
30
0
11
-386500.0
21
15310.0
31
0
0
LINE
8
water
10
-386500.0
20
14690.0
30
0
11
-385600.0
21
14690.0
31
0
0
LINE
8
water
10
-386500.0
20
15310.0
30
0
11
-385600.0
21
15310.0
31
0
0
LINE
8
water
10
-385600.0
20
14690.0
30
0
11
-385600.0
21
15310.0
31
0
0
LINE
8
water
10
-385725.0
20
14785.0
30
0
11
-386375.0
21
14785.0
31
0
0
LINE
8
water
10
-385725.0
20
14785.0
30
0
11
-385725.0
21
15215.0
31
0
0
LINE
8
water
10
-385725.0
20
15215.0
30
0
11
-386375.0
21
15215.0
31
0
0
LINE
8
water
10
-386375.0
20
14785.0
30
0
11
-386375.0
21
15215.0
31
0
0
LINE
8
water
10
-386032.0
20
15220.0
30
0
11
-386059.0
21
15235.59
31
0
0
LINE
8
water
10
-386059.0
20
15235.59
30
0
11
-386059.0
21
15204.41
31
0
0
LINE
8
water
10
-386059.0
20
15204.41
30
0
11
-386032.0
21
15220.0
31
0
0
LINE
8
water
10
-386050.0
20
15000.0
30
0
11
-386034.41
21
15000.0
31
0
0
LINE
8
water
10
-386034.41
20
15000.0
30
0
11
-386065.59
21
15000.0
31
0
0
LINE
8
water
10
-386065.59
20
15000.0
30
0
11
-386050.0
21
15000.0
31
0
0
LINE
8
water
10
-386050.0
20
15220.0
30
0
11
-386050.0
21
15000.0
31
0
0
LINE
8
water
10
-386050.0
20
15220.0
30
0
11
-386034.41
21
15220.0
31
0
0
LINE
8
water
10
-386034.41
20
15220.0
30
0
11
-386065.59
21
15220.0
31
0
0
LINE
8
water
10
-386065.59
20
15220.0
30
0
11
-386050.0
21
15220.0
31
0
0
LINE
8
water
10
-386050.0
20
15220.0
30
0
11
-386030.56
21
15220.0
31
0
0
LINE
8
water
10
-386030.56
20
15220.0
30
0
11
-386050.0
21
15220.0
31
0
0
LINE
8
water
10
-386105.0
20
15000.0
30
0
11
-386050.0
21
15055.0
31
0
0
LINE
8
water
10
-386050.0
20
15055.0
30
0
11
-385995.0
21
15000.0
31
0
0
LINE
8
water
10
-385995.0
20
15000.0
30
0
11
-386050.0
21
14945.0
31
0
0
LINE
8
water
10
-386050.0
20
14945.0
30
0
11
-386105.0
21
15000.0
31
0
0
LINE
8
water
10
-386050.0
20
13800.0
30
0
11
-385995.0
21
13800.0
31
0
0
LINE
8
water
10
-385995.0
20
13800.0
30
0
11
-386050.0
21
13800.0
31
0
0
LINE
8
water
10
-386050.0
20
13800.0
30
0
11
-386105.0
21
13800.0
31
0
0
LINE
8
water
10
-386105.0
20
13800.0
30
0
11
-386050.0
21
13800.0
31
0
0
LINE
8
water
10
-386050.0
20
15000.0
30
0
11
-386050.0
21
13800.0
31
0
0
LINE
8
water
10
-386050.0
20
15000.0
30
0
11
-385995.0
21
15000.0
31
0
0
LINE
8
water
10
-385995.0
20
15000.0
30
0
11
-386050.0
21
15000.0
31
0
0
LINE
8
water
10
-386050.0
20
15000.0
30
0
11
-386105.0
21
15000.0
31
0
0
LINE
8
water
10
-386105.0
20
15000.0
30
0
11
-386050.0
21
15000.0
31
0
0
LINE
8
water
10
-386105.0
20
13800.0
30
0
11
-386050.0
21
13855.0
31
0
0
LINE
8
water
10
-386050.0
20
13855.0
30
0
11
-385995.0
21
13800.0
31
0
0
LINE
8
water
10
-385995.0
20
13800.0
30
0
11
-386050.0
21
13745.0
31
0
0
LINE
8
water
10
-386050.0
20
13745.0
30
0
11
-386105.0
21
13800.0
31
0
0
LINE
8
water
10
-386050.0
20
-58000.0
30
0
11
-385995.0
21
-58000.0
31
0
0
LINE
8
water
10
-385995.0
20
-58000.0
30
0
11
-386050.0
21
-58000.0
31
0
0
LINE
8
water
10
-386050.0
20
-58000.0
30
0
11
-386105.0
21
-58000.0
31
0
0
LINE
8
water
10
-386105.0
20
-58000.0
30
0
11
-386050.0
21
-58000.0
31
0
0
LINE
8
water
10
-386050.0
20
13800.0
30
0
11
-386050.0
21
-58000.0
31
0
0
LINE
8
water
10
-455000.0
20
-58000.0
30
0
11
-455000.0
21
-58055.0
31
0
0
LINE
8
water
10
-455000.0
20
-58055.0
30
0
11
-455000.0
21
-58000.0
31
0
0
LINE
8
water
10
-455000.0
20
-58000.0
30
0
11
-455000.0
21
-57945.0
31
0
0
LINE
8
water
10
-455000.0
20
-57945.0
30
0
11
-455000.0
21
-58000.0
31
0
0
LINE
8
water
10
-386050.0
20
-58000.0
30
0
11
-455000.0
21
-58000.0
31
0
0
LINE
8
water
10
-386050.0
20
-58000.0
30
0
11
-386050.0
21
-58055.0
31
0
0
LINE
8
water
10
-386050.0
20
-58055.0
30
0
11
-386050.0
21
-58000.0
31
0
0
LINE
8
water
10
-386050.0
20
-58000.0
30
0
11
-386050.0
21
-57945.0
31
0
0
LINE
8
water
10
-386050.0
20
-57945.0
30
0
11
-386050.0
21
-58000.0
31
0
0
LINE
8
water
10
-386050.0
20
15000.0
30
0
11
-385990.6
21
15000.0
31
0
0
LINE
8
water
10
-385990.6
20
15000.0
30
0
11
-386050.0
21
15000.0
31
0
0
LINE
8
water
10
-386050.0
20
13800.0
30
0
11
-385990.6
21
13800.0
31
0
0
LINE
8
water
10
-385990.6
20
13800.0
30
0
11
-386050.0
21
13800.0
31
0
0
LINE
8
water
10
-386050.0
20
-58000.0
30
0
11
-385990.6
21
-58000.0
31
0
0
LINE
8
water
10
-385990.6
20
-58000.0
30
0
11
-386050.0
21
-58000.0
31
0
0
LINE
8
water
10
-385730.0
20
13750.0
30
0
11
-385823.73
21
13976.27
31
0
0
LINE
8
water
10
-385823.73
20
13976.27
30
0
11
-386050.0
21
14070.0
31
0
0
LINE
8
water
10
-386050.0
20
14070.0
30
0
11
-386276.27
21
13976.27
31
0
0
LINE
8
water
10
-386276.27
20
13976.27
30
0
11
-386370.0
21
13750.0
31
0
0
LINE
8
water
10
-386370.0
20
13750.0
30
0
11
-386276.27
21
13523.73
31
0
0
LINE
8
water
10
-386276.27
20
13523.73
30
0
11
-386050.0
21
13430.0
31
0
0
LINE
8
water
10
-386050.0
20
13430.0
30
0
11
-385823.73
21
13523.73
31
0
0
LINE
8
water
10
-385823.73
20
13523.73
30
0
11
-385730.0
21
13750.0
31
0
0
LINE
8
water
10
-386240.0
20
13625.0
30
0
11
-386240.0
21
13875.0
31
0
0
LINE
8
water
10
-385860.0
20
13625.0
30
0
11
-385860.0
21
13875.0
31
0
0
LINE
8
water
10
-386240.0
20
13625.0
30
0
11
-385860.0
21
13625.0
31
0
0
LINE
8
water
10
-386240.0
20
13875.0
30
0
11
-385860.0
21
13875.0
31
0
0
LINE
8
water
10
-394845.0
20
2400.0
30
0
11
-394845.0
21
2325.0
31
0
0
LINE
8
water
10
-394845.0
20
2325.0
30
0
11
-394845.0
21
2400.0
31
0
0
LINE
8
water
10
-394845.0
20
2400.0
30
0
11
-394845.0
21
2475.0
31
0
0
LINE
8
water
10
-394845.0
20
2475.0
30
0
11
-394845.0
21
2400.0
31
0
0
LINE
8
water
10
-395245.0
20
2400.0
30
0
11
-394845.0
21
2400.0
31
0
0
LINE
8
water
10
-395245.0
20
2400.0
30
0
11
-395245.0
21
2325.0
31
0
0
LINE
8
water
10
-395245.0
20
2325.0
30
0
11
-395245.0
21
2400.0
31
0
0
LINE
8
water
10
-395245.0
20
2400.0
30
0
11
-395245.0
21
2475.0
31
0
0
LINE
8
water
10
-395245.0
20
2475.0
30
0
11
-395245.0
21
2400.0
31
0
0
LINE
8
water
10
-394955.0
20
2400.0
30
0
11
-395017.19
21
2485.6
31
0
0
LINE
8
water
10
-395017.19
20
2485.6
30
0
11
-395117.81
21
2452.9
31
0
0
LINE
8
water
10
-395117.81
20
2452.9
30
0
11
-395117.81
21
2347.1
31
0
0
LINE
8
water
10
-395117.81
20
2347.1
30
0
11
-395017.19
21
2314.4
31
0
0
LINE
8
water
10
-395017.19
20
2314.4
30
0
11
-394955.0
21
2400.0
31
0
0
LINE
8
water
10
-395235.0
20
2375.0
30
0
11
-395235.0
21
2425.0
31
0
0
LINE
8
water
10
-394855.0
20
2375.0
30
0
11
-394855.0
21
2425.0
31
0
0
LINE
8
water
10
-395235.0
20
2375.0
30
0
11
-394855.0
21
2375.0
31
0
0
LINE
8
water
10
-395235.0
20
2425.0
30
0
11
-394855.0
21
2425.0
31
0
0
LINE
8
water
10
-395170.0
20
2400.0
30
0
11
-395170.0
21
2295.38
31
0
0
LINE
8
water
10
-395170.0
20
2295.38
30
0
11
-395170.0
21
2335.34
31
0
0
LINE
8
water
10
-395170.0
20
2335.34
30
0
11
-395170.0
21
2464.66
31
0
0
LINE
8
water
10
-395170.0
20
2464.66
30
0
11
-395170.0
21
2504.62
31
0
0
LINE
8
water
10
-395170.0
20
2504.62
30
0
11
-395170.0
21
2400.0
31
0
0
LINE
8
water
10
-395195.0
20
2400.0
30
0
11
-395170.0
21
2400.0
31
0
0
LINE
8
water
10
-395195.0
20
2400.0
30
0
11
-395195.0
21
2295.38
31
0
0
LINE
8
water
10
-395195.0
20
2295.38
30
0
11
-395195.0
21
2335.34
31
0
0
LINE
8
water
10
-395195.0
20
2335.34
30
0
11
-395195.0
21
2464.66
31
0
0
LINE
8
water
10
-395195.0
20
2464.66
30
0
11
-395195.0
21
2504.62
31
0
0
LINE
8
water
10
-395195.0
20
2504.62
30
0
11
-395195.0
21
2400.0
31
0
0
LINE
8
water
10
-394870.0
20
2400.0
30
0
11
-394870.0
21
2295.38
31
0
0
LINE
8
water
10
-394870.0
20
2295.38
30
0
11
-394870.0
21
2335.34
31
0
0
LINE
8
water
10
-394870.0
20
2335.34
30
0
11
-394870.0
21
2464.66
31
0
0
LINE
8
water
10
-394870.0
20
2464.66
30
0
11
-394870.0
21
2504.62
31
0
0
LINE
8
water
10
-394870.0
20
2504.62
30
0
11
-394870.0
21
2400.0
31
0
0
LINE
8
water
10
-394895.0
20
2400.0
30
0
11
-394870.0
21
2400.0
31
0
0
LINE
8
water
10
-394895.0
20
2400.0
30
0
11
-394895.0
21
2295.38
31
0
0
LINE
8
water
10
-394895.0
20
2295.38
30
0
11
-394895.0
21
2335.34
31
0
0
LINE
8
water
10
-394895.0
20
2335.34
30
0
11
-394895.0
21
2464.66
31
0
0
LINE
8
water
10
-394895.0
20
2464.66
30
0
11
-394895.0
21
2504.62
31
0
0
LINE
8
water
10
-394895.0
20
2504.62
30
0
11
-394895.0
21
2400.0
31
0
0
LINE
8
water
10
-398900.0
20
2400.0
30
0
11
-398869.69
21
2400.0
31
0
0
LINE
8
water
10
-398869.69
20
2400.0
30
0
11
-398930.31
21
2400.0
31
0
0
LINE
8
water
10
-398930.31
20
2400.0
30
0
11
-398900.0
21
2400.0
31
0
0
LINE
8
water
10
-398900.0
20
-60500.0
30
0
11
-398900.0
21
2400.0
31
0
0
LINE
8
water
10
-398900.0
20
-60500.0
30
0
11
-398869.69
21
-60500.0
31
0
0
LINE
8
water
10
-398869.69
20
-60500.0
30
0
11
-398930.31
21
-60500.0
31
0
0
LINE
8
water
10
-398930.31
20
-60500.0
30
0
11
-398900.0
21
-60500.0
31
0
0
LINE
8
water
10
-386050.0
20
2400.0
30
0
11
-386050.0
21
2369.69
31
0
0
LINE
8
water
10
-386050.0
20
2369.69
30
0
11
-386050.0
21
2430.31
31
0
0
LINE
8
water
10
-386050.0
20
2430.31
30
0
11
-386050.0
21
2400.0
31
0
0
LINE
8
water
10
-398900.0
20
2400.0
30
0
11
-386050.0
21
2400.0
31
0
0
LINE
8
water
10
-398900.0
20
2400.0
30
0
11
-398900.0
21
2369.69
31
0
0
LINE
8
water
10
-398900.0
20
2369.69
30
0
11
-398900.0
21
2430.31
31
0
0
LINE
8
water
10
-398900.0
20
2430.31
30
0
11
-398900.0
21
2400.0
31
0
0
LINE
8
water
10
-386050.0
20
15230.0
30
0
11
-386019.69
21
15230.0
31
0
0
LINE
8
water
10
-386019.69
20
15230.0
30
0
11
-386080.31
21
15230.0
31
0
0
LINE
8
water
10
-386080.31
20
15230.0
30
0
11
-386050.0
21
15230.0
31
0
0
LINE
8
water
10
-386050.0
20
2400.0
30
0
11
-386050.0
21
15230.0
31
0
0
LINE
8
water
10
-386050.0
20
2400.0
30
0
11
-386019.69
21
2400.0
31
0
0
LINE
8
water
10
-386019.69
20
2400.0
30
0
11
-386080.31
21
2400.0
31
0
0
LINE
8
water
10
-386080.31
20
2400.0
30
0
11
-386050.0
21
2400.0
31
0
0
LINE
8
water
10
-386085.0
20
15230.0
30
0
11
-386032.5
21
15260.31
31
0
0
LINE
8
water
10
-386032.5
20
15260.31
30
0
11
-386032.5
21
15199.69
31
0
0
LINE
8
water
10
-386032.5
20
15199.69
30
0
11
-386085.0
21
15230.0
31
0
0
LINE
8
water
10
-398900.0
20
2400.0
30
0
11
-398862.2
21
2400.0
31
0
0
LINE
8
water
10
-398862.2
20
2400.0
30
0
11
-398900.0
21
2400.0
31
0
0
LINE
8
water
10
-386050.0
20
2400.0
30
0
11
-386012.2
21
2400.0
31
0
0
LINE
8
water
10
-386012.2
20
2400.0
30
0
11
-386050.0
21
2400.0
31
0
0
LINE
8
water
10
-386050.0
20
15230.0
30
0
11
-386012.2
21
15230.0
31
0
0
LINE
8
water
10
-386012.2
20
15230.0
30
0
11
-386050.0
21
15230.0
31
0
0
LINE
8
water
10
-394636.0
20
2400.0
30
0
11
-394636.0
21
2325.0
31
0
0
LINE
8
water
10
-394636.0
20
2325.0
30
0
11
-394636.0
21
2400.0
31
0
0
LINE
8
water
10
-394636.0
20
2400.0
30
0
11
-394636.0
21
2475.0
31
0
0
LINE
8
water
10
-394636.0
20
2475.0
30
0
11
-394636.0
21
2400.0
31
0
0
LINE
8
water
10
-395036.0
20
2400.0
30
0
11
-394636.0
21
2400.0
31
0
0
LINE
8
water
10
-395036.0
20
2400.0
30
0
11
-395036.0
21
2325.0
31
0
0
LINE
8
water
10
-395036.0
20
2325.0
30
0
11
-395036.0
21
2400.0
31
0
0
LINE
8
water
10
-395036.0
20
2400.0
30
0
11
-395036.0
21
2475.0
31
0
0
LINE
8
water
10
-395036.0
20
2475.0
30
0
11
-395036.0
21
2400.0
31
0
0
LINE
8
water
10
-394746.0
20
2400.0
30
0
11
-394808.19
21
2485.6
31
0
0
LINE
8
water
10
-394808.19
20
2485.6
30
0
11
-394908.81
21
2452.9
31
0
0
LINE
8
water
10
-394908.81
20
2452.9
30
0
11
-394908.81
21
2347.1
31
0
0
LINE
8
water
10
-394908.81
20
2347.1
30
0
11
-394808.19
21
2314.4
31
0
0
LINE
8
water
10
-394808.19
20
2314.4
30
0
11
-394746.0
21
2400.0
31
0
0
LINE
8
water
10
-395026.0
20
2375.0
30
0
11
-395026.0
21
2425.0
31
0
0
LINE
8
water
10
-394646.0
20
2375.0
30
0
11
-394646.0
21
2425.0
31
0
0
LINE
8
water
10
-395026.0
20
2375.0
30
0
11
-394646.0
21
2375.0
31
0
0
LINE
8
water
10
-395026.0
20
2425.0
30
0
11
-394646.0
21
2425.0
31
0
0
LINE
8
water
10
-394961.0
20
2400.0
30
0
11
-394961.0
21
2295.38
31
0
0
LINE
8
water
10
-394961.0
20
2295.38
30
0
11
-394961.0
21
2335.34
31
0
0
LINE
8
water
10
-394961.0
20
2335.34
30
0
11
-394961.0
21
2464.66
31
0
0
LINE
8
water
10
-394961.0
20
2464.66
30
0
11
-394961.0
21
2504.62
31
0
0
LINE
8
water
10
-394961.0
20
2504.62
30
0
11
-394961.0
21
2400.0
31
0
0
LINE
8
water
10
-394986.0
20
2400.0
30
0
11
-394961.0
21
2400.0
31
0
0
LINE
8
water
10
-394986.0
20
2400.0
30
0
11
-394986.0
21
2295.38
31
0
0
LINE
8
water
10
-394986.0
20
2295.38
30
0
11
-394986.0
21
2335.34
31
0
0
LINE
8
water
10
-394986.0
20
2335.34
30
0
11
-394986.0
21
2464.66
31
0
0
LINE
8
water
10
-394986.0
20
2464.66
30
0
11
-394986.0
21
2504.62
31
0
0
LINE
8
water
10
-394986.0
20
2504.62
30
0
11
-394986.0
21
2400.0
31
0
0
LINE
8
water
10
-394661.0
20
2400.0
30
0
11
-394661.0
21
2295.38
31
0
0
LINE
8
water
10
-394661.0
20
2295.38
30
0
11
-394661.0
21
2335.34
31
0
0
LINE
8
water
10
-394661.0
20
2335.34
30
0
11
-394661.0
21
2464.66
31
0
0
LINE
8
water
10
-394661.0
20
2464.66
30
0
11
-394661.0
21
2504.62
31
0
0
LINE
8
water
10
-394661.0
20
2504.62
30
0
11
-394661.0
21
2400.0
31
0
0
LINE
8
water
10
-394686.0
20
2400.0
30
0
11
-394661.0
21
2400.0
31
0
0
LINE
8
water
10
-394686.0
20
2400.0
30
0
11
-394686.0
21
2295.38
31
0
0
LINE
8
water
10
-394686.0
20
2295.38
30
0
11
-394686.0
21
2335.34
31
0
0
LINE
8
water
10
-394686.0
20
2335.34
30
0
11
-394686.0
21
2464.66
31
0
0
LINE
8
water
10
-394686.0
20
2464.66
30
0
11
-394686.0
21
2504.62
31
0
0
LINE
8
water
10
-394686.0
20
2504.62
30
0
11
-394686.0
21
2400.0
31
0
0
LINE
8
water
10
-398550.0
20
2400.0
30
0
11
-398519.69
21
2400.0
31
0
0
LINE
8
water
10
-398519.69
20
2400.0
30
0
11
-398580.31
21
2400.0
31
0
0
LINE
8
water
10
-398580.31
20
2400.0
30
0
11
-398550.0
21
2400.0
31
0
0
LINE
8
water
10
-398550.0
20
-59500.0
30
0
11
-398550.0
21
2400.0
31
0
0
LINE
8
water
10
-398550.0
20
-59500.0
30
0
11
-398519.69
21
-59500.0
31
0
0
LINE
8
water
10
-398519.69
20
-59500.0
30
0
11
-398580.31
21
-59500.0
31
0
0
LINE
8
water
10
-398580.31
20
-59500.0
30
0
11
-398550.0
21
-59500.0
31
0
0
LINE
8
water
10
-386170.0
20
2400.0
30
0
11
-386170.0
21
2369.69
31
0
0
LINE
8
water
10
-386170.0
20
2369.69
30
0
11
-386170.0
21
2430.31
31
0
0
LINE
8
water
10
-386170.0
20
2430.31
30
0
11
-386170.0
21
2400.0
31
0
0
LINE
8
water
10
-398550.0
20
2400.0
30
0
11
-386170.0
21
2400.0
31
0
0
LINE
8
water
10
-398550.0
20
2400.0
30
0
11
-398550.0
21
2369.69
31
0
0
LINE
8
water
10
-398550.0
20
2369.69
30
0
11
-398550.0
21
2430.31
31
0
0
LINE
8
water
10
-398550.0
20
2430.31
30
0
11
-398550.0
21
2400.0
31
0
0
LINE
8
water
10
-386170.0
20
15230.0
30
0
11
-386139.69
21
15230.0
31
0
0
LINE
8
water
10
-386139.69
20
15230.0
30
0
11
-386200.31
21
15230.0
31
0
0
LINE
8
water
10
-386200.31
20
15230.0
30
0
11
-386170.0
21
15230.0
31
0
0
LINE
8
water
10
-386170.0
20
2400.0
30
0
11
-386170.0
21
15230.0
31
0
0
LINE
8
water
10
-386170.0
20
2400.0
30
0
11
-386139.69
21
2400.0
31
0
0
LINE
8
water
10
-386139.69
20
2400.0
30
0
11
-386200.31
21
2400.0
31
0
0
LINE
8
water
10
-386200.31
20
2400.0
30
0
11
-386170.0
21
2400.0
31
0
0
LINE
8
water
10
-386205.0
20
15230.0
30
0
11
-386152.5
21
15260.31
31
0
0
LINE
8
water
10
-386152.5
20
15260.31
30
0
11
-386152.5
21
15199.69
31
0
0
LINE
8
water
10
-386152.5
20
15199.69
30
0
11
-386205.0
21
15230.0
31
0
0
LINE
8
water
10
-398550.0
20
2400.0
30
0
11
-398512.2
21
2400.0
31
0
0
LINE
8
water
10
-398512.2
20
2400.0
30
0
11
-398550.0
21
2400.0
31
0
0
LINE
8
water
10
-386170.0
20
2400.0
30
0
11
-386132.2
21
2400.0
31
0
0
LINE
8
water
10
-386132.2
20
2400.0
30
0
11
-386170.0
21
2400.0
31
0
0
LINE
8
water
10
-386170.0
20
15230.0
30
0
11
-386132.2
21
15230.0
31
0
0
LINE
8
water
10
-386132.2
20
15230.0
30
0
11
-386170.0
21
15230.0
31
0
0
LINE
8
sensors
10
-414960.0
20
6320.0
30
0
11
-414960.0
21
6480.0
31
0
0
LINE
8
sensors
10
-414860.0
20
6320.0
30
0
11
-414860.0
21
6480.0
31
0
0
LINE
8
sensors
10
-414960.0
20
6320.0
30
0
11
-414860.0
21
6320.0
31
0
0
LINE
8
sensors
10
-414960.0
20
6480.0
30
0
11
-414860.0
21
6480.0
31
0
0
LINE
8
sensors
10
-414855.0
20
6345.0
30
0
11
-414855.0
21
6455.0
31
0
0
LINE
8
sensors
10
-414835.0
20
6345.0
30
0
11
-414835.0
21
6455.0
31
0
0
LINE
8
sensors
10
-414855.0
20
6345.0
30
0
11
-414835.0
21
6345.0
31
0
0
LINE
8
sensors
10
-414855.0
20
6455.0
30
0
11
-414835.0
21
6455.0
31
0
0
LINE
8
sensors
10
-414960.0
20
6620.0
30
0
11
-414960.0
21
6780.0
31
0
0
LINE
8
sensors
10
-414860.0
20
6620.0
30
0
11
-414860.0
21
6780.0
31
0
0
LINE
8
sensors
10
-414960.0
20
6620.0
30
0
11
-414860.0
21
6620.0
31
0
0
LINE
8
sensors
10
-414960.0
20
6780.0
30
0
11
-414860.0
21
6780.0
31
0
0
LINE
8
sensors
10
-414855.0
20
6645.0
30
0
11
-414855.0
21
6755.0
31
0
0
LINE
8
sensors
10
-414835.0
20
6645.0
30
0
11
-414835.0
21
6755.0
31
0
0
LINE
8
sensors
10
-414855.0
20
6645.0
30
0
11
-414835.0
21
6645.0
31
0
0
LINE
8
sensors
10
-414855.0
20
6755.0
30
0
11
-414835.0
21
6755.0
31
0
0
LINE
8
sensors
10
-414960.0
20
6920.0
30
0
11
-414960.0
21
7080.0
31
0
0
LINE
8
sensors
10
-414860.0
20
6920.0
30
0
11
-414860.0
21
7080.0
31
0
0
LINE
8
sensors
10
-414960.0
20
6920.0
30
0
11
-414860.0
21
6920.0
31
0
0
LINE
8
sensors
10
-414960.0
20
7080.0
30
0
11
-414860.0
21
7080.0
31
0
0
LINE
8
sensors
10
-414855.0
20
6945.0
30
0
11
-414855.0
21
7055.0
31
0
0
LINE
8
sensors
10
-414835.0
20
6945.0
30
0
11
-414835.0
21
7055.0
31
0
0
LINE
8
sensors
10
-414855.0
20
6945.0
30
0
11
-414835.0
21
6945.0
31
0
0
LINE
8
sensors
10
-414855.0
20
7055.0
30
0
11
-414835.0
21
7055.0
31
0
0
LINE
8
sensors
10
-399920.0
20
12000.0
30
0
11
-400000.0
21
12080.0
31
0
0
LINE
8
sensors
10
-400000.0
20
12080.0
30
0
11
-400080.0
21
12000.0
31
0
0
LINE
8
sensors
10
-400080.0
20
12000.0
30
0
11
-400000.0
21
11920.0
31
0
0
LINE
8
sensors
10
-400000.0
20
11920.0
30
0
11
-399920.0
21
12000.0
31
0
0
LINE
8
sensors
10
-400000.0
20
12000.0
30
0
11
-399935.0
21
12000.0
31
0
0
LINE
8
sensors
10
-399935.0
20
12000.0
30
0
11
-400000.0
21
12000.0
31
0
0
LINE
8
sensors
10
-414960.0
20
7520.0
30
0
11
-414960.0
21
7680.0
31
0
0
LINE
8
sensors
10
-414860.0
20
7520.0
30
0
11
-414860.0
21
7680.0
31
0
0
LINE
8
sensors
10
-414960.0
20
7520.0
30
0
11
-414860.0
21
7520.0
31
0
0
LINE
8
sensors
10
-414960.0
20
7680.0
30
0
11
-414860.0
21
7680.0
31
0
0
LINE
8
sensors
10
-414855.0
20
7545.0
30
0
11
-414855.0
21
7655.0
31
0
0
LINE
8
sensors
10
-414835.0
20
7545.0
30
0
11
-414835.0
21
7655.0
31
0
0
LINE
8
sensors
10
-414855.0
20
7545.0
30
0
11
-414835.0
21
7545.0
31
0
0
LINE
8
sensors
10
-414855.0
20
7655.0
30
0
11
-414835.0
21
7655.0
31
0
0
LINE
8
sensors
10
-390437.5
20
2400.0
30
0
11
-390437.5
21
2325.0
31
0
0
LINE
8
sensors
10
-390437.5
20
2325.0
30
0
11
-390437.5
21
2400.0
31
0
0
LINE
8
sensors
10
-390437.5
20
2400.0
30
0
11
-390437.5
21
2475.0
31
0
0
LINE
8
sensors
10
-390437.5
20
2475.0
30
0
11
-390437.5
21
2400.0
31
0
0
LINE
8
sensors
10
-390657.5
20
2400.0
30
0
11
-390437.5
21
2400.0
31
0
0
LINE
8
sensors
10
-390657.5
20
2400.0
30
0
11
-390657.5
21
2325.0
31
0
0
LINE
8
sensors
10
-390657.5
20
2325.0
30
0
11
-390657.5
21
2400.0
31
0
0
LINE
8
sensors
10
-390657.5
20
2400.0
30
0
11
-390657.5
21
2475.0
31
0
0
LINE
8
sensors
10
-390657.5
20
2475.0
30
0
11
-390657.5
21
2400.0
31
0
0
LINE
8
sensors
10
-390627.5
20
2330.0
30
0
11
-390627.5
21
2470.0
31
0
0
LINE
8
sensors
10
-390467.5
20
2330.0
30
0
11
-390467.5
21
2470.0
31
0
0
LINE
8
sensors
10
-390627.5
20
2330.0
30
0
11
-390467.5
21
2330.0
31
0
0
LINE
8
sensors
10
-390627.5
20
2470.0
30
0
11
-390467.5
21
2470.0
31
0
0
LINE
8
sensors
10
-390393.0
20
2400.0
30
0
11
-390393.0
21
2325.0
31
0
0
LINE
8
sensors
10
-390393.0
20
2325.0
30
0
11
-390393.0
21
2400.0
31
0
0
LINE
8
sensors
10
-390393.0
20
2400.0
30
0
11
-390393.0
21
2475.0
31
0
0
LINE
8
sensors
10
-390393.0
20
2475.0
30
0
11
-390393.0
21
2400.0
31
0
0
LINE
8
sensors
10
-390613.0
20
2400.0
30
0
11
-390393.0
21
2400.0
31
0
0
LINE
8
sensors
10
-390613.0
20
2400.0
30
0
11
-390613.0
21
2325.0
31
0
0
LINE
8
sensors
10
-390613.0
20
2325.0
30
0
11
-390613.0
21
2400.0
31
0
0
LINE
8
sensors
10
-390613.0
20
2400.0
30
0
11
-390613.0
21
2475.0
31
0
0
LINE
8
sensors
10
-390613.0
20
2475.0
30
0
11
-390613.0
21
2400.0
31
0
0
LINE
8
sensors
10
-390583.0
20
2330.0
30
0
11
-390583.0
21
2470.0
31
0
0
LINE
8
sensors
10
-390423.0
20
2330.0
30
0
11
-390423.0
21
2470.0
31
0
0
LINE
8
sensors
10
-390583.0
20
2330.0
30
0
11
-390423.0
21
2330.0
31
0
0
LINE
8
sensors
10
-390583.0
20
2470.0
30
0
11
-390423.0
21
2470.0
31
0
0
ENDSEC
0
EOF
